<svg xmlns="http://www.w3.org/2000/svg" xmlns:xlink="http://www.w3.org/1999/xlink" version="1.1" x="0px" y="0px" viewBox="-461 335 100 100" fill="#999999" style="enable-background:new -461 335 100 100;" xml:space="preserve"><polygon points="-361,357.9 -361.1,357.9 -361,357.9 -361.2,357.8 -361.5,357.3 -361.7,357.1 -362.6,356.5 -362.8,356.7   -363.5,356.7 -363.6,356.7 -363.6,356.7 -363.9,356.6 -364,356.6 -364.2,356.6 -364.3,356.6 -364.5,356.6 -364.6,356.6   -364.6,356.5 -364.7,356.4 -364.8,356.3 -364.9,356.3 -365,356.4 -365,356.3 -365.1,356.5 -365.3,356.5 -365.5,356.5 -365.6,356.5   -365.8,356.6 -365.8,356.9 -365.9,357 -366.1,357.1 -366.8,357.3 -367.4,357.5 -367.5,357.5 -367.9,357.7 -368.2,357.7   -368.3,357.7 -368.6,358 -368.7,358 -368.8,358 -369,358 -369,358 -369.1,358.1 -369.2,358.1 -369.3,358.1 -369.4,357.9   -369.4,357.9 -369.6,357.9 -369.8,357.9 -370,357.9 -370,357.7 -369.9,357.5 -369.8,357.4 -369.6,357.3 -369.3,357.3 -369.2,357.3   -369.1,357.2 -369,357 -369,356.9 -369,356.5 -368.9,356.5 -368.9,356.2 -369.2,356.2 -369.5,356.2 -369.9,356.1 -370.8,355.8   -371.1,355.8 -371.5,356 -371.6,356 -371.7,355.9 -371.9,355.9 -372.1,355.9 -372.2,356 -372.3,356.1 -372.7,356.4 -372.7,356.5   -372.9,356.4 -373,356.4 -373.2,356.6 -373.3,356.8 -373.4,357 -373.5,357.1 -373.7,357.2 -374.2,357.3 -374.7,357.6 -374.8,357.8   -375,357.8 -375.3,357.9 -375.6,358.1 -375.8,358.3 -376.1,359 -376.4,359.5 -376.5,359.6 -376.5,359.7 -377.5,359.9 -377.8,360   -378.3,359.9 -378.6,360 -379.3,360.3 -379.5,360.4 -379.6,360.5 -379.7,360.7 -379.8,360.7 -380,360.9 -380.2,361.1 -382.2,362.6   -382.5,362.7 -382.8,362.7 -383.2,362.7 -383.5,362.7 -383.8,362.5 -384,362.3 -384.1,362.1 -384.2,362 -384.2,361.8 -384.3,361.4   -384.4,361.2 -384.7,360.6 -384.8,360.4 -384.8,360.2 -384.8,359.9 -384.8,359.8 -385,359.6 -385,359.5 -385,359.4 -385,358.9   -385,358.5 -384.9,358.4 -384.9,358.3 -384.9,358.1 -384.6,357.7 -384.6,357.4 -384.6,357.3 -384.6,357.1 -384.6,356.8   -384.6,356.4 -384.6,356.3 -384.5,356.1 -384.5,355.7 -384.6,355 -384.5,354.7 -384.5,354.6 -384.4,354.5 -384.4,354.4   -384.4,354.3 -384.3,354.1 -384.3,353.8 -384.3,353.7 -384.3,353.6 -384.3,353.4 -384.3,353.3 -384.3,353.2 -384,353 -383.9,352.9   -383.9,352.7 -383.9,352.5 -383.9,352.3 -383.9,352.2 -383.9,352.1 -384.1,351.9 -384.3,351.7 -384.5,351.7 -385.4,352   -385.5,352.1 -385.7,352.2 -385.8,352.1 -386.1,351.9 -386.1,351.9 -386.2,351.9 -386.2,351.9 -386.3,351.8 -386.2,351.7   -386.2,351.5 -386.1,351.3 -385.9,350.9 -385.8,350.5 -385.7,350.3 -385.7,350 -385.5,349.6 -385.5,349.4 -385.5,349 -385.7,348.8   -385.9,348.6 -386.5,348.4 -386.9,347.9 -387.2,347.7 -387.4,347.6 -387.5,347.6 -387.6,347.6 -387.6,347.7 -387.7,347.7   -387.7,347.6 -387.8,347.5 -387.8,347.4 -387.9,347.3 -388,347.2 -388,347.2 -388.1,347.1 -388.2,347.1 -388.4,347.1 -388.4,347.2   -388.4,347.4 -388.5,347.4 -388.6,347.4 -388.9,347.3 -389,347.3 -389,347.3 -389.1,347.4 -389.1,347.4 -389.2,347.4 -389.3,347.3   -389.3,347.3 -389.6,347.3 -389.7,347.4 -389.7,347.4 -389.8,347.6 -390.2,347.6 -390.3,347.7 -390.3,347.7 -390.2,347.9   -390.3,348 -390.5,348.1 -390.6,348.2 -390.7,348.2 -390.8,348.2 -390.8,348.3 -390.8,348.4 -390.8,348.5 -390.8,348.5   -390.9,348.8 -391,348.9 -391.1,348.9 -391.2,348.9 -391.2,349.2 -391.4,349.6 -391.6,350 -391.7,350.2 -391.8,350.3 -392,350.4   -392.1,350.4 -392.4,350.7 -392.7,351.2 -392.8,351.2 -392.9,351.3 -393,351.3 -393,351.4 -393.1,351.4 -393.2,351.5 -393.2,351.5   -393.2,351.6 -393.2,351.6 -393.2,351.7 -393.1,351.8 -393.3,351.8 -393.5,351.9 -393.6,351.8 -393.8,351.7 -393.8,351.9   -393.8,352.2 -393.7,352.5 -393.6,352.7 -393.5,352.7 -393.3,352.8 -393.2,352.8 -393.2,353 -393.2,353.1 -393.1,353.2   -393.1,353.2 -393.1,353.3 -393.1,353.5 -393,353.7 -393,353.8 -393,353.9 -393,354 -393.1,354.1 -393.1,354.2 -393.2,354.2   -393.2,354.3 -393.2,354.3 -393.2,354.4 -393.2,354.5 -393.2,354.6 -393.3,354.6 -393.3,354.6 -393.3,354.6 -393.4,354.6   -393.5,354.6 -393.6,354.9 -393.6,354.9 -393.6,355 -393.9,355.3 -394.1,355.3 -394.3,355.3 -394.5,355.2 -394.7,355.2   -394.6,355.3 -394.8,355.2 -394.9,355.2 -395,355.1 -395,355.1 -395,355 -395.1,355 -395.3,355 -395.3,354.8 -395.4,354.7   -395.5,354.6 -395.7,354.6 -396,354.7 -396.1,354.8 -396.2,354.8 -396.3,354.9 -396.3,354.9 -396.4,354.9 -396.5,354.8   -396.6,354.8 -396.7,354.8 -396.8,354.8 -397.1,354.9 -397.3,355 -398.2,354.9 -398.4,354.9 -398.5,355.3 -398.6,355.4 -399,355.7   -399,355.7 -399,355.8 -399,355.9 -399.1,355.9 -399.2,356 -399.2,356 -399.3,356.2 -399.3,356.3 -399.3,356.7 -399.3,356.7   -399.2,356.7 -399.2,356.8 -399.2,356.8 -399.2,356.8 -399.2,356.8 -399.2,356.8 -399.2,356.9 -399.2,357 -399.2,357.1   -399.2,357.1 -399.1,357.3 -399.1,357.6 -399,357.6 -399.1,357.8 -398.9,357.9 -398.8,357.9 -398.8,358 -399.1,358.4 -399.2,358.5   -399.5,358.7 -399.6,358.8 -399.7,358.9 -399.7,358.9 -399.9,359 -400.1,359.1 -400.2,359.1 -400.9,358.6 -400.9,358.6 -401,358.5   -401.1,358.4 -401.2,358.1 -401.4,358 -401.5,357.9 -401.7,357.8 -401.8,357.5 -401.9,357.3 -402,357.2 -402.1,357.1 -402.6,357.1   -402.6,357 -402.7,357 -402.7,357.1 -402.7,357.2 -402.6,357.2 -402.5,357.3 -402.5,357.3 -402.4,357.5 -402.5,357.5 -402.6,357.6   -402.7,357.5 -402.8,357.4 -402.8,357.3 -402.9,357.1 -403,357.1 -403.2,357.2 -403.2,357.3 -403.1,357.5 -403.1,357.7   -403.1,357.8 -403.2,357.8 -403.5,357.6 -403.6,357.6 -403.7,357.6 -403.8,357.6 -404.1,357.5 -404.2,357.6 -404.3,357.6   -404.2,357.7 -404.2,357.7 -404.2,357.8 -404.3,357.8 -404.4,358 -404.5,358.1 -404.5,358.2 -404.6,358.2 -404.9,358.3 -405,358.3   -405.1,358.3 -405.1,358.5 -405.2,358.5 -405.3,358.5 -405.6,358.6 -406,358.7 -405.9,358.9 -406,359 -406.1,359.1 -406.3,359.1   -406.4,359 -406.6,359 -406.7,359 -406.8,359.1 -406.9,359.2 -406.9,359.4 -406.8,359.8 -406.9,359.9 -407.1,359.9 -407.4,359.8   -407.6,359.8 -407.7,359.9 -407.8,360 -407.9,360.1 -408,360.1 -408.5,360.5 -408.5,360.6 -408.6,360.6 -408.7,360.6 -408.8,360.6   -408.8,360.5 -408.8,360.4 -408.9,360.3 -409.1,360.1 -409.2,360 -409.3,359.9 -409.4,359.8 -409.5,359.7 -409.6,359.5   -409.7,359.4 -410,359.3 -410.2,359.2 -410.3,359.1 -410.4,359 -410.4,358.9 -410.4,358.3 -410.4,358.2 -410.5,358.1 -410.6,358   -410.7,357.9 -411,358 -411.1,357.9 -411.2,357.9 -411.3,357.8 -411.4,357.8 -411.5,357.8 -411.6,357.8 -411.7,357.8 -411.7,357.9   -411.8,358 -411.8,358 -411.9,358.1 -412,358 -412.1,357.6 -412.3,357.5 -412.4,357.6 -412.6,357.7 -412.8,357.9 -412.9,358   -413.1,358.1 -413.2,358.1 -413.4,358.1 -413.6,358.2 -413.8,358.3 -414,358.4 -414.1,358.3 -414.2,358.2 -414.3,358 -414.3,357.9   -414.5,357.7 -414.8,357.6 -414.9,357.5 -415,357.4 -415.1,357 -415.2,356.9 -415.3,356.9 -415.6,356.7 -415.7,356.6 -416.1,356.6   -416.7,356.8 -417.6,356.8 -417.7,356.8 -417.8,357 -417.9,357 -418.1,357 -418.2,357 -418.6,356.8 -418.8,356.8 -419,356.8   -419.1,356.8 -419.2,356.9 -419.4,357 -419.5,357.1 -419.5,357.2 -419.6,357.2 -419.7,357.1 -419.8,357 -419.9,356.9 -420,357   -420.5,357.1 -420.7,357.1 -420.8,357 -420.9,356.9 -421,356.8 -421.1,356.8 -421.2,356.7 -421.3,356.7 -421.5,356.7 -421.6,356.7   -421.7,356.6 -421.9,356.5 -422,356.2 -422.2,356.1 -423.7,355.6 -423.9,355.5 -423.9,355.4 -424,355.3 -424.1,355.1 -424.1,355   -424.3,355 -424.4,354.9 -424.4,355.1 -424.4,355.3 -424.5,355.4 -424.8,355.4 -424.9,355.4 -425,355.4 -425.1,355.5 -425.2,355.7   -425.2,355.7 -425.2,355.7 -425.3,355.9 -425.3,356 -425.4,356.2 -425.3,356.6 -425.3,356.8 -425.3,357 -425.4,357.1 -425.6,357.3   -425.9,357.7 -426.2,357.9 -429.2,357.9 -429.7,358.1 -431,358.8 -431.2,358.9 -431.3,359.2 -431.4,359.5 -431.2,360.2   -431.2,360.5 -431.3,360.8 -432.3,362.6 -432.4,362.9 -432.5,363.2 -432.5,363.4 -432.5,363.6 -432.5,363.8 -432.4,364.1   -432.4,364.3 -432.4,364.6 -432.5,364.9 -432.6,365.2 -433.2,366.1 -433.3,366.2 -433.5,366.4 -433.8,366.5 -434.3,366.6   -434.4,366.7 -434.5,366.8 -434.6,366.9 -434.7,367.2 -434.8,367.3 -434.8,367.2 -435,367.2 -435.3,367.1 -435.5,367.2   -435.8,367.3 -436.2,367.7 -436.3,367.8 -436.4,367.9 -436.4,368.1 -436.3,368.5 -436.3,368.6 -437,368.3 -437.2,368.3   -437.4,368.3 -437.6,368.4 -438.2,368.8 -438.5,368.8 -439.4,368.9 -439.5,368.9 -439.6,369 -439.7,369.1 -439.9,369.3 -440,369.4   -440.6,369.7 -441.2,369.8 -442.7,369.8 -442.8,369.8 -442.9,369.9 -443,370 -442.9,370.2 -442.8,370.3 -442.8,370.4 -442.8,370.5   -442.4,370.8 -442.3,371 -442.3,371 -442.1,371.1 -442.1,371.1 -442.1,371.2 -442.1,371.3 -442.3,371.4 -442.8,371.6 -443,371.8   -443,371.9 -443,372.3 -443,372.4 -442.9,372.5 -442.9,372.6 -442.9,372.9 -443,373.2 -443,373.4 -443.1,373.5 -443.2,373.5   -443.5,373.5 -443.7,373.5 -444.1,373.8 -444.8,374.3 -445.2,374.5 -445.4,374.7 -445.5,374.8 -445.6,374.9 -445.7,375   -446.2,375.2 -446.3,375.2 -446.4,375.2 -446.6,375.1 -446.6,375.1 -446.7,375.1 -446.8,375.1 -446.9,375.1 -447.3,374.7   -447.5,374.7 -447.7,374.9 -448.4,375.8 -448.5,375.9 -448.6,375.8 -448.7,375.5 -448.8,375.3 -448.7,375 -448.8,374.9   -448.8,374.7 -448.9,374.6 -449,374.5 -449.4,374.3 -449.5,374.2 -450.3,373.5 -450.4,373.3 -450.6,373.2 -451.1,373.2   -451.9,373.5 -452.3,373.6 -453.2,373.4 -453.7,373.2 -454,372.9 -454.5,372.5 -454.6,372.4 -454.7,372.4 -454.7,372.4   -454.8,372.3 -454.8,372.3 -454.8,372.2 -454.8,372.1 -454.8,372.1 -454.9,372 -454.9,372 -454.9,372 -455,371.9 -454.9,371.8   -454.9,371.8 -455,371.7 -455,371.7 -455.1,371.7 -455.5,371.8 -455.6,371.8 -455.5,371.9 -455.4,372.2 -455.4,372.4 -455.5,372.6   -455.6,372.8 -455.7,373 -455.8,373.1 -455.9,373.4 -455.9,373.5 -456,373.7 -456.1,373.8 -456.1,373.9 -456.1,374.4 -456.1,374.5   -456.3,374.6 -456.4,374.6 -456.6,374.6 -456.7,374.7 -456.7,374.9 -456.7,375.1 -456.7,375.1 -456.7,375.2 -456.7,375.3   -456.7,375.3 -456.7,375.4 -456.8,375.4 -456.7,375.5 -456.5,375.8 -456.5,375.9 -456.5,376 -456.5,376 -456.5,376.1 -456.4,376.2   -456.6,376.4 -456.6,376.6 -456.7,376.9 -456.8,377.2 -456.8,377.4 -456.8,377.5 -456.9,377.6 -456.9,377.7 -456.9,377.8   -456.9,378 -456.9,378 -456.9,378.3 -457,378.6 -457.2,378.7 -457.2,378.8 -457.4,379.1 -457.6,379.2 -457.7,379.4 -457.7,379.6   -457.7,379.8 -457.7,380 -457.8,380.1 -457.9,380.1 -458,380.1 -458.1,380.1 -458.2,380.2 -458.2,380.2 -458.2,380.3 -458.6,380.7   -458.7,380.8 -458.9,380.8 -459.2,380.9 -459.4,380.9 -459.5,381.1 -459.4,381.1 -459.4,381.2 -459.3,381.2 -459.3,381.4   -459.2,381.5 -459.1,381.6 -459,381.6 -458.9,381.7 -458.8,382 -458.3,382.6 -458.2,382.8 -458.7,382.8 -459.4,382.9 -459.9,382.9   -459.9,383.1 -460,383.2 -460.3,383.4 -460.5,383.6 -460.8,383.9 -461,384.3 -461,384.7 -460.9,385.5 -460.7,386.8 -460.7,387.1   -460.9,387.6 -461,387.8 -460.8,388.4 -460.4,388.9 -459.8,389.1 -459.3,389.1 -458.8,389.1 -458.5,389.1 -458.3,389.2   -458.2,389.3 -458,389.4 -458,389.5 -458,389.6 -458.1,389.6 -458.5,389.6 -458.6,389.7 -458.6,389.8 -458.6,390 -458.6,390.1   -458.6,390.3 -458.7,390.4 -458.9,390.5 -459.1,390.7 -459.4,391.1 -459.7,391.5 -460.1,392 -460.4,392.5 -460.5,392.6   -460.5,393.2 -460.4,393.8 -460.2,394.4 -459.9,395.2 -459.7,396.1 -459.4,396.9 -459.2,397.9 -458.9,399 -458.6,399.9   -458.6,400.6 -458.7,401.2 -458.8,401.3 -458.9,401.6 -459,401.7 -459,401.7 -458.9,401.8 -458.9,401.8 -458.9,402 -458.9,402.1   -458.9,402.2 -458.9,402.3 -458.8,402.4 -458.9,402.9 -458.9,403.3 -458.8,404.1 -458.9,404.7 -458.9,404.9 -458.8,405.3   -458.7,406 -458.4,406.1 -457.7,406.2 -456.6,406.4 -455.4,406.6 -454,406.8 -452.8,406.9 -452.7,407 -452.5,407.1 -452.3,407.4   -452.2,407.6 -452.3,407.9 -452.3,408.1 -452.2,408.3 -452,408.6 -452,408.7 -452,409 -451.9,409.1 -451.8,409.3 -451.7,409.6   -451.7,409.7 -451.7,409.9 -451.7,410.1 -451.9,410.3 -451.9,410.4 -451.8,411 -451.9,411 -451.9,411.1 -451.9,411.2 -451.9,411.2   -451.9,411.3 -452,411.4 -452.6,412.1 -453.4,413.1 -454.2,414.1 -454.2,414.1 -454.8,414.8 -455.5,415.7 -455.9,416.1   -456.5,416.8 -457.6,418.1 -457.6,418.1 -458.1,418.7 -458.5,419.2 -458.3,419.3 -457.8,419.4 -457.2,419.6 -456.6,419.8   -456.1,420 -455.5,420.2 -454.9,420.4 -454.3,420.5 -453.8,420.7 -453.2,420.9 -452.6,421.1 -452,421.3 -451.4,421.5 -450.9,421.7   -450.3,421.8 -449.7,422 -449.1,422.2 -448.6,422.4 -447.9,422.6 -447.2,422.7 -446.1,422.6 -445.8,422.6 -445.4,422.6   -445.1,422.5 -444.8,422.5 -444.4,422.5 -444.1,422.5 -443.7,422.4 -443.4,422.4 -443.1,422.4 -442.7,422.3 -442.4,422.3   -442,422.3 -441.7,422.2 -441.3,422.2 -441,422.2 -440.7,422.1 -439.6,422 -438.1,422.3 -436.8,422.6 -436,422.9 -435.8,422.8   -435.6,422.3 -435.4,422.1 -435.2,422 -433.3,421.5 -431.9,421.5 -430.9,421.5 -429.8,421.7 -429.4,421.7 -428.4,421.4 -428,421.3   -427.6,421.2 -427.2,421.1 -426.8,420.9 -426.4,420.8 -426,420.7 -425.6,420.6 -425.2,420.5 -424.8,420.3 -424.4,420.2 -424,420.1   -423.6,420 -423.2,419.9 -422.8,419.8 -422.4,419.6 -422,419.5 -421.4,419.3 -420.8,419 -420.6,418.7 -420.5,418.5 -420.4,418.4   -420.4,418.4 -420.4,418.4 -420.4,418.3 -420.6,418.1 -420.9,417.9 -421.2,417.7 -421.2,417.6 -421.2,417.4 -421.1,417.1   -420.6,416.2 -420.6,416.1 -420.6,415.6 -420.5,414.5 -420.5,414.4 -420.6,414.2 -420.6,414.1 -420.8,413.9 -420.9,413.6   -420.9,413.2 -420.2,410.6 -420.1,410.5 -420,410.5 -419.1,410.3 -418.9,410.2 -418.3,409.5 -418.1,409.4 -417.9,408.4   -417.7,408.3 -417.5,408.3 -417.3,408.1 -417.1,408 -416.9,407.8 -416.4,407.6 -416.2,407.5 -415.8,407.5 -415.7,407.5   -415.6,407.6 -415.6,407.8 -415.6,407.9 -415.7,407.9 -415.7,408 -415.7,408 -415.6,408.1 -415.5,408.1 -415.4,408.1 -415.2,408.1   -415,408.1 -414.8,408.1 -414.7,408.1 -414.4,408.3 -414.3,408.3 -414.2,408.3 -413.8,408.3 -413.4,408.3 -413.3,408.3   -412.8,408.1 -412.4,408.1 -412.1,407.9 -411.7,407.9 -411.6,407.8 -411.2,407.5 -411.1,407.5 -411,407.4 -410.9,407.4   -410.6,407.4 -410.5,407.3 -410.4,407.2 -410.4,406.8 -410.7,406.8 -411.3,406.8 -411.4,406.8 -411.5,406.7 -411.6,406.6   -411.7,406.3 -411.8,406.1 -411.9,406 -411.9,405.9 -411.8,405.7 -411.6,405.7 -411.2,405.8 -411,405.8 -410.7,405.7 -410.4,405.5   -409.9,405 -409.7,404.9 -409.6,404.9 -409.4,404.9 -409.2,404.9 -409.1,404.9 -409,404.7 -408.9,404.7 -408.5,404.5 -408.5,404.4   -408.5,404.2 -408.4,404.2 -408.2,403.9 -408.1,403.8 -408,403.5 -407.9,403.3 -407.7,403.3 -407.6,403.4 -407.4,403.5   -407.2,403.6 -407.2,403.7 -407.1,403.8 -406.9,403.8 -406.6,403.8 -406.4,403.9 -405.6,404.1 -405.4,404.2 -405.3,404.1   -405.1,404 -405,403.9 -405.1,403.9 -405.2,403.8 -405.6,403.8 -405.8,403.8 -405.9,403.8 -405.9,403.7 -405.8,403.6 -405.5,403.4   -405.3,403.4 -405.2,403.4 -405,403.4 -404.5,403.7 -404.2,403.8 -404.1,403.8 -404,403.9 -404,404.2 -403.9,404.3 -403.8,404.6   -403.4,405 -403.3,405.1 -403,405.1 -402.5,404.9 -402.3,404.8 -402.1,404.8 -401.9,404.8 -401.6,404.6 -401.4,404.4 -401.3,404.2   -401.2,404.2 -401.1,404.1 -400.3,402.9 -400.2,402.7 -399.8,402.4 -399.8,402.3 -399.8,402.2 -400,401.6 -400.2,400.9   -400.2,400.7 -400.1,400.3 -400.1,400 -400,399.6 -400,399.5 -400.1,399.3 -400.2,398.8 -400.3,398.5 -400.3,398.1 -400.2,397.8   -399.9,397.6 -399.8,397.5 -399.5,397.4 -399.4,397.3 -399,396.7 -398.9,396.6 -398.9,396.5 -399,396.2 -399,396 -399,396   -399.1,395.9 -399.1,395.9 -399.2,395.9 -399.2,395.8 -399.3,395.8 -399.3,395.6 -399.2,395.5 -399,395.3 -398.8,395.1   -398.6,394.9 -398.6,394.9 -398.5,394.7 -398.7,393.8 -398.5,393.5 -398.3,393.3 -398.1,393.1 -397.8,393.1 -397.7,393.1   -397.5,393 -397.4,393.1 -397.3,393.1 -397.3,393.1 -397.1,393.1 -396.8,392.8 -396.5,392.8 -396.1,393 -395.8,393 -395.3,392.7   -395.2,392.7 -395,392.7 -394.9,392.6 -394.9,392.6 -394.6,392.1 -394.5,392.1 -394.4,392.1 -394.2,392.2 -394.1,392.1   -392.9,391.1 -392.9,390.8 -393,390.6 -393.3,390.2 -393.4,390.1 -393.4,390 -393.5,389.9 -393.7,389.9 -393.7,389.8 -393.8,389.7   -393.9,389.5 -393.9,389.4 -393.9,389.2 -393.8,388.7 -393.8,388.5 -393.8,388.4 -393.8,388.4 -393.9,388.4 -394,388.3 -394,388.3   -394.1,388.1 -394.1,387.8 -394.2,387.7 -394.5,387.8 -394.9,387.6 -395.2,387.6 -395.3,387.5 -395.3,387.3 -395.4,387.2   -395.4,387.1 -395.6,386.8 -395.7,386.7 -395.8,386.4 -395.8,386.3 -396,386 -396.1,385.9 -396,385.8 -395.8,385.7 -395.8,385.6   -395.9,385.4 -395.8,385.3 -395.7,385.2 -395.5,385.1 -395.2,385.1 -394.9,385.1 -393.4,385.6 -393,385.6 -392.8,385.8   -392.7,385.8 -392.1,385.8 -391.5,385.9 -391.3,386 -390.4,385.8 -389.5,385.8 -389,385.7 -388.9,385.5 -388.8,385.4 -388.8,385.4   -388.6,385.4 -388.4,385.4 -388.3,385.4 -388.3,385.3 -388.2,385.2 -388,385.2 -387.7,385.1 -387.6,385 -387.6,384.8 -387.6,384.7   -387.6,384.6 -387.5,384.4 -387.3,384.2 -387.3,384.1 -387.3,383.9 -387.3,383.7 -387.3,383.4 -387.3,383.2 -387.1,382.7   -387.2,382.5 -387.7,382.2 -387.9,382 -388.1,381.7 -388.2,381.5 -388.3,381.4 -388.3,381.2 -388.3,381 -388.2,380.8 -388.1,380.8   -388,380.8 -387.7,380.8 -387.6,380.8 -387.5,380.6 -387.5,380.4 -387.5,380.2 -387.5,380 -387.5,379.9 -387.5,379.8 -387,379.4   -386.7,379.3 -386.6,379.2 -386.2,378.7 -386.1,378.4 -386,378.1 -385.8,377.9 -384.8,377.5 -384.8,377.5 -384.7,377.4   -384.6,377.2 -384.6,377.1 -384.6,377.1 -384.5,377.1 -384.5,377 -384.5,376.9 -384.5,376.8 -384.5,376.4 -384.3,376.2   -383.8,375.9 -383.7,375.6 -383.6,375.5 -383.6,375.3 -383.8,375.2 -384.2,374.7 -384.3,374.5 -384.3,374.3 -384.1,374   -383.8,373.7 -383.7,373.6 -383.7,373.4 -383.8,373.3 -383.8,373.2 -383.9,373.1 -384,372.9 -384,372.7 -383.9,372.6 -383.9,372.4   -384,372.3 -384.1,372.2 -384.5,372 -384.6,371.9 -384.7,371.7 -384.6,371.6 -384.5,371.4 -384.4,371.3 -384.4,371.1 -384.5,371   -384.6,370.9 -384.7,370.8 -384.7,370.8 -384.7,370.7 -384.7,370.6 -384.7,370.5 -384.7,370.4 -384.8,370.3 -385,369.9   -385.1,369.8 -385.4,369.5 -385.5,369.4 -385.5,369.1 -385.6,369 -385.9,368.9 -386,368.9 -386.2,368.8 -386.4,368.6 -386.5,368.5   -386.8,368.4 -386.8,368.3 -386.9,368.2 -386.8,368 -386.6,367.8 -386.5,367.7 -386.5,367.6 -386.5,367.5 -386.2,367.3 -386,367.2   -385.9,367.2 -385.9,367.1 -385.8,366.9 -385.8,366.8 -385.4,366.7 -385.2,366.6 -384.7,366 -384.6,365.9 -384.4,365.9   -384.3,365.8 -384.1,365.8 -384.2,365.6 -384.3,365.5 -384.2,365.4 -384,365.2 -384,365.1 -383.9,365 -383.8,364.7 -383.8,364.6   -383.7,364.6 -383.5,364.7 -383.1,365 -382.9,365.2 -382.8,365.2 -382.7,365.2 -382.6,365.2 -382.5,365.1 -382.5,365 -382.6,364.7   -382.7,364.5 -382.5,364.4 -382.1,364.3 -381.9,364.3 -381.9,364.2 -381.8,364.1 -381.7,364 -381.3,363.9 -381.2,363.7   -381.1,363.7 -380.8,363.6 -380.7,363.5 -380.7,363.4 -380.7,363.3 -380.7,363.3 -380.7,363.2 -380.6,363.1 -380.4,363.1 -380,363   -379.9,363 -379.9,362.8 -380,362.6 -380,362.5 -379.9,362.5 -379.6,362.3 -379,362.2 -378.7,362.2 -378.4,362.1 -378.1,362.1   -377.9,362.1 -377.5,361.7 -377.2,361.5 -376.7,361.4 -376.2,361.4 -375.7,361.5 -375.1,361.4 -374.9,361.4 -374.7,361.3   -374.5,361.2 -374.3,361.3 -374.2,361.3 -374.1,361.3 -374,361.2 -373.8,361.1 -372.8,361 -372.6,361.1 -372.4,361.1 -372.3,361.1   -372.2,361.1 -371.8,361 -371.5,361 -371,360.9 -370.8,361 -370.6,361 -369.7,360.9 -368.8,360.9 -368.3,361 -368.1,361.1   -367.6,361.4 -367.4,361.5 -367.1,361.6 -366.9,361.6 -366.5,361.4 -366.5,361.3 -366.4,361 -366.4,360.9 -366.3,360.8   -366.2,360.8 -365.7,360.9 -365.6,360.8 -365.2,360.5 -364.6,360.2 -364.5,360 -364.2,359.9 -364,359.9 -363.9,360 -363.9,360   -363.8,360 -363.7,360.2 -363.6,360.3 -363.5,360.3 -363.4,360 -363.4,360 -363.4,359.9 -363.4,359.8 -363.4,359.8 -363.6,359.7   -363.7,359.6 -363.8,359.4 -363.9,359.2 -364.3,359 -364.5,358.9 -364.7,358.7 -364.6,358.5 -364.5,358.5 -364.3,358.5   -364.1,358.5 -364,358.4 -363.9,358.3 -363.9,358.1 -363.8,358 -363.7,358 -363.5,358 -363.2,357.9 -363.1,357.9 -363.1,357.9   -363,358 -362.9,358 -362.9,358 -362.8,357.9 -362.8,357.9 -362.7,357.8 -362.7,357.8 -362.7,357.7 -362.5,357.7 -362.5,357.7   -362.3,357.5 -362.3,357.4 -362.2,357.4 -362.1,357.4 -362,357.5 -361.8,358.1 -361.7,358.1 -361.5,358.1 -361,358 "/></svg>