<svg xmlns="http://www.w3.org/2000/svg" xmlns:xlink="http://www.w3.org/1999/xlink" version="1.1" x="0px" y="0px" viewBox="-461 335 100 100" fill="#999999" style="enable-background:new -461 335 100 100;" xml:space="preserve"><path d="M-432.6,406.9l-0.1-0.1l-0.1-0.1l-0.1-0.1l-0.1-0.2l-0.2,0l-0.1,0.2l0.1,0.2l0.1,0.2l0.1,0.3l0.1,0.2l0.2,0l0,0l0.1-0.3  l0.1-0.3L-432.6,406.9z M-388.8,401.6l-0.2-0.6l-0.3-0.5l-0.7-0.8l-0.7-0.7l-0.1-0.2l-0.1-0.3l-0.1-0.2l-0.2-0.2l0.4-0.5l0.2-0.7  l0-1.6l0-0.9l-0.2-0.6l-0.4-0.4l-1.2-0.4l-1.3-0.2l-0.5,0.1l-0.8,0.7l-0.4,0.2l-0.6-0.1l-0.6-0.5l-0.4-0.8l-0.5-1.9l-0.5-2.2  l-0.3-0.5l-0.3-0.2l-0.3,0l-0.3,0l-0.3,0l-0.7-0.3l-0.2-0.4l0-0.6l-0.1-0.7l-0.4-0.8l-0.9-1.3l-0.3-0.8l-0.4-1.8l-0.1-1l0.1-0.7  l0.4,0.1l0.4-0.2l0.3-0.4l0.2-0.5l0.2-0.6l0-0.5l-0.1-0.4l-0.3-0.4l-0.2-0.1l-0.4-0.1l-0.2-0.2l-0.1-0.2l-0.1-0.5l-0.1-0.3l-0.3-0.6  l-0.2-0.2l-0.3-0.1l-0.2-0.5l0.1-0.9l-0.1-0.5l1.2-0.3l0.4-0.2l0.3-0.2l0.2-0.2l0.1-0.3v-0.3l-0.5-1.5l-0.1-0.7l-0.2-2.4l0.1-0.4  l0.2-0.4l0.2-0.3l0.6-0.6l0.2-0.3l-0.1-0.7l-0.2-0.8l0-0.7l0.6-0.4l0-0.2l-0.1-0.4l0-0.2l0.1-0.4l0.2-0.2l0.2-0.1l0.2-0.3l0.3-0.6  v-0.4l-0.1-0.4l-0.1-0.7l-0.8-2.1l-0.2-0.6l0-1.1l-0.1-0.6l-0.3-0.9l-0.9-2.1l-0.5-0.7l-0.6-0.7l-3.1-2.3l-0.4-0.1l-1.7,0l-0.3,0  l-0.2-0.2l-0.2-0.6l0-0.2l0-0.5l-0.1-0.3l-0.1-0.2l-0.4-0.3l-0.1-0.2l0-0.2l0.3-0.4v-0.3l-0.1-0.3l-0.3-0.3l-0.1-0.2l-0.7-1.7v0h0  l-0.4-0.5l-1.2-0.7l-0.5-0.6l-0.6-0.4l-0.5,0.4l-0.9,1.2l-0.6,0.2l-1.2,0l-0.6,0.4v0l0,0l-0.2,0.2l-0.9,0.6l-0.4,0.1l-0.5-0.1  l-0.4-0.2l-0.8-0.6l-0.4-1l-0.1-0.3l0-0.2l0-0.5l0-0.2l0.2-0.4l0.1-0.2l0,0l0-0.7l-0.2-0.9l-0.4-0.7l-0.6-0.3l-0.6,0.3l-0.7,0.6  l-0.7,0.8l-0.4,0.7l-0.1,0.5l-0.1,0.9l-0.1,0.4l-0.3,0.4l-0.4,0.2l-0.3,0.3l-0.1,0.5v0l-0.3,0.6l-0.3,0.6l-0.4,0.5l-0.5,0.3  l-0.3,0.6l-1.3,1.5l-0.1,0.2l-0.2,0.6l-0.1,0.2l0,0.5l0,0.2l-2.4,3.7l-0.7,0.8l-0.1,0.4l0.3,0.5l0.4,0.4l1.4,1.1l0.4,0.5l0.1,0.3  l-0.5,1l-0.1,0.6l0,0.7l0.1,0.6l0.2,0.5l0,0l0.2,0.2l-0.1,0.6l-0.2,0.1l-0.2,0l-0.1,0.1l0.2,0.8l-0.1,0.2l-0.1,0.2l0,0.2l0,0.2  l0,0.1l0.1,0.1l0.2,0.2l0.2,0.4l0,0.9l0,0.4l1.7-0.5l0.5,0.2l0.4,0.2l3,1.2l0.2,0l0.2,0.6l0,0.7l-0.2,0.4l-0.5-0.2l0,0.6l0.1,1.1  l0,1l-0.5,0.9l0.7,0.7l0.1,0.3l0.2-0.2l0.1,0.2l0.2,0.9l-0.2,0.1l-0.2,0l-0.1-0.2l0-0.4h-0.2l-0.5,1.2l-0.9,0.3l-2.2-0.3l0.3,0.4  l0.4,0.7l0.4,0.3l0.3,0.2l0.3,0.1l0.2,0.2l0.1,0.6l-0.2,0.9l-0.5,0.7l-0.6,0.5l-0.6,0.3l0.1,0.9l-0.4,0.5l-0.6,0l-0.3-0.4l0.1,0.4  l0.4,0.3l0.1,0.3v1.4l0.1,0.6l0.3,0.3l0.5,0.1l0.5,0l0.4,0.2l0.4,0.4l0.3,0.6l0.1,0.7l-0.2,0.6l-1,1.7l0,0.4l0,0.4l-0.1,0.4  l-0.5,0.2l0,0.2l0.1,0.3l0.1,0.2l0.1,0.5l-0.3,2.5l-0.1,0.2l0,0.2l0.2,0.4l0.1,0.1l0.4,0.2l0.1,0.2l0.1,0.7l-0.2,0.6l-0.3,0.5  l-0.3,0.3l0.1,0.2l0,0.1l0.6-1l0.3-0.8l0.1-0.8l0.2,0.6l0.3,0.6l0.3,0.7l0,0.8l-0.4,0.5l-1.3,0.6l-0.3,0.4l0-0.3l0-0.1v-0.1  l-0.1,0.5h-0.2v-0.7l0.2-0.7l-0.2-0.8l0.3-0.4l-0.4,0.3l-0.5,0.7l-0.4,0.1l-0.2,0.2l0.2,0.4l0.4,0.5l0.2,0.4l-0.1,0.1l-0.2,0.2  l-0.2,0.3l-0.1,0.3l0.1,0.2l0.2,0.3l0.1,0.3l-0.3,0.1l-0.5,0.1l-0.2,0.4l-0.1,0.5l0,2l-0.1,0.6l-0.2,0.5l-0.3,0.3l-0.4,0.3l-0.3,0.3  l-0.1,0.4l0.1,0.3l1.7,2.6l0.2,0.5l0.1-0.9l0.6-0.2l0.7,0.3l0.3,0.6l0,0.8l-0.2,0.6l-0.3,0.2l-0.5-0.6h-0.2l-0.2,0.1l-0.1-0.3  l-0.1-0.2l-0.2-0.2l0.1,0.7l0.7,1l0.9,0.9l0.6,0.4l0.1,0.5l-0.2,3l-0.2,0.2l-0.5,0.3l-0.5,0.1l-0.2-0.1l-0.1-0.4l-0.1-0.5l-0.3-0.8  l-0.2-0.4l-0.9-1.1l-0.4-0.3l-0.4,0l-0.7,0.4v0.2l0.1,0.1v0l0,0.1l0.3,0.4l0.9,0.9l0.2,0.4l0.3,1.5l0.1,0.3l0.3,0.5l2.4,2.7l0.8,0.6  l1.4,0.5l0.8,0.7l1.4,0.8l1.7,0.5l0.2,0.3l0.1-0.1l0.2,0.3l0.2,0.4l0,0.1l0.2,0.2l0.2,0.1l0.1,0.1l0.1,0.3l0-0.2l0-0.1l0.1-0.2  l0.7,0.5l-0.2,0.2l0.3,0.1l0.4,0.1l0.8,0l0.2,0.1l0.2,0.3l0.2,0.4l1.2,2.3l0.4,0.4l-0.3,0.2l-0.2,0.2l-0.4,0.5v0.2l0.2,0.1l0.4,0  l0.2,0.1l0.3,0.2l0.1,0.1l0,0.1v0.1l0,0.1l0.6,0.2l0.4,0l0.3,0.2l0.2,0.7l-0.1,0.4l-0.5,1.6l-0.4,0.8l0.1,0.1l0.4,0.2l-0.4,1  l-0.1,0.5l0.1,0.5h0.2l0-0.2l0.1,0l0.4-0.3l0.8,0.3l1,0.3l1.1,0.6l0.7,0.6l0.5,0.2l0.4-0.1l0.1-0.2l0-0.2l0-0.3l0.2-0.2l0.2-0.1h0.2  l0.2,0.1l0.2,0.1l0.1-0.7l0.4-0.4l0.5-0.3l0.3-0.4l0.1-0.4l-0.1-0.2l-0.1-0.1l-0.1-0.3l0-0.1l-0.2-0.2l-0.1-0.1l0-0.1l0.2-0.4l0-0.2  l-0.1-0.3l-0.1-0.1l-0.1-0.1l0.2-0.2l0.2-0.1l0.2,0l1,0.4l0.4,0.3l0.4,0l0.4-0.5l0.2-0.6l-0.1-0.6l-1.2-1.9l-0.6-0.6l-0.1-0.2  l-0.4-2l-0.1-0.3l0.3-0.1l1.2,0l0.4-0.1l0.1-0.6l0.2-0.6l0.3-0.5l0.3-0.4l0.5-0.2l0.8,0.1l0.4-0.2l0.5-0.1l1.3,0.2l0.6-0.1l1.6-0.7  l0.2-0.1l0.1-0.2l0.4-1.1l0-0.1l-0.1-0.6l0-0.2l-0.1-0.4l0-0.2l0.1-0.2l0.4-0.1l0.1-0.1l0.3-0.8l0-0.7l0-0.7l0.1-0.7l0.2-0.3  l0.3-0.2l0.3-0.1l0.2-0.2l0.5-1.1l0.3-0.5l0.1-0.3l0.1-0.4l0-0.3l-0.1-0.9l0-0.3l0.2-0.2l0.5-0.1l0.2-0.1l0.2-0.3l0.1-0.3l0.1-0.3  l0.3-0.2l0.7,0l0.6,0.3l0.6,0.1l0.6-0.4l0.2-0.3l0.1-0.2l0.1-0.2l0-0.4l0.2-0.3l0.3-0.2l0.3-0.1l0.2-0.3l0.2-0.2l0.2-0.1l0.2-0.2  l0.1-0.3l0-0.3l0-0.3l0-0.4l0.3-1.1l0.1-0.6L-388.8,401.6z"/></svg>