<svg xmlns="http://www.w3.org/2000/svg" xmlns:xlink="http://www.w3.org/1999/xlink" version="1.1" x="0px" y="0px" viewBox="-461 335 100 100" fill="#e0e0e0" style="enable-background:new -461 335 100 100;" xml:space="preserve"><polygon points="-361.4,410.6 -361.7,409.9 -362.3,408.7 -362.6,408 -362.9,407.4 -363.1,407.2 -363.2,407.1 -365,406.5   -366.1,406.2 -367,405.8 -367.1,405.8 -367.3,405.8 -367.8,406 -368.4,406.2 -368.5,406.3 -368.6,406.2 -369.3,405.7 -369.4,405.6   -369.4,405.4 -369.5,404.9 -369.6,404.8 -370.3,404.4 -370.4,404.2 -370.4,403.5 -370.4,402.7 -370.4,402 -370.5,401.7   -370.7,401.4 -371.4,400.3 -372,399.5 -372.8,398.5 -373.4,397.5 -373.5,397.2 -373.4,397 -373.4,396.9 -373.3,396.7 -373.1,396.5   -373.1,396.4 -373,396.3 -373,396.2 -371.3,395.4 -371.2,395.3 -371,394.6 -371,394.5 -371.1,394.4 -371.1,394.2 -371,393.6   -371,393.5 -371.1,393.5 -371.3,393.3 -371.3,393.3 -371.4,393.2 -371.5,392.6 -371.9,391.2 -371.9,391.1 -371.9,391 -371.8,390.8   -371.7,390.5 -371.6,390.3 -371.4,390.1 -371.4,390 -371.4,389.9 -371.5,389.8 -371.5,389.7 -371.4,389.6 -371.3,389.5   -371.2,389.4 -370.9,388.3 -370.8,388 -371.6,386.2 -371.6,385.9 -371.3,383 -371.3,382 -371.4,381.1 -372.1,378.5 -372.7,377.4   -373.3,376.5 -373.9,375.8 -374,375.7 -372.9,375 -373,374.4 -373.1,373.8 -373.3,373.2 -373.4,372.6 -373.5,372 -373.7,371.3   -373.8,370.7 -374,370.1 -374.1,369.5 -374.2,368.9 -374.4,368.2 -374.5,367.6 -374.6,367 -374.8,366.4 -374.9,365.7 -375.1,365.1   -375.2,364.7 -375.2,364.5 -375.3,364.5 -376.1,363.9 -377.1,363.1 -377.9,362.6 -378.5,362.2 -378.6,362.1 -378.7,361.9   -378.7,361.3 -378.8,360.5 -378.8,360.3 -379.3,359.5 -379.8,358.8 -379.9,358.7 -380,358.8 -380.1,358.8 -380.2,358.7   -380.3,358.7 -380.8,358.3 -381,358.2 -381.2,358.2 -381.4,358.2 -381.6,358 -381.6,357.7 -381.6,357 -381.7,356.7 -382.1,356.1   -382.4,355.5 -382.4,355.4 -382.5,355.1 -382.6,354.8 -382.6,354.7 -382.7,354.4 -382.7,354.2 -382.6,353.6 -382.6,353.2   -382.6,353 -382.3,352.7 -382.1,352.5 -382,352.4 -381.8,352.3 -381.5,352.3 -381.4,352.2 -381.4,352.1 -381.3,352 -381.1,351.4   -381,351.2 -380.8,351 -380.4,350.8 -380.2,350.7 -379.8,350.5 -379.5,350.3 -379.4,350.2 -379.4,350.2 -379.3,350.1 -379.3,350   -379.3,350 -379.1,349.9 -379.1,349.8 -379.2,349.6 -379.2,349.5 -379.1,349.4 -379,349.2 -378.9,349.2 -378.9,349.1 -379,348.5   -379,348.3 -379,348.1 -378.8,347.8 -378.8,347.3 -378.7,347.1 -378.5,346.9 -378.2,346.4 -378.1,346.3 -378.3,346.2 -378.5,346.1   -378.7,346 -378.8,345.8 -378.8,345.6 -378.8,345.3 -378.8,345.1 -378.6,344.7 -378.6,344.5 -378.7,343.9 -378.7,343.7 -379,343.3   -379,343.1 -379,342.8 -379,342.3 -378.9,341.9 -378.9,341.6 -378.8,341.1 -378.7,341 -378.7,340.9 -378.7,340.8 -378.7,340.7   -378.8,340.6 -378.7,340.3 -378.5,339.7 -378.5,339.6 -378.5,339.3 -378.5,339.2 -378.5,339.1 -378.6,339.1 -378.7,339 -378.8,339   -379.2,338.9 -379.4,338.9 -379.4,338.7 -379.3,338.5 -379.1,338.4 -378.8,338.3 -378.2,338 -378.1,337.8 -378,337.6 -378,337.4   -378.1,337.3 -378.2,337.2 -378.2,337.1 -378.1,337 -377.9,337 -377.7,337 -377.5,337 -377.2,336.8 -377.1,336.8 -377.1,336.7   -377.3,336.5 -377.3,336.4 -377.3,336.3 -377.3,336.2 -377.8,336.4 -378,336.4 -378.1,336.4 -378.2,336.3 -378.3,336.3   -378.3,336.3 -378.4,336.3 -378.5,336.2 -378.6,336.2 -378.8,336.2 -378.9,336.2 -379,336.1 -379.1,336.1 -379.8,336.4   -379.9,336.5 -380,336.5 -380.7,336.7 -380.9,336.7 -381.1,336.6 -381.3,336.5 -381.2,336.3 -381.3,336.2 -381.3,336.1 -381.2,336   -381.2,335.8 -381.2,335.9 -381.3,336 -381.4,336 -381.6,336 -381.6,336 -381.7,335.9 -381.7,335.9 -381.8,335.9 -381.9,335.9   -381.9,335.9 -381.9,335.9 -382,335.9 -382.2,335.9 -382.4,335.8 -382.5,335.6 -382.7,335.5 -382.8,335.5 -382.8,335.5   -382.9,335.5 -382.9,335.5 -383,335.5 -383.1,335.5 -383.1,335.4 -383.2,335.4 -383.2,335.3 -383.2,335.3 -383.2,335.3   -383.3,335.3 -383.4,335.4 -383.4,335.4 -383.5,335.4 -383.6,335.3 -383.6,335.3 -383.6,335.3 -383.7,335.3 -383.7,335.4   -383.7,335.4 -383.7,335.4 -383.8,335.3 -383.8,335.3 -383.8,335.3 -383.9,335.3 -384,335.3 -384,335.3 -384.1,335.3 -384.2,335.3   -384.2,335.3 -384,335.5 -383.8,335.7 -383.8,335.7 -383.8,335.8 -383.8,335.8 -383.9,335.9 -383.9,336 -383.9,336 -384,336   -384.2,336.2 -384.2,336.3 -384.3,336.3 -384.4,336.3 -384.5,336.3 -384.6,336.2 -384.7,336.3 -385.2,336.5 -385.3,336.5   -385.5,336.4 -385.6,336.4 -385.6,336.3 -385.7,336.2 -385.8,336.2 -385.9,336.1 -385.9,336.1 -386.6,336 -386.7,336 -386.8,336   -386.9,335.9 -387,336 -387.1,335.9 -387.1,335.6 -387.2,335.6 -387.2,335.6 -387.2,335.6 -387.3,335.5 -387.3,335.4 -387.3,335.4   -387.5,335.3 -387.7,335.2 -387.9,335.2 -388.1,335.3 -388.3,335.4 -388.3,335.4 -388.4,335.5 -388.6,335.7 -388.6,335.7   -388.7,335.8 -388.7,335.9 -388.6,336 -388.7,336.1 -388.8,336.3 -388.9,336.4 -389.7,336.7 -390.5,336.9 -390.7,336.9   -391.1,336.8 -391.2,336.8 -391.3,336.9 -391.5,337 -391.6,337.1 -391.8,337.1 -391.9,337.2 -392,337.2 -392,337.3 -392.1,337.5   -392.2,337.6 -392.4,337.7 -392.4,337.7 -392.5,337.8 -392.5,337.8 -392.6,337.8 -392.9,337.9 -393.3,337.9 -393.4,337.9   -393.6,337.9 -394.2,337.6 -394.3,337.5 -394.3,337.4 -394.2,337.1 -394.3,337.1 -394.4,337.1 -394.5,337.1 -394.6,337 -394.6,337   -394.7,336.9 -394.7,336.9 -394.7,336.9 -394.8,336.9 -394.9,336.9 -394.9,336.9 -395,336.8 -395.8,336.4 -395.9,336.4   -396.2,336.5 -396.6,336.4 -396.8,336.4 -396.9,336.5 -397,336.5 -397.1,336.5 -397.2,336.4 -397.2,336.4 -397.3,336.4   -397.4,336.3 -397.4,336.3 -398,336.4 -398.1,336.4 -398.2,336.3 -398.3,336.3 -398.4,336.4 -398.5,336.4 -398.6,336.5   -398.6,336.4 -398.8,336.4 -398.8,336.4 -398.9,336.4 -399.1,336.5 -399.2,336.5 -399.4,336.4 -399.6,336.4 -399.7,336.4   -399.8,336.5 -399.8,336.4 -400,336.3 -400.2,336.3 -400.4,336.3 -400.8,336.5 -401,336.6 -401.3,336.9 -401.5,337 -401.5,337   -401.6,336.9 -401.7,337 -401.7,337 -401.7,337 -401.8,337.1 -401.8,337.1 -401.9,337.1 -402.1,337.1 -402.2,337.2 -402.8,337.1   -403,337.1 -403.3,336.9 -403.3,336.9 -403.3,337.1 -403.4,337.2 -403.4,337.3 -403.6,337.3 -403.7,337.4 -403.9,337.3   -404.1,337.2 -404.2,337 -404.4,336.9 -404.5,336.9 -404.8,337 -405,337.2 -405.2,337.3 -405.2,337.4 -405.3,337.5 -405.4,337.6   -405.7,337.8 -406.2,338.2 -406.4,338.2 -407.1,338.3 -407.1,338.3 -407.2,338.2 -407.3,338.2 -407.3,338.2 -407.3,338.2   -407.3,338.1 -407.4,338.1 -407.5,338 -407.6,338 -407.7,338 -407.8,338 -409,338.4 -409.4,338.4 -409.5,338.4 -409.7,338.4   -410,338.4 -410.2,338.5 -410.3,338.5 -410.4,338.4 -410.4,338.4 -410.5,338.5 -410.6,338.5 -410.6,338.5 -411.6,338.6   -411.8,338.6 -411.9,338.6 -412,338.6 -412.2,338.5 -412.3,338.5 -412.4,338.5 -412.7,338.7 -412.8,338.7 -412.9,338.7   -413.1,338.7 -413.2,338.7 -413.4,338.8 -413.5,338.9 -413.9,338.9 -414.1,339 -414.3,339.1 -414.4,339.1 -414.4,339.1   -414.4,339.2 -414.5,339.3 -414.5,339.3 -414.5,339.4 -414.6,339.4 -414.7,339.5 -414.8,339.5 -415.1,339.6 -415.2,339.7   -415.3,339.8 -415.7,339.8 -415.8,339.8 -415.9,339.9 -416,340 -416.1,340 -416.3,340.1 -416.6,340.3 -416.7,340.4 -416.8,340.5   -416.9,340.5 -417.1,340.5 -417.2,340.5 -417.3,340.6 -417.3,340.6 -417.3,340.8 -417.4,340.8 -417.4,340.8 -417.5,340.9   -417.5,341 -417.6,341 -417.9,341.1 -418,341.2 -418.2,341.4 -418.2,341.4 -418.3,341.5 -418.3,341.5 -418.4,341.5 -418.4,341.6   -418.4,341.7 -418.6,342.1 -418.6,342.3 -418.8,342.6 -418.9,342.8 -419.1,342.9 -419.4,343 -419.6,343.1 -419.7,343 -419.9,343   -420.2,342.9 -420.3,342.8 -420.4,342.7 -420.4,342.7 -420.4,342.6 -420.4,342.5 -420.5,342.5 -420.5,342.5 -420.6,342.5   -420.6,342.4 -420.6,342.4 -420.8,342.4 -421,342.5 -421,342.5 -421.1,342.5 -421.2,342.5 -421.2,342.5 -421.2,342.5 -421.2,342.4   -421.3,342.5 -421.3,342.5 -421.3,342.5 -421.3,342.6 -421.3,342.6 -421.3,342.6 -421.5,343.1 -421.5,343.1 -421.6,343.2   -421.6,343.2 -421.7,343.2 -421.7,343.2 -421.8,343.3 -421.9,343.4 -422,343.4 -422.1,343.5 -422.3,343.5 -422.3,343.5   -422.4,343.4 -422.4,343.4 -422.4,343.3 -422.5,343.3 -422.5,343.3 -422.6,343.3 -422.7,343.3 -422.7,343.2 -422.8,343.2   -422.8,343.2 -422.8,343.1 -422.9,343.2 -423.1,343.4 -423.3,343.5 -423.3,343.5 -423.3,343.5 -423.4,343.4 -423.4,343.4   -423.5,343.5 -423.6,343.5 -423.7,343.6 -423.8,343.6 -424,343.7 -424,343.7 -424,343.8 -424.2,344 -424.4,344.1 -424.5,344.3   -424.5,344.3 -424.6,344.3 -424.7,344.3 -424.7,344.4 -424.9,344.8 -424.9,344.9 -425,345 -425.1,345.3 -425.1,345.4 -425.1,345.5   -425.2,345.6 -425.3,345.6 -425.4,345.7 -425.5,345.8 -425.6,345.8 -425.6,345.9 -425.7,345.9 -426.2,345.9 -426.3,346   -426.8,346.5 -426.9,346.6 -426.9,346.6 -427.2,346.7 -427.4,346.9 -427.5,347 -427.5,347 -427.7,347 -427.7,347 -427.9,347.1   -428.3,347.2 -428.4,347.3 -428.4,347.3 -428.5,347.3 -428.6,347.2 -428.9,347.3 -429.1,347.2 -429.2,347.2 -429.4,347.1   -429.5,347.2 -429.6,347.2 -429.6,347.2 -429.6,347.2 -429.6,347.2 -429.7,347.2 -429.7,347.4 -429.7,347.6 -429.6,347.7   -429.4,347.8 -429.3,347.9 -429.1,348 -428.9,348.1 -428.7,348.2 -428.7,348.2 -428.6,348.3 -428.6,348.3 -428.6,348.4   -428.5,348.5 -428.3,348.7 -428.1,348.8 -427.6,349.1 -427.5,349.2 -427.5,349.3 -427.6,349.3 -427.7,349.6 -428,350 -428,350.1   -427.4,350.7 -427.3,350.7 -427.2,350.8 -427.7,351.4 -427.5,351.6 -427.4,351.9 -427.1,353 -427,353.1 -427.1,353.2 -427.3,354.2   -427.3,354.4 -427.3,354.7 -427.2,354.9 -427.2,354.9 -427.2,355 -427.3,355.1 -427.3,355.1 -427.4,355.2 -427.4,355.3   -427.4,355.4 -427.3,355.4 -427.1,355.5 -427.1,355.6 -427,355.6 -426.8,356.2 -426.8,356.3 -426.8,356.5 -426.9,356.6 -427,356.9   -427.1,357.1 -427.1,357.2 -427.1,357.8 -427.1,358 -426.8,358.2 -426.7,358.4 -426.7,358.6 -426.6,358.7 -426.4,358.8   -426.3,358.9 -426.2,359 -426.2,359.1 -426.2,359.3 -426.2,359.4 -426.2,359.4 -426.2,359.5 -426.3,359.5 -426.3,359.6   -426.5,359.7 -425.8,360.8 -425.7,361 -425.4,361.1 -424,362.1 -424,362.2 -424.2,362.6 -424.4,362.7 -424.6,362.8 -424.8,362.8   -424.9,362.8 -424.9,362.9 -425,363 -425,363.2 -425.1,363.8 -425.1,363.9 -425.1,363.9 -425.2,364 -425.2,364 -425.3,364.1   -425.3,364.1 -425.3,364.2 -425.2,364.2 -425,364.1 -424.9,364.1 -424.8,364.2 -424.7,364.2 -424.7,364.3 -424.8,364.6 -425,364.6   -425.4,364.6 -425.4,364.6 -425.5,364.6 -425.7,364.6 -426,364.6 -426.3,364.5 -426.6,364.5 -427,364.5 -427.4,364.5 -427.8,364.5   -428.2,364.4 -428.6,364.4 -429,364.4 -429.4,364.4 -429.8,364.4 -430.2,364.4 -430.5,364.3 -431.1,364.3 -432,364.6 -432.9,364.6   -433.2,364.8 -433.3,365.1 -433.3,365.6 -433.4,365.9 -433.6,366 -434,366.2 -434.8,366.5 -435.5,366.7 -436,366.9 -436.1,366.9   -436.3,366.9 -436.7,366.7 -437,366.7 -437.1,366.7 -437.3,366.7 -437.5,366.8 -437.6,367 -437.6,367.7 -437.6,367.9 -437.6,368.1   -437.6,368.2 -437.4,368.3 -437.2,368.4 -437.2,368.4 -437.1,368.4 -437.1,368.5 -437.1,368.5 -437.4,368.7 -437.4,368.8   -437.5,368.9 -437.4,369.3 -437.4,369.5 -437.5,369.6 -437.6,369.8 -437.5,369.9 -437.5,369.9 -437.4,369.9 -437.3,369.9   -437.2,369.7 -437.1,369.7 -437,369.7 -437,369.8 -436.8,370 -436.7,370.1 -436.6,370.2 -436.5,370.2 -436.5,370.3 -436.4,370.4   -436.4,370.5 -436.4,370.6 -436.5,370.7 -436.6,370.9 -436.9,371 -437.2,371.1 -437.6,371.1 -438.4,371.2 -438.6,371.3   -439.2,372.1 -439.4,372.2 -439.9,372.4 -440.5,372.7 -440.8,372.8 -441.1,372.8 -442.8,373.5 -442.9,373.5 -443,373.7   -443.3,374.2 -443.6,374.9 -443.9,375.2 -444.7,376.1 -445,376.4 -445.5,376.6 -445.7,376.8 -445.9,376.9 -446.9,377 -448.1,377.3   -448.3,377.3 -448.5,377.2 -448.7,377.2 -448.9,377.2 -449,377.3 -449,377.4 -449.1,377.4 -449.2,377.5 -449.3,377.4 -449.6,377.4   -449.7,377.4 -450,377.4 -450.1,377.4 -450.2,377.3 -450.3,377.3 -450.4,377.3 -450.5,377.4 -450.5,377.5 -450.4,377.7   -450.4,377.8 -450.5,378 -450.5,378.1 -450.5,378.3 -450.6,378.4 -450.6,378.5 -451,378.7 -451.4,378.7 -452.2,378.5 -452.8,378.5   -453.4,378.4 -453.5,378.4 -454.3,378.8 -454.4,378.9 -454.7,379.4 -455.1,379.7 -455.2,379.7 -455.3,379.7 -455.4,379.7   -455.6,379.7 -455.9,379.7 -456,379.8 -456.3,380.1 -456.4,380.1 -456.6,380.2 -456.9,380.5 -457.4,380.9 -457.9,381.3 -458,381.4   -458.6,381.6 -458.9,381.9 -459.2,382.2 -459.3,382.2 -459.5,382.3 -459.6,382.4 -459.7,382.7 -459.8,382.7 -460,382.8 -460.2,383   -460.8,383.3 -460.9,383.4 -461,383.5 -461,383.7 -461,383.9 -461,384.3 -461,384.6 -461,384.9 -461,385.2 -461,385.6 -461,385.9   -461,386.2 -461,386.6 -461,386.9 -461,387.2 -461,387.5 -461,387.9 -461,388.2 -461,388.5 -461,388.8 -461,389.2 -461,389.7   -461,390.2 -461,390.7 -461,391.2 -460,391.8 -459.1,392.5 -458.1,393.1 -457.2,393.7 -456.2,394.4 -455.2,395 -454.3,395.6   -453.3,396.2 -452.4,396.9 -451.4,397.5 -450.5,398.1 -449.5,398.7 -448.7,399.3 -447.9,399.8 -447.1,400.3 -446.3,400.8   -445.7,401.2 -444.8,401.8 -444,402.4 -443.1,402.9 -442.3,403.5 -442.3,403.5 -442.3,403.5 -441.9,403.8 -441.6,404 -441.2,404.3   -440.8,404.5 -440.3,404.9 -439.9,405.2 -439.5,405.4 -439.1,405.7 -438.7,406 -438.4,406.3 -438,406.6 -437.6,406.8 -437.2,407.1   -436.8,407.4 -436.4,407.7 -436,407.9 -435.7,408.2 -435.3,408.5 -434.9,408.8 -434.5,409 -434.1,409.3 -433.7,409.6 -433.3,409.9   -432.9,410.2 -432.4,410.5 -432,410.8 -431.6,411.1 -431.2,411.4 -430.8,411.7 -430.3,412 -429.9,412.3 -429.5,412.6 -429.1,412.9   -428.7,413.2 -428.2,413.5 -427.8,413.8 -427.4,414.1 -427,414.4 -426.6,414.7 -426.1,414.9 -425.7,415.2 -425.3,415.5   -424.9,415.8 -424.5,416.1 -424,416.4 -423.6,416.7 -423.2,417 -422.8,417.3 -422.4,417.6 -421.9,417.9 -421.5,418.2 -421.1,418.5   -420.7,418.8 -420.3,419.1 -419.8,419.4 -419.4,419.7 -419,420 -418.6,420.3 -418.2,420.5 -417.7,420.8 -417.3,421.1 -416.9,421.4   -416.5,421.7 -416.1,422 -415.7,422.3 -415.2,422.6 -414.8,422.9 -414.4,423.2 -414,423.5 -413.4,423.9 -413.3,424 -413.3,424.3   -413.2,424.4 -413.3,425 -413.4,425.5 -413.4,425.6 -413.4,425.7 -413.4,425.7 -413.3,425.8 -413.2,425.8 -413.1,425.8   -412.9,425.7 -412.8,425.7 -412.7,425.8 -412.6,425.8 -412.5,426 -412.4,426.1 -412.4,426.2 -412.1,426.2 -411.9,426.3   -411.9,426.3 -411.8,426.3 -411.6,426.4 -411.4,426.5 -411.1,426.7 -411,426.9 -411,427 -411,427.4 -410.9,427.5 -410.3,428   -410.2,428 -410.1,428 -410.1,428 -410,428 -409.9,428.1 -409.9,428.2 -409.8,428.3 -409.8,428.4 -409.7,428.4 -409.6,428.3   -409.6,428.3 -409.5,428.2 -409.4,428.2 -409.4,428.3 -409.4,428.3 -409.3,428.3 -409,428.4 -408.9,428.4 -408.8,428.4   -408.6,428.2 -408.5,428.1 -408.4,428.1 -408.3,428.1 -408.2,428.2 -407.9,428.4 -407.7,428.6 -407.6,428.8 -407.4,429.2   -407.3,429.2 -407.3,429.3 -407.1,429.3 -407,429.3 -406.9,429.4 -406.8,429.5 -406.7,429.5 -406.3,429.5 -406,429.6 -404.7,429.8   -404.1,430.1 -403.8,430.3 -403.7,430.4 -403.5,430.4 -403.5,430.5 -403.4,430.5 -403.4,430.6 -403.5,431.6 -403.5,431.8   -403.4,432 -403.4,432 -403.4,432.1 -403.3,432.1 -403.3,432.1 -403.3,432.2 -403.3,432.3 -403.3,432.3 -403.3,432.4 -403.2,432.5   -403.2,432.6 -403.2,432.7 -403.2,432.8 -403.3,432.9 -403.4,432.9 -403.5,433 -403.5,433.1 -403.6,433.3 -403.6,433.4   -403.7,433.5 -403.8,433.5 -403.8,433.6 -403.8,433.7 -403.9,433.8 -403.9,433.9 -403.9,434 -403.8,434.1 -403.8,434.2   -403.7,434.2 -403.6,434.3 -403.3,434.4 -403.1,434.7 -402.9,434.7 -402.9,434.8 -402.8,434.8 -402.7,434.8 -402.3,434.7   -402.3,434.7 -401.8,434.6 -401,434.4 -400.1,434.2 -399.3,434.1 -398.5,433.9 -397.6,433.7 -396.7,433.6 -395.7,433.4   -394.8,433.2 -394.3,433.1 -393.3,432.9 -392.2,432.7 -391.7,432.6 -391.1,432.4 -390.9,432.4 -390.7,432.2 -390.3,431.9   -390,431.6 -389.7,431.3 -389.4,431 -389.1,430.8 -388.8,430.5 -388.5,430.2 -388.2,429.9 -387.9,429.6 -387.6,429.4 -387.3,429.1   -386.9,428.8 -386.6,428.5 -386.3,428.3 -386,428 -385.7,427.7 -385.4,427.4 -385.1,427.2 -385,427 -384.6,426.7 -384.2,426.4   -383.9,426.1 -383.5,425.8 -383.2,425.5 -382.7,425.1 -382.1,424.7 -381.8,424.5 -381.4,424.2 -381.1,424 -380.8,423.8   -380.4,423.6 -380.1,423.4 -379.8,423.2 -379.5,423 -379.1,422.8 -378.8,422.6 -378.5,422.4 -378.1,422.2 -377.8,422 -377.5,421.8   -377.1,421.6 -376.8,421.3 -376.5,421.1 -376.2,420.9 -375.8,420.7 -375.5,420.5 -375.2,420.3 -374.8,420.1 -374.5,419.9   -374.2,419.7 -373.9,419.5 -373.5,419.3 -373.2,419.1 -372.9,418.8 -372.5,418.6 -372.2,418.4 -371.9,418.2 -371.5,418   -371.2,417.8 -370.9,417.6 -370.6,417.4 -370.2,417.2 -369.9,417 -369.6,416.8 -369.2,416.5 -368.9,416.3 -368.6,416.1   -368.2,415.9 -367.9,415.7 -367.6,415.5 -367.3,415.3 -366.9,415.1 -366.6,414.9 -366.3,414.7 -365.9,414.5 -365.6,414.2   -365.3,414 -365,413.8 -364.6,413.6 -364.3,413.4 -364,413.2 -363.6,413 -363.3,412.8 -363,412.6 -362.6,412.4 -362.3,412.1   -362,411.9 -361.7,411.7 -361.3,411.5 -361,411.3 "/></svg>