<svg xmlns="http://www.w3.org/2000/svg" xmlns:xlink="http://www.w3.org/1999/xlink" version="1.1" x="0px" y="0px" viewBox="-461 335 100 100" fill="#e0e0e0" style="enable-background:new -461 335 100 100;" xml:space="preserve"><path d="M-455,425.7L-455,425.7l0.1,0l-0.3-0.6l-0.1-0.2l0-0.5l0-0.3l0-0.2l-0.1-0.1l-0.1,0l-0.1,0.1l-0.1,0.1l0,0.1l0,0.2l0.5,1.3  L-455,425.7L-455,425.7z M-366.6,386.2l0.1-0.1l0.2-0.2l0.1-0.1l0-0.1l-0.3-0.7l0-0.2l0-1l-0.1,0l0-0.1l0-0.3l0-0.4l0-0.1l0-0.1  l0-0.1l-0.1-0.2l0-0.1l-0.1-0.4l-0.1,0.1l-0.1,0.1l0,0.2l-0.1,0.1l-0.1,0.1l-0.2,0.1l-0.1,0.1l0,0.1l-0.1,0.2l0,0.1l-0.2,0.1  l-0.3-0.1l-0.3-0.1l-0.3,0l-0.3,0l-0.2,0l-0.6-0.2l-0.5-0.1l-0.3,0l-0.3,0l-0.3,0.1l-0.5,0.3l-0.8,0.4l-0.6,0.1l-0.7,0.1h-0.3  l-0.3,0l-0.1-0.1l-0.3-0.2l-0.1-0.1l-0.2,0l-0.2,0.1l-0.2,0.1l-0.2,0.1l-0.3,0l-0.3,0l-0.3-0.1l-0.3-0.1l-0.6-0.2l-0.3,0l-0.2,0.6  l-0.2,0.2l-0.7,0.2l-0.1,0.1l-0.3,0.3l-0.1,0.1l-0.2,0l0.1-0.3l0-0.3l-0.1-0.6l0-0.1l-0.1-0.2l0-0.1l0,0l-0.1-0.1l0,0v-0.3l-0.2-0.5  l-0.1-0.1l0-0.1l0.1-0.2l0.2-0.2l0.1-0.1l0.3-0.1l0.2-0.1l0.1,0l0.1-0.1l0-0.1l0-0.3l0,0l0,0l-0.1-0.2l0-0.3l0-0.3l0-0.3l-0.1-0.2  l-0.1-0.1l-0.1-0.1l0-0.2l0.1-0.2l0.2-0.3l0-0.1l0-0.1l0-0.1l0-0.1l0-0.1l-0.1-0.1l-0.1-0.2l-0.2-0.3l-0.1-0.3l-0.2-0.3l-0.1-0.3  l0-0.2l0-0.1l-0.1-0.3l-0.1-0.4l-0.1-0.3l-0.1-0.2l-0.1-0.1l-0.3-0.2l-0.1-0.1l-0.1,0l-0.1,0.1l-0.1,0l-0.1,0l-0.4-0.5l-0.1-0.2  l0-0.2l0,0l-0.1,0l0,0l-0.1-0.3l-0.5-0.5l-0.2-0.3l-0.1-0.3l-0.1-0.6l-0.1-0.3l0-0.1l-0.1-0.1l0-0.1l0-0.1l0.1-0.1l0-0.3l0.2-0.5  l0.1-0.3l0-0.3l-0.1-0.7l0.1-0.8l0-0.4l0.1-0.6l0.1-0.2l0.1-0.2l0.1,0l0.1-0.5l0.1-0.5l0.1-0.2l0.1-0.2l-0.1,0l0,0l0,0l0,0l0.2-0.6  l0-0.3l-0.1-0.3l-0.2-0.3l-0.1-0.2l0-0.1l0.1-0.1l-0.1-0.1l-0.2-0.2l-0.1-0.1l-0.1-0.3l0-0.3l0-0.1l0-0.1l-0.2-0.2l-0.1-0.1l0-0.1  l0-0.2l0-0.1l-0.2-0.1l-0.1-0.1l0-0.1l0-0.5l0-0.1l0.1-0.1l0-0.1l0-0.1l0-0.2l0-0.3l0-0.1l0.1-0.2l0.1-0.2l0.1-0.3l0.1-0.2l0.1-0.2  l0-0.1l0,0l0.1-0.1l0-0.1v-0.3l0-0.1l0,0l0,0l0-0.1l0-0.1l0.1-0.1l0-0.1l0,0l-0.1-0.1l0,0l0,0l0-0.1l0,0l0-0.1l0-0.1l0-0.1l0-0.1  l0,0l0-0.1l0-0.1l0-0.1l0,0l-0.2-0.3l0-0.1l-0.1,0l0,0l0,0l0,0l-0.1,0l-0.2,0l-0.5,0l-0.5,0l-0.5,0l-0.5,0l-0.5,0l-0.5,0l-0.5,0  l-0.5,0l-0.5,0l-0.5,0l-0.5,0l-0.5,0l-0.5,0l-0.5,0l-0.5,0l-0.5,0l-0.3,0l0-0.4l0-0.3l0-0.3l0.2-0.4l0.1-0.3l0.2-0.5l0.2-0.4l-0.4,0  l-0.6,0l-0.6,0l-0.4,0l-0.1,0l-0.1,0l-0.1,0.1l0,0.1l0,0.2v0.1h-5.6l0.1,0.3l0,0.1l0,0.1l-0.2,0.3l-0.1,0.1l-0.1,0.2l-0.1,1.2l0,0.2  l0.1,0.2l0.2,0.5l0,0.2l-0.2,0.2l0,0l0,0l0,0l-0.1,0.1l-0.1,0.3l-0.1,0.1l-0.1,0l-0.5,0l0,0.2l0.1,0.2l0.1,0.2l0.1,0.2l0,0.2l0,0.2  l-0.1,0.4l-0.1,0.2l-0.1,0.3l0,0.2l0,0.2l0.2,0.6h-4.2l-0.1-0.2l0-0.1l0-0.2l-0.1,0h-1.1l-0.5,0l-0.1,0.1l0,0.1l0,0.3l-0.1,0l0,0  l-0.4,0l-0.1,0l-0.2,0.1l-0.1,0l-0.1,0l-0.3-0.1l-0.4,0l-0.5,0l-0.1,0l-0.3,0.1l-0.1,0l-0.1,0.1l-0.1,0.2l0,0.2l0,0.2l-0.6,0l-0.2,0  l-0.4-0.3l-0.2-0.1l-0.2,0l-0.1,0l-0.4,0.2l-0.1,0l-0.2-0.1l-0.2,0l-0.6,0.2l-0.2,0l-0.4-0.1l-0.1-0.1l-0.1-0.1l0.1-0.2l0-0.1  l-0.1-0.1l-0.2-0.1l-0.1-0.1l0-0.1l-0.1-0.2l0,0l0,0l0,0l0-0.1l0,0l0,0l0-0.1l-0.2-0.1l-0.1,0l0,0l0-0.1l0.1-0.1l0-0.1l-0.1-0.1  l-0.1,0l0-0.1l0-0.1l0-0.1l-0.1,0l-0.1,0l0,0l0.1-0.1v0l-0.1,0l0-0.1l0-0.1l0-0.1l-0.1,0l-0.2,0l0,0l0-0.1l-0.1-0.1l0-0.1l0-0.1  l0-0.1l0-0.1l-0.1-0.1l0,0v0l0,0l0-0.1l-0.1,0.1l0-0.1l0-0.2l0-0.1l0-0.1l-0.1-0.1l-0.4-0.2l-0.1-0.2l-0.1-0.3l-0.1-0.2l-0.1-0.1  l-0.1,0l0,0l0-0.1l0-0.1l0.1,0l0.1,0l0,0l0-0.1l-0.1,0l-0.2,0l-0.1,0l0,0l0,0l-0.1,0.1l-0.1-0.1l0-0.1l0-0.3l0-0.1l-0.1-0.1  l-0.2-0.1l-0.2-0.2l-0.2-0.1l0-0.1v-0.1l0-0.1l-0.1-0.2l-0.1-0.1l-0.1,0l0-0.1l0-0.4l-0.1-0.5l0-0.2l0.2,0.1l0-0.2l0.1-0.1l0-0.1  l-0.1-0.1l0-0.1l0-0.1l0,0l-0.1,0l-0.1,0v-0.1l0-0.1l0,0l-0.1-0.4l-0.1-0.2l-0.2-0.1l-0.1,0l-0.2,0l-0.1,0l-0.1-0.1l0-0.1l0-0.1  l0-0.1l-0.4-0.6l-0.1-0.1l0-0.1l0-0.3l0-0.1l-0.1-0.2l0-0.1l0-0.1l0.1-0.2l0-0.1l-0.1-0.1l-0.1-0.1l0-0.1l0-0.1l0-0.1l-0.2,0v-0.1  l0.1-0.1l0-0.1l0-0.1l0,0l0,0l0,0l0-0.1l0,0l0-0.3l0-0.1l0.1,0l0.1,0l0,0l0-0.1l0-0.1l0-0.1l0-0.1l0-0.5l0-0.1l0.1-0.1l0-0.1  l-0.1-0.1l-0.1-0.1l0-0.1l-0.1,0l-0.1,0l-0.1,0l-0.1-0.2l-0.1-0.1l-0.1,0l0.2-0.2l0-0.1l-0.1,0l-0.1,0l0,0l0-0.1l0-0.5l0-0.1l0-0.1  l-0.1-0.1v0l0.1-0.1l0-0.1l-0.3-0.1l-0.1,0l-0.3-0.1l-0.1,0l-0.1,0l-0.1,0l-0.2,0.1l-0.1,0l-0.1,0l-0.2-0.1l-0.1-0.1l-0.1-0.1  l-0.2,0l-0.4,0l-0.7,0l-0.7,0l-0.7,0l-0.7,0l-0.7,0l-0.7,0l-0.7,0l-0.7,0l-0.7,0l-0.7,0l-0.7,0l-0.7,0l-0.7,0l-0.7,0l-0.7,0l-0.7,0  l-0.7,0l-0.9,0.2l-0.2,0l-0.5-0.1l-0.3,0.1l-0.7,0l-0.8,0l-0.1,0l-0.4-0.2l-0.2,0l-0.9,0.1l-0.1,0l-0.2-0.1l-0.3-0.1l-1,0.1  l-1.2,0.1l-0.6-0.1l-0.1,0l-0.1,0.1l-0.1,0l-0.2-0.1l-0.6,0l-0.2,0l0,0l-0.1,0.2l-0.1,0.1l-0.2-0.1l-0.3-0.1l-0.6-0.1l-0.1,0  l-0.3,0.2l-0.1,0l-0.1,0l-0.3-0.1l-0.1,0l-0.2,0l-0.1,0l-0.1,0l-0.1,0l-0.1,0.1l-0.1,0.1l-0.1,0.2l-0.1,0.1l-0.1,0.1l-0.6,0.3  l-0.1,0l-0.5,0l-0.1,0l-0.1,0l-0.1-0.1l-0.1,0l-0.1,0l-0.2,0.2l-0.1,0h-0.4l-0.1,0l0,0l-0.1,0.1l0,0l-0.1,0l-0.1,0l-0.7,0.2l-0.4,0  l-0.2,0.1l-0.1,0l-0.1,0l-0.2,0.1l-0.1,0v0l0.1,0l0-0.1l-0.2-0.1l0.1,0l0.1,0l0.1,0l0.1-0.1l-0.3,0l-0.2,0.1l0,0.2l0.1,0.2l0.6,0.7  l0.1,0.1l0.1,0.3l0.2,0.3l0.1,0.3l0.4,0.6l0.6,1.2l0.6,0.5l0.6,0.8l0.5,0.7l0.1,0.1l0.2-0.1l0,0.1l0,0l0,0l0,0.1l0,0l0,0.1l0,0l0,0  l0,0l0,0l0,0.1l0.1,0.2l0.1,1.4l0.1,0.2l0.1,0.2l0.1,0.1l0.2,0.2l0.1,0.1l0.6,1.7l0.9,2.2l0.5,0.9l0.1,0.3l0.1,0.3l0.1,0.1l0.1,0.2  l0.1,0.1l0.1,0.1l0.1,0.3l0.1,0.1l0.7,1l0.1,0.2l0,0.2l0,0.5l0,0.1l-0.1,0.1l-0.1,0l-0.1,0l-0.1,0l0.1,0.2l0.1,0.5l0.1,0.2l0.2,0.3  l0,0.1l0,0.1l-0.1,0.3l-0.1,0.4l-0.2,0.1l-0.4-0.1l-0.1,0l0,0l0,0l0,0.1l0,0.1l0,0l-0.1,0l-0.1,0.1l-0.2,0.1l-0.1,0.1l0.1-0.1  l0.4-0.4l-0.1,0l-0.1,0.1l-0.2,0.2l0,0.1l0,0.2l0,0.1l0,0.1l-0.2,0.2l-0.1,0.1l-0.1,0.2l-0.1,0.1l-0.1,0l-0.1,0l-0.1,0l0,0.1l0,0.1  l-0.4,0.7l-0.1,0.1l-0.1-0.1l0-0.2l0.3-0.6l0.5-0.4l0.2-0.2l-0.4,0.2l-0.4,0.5l-0.3,0.6l0,0.4l0.1,0.2l0.2,0.5l0.5,0.9l0.2,0.1  l0,0.2l0.1,0.3l0,0.1l0,0.3l0,0.1l0.2,0.7l0,0.1l0.1,0.1l0.1,0.1l0,0.1l0,0.1l0,0.1l-0.2,0.2l0,0.1l0.1,0.1l0.6,0.7l0.2,0.3l0.2,0.3  l0.1,0.3l0,0.2l-0.1,0.1l0,0.1l0.4,0.7l0.3,0.3l0.1,0.1l0.1,0.4l0.1,0.2l0.4,0.5l0.1,0.2l0,0.2l0,0.5l0,0.1l0.1,0.1l0.5,0.4l0.7,0.8  l0,0.1l0,0.1l0.3,0.2l0.1,0.1l0,0.1l0,0.1l-0.2,0.3l-0.1,0.1l0,0.1l0.1,0.1l0.6,1l0.1,0.2l0,0.3l0,0.5l0,0.4l-0.2,1v0.2l0,0.1  l-0.1,0.2l0,0.1l0,0.1l0,0.4l0,0.1l0,0.1l0,0.1l0.1,0.1l-0.1,0.1l0,0.2l0,0.8l0.1,1.3l0,0.2l-0.1,0.2l-0.1,0.7l-0.1,0.2l-0.1,0.1  l-0.1,0.1l-0.1,0.1l-0.1,0.1l-0.1,0.5l-0.1,0.2l-0.2,0.4l-0.2,0.6l-0.1,0.1l-0.2,0.3l-0.1,0.2l-0.1,0.1l0-0.1l0-0.1l0,0l0.1,0v-0.1  h0l-0.5,0.4l-0.1,0.2l-0.1,0.1l0,0.1l0,0.3l0,0.1l-0.1,0.1l-0.2,0.1l-0.3,0.3l-0.2,0.2l-0.3,0l-0.1,0l-0.1-0.1l-0.1,0l-0.1,0  l-0.2,0.2l-0.1,0l-0.2,0l0,0l-0.1,0l-0.1,0.1l-0.2,0.2l0,0.1l-0.1,0.2l-0.1,0.1l-0.2,0.1l-0.5,0.5l-0.2,0.1l-0.3,0.3l-0.1,0.2  l0.1,0.2l0.1,0.2l0.1,0.2l0,0.2l-0.1,0.2l-0.4,0.5l-0.1,0.2l-0.1,0.1l-0.2,0.1l-0.5,0.6l-0.1,0.1l-0.1,0.1l0,0l-0.1,0.1l0,0l-0.1,0  l0,0l0,0.1l0,0.1l-0.2,0.1l0,0.1l0,0.1l-0.1,0.1l0,0l0,0.1l0,0.1l0,0.1l0,0.1l-0.1,0.1l-0.1,0l-0.1,0l-0.1,0.1l-0.1,0.1l0,0.1  l-0.1,0l-0.1,0l-0.1,0l-0.1,0.1l0,0.1l0,0.1l0,0.1l0.1,0.2l0,0.1l0,0.2l0,0l0,0l0,0.1l0.1,0.1l0,0.1l-0.1,0.2l0,0.1l0,0.7l-0.1,0.8  l0,0.3l-0.1,0.2l-0.1,0l0,0l-0.1-0.1l-0.1,0l0,0l0,0l-0.2,0.1l-0.1,0.1l0,0.1l0,0.3l0,0.1l-0.1,0.2l0,0.1l0,0.1l0,0.1l-0.1,0.2  l0,0.2l-0.1,0.2l0,0.1l0.1,0.1l0.1,0.1l0,0.1l0,0.1l0,0.1l0,0.1l0,0l-0.1,0l-0.1,0l0,0l0,0l0,0.1l0,0l0,0.1l0,0l0,0.1l0,0.1l0.1,0.1  l0.1,0.2l0,0.2l0,0.5l-0.1,0.5l-0.1,0.3l-0.1,0.2l0,0.1l0,0.6l-0.1,0.5l-0.1,0.2l0,0.1l0,0.1l0,0.1l0,0.1l-0.1,0.2l-0.1,0.2  l-0.1,0.1l-0.1,0l0,0h0l-0.1,0.1l0,0.1l0,0.1l-0.1,0.4l0,0.1l-0.1,0.1l-0.1,0.1l-0.1,0.1l0,0.1l0,0.3l-0.2,0.4l-0.1,0.2l0,0.2l0,0  l0.1,0l0.1,0.1l0,0.1l0,0.1l0,0.1l-0.1,0.1h-0.1l-0.1-0.1l-0.1,0l-0.2,0.2l-0.1,0.1l0,0.1l-0.1,0.9l-0.1,0.4l0,0.2l0.1,0.2l-0.1,0.2  l-0.1,0.6l0,0.2l-0.1,0.2l-0.4,0.3l-0.1,0.2l0,0.1l0,0.2l0,0.1l-0.1,0.1l-0.4,0.3l-0.1,0l-0.1,0l0-0.1l-0.1,0l-0.1,0.1l-0.2,0.1  l-0.1,0.1l-0.1,0.4l0.2,0.4l0.3,0.4l0.1,0.4l-0.2,0.3l0,0.1l0,0.1l0.3,2.8l-0.1,0.8l0.1,0.7l0,0.2l0,0.6l-0.1,0.3l-0.2,0l0.1,0.6  l0,0.2l-0.1,0.8l0,1l0,0.3l0,0.1l0,0.1l0,0.1l0.1,0v0.1l0.1,0l0.1,0.1l0.1,0l0.1,0l0,0l0,0l0-0.1l0.1-0.1l0.3-0.1l0.3-0.3l0.3-0.1  l0.3-0.1l0.3,0l0.1,0l0,0l0.1,0l0.1,0l0.2,0.1l0.1,0l0,0l0,0l0.1,0l0,0l0,0.1l0,0.1l0,0.1l0,0l0.1,0.1l0.1,0l0.1,0l0.1,0l0,0.1  l0,0.1l0,0l0.5-0.1l0.5,0l0.1,0l0.1-0.1l0.1,0l0.2,0.1l0.1,0l0.4,0l0.3,0.1l0.1,0l0.2-0.1l0.3-0.3l0.2-0.1l0.2,0l0.1-0.1l0.3-0.2  l0.3-0.2l0.2-0.1l0-0.1l0.1-0.1l0.1-0.1l0.1,0l0.1,0l0.1,0l0-0.1l0-0.1l0-0.1l0.2,0l0.1-0.1l0.2-0.1l0.4-0.2l0.8-0.1l0.2-0.1l0.2,0  l0.1,0.1l0.1-0.1l0.1,0l0,0.1l0.1,0l0.2,0l0.1,0l0.1,0v0.1l0.2-0.1l0.1,0l0.1,0l0,0l0.3-0.1l0.1,0l0.3,0.2l0.1,0l0.2,0l0.2,0.1  l0.1,0.1l0.1,0.3l0.1,0.1l0.1,0.1l-0.1,0.2l0.6,0.3l0.6,0.5l0.7,0.4l0.7,0.4l0.1,0.1l0.3,0.4l0.1,0.1l0.2,0l0.1,0l0.1-0.1l0.1,0  l0.1,0l0.1,0l0.2,0l0.1,0h0.1l0.1,0l0.1-0.1l0.1,0l0.3,0.1l0.2,0l0.1-0.1l0,0h2.4l1.9,0h5.6l1.9,0h13l1.9,0h4.1l0.1,0l0,0l0,0.1l0,0  l0,0l0.1,0.3l0,0.1l0,0l0.2,0.1l0.2,0.5l0,0.1l0.1,0.1l0.4,0.3l0,0.1l0,0.1l0,0.1l0.1,0.1l0.1,0.1l0.1,0l0.4,0.4l0.1,0.2l0.1,0.1  l0.3,0.1l0.6,0.3l0.9,0.2l0.6,0l0.2-0.1l0.2,0l0.1,0l0.2,0l0.3,0l0.1,0.1l1.1,0.3l1.2,0l0.4-0.1l0.2,0l0.1,0l0.1,0.1l0.1,0.1  l0.1,0.1l0.2,0.1l0.1,0l0,0l0.1-0.1l0,0h1.1l0.3,0.2l0.3,0.1l0.1,0l0.4,0l0.2,0l0.1,0l0.1,0l0.1,0.1l0.1-0.1l0.2,0l0.2,0l0.2,0.1  l0.2-0.2l0.1,0.1l0.1,0l0.2,0l0.1,0l0.3,0.2l0.2,0l0.2,0.1l0.2,0.1l0.1,0.2l0.1,0.1l0.2,0.1l0.2,0.2l0.1,0l0.2,0l0.3,0l0.3,0  l0.1,0.1l0.1,0.1l0.1,0.1l0.1,0l0.1,0l0.1-0.1l0.1,0l0.2,0.1l0.2,0.1l0.2,0l0.2-0.1l0.2,0l0.1-0.2l0.7-0.2l0.7-0.2l0.1,0.1l0.1,0  l0.1-0.1l0.1,0l0.1,0l0.3,0l0.1,0l0.3,0.2l0.4,0.1l0.2,0.1l0.1,0.2l0,0l0.1,0l0.5-0.1l1.8-0.3l1.8-0.3l1.8-0.3l1.8-0.3l1.5-0.3  l1.5-0.3l1.5-0.3l1.5-0.3l0.6-0.1l0-0.1l0-0.1l0.1-0.1l-0.2-0.1l-0.1-0.2l-0.1-0.1l-0.1-0.1l-0.1,0l-0.2,0l-0.1,0l-0.1,0l-0.1,0  l-0.1,0l-0.1-0.1l0-0.1l0-0.1l0-0.1l-0.1-0.1l-0.3-0.1l-0.2-0.1l-0.2-0.2l-0.1-0.2l-0.1-0.2l0-0.1l-0.3-0.3l-0.1-0.1l-0.3-0.1  l-0.4-0.2l-0.2-0.1l-0.3-0.3l-0.2-0.1l-0.1-0.1l-0.1-0.1l-0.1-0.3l-0.1-0.2l-0.1-0.2l-0.3-0.3l-0.1-0.1l-0.4-0.2h-0.1l0,0l0-0.1  v-0.1l0-0.1l-0.1-0.1l-0.2-0.1l-0.1-0.1l-0.1-0.1l-0.1-0.2l-0.5-0.8l-0.1-0.1l-0.1,0l-0.1,0l0,0l0,0l0-0.1l-0.1-0.2l0-0.1l-0.1-0.1  l-0.2,0l0,0l-0.1-0.1l0,0l0,0l0,0l-0.1,0l-0.1,0l-0.1,0l-0.1,0l-0.6-0.5l0-0.1l0-0.1l0-0.1l-0.1,0l-0.1,0l0-0.1l0-0.1l0-0.1l0-0.1  l-0.1-0.2l0-0.1l0-0.1l0-0.1l0.1-0.1l0.1-0.1l0-0.1l-0.1-0.1l-0.2-0.1l0,0l0-0.2l0-0.1l0,0l-0.1-0.1l0,0l0-0.1l0-0.1l0-0.1l-0.1-0.1  l0.1,0l0.2,0l-0.3-0.4l-0.2-0.2l0-0.2v-1l0,0l0-0.3v-0.8l0-0.8l0-0.8v-2.9l0-1.1v-3.4l0-1.1v-2.2l0-1.1V402l0-1.1v-2.2l0-1.1h14.6  l-0.1-0.3l-0.1-0.2l-0.2-0.2l-0.4-0.4l-0.1-0.2l-0.1-0.2l0-0.3l0.1-0.3l0.1-0.5l0.1-0.5l0.1-0.2l0.3-0.5l0.2-0.4l0.1-0.1l0-0.1  l-0.1-0.3l0-0.4l-0.1-0.2l-0.2-0.2l-0.2-0.2l0-0.3l0-1l0-0.9l0.2-0.4l0-0.1l0-0.2l0-0.5l-0.1-0.2l-0.1-0.1l-0.1-0.1v-0.2l0-0.1  l0.1-0.3l0.2-0.3l0-0.1v-0.1l0-0.2L-366.6,386.2L-366.6,386.2z M-453,339.5L-453,339.5l0.2,0.1l0.1,0l0.1-0.2l0,0l0.1,0l0,0l0,0.1  l0,0.1l0,0l-0.1,0.1l0,0l-0.1,0l0,0l0,0l-0.1,0l-0.1,0l-0.1,0l0,0.1l0.3,0.5l0.3,0.5l0.4,0.8l0.2,0.5l0.1,0.3l0.1,0.2l0.1,0.3l0,0.1  l0,0.2l0,0.1l-0.1,0.1l-0.1,0l-0.1,0l-0.1,0l-0.1,0.1l-0.2,0.5l0.1,0.5l0.4,0.6l0.3-0.2l0.6-0.1l0.7,0l0.5,0l0-0.7l0-0.5l0-0.9  l0-0.9l0-0.6l0-0.6l0-0.2l-0.1-0.1l-0.4-0.2l0,0l0-0.1l0-0.1l0-0.1l0-0.1l0,0l0.1,0l0.1,0l0.6-0.2l0.3-0.2l0.1-0.3l0-0.1l0.1,0  l0.3,0l0.2-0.1l0.1-0.1l0-0.1l0.1-0.2l0.1-0.1l0.3-0.2l0.1-0.1l0-0.2l0-0.2l0.1-0.2l0.1-0.1l0.2-0.1l1.4-0.3l0.3-0.1l0.1-0.2  l-0.3-0.2l-0.5-0.6l-0.3-0.2l-0.1-0.2l-0.1-0.3l-0.1-0.1l-0.1-0.1l-0.1,0l-0.1,0l-0.1,0l-0.1,0l-0.2-0.1l-0.1,0l-0.2,0.1l-0.1,0.2  l-0.1,0.2l-0.1,0.1l-0.1,0.1l-0.1,0.1l-0.1,0.1l-0.2,0.3l-0.1,0.1l-0.1,0l-0.8,0.1l-0.5,0.2l-0.1,0l-0.2,0l-0.1,0.1l0,0.3l0,0.1  l-0.3,0.6l-0.1,0.1l-0.1,0l-0.2,0l-0.1,0l-0.1,0l-0.1,0.1l-0.1-0.2l-0.1-0.1l-0.1,0h-0.1l0,0l-0.2,0.7l-0.2,0.3l-0.8,0.7l0.1,0  L-453,339.5z"/></svg>