<svg xmlns="http://www.w3.org/2000/svg" xmlns:xlink="http://www.w3.org/1999/xlink" version="1.1" x="0px" y="0px" viewBox="-461 335 100 100" fill="#e0e0e0" style="enable-background:new -461 335 100 100;" xml:space="preserve"><path d="M-421.8,344.2l0.6,2.5l0.3,5.5l0.7,2l1.7-0.9l5.8,2.4l2.3,1.7l0.8,2.4l2.2-0.8l1.3,0.1l0.9-0.5l0.9-2.5l0.3-2.1l-0.1-2.2  l-0.9-4.1l-1-2.2l-1.4-2.4l-1.8-2.2l-2.1-1.6l-1.7-0.3l-2.7,1l-1.7-0.6l0.9-0.4l0.9-0.5l-2.6-3.3l-1.8,1l-0.6,2.6l0.9,1.5l2.3,1.3  l0.8,3.1l-0.2,3.5l-0.6,2.5l-1.5-0.9v-1.3l0.5-1.6l0-1.9l-0.7-1.5l-2.1-2.5l-0.8-1.6l-0.2-1l-0.2-0.5l-0.5-0.4l-0.1,2.6l0.5,2.1  L-421.8,344.2z M-398.6,424.3l-1.2-1.5l0.9,0.1l1.8-0.1l0.9,0.1l-0.6-1.5l-0.4-0.7l-0.7-0.7h-1l-1.8,1l-1.7,0.1l-1.3-0.9l-0.6-1.9  l1.2-0.2l0.6-0.4l0.4-0.5l0.6-0.7l-1.5,0.2l-1.3-0.2l-1-0.7l-0.7-1.2l-1.2,1.7l-0.3,0.8l-0.1,1.2l-2.2-1.7l-1-2.8l-1.7-2.4l-4.1-0.5  l-1.9,1.2l-1.2,1.4l-0.2,1.6l1.1,1.8l-3,0.9l-2.3,1l-1.4,1.3l2.7,1.5l0.9,0.4l-2.1,1.1l0,1.2l0.5,1.3l-0.6,1.5l-0.9,1.8l0.9,1.2  l4.2,2.5l1.7,0.4l2.7,0l1.8-0.3l2.7-1.3l0.9-0.2l0.9,1l2.1,1.9l2.1,1l1-1.6l-0.6-3.3l0.1-1.2l1-0.5l2.1,0.6l1.7,0.9l1.5-0.1l1.5-2.3  l0.3-1.6l-0.6-0.7L-398.6,424.3z"/></svg>