<svg xmlns="http://www.w3.org/2000/svg" xmlns:xlink="http://www.w3.org/1999/xlink" version="1.1" x="0px" y="0px" viewBox="-461 335 100 100" fill="#e0e0e0" style="enable-background:new -461 335 100 100;" xml:space="preserve"><path d="M-404.7,408l-0.9-0.1l-0.2,0.3l1.1,0.1L-404.7,408z M-403.8,408.2l0.1-0.3l-0.1-0.1h-0.5l-0.1,0.3l0.1,0.1L-403.8,408.2z   M-406.8,410.5l0.2-0.2l-0.2-0.3l-0.3,0.4L-406.8,410.5z M-406.9,407.8l-0.2-0.3h-0.3l-0.1,0.3l0.4,0.3L-406.9,407.8z M-409.6,407.5  l0.1-0.4l-0.6-0.1l-0.1,0.3l0.2,0.2H-409.6z M-367,402.5l0.2-0.3v-0.3l-0.2-0.1l-0.3,0.3h-0.2l-0.1,0.3l0.1,0.1H-367z M-409.2,409.4  l-0.3-0.8l-1.7,0.3l0.8,0.8L-409.2,409.4z M-402.6,407.9l0.1-0.3l-0.1-0.1h-0.3l-0.1,0.3l0.1,0.1H-402.6z M-361.4,402.5  L-361.4,402.5v-0.2h-0.2l-0.1,0.1l0.1,0.1H-361.4z M-399.2,419.8l-0.2-0.4h-0.2l-0.1,0.3l0.2,0.3L-399.2,419.8z M-376.1,409.7  l-0.2-0.3h-0.2l-0.1,0.3H-376.1L-376.1,409.7z M-369.1,406.6l-0.2-0.4l-0.7,0.2l-0.4,0.6v0.3l-0.4,0.4h-0.3l-0.3,0.3l-0.4,0.3  l-0.3,0.6h-1.8l-0.8,0.7h-0.3l-0.5,0.3l-1,0.2l-0.2-0.9l-3.5,1.4l-1.2-0.5l-5.1,2.1l-2.1,1.7l-1.7,1.3l1,2.6l-5.5,3.3l0.8,0.5  l-0.6,1.3l-6.8,0.9l-1,0.2l-1.5,2.1l-4.5,2.1l-2.1,2.4l2.9-0.8l2,0.7l0.8-0.9l0.8,0.7l1.2-1.7l1.5,0.3l2.1-1.7l1.8,0.2l0.7,1.6  l3.1-0.5l2-1.1l1.6-2.8l3.8-0.5l1.7-1.4l1.3-0.2l0.5-1.2l4.2-1.5l-0.2-1.2l1.1-1.3l1.8,0.5l0.3-0.5h1l0.3-0.2l0.2-0.3l-0.2-0.2  l-0.2-0.3l0.1-0.1l0.9-0.1v-1l-0.2-0.2l0.2-0.2v-0.3l0.6-0.4l0.2-0.1l0.2-1.1l-0.7-0.1l-0.4-0.4v-0.5l0.4-0.4h0.2l0.1-0.3l0.8-0.8  h0.5l1.1-1.5l0.1-0.3h0.5l0.4-0.2v-0.2l-0.3-0.3l0.2-0.9L-369.1,406.6z M-411.2,431l-0.1,0.3l0.3,0.4l0.6-0.1l-0.4-0.6H-411.2z   M-414,408.1l1.1,0.8l1.6-0.3l-1.4-0.8L-414,408.1z M-372.1,414v0.2l0.1,0.1l0.1-0.1V414H-372.1L-372.1,414z M-411.8,406.8l0.3-0.3  l-0.1-0.1h-0.7l-0.1,0.3l0.1,0.1H-411.8z M-361.1,403.1h-0.3l-0.2,0.2l-0.2-0.2h-0.5l-0.1-0.1l0.5-0.3l-0.1-0.3l-0.7,0.2l-0.2-0.5  h-0.2l-0.3,0.3h-0.3l-0.3,0.4l-0.7-0.5l-0.7-0.2l-0.6,0.4l-0.2,0.4l-0.3,0.2h-0.8l-0.6,0.6l0.3,0.7v0.5l0.2,0.3l-0.2,0.4l-0.6,0.1  l-0.2,0.5l0.3,0.3h1l0.3-0.3l0.8-0.3l0.4-0.4l0.1-0.6h0.8l0.2-0.3h0.5l0.2-0.2h0.8l1.2-0.7h0.5l0.2-0.3L-361.1,403.1z M-423.2,404.4  l-0.1,0.3l0.4,0.1l0.2-0.3l-0.2-0.3L-423.2,404.4z M-430.7,406.4l0.2,0.3h0.2l0.1-0.4l-0.4-0.1L-430.7,406.4z M-461,341.1l0.6,0.4  l0.9-1.1l0.2-2.2l-1.2,1L-461,341.1z M-428.1,406l2.4,1.5l3.1-2.2l-4.4-0.8L-428.1,406z M-427,407.7l-0.1,0.4l0.6,0.1l0.1-0.3  l-0.2-0.3L-427,407.7z M-427.5,404.4l0.1-0.3l-0.1-0.1l-0.5,0l-0.1,0.3l0.1,0.1H-427.5z"/></svg>