<svg xmlns="http://www.w3.org/2000/svg" xmlns:xlink="http://www.w3.org/1999/xlink" version="1.1" x="0px" y="0px" viewBox="0 0 100 100" fill="#999999" enable-background="new 27 0 46 100" xml:space="preserve"><path d="M49.496,98.689l-0.053,0.045l-0.045-0.012l0.018-0.029l-0.075-0.028l-0.253,0.069l-0.066,0.061l-0.027,0.008l-0.023-0.025  l-0.025-0.09l-0.014-0.021l-0.023,0.001l-0.02,0.021l-0.017,0.023l-0.019,0.012l-0.023-0.011l-0.032-0.037l-0.016-0.01l-0.037,0.015  l0.003,0.031l0.01,0.039l-0.016,0.039l-0.025,0.001l-0.027-0.029l-0.027-0.038l-0.029-0.029l-0.04-0.004l-0.067,0.021l-0.031-0.018  l-0.014-0.002h-0.012l-0.012-0.006l-0.012-0.021l-0.041,0.025l-0.038-0.024l-0.03-0.034l-0.021-0.005l-0.026,0.062l-0.003,0.051  l0.006,0.055v0.066l0.003,0.024l0.005,0.024l-0.004,0.021l-0.027,0.006l-0.017-0.009l-0.006-0.022l-0.002-0.061l-0.009-0.05  l-0.02-0.019l-0.023-0.004l-0.021,0.004l-0.019,0.007l-0.043,0.036l-0.022,0.01l-0.081-0.026L47.98,98.77l-0.058-0.086l-0.019-0.02  l-0.063,0.023l0.022,0.063l0.127,0.132l-0.04,0.041l-0.14,0.059l-0.047,0.008l-0.113-0.08l-0.07-0.029l-0.03,0.043l-0.024,0.044  l-0.057,0.037l-0.049,0.046l-0.013,0.076l0.206,0.135l-0.021,0.041l-0.023,0.03l-0.016,0.028l0.014,0.037l0.031,0.01l0.116,0.001  l0.04-0.011l0.02-0.027l0.033-0.075l0.027-0.034l0.109-0.054l0.027-0.026l-0.021-0.022l-0.011-0.007l0.021-0.026l0.021-0.019  l0.025-0.01h0.026v0.029l-0.015,0.014l-0.006,0.012l-0.004,0.014l-0.009,0.016l0.082-0.002l0.039-0.008l0.037-0.02l0.028-0.026  l0.041-0.056l0.023-0.026l0.125-0.081l0.053-0.052l0.025-0.004l0.031,0.03l0.02-0.019l0.018-0.01l0.041-0.001L48.539,99  l-0.014,0.055l-0.002,0.043l0.024,0.041l0.036,0.008l0.032-0.021l0.014-0.04l0.214-0.039l0.055-0.029L48.906,99l0.004-0.021  l0.008-0.023l0.014-0.018l0.022-0.012l0.013,0.002l0.01,0.006l0.082,0.006l0.034-0.012l0.033-0.031l0.028-0.041l0.035-0.024  l0.026,0.007l0.011,0.059l-0.008,0.023l-0.042,0.088l-0.014,0.036l0.028,0.019l0.026-0.002l0.116-0.102l0.027-0.016l0.043-0.006  l0.033-0.012l0.018-0.027l0.029-0.082l0.02-0.031l0.018-0.023l0.051-0.037l-0.031-0.062L49.496,98.689z M53.992,46.182l-0.033-0.062  l-0.021-0.022l-0.006,0.015l-0.008,0.03l-0.011,0.017L53.9,46.158l-0.004-0.025l-0.047-0.075l-0.228-0.055l-0.085-0.041  l-0.045,0.007l0.003,0.047l0.024,0.057l0.094,0.137l0.041,0.039l0.054,0.033l0.146,0.051l0.035,0.041l0.033,0.026l0.051,0.02  l0.045-0.005l0.021-0.041l-0.005-0.045L53.992,46.182z M53.693,45.899l0.043-0.001l0.037-0.019l0.02-0.032l-0.011-0.037  l-0.069-0.057l-0.087-0.026l-0.183-0.01l-0.023,0.054l0.023,0.035l0.045,0.007l0.033-0.034l0.129,0.1L53.693,45.899z M38.665,99.217  l-0.043-0.055L38.6,99.127l-0.053-0.107l-0.023-0.024v0.217l-0.049,0.125l0.176,0.002l0.045-0.028l-0.008-0.063L38.665,99.217z   M72.764,11.225l0.026-0.083l-0.013-0.103l-0.043-0.079l-0.108-0.156l-0.03-0.088l-0.017-0.083l-0.026-0.077l-0.063-0.069v-0.001  l-0.076-0.07l-0.018-0.026l-0.006-0.032l0.004-0.023l0.01-0.022v-0.027l-0.025-0.134l0.01-0.148l-0.007-0.045l-0.021-0.047  l-0.02-0.025L72.296,9.84l-0.014-0.026l-0.007-0.032l0.008-0.023l0.01-0.018l0.005-0.021l-0.024-0.094l-0.024-0.054l-0.026-0.026  L72.135,9.6L72.09,9.607l-0.02-0.065l-0.004-0.051l-0.016-0.044l-0.029-0.038l-0.043-0.024l-0.031-0.007l-0.016,0.007l-0.015,0.009  L71.889,9.4l-0.037-0.04l-0.024-0.014l-0.017,0.022l0.002,0.023l0.004,0.029l0.004,0.028l-0.01,0.017H71.79l-0.024-0.019  l-0.019-0.023l-0.013-0.022l-0.008-0.05L71.74,9.31l0.02-0.04l0.01-0.049L71.76,9.21l-0.011-0.003l-0.013,0.004l-0.016,0.01  l-0.059,0.071l-0.025,0.015L71.607,9.31l-0.043-0.015l-0.022-0.004l-0.019,0.01l0.045,0.079l0.012,0.045l-0.045,0.003l-0.044-0.014  h-0.015l-0.02,0.001l-0.014,0.041L71.432,9.47l-0.018-0.021l-0.025-0.054l-0.022-0.031l-0.034-0.01l-0.053,0.006l-0.025,0.018  l-0.037,0.051l-0.023,0.004l-0.041-0.017l-0.02-0.001l-0.021,0.012l-0.016,0.021l-0.004,0.025L71.096,9.5l-0.007,0.023L71.07,9.541  l-0.041,0.025l-0.016,0.021v0.026l0.01,0.053l-0.01,0.022l-0.022,0.01l-0.015-0.015l-0.006-0.027l-0.002-0.023l-0.006-0.054  l-0.029-0.04l-0.041-0.031l-0.047-0.02L70.798,9.5l-0.015-0.024l-0.004-0.037l-0.012-0.031l-0.033-0.011l-0.092,0.011l-0.006,0.044  l0.037,0.082l0.006,0.05l-0.033,0.024l-0.082-0.004l-0.021,0.023v0.067l0.042,0.131l0.007,0.05l0.011,0.033l0.053,0.064l0.016,0.031  l-0.005,0.056l-0.022,0.046l-0.023,0.039l-0.012,0.042l0.019,0.114l0.001,0.047l-0.02,0.039l-0.02,0.005l-0.056,0.004l-0.021,0.008  l-0.014,0.03l0.002,0.025l0.007,0.027l0.013,0.078l0.023,0.081l-0.001,0.057l-0.047,0.161l0.008,0.039l0.042,0.05l0.01,0.033  L70.54,11.01l-0.026,0.038l-0.018,0.033l-0.005,0.02l0.006,0.05v0.114l-0.035,0.081l-0.002,0.013l-0.008,0.015l-0.021,0.154  l-0.013,0.042L70.4,11.604l-0.071,0.079l-0.063,0.055l-0.035,0.041l-0.021,0.046l0.003,0.035l0.013,0.036l0.008,0.048l-0.002,0.058  l-0.01,0.062l-0.019,0.057l-0.032,0.042l-0.023,0.011l-0.012-0.007l-0.011-0.012l-0.019-0.01h-0.102l-0.054,0.014l-0.039,0.036  l-0.024,0.052l-0.029,0.117l-0.018,0.044l-0.021,0.038l-0.033,0.041l-0.037,0.016l-0.111,0.01l-0.047,0.019l-0.148,0.148  l-0.016,0.043l0.031,0.1l-0.008,0.056l-0.037,0.031l-0.053,0.009l-0.092-0.003l-0.035-0.012l-0.043-0.023l-0.047-0.02h-0.057  l-0.111,0.062l-0.106,0.014l-0.046,0.014l-0.04,0.027l-0.039,0.043l-0.028,0.049l-0.013,0.051l-0.007,0.118l-0.022,0.042  l-0.056,0.004l-0.064-0.006l-0.046,0.004l-0.024,0.04l-0.01,0.053l-0.015,0.046l-0.037,0.021l-0.062,0.016l-0.002,0.038l0.057,0.105  l0.01,0.029l0.004,0.027l-0.004,0.027l-0.031,0.053l0.002,0.016l0.006,0.021l-0.002,0.036l-0.021,0.058l-0.038,0.043l-0.048,0.028  l-0.058,0.01L68.171,14l-0.082,0.097l-0.085,0.068l-0.139-0.076l-0.061-0.017l-0.029-0.017l-0.02-0.024l-0.035-0.098l-0.033-0.047  l-0.047-0.018l-0.053,0.001l-0.056,0.009l-0.056,0.001l-0.051-0.01l-0.154-0.06l-0.057-0.011l-0.059-0.004l-0.059,0.032  l-0.043,0.033l-0.084,0.096l-0.053,0.024l-0.066,0.018L66.8,14.026l-0.014,0.056l0.009,0.069l-0.009,0.057L66.76,14.26l-0.044,0.05  l-0.044,0.065l-0.031,0.075L66.6,14.511l-0.072,0.017l-0.072-0.029l-0.068-0.056l-0.059-0.068l-0.045-0.07l-0.094-0.115l-0.15-0.022  l-0.161,0.046l-0.116,0.091l-0.085,0.017l-0.084-0.051l-0.14-0.142l-0.081-0.033l-0.083,0.009l-0.084,0.034l-0.227,0.125  l-0.074,0.017l-0.092-0.004l-0.02-0.002l-0.053-0.001l-0.025-0.009l-0.021-0.012l-0.06-0.053l-0.022-0.011l-0.127-0.035  l-0.023-0.013l-0.055-0.054l-0.021-0.014l-0.058-0.015H64.27l-0.231,0.033l-0.06-0.005l-0.052-0.019l-0.368-0.188l-0.029-0.009  l-0.232-0.05l-0.099-0.034l-0.134-0.029l-0.07-0.029l-0.18-0.037l-0.07-0.003l-0.141,0.025l-0.033,0.003l-0.25-0.034l-0.623,0.056  l-0.203,0.087l-0.012,0.01l0.012-0.129l-0.006-0.053l-0.026-0.049l-0.058-0.042l-0.03-0.03l-0.015-0.034l0.012-0.074l0.033-0.053  l0.052-0.031l0.116-0.019l0.012-0.028l-0.004-0.039V13.21l0.005-0.022l0.009-0.021l0.012-0.019l0.014-0.018l0.021-0.013l0.012,0.011  l0.008,0.018v0.01l0.001,0.007l0.017,0.011l0.02,0.004l0.009-0.012l0.003-0.043l0.004-0.019l0.008-0.02l0.021-0.036L61.781,13  l0.018-0.036l-0.033-0.031l-0.006-0.034l0.02-0.033l0.035-0.025l0.103-0.027l0.049-0.021l0.022-0.032l0.021-0.023l0.104-0.009  l0.031-0.026l-0.016-0.045l-0.043-0.03l-0.025-0.036l0.027-0.056l0.039-0.012l0.041,0.014l0.038,0.006l0.03-0.034l-0.01-0.021  L62.21,12.46l-0.002-0.025l0.037-0.011h0.028l0.016-0.003l0.01-0.014l0.006-0.198l0.012-0.047l0.011-0.029l0.008-0.003l0.013,0.008  l0.072,0.014l0.025-0.003l0.014-0.015l-0.008-0.022l-0.012-0.021l-0.012-0.022l-0.002-0.03l0.01-0.008l0.039-0.028l0.016-0.017  l-0.014-0.014l-0.021-0.036l-0.015-0.02l-0.053-0.038l-0.011-0.014l-0.01-0.043l0.006-0.039l0.015-0.039l0.006-0.044l0.008-0.021  l0.031-0.024l0.008-0.026l-0.056-0.052l-0.008-0.032l0.015-0.041l0.078-0.136l0.012-0.037l0.006-0.042l-0.012-0.082v-0.041  l0.019-0.018l0.037-0.008l0.052-0.023l0.039-0.03l-0.001-0.033l-0.034-0.024l-0.036-0.019l-0.024-0.026l-0.006-0.045l0.021,0.008  l0.021,0.011l0.013,0.014l0.008,0.02l0.021-0.027l0.021-0.053l0.021-0.085l0.022-0.025l0.147-0.054l0.076-0.043l0.267-0.198  l0.028-0.041v-0.034l-0.105-0.031l0.018-0.038l0.08-0.065l0.014-0.02l0.015-0.029l-0.002-0.026l-0.054-0.019l-0.008-0.018  l0.008-0.019l0.049-0.018l0.048-0.026l0.046-0.033l0.025-0.036l-0.034-0.085l-0.009-0.048L63.313,9.9l0.041-0.015l0.045-0.034  l0.039-0.04l0.022-0.032l-0.022-0.007l-0.022-0.01L63.395,9.75l-0.013-0.021l0.048-0.074l0.027-0.028l0.05-0.019l0.026-0.003  l0.023,0.001l0.021-0.001L63.6,9.591l0.01-0.02l0.012-0.055l0.004-0.013l0.068,0.01l0.035-0.001l0.016-0.015l0.011-0.06l0.024-0.018  l0.031-0.007l0.026-0.029l0.013-0.044l0.029-0.218l-0.001-0.042l-0.019-0.034L63.83,9.01l-0.145-0.111V8.87l-0.068-0.178  l-0.07-0.049L63.503,8.58L63.43,8.416l-0.027-0.032L63.33,8.349l-0.034-0.026l-0.103-0.117l-0.031-0.03L63.116,8.16h-0.181  l-0.033-0.011l-0.012-0.025L62.88,8.095l-0.015-0.021L62.844,8.07l-0.051,0.007L62.77,8.074l-0.16-0.081l-0.027,0.003l-0.021-0.039  l-0.207-0.142l-0.041,0.001l-0.039,0.028L62.21,7.912l-0.026,0.02l-0.029,0.015l-0.025,0.004L62.1,7.941l-0.012-0.014L62.08,7.908  l-0.014-0.025l-0.147-0.165l-0.054-0.075l-0.028-0.027L61.782,7.59l-0.505-0.099l-0.012-0.012l-0.007-0.02l-0.014-0.011L61.229,7.44  l-0.018-0.013l-0.031-0.01l-0.117-0.002l-0.047-0.013L60.577,7.07l-0.071-0.018l-0.021-0.016L60.438,6.99l-0.021-0.014L60.4,6.974  l-0.043-0.001l-0.045-0.016L60.227,6.9l-0.053-0.02l-0.066-0.046l-0.096-0.032L59.99,6.784l-0.012-0.017L59.96,6.755l-0.035-0.004  l-0.021-0.008l-0.031-0.036l-0.075-0.028l-0.036-0.046l-0.048-0.089l-0.021-0.023l-0.088-0.079l-0.057-0.025l-0.008-0.02  l-0.006-0.022l-0.008-0.018l-0.016-0.012l-0.049-0.021l-0.053-0.03l-0.025-0.02l-0.023-0.027l-0.019-0.013L59.3,6.226l-0.038-0.024  l-0.057-0.008l-0.023-0.009L59.164,6.17l-0.04-0.055l-0.088-0.09L58.215,5.48l-0.042-0.01l-0.047,0.004l-0.106,0.04l-0.056,0.012  l-0.171,0.006l-0.18-0.028l-0.071,0.004L57.52,5.503L57.495,5.49l-0.044-0.04l-0.025-0.016l-0.021-0.002l-0.08,0.002l-0.141-0.028  l-0.076-0.053l-0.041-0.021l-0.082-0.004l-0.014-0.004l-0.035-0.079L56.932,5.23L56.91,5.226l-0.04-0.022l-0.024-0.008l-0.027-0.003  l-0.104,0.006l-0.021-0.006l-0.047-0.04l-0.021-0.007l-0.2,0.004l-0.048-0.005l-0.064-0.039l-0.078-0.064L56.148,5l-0.088,0.026  l-0.072-0.047l-0.021-0.021l-0.032-0.056l-0.014-0.014l-0.005-0.033l-0.026-0.051l-0.039-0.048l-0.06-0.034l-0.039-0.065  l-0.021-0.022l0.021-0.042l0.009-0.056l-0.009-0.05l-0.028-0.022l-0.039-0.014L55.65,4.42l-0.03-0.035l-0.027-0.021L55.574,4.36  l-0.045,0.003h-0.018l-0.021-0.016l-0.043-0.044l-0.021-0.009L55.381,4.28l-0.023-0.035l-0.015-0.039l-0.017-0.032l-0.15-0.065  l-0.052-0.003l-0.032-0.009L55.07,4.081l-0.028-0.025l-0.035-0.025l-0.036-0.015l-0.043-0.008L54.88,4.006l-0.022-0.014  l-0.021-0.059L54.8,3.91l0.002-0.025l0.013-0.028l0.011-0.021l-0.042-0.001l-0.026-0.004L54.734,3.82l-0.115-0.121l-0.033-0.017  H54.48l-0.032-0.008l-0.021-0.012l-0.033-0.041l-0.035-0.022l-0.032-0.014l-0.025-0.022l-0.01-0.042l-0.003-0.046l-0.006-0.029  L54.27,3.421l-0.024-0.028l-0.024-0.022l-0.052-0.029l-0.026-0.025l-0.054-0.075L54.07,3.223l-0.254-0.155l-0.082-0.09l-0.031-0.047  V2.92l-0.008-0.011l0.013-0.059l-0.005-0.023l-0.025-0.038l-0.043-0.09l-0.033-0.05l-0.049-0.051L53.531,2.57l-0.008-0.03  l-0.012-0.002L53.49,2.522l-0.021-0.017l-0.001-0.01l-0.017-0.007l-0.01-0.02l-0.006-0.022l-0.009-0.018L53.365,2.36l-0.014-0.027  l-0.011-0.026l-0.016-0.022l-0.031-0.009l-0.009-0.014l0.027-0.057L53.27,2.177l0.002-0.032l0.015-0.054l-0.013-0.026l-0.008-0.004  l-0.014,0.001l-0.029-0.007L53.166,2.03l-0.029-0.025l-0.002-0.032l0.034-0.044l0.013-0.04l-0.019-0.044l-0.052-0.06L53.1,1.782  l-0.017,0.001L53.07,1.779l-0.006-0.018V1.734l-0.002-0.012l-0.002-0.013L53.043,1.7l-0.025-0.007l-0.099-0.014l-0.044-0.016  l-0.16-0.11l-0.039-0.039l-0.017-0.037L52.641,1.46l-0.092-0.03L52.52,1.418l-0.057-0.074l-0.038-0.032L52.37,1.298l-0.024-0.003  l-0.031-0.009L52.287,1.27L52.27,1.248l0.004-0.021l0.016-0.022l0.01-0.025l-0.014-0.034H52.3l-0.014-0.02l-0.015-0.015L52.251,1.1  l-0.022-0.004L52.21,1.09l-0.008-0.018L52.2,1.05l-0.011-0.022L52.163,1l-0.099-0.071l-0.108-0.053l-0.031-0.033l-0.017-0.044V0.722  l-0.018-0.031l0.008-0.021V0.646l-0.016-0.093l-0.006-0.021l-0.034-0.008l-0.099-0.019l-0.34,0.019l0,0l-1.438-0.008L49.878,0.53  l-0.035,0.021l-0.106,0.095L49.71,0.633L49.615,0.55l-0.047-0.021l-0.213-0.015l-0.062,0.013L49.262,0.54l-0.007,0.008l-0.002,0.014  L49.23,0.618l-0.01,0.047l-0.007,0.02l-0.019,0.018l-0.019,0.009l-0.015,0.005l-0.014,0.008l-0.02,0.041l-0.036,0.137l-0.069,0.18  L49.008,1.11l-0.046,0.026l-0.019,0.018l-0.168,0.444l-0.055,0.081l-0.119,0.113L48.568,1.85l-0.098,0.37l-0.002,0.178l-0.021,0.048  l-0.054,0.189l0.004,0.032l-0.043-0.021l-0.008-0.115l-0.029-0.035l0.019-0.059l-0.008-0.066l-0.03-0.056l-0.05-0.022l-0.024-0.021  l-0.062-0.13l-0.022-0.019L48.12,2.116l-0.017-0.015L48.1,2.065l0.002-0.028l0.01-0.048l0.004-0.025l0.008-0.026l0.02-0.022  l0.018-0.025l0.004-0.036l-0.126-0.126l-0.034-0.045l-0.013-0.057L47.98,1.612l-0.043-0.028l-0.012-0.018l0.001-0.025l0.019-0.047  l-0.004-0.026l-0.03-0.028l-0.048-0.033l-0.03-0.043l0.022-0.057l0.029-0.037L47.9,1.237v-0.04l-0.021-0.05l-0.02-0.029L47.8,1.042  l-0.022-0.015l-0.045-0.01l-0.051-0.026l-0.043-0.032l-0.05-0.008l-0.021-0.006l-0.018,0.003l-0.043,0.02L47.486,0.97l-0.09-0.021  l-0.16-0.092l-0.43-0.1l-1,0.013l-0.121-0.014l-0.158-0.024l-0.021,0.003l-0.012,0.008l-0.011,0.011l-0.014,0.01l-0.318,0.037  l-0.07-0.022l-0.066-0.047l-0.293-0.346l-0.05-0.029L44.46,0.32l-0.011-0.014l-0.027-0.118l-0.07-0.076l-0.1-0.05L44.059,0  L44.02,0.012L43.91,0.417l-0.021,0.228l-0.011,0.036l-0.015,0.031l-0.006,0.003l-0.01-0.007l-0.029,0.004L43.8,0.725l-0.019,0.019  l-0.014,0.024l-0.011,0.023l-0.055,0.043l-0.306,0.088l-0.266,0.073l-0.009,0.011l-0.007,0.02L43.111,1.04L43.1,1.042L43.063,1.03  l-0.045-0.005l-0.023-0.008l-0.025-0.003l-0.031,0.014l-0.054,0.046l-0.028,0.049l-0.018,0.059l-0.025,0.182L42.795,1.42  l-0.027,0.036L42.76,1.477l0.014,0.071l-0.002,0.026l-0.023,0.017l-0.258,0.08L42.43,1.703l-0.047,0.05l-0.021,0.033l-0.028,0.021  l-0.037,0.009l-0.05-0.006h-0.041l0.02,0.229l-0.004,0.054l-0.025,0.038l-0.174,0.136l-0.066,0.081l-0.118,0.197l0.413,0.44  l-0.016,0.077l-0.039,0.132l-0.16,0.526l-0.16,0.526l-0.162,0.527l-0.158,0.529l-0.052,0.163l-0.051,0.074l-0.114,0.063  l-0.092,0.036l-0.021,0.008L41.18,5.663L41.133,5.68l-0.021,0.008l-0.284,0.126l-0.286,0.128L40.255,6.07l-0.286,0.127l-0.113,0.049  L39.74,6.294l-0.115,0.049L39.51,6.391l-0.074,0.033l-0.043,0.028L39.381,6.47l-0.021,0.071l-0.084,0.138l-0.03,0.028l-0.041,0.002  l-0.04-0.014l-0.039-0.007l-0.042,0.024L38.99,6.91l-0.016,0.076L38.96,7.033L38.934,7.02l-0.043-0.062l-0.031,0.007l-0.019,0.026  l-0.01,0.037l-0.007,0.036L38.8,7.148l-0.116,0.238L38.668,7.44l0.003,0.043l0.052,0.133l0.01,0.016l0.021,0.023l0.055,0.032  l0.017,0.014h0.047l0.024,0.01l0.016,0.021l0.016,0.035L38.924,7.77l-0.003,0.01l-0.002,0.012l0.001,0.012l0.01,0.011l0.025,0.021  l0.008,0.011l0.012,0.02l0.012,0.015l0.007,0.016l-0.007,0.025l-0.008,0.093l0.054,0.077l0.071,0.065l0.049,0.066l0.002,0.049  l-0.028,0.034l-0.046,0.02l-0.051,0.01L38.98,8.335l-0.037-0.008l-0.034,0.001l-0.045,0.027l-0.052,0.069l-0.207,0.638l-0.008,0.094  l0.004,0.047l0.01,0.044l0.084,0.103l0.027,0.053l-0.031,0.039l0.021,0.051l-0.005,0.068l0.005,0.069l0.042,0.063l0.044,0.046  l0.032,0.058l0.021,0.065l0.028,0.207l0.158,0.65l0.021,0.127l-0.025,0.089l-0.289,0.228l-0.066,0.087l-0.027,0.088l-0.016,0.103  l-0.003,0.2l0.019,0.131l0.039,0.106l0.061,0.099l0.076,0.101l0.436,0.614l0.034,0.071l0.009,0.074l-0.013,0.046l-0.038,0.091  l-0.013,0.051l-0.005,0.03l0.007,0.064l-0.005,0.02l-0.016,0.001l-0.066-0.005l-0.024,0.003l-0.104,0.044l-0.047,0.013L38.863,13.2  l-0.055,0.021l-0.051,0.034l-0.04,0.045l-0.026,0.057l-0.015,0.05l-0.024,0.035l-0.055,0.007l-0.09-0.037l-0.076-0.062l-0.082-0.052  l-0.104-0.005l-0.084,0.021l-0.03,0.02l-0.033,0.04L38,13.532l-0.02,0.06l-0.004,0.044l0.004,0.101l-0.008,0.042l-0.111,0.257  l-0.025,0.035L37.8,14.103l-0.079,0.043l-0.037,0.028l-0.019,0.029l-0.007,0.033l0.002,0.035l0.008,0.035l-0.008,0.061l-0.02,0.07  l-0.06,0.125l-0.021,0.026l-0.053,0.049l-0.016,0.029l-0.004,0.042l0.016,0.032l0.018,0.032l0.008,0.038l-0.012,0.019l-0.063,0.031  l-0.021,0.016l-0.015,0.032l-0.11,0.487l-0.041,0.071l-0.059,0.043l-0.135,0.038l-0.037,0.017l-0.028,0.026l-0.021,0.039  l-0.002,0.021l0.007,0.017l-0.002,0.02l-0.043,0.041l-0.085,0.201l-0.051,0.082l-0.051,0.104l-0.02,0.026l-0.035-0.011l-0.046-0.033  l-0.048-0.02l-0.032,0.027l-0.024,0.135l-0.02,0.045l-0.102,0.129l-0.121,0.1l-0.105,0.106l-0.043,0.156l-0.008,0.272l-0.006,0.027  l-0.016,0.011l-0.021,0.004L36.1,17.102l-0.05,0.068l-0.043,0.078l-0.028,0.084l-0.006,0.089l0.012,0.057l0.033,0.111l0.008,0.058  l-0.006,0.047l-0.066,0.12l-0.005,0.023l0.001,0.021l-0.002,0.022l-0.014,0.022l-0.029,0.033l-0.021,0.039l-0.018,0.05l-0.009,0.053  v0.053l0.012,0.051l0.013,0.131l-0.003,0.068l-0.016,0.059l-0.041,0.056l-0.053,0.023l-0.112,0.021l-0.038,0.016l-0.01,0.015v0.019  l-0.017,0.032l-0.024,0.022l-0.062,0.041l-0.034,0.032L35.46,18.72l-0.012,0.006l-0.011,0.017l0.004,0.014l0.025,0.035l0.006,0.02  l-0.016,0.025l-0.02,0.018l-0.024,0.015l-0.022,0.009l-0.049,0.029l-0.021,0.053l-0.008,0.126l0.004,0.045l0.015,0.036l0.021,0.033  l0.019,0.039l0.021,0.135l0.019,0.025l0.014,0.028l0.011,0.03l0.053,0.249l-0.002,0.078l-0.008,0.079v0.06l0.021,0.052l0.06,0.05  l0.021,0.036l0.028,0.229l-0.015,0.352l-0.013,0.098l-0.03,0.096l-0.079,0.119l-0.012,0.037l0.018,0.044l0.037,0.008l0.088-0.012  l0.086,0.032l0.071,0.071l0.032,0.091l-0.03,0.099l-0.02,0.017l-0.046,0.021l-0.021,0.019l-0.009,0.023l-0.007,0.023l-0.01,0.049  l-0.006,0.1l-0.006,0.047l-0.021,0.044l-0.06,0.069l-0.062,0.05l-0.069,0.036l-0.082,0.023l-0.076-0.021l-0.188-0.093l-0.06,0.028  l0.004,0.039l0.057,0.098l0.011,0.054l-0.016,0.054l-0.03,0.026l-0.035,0.02l-0.039,0.025l-0.046,0.075l-0.042,0.201l-0.035,0.093  L34.8,22.527l-0.014,0.043l-0.009,0.053v0.033l0.009,0.026v0.026l-0.015,0.032l-0.041,0.054l-0.012,0.02l-0.031,0.093l-0.045,0.364  l0.008,0.047l0.023,0.042l0.037,0.045l0.064,0.058l0.029,0.036l0.002,0.034l-0.027,0.008l-0.096-0.015l-0.043,0.021l-0.054,0.083  l-0.022,0.052l-0.02,0.077l-0.027,0.043l-0.035,0.032l-0.035,0.009l-0.026-0.032l-0.012-0.059l-0.019-0.057l-0.045-0.022  l-0.027,0.02l-0.127,0.202l-0.014,0.042l-0.006,0.054l0.002,0.103l-0.009,0.047l-0.052,0.106l0.005,0.049l0.017,0.05l0.014,0.056  l-0.008,0.05l-0.039,0.083l-0.01,0.052l0.002,0.098l-0.008,0.097L34.064,24.9l0.004,0.048l0.021,0.065l0.12,0.246l0.069,0.08  l0.025,0.045L34.301,25.5l0.01,0.063l0.021,0.061l0.025,0.049l0.082,0.084l0.078,0.021l0.084-0.003l0.1,0.014l0.04,0.023  l0.048,0.043l0.045,0.05l0.025,0.044l0.007,0.053l-0.015,0.034l-0.021,0.031l-0.021,0.04l-0.02,0.099l-0.021,0.024l-0.057,0.002  l-0.1-0.038l-0.047-0.007l-0.032,0.031l-0.005,0.03l0.012,0.024l0.037,0.041l0.016,0.023l0.006,0.021v0.053l0.008,0.025l0.039,0.029  l0.008,0.018l-0.004,0.025l-0.017,0.044l-0.004,0.023l0.006,0.034l0.027,0.057l0.009,0.031l0.001,0.025l-0.007,0.049v0.022  l0.02,0.067l0.027,0.022l0.04,0.006l0.052,0.022l0.063,0.083l-0.008,0.199l0.041,0.083l0.09,0.051l0.037,0.031l0.025,0.054  l0.008,0.057l-0.006,0.052l0.006,0.045l0.045,0.072l-0.021,0.009l-0.056,0.001l-0.012,0.021l-0.007,0.023l-0.005,0.051l0.001,0.061  l0.058,0.293l0.037,0.081l0.118,0.148l0.076,0.075l0.04,0.023l0.051,0.021l0.033,0.025v0.033l-0.039,0.075l-0.018,0.05L35.34,28.74  l-0.02,0.043l-0.031,0.024l-0.074,0.018l-0.031,0.028l-0.021,0.054l0.015,0.044l0.021,0.044l0.008,0.055l-0.041,0.157l0.002,0.056  l0.02,0.046l0.035,0.041l0.077,0.065l0.022,0.036l0.072,0.165l0.061-0.013l0.1-0.14l0.08-0.013l0.082,0.031l0.074,0.044l0.053,0.065  l0.02,0.149l0.041,0.096l0.002,0.054l-0.018,0.042l-0.062,0.076l-0.021,0.043l-0.01,0.044l-0.009,0.126l-0.009,0.032l-0.019,0.011  l-0.045,0.017l-0.015,0.012l-0.008,0.03l0.004,0.023l0.009,0.023l0.001,0.029l-0.047,0.156l-0.006,0.053l0.021,0.044l0.063,0.09  v0.041l-0.029,0.031l-0.077,0.063l-0.019,0.032l-0.002,0.06l0.041,0.213l-0.004,0.049l-0.021,0.106l-0.002,0.077l0.021,0.008  l0.037-0.013l0.041,0.01l0.023,0.074v0.127l-0.02,0.21l-0.01,0.042l-0.011,0.023l-0.001,0.024l0.009,0.046L35.732,32l0.058,0.108  l0.021,0.065L35.8,32.2l-0.157,0.07l-0.006,0.014l-0.004,0.02l-0.012,0.011l-0.083-0.031l-0.048-0.009l-0.049-0.003l-0.115,0.022  l-0.041,0.04l-0.016,0.061l0.002,0.083l0.011,0.081l0.001,0.063l-0.02,0.052l-0.107,0.09l-0.031,0.061l-0.053,0.135l-0.038,0.056  l-0.095,0.082l-0.043,0.047l-0.033,0.095l-0.022,0.213l-0.048,0.086l-0.047,0.026l-0.036,0.008l-0.017,0.017l0.021,0.049l0.033,0.04  l0.027,0.023l0.009,0.034l-0.175,0.43l-0.043,0.198l0.008,0.203l-0.04,0.193l-0.358,0.118l-0.082,0.142l0.042,0.107l0.091,0.032  l0.104,0.013l0.081,0.05l0.025,0.069L34.41,35.32l-0.047,0.011l-0.025,0.024l0.008,0.043l0.055,0.185l0.031,0.047l0.033,0.038  l0.02,0.042l-0.021,0.115l0.013,0.112v0.056l-0.024,0.103l0.003,0.043l0.104,0.286l0.034,0.062l0.011,0.09l-0.145,0.148  l-0.002,0.101l0.02,0.013l0.051-0.007l0.016,0.021l-0.003,0.022l-0.015,0.017l-0.021,0.015l-0.012,0.017l-0.017,0.053v0.034  l0.064,0.172l0.008,0.045l-0.015,0.035l-0.04,0.044l-0.016,0.025l-0.027,0.094l-0.027,0.056l-0.037,0.045l-0.046,0.028l-0.063,0.003  l-0.104-0.059l-0.053-0.01l-0.03,0.012l-0.017,0.02l-0.021,0.056l-0.005,0.015l-0.003,0.036l-0.007,0.019l-0.01,0.01l-0.026,0.013  l-0.01,0.008l-0.084,0.111l-0.031,0.022l-0.043,0.011l-0.021,0.01l-0.019,0.017l-0.009,0.026l0.002,0.023l0.004,0.023l-0.001,0.024  l-0.039,0.07l-0.006,0.025l0.008,0.036l0.034,0.06l0.011,0.033v0.066l-0.021,0.032l-0.203,0.053l-0.018-0.01l-0.014-0.016  l-0.02-0.012l-0.092-0.044l-0.05-0.012l-0.04,0.014l-0.02,0.039l-0.016,0.107l-0.027,0.044l-0.043,0.027l-0.041,0.009l-0.041-0.006  l-0.047-0.017l-0.076,0.02l-0.043,0.103l-0.016,0.129l-0.004,0.107l0.035,0.192l-0.006,0.046l-0.036,0.025l-0.04-0.021l-0.043-0.032  l-0.046-0.004l-0.037,0.032l-0.007,0.044l0.005,0.106l-0.011,0.056L32.727,39.4l-0.013,0.022l-0.017,0.022l-0.014,0.024  l-0.004,0.026l0.012,0.028l0.021,0.014l0.022,0.009l0.018,0.018l0.014,0.029l0.002,0.013l-0.006,0.01v0.023l-0.007,0.022  l-0.012,0.021v0.022l0.065,0.045l0.01,0.039l-0.018,0.04l-0.041,0.029l-0.046-0.002l-0.045-0.011l-0.015,0.003l0.045,0.042  l0.072,0.045l0.018,0.03l0.021,0.138l0.028,0.045l0.086,0.074l-0.082,0.048l-0.032,0.038l-0.02,0.061l-0.001,0.061l0.005,0.057  l-0.002,0.056L32.768,40.6l-0.09,0.112l-0.019,0.051l0.002,0.065l0.022,0.081l0.061,0.138l0.072,0.096l0.029,0.052l0.014,0.067  l-0.008,0.058l-0.035,0.107l-0.014,0.057l0.006,0.031l0.028,0.051L32.835,41.6l-0.013,0.018l-0.055,0.034l-0.035,0.035l-0.025,0.032  l-0.016,0.04l-0.004,0.062l0.017,0.129l0.118,0.382l0.088,0.17l0.017,0.123l0.062,0.111l0.021,0.06l0.014,0.062l0.021,0.047  l0.063,0.084l0.006,0.016l0.003,0.017l-0.003,0.016l-0.006,0.017l-0.03,0.048l0.001,0.054l0.029,0.114l0.002,0.008v0.015  l-0.021,0.097l-0.004,0.09l0.008,0.087l0.099,0.466l0.053,0.102L33.32,44.2l0.084,0.059l0.072,0.07l0.031,0.109l-0.007,0.058  l-0.024,0.045l-0.057,0.082l-0.023,0.044l-0.004,0.019v0.031l0.004,0.025l0.016,0.019l0.01,0.021l-0.003,0.027l-0.013,0.01  l-0.068,0.034l-0.014,0.017l-0.032,0.068l-0.036,0.033l-0.05,0.011l-0.099-0.012H33.02l-0.068,0.03l-0.133,0.104l-0.036,0.019  l-0.173,0.029l-0.02,0.009l-0.01,0.02l-0.03,0.041l-0.059,0.052l-0.209,0.111l-0.066,0.064l-0.036,0.073l-0.033,0.188l-0.002,0.078  l0.043,0.219l0.024,0.399l-0.024,0.24l-0.018,0.071l-0.043,0.04l-0.05,0.034l-0.036,0.046l-0.003,0.057l0.037,0.094l-0.021,0.046  l-0.029,0.034l-0.043,0.08l-0.03,0.038l-0.062,0.091l0.105,0.1l-0.018,0.106l-0.039,0.039l-0.037,0.003l-0.043-0.009l-0.049,0.006  l-0.057,0.014l-0.039-0.008L31.682,47.5l-0.104-0.115h-0.027l-0.035,0.044l-0.021,0.053l-0.01,0.065l0.007,0.063l0.05,0.085  l-0.012,0.05l-0.021,0.054l-0.014,0.052l0.01,0.064l0.042,0.125l0.013,0.063l0.004,0.065l0.014,0.043l0.021,0.033l0.08,0.072  l0.029,0.035l0.011,0.043l-0.019,0.063l-0.084,0.191l-0.014,0.015l-0.017,0.012l-0.015,0.016l-0.006,0.025l0.006,0.033l0.017,0.063  l0.006,0.031l-0.028,0.113l-0.088-0.015l-0.103-0.051l-0.075,0.01l-0.029,0.039l-0.002,0.021l0.018,0.025l0.011,0.023l-0.005,0.024  l-0.009,0.028l-0.019,0.092v0.029l0.01,0.03l-0.004,0.011l-0.02,0.043l-0.004,0.022l0.018,0.05l0.032,0.046l0.072,0.074l0.048,0.073  l0.018,0.014l0.027,0.008l0.012-0.011l0.004-0.017l0.012-0.011l0.029-0.013l0.016,0.003l0.027,0.017l0.018,0.021l0.009,0.025  l0.003,0.028v0.032l-0.011,0.048l-0.093,0.218l-0.022,0.025l-0.03-0.002l-0.096-0.028l-0.027,0.009l-0.018,0.037l-0.085,0.268  l-0.04,0.079l-0.007,0.021l0.002,0.029l0.022,0.032l0.006,0.027l-0.012,0.111l-0.046,0.092l-0.176,0.188l-0.015,0.033l0.08,0.321  l0.022,0.068l0.093,0.137l0.024,0.054l0.019,0.074v0.059l-0.037,0.125l0.002,0.064l0.033,0.11l-0.003,0.067L31.156,52l-0.008,0.107  l-0.012,0.051l-0.023,0.019l-0.02,0.021l0.004,0.063l0.027,0.103l0.007,0.048l-0.012,0.062l-0.056,0.2l-0.004,0.097l0.026,0.115  l0.019,0.053l0.011,0.043l0.003,0.043l-0.006,0.06l-0.018,0.09v0.039l0.02,0.052l0.027,0.047l0.025,0.033l0.009,0.033l-0.024,0.053  l-0.032,0.032l-0.077,0.047l-0.031,0.038v0.092l0.129,0.191l0.024,0.1l0.004,0.115l0.04,0.084l0.057,0.074l0.047,0.091l0.045,0.22  l-0.002,0.053l-0.01,0.049l-0.003,0.043l0.041,0.066l0.043,0.051l0.011,0.022l0.008,0.16l-0.029,0.063l-0.055,0.045L31.296,55.1  l-0.161,0.028l-0.027,0.015l-0.021,0.025L31.068,55.2l-0.02,0.026l-0.031,0.015l-0.056-0.028l-0.03-0.068l-0.037-0.062l-0.074-0.001  l-0.069,0.063l-0.024,0.078l-0.019,0.084l-0.041,0.072l-0.06,0.061l-0.049,0.069l-0.021,0.075l0.027,0.077l0.119,0.114l0.021,0.059  l-0.036,0.168l0.003,0.031l0.067,0.111l0.016,0.037l-0.006,0.027l-0.117,0.063l-0.068,0.06l-0.047,0.084l-0.012,0.11l0.008,0.022  l0.023,0.045l0.006,0.029l-0.001,0.022l-0.021,0.074l0.004,0.043l0.031,0.106l0.01,0.049l0.021,0.447l-0.018,0.108l-0.051,0.201  l-0.015,0.109l0.043,0.136l0.076,0.114l0.097,0.083l0.102,0.048l0.34,0.038l0.21,0.09l0.044,0.033l0.018,0.056l-0.007,0.028  l-0.022,0.054l-0.004,0.028v0.03l0.014,0.049l0.006,0.025l0.001,0.057l-0.004,0.058l-0.022,0.037l-0.103-0.022l-0.045,0.012  l-0.091,0.045l-0.059,0.004l-0.027,0.01l-0.012,0.023l-0.005,0.095l-0.009,0.024l-0.016,0.021l-0.019,0.012l-0.019,0.016  l-0.014,0.027v0.021l0.01,0.09l-0.012,0.022l-0.021,0.015l-0.011,0.016l0.019,0.03l0.021,0.011l0.024-0.007l0.024-0.01l0.023-0.008  l0.047,0.014l0.037,0.029l0.024,0.048v0.067l-0.045,0.063l-0.009,0.018l0.019,0.045l0.052,0.012l0.063-0.002l0.052,0.008  l0.025,0.016l0.015,0.02l0.011,0.02l0.014,0.02l0.016,0.016l0.098,0.07l0.021,0.023l0.007,0.036l0.019,0.183l-0.014,0.039  l-0.037,0.043l-0.044,0.023l-0.096,0.038l-0.039,0.026l-0.022,0.043l-0.014,0.06l0.01,0.052l0.041,0.021l0.051-0.019l0.028-0.021  L31.4,60.21l0.006,0.07l-0.008,0.028l-0.01,0.022l-0.01,0.022l0.005,0.037l0.015,0.018l0.043,0.023l0.021,0.014l0.029,0.039  l0.128,0.215l0.001,0.043l-0.022,0.063l-0.213,0.332l-0.074,0.069l-0.093,0.026l-0.053,0.041l0.032,0.119l0.072,0.135l0.018,0.057  l-0.003,0.057l-0.05,0.094l-0.008,0.058l0.018,0.052l0.027,0.045l0.019,0.045l-0.017,0.061l-0.032,0.023l-0.052,0.022l-0.037,0.035  l0.008,0.057l0.088,0.084l0.095-0.002l0.099-0.028h0.1l0.117,0.028l0.471-0.004l0.344,0.069l0.119,0.003l0.059,0.011l0.054,0.033  l0.034,0.046l0.014,0.045l0.007,0.049l0.017,0.054l0.029,0.045l0.028,0.025l0.019,0.031v0.063L32.83,62.75l-0.037,0.034  l-0.046,0.009l-0.048,0.003l-0.025,0.022l-0.031,0.049l-0.05,0.102l-0.013,0.063l0.004,0.051l0.018,0.114l-0.017,0.121l-0.056,0.096  l-0.08,0.059l-0.088,0.021l-0.098-0.031l-0.18-0.128l-0.092-0.029l-0.1,0.023l-0.207,0.095l-0.096-0.004l-0.154-0.065l-0.052-0.013  l-0.055,0.011l-0.032,0.03l-0.027,0.037l-0.041,0.031l-0.055,0.009l-0.304-0.061l-0.052-0.021l-0.088-0.035l-0.063,0.02  l-0.028,0.072l0.033,0.174L30.67,63.66l-0.014,0.107l0.017,0.049l0.046,0.017l0.102-0.008l0.092,0.034l0.091,0.06l0.093,0.044  l0.092-0.012l0.049-0.027l0.051-0.02l0.053-0.006l0.053,0.014l0.034,0.027l0.06,0.078l0.037,0.029l0.095,0.018l0.086-0.014  l0.08,0.01l0.077,0.09l0.092,0.193l0.041,0.147l0.021,0.036l0.088,0.117l0.123,0.086l0.074,0.074l0.055,0.083l0.049,0.107  l0.015,0.104l-0.053,0.074l-0.037,0.033l-0.056,0.085L32.24,65.33l-0.043,0.025l-0.229,0.098l-0.006,0.031l0.021,0.066l0.047,0.096  l0.007,0.047l-0.024,0.053l-0.084,0.066l-0.082,0.015l-0.177-0.013l-0.075,0.013l-0.097,0.03l-0.081,0.054l-0.035,0.075l0.006,0.012  l0.035,0.036l0.012,0.022l-0.007,0.021l-0.016,0.02l-0.017,0.017l-0.014,0.017l-0.042,0.082l-0.007,0.036l-0.006,0.054l0.005,0.023  l0.008,0.02l0.007,0.022l-0.009,0.028l-0.036,0.063l-0.006,0.021l0.01,0.052l0.021,0.036l0.062,0.059l0.03,0.061l-0.006,0.047  l-0.021,0.048l-0.011,0.05l0.015,0.057l0.035,0.029l0.098,0.036l0.08,0.052l0.057,0.07l0.039,0.093l0.025,0.12l-0.254,0.286  l-0.026,0.044L31.4,67.716l-0.03,0.04l-0.052,0.031l-0.057,0.015l-0.17,0.021l-0.031,0.011l-0.019,0.018l-0.004,0.035l0.011,0.014  l0.021,0.008l0.021,0.014l0.111,0.11l0.137,0.093l0.045,0.064l0.011,0.095l-0.011,0.149l0.005,0.131l0.021,0.115l0.152,0.418  l0.01,0.063l-0.012,0.052l-0.018,0.053l-0.006,0.059l0.036,0.24l-0.017,0.102l-0.076,0.085l-0.127,0.075l-0.039,0.043l-0.062,0.094  l-0.034,0.031l-0.048,0.02l-0.119,0.002l-0.061,0.016l-0.037,0.049l-0.001,0.031l0.011,0.025l0.015,0.023l0.01,0.025l-0.002,0.028  l-0.012,0.021l-0.017,0.021l-0.011,0.025l-0.037,0.197l-0.002,0.047l0.023,0.047l0.075,0.072l0.027,0.049l-0.046,0.053l-0.148,0.093  l-0.012,0.067l0.047,0.062l0.146,0.089l0.062,0.049l0.043,0.07l0.026,0.088l-0.002,0.094l-0.037,0.086l-0.074,0.041l-0.076-0.021  l-0.146-0.099l-0.047-0.003l-0.025,0.021l-0.008,0.04l0.004,0.059l0.016,0.057l0.014,0.033l0.004,0.033l-0.021,0.059l-0.045,0.085  l-0.2,0.233l-0.059,0.088l-0.037,0.033l-0.05,0.01l-0.125-0.021l-0.057,0.003l-0.093,0.039l-0.042,0.033l-0.033,0.051l-0.021,0.079  l0.026,0.029l0.047,0.017l0.039,0.034l0.004,0.046l-0.043,0.181l-0.006,0.066l-0.01,0.059l-0.016,0.055l-0.025,0.056l-0.217,0.388  l-0.039,0.114l-0.061,0.237l-0.053,0.102L29.6,73.782l0.021,0.104l0.06,0.092l0.072,0.071l0.049,0.025l0.045,0.011l0.041,0.018  l0.036,0.051l0.009,0.029l0.002,0.031l0.006,0.029l0.019,0.023l0.024,0.016l0.076,0.027l0.022,0.068l0.056,0.413l-0.007,0.067  l-0.028,0.131l-0.004,0.058l0.02,0.046l0.031,0.059l0.021,0.061l-0.019,0.049l-0.027,0.01l-0.068-0.021l-0.029-0.003l-0.029,0.012  l-0.014,0.015l-0.026,0.047l-0.063,0.094l-0.039,0.031l-0.144,0.051l-0.094,0.056l-0.091,0.071l-0.086,0.199l0.018,0.175  l0.052,0.188l0.015,0.366l-0.01,0.134l-0.022,0.105l-0.062,0.1l-0.121,0.15l-0.162,0.176l-0.088,0.069l-0.101,0.037l-0.224,0.026  l-0.106,0.043l-0.092,0.09l-0.019,0.027l-0.141,0.211l-0.029,0.076l-0.009,0.053v0.043l-0.004,0.045l-0.022,0.047l-0.146,0.19  l-0.031,0.086l0.004,0.089l0.047,0.065l0.148,0.028l-0.002,0.022l-0.073,0.021l-0.024,0.023l-0.008,0.063l-0.717,0.014L27.48,78.62  v0.087l0.021,0.115l-0.011,0.045l-0.039,0.046l-0.088,0.056l-0.041,0.039l-0.025,0.057l0.001,0.067l0.015,0.052l0.004,0.047  l-0.029,0.06l-0.069,0.077l-0.005,0.037l0.029,0.066l0.029,0.043l0.067,0.077l0.027,0.054l0.006,0.068L27.35,79.77l-0.029,0.055  l-0.012,0.06l0.016,0.058l0.035,0.048l0.072,0.075l0.063,0.113l0.004,0.098l-0.041,0.084l-0.121,0.13l-0.012,0.048l0.002,0.055  l-0.009,0.063L27.289,80.7l-0.033,0.042l-0.01,0.045l0.042,0.052l0.124,0.112l0.027,0.045l0.021,0.063l-0.006,0.047L27.34,81.32  l-0.023,0.109l0.025,0.096l0.284,0.272l0.095,0.054l0.041,0.041l0.055,0.088l0.05,0.111l0.038,0.12l0.023,0.112l0.004,0.072  l-0.007,0.146l0.003,0.069l0.029,0.195v0.203l0.008,0.061l0.029,0.06l0.098,0.134l0.021,0.055l0.019,0.133l-0.004,0.138l0.021,0.118  l0.088,0.075l0.1,0.002l0.102-0.048l0.096-0.076l0.164-0.184l0.082-0.068l0.283-0.169l0.053-0.013l0.051,0.028l0.117,0.128  l0.045,0.029l0.102-0.005l0.158-0.185l0.1-0.051l0.28,0.068l0.087,0.061l0.055,0.016l0.043,0.026l-0.006,0.06l-0.082,0.181  l-0.016,0.05v0.051l0.021,0.063l0.063,0.102l0.063,0.079l0.047,0.093l0.015,0.141l-0.021,0.31l-0.025,0.171l-0.037,0.077  l-0.066,0.013l-0.035,0.017l-0.027,0.036l-0.041,0.072l-0.064,0.092l-0.019,0.05l0.003,0.073l0.049,0.127l0.074,0.085l0.174,0.12  l0.036,0.049l-0.003,0.053l-0.025,0.055l-0.1,0.14l-0.018,0.053l-0.006,0.081v0.205l-0.014,0.064l-0.013,0.027l-0.015,0.025  l-0.017,0.025l-0.008,0.038l0.001,0.032l0.004,0.035l0.003,0.033l-0.007,0.027l-0.162,0.172l-0.063,0.11l0.047,0.085l0.062,0.014  h0.062l0.056,0.015l0.047,0.059l0.021,0.063l0.02,0.201l0.03,0.074l0.044,0.035l0.216,0.071l0.103,0.069l0.16,0.145l0.145,0.182  l0.063,0.063l0.055,0.084l0.021,0.104l-0.025,0.117l-0.014,0.159l0.109,0.07l0.186,0.003l0.514,0.008l0.517,0.007l0.517,0.007  l0.515,0.01L33.8,88.28l0.515,0.007l0.517,0.007l0.519,0.009l0.184,0.004l0.273,0.116l0.387,0.169l0.41,0.18l0.623,0.02l0.469,0.152  l0.341,0.201l0.088,0.037l0.454,0.075l0.041,0.017l0.068,0.047l0.039,0.013l0.18,0.043l0.056,0.019l0.013,0.041v0.276L39,89.689  l0.045-0.039l0.04-0.049l0.03-0.061l0.011-0.068l-0.013-0.063l-0.028-0.063L38.8,88.885l-0.319-0.43l-0.269-0.5l-0.187-0.439  l-0.028-0.129l-0.252-0.479l-0.03-0.043l-0.038-0.021l-0.036,0.01l-0.099,0.054l-0.062,0.061l-0.188,0.134l-0.042,0.021h-0.046  v-0.021l0.103-0.103l0.006-0.044l-0.076-0.061l-0.282-0.102l-0.169-0.014l-0.489,0.115l0.052-0.03l0.112-0.041l0.104-0.093  l0.059-0.02l0.128-0.018l0.067-0.041l0.027-0.008l0.038-0.006l0.173,0.014l0.258,0.146l0.056,0.016l0.063,0.004l0.043-0.02  l0.073-0.101l0.05-0.033h0.062l0.049,0.024l0.04,0.008l0.043-0.043l0.02-0.063l-0.004-0.077l-0.018-0.076l-0.227-0.655l-0.039-0.162  l-0.017-0.153l-0.024-0.074l-0.058-0.129l-0.03-0.141l-0.021-0.305l-0.025-0.149l-0.021-0.067L37.3,84.529l-0.034-0.043l-0.035,0.02  l-0.037,0.039l-0.157,0.073l-0.073,0.073l-0.124,0.158l-0.067,0.067l0.047-0.129l0.097-0.106l0.2-0.162l0.131-0.197l0.087-0.055  l0.033-0.064l0.022-0.079l0.008-0.073l-0.014-0.255l-0.011-0.056l-0.005-0.061l0.018-0.082l0.045-0.142L37.514,83l0.053-0.139  l0.1-0.168l0.066-0.057l0.067-0.189l0.138-0.133l0.043-0.107l0.052-0.046l0.508-0.276l0.453-0.145l0.046-0.032l0.051-0.05  l0.042-0.063l0.019-0.064l-0.024-0.043l-0.054-0.047l-0.211-0.133l-0.051-0.047l-0.021-0.051l-0.007-0.066l-0.021-0.063  l-0.029-0.057l-0.039-0.045l-0.053-0.029l-0.053,0.003l-0.057,0.017l-0.381,0.006l-0.053-0.016l-0.029-0.002l-0.032,0.009  l-0.06,0.033l-0.08,0.021l-0.123,0.054l-0.051,0.006L37.71,81.08l-0.022,0.003l-0.012-0.002v-0.026l0.088-0.058l0.213-0.068  l0.305-0.028l0.113,0.039l0.058-0.024l0.056-0.034l0.055-0.02l0.076-0.055l-0.007-0.127l-0.048-0.145l-0.075-0.151l-0.021-0.125  l-0.014-0.055l-0.029-0.042l-0.145-0.1l0.047,0.006l0.055,0.022l0.054,0.036l0.042,0.042l0.027,0.06l0.059,0.219l0.027,0.063  l0.106,0.146l0.036,0.072l0.042,0.145l0.022,0.063l0.041,0.049l0.053,0.057l0.046,0.061l0.035,0.133l0.043,0.037l0.096,0.056  l0.058,0.097l0.021,0.024l0.031,0.01l0.3-0.033l0.47-0.269l0.328-0.313l0.078-0.1l0.035-0.034l0.012-0.016l0.016-0.047l0.035-0.075  l0.02-0.079l0.104-0.741v-0.146l0.008-0.041l0.021-0.082l0.015-0.1l0.067-0.188l0.022-0.146l0.01-0.155l0.007-0.063l0.103-0.329  l0.002-0.062l-0.033-0.051l-0.033-0.013l-0.02,0.019l-0.043,0.088l-0.092,0.281l-0.023,0.058l-0.041,0.028l-0.14,0.032l-0.048-0.002  l-0.041-0.021l0.003-0.021l0.054-0.055l0.016-0.038l0.025-0.091l0.021-0.041l0.038-0.021l0.085,0.028l0.033-0.009l0.018-0.042  l-0.015-0.033l-0.027-0.034l-0.022-0.033l0.15-0.181l0.016-0.032l0.01-0.035l0.013-0.026l0.043-0.021l0.017-0.02l0.015-0.03  l0.007-0.037l-0.011-0.069l-0.03-0.055l-0.013-0.055l0.028-0.073l0.019-0.03l0.017-0.062l0.014-0.026l0.494-0.619l0.086-0.074  l0.24-0.129l0.014-0.017l0.021-0.032l0.011-0.031l0.006-0.038l0.008-0.033l0.049-0.05l0.191-0.348l0.082-0.076l0.379-0.188  l0.059-0.043l0.064,0.002l0.028-0.009l0.054-0.049l0.043-0.057l0.039-0.043l0.084-0.062l0.146-0.208l0.043-0.041l0.042-0.027  l0.104-0.04l0.073-0.012l0.054-0.032l0.185-0.042l0.015-0.022l0.004-0.029l0.021-0.064l0.003-0.019l0.007-0.017l0.025-0.025  l0.057-0.023l0.194,0.023l-0.022-0.076l-0.011-0.061l0.014-0.059l0.045-0.076l0.036-0.041l0.276-0.213l0.047-0.016l0.039-0.023  l0.027-0.058l0.021-0.069l0.027-0.063l0.039-0.049l0.043-0.027l0.24-0.037l0.026,0.008l0.048,0.03l0.027,0.006l0.053-0.026  l-0.007-0.057l-0.042-0.053l-0.044-0.025l-0.015-0.018l-0.006-0.042l0.006-0.041l0.015-0.019l0.008-0.019l-0.021-0.037l-0.039-0.062  l-0.016-0.03l-0.015-0.038l0.003-0.034l0.129-0.039l0.036,0.003l0.134,0.068l0.063,0.014l0.071-0.035l-0.015-0.006l-0.021-0.015  l-0.016-0.004l0.031-0.054l0.018-0.017l-0.043-0.03l-0.121-0.056l-0.025-0.021l-0.047-0.221l-0.063-0.121l-0.088-0.048l-0.097,0.009  l-0.341,0.17l-0.123-0.002l-0.057,0.015l-0.175,0.103l-0.092,0.01l-0.108-0.039l0.033-0.008l0.178,0.008l0.051-0.016l0.146-0.104  l0.192-0.022l0.05-0.033l0.034-0.05l0.096-0.096l0.049-0.029l0.125-0.013l0.106,0.021l0.091-0.019l0.071-0.132l0.115-0.314  l0.07-0.193l0.028-0.121l0.046-0.489l0.021-0.188l-0.006-0.033l-0.064-0.133l-0.029-0.246l-0.018-0.058l-0.033-0.06l-0.021-0.021  L44.96,71.23l-0.021-0.021l-0.086-0.123l-0.045-0.041l-0.105-0.045l-0.087-0.084l-0.056-0.009l-0.059,0.013l-0.131,0.052  l-0.573-0.011l-0.028-0.019l-0.021-0.023l-0.023-0.02l-0.039-0.012L43.561,70.9l-0.037-0.01l-0.073-0.045l-0.038-0.015l-0.047,0.004  l-0.047,0.017l-0.049,0.004l-0.045-0.023l-0.113,0.044l-0.125-0.026l-0.217-0.131l-0.086-0.085l-0.136-0.209l-0.202-0.235  l-0.023-0.02l-0.018-0.012l-0.022-0.047L42.262,70.1H42.23l-0.025-0.007l-0.021-0.014l-0.023-0.022l-0.125-0.195l-0.018-0.045  l-0.023-0.045l-0.057-0.033l-0.107-0.047l-0.025-0.021L41.751,69.6l-0.067-0.059l-0.021-0.021l-0.038-0.035l-0.107-0.049  l-0.047-0.039l-0.091-0.115l-0.282-0.452l-0.054-0.121l-0.076-0.263l-0.11-0.521l-0.004-0.111l0.008-0.1l0.019-0.092l0.079-0.258  l0.036-0.064l0.067-0.05l-0.012-0.095l0.063-0.101l0.273-0.315l0.031-0.027l0.053-0.014l0.029-0.049l0.004-0.021l-0.02-0.013  l-0.008-0.014l-0.006-0.014l-0.003-0.014l0.007-0.042l0.014-0.021l0.016-0.017l0.01-0.032v-0.03L41.5,66.314l0.007-0.058  l0.019-0.065l0.025-0.063l0.025-0.048l0.031-0.038l0.108-0.099l0.093-0.041l0.039-0.055l0.129-0.267l0.067-0.091l0.015-0.031  l0.006-0.037l0.013-0.02l0.065-0.06l0.117-0.231l0.081-0.109l0.099-0.078l0.158-0.084l0.036-0.04l0.412-0.028l0.256,0.025  l0.046-0.008l0.035-0.064l-0.049-0.06l-0.073-0.052l-0.038-0.033l0.039-0.016l0.26,0.025l-0.041-0.036l-0.123-0.042l-0.024-0.044  l0.021-0.063l0.054-0.031l0.114-0.025l0.154-0.08l0.057-0.011l0.017-0.013l0.022-0.023l0.025-0.015l0.055,0.034l0.032-0.004  l0.034-0.012l0.025-0.014l0.033-0.037l0.09-0.134l0.025-0.029l0.196-0.02l0.228,0.045l0.049,0.021l0.071,0.096l0.044,0.039  l0.025,0.006l0.113-0.01l0.014-0.009l0.007-0.013l0.013-0.021l-0.004-0.004l0.002-0.023l0.014-0.025l0.027-0.012l0.027,0.002  l0.021,0.01l0.015,0.018l0.006,0.025l0.021,0.021l0.049,0.002l0.097-0.012l0.042,0.014l0.123,0.097l0.006-0.051l0.026-0.011  l0.085,0.017l0.041-0.015l0.021-0.037l0.004-0.043l-0.027-0.036l0.035-0.024l0.026-0.023l0.002-0.021l-0.034-0.019V63.97  l0.017-0.021l0.021-0.047l0.014-0.02l0.068-0.039l0.032-0.027l0.001-0.033l-0.038-0.038l-0.056-0.038l-0.102-0.047l-0.11-0.02  l-0.056-0.018l-0.047-0.039l-0.021-0.057l0.007-0.064l0.069-0.218l0.007-0.069l0.01-0.029l0.022-0.011l0.026-0.026l0.091-0.172  l0.021-0.021l0.154-0.1l0.021-0.012l0.024-0.007l0.054-0.03l0.062-0.016l0.021-0.016l0.035-0.043l0.004-0.018l-0.002-0.021  l0.005-0.02l0.019-0.009l0.021,0.007l0.039,0.031l0.018,0.008l0.06-0.006l0.059-0.016l-0.016-0.021l-0.021-0.015l-0.021-0.008  l-0.021-0.002l0.036-0.093l0.017-0.028l0.004-0.013l0.006-0.013l0.016-0.01l0.021,0.002l0.017,0.015l0.015,0.021l0.019,0.01  l0.026-0.004l0.041-0.016l0.026-0.005l0.013-0.011l-0.021-0.023l-0.083-0.061l-0.016-0.016l-0.012-0.023l-0.009-0.042l0.008-0.021  l0.011-0.019l0.006-0.039l0.174-0.118l0.025-0.043l0.021-0.059v-0.053l-0.038-0.023l-0.047-0.085l-0.008-0.013l-0.004-0.021  l-0.008-0.034l0.002-0.011l0.021-0.032l0.006-0.021l-0.003-0.021l-0.086-0.074l-0.034-0.059l0.023-0.104l0.004-0.075l0.007-0.017  l0.151-0.07l0.013-0.016l0.008-0.025l-0.006-0.016l-0.013-0.015l-0.004-0.021l0.008-0.061l0.039-0.092l0.017-0.057l-0.053-0.022  l0.002-0.063l0.051-0.133l-0.026,0.021l-0.041,0.022l-0.041,0.014l-0.033-0.01l-0.008-0.043l0.012-0.119l-0.012-0.047l-0.016-0.045  l-0.016-0.062l-0.018-0.054l-0.029-0.023l-0.021-0.025l0.001-0.061l0.014-0.064l0.014-0.043l-0.049-0.104l-0.012-0.048l-0.004-0.185  l0.008-0.028l0.031-0.047l0.008-0.033l0.086-0.16l0.028-0.018l0.122-0.11l0.039-0.054l0.086-0.162l0.188-0.195l0.043-0.028  l0.035-0.034l0.017-0.056l-0.011-0.065l-0.013-0.055l-0.003-0.056l0.025-0.07l0.039-0.017l0.047-0.033l0.044-0.044l0.071-0.095  l0.408-0.286l0.457-0.136l0.271-0.11l0.274-0.185l0.047-0.052l0.013-0.038l-0.029-0.082l-0.003-0.014l-0.027,0.004l-0.184,0.076  H48.15l-0.045-0.027l-0.021-0.019l-0.04-0.025l-0.033-0.04l-0.021-0.009l-0.023-0.003l-0.058,0.003l-0.06,0.017l-0.035,0.002  l-0.023-0.01l-0.055-0.027l-0.072-0.02l-0.043-0.031l-0.09-0.084l-0.078-0.053l-0.28-0.141l-0.146-0.045l-0.073-0.06l-0.093-0.024  l-0.034-0.043l-0.015-0.073l0.015-0.048l0.071-0.079l0.031-0.06l0.02-0.056l0.029-0.047l0.054-0.04l0.112-0.032l0.114-0.012  l0.043-0.019l0.042-0.039l0.1-0.142l0.019-0.015l0.024-0.018l0.082-0.018l0.059-0.051l0.053-0.028l0.057-0.021l0.166-0.028  l0.238,0.003l0.114,0.031l0.097,0.043l0.053,0.035l0.025,0.041l0.01,0.058l0.029,0.034l0.084,0.047l0.012,0.009l0.01,0.021  l0.011,0.012l0.034,0.015l0.012,0.009l0.051,0.045l0.016,0.027l-0.025,0.014l-0.027,0.022l-0.041,0.187l-0.015,0.039l-0.019,0.072  l-0.002,0.07l0.041,0.033l0.045,0.021l0.044,0.049l0.073,0.12l0.057,0.063l0.068,0.054l0.078,0.013l0.11-0.08l0.047-0.008h0.146  l0.47-0.107l0.147-0.07l0.117-0.157l-0.029-0.114l0.037-0.123l0.058-0.129l0.028-0.126l-0.03-0.526l0.007-0.25l-0.018-0.127  l-0.053-0.109l-0.074-0.068l-0.035-0.041l-0.016-0.05L49.878,55.3l-0.069-0.186l-0.053-0.089l-0.066-0.043l-0.086-0.01l-0.109,0.017  l-0.096,0.036l-0.233,0.172l-0.394,0.146l-0.33,0.047l-0.074,0.039l0.099,0.063l0.123,0.016l0.248-0.013l0.104,0.014l0.047,0.021  l0.021,0.037l0.005,0.029l0.022,0.06l0.004,0.038l-0.004,0.018l-0.013,0.01l-0.01,0.006l-0.006,0.008l0.002,0.021l0.012,0.016  l0.002,0.019l0.002,0.058l-0.004,0.02l-0.014,0.029l-0.066,0.063l-0.01,0.008l-0.023,0.05l-0.055,0.017l-0.431-0.031l-0.036,0.013  l-0.053,0.028l-0.051,0.017l-0.079,0.016l-0.077,0.001l-0.095-0.048l-0.185,0.016l-0.066-0.018l-0.018-0.025l0.021-0.095  l0.015-0.032l0.175-0.254l0.047-0.044l0.062-0.027l-0.006-0.022l-0.031-0.04l-0.024-0.021l-0.029-0.01l-0.063-0.005l-0.055,0.015  l-0.057,0.022l-0.053,0.008l-0.051-0.033l-0.045-0.039l-0.052-0.016h-0.114l-0.047-0.009l-0.059-0.022l-0.056-0.03l-0.036-0.031  l-0.02-0.012L47.262,55.3l-0.048,0.005l-0.03-0.008l-0.18-0.121l-0.085-0.084l-0.073-0.104l-0.147-0.33l-0.011-0.106l0.031-0.131  l0.098-0.219l0.041-0.134l0.004-0.108l-0.065-0.172l-0.024-0.108l0.021-0.087l0.032-0.061l0.028-0.095l0.021-0.102l0.004-0.089  l-0.035-0.093l-0.124-0.139l-0.027-0.093l-0.016-0.097l-0.058-0.172l-0.005-0.094l-0.092-0.358l-0.063-0.515l-0.003-0.123l0.01-0.07  l0.019-0.068l0.025-0.064l0.032-0.057l0.008-0.027l-0.001-0.066l0.01-0.027l0.021-0.026l0.185-0.146l0.029-0.034l0.04-0.02  l0.233,0.009l-0.024-0.028l-0.028-0.021l-0.011-0.025l0.032-0.046l-0.04-0.014l-0.075,0.021l-0.042-0.007l0.022-0.02l0.08-0.036  l0.127-0.016l0.216,0.052l0.058,0.041l-0.064,0.065l0.039,0.027l0.066,0.025l0.021,0.063l-0.023,0.021l-0.041,0.007l-0.138-0.005  l-0.002,0.006l-0.015,0.007l-0.018,0.007l-0.016,0.003l0.011-0.051l-0.042-0.01l-0.061,0.02l-0.041,0.031l0.002,0.045l0.059,0.021  l0.072,0.008l0.162-0.018l0.109,0.008l0.206,0.049l0.212,0.111l0.309,0.082l0.556,0.297l0.092,0.023l0.05-0.012l0.063-0.026  l0.053-0.014l0.022,0.022l-0.021,0.043l-0.009,0.03L49,51.784l0.021,0.014l0.098-0.003l0.102,0.046l0.229,0.224l0.097,0.051  l0.103,0.025l0.36,0.006l0.325-0.021l0.218,0.021l0.056-0.008l0.1-0.031l0.497,0.021l0.106-0.024l0.271-0.143l0.162-0.044  l0.034-0.041l0.061-0.05l0.025-0.034l0.021-0.006l0.057,0.009L52,51.794l0.049-0.01l0.047-0.022l0.041-0.039l0.039-0.029  l0.154-0.064l0.275-0.172l0.34-0.182l0.062-0.082l0.063-0.161l0.066-0.136l0.01-0.041l0.006-0.051l0.021-0.09l0.005-0.045  l0.018-0.038l0.082-0.062l0.027-0.035l-0.072,0.004l-0.071,0.027l-0.179,0.106l-0.018-0.011l-0.021-0.045l0.009-0.002l0.011-0.014  l0.005-0.025l-0.016-0.03l-0.015-0.021l-0.008-0.021l-0.005-0.023l0.003-0.028l0.023,0.017l0.033,0.055l0.014,0.011l0.107,0.021  l0.039-0.033v-0.076l-0.031-0.136l-0.045,0.038l-0.029-0.027l-0.025-0.049l-0.031-0.026l-0.01-0.016l0.002-0.07l-0.008-0.016  l-0.027-0.009l-0.076-0.052l-0.071-0.024l-0.021-0.017l-0.037-0.071l-0.002-0.013l-0.021-0.028l-0.034-0.177l-0.068-0.13  l-0.01-0.043l0.012-0.061l0.033-0.061l0.041-0.053l0.039-0.04l0.047-0.023l0.057-0.02l0.049-0.032l0.021-0.058l0.008-0.05  l0.035-0.123l0.004-0.063l-0.063-0.175l0.008-0.029l0.02-0.025l0.045-0.123l0.016-0.102l0.03-0.106l0.011-0.051l-0.004-0.074  l-0.006-0.038l0.014-0.024l0.059-0.026l-0.049-0.061l-0.01-0.03l0.01-0.032l0.099,0.082l0.052,0.03l0.172,0.029l0.01-0.013  l0.08-0.05l0.013,0.003l0.013-0.05l0.006-0.265l0.059-0.403l0.01-0.034l0.018-0.033l0.006-0.207l0.013-0.026l0.024-0.026  l0.012-0.032l-0.004-0.037L53.59,47.04l-0.013-0.014l-0.058-0.005l-0.111-0.03l-0.043-0.023l-0.096-0.091l-0.043-0.061l-0.02-0.062  l-0.012-0.026l-0.027-0.004l-0.029,0.004l-0.025-0.003l-0.018-0.02l-0.016-0.027l-0.008-0.028l-0.004-0.027l0.127-0.01l0.043,0.01  h0.012l0.008-0.007l0.01-0.003l0.02,0.01l0.012,0.013l0.012,0.032l0.01,0.017l0.041,0.062l0.133,0.116l0.046,0.025l0.017,0.012  l0.014,0.016l0.019,0.006l0.029-0.014l0.022-0.022l0.017-0.031l0.01-0.034l-0.001-0.036l-0.053-0.077l-0.096-0.071l-0.183-0.092  l-0.058-0.013L53.1,46.523l-0.054-0.012l-0.051-0.021l-0.021-0.031l0.032-0.037l0.06,0.031l0.027,0.009h0.036l-0.045-0.053  l-0.103-0.08l-0.039-0.048l-0.02-0.055l0.004-0.045l0.012-0.047l0.004-0.052l-0.012-0.025l-0.019-0.024l-0.015-0.021l0.004-0.021  l0.017-0.021l0.017-0.026l0.023-0.063l0.029-0.104l0.021-0.026l0.059-0.03l-0.008-0.042l0.014-0.046l0.016-0.037l0.001-0.016  l-0.073,0.017l-0.033,0.001l-0.024-0.018l-0.006-0.021l0.006-0.109l-0.011-0.038l-0.023-0.021l-0.031,0.001l-0.031,0.028  l0.013-0.051l-0.041-0.111l0.015-0.061l-0.021-0.026l0.023-0.049l0.049-0.032l0.053,0.018l0.037,0.021l0.369,0.029l0.035,0.022  l0.026,0.054l0.039,0.104l0.047,0.086l0.065,0.062l0.086,0.043l0.429,0.128l0.111,0.004l0.095-0.021l0.014-0.005l0.014-0.01  l0.016-0.007h0.018l0.016,0.009l0.021,0.027l0.043,0.011l0.029,0.028l0.36,0.053l0.032-0.017l0.023-0.021l0.148-0.049l0.207-0.003  l0.445,0.058l0.211-0.055l0.031-0.025l0.02-0.011l0.026-0.006l0.031,0.003l0.056,0.016l0.258,0.003l0.474-0.095l0.356-0.045  l0.361-0.063l1.042-0.2l0.16,0.008l0.052-0.008l0.375-0.158l1.305-0.264l0.078-0.034l0.07-0.018l0.131-0.087l0.48-0.168l0.373-0.087  l0.166-0.1l0.172-0.06l0.201-0.033l0.043-0.019l0.084-0.052l0.273-0.11l0.088-0.05l0.117-0.102l0.03-0.016l0.077-0.015l0.359-0.215  l0.164-0.122l0.238-0.138l0.211-0.149l0.081-0.092l0.054-0.107l0.004-0.033l-0.004-0.085l0.002-0.011l0.01-0.028l0.002-0.018  l-0.004-0.021l-0.021-0.033l-0.004-0.018l0.008-0.126l0.021-0.121l0.039-0.119l0.057-0.115l0.068-0.107l0.185-0.232l0.037-0.02  l0.026-0.025l0.092-0.153l0.246-0.225l0.082-0.092l0.25-0.352l0.084-0.188l0.299-0.531l0.226-0.353l0.237-0.315l0.04-0.096  l0.009-0.123l-0.007-0.325l-0.011-0.387l-0.008-0.068l-0.056-0.155l0.006-0.354l-0.043-0.052l-0.013-0.025l-0.03-0.114l-0.013-0.035  l-0.051-0.038l-0.03,0.01l-0.005,0.042l0.023,0.063l-0.15-0.008l-0.053,0.008l-0.101,0.043l-0.047,0.031l-0.042,0.041l-0.018-0.018  l0.041-0.042l-0.021-0.036l-0.051-0.026l-0.104-0.021l-0.236-0.144l-0.319-0.317l-0.031-0.057l-0.015-0.063l-0.008-0.012  l-0.045-0.046l-0.041-0.021l-0.008-0.025l-0.009-0.06l-0.06-0.157l-0.004-0.008l-0.01-0.028l-0.043-0.037l-0.01-0.031l-0.004-0.024  l-0.027-0.063l-0.018-0.107l-0.003-0.126l0.012-0.125l0.024-0.104l0.027-0.049l0.068-0.104l0.027-0.086l0.228-0.357l0.039-0.02  l0.043-0.047l0.068-0.105l0.053-0.112l0.015-0.097l-0.018-0.093l-0.05-0.102l-0.208-0.319l-0.037-0.022l-0.027-0.026l-0.08-0.156  l-0.039-0.043l-0.354-0.283l-0.03-0.037l-0.056-0.041l-0.234-0.122l-0.055-0.075l-0.352-0.239l-0.367-0.145l-0.158-0.108  l-0.086-0.043l-0.299-0.1l-0.094-0.051l-0.16-0.122l-0.075-0.084l-0.03-0.087l-0.016-0.057l-0.032-0.018l-0.095-0.01l-0.037-0.023  l-0.038-0.039l-0.031-0.046l-0.021-0.042v-0.026l0.002-0.057l-0.008-0.022l-0.076-0.061l-0.012-0.015l-0.014-0.096l0.005-0.014  l0.05-0.042l0.006-0.018l0.027-0.126l-0.004-0.022l-0.021-0.034L61.689,32.4l-0.133-0.077l0.026-0.007l0.015-0.017l0.008-0.02  l0.014-0.014l0.085,0.004l0.019,0.006l0.041,0.018l0.045-0.013l0.045-0.033l0.035-0.04l0.01-0.019l0.013-0.038l0.01-0.021  l0.076-0.083l-0.006-0.031l-0.021-0.049l-0.006-0.015l0.003-0.033l0.016-0.087v-0.12l-0.006-0.055l-0.021-0.042L61.939,31.6  l-0.056-0.028l-0.021-0.004l-0.025-0.011l0.002-0.025l0.012-0.031l0.006-0.029l-0.029-0.151l-0.01-0.125l-0.012-0.053l-0.02-0.047  l-0.125-0.177l-0.038-0.09l-0.021-0.109v-0.061l0.021-0.203l0.022-0.054l0.006-0.028l-0.019-0.123l0.009-0.109l0.024-0.122  l0.035-0.118l0.042-0.099l0.064-0.094l0.045-0.052l0.041-0.022l0.021-0.026l-0.011-0.063l-0.036-0.117l0.002-0.053l0.024-0.122  l0.004-0.059l0.006-0.027l0.011-0.028l-0.001-0.021l-0.044-0.02l0.005-0.023l0.016-0.025l0.01-0.014l0.082-0.035l0.326,0.053h0.027  l0.057-0.009l0.024-0.009l0.085-0.075l0.021-0.029l-0.006-0.068l-0.023-0.124l0.009-0.058l0.034-0.106l0.007-0.051l-0.013-0.04  l-0.059-0.1l-0.022-0.054l-0.032-0.278l-0.042-0.185l-0.026-0.333l0.008-0.12l0.045-0.121l0.021-0.031l0.06-0.119l0.145-0.21  l0.012-0.082l-0.022-0.079l-0.157-0.209l-0.025-0.057l0.014-0.056l0.05-0.083l0.024-0.103l0.006-0.121l-0.006-0.115l-0.024-0.083  l-0.071-0.082l-0.027-0.054l0.016-0.056l0.063-0.071l0.037-0.028l0.049-0.021l0.109-0.022l0.055-0.022l0.022-0.039l0.14-0.413  l0.021-0.117l-0.018-0.119l-0.063-0.077l-0.086-0.066l-0.057-0.068l0.029-0.083l0.044-0.038l0.087-0.051l0.035-0.032l0.021-0.05  l0.011-0.121l0.021-0.054l0.018-0.018l0.037-0.029l0.018-0.019l0.047-0.1l0.022-0.03v-0.069l-0.017-0.118l0.029-0.118l0.059-0.089  l0.041-0.09l-0.018-0.124l-0.096-0.142l-0.016-0.031l0.018-0.047l0.043-0.029l0.098-0.025l0.053,0.005l0.028-0.009l0.013-0.041  l0.015-0.063l0.001-0.028l-0.001-0.111l-0.015-0.112l-0.037-0.162l-0.02-0.06l-0.052-0.109l-0.032-0.052L63.12,22.34l-0.011-0.103  l0.029-0.096l0.063-0.078l0.45-0.413l0.049-0.083l0.018-0.103l-0.031-0.114l-0.011-0.057l0.021-0.026l0.05-0.001l0.098-0.017  l0.048-0.017l0.096-0.068l0.218-0.275l0.196-0.154l0.017-0.041l0.022-0.307l0.037-0.087l0.067-0.06l0.099-0.038l0.097-0.014  l0.102-0.002l0.048-0.015l0.041-0.038l0.168-0.179l0.019-0.027l0.01-0.027l0.067-0.072l0.031-0.091l0.032-0.037l0.091-0.074  l0.018-0.022l0.017-0.037l0.179-0.16l0.01-0.021l0.004-0.025l0.013-0.034l0.019-0.028l0.037-0.021l0.004-0.023l-0.002-0.029  L65.65,19.2l0.014-0.023l0.012-0.02l0.018-0.017l0.021-0.014l0.08-0.042l0.027-0.019l0.039-0.038l0.027-0.043l0.037-0.11  l0.023-0.051L65.938,18.8l0.002-0.038l0.015-0.038l0.015-0.034l0.063-0.092l0.074-0.074l0.082-0.058l0.08-0.043l0.157-0.041  l0.038-0.021l0.027-0.049l0.009-0.051l0.002-0.105l0.045-0.101l0.156-0.094l0.051-0.09l0.015-0.223l0.021-0.042l0.047-0.021  l0.106-0.021l0.078-0.051l0.188-0.249l0.143-0.102l0.043-0.061l0.004-0.102l-0.006-0.047l0.004-0.046l0.022-0.036l0.073-0.02  l0.063-0.032l0.074-0.009l0.02-0.006l0.02-0.014l0.01-0.012l0.004-0.018v-0.122l-0.01-0.021l-0.012-0.053l0.042-0.038l0.103-0.044  l0.069,0.018l0.095,0.011l0.083,0.022l0.036,0.047l0.01,0.053l0.021,0.008l0.026-0.019l0.022-0.032l0.017-0.036l0.03-0.122  l-0.03-0.064l-0.022-0.03l-0.033-0.014l-0.028-0.009l-0.093-0.042l-0.028-0.021l-0.014-0.065l0.059-0.043l0.146-0.049l0.097-0.092  l0.021-0.015l0.02-0.022l0.018-0.043l0.027-0.032l0.053,0.012l0.007,0.015l-0.001,0.024l0.004,0.021l0.027,0.009l0.026-0.006  l0.009-0.014l0.004-0.021l0.01-0.021l0.015-0.012l0.029-0.022l0.011-0.01l0.023-0.058l0.009-0.014l0.03-0.012l0.015,0.008  l0.009,0.015l0.016,0.009l0.025-0.003l0.057-0.017l0.012-0.021l0.104-0.12l0.014-0.026l0.004-0.014v-0.056l0.002-0.021l0.012-0.015  l0.018-0.005l0.022-0.001l0.048-0.018l0.012-0.043l0.008-0.047l0.035-0.035l0.028-0.002l0.048,0.018l0.025,0.004l0.021-0.009  l0.084-0.065l0.024-0.043l0.034-0.043l0.046-0.018l0.037,0.012l0.049,0.047l0.046,0.011l0.02-0.072l0.006-0.015l0.021-0.008h0.052  l0.023-0.011l0.05,0.029h0.036l0.01-0.026l-0.033-0.054l-0.071-0.064l-0.021-0.042L69.588,15l0.045,0.01l0.039,0.021l0.041,0.014  l0.057-0.008l0.119-0.107l0.045-0.018l0.016-0.025l0.011-0.059l0.013-0.111l-0.004-0.096l0.021-0.009l0.056,0.001l0.046-0.023  l0.021-0.054l0.006-0.065l0.015-0.052l0.021-0.023l0.031-0.025l0.028-0.008l0.015,0.029l-0.004,0.011l-0.009,0.014l-0.005,0.013  l0.01,0.006l0.004,0.004l0.016,0.018l0.003,0.006l0.015,0.004l0.096-0.032h0.022l0.052,0.004l0.021-0.004l0.021-0.013l0.01-0.011  l0.002-0.02v-0.035l0.006-0.028l0.018-0.016l0.016-0.002l0.008,0.011l0.013,0.047l0.026,0.002l0.029-0.029l0.025-0.049l0.014-0.046  l0.01-0.027l0.016-0.022l0.02-0.017l0.016-0.001l0.011,0.006l0.019,0.004l0.008,0.01l0.022,0.047l0.009,0.013l0.023,0.011h0.021  l0.147-0.043L70.99,14.2l0.001-0.035l-0.038-0.057l0.008-0.028l0.037-0.008l0.092-0.004l0.036,0.009l0.022,0.029l0.009,0.059  l0.009,0.022l0.018-0.001l0.021-0.02l0.017-0.027l0.004-0.023l-0.004-0.083l0.03,0.031l0.028,0.035l0.035,0.023l0.045-0.001  l0.011-0.009l0.017-0.021l0.016-0.025l0.006-0.022l0.011-0.024l0.022-0.008l0.026-0.004L71.484,14l0.007-0.022l-0.007-0.051  l0.011-0.022l0.012-0.017l0.011-0.018l0.065-0.176l0.026-0.044l0.029,0.019l0.021,0.018l-0.005,0.056l0.068,0.023l0.082-0.009  l0.17-0.187l0.017-0.047l0.013-0.014l0.018-0.003l0.013,0.006l0.009,0.01l0.016,0.004l0.047-0.01l0.002-0.028l-0.014-0.035  L72.1,13.42l0.03-0.017l0.028,0.02l0.029,0.028l0.037,0.005l0.021-0.025l0.021-0.08l0.021-0.018l0.03,0.015l0.024,0.039l0.021,0.042  l0.017,0.015l0.026-0.017l0.025-0.044v-0.021l-0.021-0.025v-0.018l0.009-0.014l0.033-0.021l0.011-0.017l0.004-0.035l-0.004-0.074  l0.011-0.033l0.012-0.008l0.035-0.004l0.017-0.01l0.011-0.015l0.102-0.214l0.026-0.091l0.003-0.078l-0.025-0.151l-0.025-0.094  l-0.009-0.004l-0.027-0.003l-0.007-0.004l-0.003-0.026l0.015-0.035v-0.026l-0.012-0.007l-0.02-0.008l-0.021-0.015L72.533,12.3  l0.006-0.028l0.02-0.007l0.021-0.002l0.018-0.015l0.017-0.046l0.004-0.047l-0.013-0.096l0.002-0.048l0.029-0.088l0.006-0.044  l-0.004,0.008l-0.01-0.015l-0.007-0.026l-0.005-0.025l0.008-0.019l0.016-0.018l0.034-0.028v-0.078l-0.026-0.238l0.02-0.075  L72.764,11.225z M46.148,98.313l-0.16,0.072l-0.063,0.001l-0.115-0.018l-0.553,0.086L45.1,98.408l-0.174-0.014L44.9,98.384  l-0.078-0.069l-0.031-0.008l-0.063-0.009l-0.033-0.01l-0.784-0.396l-0.2-0.189l-0.05-0.026l-0.067-0.009l-0.025-0.012l-0.062-0.072  l-0.026-0.018l-0.082-0.035l-0.1-0.075l-0.335-0.472L42.865,96.9l-0.393-0.215l-0.056-0.01l-0.05-0.023l-0.146-0.161l-0.619-0.421  l-0.627-0.564l-0.027-0.058l-0.01-0.093l-0.002-0.102l-0.011-0.061l-0.028-0.041l-0.135-0.118l-0.022-0.011l-0.063,0.019  l-0.025-0.001l-0.012-0.031l-0.015-0.078l-0.034-0.059l-0.559-0.553l-0.02-0.049l-0.018-0.07l-0.11-0.182l-0.018-0.076l-0.025-0.178  l-0.026-0.072l-0.01-0.031L39.79,93.52l-0.011-0.043l-0.114-0.273l-0.042-0.071l-0.051-0.03l-0.396,0.061l-0.129-0.021l-0.119-0.052  l-0.109-0.088l-0.066-0.103l-0.048-0.141l-0.001-0.146l0.07-0.137l0.219-0.211l0.109-0.201l0.047-0.035l0.066-0.031l0.066-0.008  l0.048,0.033l0.022,0.063l0.063,0.271l0.025,0.08l0.025,0.039l0.012-0.061l-0.009-0.057l-0.086-0.406l-0.044-0.141l-0.059-0.119  l-0.07-0.099l-0.156-0.142l-0.041-0.053l-0.146-0.271l-0.148-0.22l-0.02-0.036l-0.045-0.121l-0.021-0.032l-0.077-0.056l-0.002,1.011  l-0.003,0.318v0.013l-0.003,0.686l-0.004,1.022l-0.004,1.028l-0.005,1.037l-0.005,1.043l-0.004,1.05l-0.004,1.058l0.016,0.008  l0.093,0.105l0.071,0.109l0.042,0.037l0.06,0.016l0.438-0.038l0.03-0.04l0.008-0.033l-0.01-0.09l0.03-0.036l0.069,0.026l0.121,0.078  l0.219,0.021l0.105,0.088l0.332,0.064l0.604,0.07l0.29-0.022l0.478,0.069l0.689,0.054l0.193,0.093l0.264,0.03l0.064,0.024  l0.201,0.149l0.039,0.045l0.039,0.062l0.047,0.055l0.061,0.035l0.418,0.09l0.059-0.023l0.034-0.056l0.021-0.071l0.028-0.068  l0.108-0.073l0.47,0.019l0.06-0.021l0.125-0.072l0.112-0.034l0.079-0.104l0.049-0.041l-0.011-0.021l-0.019-0.062l0.492,0.005  l0.039,0.021l0.014,0.016l0.014,0.02l0.012,0.021l0.01,0.023l0.002,0.032l-0.006,0.058l0.004,0.02l0.024,0.053l0.03,0.031  l0.037,0.01l0.048-0.011l0.032-0.028l0.016-0.037l0.009-0.039l0.021-0.035l0.078-0.022l0.186,0.021l0.053-0.074l-0.02-0.079  l0.052-0.04l0.078-0.001l0.062,0.039l0.016,0.048l-0.004,0.045l0.009,0.032l0.051,0.013l0.028-0.007l0.031-0.021l0.028-0.031  l0.06-0.244l0.02-0.025l0.074-0.068l0.051-0.029l-0.003-0.037L46.284,99l-0.003-0.038l0.017-0.028l0.078-0.074l-0.01-0.021  l-0.013-0.04l-0.011-0.021l0.07-0.211l0.017-0.035l0.038-0.024l0.044-0.057l0.02-0.056l-0.03-0.024L46.148,98.313z"/></svg>