<svg xmlns="http://www.w3.org/2000/svg" xmlns:xlink="http://www.w3.org/1999/xlink" version="1.1" x="0px" y="0px" viewBox="-461 335 100 100" fill="#e0e0e0" style="enable-background:new -461 335 100 100;" xml:space="preserve"><path d="M-415.3,409.9l-0.8-1.2l-0.8-0.4l-1.2,0.4l-1.3-1.4V407l-1.7-1.4l-0.8-0.4l-1.2,0l-2.3-1.2h-0.8l-1.2-0.9l-0.8-0.8l-1.2,0  l-0.4,0.4l0.1,0.5l1,1.1l0.8,0.4l0.4-0.1l0.4,0.3h0.7l0.4,0.4h0.8l1.2,0.8h0.8l1.5,0.8l2.7,2.7l2.3,1.2l1.1,0l0.4,0.4l0.6-0.6  l-0.6-0.6H-415.3z M-385.5,427.9l-1.1-1.2h-0.8l-0.4-0.4l-0.2,1l4,2.5l1-0.2l-1.3-1.4L-385.5,427.9z M-430.6,400.7l-1.2-0.4  l-1.5-1.6h-0.4l-0.3-0.8l-0.4,0l0-0.4l-1.9-1.9l-0.4-0.1l-2.2-2.3l-0.6,0.1l-2.1-3.6l-0.8,0.8l0,0.4l0.4,0.4v0.8l1.5,1.5l0.4,0v0.8  l0.7,0.4l0.2,0.7l1.3,0.5l0,0.4l0.9,0.4l1.8,1.9l0.1,0.5l0.7,0.4l0.3,0.8l1.2,0.8l2.3,1.1l0.8,0l0.4-0.4L-430.6,400.7z   M-365.8,432.8l0.4-1.2l-1.5-2.4l0-0.8l-0.4-0.4l0-1.9l-0.8-0.8l0-2.3l-0.8-1.2l0-2l-0.7-1.2l-0.4-2l-0.4-0.4v-1.6l-1.1-2.3v-1.2  l-1.2-1.2l0-2.8l-0.8-1.6l-0.4-2.7l-1.7-2.2l-2.3,0l-0.8-0.4l-1.3-1.4l-0.4-1.2l-1.3-1.4l-0.6-0.2v-0.8l-1-1l-0.4,0l-0.6-0.6v-0.8  l-2.9-1.8l-0.8-1.2h-0.7l-1.2-1.9l-0.8,0l-0.2-1l-0.6-0.2l-0.2-0.6l-1.5-1.2v-0.8l-1.2-1.2v-0.7l0.4-0.4l-0.2-1h-0.8l-0.8-0.8  l-0.8,0l-1.9-1.9l-0.4,0l-0.6-1.4l-0.6-0.2l-1.3-1.4v-0.4l-1.7-1l-1.1,0.8l-1.9,0l-0.4,0.4l-0.6-0.2l0-0.8l-0.8-0.8l0.4-1.2  l-0.6-0.6l-0.8,0l-0.8-0.8h-0.8l-1.5-1.6h-0.4l-0.4-0.4h-1.1l-0.4-0.8l-1.9-0.8l-0.8-0.8h-0.8l-0.2-0.6l-0.6-0.2l-0.4-0.4l-1.5,0.4  l-2.5-2.5v-0.4l-2.1-2.2h-0.4l-2.3-2l-4.5-5.1l-0.6-0.1l-1-1l-0.8-2.3l-0.7-1.1l0-0.8l-1.1-2l-1.3-1.3l-0.4,0l-2.2-1.6l-0.8-0.1  l-0.4,0.5l0-0.8l-1.4-1.6l-1-0.1l-0.6-0.6l-1.3-0.5l-1.8-1.9h-0.4l0-1.2l-0.7-0.8l-1.2,0l-0.7-0.7l-2.4-0.9l-0.7,0.5l0,0.8l-1.4,2.3  l3,2.7l0,0.8l0.3,0.5v1.6l0.4,0.4l0.8,3.6l0.3,0.5v1l1.5,3.2l0,1.1l0.4,0.5l-0.1,2.6l-0.3,0.4l0,1.2l-0.7,1.2l-0.1,1.2l-3,2.6  l-0.4,0.9l-0.1,1.6l-0.8,3.2l-2.6,3.1l-0.8,1.6l0,2.3l0.7,0.8l1.6,0.4l1.1,0.8l0,0.9l1.9,1.5l0,0.5l0.7,0.4l1.2,1.5l0.6,0.2l0.5,0.6  l0.9-0.1l0.6,0.3l-0.4,0.5l1.6,1.1l0.8-0.4l0.7,0.4l1.1,1.8l0.6,0.2l1.4,1.4l0.9,3.1l0.7,0.7l0.8,0.1l0.3,0.4l0.4-0.3l1,1.1l1.2,0.1  l3.1,3.2l1,0.4l-0.4,0.4l0,0.8l2.3,2.3h1.6l0.7,1.1l1.6,1.1h0.7l1.2-1.2l1.9,1.6h0.4l0.7,0.8l0.8,0l0.7,0.8h0.4l1.9,2h0.4l0.9,1v0.4  l2.1,1.7h0.8v1.2l2.6,0.8l2.5,2.2v1.2l0.6,1h0.4l0.4,0.8l0.8,0.4l1.1,0l0.4,0.8h0.4l0.8,0.8h0.8l1.5,0.8l0.7,0.8l1.5,0l0.4,0.4h0.8  l0.4,0.4l3.4,0l0.4,0.4l1.2,0l0.6,0.6v1.2l-1,0.6l-3.8-2.4h-1.5l-1.5-0.8l-1.2,0l-0.8-0.8l-1.1-0.4l-0.4-0.4h-0.8l-0.8-0.8h-0.8  l-0.2,0.2l1,1l1.1,0.4l1.5,1.2h0.8l1.5,0.8l2.6,0.4l1.5,0.8l0.8,0.8l1.2,0.4l0.4,0.4l0.8,0l1.5,1.2l1.5,0l1.1-0.8l0.8,0.4l1.9,0  l1.2,1.1h0.4l0.8,1.2l1.9,0l1.5,1.2l1.5,0.4l1.1,1.2l1.5,0.8l0.6,0.6l-0.4,2l0.6,0.6h0.8l0.4-0.8h0.8l0.4,0.4l2.7,0.4l0.8-1.2h0.8  l0.4-0.4l0.8,0.4l0.9-0.2L-365.8,432.8z M-381.6,429.9l-0.6,0.2v0.4l1.3,1h0.4l0.4,0.8l0.6-0.2l-0.6-1.4L-381.6,429.9z"/></svg>