<svg xmlns="http://www.w3.org/2000/svg" xmlns:xlink="http://www.w3.org/1999/xlink" version="1.1" x="0px" y="0px" viewBox="-345 257 100 100" fill="#999999" style="enable-background:new -345 257 100 100;" xml:space="preserve"><polygon points="-245,301.3 -245.3,301 -245.7,300.8 -246,300.7 -246,300.4 -246.1,300.2 -246.2,300.2 -246.1,299.8 -246,299.6   -245.9,299.5 -246.1,299.3 -246.3,298.8 -246.5,298.7 -246.7,298.7 -246.8,298.6 -247.2,298.2 -247.3,297.9 -247.3,297.5   -247.3,297.1 -247.5,296.4 -247.5,296.3 -247.5,296.1 -247.5,296 -247.6,296 -247.7,295.9 -247.8,295.8 -247.9,295.7 -248,295.7   -248.1,295.6 -248.1,295.5 -248.1,295.4 -248.2,295.3 -248.2,295.2 -248.3,295.2 -248.3,295.1 -248.2,295 -248.2,294.9   -248.2,294.7 -248.4,294.6 -248.5,294.5 -248.6,294.4 -248.8,294.4 -248.9,294.3 -249,294.2 -249,294 -249,293.9 -248.9,293.8   -248.9,293.7 -248.8,292.7 -248.7,292.4 -248.6,292.1 -248.2,291.6 -248.2,291.4 -248.1,291.2 -247.9,291 -247.6,290.8   -247.5,290.4 -247.7,289.5 -248.1,289 -248.3,287.7 -248.6,287.2 -248.8,287.2 -249.3,287.4 -249.6,287.4 -249.8,287.3 -250.3,287   -250.5,286.9 -251,287 -251.2,286.9 -251.4,286.8 -251.5,286.6 -251.5,286.3 -251.6,286 -251.9,285.9 -252.1,285.9 -252.9,285.7   -253.1,285.5 -253.2,285.5 -253.4,285.5 -253.6,285.6 -253.7,285.6 -254.1,285.6 -254.3,285.7 -255,286.9 -255.1,287 -255.4,287.1   -255.4,287 -255.6,286.9 -255.9,286.9 -255.9,286.9 -257.7,286.7 -258.9,286.7 -259.6,286.4 -260.9,285.5 -261,285.4 -261,285.3   -261,285.2 -261.3,285.2 -261.3,285 -261.4,284.9 -261.5,284.9 -261.7,285 -261.5,284.8 -261.7,284.8 -261.8,284.7 -261.9,284.6   -262.2,284.6 -262.2,284.6 -262.3,284.5 -262.4,284.2 -262.4,284.2 -262.8,284.2 -262.9,284.2 -263.4,284.5 -263.6,284.5   -263.9,284.5 -264.2,284.5 -265.3,283.9 -266.3,283.5 -267,282.9 -267.3,282.7 -267.8,282.5 -268.5,282.2 -268.8,282.1   -269.4,282.1 -269.4,282.1 -269.5,282 -269.6,281.9 -269.7,281.9 -269.7,282 -269.8,282.3 -269.8,282.4 -270,282.6 -270,282.6   -271,282.9 -271.3,282.9 -271.2,282.6 -271.2,282.3 -271.3,282.1 -271.4,281.8 -272.4,281.7 -273.1,281.4 -273.4,281.5   -273.4,281.5 -273.5,281.6 -273.5,281.7 -273.5,281.8 -273.6,282.2 -273.6,282.8 -273.6,283.4 -273.6,283.9 -273.9,285.2   -274,285.4 -274,285.6 -274,285.7 -273.9,285.8 -273.8,286 -273.8,286 -274,286.4 -274.2,286.4 -274.9,286.1 -275.6,286   -275.8,286.1 -275.9,286.3 -275.9,286.5 -276,286.7 -276.1,287.1 -276.8,287.7 -277,288.1 -277.1,288.7 -277.1,289.3 -277.2,289.8   -277.4,290 -277.6,290 -277.7,289.9 -277.8,289.7 -278,289.5 -278,289.5 -278.2,289.6 -278.3,289.6 -278.4,289.5 -278.4,289.4   -278.4,289.2 -278.5,289.2 -278.7,289.2 -279.1,289.4 -279.3,289.4 -279.4,289.4 -280,289.1 -280.3,288.7 -280.5,288.9   -280.8,289.6 -281,289.8 -281.6,290.1 -281.9,290.4 -282,290.4 -282.1,290.4 -283.4,289.9 -285.3,289.7 -285.7,289.6 -285.8,289.5   -286.1,289.2 -286.1,289.1 -286.2,288.8 -286.2,288.7 -286.1,288.7 -286,288.5 -286,288.5 -285.9,288.5 -285.8,288.5 -285.8,288.4   -285.9,288.2 -285.9,288.2 -286,288.2 -286.1,288.1 -286.2,287.9 -286.4,287.6 -286.5,287.5 -287.4,287 -287.7,286.7 -287.9,286.6   -288.2,286.4 -288.7,286.3 -289.1,287.1 -289.1,287.3 -289,287.3 -288.9,287.5 -288.8,287.6 -288.7,287.7 -288.9,287.9   -288.9,288.1 -288.8,288.7 -288.8,289.1 -288.9,289.3 -289,289.6 -289.2,290.1 -289.2,290.2 -289.3,290.3 -289.4,290.3   -289.7,290.4 -289.8,290.4 -289.9,290.6 -290,291.1 -290,291.1 -290.6,290.9 -290.8,290.5 -291,290.4 -291.2,290.3 -292.6,289.9   -293,289.9 -293.4,290.1 -293.5,290.2 -293.6,290.3 -293.6,290.4 -293.6,290.5 -293.5,290.9 -293.4,291.1 -293.4,291.2   -293.4,291.4 -293.6,291.8 -293.6,292 -293.7,292.2 -293.6,292.7 -293.7,292.9 -293.7,293.1 -293.8,293.2 -293.8,293.3   -293.9,293.7 -294.1,294 -295.4,295.1 -295.8,295.4 -297.6,295.7 -299,296.2 -299.2,296.4 -299.7,296.8 -300.1,297.1 -300.3,297.2   -300.3,297.3 -301,297.4 -301.2,297.5 -301.3,297.6 -301.5,298 -301.7,298.2 -302.2,298.6 -302.3,298.7 -302.5,298.9 -302.6,299   -302.6,299 -302.7,299 -302.8,299.2 -302.8,299.4 -302.8,299.7 -302.7,299.9 -302.5,300.1 -301.6,301.1 -301.4,301.5 -301.4,301.7   -301.3,301.9 -301.2,302.1 -300.9,302.3 -300.6,302.6 -300.5,302.6 -300.3,302.8 -299.8,303.9 -299.6,304.3 -299.5,304.4   -300.3,305.7 -300.4,305.9 -300.4,306 -300.5,306.1 -300.5,306.2 -300.6,306.4 -300.6,306.4 -300.6,306.4 -300.8,306.8 -300.6,307   -299.9,307.1 -299.7,307.1 -299.3,306.9 -299.1,307 -299,307.1 -298.8,307.3 -298.5,307.7 -298.4,308 -298.4,308.2 -298.4,308.5   -298.4,308.7 -298.5,308.8 -298.6,309.1 -298.6,309.2 -298.9,309.5 -298.9,309.5 -298.9,309.9 -298.8,309.9 -298.9,309.9   -299,310.2 -299,310.3 -299,310.6 -299,310.7 -299,310.8 -298.9,310.9 -298.9,311.1 -298.9,311.2 -299.3,311.7 -299.4,311.7   -299.5,311.8 -299.6,311.7 -299.7,311.6 -299.8,311.6 -299.9,311.6 -300,311.6 -300.1,311.7 -300.3,311.6 -300.9,311.1   -301.5,310.5 -301.6,310.4 -301.8,310.3 -302,310.3 -302.3,310 -302.4,309.6 -302.2,309.1 -301.8,308.9 -302.1,308.7 -302.4,308.4   -302.6,308.2 -302.5,307.9 -302.7,307.9 -303.5,307.7 -303.9,307.7 -304.4,307.8 -304.7,307.9 -305.2,308.5 -305.4,308.5   -305.7,308.6 -306,308.6 -306.2,308.5 -306.6,308.2 -306.7,308.1 -306.7,307.9 -306.9,307.5 -306.9,307.4 -307.2,307.3   -307.7,307.5 -307.9,307.6 -308.6,307.4 -308.9,307.4 -309.2,307.6 -309.4,307.6 -309.5,307.5 -309.6,307.3 -309.5,307.2   -309.4,307 -309.4,306.9 -309.4,306.7 -309.3,306.6 -309.4,306.6 -309.5,306.7 -309.7,306.8 -310,307 -310.2,307.1 -310.2,307.3   -310.1,307.4 -310,307.5 -309.9,307.6 -309.8,307.6 -309.8,307.7 -309.8,308.3 -309.8,308.4 -309.8,308.6 -310.2,309.1   -310.3,309.1 -313.3,308.9 -314.4,309.2 -314.6,309.3 -314.7,309.6 -314.9,309.6 -315.6,309.5 -316.7,309.5 -317.2,309.4   -317.5,309.4 -317.5,309.4 -317.9,309.7 -318,309.9 -318.1,310.4 -318.1,310.6 -318.4,310.8 -318.7,310.9 -319.3,311 -319.6,310.9   -319.9,310.9 -320.2,311 -320.8,311.7 -320.7,311.7 -320.5,311.8 -320.5,312 -320.6,312.2 -320.8,312.2 -321.4,312.3 -321.6,312.3   -321.9,312.6 -322,312.8 -322.2,313 -322.5,313.1 -322.8,313.1 -322.8,312.6 -323.1,312.5 -323.4,312.6 -324.3,313.1 -324.5,313.2   -325.9,313.2 -326.1,313.1 -326.2,312.8 -326.2,312.8 -326.1,312.7 -326.1,312.6 -326.1,312.5 -326.1,312.4 -326.8,311.7   -327.5,311.4 -327.6,311.2 -327.1,310.9 -327,310.8 -327.3,310.6 -327.5,310.5 -327.6,310.5 -327.8,310.5 -328.4,310.8   -328.7,310.8 -328.9,310.8 -328.9,310.7 -329,310.6 -329,310.5 -330.8,309.9 -331.1,309.9 -331.2,310 -331.5,310.4 -331.7,310.5   -331.8,310.5 -332.4,310.5 -332.6,310.4 -332.7,310.3 -332.8,310.2 -332.8,310 -332.8,309.9 -332.7,309.8 -332.7,309.7   -332.7,309.6 -332.8,309.5 -332.9,309.6 -333.1,309.6 -333.3,309.7 -333.3,309.8 -333.2,310.1 -333.1,310.3 -333.1,310.5   -333.2,311.2 -333,311.3 -332.9,311.4 -332.9,311.6 -332.8,311.9 -332.8,312.3 -332.9,312.7 -333.1,313.1 -333.3,313.4   -333.4,313.5 -333.7,313.6 -333.8,313.7 -333.9,313.8 -334.2,314.4 -334.5,314.7 -334.7,314.9 -335.3,315.3 -335.6,315.4   -336.6,315.5 -336.7,315.5 -336.6,315.4 -336.5,315.1 -336.5,315.1 -336.3,315 -336.2,315 -336.2,314.9 -336.2,314.7 -336.2,314.6   -336,313.9 -336,313.6 -336.2,313.4 -336.8,313.5 -337,313.7 -337,313.7 -337.1,313.7 -337.2,313.7 -337.3,313.7 -337.4,313.7   -337.5,313.8 -337.6,313.8 -337.8,313.7 -337.8,313.5 -337.8,313.3 -337.9,313.1 -338,312.9 -337.7,312.7 -337.7,312.5   -337.8,312.3 -338.4,311.3 -338.6,311.4 -338.7,311.5 -338.8,311.5 -339,311.5 -339,311.3 -339,311.3 -339,311.2 -339.1,311   -339.3,310.8 -339.4,310.6 -339.4,310.3 -339.6,310.4 -339.8,310.5 -340.2,310.4 -340.6,310.3 -340.6,310.3 -340.8,310.4   -340.9,310.4 -341.2,310.3 -341.2,310.1 -341.2,309.8 -341.2,309.6 -341.4,309.4 -341.6,309.4 -341.8,309.4 -342,309.5   -342.2,309.8 -342.4,310.2 -342.6,310.5 -343,310.7 -343.8,310.7 -344.6,310.4 -344.7,310.4 -344.7,310.4 -344.6,310.9   -344.2,311.5 -343.7,311.7 -343.3,312 -343.3,312.8 -343.4,313.1 -344,313.8 -344,313.9 -344.1,314.3 -344.1,314.4 -344.6,315   -345,315.7 -344.9,315.8 -344.7,316 -344.7,316.3 -344.7,316.5 -344.6,316.7 -344.5,316.9 -344.5,317.1 -344.6,317.3 -344.6,317.5   -344.2,317.7 -343.9,318.2 -343.8,318.7 -343.9,319.2 -344.2,319.6 -344,319.7 -343.3,319.6 -343.1,319.6 -340.6,320.4   -340.6,320.6 -340.5,320.7 -340.5,320.7 -340.4,320.7 -340.4,320.9 -340.5,321 -340.5,321.5 -340.5,321.7 -340.5,321.9   -340.4,322.1 -340,322.4 -338.6,322.8 -338.1,323.3 -337.8,323.5 -337.3,323.6 -337,323.7 -336.7,323.6 -336.1,323.3 -335.9,323.1   -335.9,322.9 -335.9,322.8 -335.8,322.5 -335.6,322.2 -335.4,322.1 -335.2,322.2 -334.8,322.2 -334.8,321.8 -334.6,321.4   -334.3,321 -333.9,320.8 -333.8,320.8 -333.8,320.8 -333.7,320.8 -333.7,320.9 -333.5,321 -333.3,321.4 -332.8,321.8 -332.7,321.9   -332.6,322.3 -332.8,322.9 -332.8,323.3 -332.3,323.7 -331.8,323.7 -330.5,323.4 -330.2,323.3 -330,323.4 -329,324 -328.9,324.2   -329,324.3 -329.3,324.5 -329.3,324.6 -329.2,324.8 -329.1,324.8 -328.8,324.7 -328.7,324.8 -328.3,325 -328.2,325 -327.9,324.9   -327.8,324.9 -327.7,325 -327.4,325.2 -327.3,325.2 -327.2,325.2 -326.7,325.1 -326.5,325 -326.1,325.1 -325.8,325.2 -325.6,325.1   -325.5,324.9 -325.2,324.4 -325.1,324.4 -325,324.3 -324.9,324.3 -324.9,324.2 -324.9,324 -324.9,323.9 -324.7,323.3 -324.5,322.6   -324.4,322.4 -323.6,321.6 -323.3,321.4 -322.4,321.1 -321.5,321 -321,321.1 -320.6,321.3 -320.2,321.3 -319.8,320.9 -319.8,320.8   -319.7,320.7 -319.6,320.6 -319.4,320.6 -319.2,320.6 -319.1,320.7 -319,320.8 -319,320.9 -318.9,320.9 -318.7,320.9 -318.6,320.9   -318.5,320.9 -318.5,320.8 -318.5,320.8 -318.1,320.7 -317.8,320.7 -317.1,320.8 -317.1,320.8 -317.1,320.9 -317,320.9   -316.9,320.8 -316.6,320.9 -316.2,321.2 -316,321.3 -315.8,321.2 -315.6,321 -315.4,320.9 -314.8,320.8 -314.4,320.5 -313.8,320.2   -313.2,320 -312.3,319.9 -311,319.2 -310.1,319.1 -309.8,319.2 -309.8,319.7 -310.1,320.1 -310.9,320.5 -311,320.9 -311,321   -310.9,321.3 -310.8,321.7 -310.7,321.9 -310.6,322.1 -310.6,322.3 -310.8,322.5 -310.7,322.5 -310.4,322.6 -310.2,322.6   -310.1,322.8 -310,322.9 -309.9,323 -309.8,323.1 -309.2,323.1 -309,323.2 -308.9,323.7 -308.9,323.9 -308.9,324 -309,324.2   -309,324.4 -309,324.6 -309,324.8 -308.9,324.8 -308.8,324.9 -308.5,325 -308.2,325.1 -308,325.2 -307.9,325.6 -307.6,326.2   -307.2,326.6 -306.7,326.9 -305.9,327 -305.5,327.3 -305.3,327.4 -305.1,327.4 -304.4,327.3 -303.7,327.3 -303.6,327.4   -303.4,327.6 -303.2,327.6 -303.1,327.6 -302.9,327.5 -302.8,327.5 -302.4,327.7 -301.6,328.2 -298.5,328.4 -297.5,328.6   -296.6,329.2 -296.4,329.3 -295.8,329.3 -294.5,329 -293.9,329.1 -293.1,329 -293,329.1 -292.8,329.3 -292.7,329.4 -292.2,329.4   -290.6,329.9 -290.4,329.9 -290.2,329.9 -290,329.9 -289.1,330.1 -289,330.1 -288.1,330 -287.7,330 -286.5,330.6 -286.3,330.6   -285.8,330.5 -285.6,330.5 -285.4,330.6 -285.2,330.7 -284.5,331.3 -284.3,331.4 -281.5,331.5 -281.1,331.4 -280.9,331.4   -280.9,331.5 -280.8,331.6 -280.8,331.7 -280.4,331.9 -280.1,331.9 -279.7,331.8 -279.5,332 -279.4,332.4 -279.2,332.6 -279,332.5   -278.8,332.1 -278.7,331.8 -278.5,331.5 -278.4,331.4 -278.1,331.4 -278,331.4 -277.9,331.3 -277.6,331 -277.5,331 -277.4,331   -277.3,330.8 -277.1,330.6 -277,330.5 -277,330.4 -276.8,330.3 -276.6,330.4 -276.3,330.3 -276,330.2 -275.9,330.1 -275.7,329.6   -275.5,329 -275.3,328.7 -275.1,328.3 -275,328.3 -274.8,328.3 -274.5,328.2 -274,328 -273.8,328 -273.6,328.3 -273.1,327.7   -272.4,327.4 -270.5,327.6 -268.1,327.5 -267.7,327.6 -267.4,327.9 -267.1,328.1 -266.7,328 -266.5,327.8 -266.4,327.6   -266.3,327.4 -266.2,327.1 -266,327 -265.7,326.9 -265.4,326.9 -265.3,327 -265.1,326.9 -264.9,326.8 -264.9,326.6 -264.9,326.4   -264.8,326.1 -264.6,326.2 -263.6,326.4 -263.3,326.4 -262.4,326 -262,326 -261.6,326.1 -260.8,326.5 -260.2,326.6 -260.1,326.7   -259.8,327 -259.9,326.6 -260,326.3 -260.3,326.1 -260.4,325.6 -260.5,325.3 -260.4,325 -260.3,324.4 -260.4,324.2 -260.4,324.2   -260.4,324.1 -260.3,324 -260.2,324 -259.6,323.8 -258.8,323.3 -258.6,323.2 -258.4,323.1 -258,322.4 -257.8,322.3 -257.5,322   -257.2,321.9 -257.1,321.8 -257,321.7 -257,321.6 -257,321.5 -257,321.4 -256.9,321.3 -256.7,321.2 -256.6,321.1 -256.6,320.8   -256.5,320.6 -256.3,320.6 -255.8,320.7 -255.2,320.6 -255,320.7 -254.7,320.8 -254.7,320.9 -254.6,320.9 -254.5,320.9   -254.5,320.9 -254.5,320.8 -254.3,320.8 -253.9,320.8 -253.7,320.7 -253.7,320.5 -253.9,320.4 -254.1,320.3 -254.5,320.3   -254.3,320.1 -253.7,319.9 -253.6,319.8 -253.5,319.7 -253.6,319.6 -253.7,319.5 -254,319.4 -254.1,319.2 -254,318.9 -253.7,318.7   -253.4,318.3 -253.4,318.1 -253.5,317.8 -253.7,317.8 -254.2,318 -254.4,317.9 -254.4,317.8 -254.3,317.5 -254.3,317.3   -254.3,317.2 -254.5,317.2 -254.6,317.2 -254.6,317.1 -254.7,316.8 -254.5,316.4 -254.5,316 -254.5,316 -254.1,315.8 -253.9,315.7   -253.8,315.4 -253.9,315.1 -254.3,314.2 -254.3,314.2 -254.4,314.2 -254.5,314.2 -254.5,314.1 -254.5,314 -254.4,313.9   -254.4,313.9 -254.3,313.8 -254.4,313.1 -254.2,312.8 -254.1,312.8 -253.9,312.9 -253.7,313.2 -252.3,312.5 -251.7,312   -251.7,311.2 -251.6,311.1 -251.2,310.9 -251,310.7 -251,310.4 -251.1,310.1 -251.3,309.9 -251.5,309.8 -251.5,309.4 -251.6,309   -251.8,308.7 -252.1,308.6 -252.5,308.7 -253.4,308.3 -253.7,308.4 -254.5,308.1 -254.7,308 -254.6,307.8 -254.4,307.5   -254.3,307.4 -254.2,307.5 -254.2,307.6 -254.1,307.6 -254,307.5 -253.9,307.4 -253.3,307.1 -253.2,307 -253.1,306.8 -253.2,306.6   -253.1,306.4 -252.6,306.2 -252.1,306.2 -251,306.6 -250.8,306.8 -250.8,306.9 -250.7,307.1 -250.6,307.3 -250.5,307.5   -250.3,307.6 -249.6,307.7 -249.5,307.7 -249.3,307.5 -249.1,307.1 -248.9,307 -248.7,307.5 -248.2,307.6 -247.2,307.3   -246.2,307.2 -246,307 -246.1,307 -246.2,306.8 -246.3,306.6 -246.3,306 -246.4,305.6 -246.4,305.2 -246.2,305 -246.3,304.9   -246.4,304.5 -246.5,304.5 -246.8,304.3 -246.9,304.2 -246.9,304 -246.7,304 -246.3,303.8 -246.1,303.7 -245.9,303.5 -245.9,303.2   -245.8,302.9 -245.8,302.8 -245.9,302.8 -246,302.8 -246,302.7 -245.9,302.6 -245.8,302.6 -245.8,302.5 -245.8,302.4 -245.7,302.2   -245.7,302.1 -245.8,302 "/></svg>