<svg xmlns="http://www.w3.org/2000/svg" xmlns:xlink="http://www.w3.org/1999/xlink" version="1.1" x="0px" y="0px" viewBox="-461 335 100 100" fill="#999999" style="enable-background:new -461 335 100 100;" xml:space="preserve"><path d="M-457.5,365.5l0.6,0.2l0.2-0.5l-0.2-0.6l-0.7-0.2l-0.3,0.2l-0.1,0.3l0.1,0.3L-457.5,365.5z M-453.4,366.7l-0.5-0.4l-0.1,0  l-0.1,0l-0.1,0l-0.1,0.1l0.2,0.5l0.4,0.1L-453.4,366.7z M-365.1,379l-0.2-0.2l-0.2-0.2l0-0.5l-0.1-0.1l-0.3,0.1l-0.2-0.1l0,0.5  l0.6,0.8l-0.1,0.5l0.3,0l0.3-0.1l0.1-0.2l0-0.3L-365.1,379z M-361.1,381.4l-0.2-0.3l-0.2,0l-0.1,0.1l-0.2,0.1l-0.2-0.2l0,0.3  l0.2,0.3l0.3,0.2l0.2-0.1l0.3,0.1l0.1-0.2L-361.1,381.4z M-439.6,409.3l-0.3-0.7l-0.4-0.6l-0.4-0.6l-0.2-0.6l0.1-0.6l0.4-0.5  l0.1-0.1l0-0.2l0-0.2l-0.1-0.2l-0.3-0.3l-1.2-0.6l-0.4-0.3l-0.3-0.4l-0.4-0.3l-1-0.3l-0.1-0.3l0.1-0.4l0.6-0.9l0.1-0.3l-0.2-1v0  l0.1-0.6l0-0.4l-0.2-0.3l-0.4-0.3l-0.5-0.2l-0.4,0l-2.2,0.5l-0.5,0.2l-1.4,0.9l-0.2,0.1l-0.2,0.1l-0.2,0l-0.2,0l-0.2-0.1l-0.5-0.6  l-0.3-0.2l-0.8-0.1l-0.2-0.1l-0.2-0.2l-0.2-0.5l-0.5-0.7l-0.5,0.2l-0.5,0.5l-0.6,0.2l-0.3-0.2l-0.1-0.3l0.2-0.8l0-0.5l-0.1-0.4  l-0.2-0.4l-1.3-1.6l-0.6-0.3l-0.6,0.2l-0.6,0.5l-0.5,0.3l-0.6,0.1l-0.8,0l-0.8,0.1l-0.5,0.2l0.2,0.3l0.2,0.8l0.2,0.3l0,0.1l0.3,0.2  l0.4,0.1l0.4,0l0,0.1l-0.1,0.1l0.4,0.3l0.2,0.5l0.5,2.1l0.2,0.4l0.4,0.3l-0.1,0.3l0.1,0.2l0.4,0.3l0.1,0l0.2,0l0.1,0l0.1,0.1l0,0.1  l0.1,0.1l0.6,0.4l0.1,0.1l0.1,0.2l0.1,0.2l0.2,0.2l0.2,0.1l0.1,0.2l0.4,0.9l0.1,0.2l0.1,0.2l0.2,1.1l0.1,0.3l0.4-0.1l1.8,0.6l0,0  l0.1-0.1l0.2-0.1l0.2,0l0,0.1l0,0.2v0.2l0.2,0.1l0.2,0l0.2,0.1l0.1,0.2l-0.1,0.3l0.1,0.2l0.1,0.1l0.2,0.1l0.2,0.2l0.1,0.2l0.1,0.5  l0.1,0.2l0.2,0.1l0.4,0.2l0.1,0.1l0,0.2l-0.1,0.2l0,0.2l0,0.2l0.2,0.2l0.4,0.2l0.4,0.2l0.5,0.1l0.4,0.2l0.2,0l0.5,0l1,0.2l1.5,0  l1.3,0.5l3.6,0.8l1.1,0.5l1,0.2l0.2,0l-1-1.9L-439.6,409.3z M-365.2,382.5l-0.1-0.2l-0.2-1.8l-0.2-0.5l-0.2-0.5l-0.3-0.3l-0.4-0.1  l-0.3-0.2l-0.3-0.5l-0.2-0.5l-0.2-0.3l-0.3-0.2l-1.5-0.3l-0.3-0.2l-0.3-0.3l-0.3-0.4l-0.1-0.2l-0.1-0.2l-0.1-0.2l-0.1-0.1l-1.9-0.1  l-0.4,0.1l-1,0.4l-0.3,0.1l-0.4,0l-0.7-0.2l-0.9-0.1l-0.3-0.2l-0.6-0.5l-0.3-0.2l-0.3-0.1l-0.7,0l-0.2-0.1l-0.3-0.3l-0.3-0.3  l-0.1-0.2l0-0.1l-0.2-0.3l-0.1-0.1l0-0.2l0-0.2l0.1-0.4l0.3-0.8l0.1-0.5l-0.2-0.2l-0.3-0.2l-0.3-0.4l-0.3-0.3l-0.4,0.1l-0.8-0.5  l-0.4-0.3l-0.2-0.4l-0.2-0.3l-2.1-2.3l-0.8-1.4l-0.3-1.6l-0.1-0.3l-0.2-0.2l-0.1-0.4l-0.2-2l-0.1-0.5l-0.2-0.4l-0.3-0.4l-1.1-2.4  l-0.3-0.4l-0.1-0.1l-0.4-0.1l-0.1-0.1l-0.1-0.1l-0.4-0.6l-0.1-0.3l-0.2-0.4l-0.3-0.3l-0.3-0.1l-0.7-1.4l-1.2-1.3l-0.1-0.6l-0.2-0.4  l-0.6-0.6l-1.5-2.1l-0.6-0.5l-0.5-0.3l-0.2-0.2l-0.8,1.3l-1.3,1.7l-0.7,2l-0.3,0.7l-0.4,0.4l-1.5,0.9l-0.9,0.8l-0.5,0.3l-2,0.4  l-0.6,0.3l-0.3,0.6l-0.6,1.6l-0.4,0.2l-0.4-0.1l-0.2,0.2l-0.1,0.4l-0.1,0.4l-0.3,0.3l-0.2,0.2l-0.2,0.2l-0.1,0.5l0.1,0.5l0.1,0.3  l-0.1,0.2l-0.4,0.3l-0.7,0.2l-1.5,0.1l-0.3-0.1l-1.4-0.7l-0.3,0l-0.3,0.1l-0.6,0.4l-0.4,0l-0.3-0.2l-0.5-0.7l-0.4-0.1l-1.8-0.2  l-0.5-0.2l-1.3-0.8l-0.3-0.3l-0.2-0.5l0-1.2l-0.1-0.6l-0.1-0.3l-0.5-0.7l-0.1-0.2l-0.1-0.2l-0.1-0.2l-0.2-0.2l-0.3-0.2l-0.1-0.3  l-0.1-0.4l-0.1-0.4l-0.3-0.3l-0.3-0.1l-0.3,0.1l-0.3,0.1l-0.7,0.1l-0.2-0.4l-0.1-0.7l-0.4-0.7l-0.8-0.7l-0.2-0.3l-0.1-0.2l-0.1-0.4  l-0.1-0.1l-0.2-0.1l-0.4-0.1l-0.2-0.1l-0.3-0.2l-1.1-1l-0.2-0.3l-0.1-0.3l-0.2-0.9l-0.1-0.3l-0.1,0l-0.3,0.3l-0.3,0.2l-0.7,0.1  l-0.4,0.1l-0.6,0.5l-0.3,0.2l-0.3,0l-0.3-0.3l-0.1-0.4l0.1-0.9l-0.1-0.4l-0.3-0.2l-0.8-0.1l-0.5,0l-0.4-0.1l-0.6,1.3l-0.4,0.6  l-0.7,0.9l-0.2,0.2l-0.3,0.1l-0.4,0l-0.8-0.2l-0.4,0l-0.3,0.4l-0.2,0.8l0,1.2l0.2,1l0.5,0.4l0.2-0.1l0.1-0.2l0.1-0.2l0.2,0l0,0.1  l0.4,0.7l0.2,1.1l0.1,0.5l0.3,0.4l0.9,0.6l0.2,0.1l0.3,0.1l0.8,0.7l1.7,0.7l0.8,0.5l0.3,0.6l0.3-0.1l0.1,0.1l0.1,0.2l0.3,0.4  l0.5,0.8l0.1,0.3l-0.1,0l-0.1,0l-0.2,0.2l0,0.2l0,0.4l0,0.1l-0.1,0.1l-0.2,0.2l-0.1,0.1l-0.2,0.6l-0.1,0.8l-0.1,0.7l-0.3,0.5  l-0.3,0.1l-0.3-0.1l-0.3,0l-0.4,0.2l-0.2,0.4l-0.1,0.4l-0.2,0.2l-0.4,0l-0.3-0.2l-0.5-0.6l-0.3-0.2l-1-0.3l-0.4-0.2l-1-0.9l-0.5-0.6  l-0.3-0.3l-0.3-0.1l-1.3,0l-0.4,0.1l-0.9,0.6l-0.3,0.1l-0.4,0l-0.8-0.1l-2.5-0.9l-1.2-0.7l-0.7-0.6l-0.4-0.6l0.4-0.5l0.4-0.1  l0.2-0.1l0-0.1l-0.4-0.2l-1.1-0.2l-2.5-1l-0.6-0.5l-0.2-0.3l-0.3,0l-0.6,0.2l-0.3,0l-0.3-0.1l-1.1-0.6l-0.6,0l-0.5,0.2l-4.2,3.5  l0.6,1.3l-0.2,0.5l0.1,0.3l0.3,0.1h1.1l0.3,0.1l0.9,0.7l0.2,0.3l0,0.4l-0.6,0.4l-1.7-0.1l-0.2,0.7l0.2,0.4l0.4,0.2l0.3,0l0.1-0.3  l0-0.4l0.3,0.1l0.6,0.6l0.3,0.2l0.3,0.3l0.3,0.2l0.8,0.1l0.7,0.3l0.4,0.1l1-0.5l0.5-0.1l0.1,0.5l-0.1,0.7l0.2,0.2l0.4,0.1l0.5,0.4  l0.7,0.9l0.3,0.3l0.3,0.1l0.4,0l0.3,0.2l0,0.5l-0.3,0.9l-0.5,0.5l-2,1l-0.7,0.5l-0.4,0.8v1l0.2,0.5l0.3,0.3l0.3,0.3l0.3,0.4l0.1,0.2  l0,0.5l0.1,0.2l0.2,0.2l0.4,0.2l0.1,0.3l0.6,1.2l1,0.9l4,2.3l0.7,0.8l0.3,0l0.4-0.1l0.4,0l0.3,0.1l0.2,0.2l0.4,0.6l0,0.1l0,0.1  l0,0.1l-0.3,1.4l-0.2,0.5l-0.3,0.4l-0.4,0.3l-0.1,0.2l-0.2,1l-0.1,0.2l-0.2,0.2l-1.2,0.1l-2.8-0.5l-1.1,0.7l0.1,0.5l0.5,0.2l1.8,0.2  l0.5,0.2l0.4,0.4l0.9,1.8l0.8,0.8l0.9,0.5l1.1,0.3l0.5,0.5l0.7,1.3l0.5,0.4l0.6,0.2l0.3,0.2l0.2,0.3l0.4,0.8l0.2,0.2l0.4,0.1  l0.6-0.1l1.2-0.6l0.6,0l0.2,0.2l0.4,0.5l0.3,0.2l0.3,0.1l1.1-0.1l0.3,0.1l0.3,0.2l0.2,0.3l0,0.4l-0.2,0.3l-0.2,0.2l-0.2,0.2l0,0.4  l0.1,0.2l0,0.2l-0.1,0.2l-0.2,0.1l-1.3,0.2l-0.5,0.3l-0.2,0.6l0.2,0.7l0.6,0.4l1.2,0.5l0.3,0.2l0.1,0.3l0.1,0.4l0.2,0.3l0.4,0.4  l0.7,0.5l0.1,0.1l0.1,0.1l0.1,0.2l-0.1,0.1l-0.4,0l-0.8,0.6l-0.2,0l-1-0.5l-0.6-0.1l-0.4,0.4l0,0.7l0.4,0.4l0.6,0.3l0.4,0.3l0.2,0.7  l0.1,0.6l-0.1,0.6l-0.2,0.7l0,0.1l0,0.1l-0.1,0.3l0,0.3l0,0.3l0.1,0.3l0.6,1.2l0.3,0l0.4-0.2l0.3-0.2l0.3-0.2l0.2-0.3l0.2-0.3l0.5-1  l0.2-0.3l0.3-0.3l1-0.5l0.3-0.3l0.3-0.7l0.2-0.3l0.1-0.1l0.3-0.2l0.1-0.1l0.1-0.1l0.4-0.8l0.2-0.3l0.3-0.2l0.3-0.1l0.3,0l0.5,0.2  l0.3,0.1l0.2,0l1.1-0.6l0.2-0.2l0.1-0.2l0.3-0.8l0.6-1l0.1-0.2l0.2-0.2l0.8-0.5l1.7-0.7l0.7-0.4l0.6-0.6l0.9-1.1l0.6-0.5l0.7-0.4  l1.2-0.4l0.4,0l0.2-0.2l0.9-0.9l2.4-1.3l1-1l0.3-0.2l0.4-0.1l1.3,0l0.2-0.1l0.2-0.2l0.2-0.3l0.2,0.1l0.3,0.2l1,1l2.9,3.4l1.2,1.1  l0.5,0.7l0.4,0.8l-0.6,0.2l-0.9,0.6l-1.1,0.2l-0.6,0.3l-0.5,0.5l-0.3,0.6l0,0.8l0.2,0.6l0.4,0.6l1,0.9l1,0.4l0.3,0.3l0.5,1.1  l0.1,0.3l0,0.3l-0.1,0.3l-0.1,0.3l-0.2,0.2h0v0l-0.7,0.4l-3.2,0.6l-0.1,0.1l0,0.2l-0.1,0.1l-0.9,0.5l-0.2,0.3l0,0.9l0.3,0.6l1.1,0.9  l2.3,1.1l0.2,0.2l0.1,0.5l-0.1,0.4l0,0.4l0.8,0.7l0.3,0.4l0.3,0.3l0.5,0l0.9-0.4h0.4l0.2,0.5l0.1,0.6l0.2,0.3l0.3,0.3l0.3,0.4  l0.3,0.3l0.3,0.4l0.6,0.8l0.5,0.8l0.5,0.5l0.9,0.1l0.4-0.1l0.5-0.2l0.4-0.3l0.3-0.3l0.4-0.2h0.5l1.1,0.2l-0.2-7l-0.4-1l-0.1-0.4  l0-0.4l0-0.8l0.6,0.2l0.5-0.6l0.4-0.9l0.5-1.6l0.1-0.5l-0.3-0.5l-0.1-0.5l0-1l0,0h0.1l0.1,0l0-0.2l0-0.2l0-0.1l0.1-0.3l0.1-0.2  l0.1-0.2l0.2-0.1l0.7,0l0.3,0.1l0.3,0.3l0.1,0.2l0.1,0.9v0.2l0.8,0l0.3,0.2l0.2,0.4l0,0.4l-0.1,0.4l-0.2,0.3l-0.3,0.1l-0.8,0.2  l-0.2,0.2l0,0.1l0,0.2l-0.1,0.3l0.5,0.4l0.7-0.3l1.3-0.9l0.2-0.4l0.1-0.5l0.1-0.8l0.1-0.3l0.2-0.7l0.1-0.7l0-2.4l0.2-0.7l0.4-0.6  l0.6-0.2l0.9,0.6l0.2,0.3l0.2,0.3l0.4,0.1v-0.2l-0.3-0.2l-0.2-0.3l-0.1-0.4l-0.1-0.3h0.1l0.1,0.2l0.1,0.2l0.2,0.1l0.2,0.1l-0.1-0.2  l0-0.2l0.1-0.7l0.1-0.1l0-0.1l-0.1-0.3l-0.2-0.3l-1.6-1.5l-0.2-0.4l0-0.6l0.1-0.4l0.1-0.5l0.2-0.5l0.2-0.4l0-0.4l0.3-0.6l0.8-1  l0.4-0.2l0.2-0.2l0-0.2l-0.4-0.5l-0.1-0.3l0.1-0.3l-0.1-0.2l0-0.1l0.1-0.3l0.3-0.2l0.1-0.1l0-0.2l0-0.1l-0.1-0.1l0-0.1l0-0.2  l0.1-0.1l0.1-0.1l0.1-0.2l0.1-0.3l-0.1-0.3l-0.2-0.5l-0.1-0.4l0-0.2l0.1-0.3l0.1-0.2l0.1-0.1l0.1-0.1l0.3-0.3l0.2-0.1l0.1-0.1  l-0.1-0.2l-0.1-0.2l-0.2-0.2l-0.1-0.2l-0.2-0.4l0-0.4l0.2-0.3l0.9-0.4l0-0.2l-0.1-0.6l0-0.5l0.2-0.2l0.3-0.2l0.7-0.7l0.3-0.2  l1.3-0.5l1-0.6l1.1-0.3l0.7-0.4l0.5-0.5l-0.1-0.5l0.6-0.5l0.3-0.2l0.4,0.2l0.4,0.1l0.2,0.1l0.1,0.2l0.2,0.4l0.1,0.1h0.3l0.6-0.5  l0.3-0.1h0.7l0.2,0l0.2-0.1l0.2,0l0.3,0l0.6,0.2l0.8,0.1l0.4,0.1l0.4,0.2l0.8,0.7l0.4,0.5l0.4,0.6l0.3,0.6l0.1-0.3l-0.1-0.5  L-365.2,382.5z M-447.8,374.8l-0.6,0.4l-0.6-0.2l-0.1-0.2l0-0.2l0-0.2l0.1-0.2l0.2-0.2l0.2-0.1l0.3,0l0.2,0l0.4,0.3L-447.8,374.8z"/></svg>