<svg xmlns="http://www.w3.org/2000/svg" xmlns:xlink="http://www.w3.org/1999/xlink" version="1.1" x="0px" y="0px" viewBox="-461 335 100 100" fill="#999999" style="enable-background:new -461 335 100 100;" xml:space="preserve"><style type="text/css">
	.st0{fill-rule:evenodd;clip-rule:evenodd;}
</style><g><polygon class="st0" points="-392.2,433 -392.1,433.2 -392,433.2 -391.6,433.7 -391.8,433.9 -391.9,433.8 -392.2,433.8    -392.5,433.4 -392.5,433.1  "/><polygon class="st0" points="-392.2,428.5 -392.3,428.5 -392.5,428.2 -392.5,428.1 -392.3,427.9 -392.2,427.9 -392,428.2  "/><polygon class="st0" points="-386.2,426.5 -386.3,426.5 -386.5,426.3 -386.5,426.1 -386.4,426.1 -386.2,426.1 -386.2,426.1    -386.2,426.2 -386.1,426.3  "/><polygon class="st0" points="-386.8,426.1 -387.1,426.1 -387.1,426 -387.1,425.9 -387,425.7 -386.8,425.7 -386.7,425.9  "/><polygon class="st0" points="-384.7,425.3 -384.9,425.3 -385,425.3 -385,425.1 -384.9,425 -384.8,425 -384.7,425.2 -384.7,425.3     "/><polygon class="st0" points="-386.4,425.3 -386.5,425.3 -386.6,425.3 -386.6,425.1 -386.4,424.9 -386.3,425.1 -386.3,425.2  "/><polygon class="st0" points="-385.5,422 -385.4,422.1 -385.2,422 -385.1,422.1 -384.9,422 -384.4,422 -384.3,422.1 -383.5,422.1    -383.1,422.4 -382.7,422.8 -382.7,423.3 -383.2,423.8 -382.9,424 -382.9,424.2 -383.1,424.5 -383.3,424.3 -383.4,424.4    -383.8,424.4 -383.8,424.1 -384.1,424 -384.6,424 -385.3,424.5 -385.5,424.5 -385.8,424.8 -385.9,424.8 -386,424.6 -386,424.3    -386.4,423.7 -386.4,423.4 -386.1,423.1 -386.1,423 -386.4,422.8 -386.6,422.7 -386.7,422.5 -386.7,421.9 -386.8,421.8    -386.8,421.6 -386.9,421.4 -386.9,421.2 -386.8,421.1 -386.3,421.1 -386.1,420.7 -385.8,420.7 -385.6,420.9 -385.3,421.2    -385.3,421.3 -385.3,421.5 -385.8,421.9  "/><polygon class="st0" points="-387.3,420.8 -387.7,421.2 -387.9,421.1 -387.9,420.9 -388.1,420.7 -388.1,420.5 -387.9,420.3    -387.7,419.9 -387.5,419.9 -387.2,420.4 -387,420.5 -387.1,420.8  "/><polygon class="st0" points="-386.5,419.1 -386.5,419.3 -386.8,419 -386.8,418.8 -386.7,418.8 -386.5,418.8 -386.4,418.9    -386.3,418.9  "/><polygon class="st0" points="-383.3,419.9 -383.4,420 -383.6,420 -383.9,420.3 -383.8,420.5 -384,420.6 -384.1,420.5 -384.3,419.8    -384.5,419.7 -384.8,419.3 -384.5,418.4 -384,418.2 -383.7,418.2 -383.5,418 -383.5,417.7 -383.6,417.6 -383.4,417.4 -383.2,417.4    -383.1,417.6 -383.1,417.9 -383,418 -382.7,418.2 -382.3,418.3 -382.3,418.8 -382.4,418.9 -382.4,419 -382.5,419.1 -382.5,419.4    -382.8,419.7 -383,419.7 -383.1,419.9  "/><polygon class="st0" points="-385,416.9 -385.2,416.9 -385.3,416.8 -385.3,416.7 -385.1,416.6 -384.9,416.6 -384.9,416.6    -384.9,416.7  "/><polygon class="st0" points="-384.7,416.2 -384.9,416.2 -385.1,416 -385.1,415.8 -385,415.7 -384.8,415.7 -384.7,415.9    -384.7,416.1  "/><polygon class="st0" points="-385.7,412.5 -385.9,412.5 -385.9,412.5 -385.9,412.4 -385.8,412.2 -385.6,412.2 -385.5,412.3    -385.5,412.4  "/><polygon class="st0" points="-385.1,413.2 -385.1,414.2 -385.4,414.5 -385.5,414.9 -385.9,415.4 -386.1,415.4 -386.1,415.5    -386.5,415.5 -386.7,415.7 -386.7,416 -386.9,416.1 -386.9,416.6 -386.7,416.8 -386.5,416.7 -386.4,416.4 -386.1,416.4 -386,417.2    -385.9,417.3 -385.5,417.3 -385.4,417.4 -385.3,417.4 -385.1,417.7 -385.1,418 -385.2,418.1 -385.6,418.2 -385.7,418.6    -385.9,418.7 -386.2,418.7 -386.3,418.5 -386.1,418.5 -385.9,418.2 -386.2,418.1 -386.2,418 -386.6,418 -387,418.2 -387.6,419    -387.7,419 -387.9,419.2 -388.2,419.1 -388.6,418.1 -388.8,418 -389.2,418 -389.3,417.9 -389.9,417.9 -390,418 -390.3,418    -390.5,418.4 -390.4,418.6 -390.1,418.9 -389.1,418.8 -389,418.7 -388.6,418.7 -388.5,419 -388.7,419.3 -388.9,419.4 -389.2,419.4    -389.4,419.5 -389.4,419.8 -389.5,419.9 -389.5,420.1 -389.4,420.2 -389.4,420.4 -389.2,420.5 -389.1,420.7 -389.1,420.9    -388.8,421.1 -388.7,421.7 -388.3,421.8 -388.1,421.9 -388.1,422.3 -387.8,422.5 -387.8,423.1 -387.6,423.1 -387.4,423.3    -387.4,423.7 -387.6,424.1 -387.9,423.7 -388.2,423.7 -388.4,423.8 -388.4,424.1 -388.6,424.2 -389,424.6 -389,425 -388.6,425.3    -388.6,425.5 -388.9,425.6 -389.5,426.4 -389.3,426.6 -389.1,426.6 -389,426.4 -388.6,426.3 -388.4,426.1 -388,426.1 -388,426.2    -387.6,426.5 -387.6,427 -387.7,427.2 -388.3,427.3 -388.8,427.7 -388.9,427.7 -389.1,428 -389,428.1 -388.9,428.6 -389.2,428.8    -389.2,429 -389.4,429.3 -389.4,429.5 -389.7,429.6 -389.9,429.7 -389.9,430.1 -389.2,430.6 -389,430.6 -388.4,430.9 -388.2,431.2    -388,431.2 -386.9,431.8 -386,432.4 -385.9,432.4 -385.4,432.7 -385.1,433 -384.7,433.2 -383.7,434.4 -383.5,434.7 -383.5,435    -383.7,435 -383.8,434.8 -383.9,434.7 -383.9,434.6 -384.4,434.1 -384.4,434 -384.6,434 -384.8,433.6 -384.9,433.6 -385,433.4    -385.4,433.4 -385.5,433.3 -385.7,433.3 -386.2,433 -386.4,432.8 -387.2,432.4 -387.3,432.2 -387.3,432 -387.6,431.7 -387.9,431.6    -388,431.5 -388.2,431.5 -388.4,431.3 -388.6,431.3 -388.8,431 -389.2,431 -389.3,430.9 -389.6,430.9 -389.9,430.7 -390.1,430.7    -390.4,430.5 -390.7,430.4 -391.3,430 -391.5,429.5 -391.5,428.5 -391.4,428.1 -391.1,427.9 -390.9,427.4 -390.7,427.1    -390.6,426.6 -390.5,426.5 -390.5,425.9 -390.6,425.8 -390.6,425.4 -390.7,425.3 -390.7,424.7 -390.5,424.2 -390.5,423.1    -390.6,422.9 -391.7,421.6 -391.8,421.4 -391.8,421.2 -391.4,420.5 -391.4,420.1 -391.4,420 -391.4,419.4 -391.5,419.1    -391.5,418.8 -391.4,418.4 -391.1,418.1 -391.1,417.7 -390.8,417 -390.3,416.5 -390.2,416.2 -389.5,415.5 -389.5,415.4    -388.3,413.7 -388.3,413.6 -387.9,413.2 -387.3,413.4 -387.1,413.2 -386.9,413.4 -386.9,413.5 -386.7,413.7 -386.4,413.6    -386.4,413.3 -386.5,413.1 -386.1,412.6 -385.6,412.6 -385.4,412.3 -385.1,412.2 -384.9,411.8 -384.7,411.7 -384.6,411.8    -384.7,412.1 -384.7,412.5 -385.2,413  "/><polygon class="st0" points="-382,411.1 -382.3,411.1 -382.3,411 -382.3,410.9 -382.3,410.8 -382.2,410.7 -382,410.7 -382,410.8    -382,411  "/><polygon class="st0" points="-385.6,409.1 -385.7,409.3 -385.6,409.6 -386.1,410 -386.7,410.1 -387,410.3 -387.3,410.3 -387.5,410    -387.7,409.4 -387.6,409.2 -387.4,409.1 -387.1,409.1 -387,409.2 -386.7,408.8 -386.3,408.8 -386.2,408.9  "/><polygon class="st0" points="-388,409.3 -387.8,409.9 -388,410.1 -388.5,410.1 -388.7,410.2 -389,409.8 -389.2,409.8 -389.3,409.6    -389.2,409.3 -389,409.2 -388.5,408.8 -388.2,408.8 -388,409  "/><polygon class="st0" points="-411,407 -411.1,407 -411.2,406.9 -411.2,406.8 -411.1,406.8 -411,406.8 -411,406.8 -411,406.9  "/><polygon class="st0" points="-407.7,405.3 -407.8,405.3 -407.9,405.3 -407.9,405.2 -407.8,405.1 -407.7,405.1 -407.7,405.2    -407.7,405.3  "/><polygon class="st0" points="-407.3,404.6 -407.4,404.6 -407.4,404.5 -407.4,404.4 -407.4,404.4 -407.3,404.4 -407.2,404.4    -407.2,404.5  "/><polygon class="st0" points="-406.3,389.9 -406.3,390 -406.6,389.9 -406.6,389.4 -406.5,389.4 -406.3,389.5  "/><polygon class="st0" points="-396.7,375.3 -396.8,375.3 -396.8,375.2 -396.8,375.1 -396.8,375.1 -396.7,375.1 -396.6,375.1    -396.6,375.2  "/><polygon class="st0" points="-404.6,368.5 -404.7,368.5 -404.8,368.4 -404.8,368.1 -404.7,368.1 -404.7,368.1 -404.5,368.2    -404.5,368.4  "/><polygon class="st0" points="-424.5,365 -424.7,365 -424.8,365 -424.8,364.9 -424.7,364.8 -424.5,364.8 -424.5,364.9 -424.5,365     "/><polygon class="st0" points="-400.3,358.5 -400.5,358.5 -400.7,358.4 -400.2,358.1 -400,358.3  "/><polygon class="st0" points="-399.5,357.8 -399.5,357.9 -399.6,357.9 -399.7,357.8 -399.8,357.8 -400,357.5 -400,357.4    -399.9,357.4  "/><polygon class="st0" points="-428.8,356.7 -428.7,356.8 -428.6,356.7 -428.3,356.7 -428,357 -427.7,357 -427.7,357.1 -427.5,357.1    -427.5,357.4 -427.4,357.6 -427.4,358.2 -427.6,358.5 -427.6,358.7 -427.7,358.8 -427.6,359 -427.6,359.2 -427.7,359.3    -427.7,360.1 -427.6,360.2 -427.6,360.4 -427.7,360.5 -427.7,360.8 -427.6,360.9 -427.6,361.1 -427.1,361.3 -426.9,361.4    -426.9,361.6 -427,361.7 -426.9,361.9 -427.2,362.3 -427.2,362.6 -426.9,363 -427,363.3 -427.3,363.2 -428,362.7 -428.4,362.7    -428.5,362.6 -428.6,362.7 -428.8,362.7 -429,362.6 -429.1,362.7 -429.6,362.8 -429.8,363 -430.2,363 -430.3,362.9 -430.9,362.9    -431.3,362.7 -431.5,362.7 -431.6,362.6 -431.4,362.3 -431.5,362.2 -431.4,362 -431.4,361.7 -431.7,361.4 -431.7,360.5    -431.9,360.3 -432.1,360.3 -432.3,360 -432.3,359.4 -432.2,359.3 -432.2,358.8 -432.3,358.7 -432.2,358.5 -432,358.5 -431.9,358.4    -431.4,357.6 -431,357.7 -430.6,357.3 -430.6,357.3 -430.5,357.1 -430.2,357 -429.9,356.7 -429.4,356.7 -429.3,356.8 -429.2,356.7     "/><polygon class="st0" points="-439.8,356.3 -439.9,356.3 -439.9,356.3 -440,356.3 -440,356.4 -440,356.2 -440,356.1 -439.9,356    -439.9,355.9 -439.9,355.9 -439.9,355.9 -439.9,355.8 -439.9,355.9 -439.8,356 -439.7,356 -439.5,356.1 -439.5,356.1 -439.6,356.1    -439.6,356.1 -439.7,356.2 -439.7,356.2 -439.7,356.2 -439.6,356.2 -439.6,356.2 -439.6,356.2 -439.6,356.2 -439.6,356.2    -439.6,356.2 -439.7,356.3 -439.8,356.3  "/><polygon class="st0" points="-405.8,356 -405.7,356.1 -405.1,356.1 -404.7,356.4 -404.6,356.1 -404.4,356.3 -404.4,356.5    -404.3,356.6 -403.9,357 -403.9,358.5 -404,358.6 -404,358.8 -404.3,359.1 -404.3,359.3 -404.1,359.9 -404,359.8 -403.8,359.9    -403.8,360.8 -403.9,360.9 -403.9,361.4 -403.7,361.6 -403.7,362.2 -403.8,362.4 -403.5,362.8 -403.5,363.3 -403.2,363.5    -403.2,363.7 -403.3,363.8 -403.3,364 -403.5,364.2 -403.7,363.7 -404,363.5 -404.3,362.7 -405,361.7 -405.2,361 -405.4,360.7    -405.4,360.3 -405.2,360 -405.3,359.5 -405.1,359.3 -405.1,359.1 -405.2,359 -405.6,359 -405.9,358.8 -406.2,358.9 -406.3,358.8    -406.6,358.8 -406.9,358.5 -407,357.7 -407,357.6 -407,357.1 -406.9,356.9 -406.9,356.5 -406.5,356  "/><polygon class="st0" points="-404.6,355 -404.6,355.1 -404.5,355.1 -404.4,355.4 -404.5,355.5 -404.5,355.6 -404.8,355.6    -404.9,355.6 -404.9,355.4 -404.8,355.2 -404.8,355.1  "/><polygon class="st0" points="-438.6,354.8 -438.6,354.8 -438.5,355.1 -438.4,355.1 -438.2,355.2 -438.2,355.2 -438.1,355.1    -438,355.1 -438,355 -437.9,355 -437.7,355.1 -437.5,355.4 -437.4,355.4 -437.1,355.4 -437.1,355.5 -437.5,355.5 -437.8,355.7    -437.8,355.7 -438.1,355.6 -438.1,355.6 -438.2,355.4 -438.5,355.3 -438.8,355.4 -439.1,355.3 -439.1,355.3 -439.1,355.2    -439.1,355.1 -439.2,355.1 -439.2,355 -439.3,355 -439.3,355 -439.4,354.9 -439.4,354.8 -439.5,354.8 -439.5,354.8 -439.5,354.8    -439.7,354.7 -439.7,354.7 -439.7,354.6 -439.7,354.6 -439.7,354.6 -439.7,354.6 -439.5,354.7 -439.4,354.7 -439.4,354.7    -439.3,354.7 -439.2,354.7 -439.1,354.8 -439,354.8 -438.9,354.7 -438.8,354.7 -438.7,354.7  "/><polygon class="st0" points="-408.9,354.7 -408.8,354.9 -408.6,354.9 -408.4,355.1 -408.4,355.5 -408.5,355.6 -408.4,355.7    -408.4,355.8 -408.7,355.8 -409.3,356.1 -409.6,355.9 -409.3,355.6 -409.4,355.2 -409.2,354.8  "/><polygon class="st0" points="-429.3,353.6 -428.9,353.9 -428.7,353.9 -428.6,354.1 -429,354.3 -429.4,354.3 -429.5,354.2    -429.8,354.2 -430,353.9 -430,353.6  "/><polygon class="st0" points="-399.6,355.2 -399.8,355.2 -399.8,354.9 -400.2,354.4 -400.5,353.8 -400.2,353.4 -399.7,353.3    -399.4,353.7 -399.4,354.3 -399.3,354.4 -399.4,354.5 -399.3,354.7 -399.3,354.9  "/><polygon class="st0" points="-425.7,353.8 -425.8,353.9 -425.9,353.7 -425.8,353.5 -425.9,353.3 -425.9,352.7 -425.7,352.7    -425.4,353.8  "/><polygon class="st0" points="-400.8,350.9 -400.9,350.9 -400.9,350.9 -400.9,350.6 -400.9,350.6 -400.8,350.6 -400.8,350.6    -400.8,350.9  "/><polygon class="st0" points="-400.8,349.7 -401,349.7 -401,349.5 -401.1,349.4 -401.1,349.3 -401.1,349.2 -400.9,349.2    -400.8,349.4 -400.8,349.6  "/><polygon class="st0" points="-407.4,349.5 -407.6,349.7 -407.8,349.7 -407.9,349.9 -408,351 -407.7,351.1 -407.7,351.3    -407.8,351.4 -407.6,351.5 -406.9,351.5 -406.8,351.6 -406.4,351.6 -406.3,351.8 -406.3,352.1 -406.5,352.5 -406.1,352.7    -406.1,353.1 -406.2,353.2 -406.4,353.2 -406.5,353.3 -406.8,353.3 -406.9,353.4 -407.4,353.5 -407.5,353.6 -407.7,353.5    -407.4,353.2 -407.5,353.1 -407.9,353.4 -408.2,353.4 -408.2,352.8 -408.5,352.7 -408.7,352.5 -408.8,352.6 -410.1,352.6    -410.1,352.5 -410,352.3 -410,352.2 -410.3,352.4 -410.4,352.2 -410.3,352 -410.4,351.8 -410.8,352.2 -410.8,352.3 -411,352.6    -411.5,352.6 -411.7,352.9 -411.9,352.9 -412.3,353.3 -413,353.4 -413.2,353.3 -413.4,353.2 -413.7,353.6 -414,353.6 -414.2,353.9    -413.8,353.8 -413.7,353.7 -413.3,353.7 -413.2,353.8 -413,353.8 -412.9,354 -412.5,354 -412.4,353.9 -412.3,353.9 -412.2,354    -412,353.8 -411.7,353.7 -411.6,354 -411.6,354.5 -411.4,354.7 -411.2,354.7 -411.1,354.9 -411.1,355.1 -411,355.2 -411,355.7    -410.8,355.7 -410.6,356.1 -410.4,356.1 -410.3,356.3 -410.2,356.3 -410.1,356.7 -410,357 -409.6,357.4 -409.2,357.6 -409.1,357.6    -408.7,358 -408.4,358 -407.8,358.7 -407.8,358.9 -408,358.9 -408.2,359 -408.3,359.5 -407.9,360 -407.9,360.2 -407.6,360.6    -407.5,360.6 -407.4,360.5 -407.7,360.1 -407.7,359.5 -407.5,359.4 -406.9,359.7 -406.6,359.7 -406.5,359.6 -406,359.6 -405.7,360    -405.5,360.1 -405.5,361.1 -405.4,361.2 -404.9,362.8 -404.1,363.6 -403.9,364.1 -403.8,364.4 -403.8,364.6 -403.9,364.7    -404,364.6 -404.2,364.6 -404.1,364.5 -404.3,364.4 -404.8,365 -405.1,365.2 -405.1,366.1 -405,366.2 -405,367 -404.9,367.1    -404.9,367.4 -405,367.5 -405.2,367.5 -405.4,367.7 -405.4,368.2 -405,368.6 -404.7,368.6 -404.6,368.7 -404.6,369.1 -404.5,369.2    -404.5,369.5 -405,369.8 -405.1,370.8 -404.9,371.1 -404.8,372.5 -404.3,372.9 -403.6,373.1 -403.5,373.2 -403.5,373.5    -404.2,374.4 -404.2,374.8 -404.3,374.9 -404.4,375.9 -404.5,376 -404.5,376.7 -404.9,377.6 -404.9,378 -405,378.3 -405.2,378.3    -405.3,379.3 -405.4,379.6 -405.4,381 -405.5,381.1 -405.5,381.3 -405.9,382 -405.8,382.2 -405.8,383.3 -405.9,383.4 -405.9,383.6    -405.8,383.7 -405.8,384.5 -405.9,384.6 -406,385.3 -406.1,385.5 -406.1,385.9 -405.8,386.3 -405.8,386.6 -405.9,386.7    -405.9,387.1 -406.1,387.5 -406.1,387.9 -406.2,388 -406.2,388.4 -406.3,388.5 -406.3,388.9 -406.4,389 -406.5,388.8 -406.7,389.2    -406.7,389.4 -406.8,389.5 -406.8,389.9 -406.7,390 -406.7,390.7 -406.6,391.2 -406.6,391.6 -406.7,391.7 -406.7,392.2    -406.8,392.3 -406.8,392.4 -406.7,394 -406.8,394.1 -406.8,394.9 -406.9,395 -406.9,395.7 -406.8,395.8 -406.8,396.3 -406.5,396.8    -406.6,397 -406.7,397.1 -407.2,397.7 -407.6,398.3 -407.7,398.6 -407.9,398.8 -408,398.9 -408.1,399 -408.8,399.7 -408.9,400.1    -409.3,400.5 -409.6,400.6 -409.7,400.8 -409.8,400.8 -410.5,401.6 -411,402.5 -411.1,402.6 -411.1,403.3 -410.8,404 -410.7,404.4    -410.7,404.5 -411,404.2 -411.2,403.8 -411.2,403.6 -411.3,403.5 -411.3,403.3 -411.4,403 -411.8,402.5 -411.8,402 -412,401.6    -412.4,401.2 -412.5,400.7 -412.8,400.1 -412.8,399 -412.9,398.9 -412.9,397.4 -413,397.4 -412.9,397.1 -413.2,396.6 -413.3,396.2    -413.7,395.7 -413.9,395.3 -414.5,394.4 -414.7,394 -415.3,393.3 -415.5,392.8 -415.7,392.5 -415.7,392.3 -415.9,391.8    -415.9,391.6 -416.1,391.3 -416.1,391 -416.2,390.9 -416.2,390.6 -416.6,390.2 -416.9,390.3 -416.9,390.5 -416.3,391.2    -416.4,391.6 -417.3,390.5 -417.3,390.4 -417.7,389.9 -417.7,389.8 -418.6,388.8 -418.7,388.8 -419.1,388.3 -419.9,387.4    -420.1,387.4 -420.2,387.3 -420.6,387.2 -420.7,387.1 -421,387.1 -421.5,386.5 -421.6,386.5 -422.2,385.9 -422.3,385.9    -422.5,385.6 -422.6,385.6 -422.9,384.9 -423.4,384 -423.4,383.5 -423.5,383.3 -423.6,383.2 -423.6,382.3 -423.5,382.1 -423.6,382    -423.6,380.8 -423.5,380.4 -423.5,380 -423.4,379.8 -423.2,379.8 -422.4,378.8 -422.4,378.7 -422.2,378.3 -422.1,378.3    -421.7,377.7 -421.7,377.3 -421.6,377.2 -421.6,376.4 -421.7,376.3 -421.7,376 -421.5,375.5 -421,374.9 -420.9,374.4 -420.7,373.9    -420.2,372.9 -420.1,372.5 -420.5,372.1 -420.5,371.1 -420.6,371 -420.6,370.8 -420.7,370.7 -420.7,370.3 -420.7,370.2    -420.7,369.2 -420.7,369.1 -420.7,368.1 -420.7,368 -420.7,367.5 -420.8,367.4 -420.8,366.9 -420.9,366.8 -420.9,365.8    -421.1,365.6 -421.2,365.6 -421.5,365 -421.6,365 -421.9,364.8 -421.9,364.6 -422.1,364.1 -422.3,363.5 -422.3,363.3 -422.8,362.5    -423.1,361.8 -423.1,361.6 -423.5,360.9 -423.8,360.6 -423.8,360.2 -424,359.5 -424,359.2 -424.1,359.1 -424.1,358.6 -424.4,357.8    -424.4,357.3 -424,356.8 -424.1,356.1 -423.6,355.1 -423.6,354.5 -423.7,354.4 -423.7,354 -423.8,353.9 -423.6,353.5 -423.6,353.2    -423.8,352.9 -423.8,352.7 -424.3,352.3 -424.3,351.6 -424.4,351.5 -424.4,351.1 -423.7,350.6 -422.9,349.7 -422.9,349.6    -422.7,349.4 -422.4,349.4 -422,349.1 -421.8,349.1 -421.5,348.9 -421.1,348.9 -421,348.8 -420.6,348.9 -420.5,348.8 -420.2,348.8    -420.1,348.7 -419.4,348.7 -419.3,348.6 -419.1,348.6 -419,348.7 -418.6,348.7 -418.5,348.6 -418.1,348.6 -418,348.7 -417.8,348.6    -417.3,348.6 -417.2,348.7 -416.3,348.7 -416.1,348.6 -415.7,348.8 -415.6,348.8 -414.9,349.6 -414.3,349.7 -414.1,349.9    -413.9,349.9 -413.8,350 -413,350 -412.9,350.1 -412,350.1 -411.9,350 -411.6,350 -411.4,349.8 -411.2,349.8 -411.1,349.5    -410.8,349.3 -410.3,348.7 -410.2,348.5 -410,348.5 -409.7,348.2 -409.1,348.2 -409,348.1 -408.7,348.2 -408.6,348.3 -408,349    -407.8,349.1 -407.8,349.3  "/><polygon class="st0" points="-403.1,348.5 -403.3,348.5 -403.3,347.9 -403.1,347.7 -402.8,347.6 -402.7,347.7 -402.9,347.9  "/><polygon class="st0" points="-408,344.4 -408.2,344.4 -408.3,344.4 -408.3,344.2 -408.2,344.1 -408.1,344.1 -408,344.3 -408,344.4     "/><polygon class="st0" points="-400.2,342.7 -400.4,342.7 -400.5,342.7 -400.5,342.4 -400.4,342.3 -400.3,342.3 -400.3,342.4    -400.3,342.5 -400.2,342.6 -400.2,342.7  "/><polygon class="st0" points="-403.7,342 -403.5,342.2 -403.3,342.2 -403,342.6 -402.9,342.8 -402.9,343.2 -402.7,343.5    -402.4,343.5 -402,343.7 -401.7,343.7 -401.3,343.9 -401.1,343.9 -400.9,344.1 -400.8,344.5 -400.9,345.2 -400.8,345.3    -400.8,345.8 -400.9,345.9 -400.8,346.3 -400.9,346.4 -400.8,346.5 -400.9,346.7 -400.8,346.8 -400.9,348.2 -400.9,348.5    -401.1,348.6 -401.3,348.6 -401.3,347.6 -401.4,347.5 -401.2,347.1 -401.3,347 -401.3,346.9 -401.7,346.4 -402.4,346.4    -402.5,346.5 -402.9,346.5 -403,346.7 -403.1,346.8 -403.1,347 -403.2,347.1 -403.8,347.2 -404.3,346.7 -404.3,346.4 -404.1,346.3    -404.1,346.2 -403.7,345.7 -403.3,345.6 -403.1,345.1 -403.5,344.7 -404,344.5 -404.1,344.6 -404.5,344.6 -404.6,344.7    -404.7,344.7 -405.1,345.2 -405.2,345.6 -405,346 -405,346.5 -405.4,347 -405.3,347.1 -405.3,347.3 -405.5,347.6 -405.7,347.9    -405.7,347.5 -406,347.4 -406.2,347.4 -406.2,347.1 -406.3,347 -406.7,346.7 -406.5,346.5 -406.5,346.3 -406.6,346.2 -406.6,344.7    -406.7,344.5 -406.4,344 -406.4,343.7 -406.2,343.5 -405.8,343.3 -405.5,342.8 -405.4,342.6 -405.1,342.4 -404.7,342.4    -404.4,342.2 -404.1,342.2 -404,342.1  "/><polygon class="st0" points="-404.6,341.7 -404.7,341.7 -404.8,341.6 -404.8,341.4 -404.7,341.4 -404.7,341.4 -404.6,341.4    -404.6,341.6  "/><polygon class="st0" points="-415.6,335.2 -415.7,335.2 -415.8,335.2 -415.8,335.1 -415.7,335 -415.6,335 -415.6,335 -415.6,335.2     "/><polygon class="st0" points="-439.5,356.3 -439.4,356.3 -439.4,356.3 -439.3,356.2 -439.3,356.2 -439.3,356.3 -439.4,356.3    -439.4,356.4 -439.4,356.4 -439.4,356.4 -439.4,356.4 -439.4,356.3  "/></g></svg>