<svg xmlns="http://www.w3.org/2000/svg" xmlns:xlink="http://www.w3.org/1999/xlink" version="1.1" x="0px" y="0px" viewBox="-461 335 100 100" fill="#999999" style="enable-background:new -461 335 100 100;" xml:space="preserve"><path d="M-407.8,397.9l0.4,0l0.2,0l0.1-0.1l0.1-0.1l0.1,0l0.2,0l0.1,0.1l0.2,0.3l0.1,0.1l0.1,0.1l0.5,0.1l-0.1-0.2l-0.1-0.2  l-0.2-0.1l-0.2-0.1l0.1,0l0.4,0v-0.1l-0.3-0.3l-0.6-0.7l-0.3-0.3l-0.4,0l-0.5,0.4l-0.3,0.5l0.2,0.4L-407.8,397.9z M-406.9,414.6  L-406.9,414.6l-0.1-0.4l-1.1,0.7l-0.1,0.1l-0.1,0.1l0,0.2l0,0.2v0.1l-0.1,0.1l0.1,0.1l0.1,0.1l0.1,0.2l-0.1,0l-0.2,0.1l-0.1,0v0.1  l0.3,0l0.3-0.2l0.3-0.4l0.1-0.3h0.1l0.1,0.1l0.2-0.4l0.2-0.1l-0.1-0.3L-406.9,414.6z M-403.1,405.2l-0.3-0.3l-0.1-0.1l-0.1-0.2  l-0.1-0.4l-0.2-0.3l-0.1-0.4l-0.1-0.1l-0.1-0.1l-0.3-0.1l-0.2-0.1l-0.4-0.5l-0.2-0.7l-0.3-1.3l-0.2-0.1l-0.3,0l-0.3,0l-0.3,0.1  l-0.3,0.1l-0.2,0.1l-0.1,0.2l-0.4,1.4l0,0.6l0.1,0.6l0.3,0.1l0.9,0.6l0.3,0.2l0.2,0.4l0.2,1l0.2,0.3v0.1l-0.1,0.2l0,0.3l0.1,0.5  l-0.1,0.3l0,1l0,0.3l-0.1,0.3l-0.6,1.4l-0.2,0.6l0.2,0.4l-0.2,0.4l-0.2,0.5l-0.1,0.5l0.1,0.3l0.3-0.1l0.9-1.3l-0.2,0.5l-0.3,0.5  l-0.2,0.5l0.1,0.4l0.2,0l0.2-0.1l0.2-0.1l0.1-0.1l0.4-0.7l0.1-0.1l0.4-0.4l0.1,0.2l0,0.1l0.3-0.2l0.8-1.3l0.1-0.4l0.6-4.1l0-0.6  l-0.2-0.5L-403.1,405.2z M-405.9,406.7l0.2-0.1l0-0.3l0-0.2l-0.1-0.2l-0.1,0l0,0l-0.1,1L-405.9,406.7L-405.9,406.7z M-406.7,400.7  l0.3-0.1l0.6-0.2l0.2,0l0.1-0.1l0.1-0.3l0-0.3l-0.2-0.1l-0.3,0l-0.5-0.2l-0.3,0l-0.2-0.1l-0.6,0l-0.1,0l-0.1,0.2l-0.3,0l-0.5-0.1  l-0.2,0.1l-0.1,0.2l0,0.3l0,0.3l0.1,0.5l0,0.2l-0.1,0.2l0.4,0.1l0.2,0.1l0.1,0.2l0,0.2l0.2,0.5l0.1,0.2l0.3,0l0.2-0.4l0.1-0.8  l-0.1-0.3l0.2-0.1L-406.7,400.7z M-406.5,406.5L-406.5,406.5l-0.2-0.1l-0.1,0l0,0.1l0,0.2l0.1,0l0.1,0l0.1,0.1l0.1,0.3l0.1,0.7  l0.1,0.3h-0.1l0,0.2l0,0.2l0,0.2l0.1,0.2l0.1-0.3l-0.1-0.7l0.1-0.3l0,0.1l0.2,0.3l0-0.4l-0.2-0.5l-0.2-0.4L-406.5,406.5z   M-407.7,412.9l-0.6,0.5l-0.1,0.2l0,0.2l0.1,0.2l0.2,0.1l0.3-0.1l0.3-0.4l0.1-0.6l0.1-0.6l0.2-0.6l0.1,0.2l0,0.1l0,0.2l0.3-1l-0.1,0  l-0.2,0.1l-0.2,0.2l-0.1,0.2l-0.2,0l-0.4,0.5l-0.2,0.1l-0.3,0.1l-0.2,0.3l-0.1,0.4l0,0.4h0.1l0.1-0.2l0.7-0.4L-407.7,412.9z   M-430,417.6l-0.4-0.2l-0.2-0.5l-0.2-1.1l-0.1-0.2l0-0.1l-0.1-0.1l-0.1,0l-0.2,0l0,0.2l0.1,0.3l0,0.3l0.2,0.6l0,0.3l-0.1,0.3  l-0.1,0.1v0.1l0.8,0.9l0.5,0.3l0.2-0.3l-0.1-0.5L-430,417.6z M-410.4,414l-0.3,0.3l-0.3,0.6l-0.2,0.4l-0.1,0.4v0.8l0.1,0l0.1-0.1  l0.1-0.2l0.4-1.3l0.4-0.7l0.1-0.4L-410.4,414z M-409.4,413.2l-0.1-0.1l-0.2,0.2l-0.1,0.2l0,0.5l0,0.4l-0.1,0.2l-0.1,0.2l-0.1,0.2  l0,0.3l0.1,0.2l0.2,0.1l0.3-0.1l0.4-0.4l0.3-0.2l0.2-0.5l-0.2-0.4L-409.4,413.2z M-410.2,413.6l0.1-0.4l-0.2,0l-0.2,0.4l-0.2,0.5  l-0.1,0.4h0.1l0.1-0.3L-410.2,413.6z M-374.9,425.3l-0.6-1.7l-0.2-0.8l0-0.4l-0.2-4l0.3-2.6l0-0.5l-0.2-1l0-0.2l0-0.1l-0.2-1.1  l-0.4-1.1l0.2-0.2l0.2,0l0.2-0.1l0-0.4l-0.9-5.5l0-0.3l-0.2-0.5l-0.1-0.3l0-1l-0.1-1.3l-0.1-0.3l-0.2-0.3l-0.4-0.4l-0.2-0.3  l-0.1-0.5l-0.1-1.3l-0.2-0.3l-0.5-0.2l-0.3-0.4l-0.1-0.6l0-1.2l-0.4-2.4l0-0.7l0.1-0.3l0.3-0.6l0.1-0.3l0-0.2l-0.1-0.2l-0.1-0.3  l0-0.2l0-0.3l0-0.2l-0.1-0.1l-0.2-0.2l-0.1-0.1l0-0.1l0-0.2l0-0.1l-0.1-0.1l-0.2-0.2l-0.1-0.1l-0.1-0.3l-0.1-0.8l-0.6-1.9l0-0.6  l0.2-0.7l0-0.4l-0.3-0.2l-0.3,0.2l-0.2,0.8l-0.2,0.2l-0.2-0.3l-0.2-0.6l-0.3-0.5l-0.7,0.2l-0.3,0.3l-0.5,0.7l-0.3,0.2l-0.4,0.1  l-0.2-0.1l-0.7-0.7l-0.2-0.3l-0.2-0.2l-0.2,0l-0.1,0.2l0,0.4l0,0.6l0.4,2l0,0.7l-0.4,0.6l-0.2,0.2l-0.3,0.2l-0.9,0.4l-0.3,0.2  l-0.4,0.6l-0.5,0.8l-0.3,0.8l0.1,0.7l0.2,0.5l0.2,1.2l0.2,0.5l0.1,0.2l-0.1,0.2l-0.2,0.3l0,0l-0.1,0l-0.1,0l-0.1,0.1l0,0.1l0,0.1  l0,0.1l-0.3,0.4l-0.1,0.1l-0.3,0.2l-0.1,0.1l-0.2,0.1l-0.4,0.1l-0.2,0.1l-0.1,0l-0.1,0l-0.1,0l-0.1,0l-0.1,0.1l-0.1,0.1l-0.1,0.2  l-0.1,0.1l-0.3,0.1l0-0.1l0-0.2l-0.1-0.2l-0.2-0.1l-0.2,0l-0.2-0.1l-0.2-0.2l-0.1-0.2l0-0.5l0-0.1l-0.1,0l0-0.1l-0.1-0.4l-0.4-1.2  l-0.1-0.2l-0.1-0.5l0,0l-0.2-0.2l0-0.1l0-0.1l0-0.1l-0.1-0.1l0,0l-0.1,0.1l0,0l-0.1-0.2l-0.2-0.3l-0.3-0.2l-0.3,0l-0.2,0.2l-0.1,0.4  l0,0.8l0.3,1.4l-0.1,0.6l-0.5-0.1l-0.4-0.5l-0.2-0.7l-0.4-2.7l-0.1-0.2l-0.1-0.1l0-0.1l0.1-0.2l0.2-0.2l0.1-0.1l-0.1-0.1l-0.2-0.1  l-0.2-0.2l-0.2-0.3l-0.2-0.7l-0.1-0.4l0-0.1l-0.1-0.2l-0.3-0.2l-0.1-0.1l-0.1-0.3l-0.1-0.6l-0.1-0.3l-0.5-0.9l-0.1-0.3l0.1-0.4  l0.2,0l0.2,0l0.1-0.3l-0.1-0.3l-0.3-0.1l-0.2-0.1l-0.1-0.4l0.1-0.3l0.2-0.1l0.3,0l0.3-0.1l0.2-0.3l0.3-0.9l0-0.3l-0.1-0.2l-0.2-0.4  l0-0.2l0.1-0.2l0.5-0.9l0.2-0.2l0.2-0.2l0.3-0.1l0.2,0l0.2,0.1l0.2,0l0.2-0.1l0.2-0.7l0-0.6l0.2-0.4l0.6-0.1l1.2,0.3l0.6,0l0.6-0.1  l0.4-0.1l0.2-0.2l0.1-0.2l0.1-0.4l0.2-1.1l0.1-0.2l0.2,0.1l0.3,0.7l0.1,0.3l0.3,0.2l0.3,0l0.3-0.1l0.2-0.3l0-0.3l-0.1-0.3l0-0.3  l0.2-0.2l1,0.2l0.2,0l0,0.1l0,0.4l0,0.2l0.5,0.5l0.3,0.1l0.2-0.1l0.1-0.3l0.3-1.5l0-0.3l-0.2-0.7l0.1-0.3l0.3-0.1l0.1,0.1l0.3,0.2  l0.3,0.1l0-0.2l-0.4-0.6l0-0.2l1.3,0.1l0.5,0l0.4-0.2l0.3-0.4l0.1-0.5l-0.1-1l0.1-0.3l0.2-0.2l0.2-0.1l0.2-0.2l0.2-0.3l0.1-0.3  l0.1-0.6l0.1-0.7l0.8-2.2l0-0.3l0-0.3l0-0.3l-0.2-0.6l-0.1-0.3l0.1-0.3l0.5-0.2l0.6,0.2l1.1,0.6l0,0.1l0.1,0.1l0.1,0.1l0.2,0l1-0.3  l0.6-0.1l0.2-0.3l0-0.2l0-0.3l-0.1-0.3l-0.1-0.1l-0.4-0.2l0.1-0.1l-0.1-0.1l-0.2-0.1l-0.5-0.4l0-0.1l-0.3-0.1l-0.1,0l-0.1-0.5  l-0.4-0.2l-0.4-0.2l-0.3-0.4l-0.1-0.1l-0.8-0.1l-0.3-0.1l-0.2-0.1l-0.2-0.1l-0.2-0.2l-0.2-0.3l-0.1-0.1l-0.1,0l-0.2,0.1l-0.1,0  l-0.1-0.1l-0.2,0l-0.1,0l-0.1-0.1l-0.2-0.2l-0.1-0.1l-0.4-0.2l-0.5-0.1l-0.5,0l-0.4,0.1l-0.3,0.1l-0.9-0.1l-1.7,0.2l-0.8-0.1l-0.2,0  l-0.1,0.1l-0.1,0.2l-0.1,0.1l-0.1,0l-0.2-0.1l-0.2,0l-0.1,0.3l-0.2,0.2l-0.4,0.1l-0.4,0l-0.3-0.1l-0.3-0.2l-0.1-0.2l-0.1-0.1l-0.3,0  l-0.1,0.1l-0.3,0.2l-0.2,0l-0.2,0l-0.3,0.1l-0.2,0l-0.6-0.1l-2.3-0.7l-0.8-0.4l-0.2,0l-0.3,0.2l-0.2,0l-0.9,0l-2.5,0.4l-0.5,0.2  l-1.9,0.3l-0.4-0.1l-0.2-0.1l-0.2-0.1l-0.2-0.1l-0.3,0l-0.1,0l-0.2,0.2l-0.1,0.1l-0.1,0l-0.6-0.1l-0.3-0.2l-0.2-0.1l-0.2,0l-0.6,0.2  l-1.3-0.1l-1.6,0.3l-0.6,0l-1.2-0.5l-2.5-0.5l-3.5-1.5l-0.6,0l-0.6,0.2l-0.2,0l-0.2-0.3l-0.1-0.6l-0.1-0.6l0.1-0.7l0.4-1.3l0-1.3  l0.1-1.2l-0.2-0.7l-0.4-0.9l-0.3-1.6l0.1-0.4l0.7-1.2l0.1-0.4l-0.1-0.1l-0.2,0l-0.3-0.2l0.3-0.1l0.2-0.2l0-0.2l-0.2-0.3l0,0l0,0l0,0  l0,0l0,0h0l-0.1,0.1l-0.1,0l-0.1,0l-0.1-0.1l-0.1-0.2l-0.3-0.4l-0.1-0.2l0-0.3l0-0.2l0-0.2l-0.2-0.3l-0.1-0.2l-0.1-0.3l-0.1-0.3  l-0.2-0.1l-0.1,0l-0.3,0l-0.1,0l-0.2-0.1l0,0l0-0.1l0-0.7l-0.1-0.3l-0.3-0.1l-0.3,0.1l-0.1,0.1l0,0.5l0.1,0.2l0,0.1l-0.3-0.1l-0.1,0  l-0.1,0.1l-0.1,0.1l-0.2,0.3l0.1,0.2l0.3,0.1l0.3,0l-0.2,0.1l-0.2,0.1l-0.2,0.1v0.2l0.2,0.1l0.2,0l0.2,0l0.1,0.2l-0.1,0.3l-0.7,0.6  l-0.1,0.5l0,0.2l0,0.2l-0.1,0.2l-0.2,0l-0.2-0.1l-0.1-0.2l-0.2-0.4l-0.1,0l-0.1,0l-0.1,0l-0.8,0.1v0l-0.1,0l-0.1,0l-0.1,0l-0.1,0  l-0.2-0.4l-0.2,0l-0.2,0.2l-0.3,0.1l-0.3,0l-0.3-0.1l-0.3-0.2l-0.4-0.4l-0.6-0.3l-0.1-0.2l-0.1-0.3l-0.2-0.2l-0.2-0.2l-1-0.5  l-0.2-0.2l-0.1-0.3l-0.1-1.1l-0.1-0.3l-0.3-0.5l-0.1-0.3l0-0.5l0.2,0l0.2,0.1l0.1-0.1l0-0.2l-0.1-0.1l-0.4-0.1l-0.3-0.1l0-0.1l0-0.2  l-0.1-0.2l-0.1-0.1l-0.3-0.1l-0.2-0.1l-0.1-0.1l-0.2-0.3l-0.2-0.1l-0.2-0.2l-0.1-0.1l-0.1,0l-0.3,0.1l-0.2,0.2l-0.2,0.3l-0.1,0.3  l0,0.3l0.3,0.3l0.5,0.2l0.4,0.2l0.1,0.5l0.1,0.1l0.1,0l0.1,0l0.1-0.1l-0.1,0.4l0.1,0.1l0.2,0l0.2,0.1l0.1,0.3l-0.3,0.2l-0.7,0.2  l-0.4-0.1l-0.7-0.7l-0.4-0.1l-0.3,0.2l-0.2,0.6l-0.2,0.1l-0.3-0.1l-0.1-0.2l-0.1-0.3l-0.1-0.3l-0.6-0.2l-1.3,0.5l-0.3-0.2l0.1-0.1  l0.6-0.3l0.2-0.2l0.1-0.3l0-0.2l-0.2-0.2l-0.4-0.2l-0.1-0.1l0-0.3l-0.1-0.1l-0.1,0l0-0.1l0-0.2l0.1-0.1l-0.4-0.1l-0.2-0.1l-0.2-0.1  l-0.1-0.2l-0.1-0.2l-0.1-0.2l-0.2-0.1l-0.3,0l-0.1,0l-0.4-0.2l-0.3-0.2l-0.1-0.1l-0.2-0.2l-0.2-0.2l-0.2-0.2l-0.2-0.1l-0.6-0.2  l-0.2-0.2l0-0.3l0-0.4l0-0.3l-0.1-0.1l-0.2,0.2l-0.2,0.3l-0.1,0.3l-0.3,1.1l-0.2,0.3v0l-0.1,0.2l0,0.3l0.1,0.2l0.2,0.1l0.1-0.1  l0-0.4l0.1-0.1l0.1,0l0.4,0.2l0.9,0.2l0.4,0.2l0.2,0.4l0.3,0.9l0,0.4l-0.3-0.1l-0.1,0l-0.2,0l-0.1,0l-0.1,0l-0.2-0.1l-0.1,0.1  l-0.1,0.2l-0.1,0.1l-0.7,0.5l-0.2,0.2l-0.2,0.3l-0.1,0.3l0,0.6l-0.1,0.3l-0.3,0.2l-0.9,0.3l-0.3,0.1l-0.2,0.1l-0.1,0.1l-0.1,0.1  l-0.1,0.1l-0.5,0.3l-0.1,0.2l-0.2,0.6l0,0.1l0,0.1l0,0.2l0.1,0.1l0.1,0.1l0.1,0.1l0,0.2l-0.1,0.3l-0.4,0.3l-0.3,0.6l-0.3,1l-0.1,0.1  l-0.1,0.1l0,0.1l0.1,0.8l0.1,0.3l0,0.1v0.2l0.2,0.3l0.1,0.1l0.1,0.3l0.2,0.2l0.3,0l0.3-0.1l0.3-0.2l0.7-0.2l0.5,0.3l0.9,1.1l1.1,0.8  l0.4,0.5l0.1,1.1l0.2,0.2l0.6,0.3l0.2,0.3l0.4,0.3l0.1,0.2l0.2,0.2l0.3,0.1l0.7,0l0.3,0.1l0.5,0.3l0.3,0.1l0.2-0.1l0.1-0.1l0.1-0.2  l0.2-0.1l0.1,0l0.1,0l0.1,0l0.2-0.1l0-0.3l0.5,0.2l0.1,0.1l0.2,0.2l0.2,0.2l0.1,0.2l0,0.4l-0.3,0.6l0,0.1l0.2,0.1l0,0.1l0,0.2  l0.1,0.2l0.4,0.5l0.1,0.1l0.2,0l0.3,0l0.1,0.1l0.3,0.3l0.4,0.1l0.8,0l0.1,0.1l0,0.2l0,0.2l-0.1,0.2l-0.6,0.4l-0.1,0.2l0,0.2l0,0.2  l0,0.2l-0.3,0.1l0.2,0.4l-0.4,0l-1.1-0.4l-0.1-0.1l-0.1,0l-0.1,0l-0.1,0.1l-0.2,0.4l-0.1,0.1l-0.9-0.1l-0.9-0.4l-0.5-0.1l-0.5,0  l-0.1,0.1l-0.2,0.2l-0.1,0.1l-0.2,0l-0.1,0l-0.1,0l-0.4-0.1l-0.5-0.2l-0.3-0.1l-0.5,0.1l-0.2,0.3l0,1l-0.1,1.1l-0.2,0.5l-0.4,0.5  l0,0.5l-0.2,0.4l-0.5,0.7l-0.3,0.5l-0.1,0.1l-0.3,0l-0.7-0.2l-0.2,0l0-0.3l-0.1-0.3l-0.2-0.3l-0.3-0.2l-0.3,0l-0.3,0.1l-0.8,0.4v0.1  l0.1,0.1l0.1,0.1l0.2,0.6l0,0.3l-0.2,0.2l-0.2,0.2l-0.2,0.3l-0.2,0l-0.1,0.1l0,0.2l0,0.2l-0.1,0.2l-0.2,0l-0.2,0.1l-0.1,0.7  l-0.2,0.3l-0.1,0.3l-0.1,0.5l0.3,0.1l0.3,0.1l0.2,0.3l0.2,0.2l0.1,0.1v0.9l0,0.1l0.1,0.1l0.1,0.2l0.1,0.2l0,0.1l0.5,0.1l4.1,2.1  l1.2,0.9l0.4,0.1l1,0l0.8,0.3l0.3,0l0.2-0.4l0.2-0.4l0.3,0.1l0.5,0.3l0.4,0.5l0.1,0.7l0,0.1l0,0.3l0,0.1l-0.1,0.2l-0.2,0.3l0,0.1  l-0.2,0.1l-0.3,0.1l-0.2,0.2l-0.1,0.2l0,0.2l0.1,0.3l0,0.2l-0.1,0.4l0,0.2l0.1,0.2l0.3,0.3l0,0.2l0.4,0.1l0,0.2l-0.2,0.2l-0.2,0.3  l0.1,0.2l0.1,0.3l0,0.4l0,0.3l-0.2,0.2l-0.6,0.6l-0.2,0.2l-0.3,0.1l-0.3,0l-0.3,0l-0.2,0.2l-0.1,0.2l0,0.2l0,0.2l0,0.2l-0.1,0.2  l-0.2,0.4l-0.1,0.2l0,0.2l0.1,0.3l0,0.2l-0.3,1.5l0,0.2l0.1,0.1l0.2,0l0.1,0.1l0,0.2l-0.1,0.1l0,0.1l0.2,0.2l0.2,0.1l0.3,0l0.1,0  l0.2,0.3l0.4,0.7l0.3,0.3l0.5,0.3l0.2,0.1l0.2,0.5l0.2-0.1l0.2-0.3l0.2-0.2l0.2,0.2l0,0.4l-0.8,2l-0.4,0.6l-0.1,0.3l0,0.4l0.2,0.3  l0.2,0.2l1,0.3l0.2,0l0.1-0.1l0.1-0.1l0.1-0.1l0.2,0l0.3,0.1l1.1,0.4l0.1,0.1l0.1,0l0.4,0l0.1,0.1l0,0.1l-0.1,0.2l-0.1,0.2l-0.4,0.3  l-0.9,0.9l-0.2,0.4l0,0.9l-0.1,0.5l0,0.3l0.1,0.2l0.3,0.4l0.2,0.3l0.3,0.8l0.2,0.2l0.4,0.1l0.2,0.2l0,0.2l0,0.3l-0.1,0.3l-0.1,0.2  l-0.2,0.3l-0.2,0.2l-0.1,0.2l0,0.3l0.2,0.5l0.1,0.2l0.1,0.4l0.2,0.4l0.2,0.4l0.1,0.5l-0.1,0.4l-0.3,0.2l0.5,0.2l0.2,0.1l0.1,0.6  l0.3,0.7l0.1,0.4l0,0.1l-0.1,0.2l0,0.2l0,0.2l0.2,0.9l0.1,0.2l0.3,0.4l-0.2,0.2l0.2,0.4l0.7,0.9l0.1,0.3l0.1,0.3l0,0.4l-0.3,0.3  l0,0.3l-0.1,0.8l0.1,0.3l0.3,0.5l0.1,0.4l0,0.4l-0.2,0.7l0,0.3l0,0.3l0.4,1.4l0.1,0.1l0.2,0.1l0.3,0.2l0.2,0.1l0.1-0.1l0.1-0.1  l0.1-0.2l0.1-0.1l0.1,0.1l0,0.2l0,0.1l0.5,1.4l0,0.2l-0.2,0.1l-0.1,0.3l0.1,0.3l0.3,0.2l0.3,0l0.3-0.1l0.3-0.2l0.2-0.2l-0.3-0.2  l0-0.2l0.3-0.6l0.1-0.4l-0.2-0.7l0-0.4h0.1l0.1,0.2l0.1,0l0.1-0.1l0.3-0.6l0.1-0.2l0.2-0.2l0.3-0.3l0.1-0.2v-0.3l-0.1-0.2l-0.1-0.2  l0-0.2l0.1-0.3h0.1l0.1,0.3l0.3,0.6l0.1,0.3l0,0.4l-0.2,0.5l-0.1,0.3l0,0.8l0,0.4l0.1,0.3l0.4,0.5l0.2,0l0.6-0.5l0.2-0.3l0.2-0.3  l0.1-0.4l0-0.4l-0.1-0.3l0-0.2l0.2-0.3l0.2-0.2l0.2-0.2l0.2-0.2l0.1-0.9l0-0.1l-0.1-0.1l-0.2-0.4l-0.1-0.2l-0.1-0.1l0-0.1l0-0.1  l0-0.1l0.2,0l0.1-0.1l0.1-0.4l0-0.2l-0.1-0.2l-0.1-0.1l-0.1-0.2l-0.1-0.2l0-0.1l0,0l-0.1,0.1l-0.1,0.2l0,0.2h-0.1l-0.1-2.1l0.1-1.1  h0.1l0.2,0.4l0,0.3l-0.1,0.8l0,0.3l0.7,1.7l0,0.2l-0.2,0.3l0,0.2l0,0.7l0.1,0.3l0.3-0.2l0.1-0.2l0.1-1.1l0-0.2l0.2-0.3l0-0.2l0-0.4  l0-0.2l-0.1-0.2l-0.3-0.6l0-0.2l0.2-0.3l0.3-0.2l0.1-0.1l-0.1-0.4l0.1-0.1l0.2-0.2l0.2-0.5l0.1-0.2l0.2-0.1l-0.2,0.3l-0.1,0.3  l-0.1,0.3l0,0.4l-0.1,0.3l-0.5,0.6l0,0.2l0.2,0.2l0.2,0.3l0.1,0.4l0.1,0.4l-0.1,0.4l-0.4,0.7l-0.1,0.3l-0.1,1l0.1,1.2l-0.1,0.3  l-0.1,0.3l-0.3,0.3l-0.1,0.2l0,0.4l0.2,0.7l0,0.3l0.4,0.7l0.3,0.2l0.3-0.3l0-0.1l-0.2-0.4l0-0.1l0.4-0.1l0.2,0l0.2,0.1l0.4,0.1  l0.3-0.2l0.2-0.3l-0.1-0.2l-0.3-0.2l-0.3-0.4l-0.3-0.4l-0.2-0.3l0.4-0.9l0.2,0.3l0,0.2l-0.2,0.3l0,0.2l0.1,0.2l0.1,0.1l0.2,0.2  l0.3,0.1l0.3,0.1l0.3,0l0.2-0.1l0.2-0.2l0.2,0l0.1,0.2l0.1,0.1l0.2,0l0.3-0.1l0.2-0.1l0.1-0.1l0-0.1l0.1-0.1l0.4-0.4l0.3-0.1l0.1,0  l0.1-0.3l-0.1-0.2l-0.2-0.2l-0.1-0.3l-0.2-0.3l-0.1-0.2l0-0.2l0.1-0.3l0-0.2l-0.1-0.4l-0.2-0.3l-0.3-0.2l-0.3-0.1v-0.1l0.3,0  l0.2,0.1l0.2,0l0.3-0.1l0.1-0.2l0-0.3l0-0.6l-0.2-1.1l-0.2-0.6l-0.2-0.4l0.6-1.3l0.1-0.4l-0.1-0.3l-0.1-0.3l0-0.4l0.5,0.4l0.3,0.1  l0.1-0.3l0.1-0.3l0.2-0.3l0.6-0.6l0.4-0.3l-0.2,0.2l-0.1,0.2l-0.1,0.2l-0.1,0.2l-1.3,1.9l-0.3,0.8l-0.1,0.2l0,0.2l0,0.2l0.1,0.2  l0.1,0.2l0.2,0.3l0,0.2l0,0.4l0.1,0.7l0,1.2l0,0.2l0.1,0.4l0,0.2l0.1,0.3l0.2,0.3l0.3,0.1l0.2-0.2l0-0.2l0-0.8l0.1-0.1l0.4-0.4  l0.1-0.2l0.2-0.8l0.2-0.3l0.4-0.1l-0.1,0.2l-0.1,0.1l-0.2,0.1l-0.1,0.2l-0.1,0.3l-0.1,0.2l0.1,0.5l0,0.3l-0.1,0.1l-0.1,0.1l-0.1,0.1  l-0.1,0.2l0,0.3l-0.1,0.2l0.5,0.2l0.2,0l0.2,0l0.1-0.1l0-0.1l0.2-0.3l0.1-0.4l0.1-0.2l0.9-1l0.3-0.2l0.4-0.1l0.2-0.2l0.2-0.4  l0.3-0.7l0,0.4l-0.1,0.4l-0.2,0.4l-0.3,0.2l-0.1,0l-0.1-0.1l-0.1,0l-0.1,0.1l-0.1,0.1l-0.1,0.2l-0.1,0.1l-0.6,0.6l-0.2,0.2l-0.1,0.2  l0,0.2l-0.1,0.3l-0.1,0.2l-0.2,0.1l-0.2,0.1l-0.1,0.1l-0.2,0.4l0,0.9l-0.1,0.4l0.2,0l0.2,0.2l0.1,0l0.1-0.1l0.2-0.2l0.1,0l0.1-0.1  l0.3-0.7l0.2-0.2l-0.1,0.2l0,0.1l0,0.1l0,0.1l-0.1,0.2l-0.2,0.2l-0.1,0.2l0.1,0.2l-0.3-0.1l-0.1,0.2l0.1,0.3l0.3,0.1l0.3,0.1  l0.6,0.2l0.3,0.1l0.3-0.1l0.2-0.1l0.9-0.7l0.2-0.2l0.1-0.3l0.1-0.6l0.1-0.6l0.1-0.3l0.3-0.6l0.1-0.3l0-0.1l0.2-0.2l0.3-0.4l0.1-0.1  l0.1-0.2l0-0.5l0-0.2l0.1,0l0.1,0l0.1,0l0-0.2l0-0.1l0,0l0,0l0.1-0.1l0.1-0.1l0-0.1l-0.1-0.2l-0.1-0.1l-0.1,0l-0.1-0.1l0-0.2  l0.2-0.7l-0.1-0.3l0.3,0.1l0,0.2l-0.1,0.5l0,0.2l0.2,0.5l-0.1,0.4l-0.4,0.8l-0.1,0.4l0.1,0.1l0.2,0.1l0.3,0.1l0.2,0l0.2-0.1l0.2-0.2  l0.4-0.8l0.1-0.3l0-0.2l0.1-0.2l0.2-0.1l0.4-0.2l0.3-0.1l0.4-0.6l0.5-1.3l0.1-0.7l0-0.3l-0.1-0.3l-0.3-0.6l-0.1-0.3l0-0.4l0.1,0  l0.2,0.1l-0.3-0.6l-0.2-0.6l-0.3-0.5l-0.6-0.3l-0.3-0.1l-0.3,0l-0.2,0.1l-0.2,0.2l0,0.2l0.1,0.3l0,0.2l-0.1,0.1l-0.1,0.1l-0.1,0.1  l0,0.2v-0.3l0.2-0.9l0.1-0.3l0.1-0.1l0.4-0.1l0.1-0.1l0.2-0.2l0-0.1l-0.1-0.6l-0.2-0.5l-0.1-0.5l0-0.2l-0.2-0.2l-0.3-0.2l-0.3,0  l-0.1,0.3l-0.3-0.2l-0.4-0.1l-0.2-0.2l0.3-0.2l0.2,0.2l0.2-0.1l0.1-0.2l-0.3-0.2l0.4-0.1l0.2-0.5l0.1-0.6l0.3-0.4l0.2,0l0.2,0.1  l0.2,0l0.2-0.1l0.1-0.2l-0.1-0.1l-0.2-0.1l0-0.1l-0.1,0l-0.1,0l0,0l0-0.1l0-0.2l0-0.1l-0.3-0.4l-0.3-0.5l-0.2-0.5l-0.1-0.5l0.1-0.3  l0.2-0.1l0.6,0l0.3-0.1l0.2-0.1l0.2-0.2l0.2-0.2h0.1v0.1l-0.1,0.1l-0.1,0.2l0,0.1l0.2,0l0.1-0.1l0.4-0.6l0.1-0.4l-0.1-1l-0.1-0.3  l0.1,0.2l0.1,0.2l0.1,0.1l-0.1-0.6l-0.1-0.3l-0.5-0.7l-0.1-0.1l-1-0.1l-0.2-0.1l-0.4-0.2l-0.5-0.1l-0.1-0.2l-0.1-0.2l-0.1-0.2  l-0.2-0.2l-2-1.2l-0.1-0.2l0-0.2l0.5,0.4l0.6,0.2l3.1,0.6l0.5,0.2l0-0.3l0.1-0.3l0.1-0.2l0.1-0.1l0-0.2l0-1.5l-0.1-0.1l-0.6,0  l-0.3,0l-0.3-0.1l-0.2-0.2l-0.1-0.3l0.4,0.3l0.2,0.1l0.3,0l0.2,0l0.2-0.1l0.1-0.1l-0.1-0.2l0.6-0.2l0.3,0l0.1,0.2l0.1,0l0,0l0,0  l0-0.1l0.1,0.1l-0.4,0.2l-0.2,0.4l-0.1,0.5l0.2,0.7l0.1,0.1l0.2-0.2l0.4-0.1l0.3-0.2l0.2,0l0.3,0.2l0.1-0.3l-0.3-0.2l-0.1-0.2l0-0.1  l0.3,0l0.2,0l0.1,0.1l0.1,0.2l0,0.6l-0.4,0.2l-0.9,0l-0.4,0.2l-0.1,0.4l0,1l0,0.3l0.1,0.5l0.3,0.4l0.4-0.1l0,0.1l0,0l0,0l0.1,0  l-0.2,0.1l0,0.2l0.3,0.6h-0.1l0.1,0.3l-0.1,0.3l-0.2,0.3l-0.1,0.4l0,0.7l-0.2,1l0,0.2l0,0.2l0.2,0.4l1.2,1.6l0.1,0.2l0,0.4l0.1,0.3  l0.1,0.3l0.1,0.3l0.1,0.6l0.2,0.5l0,0.2l0,0.1l0.2,0.3l0.1,0.3l0.1,0.1l0.1,0.1l0.1,0.1l0.2,0.6l0.1,0.1l0.5,0l0.2,0.1l0.1,0.5  l0.2,0.3l0.1,0.2l0.1,0.2l0.4,0.3l0.1,0.2l0.2,0.2l0.5,0l0.5-0.1l0.3-0.2l0-0.3l-0.1-0.5l-0.2-0.5l-0.2-0.2l0.2-0.1l0.1,0.2l0.2,0.5  l0.2,0.3l0.2,0.2l0.2,0.2l0.2,0.2l0.4,0.1l1,0l0.3,0.1l0.1-0.1l0.2,0l0.2,0l0.1,0l0.1-0.1l0.1-0.2l0.1-0.2l0.1-0.2l-0.2-0.3  l-0.4-0.2l-0.9-0.2v-0.1l0.4,0l0.1-0.1l-0.1-0.2l-0.2-0.2v-0.1l0.5,0l0.2,0l0.2,0.1l0,0l0,0.3l0,0.1l0.1,0l0.1,0l0.5,0.1l0,0l0.3,0  l0.3-0.1l0.2-0.1l0-0.2l-0.1-0.1l-0.3-0.1l-0.3-0.1l0.8,0l0.3-0.1l0.2-0.1l0-0.2l-0.3-0.1v-0.1l0.3,0l0.3,0.1l0.2,0.1l0.2,0.2l0-0.4  l0.1-0.4l0.2-0.3l0.3-0.1l0.2-0.2l0.3-0.9l0.1-0.3h0.1l0,0.4l-0.2,0.7l-0.1,0.5l-0.1,0.2l0,0.2l0,0.2l0.1,0.2l0.1,0.1l0.1-0.1  l0.1,0.3l0.2,0.3l0.3,0.3l0.5,0.2l2,2.8l1.1,2.1l0.2,0.6l0.3,1.9l0.2,0.4l0.3,0l0.3-0.2l0-0.3l-0.1-0.1l-0.2-0.1l-0.2-0.1l0-0.3  l0.1-0.2l0.4-0.2l0-0.1l0.3-0.1l0.2-0.2l0.2-0.2l0.1-0.1l0-0.1l0.2-0.6l0-0.3l0.2,0l0.1,0l-0.4,1.2l-0.2,0.3l-0.3,0.2l-0.4,0.1  l-0.3,0.2l0,0.4l0.1,0.1l0.2,0.1l0.1,0.1l0,0.3l-0.1,0.2l-0.1,0.1l-0.1,0.2l-0.1,0.3l0,0.4l0.1,0.4l0.2,0.4l0.2,0.3h0.1v-0.3  l0.1-0.2l0.1,0l0.1,0.2l-0.1,0l-0.2-0.1l0,0.6l0.4,1.7v0.6l0,0.2l0.2,0.3l0.1,0.2l0.1,0.7l0.1,0.3l0.1,0.2l0.1-0.2l0.1-0.1l0.1-0.1  l0.2,0v0.1l-0.2,0.1l-0.2,0.1l-0.1,0.2l0.1,0.2l-0.3,0.1l-0.2,0.4l0,0.4l0.1,0.1l0.2-0.1l0.3-0.1l0.7-0.1v0.1l-0.4,0.2l-0.1,0.3  l0.1,0.1l0.3-0.2l0.1,0.1l-0.2,0.2l-0.2,0l-0.1,0.1l-0.1,0.4l0.1,0.2l0.1,0.2l0.1,0l0.1-0.3h0.1l0,0.2l-0.1,0.3l0,0.3l0.1,0.2l0.3,0  l0.2-0.2l0.2-0.6h-0.1l0.1-0.1l0-0.1l0-0.1l0.1,0.1v0.1l-0.1,0.1l0,0.2l0.1,0l0.1,0.1l0,0.1l-0.1,0.2l0.1,0.2l0,0.1l-0.2,0.3  l0.1,0.3l-0.2,0.2l-0.2,0.2l-0.1,0.2l0,0.3l0.1,0.3l0.2,0.3l0.2,0.2l-0.3-0.1l-0.2,0.2l-0.2,0.3l-0.1,0.3l-0.1,0l0,0l0,0l0-0.1h-0.1  l0,0.3l0.1,0.3l0.1,0.2l0.2,0.1l0.1,0.2l0.9,1.6l0.1,0.3l0,0.4l-0.1,1.1l0,0.4l0.1,0.3l0.7,0.8l0.2,0.3l0.3,0.5l0.2,0.2l0.8,0.7  l0.1,0.2l0.3,1.1l1.1,1.9l0.4,0.9l0.1,0.2l0.1,0.1l0.1,0.1l0.1,0.1l0.1-0.1l0-0.2l0-0.2l-0.1-0.2l-0.3-0.9l0-0.3l-0.1-0.2l-0.5-0.7  l-0.2-0.6l-0.1-0.7l0-0.7l0.1-0.6l-0.6-0.5l-0.1-0.3l-0.1-0.2l-0.4-0.3l-0.1-0.2l-0.1-0.3l0.1-0.3l0.1-0.5l0-0.3l-0.1-0.7l0-0.3  l0.1-0.3l0.4-0.6l0.2-0.7l0.2-0.3l0.3,0l0.5,0l0.6-0.7l0.5,0.2l0.2,0.3l0.1,0.3l0,0.3l0.1,0.3l0.1,0.1l0.2,0.1l0.4,0.1l0.7,0.1  l0.5-0.1l0.4,0.1l0.3,0.7l0.1,0.7l0.1,0.3l0.2,0.2l0.3,0l0.4-0.2l0.3-0.3l0.1-0.3L-374.9,425.3z M-386.9,416.9l0.2-0.4l0.1-0.3  l0-0.2l-0.2-0.6l0-0.1l0-0.1l-0.1-0.1l-0.4,0.4l-0.1,0.2l-0.1,0.3l0.1,0.9l-0.2,1.4l0.1,0.3l0.1-0.2l0.3-0.9L-386.9,416.9z   M-393.3,403.7l-0.1-0.1l-0.3-0.3l-0.1,0.1l0,0.1l0,0.1l0.1,0.2l0,0l0,0l0,0.1l-0.3,1.3l0,0.6l0.2,0.7l0.6,1l0.4,0.4l0.5,0.1  l0.8-0.7l-0.4-1.3L-393.3,403.7z M-385.4,421.9l0-0.4l0.1-0.7l0-0.4l-0.1-0.7l-0.6-1.1l0-0.8l0-0.1l0-0.3l-0.3,0.1l-0.3,0l0.1,0.4  l0,0.4l-0.1,0.4l-0.2,0.3l0-0.2l0.1-0.3l0.1-0.3l-0.1-0.2l-0.2-0.2l-0.2,0l-0.1,0.2l-0.1,0.3l-0.1,0.6l0.3,1.1l0.1,0.7l0,0.4l0,0.2  l-0.2,0.4l0,0.1l0.1,0.1l0.1,0.3l0.1,0.1l0.1,0.1l0.2,0l0.2-0.1l0-0.1l-0.1-0.1v-0.1l0.3,0l0.4,0.1l0.3,0L-385.4,421.9z   M-397.5,406.3l-0.2-0.1l-0.2-0.1h-0.1l0,0.4l0.1,0.4l0.1,0.3l0.2,0.1l0.2-0.1l0-0.3l-0.1-0.3L-397.5,406.3z M-407.8,391.2l-0.7-0.4  l-0.6-0.2l-0.4,0l0,0.2l0.2,0.2l0.5,0.5l0.3,0.2l0.3,0.1l0.3-0.1l0.1-0.2l0.3,0.1l0.6,0.4l-0.1-0.4L-407.8,391.2z M-397.9,408.6  l-0.1-0.5l-0.2-0.4l-0.1-0.4l0-0.2l-0.5-0.8l-0.1-0.2l0-0.1l-0.2-0.2l-0.1-0.1l0-0.1l0.1-0.3l0-0.2l-0.3-0.1l-0.1,0.4l0,0.5l0.1,0.3  l-0.1,0.1l-0.1,0.5l-0.1,0.6l0,1.2l-0.2,1.6l0.1,0.4l-0.1,0.3l-0.2,0.9l-0.1,0.1l-0.1,0.2l-0.1,0.2l0.1,0.1l0.2,0l0.1-0.1l0.1-0.1  l0.3-0.1l0.2-0.2l0.2-0.3l0.2-0.2l0.5-0.2l0.2-0.1l0.1-0.2l0-0.3l0.2-0.7l0.1-0.3l0-0.4L-397.9,408.6z M-400.7,409.2l0.1-0.3l0-0.3  l-0.1-0.3l-0.1-0.3l-0.1-0.1l-0.2,0.3l-0.1,0.4l-0.1,0.8l-0.1,0.2l-0.2,0.3l-0.1,0.2l0.2,0.1L-400.7,409.2z M-401.3,410.4  L-401.3,410.4l-0.1,0.1l-0.1-0.1l-0.1,0.4l-0.1,0.5l0,0.5l0.2,0.3l0.3-0.1l0.1-0.4v-0.9L-401.3,410.4L-401.3,410.4z M-400.8,409.6  l-0.1,0.3l0,0.9l0.2-0.2l0.1-0.3l0-0.4l0-0.3L-400.8,409.6z M-408.2,395.9l-0.1,0.1l-0.1,0l-0.6,0l0.1,0.2l0.1,0.7l0.1-0.1l0.3-0.4  l0.2-0.2l0-0.1L-408.2,395.9z"/></svg>