<svg xmlns="http://www.w3.org/2000/svg" xmlns:xlink="http://www.w3.org/1999/xlink" version="1.1" x="0px" y="0px" viewBox="-461 335 100 100" fill="#999999" style="enable-background:new -461 335 100 100;" xml:space="preserve"><polygon points="-383.1,390 -389.6,387.9 -394.7,385 -409.7,373.6 -414.1,367.5 -424.4,345.2 -429,338.3 -435.1,335 -441.2,337.3   -445.9,342.1 -448.3,346.6 -448.9,351.9 -446.2,397.8 -441.9,412.9 -438.1,420.4 -433.6,423.6 -426.5,424.1 -419,425.9   -412.8,429.4 -409.5,435 -407.2,433.5 -405.2,433.2 -403,433.2 -400.4,432.9 -393.3,425.7 -382.7,418.4 -374.1,409.5 -373.1,397.8   -376.9,392.9 "/></svg>