<svg xmlns="http://www.w3.org/2000/svg" xmlns:xlink="http://www.w3.org/1999/xlink" version="1.1" x="0px" y="0px" viewBox="-461 335 100 100" fill="#999999" style="enable-background:new -461 335 100 100;" xml:space="preserve"><polygon points="-361,390.8 -361.2,390.4 -361.3,390.4 -361.6,390.5 -361.8,390.5 -361.8,390.3 -361.7,390.2 -361.7,390   -361.9,389.9 -362.1,389.9 -362.2,389.9 -362.3,390.1 -362.4,390.1 -362.5,390.1 -362.6,389.9 -362.7,389.6 -363,389.4   -363.5,389.2 -363.8,389 -364,388.7 -364.2,388.4 -364.3,387.9 -364.3,387.6 -364.3,387.4 -364.2,387.4 -363.5,386.9 -363.4,386.8   -363.4,386.7 -363.4,386.6 -363.5,386.4 -363.7,386.2 -363.9,386 -364.1,386 -364.6,386 -364.7,385.9 -365.1,385.5 -365.4,385.2   -366.8,384.8 -367.4,384.4 -367.6,384.3 -369.8,384.9 -370.7,384.6 -371.2,384.6 -371.1,384.2 -370.7,383.5 -370.5,383.1   -370.3,382 -370.2,381.6 -370.2,381.5 -370.2,381.4 -370.2,381.2 -370.1,381.1 -370.3,380.1 -370.3,380.1 -370.4,380 -370.4,379.9   -370.5,379.9 -370.8,380.1 -370.9,380.1 -371,379.9 -371.1,379.6 -371.1,379.4 -371.3,379.3 -371.4,379.2 -371.7,379.2 -372,379.1   -372.9,378.6 -373.4,378.5 -373.7,378.4 -373.9,378.2 -375.6,376.9 -375.7,376.6 -375.9,376.1 -375.9,375 -376,374.8 -376.1,374.6   -376.3,374.4 -376.4,374.2 -376.6,373.3 -376.8,372.9 -377.1,372.8 -377.2,372.6 -378,372.4 -378.3,372.1 -378,371.3 -377.5,370.5   -377.2,369.8 -377.6,369.5 -377.9,369 -378.8,368.9 -379,368.9 -379,368.6 -379.2,368.3 -380.8,367.1 -381.2,367 -381.4,366.8   -381.5,366.5 -381.4,366 -381.2,365.7 -381,365.5 -380.8,365.2 -380.8,364.7 -380.9,364.5 -380.9,364.3 -380.7,364.1 -380,363.9   -379.9,363.8 -379.7,363.4 -379.7,363.2 -379.9,363 -380,362.7 -379.9,362.5 -379.7,362.5 -379.2,362.6 -378.9,362.5 -378.9,362.2   -379.1,361.7 -379.2,361.4 -379.3,361.2 -379.3,361.1 -379.3,361 -379.2,360.9 -379.2,360.7 -379.2,360.6 -379.2,360.5   -379.3,360.4 -379.3,360.4 -379.4,360.3 -379.4,360.3 -379.5,360.2 -379.4,360.1 -379.4,360 -379.6,359.8 -380,359.4 -380.2,359.2   -380.4,358.5 -380.5,358.3 -380.9,358.1 -381,358 -381.2,357.7 -381.1,357.4 -381,357 -380.6,356.5 -380,356.1 -379.9,355.8   -379.9,355.5 -380,355.2 -380.2,355 -380.3,354.7 -380.2,354.4 -379.9,354.2 -379.8,353.9 -379.9,353.9 -380.1,353.8 -379.8,353.1   -379.9,352.5 -380.2,351.9 -380.6,351.7 -381.1,351.9 -381.4,352.1 -381.7,352 -382,351.4 -382.1,351.1 -382.2,351 -382.4,350.9   -382.8,350.9 -383,350.9 -383.2,350.7 -383.4,350.5 -383.4,350.3 -383.3,350.2 -383.3,350 -383.3,349.7 -383.4,349.6 -383.5,349.5   -384.5,349.1 -384.6,348.9 -384.5,348.8 -384.5,348.6 -384.5,348.5 -384.6,348.4 -386.6,347.7 -386.8,347.5 -387.2,347.2   -387.4,347.1 -387.6,347.3 -388.1,347.7 -388.4,347.8 -389.6,347.4 -390,347.3 -390.4,347.4 -390.8,347.7 -391.1,348 -391.5,348.8   -391.8,348.9 -392.5,348.7 -392.8,348.8 -393.8,349.4 -394.6,350.4 -394.9,350.4 -395.1,350.3 -395.6,349.6 -396.1,349.1   -396.3,348.9 -396.3,348.5 -396.3,348.2 -396,347.6 -396,347.4 -395.9,346.9 -395.9,346.7 -395.8,346.6 -395.7,346.5 -395.7,346.5   -395.6,346.4 -395.5,346.4 -395.4,346.4 -395.3,346.4 -395.3,346.3 -395.3,346.1 -395.4,345.9 -395.6,345.7 -395.8,345.5   -396,345.4 -397.6,344.9 -397.9,344.7 -398.4,344.3 -399,344.1 -399.6,344.1 -400.1,344.3 -400.7,344.7 -401.4,345 -401.7,345.3   -401.7,345.7 -401.9,345.7 -402.7,345.5 -403,345.3 -403.1,344.9 -403.2,344.5 -403.3,344 -403.4,343.8 -403.7,343.3 -403.9,343   -404,342.9 -404.2,342.8 -404.8,342.7 -406.3,342.9 -406.6,343 -406.9,343.6 -407.1,343.7 -407.4,343.6 -407.6,343.4 -407.9,343   -408.6,342.1 -408.8,341.8 -409.2,341.5 -409.7,341.7 -410.1,342 -410.6,342.3 -411,342.3 -411.1,342.4 -411.3,342.6 -411.4,342.8   -411.5,343 -411.6,343.3 -412.3,343.8 -412.7,344.2 -412.7,344.6 -413,345.2 -414.1,345.9 -414.4,346.7 -414.4,347.6 -414.5,348   -414.6,348.3 -414.9,348.3 -416.2,348.2 -416.6,348.1 -416.9,347.9 -417.2,347.6 -417.4,347.9 -417.9,348.3 -418.1,348.4   -418.4,348.3 -419,347.7 -419.2,347.6 -419.7,347.5 -421,347.7 -421.3,347.8 -421.9,348.6 -422.5,349.7 -422.7,349.9 -423.5,350.4   -423.8,350.4 -424.3,350.2 -424.6,350.1 -424.8,350.3 -425.1,350.7 -425,351.1 -424.9,351.6 -425,352.1 -425.1,352.5 -425.3,352.8   -425.5,353.1 -425.7,353.5 -425.8,353.9 -425.6,354.3 -425.6,354.5 -426,354.9 -426.1,355.1 -426.2,355.8 -426.3,355.9   -426.5,356.4 -426.6,356.7 -426.6,356.9 -426.4,357.1 -425.8,357.3 -425.6,357.3 -425,357.1 -423.3,357.4 -423,357.6 -422.9,357.9   -423.1,358.2 -423.3,358.4 -424,358.6 -424.1,358.7 -424.4,359 -424.6,359.2 -424.7,359.4 -424.8,359.9 -424.9,360.5 -425,360.7   -425.3,360.8 -426.4,360.3 -426.5,360.3 -426.6,360.4 -426.7,360.5 -426.7,360.6 -426.8,360.6 -426.9,360.6 -428.1,360.3   -428.6,360.4 -428.9,360.9 -428.9,361.1 -428.9,361.6 -428.9,361.8 -429,361.9 -429.4,362.8 -429.7,363.3 -429.9,363.5   -430.2,363.7 -431.5,364 -431.7,364 -432.1,363.9 -432.3,363.9 -432.7,364.1 -432.8,364.2 -432.9,364.3 -432.9,364.5 -432.9,364.7   -433.2,364.9 -433.4,365.1 -433.6,365.3 -433.7,365.7 -433.7,365.8 -433.6,366.2 -433.6,366.3 -433.7,366.5 -433.7,366.5   -433.8,366.5 -433.9,366.5 -434.1,366.8 -434.2,366.9 -434.2,367.2 -434.2,368.1 -434.2,368.3 -434.3,368.5 -434.3,368.6   -434.4,368.8 -434.4,369 -434.3,369.4 -434.1,370 -434,370.4 -434,370.7 -434.2,371 -434.4,371.2 -435,371.6 -435.2,371.8   -435.3,372.2 -435.3,372.6 -435.3,373 -435.4,373.4 -435.6,373.8 -436,374.3 -436.2,374.7 -436.2,375.2 -436.1,375.4 -435.9,375.5   -435.4,375.5 -434.8,375.1 -434.6,375.1 -434.5,375.2 -434.4,375.3 -434.4,375.5 -434.3,375.8 -434.2,375.9 -434.2,375.9   -434.1,375.9 -434,375.9 -433.9,376 -433.8,376.1 -433.8,376.3 -433.7,376.5 -433.7,376.5 -433.6,376.6 -433.6,376.6 -433.5,376.7   -433.6,376.8 -433.7,377 -433.7,377 -433.7,377.8 -433.8,378.1 -434.1,378.3 -434.2,378.3 -434.6,378.3 -434.7,378.3 -434.9,378.6   -435,378.6 -435.2,378.6 -436.1,378.5 -436.4,378.3 -436.6,378.1 -436.7,377.8 -436.6,377.7 -436.3,377.6 -436.3,377.4   -436.3,377.3 -436.6,377.1 -436.6,377 -436.4,376.9 -436.1,376.9 -436,376.8 -436.8,375.8 -436.8,375.7 -436.9,375.6 -437,375.6   -437.3,375.7 -437.7,376.4 -438,376.5 -438.8,376.6 -439.5,376.3 -439.7,376.4 -439.8,376.6 -440,377.4 -440.2,377.8 -440.6,378.3   -441.1,378.6 -441.5,378.7 -442.4,378.4 -442.8,378.3 -443.3,378.3 -443.7,378.6 -443.7,378.7 -443.7,378.8 -443.7,378.9   -443.7,379 -443.9,379.1 -444,379.2 -444.1,379.2 -444.1,379.3 -444,379.6 -443.9,379.9 -443.8,380.2 -443.7,380.6 -443.7,381.1   -443.8,381.4 -444,381.5 -444.7,381.6 -444.9,381.6 -445,381.4 -445.2,381.1 -445.2,381 -445.2,381 -445.3,381 -445.5,381.2   -446.2,381.4 -446.7,381.7 -447.9,382.7 -448.3,382.9 -448.7,382.9 -449,382.8 -449.4,382.8 -449.6,382.8 -449.7,382.6   -449.9,382.1 -450.2,381.8 -450.5,381.6 -450.8,381.7 -451.5,382.1 -451.8,382.1 -452.5,382.1 -452.6,382.1 -452.9,381.9   -453.1,381.8 -453.2,381.9 -454,382.3 -454.1,382.3 -454.2,382.3 -454.4,382.2 -454.5,382.2 -454.6,382.3 -454.8,382.4   -455.5,382.5 -456,382.7 -456.1,382.7 -456.3,382.7 -457.3,382.1 -457.6,382 -457.6,382.5 -457.5,383 -457.4,383.4 -457.3,383.8   -457.2,384.7 -457.1,385.1 -456.8,385.5 -456.8,386.6 -456.5,387.8 -455.6,390.5 -455.1,391.6 -454.9,392.1 -454.5,393.7   -454.3,394.2 -454.1,394.5 -454,394.7 -454,395 -453.8,395.3 -453.6,395.5 -453.5,395.6 -453.4,395.8 -453.4,396.3 -453.5,396.5   -453.6,396.7 -453.7,397 -453.7,397.3 -453.6,397.6 -453.3,398 -453.2,398.2 -453.2,398.4 -453.2,398.6 -453.2,398.7 -453.1,399.2   -453.1,399.3 -453.1,399.4 -453.3,399.7 -453.3,399.8 -453.3,400 -453.2,400.1 -453.2,400.2 -453.2,400.3 -453.1,402.9   -453.2,403.7 -453.6,404.2 -455,405.1 -456.8,405.6 -457.7,406.2 -458.6,406.9 -459.9,408.9 -460.3,409.4 -460.5,409.7 -461,410.7   -461,410.7 -460.8,410.8 -460.7,411 -460.7,411.2 -460.7,411.5 -460.5,411.7 -459.8,411.9 -459.6,411.8 -459.4,412 -458.8,412.2   -458.6,412.2 -458.6,412.3 -458.7,412.5 -458.6,412.5 -458.5,412.5 -458.4,412.5 -458.3,412.6 -458.2,412.6 -458,412.5 -458,412.5   -457.9,412.6 -457.8,412.7 -457.6,412.5 -457.6,412.7 -457.6,412.9 -457.7,412.9 -457.4,413.5 -457.2,413.6 -456.7,413.6   -456.5,413.7 -456.4,413.8 -456.4,414 -456.3,414.1 -456.2,414.1 -456.1,414.2 -456,414.4 -456,414.6 -455.9,414.8 -455.8,415.4   -455.7,415.7 -455.8,415.9 -456,416.1 -456.2,416.5 -456.2,416.9 -456.2,417.4 -456.3,417.6 -456.3,417.6 -456.3,417.6   -456.2,417.6 -456.2,417.7 -456.4,417.8 -456.4,418.1 -456.5,418.3 -456.4,418.6 -456.2,418.8 -456.3,419.2 -456.5,419.4   -456.7,419.6 -456.9,419.8 -456.9,419.9 -456.9,420.1 -457,420.5 -457,420.6 -456.9,420.7 -456.9,420.8 -457,420.8 -457,420.9   -457,421 -456.9,421.1 -456.9,421.2 -457,421.3 -457.1,421.4 -457.2,421.4 -457.2,421.5 -457,421.6 -457,421.8 -457.1,422.3   -457,422.5 -456.9,422.7 -456.7,423.1 -456.8,423.1 -456.9,423.1 -456.7,423.4 -456.6,423.4 -456.4,423.5 -456.4,423.8   -456.3,423.8 -456.2,423.8 -456.1,423.6 -456.2,423.4 -456.4,422.6 -456.5,422.5 -456.5,422.3 -456.4,422.1 -456.3,422   -456.1,421.9 -455.1,421.7 -454.9,421.7 -454.1,421.9 -453.9,421.9 -453.4,422.1 -453.2,422.4 -452.9,422.7 -452.4,422.6   -450.9,421.2 -449.7,420.4 -449.4,420 -449.1,418.9 -449,418.6 -448.6,418 -448.4,417.8 -448.2,417.7 -445.6,417.5 -444.9,417.6   -444.7,417.6 -441.8,417.2 -440.8,416.7 -440.3,416.5 -439.9,416.5 -438.1,417 -434.6,417 -433.8,416.9 -431.5,417.3 -430.8,417.3   -430.5,417.3 -429.8,417.9 -429.5,418 -427.1,418.1 -426.9,418.2 -426.9,418.3 -427,418.5 -426.9,418.6 -426.8,418.8 -426.7,418.9   -424.4,419 -422.4,419.9 -421.7,420 -420.6,419.6 -419.7,419.6 -419.3,419.7 -419,419.9 -418.9,420.2 -419,420.5 -419,421   -418.9,421.3 -418.7,421.4 -418.5,421.5 -418.3,421.4 -418,421.5 -418,421.8 -418.1,422.2 -418.2,422.5 -418.1,422.6 -417.8,422.6   -417.4,422.4 -416.8,422.5 -416.6,422.5 -416.4,422.4 -416.1,422.1 -415.9,422 -415.5,422 -414.4,422.5 -413.8,422.5 -413.6,422.6   -413.5,422.9 -413.6,423.3 -413.9,424.2 -413.8,424.3 -413.7,424.5 -413.5,424.6 -413.4,424.7 -413.2,424.6 -413.1,424.5   -412.6,423.9 -412.6,423.8 -412.5,423.6 -412.5,423.4 -412.6,423.2 -412.6,423 -412.5,422.6 -412.4,422.4 -412.2,422.2   -411.9,422.1 -411.7,422.2 -411.1,422.9 -410.9,423 -410.7,423.1 -409.7,423.1 -409.5,423 -409.2,422.8 -408.9,422.2 -408.7,421.9   -408.5,421.7 -408.2,421.5 -408,421.6 -407.9,421.7 -407.8,421.9 -407.8,422 -407.8,422.2 -407.7,422.4 -407.6,422.5 -407.3,422.7   -407.2,422.8 -407.1,423 -407,423.5 -406.9,423.6 -406.8,423.7 -406.6,423.6 -406.4,423.3 -405.8,423 -405.6,422.9 -405.3,422.9   -404.3,423.1 -404.1,423.2 -404,423.4 -403.9,423.7 -403.8,424.7 -403.7,424.9 -403.6,425.1 -403.4,425.2 -403.3,425.1 -403.2,425   -403,425 -402.9,425.2 -402.9,425.5 -402.8,425.7 -402.6,425.5 -402.5,425.2 -402.5,424.6 -402.5,424.3 -402.3,423.9 -402,423.5   -401.7,423.3 -401.4,423.1 -401.1,423 -400.4,423 -400.1,422.9 -399.9,422.7 -399.7,422.2 -399.5,421.9 -399.3,421.9 -399.1,421.9   -398.6,422 -398.4,422.1 -398.3,422.3 -398,422.9 -397.7,423.5 -397.6,423.7 -397.5,424.2 -397.6,424.6 -397.6,424.8 -397.4,424.9   -397.2,425.2 -397.1,425.5 -397,425.9 -396.8,426.2 -396.6,426.3 -396.4,426.2 -396,425.9 -395.7,425.8 -395.3,426 -395.1,426   -394.9,425.7 -394.8,425.3 -394.7,425.1 -394.5,425 -394.2,425 -394,424.9 -393.8,424.7 -393.7,424.5 -393.4,424.3 -393.2,424.2   -393,424.1 -392.8,424.2 -392.6,424.3 -392.4,424.6 -392.3,424.9 -392.2,425 -391.2,425.2 -391.1,425.1 -390.9,425 -390.8,424.7   -390.6,424.6 -390.5,424.6 -390.4,424.7 -390.2,424.7 -389.6,424.4 -389.4,424.3 -387.9,424.3 -387.6,424.4 -387.3,424.6   -386.9,425.1 -386.8,425.3 -386.3,425.6 -386.1,425.7 -386.1,425.8 -386.1,425.9 -386.1,426.1 -386.1,426.2 -386.1,426.4   -386.2,426.7 -386.2,426.7 -386.1,426.9 -385.8,427.3 -385.6,427.4 -385.5,427.5 -385.2,427.5 -385,427.5 -384.9,427.7 -384.6,428   -384.5,428.1 -384.3,428.1 -384.2,428.1 -384.1,428.2 -383.9,428.3 -383.9,428.5 -383.7,428.5 -383.7,428.4 -383.7,428   -383.6,427.9 -383.5,427.6 -383.4,427.3 -383.1,427.1 -382.8,426.8 -382.9,426.3 -382.8,426.3 -382.8,426.2 -382.9,426.1   -382.9,426 -383,425.5 -383.1,425.4 -383.2,425.3 -383.3,425.3 -383.4,425.3 -383.4,425.1 -383.4,424.9 -383.3,424.8 -383.2,424.7   -383.1,424.7 -383.1,424.6 -383.2,424.6 -383.3,424.5 -383.3,424.4 -383.4,424.2 -383.3,424 -383.4,423.9 -383.5,423.8   -383.6,423.7 -383.5,423.6 -383.5,423.6 -383.4,423.4 -383.6,423.3 -383.9,423.2 -384,423 -384,422.9 -384,422.9 -383.9,422.8   -383.9,422.8 -383.8,422.8 -383.8,422.7 -383.9,422.6 -384.1,422.4 -384.1,422.3 -383.8,422.1 -383.7,422 -383.7,421.8   -383.7,421.8 -383.7,421.7 -383.6,421.6 -383.5,421.5 -383.6,421.3 -383.5,420.9 -383.5,420.7 -383.4,420.7 -383.1,420.7   -383,420.6 -382.9,420.5 -382.9,420.2 -382.8,420.1 -382.7,419.9 -382.7,419.8 -382.8,419.8 -383,419.7 -382.9,419.5 -382.6,419.4   -382.4,419.2 -382.4,418.9 -382.5,418.7 -382.5,418.7 -382.5,418.6 -382.4,418.5 -382.2,418.2 -382.1,418.1 -382.1,418.1 -382,418   -382,417.9 -381.8,417.8 -381.7,417.6 -381.7,417.4 -381.7,417.3 -381.6,417.3 -381.3,417.3 -381.2,417.3 -381.1,417.2 -381,417   -381,416.9 -381,416.8 -381.1,416.7 -381.1,416.7 -380.8,416.5 -380.6,416.4 -380.5,416.3 -380.4,416.2 -380.3,416.1 -380.3,416   -380.3,415.9 -380.2,415.8 -380.2,415.7 -380.1,415.7 -380,415.6 -379.9,415.7 -379.9,415.8 -379.6,415.8 -379.5,415.5   -379.6,415.3 -379.9,415.3 -379.9,415.2 -379.8,415.1 -379.8,415 -379.8,414.9 -379.8,414.6 -379.7,414.5 -379.4,414.4 -378,414.3   -377.6,414.3 -377.3,414.5 -376.8,414.9 -376.6,415 -376.3,414.9 -376.2,414.6 -376,414.3 -375.8,414 -375,413.6 -374,413.6   -372.2,414 -371,413.9 -371,413.4 -371,413.1 -371.2,412.8 -371.7,412.5 -371.8,412.4 -371.9,412.2 -371.9,412 -371.9,411.7   -371.8,411.5 -371.7,411.3 -371.9,411.3 -372.2,411.2 -372.4,411.1 -372.6,411 -372.8,410.8 -373.1,410.3 -372.9,410.2 -372.8,410   -372.7,409.8 -372.7,409.6 -372.7,409.3 -372.7,409.1 -372.9,409 -372.9,408.8 -372.9,408.3 -372.9,407.8 -372.9,407.4   -373.1,407.2 -373.2,407.1 -373.3,406.9 -373.2,406.8 -373,406.7 -373.1,406.5 -373.2,406.4 -373,406.4 -372.6,406.5 -372.5,406.4   -372.4,406.3 -372.6,406.1 -373,405.8 -373.1,405.5 -373.4,404.8 -373.9,404.2 -374,404 -373.3,403.6 -373,403.2 -373,402.5   -373.1,402.2 -373.2,402 -373.4,401.9 -373.5,401.7 -373.6,401.4 -373.6,401.2 -373.7,401.1 -374,401 -374.3,400.9 -374.6,400.7   -374.9,400.4 -375.2,400.1 -375.4,399.2 -375.6,398.9 -376.4,398.2 -376.2,398 -375.6,397.2 -375.5,397.1 -375.3,397.1   -375.2,396.9 -375.1,396.8 -375.2,396.6 -375.2,396.4 -375.2,396.2 -375,395.3 -374.6,395 -374.1,395 -373.6,395.1 -373.4,395.1   -373,394.9 -372.8,394.8 -372.6,394.8 -371.9,395.1 -371.7,395.1 -371.3,395.1 -371.1,395.2 -370.9,395.5 -370.8,396.3   -370.7,396.5 -370.5,396.6 -370.2,396.5 -370,396.6 -369.5,396.9 -369.3,397 -369,396.9 -368.7,396.8 -368.4,396.7 -367.7,397   -367.3,397 -367.2,397 -367,396.8 -366.6,396.7 -366.5,396.7 -366.4,396.7 -366.4,396.7 -366.4,396.6 -366.4,396.5 -366.4,396.5   -366.4,396.4 -366.3,396.3 -366.3,396.3 -365.7,396.3 -365.4,396 -365.2,395.6 -364.8,395.3 -364.5,395.2 -364.3,395.1   -364.1,394.9 -363.8,394.3 -363.6,394 -363.5,393.7 -363.8,393.6 -363.9,393.4 -363.8,393.2 -363.5,393.1 -363.2,393.3   -362.9,393.3 -362.6,393.3 -362.3,393.1 -362.3,393 -362.4,392.9 -362.5,392.8 -361.7,392.7 -361.6,392.7 -361.4,392.8   -361.2,392.8 -361,392.6 -361.2,392.1 "/></svg>