<svg xmlns="http://www.w3.org/2000/svg" xmlns:xlink="http://www.w3.org/1999/xlink" version="1.1" x="0px" y="0px" viewBox="-345 257 100 100" fill="#999999" style="enable-background:new -345 257 100 100;" xml:space="preserve"><polygon points="-245.1,314.3 -245.9,312.7 -246,312.3 -245.8,311.7 -245.8,311.7 -245.6,310.7 -245.6,310.2 -245.6,310.1   -245.6,310 -245.7,309.9 -245.7,309.9 -245.8,309.9 -246,309.6 -246.1,309.5 -246.2,309.1 -246.3,308.8 -246.3,308.7 -246.3,308.5   -246.3,308.5 -246,308.2 -246.5,308.1 -247.6,307.9 -248,307.7 -248,307.6 -248.1,307.6 -248.2,307.6 -248.2,307.6 -248.3,307.7   -249.1,307.9 -249.3,307.9 -249.4,307.8 -249.5,307.7 -249.7,307.4 -249.7,307.2 -249.8,307.2 -250,307.1 -249.8,306.7   -250.1,306.7 -250.3,306.6 -250.3,306.4 -250.1,306.1 -250.5,305.6 -250,304.8 -249.7,304.6 -249.2,304.1 -248.6,303.6   -248.6,303.4 -248.3,303.1 -248.2,303 -248.1,302.7 -248.1,302.5 -249.9,302.4 -250.5,302.2 -250.7,301.5 -250.4,301.3   -251.7,299.3 -252,298.9 -252.5,298.4 -252.9,298.4 -254,298.7 -254.3,298.7 -254.4,298.5 -254.4,298.3 -254.3,297.9 -254.3,297.8   -254.4,297.5 -254.5,297.4 -254.8,297.3 -254.8,297.2 -254.8,297.1 -254.8,297 -254.8,297 -255.1,297.1 -255.3,297.1 -257.2,297   -257.2,297 -257.4,297 -256.9,297.6 -257,297.7 -257.5,297.1 -257.8,297 -260,297.1 -260.3,296.9 -260.9,296.3 -261,296.3   -261.1,296.2 -261.4,296.4 -261.4,296.5 -261.5,296.7 -261.5,296.7 -261.7,296.9 -261.8,296.9 -262,297 -262.1,297 -262.3,296.9   -262.5,296.8 -262.6,296.7 -262.7,296.7 -262.8,296.7 -262.6,296.1 -262.5,295.7 -262.5,295.6 -262.5,295.2 -262.8,295.1   -262.9,295.1 -263.2,294.9 -263.3,294.9 -263.4,294.9 -263.5,294.8 -263.4,294.8 -263.9,294.5 -264.2,293.9 -264.3,293.8   -264.3,293.5 -264.4,292.9 -264,292.5 -262.5,290.8 -262.4,290.8 -262.2,290.7 -261.9,290.6 -261.7,290.5 -261.4,290 -261,289   -260.7,288.7 -260.7,288.5 -260.9,288.4 -261.2,288.4 -261.7,288.5 -260.7,286.9 -260.3,285.9 -260.7,285.4 -260.6,285.1   -260.6,284.9 -260.6,284.7 -260.5,284.5 -260.3,284.3 -260,284.6 -259.8,284.3 -259.8,284.3 -259.7,284 -259.5,283.5 -259.5,283.5   -259.6,283.3 -259.6,283.2 -259.6,283 -259.7,282.9 -259.4,282.9 -259.1,282.9 -258.9,282.8 -258.8,282.8 -258.8,282.8   -258.6,282.7 -259.2,282 -259.1,281.6 -259,281.4 -258.8,281.2 -258.8,281 -259.1,280.5 -259.5,280.5 -259.9,280.5 -260.3,280.6   -260.3,280.6 -260.6,280.4 -261.2,279.6 -261.6,279.3 -261.7,279.3 -261.9,279.3 -262.4,279.4 -263,279.5 -263.5,279.5   -263.6,279.4 -263.8,279.3 -264,279 -264.2,278.9 -264.4,278.7 -265.9,278.3 -266.4,277.8 -266.5,276.9 -266.7,276 -266.8,275.9   -267.2,275.4 -267.6,275.2 -267.8,275.1 -268.4,275 -268.8,275.2 -268.9,275.2 -270,276 -270.6,276.2 -273.6,276 -274.6,276.3   -274.6,276.3 -275.1,276.2 -275.1,274.7 -275.5,274.1 -275.9,274.1 -276,274.1 -277,274.2 -277.4,273.9 -277.5,273.9 -277.5,273.9   -277.6,273.7 -277.9,272.7 -278,272.4 -278.9,271.4 -279.1,271 -279,270.5 -279,270.1 -278.7,269.4 -278.6,268.7 -278.9,268.1   -279.1,267.8 -279.9,267.2 -279.9,267.2 -279.9,267.1 -280.3,267.2 -280.5,267.5 -280.5,267.6 -280.6,267.9 -280.7,268.1   -280.8,268.3 -281,268.7 -281.2,269 -281.4,269.3 -281.8,269.8 -282.1,270.2 -282.4,270.5 -283,270.7 -283.5,270.4 -284,270.2   -284.3,270.1 -284.5,270 -286.3,270 -286.9,269.7 -286.7,269.3 -286.4,269.2 -285.3,269.7 -285.3,269.4 -285.4,269 -285.5,268.8   -285.4,268.4 -285.4,268.1 -285.3,267.8 -285.3,267.1 -285.6,266.8 -285.9,266.5 -286.1,266.5 -286.3,266.4 -286.5,266.3   -286.9,266.3 -287.7,266.7 -289.7,269.2 -290,269.4 -290.4,269.5 -290.8,269.5 -291.6,269.3 -292.2,269.4 -292.4,269.4   -292.5,269.4 -292.7,269.4 -293,269.2 -293.2,269.1 -293.2,268.9 -293.1,268.7 -292.9,268.1 -292.9,267.5 -293.1,267.1 -293.4,267   -293.5,267 -294.2,267.2 -294.7,267.4 -295.6,267.7 -297,268.5 -296.6,268.8 -296.7,269.1 -296.9,269.4 -296.9,269.9 -296.7,270.1   -296.7,270.2 -296.1,271 -295.9,271.3 -295.9,271.3 -296,271.9 -296,272.1 -296.5,272.3 -296.7,272.3 -297.7,272.3 -297.9,272.2   -298.2,272.1 -298.9,271.7 -299.2,271.6 -299.9,271.5 -299.5,272 -299.3,272.4 -299.2,272.8 -299.3,273.7 -299.2,274 -299,274.2   -298.1,274.6 -298.5,275.4 -298.7,275.6 -298.8,275.6 -298.9,275.7 -298.7,275.4 -298.7,275.1 -298.7,274.8 -298.8,274.5   -299.1,274.2 -299.6,273.7 -300,273.2 -300.2,272.5 -300.4,272.1 -300.9,271.6 -300.9,271.6 -300.9,271.8 -301.1,272.7   -301.1,272.8 -301.2,273.1 -302.2,274.5 -303.6,275.6 -306.7,277.2 -307.8,278 -307.9,278.1 -308.1,278.2 -308.5,278.3   -311.6,278.4 -311.6,278.4 -311.9,278.2 -312.3,277.8 -312.3,277.3 -312.3,276.9 -312.4,276.3 -312.9,276 -316.1,275 -316.7,274.9   -317.3,274.9 -317.4,274.9 -318.4,275.1 -318.9,275.2 -319.2,275.3 -319.2,275.3 -319.5,275.6 -319.6,275.9 -319.6,276   -319.5,276.6 -319.5,276.8 -319.6,277 -319.8,277 -320.8,277.2 -321.1,277.1 -321.7,277.1 -322,276.9 -322.3,276.8 -322.4,276.7   -323.1,276 -323.2,275.7 -323.4,275 -323.4,274.1 -323.3,273 -323.4,272.5 -323.6,271.4 -329.4,273.3 -334.6,276.8 -340,279.9   -343.5,282.6 -344.5,282.9 -345,283.3 -344.7,284.1 -344.6,284.2 -344.4,285.7 -344.4,286 -344.1,286.8 -343.2,287.9 -342.8,288.5   -342.7,289.3 -342.7,289.4 -342.8,289.6 -343.2,289.9 -343.5,290.1 -343.6,290.5 -343.4,291.4 -343.1,292.3 -343.1,292.6   -343.3,293 -343.3,293.2 -343.3,293.3 -343.2,293.4 -343,293.5 -342.9,293.5 -342.9,293.6 -342.8,293.7 -342.7,294 -342.6,294.2   -342.5,294.4 -342.5,294.4 -342.3,294.5 -341.9,294.6 -341.7,294.6 -341.2,294.5 -341,294.5 -340.6,294.7 -340.5,294.9   -340.4,295.2 -340.2,295.5 -339.4,296.3 -339.3,296.4 -339.1,296.7 -338.7,297.5 -338.6,297.7 -338.6,297.8 -338.2,298.1   -338.1,298.2 -337.9,298.3 -336,299.1 -336,299.2 -336,299.2 -335.9,299.2 -335.9,299.2 -335.8,299.2 -335.6,299.3 -335.5,299.3   -335.2,299.1 -334.7,298.3 -334.4,297.7 -334.2,297.5 -333.9,297.2 -333.6,297 -333.3,296.8 -332.2,296.5 -331.9,296.4   -331.9,296.4 -331.9,296.3 -331.9,296.3 -331.8,296.3 -331.8,296.3 -331.1,296.1 -329.8,295.7 -329.7,295.7 -329.2,295.9   -328.7,296.3 -328.3,297 -328.3,297.1 -328.4,297.2 -328.3,297.3 -328,297.8 -327.7,298.6 -327.5,298.8 -327.1,298.9 -326.8,299   -326.8,299 -326.6,299.3 -326.4,299.9 -326.3,300.3 -326.5,300.6 -326.7,301 -326.5,302.2 -325.8,304.4 -325.7,305.7 -325.6,306.2   -325.5,306.3 -325.2,306.7 -324.8,307 -323.7,307.6 -323.2,307.7 -322.8,307.7 -322.6,307.6 -322.3,307.5 -321.5,307.2 -321.2,307   -321.1,307 -320.9,306.8 -320.8,306.7 -320.8,306.7 -320.6,306.5 -320.5,306.5 -320.2,306.5 -319.9,306.6 -319.8,306.6   -319.6,306.9 -319.7,307.2 -319.7,307.2 -319.9,307.6 -319.6,307.9 -317.9,307.9 -317.4,308 -316.8,308.3 -316.3,308.8   -315.9,309.6 -315.6,311.2 -315.6,313.1 -315.4,314.8 -314.5,315.6 -314.4,315.3 -314.4,315.3 -314.3,315.3 -314.2,315.2   -314.2,315.2 -314.1,315.1 -314.1,315 -314,314.8 -313.5,314 -313.3,313.8 -313.1,313.7 -313,313.6 -311.8,313.5 -310.8,313.7   -310.2,314 -310,314.1 -309.8,314.3 -309.4,314.4 -309.3,314.5 -308.7,314.5 -308.2,314.2 -307.1,313.8 -306.8,313.7 -306.6,313.7   -306.1,313.9 -306.1,313.9 -305.2,314.9 -305,315 -304.7,315.2 -304.1,315.7 -304,316.1 -303.5,317.2 -303.3,317.3 -303,317.4   -302.8,317.3 -302.8,317.3 -302.8,316.7 -302.4,316.6 -302.2,316.7 -302.1,316.8 -301.9,316.9 -301.5,317.2 -301.4,317.5   -301.4,317.7 -301.4,317.9 -301.6,318.1 -301.7,318.1 -302.3,318.6 -302.5,319 -302.5,319.1 -302.7,319.4 -302.8,320.1 -303,320.7   -303.3,321.7 -303.3,321.8 -303.4,322.5 -303.2,322.6 -303,322.6 -302.5,322.4 -302.2,322.4 -302,322.5 -301.5,324.2 -301.5,324.4   -301.4,324.6 -301.2,325 -301.2,325.2 -301.5,325.4 -301.8,325.5 -302,325.7 -302.4,325.9 -302.6,326.1 -302.9,326.4 -303.1,326.6   -303.1,326.6 -303.2,326.9 -303.3,327.3 -303.2,327.4 -303.1,327.7 -303,328 -303,328.2 -303,328.6 -303.2,328.6 -301.8,329.4   -301.7,329.4 -301.4,329.5 -300.2,329.3 -299.4,329.2 -298.7,329.4 -295.6,330.3 -295.3,330.4 -294.5,330.2 -291.8,328.9   -290.9,328.4 -289.8,328.2 -289.7,328.2 -289.5,328 -289.4,327.6 -289.4,327.6 -289.2,327 -289,326.1 -289,325.7 -289,325.4   -289,325.3 -289.1,325.2 -289.1,325.1 -289.1,324.9 -289.1,324.5 -288.9,324.2 -286.1,321.4 -285.4,321.1 -285.4,321.1   -285.3,321.7 -285,321.8 -284.2,321.6 -284,322 -284,322.7 -284.1,323.5 -284.2,323.8 -284.2,324.2 -284.5,323.9 -284.6,324   -285,324.7 -285.1,325 -285.1,325.1 -285.1,325.4 -285.1,325.7 -285.1,326 -285.1,326.1 -285.4,326.8 -286.2,328.6 -286.3,329.3   -286,329.9 -285.4,330.1 -284.7,330.4 -284.3,331.1 -284.3,331.4 -284.3,331.6 -284.3,332 -284.4,332.1 -284.5,332.3 -284.6,332.6   -284.6,332.8 -284.7,332.9 -284.7,333 -284.9,333.3 -284.9,333.5 -284.9,333.7 -284.6,334.1 -284.6,334.4 -284.6,335.9   -284.3,336.2 -284.1,336.2 -283.7,336.3 -283.5,336.2 -283.1,336.2 -282.5,336 -281.9,335.8 -281.6,335.8 -281.4,335.7   -281.3,335.8 -281.3,335.8 -280.9,335.9 -280,336.8 -279.5,337.1 -278.7,337.3 -278.6,337.4 -278.2,337.7 -277.8,338.3   -277.1,339.3 -276.9,339.5 -276.7,339.6 -276.2,340 -275.6,340.1 -274.9,339.9 -274.5,339.8 -273.9,339.8 -273.4,340.4 -272.9,341   -272.7,341.6 -272.8,341.7 -272.8,341.7 -273,341.8 -273,341.8 -273.1,342.4 -273,342.6 -273,342.8 -272.9,343 -272.4,343   -272.3,343 -272.3,343 -272.2,342.8 -272.1,342.6 -272,342.5 -271.8,342.5 -271.6,342.6 -271.5,342.7 -270.7,343 -270.2,343.4   -269,345.7 -268.9,346.1 -268.9,346.4 -269,346.8 -269,347.2 -269,347.3 -268.9,347.6 -268.3,347.7 -268.1,347.6 -267.6,347.3   -267.3,347.1 -266.9,346.8 -266.8,346.8 -266.4,346.6 -265.6,347 -265.4,347.1 -265.2,347 -265,347 -265,346.9 -264.9,346.9   -264.9,346.6 -264.5,346.2 -263.9,345.9 -263.3,346 -262.8,346.2 -262.2,346.3 -262.2,346.3 -261.9,346.2 -261.5,345.8   -261.3,345.6 -261,345.6 -260.4,346 -260.3,346 -260,346.1 -259.5,345.8 -258.9,345.1 -258.7,344.8 -258.6,344.5 -258.8,344.4   -259,344.3 -258.7,344 -258.5,343.6 -258.4,343.2 -258.2,342.7 -258,342.4 -257.8,342.2 -257.6,341.8 -257.7,341.6 -257.8,341.3   -258,341.2 -258.5,341.1 -258.6,341 -258.7,340.8 -258.7,340.7 -258.7,340.5 -258.6,340.4 -258.6,340.1 -258.6,339.9 -258.5,339.8   -258.4,339.7 -258.4,339.6 -258.4,339.4 -258.4,339.3 -258.6,339.1 -258.7,339.1 -258.8,339.1 -258.9,339.1 -259,339.1   -259.1,339.1 -259.3,338.8 -259.7,338.7 -259.8,338.6 -259.8,338.5 -259.8,338 -259.9,337.8 -260.3,336.9 -260.5,336.6   -260.5,336.6 -260.7,336.4 -260.9,336.2 -261,336.2 -261.3,336.1 -261.3,336.1 -261.6,336 -261.8,335.5 -261.9,335.3 -262,335.1   -262,334.6 -261.9,334.2 -261.6,334 -261.8,333.8 -261.8,333.6 -261.7,333.5 -261.7,333.5 -261.7,333.5 -261.7,333.2 -261,333.3   -261.3,332.9 -261.7,332.6 -261.8,332.5 -262.1,332.3 -262.1,332.1 -262,332 -261.7,331.4 -261.1,330.4 -261.1,330.2 -261,330.2   -261,330 -261,330 -260.9,329.8 -260.9,329.7 -260.8,329.7 -260.7,329.5 -260.5,329.3 -260.1,329.2 -260,329.1 -259.9,329   -259.6,328.5 -259.7,328.3 -259.9,328 -259.8,327.5 -259.7,327.3 -259.2,327.1 -259,326.9 -259,326.9 -259,326.8 -258.9,326.5   -258.9,326 -258.9,325.7 -258.8,325.5 -258.8,325.4 -258.4,325.1 -258.3,324.9 -258.2,324.8 -258.2,324.7 -258.2,324.5   -258.1,324.3 -258.1,323.9 -258,323.7 -257.8,323.5 -257.5,323.2 -256.6,322.8 -256.2,322.4 -256,321.8 -256,321.7 -255.9,321.3   -255.6,320.9 -255.4,320.9 -255.1,320.8 -254.7,320.5 -254.7,320.5 -254.5,320.7 -254.5,321.1 -254.3,321.4 -254.1,321.5   -254,321.5 -253.7,321.5 -253.1,321.4 -253.1,321.4 -252.9,321.3 -252.7,321.1 -252.5,321.1 -252.2,321.4 -252.1,321.4   -252.1,321.8 -252.1,322.2 -252,322.4 -252,322.5 -251.6,322.7 -251.4,322.4 -251.3,322.2 -251.3,322.2 -251.4,321.9 -251.7,321.7   -251.6,321.5 -251.6,321.3 -251.5,321.1 -251.5,321 -251.5,321 -251.3,320.9 -251.2,320.9 -250.7,320.8 -250.6,320.7 -250.5,320.7   -250.4,320.3 -250.4,319.8 -250.5,319.5 -250.5,319.4 -250.8,319 -250.6,318.6 -250.5,318.5 -250,318.2 -249.9,318.1 -249.8,317.8   -249.2,317.5 -248.8,317.5 -248.2,317.3 -247.7,316.9 -247.8,316.5 -247.7,316.1 -247.5,315.7 -247.4,315.6 -247.3,315.4   -247.1,315.3 -247,315.2 -246.7,315.2 -246.6,315.2 -246.4,315.3 -246,315.4 -245.3,315.2 -245.2,315.1 -245,314.9 "/></svg>