<svg xmlns="http://www.w3.org/2000/svg" xmlns:xlink="http://www.w3.org/1999/xlink" version="1.1" x="0px" y="0px" viewBox="-461 335 100 100" fill="#e0e0e0" style="enable-background:new -461 335 100 100;" xml:space="preserve"><path d="M-403.8,370.5l-0.1-0.3l-0.2,0.2l-0.2,0.4l0,0.3l0.2-0.2l0.2-0.3L-403.8,370.5z M-405.5,371.9l-0.4-0.3l-0.3-0.6l-1.4-0.7  l-0.5-0.5l-0.2-0.9l0.2-0.8l0.4-0.7l1-1.1l0.3-0.6l0.9-3.2l0.5-3.2l-0.2-1l1.6-3l0,0l0.7-0.4l1.4-3.5l0.1-0.6l0.5-0.9l0.1-0.6  l0.3-3.5l-0.3-4.5l-0.1-0.2l-0.4,0.1l-0.4,0.2l-0.3,0.2l-0.3,0.5l-0.3,0.1l-0.3-0.1l0-0.4l0.2-0.2l0.9-0.4l0.8-0.6l0.2-0.4l0.1-0.5  l-0.2-0.1l-0.5,0.1l-1.3,0.4l-1.2,0.8l-0.8,0.1l-0.5-0.2l-1.1-0.5l-0.9-0.1l-0.6,0.1l-0.6,0.3l-1.3,0.9l-0.6,0.7l-0.3,0.2l-0.3,0  l-0.1-0.2l0.2-0.3l0.9-1.1l0.4-0.6l0.2-0.6l-1.8,0.8l-0.5,0l-0.4-0.6l0.3-0.6l3-2l0.8-0.9l-0.7-0.6v-0.1l0,0l-0.2,0l-2.4,0l-0.3,0.1  l-0.2,0.1l-0.2,0l-0.3-0.2l-0.4-0.3l-0.2-0.1l-0.3,0.1l-0.4,0.2l-0.8,0.3l-0.3,0l-0.4-0.1l-0.4-0.2l-0.4,0l0,0l-0.3,0.3l-0.8,0.6  l-0.2,0.2l-0.1,0.1l-0.2,0.4l-0.2,1.2l-0.3,0.9l-0.1,1l-0.1,0.4l-0.5,0.7l-1.2,1.3l-0.4,0.6l-0.1,0.7l-0.1,0.6l0,0.1l-0.1,0.4  l-0.4,0.6l0,0l-0.5,0.3l-1.1,0.5l0,0l-0.2,0.2l-0.8,0.6l0,0l0.1,0.1l0.1,0.5l-0.1,0.4l-1,1.5l-0.1,0.4l-0.1,0.9l-0.1,0.4l-0.4,0.6  l0,0l-0.5,0.3l-0.5,0.3l0,0l0,0l-0.6,0.4l0,0l-0.2,0.3l-0.5,1.5l0,0l-0.4,0.4l-2,1.4l0,0l-0.2,0.3l-0.2,0.8l-0.2,0.3l0,0l-0.3,0.1  l-1.5-0.9l-0.5-0.4l-0.5-1.1l-0.4-0.1l-0.4,0.1l-0.5,0l-0.6-0.5l-0.6-0.6l-0.6-0.5l-0.8-0.3l-3.2,1.1l0,0l-0.8,1.1l-0.3,1.5l0,3.3v0  l-0.1,2.3l-0.7,17.9l-1.4,35l-0.7,17.9l0,0.4l0,0.1v0l0.3,0.5l0.1-0.1l0.4-0.2l0.4-0.1l0.3,0l0.7-0.3l2.9,0.1l1.1-0.2l1.2,0l3.4,0.8  l1.5-0.5v0l0.1-0.9l-0.8-1.6l0.1-1l0.4-0.5l0.6-0.5l0.7-0.4l1-0.3l0.1-0.3l0-0.4l0.1-0.4l0.2-0.2l0.2-0.2l0.4-0.3l0.4-0.2l0.3-0.1  l0.2-0.2l0.2-0.7l0.2-0.3l0.2-0.2l0.2-0.1l0.7-0.1l0.5-0.4l0.4-0.6l0.1-0.8l-0.1-1.5l0.2-0.6l0.5-0.2l0.5-0.1l0.3-0.2l0.2-0.2  l0.2-0.1l1.3-0.2l0.3-0.1l0.1-0.3l0-0.7l0-0.1l0.1,0l0.3-0.1l0.3,0l0.1,0.2l0.2,0.5l0.5,0.3l0.5-0.1l0.3-0.8h0.3v1.6l0.2-0.6  l0.1-0.2l0.2-0.1l0.5-0.1l0.2-0.1l0.1,0l0.3,0l0.1,0l0-0.1l-0.1-0.3l0-0.1l0.1-0.2l0.2-0.5l0.1-0.2l1-1.3l0.3-0.2l0.2-0.2l0.5-1.1  l0.2-0.2l0-0.1l0.1-0.1l0.2-0.2l0,0.1l0.1,0.1l0.2,0l0.2-0.1l0-0.2l0.1-0.9l0.1-0.2l0.7-0.3l0.8-1.5l0.7-0.5l-0.1-0.3l-0.1-0.2  l0.1-0.5l0.3-0.4l0.4-0.3v-0.2l-0.4,0l-0.2,0l-0.1-0.2l-0.1-0.3l0.4,0.1l0.2,0l0.2-0.1l0.3-0.1l-0.5-0.2l-0.3,0l0.8-0.9l1-2.5l1-0.5  l-0.2,0.4l-0.6,0.7l-1.2,4.4l0.1,0.6l0.3,0l0.3-0.3l0.2-0.4l-0.3-1l0.1-0.7l0.2-0.5l0.4-1.6l0.4-0.5l0.3-0.3l0.2-0.4l0.4-2.7l0-0.4  l-0.2-0.6l0-0.5l0.1-0.4l0.2-0.3l0.2-0.2l0.1-0.2l0.1-0.3l0.2-0.2l0.5-0.4l0.2,0l0.5,0.1l0.1,0l0-0.2l-0.1-0.2l-0.1-0.1l-0.1,0  l-0.2-0.7l-0.7-1.1l-0.2-0.7l0.2-0.6l0.4-0.7l0.5-0.6l0.4-0.4l0.4-0.1l0.3,0l0.2-0.1l0.1-0.4l-0.2-0.9l-0.1-1.2l-0.2-0.8l-0.3-0.7  l-0.5-0.6l-0.8-0.3l-0.4-0.2l-0.2-0.5l-0.2-0.9l0-0.3l0-0.1l-0.1-0.7l-0.3-0.8l0.1-1.5l0-0.8l0.4-3.9l1.6-5.1l0.1-0.6l0.4-0.3l1,0.1  l1,0l0.5-0.7l-0.4-0.3L-405.5,371.9z M-403.8,404.6l0,0.1l0,0.2l0.1,0.1l0-0.5L-403.8,404.6z M-404.5,422.1L-404.5,422.1l0-0.1  L-404.5,422.1z M-401.4,398.8l0.1,0.2l0,0.1l0.1,0l-0.1-0.5L-401.4,398.8z M-404.3,371.2L-404.3,371.2l0,0.2l0.1,0.3l0,0.2l0-0.1  l0.1,0l0.2-0.2l0-0.2l-0.1-0.2L-404.3,371.2z M-400.3,365.2l0.4-1.2l-0.4,0.2l-2.2,1.4l-0.8,0.4l-0.2,0.2l-0.1,0.1l0,0.2l1.2-0.1  l1.2-0.4L-400.3,365.2z M-403.1,372.1l-0.2,0l0.1,0.3l0.2,0.2l0.2,0.2l0.1-0.5l-0.1-0.1L-403.1,372.1z M-396.1,351l0.3-0.3l0.1-0.4  l-0.1-0.1l-0.2,0.1l-0.1,0l-0.2,0.1l-0.3,0.4l0.1,0.2L-396.1,351z M-408.2,410.5l-0.2,0.3l0.1,0l0.1-0.1l0.4,0l-0.1-0.2  L-408.2,410.5z M-399.2,359.6l0.3-0.1l-0.4-0.1l-0.6,0l0.2,0.3L-399.2,359.6z M-400.9,396.7l0.1,0.1l0.1,0l-0.2-0.7L-400.9,396.7z   M-395.4,350.4l0.1,0l0.3-0.2l0.2-0.4l0-0.4l-0.1-0.2l-0.1,0.1l-0.1,0.1l-0.1,0.2l-0.2,0.2l-0.2,0.1l-0.1,0.1l0.1,0.2L-395.4,350.4z   M-398.3,352.6l-0.1,0.7l0.3-0.6L-398.3,352.6z M-423.8,422.8l0-0.1l-0.3,0.3l0,0.2l-0.2,0.1l0.1,0.1l0.2,0.1l0.1-0.2l0.1-0.1  l0.2-0.2L-423.8,422.8L-423.8,422.8z M-398.8,364.8l-0.2,0.6l0,0.6l0.2-0.5V364.8z M-409.6,424.3L-409.6,424.3L-409.6,424.3  L-409.6,424.3L-409.6,424.3L-409.6,424.3L-409.6,424.3L-409.6,424.3L-409.6,424.3z M-399.6,367.9l-0.5-0.4l0.5,2.1l0.3,0.9l0.2,0.4  h0.3l-0.4-2L-399.6,367.9z M-407.1,426.3L-407.1,426.3l0.1,0.1L-407.1,426.3L-407.1,426.3z M-389.4,379.3l-0.6-1.8l-0.4-0.7  l-0.5,0.4l0.4,0.4l0.1,1l0,2.3l0.1-0.2l0.1-0.2l0.1-0.1l0.2-0.1l0,0.1l0,0.4h0.3l0-0.9l0.1-0.4L-389.4,379.3z M-393.9,354.5l0.3-1.7  h-0.2l-0.1,0.3l-0.1,0.2l-0.4,0.5l-0.3-0.5v-0.3l0.3-0.2l0.2-0.2l0.1-0.3l0.1-0.4l0.3,0.1l0.3,0.2l0.4-0.7l0.8-2.1l0.3-0.4l0.5-0.4  l0.1-0.9l-0.4-0.5l-0.8,0.5l-0.6-0.2l-0.4,0.3l-0.6,2l0,0.4l-0.1,0.3l-0.2,0.2l-0.2,0.1l-0.1,0.2l-0.7,2.4l-0.2,1.2l0.6,0l-0.2,1  l-0.5,0.7l-1.4,1l-0.1,0l-0.4,0v0.3l1.7-0.4l1.2-1.1L-393.9,354.5z M-398,361.9l-0.2,0l-0.2,0.4l0,0.4l-0.1,0.4l0.2,0.2l0,0.3  l-0.2,0.2l-0.2-0.1l-0.1,0.4l0.1,0.2l0.6-0.6l-0.1-0.7l0.1-0.7L-398,361.9z M-389.5,402.6l0.3-0.1l0.2-0.4l-0.4,0.2L-389.5,402.6z   M-400.7,396.9l0.1,0.3l0.2-0.4L-400.7,396.9L-400.7,396.9z M-377.6,374.8l-0.4-0.1l-0.3,0.3l0,0.2l0.6,0.2l0.2-0.1l0.1-0.3  L-377.6,374.8z M-389.6,371.3l-0.5-0.1l-0.5,0l-0.4,1l0,0.2l0.3,0l0.4-0.2l0.4-0.4l0.3,0.5l-0.1,0.8l-0.3,0.8l-0.4,0.3l-0.5-0.1  l-0.6-0.2l-0.4,0l-0.8,0.8l-0.7,0.5l-0.5,0.4l-0.3,0.6l-0.2,1.8l-0.4,1.4l-0.1,0.8l-0.1,0.1l0,0.1l0,0.1l-0.1,0.1l0.5,0.5l0-0.5  l0.2-0.5l0.2-0.4l0.1-0.3l0.2-1.7l0.3-0.9l0.4-0.5l0.5-0.4l0.4-0.6l0.8,0.6l0.6-0.3l0.4-0.7l0.5-0.7l0.8-1.5l0.2-0.6l-0.2-0.8  L-389.6,371.3z M-398.5,391.8l0.1,0.2l0.1,0l-0.1-0.4L-398.5,391.8z M-381.1,385.4l0,0.6l0.2-0.4l0.4-0.5l0-0.2l-0.3-0.2  L-381.1,385.4z M-378.6,385.2l0.2,0l0.1-0.1l-0.2-0.1L-378.6,385.2z M-399.8,373.3l-0.4-0.5l-0.7-0.5l-0.6-0.2l-0.3,0.2l0,0.2  l0.1,0.1l0.1,0.2l0.2,0.3l0.3,0.1l0.3,0l0.1,0.2l0,0.8l0.1,0.3l0.3,0l0.2-0.3l0-0.2l0.1-0.2L-399.8,373.3z M-400.8,384.8v0.3l0.1,0  l0-0.1l0.2-0.2l0.1-0.3l-0.3-0.2L-400.8,384.8z M-400.4,380.7l-0.1,0.4l0,0.7l0.1,0.3l0,0l0.2-0.4l0.1-0.7l-0.2-0.4L-400.4,380.7z   M-400.6,396.5l0.1,0.2l0.2-0.5l0-0.5l-0.3,0.3L-400.6,396.5z M-399.6,377l-0.3,0.2l0,0.3l0.3,0.4l0.3-0.3L-399.6,377z   M-398.8,413.7l0.1,0l-0.1-0.1L-398.8,413.7z M-398.3,388.8l-0.1-0.2l-0.6,0.1l-0.2,0.6l0.3-0.2l0.4,0l0.2,0L-398.3,388.8z   M-399.4,393L-399.4,393l0.6-0.1l-0.3-0.1L-399.4,393z"/></svg>