<svg xmlns="http://www.w3.org/2000/svg" xmlns:xlink="http://www.w3.org/1999/xlink" version="1.1" x="0px" y="0px" viewBox="-461 335 100 100" fill="#999999" style="enable-background:new -461 335 100 100;" xml:space="preserve"><polygon points="-386.3,363.4 -386.4,362.9 -386.5,362.6 -386.7,362.5 -387,362.4 -387.2,362.4 -387.3,362.2 -387.5,361.7   -387.6,361.5 -387.7,361.4 -387.8,361.2 -387.9,361.1 -388,360.9 -388,360.6 -387.7,359.8 -387.6,359.3 -388,357.8 -388.1,357.6   -388.3,357.3 -388.3,356.9 -388.3,356.6 -388.2,356 -388.3,355.8 -388.4,355.8 -388.6,355.9 -388.7,355.8 -389.1,355.5 -392,351.4   -392.2,351 -392.3,350.6 -391.9,349.7 -391.8,349.5 -391.6,348.7 -390.5,346.8 -390.2,346.5 -390.3,346.4 -390.4,346.1 -390.6,346   -390.6,345.9 -390.7,345.8 -390.7,345.7 -390.8,345.4 -390.9,345.3 -390.9,345.2 -391,345.1 -391.1,345.1 -391.7,344.3   -391.8,344.2 -392,344 -392.6,343.8 -393.3,343.4 -393.5,343.3 -393.6,343.2 -393.8,343.2 -394,343.3 -394.3,343.4 -394.5,343.4   -394.7,343.2 -394.8,343.1 -395,342.8 -395.4,342.2 -395.5,341.9 -395.6,341.6 -395.6,341.2 -395.7,341.1 -395.9,341 -396,340.9   -398.7,338.4 -399.4,337.4 -399.5,337.1 -399.6,337 -399.7,337 -400.3,336.9 -400.5,336.8 -400.6,336.7 -400.8,336.6 -400.9,336.2   -401,336 -401.2,335.9 -401.5,335.7 -402.2,335 -402.4,335.2 -402.8,335.3 -403,335.3 -403.3,335.3 -403.5,335.3 -403.6,335.4   -403.9,335.7 -404,335.9 -404.2,335.9 -404.4,335.8 -404.6,335.8 -404.6,335.9 -404.7,336.1 -404.7,336.2 -404.8,336.3 -405,336.7   -405.1,336.8 -405.7,336.6 -405.8,336.6 -406,336.8 -406.1,336.8 -406.2,336.8 -406.3,336.7 -406.4,336.7 -407,336.9 -407,336.9   -407.2,337.1 -407.3,337.1 -407.4,337.1 -407.4,337.1 -407.5,337 -407.5,336.9 -407.7,336.9 -407.8,336.9 -408,336.9 -408,337.1   -408.1,337.3 -408.2,337.3 -408.3,337.2 -408.4,337.2 -408.5,337.2 -408.6,337.4 -408.7,337.4 -408.9,337.5 -409.2,337.5   -409.5,337.5 -409.9,337.7 -410,337.9 -410,338.3 -409.8,339.2 -409.3,340.8 -409.2,340.9 -409.1,341 -408.9,341.2 -408.7,341.3   -408.6,341.3 -408.5,341.4 -408.5,341.6 -408.5,341.9 -408.6,341.9 -408.7,341.8 -408.9,341.8 -409,342 -409.2,342.2 -409.3,342.3   -409.4,342.3 -409.5,342.3 -409.7,342.4 -409.8,342.6 -409.8,342.8 -409.6,343 -409.5,343.2 -409.7,343.3 -410.1,344.8   -410.3,345.2 -411,345.9 -411.1,346.4 -411.1,346.6 -411.1,346.8 -411.2,347 -411.4,347.2 -412.3,347.7 -413.4,348.6 -415.6,350.8   -416.1,351.1 -416.6,351 -417.3,350.8 -417.7,350.6 -417.9,350.5 -418.1,350.6 -418.4,350.5 -418.7,350.6 -419.3,350.9   -419.6,350.9 -420.3,350.8 -420.6,350.9 -420.9,351.1 -421.6,351.2 -421.9,351.4 -422.2,351.5 -422.5,350.8 -422.8,350.9   -422.8,350.8 -422.7,350.5 -422.7,350.4 -424.2,350.3 -424.5,350.2 -424.8,350.1 -424.9,350.3 -425,350.4 -425.2,350.5   -425.5,350.6 -425.6,350.8 -425.6,351 -425.5,351.3 -425.7,351.5 -426.1,351.6 -426.4,351.8 -426.5,352.1 -426.4,352.4   -426.3,352.6 -426.3,352.9 -426.5,353.1 -426.7,353 -426.8,352.9 -426.9,353 -427,353.1 -427.1,352.9 -427.3,352.7 -427.5,352.6   -427.5,352.8 -427.5,352.9 -427.3,353.1 -427.3,353.3 -427.3,353.4 -427.5,353.8 -428.1,353.5 -428.3,353.4 -428.6,353.4   -428.8,353.4 -428.9,353.5 -428.9,353.5 -429.1,353.5 -429.1,353.5 -429.2,353.3 -429.3,353.1 -429.5,353.4 -429.7,353.6   -429.7,353.8 -429.4,354.3 -429.4,354.8 -429.3,355.1 -429.5,355 -429.8,354.9 -430,354.9 -430,355 -430.1,355.3 -430.2,355.3   -430.8,355.4 -430.8,355.5 -430.8,355.7 -430.8,355.7 -430.7,355.6 -430.5,355.6 -430.5,355.7 -430.5,355.9 -430.5,356 -430.5,356   -430.3,356.1 -430.3,356.1 -430.3,356.3 -430.3,356.5 -430.2,356.6 -430.1,356.8 -429.9,357 -430,357.3 -430,357.3 -430.1,357.2   -430.2,357.1 -430.3,357 -430.5,356.9 -430.9,356.9 -431,356.9 -431.2,357 -431.3,357 -431.3,357 -431.4,356.8 -431.4,356.8   -431.5,356.7 -431.6,356.6 -431.7,356.6 -432.1,356.5 -432.1,356.5 -432.2,356.5 -432.3,356.7 -432.4,356.9 -432.6,357.1   -432.6,357.1 -432.6,357.3 -432.6,357.4 -432.6,357.6 -432.4,357.7 -432.3,357.7 -432.3,357.9 -432.4,358.1 -432.4,358.2   -432.7,358.2 -432.9,358.2 -433.4,357.9 -433.8,358.9 -433.9,359.2 -433.8,359.4 -433.7,359.7 -433.7,359.9 -433.9,360.4   -434,360.6 -434,360.9 -434,361.1 -434.3,361.4 -435.1,362.2 -435.4,362.8 -435.2,364.2 -435.2,364.9 -435.5,365.8 -435.7,367.4   -435.7,367.8 -435.6,368.1 -434.3,368.9 -432.8,369.9 -430.5,371.4 -428.2,372.9 -426.5,374.1 -426.3,374.6 -426.3,375.9   -426.3,377.7 -426.3,379 -426.1,379.7 -426.2,379.9 -426.2,380.1 -426.2,380.4 -426.2,380.6 -426.3,380.8 -426.6,381.2   -426.7,381.4 -426.6,381.7 -426.4,382.1 -426.2,382.4 -425.9,382.2 -425.7,382.7 -425.6,384.3 -425.4,385 -425,385.6 -423.7,386.9   -422.7,388 -422.4,388.5 -422.3,388.9 -422.2,389.4 -422.2,391.4 -422.1,393.2 -422.1,394.6 -422.1,397.3 -422.1,397.5 -422,397.7   -421.6,398.2 -421.5,398.3 -421.6,398.6 -422.1,399.5 -422.1,399.6 -422.1,399.9 -422.2,400.3 -422.1,400.4 -422.1,400.4   -422,400.6 -421.8,401.9 -421.8,403.8 -421.9,406.4 -421.9,408.9 -421.8,412.1 -421.8,415.3 -421.8,417.7 -421.8,420.1   -421.8,422.4 -422.1,422.5 -423.3,422.5 -423,423.6 -422.8,423.9 -422.6,424.1 -422.4,424.3 -422.4,424.5 -422.5,425.2   -422.5,425.5 -422.4,425.7 -422.3,426.1 -422.2,426.4 -422.3,426.7 -422.6,427.2 -422.8,427.5 -422.7,427.7 -422.4,427.9   -422.3,428.2 -422.3,428.3 -422.3,428.5 -422.3,428.6 -422.3,428.8 -422.2,428.9 -422,429 -421.9,429.2 -421.8,429.2 -421.6,429.2   -421.5,429.2 -421.4,429.3 -421.3,429.5 -421.3,429.6 -421,429.8 -420.9,429.9 -420.9,430.1 -420.9,430.4 -420.9,430.6   -420.8,430.7 -420.5,430.8 -420.3,430.9 -419.9,431.6 -419.6,432.8 -419.3,434 -419.6,434 -421.7,434.5 -422,434.7 -421.9,435   -417.6,434 -412.1,433.4 -410.9,433.1 -404.5,432.5 -404.5,431.5 -404.3,430.5 -404,429.5 -403.9,429.1 -404.1,428.5 -404.1,428.1   -403.9,427.8 -403.6,427.5 -403.4,427.4 -403.3,427.2 -403.4,426.5 -403.4,426.3 -403.5,426.2 -403.7,426.2 -403.8,426.2   -404,426.1 -404.1,425.9 -404.2,425.6 -404.1,425.2 -404,424.6 -404,423.9 -404.3,423.3 -404.3,422.7 -403.9,422.1 -403.7,422   -403.5,422 -403.3,421.9 -403.3,421.7 -403.4,421.6 -403.8,421.2 -403.9,421 -404,420.8 -404,420.7 -403.9,420.6 -403.8,420.3   -403.6,420.1 -403.6,420 -403.6,419.8 -403.9,415.8 -403.9,415.6 -403.7,415.6 -403.6,415.6 -403.2,415.6 -403.2,415.6   -403.2,415.5 -403.1,415.4 -403.1,414.7 -403.4,414.1 -403.9,413.5 -404.2,412.9 -404.3,412.3 -404.1,409.6 -404.2,409.4   -404.3,409.2 -404.7,408.7 -404.9,408.3 -405,408.1 -405,407.9 -405,407.8 -404.8,407.5 -404.8,407.4 -404.7,406.4 -404.5,405.3   -404.5,404.4 -404.4,404.1 -404.3,403.8 -404.1,403.5 -404,403.2 -404,402.9 -404.1,402.5 -404.4,401.9 -404.6,401.5 -404.6,401.1   -404.6,400.8 -404.5,400.2 -404.5,400 -404.5,399.7 -404.5,399.6 -404.4,399.4 -404.1,399 -404,398.8 -403.8,398.3 -404.2,393.8   -404.2,393.7 -404.1,393.6 -403.8,393.4 -403.7,393.3 -403.7,393.2 -403.8,393 -403.8,392.8 -403.8,392.6 -403.6,392.1   -403.6,391.9 -403.6,391.7 -403.7,391.7 -403.8,391.7 -403.8,391.6 -403.8,391.5 -403.6,391.2 -403.5,391.1 -403.4,390.7   -403.4,389.7 -403.5,389.2 -402.2,389.4 -402,389.3 -401.8,389.2 -401.7,389.1 -401.5,389 -401.4,388.9 -400.9,388.9 -400.7,388.9   -400.5,389 -400.4,389.1 -400.2,389.2 -400,389.2 -398.9,388.9 -398.5,388.6 -398.3,388.1 -397.7,386.5 -397.4,385.8 -397.3,385.5   -397.3,384.5 -397.4,384.2 -397.6,383.7 -397.7,383.2 -397.6,382.8 -397.3,382.3 -397.2,382.2 -396.9,382.1 -396.8,382   -395.8,380.7 -395.8,380.6 -395.9,380.4 -395.9,380.3 -395.8,379.9 -395.5,379.9 -395.2,379.9 -394.9,379.9 -394.4,379.6   -394.3,379.2 -394.4,378.7 -394.6,378.2 -394.7,377.9 -394.7,377.5 -394.5,377.2 -394.3,377 -393.1,376.6 -392.5,376.4   -391.5,376.5 -391.2,376.2 -390.8,375.5 -390.3,374.8 -390.1,374.5 -390,373.1 -389.9,372.9 -389.7,372.6 -389.4,372.5   -389.2,372.4 -389.1,372 -389,371.6 -389.1,371.4 -389.2,371.2 -390.3,370.1 -390.5,369.7 -390.6,369.4 -390.2,368.6 -389.8,368   -389.8,367.8 -389.7,367.5 -389.7,367.4 -389.6,367.3 -389.3,366.9 -389,366.8 -388.6,366.9 -387.6,367.4 -387.3,367.4   -387.1,367.1 -387,366.8 -387,366 -386.8,365.5 -386.4,364.7 -386.3,364.3 "/></svg>