<svg xmlns="http://www.w3.org/2000/svg" xmlns:xlink="http://www.w3.org/1999/xlink" version="1.1" x="0px" y="0px" viewBox="-461 335 100 100" fill="#e0e0e0" style="enable-background:new -461 335 100 100;" xml:space="preserve"><g><g><path d="M-428.4,403.3h0.4l0.5-0.1l0-0.7l-0.2-0.4l-0.4-0.2l-0.7,0.8L-428.4,403.3z M-435.7,406.9l0.4-0.5l0.3,0.4l0.7-0.9    l-0.7-0.8l-1.1,0l-0.4,0.4l0.4,0.4l-0.3,0.4L-435.7,406.9z M-428.4,398.3l0.2-1l-0.3-0.7l-0.5,0.1l-0.2,1.1l0.4,0.4L-428.4,398.3z     M-437.8,399.1l-0.4,0.5l0.3,0.4l-0.3,0.4l0.4,0.4l0.7,0l-0.4,0.8l0.4,0.8l0.8,0l0.9-1.1l-0.3-1.1l-0.5,0l-0.4-0.8l-0.8-0.4    H-437.8z M-433.6,407.7l1.3-1.2l0.6,0.4l0.3-0.2l0.1-0.6l-1-0.9l-1.5,0.9l-0.9,1.2l0.4,0.5L-433.6,407.7z M-429.2,401.1l0.9,0    l0.2-0.3l-0.7-0.8l-0.4-0.1l-0.3,0.5L-429.2,401.1z M-433.3,404.1l0.5-0.4l0.3,0.2l0.2-0.6l-0.1-0.7l-0.7-0.7l-0.7,0l-0.5,0.9    l0.1,0.7l0.3,0.4L-433.3,404.1z M-435.7,403.1l-0.4,0.5l0.5,0.4l0.8-0.2l0.3-0.4l0.2-1.8l-0.7-0.2l-0.7,0.9L-435.7,403.1z     M-368.6,356.2l0.5,0.4l0.5,0l0.5-0.7l-0.1-0.2l-0.7-0.4L-368.6,356.2z M-434,401.2l2.4,0l0.7-0.8l-0.3-0.4l-0.9,0.4l-3-0.4l0,0.8    l0.7-0.1L-434,401.2z M-389.1,363.9l0.5,0.5l1-1.1l0-0.9l0.8,0l0.3-0.3l0.8,0.4l0.3-0.8l0.7-0.4l1.8-0.4l1.5-1.1l0.3,0.3l1.8-1.3    l1,0.5l0.4-0.8l-0.4-0.4l-2.5,0l-0.3-1.1l0.5-0.2l1.4,0.8l1.1,0l0.7-0.8l1.6-0.5l1.4-0.8l1.1,0l0.7-0.9l1.9,1l0.6,0.8l0.7,0    l1.5-1.6l-0.7-0.8l-0.4,0.3l-1.7-2.4l-0.9-0.5l-0.9-2l-0.7,0l-0.4,0.5l-1.1,0l-4.1,4.5l-1.2,0.5l-4,2.8l-1.3,1.2l-1.1,0.4    l-1.6,1.3h-0.5l-1.3,1.6l0.7,0.9l-0.9,0.1l-0.5,1.1l0.3,0.5L-389.1,363.9z M-368,357.8l1.5,0l0.4,0.5l0.6,0l0.3-0.4l-0.7-1.3    l-0.8-0.4l-1.7,1.2L-368,357.8z M-394.2,369.7l0.4-0.4l0-0.4l-0.5-0.4l-0.7,0.8l0.4,0.5H-394.2z M-389.4,366.4l0.8-0.9v-0.4    l-0.5-0.4l-0.6,0l-0.7,0.8l0.7,0.8L-389.4,366.4z M-372.4,356.1l0.9,0.9l0.6-0.4l-0.8-0.9l-0.4,0.1L-372.4,356.1z M-430.8,401.1    l-0.4,0.4l0.4,0.5l0.3-0.1l-0.1,0.4l0.7,0.9l0.5-0.1l0.6-0.8l-1.4-1.2L-430.8,401.1z M-371.4,374.4l0.4-0.2l0-0.4l-0.2-0.5    l-0.5-0.2l-0.7,0.4l-0.1,0.4l0.4,0.5l0.4-0.4L-371.4,374.4z M-367.2,370.4l-0.4-0.4l-1.1,0.5l-0.6,0.8l0.2,0.6l0.4,0.2l0.8-0.5    l0.7,0.8l0.4-0.4l0-0.7L-367.2,370.4z M-425.6,400.3l0.2-0.3l-0.6-0.8l-0.4,0.3v0.4l0.5,0.5L-425.6,400.3z M-418,400.7l0.3-0.3    l0-0.5l-0.4-0.5l-0.6,0l-0.4,0.5l0.7,0.9L-418,400.7z M-370.5,374.7l-0.4-0.2l-0.3,0.1l-0.6,0.8l0.5,0.7l0.5,0.1l0.3-0.4l-0.2-0.4    L-370.5,374.7z M-367.2,361l-0.4,0.3l0.4,0.6l0.4-0.1l0.3-0.3l-0.1-0.2L-367.2,361z M-364.8,365.5l0,0.5l0.3,0.4l0.2,0l0.2-0.4    l0-0.5l-0.3-0.4L-364.8,365.5z M-361.4,360.2l-0.7-0.3l0.4-0.9l-0.4-0.5l-2.7,0l-1,1.7l0.4,0.6l0.3,0.2l1.4-0.8l0.7,0l0,0.3    l-1.7,0.8l-1,0l-0.7,1.3l-1.4-0.8l-0.7,0v-0.4l0.6-0.4l-0.3-1.2l0.4,0.3l1.4,0.1l0.7-0.9l-3.8-2l-0.7,0.4l-0.3-0.4l-0.6,0.1    l-0.2,0.3l-0.1,0.5l2.2,1.7l0,0.4l-0.7,0l-1.1-0.9l-1.1,0l-0.2-0.4l-1.1,0l-0.7,0.4l-0.4-0.5l-2.7-0.4l-1.4,1.3l-0.7-0.5l-0.7,0.5    l-2.7,1.6l-0.9-0.1l-0.2,0.5l-0.8,0l-1,0.8l-1.1,0.9l0.5,1.7l1.1,0.7l1.4-0.1l0.9-1.6l1.4-0.4l0.4-0.5l0.6-0.4l1.4,0l0.4,0.4    l0.4,1.2l0,2.5l0.7,1.3l0.6,0l0.7-0.8l0-1.2l0.4-0.4l-0.5-2.1l0.4-0.4l1.4,0l0.3,0.4l1.8,0l1.6,1.2l1.9,0.7l0.3,1.4l1.1,0.6    l1.1,2.9l1-0.4l-0.3,0.8l0.3,0.5l1.4-0.5l0,0.5l0.8,0.4l0.3-1.2l-1.2-1.4l-0.6-0.3l0.4-1.7l-0.4-0.4l-0.7,0l-0.8-0.9l0-1.6    l0.4-0.5l0.3,0.4h0.6l0.4-0.4h0.6l0.4,0.9l0.4,0l0.9-2l0-1.3l1.1-0.7L-361.4,360.2z M-439.8,415.1l0.5-0.4l0.7,0.4l0.4-0.5    l-0.7-0.8l-0.6-0.1l-0.7,0.9L-439.8,415.1z M-427.2,402.7l1.9,1.8l0.4-1.3l0.6-0.4l-0.2-0.6l-0.5-0.6l-1.2,0.4l-0.9-0.5    L-427.2,402.7z M-443.8,415.5l0.4,0.4l0.3-0.3l0-0.5l-0.3-0.5l-0.5,0.6V415.5z M-448.2,392.2l0.7-1.2l0.5,0.4l1.2-0.5l0.6-0.8    l-0.6-0.5l0.7-1.2l0.7,0.4l2.6-0.6l0.2-0.6l-0.3-0.5l0-1.2l0.3-0.8l0.7-0.8l1.9-1l0.6-0.8l-0.3-1l0.8-0.2l1-1.3l-0.7-1.1l-0.7,0.8    l0.2-1l-0.5-0.2l-1,1.2l-0.7,2.6l-0.4,0l-1.5,2.1l-0.9,0.4l-1.1,0.8l-0.7,1.9l-1.2,0.4l-0.2,0.7l-1,0.7l-1.6,2l0.3,0.9    L-448.2,392.2z M-439.3,408.2l0.8-0.9v-0.4l-0.3-0.3l-0.5-0.1l-0.7,0.9l0,0.5l0.5,0.4L-439.3,408.2z M-373.8,374.9l-0.9,1.7    l-1.4,0l-0.6-0.4l-1.2,0.4l-0.3,0.4l-1.1,0l-0.5-1.9l-0.4-0.2l-0.8,0.4l-2.5-1.7l-0.6-0.4l-1.4,0.1l-0.1-0.5l-1.1-0.7l0-0.4    l0.7-0.1l0.3-0.4l-1.4-1.6l0.3-0.8l-0.6-0.8l-1.6-0.5l-0.2-0.3l-1.1-0.3l-0.1-0.6l-0.6-0.4l-1.3,2l-1.4,0.7l0.3,1l-1.2,0.8    l-1.3,0.4l-0.7,0.8l-1.4,0l-0.6,0.4l-0.7,0.8l0,0.9l-0.7,0.7l-0.4,0.4l-0.3,2.6l-0.7,1.2l0.3,0.3l0.7-0.4l0,0.9l-1,1.5l-0.4,0.6    l0.4,1.6l-0.8,0.3l0,0.5l-1.1,1.2l-3.6,2.3l-0.9,0.6l-0.8,0l-0.2,0.4l-0.7-0.1l-1.7,1.2l-0.7-0.4l-0.4,0.4l-4.6,0.9l-0.3,0.3    l-0.7-0.4l-0.4,0.3l-0.6-0.4l-0.3,0.4l-1.7,0l-0.4,0.4l-1.7-0.1l-0.4-0.4l-2.2,0.1l-1.5-0.5l-0.2-0.4l-1.9-0.1l-0.6,0.5l-0.9-0.5    l-0.5,0.5l-0.3-0.4l-0.7,0l-0.7,0.9l0.3,0.4l-0.1,0.8l-0.6,0.3l0.1,0.3l0.9,0.6l1.4,0.1l0,0.7l-0.6,0.4l0.4,0.6l0.9,0l1.1-1.2    l0,0.5l0.6,0.3l0,0.9l1.1,0.8l-0.9,0.5l0,1.5l0.7,0.8l1.3-0.4l0.4-0.9l1.3,0.5l1,1.2l0.4-0.8l0.7,0.8l1.6,0l0.4-0.4l1,0l0.3-0.5    l2.1,0l0.4-0.4l1.4,0l0.3-0.4l1.5,0l-0.1,0.5l-0.8,0.4l-1.7,0l-0.3,0.4l0.4,0.7l-0.4,0.5l-1-0.5l-0.7,1.3l-0.8,0l-0.3,0.4l-1,0    l-0.3,0.4l-1.7-0.4l-0.3,0.9l0.4,0.8l-1.4,0l-0.7,0.5l-2.3,2.4l-1.7,0.8l-1.9,0l-0.6,1.2l-0.7,0l-0.3,0.5l-0.6,0l-1.1,0.8    l-1.1,0.4h-1.8l-0.3-0.3l-0.9,0.4l-0.4,0.6l0.3,0.6l-0.6,1.3l0.8,0.5l-1.2,0.9l0.8,1.2l0.5,0.2l0,0.4l-1.6,0l-0.4,0.4l-1.1,0    l-0.7-0.8l-0.6,0.8l-1.1,0l-0.3,0.4l-1.1-0.4l-0.1,0.2l-0.7,0l-0.5-0.4l-0.4,0.1l-0.2,0.7l-0.4,0l-1-0.9l-0.4,0.1l-0.3,0.8l-0.5,0    l0.1-1.3l-0.3-0.4l-0.6,0.5l-1.4-0.5l-0.1-0.7l-0.7-0.5l0.7-2.2l-0.3-0.6l0.2-0.8l-0.6-1.2l0.5,0.2l0.6-0.4l0.6,0.1l2.4,0.8    l0.3,0.4l0.4-0.8l0.7,0.4l0.3-0.4l0.7,0l0.7-0.9l-0.6-0.8l-1.1,0l-0.4-0.4l-2.1,0l-0.4,0.4l-1.1,0.1l-0.3,0.4l-0.4-0.1l-0.9-1.2    l-2.6-0.5l-0.2-0.4l-1.2-0.4l-0.4-0.4l2.8-1.6l-0.4-0.9l0.4-0.4l-0.8-0.4l0-1.2l0.7-0.8l0.1-0.8l0.3-1.2l1.7-0.4l0.3-1.2l0.7,0.4    l0.7-0.4l-0.4-0.8l1.1,0.4l0.3-0.5l-0.4-0.5l-0.9-0.1l-0.4-0.4l0-0.6l0.6-1.2l-0.7-1.2l-1.4,0.9l-0.7,0l0-0.7l-0.7-1.3l1.2-0.7    l-0.2-0.5l-2.5,0.9l-0.3,0.4l0.4,0.9l-1.1,1.2h-1.4l-0.7-0.5l-0.3-0.7l-0.8,0l-0.6,0.9l1.1,1.3l0.3,1.7l1.1,1.6l-0.4,0.9l0.4,0.7    l-0.3,1.3l0.7,1.2l-1.8,3.4l0.5,0.7l0.9-0.9l0.3,0.1l-1,1.5l-0.3-0.3l-0.3,0.3l-0.4-0.7l-0.4,1.2l-0.3-0.4v-1.7l-0.6-0.4v-0.4    l1.2-0.6l-0.1-1l-1.6,0.4l-0.8,1l0.2,0.6l-0.3,0.5l0.8,1.1l0.1,1.1l0.5,0.5l0,0.9l1.4,3.3l0,1.2l0.6,1.6l0,0.8l3.1,3.7l2.5,1.2    l2.1,1.3l2,0l0.4-0.5l1.7,0.1l0.5-0.5l0.9,0.1l0.5,0.4l2.7-0.1l0.3,0.5l1-0.2l0.4,0.7l0.6,0l0.4-0.4l0.6,0.4l0.7-1.1l1.1-0.5    l1.5,0.5l1.3-1.8l4.6-2.2l0.1-0.6l0.7-0.4l1.7-1.3l1.1-0.1l2.7-1.7l1.6-0.6l0.3-0.5l1.7-0.4l1-0.8l0.8,0l2.1-1.2l0.9-1.6l0.5,0    l1.3-1.6l0.6-1.6l0.4,0l0.6-0.9l1.1-0.4l0.7-0.8l-0.3-1.3l0.9,0.5l1-1.2l0.7,0l1.4-2l1-0.8l1.5-0.4l0.3-1.2l0.5,0.4l0.6-0.4l0-1    l0.4-0.3l0.6,0.5l0.6,0l1.5-2.1l1.4-0.8l0.7,0l0.3-0.4l1,0.1l1.7-1.6l-0.1-0.5l1.5-0.8l1.3,0l2.1-3.3l1.5-1.3l1.6-0.8l2-1.5l0.8,0    l0.3-0.5l0.7,0.1l1.4-0.8l2-0.4l1.5-1.2l1.7-0.4l0.3-0.4l0.4,0l0.4-0.5l0-0.8l0.7-0.4l0.1-0.4l-0.5-0.5L-373.8,374.9z     M-457.1,400.7l0.2-0.4l0-0.5l-0.3-0.3l-0.4,0.5v0.3l0.3,0.3L-457.1,400.7z M-458,401.4l0.1,0.3l0.3,0.2h0.3l0.3-0.4l-0.2-0.3    l-0.4-0.2L-458,401.4z"/></g></g></svg>