<svg xmlns="http://www.w3.org/2000/svg" xmlns:xlink="http://www.w3.org/1999/xlink" version="1.1" x="0px" y="0px" viewBox="-461 335 100 100" fill="#e0e0e0" style="enable-background:new -461 335 100 100;" xml:space="preserve"><polygon points="-361.6,402.2 -362.2,401.1 -363.6,399.7 -364,398.6 -364,398 -363.9,397.4 -363.8,396.8 -363.6,396.3 -363.4,396.1   -363,395.7 -362.8,395.4 -362.8,395.1 -362.7,394.5 -362.5,394.2 -362.1,393.7 -361.2,392.9 -361,392.3 -361.1,391.9 -363.7,387.1   -364.4,386.3 -364.7,386.4 -365.6,387.1 -366,387.2 -367.1,387.1 -367.9,387.3 -370.2,388.1 -371.1,388.2 -371.2,387.9   -371.3,387.4 -371.8,386.7 -372.4,386.4 -373.2,386.3 -373.8,386.1 -374.3,385.5 -374.6,385 -375.4,384.3 -375.7,383.8   -376.3,381.4 -376.2,380.1 -374.8,378.1 -374.6,376.7 -374.7,374.4 -374.7,373.6 -374.4,372.8 -374.1,372.1 -374,371.4   -374.4,370.7 -374.9,370.3 -375.5,370 -376.2,369.8 -377.4,369.7 -378.6,369.2 -379.7,369.2 -380.1,369.1 -380.9,368.8   -383.3,367.6 -384.2,366.8 -384.8,365.6 -385.4,366.2 -386.1,366.2 -386.8,366.1 -387.6,366.3 -388.2,366.7 -389.4,368.2   -389.9,368.8 -389.9,368.8 -389.9,368.8 -390.7,369.6 -391.9,369.9 -393.2,369.8 -394.2,369.2 -394.6,368.8 -396.1,367.6   -397.9,367.2 -399.7,367.1 -401.5,366.6 -402.8,365.7 -403.3,365.6 -403.8,365.7 -404.7,366.2 -405.4,366.3 -406.1,366.4   -408,366.2 -408.5,366.2 -409,366.2 -410.1,366.4 -411.5,366.4 -412.8,366.1 -413.5,365.4 -413.2,364 -412.4,362.7 -412.1,361.3   -412.9,360.2 -413.4,360.1 -414.5,359.9 -416.6,359.2 -423.5,357.9 -424,358 -424.6,358.3 -425,358.7 -425.5,358.9 -426.2,359   -426.5,358.9 -426.7,358.7 -427,358.6 -427.3,358.7 -427.5,359 -428,359.6 -428.3,359.9 -429.3,360.6 -429.7,361 -429.9,361.5   -430.5,362.5 -431.6,363 -435.2,363.6 -435.7,363.8 -436.2,364.1 -437.6,365.9 -438.2,366.4 -438.8,366.6 -439.3,367 -439.7,367.6   -440.4,368.8 -440.4,368.8 -441.9,371.7 -443,373 -444,373.9 -445.3,374.4 -446.3,375.1 -447.1,376 -448.7,379.6 -449.8,381.2   -449.9,381.6 -449.9,382 -449.8,382.7 -449.8,383 -450.5,384 -451.6,384.6 -452.7,385 -453.7,385.5 -453.7,385.6 -454.3,386.1   -454.6,386.7 -454.9,387.4 -455.3,389.1 -455.9,390.7 -456.2,391.5 -456.4,392.5 -457.1,393 -458.9,393.5 -459.6,394 -460.3,395   -460.8,396.1 -461,397 -460.6,397.3 -458.8,398.3 -458.1,398.8 -457.7,399.5 -457.6,400.4 -457.6,402.2 -457.6,402.2 -457.4,403.9   -456.9,403.2 -456.3,402.7 -455.7,402.7 -455.2,403.3 -455.1,403.7 -455.2,404.1 -455.2,404.4 -455,404.7 -454.7,404.9   -454.3,404.9 -454,404.8 -453.7,404.6 -453.1,404.6 -452.3,404.9 -451.6,405.5 -451.2,406 -450.8,406.8 -450.5,407.5 -450.1,408   -449.1,408.2 -447.5,408.3 -446.6,408.2 -445.8,408 -445.4,407.8 -445.1,407.5 -444.8,407.2 -444.4,407.2 -444,407.2 -442.8,406.9   -440.8,408.2 -439.8,408.8 -437.9,408.6 -436.7,408.8 -435.5,409.2 -434.8,409.8 -434.7,410.4 -435.2,411.3 -434.8,411.6   -434.3,411.6 -433.2,411.2 -432.6,411.2 -431,411.9 -430.3,412 -429.1,412 -429,412 -428.7,412.1 -428.6,412.1 -428.5,412   -428.4,411.7 -428.3,411.5 -428.4,411.5 -428.3,411.4 -428.3,411.3 -428.3,411.1 -428.1,411 -428,411 -427.7,411.2 -427.6,411.2   -427.4,411.3 -426.8,411.5 -426.5,411.5 -425.8,411.4 -423.9,410.9 -420.5,410.6 -419.4,410.3 -418.7,409.6 -417.9,407.6   -416.9,407 -416.4,406.9 -415.3,407 -414.7,406.8 -414.2,406.4 -413.8,406 -413.4,405.7 -412.8,405.5 -411.8,405.6 -409,407.6   -405.7,409.3 -401.8,409.8 -393.2,409.3 -391.6,408.5 -390.7,408.5 -389.6,408.6 -387.5,408.6 -386.5,408.8 -385.6,409.4   -385.2,409.5 -384.6,409.5 -384.1,409.4 -383.6,409.2 -383.1,408.9 -382.7,408.5 -382.4,407.9 -382.2,407.3 -381.8,406.7   -381.3,406.4 -380.9,406.3 -379.7,406.4 -379.3,406.5 -379,406.9 -378.3,408.4 -377.9,408.8 -377.4,408.7 -376.3,408.3   -375.7,408.3 -374.4,408.7 -374,408.7 -372.5,408.6 -371.6,408.1 -369.7,406.9 -368.8,406.7 -368.3,407 -368.1,407.5 -368,408.1   -367.7,408.5 -367.3,408.6 -367,408.2 -367,407.7 -367.4,407.2 -366.8,406.9 -366.8,406.4 -366.8,406 -366.4,405.9 -365.9,406.1   -364.9,406.9 -364.4,407.1 -362.6,406.9 -361.5,405.8 -361.1,404.1 -361.6,402.2 "/></svg>