<svg xmlns="http://www.w3.org/2000/svg" xmlns:xlink="http://www.w3.org/1999/xlink" version="1.1" x="0px" y="0px" viewBox="-461 335 100 100" fill="#e0e0e0" style="enable-background:new -461 335 100 100;" xml:space="preserve"><polygon points="-366.6,398.7 -366.7,398.7 -366.9,398.7 -367.2,398.5 -367.4,398.1 -367.8,397.1 -368.5,395.9 -368.2,395.9   -368.2,395.8 -368.3,395.6 -368.5,395.4 -368.5,395.4 -368.4,395.1 -368.5,395.1 -368.7,395 -368.7,394.9 -368.8,394.8   -368.9,394.7 -368.9,394.5 -368.9,394.2 -368.9,394.1 -368.9,393.9 -368.9,393.7 -369,393.6 -369.1,393.5 -369.2,393.4   -369.4,393.4 -369.5,393.4 -369.7,393.5 -370,393.5 -370.3,393.4 -370.5,393.3 -370.8,393 -370.9,393 -371.2,392.9 -371.3,392.8   -371.5,392.6 -371.5,392.5 -371.6,392.5 -371.7,392.5 -371.8,392.5 -371.9,392.4 -372,392.1 -372.1,392 -372.2,392 -372.3,392   -372.4,392 -372.4,391.9 -372.6,391.8 -372.6,391.8 -372.7,391.7 -372.9,391.7 -373.2,391.5 -373.3,391.3 -373.4,391 -373.4,390.4   -373.4,390.2 -373.5,390.1 -373.5,389.9 -373.6,389.4 -373.6,389.3 -373.8,389 -373.8,388.7 -373.8,388.6 -373.8,388.5   -373.8,388.4 -373.7,388.3 -373.8,388 -373.9,387.5 -373.9,387.1 -373.9,386.9 -373.8,386.6 -373,385.8 -372.9,385.5 -373.1,385.3   -373.1,385.1 -372.9,385 -372.9,384.9 -372.9,384.2 -373,384.1 -373.3,384.1 -373.4,384.1 -373.5,384.3 -373.5,384.4 -373.7,384.4   -373.8,384.5 -374.3,384.4 -375.7,384.4 -377.1,384.3 -378.5,384.3 -379.9,384.2 -381.3,384.2 -382.7,384.1 -384.1,384.1   -385.5,384 -386,384 -386.2,384 -386.3,383.6 -386.4,382.8 -386.4,382 -386.5,380.9 -386.6,379.3 -386.7,378.2 -386.8,378   -386.9,377.9 -387.6,377.1 -388.4,376.1 -388.9,375.5 -389.3,375.2 -387.8,375.2 -387,375.2 -387,375.1 -387,374.6 -387,374   -387.1,373.4 -387.1,372.7 -387.1,372.1 -387.1,371.7 -387.2,371.5 -387.6,371.3 -387.7,371 -387.5,371 -387.5,370.6 -387.8,370.1   -387.9,369.6 -387.9,369.5 -388.3,369.2 -388.4,369.1 -388.4,368.8 -388.4,368.6 -388.4,368.5 -388.5,368.3 -388.5,368.2   -388.5,368 -388.5,367.8 -388.4,367.7 -388.4,367.7 -388.2,367.7 -388.1,367.5 -388,367.4 -387.9,367 -387.8,366.9 -387.8,366.8   -387.9,366.8 -387.9,366.8 -388,366.7 -388,366.7 -388,366.6 -388,366.6 -388.1,366.4 -388.2,366.4 -388.3,366.2 -388.3,366   -388.4,365.8 -388.4,365.6 -388.5,365.5 -388.6,365.4 -389.1,365.3 -389.2,365.2 -389.2,365.2 -389.3,365.1 -389.3,365.1   -389.3,365 -389.5,365 -389.8,364.9 -390.9,364 -391.4,363.8 -391.4,363.8 -391.5,363.6 -391.8,363.6 -392.1,363.6 -392.5,363.5   -392.6,363.4 -392.6,363.1 -392.6,363 -392.7,363 -392.8,363.1 -392.9,363.1 -393.2,363.1 -393.3,363.2 -393.3,363.3 -393.4,363.4   -393.9,363.4 -394,363.4 -394.1,363.4 -394.2,363.4 -394.3,363.3 -394.6,363.2 -394.7,363.2 -394.8,363.2 -395.3,363.5   -395.6,363.6 -396,363.6 -396.3,363.5 -396.4,363.5 -396.6,363.3 -396.7,363.3 -397.2,363.3 -397.3,363.4 -397.5,363.4   -397.7,363.5 -397.8,363.5 -397.9,363.5 -398.1,363.5 -398.2,363.6 -398.4,363.5 -398.5,363.5 -398.6,363 -398.7,362.9   -398.7,362.9 -398.9,362.8 -398.9,362.7 -399.3,362.4 -399.4,362.3 -399.6,362.2 -399.6,362.2 -399.7,362 -399.7,362 -399.8,361.9   -400.2,361.6 -400.3,361.5 -400.4,361.4 -400.4,361.2 -400.4,360.7 -400.4,360.6 -400.5,360.6 -400.5,360.6 -400.6,360.6   -400.8,360.4 -400.8,360.4 -400.9,360.6 -401.1,360.4 -401.1,360.4 -401.2,360.4 -401.5,360.5 -401.6,360.6 -401.7,360.6   -401.8,360.5 -401.9,360.6 -402,360.6 -402.4,360.6 -402.4,360.5 -402.6,360.5 -402.6,360.5 -402.7,360.5 -402.7,360.5   -402.7,360.4 -402.7,360.3 -402.9,360.1 -403,360 -403.2,360 -403.6,360 -404.3,359.7 -404.3,359.7 -404.3,359.5 -404.3,359.5   -404.4,359.4 -404.5,359.3 -404.6,359.3 -404.7,359.3 -404.8,359.3 -404.8,359.4 -405,359.4 -405.1,359.4 -405.2,359.5   -405.2,359.6 -405.3,359.5 -405.5,359.4 -405.6,359.3 -405.6,359.2 -405.6,359.2 -405.6,359.1 -405.7,359.1 -405.8,359.1   -405.9,359.1 -405.9,359 -405.9,359 -406.3,358.5 -406.3,358.4 -406.4,358.4 -406.4,358.4 -406.5,358.4 -406.5,358.5 -406.6,358.5   -406.7,358.4 -406.8,358.4 -406.9,358.3 -406.9,358.1 -406.9,358 -407,357.9 -407.1,357.8 -407.2,357.6 -407.2,357.6 -407.3,357.6   -407.2,357.5 -407.2,357.4 -407.2,357.4 -407.3,357.4 -407.3,357.3 -407.3,357 -407.4,356.9 -407.6,356.9 -407.8,356.8   -407.9,356.8 -407.9,356.8 -408.1,356.9 -408.1,356.9 -408.2,357 -408.2,357.1 -408.2,357.1 -408.3,357 -408.3,357.1 -408.5,357.2   -408.6,357.2 -408.6,357.3 -408.7,357.3 -409.2,357.3 -409.3,357.3 -409.5,357.1 -409.6,357.1 -409.7,357 -410,356.8 -410,356.8   -410.1,356.7 -410.1,356.7 -410.2,356.6 -410.2,356.6 -410.3,356.5 -410.3,356.5 -410.3,356.4 -410.3,356.3 -410.4,356.2   -410.5,356.2 -410.6,356.2 -410.7,356.2 -410.8,356.2 -410.9,356.1 -411.2,355.9 -411.6,355.6 -411.7,355.6 -412.7,355.5   -412.8,355.5 -413,355.6 -413.2,355.6 -413.2,355.6 -413.4,355.9 -413.4,356 -413.5,356.1 -413.6,356.1 -413.7,356.1 -413.8,356.1   -413.9,356 -414,356 -414.2,356.1 -414.3,356.1 -414.5,355.9 -414.9,355.9 -415,355.7 -415.1,355.9 -415.2,356 -415.3,355.9   -415.5,355.7 -415.6,355.7 -415.7,355.6 -415.9,355.6 -416,355.7 -416,355.7 -416.1,355.8 -416.1,355.8 -416.2,355.8 -416.3,355.8   -416.3,355.6 -416.4,355.5 -416.7,355.6 -416.9,355.6 -417,355.5 -417.2,355.4 -417.3,355.3 -417.3,355.2 -417.4,355.1 -417.5,355   -417.5,355 -417.7,354.9 -417.7,354.9 -417.8,354.7 -417.6,354.5 -417.6,354.3 -417.6,354.1 -417.6,354 -417.6,354 -417.7,353.9   -417.8,353.9 -417.9,353.9 -417.9,353.9 -417.9,353.9 -417.9,353.9 -418,353.8 -418.2,353.7 -418.2,353.7 -418.4,353.7   -418.5,353.7 -418.8,353.6 -419,353.4 -419.1,353.4 -419.1,353.3 -419.2,353.3 -419.2,353.2 -419.2,353.2 -419.1,353.1 -419.1,353   -419.2,352.9 -419.2,352.9 -419.3,352.9 -419.3,352.9 -419.4,353.1 -419.4,353.2 -419.5,353.2 -419.6,353.2 -419.6,353.1   -419.5,353 -419.8,352.7 -419.9,352.6 -419.9,352.5 -419.9,352.3 -420.1,352.3 -420.2,352.3 -420.3,352.2 -420.4,352.3   -420.6,352.3 -420.8,352.2 -420.9,352.2 -421.2,352.2 -421.3,352.1 -421.4,352.1 -421.5,352 -421.6,351.9 -421.6,351.7   -421.5,351.6 -421.4,351.5 -421.4,351.4 -421.5,351.4 -421.6,351.3 -421.6,351.3 -421.7,351.3 -421.7,351.2 -421.7,351.1   -421.7,351 -421.7,350.8 -421.7,350.8 -421.8,350.7 -421.9,350.5 -421.9,350.3 -422,350.2 -422.2,350.2 -422.3,350.1 -422.3,349.9   -422.3,349.8 -422.4,349.8 -422.4,349.9 -422.5,350 -422.5,350.4 -422.6,350.4 -422.6,350.4 -422.8,350.3 -422.9,350.2   -422.9,350.1 -422.9,349.8 -422.9,349.8 -422.8,349.6 -422.8,349.6 -422.9,349.4 -422.8,349.3 -422.7,349.3 -422.7,349.2   -422.9,349.1 -423,349.1 -423,349.1 -423,349 -423.1,348.9 -423.1,348.8 -423,348.7 -423,348.6 -423.1,348.5 -423.1,348.5   -423.3,348.4 -423.6,348.4 -423.8,348.2 -424,347.6 -424,347.5 -424,347.5 -424,347.4 -423.9,347.2 -423.8,347.1 -423.9,347.1   -424,347 -424.2,346.9 -424.3,346.8 -424.3,346.6 -424.2,346.5 -424.1,346.4 -424.1,346.3 -424.1,346.2 -424.3,346.1 -424.4,346   -424.3,345.8 -424.2,345.7 -423.9,345.5 -423.9,345.4 -423.9,345.2 -423.9,345.1 -423.9,345 -423.8,344.8 -423.8,344.7   -423.7,344.7 -423.7,344.7 -423.6,344.6 -423.6,344.5 -423.7,344.4 -423.7,344.4 -423.7,344.4 -423.8,343.7 -423.8,343.6   -423.9,343.5 -424.1,343.4 -424.4,343.3 -424.4,343.2 -424.3,342.9 -424.2,342.6 -424.2,342.5 -424.3,342.3 -424.4,342.2   -424.5,342.1 -424.6,342 -424.6,341.8 -424.6,341.5 -424.6,341.4 -424.6,341.4 -424.7,341.3 -424.7,341.2 -424.7,341.2   -424.7,341.1 -424.6,341.1 -424.6,341 -424.6,341 -424.7,340.8 -424.7,340.8 -424.6,340.8 -424.4,340.7 -424.3,340.3 -424.3,340.3   -424.3,340.3 -424.3,340.2 -424.3,340.1 -424.2,339.9 -424.1,339.8 -423.8,339.7 -423.8,339.5 -423.7,339.1 -423.6,338.9   -423.5,338.9 -423.5,338.8 -423.6,338.6 -423.6,338.6 -423.6,338.2 -423.7,338.1 -423.8,337.7 -423.9,337.4 -423.9,337.1   -423.9,336.8 -423.8,336.7 -423.7,336.4 -423.6,336.2 -423.7,336.1 -423.8,336 -423.9,335.9 -423.9,335.8 -424,335.5 -424,335.5   -424.1,335.2 -424.4,335 -424.5,335 -424.7,335 -424.7,335 -424.8,335.1 -425.2,335.4 -425.2,335.5 -425.3,335.6 -425.3,335.6   -425.4,335.8 -425.4,335.8 -425.5,335.9 -425.6,335.9 -425.6,335.9 -425.6,335.9 -425.6,336 -425.6,336 -425.7,336.1 -425.7,336.1   -425.7,336.2 -425.8,336.2 -425.9,336.1 -426,336.1 -426.3,335.9 -426.3,335.9 -426.4,335.8 -426.4,335.8 -426.4,335.8   -426.5,335.8 -426.5,335.8 -426.6,335.8 -426.6,335.8 -426.7,335.8 -426.7,335.7 -426.6,335.6 -426.7,335.6 -427,335.7   -427.1,335.7 -427.1,335.6 -427.1,335.6 -427.1,335.5 -427.2,335.4 -427.2,335.4 -427.3,335.6 -427.3,335.6 -427.3,335.7   -427.3,335.8 -427.4,335.8 -427.4,335.7 -427.5,335.7 -427.5,335.6 -427.5,335.6 -427.6,335.7 -427.7,335.7 -427.8,335.7   -428.1,335.7 -428.2,335.7 -428.4,335.7 -428.5,335.7 -428.8,335.9 -429,335.9 -429,335.9 -429.2,335.8 -429.3,335.8 -429.4,335.8   -429.5,335.8 -429.5,335.8 -429.6,335.9 -429.6,335.9 -429.6,335.9 -429.7,335.9 -429.7,335.9 -429.7,335.8 -430.1,335.9   -430.3,335.9 -430.5,336.1 -430.6,336.1 -431.3,336.2 -431.4,336.3 -431.7,336.5 -431.9,336.5 -432,336.5 -432.5,336.5   -433.3,336.7 -433.4,336.7 -433.5,336.7 -433.5,336.8 -433.5,336.9 -433.5,337 -433.6,337 -434.2,337.2 -434.4,337.3 -435.3,338   -436.5,339.2 -436.8,339.4 -436.9,339.4 -437.1,339.5 -437.1,339.5 -437.2,339.5 -437.2,339.6 -437.3,339.7 -437.4,339.8   -437.5,339.8 -437.8,339.7 -437.9,339.7 -438.2,339.7 -438.4,339.7 -438.5,339.7 -438.5,339.8 -438.5,340 -438.5,340 -438.5,340.1   -438.6,340.1 -438.7,340.1 -439,340.1 -439.1,340.2 -439.2,340.2 -439.2,340.3 -439.2,340.3 -439.2,340.4 -439.3,340.6   -439.4,340.7 -439.6,340.8 -439.9,340.9 -440.1,341 -440.3,341 -440.4,341.1 -440.5,341.2 -440.6,341.5 -440.7,341.6 -440.9,341.8   -441,341.8 -441.1,342.1 -441.2,342.3 -441.3,342.5 -441.5,342.6 -441.7,342.6 -442,342.3 -442.1,342.2 -442.2,342.2 -442.3,342.2   -443.2,342.2 -443.4,342.2 -443.5,342.2 -443.6,342.3 -443.9,342.4 -444,342.5 -444.1,342.6 -444.4,343.1 -444.8,343.5   -444.9,343.7 -445.1,344.1 -445.2,344.3 -445.3,344.4 -445.5,344.6 -445.6,344.7 -445.7,344.7 -446.1,344.8 -446.2,344.8   -446.4,345 -446.5,345.1 -446.7,345 -446.8,345 -446.9,345.1 -447.2,345.2 -447.6,345.4 -447.8,345.5 -448.8,345.8 -449,345.8   -449,345.7 -449.1,345.6 -449.1,345.3 -449,345.2 -449,345 -448.8,344.8 -449,344.7 -449.2,344.7 -449.4,344.7 -449.6,344.8   -449.8,344.8 -449.9,344.8 -450.3,344.7 -450.4,344.7 -450.5,344.7 -450.5,344.7 -450.6,344.7 -451.1,344.5 -451.2,344.5   -451.5,344.5 -451.8,344.4 -452.3,344.4 -452.7,344.4 -453,344.3 -453.2,344.3 -453.5,344.2 -454,344.4 -454.3,344.4 -454.8,344.4   -454.6,344.7 -453.8,346.1 -453.1,347.4 -452.3,348.7 -451.6,350.1 -450.8,351.4 -450,352.8 -449.3,354.1 -448.5,355.4   -448.3,355.8 -448.4,355.9 -448.4,355.9 -448.5,356.1 -448.5,356.2 -448.6,356.3 -448.7,356.4 -448.9,356.5 -449,356.6   -449.1,356.7 -449.1,356.8 -449,356.9 -448.8,357 -448.7,357 -448.9,357.4 -449,357.4 -449.6,357.6 -449.7,357.7 -449.8,357.9   -449.9,358.1 -450.1,358 -450.2,358.2 -450.2,358.4 -450.5,358.5 -450.5,358.7 -450.5,359 -450.4,359.9 -450.5,360.7 -450.4,361   -450.3,361.6 -450.4,363.1 -450.4,363.3 -450.4,363.4 -450.5,363.6 -450.6,363.7 -450.7,363.9 -450.8,364 -450.8,364.1   -450.8,364.2 -450.8,364.2 -450.8,364.3 -450.9,364.3 -451.1,364.3 -451.2,364.3 -451.3,364.5 -451.2,364.7 -450.8,365   -450.7,365.1 -450.7,365.2 -450.8,365.3 -450.8,365.4 -450.8,365.5 -450.7,365.8 -450.6,366 -450.5,366.3 -450.5,366.5   -450.5,366.8 -450.4,366.9 -450,367.2 -449.9,367.3 -449.9,367.4 -449.8,367.6 -449.6,368.1 -449.6,368.4 -449.8,368.6   -450.2,368.6 -450.5,368.7 -450.7,368.8 -450.7,368.9 -450.7,369.1 -450.7,369.4 -450.7,369.5 -450.6,369.7 -450.5,369.8   -450.7,369.9 -451.1,370.2 -451.3,370.3 -451.6,370.6 -451.6,370.7 -451.8,370.7 -451.8,370.7 -451.8,370.9 -451.8,371.2   -451.8,371.3 -452,371.3 -452.2,371.2 -452.3,371.3 -452.4,371.4 -452.5,372.4 -452.6,372.6 -452.7,372.7 -453.1,372.8   -453.2,372.9 -453.3,373 -453.3,373.1 -453.3,373.7 -453.3,373.8 -453.4,374 -453.5,374.2 -453.4,374.3 -453.2,374.5 -453.1,374.6   -452.7,375.2 -452.6,375.3 -452.2,375.7 -452,375.8 -451.9,376 -451.7,376.2 -451.7,376.3 -451.8,376.4 -452,376.4 -452.1,376.4   -452.2,376.7 -452.5,376.8 -452.6,376.9 -452.7,377.1 -452.8,377.2 -452.7,377.4 -452.7,377.5 -452.7,377.5 -452.9,377.6   -453,377.6 -453.1,377.8 -453.1,377.9 -453.2,378.1 -453.2,378.2 -453.7,378.9 -453.7,379.2 -453.7,379.4 -453.6,379.6   -453.3,380.4 -453,381.2 -452.7,381.9 -452.4,382.7 -452.2,383.1 -452,383.4 -451.8,383.6 -451.7,383.7 -451.5,383.7 -451.3,383.7   -451.2,383.7 -451.1,383.6 -451,383.5 -450.9,383.5 -450.7,383.6 -450.5,383.6 -450.3,383.7 -450,384 -449.6,384.1 -449.5,384.2   -449.4,384.4 -449.6,384.7 -450.4,385 -450.6,385.2 -450.8,385.4 -450.9,385.5 -450.9,385.7 -450.9,386.1 -450.9,386.4   -450.9,386.5 -450.7,386.8 -450.8,386.9 -450.9,387 -451,387.1 -451.4,387.3 -451.6,387.4 -451.8,387.4 -451.9,387.5 -452,387.6   -452.1,388 -452.2,388.1 -453,388.9 -453.2,389.4 -453.3,389.5 -453.6,389.6 -453.6,389.7 -453.6,389.8 -453.6,389.8 -453.6,389.8   -453.5,389.9 -453.6,390 -453.7,390.2 -453.9,390.3 -454.1,390.3 -454.3,390.4 -454.5,390.5 -454.9,390.9 -455,390.9 -455.1,390.9   -455.1,390.9 -455.2,391.1 -455.3,391.5 -455.5,391.7 -455.1,391.8 -455,391.8 -454.7,392 -454.5,392.2 -454.4,392.3 -454.3,392.5   -454.3,392.8 -454.3,393.4 -454.3,393.4 -454.3,394 -454.2,394.2 -454.1,394.5 -453.5,395 -453.2,395.3 -453,395.6 -453,395.9   -453,396.5 -452.9,396.7 -452.8,396.9 -452.7,396.9 -452.6,396.9 -452.5,396.8 -452.4,397 -452.3,397.1 -452.3,397.1 -452.1,397.1   -451.9,397.3 -451.8,397.3 -451.6,397.4 -451.5,397.3 -451.4,397.3 -451.3,397.3 -451.2,397.4 -451.3,397.8 -451.5,398   -451.7,398.2 -451.6,398.5 -451.4,398.8 -451.3,398.9 -451.3,399.1 -451.3,399.2 -451.3,399.2 -451.2,399.6 -451.2,399.6   -451.2,400 -451.2,400.2 -450.9,400.6 -450.9,400.8 -450.9,400.9 -450.9,401.3 -450.9,401.7 -450.8,402.1 -450.7,402.4   -450.6,402.5 -450.6,402.6 -450.6,402.7 -450.7,402.8 -450.7,402.8 -450.7,402.8 -450.3,403.7 -450.2,403.7 -450.3,403.9   -450.3,404.1 -450.5,404.3 -450.4,404.4 -450.3,404.5 -450.2,404.8 -450,405.2 -449.9,405.3 -449.8,405.3 -449.5,405.5   -449.3,405.6 -448.6,406.2 -448.4,406.4 -448.1,406.9 -447.9,407 -447.7,407.1 -446.9,407.6 -446.8,407.8 -446.6,407.9   -446.6,408.1 -446.6,408.1 -446.9,408.3 -447,408.4 -447.2,408.6 -447.9,409.7 -448,409.8 -448.3,410.1 -448.4,410.3 -448.5,410.4   -448.4,410.5 -448.1,410.8 -447.8,411 -447.7,411.1 -447.5,411.2 -447.4,411.2 -447.3,411.3 -447.3,411.4 -447.3,411.6   -447.3,411.7 -447.3,411.8 -447.3,411.8 -447.3,411.9 -447.4,412.3 -447.4,412.4 -447.5,412.7 -447.5,412.8 -447.6,412.9   -447.7,412.9 -447.7,412.9 -447.8,412.8 -448.1,412.9 -449,413.1 -449.1,413.3 -449.1,413.4 -448.8,413.6 -448.6,413.6   -448.6,413.7 -448.6,413.9 -448.6,414.2 -448.5,414.5 -448.3,415 -448.7,415.1 -448.8,415.3 -448.9,415.5 -448.9,415.7   -448.8,415.9 -448.6,416.1 -448.5,416.3 -448.3,416.4 -447.6,416.8 -447.2,417 -447,417.1 -446.8,417.3 -446.8,417.4 -447.3,417.8   -447.4,418 -447.5,418.2 -447.5,419.2 -447.4,419.5 -447,419.7 -446.9,419.7 -446.6,419.7 -446.5,419.8 -446.3,419.9 -444.8,422.4   -444.7,422.7 -444.8,424.6 -444.7,424.9 -444.2,425.7 -444.1,426.3 -444,427.6 -444,427.7 -443.9,427.8 -443.7,428 -443.4,428.3   -443.2,428.4 -443.1,428.6 -443,428.8 -443,428.9 -443,429 -443.1,429.1 -443.1,429.2 -443.1,429.3 -442.9,429.6 -442.9,429.8   -442.8,429.9 -443,430.4 -443,430.6 -442.9,430.7 -442.6,431.3 -442.6,431.4 -442.5,431.8 -442.3,432.3 -442.3,432.4 -442.5,433.6   -442.5,434.2 -442.5,434.4 -442.4,434.5 -442.1,434.6 -442.1,434.5 -441.9,434.8 -441.9,434.9 -441.7,434.9 -440.5,435 -440,435   -439.7,434.9 -437.4,434.4 -437.1,433.8 -436.9,433.5 -436.3,433.1 -436.2,433 -436.2,432.8 -436.3,432.1 -436.1,432.1 -436,432.1   -435.9,432.1 -435.8,432 -435.7,431.9 -435.6,431.7 -435.4,431.6 -434.5,431.4 -434.5,431.3 -434.5,431.2 -434.5,431 -434.5,430.9   -434.4,430.8 -434.3,430.6 -434.2,430.1 -434.2,429.9 -434.1,429.7 -433.9,429.6 -433.8,429.5 -433.8,429.5 -433.7,429.6   -433.5,429.6 -433.4,429.6 -433.4,429.6 -433.4,429.6 -433.3,429.5 -433.3,429.5 -432.5,429.2 -431.5,429 -431.3,428.8   -431.3,428.7 -431.2,428.7 -431.2,428.6 -431.1,428.6 -431,428.6 -431,428.6 -431,428.6 -430.9,428.5 -430.9,428.4 -430.8,427.6   -430.5,426.3 -430.4,426.3 -429.7,426.5 -429.4,426.7 -429.2,426.9 -429.1,427.3 -429.1,427.3 -428.4,427.4 -428.2,427.5   -427.3,428.6 -427.1,428.8 -426.9,428.9 -425.9,428.7 -425.8,428.7 -425.8,428.7 -425.7,428.6 -425.7,428.6 -425.2,428.7   -424.8,428.8 -421.6,428.7 -420.2,429 -419.7,429.3 -419.4,429.4 -419.4,429.4 -419.2,429.3 -419.2,429.3 -419.1,429.3 -419,429.4   -418.8,429.5 -418.7,429.5 -418.5,429.6 -418.4,429.6 -418.2,429.9 -418.2,430 -418.1,430.1 -418.1,430.2 -418.2,430.4   -418.3,430.5 -418.3,430.6 -418.2,430.8 -418.1,430.9 -418,431 -418,431.1 -418,431.2 -418,431.3 -418,431.4 -417.9,431.4   -417.8,431.5 -417.8,431.7 -417.7,431.8 -417.3,432.2 -417.3,432.3 -417.3,432.4 -417.4,432.5 -417.4,432.6 -417.4,432.6   -417.5,432.8 -417.5,432.9 -417.5,433 -417.4,433 -417.4,433.1 -417.3,433.1 -417.1,433.5 -417,433.6 -416.9,433.7 -416.8,433.9   -416.7,434.1 -416.8,434.3 -416.7,434.4 -416.7,434.7 -416.5,434.8 -416.5,434.7 -416.4,434.1 -416.3,433.9 -416.3,433.4   -416,432.2 -415.9,432 -415.5,431.7 -415.3,431.4 -414.8,430 -414.7,429.9 -414.6,429.8 -414.5,429.8 -414.3,429.2 -414.2,428.7   -414.1,428.6 -414.1,428.6 -414,428.6 -414,428.5 -413.9,428.5 -413.9,428.4 -413.9,428.3 -413.8,428.1 -413.8,428.1 -413.8,428   -413.7,428 -413.5,427.9 -412.8,428 -412.7,428.1 -412.4,428.3 -412.3,428.4 -411.9,428.1 -411.8,428 -411.5,427.9 -407,428   -406.9,428 -405.9,427.9 -405.6,428 -405.4,428 -405.4,428.1 -405.4,428.4 -405.4,428.4 -405.4,428.5 -405.3,428.6 -405.3,428.8   -405.3,429 -405.2,429.1 -404.8,429.3 -404.5,429.5 -404.5,429.6 -404.4,429.6 -404.4,429.7 -404.4,429.8 -404.3,429.8   -404.2,429.4 -404,428.7 -403.8,428 -403.4,426.9 -403.2,426 -402.8,424.9 -402.6,424.1 -402.3,423.2 -402.1,422.3 -401.8,421.5   -401.6,420.7 -401.6,420.2 -401.6,419.1 -401.6,418.3 -401.6,417.6 -401.6,416.9 -401.5,416.7 -401.3,416.3 -401,415.9   -400.6,415.4 -400.3,414.9 -400,414.5 -399.7,414 -399.5,413.8 -399.4,413.6 -399.3,413.4 -399.2,413.2 -399.1,413 -399,412.8   -398.9,412.6 -398.8,412.4 -398.6,411.9 -398.4,411.3 -398.2,410.7 -398,410.2 -397.8,409.8 -397.8,409.7 -397.7,409.7 -397,409.6   -396.9,409.5 -396.5,409.5 -396.2,409.4 -396,409.4 -393.6,408.9 -391.1,408.3 -388.6,407.8 -386.2,407.3 -385.1,407 -384.5,407   -383.1,407 -381.7,407 -380.3,407 -379,407 -378.4,407 -378.2,407 -378,407.1 -377.8,407.3 -377.4,407.5 -376.8,407.9 -376.1,408.4   -375.4,408.8 -374.7,409.2 -374,409.6 -373.4,410 -372.7,410.5 -372,410.9 -371.7,411.1 -371.6,411.2 -371.6,411.3 -371.6,411.5   -371.6,411.8 -371.5,412.2 -371.5,412.4 -371.5,412.6 -371.5,412.9 -371.5,413.1 -371.6,413.5 -371.6,413.7 -371.3,413.6   -371.2,413.6 -371.2,413.5 -371.1,413.4 -371,413.3 -370.8,413.3 -370.6,412.9 -370.4,412.9 -370.3,412.9 -370.3,412.8   -370.2,412.7 -370.2,412.7 -370.1,412.6 -370,412.7 -369.8,412.7 -369.7,412.6 -369.6,412.5 -369.5,412.4 -369.4,412.3   -370.1,411.6 -370.7,411.1 -371.3,410.6 -371.3,410.4 -371.1,409.8 -371,409.6 -370.8,409.2 -370.6,408.8 -370.5,408.6   -370.5,408.6 -370.3,408.1 -369.8,407.1 -369.3,406 -369.1,405.6 -368.9,405.2 -368.8,405.1 -368.4,405.1 -368.4,404.8   -368.4,404.3 -368.5,404.2 -368.6,404.1 -368.8,404.1 -368.8,403.8 -368.4,402.7 -368.1,401.6 -367.7,400.5 -367.4,399.4   -367.3,399.1 -367.2,399 -367.1,399 -366.5,398.9 -366.5,398.8 "/></svg>