<svg xmlns="http://www.w3.org/2000/svg" xmlns:xlink="http://www.w3.org/1999/xlink" version="1.1" x="0px" y="0px" viewBox="-461 335 100 100" fill="#999999" style="enable-background:new -461 335 100 100;" xml:space="preserve"><polygon points="-361.5,380.6 -361.7,380.7 -361.9,380.9 -362,381 -362.3,380.8 -362.7,380.3 -363.5,379.8 -364.1,378.9   -364.5,378.5 -364.7,378.3 -364.8,377.7 -365,377.4 -365.2,377.4 -365.4,377.7 -365.6,377.8 -365.8,377.6 -366,377.4 -367.2,376.5   -367.6,376 -367.8,375.6 -367.9,374.9 -368.2,374.1 -368.6,373.4 -369.1,373.1 -369.3,373 -370.1,373.2 -370.5,373.2 -370.7,373.1   -371.2,372.9 -372.3,372.6 -372.9,372.4 -373.3,371.8 -373.9,370.6 -374.1,369.9 -374.1,369.2 -373.9,368.4 -373.5,368   -373.2,367.4 -373.2,366.5 -373.6,364.9 -373.5,364.3 -372.6,364 -372.4,363.9 -372.2,363.6 -372.1,363.3 -372,363.1 -372.1,362.5   -372,362.3 -371.9,362.1 -371.6,361.9 -371.5,361.8 -370.3,359.8 -369.9,358.7 -369.7,358.3 -369.4,358 -368.9,357.6 -368.7,357.2   -368.6,356.6 -367.7,352.3 -367.6,352.1 -367.5,352.1 -367.4,352 -367.4,351.6 -367.5,351.3 -367.6,351.1 -367.7,351 -368,350.7   -368,350.7 -368.3,350.8 -368.5,350.7 -369.1,350.2 -369.3,350.2 -369.5,350.3 -369.8,350.3 -370.9,350.1 -371.1,350.1   -371.6,350.3 -371.9,350.3 -372,350.2 -372.1,349.9 -372.2,349.6 -372.6,349.7 -374.9,351.4 -375.3,351.5 -375.8,351.6   -376.6,351.9 -376.8,351.9 -379.8,352 -380.6,351.7 -380.6,351.7 -381,351.5 -380.9,351.4 -381.3,351.1 -381.5,351 -382,350.4   -382.4,350 -382.7,349 -382.7,349 -382.6,348.9 -382.5,348.6 -382.1,348.4 -381.9,348.2 -381.8,348 -381.8,347.9 -381.8,347.8   -381.8,347.7 -381.9,347.7 -382,347.5 -382,347.4 -382.1,347.3 -382.1,347.1 -382.1,346.9 -382.2,346.7 -382.3,346.6 -382.3,346.6   -382.4,346.6 -382.5,346.5 -382.7,346.5 -383.2,346.5 -383.5,346.4 -383.6,346.2 -383.8,346 -384.8,344 -384.9,343.9 -385,343.8   -385.1,343.8 -385.3,343.8 -385.4,343.9 -385.4,344 -385.4,344.2 -385.5,344.3 -385.5,344.4 -385.6,344.5 -385.8,344.7   -386.1,344.6 -386.1,344.5 -386.2,344.4 -386.3,344.3 -386.3,344.1 -386.4,343.9 -386.5,343.6 -386.7,343.4 -386.7,343.3   -386.8,343.3 -386.9,343.3 -387.1,343.3 -387.4,343.5 -387.6,343.6 -387.8,343.6 -388,343.5 -388.2,343.5 -388.4,343.5   -388.8,343.6 -388.8,343.9 -388.7,344.2 -388.7,344.4 -388.7,344.8 -388.7,344.9 -389.3,344.9 -390,344.6 -390.2,344.5   -390.2,344.8 -390.3,344.8 -390.3,344.6 -390.5,344.5 -390.7,344.3 -390.9,344 -390.9,343.9 -391.4,343.3 -391.7,343.1   -391.9,342.9 -392,342.9 -392.4,342.7 -394.2,342.6 -394.6,342.4 -395.4,341.8 -395.7,341.5 -396.3,341.3 -396.9,341.4 -397,341.4   -397.3,341.7 -397.3,342.2 -397.4,342.6 -397.4,342.7 -397.5,343.1 -397.7,343.2 -397.9,343.4 -398,343.4 -398.5,343.5   -398.7,343.5 -398.8,343.5 -399.2,343.5 -399.6,343.4 -400.2,343.2 -401.4,342.1 -401.6,341.9 -401.7,341.8 -402.1,341.6   -402.5,341.6 -402.9,341.8 -404.4,343.7 -404.8,344.1 -405.1,344.2 -405.8,344.4 -406.1,344.5 -406.5,344.7 -406.7,344.7   -406.8,344.7 -407,344.6 -407.3,344.5 -407.6,344.2 -407.7,344.1 -409.1,342.2 -409.9,341.5 -410.6,341.1 -410.9,341.1   -411.4,341.1 -412,341.4 -412.9,342.4 -412.9,342.4 -413.5,342.7 -413.7,342.7 -414.3,342.6 -415.6,342.8 -415.8,342.9   -415.6,342.6 -415.4,341.9 -415.8,342.1 -416,342.2 -416.3,342.3 -416.6,342.2 -416.6,342.1 -416.5,341.9 -416.4,341.7   -416.4,341.5 -416.6,341.3 -416.8,341.1 -416.9,341.3 -416.9,341.5 -417,341.6 -417,341.6 -417,341.6 -417.8,341.9 -418.1,341.9   -418.3,341.9 -418.4,341.8 -418.6,341.7 -418.8,341.5 -419.7,341 -419.8,340.9 -420.2,340.8 -421.2,340.1 -421.6,341.2   -421.7,341.4 -421.9,341.4 -423,341.5 -423.2,341.6 -423.3,341.6 -424.6,341 -425.5,340.6 -426.3,340 -426.6,339.8 -427.1,338.7   -427.2,338.8 -427.2,338.8 -427.4,338.9 -427.7,339.1 -427.8,339.2 -427.8,339 -427.7,338.9 -427.7,338.7 -427.7,338.4   -427.8,338.1 -428.1,338.6 -428.2,338.5 -428.4,338.4 -428.7,338 -428.9,338 -429.1,337.9 -429,338 -429,338.1 -428.9,338.4   -429.5,338.5 -429.5,338.4 -429.8,338.2 -429.8,337.6 -429.9,337.2 -430,336.9 -430.1,336.7 -430.2,336.7 -430.9,337.3 -431,337.3   -431,337.4 -431.2,337.7 -431.5,338 -431.5,338.1 -431.7,338.2 -431.7,338.3 -431.8,338.6 -431.9,338.6 -432.1,338.8 -432.1,338.8   -432.3,338.8 -432.4,338.9 -432.6,339.1 -432.7,339.4 -432.7,339.6 -432.7,340.1 -433,340.4 -433,340.4 -433.3,340.4 -433.7,340.5   -436.2,339.7 -438.8,338.9 -439.5,338.9 -440.3,338.9 -441.5,339.8 -442.3,341.6 -442.7,342.2 -442.9,342.4 -443.6,342.6   -443.9,342.7 -444,342.9 -444,343.1 -444,343.3 -444,343.5 -444,343.9 -444.1,344.1 -444.1,344.3 -444.3,344.5 -444.6,345.2   -444.9,346.1 -444.9,346.2 -444.9,346.3 -444.8,346.4 -444.9,346.8 -445.6,347 -446.5,346.8 -447.2,346.5 -447.5,346.4   -447.7,346.2 -448.2,345.9 -448.7,345.4 -450.6,343.6 -451,342.9 -451.3,342.1 -451.6,341.5 -451.7,341.4 -452,340.9 -452.3,340.6   -452.8,340.5 -452.9,340.5 -453,340.3 -453,340.2 -452.9,339.9 -452.9,339.6 -453.2,339.3 -453.5,339.1 -453.5,339.2 -453.8,339.2   -454.3,339.3 -455.9,339.2 -456.8,339.2 -457.9,339.4 -458.2,339.4 -458.4,339.6 -459,340.2 -459.3,341 -459.4,341.3 -459.3,343.4   -459.4,343.9 -459.7,344.7 -460,345.5 -460,346.2 -459.9,346.4 -459.7,347.2 -459.8,347.9 -460.4,349 -460.6,349.6 -460.5,350.2   -460.5,350.5 -460.2,351.3 -459.7,351.9 -459.5,352.6 -459.5,352.6 -459.6,353.2 -460.1,353.4 -460.6,353.6 -461,354.1 -461,354.4   -460.9,354.7 -460.6,355.3 -460,356.3 -459.9,356.5 -459.8,356.6 -459.3,356.9 -459.1,357.2 -459.1,357.3 -459,357.4 -458.9,357.7   -458.7,357.8 -458.6,357.9 -458.3,357.8 -458,357.8 -457.6,357.7 -457.4,357.7 -457.2,357.4 -457,357.1 -456.8,356.9 -456.5,356.9   -456.4,357.1 -456.3,357.4 -456.2,357.7 -456.2,357.8 -456.1,358 -456.1,358.1 -455.9,358.3 -455.7,358.2 -455.5,358.1   -455.3,358.1 -455.2,358.3 -455,358.5 -454.9,359.1 -454.8,359.4 -454.8,359.5 -454.5,359.9 -454.4,360 -454.2,360.1 -454,360.2   -453.9,360.2 -453.6,360.3 -453.3,360.3 -453,360.5 -452.8,360.8 -452.7,361 -452.6,361.2 -452.6,361.5 -452.6,361.7 -452.6,361.7   -452.8,361.9 -452.8,361.9 -452.9,362.4 -453.3,362.9 -453.5,363.5 -453,364.1 -452.9,364.1 -452.5,364.1 -451.9,363.8   -451.5,363.7 -451.3,363.7 -451,363.8 -450.7,364.2 -450.5,364.8 -450.4,365.5 -449.8,367.3 -449.6,367.9 -449.6,368.5   -449.7,368.6 -449.8,368.8 -450,368.9 -450,368.9 -450.2,369.1 -450.2,369.3 -450.1,369.3 -449.8,369.3 -449.3,369.4 -449.2,369.4   -448.8,369.7 -448.7,369.8 -448.5,370 -448.4,370.2 -448.4,370.3 -448.4,370.5 -448.5,370.9 -448.5,371 -448.6,371.2 -448.7,371.5   -448.8,371.8 -448.9,372.2 -448.9,372.7 -448.7,373.9 -448.4,374.7 -448.2,375.4 -447.8,376 -446.6,377.2 -446.4,377.6   -446.3,377.9 -445.7,379.3 -445.4,379.7 -445.3,379.9 -444.8,380.4 -444.7,380.5 -444.5,380.6 -444.3,380.8 -444.1,380.8   -443.4,380.7 -443.2,380.8 -443.1,380.8 -442.8,381.2 -442.8,381.4 -442.7,381.6 -442.6,381.9 -442.5,382.3 -442.4,382.4   -442.3,382.4 -441.3,382.7 -441.2,382.8 -440.8,383.1 -440.5,383.6 -440.4,383.6 -439.5,385 -438.8,385.7 -438.2,386.3   -437.7,387.1 -437.4,387.4 -436.3,388.4 -436.1,388.8 -436,389 -435.9,389.2 -435.9,389.5 -435.8,389.9 -435.7,390.3 -435.3,390.9   -433.5,392.3 -432.5,393.1 -430,395.6 -428.4,397.3 -428.1,397.7 -427.2,398.8 -425.8,400 -424.3,400.8 -421.8,401.2 -421.5,401.4   -421,401.7 -420.9,401.9 -420.6,402.6 -420.7,403.4 -421.1,405.6 -420.7,406.7 -420.5,407.4 -419.5,408.9 -418.7,409.7   -418.5,409.9 -417.9,410.2 -417.7,410.4 -417.5,410.8 -417.4,411.1 -417.3,411.5 -417,412.1 -416.8,412.4 -416.6,412.6   -412.9,415.1 -411.9,416.2 -411.9,416.3 -411.2,417.8 -411,418.2 -411,419 -411,419.2 -411.3,419.4 -411.7,419.7 -413.1,420   -412.5,420.3 -412.1,420.7 -412.6,420.6 -413.3,420.2 -413.7,420.2 -411.2,421.7 -410.9,421.3 -410.7,421.1 -410.6,420.9   -410.2,420.8 -410,420.7 -409.4,420.8 -408.4,421.3 -408.2,421.3 -407.8,421.4 -407.6,421.3 -407.4,421.1 -407.2,421.1   -407.1,421.2 -406.9,421.5 -406.9,421.7 -406.9,421.8 -406.9,422.5 -406.9,422.6 -406.8,423 -406.5,423.5 -406,424.3 -405.7,424.5   -404.8,424.7 -404.2,425.2 -403.3,426.3 -403.1,426.5 -402.6,426.9 -402.5,427 -402.3,427.2 -401.2,427.9 -396.7,430.9 -396.5,431   -395.8,431.4 -394.5,431.9 -394.3,431.9 -393.8,431.8 -393.5,432.1 -393.4,432.2 -393.1,432.6 -393,432.8 -392.9,432.8   -392.6,433.1 -391.9,433.1 -391.7,433.2 -391.5,433.2 -391.2,433.3 -391,433.1 -390.8,433 -390.6,433 -390.5,433.1 -390.2,433.2   -389.9,433.2 -389.8,433 -389.9,432.6 -390,432.4 -390.1,432.3 -389.7,432.1 -389.3,431.9 -388.8,431.3 -388.5,430.6 -388.5,429.6   -388.7,428.6 -389.1,428.1 -389.7,427.5 -389.9,427.1 -390.5,426.1 -390.8,425.4 -390.9,425.2 -391,425 -391.1,424.4 -391.1,423.8   -391.1,423.7 -390.9,423.4 -390.6,423.1 -390.4,422.8 -390.4,422.8 -390.4,422.8 -390.5,422.1 -391.1,420.9 -391.3,420.3   -391.4,420.2 -391.4,419.6 -390.9,418.2 -390.1,417.5 -388.9,417.2 -388.7,417.2 -387.2,417.1 -386.1,417.3 -386.1,417.2   -386.6,414.6 -386.6,413.7 -386.3,412.6 -385.9,411.7 -385.5,411.1 -384.8,410.2 -384.9,410.1 -385.4,409.9 -385.3,409.6   -385.1,409.3 -382.4,407.3 -381.8,406.9 -381.6,406.8 -381.1,406.6 -381.2,406.6 -381.2,406.5 -381.4,406.2 -381.5,406   -381.1,405.8 -381,405.8 -380.6,405.7 -379.5,405.6 -379.2,405.7 -378.8,405.8 -378.1,406.3 -377.9,406.6 -377.9,407.1   -377.9,407.2 -377.9,407.4 -377.6,407.7 -377.1,408.4 -377.1,408.5 -377,408.6 -376.9,408.5 -376.8,408.4 -376.6,408.1   -376.4,407.8 -376.2,407.5 -375.9,407.4 -375.2,407.3 -375.3,407.2 -375.1,407.1 -375.4,406.6 -375.9,405.6 -376.2,404.8   -376.7,403.6 -377.4,402.6 -377.6,402.4 -377.6,402.4 -377.7,402.3 -378.3,402.4 -378.3,402.3 -378.2,402 -378.2,402 -378.2,401.7   -378.4,401.4 -378.5,401.2 -378.6,401.2 -378.7,401.1 -379.1,401 -379.2,400.9 -379.4,400.8 -379.4,400.5 -379.3,400.5   -379.2,400.2 -379.1,400.1 -379,400 -378.8,400 -378.5,399.8 -377.9,399.1 -377.5,398.8 -376.9,398.8 -376.7,398.9 -376.6,399.1   -376.5,399.3 -376.3,399.7 -376.2,399.8 -375.9,400.1 -375.5,400.3 -375,400.3 -374.5,400.1 -374.2,399.8 -373.8,399.2   -373.1,399.2 -371.9,399.4 -371.3,399.4 -371,398.8 -370.8,398 -370.4,397.4 -370.1,397.3 -369.5,397.4 -369.2,397.4 -368.9,397.2   -368.3,396.8 -368,396.7 -367.6,396.9 -367.2,397.5 -366.8,398.2 -366.6,398.8 -366.4,399.1 -366.2,398.8 -365.9,398 -365.5,398   -364.6,398.4 -364.4,398.3 -364.3,398.1 -364.4,397.9 -364.6,397.8 -364.7,397.4 -364.7,396.9 -364.7,396.4 -364.6,396   -363.9,395.3 -364,394.4 -364.6,392.4 -365.1,391.3 -367.7,388.4 -369.1,386.2 -369.9,385.2 -370.7,384.5 -371,384.3 -370.7,384   -370.7,383.8 -370.8,383.3 -370.8,383.1 -370.7,382.7 -370.4,382.6 -369.9,382.4 -369.5,382.4 -369.2,382.5 -368.6,383   -367.9,383.6 -367.6,383.8 -367.2,383.7 -366.8,383.6 -365.4,383.6 -364,383.7 -363.4,383.6 -362.7,383.4 -361.7,382.6   -361.2,382.2 -361,381.6 -361.2,380.9 "/></svg>