<svg xmlns="http://www.w3.org/2000/svg" xmlns:xlink="http://www.w3.org/1999/xlink" version="1.1" x="0px" y="0px" viewBox="-461 335 100 100" fill="#e0e0e0" style="enable-background:new -461 335 100 100;" xml:space="preserve"><path vector-effect="none" d="M-404.9,335.1l-0.4,0.9v0.3l0.1,0.3l0.3,0.7l0.4,0.7l0.3,0.3l0.3,0.2l0.3,0.2l0.2,0.4l0.3,0.8l0.3,0.5  l0.1,0.2l0.1,0.4l0.1,0.1l0.1,0.2l0.7,0.7l0.3,0.2l0.1,0.1l0.5,0.7l0.3,0.3l0.4,0.2l0.3,0.2l0.1,0.4l0.1,0.8l0.4,0.8l1.3,1.2  l0.3,0.9l0,0.2l-0.2,0.4l0,0.2l0,0.3l0.1,0.2l0.3,0.4l0.3,0.4l0.2,0.5l1,2.8l0.3,0.4l0.4,0.2l0.5,0.1l0.5,0l0.1,0l0.1,0.1l0.1,0.1  l0.1,0.1l0,0.1l-0.1,0.2l-0.1,0.1l-0.1,0l0,0l0.1,0.1l0.1,0l0.3,0.1l0.2,0.1l0.3,0.4l0.2,0.2l0.2,0.1l0.4,0.1l0.2,0.1l0.4,0.3  l0.2,0.2l0.1,0.2l0.1,0.2l0.1,0.1l0.2,0.1l0.5,0.1l0.1,0.1l0.1,0.1l0.1,0.2l0.2,0.2l0.2,0.1l0.2,0l0.2,0l0.4,0.1l1.2,0.6l0.4,0.1  l0.3,0l0.3,0l0.3,0.2l0.1,0.1l0.2,0.3l0.1,0.1l0.1,0l0.1,0l0.1,0l0.1,0l0.2,0l0.2,0.1l0.2,0.1l0.1,0.2l0.5,1.3l0.2,1.3l-0.2,1.6  l0.4-0.2l0.4,0l1.2,0l0.8,0.1l0.6-0.1l0.4,0.2l0.4,0l0.2,0.1l0.1,0.1l0.1,0.2l0,0.4l-0.1,0.4l-0.1,0.4l0.3,0.9l0,0.4l-0.2,0.9  l-0.1,0.1l-0.1,0.1l-0.1,0.1l0,0.1l0,0.1l0,0.2v0.1l0.1,0.6l0,0.2l-0.1,0.6l0,0.2l0.1,0.2l0.4,0.5l0.2,0.2l0.7,0.5l0.3,0.4l0.3,0.4  l0.4,0.4l0.1,0.2l0,0.1l0,0.2l0,0.1l0.1,0.1l0.2,0.2l0.3,0.6l0,0.1l0,0.1l-0.1,0.1l0,0.1l0,0l0.1,0l0,0.1l-0.1,0.1l0,0.1l0,0l0.1,0  l0.1,0l0.1,0.1l0.1,0.2l0.1,0.1l0.1,0.1l0.1,0.1l0.2,0.1l0.6,0l0.8,0.1l1.2,0l0.4,0.1l0.4,0.1l0.8,0.4l0.2,0.1l0.2,0l0.2-0.1  l0.4-0.1l0.1,0l0.1,0l0.3,0.1l0.3,0l0.1,0l0.4,0.3l0.5,0.1l1.5,0.7l0.3,0.1l0.6,0l0.3,0.1l0.2,0.1l0.4,0.1l0.2,0.1l0,0.2l-0.1,0.3  l-0.2,0.3l-0.1,0.2l0,0.5l0.1,0.5l0.2,0.4l0.3,0.3l0.4,0.2l0.4,0.1l1,0l0,0l0.1,0.1l0.1,0.1l0.1,0.2l0.1,0.1l0.8,0.7l-0.2,0.1  l-0.3,0l-0.6-0.1l-0.3,0l-0.2,0.1l-0.2,0.1l-0.2,0.1l-1.2,0.1l-0.1,0l-0.2,0.3v0.1l-0.2,0.1l-0.2,0.2l-0.2,0.3l0.1,0.8l0,0.1  l-0.1,0.1l-0.2,0.4l-0.2,0.1l-0.4-0.1l-0.2,0l-0.1,0.1l-0.1,0.2l-0.1,0.1l-0.2,0.1l-0.2,0l-0.4,0.1l-0.7,0.4l-0.4,0.1h-0.3l-0.2,0  l-0.2,0l-0.2,0.2l-0.2,0l-0.6-0.2l-0.8,0.1l-0.4,0.1l-0.4,0.2l-0.2,0.1l-0.4,0.4l-0.1,0.1l-0.2,0l-0.1,0l-0.1,0.1l-0.3,0.4l-0.1,0.1  l0,0.1l0,0.1l0,0.1v0.1l-0.1,0.1l-0.1,0.1l-0.1,0l-0.1,0l-0.1,0l0,0.1l-0.1,0.2l0,0.1l-0.2,0.1l-0.2,0.1l-0.2,0.1l0,0.1l0.1,0.2  l0,0.2l-0.1,0.2l-0.2,0.2l-0.1,0.1l-0.2,0.1l-0.2,0.1l-0.2,0l-0.1,0.1l0,0.3l0.1,0.5l-0.2,0.3l-0.3,0.2l-0.4,0.2l-0.4,0.1l0.1,0.2  l-0.2,0.1l-0.2,0l-0.1,0l0,0.1l0,0.1l0,0.1l0,0.1l0,0l0,0l0,0l0,0l0,0l-0.1,0.1l0,0l-0.2,0.4l-0.1,0.1l-0.1,0.1l-0.1-0.1l-0.3-0.3  l-0.4,0.3l-0.1,0l-0.1,0l-0.1-0.1l-0.1,0l-0.1,0.3l-0.2,0.2l0,0.2l0,0.1l0,0.1l0,0.1l0,0l0,0l0,0.1l0,0.1l0,0.1l-0.1,0.2l-0.2,0.2  l-0.2,0.1l-0.2,0.1l-0.4,0l-0.1,0.1l-0.1,0.1l-0.1,0.1l-0.1,0.1l-0.1-0.1l0.1-0.2l-0.1,0l-0.2,0.1l-0.1,0.1l0,0.1l-0.1,0.1l-0.1,0.1  l-0.1-0.3l-0.1,0.1l-0.2,0.4l-0.2,0.2l-0.2,0.1l-0.4,0.2l-0.4,0.1l-0.1,0.1l0.1,0.2l-0.1,0l-0.1,0l-0.1,0l-0.1-0.1l0,0.1l-0.1,0.1  l0,0.1l-0.1-0.1l-0.1,0l-0.1,0l0,0.1l0,0.1l0.1,0.1l0.1,0.1l0,0.1l-0.1-0.1l-0.1,0l-0.1,0.1l-0.1,0.1h0.1l-0.2,0.1l-0.1,0.1l0,0.1  l-0.1,0l-0.1,0l0,0.2l0.1,0.2l0,0.2l-0.2,0.1l-0.2,0l-0.1-0.1l-0.1-0.1l-0.1,0l-0.1,0.1l-0.2,0.5l-0.2,0.4l-0.1,0.2l0,0.2l-0.3,0.5  l0.1,0.2l0,0.3l-0.7,2.9l0,0.5l-0.2,1l-0.1,0.2l-0.2,0.1l-0.2,0.1l-0.9,0.3l-0.2,0.1l-0.1,0.2l-0.6,0.6l-0.7,0.4l-0.3,0.2l-0.3,0.3  l-0.3,0.8l-0.1,0.1l-0.7,0.7l-0.2,0l-0.2,0l-0.2,0l-0.2,0l-0.5,0.1l-2.7,0.8l-0.3,0.2l-0.2,0.1l-0.5,0l-0.3,0.1l-0.1,0l-0.1,0.1  l0,0.3l0.1,0.8l0,0.5l-0.1,0.4l-0.3,0.7l0,0.4l-0.3,0.5l-0.2,0.7l-0.9,2l-0.3,1.5l-0.6,1.3l-0.2,0.7l-1.3,1l-0.7,0.4l-2.1,0.2  l-0.4-0.1l-0.5-0.1l-0.4-0.1l-0.4,0.1l-0.5,0.2l-0.6,0.5l-0.2,0.1l-0.6,0.2l-0.3,0l-0.3-0.1l-0.3-0.1l-0.7,0.1l-0.4-0.1l-0.5-0.4  l-1.2-0.5l-0.2,0l-0.2,0.1l-0.3,0.1l-0.5-0.1l-0.4-0.3l-0.7-0.8l-0.4-0.3l-0.5,0l-1.1,0.3l-0.2,0l0-0.1l0.1-0.1l0-0.1l-0.1-0.1  l-0.1-0.1l-0.1,0l-0.5,0.1l-0.2-0.1l-0.2-0.2l-0.5-0.3l-0.4-0.5l-0.1-0.1l-0.2-0.1l-0.1-0.1l-0.1-0.1l-0.1-0.2l-0.1-0.1l-0.6-0.2  l-0.1-0.1l-0.1-0.1l-1.1-0.8l-0.3-0.2l-0.3-0.1l-0.1-0.1l-0.1-0.1l-0.2-0.2l-0.1-0.1l-0.1,0l-0.1,0l-0.3,0.1l-0.2,0l-0.2,0l-0.5-0.2  l-0.6-0.1l-0.5,0l-0.5,0.1l-0.8,0.4l-0.1,0.1l-0.1,0.1l-0.1-0.1l0-0.1l-0.1-0.1l-0.2,0l-0.2,0.1l-0.4,0.4l-0.1,0.1l0,0.1l0,0.1  l-0.1,0.1l-0.1,0.1l-0.1,0.1l-0.1,0.1l-0.1,0.1l-0.2,0.4l-0.1,0.1l-0.3,0.1l-0.1,0.1l-0.2,0.7l-0.1,0.2l0,0.1l0,0.1l0.1,0.1l0.1,0.1  l0,0.1l-0.1,0.1l-0.1,0.1l0,0.1l0,0.1l0,0.1l0,0.2l0,0.1l-0.1,0.1l-0.5,0.5l-0.1,0.2l-0.1,0.2l0,0.2l0,0l0.1,0l0.1,0.1l0.1,0.2  l0,0.1l-0.1,0.2l-0.2,0.2l-0.2,0.2l-0.1,0.2l0.1,0.2l0.1,0.1l0,0.3l0,0.3l-0.1,0.2l-0.1,0.1l-0.1,0.1l-0.3,0.1l-0.1,0.1l0,0.1l0,0.1  l0,0.1l-0.4,0.7l-0.1,0.1l-0.2,0.1l-0.1,0.2l-0.2,0.4l-0.2,0.3l-0.2,0.1l-0.5-0.1l-0.3,0.1l-0.2,0.2l-0.3,0.5l-0.5,0.5l-0.2,0.1  l-0.2,0.1l-0.5,0.1l-0.1,0.1l-0.1,0.2l-0.4,0.4l-0.2,0.4l-0.3,0.9l-0.4,0.6l-0.5,0.5l-0.6,0.4l-0.6,0.2l-1,0l-0.3,0.1l-0.3,0.1  l-0.1,0.1l0,0.2l0.1,0.5l0,0.2l0,0.2l-0.1,0.2l-0.2,0.2l-0.6,0.4l-0.2,0.1l-0.2,0l-0.6-0.2l-0.9,0l-0.5-0.2l-0.2,0l-0.5,0l-0.9,0.2  l-0.1,0l-0.3,0h-0.1l-0.9,0.3l-0.3,0l-1.3-0.3l-0.4-0.3l-0.4-0.2l-0.6,0.1l-0.3,0.1l-0.5,0.3l-0.7,0.3l-0.2,0.2l0,0l-0.1-0.1  l-0.1-0.4l-0.1-0.1l-0.2-0.1l-0.1-0.1l-0.1-0.1l-0.1-0.3l-0.1-0.4l-0.1-0.4l0-0.3l0.2-0.8l0-0.3l-0.1-0.2l-0.2-0.2l-0.1-0.1l0-0.3  l0-0.3l0.1-0.6l0-0.1l0.3-0.2l0.1-0.2l0.3-0.6l0.6-0.7l0.2-0.4l0.2-0.4l0.4-0.6l0-0.2l-0.4-0.7l0-0.2l0-0.8l-0.1-1l-0.3-0.7v0  l-0.1-0.1l-0.1,0l-0.1,0.1l-0.1,0l0-0.1l0.1-0.2l-0.2-0.7l-0.1-0.2l-0.1-0.1l-0.3-0.1l-0.1-0.1v-0.1l0.1-0.2l0-0.1l-0.1-0.1l-0.1,0  l-0.1,0l0-0.1l0.1-0.1l0.2-0.1l0.1-0.1l-0.1-0.3l-0.5-0.4l0-0.3l0.1-0.2l0.3-0.2l-0.1-0.1l-0.1,0l-0.1,0.1l-0.1,0l-0.1,0l0-0.1  l0.1-0.1l0-0.1l-0.2,0l0-0.2l-0.1-0.1l-0.3-0.1l-0.2-0.1l-0.1-0.1l-0.1-0.3l0-0.1l-0.1-0.1l0-0.1v-0.1l0-0.1l0-0.1l0-0.1l-0.1-0.1  l-0.2-0.1l-0.1-0.1l0-0.1l0-0.3l-0.2-0.1l-0.2-0.1l-0.1-0.1l0.1-0.2l0-0.2l-0.1-0.2l-0.3-0.4l-0.3-0.7l-0.1-0.1l-1.3-1.1l-0.8-0.5  l-0.1,0l-0.2,0l-0.1,0l-0.1-0.1l-0.3-0.3l-0.5-0.4l-0.2-0.3l-0.2-0.1l-0.1-0.1l0-0.2V409l0-1.9l0-1.9v-1.9l0-1.9v-1.9l0-1.9l0-1.9  v-1.9v-1.9l0-1.9l0-1.9v-1.7v-1.7l0-1.6l0-1.6v-0.9h2.4h2.4h2.4h2.4h0.6l0.1-0.4v-0.4l0-0.6l0-0.6v-0.6l0-0.6v-0.6l0-0.6l0-0.6v-0.6  l0-0.6v-0.6l0-0.6l0-0.6v-0.6v-0.6l0-0.6l0-0.6l0-1.4l0-1.4l0-1.4l0-1.4l0-1.4l0-1.3l0-1.3l0-1.4l0-1.3l0-1.3l0-1.3l0-1.3l0-1.3  l0-1.3l0-1.3l0-1.3v-0.4v-0.4v-0.4v-0.4v-0.4v-0.4V345v-0.4v-0.4v-0.4v-0.4v-0.4v-0.4v-0.4v-0.4V341v-0.3l0.5,0l0.6,0l0.6,0l0.6,0  l0.6,0l0.5,0l0.5,0l0.5,0l0.5,0l0.2,0l0.2,0l0.2,0l0.2,0l0.2,0l0.2,0l0.9-0.2l0.9-0.2l0.9-0.2l0.9-0.2l0.9-0.2l0.9-0.2l0.9-0.2  l0.9-0.2l0.9-0.2l0.9-0.2l0.9-0.2l0.9-0.2l0.9-0.2l0.9-0.2l0.9-0.2l0.9-0.2l0.9-0.2l1.2-0.1l0.9-0.1l0.7-0.1l0.4,0l0.1,0.1l0.1,0  l0,0.1v0.1l0,0.1l0.1,0l0.1,0l0,0l0,0.3l0,0.1l0,0.1l0.1,0.2l0.1,0.3l0.3,0.4l0.1,0.1l0,0.1l0,0.2l0,0.1l0.1,0l0.1,0l0.1,0l0.1-0.1  l0.2,0.1l0.1,0.2l0.1,0.1l0.1,0.1l0.1,0l0.1,0l0,0.1l0.1,0.1l0.1,0.1l0.1,0.1l-0.1,0.2l0.3,0.4l0.1,0.2l-0.1,0.2l0.1,0.1l0.2,0.5  l0.1,0.4l0.1,0.1l0.2,0l0.4-0.1l0,0l0.1-0.1l0.2-0.3l0.2,0l0.2-0.1l1-1l0.2,0l0.1-0.1l0.2-0.3l0.1-0.1l0.3-0.2l0.2-0.2l0-0.4  l0.4-0.3l0.1,0l0.1,0l0,0l0,0l0-0.1l0-0.1l0.1-0.1l0.3-0.1l0.1-0.1l0.3-0.3l0.1,0l0.4-0.1l0.3-0.2l0.5-0.6l0.4-0.2l0.2,0l0.2,0  l0.1,0l0.2,0.1l0.1,0l0.1-0.1l0.3-0.5l0.2-0.2l0.2-0.1l0.4,0l0.2,0l0.1,0.1l0.2,0.3l0.1,0.1l0.1,0l0,0.1l0,0.2l0.3,0.3l0.1,0l0.5,0  l0.1,0l0-0.1l0.1-0.2l0-0.1l0,0l0.5-0.6l0.2-0.1l0.4-0.2l0.3-0.4l0.1,0l0.1,0l0.1,0l0.1,0l0.1,0l0.1-0.2l0.1,0l0.2,0l0.2-0.2l0.2,0  l0.2,0l0.8-0.2l0.1,0l0.1-0.1l0-0.1l0.1-0.1l0.1,0l-0.1,0.2l0.1,0.1l0.1,0.1l0.1,0l0.2-0.1l0.1,0.1l0.1,0l0.3-0.2l0.1,0.2l0.3,0  l0.3-0.1l0.3-0.3l0.4,0L-404.9,335.1"/></svg>