<svg xmlns="http://www.w3.org/2000/svg" xmlns:xlink="http://www.w3.org/1999/xlink" version="1.1" x="0px" y="0px" viewBox="-461 335 100 100" fill="#e0e0e0" style="enable-background:new -461 335 100 100;" xml:space="preserve"><path d="M-437.3,411.2l-0.1,0.2h-0.9l-0.1,0.2l0.2,0.2l0.4,0.2l0.1-0.2l0.7,0l0.2-0.4l-0.2-0.2L-437.3,411.2z M-434.7,410.6  l-0.3,0.3h-0.3l-0.1,0.2l-0.4,0l-0.2,0.2v0.2l0.4,0.2l1.4,0l0.1-0.1l0.3,0l0.5-0.4l-0.1-0.4L-434.7,410.6z M-438.5,400.2l-0.4-0.2  l-0.4,0l-0.2-0.2l0.2-0.2l0.1,0l0.1-0.2l-0.5-0.1l-0.4-0.4l0.1-0.4l-0.2-0.4l-0.9,0l-0.1-0.2l-0.7,0l-0.1-0.1l-0.1,0.1l-1.9-0.2  l-0.1-0.2l-0.6,0l-0.3,0.3h-0.1l-0.1,0.7l-0.2,0.2l-0.3,0l-0.1,0.2l-0.4,0.2l-0.7,0l-0.1,0.2h-0.4l-0.1,0.5l-0.4,0l-0.1,0.1l-0.7,0  l-0.3,0.1l-0.1,0.2l0.6,0.5l0.3,0l0.1,0.2l1.1,0l0.1-0.2l0.4-0.2h1.1l0.3,0.8l0.6-0.1v-1.1l0.2-0.2l0.3,0l0.2,0.2l0,0.3l0.3,0.1  l0.2,0.5l0.4,0.1l0.1,0.2h0.7l0.6,0.3l0.4,0l0.1-0.2l0.4,0l0.2-0.2l-0.4-0.5l0.1-0.1l0.4,0l0.1,0.2l0.3,0l0.4,0.3h0.4l0.1,0.2  l0.1-0.2l0.1-0.1L-438.5,400.2z M-423.3,408.2h-0.3l-0.1,0.1l0,0.5l0.1,0.1l0.1,0l0.2-0.2L-423.3,408.2L-423.3,408.2z M-439.8,409.7  l-0.6,0.3l-1.6,0l-0.1,0.1l-0.4,0l-0.3,0.3l-0.6,0.2l-0.6,0.5l0.2,0.4l1.3-0.2l0.1-0.2l0.6,0l0.3,0.3l0.4,0l0.1-0.4l0.4-0.5l0.9-0.2  l0.1-0.1l0.7,0l0.3-0.1l0.1-0.1l-0.4-0.4H-439.8z M-456,399.9v-0.1l-0.3-0.1l-0.1-0.6l-0.3-0.2l-0.5,0.7l-0.1,0.6l0.3,0.2l-0.3,0.3  l0,0.6l0.5,0.1l0.1,0.2l0.4,0l0.1-0.1l0.3,0l0.4-0.4l0-0.4L-456,399.9z M-460.1,402.7l-0.6,0l-0.4,0.4l0.4,0.4l0.4,0l0.5-0.5l0-0.3  l-0.2-0.1L-460.1,402.7z M-416.6,418.4L-416.6,418.4v-0.2h-0.1l-0.1,0.1l0.1,0.1L-416.6,418.4z M-411.4,418.8l-0.1-0.1l-0.4-1.8  l0.4-0.6l0.1-0.2l-0.4-0.4h-0.1l-0.3,0.4l-0.3,0l-0.5-0.4l0.1-0.2l-0.4-0.2l-0.2,0.3l-0.3-0.2h-0.1l-0.1-0.3l-0.2,0l-0.1-0.2  l-0.5-0.4h-0.3l-0.1,0.2l0.3,0.3v0.2l0.6,0.5l-0.1,0.2l-1.4,0.1l-0.3-0.6l-0.3,0l-0.6,0.3h-1l-0.1,0.1l0.4,0.3l-0.2,0.4h-1l-0.1-0.2  l-0.4,0l-0.4,0.2v0.3l0.5,0.1l0.7,0.6h0.3l0.1-0.1l0.7,0l0.4,0.5h0.1l0.4-0.6l0.6-0.3l0.7,0l0.3-0.2l0.1,0.2h0.9l0.1,0.3l0.5,0.1  l-0.2,0.2l0,0.4l0.4,0.5l0,0.5l0.1,0.1l-0.3,0.6l0.1,0.8l0.4,0l0.9,0.5l0.3,0l0.1-0.4l-0.3-0.6V418.8z M-415.8,422.3l-0.4-0.2  l-0.4,0l-0.1,0.1l-1.1-0.2l-0.1-0.2l-0.3,0l-0.1,0.5h-0.3l-0.1,0.2l-0.4-0.3l-0.3,0.1l-0.9,0l-0.7-0.6l-0.2,0.4l0.4,0.4l0,0.2  l0.2,0.2h0.7l0.2,0.4l-0.2,0.1l-0.4,0.5l-0.6,0l-0.1-0.2l-0.4-0.2l-0.2,0.2l0.1,0.1l0,0.5l-0.6,0.5v0.3l0.4,0.2l0.3-0.2l0.3,0.3  l0.1,0l0.3-0.4l0.7,0.2l0.1-0.3l0.9,0.1l0.2-0.2l0-0.3l-0.3-0.5l0.7-0.6l0.1-0.4l0.6,0l0.1-0.1l0.4,0l0.1,0.4l0.6,0l0.6,0.3l0.2-0.4  l-0.1-0.3L-415.8,422.3z M-419.7,404.5L-419.7,404.5l-0.2-0.1l-0.1,0.1l0.1,0.1L-419.7,404.5L-419.7,404.5z M-421.9,420.9l0.1,0  l0.1-0.1l0-0.3l-0.2-0.2l-0.3,0l-0.1,0.1l0,0.3l0.1,0.1h0.1L-421.9,420.9z M-389.2,388.8L-389.2,388.8l0.1-0.4l-0.1-0.1h-0.1  l-0.2,0.2l0.2,0.2H-389.2z M-404.7,396.5L-404.7,396.5l-0.1,0.4l0.1,0.1h0.3l0.1-0.1l0-0.3l-0.1-0.1H-404.7z M-393.2,391.5l0.4,0  l0.4-0.4V391l-0.8-0.4h-0.3l-0.1,0.5l0.3,0.2L-393.2,391.5z M-404.5,395.5l0.3,0.2l-0.1,0.2l0.4,0.2l0.1-0.2l0.4,0l0.1-0.2l0.6,0  l0.1,0.1h1.4l0.4-0.5h0.1l0.2-0.4l-0.1-0.4l-0.4,0l-0.1,0.1l-1.6-0.2l-0.4,0.5l-0.6,0l-0.1,0.1l-0.3-0.4l-0.4,0L-404.5,395.5z   M-395.4,392.9l0.4-0.4l-0.4-0.4l-0.4,0.1l-0.1,0.2l0.2,0.4L-395.4,392.9z M-411.4,414.1l-0.2,0.2l0,0.3l0.1,0.1l0.6,0l0.4-0.5  L-411.4,414.1z M-388.6,388.7L-388.6,388.7l-0.1-0.3h-0.1l-0.1,0.1v0.2l0.1,0.1L-388.6,388.7z M-436.5,401.7l0.4,0l0.1-0.1l-0.1-0.2  l-0.6,0l-0.1,0.1L-436.5,401.7z M-438.9,399.3L-438.9,399.3l0.2,0.1l0.1-0.1l-0.1-0.1L-438.9,399.3L-438.9,399.3z M-439.3,398.6  l0.4,0.1l0.1,0.2l0.6,0l0.1,0.1l0.6-0.5l0.7,0l0.1-0.4l-0.5-0.4h-1l-0.1-0.5l-0.4-0.1l-0.4,0.5l-0.4,0.1l-0.1,0.2l0.3,0.3V398.6z   M-406.9,391.8l0.1,0.1l-0.3,0.4l0,1.1l0.6,0.5l-0.2,0.4l-0.2,0.1v0.2l0.4,0.4l0.4,0.1l0,0.3l-0.3,0.5l-0.4-0.2l-0.2,0.4l0.3,0.6  l-0.1,0.3l0,0.5l0.2,0.2l0.6,0l0.6-0.9l0.4,0l0.2-0.4l0.3-0.3l0.1-0.8l-0.5-0.4l-0.4-0.1l0.1-0.3v-0.3l-0.1-0.1l0.1-0.2l0.1-0.5  l0.2-0.1l0.2-0.4l-0.1-0.3l0.6-0.6l-0.1-0.2l-0.4,0l-0.3,0.1l-0.2-0.2l0.1-0.3l-0.4-0.3l0.3-0.3l0.1-0.4l-0.9,0l-0.4,0.3l-0.6,0  l-0.1,0.2l0.3,0.3L-406.9,391.8z M-436.2,398.4v-0.3l-0.1-0.1l-0.3,0l-0.1,0.1l0,0.3l0.2,0.2L-436.2,398.4z M-407.8,397.5l0.1,0.2  l0.5-0.1l0-0.6l-0.3-0.3l-0.1-0.4l-0.5,0.2l0,0.8L-407.8,397.5z M-414.1,392.7l0.1,0.1l0,0.5l-0.7,0.4l0,0.5l0.5,0.1l0.1,0.1  l0.6-0.1l0.2,0.2l0.3,1l0.6,0.3l-0.3,0.3l0.2,0.2l0.6-0.2l0.2-0.2l0.1-0.5l0.8-0.8l0.4,0l0.2-0.2l-0.1-1.1l-0.4-0.2l-0.1-0.2  l-0.3,0.2l-0.4,0l-0.3-0.4l-0.3,0l-0.6,0.6l-0.3-0.2l-0.2-0.1l0.1-0.3l-0.1-0.2v-0.3l-0.8-1l-0.4-0.1l-0.5,0.8l0.6,0.2L-414.1,392.7  z M-412.1,421.2L-412.1,421.2l-0.1,0.4l0.1,0.1l0.1,0l0.2-0.2v-0.2l-0.1-0.1L-412.1,421.2z M-375.2,384.8v-0.2l-0.4-0.2l-0.4,0  l-0.6,0.5l0,0.3l0.4,0.4l0.3,0l0.6-0.8L-375.2,384.8z M-376.6,388.1l0.2,0.2l0.3,0l0.5-0.4v-0.2l-0.1-0.1l-0.6,0L-376.6,388.1z   M-392.5,405.9L-392.5,405.9l-0.1,0.2l0.1,0.1h0.1l0.1-0.1V406l-0.1-0.1H-392.5z M-370.1,389.1l-0.7,0l-0.3,0.4l-0.6,0l-0.1-0.2  l-0.4,0l-0.1-0.2l-0.4,0.3h-0.3l-0.9,0.8l-0.6,0.2l-0.1,0.2l-0.1-0.1v-0.2l0.6-0.8l-0.2-0.4l-1.3,0.2l-0.4,0.2v0.9l-0.1,0.2l0.1,0.2  l0.4,0.1l-0.2,0.2l-0.3-0.2l-0.9,0l-0.1,0.2h-0.3l-0.3,0.5l-0.4-0.3l-1,0l-0.1,0.1l-0.4,0l-0.1,0.2l-0.3,0l-0.1-0.1l0.3-0.3l0-0.3  l0.3-0.3v-0.3l-0.2-0.2l-0.1,0.1l-0.3-0.3h-0.4l-0.1,0.1l-0.7,0l-0.4-0.4v-0.2l-0.5-0.4l-0.3-0.5l-0.3,0.1l-0.7,0l-0.1,0.1l-0.7,0  l-0.1,0.1l-1.2,0.1l0.2,0.4l0.4,0.2l0.2,0.2l0,0.9l-0.6,0.6l0,0.6l0.1,0.1l-0.1,0.1l-0.3,1.1l0.3,0.3l0.1,0.8l-0.3,0.3l0.1,0.4  l-0.6,0.7l-0.3,0.2l-0.4,0l-0.1,0.1l-0.3-0.3l-0.4,0l-0.4,0.4l-0.1,0.5l-0.4,0.2l-0.3,0l-0.1-0.4l-0.6,0l-0.8,0.5v0.3l0.4,0.2  l0.5,0.7l0,0.5l-0.2,0.1l-0.3,0.8l-0.6,0.8l0,0.9l-0.2,0.1v0.3l0.1,0.2l-0.4,0.6l-0.1,0.6l0.4,0.1l0.1,0.2h0.4l1.1-0.9l0.9,0  l0.4,0.3l0.7-0.3l0.1-0.5l-0.1-0.3l-0.7-0.6v-1.1l0.1-0.1l0-0.6l0.2-0.2l0-0.7l0.1-0.2l0.1-0.8l0.2-0.2l0.3,0l0.3-0.3l0.7-0.2  l0.1-0.1l0.3,0l0.4-0.6l0.3-0.2l0.6,0l0.1-0.2l0.1,0.2l0.4,0l0.1-0.1h1.9l0.1,0.1l0.4,0l0.2-0.2v-0.9l-0.4-0.2l-0.2,0.3l-0.2-0.2  l0-0.3l0.3-0.6l0-0.6l0.2-0.4l0.7,0l0.6,0.3l0.3,0l0.3,0.3l0.6,0l0.1-0.2l0.5-0.5l0.4,0.3l0.7,0l0.1-0.2l0.6,0l0.1-0.2h0.3l0.1-0.7  l0.5-0.5l0.6-0.3h1.3l0.1,0.1l0.1-0.2l0.6,0l0.1-0.2l1.1-0.2l1-0.8l0.3-0.5l0.3-0.1v-0.3l-0.4-0.2L-370.1,389.1z M-377.1,388.5  l-0.3-0.2l-0.4-0.4l-0.1-0.5l-0.3,0.1l-0.1-0.1l-0.6,0l-0.1,0.1l0,0.3l0.2,0.4l0.2,0.1l0,0.1l0.6,0.5l0,0.3l0.2,0.2l0.3-0.2l0.7,0  l0.1-0.1h0.3l0.1-0.2l-0.5-0.4H-377.1z M-392.2,404.2l-0.2,0.2l-0.1,0.8l0.2,0.4l0.5-0.4l0.1-0.3l-0.1-0.7L-392.2,404.2z   M-382.5,388.5h0.3l0.6-0.8l0.1-0.4l-0.4-0.2l-0.4,0l-0.4,0.6h-0.4l-0.3,0.5l0.8,0.5L-382.5,388.5z M-361.2,353.3l-1.6-2.4l-0.2-0.1  l-1.1-1.3l-0.3-0.6l-0.4-0.4h-0.1l-0.6-0.6l-0.9-0.2l-0.9-1.1l-0.3-0.2l-0.6,0l-0.4-0.8l-0.6,0l-0.4-0.5l-0.4,0l-0.3-0.3h-0.3  l-0.1-0.2l-0.7,0l-0.1-0.2l-0.7,0l-0.1-0.1l-0.6,0.1l-0.4,0.2l-0.5,0.8l-1,0.2l-0.1-0.1l-0.4,0l-0.7-0.3l-0.1-0.2l-0.3,0l-1,0.4  h-0.3l-0.1-0.1l-0.1,0.1h-0.3l-0.7-0.6l-1-0.4l-0.9,0l-0.1-0.2h-0.4l-0.7,0.8l-1.7,0l-0.1,0.2l-0.6,0l-0.4-0.3l-0.4,0l-0.6,0.5  l-0.2,0.5l0.2,0.4l0.1,0l1,1.1l0.7,0.3l0.4,0.4l0.1,0.9l0.4,0.4l0.4,0l0.6-0.5h0.3l0.1-0.1l0.6,0l0.1,0.1l0.3,0l0.7,0.4l0.3-0.2  l1.7-0.1l0.4,0.5l1.9,0.3l0.4,0.3l0.9,0.1l0.1,0.2h4.3l1,0.4l0.6-0.2l0.1,0.1l-0.1,0.1l0.1,0.1l0.6,0.2l0.1,0.2h0.3l0.3,0.5h0.1  l0.4,0.5l0.3,0l0.3-0.3l0.6,0.1l1.1,1.1l0.4,0.2l0.6,0.7l-0.1,0.2l-0.4-0.4l-0.3,0l-0.1,0.2l0.3,0.3l0,0.2l0.4,0.4l0.3,0l0.7,0.6h1  l0.2-0.2l0.1-0.3l0-0.8l0.1-0.1L-361.2,353.3z M-365,353.1l-0.2,0.2l0.1,0.1l0.1,0l0.1-0.1L-365,353.1L-365,353.1z M-364,353.8  L-364,353.8v-0.2h-0.1l-0.1,0.1l0.1,0.1H-364z M-368.8,351.4L-368.8,351.4v0.2l0.1,0l0.1-0.1l-0.1-0.1L-368.8,351.4z M-365.4,352.8  L-365.4,352.8l-0.1,0.2l0.1,0.1l0.2-0.2l-0.1-0.1H-365.4z M-410.6,414.5l-0.2,0.2l0.1,0.1h0.3l0.1-0.1l0-0.1l-0.1-0.1H-410.6z   M-365.8,352.5L-365.8,352.5l0.1,0.3l0.2-0.2l-0.1-0.1H-365.8z M-395.2,409.1l-0.1,0.1l-0.3-0.2l-0.1,0.2l-0.6,0l-0.6,0.6h-0.4  l-0.7,0.3l-0.1,0.4l0.4,0.1l0.1-0.2l0.6,0l0.1-0.2l0.3,0l0.1,0.2l0.6,0.5l0.7,0l0.1-0.2l-0.6-0.5v-0.3l0.2-0.1l0.1,0.1l0.4,0  l0.4-0.5v-0.3l-0.4-0.2H-395.2z M-401,412.4l-0.2-0.2l0-0.5l0.1-0.1l-0.1-0.2l0.2-0.2l0.1,0.2l0.1-0.1l0-0.3l-0.8-0.7h-0.1l-0.2-0.2  l0-0.2l-0.5-0.4l-0.2,0.1l0,0.4l0.3,0.3l-0.3,0.5l0,0.4l0.4,0.3l0,0.3l0.4,0.5l0.1,1l0.2,0.2l0.3-0.2l0.6,0l0.3,0.3l0.3,0l0.2-0.2  v-0.8l-0.4-0.4L-401,412.4z M-403.3,412.3l-0.1-0.2l-0.4,0l-0.2,0.1l-0.7-0.2l-0.9,0.8l-0.3-0.1l-0.1,0.1l0,0.3l0.1,0.2l-0.1,0.1  l0,0.3l0.2,0.1l0.3-0.3h0.3l0.5,0.4l0,0.4l0.4,0.4l0.3,0l0.2-0.5v-0.3l-0.3-0.2l0-0.4l0.1-0.3L-403.3,412.3z M-402.6,401.3l-0.3-0.6  v-0.3l-1.8-1.7l-0.4,0.1l0,0.4l-0.1,0.3l-0.8,0.1l-0.2-0.2l0.1-0.3l-0.1-0.2h-0.1l-0.4,0.5l-0.4-0.3l-0.4,0l-0.4,0.2l-0.1,0.2h-0.1  l-0.4-0.2l0-0.3l0.1-0.2l-0.2-0.2l-0.4,0l-0.3,0.1l-0.2,0.2l0,0.3l0.3,0.3l-0.1,0.3l0.2,0.2l0.4-0.4l0.2,0.2l0,0.3l0.2,0.4l0.3,0  l0.3,0.4l0.4,0l0.4-0.6l0.3,0.3l0.9,0l0.1,0.2l0.6,0.2l0.8,1.4l0.1,0.7h0.3l0.4-0.6h0.1l0.6-0.7L-402.6,401.3z M-410.4,402.7  l-0.3,0.1l0,0.5l0.3,0.2l0.1,0.5l0.3,0.2l0.5-0.1l0.1-0.3l-0.4-0.2L-410.4,402.7z M-409.5,399.8l-0.7-0.9l0.1-0.3l0.1-0.5l-0.3-0.3  l-0.1-0.8l-0.4,0l-0.1-0.1h-0.7l-0.4,0.3l-0.4,0l-0.3,0.5l-0.6,0l-0.3,0.5h-0.1l-0.4,0.4h-0.7l-0.1,0.2l-0.4-0.2l-0.2,0.2l0.1,0.3  l-0.1,0.1l-0.1,0l-0.3,0.3l-0.3,0l-0.1-0.1l-0.7,0l-0.4-0.5l-0.4,0l-0.1-0.5l0.1-0.2l-0.4-0.2l-0.2,0.2v0.3l-0.4,0.4l-0.7,0.2  l-0.1,0.2l-0.4-0.3l-0.3,0l-0.3,0.3l-0.4,0l-0.3-0.3l-0.6,0l-0.6,0.3l-0.4-0.1l-0.1-0.2l-0.6,0l-0.1-0.4l-0.3,0l-0.4-0.3l-0.6,0  l-0.1,0.5l-0.2,0.4l-0.6,0l-0.1,0.1l-0.8,0.1l0.1,0.2l0.6,0l0.5,0.4l-0.2,0.7l-0.3,0l-0.1,0.1l-0.9-0.4l-0.7-0.2l-0.2,0.2v0.3  l0.1,0.2l-0.7,0.5l0,1.2l0.4,0.4l0.4,0l0.3-0.1l0.1,0.8l-0.6,0.7l-0.4,0l-0.4,0.3l-0.4,0l-0.2,0.4v1.2l-0.1,0.3l-0.3,0.1v0.3  l-0.4,0.5l0,0.1l-0.6,0.6v0.1l-0.4,0.2l-2.2,0l-0.1-0.2l-0.6-0.2l-0.4,0.4l-0.1,0.7l-0.7,0l-0.3,0.3l-0.4,0l-0.3,0.3l-0.3,0  l-0.1,0.1l-0.4,0l-0.2,0.4l0.8,0.1l0.3-0.2l0.4,0.3l1,0l0.1-0.1l0.4,0l0.1,0.1l1.7-0.2l0.6-0.3l0.9,0l0.3-0.2l0.5,0.4l0,0.3l0.3,0.6  l0.4,0.1l0.1,0.2l1.1,0l0.7-0.6h0.3l0.4-0.3l0.3,0l0.2-0.4l0.4-0.2l0.6,0l0.1,0.2h0.3l0.1-0.2l0.6-0.2l0.5-0.5l0.3-0.6l0-0.4  l0.6-0.5l0.2-0.3l-0.3-0.3l0-0.4l0.4-0.1l0.2,0.2l-0.1,0.3l0.1,0.1h2l0.3-0.2l0.4-0.5l0.1-0.6l-0.7-0.9l0-0.5l0.3-0.3V404l-0.2-0.4  h-0.3l-0.1,0.3l-0.2-0.2l0.4-0.5l1-0.1l0.1-0.2l0.6,0l0.2,0.2l0,0.3l0.2,0.2l0.4,0.1l0.1,0.6l0.4,0.5l0.6-0.1l0.2,0.2v0.3l0.4,0.5  l0.3,0l0.1,0.2l0.9,0l0.3-0.8h0.3l0.3,0.5l0.9,0l0.4-0.2l0-0.1l0.3-0.3l-0.1-0.2h-0.3l-0.1,0.2l-0.4-0.1l0.2-0.2l0.3-0.1l0.1-0.4  l0.6,0l0.3,0.5l0.1-0.2l0.4-0.1l0.1-0.8l0.4,0l0.5-0.4l0-0.3l-0.1-0.1l0-0.6l-0.6-0.1l-0.1-0.4l0.1-0.3l0.6-0.4l1-0.1l0.1,0.2l0.3,0  l0.2-0.2l0.1-0.4l-0.1-0.2L-409.5,399.8z M-392.5,406.4L-392.5,406.4l-0.1,0.2l0.1,0.1l0.2-0.2l-0.1-0.1H-392.5z M-392.9,406.3  L-392.9,406.3l-0.1,0.2l0.1,0.1h0.1l0.1-0.1v-0.1l-0.1-0.1H-392.9z M-391.9,392.8l-0.9-0.1l-0.1-0.2l-0.6,0l-0.2,0.2l0,0.4l0.9,0.1  l0.1,0.2l0.7,0L-391.9,392.8z M-392.9,407.6L-392.9,407.6l0.1-0.4l-0.1-0.1l-0.3,0l-0.1,0.1l0,0.3l0.1,0.1H-392.9z M-393.9,390.6  l-0.2,0.2l0.1,0.1h0.1l0.1-0.1L-393.9,390.6L-393.9,390.6z M-394,390.4L-394,390.4l-0.2-0.1l-0.1,0.1l0.1,0.1L-394,390.4L-394,390.4  z M-393.2,408l-0.1,0.2h-0.1l-0.1,0.1l0,0.3l0.2,0.2l0.4-0.1l0.1-0.1l0-0.5l-0.1-0.1H-393.2z"/></svg>