<svg xmlns="http://www.w3.org/2000/svg" xmlns:xlink="http://www.w3.org/1999/xlink" version="1.1" x="0px" y="0px" viewBox="-461 335 100 100" fill="#999999" style="enable-background:new -461 335 100 100;" xml:space="preserve"><polygon points="-361.1,367.3 -361.3,367 -361.4,366.6 -361.5,366.4 -361.4,363.7 -361.4,363.4 -363.7,363.5 -367.1,362.9   -370.4,361.4 -371,361 -371.7,358.4 -372.1,357.8 -373,357.9 -374.1,358.5 -375.1,358.8 -375.8,357.8 -376.1,357.1 -376.5,357   -377.5,357.3 -380.5,357.3 -380.7,357.2 -381,356.7 -381.2,356.5 -382.1,356.1 -382.4,355.7 -382.3,355.2 -382.6,354.9 -383,355   -383.3,354.8 -385,354.5 -386.2,353.7 -386.6,354 -388.5,354.2 -390,355.1 -390.6,355.3 -391.3,355.3 -391.5,355.3 -391.8,355.5   -391.9,355.6 -392.3,355.6 -392.8,355.8 -397.7,356.5 -398.9,357 -400.2,357.4 -400.8,357.7 -401.4,358.3 -401.6,358.8   -401.8,359.1 -403.7,360.5 -403.8,360.8 -404,361.1 -404.7,362.1 -405.2,362.3 -405.7,362.9 -405.7,363 -406.1,363.6 -406.8,363.8   -407.8,363.9 -408.1,364.1 -408.4,364.3 -408.7,364.5 -409.1,364.7 -409.4,364.8 -409.7,365 -410,365 -410.8,365 -411.2,365   -411.8,365.3 -412.2,365.4 -412.9,365.3 -413.5,365 -414,364.6 -414.6,364.2 -415.3,364.1 -417.3,363.9 -419.2,363.2 -422.6,363.5   -423.3,363.3 -426.6,362.1 -427.2,362.1 -427.7,362.2 -428.6,362.9 -428.9,363 -432.1,363.1 -437.8,361.7 -438.7,361.2   -439.1,361.1 -440.4,361.4 -441.1,361.3 -442.8,360.3 -445.4,360.2 -446.8,360.4 -447.4,360.7 -448,360.8 -448.5,361 -451.9,361.3   -452.4,361.2 -452.8,360.9 -453,360.4 -453,359.9 -452.6,358.3 -452.4,357.8 -452.1,357.6 -451.7,357.5 -451.1,357.3 -450.8,357.3   -450.2,357 -449.9,356.3 -450.1,355.6 -450.8,355.3 -451.5,355.2 -452.1,355 -455.5,352.6 -455.9,352.8 -456.2,352.9 -456.3,353   -456.4,353.1 -456.4,353.2 -456.6,353.5 -456.8,353.7 -456.9,353.8 -456.9,353.8 -456.9,353.8 -456.9,353.9 -456.9,354.1   -456.9,354.1 -456.9,354.1 -456.9,354.1 -457,354.8 -457,355 -457,355 -457,355.2 -457,355.4 -456.9,355.7 -456.9,355.9   -457.1,356.2 -457.1,356.3 -457.2,356.3 -457.4,356.3 -457.7,356.3 -458,356.4 -458.2,356.7 -458.2,356.8 -458.3,357 -458.4,357.1   -458.5,357.3 -458.9,357.3 -459.4,357.3 -459.6,357.4 -460,357.5 -460.2,357.8 -460.2,358 -460.2,358.1 -460.2,358.7 -460.2,359.1   -460.2,359.1 -460.3,359.2 -460.4,359.5 -460.5,359.6 -460.5,359.6 -460.5,360.1 -460.5,360.3 -460.7,360.9 -460.8,361.3   -460.9,361.4 -460.9,361.6 -460.9,361.9 -460.7,362.5 -460.3,363 -460.3,363.2 -460.4,363.6 -460.4,363.7 -460.3,364 -460.2,364.1   -460.2,364.3 -460.1,364.6 -460,364.7 -459.9,364.8 -459.8,365 -459.7,365.1 -459.4,365.2 -459.2,365.3 -459.1,365.4 -459,365.5   -458.9,365.7 -458.9,365.8 -458.9,366.3 -458.8,366.5 -458.8,366.6 -458.8,366.6 -458.8,366.7 -458.8,366.8 -458.8,366.9   -458.8,367 -458.8,367.1 -458.8,367.2 -458.8,367.2 -458.8,367.3 -458.8,367.4 -458.8,367.6 -458.7,367.8 -458.4,368.9   -458.2,369.3 -458,369.5 -457.9,369.6 -457.5,369.7 -457.4,369.9 -457.2,370.1 -457.2,370.4 -457,370.5 -457,370.5 -456.8,370.5   -456.5,370.5 -456.4,370.6 -456.2,370.7 -456.1,371 -456.1,371.1 -456,371.1 -455.9,371.2 -455.8,371.3 -455.8,371.3 -455.5,371.3   -455.3,371.3 -455,371.4 -454.8,371.6 -453.7,372.7 -453.6,372.8 -453.5,373 -453.4,373 -453.4,373.1 -453.3,373.6 -453.3,373.7   -453.2,373.9 -453.1,373.9 -452.8,374.2 -452.6,374.6 -452.4,374.8 -452.2,375 -452.2,375 -451.9,375.2 -451.9,375.2 -451.1,375.4   -450.9,375.4 -450.9,375.5 -450.8,376 -451,376.7 -451.3,377.4 -451.3,377.6 -451.6,377.9 -451.7,378 -451.7,378 -452,378.2   -452.1,378.3 -452.2,378.4 -452.2,378.4 -452.2,378.5 -452.3,378.8 -452.4,379 -453,379.6 -453.3,379.9 -453.5,380 -453.9,380.1   -454.1,380.2 -454.2,380.4 -454.3,380.6 -454.3,380.7 -454.3,380.8 -454.6,381.7 -454.7,381.9 -454.7,382 -454.8,382 -454.9,382.2   -455.1,382.3 -455.4,382.4 -455.5,382.4 -455.9,382.5 -456.7,382.3 -457.1,382.2 -457.5,382.3 -457.7,382.4 -457.7,382.4   -457.8,382.5 -457.9,382.6 -458,382.6 -458.2,382.5 -458.4,382.5 -458.5,382.6 -458.6,382.7 -458.8,383.1 -459,383.2 -459.4,383.4   -459.5,383.5 -459.7,383.8 -459.7,383.8 -459.7,383.9 -459.7,383.9 -459.3,384.8 -459.1,385.2 -458.9,385.3 -458.8,385.3   -458.8,385.4 -458.8,385.5 -458.8,385.6 -459,385.8 -459.4,386.4 -459.5,386.6 -459.3,386.9 -459.4,387.4 -459.6,388.4   -459.7,388.5 -459.7,388.6 -459.7,389 -459.6,389 -458.8,389.8 -458.3,390.1 -458.1,390.4 -458,390.5 -458,390.7 -458,390.7   -457.9,391 -458,391.4 -458.2,392.2 -458.4,392.6 -458.6,392.7 -458.7,392.7 -458.8,392.7 -459,392.8 -459,392.8 -459.3,393.2   -459.5,393.9 -459.7,394.2 -459.8,394.2 -460,394.3 -460.7,394.3 -461,394.5 -461,394.5 -459.4,396.6 -458.8,397.1 -458.6,397.7   -458.4,398.1 -458,398.5 -456.7,399.5 -455.7,399.9 -455.3,400 -455.2,400.1 -455.1,400.3 -455.1,400.4 -455,400.4 -454.2,400.4   -454.1,400.4 -454,400.5 -453.9,400.6 -453.9,400.7 -453.8,400.9 -453.6,400.9 -453.4,400.8 -453.3,400.8 -453.1,400.9 -453,401   -453,401.2 -453,401.5 -452.8,401.7 -452.8,401.9 -452.8,402.4 -452.7,402.9 -452.5,403.4 -452.5,403.5 -452.5,403.8 -452.4,404   -452.3,404.1 -452.2,404.2 -452.1,404.3 -452,404.5 -451.8,405.2 -451.5,406 -451.4,406.2 -451.2,406.3 -450.8,406.3 -450.7,406.4   -450.4,406.8 -450.4,407.3 -450.6,407.8 -450.9,408.4 -451,408.7 -451.1,408.8 -451.2,408.8 -451.3,408.9 -451.4,409 -451.5,409.2   -451.5,409.5 -451.5,409.8 -451.5,410.1 -451.5,410.2 -451.3,410.5 -451.3,410.6 -451.3,410.7 -451.4,411.1 -451.3,412.9   -451.3,413 -451.2,413.2 -451.2,413.3 -451.2,413.4 -451.4,413.7 -451.5,413.8 -451.4,414.3 -451.4,414.7 -451.4,415.1   -451.8,415.4 -448.6,415.9 -448,415.8 -447.6,415.7 -447.4,415.6 -447.3,415.5 -447.2,415.3 -447.2,414.9 -447.1,414.7   -446.9,414.5 -446.5,414.3 -446.2,414.1 -445.9,414.1 -445.6,414.3 -445.4,414.5 -445.3,414.7 -444.9,414.7 -444.6,414.5   -444.2,414.1 -443.9,414 -442.3,414.1 -441.3,414.6 -440.7,414.6 -440.5,414.5 -440.1,414.1 -439.8,413.9 -439.2,413.9   -438.7,414.1 -438.5,414 -438.1,413.4 -437.9,413.3 -437.6,413.3 -437.2,413.3 -436.9,413.2 -436.7,413.1 -436.2,412.7   -436.1,412.7 -435.4,413.2 -435.1,413.2 -434.9,413 -434.8,412.9 -434.7,412.9 -434.6,412.8 -434.5,412.7 -434.2,412.9 -434,412.9   -433.8,412.9 -433.7,412.7 -433.7,412.5 -433.8,412.1 -433.8,411.4 -433.3,411.2 -432.7,411.2 -432.2,411.4 -432.1,411.5   -432,411.6 -432,411.7 -431.8,411.7 -431.8,411.6 -431.7,411.3 -431.7,411.1 -431.4,410.9 -431.1,410.8 -430.8,410.6 -430.5,410.6   -430.3,410.9 -430,411.1 -429.9,411.2 -430,411.4 -430,411.5 -429.8,411.6 -429.7,411.5 -429.6,411.5 -429.5,411.5 -429,411.5   -428.9,411.5 -428.4,411.3 -428.1,411.3 -427.8,411.4 -427.5,411.3 -427.2,410.8 -426.8,410.8 -426.4,410.6 -426,410.9   -425.8,411.4 -425.8,412 -425.8,412.2 -425.7,412.3 -425.6,412.4 -425.5,412.5 -425.5,412.6 -425.3,412.7 -425.3,412.8   -425.3,412.9 -425.3,413.1 -425.3,413.2 -425,413.4 -424.8,413.4 -424.2,413.4 -424.3,413.6 -424,413.6 -423.6,413.6 -423.3,413.7   -423,414 -422.5,414.7 -422.1,415.1 -421.8,415.1 -421.7,414.8 -421.7,414.4 -421.7,414.1 -421,414.1 -420.7,413.9 -420.5,413.9   -420.3,413.9 -419.8,414.2 -417.2,415.3 -417,415.3 -416.9,415.3 -416.8,415.3 -416.7,415.6 -416.7,415.6 -416,415.9 -415.7,416.2   -415,417.1 -414.7,417.3 -414.3,417.4 -414,417.4 -411.3,416.5 -410.9,416.4 -410.7,416.5 -410.6,416.5 -410.5,416.5 -410.3,416.5   -410.2,416.3 -410.1,416 -410,415.8 -409.7,415.8 -408.3,415.9 -408.2,415.9 -407.8,416.1 -407.7,416.2 -407.5,416.1 -407.4,416.1   -407.3,415.9 -407.1,415.8 -406.9,415.7 -406.3,415.7 -405.7,415.3 -405.6,415.2 -405.2,415.4 -404.8,415.9 -404.5,416 -404.2,416   -403.8,415.8 -403.6,415.8 -403.4,415.8 -403.2,415.8 -402.8,415.6 -402.4,415.3 -402.2,415.2 -400.9,414.9 -400.7,414.9   -400.6,414.9 -400.5,414.6 -400.2,414 -400,413.5 -400,413.4 -399.9,413.4 -399.8,413.3 -399.8,413.1 -399.8,413 -400,412.8   -400.1,412.7 -400.3,412.3 -400.2,412.2 -400.1,412 -400,411.7 -400,411.5 -400,411.2 -400.1,411 -400.2,410.9 -400.4,410.8   -400.5,410.7 -400.5,410.6 -400.5,410.3 -400.5,410.1 -400.7,409.5 -400.8,409.4 -400.9,409.2 -401.1,409.1 -401.3,409.1   -401.5,409 -401.7,408.7 -401.8,408.4 -401.8,408.1 -401.8,407.8 -401.7,407.6 -401.6,407.5 -401.5,407.4 -401.4,407.4   -401.3,407.4 -400.9,407 -400.5,406.9 -399.6,406.9 -399.2,406.5 -399,406.6 -398.9,406.6 -398.4,407.1 -398.2,407.3 -397.9,407.4   -397.3,407.3 -397.4,407.1 -397.5,406.7 -397.5,406.2 -397.3,405.7 -396.6,405.1 -394.9,405.2 -394.2,405 -394,404.7 -393.8,404.3   -393.8,403.9 -393.7,403.6 -393.7,403.5 -393.7,403.3 -393.6,403.2 -393.7,403.1 -393.9,403 -393.9,402.9 -393.8,402.8   -393.7,402.7 -393.6,402.6 -393.2,402.1 -392.9,401.9 -392.6,401.9 -391.1,402.2 -390.8,402.2 -390.7,402 -390.3,401.7   -390.1,401.6 -390,401.7 -389.7,402 -389.5,402 -389.3,401.9 -389,401.6 -388.8,401.5 -388.6,401.5 -388.5,401.6 -388.4,401.6   -388.2,401.4 -388,401.3 -387.7,401.4 -387.6,401.3 -387.4,401.1 -387.3,400.9 -387.2,400.6 -387,400.5 -386.7,400.3 -386.3,399.6   -385.9,399.4 -385.6,399.4 -385.3,399.5 -385,399.7 -384.8,399.9 -384.6,399.9 -384.3,399.9 -383.9,400 -383.8,400 -383.8,399.9   -383.7,399.8 -383.4,399.3 -383.2,399.2 -382.8,399.1 -382.3,399.3 -381.8,399.6 -381.3,400 -380.6,401.1 -380.3,401.5   -379.9,401.8 -378.7,402.5 -378.5,402.7 -378.1,403.2 -377.9,403.4 -377.6,403.2 -377.9,403.1 -377.8,403.1 -377.7,403 -377.7,403   -377.7,403 -377.7,402.9 -377.8,402.9 -377.8,402.8 -377.5,402.7 -377.3,402.6 -377.2,402.5 -377.1,402.6 -377,402.6 -376.9,402.5   -376.9,402.2 -375.6,401.9 -375,402 -374.2,402.4 -373.9,402.5 -373.7,402.5 -373.5,402.4 -373.5,402.3 -373.7,402.1 -373.7,401.9   -373.7,401.6 -373.7,401.4 -373.6,401.4 -373.5,401.4 -373.4,401.4 -373.1,401.4 -373,401.4 -372.6,401.5 -372.1,401.7   -371.9,401.7 -371.1,401.6 -370.9,401.7 -370.3,401.9 -370.4,401.6 -370.3,401.4 -370.3,401.1 -370.4,400.8 -370.6,400.6   -370.5,400.6 -370.5,400.6 -370.5,400.5 -370.5,400.4 -370.6,400.3 -370.8,400.2 -370.9,400 -370.8,399.7 -371,399.7 -371.2,399.5   -371.3,399.2 -372.1,398.7 -372.4,398.1 -372.6,398 -373,397.7 -373,397.6 -373,397.5 -372.9,397.4 -373.1,397.3 -373.3,397.1   -373.5,396.9 -373.6,396.7 -373.7,396.6 -374.3,396.2 -374.2,396.1 -374.2,396.1 -374.2,396 -374.6,395.7 -374.6,395.3   -374.5,394.9 -374.1,394.6 -374.2,394.5 -374.3,394.4 -374.3,394.2 -374.2,394.1 -374.2,394 -374.4,394 -374.6,394.1 -374.8,394.1   -375.1,394 -375.2,393.8 -375.3,393.5 -375.3,393.2 -375.2,392.9 -375.3,392.9 -375.4,392.8 -375.5,392.6 -375.2,392.5   -375.1,392.5 -375.1,392.3 -375.3,392.4 -375.5,392.4 -375.6,392.3 -375.6,392.1 -376,392.3 -376.2,392.3 -376.4,392 -376.5,391.6   -376.4,391.6 -376.4,391.6 -376.4,391.5 -376.4,391.4 -376.6,391.4 -376.7,391.4 -376.9,391.5 -377.1,391.6 -377.3,391.5   -377.4,391.4 -377.5,391.4 -377.7,391.6 -377.9,391.3 -378.1,391.4 -378.2,391.7 -378.4,391.9 -378.6,391.8 -379.1,391.3   -379.2,391.7 -379.1,391.8 -379.2,391.9 -379.2,392 -379.3,391.7 -379.3,391.6 -379.2,391.4 -379.4,391.2 -379.4,390.9   -379.2,390.7 -379,390.9 -378.8,390.3 -378.7,389.8 -378.5,389.3 -378,389.1 -376.5,389.1 -376.2,389.2 -376.4,388.9 -376.6,388.3   -376.6,387.7 -376.3,387.5 -375.9,387.4 -375.2,387.1 -374.8,387 -375.1,386.9 -375.2,386.7 -375.2,386.5 -375.1,386.3 -375,386   -374.9,385.9 -374.8,385.8 -374.1,385.9 -373.2,386 -372.4,386 -372.3,385.8 -372.3,385.4 -372.3,384.4 -372.4,383.8 -372.5,383.3   -372.5,383 -372.2,382.7 -372.2,382.4 -372.2,380.9 -372.2,380.5 -372.5,379.5 -372.5,379 -372.4,378.8 -372.3,378.6 -372.2,378.5   -372,378.3 -371.8,377.2 -371.5,376.2 -371.5,376 -371.6,375.8 -372.2,375.4 -372.2,375.2 -372,375.2 -371.9,375.2 -371.7,375.1   -370.6,374.8 -370.4,374.6 -370.1,374.2 -369.2,371.7 -368.7,371.1 -368.1,370.7 -367.8,370.7 -366.7,370.7 -366.4,370.7   -365.8,370.4 -365.5,370.3 -364.7,370.4 -364.3,370.6 -364.2,370.8 -364,370.9 -363.3,371.3 -363,371.6 -363,371.3 -362.9,371   -362.8,370.7 -362.1,370 -361.9,370 -361.7,369.7 -361.4,369.1 -361.1,368.4 -361,367.8 -361,367.5 "/></svg>