<svg xmlns="http://www.w3.org/2000/svg" xmlns:xlink="http://www.w3.org/1999/xlink" version="1.1" x="0px" y="0px" viewBox="-461 335 100 100" fill="#999999" style="enable-background:new -461 335 100 100;" xml:space="preserve"><polygon points="-361.7,389 -362.7,387.6 -363.6,386.4 -364.5,385 -365,384.3 -365.3,383.8 -365.2,383.5 -365.1,383.3 -364.3,383.2   -364.3,383.1 -364.2,383 -364.1,382.9 -364.1,383 -363.9,383 -363.9,383 -363.1,383 -362.9,382.9 -362.8,382.8 -362.9,382.5   -362.9,382.4 -362.8,382.3 -362.8,382.2 -362.9,382.1 -363,382 -363.1,381.9 -363.2,381.7 -363.3,381.5 -363.4,380.7 -363.4,380.6   -363.5,380.4 -363.6,380.3 -363.8,380.1 -364,380 -364.1,379.9 -364.1,379.8 -364.2,379.5 -364.6,379.2 -365.1,379 -366.3,378.9   -366.4,379 -366.6,379.2 -366.8,379.3 -366.9,379.3 -366.9,379.2 -367,379.3 -367.1,379.3 -367.2,379.5 -367.4,379.8 -367.5,380.1   -367.7,380.3 -367.9,380.4 -368.1,380.5 -369.7,380.3 -371,380.2 -371.4,380.1 -371.8,379.9 -372.7,379.2 -373.4,378.6   -374.4,377.7 -375.7,376.7 -376.4,376 -377.1,375.4 -377.5,375.2 -378.4,375.1 -378.8,374.9 -378.9,374.7 -378.9,374.5   -378.9,373.4 -378.9,372.2 -378.9,371.1 -378.8,370.6 -378.5,370.7 -377.5,371.1 -376.8,371.2 -376.5,371.4 -376.5,371.3   -376.3,370.9 -376.3,370.7 -376.2,370.7 -376,370.7 -375.8,370.9 -375.5,371 -375.2,370.9 -375.4,370.6 -375.6,370.5 -375.8,370.4   -376.4,370.4 -376.6,370.3 -378,369.7 -378.4,369.4 -378.6,369 -378.7,368.4 -379.2,367.8 -379.9,367.4 -380.5,367.3 -380.9,367.3   -381.2,367.3 -381.4,367.2 -381.6,367 -381.6,366.9 -381.5,366.9 -381.5,366.8 -381.5,366.8 -381.5,366.7 -381.6,366.6   -381.7,366.5 -383.4,366.6 -383.7,366.5 -383.9,366.2 -383.8,366 -383.7,365.7 -383.6,365.4 -383.7,365.3 -383.9,365.2   -384.1,365.1 -384.2,364.9 -384.6,364.6 -384.8,364.4 -385,364.2 -385.1,364 -385.2,363.9 -385.5,363.7 -385.5,363.6 -385.5,363.5   -385.4,363.2 -385.4,363.1 -385.6,363 -385.8,362.9 -386,362.7 -386.1,362.5 -386.1,362.3 -386.3,362.2 -386.4,362.1 -386.5,361.9   -386.5,361.8 -386.4,361.6 -386.4,361.5 -386.5,361.4 -386.5,361.4 -386.6,361.3 -386.7,361.2 -386.9,361 -386.9,360.8   -386.9,360.7 -386.6,360.2 -386.5,360 -386.4,359.6 -386.4,359.5 -386.3,359.4 -386.3,359.3 -386.3,359.2 -386.8,358.5   -388.8,356.7 -389.2,356 -389.3,355.4 -388.4,353 -388.5,352.6 -388.9,351.8 -388.9,351.5 -388.7,351.2 -388.5,351.1 -388.4,350.9   -388.4,350.6 -391.6,349.5 -393.3,348.8 -394.2,348.6 -395,348.8 -395.8,349.2 -396.2,349.5 -396.6,349.4 -396.7,349.3 -397,348.5   -397.1,348.4 -400.3,348.5 -400.7,348.6 -401.1,348.9 -401.8,349.5 -401.8,349.5 -404.4,351.8 -404.8,352.1 -405.3,352.3   -407.7,352.9 -408.3,353.2 -412.7,356 -413.5,356.2 -414.4,356.2 -415.5,356.2 -416.1,356.2 -416.4,356.4 -416.5,356.7   -416.8,359.9 -416.8,360 -416.9,360.1 -417.8,360.5 -418,360.5 -418.4,360.4 -421.4,359 -422.3,358.8 -423,359 -424,359.6   -424.3,359.8 -425.2,360.9 -427.1,361.9 -427.4,362.4 -427.4,362.4 -427.3,362.4 -427.3,362.5 -427.3,362.5 -427.8,364.2   -428,364.5 -428.2,365 -428.2,365.7 -427.8,367 -428.7,367.3 -428.8,367.3 -428.9,367.3 -428.9,367.2 -429.1,367.2 -429.4,367.1   -429.5,367.2 -429.6,367.2 -429.8,367.5 -430,367.5 -430.1,367.3 -430.1,367.1 -430.2,367 -430.4,366.8 -430.7,366.6 -431,366.6   -431.2,366.7 -431.6,366.7 -432.2,366.2 -432.5,366.1 -432.7,366.4 -432.5,366.6 -432.4,366.9 -432.5,367.6 -432.5,367.9   -432.7,368.4 -432.3,371.6 -432.4,371.7 -434.5,371.8 -434.8,371.9 -434.8,372.3 -434.7,372.7 -434.7,373 -434.8,373.2 -435,373.2   -435.6,373.1 -435.9,373.1 -436,373.1 -436.1,373 -436.3,372.8 -436.4,372.8 -436.6,372.8 -436.7,372.8 -437.7,372 -438.3,371.6   -439.2,370.9 -439.4,370.8 -440,370.7 -440.4,370.5 -440.6,370.4 -440.9,370.5 -441.1,370.5 -441.4,370.4 -441.6,370.3   -441.4,370.1 -441.3,370 -441,369.8 -440.9,369.8 -440.8,369.7 -440.7,369.7 -440.7,369.5 -440.8,369.5 -441.1,369.5 -441.2,369.4   -441.2,369.3 -441.3,369.1 -441.4,369 -441.4,368.9 -441.5,368.9 -441.5,368.9 -441.6,369 -441.7,369.2 -441.7,369.2 -441.5,369.2   -441.4,369.3 -441.5,369.4 -441.6,369.6 -441.8,369.7 -442,369.7 -442.1,369.8 -442.3,370 -442.4,370.1 -442.8,370.2 -442.9,370.2   -443.1,370.4 -443.2,370.7 -443.4,371.2 -443.6,371.5 -443.9,371.8 -444,371.9 -444.1,371.8 -444.2,371.8 -444.4,371.8 -444.5,372   -444.8,372.2 -445,372.4 -445,372.6 -444.9,372.7 -444.7,372.9 -444.6,373 -444.7,373.1 -444.9,373.1 -445.7,373.1 -445.9,373.2   -446.1,373.6 -446.1,373.7 -446.2,373.8 -446.2,374 -446.1,374.1 -445.8,374.5 -445.4,375.2 -445.3,375.4 -444.9,375.7 -444.7,376   -444.6,376.4 -444.6,377.1 -444.4,377.7 -444.5,377.8 -444.7,378.7 -444.8,378.8 -445,379 -445.3,379 -445.5,379.1 -445.7,379   -446,378.8 -446.4,378.7 -446.8,378.8 -447.3,378.9 -447.6,379 -447.8,379 -447.8,379 -447.9,379 -448,379.7 -447.9,379.9   -447.3,380.3 -447.1,380.6 -446.8,381.2 -446.7,381.3 -446.7,381.4 -446.6,381.4 -446.7,381.6 -446.9,381.8 -447.1,382.1   -447.4,382.3 -447.5,382.6 -447,383.7 -446.9,384.3 -447.3,384.4 -447.4,384.3 -447.5,384.1 -447.6,384 -447.8,384 -447.9,384.1   -448,384.2 -448,384.3 -448,384.5 -448,384.6 -448,384.7 -448,384.8 -449.2,385.7 -448.8,386.3 -449,386.4 -449.3,386.5   -449.8,386.7 -449.9,387 -450,387.2 -450,387.3 -450.3,387.5 -450.4,387.5 -450.7,387.4 -450.8,387.5 -450.9,387.6 -451.1,387.9   -451.2,388 -451.4,388.1 -451.7,388.2 -452,388.3 -452.2,388.1 -452.5,388.1 -453,388.3 -453.3,388.3 -453.5,388.2 -453.8,388.2   -454.1,388.3 -454.2,388.4 -454.3,388.4 -454.5,388.5 -454.6,388.5 -454.8,388.5 -455.3,388.5 -455.5,388.5 -455.7,388.6   -456.1,388.8 -456.5,389 -456.7,389.1 -457,389.5 -457.5,389.9 -457.8,390.2 -457.9,390.3 -458,390.3 -458,390.3 -458.1,390.2   -458.2,390.2 -458.3,390.2 -458.3,390.2 -458.4,390.3 -458.4,390.3 -458.9,390.4 -458.9,390.4 -459,390.5 -459.1,390.5   -459.1,390.5 -459.3,390.4 -459.4,390.4 -459.5,390.4 -459.6,390.4 -459.6,390.5 -459.5,390.6 -459.5,390.7 -459.1,390.9   -459.1,390.9 -458.9,390.9 -458.8,390.9 -458.6,390.9 -458.4,391 -458.2,391.1 -458,391.3 -457.9,391.6 -457.9,391.8 -457.9,392.1   -458.1,392.6 -458.1,392.7 -458.2,392.8 -458.3,393 -458.3,393.1 -458.2,393.3 -458.1,393.3 -457.9,393.3 -457.8,393.3   -457.4,393.7 -457.2,394.1 -457.2,395.2 -457.2,395.5 -457.2,395.6 -457.3,395.7 -457.5,395.9 -457.7,396 -457.8,396.3   -457.7,397.6 -457.7,397.8 -457.9,398.1 -458.3,398.5 -458.4,398.8 -458.5,399.3 -458.6,399.5 -458.9,399.7 -459.1,399.8   -459.3,399.8 -460.6,400 -460.8,400.1 -460.8,400.3 -460.7,401.1 -460.7,401.4 -460.5,401.4 -460.3,401.7 -460,402.6 -459.9,402.9   -459.8,403 -460,403.8 -460,403.9 -460,404 -460.1,404.1 -460.2,404.1 -460.3,404.2 -460.4,404.4 -460.5,405.1 -460.5,405.2   -460.4,405.4 -460.4,405.5 -460.2,405.6 -460.3,405.7 -460.4,405.9 -460.4,406.1 -460.3,406.2 -460.3,406.3 -460.5,407   -460.8,407.4 -460.8,407.5 -460.9,408.2 -461,408.4 -460.8,408.5 -460.6,408.8 -460.4,409.1 -460.4,409.3 -460.2,409.4   -460.1,409.4 -460,409.4 -459.9,409.5 -459.9,409.6 -459.8,409.7 -459.8,409.8 -459.7,409.9 -459.5,410 -459.3,410 -459,410   -459,410 -458.9,409.9 -458.9,409.9 -458.8,409.9 -458.7,409.9 -458.7,410 -458.5,410 -458.4,409.9 -458.3,409.8 -458.2,409.7   -458.1,409.7 -457.9,409.7 -457.3,409.8 -457.1,409.7 -456.5,410.1 -456.4,410.1 -456.3,409.9 -456.1,409.9 -455.9,410.1   -455.8,410.3 -455.8,411 -455.8,411 -455.9,411.1 -455.9,411.2 -455.7,411.2 -455.6,411.1 -455.6,411.1 -455.5,411 -455.5,410.9   -455.4,411.2 -455.5,411.4 -455.5,411.5 -455.2,411.5 -455.3,411.8 -455.2,411.9 -454.9,412.1 -454.9,412.2 -455.2,412.3   -455.3,412.4 -455.2,412.4 -455.1,412.4 -455,412.5 -454.9,412.5 -455.1,412.6 -455,412.7 -454.9,412.7 -454.7,412.7 -454.6,412.6   -454.5,412.8 -454.4,412.9 -454.2,413 -454.1,413.1 -453.9,413.3 -453.8,413.5 -453.9,413.7 -454.2,413.7 -454.1,413.8 -454,414   -453.8,414.3 -453.8,414.4 -454,414.9 -454,415.1 -453.6,415.4 -453.5,415.5 -453.4,415.4 -453.3,415.3 -453.3,415.2 -453.1,415.2   -453,415.3 -453,415.3 -452.9,415.4 -452.6,415.4 -452.4,415.5 -452.2,415.6 -452.1,415.9 -451.8,415.8 -451.7,416 -451.7,416.3   -451.6,416.5 -451.8,416.6 -451.9,416.6 -452,416.6 -452,416.7 -451.9,416.8 -451.9,416.8 -451.8,416.9 -451.7,416.9 -451.5,417.2   -451.3,417.1 -451.4,417.1 -451.4,417 -451.3,417 -451.2,416.9 -451.1,417 -451,417 -451,417.1 -450.9,417.2 -450.8,417.3   -450.7,417.4 -450.7,417.5 -450.7,417.6 -450.6,417.7 -450.4,417.7 -450.4,417.8 -450.4,417.8 -450.4,417.9 -450.3,417.8   -450.2,417.8 -450.1,417.7 -450,417.6 -450,417.6 -449.9,417.6 -449.7,417.5 -449.6,417.5 -449.4,417.3 -449.2,417.4 -449.1,417.7   -448.9,417.7 -448.7,417.7 -448.7,417.5 -448.7,417.4 -448.6,417.2 -448.6,417.1 -448.6,417.1 -448.5,417 -448.3,417 -448.2,417.1   -448.1,417.1 -448.1,417.2 -448.1,417.4 -448.2,417.7 -448.3,417.9 -448.1,418.2 -447.7,418.2 -447.2,418.2 -446.9,418.3   -446.8,418.5 -446.7,418.9 -446.6,419 -446.4,419.1 -446.4,419 -446.4,418.8 -446.4,418.6 -446.2,418.7 -445.8,418.8 -445.8,418.7   -445.6,418.4 -445.6,418.2 -445.6,417.9 -445.6,417.8 -445.5,417.7 -445.1,417.3 -445.3,417.2 -445.3,417.2 -445.2,417.1 -445,417   -444.5,416.9 -444.2,416.8 -443.9,416.3 -443.7,416.1 -443.4,416.1 -442.7,416.3 -442.6,416.4 -442.5,416.4 -442.4,416.4   -442.4,416.3 -442.4,416.3 -442.4,416.2 -442.2,416.1 -442.1,416.1 -441.7,416.1 -441.6,415.9 -441.6,415.7 -441.4,415.6   -441.1,415.5 -440.6,415.2 -440.4,415.2 -439.5,415.1 -439.3,415.1 -439.2,415 -439,414.8 -438.8,414.7 -438.7,414.6 -438,414.6   -438,414.6 -437.8,414.7 -437.7,414.7 -437.6,414.6 -437.5,414.5 -437.5,414.5 -437.3,414.5 -437.2,414.6 -437.1,414.7 -437,414.8   -436.8,414.9 -436,414.8 -434,414.9 -433.9,415 -433.7,415.2 -433.5,415.2 -433.4,415.2 -433.3,415.1 -433.1,415.1 -433.1,415.2   -433.1,415.4 -433.1,415.7 -432.9,415.8 -432.6,415.8 -432.5,415.6 -432,415 -431.8,414.9 -431.7,415 -431.7,415.2 -431.7,415.5   -431.6,415.8 -431.4,415.9 -431.1,415.9 -430.9,416 -430.6,416.3 -430.4,416.9 -430.3,417.2 -430.1,417.4 -429.9,417.4   -429.4,417.3 -429.2,417.3 -429,417.5 -428.8,417.8 -428.6,418.4 -428,419.6 -426.7,421.3 -426.4,421.5 -426.1,421.6 -425.9,421.3   -425.6,420.7 -425.2,420.3 -425.6,419.8 -426.1,419.3 -426.2,419.2 -426.2,419 -426.2,418.8 -426.1,418.6 -426,418.4 -425.8,418.3   -426,418.2 -426,418 -426,417.9 -426.1,417.8 -426.2,417.8 -426.3,417.8 -426.3,417.8 -426.4,417.6 -426.5,417.4 -426.5,417.1   -426.3,416.7 -425.8,416.2 -425.8,416.1 -425.8,415.9 -426.1,415.5 -426.1,415.1 -426,414.6 -426,414.2 -426.1,414 -426.4,413.6   -426.4,413.3 -426.4,412.2 -426.6,411.6 -426.6,411.4 -426.4,411.1 -426.2,410.9 -426.1,410.8 -426,410.7 -426,410.5 -426.1,410.4   -426.1,410.4 -426.3,410.3 -426.4,410.3 -426.5,410.3 -426.6,410.2 -426.6,410.1 -426.7,410 -426.8,410 -426.9,410 -427,409.9   -427.1,409.7 -427.1,409.4 -427.1,409.2 -427,409 -426.9,408.9 -426.8,408.8 -426.7,408.7 -426.5,408.7 -426.4,408.7 -426.2,408.6   -426.2,408.4 -426.2,408.4 -426.5,408.4 -426.7,408.3 -426.9,408.3 -427.3,407.9 -427.4,407.7 -427.5,407.5 -427.5,407.4   -427.7,407.2 -427.8,407.2 -427.8,407 -427.8,406.8 -427.8,406.6 -428.2,406 -428.3,405.7 -428.2,405.6 -428.1,405.3 -428,405.1   -428,405 -427.9,405 -427.9,404.9 -428,404.8 -428,404.8 -428.1,404.8 -428.1,404.8 -428.1,404.6 -428.1,404.5 -428,404.4   -427.9,404.3 -427.9,404 -427.6,403.6 -427.5,403 -427.4,402.8 -427.2,402.6 -427,402.4 -426.9,402.2 -426.8,401.9 -426.9,401.7   -427,401.5 -427.1,401.2 -427,401.1 -427.1,401.1 -426,401.1 -426,401.2 -424.5,401.2 -422,401.2 -419,401.1 -416.1,401.1   -413.4,401.1 -411.4,401.1 -411.3,401 -411.2,400.8 -411,400.7 -409.4,400.7 -408.7,401 -408.3,401.1 -406.7,401.1 -405.2,401.1   -405.1,400.9 -404.7,400.9 -403,401 -402.9,401 -402.8,401.1 -402.7,401.3 -402.6,401.3 -402.5,401.3 -402.6,401.5 -402.4,401.4   -402.1,401.1 -401.8,401.1 -401.7,401 -401.7,401 -401.6,401 -401.5,401.1 -400,401.1 -400,401.3 -399.9,401.3 -399.8,401.2   -399.7,401.3 -399.6,401.3 -399.7,401.4 -399.8,401.5 -399.8,401.6 -399.2,402.2 -399,402.1 -398.9,401.8 -398.8,401.5   -398.7,401.3 -398.5,401.2 -398.2,401.2 -397.7,401.2 -397.7,401.2 -397.7,401.1 -397.6,401.1 -397.6,401.1 -397.5,400.9   -397.1,400.8 -397,400.7 -396.9,400.5 -396.9,400.2 -396.8,400 -396.6,399.7 -396.3,399.7 -396.1,399.9 -395.9,400.2 -395.2,399.7   -395.1,399.6 -395,399.4 -395,399.3 -395.1,399.2 -395,399 -393.3,399.3 -392,399.6 -390.5,399.9 -387.6,400.5 -385.1,401 -385,401   -385,401 -385,401.1 -385,401.1 -385,401.2 -385.1,401.2 -385.1,401.3 -384.9,401.4 -385,401.9 -383.5,401.3 -382.7,401.2   -381.5,401.2 -379.8,401.1 -379.4,401.3 -379.3,401.4 -379,401.4 -379,401.3 -378.9,401.2 -379,401 -379,400.9 -379.1,400.9   -379.2,400.8 -379.2,400.6 -379.2,400.5 -379.1,400.5 -379,400.3 -378.9,400.2 -378.9,400 -378.8,400 -378.7,400 -378.5,400.1   -378.4,400.1 -378.3,400.2 -378.3,400.2 -378.2,400.3 -378.2,400.4 -378.1,400.4 -378,400.4 -377.9,400.3 -377.9,400.3   -377.5,400.4 -377.3,400.4 -377.3,400.5 -377.2,400.6 -377.1,400.7 -377.1,400.6 -377.1,400.4 -377.2,400.3 -377.3,400.1   -377.3,400 -377.3,399.9 -377.3,399.7 -377.4,399.7 -377.5,399.7 -377.5,399.6 -377.5,399.6 -377.5,399.4 -377.5,399.4   -377.6,399.3 -377.7,399.4 -377.8,399.4 -377.8,399.2 -377.7,399.2 -377.3,399.1 -377.2,399 -377.1,398.8 -377.1,398.8 -377,398.8   -376.7,398.9 -376.6,398.9 -376.6,398.7 -376.7,398.3 -376.9,397.9 -376.9,397.7 -376.7,397.6 -376.6,397.4 -376.5,397.5   -376.4,397.6 -376.4,397.7 -376.3,397.7 -376.2,397.7 -376.2,397.6 -376,397.6 -375.8,397.6 -375.6,397.7 -375.2,397.9 -375,397.6   -375,397.5 -375,397.3 -375.2,397.2 -375.2,397.1 -375.1,397 -375,397 -374.8,397.2 -374.7,397.3 -374.7,397.2 -374.6,397.2   -374.5,397.2 -374.4,397.3 -374.2,397.2 -374.2,397 -374.3,396.8 -374.4,396.6 -374.3,396.4 -374,396.2 -373.7,396.1 -373.5,395.9   -373.7,395.7 -373.6,395.6 -373.5,395.4 -373.4,395.3 -373.2,395.2 -373.1,395.2 -373,395 -372.8,395.1 -372.6,395.1 -371.4,395.2   -371.4,395.3 -371.4,395.5 -371.5,395.6 -371.2,395.6 -371,396.1 -370.7,396 -370.5,395.9 -369.9,395.7 -369.7,395.6 -369.5,395.6   -368.9,395.6 -368.7,395.6 -368.2,395.4 -367.9,395.3 -367.7,395.4 -367.6,395.3 -367.5,395.3 -367.1,395.5 -366.6,395.7   -366.1,395.7 -365.8,395.6 -364.1,393.8 -363.2,393.1 -362.5,392.7 -362.3,392.5 -362.3,392.4 -362.3,392.3 -362.3,392   -362.1,391.7 -361.6,391.1 -361.5,390.8 -361.1,389.6 -361,389.6 "/></svg>