<svg xmlns="http://www.w3.org/2000/svg" xmlns:xlink="http://www.w3.org/1999/xlink" version="1.1" x="0px" y="0px" viewBox="-461 335 100 100" fill="#e0e0e0" style="enable-background:new -461 335 100 100;" xml:space="preserve"><polygon points="-368.3,373.7 -368.9,373.3 -369,372.9 -369,372.7 -368.8,372.1 -368.8,371.8 -369.2,371.2 -370.4,370.1   -370.6,369.4 -370.3,368.7 -368.9,367 -368.4,366.2 -369.5,366.2 -371.7,366.8 -372.8,366.9 -373.4,366.7 -374.5,366.1 -375,365.8   -375.6,365.9 -376.1,366.1 -376.6,366.2 -377.2,366 -377.3,365.8 -377.4,365.1 -377.5,364.8 -377.8,364.7 -378.4,364.4   -381.4,362.6 -381.8,362.6 -382.4,362.8 -383,363.3 -383.9,364.5 -384.1,364.6 -384.3,364 -384.7,363.6 -385,363.3 -384.8,362.8   -385.6,362.5 -386.3,361.9 -387.5,360.4 -387.6,359.6 -387,358.5 -386,357.2 -386,356 -385.9,355.3 -385.5,354.7 -382.8,351.9   -382.5,351 -383.6,351.4 -385.2,352.2 -386.2,352.5 -387.1,352.5 -387.6,352 -387.5,350.8 -387.1,350.3 -386,349.2 -385.5,348.6   -385.3,348.1 -385,346.7 -383.2,342.4 -382.6,341.4 -381,339.5 -382.6,339.5 -384.1,338.7 -386.6,336.7 -386.9,336.3 -387.1,335.7   -387.4,335.4 -387.5,335.5 -389,335.1 -389.2,335 -390,335.2 -390.4,335.6 -390.8,336.2 -391.4,336.7 -392.1,337.1 -393,337.3   -393.9,337.5 -394.6,337.6 -395.2,337.4 -396.6,336.7 -397.2,336.7 -397.3,337 -397.3,337.4 -397.5,337.8 -399.6,340.4   -400.3,340.9 -401.4,341 -402.5,340.5 -403.4,339.9 -404.2,339.2 -405.6,337.5 -406.2,337.1 -406.7,336.9 -407.2,336.9   -407.6,336.9 -407.9,336.9 -409.2,335.8 -409.5,335.6 -410,335.7 -410.1,335.9 -410.1,336.3 -410.4,338.7 -410.1,342.3   -411.1,345.7 -411.3,351 -411.6,352 -412,353 -412.6,354 -413.2,354.8 -414.2,355.8 -415,356.3 -416,356.5 -417.1,356.5   -418.2,356.1 -418.7,356.1 -419.1,356.6 -419.2,357.5 -419.4,358 -419.9,358.2 -420.9,358.4 -421.8,358.2 -424.2,357.4   -424.5,357.4 -425.9,357.9 -426.3,358.1 -426.6,358.3 -427.1,358.3 -428.1,358.4 -429,358.9 -429.9,359.2 -431,358.6 -433.5,358.2   -434.4,358.2 -436.4,359.1 -437.5,359.2 -438,358.3 -438,357.8 -438.4,356.8 -438.5,356.3 -438.4,355.8 -437.7,355 -437.6,354.5   -437.9,353.9 -438.9,352.9 -439.1,352.3 -439.1,351.7 -439.1,351.5 -439.6,351.1 -440.5,350.6 -441.5,350.4 -443.4,350.1   -444.5,349.8 -447.3,348.6 -448.1,348.5 -450.8,348.7 -451.8,349.7 -452.6,354.3 -452,355.4 -453,355.6 -453.6,356.1 -453.9,356.9   -454,357.8 -453.6,358.6 -452.8,358.9 -451.8,359 -451.1,359.3 -450.9,359.6 -450.4,360.9 -449.7,361.9 -449.6,362.3 -449.5,363.1   -449.2,363.8 -448.5,364.2 -447.6,364.5 -446.9,364.9 -446.6,365.7 -446.5,366.6 -446.1,367.5 -445.2,367.8 -444.3,367.9   -443.5,368.2 -442.9,368.7 -442.4,369.4 -442.1,372.4 -442.3,372.9 -442.9,373.2 -443.2,374 -443.4,375 -443.3,378 -443,378.9   -442.2,379.6 -443.4,380.8 -443.7,381.4 -443.8,382.7 -441.6,382.6 -439.6,383 -438,384 -437.4,385.9 -437.7,402.5 -436.1,406.8   -436,408.3 -435.8,408.8 -435.4,409.2 -434.8,409.5 -434.4,409.9 -434,411 -433.1,411.9 -432.9,412.4 -433,412.9 -433.2,413.2   -433.3,413.6 -433.3,414.1 -433,414.5 -432,416 -431.5,416.9 -431.3,417.3 -430.9,417.7 -430.4,418.4 -430.2,419.2 -430.2,420.1   -430.1,421.1 -429.6,421.7 -429,422.2 -428.4,422.8 -428.1,423.8 -428,424.8 -427.6,425.8 -425.9,428.8 -425.2,429.6 -423.5,431.1   -422.9,432 -422.8,433 -422.9,434.4 -421.4,434.8 -419.5,434.9 -419.3,435 -418.8,434.6 -418.6,434.1 -418.6,433.5 -418.4,432.8   -418.1,432.5 -417.3,432.2 -417.1,431.8 -417,431 -416.9,430.9 -416.1,430.4 -415.6,430.5 -415.1,430.7 -414.4,430.8 -413.9,430.7   -411.5,429.5 -409.8,428 -408.2,427.1 -407.7,426.7 -406.7,426.1 -406.1,425.4 -404.9,422.6 -404.5,421.9 -401.3,419.3   -399.9,417.6 -398.8,415.7 -397.9,413.7 -397.1,410.3 -396.6,409.4 -394.1,406.9 -392.3,403.8 -391.2,403.1 -389.1,403.7   -388.9,402.9 -389.1,402.2 -389.3,401.5 -389.5,400.7 -389.5,399.8 -389.2,399 -387.2,396 -386.9,395.1 -386.9,394.3 -387,393.3   -386.7,392.8 -385.4,391.9 -385.3,391.7 -385.1,391.1 -385,391 -384.2,390.9 -384.2,390.9 -384.1,391 -383.2,390.9 -383.2,390.8   -383.1,390.4 -383,390.3 -381.8,390 -381.5,389.9 -381.1,389.6 -380.5,388.8 -378.3,387.8 -377.1,386.6 -377,385.4 -378.8,384.5   -377.9,383.5 -377,382.6 -376,382 -374.7,381.5 -374.2,381.5 -373.7,381.2 -373.4,380.8 -373.3,380.2 -372,380.8 -370.7,380.7   -369.6,379.9 -368.9,378.7 -369,378.4 -369.2,377.6 -369.2,377.3 -368.5,376.3 -368.1,375.2 -368,374.6 -368.1,374.1 "/></svg>