<svg xmlns="http://www.w3.org/2000/svg" xmlns:xlink="http://www.w3.org/1999/xlink" version="1.1" x="0px" y="0px" viewBox="-461 335 100 100" fill="#999999" style="enable-background:new -461 335 100 100;" xml:space="preserve"><path d="M-447.4,405.7l-0.1-0.2l0,0l0-0.1v-0.1l0-0.1l-0.1-0.1l-0.3-0.2l-0.3,0.3l0.1,0.4l0.2,0.4l0.2,0.3l-0.1,0.4l0,0.2l0.2,0  l0.1-0.1l0.2-0.4l0.1-0.1v-0.1l-0.1-0.2L-447.4,405.7z M-442.3,420.8l0.3-0.1l0-0.3l-0.1-0.1l-0.2,0l-0.1-0.1l0-0.1l-0.1,0l-0.1,0  l-0.1,0l0-0.1l0-0.1l0-0.1l-0.2-0.2l-0.3-0.2l-0.3-0.1l-0.4,0.1l-0.2,0.3l0.1,0.3l0.2,0.3l0.3,0.2l0.6,0.2l0,0l0,0.1l0,0.2l0.1,0.2  l0.2,0.1l0.1-0.3l0.2-0.2L-442.3,420.8z M-447.1,408.6l-0.1-0.2l-0.1-0.2l0-0.2l0-0.2l0-0.2l-0.2-0.5l-0.1-0.1l-0.2,0l-0.2,0.2  l0-0.1l0-0.1l0-0.1l-0.1,0.4l0,0.5l0.1,0.8l0,0.7l0.1,0.4l0.2,0.2l-0.1,0.2l0.2,0.1l0.3,0l0.3-0.1l0.1-0.2l0.1-0.3l0-0.4l-0.1-0.3  l0.1-0.1L-447.1,408.6z M-433.2,424.3l-0.3,0l-0.2,0.1l-0.1,0.1l0.1,0.2l-0.2,0.2l-0.1,0.1l-0.2,0l0.2,0.3l0.2,0.2l0.3,0.1l0.3,0  l0.2-0.2l0-0.4l-0.1-0.4L-433.2,424.3z M-361,369l-0.1-1.9l-0.1-0.7l-1.6-3l-0.3-0.5l-0.4-0.5l0-0.1l-0.2-0.3l-0.4-0.4l-0.1-0.3  l0-0.2l0.1-0.4l0-0.2l-0.2-0.6l0.1-0.3l0.1-0.2l0.1-0.2l-0.1-0.3l-0.3-0.6l0-0.2l0-0.2l0-0.2l-0.1-0.2l-0.3-0.1l-0.7,0.1l-0.3-0.1  l-0.2-0.4l0-0.4l0.1-0.4l0-0.4l-0.2-0.3l-0.2-0.2l-0.1-0.2l0.1-0.5l0.6-1.8l0.1-0.7l0-0.2l-0.1-0.2l-0.2-0.4l0-0.2l0-0.4l0.1-0.4  l0.4-0.7l0.1-0.2l0-0.2l0.1-0.2l0.1-0.1l0.2-0.1l0.1,0.1l0.1,0.1l0.1,0.1l0.4-0.1l0.2-0.2l0.2-0.3l0.2-0.5l0.1-0.3l0-0.1l0.1-0.3  l0.3-0.4l0.1-0.2l0-0.3l-0.1-0.6l0-0.3l0.4-1l0.1-0.5l-0.2-0.5l-0.3,0.2l-0.6,0.9l-0.3,0.1l-0.1,0.1l-0.1,0.4l-0.1,0.1l-0.1,0.2  l-0.1,0.2l0,0.2l0,0.2v0.2l-0.1,0.1l-0.2,0.2l-0.2,0l-0.4-0.2l-0.4-0.1l-0.2-0.1l-0.4-0.3l-0.5-0.4l-0.3,0l-0.3,0.3l-0.3,0.5  l-0.1,0.1l-0.2,0.1l-0.1,0.1l0,0.1l0,0.4l-0.2,0.4l-0.2,0.1l-0.3,0l0,0v0l-0.3,0l-0.2,0.2l-0.1,0.3l-0.2,0.3l-0.5,0.5l-0.6,0.4  l-0.4,0.1l-0.2-0.1l-0.2-0.2l-0.3-0.2l-0.2-0.1l-0.1,0l0,0.1l-0.5,0.7l-0.4,0.6l-0.1,0l-0.2,0.1l-0.2,0.5l0,0.1l-0.1,0.1l-0.2,0.1  l-0.2,0l-0.4-0.2l-0.2-0.1l-0.2,0l-0.1,0.1l-0.1,0.1l-0.7,0.4l-0.3,0l-0.3-0.1l-0.3-0.2l-0.5-0.5l-0.7-0.9l-0.1-0.3l-0.1-0.1  l-0.1-0.2l-0.1-0.1l-1.4-0.4l-0.5-0.3l-0.4-0.6l-0.2-0.1l-0.4-0.1l-0.2-0.1l-0.1-0.2l-0.1-0.6l-0.1-0.2l-0.2-0.4l-0.1-0.1l-0.4,0.4  l-0.1,0.1l-0.1,0l-0.1,0.1l0,0.2l0,0.2l0,0.1l0.1,0.1l0.1,0.1v0.1l-0.3,0l-0.2-0.1l-0.2,0l-0.2,0.1l0,0.1l0,0.1l0,0.1l0.2,0.1  l-0.1,0.1l-0.1,0.1l-0.1,0l-0.2,0.4l-0.5,0.2l-1.1,0.2l-0.3,0.1l-0.3,0l-0.2,0l-1.1-0.7l-0.1-0.1l-0.2,0.3l-0.2,1l-0.1,0.4l-0.3,0.4  l-0.3,0.2l-0.4,0l-0.7,0l-0.5-0.1l-0.3,0l-0.2,0l-0.1,0l-0.1,0.1l-0.1,0.3l-0.1,0.1l-0.3,0l-0.8-0.3l-0.4-0.1l-0.1,0.2l0,0.2l0,0.2  l0.1,0.2l0.4,0.3l0.2,0.3l0.1,0.4l-0.1,0.5l0.2,0.4l0.3,0.2l0.7,0.4l0.3,0.3l0.5,1.1l0.3,0.3l0.3,0.3l0.3,0.3l0.1,0.4l-0.1,0.4  l-0.3,0.3l-0.3,0.2l-0.3,0.3l-0.2,0.3l0,0.9l-0.3,0.3l-0.4,0l-1-0.2l-0.4,0l-0.5,0.2l-0.5,0l-0.5-0.1l-0.5-0.3l-1.6-1.4l-0.3-0.5  l-0.2-0.5l-0.3-0.5l-0.5-0.3l-0.2,0l-0.4,0.1l-0.3,0l-0.3-0.1l-0.2-0.1l-0.2,0l-0.3,0.2l-0.1-0.3l-0.3-0.3l-0.3-0.1l-0.3,0.1  l-0.1-0.2l-0.1-0.1l-0.2-0.1l-0.1-0.1l-0.5,0.4l-0.3,0.2l-0.3,0.1l-0.5,0.3l-0.5,0.2l-0.6,0.1l-0.5,0l-0.3,0l-0.2-0.1l-0.2-0.1  l-0.5-0.7l-0.1-0.1l-0.3-0.1l-0.1-0.1l-0.3-0.3l-1.1-1.7l-0.2-0.4l-0.1-0.4v-0.6l-0.6,0.3l-0.4,1l-0.6,1l-1,0.3l-0.4-0.2l-0.3-0.4  l-0.6-1.1l0-0.2l0.1-0.9l0-0.3l-0.1-0.2l-0.4-0.1l-1.1-0.2l-0.2-0.1l-0.3-0.2l-0.1-0.1l-0.2,0l-0.4,0.1l-0.1,0l-0.3-0.2l-0.3-0.2  l-0.3-0.2l-0.3,0l-0.3,0.1l-0.6,0.4l-0.3,0.1l-0.1-0.1l-0.1-0.3l-0.2-0.1l-0.2,0.1l-0.2,0.3l-0.1,0.1l-0.3,0l-0.5-0.2l-0.3,0  l-0.3,0.2l-0.2,0.3l-0.2,0.3l-0.2,0.2l-0.4,0.2l-0.3-0.1l-0.3-0.1l-0.3-0.1l-0.2,0.1l-0.2,0.1l-0.1,0.1l-0.1,0.1l-0.2,0l-0.1,0  l-0.1-0.1l-2.2-0.3l-1-0.4l-0.4,0l-0.3,0.2l-0.3,0.2l-0.3,0.1l-0.2-0.1l-0.1-0.2l0-0.2l0.1-0.1l-0.2,0l0,0.1l0,0.1l-0.5,0.5  l-0.1,0.1l-0.2,0l-0.1-0.1l-0.1-0.1l-0.1-0.1l-0.7,0.2l-0.7,0.4l-0.7,0.1l-0.5-0.4l-1,0.1l-0.2,0.2l0,0.2l-0.1,0.1l-0.3,0l-0.3-0.1  l-0.2-0.1l-0.2-0.1l-0.2-0.1l-0.3-0.1l-0.2,0l-0.2,0l-0.2,0l-0.4,0l-1.1-0.3l-0.6,0l-0.1-0.1l-0.1-0.2l0-0.5l0-0.2l-0.1-0.1  l-0.2-0.1l-0.2-0.1l-0.2,0l-0.2,0.1l-0.1,0.1l0,0.2l-0.1,0.2l-0.4,0.2l-0.3-0.1l-0.3-0.2l-0.3-0.1l-0.3,0.1l-0.7,0.4l-0.7,0.5  l-0.1,0.1l-0.2,0l-0.1-0.1l-0.1-0.1l-0.1,0l-0.3,0.1l-0.5,0.4l-0.3,0.1l-0.4,0.1l-1.3,0l-1.4,0.4l-1.1,0.2l-0.4,0.1l-0.6,0.3  l-1.5,1.3l-0.3,0.2l-0.7,0.2l-0.3,0.1l-0.3,0.3l-0.1,0.3l0,0.3l0,0.4l-0.1,0.3l-0.4,0.6l-0.1,0.3l-0.1,0.4l0,0.3l-0.1,0.2l-0.3,0.3  l-1.1,0.8l-0.5,0.5l-0.4,0.6l-0.3,1.1l-0.2,0.3l-0.3,0.4l-0.1,0.2l0,0.2l0,0.4l-0.1,0.2l-0.4,0.4l-1.9,0.9l-0.6,0.5l0,0.4l0.4,0.4  l0.7,0.4l-0.3,0.1l-0.9,0.5l-0.4,0.1l-1.2,0.1l-1.5-0.1l-0.7,0.1l-0.4,0.5l0,0.2l0.2,0.3l0.1,0.2l0,0.2l0,0.3l0.1,1.5l-0.1,1.2  l0,1.4l1,2.7l0.4,0.6l0.9,1l0.3,0.6l0.2,0.3l0.3,0.2l0,0.1l-0.1,0.1l-0.1,0.1l-0.1,0.1l-0.1,0.1l0,0.1l0,0.1l0.2,0.2l0,0.1l0,0.1  l-0.2,0.2l0,0.2l0.1,0.2l0.1,0.2l0.1,0.4l0.1,0.7l0.1,0.4l0.1,0.2l0.1,0.1l0.1,0.1l0,0.2l0,0.2l-0.2,0.6l-0.2,0.2l-0.1,0.3l0,0.4  l0,0.4l0.1,0.3l0.3,0.2l1.1,0.4l0.6,0.4l1.4,1.5l0.5,0.3l0.1,0.1l0.1,0.2l0,0.3l0.1,0.1l0.3,0.3l0.6,0.3l0.2,0.2l0.1,0.4l-0.2,0.3  l-0.5,0.4l-0.2,0.4l-0.1,0.4l-0.4,3.1l0.1,0.8l1,1.5l0.4,0.5l0.3,0.7l0.2,1l0.9,1.7l0.8,1.1l0.5,0.8l0.2,0.8l0.1,1.1l-0.3,0.4  l0.1,0.1l0.3,0.3l0.1,0.1l0,0.3l0.2,0.3l0,0.2l0.2-0.4l0-0.3l-0.2-0.8l0-0.3l0.2-0.6l0-0.3l-0.2-0.6l-0.9-1l-0.3-0.6h0.1l0.6,1  l0.4,0.2l0.1,0.2l0,0.2l0.1,0.3l0.1,0.2l0.1,0.1l0.8-0.4h0.1l0.2,0.2l0.3,0.2l0.3,0l0.2-0.2h0.1l-0.1,0.2l-0.2,0.2l-0.3,0.1  l-0.2-0.1l-0.2-0.1l-0.2,0l-0.2,0l-0.2,0.1l-0.3,0.2l-0.2,0.3l-0.1,0.4l0,0.5h0.1v-0.4l0.1,0.1v-0.4h0.1l0.1,0.2l0,0.1h0.1l0.1,0  l0.2-0.1v0.1h-0.1v0.1l0.1,0.1l0.1,0.1l0.2,0.1l0.2,0v0.1l-0.4,0l-0.3-0.1l-0.3-0.1l-0.2,0.2v0.8l0.1,0.2l0.2,0.3l0.1,0.2h-0.1  l-0.3-0.3l-0.1-0.1l-0.4,0.2l0.4,0.5l0.2-0.1l0.3-0.1l0.3-0.1l0.2,0.1h0.1l0.1-0.2l0-0.3l0-0.7l0.1,0.2l0.1,0l0.2,0l-0.1,0.1  l-0.1,0.4l0.1-0.1l0,0.4l0,0.5l0.1,0.4l0.5,0.3l0.2,0.3l0.2,0.1l0.2,0l0.1-0.1l0-0.2l-0.1-0.2l0.1-0.2l0-0.1h0.1l0,0.1l-0.1,0.2  l0.2,0.2l0.6,1.1l-0.3-0.1l-0.3-0.5l-0.2-0.1l-0.3,0l-0.2,0.1l-0.2,0.2l-0.1,0.2h-0.1l0-0.2l0,0l-0.1,0l-0.2,0l0.1,0.2l0.3,0.4  l0.1,0.3l0.1,0.4l0,0.3l0.1,0.2l0.2,0.2l0.1-0.1l0.1-0.1l0.3-0.1l0,0.3l0.2,0.5l0,0.3h-0.1l-0.2-0.3l-0.5,0.3l-0.5,0.5l-0.1,0.2v0.1  l0.2,0.2l-0.2,0.1l-0.2,0.1l0,0.2l0.1,0l0.4,0l0.1,0l0.1,0.1l0,0.2l0,0.2l0,0.1l0.3,0.5l0.1,0.2l0,0.3l-0.1,0.3l-0.1,0.3l-0.1,0.2  l-0.1,0.2l0,0.5l0.2,1l0,0.6l-0.1,0.1l-0.2,0.3l-0.1,0.3l0.1,0.2l0.1,0.1l0.6,0.5l-0.3,0.3l0.2,0.1l0.4,0l0.4,0.2l0.1-0.1l0.2-0.1  l0.2,0l0.3,0l-0.1-0.3l0.3-0.3l0.8-0.5l0.4,0.2l0.5,0.2l0.4,0.3l0.2,0.4l0.2-0.1l0.1-0.1l0.1-0.1l0.2,0.1l0.3-0.1l0.3-0.2l0.1-0.3  l0-0.2l-0.1-0.3l0-0.2l0-0.2l0.2-0.5l0.1-0.4l0.1-0.4l0.5-0.9l0.1-0.3l0-0.2l-0.4,0.2l0.4-0.5l0.1-0.3l-0.1-0.2v-0.1l0.2,0.1  l0.1,0.1l0.1,0.1h0.1l0.3-0.4l-0.1,0l0,0l0,0l0-0.1l0.6,0.1l0.5,0.2l0.4,0.3l0.2,0.7l0.2,0.1l0.2,0.1l0.6,0.1l0.2,0.1l0.4,0.3  l-0.3,0.6l0.4,0.9l0.5,1l0.3,0.7l0,0.7l0,0.2l-0.2,0.3l-0.2,0.2l-0.2,0.1l-0.2,0.1l-0.1,0.2l-0.1,0.8l0.1,0.1l0.2,0.1v0.1l-1.6,0.1  l-0.7,0.2l-0.3,0.4l-0.1,0.3l-0.2,0.4l-0.2,0.3l-0.2,0.1l-0.2,0.2l-0.1,0.4l0.1,0.2l0.3-0.1l0.4,0.3l0.2,0.2l0.1,0.4l0.2,0.1  l0.2,0.1l0.1,0l0.1,0l0.1-0.1l0.1-0.1l0.1,0l0.1,0.1l0,0.3l0.1,0.1l0,0.1l0,0.3l0.1,0.3l0.3,0.1l0.3,0l0.7-0.2l0.6,0l0.4-0.1  l-0.1-0.3l-0.4-0.4l-0.4-0.2v-0.1l0.1,0.1l0.3,0l0.2,0.1l0.1,0.1l0.1,0.1l0.1,0.1l0.2,0l0.4,0l0.3,0l0.2-0.1l0.2-0.2l0.4-0.6  l0.2-0.3l0.1-0.3l-0.1-0.7l0-0.4l0.1-0.4l0.1,0.1l0,0.3l0.1,0.1l0,0.1l0,0.1l0,0.1l0.1,0l0.3,0l0.1,0l0.4,0.8l0,0.1l0.5,0.4l0.3,0.1  l0.3,0l1.8,0.5l0.3,0l0.5-0.1l0.3,0l1,0.3l0.5,0l0.3-0.4l0.1,0.1l0.1,0l0.1-0.1l0.1,0l0.1,0.1l0.2,0.3l0.1,0.1l0.2,0.2l0.1,0.8  l0.1,0.3l0.2,0l0.2,0l0.3-0.1h0.6l0.2,0.1l0.7,0.7l0.3-0.1l0.2,0.1l0.3,0.4l0,0.1l0.3,0.1l0.3,0l0.2-0.2l0.8-1.1l0.2-0.3l0.2-0.3  l0.2-0.2l0.3-0.1l0.8,0l2.8,0.3l0.8,0l0.7-0.3l0.5-0.5l0.8-1.2l0.2-0.2l0.2-0.2l1.9-0.9l0.5-0.4l0-0.6l-0.7-1.2l-0.3-0.7l-0.1-0.7  l0.1-0.3l0.2-0.3l0.3-0.2l0.2-0.2l0.4-0.2l0.1,0.1l0,0.3l0.2,0.3l0.3,0.1l2.7,0.5l0.3,0.2l0.6,0.6l0.3,0.1l0.2-0.2l0.6-1.1l0.8-0.9  l0.2-0.2l0.1,0l0.5,0.1l0.4,0.2l0.2,0l3-0.6l0.4-0.2l0.4-0.2l0,0l0.4-0.3l0.5-0.2l0.5,0.1l0.3,0.4l0.3,0.6l0.6,0.9l0.1,0.3l0.2,0.7  l0.1,0.3l0.3,0.3l0.3,0.2l0.4,0l0.2-0.2l0.2-0.4l0.2-0.4l0-0.3l0.6,0.5l0.2,0.2l0.4,0.4l0.5,0.3l0.5,0.3l0.5,0.2l1.1,0.1l0.5,0.1  l0.4,0.3l-0.5-1.8l-0.5-0.9l-0.1-0.3l0,0l0-0.5l0,0l0.1-0.2l0.1-0.1l0.3,0l0.6,0l0.1-0.1l-0.2-0.4l-0.3-1.1l-0.2-0.3l-0.3-0.3  l-0.3-0.1l-0.3,0.2l-0.2,0.4l-0.2-0.4l-0.3-0.3l-0.7-0.6l-0.3-0.3l-0.5-0.7l-0.3-0.3l-1-0.2l-0.4-0.3l-0.2-0.5v0l-0.1-0.4l-0.3-0.2  l-0.3-0.1l-0.2-0.2l0-0.3l0.3-1.4l0.2-0.6l0.1-0.3l0-0.3l-0.3-1l0-0.5l0-0.3l-0.1-0.2l-0.2-0.2l-0.5-0.1l-0.2-0.1l-0.2-0.4l0.1-0.4  l0.2-0.3l0.2-0.3l0.4-0.4l0.3-0.1l0.9,0.3l0.5,0l0.2-0.3l0.2-0.4l0.5-0.5l0.1-0.2l0.1-0.3l0-0.3l0.4-0.5l0.9,0.1l1,0.3l0.8,0  l1.3,0.4l0.4,0.2l0.1,0.2l0.3,0.4l0.2,0.1l0.3,0l1.1-0.3l0.2,0l0.2,0l0.3,0.1l0.4,0.3l0.2,0.1l0.2,0l0.2-0.3l-0.2-0.4l-0.5-0.9  l0-0.3l0.1-0.3l0.2-0.3l0.1-0.3l0-0.2l0-0.4l0-0.1l0.3-0.5l0,0l-0.1-0.5l-0.6-1l-0.2-0.5l0.4-0.1l0.2,0l0.2,0l0.2,0.1l0.1,0.2  l0.1,0.1l0.3,0l0.6-0.4l0.9,0l1.6,0.2l-0.1-0.3l0.9,0.2l0.4-0.1l0.4-0.5l0.2-0.6l0.3-0.5l0.4-0.3l0.6-0.1l1.4,0.1l0.7-0.1l0.7-0.3  l0.5-0.3l1.3-1.3l0.6-0.7l0.5-0.4l0.2-0.2l0.1-0.3l0.6-0.6l1.1-0.5l1.2-0.4l0.8-0.1l0.4,0.3l0.6,0.9l0.4,0.3l0.4,0l0.6-0.9l0.5-0.3  l0.5-0.2l0.3-0.3l0.1-0.4l0.1-0.5l0.6-1.6v-0.5l-0.1-0.2l0-0.2l0.1-0.2l0.1-0.2l0.1-0.6l0-0.6l-0.5-2.1l0-0.6l0-0.5l0-0.5l-0.3-0.5  l-0.5-0.6l-0.1-0.2l-0.1-0.3l-0.1-0.6l-0.2-0.5l0-0.2l0-0.2l0.1-0.2l0.1-0.1l0-0.1l0-0.1l0-0.1l-0.3-0.2l0-0.3l2.8-6.7L-361,369z   M-441.7,423L-441.7,423l-0.2,0.2l-0.1,0l-0.1-0.1l0-0.2l0-0.1l0-0.1l0.2-0.3l0-0.1l-0.1,0l-0.2,0l-0.3,0.1l-0.1,0.3l0.1,0.3  l0.4,0.6l0.2,0.1l0.1-0.2l0.1-0.2l0.1-0.1L-441.7,423L-441.7,423L-441.7,423z"/></svg>