<svg xmlns="http://www.w3.org/2000/svg" xmlns:xlink="http://www.w3.org/1999/xlink" version="1.1" x="0px" y="0px" viewBox="-461 335 100 100" fill="#e0e0e0" style="enable-background:new -461 335 100 100;" xml:space="preserve"><polygon points="-377.5,430 -377.5,430 -377.6,429.9 -377.7,429.9 -377.7,429.8 -377.6,429.7 -377.6,429.6 -377.7,429.6   -377.8,429.5 -377.8,429.5 -377.8,429.3 -377.8,429.2 -377.9,429.1 -377.9,429 -378.1,428.8 -378.2,428.6 -378.3,428.4   -378.3,428.4 -378.3,428 -378.3,427.9 -378.4,427.7 -378.5,427.6 -378.5,427.4 -378.3,427.1 -378.3,426.9 -378.3,426.7   -378.4,426.4 -378.5,426.3 -378.4,426.1 -378.4,426 -378.3,425.9 -378.4,425.9 -378.5,425.9 -378.6,425.9 -378.7,425.9   -378.8,425.8 -378.8,425.7 -378.8,425.4 -378.8,425.2 -378.5,424.9 -378.5,424.7 -378.5,424.5 -378.6,424.3 -378.7,424.1   -378.8,423.8 -379,423.6 -379,423.5 -379.1,423.5 -379.2,423.5 -379.3,423.5 -379.4,423.5 -379.5,423.5 -379.5,423.5 -379.5,423.4   -379.6,423 -379.7,422.8 -379.9,422.6 -380,422.5 -380.2,422.4 -380.5,422.5 -380.6,422.5 -380.7,422.4 -380.7,422.4 -380.8,422.4   -380.9,422.4 -380.9,422.5 -381,422.4 -381.1,422.4 -381.1,422.4 -381.8,421.7 -382.6,420.8 -383.5,419.9 -384.4,418.9   -385.1,418.2 -385.8,417.5 -386.5,416.7 -387.2,415.6 -387.7,414.4 -387.6,414.4 -387.3,414.5 -387.2,414.5 -387,414.5   -386.7,414.3 -386.5,414.3 -386.3,414.2 -386.3,414.1 -386.4,414 -386.5,414 -386.7,414 -386.7,413.9 -386.7,413.8 -386.8,413.7   -386.9,413.6 -387,413.7 -387.1,413.6 -387.2,413.3 -387.2,412.9 -387.3,412.3 -387.4,412.1 -387.5,411.9 -387.8,411.5   -387.9,411.4 -387.9,411.1 -388,411.1 -388.1,411 -388.5,410.9 -389.9,409.9 -390.2,409.6 -390.4,409.2 -390.5,408.8 -390.6,408.2   -390.7,408 -390.6,408 -390.6,407.9 -390.6,407.7 -390.6,407.6 -390.7,406.7 -390.7,406.6 -390.8,406.6 -390.8,406.5 -390.8,406.2   -390.8,406.2 -390.9,406.1 -390.9,406 -390.9,405.8 -390.8,405.5 -390.9,405.2 -390.9,404.7 -390.9,404.5 -391,404.3 -391.1,404.1   -391.2,404 -391.4,403.9 -391.8,403.8 -392,403.7 -392.1,403.5 -392.1,403.4 -392.1,403.4 -392,403.3 -391.9,403.2 -391.8,403   -391.8,402.9 -391.8,402.9 -391.7,402.7 -391.6,402.6 -391.6,402.5 -391.5,402.5 -391.5,402.4 -391.5,402.1 -391.4,402   -391.3,401.7 -391.3,401.7 -391.3,401.4 -391.3,401.3 -391.4,401.1 -391.5,400.9 -391.5,400.8 -391.5,400.7 -391.5,400.5   -391.4,400.1 -391.2,399.7 -391.2,399.5 -391.2,399.3 -391.3,398.4 -391.4,398.3 -391.5,398.1 -391.6,397.9 -391.7,397.9   -391.9,398 -392,398.1 -392.3,398 -392.5,398 -392.6,397.9 -392.7,397.8 -392.7,397.7 -392.8,397.5 -392.9,397.4 -393,397.3   -393.1,397.2 -393.2,397.1 -393.3,397 -393.3,396.9 -393.3,396.8 -393.2,396.8 -393.2,396.8 -393.1,396.8 -393,396.8 -393,396.8   -393,396.7 -393,396.7 -392.9,396.6 -392.9,396.5 -392.9,396.5 -392.8,396.4 -392.6,396.2 -392.5,396.1 -392.2,395.9 -392.1,395.7   -392,395.6 -391.7,395.6 -390.4,395 -390.3,394.9 -390,394.5 -389.9,394.3 -389.8,394.2 -389.8,394.1 -389.9,393.9 -389.9,393.8   -389.7,393.5 -388.6,391.1 -388.5,390.9 -388.3,390.8 -387.8,390.6 -387.7,390.5 -387.6,390.4 -387.5,390 -387.3,389.6 -387,388.8   -386.9,388.3 -386.8,388.1 -386.7,388 -386.6,388 -386.4,387.9 -386.3,387.8 -386.3,387.7 -386.4,387.2 -386.3,387.1 -386.3,387   -386.2,386.8 -386,386.4 -385.7,386.1 -385,385.7 -384.6,385.4 -384.6,385.3 -384.5,385.2 -384.5,385.2 -384.4,385.1 -384.2,385.1   -384.2,385.1 -384.2,385 -384.3,384.8 -384.3,384.7 -383.8,384.1 -383.8,383.9 -383.4,383.5 -383.2,383 -383,382.5 -383,381.6   -383.2,381.5 -383.5,381.5 -383.7,381.5 -384.1,381.2 -384.4,380.4 -384.9,378.6 -386.4,375.6 -386.5,375.4 -387,374.9   -387.4,374.3 -387.5,374.1 -387.7,374 -387.9,373.9 -388.2,373.9 -388.3,373.8 -388.4,373.8 -388.4,373.7 -388.4,373.6   -388.5,373.4 -388.5,373.3 -388.6,373.2 -388.6,373.2 -388.7,373.2 -388.7,373.1 -388.8,373 -389.2,372.7 -389.3,372.7   -389.4,372.6 -389.4,372.6 -389.5,372.7 -389.6,372.7 -389.7,372.6 -393.6,369.5 -393.8,369.2 -393.9,368.9 -396.4,366   -397.1,365.4 -397.1,365.3 -396.6,364.5 -395.9,363.9 -395.6,363.5 -395.2,362.7 -395.2,362.6 -395.2,362.5 -395.1,362.4   -395.1,362.4 -392.8,362.3 -390.3,362.9 -389.9,362.9 -388.8,362.6 -388.4,362.6 -387.9,362.7 -387.7,362.7 -387.4,362.7   -387.3,362.6 -387.2,362.5 -387.1,362.4 -387,362.4 -386.6,362.3 -386.1,362.4 -384.6,362.8 -384.1,362.8 -382.2,362.4 -382,362.3   -382.4,362 -382.7,361.9 -383.3,361.5 -383.7,361.2 -383.7,361.1 -383.8,361.1 -384.1,360.6 -385.3,359.5 -385.4,359.3   -385.5,359.1 -385.5,358.9 -385.5,358.7 -385.6,358.6 -385.7,358.6 -385.8,358.4 -386,358.1 -386,357.9 -386.2,357.9 -386.3,357.8   -386.3,357.8 -386.4,357.8 -386.5,357.7 -386.6,357.7 -386.7,357.7 -386.7,357.6 -386.8,357.5 -386.8,357.2 -386.7,357   -386.7,356.9 -386.6,356.7 -386.7,356.5 -387.4,355.2 -387.4,354.9 -387.3,354.5 -387.3,354.3 -387.3,354.2 -387.4,354   -387.6,353.5 -387.8,351.8 -387.7,351.3 -387.7,351.1 -387.5,350.8 -387.4,350.7 -387.4,350.6 -387.4,350.5 -387.5,350.5   -387.5,350.4 -387.5,350.3 -387.5,350.2 -387.4,349.7 -387.4,349.6 -387.3,349.4 -386.9,349 -386.8,348.7 -386.9,348.4   -387.1,348.1 -387.2,348 -387.4,347.6 -387.4,347.4 -387.4,347.2 -387.3,347 -387.3,347 -387.2,347 -387.2,347 -387.1,347   -387.1,346.9 -387.2,346.8 -387.2,346.8 -387.2,346.7 -387.1,346.6 -387,346.5 -387.2,346 -387.3,345.9 -387.4,345.9 -387.5,345.8   -387.6,345.7 -387.6,345.4 -387.6,345.4 -387.5,345.3 -387.4,345.2 -387.4,345.1 -387.5,345.1 -387.5,345 -387.5,344.9   -387.5,344.9 -387.3,344.8 -387.3,344.7 -387.4,344.6 -387.5,344.5 -387.5,344.4 -387.5,344.3 -387.5,344.2 -387.6,344.2   -387.6,344.1 -387.6,344 -387.6,343.9 -387.6,343.8 -387.7,343.7 -387.9,343.6 -388,343.6 -388.2,343.7 -388.3,343.8 -388.4,343.7   -388.6,343.4 -388.8,343.3 -388.9,343.2 -388.9,343.1 -388.9,343.1 -388.8,343 -388.8,343 -388.8,342.9 -388.8,342.8 -388.8,342.8   -388.9,342.7 -388.9,342.6 -388.8,342.5 -388.8,342.4 -388.8,341.8 -388.8,341.7 -388.9,341 -389,340.8 -389,340.8 -389,340.7   -389,340.6 -389.1,340.6 -389.1,340.6 -389.2,340.6 -389.2,340.6 -389.2,340.6 -389.3,340.6 -389.3,340.5 -389.3,340.4   -389.3,340.4 -389.2,340.2 -389.2,340.2 -389.5,339.1 -389.6,338.9 -389.8,339 -390,339 -390.1,338.8 -390.1,338.7 -390.2,338.7   -390.2,338.6 -390.3,338.6 -390.4,338.6 -390.5,338.8 -390.6,338.7 -390.5,338.4 -390.5,338.2 -390.7,338.2 -390.9,338.2   -391.1,338.2 -391.1,338.1 -391.3,338 -391.3,338 -391.3,337.9 -391.3,337.8 -391.4,337.8 -391.4,337.8 -391.6,338 -391.7,338   -391.7,337.9 -391.7,337.8 -391.7,337.8 -391.8,337.8 -391.9,337.8 -391.9,337.8 -391.9,337.7 -391.9,337.3 -392.1,337.2   -392.4,337 -392.5,336.8 -392.5,336.7 -392.3,336.3 -392.3,336.1 -392.3,336 -392.4,335.9 -392.5,335.7 -392.9,335.1 -393.1,335   -396.2,335 -395.2,339.8 -395.2,340.5 -395.1,340.6 -395.1,340.8 -395.2,341.1 -395.2,341.2 -395.1,341.3 -395,341.4 -394.8,341.4   -393,341.5 -392.5,341.6 -392.2,341.7 -392.2,341.8 -392.3,342 -392.2,342 -392.2,342.1 -391.9,342.3 -391.8,342.3 -391.8,342.4   -391.9,342.4 -392,342.5 -391.8,342.6 -391.6,342.7 -391.5,342.8 -391.4,343 -391.4,343 -391.3,343 -391.1,342.9 -391.1,342.9   -391,342.9 -390.9,343 -390.9,343.1 -391.1,343.3 -391.1,343.3 -391.1,343.4 -391.2,343.5 -391.4,344.1 -391.3,344.2 -391.5,344.3   -391.5,344.5 -391.3,344.9 -391.3,345 -391.3,345 -391.3,345.3 -391.4,345.6 -391.6,346.5 -391.7,346.7 -392,347.1 -392,347.2   -392,347.2 -391.9,347.3 -391.9,347.4 -391.8,347.4 -391.7,347.4 -391.7,347.5 -391.6,347.5 -391.6,347.6 -391.4,347.7   -391.4,347.9 -391.3,348.1 -391.3,348.3 -391.3,348.5 -391.4,348.7 -391.5,348.9 -391.6,349 -391.7,349.1 -392.2,349.3   -392.4,349.4 -392.7,349.7 -392.9,349.8 -393.4,350 -393.5,350 -394.3,350.8 -394.4,350.8 -394.6,350.8 -394.7,350.9 -395,351.1   -395.1,351.2 -395.3,351.3 -395.5,351.4 -395.7,351.3 -396.3,351.1 -396.6,351 -396.9,351 -397.2,351.3 -397.6,351.6 -397.8,352   -398,352.3 -398.2,352.7 -398.3,352.8 -398.6,353 -398.8,353.1 -398.9,353.3 -398.9,353.5 -398.8,353.8 -398.9,354 -400.5,356.3   -400.7,356.8 -401.1,357.9 -401.4,359.5 -401.6,360.1 -401.6,360.2 -401.5,360.4 -401.5,360.5 -401.5,360.6 -401.6,360.9   -401.7,361 -401.9,361.2 -402.1,361.3 -402.3,361.4 -403,361.4 -403.3,361.5 -403.4,361.8 -403.4,362 -403.3,362.3 -403.2,362.5   -403.3,362.7 -403.5,363 -403.5,363.2 -403.5,363.4 -403.4,363.5 -403.2,363.8 -403.1,364 -403.1,364.1 -403.2,364.3 -403.3,364.5   -403.4,365 -403.4,365.6 -403.7,366.2 -404.2,366.5 -404.9,366.6 -405.5,366.8 -405.7,366.9 -405.9,367.3 -406,367.4 -406.1,367.4   -406.6,367.7 -406.7,367.7 -406.7,367.8 -406.7,367.9 -406.4,367.9 -406.4,368.1 -406.3,368.4 -406.3,368.7 -406.3,368.9   -406.4,369 -406.8,369.7 -407,370.2 -407,370.5 -406.9,370.8 -407.1,372.5 -407.2,372.9 -407.4,373.1 -407.5,373.2 -407.6,373.2   -407.7,373.1 -407.9,373.1 -408,373.2 -408,373.3 -408.1,373.5 -408.2,373.8 -408.4,374 -409.3,374.5 -409.4,374.5 -409.6,374.5   -409.9,374.3 -410,374.3 -410.1,374.3 -410.2,374.4 -410.3,374.4 -410.5,374.5 -410.6,374.5 -410.7,374.5 -411,374.4 -410.9,374.6   -410.7,375.1 -410.7,375.2 -410.7,375.4 -410.7,375.5 -411,375.7 -411.1,375.8 -411.1,375.9 -411.2,376 -411.3,376.1 -411.5,376.1   -411.8,376 -412,376.1 -412.2,376.4 -412.3,376.8 -412.2,377.2 -412.1,377.9 -412.1,378 -412.2,378.2 -412.5,378.7 -412.6,379   -412.6,379.3 -412.5,379.6 -412.5,379.9 -412.4,380 -412.5,380.1 -412.8,380.5 -413.7,381.7 -414,382.2 -414.1,382.4 -414.1,382.6   -414.1,382.8 -413.9,383.3 -414,383.5 -414.1,383.6 -414.2,383.7 -414.5,384 -415.5,385.1 -416.1,385.9 -416.2,386 -416.4,386.1   -416.5,386.2 -416.4,386.3 -416.2,386.3 -416.1,386.4 -415.7,387 -415.3,387.4 -415.2,387.6 -415.3,387.8 -415.4,387.9   -415.5,387.8 -415.5,387.8 -415.6,387.8 -415.8,387.8 -415.9,387.9 -416.2,388.2 -416.4,388.3 -416.4,388.4 -416.4,388.5   -416.4,388.5 -416.5,388.6 -416.7,388.6 -416.8,388.6 -416.8,388.6 -416.9,388.6 -416.9,388.6 -416.9,388.7 -417,388.8   -417.5,389.1 -418,389.6 -418.2,389.8 -418.2,390.1 -418.2,390.2 -418,390.4 -417.9,390.6 -418,390.8 -418,391 -418.3,391.6   -418.5,391.9 -418.7,392 -419.1,392.1 -419.3,392.2 -419.4,392.5 -419.5,392.9 -419.5,393.1 -419.7,393.3 -419.9,393.4   -420.1,393.4 -420.2,393.4 -420.4,393.4 -420.5,393.4 -420.5,393.4 -420.6,393.5 -420.7,393.5 -420.7,393.5 -420.8,393.4   -420.9,393.4 -421.7,393.5 -421.9,393.5 -422.1,393.3 -422.2,392.9 -422.4,392.2 -422.4,391.9 -422.4,391.6 -422.4,391.1   -422.6,390.8 -422.9,390.6 -423.7,390.4 -424,390.1 -424.1,389.7 -424.2,389.3 -424.3,389 -424.6,388.8 -425.4,388.5 -426,388.2   -426.2,388.1 -426.4,388 -426.4,387.6 -426.6,387.4 -426.7,387.6 -426.8,387.9 -426.9,388.3 -426.9,388.9 -427,389 -427,389   -427.1,389 -427.2,389.2 -427.2,389.3 -427.3,389.4 -427.3,389.6 -429.5,389.6 -429.8,389.6 -430,389.4 -430,389.3 -430.2,388.6   -430.2,388.5 -430.4,388.5 -430.6,388.6 -432.7,390.4 -432.9,390.5 -433.1,390.4 -433.3,390.3 -433.5,390.3 -433.6,390.5   -434.3,392.6 -434.4,392.7 -434.8,392.7 -435.1,392.8 -435.2,392.9 -435.4,393.3 -435.6,393.4 -435.7,393.5 -436.1,393.6   -436.4,393.8 -436.6,394.3 -436.9,394.4 -437,394.5 -437.1,394.4 -437.2,394.5 -437.4,394.5 -437.5,394.6 -437.7,395.2   -437.9,395.5 -439.1,396.4 -439.9,397.3 -440.1,397.5 -440.2,397.7 -440.4,397.7 -440.4,397.8 -440.4,398 -440.5,398.2   -440.6,398.2 -440.8,398.1 -441,398.1 -441.2,398.2 -441.3,398.4 -441.6,398.6 -441.7,398.7 -441.7,398.9 -441.6,399 -441.5,399.2   -441.5,399.4 -441.7,399.6 -441.8,399.7 -441.9,399.8 -441.8,400.1 -441.6,400.2 -441.4,400.4 -441.2,400.5 -441.2,400.8   -441.2,401 -441.3,401.2 -441.5,401.3 -441.6,401.5 -441.7,401.7 -441.7,401.8 -441.6,402.1 -441.6,402.3 -441.7,402.5   -441.9,402.9 -441.9,403.1 -441.9,403.2 -441.8,403.4 -441.8,403.5 -442,404.7 -442.1,404.8 -442.2,404.8 -442.3,404.8   -442.4,404.9 -442.5,405 -442.6,405.2 -442.7,405.3 -442.8,405.7 -442.9,405.9 -443,406.1 -443.4,406.6 -443.4,406.8 -443.7,406.9   -443.7,407.1 -443.7,407.2 -443.7,407.4 -443.7,407.5 -443.8,407.6 -443.9,407.6 -444,407.7 -444,407.9 -443.9,408.2 -444,408.2   -444.1,408.3 -444,408.4 -444,408.5 -444,408.6 -444.1,408.6 -444.3,408.8 -444.5,409 -444.5,409.1 -444.6,409.2 -444.5,409.4   -444.4,409.4 -444.2,409.4 -444.1,409.4 -444.3,409.7 -444.4,409.8 -444.5,409.8 -444.6,409.9 -444.5,410.1 -444.4,410.2   -444.3,410.3 -444.2,410.3 -444.1,410.2 -444.1,410 -444,410 -443.9,410 -443.8,410 -443.9,410.1 -444,410.2 -444,410.3 -444,410.4   -442.9,410.3 -442.7,410.2 -442.7,410 -442.8,409.9 -442.9,409.8 -443,409.8 -443.2,409 -443.4,408.7 -443.4,408.5 -443.3,408.2   -443.2,408.6 -442.8,409.1 -442.7,409.5 -442.7,409.6 -442.5,409.7 -442.4,409.7 -442.3,409.8 -442.3,409.8 -442.1,409.9   -442.1,410 -442,409.9 -441.9,409.7 -442,409.7 -442,409.6 -442,409.5 -442,409.4 -441.6,409.8 -441.6,409.9 -441.5,410   -441.4,409.9 -441.4,409.8 -441.5,409.6 -441.7,409.2 -441.7,409.1 -441.6,409.1 -441.5,409.2 -441.5,409.3 -441.4,409.4   -441.2,409.5 -441.2,409.5 -441.1,409.7 -441.1,409.8 -441.2,409.9 -441.2,410 -441.1,410.1 -441,410.1 -440.8,409.9 -440.9,410.1   -441.2,410.5 -441.2,410.7 -441,411.9 -440.8,412.3 -440.6,412.5 -440.4,412.8 -440.4,413 -440.6,413.6 -440.5,413.8 -440.4,413.9   -439.7,414.2 -439.2,414.5 -439.1,414.5 -439,414.5 -438.8,414.5 -438.7,414.5 -438.6,414.5 -438.5,414.6 -438.4,414.7   -438.5,414.8 -438.5,415 -438.4,415 -438.1,415 -437.8,414.7 -437.8,414.6 -437.7,414.4 -437.5,414.4 -437.5,414.4 -437.6,414.7   -437.6,415 -437.6,415.3 -437.3,415.4 -437.2,415.4 -436.9,415.5 -436.7,415.5 -436.4,415.5 -436.2,415.4 -436.1,415.4   -436.2,415.3 -436.3,415.2 -436.4,415.2 -436.4,415 -436.4,414.9 -436.3,414.8 -436.3,414.7 -436.4,414.6 -436.6,414.5   -436.6,414.4 -436.6,414.3 -436.5,414.3 -436.4,414.3 -436.4,414.4 -436.4,414.4 -436.3,414.4 -436.3,414.5 -436.2,414.7   -436.1,414.7 -436,414.8 -435.9,414.8 -435.8,414.8 -435.7,414.7 -435.8,414.5 -435.9,414.4 -436,414.3 -436.1,414.1 -436.1,414.1   -436.2,414 -436.3,414 -436.3,414 -436.4,413.9 -436.1,413.6 -436,413.6 -435.9,413.7 -436,413.9 -435.9,414.1 -435.7,414.3   -435.6,414.4 -435.4,414.3 -435.4,414.4 -435.3,414.5 -435,414.4 -434.8,414.3 -434.7,414.1 -434.4,413.7 -434.2,413.6   -434.2,413.8 -434.2,413.8 -434.1,413.7 -434,413.6 -433.9,413.5 -433.7,413.4 -433.7,413.5 -433.8,413.5 -433.8,413.6 -434,413.7   -434.4,414.3 -434.6,414.4 -434.7,414.5 -434.9,414.7 -434.9,414.9 -434.8,415.1 -434.5,415.1 -433.6,415 -433.6,415 -433.7,415   -433.7,415 -433.7,415 -433.7,415.1 -433.7,415.1 -433.7,415.2 -433.8,415.2 -434.1,415.2 -434.3,415.3 -434.4,415.4 -434.4,415.5   -434.2,415.7 -433.8,415.8 -433.9,415.8 -433.9,415.8 -433.8,415.9 -433.8,416 -433.8,416.1 -433.8,416.2 -433.9,416 -434,415.9   -434.3,415.8 -434.4,416 -434.6,416 -434.9,415.7 -435.1,415.8 -435.2,416 -435.2,416.2 -435.1,416.4 -435.1,416.5 -435,416.5   -435,416.6 -434.9,416.6 -434.6,416.7 -434.6,416.8 -434.9,416.8 -435,416.8 -435.1,416.7 -435.2,416.6 -435.3,416.4 -435.3,416.4   -435.3,416.4 -435.6,416.2 -435.5,416.4 -435.4,416.6 -435,417.2 -434.7,417.8 -434.9,417.8 -434.9,418 -434.9,418.1 -434.8,418.1   -434.2,418.1 -433.9,418 -433.7,417.8 -433.5,417.8 -433.2,417.8 -433.4,417.8 -433.6,417.9 -434.3,418.5 -434.5,418.6   -434.7,418.6 -433.9,419.2 -433.5,419.5 -432.9,420.3 -432.6,420.7 -432.6,420.8 -432.5,420.9 -432.4,420.9 -432.3,420.9   -432.2,420.9 -432.2,421 -432.3,421 -432.4,421.1 -432.4,421.1 -432.4,421.1 -432.3,421.3 -432,422.6 -432,422.8 -432.1,423.1   -432.3,423.3 -432.4,423.6 -432.6,423.9 -432.7,424.3 -432.7,425.4 -432.7,425.6 -432.9,425.9 -433.1,427.1 -433.2,428.7   -433.2,428.9 -433.2,428.9 -433.3,429 -433.2,429.1 -433.2,429.3 -433.3,429.5 -433.2,429.7 -433.1,429.8 -432.9,430 -432.7,430.1   -432.5,430.2 -432.4,430.3 -431.8,430.5 -431.7,430.5 -430.5,430.5 -427.9,430.5 -425.3,430.5 -422.7,430.5 -420.1,430.5   -420,430.5 -420,430.4 -419.9,430.3 -419.9,430.1 -419.9,430 -419.9,429.9 -419.8,429.8 -419.8,429.7 -419.8,429.6 -419.8,429.5   -419.8,429.4 -417.5,429.3 -417.3,429.2 -417.1,429.2 -417,429.2 -416.9,429.3 -416.8,429.4 -416.3,429.5 -416.2,429.6   -415.9,429.5 -415.1,429.5 -414.4,429.5 -413.8,429.5 -413.3,429.5 -413.1,429.5 -412.8,429.5 -412.4,429.6 -412.2,429.5   -411.9,429.4 -411.7,429.4 -411.6,429.4 -411.4,429.3 -411.4,429.3 -411.3,429.3 -411,429.5 -410.8,429.5 -410.3,429.4 -410,429.4   -409.5,429.6 -409.4,429.6 -409.2,429.6 -409,429.7 -408.8,429.7 -407.6,429.9 -407.5,429.9 -407.3,429.8 -407.2,429.7   -407.1,429.7 -407,429.7 -406.8,429.8 -406.6,429.8 -406.5,429.7 -406.4,429.8 -406.3,429.8 -406.2,429.8 -406.1,429.7   -405.8,429.8 -405.7,429.8 -405.6,429.8 -405.5,429.7 -405.3,429.8 -405.1,429.9 -404.7,429.8 -404.6,429.8 -404.5,429.6   -404.3,429.5 -404.3,429.5 -404,429.5 -403.8,429.6 -403.6,429.6 -403.6,429.7 -403.5,429.7 -403.4,429.6 -403.3,429.6   -403.2,429.6 -403.1,429.8 -402.9,429.9 -402.9,430 -402.8,430.1 -402.9,430.4 -402.9,430.6 -401.4,430.6 -400,430.6 -398.2,430.6   -396.7,430.6 -395.3,430.6 -394.4,430.7 -394.3,430.6 -393.9,430.5 -393.4,430.6 -393.2,430.6 -393.1,430.8 -392.9,430.8   -392.9,430.8 -392.7,430.7 -392,430.6 -391.9,430.5 -391.9,430.5 -391.9,430.4 -391.9,430.3 -391.8,430.2 -391.8,430.2   -391.6,430.2 -391.3,430.6 -391.1,430.7 -391.1,430.8 -391.1,430.8 -390.8,430.8 -390.7,430.9 -390.6,431.1 -390.4,431.1   -390.5,430.9 -390.4,430.9 -390.2,431 -390.3,431.1 -390.4,431.1 -390.3,431.2 -390.2,431.1 -390.1,431.1 -390.1,431.1   -390.1,431.2 -390.1,431.4 -390,431.4 -389.5,431.3 -389.4,431.3 -389.3,431.2 -389.3,431.1 -389.3,431 -389.2,431 -389.1,431.1   -389,431.3 -389,431.4 -388.8,431.5 -388.9,431.7 -388.9,431.9 -388.6,432 -388.4,431.9 -388.3,431.9 -388.2,431.7 -388.1,431.7   -387.7,432 -387.6,432.1 -387.4,432 -387.3,432.2 -387.2,432.1 -387,432 -386.9,431.8 -386.9,431.8 -386.8,431.9 -386.7,431.6   -386.4,431.7 -386.3,431.7 -386.1,431.7 -385.9,431.7 -385.9,431.8 -385.9,431.9 -385.8,432 -385.8,432 -385.5,432.1 -385.4,432.1   -385.4,432.2 -385.4,432.3 -385.4,432.4 -385.4,432.4 -385.4,432.5 -385.3,432.5 -385.3,432.6 -385.1,432.7 -385.1,432.7   -385,432.7 -384.8,432.6 -384.6,432.5 -384.2,432.3 -383.8,432.2 -383.4,432.3 -382.7,432.5 -381.8,432.6 -381.8,432.6   -381.7,432.7 -381.6,432.7 -381.4,432.7 -381.3,432.8 -381,433.2 -380.9,433.3 -380.6,433.3 -380.4,433.5 -380.4,433.5   -380.3,433.6 -380.3,433.7 -380.2,433.8 -380.1,433.8 -380,433.7 -379.9,433.7 -379.9,433.8 -379.8,433.9 -379.6,433.9 -379.4,434   -379.4,433.9 -379.3,433.9 -379.1,434 -379.1,434.1 -379,434.2 -379,434.2 -379.1,434.3 -379.1,434.4 -379,434.6 -378.6,435   -378.3,434.4 -378.2,434.4 -378,434.5 -377.9,434.4 -377.9,434.3 -378.1,433.3 -378.4,432.6 -378.5,432.3 -378.6,432.3   -378.7,432.2 -378.7,432.2 -378.7,431.9 -378.7,431.8 -378.6,431.6 -378.6,431.5 -378.6,431.4 -378.6,431.4 -378.6,431.3   -378.6,431.3 -378.6,431.3 -378.6,431.2 -378.5,431.2 -378.5,431.2 -378.5,431.2 -378.5,431.1 -378.5,431 -378.5,430.9   -378.5,430.8 -378.5,430.7 -378.4,430.5 -378.4,430.3 -378.2,430.2 -378,430.3 -377.9,430.4 -377.5,430.2 -377.4,430.1 "/></svg>