<svg xmlns="http://www.w3.org/2000/svg" xmlns:xlink="http://www.w3.org/1999/xlink" version="1.1" x="0px" y="0px" viewBox="-461 335 100 100" fill="#999999" style="enable-background:new -461 335 100 100;" xml:space="preserve"><path d="M-453.7,397.8L-453.7,397.8l-0.1-0.1l0,0v0.1l0,0L-453.7,397.8L-453.7,397.8z M-457,392.9L-457,392.9l0-0.1h-0.1l0,0v0.1  L-457,392.9L-457,392.9z M-441.2,395.9l-0.1-0.2l0-0.3l-0.2-0.2h-0.1l-0.2-0.1l-0.1-0.2l-0.2-0.2h-0.2l0,0.1l-0.9,0l0-0.1l-0.2,0  l0-0.1h-0.2l-0.1-0.1h-0.2l-0.2,0.2h-0.8l-0.1-0.1l0,0.1h-0.2l0,0.1l-0.1,0l-0.3,0.2l-0.2,0l-0.2,0.1h-0.4l0,0.1h-0.8l-0.1-0.1  l-0.1,0l0-0.1h-0.1l-0.2-0.2h-0.1l0-0.1h-0.2l0-0.1h-0.1l-0.1-0.1l0,0.1l-0.2,0l-0.1,0.1h-0.1l-0.2,0.1h-0.1l-0.2,0.1h-0.4l-0.1-0.1  h-0.1l-0.3-0.2h-0.1l-0.3-0.3h-0.1l-0.1-0.1l-0.1,0l-0.4-0.4l-0.1,0l0-0.1h-0.1l-0.1-0.2h-0.1l-0.2-0.2h-0.1l-0.1,0.1l-0.1,0.4  l0.1,0.1l0-0.1l0.1,0l-0.1,0.3l-0.1,0.2l0,0.1l-0.2,0.2v0.1l0.3,0l0.1-0.1l0.1-0.3l0.1-0.1l0.1,0l0,0.2l0,0.1l0.1,0.1v0.4l-0.2,0.3  l0,0.1h0.1l0.2-0.1l0.1,0.3h0.1l0.1-0.3h0.1l0,0.2l-0.1,0.1l0,0.5l0,0.1v0.1l0.1,0.1l0,0.2l-0.1,0l-0.1,0.2h-0.1l-0.1-0.2l-0.4,0  l0-0.2l-0.1-0.1l0,0.2l-0.2,0.2l-0.1,0.1h-0.1l-0.1-0.1l0,0.1h-0.2l-0.2-0.1l0.1-0.3l0-0.2l0-0.1l0-0.1h-0.1l-0.1,0.1l-0.1-0.1h-0.1  l-0.1,0.1l0,0.1l0.1,0.1l0,0.8l-0.1,0.1l0,0.2l-0.1,0.1l0,0.2l0.2,0l0.1-0.2h0.1l0.1,0.1v0.1l0,0.1l-0.1,0.1l0,0.1h-0.2l-0.2,0.2h0  l-0.1-0.2h-0.1l-0.3,0.4l-0.2,0.1l-0.2,0.2l-0.1,0.1l-0.1-0.1h-0.1l0-0.1l-0.3,0l-0.1,0.1h-0.1l-0.1-0.1l-0.1-0.1l-0.2,0.2l-0.2,0.1  l-0.1,0.1l0-0.1l-0.1-0.2h-0.1l-0.3-0.3l-0.3-0.1l0-0.1v-0.2l-0.1-0.2v-0.1l-0.1-0.1h-0.1l-0.1-0.1v0l0.2-0.1V397l-0.1-0.2l-0.1,0.1  l-0.1,0l0-0.4l0.1-0.1l0-0.2l0.2-0.1l0-0.3l0-0.1v-0.4l-0.1-0.2l-0.1-0.3l-0.2-0.3l-0.1-0.3l-0.1-0.1h-0.1l-0.1,0.1l-0.1,0l0.1-0.2  l0-0.2l-0.1-0.2l-0.1-0.2v-0.1l-0.1-0.1v-0.1l0.1-0.2l0.1-0.1h0.3l0.1,0.1l0.3,0.1l0,0.1l0.2,0l0-0.2l-0.1,0l-0.1-0.2l0,0l-0.2-0.2  h-0.1l-0.3-0.2l-0.2-0.2l-0.1,0l-0.1-0.1l-0.2,0l-0.1-0.1l-0.3,0.1l-0.3,0.2h-0.1l-0.2,0.2h-0.1l0,0.1h-0.1l-0.1,0.1l-0.2,0.1h-0.1  l-0.2,0.2l-0.1,0.2l0,0.1l-0.1,0.2l0,0.3l0.2,0.1l0.3,0l0,0.1h0.1l0.1-0.1l0.2,0.1h0.1l0.1,0.1l0.2,0.2h0.1l0.4,0.4l0.1,0.2v0.1  l0.1,0.2v0.1l0.1,0.3v0.2l0,0.1l0.1,0.4l0,0.1v0.4l0,0.1v0.1l-0.1,0.2l0,0.4l0,0.1l-0.1,0.2l0,0.1l0,0.4l0.1,0.2l0.1,0.3l0,0.1v0.2  l0,0.1v0.1l-0.3,0.3v0.1l-0.3,0.5v0.1l0.1,0.2v0.1l0.1,0.1l0,0.1v0.2l0.1,0.1l0.2,0.1l0.1,0.1l0.3,0l0.3-0.2h0.1l0.3-0.2h0.1  l0.3-0.2l0.1-0.1h0.1l0.1-0.1h0.1l0-0.1h0.1l0-0.1l0.4,0l0,0.2l0.1,0.1v0.1l0.1,0.1h0.1l0.1-0.1l0.3,0.1l0.1,0.1l0-0.1l0.9,0l0,0.1  h0.1l0.2,0.1h0.1l0.2,0.3l0.5-0.1l0.1,0.1l0.2,0.1h0.4l0.1-0.1h0.4l0-0.1l0.3,0l0.4-0.2h0.1l0.2-0.2h0l0-0.1l0.1,0l0.7-0.7l0.1,0  l0-0.1l0.2-0.1l0.2-0.1l0-0.1l0.1-0.1l0.2-0.1l0.4-0.1l0-0.1h0.1l0.2-0.1l0.6,0.1l0.1,0.1h0.1l0.1,0.1l0.3-0.2l0.6-0.3l0.2,0l0-0.1  h0.6l0.2,0.2l0.2,0.2l0.2,0l0.1,0.1l0.4-0.1l0.1,0.1h0.2l0.1,0.1h0.4l0.1-0.1l1.1,0l0-0.1h0.2l0.5-0.3l0.2-0.1l0-0.1l0.1-0.1V398  l0.4-0.5l0.3-0.6v-0.2l0.1-0.2v-0.2l-0.1-0.1l0.1-0.1v-0.2l0-0.1l0-0.1V395.9z M-451.8,396.4L-451.8,396.4L-451.8,396.4l0.1,0.1l0,0  l0-0.2l0,0l-0.1,0L-451.8,396.4L-451.8,396.4z M-361.1,369.7h-0.1l-0.1-0.1l-0.3,0l0-0.1l-0.1,0l-0.1-0.1l-0.5,0l-0.1,0.1l-0.1,0  l0,0.1l-0.4,0.1l-0.1,0.1l-0.1,0l-0.4,0.4h0l-0.2,0.3l-0.1,0.1l-0.2,0.2h-0.1l-0.1,0.1l-0.3,0.1l0,0.1h-0.1l0,0.1l-0.2,0l-0.1,0.1  l-0.2,0l-0.1,0.1l-0.2,0l-0.1,0.1l-0.1,0l-0.2,0.1l-0.3,0.1l-0.1,0.1l-0.2,0.2l0,0.1l-0.1,0l-0.4,0.4l-0.7,0.5l-0.2,0.1h-0.1l0,0.1  l-0.4,0.1l-0.1,0.1l-0.1,0l-0.2,0.1l-0.3,0.1l-0.3,0.2l-0.1,0.1l-0.2,0.1l-0.1,0.1l-0.1,0.1l0,0l-0.2,0.2l-0.1,0l-0.1,0.1h-0.1  l-0.1,0.2l-0.1,0v0.2l0.1,0.1l0.6-0.1l0.1-0.1l0.2,0l0-0.1l0.3,0l0-0.1h0.5l0-0.1l0.1,0l0.1-0.1l0.1,0.1l0.1-0.1h0.2l0-0.1l0.2-0.1  l0.2-0.2l0.3-0.1l0.2-0.1l0.4-0.1l0.1-0.1h0.1l0.2-0.2l0.1,0l0.1-0.1l0.2-0.1l0.2-0.1l0.1-0.1l0.2-0.1l0.1-0.1h0.1l0-0.1l0.3-0.1  l0-0.1l0.3-0.1l0.2-0.1l0.5-0.1l0.1-0.1l0.4-0.1l0.2-0.1l0.2,0l0.2-0.1l0.1,0l0.1-0.1l0.2,0l0.2-0.2l0.1,0l0.2-0.3h0.1l0.1-0.2  l0.1,0l0-0.1h0l0.4-0.4h0l0.3-0.3l0-0.2l0.1-0.1l0-0.3L-361.1,369.7z M-375.2,372.6L-375.2,372.6l-0.3-0.2l-0.2-0.1l0-0.1l-0.2,0  l0-0.1l-0.1,0l0,0.1l-0.1,0l-0.2,0.1l-0.2,0l-0.1,0.1l-0.2,0.1l-0.3,0.2l-0.3,0.1l0,0.1h-0.2l0,0.1h-0.1l-0.1,0.1l-0.2,0l-0.1,0.1  l-0.5,0.1l0,0.1l-0.2,0l0-0.1l-0.5,0l0,0l-0.2,0l-0.1,0.1l-0.2,0l-0.1,0.1l-0.1,0l-0.1,0.1l-0.2,0l0,0.1l-0.2,0l-0.2,0.1l-0.1,0  l-0.1,0.1l-0.1,0.3l-0.2,0.2l-0.3,0.2l-0.2,0.1l0,0.1l-0.3,0.1l-0.1,0.1h-0.1l-0.1,0.1l-0.1,0.1l-0.3,0.2l-0.2,0.2l-0.1,0.2  l-0.2,0.1l-0.1,0.2v0.2l0.1,0.1l0.4,0l0.1-0.1h0.5l0.2,0.1l0.2,0l0-0.1h0.1l0.4-0.3l0.2-0.2l0.3-0.1l0.1-0.1l0-0.2l0.1-0.1l0.2-0.2  l0.1,0l0.3-0.1l0.1,0.1l0.1,0l0.1,0.1l0.3,0l0.1-0.1l0.1-0.1l0.3-0.3l0.2-0.1l0.1,0l0.2-0.2l0.2-0.1l0-0.1l0.1,0l0.1-0.1h0.1  l0.2-0.2h0.1l0.1-0.1l0.2-0.1l0.3-0.2l0.1-0.1l0.3-0.1l0.1,0l0.2,0l0,0l0.4,0l0,0.1h0.6l0.3-0.2l0-0.1l0-0.1L-375.2,372.6  L-375.2,372.6z M-451.7,395.8L-451.7,395.8L-451.7,395.8v-0.1l-0.1,0l0,0v0L-451.7,395.8L-451.7,395.8z"/></svg>