<svg xmlns="http://www.w3.org/2000/svg" xmlns:xlink="http://www.w3.org/1999/xlink" version="1.1" x="0px" y="0px" viewBox="-461 335 100 100" fill="#e0e0e0" style="enable-background:new -461 335 100 100;" xml:space="preserve"><polygon points="-361.1,396.9 -361.2,396.8 -361.3,396.7 -361.4,396.4 -361.6,396.3 -362.1,396 -362.2,395.8 -362.4,395.6   -362.6,395.1 -362.6,395 -362.6,394.6 -362.7,394.4 -362.7,394.3 -362.7,394.2 -362.4,393.3 -362.4,393.3 -362.4,393.1   -362.4,393.1 -362.5,393 -362.6,393 -362.6,393 -362.6,393.1 -362.7,393.1 -362.7,393.1 -362.8,393.1 -362.8,393 -362.8,393   -362.8,392.8 -362.8,392.7 -362.8,392.7 -362.8,392.6 -362.9,392.5 -362.9,392.5 -362.9,392.5 -362.9,392.4 -363,392.3 -363,392.1   -363.1,392 -363.2,392 -363.4,391.9 -363.4,391.9 -363.4,391.8 -363.5,391.7 -363.5,391.6 -363.9,391.5 -363.9,391.5 -364.1,391.6   -364.1,391.6 -364.2,391.5 -364.2,391.4 -364.4,391.3 -364.5,391.1 -364.5,391 -364.9,391.1 -365,391.1 -365.1,390.9 -365.2,390.7   -365.3,390.7 -365.4,390.8 -365.6,390.8 -365.8,390.7 -365.9,390.6 -365.9,390.2 -366,390.1 -366.1,390 -366.7,389.8 -367.2,389.9   -367.4,389.8 -367.9,389.7 -368,389.6 -368.1,389.4 -368.2,389.3 -368.2,389.1 -368.4,389.1 -368.7,389.3 -368.8,389.3   -368.8,389.3 -368.8,389.2 -368.8,389 -368.6,388.9 -368.5,388.8 -368.4,388.8 -368.4,388.7 -368.2,388.6 -368.2,388.5   -368.2,388.5 -368.2,388.3 -368.3,388.2 -368.4,388.2 -368.5,388.2 -368.6,388.1 -368.6,388 -368.6,387.7 -368.7,387.7 -369,387.6   -369.1,387.6 -369.2,387.5 -369.4,387.3 -369.5,387.1 -369.6,387.1 -369.7,387 -369.8,386.9 -369.9,386.8 -369.9,386.6   -369.8,386.5 -369.8,386.4 -370,386.3 -369.9,386.2 -369.9,386.2 -369.8,386.1 -369.7,386.1 -369.6,385.8 -369.4,385.6   -369.3,385.5 -369.2,385.2 -369.2,385.2 -369.2,384.9 -369.5,384.7 -370,384.5 -370.3,384.4 -370.4,384.2 -370.7,384 -370.9,383.7   -371.1,383.7 -371.2,383.6 -371.4,383.5 -371.4,383.5 -371.5,383.4 -371.5,383.3 -371.5,383.2 -371.5,383.1 -371.5,383.1   -371.5,383.1 -371.5,383 -371.6,383 -371.6,383 -371.7,383 -371.7,383 -371.8,382.8 -371.8,382.4 -371.8,382.3 -372.2,382.2   -372.3,382.2 -372.3,382.2 -372.3,382.1 -372.4,382.1 -372.4,382 -372.6,382 -372.7,382 -372.9,381.8 -372.9,381.8 -373,381.6   -373,381.6 -373.1,381.5 -373.5,381.5 -373.6,381.5 -373.6,381.3 -373.6,381.2 -373.7,381.2 -373.9,381.1 -374,381.1 -374.1,381   -374.2,381 -374.3,381 -374.4,381 -374.6,380.8 -374.7,380.8 -375.2,380.6 -375.3,380.6 -375.6,380.2 -375.8,380.2 -375.9,380.2   -376,380.2 -376.2,380.1 -376.5,379.9 -376.9,379.7 -377,379.6 -377.1,379.5 -377.2,379.4 -377.2,379.2 -377.3,379 -377.3,379   -377.5,379 -377.5,378.9 -377.6,378.9 -377.6,378.8 -377.7,378.7 -377.8,378.6 -378.2,378.4 -378.4,378 -378.4,377.9 -378.4,377.8   -378.3,377.6 -377.8,377.5 -377.6,377.3 -377.6,377.2 -377.6,377.1 -377.6,377 -377.7,376.9 -377.6,376.5 -377.6,376.4   -377.7,376.3 -377.8,376.1 -377.9,375.8 -377.9,375.7 -378,375.6 -378.2,375.6 -378.3,375.5 -378.3,375.5 -378.4,375.4   -378.5,375.4 -378.7,375.4 -378.9,375.5 -379,375.5 -379.2,375.4 -379.5,375.2 -379.8,374.8 -379.9,374.8 -380,374.7 -380,374.7   -380.1,374.6 -380.1,374.5 -380.2,374.3 -380.2,374 -380.3,373.9 -381,373.3 -381.2,373.2 -381.7,373.1 -381.9,373 -382.1,373   -382.2,373 -382.6,372.9 -383.2,373 -383.4,373 -383.7,372.8 -383.7,372.8 -383.8,372.8 -383.8,372.7 -383.9,372.7 -384.1,372.5   -384.3,372.5 -384.8,372.7 -384.9,372.7 -385,372.6 -385,372.5 -385.1,372.5 -385.2,372.5 -385.4,372.5 -385.7,372.4 -385.8,372.4   -386,372.3 -386.2,372.1 -386.3,371.9 -386.4,371.7 -386.4,371.5 -386.3,371.2 -385.9,370.5 -385.8,370.4 -385.5,370.2   -385.4,370.1 -385.5,370 -385.7,369.9 -385.7,369.8 -385.7,369.7 -385.6,369.4 -385.5,369.3 -385.7,369.3 -386,369.3 -386.5,369.3   -387.3,369.2 -387.5,369.2 -387.6,369.2 -387.9,369.1 -388.4,369.1 -388.8,369 -389.1,369 -389.4,369.1 -389.5,369.2 -389.7,369.1   -390,369.1 -390.1,369.1 -390.2,369 -390.3,368.9 -390.4,368.9 -390.6,368.9 -390.7,369 -390.9,369.1 -391,369.2 -391.1,369.1   -391.2,368.9 -391.3,368.7 -391.3,368.5 -391.2,368.3 -390.9,368 -390.8,367.8 -390.7,367.3 -390.7,367.1 -390.7,366.9   -390.9,366.9 -391.1,367.2 -391.4,367.2 -391.6,367.1 -391.7,366.9 -391.7,366.7 -391.5,365.7 -391.4,365.5 -391.3,365.5   -391,365.5 -390.9,365.5 -390.8,365.4 -390.7,365.3 -390.4,364.9 -390.3,364.8 -390.2,364.7 -390.2,364.6 -390.3,364.4   -390.3,364.2 -390.1,363.6 -390.1,363.6 -390.1,363.5 -390.2,363.5 -390.2,363.5 -390.3,363.4 -390.3,363.3 -390.3,363.1   -390.3,363 -390.4,362.8 -390.4,362.7 -390.3,362.5 -390,362.1 -389.9,361.8 -389.9,361.5 -390.1,360.2 -390.3,359.9 -392.8,355.8   -394.2,354.4 -395,353.8 -396.1,352.3 -396.1,352 -396.5,352 -397,351.8 -397.2,351.7 -397.5,351.6 -397.5,351.6 -397.8,351.6   -397.9,351.6 -398,351.5 -398.1,351.5 -398.3,351.5 -398.4,351.6 -398.6,351.6 -398.8,351.4 -398.8,351.5 -398.9,351.5 -399,351.5   -399.2,351.5 -399.3,351.5 -399.3,351.5 -399.5,351.7 -399.5,351.7 -399.7,351.8 -399.9,351.8 -400.1,351.9 -400.2,351.9   -400.3,352 -400.5,352.1 -400.5,352.2 -400.6,352.2 -400.7,352.1 -400.8,352.2 -400.9,352.3 -401.1,352.5 -401.2,352.7   -401.3,352.9 -401.5,352.8 -401.7,352.8 -402.3,352.7 -402.4,352.8 -402.5,352.9 -402.6,353.1 -402.6,353.2 -402.6,353.4   -402.6,353.5 -403.1,353.6 -403.2,353.6 -403.5,353.8 -403.7,354 -403.7,354 -403.7,354 -403.8,354 -403.9,353.9 -404,354   -404.2,354 -404.2,354 -404.3,354 -404.4,354.1 -404.4,354.1 -404.4,354.2 -404.5,354.2 -404.7,354.2 -404.8,354.3 -404.8,354.4   -404.8,354.5 -404.9,354.8 -404.9,354.9 -404.9,355.1 -404.8,355.4 -404.8,355.5 -404.8,355.6 -404.7,355.7 -404.6,355.8   -404.6,355.8 -404.6,355.9 -404.6,355.9 -404.6,356 -404.8,356.4 -404.8,356.6 -404.8,356.6 -404.8,356.7 -404.8,356.8   -404.8,356.9 -404.9,356.9 -405,356.9 -405.1,356.9 -405.1,357.1 -405.2,357.2 -405.3,357.4 -405.5,357.4 -405.5,357.4   -405.8,357.5 -405.8,357.5 -405.9,357.5 -406,357.5 -406.1,357.5 -406.2,357.5 -406.4,357.6 -406.6,357.9 -407,358.8 -407.2,359.1   -407.5,359.4 -407.7,359.5 -407.8,359.5 -408.1,359.4 -408.2,359.3 -408.3,359.4 -408.7,359.9 -408.8,360 -408.8,360.1   -408.9,360.1 -409.3,360.4 -409.4,360.5 -409.5,360.8 -409.5,360.8 -409.5,360.9 -409.5,361 -409.5,361 -409.5,360.9 -409.6,361   -409.7,361 -409.7,361.1 -409.8,361.1 -409.8,361.1 -409.9,361 -409.9,361 -410,361 -410,361 -410,361.1 -410,361.1 -410.1,361.1   -410.1,361.1 -410.2,361.2 -410.2,361.2 -410.2,361.4 -410.3,361.6 -410.3,361.7 -410.3,361.9 -410.4,362 -410.5,362.1   -410.5,362.1 -410.5,362.2 -410.4,362.2 -410.4,362.3 -410.6,362.2 -410.6,362.3 -410.6,362.3 -410.7,362.4 -410.8,362.5   -410.9,362.5 -410.9,362.6 -411,362.7 -411.3,363.1 -411.4,363.1 -411.5,363.2 -411.6,363.4 -411.6,363.5 -411.6,363.7   -411.7,363.7 -411.7,363.7 -411.8,363.6 -411.8,363.6 -411.8,363.6 -411.9,363.7 -411.9,363.7 -412,363.8 -412.1,363.8   -412.1,363.9 -412.2,364 -412.2,363.9 -412.3,364 -412.6,364.1 -413,364.3 -412.9,364.6 -413.3,364.6 -413.3,364.6 -413.4,364.5   -413.6,364.5 -413.6,364.5 -413.8,364.4 -413.8,364.4 -413.9,364.5 -413.9,364.6 -413.9,364.7 -414,364.7 -414,364.7 -414.2,364.8   -414.1,365 -414.1,365.2 -414.1,365.2 -414.3,365.3 -414.4,365.5 -414.5,365.7 -414.6,365.8 -414.7,365.8 -414.8,365.8   -414.9,365.8 -415,365.9 -415.1,365.9 -415.2,366 -415.9,365.9 -416,366 -416.2,365.8 -416.3,365.8 -416.3,365.7 -416.5,365.8   -416.7,365.9 -416.8,366 -416.9,365.9 -417,365.8 -417.1,365.7 -417.1,365.7 -417.2,365.7 -417.2,365.8 -417.2,365.8 -417.2,365.8   -417.3,365.8 -417.4,365.8 -417.5,365.8 -417.5,365.8 -417.7,366 -417.8,366.1 -417.8,366.1 -417.8,366.1 -417.8,366.2   -417.8,366.2 -417.9,366 -417.9,366 -418,366 -418,366.1 -418,366.1 -418,366.1 -418,366.2 -418.1,366.2 -418.2,366.2 -418.2,366.2   -418.4,366.4 -418.5,366.4 -418.6,366.3 -418.7,366.5 -418.8,366.5 -419.5,366.5 -419.6,366.5 -419.8,366.5 -419.9,366.5   -420,366.6 -420.2,366.6 -420.2,366.7 -420.3,366.7 -420.6,366.7 -420.7,366.8 -420.9,366.6 -421.2,366.7 -421.4,366.8   -421.6,366.8 -421.7,366.8 -421.7,366.8 -421.7,366.8 -421.8,366.8 -422.4,366.8 -422.4,366.7 -422.7,366.9 -422.8,366.9   -422.9,366.9 -423.1,366.8 -423.2,366.8 -423.3,366.7 -423.4,366.8 -423.5,366.8 -423.5,366.7 -423.6,366.7 -423.7,366.7   -423.9,366.7 -424.2,366.7 -424.3,366.8 -424.3,366.9 -424.3,366.9 -424.5,366.8 -424.6,366.8 -424.7,366.8 -424.9,366.8   -425.2,366.9 -425.5,367 -425.6,367.1 -425.8,367.2 -425.8,367.3 -425.8,367.3 -425.9,367.4 -426,367.4 -426.1,367.5 -426.2,367.5   -426.2,367.5 -426.2,367.6 -426.3,367.7 -426.3,367.7 -426.4,367.7 -426.5,367.7 -426.6,367.9 -426.6,368 -426.5,368.1   -426.4,368.1 -426.3,368.1 -426.3,368.3 -426.3,368.4 -426.2,368.4 -425.3,368.8 -425.2,369 -425.1,369 -424.9,369.2 -424.7,369.4   -425,369.6 -425.1,369.7 -425.2,369.8 -425.5,370.4 -426.3,371.3 -426.4,371.4 -426.5,371.6 -426.6,371.7 -426.8,372 -427.1,372.5   -427.3,372.6 -427.4,372.7 -427.9,372.8 -428.2,373 -428.5,373.2 -428.6,373.5 -428.6,373.9 -428.8,374.2 -429.4,374.4   -432.8,374.4 -433.5,374.6 -434.1,374.8 -434.4,374.9 -434.7,374.9 -435.8,374.7 -435.9,374.7 -436.1,374.7 -436.2,374.8   -436.4,375 -436.5,375 -436.7,375.1 -437,375.1 -437.1,375.1 -437.3,375.2 -437.3,375.4 -437.4,375.5 -437.8,375.3 -437.9,375.5   -438,375.6 -439.1,375.9 -439.2,376 -439.3,376.1 -439.3,376.2 -439.4,376.3 -439.4,376.4 -439.5,376.4 -439.5,376.4 -439.7,376.5   -439.9,376.8 -440.1,377 -440.2,377 -440.2,377 -440.3,377 -440.4,376.9 -440.5,376.9 -440.6,377 -440.7,377 -440.7,377.1   -440.7,377.1 -440.9,377.1 -441,377.1 -441.1,377.2 -441.1,377.2 -441.3,377.2 -441.6,377.3 -441.9,377.4 -442,377.4 -442.1,377.5   -442.1,377.7 -442.1,377.7 -442.1,377.8 -442.1,377.8 -442.1,377.9 -442.1,377.9 -442.2,377.9 -442.2,377.9 -442.4,378   -442.4,378.1 -442.6,378.1 -442.7,378 -442.9,377.7 -443.2,377.4 -443.3,377.3 -443.5,377.2 -443.8,377.1 -443.9,377 -443.9,376.9   -443.9,376.8 -443.9,376.7 -443.9,376.6 -443.9,376.5 -444,376.4 -444.1,376.4 -444.1,376.4 -444.2,376.3 -444.3,376.3   -444.4,376.1 -444.4,376 -444.4,375.8 -444.4,375.7 -444.4,375.6 -444.4,375.6 -444.7,375.7 -444.8,375.7 -445,375.8 -445,375.9   -445.2,376.1 -445.2,376.1 -445.3,376.2 -445.4,376.1 -445.5,376.1 -445.6,376.1 -445.7,376.2 -445.7,376.4 -445.7,376.9   -445.7,377 -445.8,377 -446.5,377.1 -446.7,377.2 -446.9,377.4 -447.1,377.5 -447.2,377.5 -447.4,377.5 -447.7,377.6 -448.2,377.7   -448.3,377.7 -448.5,377.8 -448.6,377.9 -448.7,378.2 -448.9,378.3 -449.1,378.4 -449.2,378.5 -450.2,378.7 -450.5,378.7   -450.8,378.6 -451.2,378.3 -451.5,378.2 -452.1,378.3 -452.4,378.3 -452.6,378.2 -452.7,378.3 -453.1,378.9 -453.2,379 -453,379.1   -453,379.2 -453,379.2 -453.2,379.3 -453.2,379.3 -453.3,379.3 -453.4,379.4 -453.4,379.5 -453.7,379.8 -454.3,380.1 -454.6,380.3   -454.8,380.7 -454.9,380.9 -454.9,381 -454.9,381 -454.9,381.5 -454.9,381.6 -455,381.6 -455.1,381.7 -455.2,381.8 -455.3,381.9   -455.3,382 -455.5,382.5 -455.7,383.2 -455.9,383.5 -456,383.8 -456.1,384 -456.2,384 -456.6,384.3 -456.7,384.3 -456.8,384.5   -457.8,386.6 -458,386.9 -458,387 -458,387.2 -458,387.2 -458,387.3 -458.1,387.4 -458.3,387.8 -458.5,387.9 -459.6,388.4   -459.9,388.4 -459.9,388.6 -460.1,388.7 -460.3,388.9 -460.4,389 -460.6,389.1 -460.7,389.2 -460.7,389.2 -460.7,389.3   -460.7,389.4 -460.7,389.4 -460.7,389.5 -460.8,389.5 -460.8,389.5 -460.9,389.5 -460.9,389.5 -461,389.5 -461,389.6 -461,389.7   -460.9,389.7 -460.8,389.8 -460.8,389.9 -460.6,390 -460.5,390.1 -460.5,390.2 -460.4,390.4 -460.4,390.5 -460.3,390.6   -460.1,390.6 -459.9,390.6 -459.8,390.6 -459.6,390.5 -459.5,390.5 -459.4,390.6 -459.3,390.8 -459.2,390.9 -459.2,391.7   -459.1,391.9 -459.2,392 -459.3,392.4 -459.4,392.8 -459.4,392.9 -459.4,393 -459.4,393.1 -459.3,393.3 -459.2,393.4 -459.2,393.5   -459.2,393.8 -459.2,393.8 -459.4,394.1 -459.4,394.2 -459.4,394.4 -459.4,394.5 -459.5,394.5 -459.5,394.6 -459.6,394.7   -459.6,394.8 -459.7,394.9 -459.7,395 -459.7,395.1 -459.8,395.2 -459.9,395.3 -460,395.3 -459.9,395.4 -459.8,395.5 -459.6,395.6   -459.3,395.7 -459.2,395.8 -459,395.9 -459,396.1 -458.9,396.3 -458.9,396.5 -458.9,396.8 -458.8,397.1 -458.9,397.4 -458.9,397.6   -458.9,397.6 -458.8,397.7 -458.8,397.8 -458.8,398 -458.8,398.1 -458.7,398.1 -458.7,398.2 -458.6,399 -458.6,399 -458.6,399.2   -458.6,399.3 -458.6,399.4 -458.6,399.5 -458.5,400.1 -458.4,400.4 -458.2,400.7 -458,401 -456.7,401.8 -456.4,402 -456.3,402   -456.3,402.1 -456.2,402.3 -456.2,402.4 -455.9,402.7 -455.8,402.9 -455.7,403.1 -455.6,403.6 -455.6,404 -455.5,404.2   -455.4,404.3 -455.3,404.3 -455.2,404.3 -455.1,404.4 -455.1,404.5 -455.1,404.6 -455,404.6 -454.9,404.6 -454.8,404.7   -454.8,404.7 -454.9,404.8 -455.1,404.8 -455.4,405 -455.5,405 -455.7,405 -455.9,404.9 -456,404.9 -455.6,406 -454.9,407   -454.3,407.6 -453.7,408.2 -453.1,408.9 -452.3,409.8 -451.5,410.6 -450.8,411.3 -450.2,411.9 -450.2,412 -450.1,412 -450,412   -450,412 -449.9,411.9 -449.9,411.9 -449.8,411.9 -449.7,412 -449.7,412 -449.4,412 -449.3,412 -449.1,412.1 -449,412.3   -448.9,412.4 -448.8,412.8 -448.8,412.9 -448.8,412.9 -448.7,412.9 -448.6,412.9 -448.6,412.9 -448.5,412.9 -448.4,412.9   -448.3,413 -448.2,413.2 -448.1,413.5 -448,413.6 -447.9,413.8 -447.9,414 -447.9,414.2 -448.2,414.4 -448.2,414.6 -448.1,414.8   -448.1,414.9 -448.1,415 -448,415 -447.9,415 -447.8,415 -447.7,415 -447.8,415.1 -447.9,415.2 -447.9,415.3 -447.9,415.5   -447.7,415.8 -447.7,415.9 -447.8,416.1 -447.9,416.3 -447.9,416.5 -447.9,416.6 -447.8,416.8 -447.7,416.9 -447.7,417.2   -447.7,417.3 -447.7,417.4 -447.6,417.6 -447.4,417.8 -447.4,417.8 -447.3,417.9 -447.3,418 -447.3,418.1 -447.3,418.2   -447.2,418.2 -447.2,418.3 -447.2,418.3 -447.2,418.4 -447.2,418.5 -447.1,418.6 -446.7,417.7 -446.3,417 -446.1,416.5   -445.8,415.8 -445.4,415.1 -445.1,414.5 -444.9,414 -444.9,413.8 -445,413.7 -445.1,413.6 -445.2,413.4 -445.2,413.1 -444.9,412.5   -444.9,412.3 -444.9,412.1 -445,411.9 -445,411.8 -445,411.6 -444.9,411.4 -444.7,411 -444.6,410.9 -444.6,410.7 -444.4,410.2   -444.4,409.6 -444.2,409.2 -444,409 -443.7,408.8 -443.3,408.6 -443.2,408.6 -443,408.6 -442.4,408.8 -442.2,408.8 -442.1,408.7   -442,408.6 -442.1,408.6 -442.1,408.5 -441.9,408.5 -441.9,408.5 -441.7,408.6 -441.7,408.6 -441.5,408.6 -441.4,408.5   -441.3,408.6 -441.2,408.6 -441.2,408.7 -441.1,408.6 -441,408.6 -440.9,408.6 -440.9,408.6 -440.8,408.6 -440.7,408.5   -440.7,408.5 -440.5,408.5 -440.5,408.4 -440.3,408.5 -440.2,408.4 -440,408.4 -439.9,408.3 -439.5,408.3 -439.4,408.3   -439.3,408.3 -439.2,408.2 -439.2,408.1 -439.1,408 -439,408 -438.9,408 -438.7,408.1 -438.4,408.1 -438.2,407.9 -438.1,407.7   -437.7,407.5 -437.6,407.4 -437.5,407.4 -437.3,407.4 -437.3,407.5 -437.2,407.6 -437.2,407.6 -437.1,407.6 -437,407.6   -436.8,407.9 -436.5,408 -436.2,408 -435.5,408 -435.5,408 -435.4,408 -435.3,408 -435.3,408 -435.2,408.1 -435.2,408.1   -435.1,408.1 -435,408.1 -434.9,408.1 -434.8,408.2 -434.7,408.3 -434.6,408.4 -434.6,408.5 -434.5,408.7 -434.4,408.7   -434.2,408.6 -434,408.5 -433.9,408.5 -433.9,408.5 -433.6,408.6 -433.5,408.7 -433.4,408.7 -433.2,408.6 -432.9,408.5   -432.6,408.5 -432.4,408.6 -432.2,408.7 -432.1,409 -432,409.1 -431.9,409.1 -431.7,409.1 -431.6,408.9 -431.5,408.8 -431.5,408.7   -431.4,408.5 -431.4,408.4 -431.3,408.4 -431.2,408.4 -431.2,408.4 -430.5,408.4 -430.5,408.4 -430.4,408.4 -430.4,408.4   -430.3,408.4 -430.3,408.3 -430.3,408.2 -430.2,408.2 -430,408.2 -430,408.2 -429.8,408.1 -429.7,408 -429.6,408 -429.5,408.1   -429.3,408.3 -429,408.8 -428.9,409.1 -428.8,409.2 -428.5,409.2 -428.7,407.4 -428.6,406.4 -428.6,406.1 -428.6,405.9   -428.4,405.7 -428.4,405.5 -428.3,405.3 -428.3,404.8 -428.4,404.2 -428.5,403.9 -428.8,403.4 -428.8,403.2 -428.9,403.2   -429.1,403 -429.2,402.8 -429.1,402.7 -429,402.5 -428.9,402.3 -428.7,402.3 -428.6,402.4 -428.4,402.5 -428.3,402.5 -428.1,402.4   -427.7,402.3 -427.5,402.1 -427.3,401.9 -426.9,400.9 -426.7,400.6 -426.5,400.4 -426.4,400.2 -426.4,400.2 -426.3,400.2   -426.2,400.1 -426.2,400.1 -425.9,399.7 -425.8,399.5 -425.6,399.5 -425.5,399.3 -425.5,399.1 -425.4,399 -425.4,398.9   -425.3,398.9 -425.3,398.8 -425.2,398.6 -425.1,398.4 -425,398.3 -424.7,398 -424.6,398 -424.3,398 -424.1,397.9 -424,397.7   -423.9,397.5 -423.8,397.5 -423.5,397.3 -422.8,396.9 -422.6,396.7 -422.5,396.6 -422.3,396.5 -421.8,396.5 -421.7,396.5   -421.4,396.4 -421.3,396.4 -421,396.5 -420.1,396.5 -420.1,396.5 -419.9,396.6 -419.7,396.6 -419.3,396.8 -419.2,396.9 -419.1,397   -418.9,397.3 -418.9,397.4 -418.8,397.5 -418.6,397.6 -417.9,397.7 -417.7,397.8 -417.6,398 -417.3,398.2 -416.8,398.4   -416.7,398.5 -416.3,398.9 -416.2,399 -416,399.1 -415.7,399.2 -415.5,399.2 -415.4,399.3 -415.3,399.4 -415.1,399.6 -415,400   -414.9,400.1 -414.8,400.1 -414.6,400.2 -414.5,400.4 -414.4,400.6 -414.5,400.7 -414.6,400.8 -414.6,401 -414.5,401.1   -413.7,401.9 -413.5,402 -413.4,402 -412.7,401.9 -412.1,401.9 -411.9,401.9 -411.8,401.9 -411.7,401.8 -411.6,401.7 -411.3,401.7   -410.6,401.9 -409.9,402.1 -409.8,402.2 -409.7,402.2 -409.5,402.5 -409.5,402.6 -409.3,402.6 -409.2,402.7 -409.1,402.8   -409.1,402.8 -408.9,402.8 -408.8,402.9 -408.8,402.9 -408.7,402.9 -408.6,402.9 -408.5,402.9 -408.5,402.8 -408.4,402.8   -408.4,402.7 -408.3,402.7 -408.3,402.6 -408.2,402.6 -408.1,402.6 -408,402.6 -408,402.7 -407.9,402.8 -407.6,403 -407.5,403.1   -407.3,403.1 -407.1,403.1 -406.8,403.1 -406.7,403.1 -406.6,403.2 -406.6,403.2 -406.5,403.3 -406.4,403.3 -406.3,403.3   -406.2,403.3 -405.5,402.9 -405.3,402.9 -405.1,402.9 -404.8,402.9 -404.7,402.9 -404.5,403 -404.5,403 -404.5,403 -404.4,403   -404.3,403.1 -404.1,403 -404,403.1 -403.9,403.1 -403.8,403.2 -403.6,403.3 -403.5,403.3 -403,403.4 -402.9,403.3 -402.8,403.3   -402.8,403.3 -402.7,403.3 -402.6,403.3 -402.6,403.3 -402.2,403.5 -401.8,403.5 -401.7,403.6 -401.6,403.6 -401.5,403.8   -401.4,403.8 -401.2,403.9 -401.1,404 -400.3,404.2 -399.4,404.1 -399.4,404.1 -399.2,404 -398.9,403.8 -398.8,403.7 -398.7,403.6   -398.7,403.5 -398.5,403.4 -398.5,403.3 -398.5,403.3 -398.5,403.1 -398.5,403 -398.3,402.6 -398.3,402.6 -398.2,402.5   -398.1,402.5 -398,402.4 -398,402.3 -398,402.3 -398.1,402.1 -398.2,401.9 -398.2,401.7 -398.1,401.6 -398,401.5 -397.7,401.5   -397.5,401.5 -397.4,401.4 -397.3,401.3 -397.3,401.3 -397.3,401.1 -397.3,401 -397.2,401 -397.2,400.9 -397.2,400.9 -397.1,400.7   -397.1,400.7 -397.1,400.6 -397.1,400.5 -397.1,400.4 -397,400.3 -396.9,400.2 -396.9,400.1 -396.8,400 -396.7,399.8 -396.6,399.7   -396.5,399.6 -396.4,399.7 -396.2,399.7 -396.1,399.8 -396,399.5 -395.9,399.4 -395.8,399.3 -395.9,399.2 -395.9,399.2   -395.9,399.1 -395.9,399 -395.8,398.9 -395.7,398.9 -395.7,398.9 -395.5,398.9 -395.5,398.9 -395.4,398.8 -395.3,398.8   -395.2,398.8 -395.1,398.9 -395,399.1 -395,399.2 -394.9,399.3 -394.9,399.4 -394.8,399.5 -394.7,399.5 -394.6,399.5 -394.5,399.6   -394.4,399.7 -394.3,399.7 -394.1,399.7 -393.7,399.5 -393.6,399.6 -393.4,399.9 -393.3,400 -393.3,400 -393.1,400.1 -393,400.3   -392.9,400.3 -392.7,400.4 -392.7,400.4 -392.7,400.4 -392.6,400.5 -392.6,400.5 -392.4,400.5 -392.3,400.6 -392.2,400.6   -392,400.7 -392,400.7 -391.8,400.7 -391.8,400.6 -391.7,400.6 -391.7,400.5 -391.7,400.5 -391.7,400.4 -391.7,400.2 -391.6,400.1   -391.5,400.1 -391.3,400 -391.1,400 -390.7,399.6 -390.5,399.6 -390.2,399.5 -389.9,399.3 -389.7,399.3 -389.4,399.3 -389.2,399.2   -388.9,399 -388.8,398.9 -388.7,399 -388.6,399 -388.5,399 -388.4,399 -388.3,398.9 -388.3,398.9 -388,399 -387.8,399 -387.8,398.9   -387.8,398.8 -387.8,398.7 -387.8,398.6 -387.8,398.6 -387.7,398.6 -387.7,398.6 -387.6,398.7 -387.4,398.6 -387,398.4   -386.8,398.3 -386.7,398.2 -386.6,398.2 -386.5,398.2 -386.3,398.3 -386.2,398.3 -386.1,398.3 -385.9,398 -385.8,397.9   -385.6,397.9 -385.5,397.9 -385.4,398.1 -385.4,398.1 -385.3,398.1 -385.3,398 -385.3,397.9 -385.3,397.8 -385.2,397.6   -385.2,397.6 -385.1,397.5 -384.6,397.5 -384.4,397.4 -384.3,397.3 -384.3,397.2 -384.5,397.2 -384.6,397.1 -384.6,396.9   -384.4,396.7 -384.3,396.6 -384.3,396.7 -384.2,396.9 -384.2,397 -384.1,397 -384.1,397 -384.1,396.9 -384,396.8 -383.8,396.7   -383.6,396.8 -383.4,396.9 -383.3,397 -383.2,397 -383.2,397.2 -383.1,397.2 -383,397.3 -382.9,397.3 -382.8,397.4 -382.7,397.4   -382.7,397.6 -382.7,397.7 -382.6,397.7 -382.3,397.8 -382.2,397.9 -382.3,398 -382.4,398.1 -382.3,398.1 -381.8,398.2   -381.6,398.2 -381.5,398.1 -381.4,398.2 -381.3,398.2 -381.2,398.1 -381.2,398 -381.1,398 -381,398 -381,398 -380.9,398 -380.7,398   -380.4,397.8 -380.3,397.8 -380.2,397.8 -380.1,397.7 -380,397.6 -379.9,397.6 -379.6,397.7 -379.4,397.8 -379.1,397.9   -379.1,397.9 -379,397.7 -378.9,397.6 -378.9,397.6 -378.8,397.5 -378.8,397.5 -378.7,397.4 -378.6,397.4 -378.6,397.4   -378.5,397.5 -378.5,397.5 -377.9,397.5 -377.9,397.4 -377.8,397.4 -377.5,397.3 -377.3,397.3 -377.3,397.2 -377.2,397.2   -377.2,397 -377.2,396.9 -377.1,396.7 -377.1,396.7 -377.1,396.6 -377,396.5 -377,396.4 -377.1,396.4 -377.2,396.3 -377.3,396.3   -377.3,396.1 -377.3,396 -377.2,395.9 -377.1,395.8 -377.1,395.6 -377,395.5 -377,395.4 -376.8,395.3 -376.9,395.2 -376.8,395.1   -376.7,395.1 -376.7,395 -376.5,395.1 -376.3,395 -376,394.8 -376,394.8 -376,394.8 -375.9,394.9 -375.8,394.9 -375.6,394.9   -375.5,394.8 -375.6,394.7 -375.5,394.7 -375.4,394.7 -375.3,394.7 -375.3,394.7 -375.2,394.8 -375.2,394.9 -375.1,394.9   -374.9,394.9 -375,395 -375,395 -375,395 -375,395 -375,395.1 -374.9,395.2 -374.9,395.2 -374.8,395.1 -374.7,395.1 -374.7,395.1   -374.6,395.2 -374.6,395.2 -374.6,395.2 -374.4,395.2 -374.3,395.3 -374.1,395.6 -374,395.6 -373.9,395.7 -373.8,395.7   -373.7,395.6 -373.8,395.5 -373.8,395.5 -373.7,395.5 -373.6,395.7 -373.6,395.7 -373.5,395.7 -373.5,395.7 -373.5,395.8   -373.5,395.8 -373.5,395.9 -373.4,396 -373.3,396 -373.2,395.9 -373.2,395.9 -373,395.9 -372.9,396 -372.9,396.1 -372.7,396.2   -372.7,396.1 -372.6,396 -372.5,395.9 -372.4,396 -372.4,395.9 -372.4,395.8 -372.3,395.8 -372.2,395.8 -372.1,395.8 -372,396   -371.9,396 -371.8,396 -371.7,396 -371.6,396 -371.5,396 -371.5,395.9 -371.5,395.8 -371.4,395.9 -371.3,395.9 -371.3,395.8   -371.4,395.6 -371.3,395.7 -371.3,395.7 -371.3,395.7 -371.2,395.7 -371.1,395.7 -371.1,395.6 -371.1,395.5 -371,395.6   -370.9,395.7 -370.9,395.7 -370.8,395.7 -370.7,395.7 -370.7,395.7 -370.7,395.8 -370.6,395.7 -370.5,395.7 -370.5,395.9   -370.4,396 -370.3,396 -370.3,396 -370.3,396.1 -370.3,396.1 -370.2,396.1 -370.2,396.1 -370.1,396.2 -370,396.3 -369.8,396.4   -369.6,396.4 -369.5,396.4 -369.4,396.4 -369.3,396.5 -369.2,396.5 -369.1,396.4 -369,396.5 -368.9,396.6 -368.8,396.7   -368.7,396.7 -368.5,397 -368.5,397.1 -368.4,397.1 -368.2,397.2 -368.1,397.2 -368,397.2 -367.9,397.1 -367.8,397.1 -367.8,397   -367.7,397.1 -367.6,397 -367.5,396.9 -367.4,396.9 -367.3,397 -367.2,397 -367.2,397 -367.1,397 -367,397 -366.9,397 -366.8,396.9   -366.8,396.8 -366.4,396.8 -366.3,396.8 -366.2,396.9 -365.9,397.2 -365.9,397.3 -365.8,397.3 -365.7,397.2 -365.7,397.2   -365.6,397.2 -365.6,397.2 -365.6,397.2 -365.6,397.3 -365.4,397.3 -365.4,397.2 -365.3,397.2 -365.3,397.1 -365.2,396.9   -365.1,396.8 -364.9,396.6 -364.7,396.4 -364.5,396.2 -364.2,396.1 -363.8,396 -363.5,396 -363.2,396.1 -362.6,396.4 -362.4,396.5   -362.2,396.5 -362.1,396.5 -362,396.6 -361.9,396.7 -361.8,396.8 -361.7,396.8 -361.6,396.8 -361.5,396.8 -361.4,396.8   -361.3,396.9 -361.2,396.9 -361,397 "/></svg>