<svg xmlns="http://www.w3.org/2000/svg" xmlns:xlink="http://www.w3.org/1999/xlink" version="1.1" x="0px" y="0px" viewBox="-461 335 100 100" fill="#e0e0e0" style="enable-background:new -461 335 100 100;" xml:space="preserve"><path d="M-379.2,375.5c0-2.5,0-5,0-7.6c0-2.5,0-5,0-7.4c-0.3-0.2-0.6-0.3-0.9-0.5c-2.3-1.2-4.5-2.4-6.8-3.6  c-2.3-1.2-4.5-2.4-6.8-3.6c-2.3-1.2-4.5-2.4-6.8-3.6c-2.3-1.2-4.5-2.4-6.8-3.6c-2.3-1.2-4.5-2.4-6.8-3.6c-2.3-1.2-4.5-2.4-6.8-3.6  c-2.2-1.2-4.4-2.3-6.6-3.5l-0.1,0c-2,1-3.9,2-5.9,2.9h0l0,0l0,0v0c0.4,2.2,0.8,4.3,1.2,6.5c0,1,0,2.1,0.1,3.1l0,0.1l0.1,0.1l0.3,0.1  l0.1,0.1l0.2,0.3c0.5,0.8,1,1.6,1.6,2.4l0.1,0.2c0.1,0.1,0.1,0.2,0.2,0.3l-0.2,0.1l-0.1,0.2l-0.1,0.3l0,0.3l0.1,0.2l0.1,0.1l0.1,0.1  l0.5,0.4c0.6,0.6,1.1,1.3,1.7,1.9l0.1,0.1l0,0.1l0,0.1c-0.4,0.7-0.8,1.4-1.2,2.2l-0.2,0.5c-0.1,1.5-0.3,3-0.4,4.5  c-0.2,2.4-0.4,4.8-0.6,7.2c-0.2,2.4-0.4,4.8-0.6,7.1l0,0.1l-0.1,0.1c-0.4,0.5-0.9,1-1.3,1.4c-1.7,1.9-3.5,3.7-5.2,5.6  c-1.1,1.5-2.2,3-3.2,4.5c-0.1,0.3-0.3,0.6-0.4,1l0,0.1l0,0.1l0,0.1l0.1,0.3l0,0.1l-0.1,0.1l-0.1,0l-0.1,0l-0.1,0l-0.1,0l-0.2,0.2  l-0.1,0.1l0,0l0,0l0.1,0.1l0,0l0,0.2l0,0.1l0,0.1l-0.2,0.2l-0.2,0l-0.2,0l-0.2,0.1l-0.2,0.1l-0.2,0.3l0,0.4c0.1,0.2,0.1,0.5,0.2,0.7  l0.1,0.3l0,0.2c0.2,1,0.4,2,0.7,3l2.8,3.9l2.1,0l0.1,0.1l0.3,0.4l0.1,0.1l0.1,0.1l0,0.1l0,0.1l-0.1,0.3l0,0.1l0.1,0.1l0.2,0.1  l0.1,0.1v0.2l0,0.1l0,0l0,0l0.1,0v0.1l0,0.1l0,0l0.1,0l0.1-0.1l0,0l0,0l0,0l0,0l0,0l0.1,0.1l0,0l0.1,0.1l0.2,0l0.1,0l0,0.1l-0.1,0.2  l0.1,0.1l0.1-0.2l0,0l0.1,0l0.1,0l0,0.1l0,0.1l0,0.1l0.1,0l0.2,0l0.1,0.1l0.2,0.8l0,0l0,0.1l0,0l0,0.1l0,0l0,0l0,0l0,0l0,0l0,0l0,0  l0,0l0,0.1l0,0l0.1,0.2l0.1,0.5l0,0.1l0,0.4l0,0.1l0,0.1v0.1l0,0l0,0l0,0l0,0.1l0,0l0,0l0,0l0,0.1l0,0l0.2,0.1l0.1,0.2l0.1,0.1  l0.1,0l0.1-0.1l0.1,0l0.1,0l0.1,0.1l0,0l0,0.1l0,0.1l0,0.1l0,0l0,0l0,0l0,0.1l0.1,0.1l0.1,0.1l0,0.1l-0.2,0l0,0l0,0.1l0,0.1l0,0  l0,0.1l0,0.1l-0.1,0.1l0,0l0,0.2l0,0.1l0.1,0l0.1,0l0,0.1l0.1,0.4l0,0.1l-0.1,0.1l0,0.1l0,0l0.1,0.1l0,0l0,0l0,0l0,0l0,0l0,0.1  l0,0.1l0,0.1l0.1,0.3l0.1,0.1l0.2,0.2l0.1,0.2l-0.1,0.2l-0.3,0.3l-0.1,0.1l0,0.1l0,0.3l0,0.1v0.1l0,0l0,0l0,0l0,0.1l0,0.1l-0.1,0.2  l0,0.1l0,0.4l0.1,1.1l0.2,0.4l0.1,0.1l0,0.1l0,0.2l-0.1,0.3l0,0.2l0.5,0.9l0,0.1l0,0.1l-0.1,0.1l0,0.1l0,0.2l0,0.1l0,0l0.1,0l0.1,0  l0.1,0l0.1,0l0,0l0,0l0.1,0.1l0.1,0.1l0.1,0.2l0.1,0.1l0.1,0.1l0.1,0.1l0,0.1l0,0.2l0,0.1l0.1,0.1l0.8,0.8l0.2,0.3l0.1,0.1l0,0  l0.3,0.2l0.4,0.2l0.2,0.1l0.3,0.2l-0.1,0l-1.4,0.3l-0.3,0l-1-0.3l-0.4,0l-0.3,0l-0.1,0l-0.1,0l-0.1,0.1l-0.1,0l-0.2,0l-0.2,0  l-0.4-0.1l-0.3,0l-0.8,0.2l-0.2,0l-1.8-0.4l-1.6,0.1l0,0l0,0l0,0.1l0,0.1l-0.3,0.6l-0.2,0.3l-0.5,0.4l-0.4,0.5l0,0.1l0.5,0.4l1.7,2  l0.1,0.3l0.1,0.2l2.7,2.2l0.1,0l0.1,0l0.1,0h0.1l0.1,0l0.1,0l0.2,0.2l0.1,0.1l0,0.1l0,0l0,0l0,0l0,0.1l0.1,0.2l0,0.1v0.1l0,0l0.1,0  l0.2,0l0.2,0l0.1,0.1l0.1,0.1l0.3,0.4l0.3,0.3l0.1,0.1l1,2.1l0.4,1.3l0.2,0.5l0.3,0.2l0.1,0c0.1,0,0.2,0,0.3,0.1l0,0.6l-0.1,0.4  l-0.2,0.3l-0.2,0.3l0.2,0.1l0.2,0l0.4-0.1l0.3,0l0.3,0.3l0.2,0.1l0.2,0l0.8-0.2l0.1,0l0.2-0.1l0.1-0.1l0.1-0.2l0.1-0.1l0.1-0.1  l0.1,0l0.4,0l0.2-0.1l0.1,0l0.1,0l0.1-0.1l0.2-0.2l0.1-0.1l0.5-0.1l0.1,0l0-0.1v-0.4l0-0.1l0.1-0.1l0.1,0l0.1,0l0.1,0l0.1,0l0,0  l0.1-0.2l0-0.1l0.1-0.1l0.1-0.1l0.2-0.1l0,0.1l0,0.1l0,0.1l0,0.2l0,0.1l0.1,0.1l0.1,0.1l0.1,0l0.1,0l0.1,0l0,0.1l0,0.1l0,0.1l0,0.1  l0,0.1l0,0.1l0.1,0.1l0.2,0.1l0.1,0.1l0.1,0.1l0.2,0.2l0.1,0.2l0.1,0.1l0.1,0l0,0l0.1-0.1c0,0,0.1,0,0.1,0l0,0l0,0l0,0l0,0l0,0  l0-0.1l0.1-0.1l0.1-0.1l0.2-0.1l0.3,0l0.1,0l0-0.1l0.1,0l0.1,0l0.2,0l0,0l0-0.1l0-0.1l0.1-0.1l0.1,0l0.1,0l0,0l0,0l0.1-0.1l0.1-0.1  l0.2-0.3l0.1-0.1l0,0l0,0l0,0l0-0.1l0-0.1l0.1-0.1l0.1-0.1l0.8-0.3l0.1-0.1l0.1-0.1l0.3,0.1l0.1,0l0.1-0.1l0.1-0.1l0.1,0l0.2,0  l0.1,0l0.1-0.1l0.1-0.2l0.1,0l0.1,0l0.1,0l0.8,0.1l0.3,0l0.2,0l0.5-0.2l0.6-0.1l2.6-0.1l0.5-0.1l0.2-0.3l0-0.3l0.1-0.2l0.2-0.2  l0.3-0.1l0.4-0.1l0.1-0.1l0.1-0.1l0.3-0.4l0.2-0.2l0.1-0.1l0.1-0.1l0.1-0.1l0.6-0.7l0.2-0.5l0.1-0.1l0.1-0.1l0.2-0.1l-0.1-0.1  l-0.2-0.1l-0.1-0.1l-0.1-0.1l-0.7-0.3l-0.1-0.1l0-0.1l0-0.1l0-0.1l-0.1,0.1l-0.1-0.1v-0.1l0.1-0.2l0.1,0l0.1,0l0,0l0-0.1l0-0.1l0,0  l0,0l0.1-0.1l0.1,0l0,0l0,0l0,0l0.1-0.1l0.1-0.1l0.2-0.1l0.2-0.1l0.2,0h0l0.1,0l0.2,0l0,0l0-0.1l0.1,0l0.2,0l0.1,0l0.1,0l0.1,0  l0.1,0.1l0.1,0l0.1-0.1l0.1,0l0.1,0l0.1,0l0.1,0l0.1,0l0.2-0.1l0.1,0l0.5,0l0,0l0,0l0,0l0.1,0l0.1,0l0.2-0.1l0.2,0l0.2,0.1l0.1,0  l0.3,0l0.1,0l0,0l0.1-0.1l0.1,0l0.1,0l0.2,0l0.1,0l0.5,0l0.1,0l0.1-0.1l0.1,0l0.1,0l0.2-0.1l0,0l0.1,0l0,0l0-0.1l0,0l0,0l0,0l0,0  l0,0l0,0.1l0,0l0,0l0,0l0,0l0,0l0.2-0.1l0,0l0,0l0.1,0l0.1,0l0,0l0,0l0,0l0.1,0l0,0l0.1,0.1l0.1,0.1l0.1,0l0.1,0l0.2-0.1l0.1,0  l0.1,0l0.1,0l0.1,0.1l0.1,0l0.5,0l0.1,0l0,0l0.1-0.1l0.1,0l0.1,0l0.1,0l0.1-0.1l0.1-0.2l0.1-0.1l0.2-0.1l0-0.1l-0.1-0.1l0-0.1  l0.1-0.1l0.1,0l0,0l0-0.1l0-0.1l0-0.1l0.1,0l0.1,0.1l0,0l0.1,0l0,0l0.1,0l0,0h0.3l-0.1-0.3l0.2-0.1l0.3-0.1l0.1,0l0,0l0.1-0.1l0-0.1  l0-0.1l0.1,0l0,0l0-0.1l0,0l0,0l0,0l0,0l0,0l0-0.1l0-0.2l0-0.1l0.1-0.1l0.1-0.1l0.2-0.3l0.1-0.1l0-0.1l0.1,0l0.1-0.1l0-0.1l0-0.1  l0,0l0.1,0l0-0.1l0,0l0,0v0l0.1,0l0-0.1l0-0.2l0-0.1l0.1-0.2l0-0.1l0,0l0,0l0,0l0,0l0,0l0,0l0,0l0,0l0,0l0.1,0.1l0,0l0,0l0,0  l0.1-0.1l0,0l0,0l0,0l0,0l0-0.1l0,0l0.1-0.2l0.1-0.1l0.3-0.2l0.1,0l0-0.1l0-0.1l0.3-0.4l0.1-0.1l0.1,0.1l0.2,0.1l0.1,0l0.2-0.1  l0.2-0.2l0.2-0.2l0.3-0.7l0.2-0.2l0.2-0.1l0.1,0l0.1,0l0.1,0l0.1,0l0,0l0.2-0.1l0,0l0.2,0l0.1-0.1l0-0.1l0.1-0.1l0.1,0l0.1,0l0.1,0  l0-0.1l0-0.1l0-0.1l0-0.1l0-0.1l0.2-0.3l0,0l0,0l0,0l0,0l0-0.1l-0.1-0.1l0-0.1l0-0.1l-0.1-0.2l0-0.1l0-0.1l0.1-0.2l0-0.1l0-0.1  l0.1-0.1l0.1,0l0.1,0l0,0l0,0l0,0l0.1,0l0,0l0.1,0l0.1,0l0.1,0.1l0.1,0l0-0.1l0,0l0.1-0.1l0.2-0.1l0.1,0l0.4-0.1l0.1-0.1l-0.1-0.1  l0-0.1l0-0.1l0.1-0.1l0.1,0l0.5,0.1l0.1,0l0.2,0.1l0.1-0.1l0.1-0.2l0.2-0.1l0.1-0.1l0.1-0.1l0.1,0l0,0l0.1,0l0.1-0.1l0.1,0l0.1-0.1  l0.1,0l0.2,0l0.1,0l0.1,0l0.1-0.1l0.1,0l0.1,0l0.1,0l0.1,0l0.1,0l0.1-0.1l0.1,0.1l0.1,0l0.1,0l0.1,0l0.1,0l0.1,0.1l0.1,0l0.2,0  l0.1,0l0.2,0.1l0.2,0.1l0.4,0.1l0.3,0l0.2-0.9l0-0.1l0.1-0.1l0-0.1l0-0.1l0-0.1l0-0.1l0.1-0.2l0-0.1l0-0.3l-0.2-0.5l-0.1-0.4  l-0.1-0.1l-0.1,0l-0.6,0.1l-0.1,0l0-0.2l0-0.1l-0.2-0.1l-0.5-0.2l-0.2-0.1l-0.2-0.2l-0.2-0.3l-0.1-0.3l0-0.3l0.3-1.9l0.1-0.3l0-0.1  l0-0.1l0,0l-0.1,0.1l-0.1,0l-0.2,0l-0.4,0.1l-0.1,0.1l0,0l0,0l0.2-0.7l0-0.1l0-0.1l0-0.1l-0.4-1.4l-0.2-0.3l0-0.1l0.1-0.2l0.3-0.7  l-0.1-0.1l-0.6-0.2l-0.8-0.5l-0.2,0.3l-0.2,0.2l-0.2,0.1l-0.3,0.1l-0.2,0l-0.3,0l-0.3,0l-0.2-0.1l-0.1-0.1l-0.2-0.4l-0.2-0.2l0-0.1  l0,0l0.1-0.2l0.2-0.5l0.5-0.9l0.2-0.2l0.2-0.2l0.1-0.1l0.6-0.3l0.1-0.1l0.6-0.6l0.2-0.3l0-0.3l-0.1-0.1l-0.2-0.3l-0.1-0.1l0-0.1  l0-0.4l-0.1-0.2l-0.4-0.4l-0.1-0.2v-0.1l0-0.1l0-0.1l-0.1-0.1l-0.1-0.1l0-0.1l0.1-0.2l0.6-0.7l0.1-0.1l0.2-0.1l1-0.5l0.1-0.1  l0.2-0.2l0.1-0.1l0.2,0l0.1-0.1l0.1-0.1l0-0.2l0-0.2l-0.1-0.1l-0.1-0.1l-0.3-0.1l-0.1-0.1l-0.1-0.1l-0.1-0.1l0-0.1l0,0l0.1-0.1l0,0  l0.1,0l0,0l0,0l0,0l0,0l0,0l-0.1-0.7l0-0.1l-0.2-0.1l-0.1-0.2l0.1-0.2l0.2-0.2l0.3-0.1l1.2-0.3l0.1,0l0-0.1l0-0.1l-0.1-0.2l0-0.1  l0-0.3v-0.2l0-0.1l0.2-0.1l0.1-0.1l0-0.1l0-0.1l0-0.2l0.1-0.1l0.5-0.6l0.1-0.1l0.1-0.1l0.2-0.1l0-0.1l0.3-0.5l0-0.1l0.1-0.7l0-0.2  l-0.1-0.2l-0.1-0.2l-0.1-0.1l-0.1-0.2l0-0.2l0-0.2l0.1-0.1l0.5-0.3l0.4-0.5l0.2-0.1l0.4-0.1l0.9,0.2l0.5,0l0.8-0.3l0.4-0.1h0.7  l0.7,0.1l0.7,0.2l0.2,0l0.1-0.2v-0.4c0-0.2,0-0.4,0-0.6C-379.2,380.7-379.2,378.1-379.2,375.5z"/></svg>