<svg xmlns="http://www.w3.org/2000/svg" xmlns:xlink="http://www.w3.org/1999/xlink" version="1.1" x="0px" y="0px" viewBox="0 0 100 100" fill="#e0e0e0" enable-background="new 0 0 100 100" xml:space="preserve"><g display="none"><polygon display="inline" opacity="0.3" fill-rule="evenodd" clip-rule="evenodd" points="64.511,95.868 65.403,92.919    68.405,81.77 68.443,80.963 68.521,79.154 67.211,76.844 65.208,75.305 64.286,74.111 64.131,71.183 67.711,69.953 68.981,70.797    69.252,69.913 68.636,69.258 69.214,68.603 68.443,67.18 66.402,66.642 65.902,65.369 66.249,63.637 72.294,63.6 72.947,62.869    73.988,62.869 74.564,63.407 75.258,63.291 76.298,62.138 77.761,61.752 78.057,62.57 78.944,63.653 79.155,64.83 79.117,66.299    80.583,66.127 80.486,65.1 79.426,62.397 78.808,61.044 79.099,60.445 78.539,59.382 78.017,59.073 77.786,58.225 77.555,57.972    77.035,58.358 76.456,58.165 76.301,57.394 78.03,54.242 76.875,51.394 76.837,50.779 76.26,49.931 76.222,48.239 76.629,46.903    76.512,46.208 76.205,44.297 76.803,43.562 78.075,43.173 78.422,42.518 78.422,41.571 78.848,40.72 78.519,38.652 77.651,38.21    76.726,38.246 76.456,38.539 74.99,38.403 73.928,38.423 72.926,38.981 72.231,38.595 71.151,38.267 70.727,38.423 70.341,38.094    68.875,38.403 64.843,34.424 63.879,34.018 62.182,33.689 60.64,33.958 60.254,34.287 58.962,33.902 57.591,33.862 56.724,34.308    55.605,33.766 54.659,33.649 53.155,32.994 51.94,31.987 51.882,31.216 52.249,30.598 52.171,29.862 52.711,28.703 52.442,27.699    51.496,26.269 49.385,22.403 48.461,22.363 47.768,22.443 47.885,21.901 48.692,20.169 48.847,18.397 48.5,17.477 48.809,16.396    50.502,13.973 51.35,13.242 52.196,12.009 53.12,11.776 53.621,11.161 55.219,8.691 57.958,7.627 58.209,7.435 58.803,7.448    58.951,7.278 59.566,6.816 59.797,6.201 59.182,5.393 57.257,4.353 56.486,4.313 56.217,4.775 56.14,5.277 55.332,5.393    54.909,5.739 54.023,5.623 53.253,5.932 52.829,6.43 53.291,6.969 52.946,7.471 51.56,8.162 49.711,9.279 48.479,10.164    47.055,10.473 45.477,10.589 43.744,10.396 42.666,10.975 42.742,11.626 43.089,12.474 42.973,13.321 42.165,14.053 41.625,13.824    41.819,12.976 41.703,12.707 42.473,12.438 41.357,12.321 40.01,11.742 39.316,11.782 37.546,12.859 37.122,13.591 35.929,14.978    34.504,17.673 34.312,18.441 34.734,18.251 35.12,18.674 35.274,19.558 34.967,20.522 34.197,20.908 33.195,20.984 32.425,21.406    31.039,22.756 30.462,23.062 29.424,24.601 28.806,24.677 27.921,24.717 28.229,25.718 29.153,26.758 29.153,28.068 28.614,29.221    28.036,29.185 27.073,28.374 27.189,27.991 27.537,27.373 26.728,27.027 26.382,26.027 25.202,24.986 24.976,25.924 25.148,26.618    25.631,27.951 24.86,29.321 24.492,30.617 23.837,31.14 23.317,31.176 22.619,32.788 22.845,32.991 23.076,34.228 23.173,35.448    24.232,36.741 24.638,36.701 25.158,36.432 25.448,36.913 25.584,38.09 24.928,38.825 24.907,39.291 25.544,39.985 25.544,41.471    24.849,41.993 24.426,42.768 24.849,42.94 25.275,43.924 25.14,45.723 25.237,48.212 24.502,49.083 24.369,49.838 25.004,50.725    25.95,50.32 25.815,50.918 26.355,51.689 26.914,51.633 26.972,52.135 26.42,52.823 25.957,54.013 23.955,56.018 23.417,57.135    21.914,58.597 19.917,59.04 18.374,60.196 16.908,62.433 16.677,64.205 16.441,65.186 17.993,65.778 19.749,66.974 22.14,68.54    23.086,68.56 24.339,69.873 24.146,70.664 24.357,71.359 25.998,71.495 27.868,72.402 28.504,72.848 30.221,73.233 30.878,72.635    30.82,71.535 31.599,70.92 31.975,70.93 33.577,71.499 34.415,71.964 34.646,72.658 35.371,73.064 35.49,73.138 35.873,73.107    36.487,73.726 38.413,74.188 39.605,74.457 39.915,75.036 41.185,76.535 41.301,77.535 42.185,79.19 42.88,79.19 45.42,80.039    46.499,81.617 46.458,82.887 46.844,83.004 47.73,83.426 48.192,84.775 47.846,85.314 48.154,86.082 49.155,86.507 50.271,86.238    51.195,86.467 52.503,86.431 53.042,85.969 54.737,85.197 56.2,85.467 57.47,86.082 59.318,85.274 60.282,85.274 60.704,85.892    61.321,85.852 62.515,86.431 63.053,87.162 64.094,86.813 64.17,87.544 60.704,93.398 60.897,94.053 62.09,93.937 63.438,93.82    64.248,94.708  "/></g><g display="none"><path display="inline" d="M35.783,54.179l0.642,0.163c-0.135,0.525-0.377,0.927-0.727,1.204c-0.349,0.279-0.774,0.416-1.281,0.416   c-0.522,0-0.946-0.106-1.275-0.319c-0.326-0.213-0.575-0.522-0.746-0.924c-0.169-0.402-0.256-0.838-0.256-1.3   c0-0.505,0.096-0.944,0.289-1.32c0.192-0.375,0.467-0.662,0.825-0.854c0.354-0.196,0.746-0.292,1.173-0.292   c0.485,0,0.892,0.12,1.223,0.369c0.331,0.246,0.562,0.592,0.691,1.041L35.71,52.51c-0.114-0.352-0.275-0.608-0.491-0.771   c-0.212-0.163-0.48-0.242-0.806-0.242c-0.372,0-0.681,0.089-0.933,0.269c-0.251,0.179-0.427,0.419-0.526,0.718   c-0.102,0.303-0.153,0.612-0.153,0.931c0,0.413,0.06,0.771,0.179,1.081c0.12,0.306,0.306,0.539,0.56,0.691   c0.254,0.15,0.529,0.226,0.824,0.226c0.359,0,0.662-0.103,0.913-0.312C35.525,54.894,35.694,54.588,35.783,54.179L35.783,54.179z    M37.019,53.518c0-0.804,0.217-1.433,0.647-1.888c0.432-0.455,0.99-0.685,1.674-0.685c0.447,0,0.851,0.11,1.209,0.323   c0.359,0.212,0.634,0.512,0.821,0.894c0.189,0.383,0.283,0.814,0.283,1.3c0,0.492-0.098,0.934-0.296,1.32   c-0.2,0.389-0.48,0.681-0.844,0.881c-0.364,0.199-0.754,0.299-1.177,0.299c-0.457,0-0.864-0.11-1.223-0.33   c-0.361-0.223-0.632-0.522-0.816-0.904C37.111,54.349,37.019,53.943,37.019,53.518L37.019,53.518z M37.679,53.528   c0,0.585,0.158,1.044,0.47,1.379c0.316,0.339,0.71,0.505,1.184,0.505c0.483,0,0.88-0.169,1.191-0.509   c0.312-0.338,0.469-0.821,0.469-1.446c0-0.393-0.068-0.738-0.201-1.034c-0.133-0.292-0.329-0.522-0.585-0.685   c-0.256-0.16-0.545-0.242-0.864-0.242c-0.454,0-0.846,0.156-1.172,0.469C37.844,52.278,37.679,52.8,37.679,53.528L37.679,53.528z    M42.453,55.878v-4.847h0.643v4.275h2.386v0.572H42.453L42.453,55.878z M46.051,53.518c0-0.804,0.216-1.433,0.646-1.888   c0.434-0.455,0.991-0.685,1.676-0.685c0.447,0,0.851,0.11,1.21,0.323c0.357,0.212,0.632,0.512,0.821,0.894   c0.188,0.383,0.281,0.814,0.281,1.3c0,0.492-0.096,0.934-0.295,1.32c-0.2,0.389-0.481,0.681-0.843,0.881   c-0.365,0.199-0.756,0.299-1.178,0.299c-0.456,0-0.864-0.11-1.222-0.33c-0.361-0.223-0.631-0.522-0.818-0.904   C46.145,54.349,46.051,53.943,46.051,53.518L46.051,53.518z M46.713,53.528c0,0.585,0.156,1.044,0.47,1.379   c0.314,0.339,0.71,0.505,1.182,0.505c0.484,0,0.881-0.169,1.193-0.509c0.311-0.338,0.467-0.821,0.467-1.446   c0-0.393-0.067-0.738-0.201-1.034c-0.133-0.292-0.328-0.522-0.583-0.685c-0.258-0.16-0.545-0.242-0.866-0.242   c-0.454,0-0.844,0.156-1.172,0.469C46.875,52.278,46.713,52.8,46.713,53.528L46.713,53.528z M51.493,55.878v-4.847h0.966   l1.147,3.431c0.106,0.319,0.183,0.558,0.231,0.718c0.055-0.173,0.142-0.436,0.258-0.778l1.162-3.371h0.863v4.847h-0.62v-4.055   l-1.408,4.055h-0.578l-1.402-4.125v4.125H51.493L51.493,55.878z M57.125,55.878v-4.847h1.819c0.37,0,0.668,0.05,0.891,0.146   c0.225,0.1,0.399,0.25,0.525,0.456c0.126,0.203,0.191,0.416,0.191,0.639c0,0.206-0.055,0.402-0.168,0.585   c-0.113,0.183-0.282,0.333-0.51,0.445c0.293,0.083,0.519,0.232,0.676,0.438c0.158,0.206,0.236,0.452,0.236,0.735   c0,0.226-0.048,0.435-0.143,0.631c-0.096,0.196-0.216,0.346-0.355,0.452c-0.142,0.106-0.319,0.186-0.53,0.239   c-0.212,0.053-0.474,0.08-0.783,0.08H57.125L57.125,55.878z M57.768,53.069h1.048c0.283,0,0.489-0.02,0.612-0.056   c0.163-0.05,0.286-0.129,0.368-0.243c0.083-0.113,0.125-0.252,0.125-0.422c0-0.16-0.039-0.303-0.115-0.425   c-0.078-0.123-0.189-0.206-0.331-0.25c-0.143-0.046-0.389-0.069-0.738-0.069h-0.969V53.069L57.768,53.069z M57.768,55.306h1.207   c0.208,0,0.352-0.006,0.437-0.023c0.148-0.027,0.269-0.07,0.369-0.133c0.1-0.06,0.182-0.149,0.246-0.269   c0.063-0.117,0.095-0.252,0.095-0.405c0-0.183-0.047-0.339-0.138-0.473c-0.093-0.133-0.221-0.229-0.385-0.282   c-0.165-0.053-0.402-0.08-0.71-0.08h-1.12V55.306L57.768,55.306z M61.778,55.878v-4.847h0.64v4.847H61.778L61.778,55.878z    M63.018,55.878l1.861-4.847h0.691l1.983,4.847h-0.731l-0.565-1.469h-2.026l-0.532,1.469H63.018L63.018,55.878z M64.416,53.887   h1.644l-0.507-1.34c-0.153-0.409-0.268-0.744-0.343-1.007c-0.063,0.312-0.149,0.619-0.263,0.928L64.416,53.887z"/></g><g><path d="M16.667,65c0.151-0.412,0.625-0.938,0.711-1.325c0.137-0.614-0.25-1.146-0.169-1.684c0.151-1.017,1.286-1.657,1.316-2.798   c0.623-0.309,0.533-0.064,1.004-0.688c0.248,0.294,0.767,0.336,0.941,0.474c0.468-0.683,1.01-0.332,1.696-0.849   c0.663-0.5,0.78-1.254,1.292-1.849c1.269-1.474,2.861-2.649,4.028-4.237c-0.459-0.427-1.007-0.707-1.628-0.731   c0.071-0.445-0.144-1.035-0.049-1.477c-0.188,0.244-0.735,0.441-0.948,0.648c-1.044-1.633-0.536-1.058,0.026-2.616   c0.233-0.646,0.44-1.607,0.409-2.363c-0.049-1.171-2.195-4.469,0.679-4.021c0.107-0.446,0.032-1.044-0.17-1.458   c-0.545-0.207-1.029-0.323-1.612-0.384c-0.276-1.646,1.817-1.336,0.604-2.94c-0.086-0.114-0.809-0.04-1.134-0.372   c-0.439-0.448-0.521-1.023-0.7-1.617c-0.414-1.373-0.481-2.752,0.333-3.761c0.273-0.339,0.844-0.293,1.25-0.776   c0.347-0.414,0.488-1.358,0.767-1.841c-0.997-0.689-1.019-3.484,0.691-3.008c0.776,0.216,0.264,0.771,0.697,1.303   c0.108,0.132,0.734,0.155,0.794,0.367c0.014,0.049,0.062,0.93,0.046,0.887c0.188,0.524-0.896,0.771,0.459,1.122   c1.023,0.265,1.255-0.183,1.167-1.208c-0.106-1.238-1.721-1.892-0.805-3.267c2.137,0.137,2.102-1.757,3.796-2.7   c1.524-0.848,3.7-0.832,3.15-3.308c-0.682-0.105-1.024-0.046-1.316,0.595c-0.085-0.979,0.645-1.848,1.166-2.616   c0.459-0.676,0.855-2.034,1.293-2.545c1.576-1.837,3.237-1.404,5.21-1.272c-0.388,0.412-0.665,0.9-0.812,1.45   c0.256,0.213,0.65,0.343,0.95,0.345c0.605-1.313,0.816-1.819,0.888-3.283c0.983-0.063,1.445-0.652,2.32-0.834   c0.918-0.19,1.924,0.085,2.857-0.029c1.986-0.243,3.211-1.543,4.938-2.362c-0.128-0.384,0.007-0.771-0.288-1.133   c0.597-0.659,2.72-1.408,3.479-1.634c1.432-0.426,3.123-0.182,3.695,1.304c-1.184,0.809-2.982,0.849-4.032,1.659   c-1.042,0.806-1.406,2.084-2.613,3.211c-1.779,1.661-4.605,4.183-4.591,6.789c0.003,0.638,0.359,1.281,0.175,2   c-0.15,0.584-1.192,1.549-1.136,1.995c0.158,1.261,1.021,0.083,1.51,0.492c0.565,0.472,0.659,1.189,0.955,1.891   c0.536,1.272,1.748,2.607,2.175,3.968c0.378,1.205-0.447,2.619,0.391,3.621c0.855,1.023,3.703,2.029,4.947,2.004   c0.708-1.368,1.419,0.004,2.158,0.042c0.752,0.038,1.329-0.565,2.204-0.475c1.508,0.156,3.892,2.322,4.962,3.25   c0.536,0.464,1.689,2,2.372,2.07c0.491,0.05,0.798-0.7,1.328-0.693c0.695,0.009,0.892,0.575,1.513,0.677   c1.018,0.167,1.648-0.393,2.658-0.516c0.829-0.101,1.76,0.328,2.642,0.024c0.161,1.25,1.973,1.366,1.861,2.817   c-0.088,1.136-2.05,2.473-3.141,2.355c-0.522,1.079,0.234,1.197,0.308,1.832c0.098,0.843-0.034,1.592-0.041,2.471   c-0.012,1.465,0.014,3.353,0.488,4.863c0.163,0.518,0.917,0.889,0.891,1.812c-0.021,0.756-0.352,1.357-0.667,2   c-0.247,0.502-1.15,1.497-0.846,2.171c0.311,0.689,0.979,0.648,1.513,0.008c1.633,1.352,1.709,1.516,1.95,3.649   c0.133,1.184,0.438,2.543,0.345,4.003c-0.649-0.959-0.732-3.28-1.625-4.003c-1.289-1.044-2.339,0.381-3.513,0.512   c-0.772,0.087-1.354-0.223-2.129-0.044c-0.609,0.14-1.239,0.611-1.9,0.712c-1.562,0.237-3.266-0.33-4.779,0.179   c-0.194,0.715-0.293,1.705,0.137,2.321c0.5,0.714,1.065,0.241,1.504,0.643c0.743,0.679,1.61,2.199,0.518,2.815   c0.633,0.007,1.194,0.188,1.466,0.708c-1.779,1.463-1.546-0.314-2.854-0.225c-0.528,0.036-1.083,0.949-1.455,1.224   c-1.021,0.754-0.737-0.507-1.045,0.956c-0.399,1.896,0.8,2.068,1.875,2.996c0.902,0.779,1.328,2.18,1.626,3.245   c0.848,3.026,0.609,7.441-1.068,10.104c-0.852,1.353-0.839,1.979-1.178,3.535c-0.198,0.906-0.517,2.728-1.553,3.19   c0.001-0.297-0.249-0.915-0.188-1.34c-0.927-0.15-1.39,0.316-2.284,0.283c-0.476-0.466-0.036-0.419-0.845-0.668   c0.932-1.924,2.924-4.302,3.128-6.448c-0.197,0.125-0.543,0.125-0.807,0.328c-0.655-0.831-0.936-1.552-2.008-2.129   c-0.142,0.218-0.497,0.411-0.622,0.595c-0.118-1.666-1.535-0.485-2.5-0.292c-0.761,0.153-0.606,0.173-1.583,0.014   c-0.72-0.118-1.164-0.506-1.975-0.359c-0.901,0.163-1.518,0.933-2.438,0.958c-0.306,0.008-1.253-0.299-1.703-0.303   c-0.844-0.008-2.894,0.816-2.813-0.643c1.246-0.42,0.958-1.092,0.309-1.838c-0.167-0.192-1.003-0.037-1.134-0.216   c-0.358-0.492,0-0.987-0.2-1.475c-0.335-0.815-0.409-1.402-1.334-1.878c-0.887-0.457-1.686,0.072-2.451-0.768   c0.132,0.028,0.271,0.155,0.394,0.164c-0.787-0.656-1.282-1.028-1.78-1.884c-0.541-0.929-0.67-2-1.7-2.633   c-1.656-1.018-3.838-0.474-5.066-2.343c0.18-0.054,0.408-0.152,0.59-0.204c-0.912-0.542-5.706-1.831-4.328,0.858   c-0.799-0.153-1.694-0.04-2.455-0.354c-0.707-0.292-1.021-1.008-1.871-1.253c-0.536-0.155-1.93,0.286-2.336-0.026   c-0.973-0.744,0.442-1.421,0.014-2.141c-0.451-0.759-1.529-0.401-2.186-0.659c-0.522-0.206-1.461-0.788-1.955-1.092   c-1.08-0.667-2.115-2.422-3.474-2.486c0.449,0.507-0.188,0.409-0.23,0.866"/></g></svg>