<svg xmlns="http://www.w3.org/2000/svg" xmlns:xlink="http://www.w3.org/1999/xlink" version="1.1" x="0px" y="0px" viewBox="-461 335 100 100" fill="#999999" style="enable-background:new -461 335 100 100;" xml:space="preserve"><polygon points="-367.8,338 -367.9,337.7 -368.4,337.6 -368.5,337.5 -368.7,337.1 -369.2,336.3 -369.4,336.1 -369.7,335.9   -369.8,335.9 -369.9,336 -370.1,336.2 -370.2,336.3 -370.4,336.3 -370.6,336.3 -370.6,336.3 -370.7,336.5 -370.7,336.5   -370.8,336.5 -370.9,336.5 -371,336.5 -371.9,336.5 -372,336.5 -372.1,336.5 -372.2,336.5 -372.3,336.7 -372.4,337 -372.4,337.1   -372.6,337.3 -372.8,337.5 -373,337.6 -373.3,337.6 -373.4,337.4 -373.6,337 -373.8,336.8 -374.2,336.7 -374.6,336.7 -374.9,336.8   -375.3,336.9 -375.5,337 -375.6,336.9 -376,336.7 -376,336.6 -376.1,336.7 -376.5,336.9 -376.8,337 -376.9,336.9 -377,336.7   -377.1,336.5 -377.2,336.3 -377.3,336.1 -377.5,336 -377.6,336 -377.8,336.1 -377.9,336.1 -378,336 -378.1,335.9 -378.2,335.9   -378.3,335.9 -378.4,335.9 -378.5,335.9 -379.4,335.9 -379.9,335.9 -380.3,335.7 -380.7,335.3 -380.8,335.3 -380.9,335.3   -381,335.2 -381,335.1 -381.1,335 -381.3,335 -381.5,335.1 -381.7,335.2 -382.3,335.5 -382.5,335.8 -382.8,336 -383.2,336.1   -383.5,336 -383.6,335.9 -383.8,336 -384,336.1 -384.1,336.3 -384.2,336.4 -384.4,336.5 -384.5,336.5 -385,336.5 -385.1,336.5   -385.5,336.6 -385.6,336.7 -385.9,336.6 -386,336.7 -386.2,336.7 -386.3,336.8 -386.4,336.9 -386.5,337 -386.6,337 -386.7,336.9   -386.8,337 -387,337 -387.1,337 -387.2,336.9 -387.3,336.8 -387.4,336.8 -387.7,336.8 -387.8,336.8 -388,336.7 -388.2,336.7   -388.3,336.7 -388.3,336.8 -388.3,336.9 -388.3,337 -388.6,337.1 -388.8,337.1 -389.7,336.9 -390,336.9 -390.2,336.9 -390.8,337.1   -391.3,337.4 -391.6,337.8 -391.8,338.3 -391.9,339.3 -392.2,340 -392.2,340.3 -392.3,340.5 -392.7,341.1 -392.8,341.3   -392.8,341.6 -392.7,341.9 -392.6,342.1 -392.5,342.3 -392.6,342.8 -393,343.6 -393,344.1 -392.8,344.3 -392.7,344.5 -392.6,344.7   -392.6,345 -393,345.7 -393.4,346.6 -393.9,347.6 -394.4,348.7 -394.8,349.5 -395.3,350.6 -395.9,351.9 -395.8,351.9 -395.8,352   -395.9,352.2 -396.3,352.5 -396.5,352.3 -396.8,352.3 -397,352.4 -397,352.6 -397.2,352.9 -397.2,353 -397.2,353.2 -397.1,353.3   -397.1,353.4 -397.1,353.5 -397.1,353.5 -397.2,353.5 -397.2,353.6 -397.3,353.6 -397.3,353.7 -397.3,353.7 -397.3,353.8   -397.3,353.8 -397.3,353.9 -397.2,354 -397.2,354.1 -397.4,354.3 -397.4,354.4 -397.4,354.8 -397.4,354.9 -397.3,354.9 -397.2,355   -397,355.4 -396.6,356.4 -396.3,357.6 -396.4,357.8 -396.5,357.9 -396.7,357.8 -396.8,357.8 -397.4,358.5 -397.8,358 -397.9,357.8   -397.9,357.7 -397.9,357.5 -397.9,357.4 -397.9,357.3 -398,357.2 -398.1,357.2 -398.3,357.2 -398.4,357.2 -398.6,357.1   -398.8,357.1 -399,357 -399,356.8 -399.1,356.9 -399.3,357 -399.4,357 -399.5,356.9 -399.5,356.7 -399.6,356.6 -399.7,356.6   -400,356.4 -400.3,356.3 -400.4,356.2 -400.9,355.6 -401,355.6 -401.2,355.5 -401.4,355.5 -401.5,355.4 -401.5,355.4 -402.6,355.2   -403.6,355 -404.1,354.9 -404.6,354.9 -405.2,355.3 -405.4,355.4 -405.7,355.5 -405.8,355.5 -405.8,355.5 -406.1,355.3   -406.1,355.3 -406.2,355.2 -406.2,355.2 -406.2,355.1 -406.2,355 -406.2,354.9 -406.3,354.8 -406.4,354.7 -406.8,354.6   -406.8,354.6 -406.9,354.5 -406.9,354.3 -407,354.2 -407.2,354.1 -407.4,354.2 -407.6,354.3 -407.9,354.1 -408.1,354.5   -408.3,354.4 -408.3,354.4 -408.4,354.6 -408.6,354.8 -408.8,354.8 -409,354.6 -409.2,354.7 -409.4,354.6 -409.9,354.2 -410,354.2   -410.1,354.5 -410.2,354.5 -410.5,354.6 -410.9,354.5 -410.9,354.2 -410.8,353.9 -411,353.8 -411,353.6 -411.2,353.4 -411.3,353.3   -411.4,353.3 -411.4,353.5 -411.4,353.6 -411.5,353.7 -411.7,353.8 -412.4,353.8 -412.4,353.8 -412.4,353.5 -412.4,353.4   -412.5,353.4 -412.6,353.5 -412.7,353.5 -412.8,353.4 -412.8,353.4 -412.6,353.3 -412.9,353.1 -413,353.2 -412.9,353.4   -413.1,353.4 -413.3,353.1 -413.5,353.1 -413.8,353.1 -413.9,353 -413.8,352.8 -414.1,352.7 -414.4,352.3 -414.7,352.2   -414.8,352.3 -414.9,352.4 -414.9,352.5 -414.9,352.6 -414.9,352.7 -415,352.7 -415.9,352.9 -416.2,353.1 -416.2,353.1 -416.4,353   -416.6,352.8 -416.8,352.7 -417.5,352.6 -418,352.8 -418.1,352.8 -419.4,352.8 -421.2,352.8 -423.2,352.8 -425.6,352.8   -427.4,352.8 -429.4,352.7 -429.4,353.4 -429.4,353.8 -429.5,354.1 -429.9,354.3 -430,354.3 -430.2,354.6 -430.3,354.6   -430.4,354.7 -430.4,354.8 -430.3,355 -430.3,355.1 -430.4,355.2 -430.5,355.2 -430.5,355.3 -430.6,355.5 -430.7,355.6   -430.8,355.7 -430.9,355.7 -430.7,355.9 -430.6,356.1 -430.6,356.2 -430.5,356.4 -430.5,356.6 -430.7,357 -430.8,357.1   -430.9,357.3 -431,357.4 -430.9,357.6 -431,357.8 -431.1,358 -431.1,358.2 -431,358.8 -431.1,359 -431.3,359.3 -431.1,359.6   -430.9,359.9 -430.8,359.8 -430.6,359.9 -430.6,360 -430.5,360.2 -430.6,360.4 -430.4,360.5 -430.2,361 -430,361.1 -430,361.2   -430,361.8 -430,361.9 -430,362 -430,362 -429.9,362.2 -429.9,362.2 -430,362.3 -430.1,362.5 -430.2,362.6 -430.4,362.7   -430.6,362.7 -430.7,362.8 -430.7,362.9 -430.8,363.1 -431,363.1 -430.9,363.2 -430.8,363.3 -430.7,363.3 -430.6,363.5   -430.5,363.5 -430.3,363.5 -429.9,363.5 -429.6,363.5 -429.4,363.4 -429.2,363.1 -429,363.1 -428.8,363 -428.7,362.8 -428.6,362.7   -428.4,362.7 -428.2,362.6 -428,362.7 -427.6,362.8 -427.2,362.9 -426.9,362.9 -426.5,362.8 -426.3,362.7 -426.1,362.3   -425.7,362.2 -425.5,362.1 -425.3,362 -425.1,361.9 -425,361.9 -424.9,361.9 -424.7,361.9 -424.6,361.9 -424.5,361.8 -424.4,361.7   -424.3,361.7 -424.2,361.8 -424.2,361.8 -424,361.8 -424,361.7 -423.9,361.5 -423.8,361.2 -423.7,361.1 -423.6,361.1 -421.4,361.3   -421.2,361.3 -421,361.4 -420.8,361.6 -420.6,361.7 -420.4,361.8 -420,361.6 -419.8,361.5 -419.5,361.6 -419.1,361.7 -419,361.8   -418.9,361.8 -418.8,361.9 -418.7,361.9 -418.7,362 -418.6,362.1 -418.4,362.2 -418.3,362.3 -418.2,362.4 -418.1,363.1 -418,363.4   -418,364.3 -418,364.6 -417.8,364.8 -417.2,365 -417.1,365.3 -416.9,365.9 -416.8,366.1 -416.6,366.4 -416.4,366.6 -416.2,366.8   -415.9,367 -415.8,367 -415.8,367.2 -415.9,367.3 -416.1,367.4 -416.2,367.5 -416.1,367.6 -416.1,368.2 -416.4,368.6 -417,369.1   -417.3,369.6 -417.3,370.1 -417.4,370.4 -418.3,371.1 -418.3,371.2 -418.4,371.2 -418.5,371.3 -419.1,371.3 -419.8,371.2   -420.3,371.3 -420.7,371.8 -420.6,372 -420.5,372.3 -420.5,372.5 -420.7,372.8 -421.6,373.2 -421.8,373.5 -422.2,374.4 -422.6,375   -422.7,375.3 -422.6,375.5 -422.5,375.9 -422.5,376.2 -422.4,377 -422.3,377.1 -422.2,377.1 -422.1,377.1 -422,377.3 -422,377.4   -422.2,377.6 -422.2,377.7 -422.2,377.9 -422.1,378 -422.1,378.1 -422.2,378.3 -422.4,378.4 -423,379.2 -423.1,379.5 -423.2,379.9   -422.6,380.5 -422.6,380.5 -422.5,380.5 -422.3,380.5 -422.3,380.4 -422.2,380.3 -422.2,380.3 -422.1,380.2 -421.7,380.3   -421.6,380.3 -421.5,380.4 -421.4,380.5 -421,380.4 -420.5,380.5 -420.1,380.7 -419.8,381 -419.6,381.4 -419.5,381.8 -419.4,382.3   -419.4,382.7 -419.2,382.6 -419,382.6 -418.8,382.5 -418.6,382.6 -418.4,382.7 -418.2,382.6 -418,382.5 -417.8,382.5 -417.5,382.6   -417.1,382.8 -416.7,383 -416.4,383.4 -416,383.7 -415.8,383.8 -415.6,384.4 -415.5,384.7 -415.5,385.1 -416,386.1 -416.1,386.4   -416.1,386.7 -416,387 -415.9,387.3 -416.1,387.6 -416.3,387.8 -416.4,388.1 -416.5,388.3 -416.6,388.8 -416.7,389.1 -416.7,389.2   -416.4,390.1 -416.2,390.4 -416.2,390.5 -416.2,390.6 -416.3,390.8 -416.3,390.9 -416.2,391 -415.9,391.3 -415.9,391.4   -415.8,391.5 -415.8,391.9 -415.9,392.1 -415.9,392.3 -416,392.4 -416.1,392.5 -416.2,392.5 -416.3,392.6 -416.3,392.8 -416.2,393   -416.1,393.1 -415.6,393.4 -415.6,393.7 -415.7,393.8 -415.8,393.9 -415.9,394 -416,394.1 -416,394.4 -416.2,394.7 -416,394.9   -415.9,395.1 -415.9,395.2 -416.2,395.3 -416.3,395.4 -416.4,395.5 -416.4,395.7 -416.5,395.7 -416.7,395.8 -416.9,395.9 -417,396   -416.9,396.1 -416.7,396.2 -416.6,396.6 -416.4,396.7 -416.1,396.7 -416,396.8 -416.3,397 -416.4,397.1 -416.5,397.4 -416.6,398.3   -416.6,398.6 -416.6,398.7 -416.5,399.2 -416.6,399.3 -416.9,399.5 -418.3,400 -418.4,400.1 -418.4,400.2 -418.5,400.3   -418.5,400.4 -418.5,400.6 -418.5,400.6 -418.5,400.7 -418.4,400.8 -418.3,400.9 -418.3,401 -418.4,401.2 -418.5,401.8 -418.5,402   -418.6,402 -418.8,402.1 -418.8,402.2 -418.9,402.3 -418.8,402.5 -418.8,402.6 -418.9,402.7 -419.3,402.9 -419.5,403 -419.5,403.4   -418.6,404.1 -418.5,404.5 -418.6,404.5 -419.1,404.6 -419.2,404.6 -419.3,404.7 -419.5,404.9 -419.6,405 -419.7,405.1   -419.7,405.4 -419.8,405.5 -419.9,405.6 -420,405.7 -420.1,406 -420.2,406.1 -420.3,406.1 -420.4,406.1 -420.6,406 -420.7,406   -420.8,406 -421.3,406.2 -421.4,406.2 -421.4,406.1 -421.5,405.9 -421.6,405.8 -421.7,405.8 -421.8,405.9 -422,406 -422.3,406   -422.5,406 -422.8,405.9 -423,405.8 -423,405.7 -423,405.3 -422.9,405.2 -422.6,405 -422.5,404.7 -422.3,404.6 -422.3,404.5   -422.4,404.3 -422.6,404.2 -422.7,404.2 -422.8,404.1 -422.8,403.8 -422.9,403.7 -423.1,403.5 -423.2,403.2 -423.5,402.7   -423.6,402.2 -423.7,402 -423.9,401.8 -424,401.6 -424.1,401.5 -424.2,401.5 -424.2,401.6 -424.4,402 -424.6,402.2 -424.6,402.3   -424.6,402.5 -424.6,402.7 -424.7,402.8 -425.6,403.6 -425.7,403.7 -425.7,404 -425.8,404.1 -425.9,404.2 -426.2,404.3   -426.3,404.3 -426.4,404.4 -426.6,404.6 -426.7,404.7 -427.1,405 -427.2,405.1 -427.2,405.2 -427.3,405.3 -427.3,405.4   -427.4,405.5 -427.5,405.5 -427.6,405.3 -427.7,405.3 -427.8,405.3 -427.9,405.3 -428.1,405.3 -428.4,405.4 -428.6,405.3   -430.6,404.6 -430.7,404.6 -430.8,404.6 -431.1,404.7 -431.2,404.7 -431.4,404.7 -432.2,404.3 -432.4,404.3 -432.6,404.3   -432.9,404.7 -433.1,404.7 -433.1,404.6 -433.1,404.5 -432.9,404.4 -432.9,404.3 -432.8,404.2 -432.8,404.1 -432.8,404   -432.8,403.9 -432.7,403.8 -432.6,403.7 -432.6,403.6 -432.7,403.6 -432.8,403.6 -432.9,403.5 -432.9,403.4 -432.9,403.1   -433.1,403 -433.3,402.6 -433.4,402.5 -433.6,402.7 -433.8,402.7 -433.9,402.5 -433.9,402.3 -433.9,402.3 -434.1,402.1 -434.1,402   -434.1,402 -434,401.9 -434,401.8 -434,401.7 -433.9,401.7 -434.2,401.6 -434.2,401.6 -434.2,401.5 -434.2,401.4 -434.2,401.4   -434.2,401.2 -434.3,401.1 -434.4,400.9 -434.5,400.8 -434.6,400.6 -434.9,399.8 -435,399.5 -435.2,399.4 -435.7,399.2   -436.5,398.6 -437,398.4 -437.5,398.4 -437.7,398.5 -438.2,398.9 -438.3,398.9 -438.4,399 -438.4,399.1 -438.5,399.2 -438.5,399.4   -438.5,399.5 -438.7,399.6 -438.9,399.5 -439.2,399.1 -439.3,399.1 -439.4,399.2 -439.3,400.5 -439.2,400.9 -439,401.3   -438.5,401.5 -438.6,401.7 -438.8,402 -438.8,402.2 -438.9,402.4 -438.8,402.9 -438.9,403.2 -439,403.6 -439.1,403.9 -439,404.2   -443.5,405.2 -443.9,405.1 -444.3,404.9 -444.7,404.4 -444.9,404.3 -445,404.2 -445.3,404.4 -445.8,404.5 -446.2,404.6   -446.5,404.7 -446.9,405.1 -447.1,405.2 -447.3,405.2 -447.5,405.1 -447.9,404.7 -448,404.6 -448,404.6 -448.1,404.5 -448.2,404.4   -448.8,404.2 -449.2,404.2 -449.3,404.2 -449.4,404.4 -449.1,405.1 -449.1,405.3 -449.2,406 -449.2,406.2 -449.1,406.4   -448.8,406.9 -448.7,407.1 -448.6,407.4 -448.6,407.7 -448.7,407.9 -448.8,408.2 -449.6,409.6 -449.7,410.1 -449.7,410.4   -449.5,410.3 -449,410 -448.7,409.9 -448.5,410 -448.3,410.2 -447.9,410.8 -447,411.7 -446.8,412 -446.8,412.2 -447.1,412.4   -447.4,412.4 -447.5,412.4 -447.7,412.5 -447.8,412.7 -447.9,412.9 -447.9,413.7 -447.9,413.8 -447.9,413.8 -447.8,413.9   -447.7,414 -447,414.3 -446.8,414.4 -446.3,414.8 -445.9,415 -445.4,415.2 -444.9,415.4 -444.8,415.7 -444.9,416 -445.4,416.4   -445.6,416.6 -446.3,418.2 -446.3,418.4 -446.2,418.7 -445.9,418.8 -445.7,418.9 -445.4,419 -445.4,419.3 -445.4,419.5   -445.7,419.8 -445.9,420 -446.1,420 -446.3,420 -447,419.9 -447.2,419.8 -447.9,419.9 -448.1,419.8 -448.3,419.6 -449.2,418.1   -449.7,417.8 -450.2,417.7 -450.6,417.9 -450.8,418.3 -451,418.6 -451.5,418.8 -451.9,418.9 -452.3,419.1 -452.7,419.4 -453,419.6   -453.3,419.9 -453.5,420.2 -454.3,422.4 -454.1,422.5 -454,422.7 -453.9,422.7 -452.7,423.7 -451.7,424.6 -451.6,424.7   -451.6,424.9 -451.6,425.1 -451.6,425.2 -451.4,425.5 -451.4,425.6 -450.9,426 -450.5,426.2 -450,426.7 -449,427.7 -447.8,428.6   -446.6,429.9 -446.6,430.2 -446.8,430.5 -446.9,430.7 -447,430.8 -447,431 -446.3,431.6 -446.2,431.8 -446.3,432.1 -446.4,432.1   -446.5,431.9 -446.6,431.9 -446.5,432.2 -446.3,432.5 -445.6,433.2 -445.4,433.4 -445.2,433.8 -444.7,434.3 -444.5,434.7   -444.3,434.9 -444.1,435 -442.8,433.8 -442.5,433.4 -442.1,432.2 -442.1,432.1 -441.9,432.1 -441.8,432.2 -441.7,432.3   -441.6,432.6 -441.5,432.5 -441.3,432.4 -441.1,432.4 -440.7,432.4 -440.6,432.3 -440.4,432.2 -440,431.2 -439.9,431 -439.9,430.5   -439.8,430.3 -439.5,430.4 -439.3,430.3 -438.5,430.1 -437.3,429.8 -437.1,429.8 -436.9,429.6 -436.7,429.2 -436.5,429   -436.4,428.9 -436.1,428.7 -436,428.5 -435.9,428.3 -435.8,428 -435.5,427.8 -435.3,427.9 -435,428.1 -434.9,428.1 -434.7,428.1   -434.6,428 -434.4,428 -434.2,428.1 -434.1,428.3 -433.9,428.9 -433.6,429.1 -433.2,429.5 -432.4,430.4 -431.9,430.7 -431.9,430.3   -431.7,430 -431.4,430 -431.2,430.3 -431.1,430.4 -430.9,430.7 -430.8,431.1 -430.6,431.2 -430.3,431.4 -429.8,431.9 -429.6,432   -428.9,432.3 -428.7,432.4 -428.6,432.5 -428.5,432.6 -428.5,433 -428.2,433.5 -428.1,433.4 -427.8,433 -427.2,432.6 -427,432.5   -427,432.5 -427.1,432.4 -427.2,432.3 -426.8,432 -426.7,432 -426.5,432.1 -426.3,432.3 -426.2,432.4 -425.9,432.3 -425.7,431.9   -425.4,431.7 -425.3,431.7 -425.1,431.8 -425,431.8 -424.9,431.7 -424.9,431.5 -424.9,431.3 -424.8,431.3 -424.7,431.3   -424.6,431.3 -424.5,431.2 -424.7,430.7 -424.6,430.5 -424.5,430 -424.4,429.8 -424.5,428.7 -424.5,428.6 -424.4,428.5   -423.6,428.2 -423.4,428.3 -423.1,428.4 -423,428.6 -422.9,428.9 -422.7,429 -422.6,429 -422.3,429 -422,429.1 -421.8,429.1   -421.7,429 -421.5,428.8 -421.3,428.6 -421.3,428.6 -421.3,428.6 -421,428.1 -420.5,428 -419.5,427.8 -419.1,427.7 -418.6,427.5   -418.2,427.1 -418,427 -417.5,426.8 -417,426.6 -416.7,426.5 -416.7,426.6 -416.6,426.7 -416.6,426.8 -416.7,427 -416.7,427.1   -416.8,427.2 -416.8,427.2 -416.7,427.4 -416.5,427.7 -416.3,428 -415.9,428.2 -415.8,428.3 -415.8,428.5 -416,428.7 -416.2,429   -416.3,429.1 -416.4,429.3 -416.9,429.5 -417.1,429.6 -417.2,429.8 -417.2,429.9 -417.1,430.1 -417,430.6 -416.8,430.8   -416.6,430.9 -416.5,431.1 -416.5,431.4 -416.5,431.5 -416.6,431.7 -416.6,431.8 -416.6,432 -416.5,432.1 -416.5,432.2   -416.4,432.3 -416.6,433.2 -416.6,433.5 -416.4,433.5 -416.2,433.5 -416,433.4 -415.8,433.2 -415.6,433.1 -415.4,433 -415.2,433   -415.1,433.2 -415.1,433.2 -414.8,433.2 -414.7,433.2 -414.7,433.3 -414.6,433.4 -414.5,433.4 -414.4,433.5 -414,433.7   -413.9,433.7 -413.4,433.7 -413.1,433.6 -412.3,433.1 -411.8,432.9 -411.6,432.7 -411.5,432.6 -411.4,432.4 -410.5,430.8   -409.6,429.9 -409.5,429.8 -409.4,429.6 -408.8,429.3 -408.5,429.1 -407.5,427.6 -407.4,427.5 -407.3,427.3 -407,427.1 -406.7,427   -406.5,426.8 -405.2,426.2 -404.8,426 -404.5,425.9 -404.4,425.8 -404.3,425.7 -404.1,425.5 -404,425.4 -403.7,424.2 -403.5,424   -403.3,423.9 -403.1,423.8 -401.5,423.3 -401,423.2 -400.4,423.1 -399.9,423 -399.5,422.7 -399.2,422.4 -398.9,421.7 -398.9,421.6   -398.8,421.5 -398.4,420.9 -398.2,420.4 -398.1,420.2 -398,419.9 -397.5,419 -396.8,418.1 -396.6,417.6 -396.3,417 -395.7,416   -395.6,415.7 -395.5,415.5 -395.5,415.2 -395.6,415.1 -395.7,415 -395.9,414.9 -395.9,414.6 -395.8,414.1 -395.8,413.9 -396,413.6   -396,413.5 -396,412.8 -396,412.2 -396,411.6 -396.1,410.5 -396.1,410.4 -396.1,410.2 -395.8,409.4 -395.5,407.7 -395.9,405   -395.9,404.4 -396,404.3 -396,404.2 -396.1,404.1 -396.1,403.9 -396.1,403.7 -396,403.2 -396,403.1 -396,403 -396,402.8   -395.9,402.5 -395.8,402.3 -395.5,401.9 -395.2,401.7 -394.9,401.4 -394.2,400.8 -393.7,400.5 -393,399.7 -392.8,399.5   -392.7,399.4 -392.7,399.4 -392.5,399.3 -392.3,399.2 -392.2,399.1 -392.2,399 -392.1,398.8 -391.2,397.6 -391,397.3 -391,397   -391,396.6 -391,396.5 -390.9,396.3 -390.8,396.1 -390.4,395.5 -390.2,395 -389.8,394.5 -389.3,393.6 -389.2,393.3 -389,392.9   -388.7,392.5 -388.6,392.1 -388.5,392 -388.5,392 -388.2,391.8 -387.7,391.4 -387.3,391 -386.8,390.6 -386.6,390.3 -386.5,390.2   -386.5,390.2 -386.4,390.1 -386.3,390 -385.9,390 -385.4,389.8 -384.6,389.5 -384.4,389.5 -383.8,389.4 -383.2,389.2 -383.1,389.1   -382.8,388.9 -382.8,388.8 -382.5,388.7 -382.4,388.6 -382.2,388.3 -381.9,388 -379.7,385.4 -379.4,385.2 -379.3,385.1 -379.1,385   -379.1,384.9 -379.1,384.9 -379.1,384.7 -379,384.6 -379,384.5 -378.2,383.8 -378.1,383.6 -378,383.5 -378.1,381.5 -378.4,380.3   -378.4,380 -378.4,379.8 -377.9,377.6 -377.7,377.2 -376.8,374.7 -375.8,373.4 -375.7,373.2 -375.6,372.1 -375.7,371.9   -375.7,371.7 -375.9,371.5 -376,371.4 -376.2,370.8 -376.3,370.5 -376.3,370.2 -376.1,369.3 -376.1,369 -376.5,367.6 -376.5,366.7   -376.6,365.9 -376.5,365.6 -376.3,365.2 -376.1,364.9 -375.6,364.1 -375.5,363.9 -375.5,363.1 -375.1,361.9 -375,361.4   -374.9,361.2 -374.3,359.7 -374.2,359.5 -374.3,356.2 -374.3,356 -374.2,355.6 -374.1,355.4 -374.1,355.3 -374.2,354.7   -374.2,353.6 -374.2,353.3 -374.2,352.9 -374.2,352.8 -373.8,351.6 -373.7,351.4 -373.4,351.1 -373.4,351 -373.2,350.9   -373.1,350.7 -372.9,350.3 -372.8,350.1 -372.7,349.9 -372.6,349.7 -372.5,349 -372.4,348.8 -372.2,348.6 -371.6,348 -371.5,348   -371.4,347.9 -370.5,346.4 -370.3,345.6 -370.2,345.3 -370.2,345.2 -369.9,344.6 -369.7,344.3 -369.6,344.2 -369.6,343.9   -369.6,343.8 -369.4,343.5 -369,342.4 -368.8,342.2 -368.6,342 -368.2,341.8 -368,341.7 -367.9,341.5 -367.9,341.3 -367.8,341.1   -367.7,339.4 "/></svg>