<svg xmlns="http://www.w3.org/2000/svg" xmlns:xlink="http://www.w3.org/1999/xlink" version="1.1" x="0px" y="0px" viewBox="-345 257 100 100" fill="#e0e0e0" style="enable-background:new -345 257 100 100;" xml:space="preserve"><path d="M-245.3,308.4L-245.3,308.4l-0.5-0.3l-0.7-1.1l-0.6-0.3l-0.7-0.1l-0.7,0l-0.7-0.1l-2-0.7l-0.5-0.3l-0.3-0.5l-0.2-1.2  l-0.2-0.5l-0.8,0.2l-1.3-1.2l-1.7-2.3l-0.4-0.3l-1.4-2l-0.4-0.4l-0.2-0.4l-0.1-0.5l0-0.5l-0.2-0.2l-0.8-0.1l-0.3-0.2l-0.7,0.4  l-1.2-1.1l-1.9-2.3l-0.5-0.3l-5.6-7.3l-2.1-3.5l-1.8-4.2l-1.4-3.9l-0.2,0.4l-0.1,0.7l-0.1,0.4l-0.1-0.2l-0.1-0.2l0-0.2l0.1-0.1  l-0.4,0.2l-0.3,0.3l-0.3,0.2l-0.5,0.1l0.9-0.7l0-1l-0.5-2.4l0.8,1.9l0.4,0.5l0.1-0.9l-0.5-1.5l-0.8-1.4l-0.6-0.7l-0.1,0l-0.1,0  l-0.1,0l-0.1,0l-0.2,0l-0.2,0.1l0,0.1l0,0.1l0,1.3l0.3,1.1l-0.1,0.8l-1,0.5l-1.9,0.5l-0.2,0l-2,0.7l-0.6,0.7l-0.1,0.1l-0.8-0.2  l-0.2,0.1l-0.4,0.3l-0.1,0l-0.1,0l-0.3,0l-0.2-0.1l-1.8-1.4l-0.1-0.5l-0.3-0.2l-0.4,0.1l-0.2,0.2l-0.2,0.2l-0.5-0.1l-0.7,0.5  l-0.4-0.3h-0.2l-0.3,0.3l-0.3-0.1l-0.5-0.5l-0.4,0.1l-0.2,0l-0.2,0l-0.5,0l-0.3,0.2l-0.2-0.2l-0.7-0.5l-0.1-0.1l-0.1-0.1l-0.1-0.2  l0.1-0.2l0.1-0.1l0.4-0.2l-0.1-0.7l-0.3-0.2l-0.3-0.2l-0.6-0.3l-0.3-0.3l-0.3-0.2l-1.4-0.5l-0.3-0.3l-0.1-0.2l-0.4-0.5l-0.1-0.2  l-0.1-0.4l0-0.3l-0.1-0.2l-0.3-0.1l-0.1,0.1l-0.1,0.1l-1.6,1l-0.3,0.1l-0.3,0l-0.3-0.1l-0.1-0.1l-0.1-0.1l-0.3-0.2l-0.7-0.8  l-0.1-0.1l-0.1-0.1l-0.2-0.1l-0.2,0l-1.5-0.6l-0.7-0.2l-0.6,0l-0.5-0.1l-1.1-0.8l-0.5-0.2l-0.9,0.2l-5.2,3.4l-0.7,0.2l-0.7-0.1  l-5.3-1.9l-3.7-1.4l-3.3-1.2l-4.7-1.7l-0.5-0.3l-0.5-0.3l-0.4-0.4l-0.4-0.4l-0.8-0.4l-1,0.4l-0.8,1.1l-0.5,1.2l-0.7,1.1l0.3,0.1  l0.4,0.3l0.3,0.4l0.1,0.4l-0.4,0.3l-0.6,0l-0.3-0.3l-0.3-0.1l-0.5,0.4l-0.2,0.1l-0.1,0v0.1l0.2,0.3l0.2,0.1l0.5,0.2l0.2,0.2l0.2,0.3  l0.1,0.4l-0.1,0.3l-0.4,0.2v0.2l0.1,0.2l0,0.2l-0.1,0.2l-0.2,0.1l-0.2-0.1l-0.3-0.3l-0.2-0.1l-0.6,0l-0.6,0.1l-0.3,0.2l0.3,0.3v0.2  l-0.2,0.2h-0.2l-0.4-0.3l-0.1-0.1l-0.1-0.1l0.1-0.2l0-0.3l-0.2-0.2l-0.4-0.1l-1.5,0.1v0.2l0.3,0l0.1,0.1l0.1,0.1l0.1,0.2l-0.7,0.1  l-1.3,0.6l-0.7,0.2v0.2l1.1,0.1l0.8,0.3l0.7,0.4l0.9,0.3l0.2,0l0.6-0.1l0.2,0.1l0.2,0.2l-0.1,0.2l-0.2,0.1l-0.1,0l0.2,0.3l0.8,0.7  h0.2l0.4-0.3l1,0.2l1,0.4l0.4,0.5l0.2,1.9l-0.1,1l-0.5,0.4v0.2h0.2v0.2l-0.3,0.1l0,0.1l-0.1,0.2l0.1-0.1l0.1-0.1l0-0.1l0,0l0.2,0.2  l-0.3,0.1l-0.2,0.2l-0.3,0.4v0.2l0.1,0l0,0.1l0,0.1l0,0.1l1.2-1.2l0.4,0.3l0.2,0.2l0.1,0.2l-0.9,0.9l-0.4,0l-0.1,0l-0.3,0.5  l-0.2,0.1l-0.2,0.1l-0.1,0.2l0,0.4h-0.2l-0.5-0.1l-0.6,0.3l-0.6,0.2l-0.4-0.3h-0.2l-0.3,0.6l-0.2,0.2l-0.3,0.1v0.2h0.4v0.2l-0.1,0  l-0.1,0l-0.2,0.1l0.3,0.3l0.4,0.6l0.2,0.5l-0.6,0.5l-0.2,0.5l-0.3,0.3l-0.5-0.2l-0.2,0.5l-0.3,0.5l-0.5,0.4l-0.2,0.3l0.4,0.2  l0.6,0.8l0.1,0.2l-0.2,0.3l-0.4,0.4l0.2,0.4l0.1,0.5l0.1,0.8l1.2,2.8l0.4,0.6l0.2,0.8l0.2,0.3l3,3.7l0.3,0.7l-0.2,0.5l0.3,0.3l0.2,0  l0.2-0.1l0.3,0l0.2,0.1l0.2,0.1l0.2,0.1l0.8,0.1l1.7,0.5l0-0.1l0.1-0.1l0.2,0l0.2,0.1l0.1,0.1l0,0.1l0.1,0l0.2,0l0.3,0.1l0.4,0.3  l0.3,0.1l0.2-0.1l0.4-0.3l0.3-0.1l3.2,1.1l1,0.5l0.7,0.8l0,0.2l0,0.3l0.1,0.2l0.7,0.3l0.3,0.2l0.1,0.1l0.2,0.4l0,0l2.5,3.3l0.8,1.7  h0.2l0.4-0.5l0.3-0.5l0.6-2l0.1-0.2l0.7-0.4l0.1-0.2l0.2,0l1-0.5l0.1-0.1l-0.5-0.6l-0.1-0.2l0.2-0.4l0.5,0l0.9,0.5l0.1-0.2l0.2-0.5  l0.1-0.2l0.7-0.4l0.1-0.1l0.2-0.5l0.5-0.3l0.5-0.2l0.4-0.3v-0.2l-1.1,0l-0.5-0.1l-0.4-0.2l0.4-0.4l0.2-0.2l0.2-0.1l-0.4-0.4  l-0.4-0.5l0-0.4l0.6-0.1v-0.2l-0.3-0.3l-0.7-0.5l-0.3-0.3l-0.5,0.2l-0.6,0l-0.5-0.2l-1.1-0.6l-0.5-0.2l-0.2,0.1l-0.2-0.1l-1.8-0.7  l-0.7-0.6l-0.6-0.5v-0.2l0.2,0.1l0.3,0.1l0.3,0l0.3,0l0-0.2l-0.1-0.1l-0.2,0.1h-0.2l-0.4-0.7l-0.3-0.3l-0.9-0.3l-0.3-0.4l-0.1-0.4  l0.4-0.2l-0.3-0.5l-0.2-0.8l-0.1-1.4l-0.2-0.7l-0.9-0.6l-0.2-0.6l1.3,0.9l0.5,0.6l-0.2,0.5v0.2l0.7,0.8l0.5,0.3l0.5,0.1l2,0l0.5-0.2  l0.4,0.3l0.1,0.1l0.1,0.1l0,0l-0.1,0.2l-0.2,0.3l0.3,0.2l0.2,0l0.1-0.1l0.1-0.1l0.2,0.1l0.3,0.3l0.6,0.3l1.2,1.1l0.5,0.3l-0.1,0.1  l0.3,0.3l0.4,0.3l0.2,0l0.1,0.2l0.9,0.7l0.7,0.4l0.8,0.3l0.8,0.1l0.9,0v0.2l-1,0l-0.5,0l-0.4,0.1v0.2l2.6-0.3l0.8,0.3l-0.2,0.4  l0.1,0.3l0.7,0.6l-0.4,0.7l-0.1,0.4l0.5,0.2l0.3,0.3l1.2,1.8l0.5,0.5l0.2,0.3l0.1,0.4l-0.1,0.4l-0.2,0.3l-0.2,0.2l-0.2,0.5l-0.5,0.5  l-0.2,0.3l0,0.3l0.1,0.3l0,0.3l-0.1,0.3l0.5,0l0.1,0.2l0,0.3l0.1,0.3l0.3,0.2l0.3,0.1l0.3,0.2l0.1,0.4l0.2,0.4l1.1,0.7l0.5,0.4  l-0.1-0.2l0-0.1l-0.1-0.1l0.4,0.1l0.1,0.3l0.1,0.3l0.3,0.3l0.4,0.1l0.4-0.1l0.4-0.1l0.4-0.1l0.8,0.1l4,1.1l0.7,0.1l0.8,0.2l1.2,0.7  l0.8,0.1l-0.4-0.3l-0.2-0.1l-0.3-0.1v-0.2l0.7,0.3l0.8,0.7l0.4,0.8l-0.3,0.5l0.5,0.1l0.3,0.3l0.2,0.2l0.4-0.2l0.1,0.2l0.1,0.1l0.2,0  l0.2-0.1h0.2l2.8,1.1l0.4,0.3l2.3,1l2.3,2.2l0.7,0.2l0.9,0.5l0.7,0.7l-0.1,0.8l1.2,0.2l0.8,0.8l0.6,1l0.7,0.9l0.2-0.2l0.5,0.5  l0.1,0.3l0.8,2l-0.3,0.2l-0.2,0.2l-0.2,0.2l-0.1,0.3l0.1,0.1l0.2,0.1l0.1,0.2l-0.4,0.2l0.3,0l0.2,0.1l0.1,0.1l0.2,0.1l0.4,0.2  l0.2,0.2l0.2,0.2l-0.4,0l-0.3-0.1l-0.6-0.3l0.1,0.5l0.4,0.3l0.4,0.2l0.2,0.3l-0.1,0.3l-0.3,0.2l-0.7,0.4l-0.4,0.5l-0.1,0.5l0.1,0.3  l0.3-0.2l0.3-0.4l0.2-0.2l0.3,0l0.6,0.1v0.2l-0.7,0.2l-0.8,0.4l-0.4,0.5l0.4,0.5l-0.2,0.2l-0.7,1.1l-0.2,0.2l-0.1-0.2l-0.1-0.1  l-0.3,0.1l-0.5,0.3l-0.2,0.2l-0.9,1.4l0.1,0.9l0.2,0.1l0.6,0.2l0.1,0l0.2,0.3l2.6,2.4l0.7,0.9l0.4,0.4l0.4,0.2h0.5l1.8-0.2l0.6,0.1  l1.7,0.7v-0.4l0.2,0.2l0.2,0.1l0.6,0.3l-0.4,0l-0.1,0l-0.1-0.1h-0.2l0.5,0.4l1,0.5l1.1,0.3l0.7,0l0.3-0.7l0.1-1.1l-0.2-1l-0.4-0.6  v-0.2l0.2-0.2l0.1-0.3l0-0.7l-0.4,0.2l-0.4-0.3l-0.4-0.5l-0.4-0.2l-0.4-0.1l-1.1-0.3l-0.4-0.2l-0.2-0.3l-0.6-0.9l-0.1-0.5l-1-1.5  h-0.2l0,0l-0.2,0.2l0.1-0.6l0.4-0.1l1,0.1l0.4-0.1l0.1-0.2l0-0.2l0.1-0.2l0.3,0l0.2,0.1l0.2,0l0.2-0.3l0.5,0.2l0.6,0.1l0.4,0.2  l-0.1,0.5l0.2,0l0.2,0l-0.2,0.6l0.3,0.4l0.9,0.5l0.4-0.2l0.4,0.2l0.3,0.4l0.2,0.4l0.5-0.1l0.6,0.1l0.5,0l0.2-0.4h0.2l0.2,0.4  l0.4,0.4l0.4,0.3l0.4,0.2v0.2l-0.9,0.3l-0.1-0.1l0-0.4l-0.1-0.2l-0.3-0.5h-0.2l-0.1,0.2l0,0.1l-0.1,0.2l0.6,1.2l0.2,0.2l0.4,0.2  l0.9,0l0.3,0.1l-0.5,0.3l-0.4,0.1l-0.2,0.2l0,0.4l0.2,0.3l1,1.2l0.2,0.5l-0.2,0.5l-0.3,0.4l-0.2,0.3l-0.2,0.1l-0.9,1.1l1,1l3.7,2.7  l0.7,0.7l2,3.4l0.1,0.4l-0.1,0.5l-0.2,0.5l0,0.5l0.4,0.3l0,0l0.2-0.7l0.1-1.3l-1.6-3.4l-0.1-0.9l-0.2-0.3l-0.5-0.3l-0.3,0l-0.4,0.1  l-0.2,0l-0.2-0.1l-0.3-0.4l-0.2-0.2l-0.8-0.5l-0.3-0.3l0-0.4l0.3-0.2l1.3-0.8l0,0l0.5-0.5l0.8-0.8l0.9-0.4l0.8-0.3l0.8-0.4l0,0  l0.7-0.8l0.3-0.9l0.1-1l-0.2-2.1l-0.2-0.9l-0.4-0.8l-0.5-0.7l-0.9-1l-0.3-0.4l-0.1-0.4l0-0.4v0l0.2-0.3l0.9-0.5l0.3-0.3l0,0l0-0.4  l-0.2-0.1l-0.1-0.1l0.3-0.4l0,0l0.3-0.2l3.1-1.2l0.9-0.5l0,0l0.4-0.7l0,0l-0.1-0.3l-0.8-1.3l-0.4-0.3l-1.3-0.5l-1.4-1l-0.7-0.3  l-0.2-0.1l-0.1-0.2l-0.1-0.2l-0.1-0.2l-0.1,0l-0.1-0.1l-0.3,0l-0.6,0.3l-0.3,0.1l0-0.3l-0.1-10.8l0.1-0.6l0.2-0.4v0l0.6-0.2l1.6-0.2  l0.4-0.2l0,0l0-0.2l-0.1-0.1l-0.2-0.1l-0.1-0.2l-0.2-0.8l-0.4-0.6l0.1-0.3l0.3-0.5l0,0l0.5-0.4l0.1,0l0,0l0.5-0.1l1.7,0.7l1.2,1  l0.3,0.1l0.2-0.1l0.3,0.3l0.4,0.7l0.3,0.3l0.3,0.1l0.5,0.2l0.6,0.1l0.4-0.1l0,0l0.2-0.4l0.1-1.1l0.2-0.3l0,0l0.5,0.1l0.5,0.2l0.2,0  h0L-245.3,308.4z M-320.3,292.6l-0.9-0.3l-0.9-0.2l-0.2,0l-0.6,0.2l0.4,0.7l0.3,0.3l0.5,0.2l0.5,0.1l0.5,0l0.5-0.1l0.4-0.1v-0.2  l-0.3,0l-0.2-0.1l-0.2-0.1l-0.3-0.1l-0.1,0l-0.3-0.1h1V292.6z"/></svg>