<svg xmlns="http://www.w3.org/2000/svg" xmlns:xlink="http://www.w3.org/1999/xlink" version="1.1" x="0px" y="0px" viewBox="-345 257 100 100" fill="#e0e0e0" style="enable-background:new -345 257 100 100;" xml:space="preserve"><path d="M-331.3,306.9L-331.3,306.9l-0.1,0l-0.1-0.2l-0.2-0.1h-0.1l0.1,0.4l0.1,0.2l0.1,0l0.1-0.2L-331.3,306.9L-331.3,306.9  L-331.3,306.9z M-290.6,340l-0.1,0h-0.2l0-0.1h-0.2l-0.1,0l-0.1,0.1l0,0l-0.1,0.1l0.2,0.1l0.1,0l0.6,0v0l0.1,0l0.1-0.1h0.1l0.1,0  v-0.1l-0.2-0.1h-0.1L-290.6,340z M-307,341.4L-307,341.4l-0.2,0.1l-0.1,0l-0.1,0l-0.1,0.2l0.1,0l0.2,0l0.2-0.1l0.2-0.1l0-0.2l-0.1,0  H-307z M-302.3,342.5L-302.3,342.5l-0.2-0.1l-0.1,0l-0.1,0.4l-0.1,0.4l0,0.1h0.1l0.2-0.2l0.1,0.1l0.1-0.4l0-0.1L-302.3,342.5  L-302.3,342.5z M-293.9,347.5l-0.2,0l-0.1,0.1l-0.1,0.2l0,0l0,0.1l0,0l0,0.1l0,0h0.1l0-0.1l0,0l0-0.1l0,0l0.1,0l0.1,0h0l0.2,0.1  l0.1-0.1l-0.1-0.1L-293.9,347.5z M-298.4,356.3h0.1l-0.1-0.1L-298.4,356.3z M-298.1,356.3L-298.1,356.3L-298.1,356.3L-298.1,356.3z   M-327.7,295.6l-0.7,0.1l0.1,0.2l0.4,0.3l0.1,0.1l0.3,0.2h0.1l0.1-0.1l0-0.2L-327.7,295.6z M-323.5,296.8l-0.1,0.1v0.3l0.2,0.2  l0.9,0.5h0.1l-0.1-0.3l0-0.1l-0.4-0.4l-0.5-0.3L-323.5,296.8z M-340.5,297.3l-0.2-0.1h-0.1l-0.2-0.1l-0.1-0.1l-0.1,0l0,0.1l0.1,0.1  l0.1,0.1v0.1l-0.1,0.1l0,0.1l0,0.1l0,0.1l0,0.1l0.1,0l0.1-0.1l0-0.1v-0.1l0-0.1l0.1,0l0.2,0l0-0.1l0-0.1L-340.5,297.3z M-320.6,309  l-1-0.9l0,0.1l0.1,0.2l0.7,0.7l0.2,0.1h0.1l0,0.1l0.1,0.1l0-0.1l-0.1-0.2L-320.6,309z M-324.5,310.2l-0.1-0.1l-0.1-0.1l0-0.2l0-0.1  l0-0.1l0-0.1l-0.2-0.2l-0.3-0.1l-0.1,0.1l-0.1,0.2l0.1,0.2l0.2,0.1l0.2,0.3v0.1l0,0.2l0.1,0.1h0.1l0.2,0.1h0.1l0-0.3L-324.5,310.2z   M-317.7,312l-0.1-0.1l-0.2-0.2l-0.2,0l-0.1-0.1l-0.1-0.1l-0.1,0h-0.1l-0.1,0l-0.1-0.1l-0.3,0l-0.1,0.3l0.1,0.4l0.2,0.2l0.3,0.1h0.2  l0.1-0.1l0-0.1l0.1-0.1l0.1,0l0.4,0.2l0.1,0.1l0,0.1l0.1,0l0.1-0.1l0-0.1l0-0.1l-0.1,0L-317.7,312z M-318.4,317.7l1.4,1.3l0-0.1  l-0.2-0.5l-0.1,0l-0.6-0.6l0-0.1l-0.1-0.2l-0.3-0.2l-0.2-0.1l0,0.1l0,0.1v0.2L-318.4,317.7z M-308.5,324.4l0.1-0.1l0-0.1l-0.1-0.1  l-0.2-0.2l0-0.1v-0.1l-0.2-0.2l-0.1,0l-0.1,0l-0.1,0l-0.1-0.1l-0.2-0.1l-0.1-0.2l0-0.2l0,0l-0.1,0l-0.1-0.1h-0.1l0,0.1v0.1l-0.1,0  l-0.1,0l-0.1-0.1l-0.1-0.1l-0.1,0l-0.1,0v0.1l0.2,0.4l0.3,0.3l0.1,0h0.1l0.4,0.5L-308.5,324.4z M-307.8,326.2L-307.8,326.2l0,0.2  l0.4,0.2v-0.1l0,0l0,0l0.1-0.2l-0.2,0l-0.1-0.2l-0.3-0.2l0-0.1l0,0l-0.1,0h-0.1l0,0.1l0.1,0.1l0,0.1l0,0.1L-307.8,326.2  L-307.8,326.2L-307.8,326.2z M-305,326.2L-305,326.2l-0.3-0.4l-0.1,0l-0.1,0.1l-0.1,0.1l0,0.2l0.5,0.5l0.1,0.2h0.1v-0.2l0-0.2  L-305,326.2z M-300.6,331.8L-300.6,331.8l-0.1,0.1l-0.1,0.3l0,0.1l0.3,0l0.1,0h0.1l0.1,0l0-0.1l0.1,0l0.2,0.1l0.1-0.1l-0.1-0.3  l-0.3-0.2h-0.2l-0.1,0.1l0,0.1v0L-300.6,331.8z M-270.5,348.4l-0.9-0.5l-0.2,0l0.1,0.1l0.1,0.2l0,0.1h-0.1v0l1,0.7l0.1-0.1l0.1-0.2  l0-0.2L-270.5,348.4z M-313.7,323.6l-0.2-0.3l-1.3-1.1l-0.1-0.2l-0.4-0.3l-0.2,0.1l0.1,0.3l0.2,0.3l0.2,0.2l0.5,0.3l0.3,0.5l0.3,0.2  l1,0.4l0.1,0.1l-0.5-0.4L-313.7,323.6z M-308.2,327.2l-0.1-0.2l-0.1-0.2l-0.2-0.2l-0.5-0.1l-0.1,0l-0.1-0.1l-0.1,0.2l0.3,0.1  l0.7,0.5l0.1,0.2l0.1,0l1,0.3L-308.2,327.2z M-322.1,315.4h-0.1l-0.1,0.1l-0.1-0.1l-0.1-0.2l-0.1-0.3l0,0.4l0.3,0.3l0.4,0.1l0.2-0.1  l-0.1-0.2L-322.1,315.4z M-332.5,303.3l-0.1,0.4l0,0.2l0,0.2l0.1,0.1l0.2,0.1l0.2,0.1l0.1,0l-0.1-0.3l-0.1-0.2l0-0.1v-0.1l0-0.1  l0-0.1v-0.1l0,0l0,0l0.2-0.1l0.1-0.1v-0.2l-0.3,0L-332.5,303.3z M-323.1,310.1L-323.1,310.1l0-0.2l0.1-0.2l0-0.2l-0.1-0.2l-0.2-0.1  l-0.2,0l-0.1,0l-0.1,0l0.1,0.7l-0.2,0.3l0,0.2l0.3,0.3l0.2,0.1l0.3,0.1l0.2-0.2l-0.1-0.4L-323.1,310.1z M-323.8,312l-0.1,0v0.2  l-0.1,0.1h-0.2l0,0.2l0.2,0.3l0.2,0l0.1-0.1l0.1,0h0.3l0-0.1l-0.3-0.3L-323.8,312z M-326.2,310.9l-0.3-0.2l0.1,0.2l0.7,0.6l0.3,0.1  l0.1-0.1l-0.3-0.4L-326.2,310.9z M-298.8,330.7l-0.1,0h-0.1l-0.1,0v0.1l0.1,0.1l0.2,0.1l0.3,0l0.2,0l0.1-0.1l0.3,0l0.9,0.1l0.6-0.1  l0.1-0.1l-0.7-0.3l-0.4-0.2l-0.8-0.1l-0.3,0.1l0.1,0.2l-0.1,0.1L-298.8,330.7z M-260.8,354.9l-0.1-0.1l-0.2-0.3l-0.2-0.3l-0.1-0.4  v-0.4l0.1-0.7l-0.1-0.4l-0.2-0.1l-0.1,0l-0.1,0l-0.5,0l-0.3-0.2l-0.1-0.1l-0.3-0.4l-0.2-0.1l-0.3,0h-0.1l-0.9-0.3l-0.5-0.3l-0.1,0  l-3-2l-0.7-0.5l-0.2-0.1l0,0l-0.4-0.3l-0.1-0.1l-0.6-0.7l-0.4-0.3l-0.6-0.2l-0.2-0.1l-0.3-0.5l-0.2-0.3l0-0.3v-0.1l0-0.5l0-0.1  l0-0.2l-0.2-0.2l0-0.1h-0.1l-0.1,0.1l-0.1,0.1l-0.2,0l-0.1,0l-0.7-0.3l-0.4-0.1l-0.1,0l-0.2,0.1l-0.1,0.1l-0.1,0.1l-0.2,0.3l0.4,0.3  l0.5-0.2l0.1,0.1l-0.2,0.3l0.1,0.3l0.5,0.4l-0.4-0.1l-0.7-0.7l-0.3,0h-0.1l-0.2-0.3l-0.3-0.1l-0.7-0.2l-0.3-0.2l-0.1-0.1l-0.2,0  l-0.1,0l-0.1-0.1l-0.1,0l-0.1,0v0.2l-0.1,0l-0.2,0l-0.1-0.1l-0.3-0.2l-0.1,0l-0.2,0l-0.1,0l-0.1-0.1l0-0.1v-0.1l0-0.1l-0.5-0.4  l-0.6-0.4l-2.5-1l-1.4-0.2l-1.4,0.1l-0.3-0.1l-0.6-0.4l-0.4-0.1l0.1,0.1l0.1,0.1l0.1,0.1l0.2,0.1v0.1l-0.2,0.2l0.2,0.2l0.3,0.2  l0.3,0.1l0.6,0.1h1.8l0.2,0l0.1,0.1l0.3,0.2l0.6,0.2l1.4,1l1.1,0.2l0.4,0.3l0,0.6l1.4,0.6l0.9,0.2l0.9,0.4l0.8,0.1l0.9,0.4l0.3,0.2  l0,0.1l0,0.2v0.1l0.1,0l0.1-0.1v-0.1l-0.2-0.6l-0.2-0.2l-0.3-0.3l0.2,0.1l0.4,0.3l0.1,0.1l0,0l0.1,0.1l0.1,0l0.1-0.2l0.1-0.1  l0.1-0.1l0.1,0l0.5,0.1l0.5,0.4l0.5,0l-0.2,0.5l0.4,0.4l1,0.6l0.7,0.7l0.4,0.2l0.3-0.2l0.1,0.3l0.1,0.2l0.4,0.3h-0.3l0.1,0.2  l0.2,0.2l0.3,0.1l0.3,0l0.3,0.1l0.7,0.4l0.9,0.1l0.1,0.1v0.3l0,0.3v0.2l0.3,0.5l2.9,1.9l0,0.3l0.2,0.1l0.6,0.2l0.2,0.1l0.4,0.6  l0-0.3l-0.1-0.3L-260.8,354.9z M-296.1,334.2l-0.4-0.3l-0.3-0.4l-0.3-0.3l-0.5,0.1l-0.1-0.4l-0.3-0.2l-1-0.1l-0.3,0.1l-0.1,0.1  l0,0.2l0.2,0.1l-0.1,0h0l0,0v0.1l0.4,0.1l0.8,0.3l1.1,0.7l0.5,0.1L-296.1,334.2z M-298.5,340.4L-298.5,340.4l-0.1,0.2l-0.2-0.2h-0.2  l-0.4,0.2l0-0.1l0.1-0.1l-0.5-0.2l-0.7,0l-0.6,0.1l-0.4,0.3l-0.1,0l-0.1,0l-0.1,0l-0.1,0.1l0.2,0.3h0.1l0.2,0l0.1,0.3l0,0.4  l-0.4,0.2l0.4,0.1l0.6,0l1.5-0.5l0.2-0.2l0.2-0.3l0.2-0.2l0.1-0.1l0-0.1L-298.5,340.4L-298.5,340.4z M-295.4,334.5L-295.4,334.5  l0,0.2h0l-0.1-0.1l-0.2-0.1l0.3,0.4l1.3,0.8l1.1,0.3l1.1,0.1l3.1-0.1l0.6-0.1l0.3-0.4l0.1,0.1l0.1-0.1l0.2-0.4l-0.1-0.2l-0.1,0  l-0.1,0l-0.2-0.1l-0.3-0.4l-0.1-0.1l-0.1,0.1l-0.1,0l-0.2,0l-0.2-0.1h0.2v-0.1l-2.1-0.6l-3.3-0.1l-0.7-0.3l-0.1,0l-0.4,0l0.2,0.5  l0.2,0.4l-0.2,0l-0.1,0.1l0,0.1l0.1,0.2H-295.4L-295.4,334.5z M-291,339.3h8.5l-0.6-0.3l-0.8-0.1l-1.5,0.1l-1-0.3l-1-0.1l-0.3-0.1  l-0.2-0.2l-0.3,0.1h-1.6l-0.4-0.1l-0.4-0.2l-0.3-0.3l0,0h0l0,0v-0.1l-0.2-0.1l-0.1-0.2l-0.1-0.2l-0.1-0.1l-0.2-0.1l-0.5-0.1h-0.2  l-0.1,0l-0.2,0.1h-0.1l-0.3-0.3l-0.5,0l-0.2,0l0.1,0.2l0.4,0.3l0.5,0.5l-0.5,0l-0.5-0.4l-0.5-0.3l-0.6,0.2v-0.1l-0.2,0.2l0,0.1  l-0.1-0.2l-0.4,0.3l-0.2,0l-0.2-0.1h-0.2l-0.1,0l-0.1,0.1l0.7,0.3l0.2,0l0.3,0.2l0.5,0.1l1.4,0.6l1.9,0.4L-291,339.3z M-274.3,348.5  l-0.4-0.3l-0.2,0.1l-1-0.1l0-0.1l0,0l0.1,0l-0.4-0.2l-0.9-0.2l-0.6-0.4h-0.8l-0.3-0.2l-0.1,0.1l-0.1-0.1l-0.2-0.1l-0.2,0l-0.2,0  l0.2-0.2l0.1,0l0.1,0l-0.3,0l-0.6,0.2l-0.3,0.1l0.2,0.3l0.3,0.3l0.3,0.2l0.2-0.3l6.2,1.7l-0.3-0.4L-274.3,348.5z M-287,347.3  l-1.1-0.1l-0.5,0.1l-0.3,0.1l-0.1,0.3h0.1l0.1-0.1l0.1,0.1l0,0.2l-0.2,0.1l0.2,0.3l0.2,0.1l0.2-0.1l0.2-0.2l0.3,0.1l0.1,0l0,0.2  l0.3-0.1l0.3-0.2l0.2-0.3l0-0.4L-287,347.3z M-283.2,343.3l-0.3-0.4l-0.4,0.1l-1.3-0.4l-2,0.2l-0.4,0.2l-0.2,0.1h-0.9l-0.9-0.2  l-0.4-0.2l-0.4-0.2h-0.4l-0.4-0.1l-0.4,0l-0.4,0.2l0.3,0.1l0.7,0.1l0.3,0.1v0.2l-1.2,0.6l0.3,0.2l0.3,0.1v-0.1l0.3,0l0.8,0.3  l1.9,0.4l0.8-0.1l1.3-0.5l0.7,0l1.6,0.3l0.8-0.1l0.4,0l0.3,0.2l0.1-0.2l-0.6-0.4L-283.2,343.3z M-327.9,303.8l-0.1-0.1v-0.2l0.1-0.2  l-0.2-0.4l-0.3-0.3l-0.2-0.4l-0.1-0.5l0-0.3l0.1-0.3l0-0.3l-0.1-0.2l-0.2-0.3l-0.1-0.3l0.3-0.1l0-0.4l-0.2-0.7l-0.1-0.8l0-0.3  l0.1-0.4l-0.1-0.2l0.2-0.3l0.1-0.4V296l-0.1-0.3l-0.2-0.1l-0.4-0.1l-0.2-0.2l-0.1-0.1l-0.4-0.9l-0.3-0.9l-0.1-0.4l0-0.6l0.1-1  l-0.1-0.3l-0.4-0.1l-0.3,0.1l-0.2,0.2l-0.2,0.3l-0.2,0.5v0.3l0.1,0.3l0.9,1.1l0.1,0.2l0.5,1.4l0.3,0.4l0.3,0.3l-0.1,0.2l-0.2-0.3  l0,0.2l0.1,0.4l0.1,0.1l-0.1,0.3l-0.1,0.1l-0.2,0h-0.3l-0.2-0.1l-0.3-0.5l-0.1-0.1l-0.4-0.2l-0.2,0.1l0.2,0.4l-0.1,0.1l0,0.1l0,0.1  l0.3,0.4l0.3,1.4l0.3,0.3l0.2,0l0.1,0.1l0,0.2l0,0.8l0.1,0.3l0.1,0.2l0.1-0.1l0.1,0l0,0l0,0l0.1,0l0,1l0.6,1.2l0.8,0.9h0.5l0.2,0  l0.1-0.1l0.1-0.1l0.1-0.2l-0.1-0.3L-327.9,303.8z M-329.1,305.6l-0.6-0.8l-0.1-0.2l-0.1-0.6l-0.1-0.4l-0.1-0.2l0.1-0.6l-0.3-0.3  l-0.4-0.2l-0.3-0.2l0,0.4l0.1,0.7l0.1,0.3l0.4,0.8l0.1,0.5l-0.3,0.4l0.1,0.1l0,0h-0.1v0.1l0.2,0.2l0.2,0l0.2-0.1l0.1-0.2l0.3,0.1  L-329.1,305.6l0.4,0.7l-0.1-0.1l-0.4-0.1v0.2l0.2,0.1l0.6,0.7l0.4,0.4l0.4,0l-0.1-0.5L-329.1,305.6z M-312.3,321l-0.1-0.3l-0.1-0.2  l-0.1-0.1l-0.2-0.1l-0.1-0.1l0-0.1l0-0.4l0-0.1l-0.1,0l-0.5-0.1l-0.9-0.7l-0.3-0.1h-0.3l0.1,0.3l0.5,0.5l0.1,0.3l0.1,0.2l0.3,0.2  l0.3,0.2l0.2,0.1l0,0.1l-0.1,0l0.1,0.2l0.2,0.1l0.4,0.1l0.1,0.1l0,0.1l0.1,0.1l0.1,0h0.1l0.1,0l0.1,0l0.1,0.1l-0.1-0.3L-312.3,321z   M-316.3,321.4l0.4-0.1l-0.1-0.3l-1.2-0.9l-0.5-0.7l-0.1-0.1l-0.3,0l-0.2-0.1l-0.8-0.9l-0.2-0.2l-0.1-0.3l0-0.3l-0.1-0.2l-0.1-0.2  l-0.2,0l0-0.1l0.1-0.2l-0.2,0.1l-0.1-0.1l-0.1-0.1l-0.2-0.1l-0.1-0.1l-0.1-0.2l-0.1-0.2l-0.1-0.2l-1-0.7l-0.3-0.4h-0.1l-0.1,0  l-0.1,0l0.2,0.3l0.1,0.2l0,0.3l1.4,1.6l0.5,0.2l0.3,0.3l0.7,1.4l0.4,0.5l0.7,1l0.3,0.3l0.3,0.2l0.6,0.4l0,0.1l0.1,0.2l0.2,0.1  l0.1-0.1l0-0.2l-0.1,0l-0.1,0l-0.1-0.1l-0.1-0.1l-0.4-0.3l-0.1-0.1l0-0.1l-0.1-0.1l0.2-0.1L-316.3,321.4z M-323.7,303.4l1.8,2.2  l0.2,0.1v0.2l0.5,0.7l0.2,0.4l-0.2,0l-0.1,0.1l-0.1,0v0.1l0.9,0.5l0.1,0l1,0.9l0.3,0.6l0.2,0.2l0.1,0l0.3-0.1l0.1,0l0.2,0l0.4,0.3  l-0.1,0.2l-0.1,0.1l-0.1,0l-0.2,0l0.2,0.3l0.1,0.1l0.1,0.1v0.2h-0.2v0.2l0.3,0.4l0.3,0.3l0.3,0.2l0.4,0.1v-0.2l-0.7-0.5v-0.1l0.4,0  l0.7,0.3l0.4,0.1l-0.1,0l-0.1-0.1l0-0.1l0-0.1h0.3l-0.2-0.3l-0.3-0.3l-0.3-0.2l-0.3-0.1v-0.2l0.4,0.2l0.4,0.3l0.4,0.2l0.3-0.1  l-0.2-0.3l-0.5-0.4l-0.2-0.3l-0.4-0.2l-1.6-1.7l-0.7-0.4l0.2,0.5l0.2,0.4l0.3,0.3l0.3,0.2l-0.8-0.6l-1.4-2l-0.9-0.5v-0.2h0.3  l0.2,0.1l0.2,0.1l0.3,0.1l0.7,0.4l0,0.1l-0.1,0.3l0.4,0l0.5,0.4l0.3,0l-0.2-0.4l-0.2-0.4l-0.2-0.3l-0.6-0.2l-0.2-0.3l-0.4-0.6  l-0.5-0.5l-0.6-0.4l-0.4,0l0.1,0.7l-0.7-0.5l-1.1-1.6l-0.7-0.8l0,0h-0.1l0.2,0.5L-323.7,303.4z M-323.8,301l-0.2-0.2l0-0.1v-0.2  l0.6,0.4l0.8,0.9l0.5,0.4l0.1-0.3l-0.1-0.5l-0.5-0.8l-0.2-0.2l-0.4-0.2l-0.7-0.7l-0.1-0.1v-0.1l0.3-0.2l0-0.2l-0.2-0.1l-0.3,0  l0.1,0.2l0,0.1l-0.3-0.1l-0.4,0l0.1,0.2l0,0.1l0.2,0.1l0.2,0.2l0.2,0.5h-0.1l-0.1-0.1l-0.3-0.2l0,0.1v0.1l0.1,0.1v0.1l-0.2-0.1  l-0.2-0.1l-0.2,0l-0.2,0l0.7,0.8l0.2-0.1h0.3l0.3,0.1L-323.8,301z M-326.4,294.5v-0.2l0.3-0.1l0.1,0.2l0,0.9l0,0.4l0.1,0.2l0.5,0.2  l0.8,0.6l0.3,0.1l0.3,0l0.3-0.1l0.1-0.2l-0.2-0.2V296l0.2-0.2l0.2,0.1l0.2,0l0.2,0l0.2-0.1h0.1l-0.3-0.7l-1-0.9v-0.7h-0.7l-0.3-0.1  l-0.2-0.2l-0.1-0.5l0.2-0.9l-0.1-0.4l-0.4,0.1l-0.5-0.1l-0.3-0.2l0.4-0.2l-0.2-0.5l-0.3-0.4l-0.1-0.1l-0.1-0.1l-0.1-0.1l0-0.2h0.2  l-0.6-0.3l-0.3,0l-0.2,0.3l0.1,0l0.1,0.1l0,0.2l0,0.3l-0.2,0.2l0,0.2l0.1,0.2l0,0.2l0,0.2l-0.1,0.2l-0.2,0.3l0.1,0.3l-0.3,0.1  l-0.6,0l-0.1,0.1l0,0.2v0.2l-0.1,0.1h-0.2l-0.2,0l-0.1,0.1l-0.1,0.2l0.2,0.4l0.4,0.4l0.4,0.3l0.4,0.1l1.4,0.2l0.4,0L-326.4,294.5z   M-315.6,318.3l0.2,0.2l-0.1-0.7l-0.4-0.5l-2.7-2.2l0.1,0.4l0.1,0.1l-0.1,0h0v0l0,0.1l0.3,0.2l0.6,0.7l0.4,0.4l0.4,0.4l0.3,0.3  l0.2-0.3l0,0.1l0,0.1l0,0.1l0,0.1h0.1l0.2-0.1l0.2,0.2L-315.6,318.3z M-245.2,289.9l-0.3-0.1l0-0.1l-0.2-0.4l-2.8-0.7l-0.6-0.2  l-0.6-0.3l-0.4-0.5l0-0.1l0-0.1v-0.3l-0.1-0.2l-0.1,0l-0.1-0.1h-0.7l-0.3-0.1l-0.3-0.2l-0.2-0.3l0,0l-0.2-0.4l0.7-0.3l0.2-0.1  l0.1-0.1l0.1-0.1l-0.1-0.3l-0.3-0.3l-0.2-0.2l0-0.2l-0.1-0.3l0.2-0.6l0.5,0.1l0.7,0.1l0.5-0.5l-0.2-0.3l-0.2-0.1l0,0l-0.2,0  l-0.1-0.1l-0.1-0.1l-0.1-0.1l-0.1-0.1l-0.1-0.1l0,0l0-0.1v0l-0.1-0.2l-0.1-0.1l0,0l-0.1,0l0,0l-0.1,0.1l-0.3,0.1l-0.2,0.2l-0.2,0.1  l0,0h-0.3l-0.1-0.1l-0.1-0.2l-0.2-0.3l-0.1-0.1l0-0.1l0-0.1l0-0.3v-0.1l0.1-0.4l0.1-0.1l0.1-0.1l0.1-0.1l0,0l0.1-0.1l0.4-0.5  l0.1-0.2l-0.1-0.3l0-0.1l-0.2-0.2l-0.3-0.2l0,0l-0.2-0.1l-0.1-0.3l0,0l-0.1-0.7l-0.1-0.4l-0.4-0.4l-0.1-0.1l0,0l-0.1-0.2l-0.3-0.3  l-0.1-0.2l0-0.1l0,0l0,0l0-0.1l0-0.1l0-0.4l0-0.3l0.5,0l0.2,0l0.1-0.2l0-0.1v0l-0.2-0.2l-0.3-0.2l0,0l0.1-0.1l0.1-0.1l0.1-0.1  l0.3-0.2l-0.1-0.2l0-0.2l-0.3,0l-0.2,0.2l-0.2,0.1l-0.3,0.1l-0.3,0.2h-0.2l-0.2-0.2l-0.2,0.3l-0.1,0.2l-0.1,0.2l-0.2,0.1l-0.2,0  l-0.7-0.4l-0.8-0.3l-0.3,0.1l-0.4,0.4l-0.1,0.1l0,0.3l0,0.2h0l-0.3,0.3l-0.4,0.7l-0.2,0.3l-0.7,0.6l-0.4,0.2l-0.4-0.2l-0.3,0.2  l-0.6,0.7l-0.3,0.3l-0.1,0h-0.2l-0.1,0l-0.3-0.4h-0.3l-0.3,0.1l-0.3,0.1l-0.3-0.1l-0.3-0.3h-0.4l-0.5-0.4l-0.3-0.1h-1.4l-0.1,0  l-0.3,0.2l-0.2,0.1h-0.2l-1.8-0.5h-1.4l-0.2,0.1l-0.1,0.2l-0.1,0.2l-0.2,0v-0.1l-0.3-0.6l-0.5-0.4l-2.1-0.6l-0.4,0l-0.1-0.1  l-0.1-0.3l0-0.3l-0.1-0.4l0-0.2l-0.1-0.2l-0.8-0.9l-0.6-0.3l-0.7-0.1l-1.4-0.1l-0.2,0.1l0,0.1l-0.1,0.1l-0.1,0.1l-0.1-0.4l-0.2-0.1  l-0.4,0.2l-0.3,0l-0.1-0.1l0-0.2l-0.1-0.4l-0.2,0.3l-0.2,0l-0.2-0.2l-0.3-0.1v-0.2l0.1,0l0.2-0.1l0.1,0l-0.1-0.2l-0.3,0l-0.3-0.1  l-0.1-0.4l0-0.2l-0.2-0.8l-0.1-0.2l-0.7-0.9l-0.2-0.1l-1.4,0l-0.3-0.1l-0.8-0.6l-0.2-0.2l-0.1-0.3l-0.1-0.2l-0.9-0.7l-0.2-0.2  l-0.4-0.8l-0.6-0.7l-0.1-0.1l-0.1-0.1l-0.3-0.9l0.1-0.4l-0.2-0.4l-0.3-0.3l-0.2-0.2h-0.1l0,0.1l0,0.1l-0.1-0.1l-0.1-0.1l-0.1-0.1  l-0.1-0.1l-0.1,0l-0.4-0.1l-0.1-0.1l-0.1,0.3h-0.1l-0.2-0.4l-0.5-0.3l-0.3-0.4l-0.3-0.5l-0.3-0.4l-0.4-0.3l-0.4-0.1l-0.2-0.1l-0.1,0  l-0.1,0.1l-0.1,0.2h-0.1l-0.2-0.2l-0.7-0.4l-0.1-0.1l-0.4-0.3l-0.2-0.1l-0.2,0l-0.4,0l-0.1,0l-0.1-0.1l-0.3-0.3l-0.1-0.1l-0.2,0  l-0.2,0l-0.2,0l-0.2-0.2l-0.1,0.2l-0.1-0.2l-0.2,0.3l-0.3,0.1l-0.3,0.1l-0.5,0.2l-0.5,0.6l0,0.4l0.1,0.3l0.2,0.7l0,0.2l0,0.4l0,0.2  l0.2,0.1l0.3,0.2l0.1,0.1l0,0.3l-0.1,0.1h-0.4l-0.6,0.1h-0.1l-0.3-0.1l-0.2-0.1l-0.4-0.4l-0.2-0.1l-0.2,0l-0.1,0.1l-0.1,0.2  l-0.2,0.1l-0.2,0l-0.6-0.1v0.4l0,0.3v0.3l-0.1,0.3l-0.2,0.3l-0.3,0.2l-0.4,0.2l-0.3,0.1l-0.6,0.1l-1.1,0.6l-0.8,0l-0.3,0.1l-0.3,0.1  l-0.2,0.2l-0.3,0.6l-0.3,0.2l-1.5-0.1l-0.4,0.2l-0.3,0.4l-0.3,0.6l-0.2,0.7v0.6l0.2,0.6l0.5,0.5l0.2,0.1l0.5,0.2l0.2,0.1l0.2,0.4  l-0.1,0.3l-0.2,0.3l-0.1,0.5l0,1.3l0,0.4l-0.1,0.3l-0.1,0.3l-0.1,0.3l0.1,0.3l0.2,0.5v0.3l-0.2,0.3l-0.3,0.2l-0.3,0.1l-0.7,0  l-1.1-0.2l-0.2,0.1l-0.3,0.3l-0.2,0.1l-0.2,0l-0.2-0.1l-0.2,0l-0.2,0.1l-0.1,0.2l0.1,0.3l0,0.2l-0.2,0.2l-2.1,0.7l-0.7,0.4l-0.1,0.2  l-0.1,0.3l0,0.1l0.1,0.1l0.1,0.2l0.2,0.3l0.1,0.1l0.2,0.1l0.2,0.1l0.1,0l0-0.1l0.1-0.1l0.2-0.1l0.1,0l0,0l0.3,0.4l0.3,0.5l0.1,0.2  h-0.3l-0.2,0.1l-0.2,0.1l-0.5,0.2l-0.1,0.2l-0.1,0.2l-0.1,0.1l-0.2,0.1l0,0.2l0.1,0.3l0.1,0.3l0.1,0.6l0.1,0.5l0.4,0.4l0.9,0.6  l-0.2,0.1l-0.3,0.4l-0.1,0.1l-0.2,0h-0.6l-1.6,0.6l-0.8-0.1l-1.4-1.2l-0.8,0l-0.2-0.1l-0.2-0.1l-0.4,0l-0.3-0.3l-0.4-0.3h-0.3  l-0.1,0.5l-0.3,0.6l-0.7,0.3l-0.7-0.2l-0.3-0.7l-1.6-0.7l-0.3-0.3v-0.1l0.1-0.4l0-0.2l-0.1-0.1l-0.1-0.1l-0.1,0l-0.6-0.5l-0.2-0.2  l-0.1-0.3l0-0.3l0-0.4l0-0.4l-0.2-0.1l-0.3,0.1l-0.1,0.2l-0.2,0.5l-0.2,0.3l-0.4,0.5l-0.1,0.2l-0.1,0.3l-0.1,0.6l-0.1,0.3l-0.2,0.4  l-0.7,0.5l-0.3,0.3l-0.7,0.4l-0.8,0.1l-0.8-0.1l-0.7-0.3l-0.4-0.1l-0.4,0.1l-0.8,0.4l-0.4,0.1l-0.4,0l-0.4-0.2l-0.4-0.3l-0.2-0.2  l-0.2-0.1l-0.7-0.1l-0.1,0.1l-0.1,0.2v0.3l0.4,0.4l-0.2,0.3l-0.8,0.3l-0.3,0.2l-0.1,0.2l-0.2,0.1l-0.9-0.1l-0.3-0.1l-0.2-0.2  l-0.8-0.5l-2.2,0.1l-0.7-0.7l-0.4,0l-0.8-0.4l-0.2-0.1h-0.1l-0.1,0.3l0,0.4l0.3,0.6l0,0.2l0,0v0l0.1,0.1l0,0.1l-0.1,0l0,0l0.5,1.5  l0.2,0.2v0.1l-0.2,0.1v0.3l0.1,0.3l0.2,0.2l0.1,0l0.4,0l0.2,0.1l-0.3,0.2l-0.1,0.1l-0.2,0l0.1,0.2l0.1,0.1l0.1,0.1l0.2,0.1v0.1h-0.2  l-0.1,0.1l-0.1,0.1l-0.1,0.1l0.2,0.1l0.1,0.2v0.2l-0.1,0.2l0.1,0.2v0.2l-0.1,0.2l-0.1,0.1v0.1l0.1,0.1l0.1,0.1v0.1l-0.1,0.2l0.2,0.1  l0,0.1l0,0.2l0,0.3l0.1,0.2h0.2l0.4-0.1l0.8,0l0.4,0.1l0.3,0.1l-1.5,0.1l-0.4,0.3l0.4,0.6l-0.1,0.1l-0.1,0.2l-0.1,0.2l0.3,0.1  l0.3,0.2l0.2,0.2l0.1,0.1l0.9,1.2l0.7,0.7l0.4,0.9l0.2,0.2l-0.1,0.1l-0.1,0.2l-0.1,0.1v0.2l0.2,0.2l0.2,0l0.5-0.1l-0.1,0.4l-0.2,0.1  l-0.3-0.1l-0.2-0.3l-0.1,0.1l0.2,0.3l0.3,0.2l0.3,0.1l0.2,0l0.1,0.2l-0.1,0.2h0.1l0.1,0l0.1,0l0,0.1l0,0.2l0,0.1l0.2,0l0.5,0.2  l0.1,0.1l0,0.3v0.4l0.1,0.2l0.3-0.1l-0.1-0.1l-0.2-0.4l0.1-0.2l-0.1-0.2l-0.2-0.1l-0.2-0.1l0.1-0.2l0.1,0.1l0.2,0l0.1,0l0.1,0.4  l0.1-0.1v0l0-0.1l0.3,0.1l0.3,0l0.6,0l-0.1-0.2l-0.1-0.1l-0.1,0h-0.2l0.1-0.2v-0.1l0,0l0-0.2l0.1-0.3l0.1-0.1l0.1-0.1v-0.2h-0.1  v-0.1h0.1l-0.1-0.3l-0.1-0.1l-0.1-0.1h0.3l0.4-0.1l0.2,0.1l0-0.1v0l0,0h0.1v-0.2l-0.1-0.1v-0.1l0.1,0l0.1,0l0.1-0.2l0-0.2l0-0.2  l-0.1-0.2h0.1l0.1,0.1l0.1-0.1l0.2-0.5l0.2-0.2l-0.1-0.2l-0.1-0.1l-0.2,0l-0.2-0.1l-0.1-0.2l0.1-0.4l-0.1-0.3l0.2,0l0,0.1l0,0.2  l0,0.2l0.4,0.3l0.1,0.4l-0.1,0.2l-0.1,0.2l0,0.5h0.1l0.1-0.2l0.1-0.2l0.2-0.2l0.2-0.1l0.2,0l0.1,0.1l0.1,0l0.2-0.1l0.2-0.4l0-0.6  l-0.1-0.5l-0.3-0.3v-0.1l0.1,0l0.1,0l0.1,0l-0.1-0.4v-0.2l0.1-0.2l0.1,0.2l0.3-0.3l0.2-0.3l0-0.4l-0.3-0.3l0.5,0.2l0.4-0.6l0.3-0.9  l0.2-1.7l0.2-0.8l0.3-0.7l0.4-0.6l0.3-0.2l0.3,0.1l0.3,0.2l0.7,0.2l1.8,0.9l0.2,0.3l0.1,0.1h0.2l0.1-0.1l0.1-0.2l-0.1,0l-0.3-0.4  l0.6,0.4l0.2,0.2l-0.2,0.2l0.1,0.3l0.3,0.3l0.2,0.1l0.9,1.2l1.8,1.4l1,0.6l0.3,0.2l0.2,0.3l0.1,0.4l1,2.3l0.1,0.5l-0.1,0.4l-0.1,0.4  l-0.4,1.5l0,0.4l0,1.3l0.1,0.5l0.1,0.4l0,0.4l-0.2,0.3l0.3,0.8l1.7,2.7l0.1,0.2h0.1l0.6,0.4l0.1,0.1l0.5,0.2l0.5,0.5l0.8,1.1  l2.6,2.7l1.7,0.8l0.1,0.1l0.5,0.7l0.1,0.1l1.1,0.2l0.2,0.2l-0.1,0.3l-0.4,0l-1.3-0.2l-0.3-0.1l-1.2-0.7l-0.5-0.2l-0.5-0.4l-0.3-0.1  l0.1,0.3l0.2,0.3l0.2,0.2l0.2,0.1l-0.1,0.1l0,0.1l-0.1,0.1l-0.2,0l0.2,0.8l-0.3,0l-0.2-0.1l-0.4-0.5l-0.8-0.6l0,0.1l0.1,0.3h-0.1  l-0.1-0.1l0,0l-0.1,0l0.4,0.3l-0.2,0.4l-0.4,0.2l-0.2-0.3l-0.1-0.4l-0.3-0.1l-0.3,0.2l-0.2,0.3l0.4,0.2l0.3,0.4l0.1,0.5l-0.3,0.4  l0.9,0.9l0.3,0.2l-0.1,0.2l0.1,0.2l0.2,0.1l0.2,0.1l0.8,0.8v0.1l0.7,0.9l0.3,0.1l0.3,0.3l0.4,0.6l0.9,1.1l0.1,0.2l0.1,0.2l0.1,0.1  l0.2,0.1l0.1,0.1l0.1,0l0.3,0l0.3,0.1l0.2,0.3l0.3,0.5l0.5,0.4l1.1,0.6l0.4,0.4l0,0l0,0h0.1l0.1,0.1v0.2l-0.3,0l-0.3-0.1l-0.5-0.2  l0.3,0.3l0.4,0.1l0.4,0.2l0.2,0.5l0.2,0.3l1.1,0.1l0.4,0.1l0.2,0.2l0.7,0.4l0.1,0.1l0.2,0.4l0.1,0.1l0.1,0l0.2,0h0.2l0.2,0.2  l0.4,0.4l0.1,0l0-0.4l0.2,0.2l0,0.2l-0.1,0.2l-0.2,0.1l0.2,0.1l0.1,0.2l0,0.1l-0.2,0.1l-0.1,0l-0.1-0.1h-0.2l-0.2,0.1h0.3l0.8,0.1  v0.2l-0.6,0l-0.2,0.1l0.1,0.3l-0.1,0.2l0.1,0.1l-0.1,0.2l0.1,0l0.2,0.1l-0.1,0l-0.1,0.1l-0.1,0v0.1h0.3l0.1,0.1l0,0.2l-0.3,0  l0.4,0.1l0.1,0.1l0.1,0.2l0.1-0.1l0.1,0l0.3,0l-0.1,0.2l0,0.1l0,0.1l-0.1,0.2l-0.1,0.1h-0.1l-0.1,0l0,0.3h0.1l0,0v-0.1l0.1,0.2h0.4  l0.2,0.2v-0.2h0.1l0.2,0.2l0.2,0.1l0.4,0l0.6,0.2l0.2,0l0-0.3h1l-0.1-0.3l-0.2-0.2l-0.6-0.1V330l2.1,0l0.7-0.2l0.3,0l0.1,0l0.3-0.2  l0.2-0.1l1.6,0l0.4,0.1l0.3,0.2l-0.3,0.2l-0.4,0.2l-0.4,0.1h-0.3v0.1h1.3l0.6,0.1l0.1,0l0.1-0.1l0.1,0l0.1,0l0,0.1l0,0.1l0,0.1  l1.6,1.1l1.1,0.3l1,0.4l2.2,0.3l0.1,0.1l0.1,0.2l0.2,0.2l0.5,0.3l1.6,2.1l0.1,0l0.2,0.1l0.1,0l0,0.1l0.1,0.3l0,0.1l0.2,0.3l0.1,0.1  l0.1,0.1l0.2,0l0.2,0.1l0.1,0.1l0.1,0.3l0.1,0.1l0.3,0.1l0.6,0.5l2.4,1.3l0.9,1.2l0.6,0.5l0.4-0.3l0,0.1l0.1,0.2l-0.1,0.1l0.1,0.2  l0,0.1l0.2,0h0.2l-0.3,0.3l-0.1,0.1l0.3-0.1l0.3-0.2l0.3-0.1l0.2,0.1l-0.4,0.2l-0.1,0.2l0.1,0.3l0.2,0.4l0.2,0.2l0.3,0.3l0.3,0.2  l0.3-0.1l0.5,0.3l0.9-0.2l0.3-0.2l0.2-0.1v-0.1l0-0.5l-0.1-0.3l-0.4-0.9l0-0.1l-0.6-0.8l-2.5-1.6l-0.1-0.2l-0.1-0.1l-0.2-0.4  l-0.1-0.2l-0.1-0.2l-0.1-0.2l-0.2-0.2l-0.3-0.2l-0.1-0.1l-0.6-0.5l-0.7-1l-0.1-0.4l-0.3-0.7l0.2-1.4l0.1-0.5l-0.2-0.5l0-0.1  l-0.4-0.3l-0.2-0.1l-1.6-0.3l-1-0.6l-0.9-0.8l-0.6-0.7l-0.2-0.3l-1.1-1.1l-1.6-1.6l-0.7-0.6l-1.2-0.9l-0.2-0.4l-0.1-0.3l-0.1-0.2  l0-0.2l0-0.2l0-0.1l-0.1-0.2l-0.7-0.6l-0.2-0.3l-0.4-0.5l-0.4-0.4l-0.4-0.4l-0.6-0.9l0,0l-0.3-0.3l-0.2-0.2l-0.1-0.1l-0.7-0.2  l-0.1,0l0-0.1l-0.1-0.2l-0.1-0.3l0-0.1l0-0.1l-0.2-0.3l-0.1,0l-0.1,0l-0.4,0h0l-0.1,0l-0.2-0.1l-0.1-0.1l-0.1,0l-0.3-0.3l-0.1-0.1  l-0.2-0.3l-0.4-0.9l-0.1-0.2l-0.2-0.3l-0.7-0.8l-0.3-0.4l-0.1-0.5l-0.2-0.6l-0.2-0.7v-0.3l0-0.3l0.1-0.2l0.1-0.2l0-0.1l0-0.1l0-0.3  l0-0.1l0-0.1l0-0.2l-0.1-0.1l0,0l-0.3-0.2l-0.1,0l-0.3-0.1h-0.2l-0.1,0.1v-0.2l0.1-0.1l0,0l0.1-0.1l0.1-0.1l0-0.1v-0.4l-0.1-0.4  l-0.4-1.2l-0.1-0.5l-0.1-0.4l-0.2-0.3l-0.2,0l-0.2,0l-0.2,0.1l-0.4,0.2l-0.3,0h0l-0.3-0.4l0.1-0.4l0.3-0.4l0.1-0.3v0l0.1-0.1l0,0  l0-0.2l0-0.1l0-0.1l0-0.1l-0.1-0.2l-0.2-0.1l-0.2,0l-0.2,0l-0.1,0l-0.1,0l-0.1-0.1l-0.1,0l-0.2-0.3l0,0l0-0.2l-0.1-0.4l-0.1-0.2  l0-0.1h-0.1l-0.1,0.1l-0.1,0l-0.1-0.1l0-0.1l0-0.1v-0.1l0-0.2l-0.1-0.2l-0.1-0.1l-0.2,0l-0.1,0.1l-0.1,0.2l-0.1,0.2l-0.1,0l-0.3,0  l-0.2,0.1l-0.3,0l0,0l-0.1-0.1l-0.1-0.2l0-0.1l0-0.1l-0.1-0.1l-0.3-0.2l-0.1,0l-0.1-0.1l-0.4-0.7l-0.2-0.4v-0.4l0.2-0.3l0.4-0.1  l0.3-0.1l0.1-0.4v0l-0.1-0.4l-0.3-0.4l-0.2-0.5l0-0.2l0-0.4l0.1-0.4l0.4-0.7l0.1-0.4l-0.1-0.6l0-0.2v-0.4l0.2-0.5l0.2-0.5l0.1-0.4  l-0.1-1.4l0-0.2l0.2-0.5l0.4-0.4l0.1-0.1l0.2,0l0.7-0.1l0.6,0l1.1,0l0.4-0.1h0.2l0.2,0.1l0.1,0.2v0.2l-0.1,0.2v0.1l0.1,0.1l0,0  l0.4,0.1l0.2,0.2l0.2,0.3l0.1,0.1l0.1,0.4l0.2,0.6l0.3,0.4l1.2,1.2l0.3,0.3l0.3,0.2l0.2,0l0.2,0.1l0.5,0.2l0.6,0.1l0.4-0.1l0.1-0.4  l0.1-0.6l0.3-0.5l0.1-0.2l0-0.1l0-0.1l0-0.3l0-0.1v-0.1l0.1-0.1l0.1-0.1l0.1-0.1l0.4-0.1l0.2-0.1l0.2-0.4l0.6-1.2l0.8-0.5l0.5,0  l0.5,0l1.7,0.5l1.7,0.5l0.3,0l0.2,0l0,0l0.2-0.2l0-0.1v-0.3l0-0.1l0.1-0.2l0.1-0.1l0,0l0.1-0.1l0,0l0.1-0.1l0,0l0.1-0.2l0-0.1  l0.1-0.1l0,0l0.2-0.2l0.1-0.2l0-0.1v0l0.5-0.4l0,0l0.1,0.1l0.1,0.2l0.1,0.3l0,0.1v0.3l0.1,0.1l0,0l0.4,0l0-0.2l0-0.1l0,0l0.1,0  l0.1,0l0.2,0.3l0.1,0.1l0.1,0.1l0.2-0.3l0.1,0.2l0,0.2v0.1l0,0.1l0,0.1l0.1-0.1l0.1-0.1l0.1-0.1l0,0l0,0l0.3,0.7l0.3,0.2l0.5,0.4  l0.6,0.3l0.9,0.4l0,0l0.1-0.1l0.7,0h0.1l0.1-0.1l0.3-0.7l0.7,0.4l0.2,0.1l0.1,0l0.6,0.4l0.1,0.1l0.1,0.1l0.1,0.1l0.1,0l0.2,0  l0.5-0.2h0v0l0-0.1l0-0.2l0.1-0.1l0.1,0.1l0.1,0.2l0,0.1l0,0.1l-0.1,0.1l0,0l0.2,0.1l0.2,0l0.1-0.1l0.3-0.1l-0.1,0.5l-0.1,0.2l0.1,0  l0.9-0.1l0.4,0l0.2,0l0.3-0.2h0l0.6-0.7l0.4-0.2l0.4,0h0.2l0.5,0.3l0.4,0.4l1,1.2l0.1,0.1l0.2,0.2l0.2,0.1l0.1,0.1h0l0.1,0l0.3-0.1  l0.2-0.1l0.5-0.1l0.1-0.1l0.3-0.3l1-1.2l0.3-0.1h0.3l0.2,0.1l0,0l0.2,0.1l0.8,0.7l0.4,0.2l0.3,0.1h0.4l0.4-0.1l0.1-0.1l0.1-0.1  l0.1-0.3v-0.3l0-0.3l0.2-0.2h0l0.4-0.1l0.4,0.2l0.2,0.2l0.6,0.4l0.3,0.1l1.2,0.1l0.2,0.1l0.1,0l0.2,0.1l0.2,0.1l0.6,0.7l0.1,0.1  l0.1,0.1l0.1,0.1l0.4,0.2l0.4,0v0l0-0.3l0-0.1l0-0.2v-0.2l0.3-0.1h0.1l0.2,0l0.1,0h0.1l0.1,0l0.2-0.1h0l0.1,0l0.1,0l0,0l0,0l0,0.1  l0.1,0.2l0,0.1l0.1,0.1l0,0.1l0.1,0.1l0,0.1l0.2,0.1l0.1-0.1l0-0.1l0-0.1l0-0.1l0-0.1l0-0.1l0.1-0.1h0.1l0.1,0l0,0l0.1,0.1l0.6,1.3  l0.1,0.2l0.1,0.1l0.2,0.1l0.3,0l0.1,0l0.1,0l0.1,0l0,0l0,0l0,0.1l0,0.1v0.3l0,0.1l0.1,0.1l0,0l0,0v0l0,0.1l0,0.2l-0.1,0.1l-0.2,0.2  l-0.1,0.2l0,0.1v0l0.2,0.7l0.3,0.3l0.3,0.4l0.2,0.1l0.5,0.3l0,0l0.5,0.2l2,0l0.2,0l-0.1-0.2l-0.2-0.4l0-0.5l0.4-0.3l0.2,0.1l0.3,0.4  l0.2,0h0l0.2-0.1l0.1-0.2l0.3-0.4l0.1,0l0.1-0.1l0.2-0.1l0.1-0.1l0,0l-0.1-0.4l-0.1-0.2l-0.3,0.1l-0.2-0.2l0,0l0-0.2l0.1-0.3  l0.1-0.3l0-0.2l0-0.3l-0.2-0.7l0-0.4l0-0.2l0-0.2l0-0.1l-0.1-0.2l0,0l-0.1-0.1l-0.1-0.1l0,0l-0.1-0.2l0-0.2l0.2-0.2l0,0l0.3,0  l0.6,0.1l0.4-0.1l0.1-0.4l-0.1-0.2l-0.1-0.2l-0.1-0.4l0.1,0l0.3-0.1l0.2,0.1l0.2,0.2l0.1,0.2l0.2,0.2l0.3,0.1l0.4,0l0.3,0l0.4,0h0  l0,0l0-0.1l0,0l0.1-0.1h0l0.1,0l0.1,0l0.1,0.2l0,0l0,0l1.5-0.1l0.2-0.3l0-0.5v-0.1L-245.2,289.9z"/></svg>