<svg xmlns="http://www.w3.org/2000/svg" xmlns:xlink="http://www.w3.org/1999/xlink" version="1.1" x="0px" y="0px" viewBox="0 33 100 42.5" fill="#999999" enable-background="new 0 33 100 34" xml:space="preserve"><path d="M33.022,48.4l-0.077,0.029l-0.289,0.186l-0.134,0.119l-0.056,0.171l-0.045,0.077l-0.11,0.08L32.178,49.1l-0.122-0.056  l-0.104-0.03l-0.088,0.11l-0.087,0.146l-0.102,0.074l-0.259-0.041l-0.087,0.051l0.001,0.191l0.306-0.027l0.286-0.125l0.731-0.488  l0.379-0.348l0.039-0.022l0.027-0.032l-0.021-0.063L33.022,48.4z M86.643,57.764l0.094,0.125l0.146,0.074l0.163,0.025l0.308,0.085  l0.172,0.002l-0.031-0.12l-0.075-0.109l-0.132-0.251l-0.083-0.075l-0.112-0.015l-0.455,0.082L86.643,57.764z M61.072,59.75  l-0.108-0.063L60.88,59.72l-0.026,0.152l-0.156-0.074l-0.086-0.075l-0.135-0.186l-0.101-0.102l-0.135-0.104l-0.146-0.033  l-0.131,0.104l0.329,0.164l0.167,0.119l0.121,0.267l0.119,0.058l0.137,0.04l0.107,0.062l0.168,0.121l0.1-0.032l0.021-0.136  l-0.063-0.191L61.072,59.75z M65.628,42.75l0.103,0.148l-0.068,0.135l0.371,0.572l0.234,0.246l0.221-0.006l-0.133-0.176  l-0.166-0.152l-0.145-0.166l-0.117-0.427l-0.146-0.245l-0.204-0.164l-0.227,0.036l0.113,0.068L65.628,42.75z M60.217,58.189  l-0.183-0.056l-0.093,0.005l-0.099,0.051l-0.019-0.031l-0.002-0.01l-0.049-0.021l-0.135,0.119l-0.32,0.071l-0.112,0.084l0.161,0.05  l0.148,0.079l0.147-0.098l0.433-0.104L60.217,58.189z M37.159,33.165l0.046,0.069l0.104,0.043l0.11,0.017l0.103,0.033l0.106,0.018  l0.071-0.081l-0.03-0.087l-0.043-0.015l-0.063,0.003L37.31,33.01l-0.21,0.024l-0.063,0.059l0.082,0.028L37.159,33.165z   M37.91,33.581l0.089,0.022l0.264,0.097l0.1,0.007l0.171-0.02l0.063,0.013l0.11,0.032l0.195,0.091l0.038-0.025l0.041-0.063  l0.065,0.004l0.069,0.037l0.054-0.019l0.009-0.063l-0.014-0.027L38.586,33.6l-0.323-0.072l-0.259-0.098l-0.18-0.021l-0.037,0.055  l0.053,0.025L37.91,33.581z M39.271,33.895l0.02-0.066l0.069-0.039l0.105,0.021l0.048-0.014l0.01-0.07l0.028-0.01l0.041,0.006  l0.023-0.07l-0.021-0.077l-0.024-0.031l-0.084,0.021l-0.16,0.063l-0.093,0.108l0.006,0.128L39.271,33.895z M41.517,34.398  l0.126-0.034l0.141-0.062l0.088-0.07l0.238-0.03l0.072,0.005l0.075-0.02l0.017-0.043l-0.128-0.023l-0.104-0.001l-0.214,0.019  l-0.067,0.002l-0.133,0.02l-0.046,0.056l0.016,0.089l-0.083-0.01l-0.035,0.02l0.022,0.066L41.517,34.398z M43.011,34.439  l0.016,0.021l0.016,0.047l0.041,0.017l0.138,0.078l0.073,0.026l0.037,0.074l0.044,0.069l0.063,0.045l0.053-0.004l0.048-0.059  l0.012-0.066l-0.037-0.065l-0.023-0.032l-0.058-0.078l-0.136-0.121l-0.064-0.07l0.001-0.055l-0.08-0.023l-0.069,0.007l-0.067,0.013  l-0.091,0.061l0.025,0.08L43.011,34.439z M44.962,35.281l0.074,0.012l0.062-0.014l0.038-0.004l0.043,0.047l0.052,0.076l0.025-0.025  l-0.037-0.132l-0.035-0.074l-0.03-0.081l-0.112-0.119l-0.1,0.024l-0.017,0.118l-0.016,0.057l-0.031-0.007l-0.003,0.022l0.032,0.055  L44.962,35.281z M47.11,36.247l-0.021,0.05l-0.057,0.047l-0.028,0.061l0.061,0.091l0.106,0.065l0.106-0.015l0.069-0.073  l-0.016-0.057l-0.078-0.014l-0.042-0.058l0.065-0.071l0.11-0.034l0.056-0.048L47.43,36.12l-0.072-0.103l-0.113-0.035l-0.209,0.056  l-0.093,0.149l0.086,0.047L47.11,36.247z M48.418,37.127l0.064,0.018l0.051-0.008l0.036,0.021l0.026,0.031v0.07l0.065,0.064  l0.143-0.025l0.083-0.089l-0.051-0.069l-0.127-0.072l-0.053-0.06l-0.058-0.085l-0.178-0.039l-0.065-0.021l0.026-0.16l-0.063-0.111  l-0.049,0.033l-0.007,0.085l0.019,0.063l-0.115,0.031l-0.011,0.101l0.083,0.097L48.418,37.127z M53.025,39.344v0.067l0.063-0.001  l0.154-0.102l0.117-0.101l-0.358,0.017l-0.08,0.032l0.074,0.031L53.025,39.344z M57.16,40.462l0.082,0.002l0.169-0.057l0.022-0.063  l0.068-0.109l0.006-0.063l-0.066-0.033l-0.021,0.028L57.41,40.24l-0.087,0.013l-0.13-0.037l-0.055,0.019l0.004,0.164L57.16,40.462z   M28.625,48.945l-0.062,0.02l-0.277,0.121l-0.027,0.02l0.037,0.004l-0.037,0.061l-0.125,0.1l-0.152,0.017l-0.1-0.108l-0.026-0.016  l0.031,0.133l0.124,0.128l0.163-0.002l0.288-0.235l0.161-0.103l0.138-0.11l-0.012-0.052L28.625,48.945z M27.436,49.102l-0.016,0.016  l-0.012,0.044l-0.032,0.069l-0.083,0.082l-0.104,0.049l-0.11,0.006l-0.263,0.103l-0.058,0.046l-0.068,0.076l-0.087,0.053  l-0.101,0.028l-0.185,0.155l-0.112,0.04l0.039,0.028l0.2-0.008l0.13-0.039l0.035-0.043l0.049-0.031l0.062-0.018l0.27-0.136  l0.367-0.136l0.156-0.133l-0.008-0.174L27.436,49.102z M58.218,58.789l-0.028,0.01l-0.015,0.053l0.091,0.061l0.143-0.008  l0.013-0.057l-0.129-0.043L58.218,58.789z M58.861,58.82l0.006,0.027l0.006,0.014l0.007,0.033l-0.224-0.041l-0.047-0.024  l-0.041,0.028l0.018,0.041l0.051,0.033l0.049,0.049l0.064,0.023l0.077-0.007l0.067-0.047l-0.002-0.091L58.861,58.82z M21.297,46.064  l-0.212,0.055l0.095,0.169l0.256,0.11l0.252-0.012l0.108-0.046l-0.152-0.12L21.297,46.064z M22.506,39.402l-0.014-0.039  l-0.036-0.075l-0.044-0.042l-0.035,0.009l0.005,0.054l0.023,0.082l-0.021,0.627l0.043,0.041l0.038-0.063l0.048-0.065l0.054-0.177  l-0.028-0.229L22.506,39.402z M31.449,45.172l-0.021-0.137l-0.064-0.075l-0.044-0.03l-0.096-0.05l-0.103-0.024l-0.059,0.039v0.082  l0.023,0.074l0.041,0.063l0.057,0.016l0.096-0.008l0.097,0.059L31.449,45.172z M12.905,45.998l-0.141-0.049l-0.275-0.055  l-0.092,0.051l0.141,0.063l0.208,0.013l0.18-0.006l0.05-0.018l-0.047-0.003L12.905,45.998z M22.026,49.457l-0.074-0.125l0.065-0.117  v-0.072l-0.128-0.019l-0.111-0.054l-0.209-0.133l0.047-0.084l0.018-0.084l-0.015-0.086l-0.05-0.082h0.069l0.104-0.188l0.049-0.115  l-0.001-0.076l-0.05-0.092l-0.047-0.124l-0.061-0.108l-0.094-0.047l-0.123,0.006l-0.416-0.338l-0.135-0.16l-0.008-0.112l0.049-0.122  l0.031-0.184l-0.05-0.154l-0.125-0.109l-0.165-0.07L20.08,46.46l-0.752-0.187l-1.207-0.146l-0.086,0.064l-0.06,0.022l0.005,0.019  l0.111,0.058H18.2l0.101,0.021l0.101,0.047l-0.152,0.033l-0.212,0.107l-0.186,0.13l-0.08,0.104l-0.051,0.129l-0.392,0.309  l-0.097,0.425l0.112,0.395l0.794,1.393l0.108,0.104l0.275,0.047l0.046,0.113L18.4,49.953l-0.063-0.061l0.087-0.14l-0.01-0.101  l-0.048-0.06l-0.029-0.009l-0.03,0.078l-0.07,0.063l-0.146,0.098l-0.258,0.223l-0.031,0.041H17.42l-0.155-0.029l-0.178-0.084  l-0.146-0.117l-0.06-0.137l-0.466-0.341l-0.102-0.103H16.25l0.021,0.101l0.105,0.244l0.063,0.271l0.085,0.188l0.097,0.113  l0.26,0.172l0.114,0.104l0.301,0.4l0.085,0.04l0.332-0.006l0.108,0.027l0.181,0.078l0.089,0.028l0.605,0.012l0.084,0.093  l0.109,0.041l0.653-0.072l0.706-0.254l1.181-0.597l0.174-0.032l0.167-0.076l0.215-0.178l0.189-0.201l0.094-0.151l-0.11-0.058  L22.026,49.457z M64.218,42.773l-0.014,0.36l-0.029,0.161l-0.079,0.163l-0.119,0.128l-0.149,0.057l0.089,0.153l0.294,0.21  l0.063,0.148l0.067,0.054l0.323,0.194l0.12,0.054l-0.079-0.25l0.154-0.081l0.195,0.07l0.038,0.199l0.073,0.086l0.021,0.039  l0.031,0.076l0.04-0.02l0.106-0.028l0.042-0.021l0.102,0.104l0.14-0.168l0.207-0.415l-0.098-0.062l-0.188-0.041l-0.1-0.032  l-0.066-0.052l-0.067-0.065l-0.079-0.06l-0.107-0.027l0.127-0.063l0.168-0.037l0.102-0.073l-0.074-0.171l-0.068,0.104l-0.092,0.016  l-0.092-0.061l-0.07-0.121l-0.053,0.04l-0.047,0.046l-0.041,0.057l-0.037,0.061l0.121,0.075l-0.137-0.013l-0.066-0.075l-0.041-0.101  l-0.064-0.09l-0.11-0.035l-0.229,0.033l-0.08-0.035l-0.055-0.162l0.063-0.125l0.102-0.1l0.053-0.092l-0.045-0.141l-0.113-0.088  l-0.145-0.049l-0.14-0.021l0.103,0.171L64.218,42.773z M58.146,40.134l-0.099-0.045l-0.084,0.021l-0.032,0.197l-0.086-0.041  l-0.035-0.027l0.025,0.339l0.148-0.082l0.188-0.142l0.144,0.156l-0.135,0.109l0.164,0.111l0.266,0.084l0.384,0.07l0.253,0.178  l0.209,0.064l0.42,0.007l0.25-0.032l0.182-0.08l0.123-0.062l0.076,0.045l0.031,0.097l-0.008,0.094l-0.038,0.012l-0.063-0.014  l-0.062-0.004l-0.026,0.035l-0.007,0.078l-0.019,0.04l-0.023,0.025l-0.021,0.028v0.063l1.148-0.266l0.075,0.021l0.083,0.042  l0.066,0.001l0.027-0.098l-0.035-0.087l-0.617-0.634l-0.043-0.135l0.088,0.049l0.033,0.013l-0.105-0.146l-0.188-0.104l-0.224-0.063  l-0.209-0.021L60.21,40.1l-0.127,0.135l-0.146,0.121l-0.226,0.013l-0.233-0.021l-0.263,0.021l-0.261-0.021l-0.225-0.144l-0.41-0.085  l-0.102,0.017L58.146,40.134z M61.486,41.441l-0.129,0.16l0.058,0.014l0.044-0.002l0.043,0.013l0.046,0.051l0.207-0.133l0.218,0.095  l0.146,0.197l-0.001,0.174l-0.084-0.035l-0.042,0.077l0.007,0.123l0.057,0.106l0.086,0.025l0.062-0.065l0.036-0.103l0.011-0.093  l0.104-0.083l0.187,0.098l0.09,0.164l-0.196,0.125l0.229,0.183l0.235,0.049h0.224l0.2,0.039l0.451,0.295l0.221,0.062l0.154-0.152  l-0.114-0.016l-0.128-0.052l-0.078-0.001l-0.198-0.22l-0.042-0.104l-0.036-0.33l-0.06-0.154L63.41,41.8l-0.09-0.123l-0.174-0.169  l-0.231-0.15l-0.235-0.061l-0.186,0.102l-0.072-0.123l-0.13,0.007l-0.297,0.116l-0.326-0.006L61.486,41.441z M66.396,44.938  l-0.039-0.028l-0.088-0.134l-0.033-0.041l-0.104-0.061l-0.112-0.045l-0.129-0.01l-0.16,0.047l-0.104,0.07l-0.089,0.076l-0.104,0.054  l-0.149-0.003l-0.146-0.072l-0.117-0.104l-0.127-0.084l-0.181-0.006l0.069,0.068l-0.049,0.229l0.119,0.166l0.16,0.129l0.078,0.117  l0.063,0.159l0.139,0.06l0.152-0.041l0.093-0.142h0.059l0.063,0.204l0.05-0.083l0.017-0.085l-0.019-0.086l-0.048-0.085l0.18,0.05  l0.1,0.049l0.043,0.07l-0.027,0.104l-0.055,0.11l-0.035,0.104l0.023,0.087l0.127,0.095l0.198,0.094l0.198,0.043l0.133-0.063  l0.113,0.09l0.058,0.089l0.046,0.095l0.113,0.153l0.027,0.062l0.035,0.047l0.054,0.015l0.071-0.043l-0.008-0.069l-0.037-0.065  l-0.026-0.03l0.075-0.159l0.1-0.032l0.059,0.082l-0.043,0.178l0.195-0.148l0.109-0.043l0.144-0.006l-0.106-0.162l-0.027-0.097  l0.199-0.446l0.025-0.135L67.7,45.199l-0.069-0.121l-0.162-0.159l-0.091,0.011l-0.075,0.084l-0.119,0.064l-0.107-0.037l-0.297-0.193  l-0.1-0.046l-0.07,0.021l-0.133,0.092L66.396,44.938z M20.988,39.844v-0.052l-0.069-0.104l-0.042,0.056l-0.068,0.059l0.082,0.121  L20.988,39.844z M53.563,40.338l0.119-0.044l-0.033-0.037l-0.028-0.054L53.6,40.157l-0.056-0.022l-0.056,0.038l-0.053,0.011  l0.021,0.026l0.025,0.031l-0.041,0.012l-0.023-0.021l-0.04-0.069l-0.041,0.094L53.563,40.338z M55.159,40.592l0.097-0.049  l0.057-0.036l-0.055-0.122l-0.081,0.008l-0.057,0.035l-0.013,0.096l0.041,0.015l-0.01,0.028L55.159,40.592z M23.853,40.684  l-0.002-0.074l-0.055,0.024v0.084l-0.027,0.073l-0.029,0.038v0.047l0.082,0.044l0.021,0.001l-0.024-0.069l0.014-0.072L23.853,40.684  z M63.555,43.833l-0.068-0.048l-0.067-0.051l-0.035-0.047l-0.028-0.006l0.01,0.033l0.037,0.057l0.021,0.088l0.081,0.063l0.093,0.057  l0.09-0.033l0.017-0.088L63.68,43.87l-0.021,0.003v0.023l-0.02,0.026l-0.049-0.006l0.021-0.037L63.555,43.833z M66.762,46.684  l-0.033,0.002l-0.037-0.039l-0.023-0.052l-0.029-0.011l-0.096,0.033l0.012,0.074l0.188,0.107l0.02-0.015l0.038-0.026l-0.001-0.025  l-0.009-0.063L66.762,46.684z M28.814,46.818l-0.035,0.049l-0.026,0.021l-0.006,0.027h0.016l0.12-0.057h0.077l-0.008-0.037  L28.814,46.818z M57.123,51.523l0.075-0.148l-0.081-0.005l0.023,0.088l-0.048,0.015L57.123,51.523z M57.628,54.521l-0.063-0.08  l-0.041-0.018l-0.021-0.031l-0.134,0.041l0.012,0.017l0.021,0.026l0.035,0.03l0.028-0.003l0.035,0.002l0.045,0.061l0.071,0.028  l0.035-0.013l0.021,0.074l0.035,0.037h0.023l-0.047-0.084L57.628,54.521z M59.695,58.027l0.025-0.118l-0.018-0.034l-0.042-0.023  l-0.052-0.1l-0.058-0.066l0.011,0.062l0.029,0.122L59.695,58.027z M60.607,58.984l0.063,0.039l0.094-0.013l0.043-0.079l-0.063-0.004  l-0.025-0.056l-0.031-0.079l-0.031-0.005l-0.033,0.063L60.607,58.9l0.052,0.039l-0.041,0.019L60.607,58.984z M92.88,58.655  l-0.014,0.021l0.006,0.024H92.9l-0.01-0.134l-0.177-0.063l0.037,0.069L92.88,58.655z M36.553,33.232l0.012-0.051l-0.024-0.054  l-0.063,0.019l-0.073,0.15L36.4,33.391h0.045L36.553,33.232z M45.548,35.639l0.094-0.074l0.155-0.213l-0.018-0.047l-0.125-0.095  L45.6,35.189l-0.04,0.035l-0.023,0.055l0.022,0.021l0.049-0.021l0.026-0.002l-0.015,0.078l-0.022,0.023l-0.094-0.037l-0.016-0.017  L45.445,35.4l-0.004,0.141l0.043,0.096h0.064V35.639z M46.062,35.989l0.016,0.129l0.047-0.004l0.045-0.024l0.022-0.021l0.076-0.033  l0.016-0.055l-0.052-0.076l-0.115-0.068l-0.104-0.003l-0.021,0.031l0.032,0.026L46.062,35.989z M47.215,36.609l-0.051,0.117  l-0.006,0.027l0.115-0.014l0.035-0.026v-0.079l-0.034-0.049L47.215,36.609z M10.526,37.785l-0.011-0.042l0.029-0.075l0.075-0.059  l0.115-0.004l0.059-0.045l0.04-0.009l0.042,0.003l0.027,0.021l-0.013,0.031l0.002,0.035l0.037-0.009l0.042-0.042l-0.007-0.044  l-0.117-0.045l-0.109-0.013l-0.158,0.1l-0.105,0.161l-0.022,0.104l0.039-0.027L10.526,37.785z M50.395,39.021l-0.009-0.045  l-0.023-0.018l-0.03,0.025l-0.021-0.032l-0.001-0.08l0.014-0.071l-0.018-0.04L50.26,38.77l-0.02,0.019l0.005,0.046l-0.009,0.025  l-0.032,0.005l-0.044,0.071l-0.025,0.024l-0.007,0.034l0.007,0.023l0.028,0.049l0.013,0.074l0.061,0.072l0.093,0.01l0.01-0.039  l-0.02-0.054l0.037-0.067L50.395,39.021z M53.577,39.486l0.052,0.018l0.014,0.069l0.027,0.018l0.036-0.048l0.015-0.038l0.062,0.003  l0.001-0.035l-0.018-0.035l-0.01-0.023l-0.02-0.021l0.011-0.037l0.002-0.047l-0.062-0.027l-0.092,0.012l-0.156,0.098l-0.002,0.063  l0.062,0.045L53.577,39.486z M57.814,39.596l0.012,0.04l-0.021,0.056l0.01,0.017l0.045-0.005l0.024,0.021H57.9l0.017-0.043  l0.024-0.023l0.024,0.02l-0.056,0.114l0.033,0.046l0.048-0.04l-0.017-0.037l-0.019-0.021l0.06,0.005l0.082,0.089l0.057,0.003  l0.021,0.027L58.166,39.9l0.064,0.048l0.066-0.021l-0.015-0.069l-0.165-0.211l-0.188-0.115l-0.144-0.008l-0.048,0.022l0.02,0.024  L57.814,39.596z M56.303,40.751l0.063,0.022l0.02-0.014l0.027,0.021l0.056,0.071l0.081,0.023l0.04-0.034l-0.071-0.139l-0.06-0.106  l-0.039-0.015l-0.034,0.007l-0.111-0.011L56.23,40.6l-0.033,0.03l-0.027,0.063l0.034,0.047L56.303,40.751z M62.618,41.15  l0.049,0.012l0.035,0.031l0.024-0.02l0.037-0.115l0.026-0.039l0.021-0.058l0.037-0.002l0.064,0.122l0.033,0.138l0.062,0.037  l0.013-0.077l-0.068-0.134l-0.104-0.123l-0.113-0.073l-0.029,0.019l0.003,0.038l-0.042,0.082l-0.075,0.082l-0.071,0.031  l-0.035,0.041l0.052,0.023L62.618,41.15z M4.683,41.648l0.1,0.026l0.114,0.06l0.108,0.029l0.156-0.074H5.19l0.047,0.013l0.039-0.058  l-0.02-0.07L5.21,41.563l-0.046,0.024L5.122,41.6L4.79,41.494l0.003-0.036l-0.016-0.017l-0.043,0.033L4.7,41.521l-0.019,0.041  l0.009,0.041L4.645,41.62L4.683,41.648z M64.904,42.281l0.029,0.046l0.127,0.1l0.018,0.041l0.008,0.077l0.041,0.045l0.063-0.008  l0.02-0.076l-0.061-0.111l-0.074-0.086l-0.055-0.037l-0.138-0.15l-0.056-0.014l-0.028,0.039l0.022,0.043L64.904,42.281z   M64.852,43.132l0.064-0.037l0.148-0.146l0.027-0.042L65.051,42.9l-0.068,0.043l-0.066,0.002l-0.068-0.041h-0.041l-0.033,0.039  l-0.01,0.039l0.088,0.099V43.132L64.852,43.132z M61.126,43.436l0.06-0.016l0.106-0.129l0.037-0.107l0.104-0.149l-0.004-0.056  l-0.183,0.024l-0.159,0.159l-0.018,0.07l0.02,0.065l0.088,0.017l0.023,0.041L61.174,43.4L61.126,43.436z M33.582,45.266  l-0.048,0.021l-0.043,0.027l-0.039-0.002l-0.048-0.021l-0.055-0.044l-0.038-0.064l-0.001-0.061l0.013-0.041l-0.068-0.123  l-0.031,0.03l0.008,0.065l-0.024,0.021l-0.035-0.012l-0.018-0.032l-0.037,0.001l0.01,0.07l0.037,0.104l-0.032,0.075l-0.099,0.033  l-0.089,0.006l-0.057-0.031l-0.039-0.109l-0.024,0.028l-0.056-0.009l-0.178-0.139l-0.045-0.062l-0.021-0.069l-0.041-0.029  l-0.04,0.007l-0.033,0.017l-0.075-0.063L32.3,44.908l0.033,0.05L32.44,45l0.477,0.387l0.106,0.004l0.103-0.046l0.079-0.013  l0.046,0.033l0.029,0.031l0.031,0.022l0.352-0.118l-0.015-0.027L33.582,45.266z M14.629,46.084l-0.143-0.027h-0.067l-0.433,0.133  l0.028,0.027l0.756-0.066l0.023-0.024l-0.066-0.032L14.629,46.084z M21.356,46.573l0.037,0.038l0.077,0.047l0.012-0.012l-0.062-0.06  L21.356,46.573z M21.696,46.852l0.052,0.021l0.058-0.058l0.015-0.074l-0.085-0.08l-0.094-0.03l-0.046,0.003l-0.017,0.024l0.04,0.026  l0.049,0.047l0.053,0.014l0.045-0.006l-0.036,0.045L21.696,46.852z M16.318,47.859l0.001-0.07l-0.063-0.155l-0.048-0.114  l-0.004-0.027l-0.045-0.096l-0.043-0.049l-0.018,0.038l0.019,0.124l0.144,0.287L16.318,47.859z M22.36,48.232l-0.051,0.021  L22.25,48.24l-0.029-0.076l-0.034-0.018l-0.048,0.041l-0.02,0.041l-0.011,0.004l-0.009-0.049l0.017-0.047l0.02-0.027l-0.02-0.016  l-0.039-0.019L22,47.999l-0.059-0.024l-0.007,0.018l0.051,0.052l0.05,0.085l-0.004,0.081l-0.018,0.056l0.014,0.019l0.03,0.009  l0.021,0.03l-0.001,0.054l-0.089,0.053l0.148,0.022l0.085-0.028l0.051-0.044l0.04,0.021l0.028,0.05l0.025,0.021l0.077,0.006  l-0.027-0.09L22.36,48.232z M24.64,49.716l-0.023-0.026l0.005-0.015l0.031-0.008l0.01-0.024l-0.055,0.006l-0.099,0.033l-0.028,0.041  l0.005,0.038l-0.083-0.036l-0.084,0.033l-0.048-0.007l-0.053,0.038l-0.065,0.096l0.007,0.018l0.104-0.037l0.198-0.018l0.158-0.051  l0.078-0.05l-0.036-0.004L24.64,49.716z M23.337,49.865l-0.026-0.024l-0.046-0.021l-0.186-0.021l-0.074,0.012l-0.009,0.049  l0.035,0.048l0.089,0.022l0.185,0.1l0.069-0.043l0.038-0.057l-0.014-0.033L23.337,49.865z M58.448,57.055h-0.033l-0.039,0.012  l-0.017,0.021l0.051,0.12l0.046,0.051l0.044-0.013l0.012-0.057l-0.013-0.055L58.448,57.055z M58.318,58.131l0.027-0.036  l-0.011-0.015l-0.03-0.02l0.008-0.05l0.061-0.128l-0.01-0.082l-0.037-0.01l-0.036,0.043l-0.013,0.004l0.033-0.082l-0.013-0.035  l-0.048,0.03l-0.035,0.038l-0.035,0.02l-0.037,0.004l-0.026,0.035l0.012,0.043l0.136,0.231L58.318,58.131z M63.27,58.637l-0.02,0.03  l0.043,0.062l0.04,0.013l0.067-0.12l-0.023-0.02L63.27,58.637z M65.23,59.665l-0.104,0.024l0.033,0.006l0.084,0.045l0.011,0.109  l0.025-0.006l0.089-0.074l-0.003-0.065L65.23,59.665z M44.257,34.994l0.185-0.085l0.077-0.069l0.025-0.042l-0.048-0.021  l-0.148-0.006l-0.129-0.028l-0.123-0.078l-0.1-0.11l-0.06-0.13h-0.068l-0.06,0.099l-0.06,0.074L43.7,34.67l-0.021,0.104l0.39,0.186  L44.257,34.994z M37.458,34.251l0.3-0.03l0.112,0.03l0.1,0.051l0.11,0.011l0.153-0.092l0.084-0.082l0.001-0.047l-0.058-0.066  l-0.091-0.146h-0.068v0.138l-0.143-0.131l-0.041-0.068l-0.063,0.063l0.038,0.053l0.052,0.104l0.036,0.055l-0.196-0.043l-0.179-0.007  l-0.166,0.036l-0.561,0.37l-0.103,0.115l0.457-0.232L37.458,34.251z M46.225,36.382l0.091-0.046l0.096-0.135l0.088-0.027  l0.197,0.124l0.099-0.095l0.007-0.135l-0.076,0.006l-0.145-0.072l-0.149,0.001l-0.146,0.052l-0.133,0.082L46.225,36.382z   M43.616,36.074l-0.007-0.098l-0.033-0.078l-0.06-0.059l-0.085-0.039l0.046-0.029l0.09-0.078l0.049-0.028l-0.166-0.106l-0.206,0.021  l-0.449,0.222l-0.078-0.058l-0.063-0.012L42.6,35.757l-0.057,0.045l0.142,0.111L43.616,36.074z M40.544,33.82l0.037,0.059  l0.157-0.031l0.186,0.053l0.164,0.069l0.092,0.015l0.078-0.055l0.073-0.035l0.054-0.041l0.021-0.074l-0.024-0.07l-0.056-0.004  l-0.065,0.025l-0.049,0.013l-0.235,0.008l-0.081-0.008l-0.049-0.028l-0.074-0.089l-0.037-0.021l-0.151,0.013l-0.099,0.042  l-0.061,0.083l-0.033,0.137l0.112-0.062L40.544,33.82z M56.787,57.884l-0.18,0.038l0.107,0.156l0.207,0.173l0.225,0.075l0.16-0.137  l-0.324-0.226L56.787,57.884z M49.269,37.831l0.274-0.115l0.175,0.063l0.08,0.141l0.048,0.141l0.076,0.063l0.045,0.022l0.147,0.11  l0.031,0.039l0.014,0.113l0.036,0.043l0.06,0.022l0.211,0.164l0.158,0.075l0.17,0.021l0.167-0.063l0.311,0.348l0.138,0.123  l0.124,0.08l0.084,0.039l0.082,0.018l0.074,0.022l0.209,0.188L51.9,39.309l-0.149-0.227l-0.187-0.191l-0.377-0.146l-0.347-0.284  l-0.426-0.132l-0.2-0.164l-0.48-0.543l-0.152-0.071l-0.189,0.009l-0.263,0.082l0.016,0.184L49.269,37.831z M56.145,57.372  l-0.455,0.014l-0.002-0.127l-0.019-0.102l-0.043-0.077l-0.089-0.007l-0.092,0.081l-0.112,0.17l0.21,0.211l0.648,0.076l0.158,0.115  h0.067l-0.106-0.261L56.145,57.372z M51.7,54.238l-0.292,0.043l0.08,0.093l0.24,0.177l0.067-0.053l0.078,0.014l0.065,0.067  l0.041,0.106l-0.189,0.006l-0.063-0.006l0.123,0.092l0.147,0.045l0.153-0.004l0.144-0.061l-0.362-0.378L51.7,54.238z M54.878,56.652  l-0.106-0.043l-0.065-0.068l-0.151-0.042l-0.17-0.013l-0.117,0.02l0.098,0.111l0.466,0.305l0.22,0.057l0.031,0.037l0.025,0.063  l0.059-0.056l0.08-0.14l0.025-0.146l-0.174-0.062L54.878,56.652z M54.134,56.305l0.144-0.005l0.046,0.005l-0.234-0.287l-0.356-0.354  l-0.41-0.248l-0.391,0.021l0.053,0.103l0.072,0.076l0.09,0.053l0.104,0.031l-0.022-0.05l-0.006-0.023l-0.01-0.02l-0.029-0.034  v-0.074l0.203,0.026l0.232,0.197l0.205,0.256l0.121,0.197l-0.12-0.105l-0.104-0.129l-0.119-0.111l-0.16-0.063v0.073l0.32,0.372  l0.176,0.16l0.262,0.133l-0.038-0.146L54.134,56.305z M54.408,39.055l0.554,0.035l0.136,0.053l0.053,0.139l0.213-0.114l0.003-0.108  l-0.146-0.084l-0.867-0.056l-0.155,0.021l0.116,0.076L54.408,39.055z M99.979,63.116l-0.041-0.181l-0.071-0.166l-0.112-0.14  l-0.316-0.2l-0.183-0.168L99.162,62.2l-0.114-0.038l-0.196,0.016l-0.176,0.082l-0.162,0.102l-0.154,0.07l-0.178-0.016l-0.207-0.05  h-0.188l-0.123,0.136h-0.068l-0.074-0.203L97.314,62.1l-0.25-0.149l-0.201-0.062l-0.125-0.017l-0.088-0.043l-0.45-0.476  l-0.031-0.063L96.1,61.249l-0.293-0.405l-0.101-0.207l-0.073-0.088l-0.421-0.268l-0.178-0.145l-0.032-0.13l-0.336-0.11l-0.111-0.084  l-0.061-0.037l-0.039-0.002l-0.021-0.027l-0.006-0.107l-0.133-0.234l0.038-0.016l0.095-0.052l-0.146-0.103l-0.19-0.062l-0.73-0.085  l-0.17-0.111l-0.131-0.134l-0.153-0.11L92.68,58.76l-0.146-0.004l-0.067-0.057l-0.028-0.092l-0.074-0.037l-0.094-0.022l-0.09-0.049  l-0.182-0.062l-0.742,0.095l0.131,0.135l-0.068,0.043l-0.075-0.005l-0.084-0.04L91.07,58.6l-0.008,0.065l-0.043,0.089l-0.019,0.053  l-0.085-0.229l-0.152-0.008l-0.16,0.043l-0.106-0.08l-0.03,0.02l-0.007,0.014l-0.003,0.016L90.439,58.6l-0.258-0.066v-0.066  l0.15-0.042L90.3,58.357l-0.112-0.063l-0.435-0.091l-0.142-0.013l0.063,0.072l-0.17-0.047l-0.243,0.003l-0.226,0.06l-0.118,0.127  l0.184,0.047l0.352,0.176l0.16,0.105l-0.521,0.059l-0.227-0.048l-0.079-0.211l-0.052,0.092l-0.01,0.043h-0.063l-0.045-0.138  l-0.081-0.125l0.221-0.042l-0.064-0.111l-0.189-0.122l-0.161-0.066l-0.18-0.021l-0.241,0.005l-0.222,0.064l-0.116,0.15l0.095-0.007  l0.082,0.013l0.151,0.063l-0.068,0.202l-0.08-0.043l-0.072-0.05l-0.063-0.055l-0.045-0.056h-0.057l-0.146,0.18l-0.543-0.127  l0.052,0.218l-0.205-0.068l-0.095-0.067l0.015-0.097l0.041-0.104l-0.086-0.029l-0.238,0.027l0.063-0.17l-0.018-0.171l-0.09-0.151  l-0.146-0.117l-0.093,0.195l-0.441,0.371l-0.103,0.215L85.43,58.54l-0.146-0.049L84.93,58.29l-0.105-0.212l-0.088-0.088l0.043-0.102  l0.025-0.117l0.008-0.123l-0.008-0.061l0.094-0.238l0.013-0.125l-0.05-0.111l0.607,0.07l0.18-0.063l0.506-0.078l0.029,0.017  l0.067,0.055l0.04,0.061l0.021,0.07l0.029,0.059l0.068,0.024l0.125,0.063l0.148,0.1h0.129l0.074-0.235H86.76l-0.076-0.06  l-0.037-0.104l-0.012-0.135l-0.059-0.048l-0.383-0.197l-0.201-0.025l-0.278,0.013l-0.243,0.073l-0.104,0.154h-0.057l-0.08-0.169  l-0.119-0.169l-0.006-0.12l0.263-0.019l-0.017-0.067l-0.037-0.04l-0.057-0.021l-0.074-0.012l0.055-0.035l0.056-0.021l0.062,0.009  l0.074,0.047l0.116-0.07l0.058,0.097l0.033,0.149l0.047,0.094l0.151,0.003l0.151-0.091l0.129-0.129l0.08-0.112l0.019-0.06  l0.021-0.146l0.018-0.063l0.036-0.055l0.104-0.085l0.055-0.067l0.188-0.403l-0.318-0.485l-0.211-0.136l-0.364,0.076l-0.084-0.341  l-0.183-0.155l-0.262-0.042h-0.318l-0.162,0.046l-0.09-0.004l-0.039-0.075l-0.026-0.025l-0.14-0.063l-0.051-0.012l-0.478,0.343  l0.047,0.089l-0.049,0.042l-0.077-0.017l-0.077-0.172l-0.089-0.049l-0.115-0.023l-0.115-0.006l-0.08,0.027L83.21,54.52l-0.058,0.037  l-0.117,0.021l-0.247-0.007l-0.078-0.014l0.008,0.176l-0.056,0.076l-0.077-0.033l-0.063-0.15L82.5,54.662l-0.027,0.049l-0.021,0.048  h-0.058l-0.002-0.124l-0.033-0.092l-0.066-0.07l-0.094-0.057l-0.135-0.034l-0.102,0.025l-0.148,0.083l-0.092,0.097l-0.064,0.007  l-0.09-0.104l-0.039-0.12l0.007-0.211l-0.031-0.079l-0.04-0.23l-0.294-0.197l-0.983-0.373l-0.133-0.086l-0.242-0.202l-0.299-0.117  l-0.133-0.108l-0.227-0.07l-1.106-0.033l-0.169,0.056l-0.063,0.132l0.029,0.158l0.112,0.133l0.118,0.043l0.301,0.041l0.145,0.051  l-0.107,0.041l-0.271,0.16l-0.049,0.004l-0.062-0.006H77.98l-0.021,0.032l-0.023,0.048l-0.057,0.055l-0.063,0.049l-0.049,0.021  l-0.084-0.031l-0.095-0.172L77.51,53.41L77.4,53.417l-0.103,0.049l-0.092,0.005l-0.074-0.127l0.036-0.015l0.09-0.054h-0.189v-0.066  l0.494-0.021l0.105-0.129l0.032-0.396h-0.063v0.208h-0.059l-0.118-0.156l-0.205-0.122l-0.219-0.069l-0.163,0.006l-0.18,0.07  l-0.004,0.063l0.063,0.143l0.054,0.086l0.062,0.045l0.2,0.07v0.061l-0.194-0.012l-0.177-0.037l-0.154-0.072l-0.139-0.107  l-0.148-0.057l-0.188-0.032l-0.123-0.063l0.046-0.155l-0.015-0.104l0.09,0.004l0.086,0.088l-0.037,0.146l0.521-0.234l0.15-0.033  l0.067-0.064l-0.056-0.139l-0.126-0.141l-0.143-0.063l-0.102-0.008l-0.249-0.061l-0.155-0.104l-0.041-0.017l-0.072,0.044  l-0.053,0.002l-0.567-0.195l-0.019,0.119l-0.035,0.1l-0.131,0.191h0.063l-0.036,0.119l-0.023,0.119l-0.041,0.102l-0.088,0.064  l0.025-0.246l-0.475,0.248l-0.127-0.242l0.035-0.14l0.092-0.095l0.133-0.055l0.327-0.021l0.112-0.034l0.073-0.102l0.054-0.203  h-0.188l0.063-0.135l-0.121-0.094l-0.51-0.108l-0.334-0.161l-0.156-0.109l-0.146-0.134l-0.992-1.217l-0.169-0.104l-0.176,0.031  l-0.076,0.098l-0.233,0.442l-0.112,0.524l-0.082,0.149l-0.088,0.011l-0.087,0.052l-0.01,0.013l-0.229,0.116l-0.093,0.024  l0.074-0.176l-0.146-0.018l-0.207,0.033l-0.105-0.02l-0.039-0.066l-0.082-0.172l-0.058-0.178l0.024-0.081l0.162-0.075l0.068-0.164  l-0.049-0.164l-0.183-0.074l-0.259,0.021L70.6,49.822l-0.086-0.051l-0.07-0.067l-0.077-0.06l-0.107-0.024l-0.104-0.052l-0.03-0.108  l0.076-0.099l0.212-0.018l0.08,0.03l0.102,0.09l0.081,0.039l0.056,0.032l0.047,0.016l0.021-0.035l0.015-0.011l0.03-0.035  l0.023-0.036l-0.007-0.017l0.174,0.017l0.152,0.045l0.592,0.275l0.048,0.038l0.159,0.178l0.082,0.054l0.061-0.172l0.223-0.238  l0.032-0.195l-0.056-0.087l-0.092-0.086l-0.051-0.119l0.07-0.188l-0.166,0.045l-0.137-0.002l-0.131-0.041l-0.135-0.068l-0.545-0.411  l-0.125-0.046l-0.313-0.257l-0.131-0.134l-0.133-0.094l-0.472-0.146l-0.188-0.094l-0.98-0.713l-0.031-0.052l-0.061-0.249  l-0.034-0.083l-0.321-0.271L68.207,46.3l-0.17,0.115l-0.146,0.178l-0.078,0.171l0.127-0.063l0.063,0.017l0.101,0.152l0.347,0.299  l0.25,0.311l0.13,0.082l0.125-0.115l0.133,0.142l0.16-0.082l0.097,0.073l0.048,0.135l0.012,0.104l0.037,0.028l0.184,0.074  l0.063,0.039l0.043,0.067l0.053,0.229l0.111,0.293l0.101,0.133l0.241,0.107l0.088,0.119l0.056,0.117l0.003,0.054l-0.025,0.021  l-0.025,0.047l-0.046,0.045l-0.089,0.021l-0.061-0.018l-0.223-0.117l-0.279-0.035l-0.119-0.039L69.467,48.9l-0.031-0.158  l-0.137-0.309l-0.021-0.182l0.033-0.171l0.057,0.004l0.093,0.056l0.134-0.017l-0.188-0.201l-0.125-0.101l-0.129-0.043l0.02,0.033  l0.023,0.07l0.019,0.037l-0.104,0.02l-0.084-0.014l-0.056-0.049l-0.015-0.1l-0.238,0.064l-0.07,0.068l-0.006,0.138l-0.412-0.265  l-0.154-0.073l-0.162-0.019l-0.563,0.086l-0.08-0.036l-0.074-0.068l-0.078-0.041l-0.135,0.065l-0.054-0.01l-0.262-0.084l-0.121-0.06  l-0.087-0.087l-0.033-0.12l-0.014-0.117l-0.041-0.17l-0.069-0.153l-0.101-0.065l-0.229,0.003l-0.08-0.038l-0.104-0.101L65.707,46.6  l-0.059-0.104l-0.037-0.134l-0.014-0.178l0.063-0.082l0.296-0.055l0.083-0.104l-0.149-0.002L65.643,45.9l-0.103,0.043l-0.05,0.099  l-0.045,0.741l-0.053,0.098l-0.109,0.018l-0.064-0.069l-0.156-0.288l-0.031-0.082l-0.426-0.436l-0.111-0.08l-0.108-0.037  l-0.073-0.096l-0.168-0.295l-0.061-0.181l-0.05-0.067l-0.179-0.166l-0.121-0.262l-0.088-0.094l-0.138,0.048l-0.116-0.041  l-0.119-0.026l-0.114-0.045l-0.097-0.092l0.029-0.035l0.03-0.016l-0.237,0.003l-0.074-0.021l-0.052-0.086l-0.006-0.111l-0.019-0.098  l-0.08-0.043l-0.459-0.035l-0.145-0.039l-0.314-0.129l-0.088-0.006l-0.098,0.012l-0.091-0.004l-0.072-0.039l-0.069-0.061  l-0.168-0.086l-0.084-0.063l-0.065-0.086l-0.087-0.19l-0.063-0.101l-0.037,0.027l-0.095,0.047l0.005-0.065l-0.01-0.14l0.005-0.065  l-0.17,0.026L59.995,43.1l-0.222-0.065l-0.162-0.085L59.4,42.805l-0.186-0.156l-0.078-0.127l-0.13-0.092l-1.011-0.355l-0.295-0.299  l-0.274-0.036v0.067l0.077,0.047l0.063,0.063l0.117,0.167l-0.143,0.314l-0.086,0.078l-0.094-0.127l-0.086,0.043l-0.033,0.023  l-0.176-0.578l-0.049-0.102l-0.434,0.022L55.166,41.6l-0.212,0.004l-0.177,0.043l-0.348,0.133l-0.199,0.027l-0.105-0.02  l-0.145-0.088l-0.094-0.022l-0.113,0.013l-0.024,0.043l-0.021,0.063l-0.101,0.071l-0.174-0.002l-0.483-0.105l-0.101,0.012  l-0.075,0.108l-0.167-0.06l-0.175-0.125l-0.094-0.094l-0.246,0.041l-0.271-0.129l-0.767-0.652l-0.048-0.113l-0.245-0.381  l-0.105-0.028l-0.269-0.007l-0.137-0.025l-0.053-0.046l-0.234-0.264l-0.086-0.146l-0.126-0.308l-0.106-0.16l-0.104-0.112l-0.1-0.08  l-0.113-0.06l-0.141-0.046l-0.23-1.014l-0.08-0.051l-0.21,0.025l-0.011,0.021l-0.041,0.05l-0.055,0.05l-0.052,0.021l-0.056-0.02  l-0.034-0.042l-0.03-0.048l-0.543-0.387l-0.163-0.057l-0.381-0.033l-0.099-0.027l-0.087-0.059l-0.059-0.064l-0.101-0.155l0.122-0.36  l0.103-0.082l0.211,0.103l0.171-0.116l0.087-0.08v-0.076l-0.081-0.02l-0.566,0.16l-0.302,0.283l-0.191,0.06v-0.022L46.526,37.1  l-0.027-0.049l-0.063-0.021l-0.165,0.009l-0.05-0.009l-0.35-0.204L45.85,36.76l-0.209-0.378l-0.032-0.096L45.531,36.2l-0.101-0.072  l-0.1-0.053l-0.035,0.239l-0.185,0.033l-0.218-0.066l-0.491-0.245l-0.155,0.006l0.068,0.237l-0.551,0.217l-0.287,0.061l-0.304-0.011  l-0.158-0.036l-0.154-0.057l-0.147-0.085l-0.14-0.123l-0.115-0.034h-0.521l-0.169-0.044l-0.122-0.104l-0.096-0.115l-0.087-0.082  l-0.142-0.055l-0.374-0.071L40.8,35.729l-0.189-0.135l-0.348-0.627l-0.257-0.193l0.242-0.479l0.079-0.072V34.16l-0.091-0.051  l-0.116-0.021l-0.126,0.016l-0.12,0.058l0.17,0.192l-0.051,0.188l-0.173,0.148l-0.192,0.082l-0.231,0.01l-0.431-0.09l-0.228,0.007  l-1.451,0.278l-0.188,0.062l-0.21,0.039l-0.169-0.056l-0.07-0.219l-0.004-0.158l-0.016-0.035l-0.037,0.018l-0.063,0.002  l-0.385-0.066l-0.059,0.008l-0.189,0.049l-0.104,0.011l-0.047,0.054l-0.098,0.243l-0.044,0.082l-0.142,0.167l-0.064,0.104  l-0.079,0.045l-0.184-0.006l-0.33-0.17l-0.527-0.616l-0.411-0.105v-0.062l0.13-0.115l0.503-0.307l0.421-0.109l0.256-0.107  l0.131-0.111l-0.172-0.068l-0.151,0.046l-0.41,0.241l-0.225,0.172l-0.344,0.17l-0.139,0.049l-0.435,0.063l-0.229,0.065l-0.1,0.107  L33,34.505l-0.777,0.136l-0.085,0.002l-0.068,0.021l-0.076,0.07l-0.033,0.084l-0.058,0.244l-0.035,0.052l-0.139,0.055l-0.104,0.026  l-0.105-0.014l-0.113-0.059v-0.03l0.058-0.036l0.056-0.08l0.045-0.172l0.029-0.229l-0.031-0.201l-0.197-0.114l-0.16-0.132  l-0.064-0.038l-0.124-0.015l-0.11,0.005l-0.103-0.008l-0.104-0.057l-0.123,0.063L30.43,34.1l-1.683-0.01l-0.206,0.068l-0.274-0.068  l-0.592-0.059L27.4,33.954l-0.347-0.246l-0.09-0.044l-0.101,0.016l-0.102,0.041l-0.093,0.021l-0.214,0.021l-0.372,0.094  l-0.203,0.021l-0.638-0.153l-0.294,0.121L24.3,33.953l-0.426,0.184l-0.368,0.057l-0.143,0.086l-0.273,0.214l-0.146,0.089  l-0.087,0.034l-0.114,0.013l-0.046,0.033l-0.092,0.141l-0.052,0.031l-0.204,0.063l-0.401,0.23l-0.188-0.013l-0.223,0.092  l-0.856,0.11l-0.838-0.039l-0.204,0.074l-0.223,0.037l-0.331-0.053l-0.3,0.006l-0.131,0.215l-0.098,0.245l-0.201,0.136l-0.162-0.015  l0.02-0.196l-0.086,0.104l-0.072,0.034l-0.057-0.033l-0.038-0.104l0.038-0.055l0.092-0.015l0.06-0.031l-0.058-0.104l-0.086-0.047  l-0.068,0.031l-0.056,0.057l-0.048,0.027l-0.098-0.031l-0.128-0.086l-0.096-0.019l-0.055,0.016l-0.119,0.083l-0.073,0.037  l-0.384,0.074l-0.206,0.088l-0.136,0.113l-0.011,0.131l0.168,0.14l-0.065,0.066l-0.079,0.101l-0.096,0.062l-0.112-0.052  l-0.071-0.125l-0.018-0.142l0.036-0.119l0.085-0.063v-0.063l-0.123-0.107l-0.149-0.055l-0.171,0.01l-0.188,0.078l-0.479,0.307  l-0.124,0.041l-0.167,0.081l-0.173,0.188l-0.138,0.218l-0.056,0.164l-0.076,0.078l-0.146,0.092l-0.101,0.031l0.065-0.103  l-0.156-0.067l-0.11-0.084l-0.105-0.042l-0.14,0.058l-0.079,0.117l-0.074,0.152l-0.108,0.104l-0.18-0.033l0.025-0.038l0.014-0.029  l0.023-0.067l-0.383,0.002l-0.059,0.032l-0.115,0.315l-0.039,0.059l-0.461,0.02L12.2,37.381l-0.197,0.125l0.046,0.004l0.008,0.012  l-0.003,0.022l0.013,0.036l0.064-0.043l0.067-0.031v0.074l-0.067,0.031l-0.128,0.084l-0.063,0.021l-0.101-0.003l-0.117-0.054  l-0.104-0.019l-0.151,0.016l-0.32,0.113l-0.637,0.324l-0.153,0.029l-0.402,0.029l-0.142,0.093l-0.087,0.211L9.6,38.328l-0.563,0.406  l-0.11,0.054l-0.125,0.022l-0.089-0.056l-0.061-0.122l-0.08-0.121l-0.149-0.056l-0.088,0.021l-0.084,0.051l-0.067,0.068  l-0.042,0.077l0.154-0.014l0.122,0.028l0.096,0.068l0.07,0.114l-0.102,0.093L8.394,39.07l-0.097,0.052l-0.124-0.079l-0.118-0.049  l-0.066,0.119l-0.029,0.17l-0.007,0.1l-0.049,0.049l-0.239,0.021L7.574,39.49l-0.051,0.097L7.442,39.96l-0.078-0.126l-0.107-0.057  l-0.125,0.021L7,39.896l-0.092-0.043L6.81,39.824v0.072l0.108,0.129l-0.043,0.216L6.76,40.465l-0.11,0.15l-0.174,0.099L6.08,40.787  l-0.159,0.13H6.11v0.074l-0.165,0.1l-0.137,0.155l-0.197,0.288l-0.023,0.048l-0.036,0.127l-0.038,0.063l-0.044,0.03l-0.1,0.009  l-0.049,0.026l-0.135,0.254l-0.022,0.024l-0.132,0.438l-0.041,0.215l-0.017,0.229l-0.035,0.166l-0.085,0.181L4.75,43.496  l-0.092,0.086l0.151,0.033l0.085,0.13l0.061,0.165l0.076,0.14l0.115,0.095l0.169,0.092l0.187,0.065l0.172,0.021l-0.046,0.064  l-0.086,0.211l0.184,0.094l0.031,0.113L5.746,44.95l0.055,0.188l0.13,0.113l0.104-0.093l0.098-0.173l0.11-0.125l-0.133,0.55  l-0.14-0.022L5.72,45.57l-0.045-0.059L5.62,45.4l-0.131-0.121l-0.157-0.1l-0.134-0.039L4.927,45.21l-0.21,0.127l-0.215,0.062  l-0.29-0.129l0.04-0.078l-0.058-0.045l-0.112-0.016l-0.123,0.01L3.89,45.177l-0.503,0.365l-0.788,0.353l-0.671,0.199L1.17,46.5  l0.001-0.198l-0.087-0.097l-0.141-0.001l-0.157,0.087l0.152,0.107l-0.006,0.125l-0.108,0.112l-0.158,0.065L0.583,46.71L0.502,46.7  l-0.076-0.03l-0.067-0.054L0.331,46.57L0.306,46.51l-0.03-0.051l-0.044-0.023L0.17,46.461l-0.059,0.066l-0.048,0.08l-0.03,0.063  L0,46.838L0.021,47l0.076,0.143l0.126,0.102l0.389,0.121l0.402,0.007l0.371-0.091l0.934-0.622l0.359-0.17l0.734-0.218l0.411-0.063  l0.369,0.064L4.4,46.563l-0.07,0.391L3.959,47.73l0.12,0.194l0.391-0.034l0.396-0.218l1.092-0.913l0.289-0.086l0.209-0.133  L6.559,46.5l0.094-0.007l0.191,0.014L6.938,46.5l0.171-0.074l0.356-0.219l0.201-0.046l0.205,0.043l0.35,0.187l0.174,0.041  l0.113-0.021l0.107-0.056l0.1-0.078l0.087-0.086L8.844,46.1l-0.038-0.072l-0.063-0.059L8.71,45.922l0.076-0.201l0.319-0.236  l0.053-0.215l-0.117,0.09l-0.106,0.026l-0.091-0.048l-0.07-0.131l-0.011-0.163l0.063-0.104l0.102-0.022l0.104,0.088l-0.006-0.147  l-0.014-0.06l-0.049-0.063l0.044-0.099l0.071-0.271l0.011-0.076l0.379-0.372l0.206-0.041l0.718,0.041l0.135-0.032l0.11-0.14  l0.105-0.032l-0.01,0.029l0.011,0.065l0.025,0.069l0.036,0.039l0.05,0.008l1.023-0.149l-0.019,0.037l-0.02,0.068l-0.02,0.036  l0.253-0.067l0.271-0.173l0.229-0.239l0.131-0.267h0.063l0.053,0.116l0.068,0.111l0.024,0.102l-0.077,0.084l0.408,0.166l0.478,0.063  l0.414-0.106l0.216-0.337l0.1,0.15l0.101,0.045l0.066-0.067l0.005-0.115l0.014,0.03l0.03,0.031l0.083-0.064l0.045-0.063l0.062-0.145  l0.011-0.044l-0.005-0.034l0.008-0.048l0.049-0.083l0.113-0.124l0.334-0.216l0.005-0.027l-0.005-0.14l0.016-0.04l0.035,0.004  l0.041,0.014l0.067-0.023l0.043,0.012l0.035,0.004l0.016-0.039l-0.004-0.139l0.004-0.023l0.131-0.039l0.127,0.012l0.305,0.089  l0.3-0.035L16.7,42.03l0.528-1.011l0.253-0.265l0.303-0.202l0.615-0.322l0.143-0.045l0.21-0.017l0.111-0.071l0.555-0.473  l0.313-0.104l0.136-0.094l0.057-0.181l0.003-0.194l0.031-0.193l0.095-0.161l0.192-0.099l0.198-0.004l0.39,0.11l1.343,0.165  l0.092-0.021l0.18-0.093l0.107-0.021l0.985,0.021l0.403,0.095l0.192,0.021l0.202-0.022l0.378-0.098l0.212-0.016l1.13,0.242  l0.396,0.029l0.885-0.066l0.74-0.068l0.786,0.057l0.395,0.114l0.299,0.174l0.377,0.283l0.107,0.158l0.43,0.21l0.05-0.002  l0.026,0.027l0.025,0.14l-0.008,0.185l-0.05,0.25l-0.079,0.219l-0.093,0.095l-0.093,0.036l-0.071,0.086l-0.061,0.092l-0.057,0.059  l-0.102,0.022h-0.182l-0.096,0.052l-0.104-0.02l-0.729,0.181l-0.185,0.01l-0.166-0.026l-0.146-0.076l-0.236,0.091l-1.752,0.063  l-0.233-0.093l-0.076,0.109l-0.139,0.058l-0.128,0.079l-0.035,0.175l0.087,0.168l0.156,0.076l0.171,0.021l0.125-0.002l0.01,0.039  l0.106,0.185l0.045,0.056l0.077,0.028l0.185,0.021l0.082,0.047l0.141,0.115l0.133,0.076l1.312,0.525l0.159,0.168l0.033,0.146  l0.085,0.137l0.232,0.26l0.132,0.05l0.432,0.054l0.103,0.002l-0.026-0.069l-0.016-0.026l-0.027-0.04l0.174,0.025l0.06-0.032  l0.025-0.122h0.057l0.128,0.058l0.216,0.023l0.204-0.01l0.089-0.04l0.051-0.109l0.11,0.002l0.108,0.048l0.047,0.028l0.384,0.129  l0.041,0.032l0.022,0.086l0.028,0.018l0.057-0.012l0.028-0.025l0.018-0.024l0.023-0.013l0.108-0.028l0.136-0.132l0.072-0.029  l0.098,0.029l0.179,0.132l0.104,0.028h0.445l0.351,0.15l0.203,0.661l0.336,0.15l0.113-0.027l0.026-0.062l0.011-0.068l0.067-0.047  l0.075,0.021l0.063,0.06l0.073,0.038l0.109-0.053l0.039-0.074l-0.011-0.187l0.029-0.084l0.058-0.041l0.258-0.094l0.087,0.069  l0.132,0.287l0.04,0.313l-0.132,0.217l0.191,0.015l0.073-0.308l-0.007-1.205l-0.13-0.424l-0.002-0.123l0.062-0.104l0.104-0.033  l0.124,0.027l0.124,0.078l0.244,0.379l0.043,0.027l-0.07,0.423l0.007,0.157l0.032,0.096l0.237,0.504l0.093,0.15l0.141,0.102  l0.364,0.072l0.346,0.178l0.182,0.063l0.803,0.08l1.333-0.146l1.138,0.079l1.149-0.032l0.396,0.149l0.057-0.233l-0.058-0.242  l-0.121-0.226l-0.136-0.186l-0.278-0.202l-0.088-0.134l0.051-0.214l0.132,0.06l0.138,0.017l0.114-0.035l0.063-0.102l0.071,0.118  l0.087,0.085l0.221,0.137l-0.133,0.149l0.012,0.122l0.116,0.072h0.183l-0.011,0.129l0.084,0.006l0.111-0.029l0.073,0.03l0.001,0.08  l-0.037,0.081l-0.052,0.084l-0.038,0.088l0.054-0.025l0.142-0.035L42.04,44.91l-0.159,0.049l-0.161,0.008l-0.131-0.025l-0.001,0.117  l0.026,0.063l0.102,0.09l0.036,0.011l0.112-0.018l0.041,0.007l0.037,0.054l0.008,0.055v0.053l0.018,0.043l1.01,1.08l0.284,0.245  l0.483,0.153l0.272,0.228l0.391,0.085l0.379,0.145l0.19,0.032l0.157,0.05l0.111,0.133l0.063,0.187l0.021,0.213l0.068,0.161  l0.158,0.178l0.171,0.084l0.113-0.125l-0.075-0.017l-0.092-0.05l-0.058-0.065l0.024-0.071l0.083-0.021l0.108,0.024l0.188,0.069  l0.206,0.031l0.179-0.001l0.164-0.05l0.156-0.116l0.025,0.121l-0.01,0.14l0.031,0.112l0.143,0.031v0.063l-0.189,0.074v0.066  l0.207,0.076l0.205,0.106l0.157,0.022l0.063-0.172l0.104-0.158l0.238-0.006l0.622,0.182l0.654,0.017l0.118,0.039l0.063,0.095  l0.044,0.111l0.055,0.092l0.074,0.063l0.055,0.021l0.396,0.109l0.054,0.028l0.088,0.08l0.093,0.049l0.091-0.014l0.07-0.065  l0.027-0.101l0.036-0.082l0.082,0.086l0.14,0.234l0.089,0.086l0.087,0.053l0.203,0.063l0.183,0.002l0.479-0.06l0.13,0.021  l0.172,0.158l0.152,0.094l0.742,0.215l0.373,0.034l0.367-0.032l0.379-0.102l0.488-0.237l0.182-0.032l0.397-0.008l0.168-0.039  l0.159-0.089l0.063,0.074l0.099-0.039l0.101,0.008l0.111,0.022l0.283,0.018l0.07-0.008l0.03-0.037l0.019-0.05l0.041-0.056  l0.054-0.043l0.046-0.019l0.43-0.042l0.428-0.1l0.117-0.053l0.061-0.041l0.066-0.009l0.135,0.04l0.191,0.108l0.096,0.069  l0.063,0.059l0.116,0.158l0.046,0.101l-0.036,0.045l-0.254,0.007l-0.117-0.021l-0.105-0.06l-0.059,0.135l0.043,0.074l0.114,0.037  l0.49,0.076l0.146,0.055l0.149,0.102l0.192,0.195l0.188,0.271l0.145,0.314l0.056,0.33l0.039,0.143l0.174,0.302l0.04,0.167  l0.02,0.188l0.086,0.32l0.021,0.172l0.067,0.071l0.301,0.101l0.066,0.101l-0.035,0.144l-0.088,0.066l-0.103-0.015l-0.084-0.101  l-0.062,0.283l0.1,0.279l0.142,0.277l0.072,0.275l0.032,0.643l0.057,0.336l0.064,0.093l0.082,0.009l0.34,0.26l0.113,0.113  l0.139,0.262l0.102,0.149l0.116,0.065l0.325-0.019l0.125,0.036l0.654,0.476l0.066,0.142l0.023,0.084l0.06,0.094l0.11,0.135  l0.017,0.069l0.007,0.093l0.032,0.051l0.101-0.055l0.146-0.007l0.188,0.116l0.17,0.156l0.098,0.111l0.163,0.316l0.11,0.106  l0.203,0.04l0.11,0.05l0.302,0.358l0.059-0.141h0.068l0.101,0.211l0.313,0.082l0.603-0.018l0.141-0.066l0.117-0.114l0.14-0.106  l0.2-0.049l0.338,0.04l0.173,0.05l0.245,0.169l0.158,0.052l0.456,0.026l0.119-0.009l0.033-0.021l0.061,0.035l0.182,0.055  l0.069,0.008l0.274-0.014l0.07,0.014l0.063,0.031l0.133,0.104l0.084-0.012l0.357-0.189l0.471,0.174l0.162,0.027h0.102l0.063-0.018  l0.061-0.025l0.098-0.023l0.064-0.025l0.047-0.029l0.053-0.002L69.4,58.6l0.121-0.139l0.242-0.105l0.289-0.066l0.268-0.025  l0.261,0.094l0.181,0.218l0.158,0.245l0.186,0.183l0.065-0.183l0.181,0.037l0.334,0.213v0.068l-0.195,0.266l-0.063,0.035  l-0.083,0.028l-0.074,0.039l-0.029,0.065l0.033,0.219l0.099,0.1l0.144,0.066l0.172,0.117l0.058-0.065l-0.06-0.11l0.088,0.014  l0.332,0.127l0.25,0.167l0.09,0.084l0.287,0.462l-0.125,0.346l-0.069,0.063l-0.063,0.07l-0.029,0.471l-0.379,0.238l-0.067,0.058  l-0.022,0.159l-0.063,0.146l-0.099,0.121l-0.125,0.08l-0.137,0.037l-0.119-0.006l-0.056-0.056l0.054-0.115l-0.062-0.006  l-0.032,0.002l-0.027,0.004l-0.133,0.111l-0.146,0.354l-0.14,0.075l-0.178,0.027l-0.932,0.438l-0.174,0.127l-0.152,0.222  l-0.396,0.212l-0.162,0.111l-0.162,0.245l-0.026,0.059l-0.039,0.037l-0.179,0.06L68.4,64.527l-0.244-0.08l-0.082-0.006l-0.018,0.061  l0.123,0.125l0.02,0.083l-0.44,0.399l-0.032,0.074L67.71,65.23l-0.206,0.285l-0.175,0.157l-0.043,0.075l0.026,0.107l-0.063,0.037  l-0.063,0.103l-0.063,0.062l-0.068,0.032l-0.115,0.013l-0.068,0.021l-0.012,0.091l-0.172,0.324l-0.012,0.179l0.061,0.107  l0.103,0.088l0.124,0.058l0.126,0.021l0.179-0.012l0.57-0.153l0.391,0.03l0.334-0.032l0.586-0.144l0.855-0.022l0.174-0.024  l0.258-0.103l0.166-0.007v-0.066H70.35l0.146-0.175l0.24-0.063l0.268,0.021l0.236,0.076l0.061-0.1l0.092-0.04l0.094,0.015  l0.068,0.064h0.063l0.129-0.095l0.237,0.045l0.461,0.185l0.234,0.035l1.194-0.054l0.218-0.056l0.195-0.098l0.298-0.242l0.146-0.063  l0.19,0.016l0.202,0.043l0.203,0.012l0.189-0.101l1.198-0.101l1.177,0.07l0.205-0.045l0.387-0.134l0.199-0.026h0.67l0.354-0.053  l0.737-0.199l0.425-0.017l0.835,0.097l1.219,0.295l0.137-0.021l0.123-0.076l0.185-0.054l0.354-0.04l0.188,0.021l0.36,0.096  l0.176,0.023l0.662-0.023l0.201,0.023l0.322,0.166l0.383,0.271l0.377,0.201l0.308-0.047l0.192,0.112l0.275,0.056l0.297,0.006  l0.25-0.033l0.059-0.03l0.076-0.09l0.025-0.021l0.064,0.011l0.092,0.049l0.309,0.071l0.102,0.01l0.912-0.057l0.471-0.114l0.035-0.37  l0.375-0.172l0.24-0.018l0.002-0.066l0.045-0.104l0.108-0.041l-0.043-0.156l-0.021-0.045l-0.02,0.043l-0.023,0.035l-0.035,0.029  l-0.047,0.032l-0.066-0.083l-0.03-0.104l0.019-0.097l0.078-0.063l0.121-0.006l0.092,0.051l0.164,0.162l0.017-0.194l0.054-0.167  l0.096-0.139l0.146-0.106l0.016,0.251l0.049,0.189l-0.014,0.153l-0.178,0.151l-0.104,0.023l-0.115,0.012l-0.084,0.045l-0.008,0.115  l0.072,0.058l0.315-0.021l0.017,0.654l0.229-0.1l0.125-0.119h0.058l0.161,0.139l0.223-0.09l0.352-0.256l0.061-0.055l0.01-0.26  l0.027-0.086l0.072-0.009l0.404,0.009l0.205-0.053l0.158-0.127l0.144-0.152l0.159-0.135l0.231-0.105l0.236-0.057l1.137-0.078  l0.981-0.027l0.553-0.115l0.395-0.03l0.58-0.122l0.428,0.016l0.391,0.101l0.343,0.011l0.292-0.258l0.051-0.35l0.049-0.053  l0.063-0.021l0.188-0.107l0.129-0.135l0.197-0.079l0.193-0.118L100,63.305L99.979,63.116z M49.193,39.082l0.008,0.002l0.002,0.001  L49.193,39.082z M49.253,39.143l-0.028,0.002L49.253,39.143v-0.01V39.143z"/></svg>