<svg xmlns="http://www.w3.org/2000/svg" xmlns:xlink="http://www.w3.org/1999/xlink" version="1.1" x="0px" y="0px" viewBox="-461 335 100 100" fill="#e0e0e0" style="enable-background:new -461 335 100 100;" xml:space="preserve"><path d="M-380.8,412.5l0.2-0.2l0.3,0.2h0.7l0.2,0.2l0.6-0.1l-0.2-0.7l-0.4-0.4h-0.2l-0.3-0.5l-0.9-0.6l-0.1-0.3l-1.6-1l-0.9-0.9  v-0.2l-1-1v-0.3l-0.6-0.7l-0.2-0.5l-0.7-0.7l-0.1-0.2h-0.2l-0.4-0.4l-0.1-0.3l-0.2,0l-0.4-0.4l0-0.2l-1.4-1.5l-0.3-0.6l-0.5-0.5  v-0.2l-0.8-1.1v-0.3l-0.5-0.5v-0.2l-0.8-0.8l-0.2-1.1l-0.6-0.6l-0.5,0.2l-0.2,0.3v0.2l-0.3,0.2v0.7l0.6,1.3l-0.2,0.2h-0.5l-0.6-0.4  l-0.1-0.7l-0.2,0.1l-0.1,0.2h-0.3l-0.6,0.5l-0.2-0.1l0.2-0.2l-0.2-0.4l-0.3,0.2l-0.6-0.1l0.2-0.4h0.5l0.6-0.2l-0.2-0.4l-0.2-0.1  v-0.2l-0.5-0.3v-0.2l0.4-0.1l0.1-0.2l0.2-0.1l0.6,0.7l0.4-0.1l-0.2-0.3l0.2-0.1l0.5,0.5h0.3l0.8-0.6l0.4-0.3l0-0.5l-0.8-1.8  l-0.3-0.5v-0.3l-1-1l-0.1-0.2h-0.3l-0.5-0.5h-0.2l-1.1-0.7h-0.3l-0.1-0.3l-1-0.9l-1.4-1h-0.3l-0.3-0.3h-0.2l-0.6-0.6l-0.5-0.2  l-0.3-0.3h-0.8l-0.2-0.2l-3,0l-0.2-0.2l-0.8,0l-0.2-0.2l-1.3,0l-0.2-0.2h-0.6l-0.2,0.2h-2.1l-0.2-0.2h-0.5l-0.2-0.2l-1.3-0.3  l-1.1-0.8h-0.2l-1.1-0.7h-1.4l-0.6,0.3h-1.4l-0.6-0.3h-0.5l-0.5-0.3l-0.8-0.2l-0.6-0.3h-1.1l-1.6-0.8l-1.7-1.5v-0.2l-0.3-0.2v-0.2  l-0.4-0.4h-0.2l-1-0.8l-0.5-0.2l-0.5-0.5l-0.6-0.3l-0.1-0.2l-0.9-0.9h-0.2l-0.8-0.8h-0.2l-1.4-1.3l-1-0.5l-0.6-0.6v-0.3l-0.8-1.6  l-0.6-0.5v-0.2l-0.5-0.5l-0.5-1.3l-0.3-0.3l-0.5-1l-1-1l0.2-0.2v-0.5l-0.2-0.2l-0.3-1.3l-0.2-0.2v-0.3l0.2-0.2l-0.2-1l-0.2-0.2  l0.2-0.5l-0.2-0.2v-1.3l-0.2-0.2l0.2-1.2l-0.2-0.3h-0.6l-0.1,0.2l-0.3-0.1l0.4-0.4l0.9-0.1l-0.2-1.2l-0.2-0.2l-0.2-0.7l-0.5-0.8  l-0.5-0.5v-0.5l-0.5-0.8v-0.3l-0.3-0.3l-0.3-0.7l-0.5-0.5v-0.2l-0.3-0.2v-0.2l-0.3-0.2v-0.2l-0.6-0.7l-0.8-0.5h-1.1l-0.2-0.2h-1.1  l-0.6-0.3l-0.3,0.2l-0.3-0.5h-0.3l-0.5-0.3h-0.5l-0.3-0.3l-0.3,0l-0.2-0.3h-0.3l-0.2-0.2l-2.4-1.3l-0.6-0.7l-0.2,0.2l-0.2-0.3h-0.2  l-0.6-0.7l-0.6-0.3l-0.5-0.5l-0.6-0.2l-0.8-0.8l-0.6-0.3h-1l-0.4,0.4v0.3l-0.3,0.3l-0.3,0.8l-0.5,0.3v0.3l0.6,0.7h0.2l0.4,0.4v0.2  l0.6,0.8l-0.2,0.2v0.3l-0.2,0.3l-0.3,0.2l0,0.7l0.2,0.2v0.3l0.5,0.5v0.3l0.2,0.2l0.2,0.3l-0.5,0.7v0.5l0.2,0.2l0.2,0.7l-0.3,0.3v1  l0.2,0.2v0.3l0.6,0.8l-0.3,0.3v1.6l0.2,0.2v0.8l0.5,0.5l0.2,0.7l0.5,0.3l-0.4,0.1l-0.3,0.5h-0.5l-0.4,0.4v0.2l-0.6,0.8l0.2,0.2  l0.2,0.7l0.8,0.8l0.2,0.8l0.4,0.4l0.6,0.2l0.9,1.2l0.2,0.7l0.4,0.4h1.4l0.6-0.7l0.3-0.1l-0.2-0.2v-0.7l-0.2-0.2l0.2-0.2l0.3,0.5  l0.2-0.2v-0.3l-0.3-0.3l0.1-0.1h0.2l0.5,0.5l0.5,0.2l0.1,0.3l-1,0.2l-0.2,0.2v0.3l0.2,0.2l-0.4,0.1l-0.4,0.4v0.3l0.6,0.8v0.2  l0.6,0.6h0.3l1.8,1.8l0.5,0.2l0.1,0.4l0.6,0.7v0.5l-0.2,0.2v0.7l0.2,0.2v0.3l1.4,0.1l0.4,0.4l0.2,0.7l0.6,0.5l-0.2,0.2l0,1l1.1,0.3  v1.3l0.2,0.2l-0.2,0.3l0.2,1.2l0.2,0.4l0.6,0.2l0.3,0.2v0.2l0.3,0.3v0.5l0.2,0.4l0.6,0.2l1,0.5l0.3,0.3h0.5l0.6,0.3h0.5l0.2-0.2h0.3  l0.2-0.4l1-1.3l0.1-0.6h0.5l0.8-0.5l0.2,0.2h0.3l1.3,0.7h0.5l0.2,0.3h0.2l0.3,0.3l0.5,0.2l0.1,0.4l1.1,1v0.3l-0.2,0.2v0.8l0.5,0.3  l0.3,1l0.3,0.3v0.5l1,1.1h0.2l0.2,0.3l0.4,0.2l0.2,0.3l0.2,1.3l0.2,0.2l0.2,0.1v0.2l0.3,0.3l-0.3,0.7v0.3l1.4,1.5l0.2-0.2h0.3  l0.2,0.2h0.8l0.2,0.3v0.3l0.4,0.4l0.5,0.2l0.3,0.3l0.6,0.2l0.3,0.3h0.2l0.4,0.6v0.5l0.2,0.3l0.5,0.2l1.1,1l1.4,0.7l0.2,0.2l0.8,0.2  l0.2,0.2l0.8,0.2l0.1,0.2h0.5l0.2,0.2h0.5l0.3,0.5h0.3l0.2-0.2l0.2,0.2h0.6l0.2,0.2l0.3,0.2h0.5l0.8,0.5h0.3l0.3,0.3h0.3l0.3,0.3  l0.5,0.2l0.5,0.5l0.7,0.3h0.3l0.3,0.3l0.6,0.2l0.2,0.6h0.8l1,0.8h0.3l0.8,0.7l0.3-0.2l0.1,0.4l0.3,0.1l0.1,0.2l0.6,0.4l0.5,0.2  l0.9-1.1v-0.2l0.4-0.2l0.6,0.4l0.2,1.6l0.5,0.3v0.2l0.4,0.4h0.6l0.5-0.3l0.5,0.5h0.3l0.6,0.3l1.8,2h0.3l0.2,0.2l0.2-0.1l-0.4-0.4  h-0.2l-1.2-1.4l0.2-0.1l0.2,0.2h0.5l0.4,0.4v0.5l0.7,0.7l0.8,0.2l0.7,0.3l0.4,0.4l-0.2,0.1l-1-0.7l-0.6,0.1l0.4,0.1l0.2,0.2h0.2  l0.6,0.7h1.1l0.7,0.5l0.8,0l0.1,0.3l0.6,0.4h0.3l0.2,0.2h0.7l0.6,0.3l0.5,0l0.2,0.2l1,0.2l1.6-1.8l0.8-0.3h0.5l0.2,0.2h1.9l0.5,0.3  l0.8,0.2l0.2,0.2l2.7,0l0.4-0.2l-0.2-0.3l-0.5,0l-0.2,0.2l-1-0.1l0.2-0.4H-380.8z M-361.2,424.3v-1.1l-0.2-0.2l0-0.5l-0.4-0.4  l-0.9,0l-0.1,0.1v0.8l0.3,0.5l0,1l0.2,0.2l0.2,0.3v0.8l0.2,0.4l0.4-0.2v-0.3l0.3-0.3V425l0.2-0.2v-0.3L-361.2,424.3z"/></svg>