<svg xmlns="http://www.w3.org/2000/svg" xmlns:xlink="http://www.w3.org/1999/xlink" version="1.1" x="0px" y="0px" viewBox="-345 257 100 100" fill="#e0e0e0" style="enable-background:new -345 257 100 100;" xml:space="preserve"><path d="M-245.6,277.5l-1.5,0.6l-7.9,3.5l-1.9,1.4l-3.3,1.7l-1.4,0.4l-1.2-0.3l-2,2.5l-3.2,1.9l-8.2,3.3l-1.7,0.1l-1,0.4l-3,0.2  l-3.6,2l-10.1,1.6l-6.4-0.7l-0.8-0.4l-8.2-0.4l-2-0.5l-1-0.2l-0.9-0.3l-1.8-1l-1-0.2l0.5,1.7l0.2,1.6l-0.1,3.5l-0.2,2l-0.7,1.7  l-0.9,1.4l-1.2,1l-1.6,0.4l-1.2-0.4l-1.1-0.7l-1.4-0.4l-1.5-0.2l0,0.1h-0.1l0-0.1l-1.4-0.2l-0.8,0l0,0l-0.9,0.1l-0.8,0.3l-0.1,0  l-0.7,0.3l-0.4,0.1l-0.3-0.1l-0.4-0.3l-0.2-0.1l-0.3,0.1l-0.1,0.3l-0.1,0.3l-0.7,0.5l-0.5,0.9l-0.6,1.6l-1,1.4l-1.3,1.3l-1.6,0.8  l-1.8,0.1l-0.8-0.3l-0.7-0.6l-1.3-1.4l-0.9-0.6l-0.5,0.3l-0.2,1l0.2,1.3l0.3,0.8l0.9,1.6l0.2,1v1.1l0.1,0.5l0.8,1.4l-0.4,0.7v0.7  l0.3,0.7l0.3,0.5l0.4,0.4l0.9,0.6l0.5,0.4l1,2.8v0.5l0.2,0.2l0.3,1.5l0.3,0.3l1.7,1.4l0.7,0.4l0.8,0.3l1.9,0.2l0.9,0.2l0.8,0.3  l2.2,1.4l1.7,0.8l1.8,0.3l1.8-0.2l0.5-0.2l0,0l2.3-0.8l0.9-0.1l1,0.1l1.5,0.4l0,0l0.7,0.2l0.1,0l0,0l0,0l0,0l0,0l0.1-0.1l0.1,0.9  l1.3,2.4l-0.2,1v0.3h3.9v-0.3l-0.9-1.2v-1.4l0.3-0.5h0l0.4-0.9l2-1.9l0.6-0.4l0.7-0.2l3.1-0.4l3.1,0.4l0.6-0.1l0.9-0.7l0.7-0.3  l3.2-0.7l1.3-0.8l0.1-1.5l0.7,0.8l1-0.2l1.3-0.6l1.4-0.3l0.6-0.3l0.5-0.5l0.4-0.6l0.4-0.4l0.5-0.2h1.4l0.7-0.2l0.2-0.3l0.3-0.9  l0.3-0.2l0.4-0.2l0.1-0.4l-0.1-1l0.1-0.9l0.2-0.9l0.3-0.9l0.3-0.7l1.1-1.1l0.9-0.3l0,0l0.7-0.3l1.9-0.1l0.2,0l0,0h0l0.6,0.1v0v0v0.1  h0.1v0h0.2l0.1,0l0.7,0.1l0.7,0.4l1.2,1.2l0.7,0.2l0.5-0.2l0.4-0.4l0.2-0.3l-0.1,0l0,0l0.1,0l0.2-0.2l0.3-0.4l0.4-0.3l2-0.6l2.3-0.3  l0.5,0.3l0.5,0.5l1.1,0.3l1.1,0.1l0.6-0.1l-0.5-0.4l-0.6-0.9l-0.5-0.9l-0.5-1.4l-0.7-0.8l-0.7-0.5l-0.8-0.2l0,0l-1.4-1.1l-0.5-0.7  l-0.2-0.7l-0.4-0.5l-1.7-1.8l-0.6-0.4l0.3-4.1l0.2-1l0.5-1l1.2-1.7l0.9-0.5l1,0.1l1.1,0.3l1-0.1l0.7-0.5l0.4-0.7l0.8-1.7l1-1.3  l1.3-1.1l9.3-5.6l3.9-3.4l4.1-2.7l0.2-0.2l1-0.2l0.3-0.1v-0.4l0.2-1.5l0.1-0.2l0.1-0.2l0.2-0.2l0.2-0.2L-245.6,277.5z"/></svg>