<svg xmlns="http://www.w3.org/2000/svg" xmlns:xlink="http://www.w3.org/1999/xlink" version="1.1" x="0px" y="0px" viewBox="-461 335 100 100" fill="#e0e0e0" style="enable-background:new -461 335 100 100;" xml:space="preserve"><path d="M-362.7,410.5l-0.8-0.4l-0.2-0.1l-0.1-0.2l-0.2-0.5l-0.1-0.1l-0.4-0.1l-0.7-0.1l-0.5-0.5l-0.4-0.2l-0.2-0.2l-0.6-0.8  l-0.2-0.1l-0.1,0.3l-0.1,0.4l-0.1,0.4l-0.3,0.5l-0.1,0.3l-0.1,0.2l-0.1,1.5l-0.1,0.8l-0.2,0.6l0.3,0.4l2.4,1.4l0.8,0.2l0.8,0.5  l0.4,0.1h0.8l0.2-0.1l0.1-0.2l0.1-0.2l0.1-0.2v-0.2l-0.1-0.2l0.1-0.2l0.3-0.5l0.1-0.3l0-0.2l0-0.2l-0.1-0.4l0.1-0.1l0-0.1l0-0.1  l0.1-0.1l-0.3-0.3L-362.7,410.5z M-361,406.7L-361,406.7l0,0.2L-361,406.7L-361,406.7z M-429.9,395.2l-0.2,0.5v0.1l-0.7,0.1  l-0.1,0.1l0.1,0.1l1,0.2l0.1-0.1l0.1-0.4l-0.1-0.4l-0.1-0.2L-429.9,395.2z M-412.2,415.5L-412.2,415.5l0.1-0.2l-0.1-0.2l-0.2-0.1  h-0.4l-0.3,0.1l0.5,0.7l0.1,0L-412.2,415.5z M-395,398.7l0-0.3l-0.1-0.2l-0.1-0.1l-0.1,0.1l-0.1,0.2l-0.1,0.6v0.1l0.1,0.3l0.1,0.1  l0.1,0.1l0.1,0.1l0,0.1l0.1,0.1l0.1-0.1l0.2-0.2l0-0.1v0l-0.1-0.1V398.7z M-455.8,406l-0.1-0.5l-0.1-0.3l0-0.2l0.2-0.5v-0.3  l-0.2-0.2l-0.3,0.1l-0.2-0.1l-0.1-0.7l-0.5,0.1l-0.1,0.4l0.1,0.5l0.4,1.2l0.3,0.6l0.4,0.4l0.4-0.1L-455.8,406z M-412.7,372.5  l0.3,0.2l0.3,0l0.2-0.1l0.2-0.2l0.2-0.3l0.2-0.3l0.2-0.1l0.1-0.1l0,0h0.1v-0.2l-0.6,0.2l-1.2,0.1l-0.2,0.1l0.1,0.4L-412.7,372.5z   M-421.6,357.8l0.5-0.1l0.2,0.1l0.4,0.6l0.2,0.1l0.6-0.2l0.3-0.2l0.2-0.2l0.2-0.3l0.1-0.4l0-0.3l-0.2-0.2l1.2-0.5l0.2,0l0.1-0.1  l0.2,0l0.1,0l0-0.3l-0.1-0.1l-0.2-0.1h-0.4l-1.6,0.2l-0.1,0.1l-0.3,0.2l-0.2,0.1l-0.6,0l-0.5,0.3l-0.5,0.6l-0.3,0.1v0.2l0.2,0.3  L-421.6,357.8z M-424.9,393.2l0.2-0.4l0-0.2l-0.1,0.2l-0.1,0.3l-0.2,0.1l-0.2-0.3l-0.1-0.3l0-0.3l0.1-0.3l0.1-0.2l-0.4-0.1l-0.3-0.3  l-0.2-0.4l-0.1-1l-0.2-0.1l-0.2,0.2l-0.1,0.3l-0.1,0.6l0.2,0.3l0.3,0.1l0.3,0.2l0.2,0.4l0,0.4l-0.1,0.4l-0.2,0.3l-0.2,0.2l-0.2,0.1  l-0.2,0.2l-0.1,0.5l0.1,0.9l0.4,0.6l0.5,0.1l0.5-0.4l0.1-0.4l0-0.8l0.1-0.4L-424.9,393.2z M-434,415.3l-0.4-0.5l-0.4-0.4l-0.4-0.3  l-0.6-0.1l-0.4-0.2l-0.8-1l-0.5-0.1l-0.5,0.1l-1.2,0.6v0.2l0.2,0.1l0.2,0l0.2-0.1l0.3,0l-0.1,0.2l-0.3,0.2l-0.1,0.1l0.1,0.2l0.1,0.1  l0.2,0l0.1,0.1l0.2,0l1.1-0.1v0.2l-0.2,0.2l0.1,0.2l0.6,0.4l0.1,0.1l-0.1,0.1l-0.1,0.1l0.1,0.2l0.1,0.2l0.1,0.1l-0.3,0.1l-0.3-0.3  l-0.3-0.4l-0.3-0.2v0.1h0.1l-0.1,0.8l0.3,0.6l0.5,0.4l0.5,0l0.1-0.1l0.2-0.2l0.1-0.1l0.1,0l0.6,0.2l0.7,0.6v0.2l-0.4-0.2l-0.4-0.3  l-0.4-0.2l-0.4,0.2v0.2l0.2,0.2l0.6,0.2l0.2,0.2l0.2,0.1l0.3-0.2l0.3-0.2l0.2-0.1l0.4,0l0.2-0.1v-0.2l-0.5-1.7L-434,415.3z   M-427.1,418.1v-0.4l-0.2-0.2l-0.3-0.2l-0.2-0.2l0.2,0.4l0,0.2l-0.2,0.1h-0.3l-0.2-0.1l-0.2-0.7l-0.2-0.3l0.1,0.4l-0.1,0.2l-0.2,0.1  h-0.2l-0.2-0.1l-0.2-0.2l-0.3-0.5l-0.4-0.3l-1.2-0.7l-0.2-0.2l0.1,0.4l0.2,0.5l2.4,2.7l0.3,0.1l0.2-0.1l0.3-0.3l1.1-0.3l-0.1-0.1  L-427.1,418.1z M-397.3,397.6L-397.3,397.6l-0.1-0.2l-0.2,0.2l-0.2,0.6l-0.2,0.3l-0.1,0.2l-0.2,0.2l-0.2,0.2l-0.2,0.3v0.6l0.2,0.7  l0.3,0.5l0.3-0.1l0.1-0.2l0.2-0.2l0.3-0.2l0.2-0.1l0.5-0.6v-0.1l-0.8-2.1L-397.3,397.6z M-398.9,414.2l-1.2-0.2l-1.2-0.1l-0.5-0.2  l-0.3-0.5h-0.2l-0.2,0.1l-0.1,0.2l0.1,0.2l0.1,0.2l0.5,0.3v0.2l-0.1,0.1l-0.1,0.1v0.2l0.1,0.2l-0.2,0.1l-0.5,0.2l-0.1,0l-0.2-0.1  l-0.3-0.2l-0.2,0l0.1,0.3l-0.1,0.2l-0.2-0.1l-0.2,0.1l-0.3,0.4l0.1,0.1l0.1,0.2l0.1,0.1l-0.2,0.1l-0.1,0.1l-0.1,0.2l0.1,0.2h-0.2  v0.2l0.9,0.4l0.4,0.1l0.3-0.2l0.7-1l0.5-0.4l0.5-0.2l0.5-0.1l1.7,0.4l0.3,0l0.2-0.1l0.1-0.1l0-0.3l-0.2-0.8L-398.9,414.2z   M-454.8,370.5l-0.1,0.1l-0.1,0.1l-0.1,0.1l-0.1,0.3l0.1,0l0.4-0.2l0.1,0l0.3,0.2l0.4,0.4l0.2,0.2l0.4,0.9l0.1,0.1l0.4-0.2l1.1-0.3  l0.1-0.4l0.6-0.5l0.2-0.2l0.2-0.3l0.2-0.6l0.2-0.3l-0.1-0.1l-0.1-0.1h0.1l0.1,0l0.1-0.1l0.1-0.1l-0.2-0.1l-0.1-0.3l-0.1-0.8  l-0.1-0.1l-0.1-0.1l0-0.2l0.1-0.3l0.1-0.1l0.3-0.3l0.1,0.1l0.1,0.1l0.1,0.2v0.3l0.1-0.1l0.1-0.1l0.1-0.3l0.2-0.9l0-0.1l0-0.2  l-0.1-0.4l0-0.1l0-0.2l0.1-0.3l0.1-0.2l-0.2-0.1l-0.2,0.3l-0.2,0.3l-0.3-0.2l-0.5,1l-0.3,0.4l-0.3-0.1l-0.4,0.2l-0.8,0.1l-0.4,0.2  h-0.1l-0.1,0l-0.1,0l-0.1,0.1l0,0.4l0,0.2l0.1,0l-0.1,0.3l-0.3,0.4l-0.1,0.2l0.1,0.1l0.2,0.1l0.2,0l0.2,0l-0.4,0.5l-1,0.1l-0.4,0.3  l0,0.1l0.1,0.2l0,0.2l-0.1,0.1L-454.8,370.5z M-421.6,411.7l-0.5,1.2l-0.1,0.7l-0.8,1.1l-0.3,0.2l-0.8,0.9l-0.3,0.4l-0.2,0.6  l0.1,0.1l0.1,0l0.1,0l0.1-0.1l0.1,0.3l0,0.2l-0.4,0.1l-0.1,0l-0.1-0.1l-0.1,0.1l-0.1,0.4l-0.2,0.4l-0.2,0.2l-0.2,0.1l-0.3,0l0.4,0.4  l0.2,0.2l0.1,0.3l0.4,1.4l0.2,0.2l0.3,0l0.2-0.1l0.1-0.3l1.4-4.5l0.7-1.5l0.3-0.8l0.7-3l-0.3-0.1L-421.6,411.7z M-408.1,420.2  l-0.2-0.2l-0.7-0.6l-0.2-0.4l0.1,0l0.2-0.1l-0.2-0.1l-0.2-0.2l-0.3-0.4l-0.1-0.4l-1.1-1l-0.1,0.3l0,0.3l0,0.3l0.1,0.3l-0.1,0  l-0.3,0.2h-0.4l-0.3,0.3l0,0.2l0.2,0.3l0.1,0.4l-2.5-1.4l-0.3-0.1l-0.3-0.2l-0.4-0.9l-0.2-0.2l-0.2-0.1l-0.7-0.5l-0.4-0.2l-2,0.4  l-0.2-0.1l-0.6,0.7l-0.2,0.4v0.4l0.1,0.2l0.7,0.9l0.2,0.1l0.2,0.1l-0.3,0.5l-0.4,0l-0.4-0.1l-0.4,0.2l-0.1,0.4l0.1,0.4l0.3,0.3  l0.8,0.2l0.8,0.4l0.7,0.2l1.5,1l0.9,0.8l1.3,0.8l0.3,0.1l0.5-0.5l0.7-0.3l0.7-0.2l2.2,0.5l0.6-0.2l0.4-0.5l0.1-0.5l-0.5-0.2l0.1-0.3  l0.1-0.1l0.1-0.1l0.2-0.2l0.1-0.3v-0.1l-0.1-0.2L-408.1,420.2z M-425.4,413h0.6l0.5,0l0.2,0l0.2-0.2l0.1-0.2l0.1-0.3l0.1-0.3  l0.4-0.5l0.1-0.1l0-0.5l0-0.2l0.2-0.5l0.1-0.4l0-0.5l0-0.5l-0.1-0.4l-0.4-0.6l-0.1-0.3l0.1-0.4l0.2-0.1l0.2,0.2l0.2,0.3h0.1  l-0.1-0.4l-0.4-1.1l-0.1-0.2l-1.4-2l-0.2-0.2l-1-0.2l-0.3-0.1l-0.1,0.2l0,0.1l0.1,0.1l-0.2,0.1h-0.2l-0.1-0.2l0.1-0.3l0.2-0.1  l0.2-0.1l1,0.1l0.7-0.3l0.4-0.3l0.1-0.1l0-0.2l-0.1-0.3l-0.3-0.3l0-0.1l-0.1-0.1l0-0.2l0-0.2l0-0.2l-0.7-1.1l-0.4-0.5l-0.3,0v0.2  l0.1,0.6v0.4l-0.2-0.2l-0.1-0.1l0.1,0.4l0.1,0.4l0.1,0.4l-0.2,0.3l-0.1-0.1l-0.2-0.2l-0.2-0.1l0,0.2l0.1,0.1l0.1,0.1l0.1,0.1l0.1,0  l0.1,0.1l0.1,0.2l0,0.2l-0.1,0.1l-0.5,0.2l-0.9,0.5l-0.2,0l-0.3,0.5l-0.5,0l-0.2-0.4l0.5-0.8l0.1-0.1h0.1l0.1-0.1l0.1-0.2l0-0.1  l-0.2-0.2l-0.1-0.1l0.1-0.3l0.2-0.1h0.2l0.2,0.1l-0.4-0.3l-0.2-0.1l-0.3,0l-0.1-0.1l-0.1-0.2l-0.2-0.3l-0.2-0.3l-1-0.7l-0.4-0.2  l-0.2,0.1l0.1,0.5l-0.1,0.2l-0.2,0v-0.1l-0.1-0.4v-0.1l-0.1,0l-0.4,0l-0.4,0.1l-0.6,0.5l-1.8,0.6l-1.4,1l-0.7,0.3l-0.7-0.4l-0.1-0.3  v-0.2l-0.1-0.1l-0.2-0.1l-0.8,0.2l-0.5,0.7l-0.2,0.1l-0.2,0.1l-0.1,0.1l-0.1,0.2l0.5,0.1l1.4,1.2l-0.4,0.1l-0.4-0.2l-0.4-0.4  l-0.4-0.2v0.2l0.5,0.6l0.2,0.1l0.5,0.1l0.3,0.2l0.1,0.3l-0.4,0l-0.1,0l0.8,0.3l-0.1,0.3l-0.2,0.1l-0.3,0l-0.2,0.1l0.3,0.4l0.2,0.2  l0.2,0.1l0.4,0l0.2,0l0.1,0.1l0,0.8l0,0.1l0.1,0.4l0,0.3l0,0.1l-0.1,0.2l0,0.2l0,0.1l0.1,0.2l0,0.1l0.1,0.1l0.2,0.1l0.2,0.1l0.6,0.1  l0.2,0.1l0,0.2l-0.1,0.2l0,0.3l0,0.3l0.2,0.5l0,0.2l0,0.1l0,0v0.1l0,0.1l0,0.1l0.5,0.1l0.1,0l0.1-0.4l-0.5-0.7l-0.1-0.4l0.2-0.2  l0.2,0.1l0.3,0.3l0.2,0l0.2-0.1l0.2-0.1l0.2-0.1l0.3,0.1l0.2,0.3l0.2,0.4l0.2,0.4l-0.2,0.4l-1.1,0.8l0.2,0.1l0.5-0.1h0.3l0.2,0.1  l0.4,0.3l0.2,0.2v-0.5l0.1-0.2l0.4,0l1.1,0.7l0.2,0l0.4,0l0.2,0l0.1,0.1l0.1,0.1l0.1,0.1l0.3,0.1l0.9,0.1l0.5,0.3l0.3,0l0.2-0.2  l0.2-0.2l0.2-0.2l0.3-0.1L-425.4,413z M-437.8,415.1l-0.1-0.4l-0.2-0.1l-0.8-0.2l-0.3-0.2l-0.6-0.6l-0.3-0.1l-0.2,0.1l-0.1,0.1  l-0.1,0.1l-0.1,0.1l-0.1,0l-0.4,0l-0.8,0.3h-0.2l-0.1-0.4l0.2-0.2l0.6-0.1l0.3-0.1l0.2-0.2l0.4-0.5l-0.3-0.5l-0.2-0.2l-0.2-0.1h-0.4  l-0.2,0l-0.1-0.1l0.2-0.1l0.2-0.1l0.4,0v-0.2h-0.2l-0.1-0.2v-0.2l0.1-0.1l0.2,0l0.2-0.1l0.3-0.2l0.1-0.2l0.1-0.2l0.1-0.1l0.2-0.1  l0.8,0.2l0.2,0l0.2-0.1l0.2-0.1l0.1-0.2l0-0.4l0.1-0.2l0.1-0.2l0.1-0.3l-0.1-0.4l-0.2-0.2l-0.2-0.1l-0.5-0.9l-0.1-0.2v-0.2l0.2-0.2  l-0.1-0.2l-0.2-0.2l-0.2-0.2l-0.3-0.2l0-0.2l0.1-0.2l0-0.3l-0.1-0.2l-0.2-0.4l-0.1-0.3l0.2-0.1l0.5-0.1l0.2-0.1l0.2-0.3l0.1-0.3  l-0.1-0.3l-0.8-0.4l-0.1,0l-0.1,0.1l-0.7,0.2l-0.3,0l-0.2-0.2l0.2-0.2l0.5-0.2l0.2-0.3l-0.1-0.1l0-0.1h0.2l0.3,0.1l0.2,0l0.2-0.1  l0.3-0.2l0.9-0.2l0.1-0.1v-0.2l0-0.2l0.1-0.1l0.3-0.1l0.2-0.1l0.4-0.5l0.7-0.6l0.2-0.3h-1.3l-0.3-0.1l-0.1-0.2l-0.1-0.3l-0.2-0.3  l-0.7-0.7l-0.2-0.1l-1,0l-0.3-0.1v-0.1l0-0.1l0-0.1l0-0.1l0.3,0.2h1.5l0.1,0.1l0.5,0.4l0.9,0.3l0.4,0l0.7-0.4l1.5-0.5l0.3,0.2  l0.1-0.1l0.1,0l-0.2-0.4l0.2-0.3l0.6-0.3V396h-0.4l-0.2,0l0-0.2l0.1-0.4l0.2-0.5l0.1-0.3l-0.1-0.1l-2-0.4l-0.4-0.4l0.3-0.1l0.7,0  l0.4-0.1l0.1-0.1l0.1-0.2l0.1-0.2l0.2-0.1l1.4-0.1l0.2,0.1l0.1,0.2l0.1,0.2l0,0.2l0.1,0.2l0.2,0.4l0.1,0.1l0.2,0.1l0.1-0.1l0.1-0.1  l0.1-0.1l0.1-0.2l-0.1-0.3l-0.1-0.2l-0.1-0.1l0.1-0.2l0.2-0.2l0.2-0.1h0.1l0.1-0.2l0.3-0.4l0.1-0.2l0-0.2l0-0.4l0-0.6l0-0.3l0.4-0.8  l-0.1-0.2l-0.2,0l-0.3,0.2l0.2-0.5l0.2-0.4l0.1-0.5l-0.1-0.6l-0.2-0.5l-0.2-0.3l-0.1-0.4l0.2-0.6l0.3-0.5l0.8-0.6l0.4-0.4l0.4-0.8  l0.1-0.1l0.2,0l0.1-0.1l0.1-0.2l0.1-0.3l0.2,0.2l0.4-0.2l0.2,0.1l0.1,0.2l0.2,0.1l0.2,0.1h0.2l-0.4,0.8l0,0.3l0.2,0.4l-0.2,0.4  l-0.2-0.1l-0.2-0.3l-0.2-0.1l-0.3,0.1l-0.5,0.4l-0.3,0l0.3,0.4l0.2,0.4l0.2,0.2l0.4-0.1l0.3-0.2l0.1,0l0.6,0.2l0.1,0.1l0.1,0.3  l-0.1,0.1l-0.2,0.2l-0.1,0.1l0.1,0.2l0.1,0.5l0.1,0.2l0.2,0.1l0.2,0l0.2-0.1l0.1-0.2l-0.1-0.4l-0.2-0.6l-0.1-0.6l0.5-0.5l0.3-0.5  l0.4-0.4l0.3,0.1l0.2,0.1l0.2,0l0.1,0.1l0,0.3l-0.1,0.3l-0.1,0.1l-0.4,0.1l0.3,0.6l0.5,0.4l0.4-0.1l0.2-0.8l0-0.8l0.1-0.3l0.2-0.4  l0.7-0.5l1.3-1.9l0.2-0.6l-0.1-0.5l0.1-0.7l0.2-0.6l0.3-0.3v-0.2l-0.9-0.9l-0.5-0.8l-0.2-0.2l-0.5-0.3l-0.5-0.1l-3.3,0.5l-1.2-0.1  l-1-0.6l-0.4-0.4l-0.1-0.1l0-0.2l-0.1-0.5l-0.1-0.2l-0.3-0.2l-0.2,0.2l-0.5,0.6l-0.6,0.4l-0.1,0.3l-0.1,0.7l0,1l-0.2,0.1l-0.4,0  l0.2-0.2l0.2-0.3l0.1-0.4l-0.1-0.3l0.1-0.2l0.1-0.8l0.1-0.1l0.7-0.8l1-0.7l0.2-0.7l-0.1-0.9l-0.3-0.6l-0.3,0.1l-0.4,0.2l-0.6,0  l-0.9-0.2l0.1-0.2l0-0.1l-0.5-0.2l-0.2,0.1l-0.1,0.4l-0.1,0.2l-0.1,0.1l-0.2,0.1l-0.2,0l-0.1,0l-0.2-0.1l-0.1,0l-0.1,0.1l0,0.1v0.1  l-0.1,0.1l-0.2,0.1l-0.5,0.3l-2.1,0.7l-0.6-0.1v-0.2l2-0.3l0.6-0.5l0.5-0.2l0.4-0.4l0.2-0.1l0.2-0.1l0.1-0.1l0.3-0.2l0.4-0.2  l0.3,0.1l0.3,0.2l0.2,0.2l0.2-0.2l0.2-0.1h0.6l0.2,0l0.3,0.2h0.1l0.2-0.2l0-0.2l-0.1-0.1l-0.1-0.2l-0.3-1.1l-0.1-0.5l-0.1-1  l-0.2-1.3l-0.1-0.4l0.1-0.2l0.1-0.7l0.1-0.3l0.1-0.2l0.4-0.5l-0.3-0.1l-1.1,0l-0.3-0.1l-0.5-0.5l-0.5-0.2l-1.4-1.5l-0.3-0.1  l-0.2,0.1l-0.2,0.2l-0.3,0.4l-0.3,0l0.3-0.1l0.4-0.7l0.3-0.2l0.4,0.1l0.5,0.5l0.6,0.2l0.9,1l1.2,0.8l0.2-0.1l0.2-0.1l0.7,0l0.2-0.1  l0.1-0.1l0.1-0.2l0.2-0.4l0.4-1.2l0.2-1.1l0.2-0.7l0.5-1l0.3-0.4l0.7-0.5l0.2-0.4l-0.3-2.7v-1.4l0.4-1.2l-0.5-1.3l-0.7-1.1l-0.4-1.2  l0.4-1.6l1.2-1.8l0.7-0.7l0.8-0.3l-0.3-0.3l-0.4-0.1l-0.4,0.1l-0.4,0.1l-0.9,0.7l-1.7,1.8l-1,0.7l-1.2,0.5l-1.3,0.2l-1.3-0.1  l-0.7,0.1l-0.3,0.5l-0.2,0.1l-0.5,0.9l-1,1.1l-0.5,0.8l-3,5.6l-1.1,1.2l-1.2,0.8l-1.3,0.5l-1.3,0.2l-3.5-0.5l-0.2,0.1l-0.7,0.8  l-0.6,0.3l-1.3,0.3l-0.7,0l-1.2-0.4l-0.5,0l-0.4,0.4l-1.2,1.9l-0.8,0.8l-2.5,4.1l-0.3,0.8l-0.2,1.1l0,1.2l0.1,0.5l0.2,0l0-0.4  l-0.1-0.6l-0.2-0.9l0.2,0l0.4,0.3l0.2,0.1l0.1,0.1l0.2,0.9l0.2,0.4l0.3,0.4l0.3,0.3l0.2,0.1l0.4,0.1l0.4,0.2l0.3,0.3l0.1,0.4  l0.1,0.3l0.4,0.5l0.4,0.4h0.3l-0.2-0.1v-0.1l0.1-0.1l0.2,0l0.2-0.1l0.1-0.2l0.2-0.4l-0.1-0.2l-0.2-0.3V373l0-0.5l0-0.2l-0.2-0.1  l-1,0.4l-0.1-0.1l-0.3-0.2l-0.2-0.1l-0.7,0.2v-0.2l0.2-0.1l0.3-0.2l0.2-0.1l0.2,0.1l0.3,0.2l0.2,0.1l0.2,0l0.2-0.1l0.1-0.2l-0.1-0.3  l-0.1-0.1l-0.6,0.1v-0.2l0.2-0.2l0-0.4l-0.1-0.9l0.1-0.3l0.2-0.2l0.2-0.1l0.1-0.1l0.1-0.1l0.1-0.1l0.3,0l0.4-0.7l0.1-0.1l0.1-0.1  l0-0.2l0-0.1l0.1-0.7l0.2-0.3l0.2-0.2l0.2-0.3l0.1-0.5l0.2-0.2l0.3-0.2l0.3-0.1l0.5,0.1l0.7-0.4l0.5-0.5l-0.2-0.2l0.2-0.2l0.3,0  l0.3,0.1l0.1,0.3l0.1-0.1l0.2-0.3l0.3-0.3l0.2,0l0.2-0.3l0.2-0.2l0.2-0.1l0.2,0.2l-0.1,0.2h0.2l0.2-0.1l0.4-0.3l0.5-0.2l0.1-0.2  l-0.1-0.3l1.6,1.3l0.3,0.1l0.3,0l3.2-1.2l1.2,0l0.6-0.2l0.5-0.5l0.3-0.1l0.3,0.3l0.3,0.2l0.3-0.1l0.3-0.3l0.5-0.7l0.1-0.1l0.2,0.1  l0.3,0.2l0.4,0.2l0.8,0.8l-1.5,0.2l-0.7-0.2l-0.5,0.3l-0.5,0.2l-0.2,0.4l-0.2,0.5l-0.5,0.8l-0.1,0.1l-0.2,0l-0.2-0.1l-0.1-0.2l0-0.2  l0.2-0.1v-0.2l-1.6-0.7l-0.5,0l-2.1,0.7l0,0.1l-0.1,0.4l-0.1,0.1l-0.1,0l-0.1,0l-0.1,0.1l-0.4,0.4l-0.3,0.4l-0.3,0.5l-0.3,0.6  l0.2,0.2l0.1,0.1l0.2,0l0.1,0.1l0.1,0.3l0,0.3l-0.1,0.1l0,0.1l-0.3,0.5l-0.1,0.1l0,0.3l0.1,0.3l0.1,0.3l0.1,0.2l0.1,0.2l0.1,0.2  l0.1,0.1l0.4,0.1l0,0.2l-0.1,0.4l-0.1,0.4l-0.7,0.4l-0.2,0.3l0.1,0.3l0.3,0l0.3-0.2l0.1-0.2l0.6-0.3l0.3,0l0.1,0.1l0.1,0.2l0.3,0.7  l-0.1,0.7l-0.2,0.8l0,1h0l0,0.1v0.1l0.1,0.1l0.1,0l0.1,0l0-0.1l0.4-0.3l0.3,0.2v0.3l-0.2,0.2l-0.2-0.2l-0.1,0.1l-0.2,0.4l-0.1,0  l-0.1-0.1l0-0.1l-0.1-0.1l-0.4-0.2l-0.1-0.1l-0.1-0.2l0-0.2l0-0.1l-0.2-0.1l0.2-0.3l0.3-0.5l0-0.2l-0.1-0.3l-0.2,0l-0.2,0l-0.2-0.1  l-0.3,0l-0.5,0.1l-0.4-0.1l0.1-0.6h-0.1l-0.1,0.4l-0.1,0.2l-0.1,0.2l-0.1,0.3l0.1-0.1l0.1,0l0.1,0.1l0.1,0.2l-0.2,0.1l-0.2-0.1  l-0.2,0.1l-0.2,0.8l-0.2,0.3l-0.2,0l-0.1-0.2l-0.1-0.8l0-0.3l0.1-0.4l0.4-0.4l0.2-0.2l-0.1-0.2v-0.2l0.4-0.1l0.4-0.7l0.4-0.1  l-0.2-0.5l-0.2-0.3l-0.2-0.2l-0.2-0.4l-0.1-0.6l-0.1-0.3l-0.3-0.2l-0.3-0.1l-0.2,0l-0.1,0.1l-0.1,0.1l-0.1,0.1l-0.2,0.1l-0.2,0  l-0.3-0.1l-0.2,0l-0.3,0.1l-0.7,0.7l-0.4,0.3l-0.2,0.2l-0.2,0.4l-0.1,0.5l0.1,0.1l0.6,0l0.3,0.1l0,0.1l-0.8,0l-0.6,0.2l-0.2,0.1  l-0.9,1.5l-0.6,0l-0.2,0.2v0.3l0.2,0.1l0.1,0.2l0,0.2l0.1,0.1l0.1,0.1l0.1,0l0.4,0.4l0,0.2l0,0.1l-0.1,0.1l-0.1,0.1l-0.1,0.5l0,0.2  v0.4l0,0.2l-0.1,0.2l-0.1,0.1l-0.1,0.1l-0.9,0.2h-0.2l-0.2-0.1l-0.3-0.4l-0.2-0.2l-0.1-0.2l0-0.2l0.1-0.1v-0.2l-0.4-1.2h-0.1  l-0.1,0.3l-0.1,0.3l-0.2,0.2l-0.2,0.1l-0.7-0.6l-0.1,0l-0.3-0.3l-0.6-0.1l-0.7,0l-0.4,0.1v0.2l0.1,0.2l0,0.2l-0.1,0.1l-0.1-0.1  l-0.1-0.2l0-0.4l-0.1-0.2l0.2-0.1l-0.2-0.1l-0.6-0.1l-0.1-0.1l-0.1-0.2l-0.1-0.2l-0.1-0.1l-0.2,0l-0.1-0.1l-0.1-0.1v-0.2l0.1-0.2  l0.3-0.8v-0.2l-0.1-0.1l-0.1-0.2l-0.1-0.1l-0.2,0.3l-0.3,0.7l-0.6,2.2l-0.1,0.4l-0.1,0.4l0.2,8.8l-0.1,0.6l-0.3,1.6l0,0.6l0.1,1.8  l0.1,0.3l0.1,0.3l0.1,0.1l0.2,0.1l0-0.2l-0.1-0.4l0.1-0.6l0-0.5l0-1.1l0.1-0.2l0.3,0l1.1,0.5l0.5,0.4l0.4,0.6l0.2,0.9v0.8l0.5,0.7  l0.2,0.4l0.2,0.4l0.1,0.4l-0.1,0.4l-0.6,0.6l-0.5,0.4l-0.3,0.1l-0.7,0.5l-0.6,0.4l-0.1-0.1l-0.1-0.3l0-0.3l0.1-0.3l0-0.2l0-0.3  l-0.2-0.7l-0.4-1.9l-0.1-0.1l0,0l0-0.1l0-0.1l-0.1,0l0,0.1l0,0.1l0,0.1l0,0.1l0.1,0.2l0.7,4.9l0,1l-0.2,1l-0.3,1l-0.8,2.1l0,0.4  l0.2,0.2l0.8,0.2l0.4,0.2l1.7,1.4l0.2-0.1l-0.1-0.4l-0.3-0.4l-0.4-0.2l-0.3-0.1l0.2-0.2l0.1-0.1l0.1,0l-0.4-0.4l0-0.2l0.2-0.4  l0.2-0.2l0.3-0.1l0.3,0l0.3,0.1v0.2l-0.3,0.1v0.2l1.3,1.9l0.6,0.5l0.7,0.2l0.9,0l0.5,0.1l0.4,0.3l0.2,0.5l0.1,0.5l0.1,1.1l0.2,0.6  l0,0.3l0,0.2l-0.1,0.4l0,0.3l0.1,1.1l0.2,1.1l0.3,0.8l0,0.5l-0.3,0.1l-0.8-0.2l-0.8-0.1l0-0.3l0.2-0.3l0.2-0.1l0.2-0.1l-0.3-0.3  l-0.6-0.2l-0.6,0.1l-0.3,0.5l-0.1,0.6l-0.1,0.6l0,0.6l0.2,0.6l0.2,0.3l0.2,0.1l0.2-0.1l0.2-0.3l0.2-0.2l0.1,0l0.1-0.1l0-1l0.1-0.2  l0.2,0l1.5,0.3l-0.2,0.6l-0.2,0.6l-0.2,0.7l-0.1,0.8l0.1,0.6l0.2,0.6l0.1,0.6l-0.2,0.7l0.1,0.2l-0.1,0.4l0.5,0.1l0.5,0l1-0.4  l0.3-0.1l1.1,0.2l1.1,0.5l3,0.7l0.2,0.2l0.1,0.2l0,0.3l0.1,0.3l0.2,0.1h1l0.2,0l0.1-0.1l0.2-0.1l0.2-0.1l0.2-0.1l0.3,0.3l0.2,0  l0.2-0.1l0.1-0.5l0.2-0.3l0.6-0.5l0.2-0.3l0.1-0.1l0.2,0l0.1,0l0.1-0.1l0.1-0.2l0.2-0.3l0.2-0.5l0.1-0.1l0.4-0.1l0.3,0.2l0.1,0.3  l-0.4,0.1l-0.1,0.1l0.1,0.2l0.2,0.4l0,0.2l-0.1,0.1l0,0.1l0.3,0.2l0.2,0.1l0.6-0.1l0.1,0.1l0.2,0.5l0.2,0.1l0.2-0.1l0.1-0.2l0-0.3  l-0.1-0.2l-0.1-0.2l-0.1-0.1l-0.2-0.1l-0.2-0.1l0.1-0.3l0.2,0l0.2,0.1h0.2l0.1-0.1l0-0.1l0-0.1L-437.8,415.1z M-404.4,417.4  l-0.2-0.2h-0.3l-0.3,0.1l-0.3,0l-0.2-0.1l-0.5-0.4l-0.1-0.1l0-0.1l-0.2-0.4l-0.1-0.1l-0.4,0.2l-0.1,0l0.1,0.2l0,0.1l-0.2,0.1l-0.2,0  l-0.2-0.2l-0.1-0.3l0-0.4l0.1-0.2l0.1-0.3l-0.1-0.5l0.1,0l0.1-0.1l0-0.1l0.1-0.1l0,0h0l0,0v-0.1l0.5,0.1l0.8,0.7l0.5,0.2l0.3-0.1  l0.5-0.4l0.2-0.1l0.3,0l0.3-0.1l0.2-0.2l0-0.5l-0.5-1.2l-0.1-0.1l0.1-0.1l0.3-0.2l0.1-0.1l0.1-0.1l0.1-0.1l0.1-0.2l-0.1-0.6  l-0.5-0.2l-1.2-0.1l-0.4-0.3l-0.1-0.1l0-0.2l0.1-0.1l0.1,0l0.1-0.1l0.3-0.2l0.3,0.1l0.2,0.3l-0.1,0.5l0.1,0.1l0.1,0l0.1-0.1l0.1-0.2  l-0.1-0.4l0.2-0.5l0.3-0.4l0.4-0.2l0.2-0.2l3-0.7l0.7-0.5l0.1-0.1l0.2-0.3l-0.2-0.7l-0.1-0.4l0-0.4l-0.1-0.4l-0.3-0.4l-0.6-0.5  l-0.2-0.1l-0.9-0.1l-0.2-0.1l-0.7-0.6l-0.4-1.3l0.7-1.5l1.2-1.2l1-0.6h0.3l0.2,0.1l0.2,0.1l0.2,0.1l0.3-0.1l0.1-0.3l0.1-0.3l0.5-0.4  l0.6-1.1l0.3-0.4l-0.1-0.3l-0.1-0.1l0-0.1l0-0.2l0.1-0.4l0-0.5l0-0.3l0.1-0.2l-0.2-0.3l-0.2-0.5l-0.2-0.5l-0.1-0.5l-0.1-0.3  l-0.2-0.4l-0.4-0.6v-0.2l0.2-0.3l0.4-1l0.2-0.4l0.6-0.8l0.2-0.4l-0.7-0.6l-0.4-0.2l-0.5-0.4l-0.3-0.1h-1l-1.2-0.7l-1.2,0l-1.1,0.6  l-2.2,1.8l-1.3,0.8l-0.7,0.6l-0.2,0.6l0.2,0.2l0.4-0.1l1.1-0.4l0.3,0l0.2,0.1l0.2,0.4l0.3,1.3l0.1,0.4v0.9l0.6,2.7l0,0.5l-0.3,0.8  l-0.1,0.5l-0.5-0.2l-0.2-0.2l-0.1-0.2l0.1-0.1l0.4,0.1l-0.1-0.3l-0.2-0.2l-0.2-0.1l-0.2,0.1l0,0.4l-0.3,0.3l-0.4,0.2l-0.3-0.1  l0.2-0.4l0.5-0.5l0.1-0.3l0.1-0.4l0.2,0l0.5,0.2l0.4-0.5l0-1l-0.2-1l-0.3-0.7l-0.1-0.2l-0.1-0.1l-0.1-0.1l-0.1-0.3l0-0.2l0.1-0.3  v-0.2l-0.1-0.1l-0.3-0.1l-0.5-0.5l-0.2,0l-0.1,0.5l0.3,0.7l0.3,0.8l-0.2,0.7l-0.2,0.1l-0.5,0.1l-0.2,0.2l-0.2,0.6l-0.1,0.4l-0.1,0.3  l0,0.1l0.1,0.3l0,0.2l-0.1,0.1l-0.6,1.3l-0.2,0.2l-0.2,0.2l0.1-0.4l0.1-0.1v-0.1l-0.1-0.3l-0.3-0.5l-0.2-0.2l-0.1,0.1l-0.1,0.1  l-0.6,0.1l-0.2,0l-0.2-0.2l0.1-0.2l0.2-0.1l1.1-0.2l0-0.2l-0.1-0.4l-0.1-0.4l-0.1-0.2l-0.3,0l-0.2,0.1l-0.2,0.2l-0.2,0.1l-0.7,0.1  l-0.2-0.1v-0.2h0.3l0.2-0.1l0.2-0.4l0.2-0.1l0.4,0.1l0.2,0l0.2-0.5l-0.3-0.7l-0.7-1.2l0.1-0.2l0.2-0.1l0.4,0l-0.1,0.2l0,0.1l0.2,0.1  l0.2,0l0.1-0.2l-0.2-0.3l0.1-0.3l0.4-0.5l0.1-0.2l-0.2-0.2l-0.3,0.1l-0.5,0.3l-1,0.3l-0.6,0l-0.3-0.2l-2.2-0.3l-0.4,0.1l-1.8-0.9  l0.1,0.4l0.3,0.3l1.1,0.4l0.9,0.1l0.4,0.2l0.5,0.8l-0.1,1l-0.4,0.7l-0.5-0.1l-0.3,0.3l-0.3,0.1l-0.4-0.1l-0.4-0.2l0.1,0.2l0.2,0.4  l0.1,0.2l0,0.2l-0.1,0.3l0,0.2l-0.1,0.4l-0.2,0.2l-0.2,0.1l-0.5,0.1l-0.5,0.3l-0.2,0.1h-0.5l-0.2-0.1l-0.1-0.1l-0.2,0.2l0.6,0.5  l-0.4,0.2l-0.4-0.1l-0.4-0.3l-0.2-0.4l0.1-0.1l0.1-0.1h0.1l0.2,0v-0.2l-0.5,0.1l-0.9,0.4l-0.5,0.1l-2.2-0.3v0.2l0.2,0.1l0.7,0.1  l0.2,0.1l0.1,0.1l0.1,0.2l0.1,0.2l0.3,0.2l0.9,0.4l0.2,0.4l-2.2-0.2v0.2l1.5,0.4l0.7,0.4l0.6,0.8l0.2,0.5l0,0.5l-0.1,0.4l-0.4,0.1  h-0.2l-0.1,0.1l-0.1,0.2l0,0.3l0.1,0.1l0.2-0.1l0.2-0.2l0.4,0l0.2,0.1l0.2,0.2l0.2,0.3l0.3,0.9l0.1,0.6l-0.1,0.2l0.2,0.1l0,0.3  l-0.1,0.3l-0.3,0.1l-0.2,0l-0.2,0.1l-0.2,0.1l-0.1,0.2l-0.1,0.1l-0.2,0l-0.4,0v0.2l0.2,0.5l0.1,0.1h0.2l0.1-0.2l0.1-0.2l0.1-0.1  l0.1,0h0.2l0.2,0.1l0.1,0.1l0,0.2l-0.2,0.1l-0.2,0l-0.1,0.1l0.1,0.2l0.8,0.7l0.2,0.1l0.1,0.1l0,0.6l0,0.1l0.3,0l0.2-0.1l0.1-0.1  l-0.1,0.3l-0.2,0.2h-0.2l-0.2-0.2l0.1,0.7l0.2,0.4l0.4,0.1l0.5,0l-0.3-0.2v-0.2h1l0.2-0.1l0.4-0.2l0.2,0l1,0.4l0.2-0.1l0.2,0.2  l1.1,0.3l0.5,0.2l0.2,0l0.2-0.2l0.2-0.3l0.2-0.2h0.3l0.2,0.2l0,0.3l-0.1,0.3l-0.2,0.2l0.2,0.3l0.8-0.1l0.3,0.2l0,0.2l-0.1,0.1  l-1.2,0.2l0.4,0.6l0.9,0.7l0.3,0.6l-0.7-0.2l-1.5-0.7l-0.8-0.2l0.2,0.3l0.2,0.2l0.3,0.1l0.9,0.1l0.1,0.1l0.2,0.2l0.1,0.1l0.3,0.1  l0.9,0.4l0.2,0.2l0.3,0.7l0.1,0.2v0.1l-0.3,0.3l-0.2,0.1l-0.1-0.1l-0.1,0l-0.3,0.3l-0.2,0.1l-0.2-0.1l-0.3-0.3l-0.2-0.1l-0.1,0.1  l-0.5,0.4v0.2l0.3,0.1l0.1,0.2l0.1,0.3v0.5l0.1,0.5l0.2,0.2l0.2,0.2l0.2,0.3l0.1,0.2v0.1l0,0.1l0,0.2l0.1,0.2l0.1,0.1l0.7,0.7  l0.1,0.3l0.1,0.1l0.2,0.1l-0.1,0.4l0.1,0.2l0.2,0.1l0.3,0.1l-0.4,0.6l-0.2,0.4l0,0.5l0.1,0.3l0.5,0.9l0.2,0.3l0.1,0.3l0.3,0.4l0.3,0  l0-0.9l-0.2-1.4v-0.8l0.2-0.3l0.1-0.1l0.4-0.5l0.1-0.1l0.1-0.2l0.5-1.1l0.2-0.2l1.2-1v-0.2l-0.4-0.5L-404.4,417.4z"/></svg>