<svg xmlns="http://www.w3.org/2000/svg" xmlns:xlink="http://www.w3.org/1999/xlink" version="1.1" x="0px" y="0px" viewBox="-461 335 100 100" fill="#999999" style="enable-background:new -461 335 100 100;" xml:space="preserve"><path d="M-378.5,390.4l0.4,0.2l0.6,0.4l0.2-0.6l-0.4-0.2l-0.5-0.2L-378.5,390.4z M-365.4,362.2l-0.2-1l-2.1-2.9l-0.4-0.8l-0.2-1.2  l-0.1-2.1l-0.2-1l-0.4-0.7l-0.5-0.6l-0.4-0.8l-0.3-1l-0.1-0.9v-2l-0.9,0.6l-0.9-0.2l-0.8-0.8l-1.3-2.1l-5.4-6.2l-0.6-1l-0.4-1.1  l-0.5-1l-0.9-0.6l-12.1,5.2l-0.6,0.1l-0.7-0.5l-0.5-0.1l-0.9,0.8l-1.3,3.1l-2.4,2.3l0.2,1.7l0.5,1.8l-0.3,1.5l-0.7,0.4l-1.6,0.3  l-0.5,0.5l-0.8,1.1l-2,0.6l-0.7,1.1l-8.7-7.7l-2.5-1.1l-1.5-0.4l-1,0.2l-2.8,3.1l-3.3,4.5l-1.7,3.7l-7.4,10.1l-0.8,2l-0.4,0.7  l-1.3,0.6l-0.6,0.7l-2.2,4.1l-6.7,9.5l-0.6,0.6l-0.8,0.6l-0.8,0.4l-0.6,0.2l-0.5,0.3l-0.3,0.8l-0.5,0.7l-2.2,1l-0.8,0.5l-0.9,1.8  l-0.8,4.3l-1.6,5.1l0,3.1l1.4,6.5l0.7,6.1l-0.1,10.8l-0.3,2.4l-1,1.6l0.7,0.9l1.4,0.5l6.5,1.3l0.2,0.3l0.1,0.3l0.3,0.3l0.5,0.1  l0.3-0.2l0.3-0.3l0.4-0.2l3.1-0.1l1.5-0.4l1.7-1.8l1.5-0.5l3-0.3l2.9,0.7h1.1l0.7-0.2l2-0.9l0.5,0l1,0l0.5-0.1l1.8-0.6l1.3,0.2  l0.9,0.3l0.8,0.1l1.2-0.6l3.7-2.4l5-1.5l2.5-0.2l3.9,0.9l1.3,0.1l1.1,0.4l1.4,3.1l0.9,0.8l1.2,0.3l2.3,0.2l1.4,0.4l0.7,0.1l0.8-0.3  l0.6-0.7l0.5-0.5l0.9,0.3l17.6-27.4l-0.8-0.8l-1.7-0.9l-0.6-0.5l-0.6-0.9l-0.8-3.3l-0.3-0.6l-0.6,0.2l-0.4,0.8l-0.6,0.8l-1.1,0.3  l-1.2-0.7l-1.1,0l-1.2,0.2l-9.2,0.1l-0.5-0.2l-0.6-0.5l-0.4,0.2l-0.5,0.5l-0.6,0.4l-1.2,0.3l-3.7,0.4l-2.5,1l-1.1,0.8l-0.5,0.9  l0.3,0.3l0.6,0.3l0.4,0.4l-0.3,0.7l-0.5,0.3l-0.5-0.1l-0.5-0.2l-0.5-0.1l-0.6,0.2l-0.9,0.8l-0.8,0.1l-0.7-0.3l-1.1-1l-1.8-0.7  l-0.3-1.2l0-1.4l-0.2-1.2l-0.7,0.2v-0.4l0.6-0.4l1.2-0.1l0.3,0.2l0.5,0.7l0.3,0.2l0.5,0.1l1.4-0.1l1.3,0.2l0.5,0l1.7-0.5l0.5-0.3  l0.4-0.5l3.9-7.1l1.3-1.4l1.4-0.9l5.2-1.8l1-0.2l1.5,0.6l0.8-0.4l0.8-0.6l0.8-0.3l3-0.1l0.8-0.3l0.3-0.3l0.2-0.8l0.3-0.4l0.4-0.3  l0.9-0.4l0.3-0.2l4.2-5.1l1.8-1.3l1.1-0.3l2.4-0.1l1.1-0.2l1.5-0.8l1.5-0.3l0.4-0.1l1.5-1l1.2-1.4l0.8-1.7l0.3-1.8l-0.4-4.2  L-365.4,362.2z M-364.4,348.2l-0.3-0.1l0.1,0.3l0.3,0.1L-364.4,348.2z"/></svg>