<svg xmlns="http://www.w3.org/2000/svg" xmlns:xlink="http://www.w3.org/1999/xlink" version="1.1" x="0px" y="0px" viewBox="-461 335 100 100" fill="#999999" style="enable-background:new -461 335 100 100;" xml:space="preserve"><polygon points="-385.2,388.5 -386.2,387.7 -387.2,387.3 -385.6,380.8 -386,372.3 -388.1,364.2 -391.9,358.7 -393.2,356.5   -395.4,352.7 -396.8,349.2 -397.2,347.6 -408.4,343.2 -411.1,343.8 -414.5,345.5 -417.4,343.6 -421,338.3 -423.8,336.2   -426.3,335.3 -433.4,335 -436.1,344.9 -437.9,347.6 -436.2,347.8 -433.4,348.8 -431.9,349.1 -433,351.4 -436.8,354 -437.9,355.6   -437.9,357.7 -437,359 -435.7,360.1 -434.8,361.9 -434.6,367.5 -434.1,370.3 -432.7,371.5 -431.4,372.3 -430.1,374.1 -429.1,376.5   -428.7,378.7 -427.9,380.6 -422.7,385.7 -422,387.8 -421.5,392 -421,393.6 -417.9,400.4 -416.8,404.6 -416.4,410.4 -415.9,413.2   -413.1,416.4 -411.8,419.1 -412,420.1 -411.8,426.8 -412.6,432.5 -412.1,434.3 -409.6,435 -406.9,434.3 -405.8,432.6 -405.1,430.9   -401.9,429.5 -400.8,426.5 -399.6,425.4 -398.2,425.1 -396.2,425.6 -394,425.3 -393.1,425.3 -392,425.1 -390.4,423.8 -385.7,415.7   -385.1,406.6 -385.5,397.3 -384.1,388.9 "/></svg>