<svg xmlns="http://www.w3.org/2000/svg" xmlns:xlink="http://www.w3.org/1999/xlink" version="1.1" x="0px" y="0px" viewBox="-461 335 100 100" fill="#e0e0e0" style="enable-background:new -461 335 100 100;" xml:space="preserve"><path d="M-368.1,401.9l-0.3-0.4l-0.4-0.1l-1.4,0l-1.3-0.2l-0.3-0.1l-0.4-0.3l-0.5-0.2l-0.5-0.1l-0.4,0.1l0.2,0.7l0.4,0.8l0.7,0.6  l1,0.3l0.5-0.1l0.8-0.3l0.5-0.1l0.5,0.1l0.9,0.4l0.4,0.1l0-0.2l-0.2-0.5L-368.1,401.9z M-447.3,417.2l-0.4-0.2l-0.3,0.6l-0.2,0.7  l0,0.6l0.5,0.3l0.5-0.2l0.7-0.7l0.4-0.1l-0.7-0.7L-447.3,417.2z M-361.7,387.5l-1.6-0.9l-1.2-1.2l-0.2-0.1l-0.3-0.2l-1.2-0.8  l-1.6-1.2l-1.2-1.4l-3.2-2.9l-0.3-0.1l-0.5,0l-0.2-0.1l-0.3-0.2l-0.2-0.1l-0.6,0l-1-0.2l-0.1,0l-0.6-0.2l-0.1-0.1l0-0.1l0-0.1l0-0.1  l-0.5-0.2l-0.5-0.2l-0.6-0.1l-1-0.1l-0.1,0l-0.1,0.1l-0.3,0.3l-0.2,0.1l-0.2,0l-0.1,0.1l0.2,0.2l-0.3,0.2l-0.7,0.3l-0.3,0.3  l-0.2-0.3l-0.4-0.2l-0.4-0.1l-0.4-0.2l-0.6-0.9l-0.4-0.4l-0.5,0.1l0,0.3l0.3,0.2l0.2,0.2l-0.5,0.3l-0.4,0l-3.6-1l-0.9-0.1l-0.5-0.1  l-0.5-0.3l-0.4-0.9l-0.5-0.4l-0.4-0.1l-1.5,0.1v0.2l0.3,0l0.3,0.1l0.2,0.1l0.2,0.1l-0.7,0.1l-1.3-0.5l-0.6,0.2l-0.5-0.2l-1.5,0.2  l-0.6-0.4l-0.1-0.4l0.2-1.2l0.1-1.4l0.1-0.4l0.4-0.1l3.5,0.4l1,0.5l0.6,0.2l2.3-0.2l2.1,0.4l0.6-0.1l0.5-0.3l0.3-0.5l0.1-0.5  l0.2-0.5l0.5-0.4l0.4-0.5l-0.2-0.6l-0.5,0.3l-0.6,0.2h-0.6l-0.5-0.2l0.4-0.8l0.2-0.7l-0.2-0.3l-0.8,0.2l-1.2,0.7l-0.5,0.5l-0.3,0.6  l-0.5-0.3l-1.6-0.6l-0.3,0.2l-0.2,0.1l-0.1-0.1l0-0.2l-0.1-0.1l-0.1,0l-0.2,0l-0.3,0l-0.7,0.2l-0.4-0.1l-0.6-0.3l-0.3-0.1l-0.3,0.1  l-0.8,0.5l-0.6,0.2l-0.5,0.1l-1.2,0l-0.5,0.1l-1.1,0.4l-0.6,0.1l-0.9-0.4l-0.9-0.9l-1.8-2.7l-0.2-0.5l-0.1-0.6l0-1.3l-0.2-0.5  l-0.5-0.2l0.4-1.6l0-0.7l-0.3-0.7l-0.9-1l-0.4-0.2l-0.3,0l-0.7,0.1l-1.5,0l-0.5,0.2l-1,1.1l-0.2,0.2l-0.3,0.1l-0.4,0l-1.8-0.4  l-1-0.4l-1.2-0.1l-0.6-0.2l-0.5-0.3l-0.5-0.3l-2.7-2.8l-1.1-0.3l-0.3,0.1l-0.4,0.2l-0.3,0.2l-0.1,0.2l-0.1,0.1l-1.6,0l-1.2-0.2  l-1-0.4l-1-0.5l-1-0.9l-0.4-0.2l-1,0l0.1-0.3l-0.1-0.3l-1.2-1.4l-0.3-0.2l-0.3,0l-0.8,0.2l-0.4,0l-1.3-0.2l0.1,0.2l0.1,0.4h-0.2  l-0.5-0.2l0.1-0.5l-0.2-0.4l-0.4-0.2l-0.4-0.1l-0.5,0.1l-0.9,0.4l-0.4,0.1l-0.3,0.2l-0.5,0.9l-0.3,0.2l-0.4,0.1l-0.4,0.1l-0.4,0  l-0.4-0.2l0.1,0.2l0,0.1l0,0l0.2,0.1l-0.1,0.2l-0.1,0.2l-0.2,0.1l-0.2,0.1l-0.3-0.8l-0.2-0.3l-0.3,0.1l-0.1,0.3l0,0.3l-0.1,0.2  l-0.3,0.1l-1.2,0l-0.4-0.2l-0.5-0.4l-0.7,0.3l-0.8-0.2l-2.6-1.3l-0.7-0.2l-0.7-0.1l-2.8,0.2l-0.1,0.1l-0.2,0.3l-0.1,0.1l-0.2,0  l-0.3-0.1l-0.2,0l-0.3,0.1l-0.1,0.2l0,0.3l0.2,0.4l-0.3,0.3l-0.2,0.1l-0.2,0.1l-0.3,0.1l-0.2,0.1l-0.3,0.4l-0.2,0.1l-0.3,0l-0.1,0  l-0.1,0.1l-0.4,0.5l-0.3,0.5l0.1,0.3l0.7,0v0.2l0,0.3l0.5,1.1l0.1,0.6l-0.5-0.2l-0.5-0.1l-0.4,0l0.2,0.3l0.4,0.5l0.1,0.5l-0.1,1.2  l0.1,0.7l0.8,1.8l0.3,2.2l0,1.3l-0.3,0.7l-0.1,0.2l-0.3,0.9l-0.3,0.2l-0.7,0.4l-0.2,0.2l0.1,0.6l0.5,0.7l1,1l2.1,1l-0.1,1.7  l-0.1,0.5l-0.3,0.5l-0.9,0.7l-0.4,0.4l-0.8,1.1l-1.2,1.3l-0.4,0.2l-1.4,0.4l-0.5,0.3l0.1,0.5l0.5-0.1l0.7-0.2l0.6,0l0.2,0.2l0.4,0.8  l0.2,0.3l0.6,0.6l0.2,0.3l0.2,0.5l0,1.2l0.2,1.1l0,0.5l-0.1,0.5l-0.2,0.5l-0.3,0.5l-0.4,0.3l-1,0.6l-0.4,0.4l-0.6,1l-0.4,0.4l-1,0.4  l-2-0.4l-1,0.2l-0.5,0.4l0.2,0.5l2.5,2.5l0.2,0.3l0.1,0.4l-0.1,0.2l-0.2,0.1l-0.1,0.3l0.2,0.5l0.4,0.2l1.1,0.3l0.2,0.2l0.4,0.6  l0.2,0.3l1,0.7l1.5,0.6l0.4,0.3l0.2,0.2l0.1,0.1l-1.5,2.6l-0.2,0.5l-0.1,0.6l0,0.3l0.3,0.8l0.1,0.3l0,0.5l0.1,0.8l-0.1,0.5l-0.3,0.9  l0,0l1.5,0.6l1,0.8l0.5,0.5l0.2,0.5l-0.2,1.1l0,0.3l0.1,0.2l0.3,0.4l0.4,0.8l0.1,0.4l0,0.6l-0.2,0.4l-0.9,0.9l-0.3,0.2l0.9,0.2  l2.2-0.3l0.9,0.4l0.5,0.5l1.9,3.1l0.3,0.2l0,0.1l0.2,0.2l0.3,0.1l1.1-1.6l0.3-0.5l0.9-2.7l0.3-0.5l0.1-0.2l0.2-0.6l0.1-0.1l0.2,0  l0.2-0.1l0.1-0.2l0.1-0.2h-0.2l0.1-0.1l0-0.1l0-0.2l0.1,0.1l0.1,0.1l0.2,0.1l0.2-0.5l0.2-0.3l0.2-0.3l0.3-0.3l0.5-0.3l0.3-0.2  l0.1-0.2l0.2-0.6l2.6-3.7l0.4-1.1l0.5-0.8l0-0.3l-0.1-0.3l-0.4-1.5l-0.2-0.3l-0.2-0.2l-0.1-0.2l-0.1-0.4l0.1-0.3l0.2-0.4l0.1-0.2  l0.2-0.4l0.4-0.2l0.5,0l1.2,0.3l0.3,0.1l0.3,0.2l0.2,0.3l0.1,0.3l0.2,0.2l0.3,0.1l0.6-0.1l0.4-0.2l0.7-0.9l0.1-0.1l0.4-0.1l0.1-0.1  l0-0.1l0.2-0.4l0.1-0.1l0.3-0.3l0.1-0.1l0.3,0l0.3-0.1l0.4-0.3l0.2-0.1l0.2,0l0.6,0.2l0.3,0l0.3-0.1l0.2-0.1l0.8-0.8l0.1-0.2  l-0.1-0.6l0.2-0.5l0.6-0.2l0.7,0l0.5,0.1l0.6,0.2l0.4,0.3l0.6,0.7l0.2,0.3l0.1,0.5l0,0.6l-0.1,0.6l-0.1,0.2l-0.2,0.1l-0.2,0.1  l-0.1,0.3l0.1,0.3l0.5,0.3l0.2,0.3l0.2,0.1l0.2,0.2l0.1,0.3l-0.1,0.2l-0.3,0.2l-0.2,0.2l0,0.2l0.4,0.2l1.9,0l0.6-0.1l1.1-0.6  l0.6-0.2l3.5,0l0.5,0.1l0.5,0.3l0.3-0.2l0.5-0.1l0.7,0l0.2,0.1l0.4-0.3l0.7-0.8l0.9-0.8l0.1-0.3l0.1-0.2l0.6-0.3l0.1-0.2l0.2-0.9  l0.5-0.7l0.6-0.5l0.6-0.3l0.7-0.2l0.3-0.1l0.7-0.5l0.8-0.4l0.4-0.1l0.9,0l4.2,0.5l0.2,0.1l0.2,0.2l0.5,0.8l0.2,0.1l0.3,0.1h0.4  l0.2-0.1l0.1-0.3l0-0.3l0-0.3l0.2-0.3l0.4,0l0.6,0.3l1.5,1l0.6,0l1.1-0.4l3.5-0.3l0.6-0.5l0.5,0.3l0.5,0l0.5-0.2l0.5-0.1l0.6,0.2  l0.8,0.7l0.5,0.2l0.5,0.1l1.2,0.4l0.5,0.1l2-0.1l1.3-0.5l1.1,0.2l1.1,0.5l0.9,0.6l0.8,0.9l0.9,1.3l0.7,1.4l0.1,1l0.5,0.2l2.3-0.2  l0.3-0.1l0.2-0.3l0.4-1.7l0.2-0.5l0.3-0.4l0.2-0.6l-0.1-0.5l-0.1-0.5l0.5-0.3l0.4,0.1l1.1,0.7l0.5,0.2l0.6,0l0.6-0.1l0.4-0.2  l0.3-0.5l0-0.3l0-1l0.1-0.3l0.2-0.2l0.2-0.2l2.6-3.9l0.1-1.1L-361.7,387.5z"/></svg>