<svg xmlns="http://www.w3.org/2000/svg" xmlns:xlink="http://www.w3.org/1999/xlink" version="1.1" x="0px" y="0px" viewBox="-461 335 100 100" fill="#999999" style="enable-background:new -461 335 100 100;" xml:space="preserve"><path d="M-383.3,367.7l0.1,0.1l0.1-0.1l0.1-0.1l0.1,0.1l0.1-0.2l0-0.2l0-0.2l0-0.1l0,0v-0.1l-0.5,0.4l-0.1,0.1L-383.3,367.7  L-383.3,367.7z M-390.2,391.9l0.1,0l0.1,0l0.3,0l0.1,0l0,0h0l0-0.1l0-0.1l0-0.1l0,0l0.1-0.1l0-0.1l0.3-0.1l0.1-0.1l0,0l0,0l0,0l0,0  l-0.3-0.1l-0.4-0.3l-0.3,0l-0.1,0l-0.3,0.2l-0.4,0.1l-0.1,0.1l-0.1,0.2l-0.2,0.4l0,0.1l-0.1,0.9l0.1,0.2l0.1,0l0.1,0l0.1,0l0.1,0  l0.1-0.1l0.2-0.1l0.1-0.1l0-0.1l0-0.1l0-0.1l-0.1-0.1l0,0l0-0.1l0-0.1l0-0.1l0,0l-0.1-0.1l0,0l0-0.1L-390.2,391.9z M-361,380.7  L-361,380.7l-0.1-0.1l0-0.1l0-0.1v-0.1l-0.3-0.9v-0.1l0-0.1l0-0.1l0-0.1l0-0.1l0-0.1l0-0.1l0.1,0l0.1,0l0.1-0.1l0-0.1l0,0l0,0l0,0  l0-0.2l0-0.1l-0.1-0.1l0,0l-0.1,0l0,0l0,0l0-0.1l0,0l-0.2-0.2l0,0l0,0l-0.1,0l-0.1,0l-0.1,0l-0.1-0.1l-0.2-0.2l-0.1-0.2l-0.2-0.7  l-0.1-0.1l-0.1-0.1l-0.1,0l-0.1,0l-0.1-0.1l-0.1,0l-0.1,0l-0.1,0l-0.1,0l-0.1-0.1l-0.1-0.1l0-0.1l0-0.1l0.1,0l0.1,0l0.1,0l0.1,0  l0.1,0h0.1l0.1,0l0.4,0.2l0.2,0l0.2-0.1l0.1,0l0.2,0l0.1,0l0.1,0l0.1,0l0.1-0.1l0.1-0.1l-0.1-0.1l-0.4-0.1l-0.3-0.1l-0.1-0.1l-0.1,0  l-0.3-0.2l-0.3-0.2l-0.1,0l-0.1,0l-0.1-0.1l-0.1-0.1l-0.1,0l-0.1,0l-0.3,0.1l-0.1,0l-0.1,0l-0.1,0l-0.1,0l-0.2-0.1l-0.2-0.2l0-0.1  l-0.4-0.2l-0.1-0.1l-0.1-0.1l0-0.1l0-0.1l-0.4-0.5l0-0.1l-0.1-0.1l-0.1,0l-0.2,0l-0.1,0l0,0l0-0.2l0-0.1l-0.1,0l-0.1,0l-0.1,0  l-0.1,0l-0.1,0l-0.1,0l-0.1-0.1l-0.2-0.2l-0.1,0l-0.1,0l-0.1,0.1l0,0l0,0l-0.1,0.2l-0.1,0l-0.1,0l-0.1,0l-0.1,0v0l0,0.4l0.1,0.4  l-0.1,0.1l-0.6,0.1l-0.2,0.1l-0.1,0l-0.1,0l-0.2-0.1l-0.1-0.1l-0.1,0l-0.3,0l-0.2-0.1l-0.1,0l0,0.2l-0.1,0l-0.2-0.1l-0.1,0l-0.4,0.1  l-0.1,0l-0.1,0l-0.1-0.1l-0.1-0.1l-0.1,0l-0.1,0l-0.1,0l-0.2,0l-0.2-0.1l-0.2-0.3l-0.2-0.1l-0.1,0l-0.3,0.1l-0.1,0l-0.1,0l-0.1,0  l-0.1,0l-0.6-0.1l-0.2-0.1l-0.2-0.1l-0.1-0.1l0-0.2l-0.1-0.2l0-0.6l-0.1-0.3l-0.2-0.1l-0.2,0l-0.2-0.1l-0.4-0.3l-0.1-0.2l0-0.4  l-0.2-0.1h-0.1l-0.5,0.2l-0.1,0h-0.1l-0.1,0l-0.1-0.1l-0.1-0.1l0-0.1l0-0.1l0-0.1l-0.1-0.1l0,0l0,0h-0.1l-0.4-0.2l-0.4,0l-0.2-0.1  l-0.8-0.6l-0.1-0.1l-0.4-0.1l-0.1-0.1l-0.1-0.1l-0.6-0.6l-0.1-0.1l-0.3-0.1l-0.1,0l-0.1,0l0-0.1l-0.1-0.1l0-0.1l0-0.1l-0.1,0l-0.1,0  l-0.1,0l-0.1,0l-0.1-0.1l-0.1-0.1l-0.1-0.1l-0.1-0.1l-0.2-0.1l-0.1-0.2l-0.3-0.2l0,0.1l0,0.1l0,0.1l0,0.1l-0.2,0.2l-0.1,0.1l0,0.1  l0,0.1l0.1,0l0.1,0l0.1,0l0,0.1l-0.3-0.1l-0.1,0l-0.1,0.1l0,0.1l0,0l0,0l-0.1,0l-0.1,0h0l0,0l0-0.1l-0.1,0.1l-0.1,0.1l0,0.1l0,0.3  l0,0.1l-0.1,0.1l-0.1,0.1l0-0.2l0-0.1l-0.1-0.1l-0.1-0.1l-0.1-0.1l-0.1,0l-0.5,0.6l-0.1,0.1l-0.2,0l-0.2,0.1l-0.2,0l-0.1-0.1l-0.1,0  l-0.1,0l-0.2,0l-0.1,0l-0.1,0.1l-0.1,0l-0.4,0l-0.1,0l-0.4,0.4l-0.3,0.2l-0.3-0.1l-0.1,0.1l-0.1,0.1l0,0.1l0,0.1l0,0l0,0.1v0l0,0  l0.1,0.1l0.1,0.3l0,0l-0.1-0.2l-0.1-0.1l-0.1,0l-0.1-0.1l0-0.1l0.1-0.4l0-0.1l0-0.1l-0.2,0.1l-0.4,0.1l-0.1,0.1l0,0l-0.1,0.1l0,0  l-0.2,0.1l0,0l-0.1,0l-0.1,0.1l-0.2,0l-0.1,0.1l-0.1,0l-0.1,0l-0.1,0.1l-0.1,0l-0.2,0l-0.1,0l-0.1,0l-0.2,0.1l-0.1,0.2l-0.1,0.2v0.3  l0,0.1l0,0.1l0.1,0.1l0.1,0l0.1,0l0.1,0l0.1,0.1l0,0.2l0,0.1l0,0.1l0,0.1l-0.1,0.1l-0.1,0.1l0,0.1l0,0.1l0,0.1l0,0.1l0.1,0.2  l0.1,0.1l0,0.1l0,0.1l0,0l-0.1,0.1l0,0.1h0l0-0.1l0,0l0,0l-0.1,0l0,0v0.1l-0.1,0.2l0,0.4l0,0.2l0,0.1l-0.1,0.3l0,0.1l0,0l0,0l0,0  l-0.1,0.2l0,0.1l0,0l0,0l0,0l0,0.1l0,0.1l-0.1,0.1l-0.4,0.3l-0.4,0.4l-0.1,0.1l-0.1,0.1l-0.1,0l-0.1-0.1l-0.1,0.2l-0.2,0.2l0,0  l0,0.1l0,0.1l0,0.1l0,0.1l-0.1,0.1l-0.2,0.2l-0.1,0.1l-0.1,0l-0.1,0.1l0,0.1l0.2,0.3l0.1,0.2l0.1,0.1l0.1,0.1l0,0.1l0,0l0.1,0.1  l0.1,0.2l0.1,0.1l0.1,0l0.4,0l0.1,0v0l-0.5,0l-0.2,0l-0.1,0l-0.1-0.1l-0.1-0.1l0-0.1l0-0.1l0,0l-0.1,0l-0.1,0l-0.1,0.1l0,0.1l0,0  l0,0.1l-0.2,0.3l-0.1,0.3l0,0.1l0,0.4l0,0.1l-0.2,0.4l-0.1,0.1l-0.1,0l-0.1,0.1l-0.1,0l-0.1,0l-0.1-0.1l-0.1,0l-0.1,0l0,0l0,0l0,0  l-0.1,0l-0.4,0l-0.1,0l-0.1,0.1l-0.1,0l-0.1,0l-0.1,0l-0.1,0l-0.1,0l0,0.1l0,0.2l0,0l0,0l-0.1,0.1l0,0.1l0,0.1l0,0l-0.1,0.1l0,0  l0,0.2l0.1,0.3l0.1,0.2l0.7,0.9l0.1,0.2l0,0.1l-0.1,0.2l0,0.1l0,0.1l0,0.2l0,0.1l0,0.1l-0.1,0l-0.1,0l0,0l0,0.1l0,0.1l0,0.2l0,0.1  l-0.2,0.2l0,0.1l0,0.1l0,0.1l0.1,0.1l0.1,0.3l0.1,0.1l0.1,0.1l0.1,0.1l0,0.1l0,0.3l0.2,0.6l0,0.1l0,0.1l-0.1,0.1l0,0l0,0.1l0,0  l0,0.2l0,0.3l-0.1,0.2l-0.7,0.5l-0.1,0.1l-0.1,0l0,0l-0.1-0.1l0,0l-0.1,0l-0.2,0l0,0l0,0l0,0l0,0l0,0l0,0.1l0,0.1l0,0l0.2,0.2  l0.1,0.1l0.1,0.1l0,0.1l0,0.2l0,0.1l0.1,0h0.1l0.1,0.1l0.2,0.2l0.1,0l0.4,0l0.2,0l0.2,0.1v0l0.2,0.2l0.5,0.5l0.6,0.7l0.2,0.1l0.1,0  l0.1,0l0,0l0,0l0.1,0.1l0.1,0l0.3,0.2l0.3,0.1l0.1,0l0.1-0.1l0-0.1l0-0.1l0,0l-0.2-0.2l0,0l0-0.1l0-0.1l0.1,0l0.1,0l0,0l0,0l0,0h0.1  l0.1,0l0-0.1l0-0.1l0.2-0.1l0.2-0.2l0.4-0.6l0.3-0.7l0.1-0.1l0.1,0l0.1,0l0.1,0l0.1,0l0.1-0.1l0,0l0.1,0l-0.1,0.2l0,0l-0.1,0l-0.1,0  l-0.1,0l0,0.1l0,0.1l-0.1,0.3l0,0.1l0,0.1l0.1,0l0.1-0.1l0.1,0l0.1,0.1l0.1,0l0-0.1l0,0.1l0,0.1l0,0l-0.1,0l-0.1,0l0,0l0-0.1l0,0  l-0.2,0l-0.1,0.1l0,0.1l-0.1,0.1l-0.2,0.1l-0.1,0.1l0,0.1l0.1,0.1l0,0l0.1,0l0,0l0,0.1l0.1,0l0.1,0l0.2-0.1l0.1,0l0.1,0l0.2-0.2  l0-0.1l0.1-0.2l0.1-1.2l0-0.2l-0.2-0.3l0-0.2l0-0.2l0-0.2l0.1-0.1l0,0l0-0.1l0.2,0l0,0l0-0.1l0-0.1l0,0l0.4-0.2l0,0.1l-0.1,0.1  l-0.1,0l0,0.1l0,0.1l-0.1,0l-0.1,0l-0.1,0.1l0,0.1l0,0.1l0,0.1l0,0.1l0,0.1l0,0l0,0l0,0l0,0l0.1,0.1l0,0l0,0l0,0.1l0,0.1v0.1l0,0.3  l0,0.3l0,0.1l0,0.1l0.1,0.1l0.1,0.3l0.1,0.1l0,0l0.1,0l0.1,0l0,0l0.1,0.2l0,0.3l0,0.1l-0.1,0.1l-0.2,0.2l-0.1,0.1l-0.1,0.3l0,0.1  l-0.1,0.1l0,0l-0.1,0.2l-0.2,0.6l0,0.1l-0.1,0.2l0,0.1l0.1,0.1l-0.1,0.1l-0.2,0.3l-0.1,0.2l0,0.2l0,0.1l-0.1,0.1l-0.1,0.1l-0.2,0.1  l-0.1,0l0,0.1l0,0.1l0,0.1l-0.1,0l0-0.3l0-0.1l-0.1,0l-0.1,0.1l-0.2,0.5l0,0l-0.1,0.2l-0.1,0l0,0l0,0l-0.1,0l-0.4,0.1l-0.1,0  l-0.2-0.2l-0.1,0.1l0,0.2l-0.1,0.1l0-0.1l0,0l0.1-0.2l-0.1,0.1l0,0.1l0,0.1l-0.1,0l0,0.1l0,0l0,0l0,0l0.1,0.1l0.2,0.1l0.1,0.1l0,0.1  l0,0.1l0,0.1l0,0l0.1,0l0,0l0,0.1v0.1l0,0.1l0,0.2v0l0,0l0.1,0l0.1,0l0,0.1l0,0.1l0,0.1l0,0.1l0,0.1l0,0.1l0,0.1v0.1l0,0l0,0.1  l0,0.1l0,0l0,0l0,0l0,0.1l0.1,0.2l0.1,0.1l0,0.1v0.1l0,0.1l0.1,0.1l0.1,0l0,0v0.1l-0.1,0.1l-0.5,0.2l-0.1,0.1l-0.1,0.1l-0.1,0.1  l-0.1,0.1l-0.1,0l-0.2-0.1l-0.1,0l-0.1,0l-0.1,0l-0.1,0l-0.1,0.1l-0.1,0.1l-0.1,0.1l-0.1,0.2l0,0.1l0,0.1l0.1,0.1l0,0.1l0,0.1l0,0.1  v0.1l0.1,0.3l0.2,0l0.3-0.1l0.3,0l-0.1,0.1l-0.8,1l0,0.1l0.1,0.1l0.1,0.1l0.3,0.2l0.1,0h0.1l0,0l0.1-0.1l0.2-0.1l0.5-0.3l0.1-0.1  l0-0.1l0.1-0.2l0.1-0.1l0.1,0l0.1,0l0.1,0l0.2,0l0,0l0,0.1l0.1,0l0.1,0l0.1,0l0.1,0.1l0.2,0.2l0.1,0.1l0.2,0.1l0.2,0h0.2l0.2,0  l0.2,0.1l0.1,0.2l0.1,0.2l0.2,0l0.4-0.1l0.2-0.1l0.2,0l0.2,0.1l0.3,0.3l0,0l0.1,0.1l0,0h0.1l0.1,0.1l0,0.1l0,0.1l-0.1,0.2l0,0.1  l0.2,0.3l0.1,0.4l0.2,0.3l0,0.1l0,0.1l0.1,0.1l0.1,0.1l0.1,0.1l0,0.1l0,0.1l0,0.1l0.1,0l0.1,0l0.1,0l0.1,0.1l0.1,0.1l0.1,0.1l0.1,0  l0.4,0l0.1,0l0.2,0.1l0.1,0h0.1l0.1,0l0.1,0l0.1,0l0.1,0l0.1,0.1l0.2-0.1l0.2-0.2l0-0.1l0.1-0.3l0.1-0.1l0.1,0l0.2,0l0.1,0l0.1-0.1  l0-0.1l-0.1-0.3l0-0.2l0.1-0.2l0.1-0.2l0.3-0.2l0.2-0.1l0.5-0.2l0.2-0.2l0.1-0.1l0-0.1l0-0.1l0-0.1l0.1-0.1l0.1-0.1l0-0.1l-0.1-0.1  l-0.1-0.1l0-0.2l0-0.2l0-0.1l0.1-0.1l0.1-0.1l0.1-0.3l0.4-0.8l0.1-0.3l0-0.4l0-0.1l0.1-0.1l0.1,0l0.1,0l0.1,0l0.1,0l0,0v0l0.1-0.4  l0-0.1l0.1-0.1l0,0l0.1,0l0,0l0.1-0.1l0-0.1l-0.1-0.4V397l0,0l0,0l0.1,0l0,0l0-0.1l0-0.1l0-0.2l0-0.1l0-0.1l0.1-0.2l0.1-0.3l0-0.3  l0-0.1l0-0.1l0,0l0.1-0.1l0.1,0l0.1,0l0.3,0.1l0.1,0.1l0,0.1l0.1,0.4l0.1,0.1l0.1,0l0.1-0.1l0.1,0l0.1,0l0.1-0.1l0-0.2l-0.1-0.1  l-0.1-0.1l-0.1-0.1V395l0.1-0.1l0.2-0.2l0.1-0.1l0.2-0.4l0.1-0.1l0.3-0.2l0.6-0.8l0.4-0.4l0.1-0.1l0.4-0.1l0.7-0.3l0.7-0.3l0.7-0.3  l0.7-0.3l0.7-0.3l0.7-0.3l0.7-0.3l0.7-0.3l0.5-0.2l0.4-0.2l0.3-0.3l0.4-0.3l0.4-0.3l0.4-0.3l0.4-0.3l0.4-0.3l0.4-0.3l0.4-0.3  l0.4-0.3l0.3-0.3l0.3-0.3l0.3-0.3l0.3-0.3l0.3-0.3l0.3-0.3l0.3-0.3l0.3-0.3l0.2-0.3l0.3-0.3l0.1-0.2l0.1-0.2l0.1-0.3l0.2-0.7  l0.2-0.7l0.2-0.7l0.2-0.7l0.1-0.3l0-0.1l0.2,0.2l0.1,0.1l0,0.1l0.1,0l0.1,0l0.3,0h0.3L-361,380.7L-361,380.7L-361,380.7z   M-452.3,376.7L-452.3,376.7L-452.3,376.7l-0.1-0.1l-0.3-0.3l-0.2-0.1l-0.1,0l-0.4-0.1l-0.1-0.1l0,0l0,0l0,0l-0.1,0l-0.1,0.1l0,0.1  l0,0.1l0,0.1l-0.3,0.3l0.2,0l0.1,0.1l0,0.2l0.1,0.1l0.1-0.1l0.1,0l0.1,0.1l0.1,0h0.4l0.3,0.1l0.1,0l0.1,0l0-0.1l0.1-0.2  L-452.3,376.7L-452.3,376.7L-452.3,376.7z M-453.8,379.4L-453.8,379.4L-453.8,379.4l-0.3-0.2l-0.1,0l0-0.1l0-0.1l-0.1-0.1l-0.1,0  l-0.1,0l0-0.1l-0.1-0.1l-0.3,0l0-0.1l0-0.1l0-0.1l-0.1,0.1l0.1-0.1l0.2-0.1l0-0.1l0-0.2l-0.1-0.2l0,0l0,0l0,0v0l-0.1,0l0,0l-0.1-0.1  l0,0l0-0.1l0-0.1l-0.6-0.4l0,0l0,0l0,0l0-0.1v-0.1l0,0l0,0l-0.2-0.2l-0.1-0.1l-0.1-0.7l0-0.3l0-0.1l0-0.1l0,0l-0.1,0l-0.1,0l0,0  l-0.1-0.1l0,0l-0.1-0.1l-0.1-0.3l-0.1-0.1l0-0.1l0-0.1l0-0.1l-0.1-0.1l-0.1,0l-0.1,0l-0.1,0l0,0l0,0.1l0,0l-0.2,0l-0.1,0.1l-0.1,0  l-0.1,0l0,0.2l-0.1,0.1l-0.4,0.2l0,0l0,0l0,0.1l0,0l0.1,0.2l0.1,0.1l0.1,0l0.2-0.1l0.2-0.1l0.2,0l0.1,0.1l0,0.2l0,0.1l0,0.1l0,0.1  v0.2l0,0.1l0,0.1l0.1,0.2l-0.1,0l0,0.1l0.1,0.1l0.1,0.1l0,0.2l0.1,0.2l0.4,0.2l0.1,0.1l0,0l0,0l0.1,0l0,0l0.1,0.1l0,0.1l0,0.2  l0.1,0.2l0.1,0.2l0.1,0.2l0.1,0.1l0.1,0l0.2,0.1l0.1,0l0.1,0.1l0,0.1l0,0.1l-0.1,0.1l-0.1,0l-0.1,0.1l-0.1,0.1v0.1l0,0l-0.1,0.1l0,0  l-0.1,0l-0.1,0l-0.1,0l0,0l0,0l0,0l-0.1,0h-0.1l-0.2,0.1l-0.2,0.1l-0.1,0l0,0v0l0,0l-0.7,0.4l-0.2,0.2l-0.2,0.3l-0.1,0.3l0.1,0.2  l0.1,0l0.1,0l0.1,0l0,0.1l0,0.1l0,0.1l0,0.1l0.1,0.1l0.1,0l0.7,0l0.5,0.1l0.1,0l0.1,0l0.7-0.2l0.2-0.1l0.1,0l0.2,0l0.1,0l0.1,0  l0.1-0.1l0.2-0.2l0.1-0.1l0.1,0l0-0.1l0-0.1l0.2-0.6l0.1,0l0.1-0.1l0,0L-453.8,379.4L-453.8,379.4z M-451.2,382.5L-451.2,382.5  L-451.2,382.5l-0.1-0.1l-0.1-0.1l-0.2,0l-0.1,0l-0.1-0.1l-0.1,0l-0.1,0.1l0,0.2l0,0.1l0,0.1l-0.1,0.1l0.1,0.1l0.1,0.1l0.1,0.1l0.2,0  l0,0l0.2-0.1l0,0l0,0l0-0.1l0,0l0,0l0.1,0l0,0l0,0l0,0l0,0L-451.2,382.5L-451.2,382.5L-451.2,382.5z M-457.8,378l0.4-0.2l0.1,0v-0.5  l0-0.2l0-0.1l-0.1-0.1l-0.1,0l-0.2-0.2l-0.1,0l0,0l-0.1,0.1l-0.3,0.1l-0.2,0.1l-0.5,0l0,0.1l0.1,0.2l0,0.3l0,0.1l0.1,0.1l0.1,0.1  l0,0l0,0l0,0l0,0l0,0l0.1,0l0,0l0.2,0.1l0.1,0l0.1,0.1l0.1,0h0.1L-457.8,378z M-453.5,371.8l0.1-0.2l-0.1-0.3l-0.2-0.1l0,0.1l0,0.3  l0,0.1L-453.5,371.8z M-452.2,373.3L-452.2,373.3l0.1,0.1l0.1,0l0.1,0.1l0.1,0l0.1,0l0.1-0.1l0.1-0.1l0-0.1l-0.1-0.1l-0.1-0.1  l-0.1-0.1l-0.1,0l-0.1,0l-0.1,0.1l-0.1,0.1L-452.2,373.3L-452.2,373.3L-452.2,373.3z M-446.8,383.1l-0.2-0.1l-0.1,0l-0.3,0l-0.1,0  l-0.1,0.1l0.5,0.2l0.2,0l0.2-0.1l0-0.1L-446.8,383.1z M-444.7,379.2L-444.7,379.2l-0.2,0l-0.1,0l-0.1,0l-0.2,0l-0.1,0l-0.1,0.1  l-0.2,0.1l0,0l0,0l-0.2,0.1l-0.1,0.1l-0.1,0.2l-0.1,0.1l-0.2,0.1l-0.1,0l-0.1,0.2l-0.1,0.1l-0.2,0.1l-0.1,0l-0.1,0.1l0,0.1l0,0.1  l0.1,0l0.2,0l0.1,0l0.1,0.1l0.1,0l0.1,0l0.1-0.1l0.1,0l0.2,0l0.1,0l0.1,0l0.1-0.1l0.1-0.1l0.1-0.2l0.1-0.2l0-0.1l0,0l0.2-0.1  l0.2-0.1l0.2-0.2l0.1-0.2L-444.7,379.2L-444.7,379.2z M-450.2,378.3l-0.1,0l-0.1,0l0,0l0-0.1l0-0.1l0-0.1l0,0l0,0l0,0l0,0l-0.1,0.1  l-0.6,0.1l0,0l-0.1,0l-0.1,0l0,0l-0.1,0l-0.1,0l-0.1,0l-0.2,0.1l-0.1,0l-0.1,0.1l-0.1,0.1l-0.1,0.1l0,0.2l0,0.3l0,0.1l0.1,0.1l0.1,0  l0.1,0l0.1,0l0.1,0.1l0.1,0.2l0,0l0,0l0,0l0,0l0.1,0l0.2,0.1l0.1,0l0.1,0l0.1-0.1l0-0.1l0,0l0.3,0l0,0l0.1,0l0.1-0.1l0.1-0.1  l0.1-0.1l0.1,0v0l0.1-0.1l0,0l0-0.1l0-0.1l0-0.1l0.1-0.2l0-0.1L-450.2,378.3L-450.2,378.3z M-461,365.3L-461,365.3L-461,365.3  L-461,365.3L-461,365.3L-461,365.3z M-459.8,366.8L-459.8,366.8L-459.8,366.8L-459.8,366.8z M-459.9,366.9L-459.9,366.9  L-459.9,366.9L-459.9,366.9l0,0.1L-459.9,366.9L-459.9,366.9L-459.9,366.9L-459.9,366.9z"/></svg>