<svg xmlns="http://www.w3.org/2000/svg" xmlns:xlink="http://www.w3.org/1999/xlink" version="1.1" x="0px" y="0px" viewBox="0 5 100 100" fill="#999999" enable-background="new 0 5 100 90" xml:space="preserve"><path d="M97.927,91.893l0.093-0.007l0.015,0.093l0.016-0.15l-0.034-0.02l-0.05-0.07l-0.059-0.016l0.046-0.024l0.016-0.015  l-0.023-0.033l-0.053,0.021l-0.039,0.02l-0.016,0.063l-0.031,0.037L97.8,91.876v0.034l0.06-0.01L97.927,91.893z M94.146,88.202  l0.023,0.052l0.041,0.044l0.063,0.093l0.015-0.043l0.034-0.029l-0.021-0.049l0.004-0.041l-0.084-0.137l-0.197,0.016l0.063,0.065  L94.146,88.202z M94.302,87.17l-0.059-0.008l0.077,0.058l0.045-0.024l0.096-0.002l0.112,0.002h0.069l0.037-0.021l-0.074-0.006  l-0.111-0.021l-0.045,0.002l-0.016-0.041l0.029-0.028v-0.021l-0.029-0.026l-0.053-0.071l0.026,0.057l0.006,0.06l0.003,0.063  l-0.061,0.01L94.302,87.17z M94.146,79.979l0.043,0.076l0.117-0.074l0.014-0.115l-0.02-0.018l-0.047-0.041l-0.059-0.015  l-0.061-0.013l0.018,0.121L94.146,79.979z M89.462,83.386l0.099-0.075l0.097-0.015l0.077,0.013l0.093,0.021l0.024,0.028l0.023-0.016  v-0.031l0.044,0.015l0.04-0.002l0.049,0.044l0.069,0.092l0.047,0.014l0.043,0.057l0.035,0.018l0.089,0.018l0.041,0.052l-0.009-0.06  l-0.073-0.07l-0.07-0.09l-0.022-0.031l0.011-0.032l0.04,0.026l-0.037-0.07l-0.014-0.008l-0.017-0.035l0.004-0.025l-0.041-0.011  l-0.059,0.034l-0.037,0.023l-0.023,0.008h-0.043l-0.108-0.021l-0.082-0.034l-0.065,0.037h-0.078l-0.119,0.022l-0.077,0.007  l-0.086,0.021l-0.029,0.004l-0.022-0.016l-0.031-0.003l-0.028,0.015l0.022,0.026l0.021,0.028l0.021,0.035l-0.004,0.031l-0.002,0.014  l0.133,0.041l0.072,0.035l0.037,0.004l-0.022-0.045l-0.077-0.025L89.359,83.4l0.066,0.039L89.462,83.386z M93.016,87.732  l-0.029-0.051l0.102-0.102l0.028,0.083l0.021,0.034l0.04,0.018l-0.004-0.043l-0.021-0.047l0.005-0.045l-0.011-0.08l-0.01-0.027  l0.02-0.046l0.017-0.055l-0.086,0.055l-0.04,0.097l-0.102,0.112l0.027,0.145L93.016,87.732z M76.488,44.76l-0.176-0.068  l-0.104-0.044l-0.11-0.096l-0.136-0.087l-0.185-0.026l-0.07,0.006l-0.059,0.017L75.596,44.5l-0.046,0.062l0.032,0.095l0.059,0.11  l0.073,0.061l0.187-0.089l0.084,0.063l0.078,0.092l0.08,0.049l0.174,0.055l0.197,0.226l0.164,0.026v-0.058l-0.104-0.107  l-0.028-0.167L76.488,44.76z M99.938,93.707l-0.1-0.143l-0.379-0.28l-0.121-0.112l-0.072-0.107l-0.113-0.263l-0.043-0.061  l-0.066-0.06l-0.141-0.096l-0.067-0.014l-0.028,0.031l-0.018,0.056l-0.027,0.052l-0.125,0.012l-0.154-0.084l-1.211-1.047  l-0.125-0.102l-0.135-0.037l-0.296-0.04l-0.233-0.124l-0.729-0.898l-0.009,0.004l-0.074-0.033l-0.019-0.049l0.019-0.035l0.03-0.03  l0.003-0.035L95.629,90.1l-0.072-0.082l-0.193-0.174l-0.174-0.229l-0.174-0.488l-0.131-0.214l-0.398-0.378l-0.23-0.146l-0.63-0.209  l-0.663-0.129L92.51,88.02l-0.121-0.037l-0.113-0.058l-0.104-0.073l-0.023-0.035l-0.061-0.106l-0.031-0.04l-0.062-0.038  l-0.498-0.217l-0.256-0.199l-0.104-0.124l-0.059-0.109l-0.068-0.102l-0.133-0.093l-0.025-0.069l-0.088-0.437l-0.058-0.152  l-0.069-0.127l-0.104-0.082l-0.159-0.007l0.23,0.406l0.1,0.139l-0.221-0.119l-0.32-0.595l-0.186-0.138l-0.061-0.141l-0.107-0.891  l-0.102-0.289l-0.118-0.221l-0.448-0.81l-0.045-0.12l-0.06-0.563l-0.022-0.049l-0.062-0.141l0.012-0.418l-0.03-0.146l-0.053-0.139  l-0.142-0.263l-0.177-0.248l-0.076-0.137l-0.031-0.132l0.02-0.131l0.08-0.248l0.018-0.141l0.015-0.771l0.101-0.541l-0.002-0.09  l-0.022-0.065l-0.069-0.121l-0.021-0.056l0.006-0.125l0.052-0.229v-0.132h-0.186L88.4,77.925l0.07-1.024l0.057-0.117l0.127-0.146  l0.063-0.055l0.079-0.043l0.081-0.018l0.086,0.022l0.044,0.06l-0.021,0.072l-0.031,0.063l0.009,0.047l0.085,0.028l0.169-0.015  l0.056,0.015l0.113,0.125l0.062,0.052l0.075,0.038l0.061-0.004l0.279-0.051l0.072,0.017l0.131,0.085l0.078,0.02l0.475-0.172  l0.113,0.02l0.189,0.236l0.102,0.065l0.134-0.027l-0.359-0.513l-0.146-0.161l-0.098-0.088l-0.095-0.063l-0.205-0.096l-0.142-0.025  l-0.237,0.031l-0.125-0.006l-0.205-0.109L89.445,76l-0.075-0.221l-0.127-0.211l-0.339-0.289l-0.205-0.112l-0.182-0.024l0.068,0.141  l0.043,0.16l-0.098-0.094l-0.188-0.328l-0.254-0.305l-0.432-0.807L87.48,73.7l-0.789-0.673l-0.723-0.935l-0.314-0.266l-0.072-0.168  l0.068-0.122l0.113-0.096l0.057-0.099l-0.036-0.124l-0.298-0.31l-0.143-0.233l-0.047-0.115l-0.189-0.703l-0.143-0.26l-0.211-0.195  l-0.131-0.082l-0.092-0.084l-0.066-0.098l-0.046-0.138l-0.022-0.168l-0.006-0.335l-0.027-0.165l-0.051-0.147l-0.063-0.104  l-0.198-0.212l-0.071-0.13l-0.032-0.29l-0.702-1.217l-0.383-0.653l-0.1-0.388l-0.242-0.373l-0.049-0.125l-0.078-0.26l-0.053-0.115  l-0.354-0.445l-0.147-0.251l-0.084-0.46l-0.198-0.381l-0.113-0.43l-0.711-1.403l-0.07-0.099l-0.297-0.324l-0.551-0.815l-0.076-0.257  l-0.061-0.118l-0.647-0.896l-0.308-0.775l-0.32-0.473l-0.69-1.59l-0.2-0.295l-0.106-0.229l-0.167-0.254l-0.121-0.24l-0.281-0.805  l-0.115-0.248l-0.266-0.35L76.376,52.9l-0.087-0.127l-0.128-0.078l-0.267-0.08l-0.115-0.096l-0.074-0.267l0.162-0.553l-0.004-0.236  l-0.031-0.122l-0.016-0.158v-0.162l0.021-0.125l0.089-0.17l0.076,0.032l0.093,0.086l0.133-0.008l0.062-0.103l-0.006-0.144  l-0.056-0.29L76.188,50.2l-0.101-0.066l-0.118-0.063l-0.104-0.084l-0.078-0.125l-0.104-0.271l-0.069-0.14l-0.165-0.225l-0.057-0.129  l-0.002-0.145l0.121,0.016l-0.059-0.152l-0.148-0.2l-0.141-0.132l-0.156-0.109l-0.084-0.124l-0.033-0.159l-0.01-0.203l-0.009-0.053  l-0.044-0.08l-0.003-0.053l0.019-0.035l0.074-0.061l0.02-0.031l0.017-0.348l-0.017-0.096l-0.108-0.156l-0.158-0.115L74.32,46.7  l-0.318-0.214l-0.268-0.256l-0.06-0.127l-0.058-0.41l-0.053-0.184l-0.058-0.09l-0.142-0.15l-0.053-0.078l-0.024-0.09l-0.013-0.203  l-0.023-0.083l-0.121-0.113l-0.357-0.163l-0.137-0.101l-0.006-0.098l0.01-0.086l0.02-0.076l0.031-0.058l-0.23-0.411l-0.136-0.18  l-0.193-0.103l0.091-0.155l0.157-0.128l0.146-0.018l0.05,0.183h0.063l-0.033-0.084l-0.03-0.049v-0.07h0.063l0.192,0.249l0.084,0.072  v-0.063l-0.035-0.049l-0.08-0.17l-0.022-0.038l-0.053-0.013l-0.149-0.109l-0.032-0.031l-0.047-0.058l-0.031-0.032l0.076-0.097  l0.051-0.122l0.035-0.133l0.012-0.124l-0.055-0.018l-0.116,0.055l-0.118,0.035l-0.052-0.072l-0.039-0.142l-0.087-0.113l-0.154-0.162  l-0.054-0.101l-0.017-0.065l0.02-0.08l0.051-0.13h0.056l0.173,0.102l0.217,0.081l0.194,0.116l0.095,0.206h0.165v-0.058l-0.037-0.07  l-0.03-0.179l-0.043-0.072v-0.058l-0.017-0.11l-0.181-0.422l-0.058-0.096l-0.099-0.089l-0.186-0.394l-0.58-0.532l-0.371-0.099  l-0.181-0.078l-0.071-0.14l-0.086,0.027l-0.096-0.023l-0.064-0.058l0.019-0.076V39.52l-0.011-0.075l0.011-0.062l-0.177-0.1  l-0.271-0.33l-0.139-0.072l-0.139-0.026l-0.029-0.069l0.01-0.102l-0.041-0.123l-0.068-0.053l-0.094-0.041l-0.082-0.049l-0.094-0.197  l-0.388-0.413l-0.188-0.26l-0.031-0.029l-0.018-0.084l-0.037-0.116l-0.057-0.103l-0.063-0.052l0.012-0.197l-0.156-0.2l-0.363-0.297  l0.029-0.006h0.021l0.012-0.012l-0.002-0.04l-0.072-0.068l-0.234-0.453l-0.059-0.188l-0.025-0.058l-0.074-0.043l-0.095-0.021  l-0.077-0.032l-0.076-0.164L67.67,35.26l-0.195-0.19l-0.391-0.22l-0.09-0.032l-0.028-0.194l-0.364-1.376l-0.111-0.28l-0.184-0.196  l-0.293-0.052l-0.34-0.48l-0.031-0.02l-0.186-0.205l-0.033-0.094l-0.004-0.188l-0.027-0.102l-0.086-0.116l-0.25-0.26l-0.053-0.099  l0.014-0.329l0.041-0.275l-0.063-0.097l0.028-0.085l0.09-0.041l0.044-0.106l0.081-0.075l0.046-0.078l-0.009-0.201l-0.246-1.008  l0.029-0.168v-0.057l-0.11-0.17l-0.109-0.286l-0.08-0.311l-0.034-0.228l-0.084-0.185l-0.197-0.269l-0.232-0.241l-0.255-0.152  l-0.376-0.442l-0.105-0.09l-0.418-0.269L62.969,25.9l-0.07-0.197l-0.071-0.133l-0.093-0.129l-0.09-0.07v-0.069l0.115-0.128  l0.049-0.158l0.004-0.387l0.049-0.154l0.236-0.434l0.084-0.09l0.041-0.075l0.687-0.959l0.146-0.119l-0.185-0.047l-0.115-0.094  l-0.051-0.143l0.01-0.17l0.072-0.162l0.14-0.173l0.162-0.101l0.133,0.048l0.107-0.059l0.092,0.005l0.061,0.063l0.021,0.121h0.061  l-0.008-0.125l-0.041-0.068l-0.047-0.053l-0.021-0.075l0.051,0.038l0.046,0.046l0.038,0.052l0.035,0.054l0.045,0.018l0.016,0.018  l-0.016,0.018l-0.045,0.017l0.045,0.051l0.01,0.044l-0.035,0.044l-0.072,0.049l0.336,0.332l0.107,0.184v0.259l-0.047,0.032  l-0.087,0.087l-0.041,0.089l0.175,0.084l0.188,0.193l0.035,0.061l0.027,0.104l0.203,0.248l0.047,0.085l0.033,0.075l0.02,0.1  l0.006,0.159l-0.016,0.09l-0.072,0.19l-0.018,0.138l0.012,0.134l0.028,0.139l0.01,0.133l-0.05,0.112v0.059l0.256,0.182l0.098,0.384  l-0.012,0.437l-0.063,0.343h0.111l-0.047-0.046l-0.012-0.061l0.018-0.073l0.041-0.08H65.9l0.004,0.06l-0.014,0.032l-0.023,0.02  L65.85,26.52l0.058,0.011l0.044,0.018l0.033,0.032l0.031,0.065h-0.06l0.399,0.287l0.219,0.106l0.031,0.159l-0.031,0.351l0.016,0.005  l0.167,0.398l0.056,0.076l0.074,0.028l0.104,0.072l0.061,0.168l0.038,0.193l0.047,0.148l0.105,0.112l0.171,0.125l0.183,0.101  l0.133,0.043l0.367,0.382l0.014,0.025l0.023,0.076l0.016,0.026l0.021,0.017l0.066,0.029l0.027,0.018l0.137,0.211l0.024,0.014  l0.025,0.046l0.122,0.095l0.025,0.05l0.014,0.054l0.103,0.237l0.084,0.081l0.222,0.122l0.086,0.11l0.084-0.032l0.07,0.029  l0.047,0.069l0.021,0.1l0.049-0.007l0.097,0.103l0.055,0.125l-0.059,0.063l-0.039,0.063l0.016,0.14l0.033,0.136l0.015,0.049  l0.034,0.213l-0.016,0.082l-0.068,0.083v0.058l0.031,0.118l0.025,0.416l0.055,0.171l0.063,0.052l0.072,0.026l0.062,0.046  l0.043,0.188l0.047,0.073l0.101,0.124l-0.084,0.211l-0.109,0.429l-0.081,0.186l0.147,0.276l0.053,0.159l0.035,0.373l0.043,0.171  l0.088,0.118l0.138,0.047l-0.149-0.133l0.068-0.125l0.137,0.024l0.058,0.303h-0.062V35.07l-0.052,0.068l0.095,0.05l0.09,0.106  l0.069,0.113l0.026,0.078l0.037,0.07l0.084,0.09l0.523,0.387v0.053l0.096,0.11l0.158,0.147l0.188,0.335l0.037,0.011l0.053,0.098  l1.068,0.642l0.082,0.151l0.189,0.286l0.063,0.125l0.059-0.041l0.046,0.07l0.121,0.451l0.016,0.028l0.069,0.083l0.025,0.047h0.062  v-0.069h0.053l0.018,0.053l0.025,0.03l0.033,0.017l0.037,0.032l-0.014,0.133l0.096,0.199l0.139,0.191l0.115,0.102l0.004,0.161  l0.396,0.244l-0.005,0.229l0.13,0.031l0.062,0.027l0.058,0.043l0.026,0.036l0.027,0.082l0.029,0.04l0.021,0.012l0.067,0.035  l0.286,0.24l0.072,0.09l0.058-0.056l0.108,0.246l0.098-0.073l0.107,0.006l0.104,0.056l0.468,0.431l0.07-0.008l0.043,0.031  l0.546,0.665l0.197,0.127l0.787,0.088l0.125,0.04l0.082,0.044l0.071,0.058l0.155,0.162l0.143,0.192l0.039,0.08h0.063v-0.067  l-0.04-0.005l-0.009-0.006V42.58l-0.014-0.035l0.032,0.024l0.082,0.04L78.374,42.5l-0.028-0.04l-0.041-0.042v-0.06h0.062v-0.057  l-0.298-0.003l-0.022-0.055l-0.032-0.145l0.021-0.002l0.074,0.006l0.109-0.026l0.162-0.07l0.104-0.102l-0.064-0.113l0.071-0.105  l0.056-0.205l0.059-0.054l0.055,0.04l0.068,0.023l0.026,0.049h0.054l0.08-0.083l0.084-0.28l0.062-0.139l-0.036-0.021l-0.005-0.003  l-0.005-0.008l-0.016-0.038l0.084-0.011l0.108-0.038l0.063-0.008l0.069-0.029l0.05-0.133l0.104-0.067l0.036-0.078l0.025-0.086  l0.025-0.052l0.066-0.032l0.213-0.032l-0.06-0.068l0.118-0.166l-0.009-1.032l0.056-0.295l0.004-0.116l0.016-0.029l0.021-0.026  l0.02-0.041l0.002-0.065l-0.021-0.053l-0.077-0.072l-0.074-0.15l-0.105-0.127l-0.066-0.138l0.062-0.154v-0.058l-0.046-0.101  l-0.035-0.104l-0.021-0.119l-0.006-0.157l0.024-0.112l0.114-0.228l0.027-0.105l0.014-0.006l0.097-0.156l0.03-0.102l0.078-0.41  l0.063-0.122l0.106-0.055l-0.019-0.047l-0.006-0.002l-0.022-0.02l0.16-0.162l0.187-0.138l0.099-0.183L80.438,35.2l0.041,0.006  l0.008-0.014v-0.024l0.01-0.026l0.105-0.263l0.328-0.497l0.112-0.428l0.19-0.272l0.043-0.165l0.021-0.046l0.038-0.047l0.037-0.063  l0.018-0.096l-0.015-0.069l-0.017-0.056l0.014-0.052l0.072-0.05l-0.049-0.111l-0.025-0.041l-0.029-0.032l0.047-0.111v-0.135  l-0.023-0.127l-0.022-0.084V32.34l0.218-0.158l-0.01-0.554l-0.041-0.189l-0.005-0.058l0.022-0.122l0.027-0.048l0.184-0.119  l0.076-0.029l0.061-0.052l0.025-0.107l-0.019-0.113l-0.08-0.116l-0.016-0.09l0.019-0.563l-0.019-0.106l0.073-0.119l0.053-0.145  l0.027-0.147l0.01-0.133l0.047-0.055l0.095-0.063l0.097-0.087l0.043-0.115v-0.479l0.043-0.117l0.063-0.13l0.026-0.134l-0.073-0.13  V28l0.069-0.04l0.037-0.052l0.029-0.056l0.032-0.054l0.04-0.035l0.089-0.046l0.038-0.04l0.191-0.298l0.094-0.092l-0.051-0.045  l-0.01-0.036l0.039-0.026l0.076-0.014l-0.031-0.052l0.021-0.055l0.054-0.049l0.07-0.035l0.002-0.046l-0.011-0.015h-0.022  l-0.028-0.008l0.104-0.041l0.047-0.076l0.025-0.094l0.047-0.111l0.057-0.085l0.059-0.067l0.072-0.053l0.094-0.048l-0.076-0.136  l-0.188-0.388L83.2,25.583l0.017-0.647l-0.211-0.964l-0.32-0.885l-0.358-0.98l-0.052-0.513l0.002-0.058l-0.006-0.058l-0.015-0.055  l-0.021-0.052l-0.317-0.908l-0.483-1.39l-0.271-0.778l-0.092-0.137l-0.445-0.39l-0.057-0.089l-0.021-0.107l0.017-0.167l0.078-0.282  l0.002-0.128l-0.084-0.116l-0.129-0.177l-0.05-0.161l-0.018-0.391l-0.179-0.754l-0.504-1.329l-0.416-1.102l-0.316-0.826  l-0.258-0.801l-0.322-1.004l-0.083-0.26l-0.147-0.456L78.094,9.46l-0.199-0.363l-0.008,0.007l-1.242,0.803l-1.58,0.625l-1.688,0.44  l-0.271,0.018l-0.188-0.056V11l-0.158-0.068l-0.597-0.062l-0.152-0.05l-0.33-0.169l-0.107,0.03h-0.057l-0.029-0.025L71.4,10.612  v0.171l-0.131,0.01l-0.104,0.034L71.232,11l-0.893,0.07l0.096,0.02l0.076,0.011l0.084-0.012l0.074,0.042l-0.115,0.008l0.008,0.016  l0.002,0.095l-0.006,0.081h-0.061l-0.034-0.084l-0.058-0.041l-0.066,0.006l-0.061,0.054L70.219,11.2l0.061-0.069h-0.061L70.1,11.22  l-0.437,0.169v0.071h0.052v-0.071h0.057l0.111,0.071v0.059l-0.074-0.011l-0.037-0.001l-0.057,0.012l-0.109-0.018l-0.149,0.035  l-0.294,0.118l0.089-0.162l0.002-0.146l-0.071-0.122l-0.135-0.094v-0.06l0.04-0.006l0.009,0.016v0.026l0.01,0.024l0.119-0.085  l0.104-0.025l0.032-0.052l-0.088-0.163l-0.295-0.386l-0.102-0.075v-0.059h0.229V10.22l-0.14-0.001l-0.095,0.047l-0.158,0.15  l-0.094,0.045l-0.201,0.036l-0.102,0.048l-0.131,0.164l-0.101,0.192l-0.144,0.146l-0.246,0.024l0.132,0.053l0.192,0.028l0.187,0.003  l0.108-0.024l-0.053-0.038v-0.03l0.026-0.028L68.316,11l0.17-0.13l0.057-0.065h0.055l-0.035,0.104l-0.045,0.081l-0.02,0.068  l0.045,0.072l-0.082,0.053l-0.314,0.082v0.065l0.037,0.013l0.078,0.046v0.071l-0.109,0.092l-0.127,0.005l-0.272-0.098h0.114  l-0.016-0.048l-0.018-0.094l-0.021-0.052l-0.074-0.114l-0.129-0.09l-0.137-0.037l-0.109,0.046v0.06h0.221v0.07l-0.191,0.1  l-0.086,0.03v-0.065l0.062-0.008l0.024-0.047l-0.115-0.03l-0.03-0.05h-0.054l-0.082,0.067l-0.424,0.133l-0.504,0.324l-0.05-0.008  l-0.036,0.007l-0.024-0.008l-0.009-0.057h-0.051l-0.051,0.093l-0.092,0.037h-0.252l0.115-0.065V11.59h-0.396l0.705-0.181  l0.445-0.209l0.267-0.075l0.457-0.344l0.263-0.102v-0.07h-0.057l-0.09,0.068l-0.34,0.172l-0.141,0.109l-0.729,0.356l-0.607,0.16  l-0.344,0.044l-0.36-0.011l-0.296-0.092l-0.243-0.153l-0.216-0.194L63.82,10.67l-0.152-0.116L63.32,10.22l-0.152-0.199L63.07,9.932  l-0.247-0.066l-0.124-0.081l-0.084-0.122l-0.02-0.159l-0.095-0.012H62.45l-0.109-0.084l-0.556-0.109l-0.107-0.008l-0.1-0.011  l0.057,0.159l0.098-0.036L61.9,9.429l0.174,0.063l0.121,0.07l-0.102,0.074l0.022,0.083l0.137,0.175l0.043,0.163l-0.004,0.134  l-0.039,0.282l-0.028-0.006l-0.193,0.006l0.146,0.14l0.024,0.175l-0.094,0.168l-0.196,0.114l-0.115,0.02l-0.127-0.003l-0.104-0.038  l-0.09-0.157L61.387,10.9l-0.064,0.068l0.031,0.103l-0.045-0.006l-0.037,0.004l-0.024-0.013L61.242,11l-0.1,0.063l-0.011,0.011  l0.011,0.024v0.014l0.006,0.008l0.039,0.01v0.07l-0.045-0.004L61.014,11.2l0.065,0.131l-0.11-0.02l-0.164-0.084L60.684,11.2  l0.025,0.101l0.053,0.094l0.082,0.063l0.117,0.003v0.059l-0.102,0.065L60.75,11.58l-0.102-0.049l-0.084-0.071v-0.071h0.059V11.33  l-0.059-0.046l-0.066-0.019l-0.072,0.014l-0.078,0.051l-0.064-0.047l-0.04-0.018l0.028-0.08l0.039-0.056l0.063-0.038l0.083-0.022V11  l-0.078-0.028l-0.049-0.054l-0.026-0.078l-0.013-0.1h-0.048l-0.027,0.07l-0.047,0.044L60.1,10.873l-0.086-0.004v-0.065l0.168-0.146  l-0.004-0.102l-0.055-0.083v-0.058l0.059-0.026l0.031-0.036l0.016-0.054l0.015-0.079l-0.029,0.022l-0.09,0.042l0.013-0.128  l0.014-0.03l0.035-0.043v-0.059L60.07,9.959l-0.038,0.044l-0.052,0.041l-0.023,0.039l-0.115-0.059V9.959h0.115L59.77,9.896  l-0.156,0.111l-0.125,0.133l-0.098,0.014l-0.045,0.149l-0.07,0.004l-0.036-0.089l0.04-0.135h-0.055v0.071l-0.039-0.01l-0.008-0.021  V10.1l-0.01-0.016l-0.031,0.025l-0.02,0.023l-0.02,0.017l-0.041,0.006l-0.01-0.064l0.016-0.029l0.021-0.016l0.028-0.021H59V9.959  h0.111l-0.035-0.067l-0.01-0.051l0.011-0.06l0.034-0.088L59.05,9.74l-0.04,0.063l-0.066,0.156l-0.077-0.093l-0.123-0.085  l-0.13-0.064l-0.09-0.024l-0.035-0.04V9.565l-0.01-0.087l-0.066-0.04l-0.075-0.003l-0.058-0.013l-0.115-0.049l0.016,0.035  l0.008,0.01l0.012,0.003l0.016,0.017l-0.1,0.047l-0.09-0.025l-0.053-0.083l0.018-0.135l0.07-0.06l0.096-0.021l0.055-0.035  l-0.046-0.091V8.977l0.101-0.045l-0.012-0.034l-0.059-0.034l-0.03-0.048L58.18,8.72l0.043-0.057l0.055-0.004l0.056,0.057h0.05  l0.065-0.063l0.077,0.006l0.091,0.036l0.106,0.021v-0.07l-0.176-0.005l-0.072-0.062l0.022-0.109l0.112-0.145l-0.049-0.071  l-0.029-0.03l-0.037-0.028l0.027-0.012l0.021,0.002l0.019-0.011l-0.006-0.051h0.055l0.059,0.062l0.084,0.02l0.08-0.021l0.059-0.06  l-0.086-0.004l-0.063-0.024l-0.048-0.04L58.66,8V7.928h0.061V7.862l-0.063,0.005l-0.047-0.019l-0.059-0.046L58.52,7.858L58.492,7.87  l-0.053-0.008l0.053-0.147l0.058-0.064l0.034,0.01l-0.031,0.072l0.113,0.009l0.087,0.053l0.052,0.088L58.833,8h0.056l-0.013-0.049  l-0.024-0.044l-0.019-0.044h0.056v-0.06h-0.056l0.024-0.13l-0.125-0.226l0.043-0.106h-0.168l0.041-0.066l0.015-0.053L58.66,7.145  l0.029,0.02l0.061,0.021l0.025,0.02l0.006-0.03l-0.006-0.064V7.079l0.113,0.066l0.03-0.096l0.056-0.033l0.139,0.063l0.004-0.041  l0.09,0.055l0.117,0.155l0.091,0.154l0.413,0.514l-0.104,0.012h-0.103l0.071,0.063l0.068,0.091l0.053,0.113l0.023,0.129H59.9  l0.033-0.003l0.088,0.075l0.221,0.118l0.037,0.039l0.021,0.043L60.34,8.63l0.168,0.02l0.059,0.02l0.037,0.042l0.021,0.068  l-0.063-0.052l-0.023-0.012L60.499,8.72l-0.043-0.004l0.81,0.508l0.252,0.055l-0.082-0.056l-0.328-0.256L60.99,8.913l-0.051-0.038  l-0.205-0.229l-0.098-0.047l-0.199-0.046L60.35,8.515l-0.265-0.238l-0.129-0.163l-0.108-0.273l-0.26-0.351l-0.043-0.114L59.43,7.121  l-0.262-0.134l-0.316-0.005l-0.299,0.097l-0.734,0.418l-1.233,0.354l-0.336,0.01l-0.269-0.06l-0.853-0.397l-0.337-0.261  l-1.288-0.588l-0.759-0.238L52.49,6.29l-0.699,0.105l-0.202,0.076L51.51,6.517l0.371,0.012l0.391,0.168L52.6,6.942l0.159,0.217  L52.705,7.15l-0.053,0.019L52.6,7.205l0.151,0.076l-0.035,0.062l-0.049,0.046L52.6,7.406l-0.076-0.013l-0.016-0.037l0.004-0.045  L52.49,7.276l-0.139-0.091l-0.076-0.029l-0.301-0.022L51.93,7.145L51.884,7.19v0.045l0.011,0.049L51.869,7.34l-0.131,0.114  l-0.029,0.063l0.051,0.078l-0.094,0.194l-0.057,0.076l-0.076,0.063l-0.055-0.072l-0.279-0.124l-0.02,0.03l-0.003,0.012l-0.002,0.008  l-0.026,0.02l-0.004,0.043l0.013,0.008l0.021-0.002l0.021,0.01l-0.11,0.1l-0.14,0.087l-0.139,0.046l-0.109-0.03L50.695,8.02  l0.011-0.012l0.024,0.001L50.756,8l-0.099-0.052l-0.115,0.011l-0.105,0.03L50.359,8l-0.122-0.054l-0.106-0.07l-0.09-0.043  l-0.072,0.03l-0.124,0.063l-0.15,0.132l-0.127,0.168l-0.052,0.166h-0.054l-0.096-0.134l-0.17-0.141L49.03,8.073l-0.071,0.154  l-0.102,0.092l-0.223,0.069l-0.229,0.013l-0.124-0.074h-0.056l-0.051,0.048L48.113,8.37l-0.168-0.045v-0.07l0.125-0.19h0.039  l0.068-0.041L48.503,8l0.142-0.05l0.313-0.217l0.063-0.025l0.113-0.019l0.046-0.022l0.35-0.237l0.435-0.207l0.633-0.364l0.756-0.285  l0.125-0.019V6.493l-2.437,0.865l-1.154,0.309l-0.353,0.045L47.24,7.678l-0.252-0.104l-0.222-0.167L46.468,7.24l-0.055,0.167  l0.125,0.283l0.229,0.173l-0.165-0.031l-0.114-0.128l-0.075-0.18l-0.04-0.184h-0.055l0.07,0.334l-0.032,0.399l-0.113,0.385  l-0.179,0.291l-0.5,0.45l-0.287,0.162l-0.305,0.078v0.065l0.483-0.024l0.133-0.041v0.065l-0.026,0.004L45.5,9.498l-0.023,0.006  v0.058l0.145-0.034l0.121-0.061l0.116-0.028l0.124,0.064L45.898,9.76l-0.031,0.063l-0.061-0.028l-0.038-0.053L45.75,9.664  l0.003-0.103h-0.049l-0.012,0.077l-0.011,0.039l-0.018,0.032L45.64,9.764l-0.026-0.022l-0.006-0.004l-0.022-0.045L45.34,9.929  l-0.032,0.063L45.271,10l-0.072-0.014l-0.046-0.055l0.043-0.109l-0.341,0.202l-0.087-0.052l-0.089-0.069L44.65,9.83l0.099-0.066  l-0.03-0.009l-0.026-0.001l-0.011-0.013l0.006-0.048l0.065-0.042l0.096-0.105l0.067-0.042l-0.301-0.032l-0.336-0.104l-0.231-0.183  l0.023-0.273l-0.223,0.124l-0.006,0.048l0.012,0.012l0.023,0.001l0.025,0.011l-0.078,0.056l-0.052,0.063l-0.067,0.054l-0.113,0.021  l-0.066,0.052L43.36,9.581l-0.106,0.052l-0.113,0.073l-0.381,0.343l-0.093,0.104h-0.061l-0.049-0.1l-0.066,0.002l-0.061,0.066  l-0.046,0.097l0.066-0.036l0.032-0.007l0.072,0.108l-0.378,0.338l-0.237,0.112l-0.229-0.054l-0.126,0.251l-1.206,0.878l-0.064,0.07  l-0.057,0.096l-0.391,0.199L39.435,12.5l-1.208,0.585l-1.119,0.542l-0.246,0.046l-1.318,0.057l-1.422-0.748l-0.154-0.047  l-0.054-0.042l-0.032-0.088l-0.059-0.254L33.774,12.5l-0.2-0.027l-0.159-0.067l-0.292-0.165l-1.455-0.521l-0.135-0.073l-0.09-0.035  l-0.108-0.022l-0.294,0.004l-0.072-0.04l-0.095-0.103l-0.127-0.09L30.6,11.294l-0.159-0.029L30.252,11.3l-0.356,0.178l-0.165,0.041  l-0.159-0.021l-0.35-0.089l-0.185-0.021l-0.246,0.028l-0.102-0.028l-0.067-0.047l-0.063-0.063l-0.075-0.055L28.391,11.2  l-1.469,0.003l-0.397-0.057L26.283,11l-0.026-0.078l-0.032-0.312l-0.145-0.345l-0.021-0.078L26.046,10l-0.041-0.135l-0.087-0.064  L25.78,9.823l-0.951,0.463l-0.487,0.087l-0.412-0.219l-0.182,0.096l-0.183-0.036l-0.202-0.083l-0.515-0.079l-0.257-0.087  L22.354,9.83l-0.197-0.167L22.076,9.53l-0.081-0.284L21.938,9.14l-0.023-0.056L21.903,8.94l-0.026-0.027L21.836,8.89l-0.037-0.052  l-0.061-0.122L21.72,8.649l0.015-0.035l0.003-0.033l-0.061-0.066L21.62,8.476l-0.058-0.018l-0.515,0.01l-0.096-0.012l-0.034,0.038  l-0.078,0.047l-0.052,0.044l-0.133-0.1l-0.203-0.059l-0.555-0.059l-0.517-0.173l-0.223-0.13l-0.093-0.021l-0.075-0.005l-0.081-0.034  l-0.115-0.107L18.65,7.803l-0.143,0.014L18.21,7.928l-0.375-0.003L17.5,7.82l-0.587-0.284L16.748,7.52l-0.407,0.029L16.21,7.504  l-0.135-0.075l-2.362-0.316l-3.238-0.905L9.671,6.166L9.306,6.223l-1.537,0.52l-1.33,0.382L6.202,7.153L5.999,7.205l-0.15,0.087  L5.75,7.272L5.652,7.229L5.577,7.205L5.202,7.261L5.03,7.259L4.715,7.095L4.299,7.069L4.123,7.021L3.972,6.829l-0.09-0.306  l-0.1-0.625l0.01-0.074l-0.514,0.41L3.047,6.561l-0.3,0.812l-1.33,1.089L1.315,8.765l-0.003,0.35l0.082,0.802l0.008,0.781  l0.191,1.017l0.055,0.193l0.289,0.589l0.104,0.484L2.4,13.744l0.112,0.383l-0.051,0.327L2.336,14.78l-0.102,0.379L2.148,15.68  l-0.246,0.653L1.874,16.52l-0.076,0.32l-0.161,0.323L1.16,17.888l-0.249,0.254l-0.223,0.28L0.61,18.556L0.474,18.88l-0.339,0.611  l-0.132,0.332L0,20.186l0.075,0.204l0.232,0.417l0.705,1.763l0.035,0.211l-0.008,0.188l-0.137,0.489l0.056,0.39l0.418,0.705  l0.119,0.389l-0.003,0.227l-0.071,0.68l0.017,0.362l0.083,0.323l0.677,1.642l0.146,0.501L2.4,29.212v64.955h10.361l0.795,0.003  h15.81v0.006h45.348v-0.012h25.159v-0.01l0.066-0.086l0.054-0.098L100,93.861L99.938,93.707z M62.415,18.374l-0.108-0.099  l0.074-0.263l0.037-0.058l-0.039-0.179l0.166-0.128l0.379-0.144l0.113,0.058l0.059,0.13l0.322,0.435l0.044,0.033l0.038,0.042  l0.04,0.075l0.019,0.099l-0.007,0.081v0.072l0.044,0.067l-0.035,0.095l0.078,0.104l0.129,0.087l0.115,0.047l0.309,0.046l0.093,0.057  l0.103,0.154l0.018-0.024l0.006-0.014l0.006-0.012l0.027-0.02l0.016,0.032v0.008l0.006,0.012l0.031,0.018l0.003,0.043l-0.019,0.009  l-0.021-0.003l-0.016,0.009l0.117,0.072l-0.056,0.005l-0.012,0.015l0.002,0.043l0.071,0.172l-0.025,0.205l-0.077,0.098L64.386,19.7  l0.003-0.04l-0.025-0.03l-0.032-0.058l-0.058,0.058v-0.251l-0.035-0.006l-0.012,0.012l-0.037-0.035l-0.049-0.079l-0.063-0.074  l-0.173-0.154l-0.039-0.015l-0.182,0.168l-0.029,0.058l-0.029,0.02l-0.083-0.032l-0.081-0.049l-0.199-0.207l-0.121-0.082  l-0.307-0.107l-0.137-0.069l-0.107-0.104L62.415,18.374z"/></svg>