<svg xmlns="http://www.w3.org/2000/svg" xmlns:xlink="http://www.w3.org/1999/xlink" version="1.1" x="0px" y="0px" viewBox="-461 335 100 100" fill="#e0e0e0" style="enable-background:new -461 335 100 100;" xml:space="preserve"><polygon points="-361.4,385.1 -361,384.5 -361.7,384.2 -362.9,383.2 -363.6,382.6 -363.8,382.5 -364.4,382.3 -364.6,382.2   -364.9,381.7 -365.3,380.6 -365.7,380.3 -366.4,380.3 -366.8,380.6 -367.1,381.1 -367.5,381.3 -367.9,381.4 -368.7,381.2   -369.1,381.2 -369.5,381.3 -370,381.7 -370.2,381.8 -370.5,381.7 -371.1,381.3 -371.3,381.3 -371.4,381.2 -372,381.4 -373.9,382.3   -374.3,381.3 -374.6,380.9 -375,380.5 -375.3,380.2 -375.7,379.8 -376,379.5 -376.3,379.1 -376.9,377.6 -377.4,377.2 -378.5,377.1   -380.7,377.4 -381.3,377.4 -382.3,377.2 -382.4,377.1 -383,377.1 -383.4,377.2 -383.5,377.4 -383.5,377.4 -383.4,378.2   -383.3,378.3 -383,378.7 -382.9,378.8 -383.1,379.4 -383.4,379.4 -383.7,379.4 -384.2,379.6 -384.5,379.9 -384.7,380.1   -384.8,380.4 -385.1,380.7 -385.6,380.8 -385.8,380.9 -386.1,380.9 -386.5,381 -386.8,381.6 -387,381.5 -387.1,381.4 -387.3,381.4   -387.4,381.3 -387.7,381.3 -388,381.3 -388.1,381.5 -388.2,381.7 -388.2,381.8 -388.2,382 -388.2,382.1 -388.5,382 -389.2,381.8   -389.6,381.8 -391.3,382.1 -392,382.4 -392.8,382.9 -393.9,383 -393.9,383 -393.9,383 -393.5,382.4 -393.6,381.7 -394,380.6   -394.1,380.2 -394.1,380.2 -394,379.6 -393.9,379.1 -393.9,378.6 -394.1,378.2 -394.1,378.1 -394.1,378.1 -394,378.1 -393.9,378.1   -393.9,378.1 -393.9,378 -393.9,377.9 -393.8,377.8 -393.8,377.8 -394.2,377.5 -394.6,377.3 -395.5,377.2 -396.4,377.2   -399.6,376.2 -400.6,376.1 -401.4,376.2 -401.4,376.2 -401.6,376.3 -401.7,376.3 -401.9,376.4 -401.9,376.3 -401.9,376.1   -402,375.7 -402.2,375.5 -402.4,375.3 -402.5,375.2 -402.7,375.1 -403.6,375 -404.3,374.6 -404.2,374 -404,373.3 -404,372.6   -404.2,372.2 -404.4,372.2 -404.6,372.2 -405,372.5 -405.5,372.6 -407.4,372.5 -408.1,372.6 -408.4,371.5 -409,370.2 -409.8,369.1   -410.9,368.5 -411.5,368.5 -412.1,368.7 -412.6,369 -413,369.1 -413.4,368.8 -413.5,368.4 -413.5,368 -413.6,367.9 -413.6,367.6   -413.7,367.4 -414.1,366.7 -414.5,366.3 -415.5,365.5 -415.7,365.1 -415.9,363.9 -416.1,363.4 -416.8,363 -418.2,362.9   -418.7,362.5 -418.5,362.1 -418.5,361.7 -418.6,361.2 -418.8,360.9 -419,360.5 -419.2,360.4 -419.5,360.3 -419.8,360.4   -420.2,360.7 -420.8,361.9 -421,362 -421.2,362.2 -423.1,361.7 -424.1,360.9 -426.2,360.5 -427.5,359.9 -429.1,359.7 -429.8,359.6   -431,358.7 -431,358.8 -431.2,359.1 -431.3,358.3 -431.7,358.5 -432.6,359.4 -433.3,359.6 -433.8,359.4 -434.2,359.1 -434.9,359.1   -435.6,359.4 -436.7,360.6 -437.2,361 -437.3,360.2 -437.8,359.7 -438.4,359.7 -439,360.1 -439.3,360.8 -439.1,361.2 -438.8,361.7   -438.7,362.1 -438.7,362.1 -438.9,362.5 -439.3,362.8 -439.6,363.2 -439.6,363.2 -439.3,363.8 -438.5,363.9 -438.2,364   -437.9,364.2 -437.8,364.4 -437.6,364.8 -437.5,365 -437.4,365.7 -437.4,365.9 -437.2,366.1 -436.7,366.4 -436.5,366.5   -436.5,367.2 -436.5,367.2 -436.8,367.4 -441.2,368.5 -442.3,369 -443.4,369.7 -444.2,370.6 -446,373.7 -446.1,374 -446.1,374   -446.1,374.3 -445.8,374.9 -445.8,375 -445.8,375.2 -446.4,375.5 -447,375.3 -448.1,374.5 -448.8,374.3 -449.4,374.3 -451.3,375   -451.7,375.3 -452.6,376.2 -456.6,378.9 -457.2,379.4 -457.5,380 -457.8,380.6 -458.2,381.2 -458.7,381.6 -459.9,382.2   -460.3,382.7 -460.7,383.3 -460.9,383.9 -461,384.6 -461,384.6 -461,385.2 -460.3,387.2 -460.3,387.2 -456.6,389 -454.3,390.5   -454.2,390.5 -451.6,391.8 -450.4,392.6 -449.9,393 -449.5,393.5 -449.1,394.2 -448.8,395.9 -448.3,396.2 -447,396 -440.4,396.6   -439.9,396.7 -437.5,397.4 -430.7,397.7 -429.6,398 -428.2,398 -425.2,398.7 -422.3,399.9 -420.4,401.1 -417.4,402.8 -407.8,407.2   -407.2,407.5 -407.1,407.5 -405.8,408.1 -395.1,410 -394.5,410.3 -394,410.7 -393.1,411.2 -392.4,411.3 -392.1,410.8 -392.9,410   -394.7,409.5 -398.1,408.8 -398.1,408.5 -396.9,408.9 -396.3,409 -395.5,409.1 -395.5,408.8 -395.9,408.5 -396.4,407.9   -396.7,407.6 -397.2,407.4 -397.6,407.3 -400.9,407.7 -402.1,407.4 -402.4,407.5 -402.7,407.5 -403,407.3 -403.2,407.1   -402.7,406.9 -400.4,406.8 -398.7,406.5 -398.1,406.5 -396.7,406.8 -396.2,406.8 -395.9,407 -395.2,408.2 -394.5,408.6 -392.7,409   -392.1,409.3 -391.9,408.9 -392.1,408.5 -392.3,408 -392.4,407.4 -391.9,407.7 -391.1,408.8 -390.4,409.1 -390.4,409.3 -391,409.9   -391.1,409.8 -391.5,409.6 -391.3,410.6 -390.5,411.2 -389.4,411.2 -388.4,410.8 -388.4,410.5 -389,410.5 -389.4,410.6   -389.7,410.7 -390.1,410.5 -389.5,410.2 -388.8,410.2 -387.3,410.2 -387.5,409.8 -388,409.1 -388.1,408.8 -387.4,409.3   -386.9,410.1 -386.9,410.7 -387.9,410.8 -387.9,411 -387.3,411.2 -386.7,411.4 -385.7,411 -381.9,411.6 -378.3,411.3 -377.9,411.2   -377.6,411 -377.3,411 -377.1,411.1 -376,411.3 -370.3,411.7 -368.8,411.4 -369.8,410.7 -369.6,410 -368.8,409.4 -365.7,407.9   -364.9,407.2 -364.5,406.4 -364.5,405.9 -364.6,405.6 -365.4,405.1 -366.8,403.8 -367.3,403.6 -368,403.1 -367.7,402 -366.6,400   -366.2,400.9 -366,401.2 -365.7,401.4 -362.4,399.9 -361.7,399.1 -361.6,398.6 -361.7,398.1 -361.9,397.6 -362.2,397.2 -362.8,397   -363.3,397.1 -363.7,397.3 -364.1,397.1 -364.4,396.6 -364.6,396.2 -364.3,395 -363.3,392.7 -363.2,391.9 -363.2,391.9   -363.3,390.4 -363.1,389.6 -362.8,389.1 -362.4,388.8 -362.2,388.3 -362.2,388.3 -362.4,387.6 -362.2,386.9 "/></svg>