<svg xmlns="http://www.w3.org/2000/svg" xmlns:xlink="http://www.w3.org/1999/xlink" version="1.1" x="0px" y="0px" viewBox="-461 335 100 100" fill="#999999" style="enable-background:new -461 335 100 100;" xml:space="preserve"><path d="M-460.8,429.7l-0.1,0.2l0,0.2l0.1,0.2l-0.1,0l-0.1,0.1l-0.1,0l0.3,0.2l0.2-0.2l0.1-0.4l-0.2-0.4L-460.8,429.7z M-361,383  l-0.1-9.1l0-4.6V368l-0.1-0.7v0.1h-23.3l-0.4-0.1l-1.1-0.5l-0.3-0.1l-0.3-0.1l-0.4-0.3l-0.4-0.4l-0.2-0.3l0-0.4l0.1-0.4l0-0.3  l-0.2-0.3l-0.3,0.2l-0.2,0.3l0.1,0.4l0.2,0.3l0.1,0.4l-0.2,2.2l0,0.1l-0.1,0.1l-0.1,0.1l0,0.2l0,0.2l0.1,0.2l0.2,0.3l0.5,1.4  l0.1,0.7l-0.2,0.6l-0.6,0.6l-0.1,0.2l0,0.1l-0.1,0.1l-0.1,0.1l-0.1,0.4l-0.1,0.1l-0.1,0.1l-0.1,0.1l-0.2,0.3l-0.1,0.1l-0.1,0.1  l-0.4,0.2l-0.1,0.1l-0.1,0.2l-0.1,0.1l-1,1l-0.2,0.5l0.3,0.5l0.8,0.7l0.3,0.1l0.7-0.5l0.4,0l-0.4,0.2l-0.3,0.2l-0.3,0.2l-0.5,0.1  l-0.3-0.1l-0.2-0.2l-0.2-0.1l-0.4,0.3l-0.3,0.5l-0.2,0.5l0,0.2l-0.1,0.1l-0.1,0.1l0,0.1l-0.1,0l-0.3,0.4l-0.7,0.6l-0.5,0.2l-0.1,0.3  l0.1,0.7l-0.1,0.3l-0.2,0.4l-0.3,0.3l-0.3,0.2l-0.2,0.1l-0.2,0.3l-0.3,0.9l-0.2,0.3l-0.2,0.2l-0.3,0.1l0.2,0.3l0,0.1l0,0.2l0.2,0.2  l0.4,0.5l0.2,0.1l0.3-0.1l0.5-0.2l0.6-0.1l0.2-0.1l0.2-0.1l0.3,0.1l0.3,0.2l0.2,0.2l0.1,0.2l0.3,0.8l0.2,0.2l0.4-0.2l0.6-0.2  l0.1-0.1l0.2-0.3l0.3-0.4l0.4-0.4l0.3-0.1l-0.1,0.1l-0.1,0.2l-0.1,0.2l0.1,0.2l0.2,0.1l0.7-0.2l0.2,0.1l0.4,0.3l0.2,0.1l0.2,0  l0.3,0.1l0.2,0.1l0.1,0.1h-0.2l-0.3,0.1l-0.2,0.1l-0.1,0.1l-0.1,0.2l0.1,0.4l0,0.3l0,0.1l0.5,0.1l0.3,0.1l0.3,0.2l0.5,0.5l0.3,0.2  l0.3,0.1l0.3,0.1l0.3-0.1l0.2-0.2l0.1-0.2v-0.5l0.1-0.3l0.8-0.1h7.1l5.2,0l5.2,0l5.2,0L-361,383z M-402.7,340.3l-0.5-0.6l-0.2,0  l-0.1,0l-0.1-0.1l-0.5,0.2l-0.6,0l-0.6-0.1l-0.4-0.1l-0.2,0.1h-0.2l-0.5-0.1l0.1-0.2l0-0.1l-0.7,0.2l-0.6,0.6l-0.5,0.7l-0.2,0.6  l-0.1,1.6l-0.1,0.2l-0.2,0.2l-0.3,0.2l-0.2,0.1l0.2,0.2l0.1,0.3l-0.1,0.3l-0.3,0.1l-0.6-0.1h-0.3l-0.2,0.1l-0.4-0.1l-0.3,0.3  l-0.2,0.4l-0.1,0.3l-0.1,0.7l-0.1,0.2l-0.1,0.2l0.1,0.2l0.2,0.2l0.1,0.2l0.1,0.5l0.3,0.3l0.4,0.1h0.4l0.2,0.1l0.4,0.2l0.2,0.1h0.2  l0.4-0.1l0.1-0.1l0.5,0.3l0.3,0.1l0.1-0.1l0.1,0.1l0.4,0.2l0.2,0.1l0.2-0.2l0.6-1l0.8-0.9l0.1-0.3v-0.8l0.1-0.3l0.5-0.3l0-0.1  l0.1-0.1l0.1-0.4l0.3-0.2l0.4-0.9l0.6-0.7l0.2-0.5l0.6-0.6l0.1-0.2l0.1-0.3l0.1-0.3l0-0.3l-0.1-0.4L-402.7,340.3z"/></svg>