<svg xmlns="http://www.w3.org/2000/svg" xmlns:xlink="http://www.w3.org/1999/xlink" version="1.1" x="0px" y="0px" viewBox="-461 335 100 100"  fill="#999999" style="enable-background:new -461 335 100 100;" xml:space="preserve"><path d="M-363.9,421.1L-363.9,421.1l0,0.2l0.1,0.1l0.2,0.1l0-0.1L-363.9,421.1L-363.9,421.1z M-365.2,418.6l0.1,0l0.3,0.1l0.1-0.1  l-0.1,0l-0.1-0.1l-0.1-0.1l-0.1-0.1l-0.1,0l0-0.1l0.1,0l0.1,0.1l0,0l0.1,0l0-0.1l-0.2,0l-0.1,0l-0.2,0.2l0,0.2L-365.2,418.6  L-365.2,418.6z M-364.3,420L-364.3,420l0.1,0.1l0-0.1l0,0l0.1,0l0.1,0l0.1,0l0,0.1l0,0.1l0.1,0.1l0.1-0.1l0-0.2l0.1,0l0-0.1  l-0.1-0.1l-0.7-0.3v0l0,0.1l-0.1,0l-0.1-0.1l-0.1,0l-0.1,0.1l0,0.2L-364.3,420z M-363.4,420.7l-0.1-0.2l0-0.2l-0.1-0.1l-0.1,0l0,0.2  l0.1,0.1L-363.4,420.7L-363.4,420.7z M-408.5,376.9l0.5-0.1l0.5,0.1l0.4,0.3l0.4,0.4l0.3,0.5l-0.6,0.2l-0.2,0l-0.2-0.1l-0.2-0.1  l-0.2-0.1l-0.1,0.1h-0.1l0-0.1l-0.1-0.1l-0.1-0.1l-0.1-0.1l0.1-0.1l0-0.1l-0.1,0l-0.2,0l0.4,1.2l0.2,0.3l0.3-0.1l0.3,0.1l0.6,0.2  l0.4,0.1l0.2,0l0.2-0.1l0.1-0.3l0.1,0.1l0.1,0.2l0.1,0.1l0.2,0l0.7-0.2l0.3,0.1l0.5,0.3l0.3,0.1l0.3,0l0.7-0.2l0.2,0.1l0.3,0.2  l0.2-0.1l0.1-0.3l-0.1-0.6l-0.1,0l-0.2,0l-0.2,0l-0.3-0.2l-0.2,0l-0.1-0.1l0-0.1l0-0.1l-0.1-0.1l-0.1-0.1l-0.1-0.1l-0.1,0l-0.2,0  l-0.3,0l-0.3,0l-0.3,0.1l-0.1,0.2l0.1,0.2l0.3,0.1l0.2,0.1l-0.1,0l-0.1,0.1l-0.2,0.4l-0.9-0.3l-0.1,0l-0.1-0.1l-0.3-0.4l-0.1-0.2  l0-0.2l0.1-1.2l0-0.2l-0.2-0.1l-0.2,0l0,0.1l0.1,0.1l0,0.1l-0.1,0.1l-0.1,0.1l-0.1,0l-0.1-0.1l0-0.2l0.2-0.2l0.1-0.2l-0.2-0.3  l-0.4-0.3l-0.5-0.2l-0.6-0.1l-0.5,0l0.2,0.3l0.2,0.1l0.5,0l0.2,0.1l0.2,0.2l0.1,0.2l-0.1,0.2l-0.2,0l-0.4,0l-0.3,0.1l0.1,0.3  l0.2,0.3l-0.1,0.1l-0.2,0l-0.4-0.3l-0.2,0l-0.1,0.2l0,0.3l0.1,0.3L-408.5,376.9z M-407,372.8l0.4,0.2l0.4,0.1l0.3-0.1l-0.1-0.1  l-0.2-0.1l-0.1-0.1l-0.1-0.1l-0.1-0.1l0-0.2l0.2-0.2l0.2-0.1l0.1-0.1l-0.1-0.2l-0.3-0.1l-0.1,0l-0.1-0.1l-0.4-0.3l-0.1,0.1l0,0.2  l0,0.2l0,0.2l0.1,0.1l-0.1,0.1l-0.3,0l-0.3,0.1l-0.1,0.2v0.3l0.1,0.2L-407,372.8z M-361.4,422.4l0-0.2l0-0.5l-0.1-0.2l-0.2-0.1  l-0.2-0.1l-0.2-0.1l-0.1-0.2l-0.1-0.2l-0.2-0.2l-0.4-0.3l-0.1,0.1l0,0.1l0,0.1l0.1,0.1l-0.1,0.1l0,0.1l0,0.1l0,0.1l-0.1,0.2  l-0.2,0.2l0,0l-0.3,0.2l0,0l-0.1,0.1l-0.1,0l-0.1,0l0.1-0.2l0.1-0.1l-0.5,0l-0.4-0.1l-0.3-0.3l-0.2-0.4l-0.2,0.1l-0.2,0.1l-0.2,0.1  l-0.2-0.1l-0.1-0.2l-0.1-0.2l0-0.4l-0.1-0.3l-0.2-0.6l-0.1-0.9l-0.1-0.2l-0.2-0.2l-0.2-0.2l-0.2-0.1l-0.3,0l-0.2-0.1l-0.5-0.9  l-0.8-0.6l-0.1-0.2l0-0.2l-0.1-0.1l-0.1-0.1l-0.1-0.1l0-0.1l0-0.1l-0.1-0.1l-0.2,0l-0.1,0.2l-0.1,0.2l-0.2,0.1l-0.3,0.1l-0.7-0.1  l-0.3-0.1l-0.5-0.3l0,0l0-0.1l-0.1-0.7l-0.2-0.4l-0.2-1.8l-0.1-0.4l-0.1-0.2l-0.2-0.1l-0.1-0.2l-0.2-0.5v-0.6l-0.1-0.4l-0.3-0.2  l-0.2-0.1l-0.6-0.7l-0.5-0.4h-0.2l-0.1,0.1l0,0.1l0.1,0l0.3,0l0.3,0.1l0.2,0.2l0,0.4l0,0l-0.2,0l-0.1,0l0,0.1l0,0.1l0,0l0,0l0.1,0.1  l0.2,0.3l0.1,0.1l0,0.1l-0.1,0.1l-0.1,0l-0.1-0.2l-0.1,0l-0.3-0.3l-0.1-0.1l-0.1-0.4l-0.1-0.1l-0.1-0.1l-0.3-0.2l-0.1-0.1l-0.1,0  l-0.2,0.1l-0.2,0.1l-0.2,0l-0.1-0.2l-0.1-0.3l-0.1-0.2l0,0l-0.1-0.1l0,0l-0.1-0.2l-0.3-0.5h-0.1l-0.1-0.2l-0.6-0.5l-0.1-0.2l0-0.3  l-0.1-0.3l-0.2-0.1l-0.2-0.1l-0.5-0.3l-0.3-0.1l-0.1,0l-0.3,0.1l-0.2,0l-0.2,0l-0.1-0.1l-0.2-0.3l-0.3-0.5l-0.1-0.1l-0.2,0l-0.5,0.2  l-0.2,0l-0.9-0.3l-0.1-0.2l-0.2-0.6l-0.5-1l-0.2-0.3l-0.3-0.2l-0.5-0.3l-0.2-0.2l-0.1-0.2l-0.1-0.2l-0.1-0.5l-0.1-0.3l-0.1-0.2  l-0.4-0.4l-0.7-0.6l-0.3-0.4l-0.2-0.6l-0.3-0.3l-0.1-0.1l-0.1-0.1l-0.2-0.1l-0.2-0.2l-0.1-0.2l-0.1-0.6l-0.2-0.5l-0.4-0.4l-0.4-0.3  l-0.7-0.5l-0.2-0.3l-0.2-0.6l-0.2-0.2l-0.2-0.1l-1.7-0.4l-1,0l-0.4-0.1l-0.5-0.3l-0.4-0.2l-0.8,0l-0.3-0.1v0.3l-0.2-0.1l-0.2,0  l-0.1,0.1l-0.2,0.1v-0.3l-0.1-0.2l-0.4-0.3l-0.1-0.2l0-0.2l0.1-0.3l0-0.4l0-0.1l-0.1-0.1l-0.1,0l-0.1,0l0,0l-0.7-0.7l0.1-0.1  l0.2,0.1l0.1-0.1l0-0.1l-0.1-0.1l-0.4,0l-0.1,0.1l0.1,0.3l-0.4-0.2l0-0.1l-0.1-0.6l-0.1-0.1l-0.1-0.1l-0.3,0l-0.1,0l-0.1,0l-0.1,0  l-0.1-0.1l-0.1-0.1v-0.1l0-0.1l0-0.1l-0.4-0.1l-0.1-0.1l-0.1-0.2l-0.1-0.1l0,0.3l0,0.1l0.1,0.1l-0.1,0.1l-0.1,0.1l-0.1,0.1l-0.1,0  l-0.1,0l-0.1-0.1l0-0.1l-0.1,0l-0.2-0.1l0-0.1l0-0.1l0-0.1l-0.2-0.1l0,0l-0.2,0l-0.3,0.1l0,0.2l0,0.2l-0.1,0.1l-0.2,0l-0.1-0.1  l-0.1-0.2l0-0.2l-0.2,0.3l-0.2,0.3l-0.2,0.3l-0.3,0.1l-0.3,0.3l-0.2,0.1l-0.1-0.3l-0.1-0.1l-0.2-0.1l-1.1-0.4l-0.3-0.2l-0.1-0.3  l0-0.1l0.1-0.2l0-0.1l0-0.1l-0.1,0l-0.1,0l0-0.1l-0.1-0.2l-0.2-0.1l-0.2,0l-0.2,0.1l-0.1-0.2l0-0.2l0-0.2l0-0.2l-0.1-0.2l-0.2-0.4  l0-0.2l-0.1-0.1l-0.3-0.3l-0.1-0.1l0,0l-0.1-0.1l0-0.1l0,0l0.2-0.1l0,0l0-0.2l-0.1-0.1l-0.1,0l-0.2,0l0.2-0.6l0.1-0.1l0.1-0.1  l0.3-0.2l0.1-0.2l0-0.2l0-0.2l-0.1-0.2l-0.2-0.1l-0.2-0.1l-0.1,0l-0.3-0.1l-0.2-0.1l-1.4-1.2l-0.3-0.3l-0.2-0.4l-0.1,0.2l-0.2,0.3  l-0.2,0.1v-0.2h-0.1l-0.1,0.3l0,0.1h-0.1l-0.2-0.2l-0.1,0.1l-0.1,0.5l-0.1,0.1l-0.1,0l-0.1,0.1l0,0.2l0,0.2l0.1,0.3l0,0.2l0,0.8  l0,0.3l0.1,0.3l0.1-0.1l0.1-0.2l0.2,0l0.1,0.2l0.2,0.6l0.3,0.5l0,0.3l-0.3,0.5l-0.2,0.1l-0.1,0.1l0.1,0.1l0,0.1l0,0.2l-0.1,0.2  l-0.1,0.1l-0.3,0.1l-0.2,0.1l-0.2,0l-0.1-0.3l-0.2,0.1l-0.2,0l-0.1-0.1l-0.1-0.2l0-0.1l-0.1-0.1l0-0.1l0.1-1.3l0.2-0.8l-0.2-0.2  l-0.1-0.2l-0.1-0.3l0-0.3l-0.1-0.1l-0.3-0.1l-0.1-0.1l-0.8-2.5l-0.4-0.5l-0.2-0.1l-0.3-0.1l-0.3,0l-0.1,0.2l-0.1,0.1l-0.3,0l-0.3,0  l-0.2-0.1l0-0.1l-0.1-0.5l-0.3-0.4l0-0.1h0.2l0.3,0l0.3-0.1l0-0.3l-0.1-0.1l-0.2,0.1l-0.1,0.2l-0.1,0.1l-0.1-0.2l0.1-0.2l0.2-0.2  l0.3,0l-0.4-0.5l-0.1-0.2l0-0.4l0-0.1l-0.2-0.2l0-0.2l0-0.2l0.1-0.2l0.1-0.2l0-0.2l-0.1-0.1l-0.5-0.2l-0.1-0.1l-0.1-0.2l-0.9-0.5  l-0.3-0.5l-0.5-2l-0.3-0.8l-0.1-0.2l-0.1-0.7l-0.5-2V368l0.1-0.4l0-0.2l0-0.2l-0.1-0.2l0-0.1l0-0.2l0-0.6l0-0.2l-0.1-0.1l-0.1-0.1  l-0.1-0.1l0-0.1l0-0.5l-0.1-0.1l-0.2,0l-0.1-0.1l0-0.2l0.1,0.1l0.1-0.4l-0.2-0.7l0.3-0.3l0-0.4l-0.1-0.3l-0.3-0.7l0.2,0.1l-0.3-1.2  l-0.5-1.1l-0.1-0.3l-0.1-0.6l-0.2-0.4l-0.1-0.3l-0.1-0.6l-0.1-0.3l-0.4-0.9l-0.1-0.5l-0.1-0.6l-0.2-0.5l-0.4-0.4l-0.3-0.5l0.2-0.6  l-0.2-0.3l-0.4-1.3l-1-1.8l-1-2.4l-1.4-2.1l-0.1-0.3l0-0.1l-0.3-0.4l0-0.2l0-0.3l0-0.2l-0.6-0.9l-0.1-0.5l-0.1-0.2l0-0.2l-2.1,1.8  l-0.4,0.6l-0.9,2.4l-0.4,0.7l-0.3,0.2l-0.7,0.4l-0.3,0.2l-0.1,0.3l0,0.3l0,0.3l-0.2,0.3l-0.4,0.1l-0.3-0.2l-0.2-0.2l-0.2-0.2  l-0.5,0.2l-0.1,0l-0.1,0.1l0,0.1l0,0.1l0,0.2l-0.2,0.3l-0.2,0.2h-0.2l-0.1-0.3l0-0.3l0-0.3l-0.1-0.2l-0.3,0l-0.4,0.1l-1,0.7  l-0.5,0.6l-0.3,0.2l-0.4,0.1l-0.3-0.1l-0.4-0.4l-0.3-0.1l-0.5,0.3l-0.6,1.2l-0.6,0.3l-0.6,0.1l-2,0.6l-0.2,0.1l0,0.2l0.2,0.7l0,0.3  l-0.1,0.6l-0.1,0.3l-0.3,0.6l-0.1,0.3l-0.1,0.3l-0.8,1l-1.4-0.4l-0.4,0l-0.7,0.4l-0.4,0l-0.2,0l-0.8,0.1l-0.1,0l-0.6-0.4l-0.2-0.1  l-0.4-0.1l-0.3-0.1l-0.2-0.2l-0.2-0.1l-0.3,0l-0.1,0.1l0,0.1l0,0.1l0.3,0.4l0.1,0.3l-0.1,0.3l-0.4,0.5l0.1,0.2l0.2,0.2l0.1,0.2  l0,0.2l0,0.6l0,0.1l0.1,0.1l0,0.1l0,0.1l-0.1,0.1l0,0.1l-0.1,0.9l-0.4,0.9l-0.2,0.2l-0.5,0.4l-0.2,0.2l-0.1,0.3l0,0.3l0,0.5l0,0.3  l-0.2,0.6l0,0.2l0.1,0.4l0.2,0.3l0.2,0.3l0.2,0.3l0.1,0.3l0,0.3l-0.1,0.3l0,0.3l0.1,0.3l0.3,0.6l0,0.3l-0.2,0.4l-0.6,0.6l-0.2,0.4  l-0.5,1.4l-0.7,1.9l-0.7,2l-0.4,0.7l-0.7,0.8l-0.2,0.3l-0.8,3l0,0.6l0.2,0.7l-0.5,0.3l-0.3,0.5l-0.8,2.2l-0.3,0.4l-1.1,1.1l-0.1,0.3  l0,0.3l0.2,1.5l0.3,2.6l0.3,2.3l0.2,1.9l0.2,1.9l0.3,2.8l0.3,0l0.1-0.3l0.2-0.2l0.3-0.1l0.3,0l0.2,0l0.5-0.2l0.3,0h0.7l0.1,0  l0.2-0.1l0.1,0h1l0.5,0.1l1,0.3l0.5,0.1l0.1,0.1l0.3,0.4l0.1,0.1l0.1,0.1l0.1,0l0.2,0l0.1,0l0.2-0.2l0.1,0l0.3,0l0.1,0l0.2-0.1  l0.2-0.2l0.1-0.3l0-0.3l0-0.4l0-0.3l0.1-0.3l0.2-0.3l0.4-0.3l0.5-0.1l1.1,0l0.3-0.1l0.2,0l0.4,0.3l0.3,0.2l0.6,0.8l0.2,0.2l0.1,0.1  l0,0.2l0,0.3l0,0.2l0.2,0.1l0.6,0.5l0.1,0.1l0.1,0.3l0.1,0.4l0.1,0.2l0.2,0.1l0.2,0l0.2,0.1l0.1,0.1l0,0.1l0,0.4l0.1,0.3l0.2,0.2  l0.3,0.2l0.2-0.2l0.5-1.3l0.9-2.1l0.9-2.2l1-2.3l1-2.3l0.6-1.5l0.3,0.2l0.2,0.3l0.3,0.6l0.1,0.1l0.1,0l0.1,0.1l0,0.1l0,0.2l0,0  l0.1,0.1l0,0.1l0.1,0.1l0.2,0l0.1,0.1l0,0.1l0,0.1l0.1,0.1l0.1,0.1l1.6,0.7l0.3,0l0.9-0.1l0.4,0l0.2,0.1l0.2,0.2l0.1,0.3l0.1,0.4  l0.1,0.2l0.1,0.1l0.2,0.1l0.2,0.1l0.1,0.2l0.1,0.6l0.1,0.3l0.2,0.2l0.2,0.2l0.8,0.4l0.1,0.1l0.1,0.3l0.1,0.1l0.2,0.1l0.1,0l0.1,0  l0.7,0l1.1-0.1l0.6-0.1l0.9-0.5l0.3,0l0.3,0.1l0.3,0l0.3,0l0.3-0.1l0.9-0.4l0.7-0.1l0.3-0.2l0.5-0.5l0.6-0.3l0.3-0.2l0.2-0.3l0-0.3  l0-0.3l0-0.3l0.2-0.2l0,0.1l0.5,0.1l0.4,0.1l0.1,0.1l0.3,0.2l0.3,0.3l0.3,0.3l0.2,0.3l0.4,1.3l0.3,0.6l0.4,0l0.3-0.5l0.2-0.2  l0.4-0.1l0.8,0.1l0.3,0l1.2-0.3l0.6-0.3l0.3-0.4l0.1-0.3h0.3l0.3,0.2l0.2,0.2l0.3,0.4l0.1,0.1l0.1,0l0.8,0.2l0.4,0l0.9-0.1l0.5,0  l0.4,0.1l0.4,0.3l0.8,0.7l0.2,0.1l0.3,0.1l0.3-0.1l0.5-0.4l0.3-0.1l0.6,0.1l0.2,0l0.7-0.2l0.3,0l1.3,0.3l0.6,0.3l0.6,0.3l2.2,2  l0.9,0.5l1.6,0.8l0.4,0.1l1.3,0.2l1,0.4l0.9,0.6l1.6,1.8l1.6,1.8l1.2,2.1l1.1,1.9l0.5,0.4l2,1.3l2.6,1.7l1.6,1.3l1.1,0.9l0.6,0.6  l0.5,0.7l0.5,0.8l1.2,2.5l0.8,1.1l1.2,0.7l0.8,0.4l0.8,0.5l0.7,0.6l1,1.7l1.2,1.6l0.7,0.8l0.8-0.8l0.3,0l0.4,0.1l0.7,0.3l2.3,2.1  l0.2-0.3l0.5-0.2l0.2-0.3l0.1-0.1l0.4-0.1l0.2-0.1l0.1-0.4l-0.1-0.5l-0.1-0.5l0.6-0.6l0.3-0.8l0.3-0.2l0.1,0l0.2,0.1l0.2,0l3.3-1.4  l0.1-0.1L-361.4,422.4z M-403.6,388.6l0.3,0l0.1,0l0.2-0.1l0.3-0.3l0.2-0.1l0.1-0.1l-0.1-0.3l-0.1-0.2l-0.1-0.1l-0.3-0.1l-0.2,0  l-0.1,0.1l-0.1,0.3l-0.3,0.6L-403.6,388.6L-403.6,388.6z M-404.2,386.1l0.1,0.3l0,0.1l0.2,0.1l0.1,0.1l0.1,0l0.3-0.1l0-0.2l-0.1-0.2  l-0.2-0.2l0-0.1h0.1l0.1-0.1l0.1-0.2l0.1-0.1l0.1-0.1l0-0.1l-0.1,0l-0.2,0l-0.6,0.4l-0.1,0l0,0.1l0,0.2l-0.1,0.1L-404.2,386.1z"/></svg>