<svg xmlns="http://www.w3.org/2000/svg" xmlns:xlink="http://www.w3.org/1999/xlink" version="1.1" x="0px" y="0px" viewBox="-461 335 100 100" fill="#e0e0e0" style="enable-background:new -461 335 100 100;" xml:space="preserve"><path d="M-450.2,398.6l0-0.2l0-0.1l-0.1,0l0-0.1l0-0.1l0-0.1l-0.2-0.1l-0.1,0l0,0.3l-0.3,0.6l0.3,0.4l0,0.3l0,0l0.5-0.7l0-0.1  l-0.1-0.1L-450.2,398.6z M-438.6,408.8l-0.3-0.3l-0.2,0l-0.1,0.2l0,0.2l0,0.3l0.2,0.3l0.3,0.2l0.3,0l0.1-0.4l-0.1-0.3L-438.6,408.8z   M-455.4,376.5l0.5,0l1-0.3l0.5,0l0.5,0.1l0.4,0.3l0.8,0.9l0.2,0.3l0,0.4v0.7l0.1,0.5l0.2,0.6l0.3,0.6l0.2,0.3l-0.3,0.4l-0.1,0.1  l-0.1,0.1l0.6,0.7l0.9,0.2l0.9-0.1l0.7-0.4l0.4-0.7l0.5-1.8l0.3-0.7l0.3-0.3l0.4-0.3l0.4-0.2l0.3,0l0.1,0.3l-0.2,0.3l-0.3,0.3  l-0.2,0.3l0.2,0.3l0.4,0.2l0.5,0l0.3-0.2l0.2-0.2h0.1l0.1-0.1l0-0.4l0-0.3l-0.1-0.2l-0.1-0.1h-0.1l0.2-0.4l0.3-0.1h0.3l0.3-0.1  l0.2,0.2l0.1-0.1l0-0.2l0.1-0.1l0.2,0l0.2,0.1l0.7,0.5l0.2,0l0.1-0.3l0-0.6l-0.1,0h-0.1l-0.1-0.1l0-0.2v-0.3l0-0.2l0-0.1l-0.1-0.2  l-0.2-0.3l-0.1-0.2l-0.1-0.2l-0.3-0.3l-0.1-0.3l0-0.3l0.1-0.5l0-0.3l-0.2-0.4l-1.5-0.8l-1.6,0.1l-0.3-0.2l-0.3-0.4l-0.2-0.5l0.4-0.9  l-0.3-0.3l-0.5-0.2l-0.4-0.1l-0.7-0.1l-0.2,0.1l-0.1,0.3l0,0.3v0.3l-0.1,0.3l-0.2,0.4l-0.2,0.3l-0.3,0.1l-0.4,0l-0.3,0.3v1.1l-0.2,0  l-0.4-0.2l-0.2,0.1l0,0.2l0.3,0.2l-4.6,0.6l-1.2-0.2l-0.6,0.1l-0.2,0.5l0.3,0.3L-455.4,376.5z M-440.3,373.9l0.2,0.2l0.2,0l0.6-0.1  l0.1-0.1l0-0.1l0.1-0.1l0.3,0.1l0.5,0.3h0.3l0.5-0.3l0.2-0.1l0.2,0.1l0.2,0.1l0.2,0.1l0.2-0.2l0.1-0.5l-0.1-0.3l-0.4-0.7l-0.3-0.3  h-0.4l-0.7,0.2l-1.1-0.4l-0.6-0.1l-0.4,0l-0.3,0.1l-0.2,0.2l-0.1,0.4l0.1,0.2L-440.3,373.9z M-418.8,356.4l0.4-0.1l0.1-0.3l-0.3-0.8  l-0.2-0.4l-0.2,0.1l-0.2,0.6l0,0.6L-418.8,356.4z M-371.9,391.5L-371.9,391.5L-371.9,391.5l-0.1,0l-0.1,0.1l-0.1,0.1l-0.1,0.2  l0.5,0.3l0.2,0l0.3-0.1l-0.1-0.2l-0.1-0.2L-371.9,391.5z M-438.2,388.6l-0.5-0.4l-0.4-0.1l-0.7-0.2l-0.6-0.3l-0.2-0.2l-0.1-0.2  l-0.2-0.6l-0.3-0.5l-0.9-0.4l-0.7-0.5l-0.7-0.3l-0.4-0.2l-0.4-0.1l-0.8,0.2l-0.6-0.3l-0.3,0.2l-0.5,0.7l-0.3,0.1l-0.3-0.1l-0.3-0.2  l-0.3-0.1l-0.1,0.1l-0.3,0.3l-0.2,0.1l-0.1-0.1l-0.2-0.3l-0.1-0.1l-0.2-0.2l-0.3-0.7l-0.2-0.2l-0.5,0.2l-1.4,1.1l-2.2,0.2l-0.5,0.5  l-0.1,0.6l0,0.8l-0.2,0.6l-0.5-0.1l-0.2-0.2l-0.1-0.2l0-0.4l0-0.1l-0.1-0.2l-0.1-0.2l0-0.1l-0.3,0l-0.1,0.1l-0.1,0.2l-0.2,0.4  l-0.2,0.2l-0.5,0.3l-0.2,0.2l-0.2,0.3l-0.1,0.3l-0.1,0.8l0.1,0.4v0.3l-0.1,0.1h-0.1l-0.1,0l-0.1-0.1l0-0.2l0-0.4l-0.1-0.3l-0.7-1.3  l-0.4-0.4l-0.5-0.2l-0.6,0l-0.1,0.2v0.2l0,0.1l-0.2,0.1h-0.3l-0.8-0.4l0.4,0.6l0.4,0.4l0.2,0.3l0.4,0.7l0.3,0.4l0.7,1.4l0.2,0.7  l0.1,0.3l-0.3-0.1l-0.4,0.1l-0.2,0.3l0.1,0.5l-0.3,0.2l-0.3-0.2l-0.3-0.4l-0.3-0.2l-0.3,0.1l0.1,0.4l0.3,0.5l0.2,0.5l-0.8-0.2  l-0.2,0.1v0.3l0.1,0.4l0.3,0.5l0.5,0.4l0.5,0.2h1l0.4,0.3l0.6,1.4l0.3,0.3l1.1,0.2l0.6,0.3l0.4,0.4l-0.6,0.9l-0.1,0.3l-0.1,0.6  l-0.1,0.2l-0.2,0.1l-0.2-0.1l-0.2-0.1l-0.2-0.1l-0.2,0.1l-0.1,0.3l-0.3,0.6l-0.6,0.9l-0.1,0.3l-0.2,0.6l-0.1,0.2l-0.1,0l-0.4,0  l0,0.1v0.1l0,0.1l0,0l0.2,0.1l0.2,0.2l0.1,0.3l-0.1,0.3l0.4,0.6l0.5,0l2.2-2l0.2-0.3l-0.1-0.7l0-0.3l0.2-0.3l0.2-0.2l0.1-0.3  l0.4-1.2l0.1-0.7l0.1-0.7l0-1.1l0-0.1l0.1-0.1l0.2-0.3l0.5-0.4l0.5-0.3l0.1,0l0.3-0.2l0.1-0.1l0.2,0l0.2,0.1l0.2,0.1l0.2-0.2  l0.2-0.2l0.3-0.2l0.3-0.1l0.2,0v0.1l0.1,0.5v0.1l0.1,0l0,0l0.1-0.1l0.1-0.1l0.1-0.5l0.1-0.2l0.2,0.2l0.2,0.3l0.1,0.1l0.1-0.1  l0.2-0.3l0.3-0.1l0.3,0l0.3,0.1l0.2,0.2l0.2,0.7l0.9-0.1l0.5-0.5l-0.7-0.5l0.2-0.4l0.3-0.1l0.7,0.1l0.4-0.1l0.2-0.2l0.5-0.6l0.3-0.2  l0.3-0.1l0.2-0.1l1-1.4l-0.3-0.4l0.1-0.3l0.4,0l0.7,0.6l0.3-0.3l0.3-0.4l0.4-0.3l0-0.2l0-0.2l0-0.2v-0.2l0.1-0.3l0.1-0.1l0.2,0.1  l0.1,0l0.2-0.2l0.1-0.1l0.1-0.2l0.1-0.2l0.1-0.4l0-0.1l0.1-0.2l0-0.1h0.2l0.2,0.1l0.1,0.2l0.1,0.2l0.1,0.1l0.3,0.3l0.3,0.2l0.7,0.1  l-0.1-0.3l-0.1-0.2l-0.2-0.1l-0.2-0.1l0.4-0.3l1,0.7l0.1-0.4l-0.2-0.5L-438.2,388.6z M-361.2,361.4l-0.4-0.4l-0.2-0.2l-0.2-0.3  l-0.4-0.9l-0.3-0.4l-0.7-0.4l-0.3-0.6l-0.6,1.1l-0.5,0.6l-0.6,0.4l-0.7,0.2l-2.5-0.6l-2.4-0.2l-2.4-0.6l-2.1,0.2l-2.5,0.2l-2.8-0.3  l-0.3-0.1l-0.7-0.4l-0.8-0.3l-1.4-1.5l-0.6-0.5l-0.6-0.3l-0.6-0.2l-0.7-0.1l-0.2,0.1l-0.5,0.4l-0.3,0.1l-0.4,0l-0.6-0.2l-0.9-0.5  l-1-0.2l-0.7-0.4l-0.3-0.1l-3,0.1l-0.1-0.1l0-0.2l0-0.2l-0.1-0.1l-0.6-0.6l-0.5-0.3l-0.2-0.1l-0.2,0.1l-0.2,0.3l0,0.3l0.1,0.3l0,0.2  l-0.3,0.1l-0.3-0.3l-0.4-0.6l-0.3-0.2l-0.2,0.7l0.1,0.2l-0.2,0.5l-0.3,0.3l-0.3,0.1l-0.3-0.2l-0.2-0.3l-0.1-0.8l-0.2-0.4l0.1-0.2  l-0.9-0.9l-0.5-0.2l-0.4,0.5l0.1,0l0.1,0.1l0.1,0l-0.1,0.7l0.2,0.4l0.2,0.4l0.1,0.5l-0.2,0.6l-0.5,0.1l-0.5-0.2l-0.4-0.3l-0.5-0.8  l-0.3-0.3l-0.3-0.1l-0.3-0.2l-0.5-1l-0.3-0.2l-0.1,0.6l0.1,1.2l0.2,1.2l0.5,0.6l0.2,0.1l0.1,0.2v0.2l-0.2,0.1h-1.5l-0.4,0.2  l-0.2,0.4l0.1,0.7h0l-3.4-1l-0.8-0.5l-0.4,0l-0.2,0.3l0.1,0.8l-0.3,0.2l-0.3-0.1l-0.7-0.4l-0.4-0.1l-1.2,0.3l-0.4-0.1l-1.1-1.3  l-0.6-0.5l-0.5,0.3l0.1,0.2l0,0.2l0,0.2v0.3l0.1,0.3l0.1,0.2l0.1,0.1l0.1,0.2l0.1,0.5l0,0.2l-0.4,0.8l-0.1,0.1l-0.2,0.1l-0.4,0.1  l-0.3-0.4l-0.2-0.5l-0.3-0.5l-0.2-0.1l-0.2,0l-0.1,0.1l-0.1,0.3l-0.1,0.3l-0.2,0.1l-0.4,0v0.3l0.3,0.1l0.3,0.3l0.1,0.3l-0.3,0.1  l-0.3-0.1l-0.9-0.7l-0.3-0.1l-0.2,0.2l-0.3,0.3l-0.3,0.1l-0.3-0.1l-0.6-0.7l-0.3-0.2l-0.4,0l-1,0.3l-0.1,0.2l-0.2,1l-0.2,0.4  l-0.6,0.2l-1.4,0.1l-0.3,0.2l0.4,0.4l0.4,0.6l0.1,0.5l-0.4,0.2l-0.5-0.2l-0.9-0.9l-0.5-0.3l-0.3-0.1l-0.2,0.1l-0.2,0.2l-0.2,0.3  l0,0.3l0.1,0.3l1,1.4l0.1,0.6l-0.3,0.7l-0.7-0.7l-0.8,0.1l-0.8,0.3l-0.7,0.1l-0.7-0.2l-1.4,0l-0.4,0.2l-0.2,0.4l0.2,0.2l0.1,0.3  l0,0.3l-0.2,0.3l-0.2,0l-0.9-0.8l-0.3,0l-0.2,0.2l-0.2,0.3l-0.4,0.2l-0.2,0.3l-0.1,0.1l-0.2,0l-0.3-0.1l-0.2,0l-0.9,0.6l0.2,1.2  l0.5,1.5l0,1.6l-0.3-0.4l-0.2-0.1l-0.2,0.1l-0.7,0.9l-0.1,0.4l0.1,0.6l-0.1,0l-0.2,0l-0.1,0l0.4,0.7l0.4,0.4l1,0.3l0.1,0.1l0.1,0.2  l0.1,0.1l0.2,0l0.1-0.3v-0.3l0.3-0.4l0.1-0.1l0.3,0l0.1-0.1l-0.2-0.4l-0.5-0.5l-0.2-0.4l0.4,0.3l0.4,0.4l0.3,0.5l0.1,0.7v0.4l0,0.2  l-0.1,0.2l-0.5,0.4l-0.3,0.1l-0.3,0l-0.3-0.2l-0.3,0.5l-1-0.1l-0.3,0.5v0.6l0.5,0.8l0.1,0.6l1,1.3l-0.1,0.2l-0.5,0.1l-0.3,0.3  l-0.6,1.1l0.9-0.4l0.3-0.1l0.5,0.1l0.1,0l0.1-0.2l0.2-0.1l0.3-0.2l0.4-0.1l1.1,0.1l0.7-0.3l0.3,0l0.3,0.4l0.4-0.5l0.5,0l0.5,0.4  l0.4,0.5l-0.3,0l-0.6-0.4l-0.3,0l-0.2,0.2l-0.1,0.4l0.1,0.3l0.2,0.1l0.1,0.1l0,0.2l0,0.2l0,0.1h-0.5l-0.3-0.1l-0.6-0.4l-0.3-0.1  l-0.6,0.1l-0.6,0.2l-0.6,0.1l-0.6-0.3h-0.2l-0.1,0.3l0,0.4l0.3,0.3v0.1l-0.1,0.1l-0.1,0.1l-0.3-0.1l-0.1,0l-0.1,0.3l-0.1,0.7  l0.1,0.8l0.2,0.8l0.1,0.6l-0.1,0.3l-0.1,0.3l-0.1,0.3l0.1,0.3l0.2,0.2l0.1-0.1l0.1-0.3l0.2-0.3l0.2-0.1l0.1,0.2l0,0.3l0.1,0.4  l0.2,0.2l0.3,0.3l0.3,0.2l0.2,0l0.5-0.2l0.2,0.4l0.1,0.7l0,0.9l-0.1,0.7v0.3l0.1,0.4l0.2,0.3l0.2,0.2l0.2,0.2l0.1,0.5l0,0.3l0.1,0.4  l0.1,0.3l0.1,0.3l0.1,0.1l0.1,0l0.1-0.1l0.1-0.2l0.1-0.1l0.2,0.1l0.2,0.1l0.1,0.1l0.1-0.1l0.1-0.1l0.1-0.1l0.1,0l0.1,0.1l0.2,0.3  l0.1,0.1l0.3,0.1l0.6,0.1l1,0.5l0.4,0.5l0.7,0.7l0.5,0.8l0.2,0.2l0.3,0.1l0.1-0.1l0.3-0.7l0.3-0.3h0.3l0.6,0.2l0.3-0.1l0.2-0.2  l0.2-0.3l0.5-0.9l0.1-0.3l0-0.5l0.1-0.4l0.1-0.4l0.2-0.4l0.2-0.2l0.6-0.3l0.7,0.1l0.7,0.3l1.3,1.1l0.3,0.5l0.1,0.6l-0.2,0.7  l-0.4,0.4l-0.5,0.3l-0.3,0.4l-0.1,0.3v0.7l-0.2,0.6v0.3l0.1,0.3l0.1,0.3l0.1,0.3l0,0.4l-0.1,0.7v1.4l-0.3,0.5l-0.8,0.9l-0.3,1.2  l-0.7,1.8l-0.1,0.3l0,0.4l-0.1,0.3l-0.1,0.3l-0.2,0.3l0.7,0.3l0.5,0l0.4-0.2l0.2-0.3l0.3-0.7l0.2-0.2l0.6-0.3l0.8-0.8l0.3-0.1  l1.1,0.1l1-0.1l0.2-0.2l0.3-0.8l0.2-0.3l0.5,0.1l0.4,0.3l0.4,0.1l0.5-0.5l0.4-0.2l1.2-0.2l0.4-0.3l1.2-1.2l0.3-0.2l0.4-0.1l0.8,0  l0.4,0.3l0.2,0.6l0.1,0.7l0.2,0.6l0.2,0.2h0.2l0.5-0.3l0.3-0.4l-0.1-0.5l-0.4-0.8l0-0.5l0.2-0.2l0.3,0.1l0.3,0.2l0.1,0.2l0.2,0.5  l0.1,0.2l0.1,0.1l0.1,0l0.1-0.1h0.2l0.6,0.3l0.9,1.2l0.6,0.4l0.6,0.1l0.2,0.1l0.1,0.2l0,0.2l0,0.2l0.1,0.2l0.3,0.4l0.4,0.2l0.4,0.1  l0.4,0l1-0.4h0.2l0.2,0.4l0.1,0.6l0.2,0.6l0.4,0.4l3.3,0.3l0.2,0.1l0.1,0.1l0.1,0.3l-0.1,0.2l-0.1,0.2l0,0.3l0,0.6l0.1,0.4l1.7,1.5  l0.5,0.6l1.5,2.5l0.5,0.6l0.7,0.5l1.4,0.6l0.3,0.3l0.5,0.8l0.3,0.4l0.2,0l0.2-0.2l0.2-0.1l0.2,0l0.3,0.2l0.2,0.1l0.2-0.1l0.1-0.2  l0.1-0.2l0.1-0.2l0.5-0.4l0.5-0.3l0.5-0.2l1.2,0.1l0.3-0.1l0.3-0.3l0.2-0.4l0.2-0.4l0.2-0.4l0.3-0.1l0.2,0.2l0.2,0.2l0.2,0l0.3-0.1  h0.3l0.5,0.2l0.4,0.3l0.6,0.9l0.3,0.4l0.4,0.2l1.3,0.1l2.4,0.9l0.5-0.3l-0.1-0.3l-0.1-0.5l-0.1-0.5v-0.4l0.1-0.3l0.2-0.1l0.2,0  l0.2-0.1l0.1-0.2l0-0.1l0-0.6l0-0.1l0-0.1l0-0.4l0-0.1l0-0.1l0-0.3l0.1-0.2l0.1-0.2l0.3-0.3l1.3-0.5l0.3-0.3l0-0.4l-0.2-0.8l0.1-0.5  l0.2-0.3l0.2-0.2l0.4-0.2l-0.3-0.3l-0.1-0.1l0.2-0.1l2.6-0.4l1-0.4l0.4-0.3l0.2-0.4l-0.1-0.6l-0.3-0.3l-1.6-0.7l-0.1-0.2l-0.1-0.4  l0.1-0.3l0.1-0.3l0.1-0.4l-0.1-0.7l-0.3-0.2l-0.1-0.1l-0.1,0.2l-0.3,0.9l-0.2-0.6l-0.1-0.7l-0.1-0.7l0-0.7l0.1-0.7l-0.1-0.3  l-0.5-0.2l-0.2-0.3l-0.2-0.8l-0.8-1.7l-0.2-0.6l0-0.3l0.4-0.3l0,0l-0.4,0.3l0-0.9l0-0.2l-0.2-0.1l-0.6-0.9l0.1-0.3l0-0.3l-0.1-0.3  l-0.1-0.3v-0.6l0.1-0.2l0.1-0.2l0.1-0.2l-0.1-0.2l-0.2-0.2l-1.1-0.6l-0.7,0l-0.4-0.1l-0.4-0.5l-0.1-0.7l0-1.5l0-0.8l-0.5-2.7  l-0.6-1.6l-1-1.9l-0.4-0.5l-1.5-1l-0.4-0.5l-0.1-0.7l0.1-0.9l0.2-0.8l0.2-0.6l0.5-0.9l0.5-0.7l0.6-0.5l3.2-1.3l3.9-0.5l2.8,0.6  l0.2-0.6l0.7-1.3l0.3-0.7l0.9-2.6l0.2-1l0.3-1.3l0.3-0.7l-0.1-0.5l0,0l0,0l0.3-0.5l0.9-0.5l1.8,0l0.3-0.4l-0.3,0l-1.1-0.5l0,0l0,0  l0.5-0.3l1.3-0.1l0.7-0.6l0.4,0.2l0.1-0.6L-361.2,361.4z M-393.2,395v0.9l-0.1,0.4l-0.1,0.4l-0.2,0.3l-0.3,0.3l-0.3,0.4l-0.1,0.5  l0.1,0.6l0.2,0.4l0.1,0.4l-0.1,0.5l-0.2,0.2l-0.1-0.2l-0.1-0.4l-0.2-0.8l-0.1-0.8l-0.1-0.4l-0.3-0.4l-0.3-0.2l-0.1-0.3l0.1-0.7  l-0.9-1.2l-0.1-0.4l0-0.2l-0.1-0.2l-0.1-0.2l0-0.4l0.1-0.3l0.4-0.6l0.2-0.6l0.1-0.5l0.2-0.4l0.5-0.2h0.5l0.5,0.1l0.5,0.3l0.3,0.4  l0.4,0.7l0.1,0.8L-393.2,395z M-427.2,398.6l-0.5,0.2l-0.3,0.4l0.1,0.7l0.4,0.4l0.5-0.3l0.3-0.6l-0.1-0.7L-427.2,398.6z   M-436.7,385.9l-0.1-0.2l-0.3-0.4l-0.1-0.3l0-0.3l0-0.3v-0.3l-0.1-0.3l-0.2-0.3l-0.7-0.4l-1.4-0.4l-0.3,0l-0.3,0.2l-0.3,0.4  l-0.1,0.2l-0.1,0.6l0,0.2l-0.2,0.1l-0.5-0.2l-0.2,0.2l-0.1,0.6l0.4,0.4l0.8,0.3l1.4,1.3l0.2,0l0.5-0.3l0.2-0.1l0.6,0l0.3,0.1  l0.3,0.2l0.2,0.1l0.1-0.2l0.1-0.3l0.3-0.2l0-0.2L-436.7,385.9z"/></svg>