<svg xmlns="http://www.w3.org/2000/svg" xmlns:xlink="http://www.w3.org/1999/xlink" version="1.1" x="0px" y="0px" viewBox="-461 335 100 100" fill="#999999" style="enable-background:new -461 335 100 100;" xml:space="preserve"><polygon points="-362,393 -363.2,393 -364,393 -365.1,393 -366.1,393 -367.1,393 -367.7,393 -368.1,392.8 -368.5,392.7 -369,392.5   -369.6,392.3 -370.2,392.1 -370.7,391.9 -371.3,391.7 -371.8,391.5 -372.4,391.3 -373,391.1 -373.5,391 -374.1,390.8 -374.6,390.6   -375.2,390.4 -375.8,390.2 -376.3,390 -376.9,389.8 -377.4,389.6 -378,389.4 -378.6,389.3 -379.2,389.1 -379.8,388.9 -380.4,388.7   -381,388.5 -381.6,388.3 -382.1,388.1 -382.7,387.9 -383.3,387.7 -383.9,387.5 -384.5,387.3 -385.1,387.1 -385.7,386.9   -386.3,386.7 -386.9,386.5 -387.4,386.4 -387.6,386.2 -388.1,385.8 -389,385 -389.6,384.5 -390.1,384 -390.2,383.9 -390.3,384   -390.4,384 -390.6,384 -391.1,383.7 -391.4,383.5 -391.5,383.4 -391.5,383.3 -391.6,383 -391.6,382.9 -391.7,382.6 -391.8,382.6   -391.9,382.5 -392,382.4 -392.1,382.3 -392.1,382.2 -392.2,382.1 -392.2,382.1 -392.4,382 -392.6,381.9 -392.6,381.6 -392.8,380.5   -393,380.3 -393.2,380.2 -393.5,380.2 -393.8,380.1 -394,379.9 -394.1,379.6 -394.1,379.3 -394.2,379.1 -394.3,378.9 -394.5,378.8   -395.1,378.4 -395.3,378.1 -395.5,377.7 -395.6,377.3 -395.7,376.7 -395.8,376.5 -395.9,376.4 -396.3,376 -396.4,375.7   -396.6,375.4 -396.6,375.3 -396.5,375.2 -396.4,375.2 -396.2,375.1 -396.1,375 -396.1,374.9 -396,374.6 -396,374.4 -395.9,374.3   -395.6,374.1 -395.5,374 -395.5,373.9 -395.5,373.8 -395.4,373.7 -395.3,373.6 -395,373.4 -394.9,373.3 -394.9,373.2 -394.8,373   -394.7,372.8 -394.8,372.8 -394.9,372.8 -395,372.9 -395.1,373 -395.2,372.9 -395.3,372.9 -395.6,372.9 -395.7,372.8 -395.9,372.7   -396,372.4 -396.2,372.3 -396.3,372.3 -396.8,372.2 -397.1,372.2 -397.7,372.4 -398.1,372.7 -398.3,372.8 -398.4,372.8   -398.5,372.7 -398.6,372.7 -398.8,372.8 -398.9,372.8 -399,372.8 -399.1,372.8 -399.3,372.9 -399.4,372.9 -399.5,372.9   -399.9,372.8 -400.2,372.9 -400.4,372.9 -400.6,373.1 -400.8,373.2 -401.2,373.2 -401.2,373.2 -401.3,373.3 -401.3,373.3   -401.4,373.3 -401.4,373.2 -401.4,373.2 -401.4,373.2 -402.2,373 -402.4,372.9 -402.5,372.8 -402.4,372.6 -402.3,372.3 -402.3,371   -402.4,370.3 -402.6,369.5 -402.6,369.2 -402.4,368.6 -402.3,368 -402.2,367.8 -402.1,367.8 -401.8,367.6 -401.7,367.6   -401.7,367.5 -401.6,367.4 -401.6,367.4 -401.5,367.4 -401.4,367.3 -401.3,367.2 -400.5,366.1 -400.2,365.6 -400.2,365.5   -400,365.4 -400,365.3 -399.9,365.1 -399,363.9 -398.8,363.4 -398.4,362.9 -398.7,362.5 -399.2,361.8 -399.7,361.1 -400,360.8   -400.3,360.6 -400.7,360.4 -401.2,360.1 -401.6,359.6 -402.1,358.5 -402.3,358.1 -402.6,357.8 -402.8,357.6 -403.3,357.1   -404,356.6 -405.2,355.8 -406.1,355.3 -406.3,355.1 -406.8,354.2 -407.3,353.3 -408,352.5 -408.7,351.7 -409.1,351.4 -409.5,351.2   -410.1,351.2 -410.3,351.1 -411,350.8 -411.4,350.6 -412.4,349.7 -412.6,349.5 -412.9,349.4 -413.5,349.2 -413.7,349.2 -414,349.3   -414.1,349.3 -414.4,349.3 -414.5,349.3 -414.7,349.5 -414.8,349.5 -414.9,349.5 -415.1,349.5 -415.4,349.2 -415.6,349 -415.8,349   -416,349 -416.4,349.1 -416.6,349 -416.9,348.9 -416.9,348.9 -417,348.9 -417.1,348.7 -417.2,348.6 -417.4,348.5 -417.5,348.5   -417.5,348.7 -417.6,348.8 -417.9,349 -418.5,349.1 -418.6,349.1 -418.9,349.1 -419.1,349.1 -419.2,349.2 -419.3,349.4   -419.5,349.4 -419.7,349.2 -419.8,348.6 -419.9,348.5 -420.1,348.3 -420.2,348.2 -420.3,348.1 -420.4,348.1 -420.6,348 -420.8,348   -420.8,348 -420.9,348.1 -420.9,348.2 -420.9,348.3 -420.9,348.4 -421,348.6 -421.2,348.6 -421.5,348.8 -421.7,349 -421.8,349.1   -422.1,349.1 -422.5,349.2 -422.6,349.3 -422.7,349.3 -422.9,349.3 -423,349.2 -423.1,349.2 -423.5,349.4 -423.8,349.5   -424.3,349.6 -424.6,349.6 -424.7,349.6 -424.7,349.6 -424.8,349.5 -424.8,349.5 -424.9,349.3 -424.9,349.3 -425.3,349.1   -425.4,349 -425.5,348.9 -425.5,348.8 -425.6,348.5 -425.6,348.4 -425.7,348.4 -425.8,348.3 -425.9,348.3 -425.9,348.2 -425.9,348   -426,347.9 -426,347.8 -426.1,347.7 -426.3,347.7 -426.7,347.8 -426.8,347.8 -427.5,347.5 -427.6,347.4 -427.6,347.4 -427.6,347.3   -427.6,347.2 -427.7,347.2 -427.8,347.2 -427.8,347.2 -427.8,347.1 -427.9,347.1 -427.9,347 -427.9,347 -427.9,346.9 -427.9,346.9   -427.9,346.9 -428,346.9 -428.1,346.6 -428.2,346.5 -428.3,346.4 -428.6,347.1 -429,348.1 -429.4,349.1 -429.9,350.1 -430.2,351.1   -430.5,351.6 -430.6,351.7 -430.7,351.6 -430.7,351.6 -430.8,351.4 -430.8,351.3 -430.8,351.2 -430.9,351.1 -430.9,351.1   -431,351.1 -431.1,351.1 -431.1,351 -431.1,350.8 -431.2,350.7 -431.2,350.7 -431.5,350.4 -431.6,350.4 -431.6,350.3 -431.6,350.1   -431.6,350 -431.6,350 -431.7,349.9 -432,349.5 -432.1,349.4 -432.3,349.3 -432.4,349.3 -432.5,349.4 -433,349.4 -433.2,349.4   -433.4,349.6 -433.5,349.7 -433.6,349.8 -433.6,350 -433.6,350.1 -433.6,350.3 -433.7,350.4 -433.8,350.5 -433.8,350.5   -433.9,350.5 -434,350.5 -434.1,350.5 -434.2,350.6 -434.2,350.6 -434.3,350.6 -434.3,350.6 -434.4,350.6 -434.4,350.5   -434.6,350.4 -434.6,350.3 -434.8,350.3 -435.3,350.2 -435.5,350.2 -435.9,350.2 -436,350.2 -436.1,350.2 -436.2,350.3   -436.5,350.3 -436.6,350.3 -436.8,350.4 -436.9,350.4 -437,350.4 -437.1,350.4 -437.2,350.5 -437.3,350.6 -437.4,350.6 -438,352.5   -438,352.6 -438,352.8 -438,353 -437.9,353.3 -437.9,353.7 -438.3,354.6 -438.3,354.8 -438.3,355.2 -438.4,355.4 -439.4,356.8   -440,359 -440,359.2 -439.9,359.3 -439.9,359.3 -439.9,359.4 -440,359.5 -440.1,359.6 -440.2,359.7 -440.1,359.9 -440,360.1   -440,360.2 -440,360.4 -440.1,361.1 -440.1,361.3 -440.3,361.3 -440.4,361.3 -440.5,361.2 -440.5,361.2 -440.6,361.2 -440.7,361.2   -440.7,361.2 -442.7,361.5 -442.9,361.5 -443,361.6 -443,361.6 -443,361.6 -443.1,361.8 -443.1,361.9 -443.1,361.9 -443.2,362   -443.2,362 -443.4,362 -443.4,362.1 -443.5,362.1 -444.7,364.2 -444.8,364.4 -444.8,364.6 -444.8,364.7 -444.9,364.8 -445,364.8   -445.1,364.9 -445.2,365 -445.2,365 -445.3,365.3 -445.4,365.7 -445.5,365.9 -445.6,366 -445.9,366.2 -445.9,366.2 -445.9,366.3   -445.9,366.4 -446,366.5 -446.2,366.7 -446.7,367 -447,367.1 -447.1,367.3 -447.2,367.4 -447.3,367.6 -447.3,367.7 -447.3,367.9   -447.3,368.1 -447.3,368.4 -447.2,368.6 -447.1,368.8 -447.1,369 -447.1,369.1 -447.9,370.9 -448,371.1 -447.9,371.3 -447.8,371.4   -447.7,371.5 -447.7,371.8 -448.2,373 -448.2,373.1 -448.1,373.2 -447.9,373.4 -447.9,373.5 -447.9,373.7 -448,373.8 -448.4,374.1   -448.5,374.2 -448.5,374.3 -448.5,374.4 -448.6,374.5 -448.7,374.6 -448.7,374.6 -448.8,374.6 -448.9,374.6 -449,374.7   -449.1,374.9 -449.2,375 -449.2,374.9 -449.2,374.8 -449.2,374.6 -449.3,374.5 -449.3,374.5 -449.5,374.3 -450.3,373.6   -450.4,373.6 -450.5,373.6 -451.3,374.2 -451.5,374.3 -451.6,374.4 -451.8,374.9 -452.4,375.7 -452.4,376 -452.4,376.3   -452.1,377.7 -452.1,378 -452.1,378.3 -452.2,378.4 -452.2,378.4 -452.2,378.5 -452.2,378.5 -452.2,378.7 -452.2,378.8 -452.4,379   -452.8,379.4 -453.6,381.7 -453.8,382.7 -453.8,383.2 -453.5,388.8 -453.6,389.1 -453.7,389.2 -453.8,389.4 -454.5,390   -454.6,390.1 -454.7,390.1 -455.1,390.1 -455.3,390.1 -455.4,390.2 -455.5,390.2 -455.6,390.3 -455.9,390.5 -455.9,390.5   -456,390.5 -456.3,390.5 -456.5,390.3 -456.6,390.1 -456.8,389.9 -456.9,389.9 -457,389.9 -457.1,390 -457.2,390 -457.3,389.9   -457.4,389.8 -457.6,389.8 -457.7,389.8 -457.7,389.8 -457.7,389.9 -457.7,389.9 -458.2,390 -458.3,389.9 -458.3,389.9 -458.4,390   -458.5,390 -458.5,390.1 -459.2,389.9 -459.4,389.9 -459.6,390.1 -459.5,390.1 -459.5,390.1 -459.6,390.2 -459.7,390.2   -459.8,390.3 -459.8,390.3 -459.8,390.4 -459.8,390.5 -459.8,390.5 -459.9,390.5 -459.9,390.6 -459.8,390.6 -459.8,390.6   -459.8,390.7 -459.8,390.7 -459.8,390.9 -459.9,390.9 -459.8,391 -459.8,391.1 -459.7,391.1 -459.7,391.2 -459.6,391.2   -459.5,391.3 -459.6,391.4 -459.6,391.4 -459.7,391.4 -459.7,391.5 -459.8,391.5 -459.8,391.6 -459.8,391.7 -459.8,391.8   -459.8,391.8 -459.7,391.9 -459.7,391.9 -459.7,392 -459.8,392.1 -459.8,392.2 -459.9,392.2 -460.1,392.3 -460.2,392.3   -460.2,392.4 -460.2,392.4 -460.3,392.5 -460.6,392.9 -460.7,393 -460.8,393.1 -460.8,393.2 -460.8,393.2 -460.9,393.3   -460.9,393.4 -461,393.4 -461,393.5 -460.8,394 -460.8,394.1 -460.7,394.1 -460.6,394.2 -460.6,394.3 -460.6,394.3 -460.5,394.3   -460.4,394.3 -460.2,394.4 -460.1,394.4 -460.1,394.4 -460.1,394.3 -459.8,394.3 -459.8,394.3 -459.6,394.4 -459.4,394.4   -459.3,394.4 -459.2,394.5 -459.1,394.6 -459,394.8 -458.6,394.8 -458.5,394.8 -458.4,394.7 -458.3,394.7 -458,394.6 -457.8,394.6   -457.7,394.7 -457.7,394.7 -457.5,394.8 -457.5,394.8 -457.4,394.9 -457.3,395 -457.3,395 -457.1,395.1 -456.7,395 -456.6,395   -456.4,395.2 -456.2,395.2 -456.2,395.3 -456.1,395.4 -455.9,395.7 -455.5,395.9 -455.5,395.9 -455.3,395.9 -455.2,396 -455,396.1   -454.2,396.9 -454.1,397.1 -454.1,397.3 -454.1,397.9 -454,398 -454,398 -453.7,398.2 -453.5,398.5 -453.4,398.6 -453.3,398.5   -453.1,398.5 -453,398.5 -453,398.7 -453,398.8 -453,399.1 -452.9,399.2 -452.9,399.3 -452.8,399.3 -452.8,399.3 -452.7,399.4   -452.5,399.6 -452.4,399.7 -452.4,399.8 -452.3,399.8 -452.3,399.8 -452.3,399.9 -451.3,400.1 -450.9,400.4 -450.8,400.5   -450.8,400.6 -450.8,400.7 -450.8,400.8 -450.8,400.8 -450.8,400.9 -450.9,400.9 -450.8,400.9 -450.8,401 -450.8,401 -450.8,401.3   -450.7,401.4 -450.6,401.4 -450.3,401.4 -450.1,401.4 -450,401.5 -449.6,401.8 -449.5,401.8 -449.5,401.9 -449.4,402 -449.4,402.1   -449.3,402.3 -449.2,402.6 -449.1,403 -449,403.4 -449,403.5 -448.7,404 -448.7,404.1 -448.7,404.5 -448.6,404.7 -448.4,405.1   -448.3,405.4 -448.2,405.5 -448,405.6 -447.9,405.8 -447.9,405.9 -447.8,406.3 -447.9,406.5 -447.9,406.6 -447.9,406.6   -447.9,406.7 -447.7,406.8 -447.7,406.9 -447.7,407 -447.8,407.1 -447.8,407.1 -447.8,407.2 -447.7,407.4 -447.2,408.1   -447.1,408.3 -447,408.7 -446.9,408.8 -446.6,409.1 -446.1,409.4 -445.8,409.6 -445.8,409.7 -445.8,409.8 -445.8,409.9   -445.9,409.9 -445.9,410 -445.9,410.1 -445.9,410.1 -445.7,410.5 -445.6,410.6 -445.4,410.7 -445.3,410.6 -445.1,410.5   -444.9,410.2 -444.7,410.1 -444.6,410.1 -444.5,410.1 -444.3,410.1 -444.2,410.2 -444,410.2 -443.8,410.5 -443.6,410.5   -443.4,410.5 -443.3,410.4 -443.2,410.4 -443,410.5 -442.6,410.7 -442.2,410.9 -442.2,410.9 -442.4,411.2 -442.4,411.3   -442.4,411.3 -442.4,411.5 -442.3,411.7 -442.2,411.9 -442.2,412 -442.3,412.1 -442.5,412.5 -442.5,412.6 -442.6,413.9   -442.5,414.3 -442.4,414.5 -442.1,414.9 -441.4,415.5 -441.4,415.6 -441.3,415.8 -441.3,415.9 -441.4,416 -441.4,416.2   -441.3,416.2 -441.2,416.3 -440.9,416.5 -440.8,416.6 -440.6,416.7 -439.6,416.7 -439.4,416.6 -439.3,416.6 -439.3,416.7   -439.2,416.7 -439.1,416.7 -437.8,416.7 -436.8,416.7 -436.7,416.7 -436.6,416.8 -436.6,416.8 -435.3,416.8 -434.9,416.9   -434.4,417.1 -434.1,417.2 -434.1,417.2 -434,417.4 -433.9,417.4 -433.8,417.4 -433.7,417.4 -433.7,417.5 -433.7,417.5   -433.6,417.7 -433.6,417.7 -433.6,417.7 -433.5,417.7 -433.5,417.7 -433.1,418 -432.5,418.4 -431.8,418.8 -431.1,419.3   -430.5,419.6 -429.9,420 -429.2,420.5 -428.6,420.9 -427.9,421.3 -427.7,421.4 -427.6,421.6 -427.4,421.8 -427.3,422 -427.2,422   -427,422.1 -426.9,422.2 -426.8,422.2 -426.6,422.2 -426.4,422.1 -425.7,422.2 -425,422.3 -424.6,422.3 -424.3,422.1 -424.3,422.1   -424.3,422 -424.2,422 -424.2,421.9 -424.1,422 -424,422.1 -424,422.1 -424,422.2 -423.9,422.2 -423.8,422.2 -423.7,422.3   -423.7,422.2 -423.6,422.2 -423.6,422.2 -423.6,422.3 -423.6,422.3 -423.2,422.3 -423.2,422.3 -423.2,422.2 -423.2,422.1   -423,422.4 -422.9,422.5 -422.8,422.5 -422.1,422.7 -421.6,422.9 -421.4,422.9 -421.1,422.8 -421,422.8 -420.9,422.9 -420.8,422.9   -420.4,422.8 -420.4,422.8 -419.7,423.1 -419.4,423.2 -419.2,423.1 -418.9,423 -418.8,423 -418.8,423 -418.8,423.2 -418,423.2   -417.8,423.3 -417.7,423.3 -417.7,423.4 -417.6,423.5 -417.5,423.6 -417.3,423.6 -417.2,423.4 -417.1,423 -416.9,422.8   -416.5,422.4 -415.9,421.9 -415.8,421.7 -415.7,421.5 -415.5,421 -415.4,420.7 -415.2,420.5 -414.7,420.2 -414.1,420 -413.4,419.6   -413.1,419.5 -413.1,419.5 -413.1,419.4 -413.1,419.4 -413.1,419.4 -413,419.4 -413,419.4 -413,419.4 -412.3,419.2 -411.8,419   -411.8,419 -411.7,418.9 -411.7,418.8 -410.8,418.5 -410.1,418.2 -409.6,418 -409.1,417.7 -409,417.9 -408.6,418.2 -408.4,418.4   -408.3,418.6 -408.2,418.7 -408.1,418.7 -407.8,418.8 -407.7,418.9 -407.5,419.1 -407.1,419.6 -406.8,419.9 -406.5,420 -406.1,420   -405.4,420 -404.7,420 -404.4,419.9 -404.2,419.9 -403.6,419.7 -403.5,419.7 -403.4,419.8 -403.3,419.8 -403.2,419.8 -402.9,419.6   -402.6,419.7 -402.3,419.9 -402,420 -401.7,419.8 -401.6,419.6 -401.5,419.6 -401.4,419.5 -401.4,419.3 -401.4,419.2 -401.3,419.1   -400.8,418.8 -400.4,418.5 -400.2,418.4 -400,418.3 -399.4,418.3 -398.9,418.3 -398.1,418.2 -397.1,418 -396.1,417.8 -395.6,417.7   -395.3,417.6 -395.1,417.5 -394.9,417.2 -394.8,417 -394.7,416.5 -394.6,416.3 -394.5,416.3 -394.5,416.2 -394,415.8 -393.4,415.3   -392.7,415 -391.9,414.6 -391.2,414.3 -390.7,414 -389.9,413.9 -389.4,413.7 -388.8,413.6 -388.6,413.5 -388,413.3 -387.8,413.3   -387.4,413.3 -387,413.3 -386.7,413.3 -386.3,413.4 -386,413.4 -385.6,413.4 -385.3,413.4 -384.9,413.4 -384.6,413.5 -384.2,413.5   -383.9,413.5 -383.5,413.5 -383.2,413.5 -382.9,413.6 -382.5,413.6 -382.2,413.6 -381.8,413.6 -381.5,413.6 -381.3,413.6   -380.7,413 -380.4,412.6 -379.6,411.8 -378.9,411 -378.2,410.2 -377.5,409.5 -376.8,408.7 -376.1,407.9 -375.3,407.1 -374.6,406.3   -374.2,405.9 -373.8,405.5 -373.4,405.1 -373,404.7 -372.6,404.3 -372.2,403.8 -371.8,403.4 -371.4,403 -370.9,402.6 -370.8,402.5   -370.5,402.2 -370.2,401.9 -370.1,401.8 -369.8,401.4 -369.4,401.1 -369.1,400.8 -368.8,400.5 -368.5,400.2 -368.1,399.9   -367.8,399.6 -367.5,399.3 -367.2,398.9 -366.8,398.6 -366.5,398.3 -366.2,398 -365.9,397.7 -365.5,397.4 -365.2,397.1   -364.9,396.8 -364.6,396.4 -364.2,396.1 -363.9,395.8 -363.6,395.5 -363.3,395.2 -362.9,394.9 -362.6,394.6 -362.3,394.2   -362,393.9 -361.7,393.6 -361.3,393.3 -361,393 "/></svg>