<svg xmlns="http://www.w3.org/2000/svg" xmlns:xlink="http://www.w3.org/1999/xlink" version="1.1" x="0px" y="0px" viewBox="-461 335 100 100" fill="#e0e0e0" style="enable-background:new -461 335 100 100;" xml:space="preserve"><path d="M-402,426.9l-0.2,0.2l-0.1,0.8l0.2,0.5l0.1,0l0.1-0.1l0-0.1l0-0.2v-0.1l0-0.1l0.1-0.3l0-0.5L-402,426.9z M-457.1,343  l-0.8-0.5l-0.2-0.2l-0.6-0.5l-0.3-0.1l-0.1,0.1l0,0.3l0.1,0.3l0.2,0.1l0.2,0l0.2,0.2l0.6,0.3l0.3,0.4l0.4,0.3l0.4,0l0.1-0.2  l-0.1-0.2L-457.1,343z M-444.8,367.2l0.2-0.2l-0.3-0.3l-0.3-0.2l-1.5-0.2l-0.2,0.2l0.2,0.3L-444.8,367.2z M-443.5,368.6l0.1,0.3  l0,1.5l-0.1,0.3l0.1,0.2l0.1,0.2l0.1,0.1l0.3-0.1l0.3-0.3l0.1-0.3l0-0.2l-0.3-0.3l-0.1-0.2l-0.1-0.8v-0.2l0-0.2l-0.3-0.5l-0.2-0.1  l-0.1,0.2l0.1,0.3L-443.5,368.6z M-412.4,375.9l-0.1,0.1l-0.9,0.1l-0.3,0.2l-0.1,0.3l0.2,0.4l0.3,0.1l0.4-0.2l0.9,0l0.3-0.2l0-1  l0.2-0.6l-0.1,0.1L-412.4,375.9z M-400,405.2l-0.3,0.2l-0.1,0.3l0.4,0.3l0.5,0.1l0.2-0.2l0.5-0.2l0.1-0.1l1-0.3l0.1-0.1l-0.7-0.3  L-400,405.2z M-415.6,394.7l0.1-0.4l0.1-0.3l0.1-0.2l-0.4-0.6l-0.6-0.1l-1.4,0.2l-0.5-1.3l-0.3-0.4l-0.1,0.8l0.1,0.8l0.4,0.4  l0.5,0.3l0.3,0.6l0.1,0.8l-0.1,0.7l-0.3,0.6l-0.3,0.4l0.1,0.1l0,0.1l0,0.1l0,0.1l0,0.6l0.2,0.3l0.3,0l0.2-0.7l0.2-0.3l0.3-0.2  l0.2-0.1l0.5-0.3l0.4-0.6l0.1-0.6l-0.5-0.3L-415.6,394.7z M-432.1,353.8l0.4,0.4l1.3,1l1.1,0.4l1.5,0.9l0.5,0.5l-0.3,0.3l-0.3,0.2  l-0.3,0.1l-0.4,0l-0.3-0.2l-0.6-0.9l-0.3-0.2l-1.3,0.2l-0.7,0.4l-0.4,0.6l0.1,0.6l0.4,0.4l0.5,0.2l0.4,0.1l2-0.4l0.3,0.1l0.8,0.5  l0.3,0l0.1-0.2l0.4-1l1-1.2l0.3-0.2l-0.1-0.5l-0.2-0.5l-0.1-0.2l-0.3-0.9l-0.7-0.2l-1.5,0.4l-0.7,0.1l-0.8-0.1l-0.7-0.3l-0.6-0.5  l-0.2-0.4l-0.2-0.4l-0.3-0.3l-0.5,0.1l-0.3,0.3l0,0.3L-432.1,353.8z M-440,354.1l0.5,0.1l0.3,0.1l0.1,0.2l0,0.3l0.1,0.3l0.2-0.1  l0.1-0.4l-0.1-0.5l-0.4-0.4l-0.2-0.2l-0.4-0.5l-0.8-0.6l-0.4,0.4l0.3,0.9L-440,354.1z M-416.3,384.8l0.2,0l0.2,0l0.1,0.1l0.1,0.2  l0,0.1l0.2,0l0.3-0.1l0.3-0.3l-0.1-0.5l-0.2-0.2l-0.2-0.1l-0.1-0.3l0.1-0.4V383l-0.3-0.1l-0.4,0.3l-0.1,0.5l0,0.4l-0.2,0.5  L-416.3,384.8z M-459.1,371.3l-0.6,0l-0.6,0.3l-0.4,0.4l-0.2,0.6l-0.2,0.9l0.2,0.5l0.3,0.4l0.4,0.2l0.3,0.2v-1.4l0.1-0.5l0.2-0.4  l0.4-0.3l1.1,0.1l0.5-0.3l-0.5-0.1L-459.1,371.3z M-457.8,377.6l0.3-0.1l-0.2-0.4l-0.2-0.3l-0.2-0.2l-0.2,0l-0.3,0.1l-0.1,0.3l0,0.3  l-0.1,0.2l-0.1,0.6l-0.1,0.2l-0.5-0.5l-0.6-0.2l-0.2-0.1l-0.3,0.1l-0.1,0.1l-0.1,0.2l0.8,1l1,0.7l1,0l0.6-1.1l-0.3,0.2l-0.3,0.1  l-0.3-0.1l-0.3-0.2v-0.3L-457.8,377.6z M-424.2,355.4l0.5,0.5l0.5,0.3l0.6,0l0.6-0.3l0.3-0.4l-0.4-0.5v-0.3l0.2,0l0.4-0.3l-0.2,0  l-1.1-0.6l-0.4-0.1l-0.4,0l-1.3,0.4l0.3,0.7L-424.2,355.4z M-455.7,343.7l0,0.2l0.3,0.1l0.4,0.1l0.9,0.4l0.4,0.1l0.2,0l0-0.2  l-0.2-0.2l-0.3-0.2l-0.1-0.1l-0.1-0.3l-0.1-0.3l-0.4-0.6l-0.4-0.4l-0.4-0.1l0,0.4l0.2,0.4l0,0.2l-0.2,0.2L-455.7,343.7z   M-380.2,385.4l-0.1,0l0,0.3l-0.2,0.2l-0.3,0.1l-0.1,0l-0.1-0.2l-0.2-0.2l-0.3-0.1l-0.4,0l-0.1,0.1l0.2,0.2l-0.1,0l-0.3,0.1  l-0.3,0.2l-0.4,0.1l-0.4,0.2l-0.4,0.3l-0.2,0.3l0.2,0.4l0.4,0.3l0.2,0.4v0.4l0.1,0.2l0.6,0.3l0.4,0.3l0.4,0.2l0.3-0.1l0.2,0l0,0.3  l-0.2,0.3l0.2,0.2l0.6,0.1l0.1-0.2l-0.2-0.3l0-0.3l0.1-0.2l0-0.3l-0.2-0.5l-0.1-0.4l0.1-0.4l0.1-0.4l-0.1-0.1l-0.2,0.3l-0.3,0.2  l-0.3-0.2l0-0.1l0.3,0l0.1-0.2l-0.2-0.5v-0.2l0.2,0l0.5,0.2l0.3,0l0.1-0.4l0.1-0.3l0.1-0.1v-0.1l-0.4-0.4L-380.2,385.4z   M-418.6,353.1l0.3,0.2l1.2,0.3l3.1,0.3l0.7,0.3l0.9,1.5l0.7,0.3l1.6-0.1l0.6-0.4l0.7-0.2l-0.1-1l-0.3-0.9l-0.5-0.6l-0.6-0.2l-0.3,0  l-0.2,0.1l-0.3,0.2l-0.1,0.2l-0.1,0.3l-0.1,0.3l-0.2,0.1l-0.4-0.1l-0.2-0.2l-0.1-0.3l-0.2-0.3l-0.1-0.2l0-0.2l0-0.2l-0.3-0.1  l-2.9,0.3l-0.7-0.2l-0.7-0.4l-0.7-0.3l-0.6,0.3l-0.4,0l-0.1,0.3l0.1,0.4L-418.6,353.1z M-453.3,383l1.3,0.6l0.6,0l0.8-0.3l1.3-0.3  l0.4-0.3l0.2-0.3l0.2-0.8l0.2-0.4h-1.2l0.6-1.3l0.2-0.5l0.1-0.5l0.1-1.1l0.2-0.4l0.1-0.3l0.2-0.4l0.1-0.5l0-0.4l-0.1-0.6l-0.2-0.3  l-0.3,0.1l-0.4,0.3l-0.3,0.5l0.1,0.2l0.3,0.2l0.1,0.4l-0.3,1l-0.5,0.5l-0.5,0.3l-0.8,0.8l-2,0.7l-0.2-0.1l0.1-0.4l0.5-0.8l1.4-0.8  l0.5-0.4l0.1-0.5l-0.2-0.3l-0.6-0.3l-0.1-0.1l0-0.2l-0.1-0.2l-0.2-0.2l-0.1,0h-0.3l-0.1,0l-0.4,0.2l-0.3,0.3l-0.5,0.8l-0.3,0.7  l-0.2,0l-1.1,0l-0.4,0.1l-0.4,0.3l-0.5,0.6l0.5,0.2l0.4,0.4l0.2,0.6l-0.2,1l0.1,0l0.1,0.1l0.1,0.1l0.1,0.1l0.3,0.1l0.6,0.1l0.3,0.1  l0.1,0.3l0.1,0.4l0.2,0.3h0.4l-0.1,0.2L-453.3,383z M-414.7,375l0.7-0.9l1.2-2.3l1-1.2l0.1-0.5l-0.8,0.1l1.5-1.5l0.4,0.2l0.5-0.4  l0.9-1.1l-0.1,0.5l0,0.5l0.2,0.4l0.3,0.2l0.4-0.2l0.7-0.9l0.3-0.2l0.2-0.3l0.1-1.3l0.1-0.3l0.9-1.3v-0.3l-0.6,0.2l-0.2,0.1l0.3-0.7  l0-0.3l-0.1-0.2V363l0.3-0.3l0.3-0.1l0.3,0.2l0.2,0.5l0.6-0.5l1.3-1.5l0.8-0.4l-0.4-0.1l-0.5,0.2l-0.4,0l-0.1-0.7l0.2-0.7l0.5-0.2  l1.2,0.1l-0.4-0.6l-0.8-0.5l-2.8-1.2l-0.2-0.3l-0.2-0.4l-0.4-0.2l-0.5-0.1l-0.4,0l0,0.2l0.1,0.5l0,0.2l-0.2,0l-0.5,0.1l-0.2,0  l0.1,0.6l0,1.3l0.2,0.3l0.3,0.1l0.4,0.3l0.3,0.4l0.2,0.4l-2.7,1.1l-1.3,0l-1.3-0.7l0.7-0.4l2-1.4v-0.3l-0.6,0.2l-1,0.9l-0.5,0.2  l-5.2,1.2h-1.5l-0.8-0.9h1l0.5-0.1l0.4-0.2l-0.8-0.4l-2.6-0.5l0.1-0.2l0.1-0.2l0.1-0.1l0.2-0.2v-0.3l-0.8-0.3l-0.9,0.4l-1.7,1.4  l-0.2-1.1l-0.1-0.3l-0.3-0.3l-0.2,0.2l-0.2,0.6l-0.6,0.6l-0.6,0.8l-0.3,1l2,0.2l0.7,0.8l-4.6,0.9l-2.5-0.4l-2.3-1.1l-2.8-2.4l-1-0.6  l-3.1-1.2l-0.9-0.6l-0.3,0.2l-0.3,0.1l-0.3,0l-0.3,0l0.4,0.9l0.2,0.5l-0.1,0.5l0,0.4l0.2,0.3l0.3,0.3l0.3,0.1l0.4,0.1l0.9,0.5  l0.4,0.1l0.8-0.1l1.1,0.1l0.8,0.3l0.7,0.4l0.6,0.6l0.4,0.9l-0.3,0.2l-1.3-0.4h-1.6l-0.3,0.2l0.1,0.5l0.3,0.9l0.3,0.3l4.1,1.9  l0.7,0.1l0.8,1.2l0.3,0.2l0.6,0.2l0.3,0.2l1.6,1.9l0.5,0.3l0.7,0l0.8,0.2l0.7,0.5l0.4,0.8l-1.6-0.2l-0.7-0.3l-1.2-1.2l-0.6-0.1  l-2,0.8l-2.2-0.2l-0.6,0.2l-1.3,1l-0.7,0.3l-0.8,0l-2.8-0.9l-0.5-0.4l-0.5-0.1l-0.4,0.8l0,0.9l0.3,0.9l0.5,0.7l0.6,0.3l0.5,0.4  l0.3,0.8l0.3,0.7l0.6,0l0.2-0.3l0.2-0.4l0.2-0.4l0.4-0.2h1.3l0.4-0.1l1.3-0.8l0.3,0.1l0.2,0.2h0.2l0.2-0.5l-0.2-0.9l0.7-0.2l1.6,0.2  l0.7-0.2l0.7-0.3l0.7-0.2l0.8,0.3l-0.1,0.7l0,1l-0.1,0.8l-0.8,0.8l-0.3,0.2l-0.1-0.1l-0.1-0.5l-0.2,0l-0.2,0.2l-0.2,0.1l-0.2-0.3  l-0.2-0.7l-0.2-0.2l-0.3,0l-0.3,0.1l-0.3,0.3l-0.1,0.4l-0.1,1.5l0.1,0.5l0.3,0.7l-0.5,0l-0.4,0.3l-0.2,0.6l-0.1,0.7l-0.8-0.7  l-0.3-0.2l0.5-1.3l0.1-0.4l-0.2-0.4h-0.3l-0.9,0.2l0.5-0.5l0.2-0.3l0.2-0.4l-0.6-0.2l-0.8,0.2l-0.7,0.6l-0.3,0.8l0,0.6l0.1,1l0,0.4  l-0.1,0.4l-0.2,0.3l0,0.4l0.3,0.5l-0.2,0.2l-0.3,0.4l-0.2,0.4l-0.1,0.4l-0.1,0.2l-0.5,0.2l-0.2,0.2l-0.6,0.3l-2.2-0.2l1.2,0.6l1.4,0  l1.3-0.5l1-0.9l0.4-0.3l0.3,0.2l0.2,0.4l-0.1,0.2l-0.2,0.2l-0.7,1.3l-0.6,0.5l-0.7,0.3l-0.8,0.2l-0.7,0v0.3l0.4,0.3l-0.2,0.5l-0.2,0  l-0.5-0.5l-0.5-0.4l-0.3-0.1l-0.8-0.1l-0.3-0.1l-0.3,0l-0.3,0.3l-0.3,0.2l-0.2-0.2l-0.1-0.4l-0.1-0.5l-0.4,0.4l-0.1,0.2l-0.1,0.3  h-0.2l-0.5-0.9l-1.3-0.3l-2.4,0l0.6,1.1l0.6,0.4l0.8,0.2l0.9,0.5v0.3l-1.8,0.7l-1.9,0.3l0.4,1.5l-0.5,0.1l-0.1-0.4v-0.5l-0.1-0.5  l-0.3-0.2l-1.2-0.1l-1.5-0.6l-0.7-0.2l-0.3,0.5l-0.2,1.1l0.4,0.5l1.3,0.3l0.5,0.4l0.9,1.3l0.5,0.5l0.4,0.1l0.4,0l0.4,0.1l0.3,0.3  l1.2,1.7l0.2,0.3l0.2,0.2l0.5,0.1h1.6l-0.3-0.7l-0.5-0.8l-0.6-0.7l-0.6-0.3l-0.4,0l-0.4-0.1l-0.2-0.2l0.2-0.3l0.4-0.1l2.8,0.1  l0.4,0.2l-0.1,0.5l-0.4,0.5l-0.2,0.1l0.3,0.7l0.6,0.9l0.7,0.8l0.5,0.4l-0.3,0.2l-0.2,0l-0.3-0.1l-0.4,0l1,1.8l1.5,0.2l1.6-0.9  l1.1-1.4l-0.2-0.8l-0.3-0.8l-0.4-0.6l-0.7-0.4l-0.1-0.3l0.1-0.3l0.2-0.2h0.4l0.5,0.5l0.3,0.1l0.2,0.2l0.5,0.8l0.5,0.3l0.2,0.3  l0.2,0.2l0.2-0.1l0.1-0.2l0-0.3l0-0.2l-0.1-0.1l0.6,0l0.9,0.6l0.6,0.1l0.3-0.3l2.2-2.7l0.3-0.6l0.1-0.7l-0.2-1l-0.3-0.8l-0.2-0.7  l0.3-0.8l0.4-0.4l1.8-0.8l-0.2,0.4l-0.5,0.5l-0.1,0.3l0.2,0.4l0.3,0l0.6-0.4l2.4,0.2l0.6-0.3l0.1-0.4l-0.3-0.9l0.1-0.5l0.2-0.2  l0.3-0.3h0.3l0.1,0.5l0.2,0.2l0.4,0.1l0.7,0.1l0.1,0.2l0.2,1.3l1.8-1.3l1.2-0.3l0.4-0.4l0.3-0.6l0.3-0.7l0.6-1.2l3-4.3L-414.7,375z   M-361.6,371.4l-0.5,0.1l-1.1,0.4l-0.6,0l-1.7-0.6V371l2-0.4l1.2-0.4l0.5-0.6l-0.4-1l-0.9-0.6l-1-0.3l-2.6-0.3l-0.8-0.5l-1.6,0.4  l-0.8-0.2l-1-0.5l-0.9-0.7l-0.5-0.8l1.8-0.9l1.5,0.6l-0.3-1.1l0.2-0.4l0.6,0.1l2.4,1.4l3.5,0.5l0.7-0.3l0.2-0.5l-0.2-0.4l-0.7,0  l0.2-0.5l0.5-0.3l0.2-0.4l-0.8-0.2l-0.4-0.2l-0.3-0.3l-0.9-1.5l-0.3-0.2l-0.2-0.3l-0.5-1.8l-0.3-0.5l-0.3-0.2l-0.7-0.2h-0.9  l-1.5,0.5l-5.9,0.4l-0.4,0.2l-0.8,0.6l-0.3,0.2l-0.3,0.4l-1.3,2.6l-0.5,0.7l-0.1,0.4l0.3,0.2l0.3,0l0.3-0.1l0.3-0.2l0.1-0.4l0.1-0.4  l0.2,0.1l0.2,0.3l0.1,0.3l0.1,0.5l0,0.4l0,0.3l0.3,0.4l0.4,0.1l0.9-0.4l0.4,0.2l0.2,0.6l-0.3,0.4l-0.4,0.3l-0.2,0.3l0.3,0.5l0.7,0.3  l0.7,0.4l0.2,1.1l-1.2-0.7l-0.6-0.1l-0.3,0.5l0.7,1.2l0.2,0.7l-0.5,0.3l-0.4-0.3l-0.5-0.6l-0.4-0.8l-0.2-0.6l0-0.9l-0.2-0.6  l-0.4-0.5l-0.6-0.4l-0.2,0.4l-0.4,0.3l-0.4,0l-0.4-0.3l-0.1-0.2l-0.2-0.7l-0.1-0.1l-0.2,0.1l-0.2,0.4l-0.1,0.1h-0.4l-0.1-0.3l0-0.8  l0.1-0.5l0.1-0.6l0.1-0.6l-0.1-0.5l-0.6-0.1l-1.8,1l-0.4-0.3l0.4-2l-0.2-0.6l-0.9,0l0.8-1.2l0.4-0.5l0.5-0.1l0.4,0.4l0.5,1.5  l0.3,0.5l0.5,0.2l0.7-0.1l0.7-0.2l0.6-0.2l0.7-0.5l0.1-0.5l-0.1-0.6l-0.1-0.9l-0.2-0.6l-1.3-1.5l-0.5-0.5l-1.1-0.4l-0.5-0.4  l-0.5-0.3l-2.6,0.3l-0.7,0.4l-0.4,0.5l0.1,0.6v0.3l-0.4,0l-0.3-0.2l-0.3-0.2l-0.3-0.1h-1.4l-0.7-0.1l-2.3-1.4l-1.3-0.5l-0.6-0.1  l-0.4-0.2l-0.9-1.1l-0.6-0.2l0.4,1.4l0.1,0.2l0.2,0.1l0.3,0.3l0.2,0.3l0.3,0.8l0.8,1.2l0.2,0.6l-0.3,0.6l-0.6,0.4l-0.7,0.2l-1.9,0  l-0.1,0.2l-0.1,0.4l-0.1,0.4l-0.2,0.2l-0.9,0.3h-0.4l-0.2-0.1l-0.5-0.4l-0.2-0.1l-0.4,0.3l-0.4,0.6l-0.3,0.7l-0.1,0.7l0.6,0.4  l2.5,1.2l0.7,0.7l-1-0.4l-0.4,0.5l0.2,1l0.7,1.1l-0.6,1.2l-0.9-0.9l-1.4-2.7l-0.3,1.5l-0.8,0.9l-0.5,0.7l0.6,1.1l1.3,1.1l2,0.8  l0.6,0.3l0.3,0l0.2,0.1l0.1,0.4l-0.1,0.4l-0.3,0.1l-0.3,0.1l-0.3,0.2l-0.2,0.9l0.3,0.5l0.3,0.4l-0.1,1.2l0.3,0.8l0.3,0.8l0.1,0.6  l-0.2,0.6l-0.5,0.3l-0.5,0.1l-0.5,0.2l0.1-0.3l0.1-0.4l0-0.4l-0.2-0.7l0.1-0.4l0.2-0.4l0.1-0.4l-0.1-0.4l-0.2-0.3l-0.2-0.3l-0.2-0.3  l0-0.4l0-0.4l0-0.4l-0.2-0.4l-0.5-0.1l-2.1,0.4l-0.4,0.3l-0.4,0.6l-0.4,0.3l-0.5-0.6l-2.7,1.9l0.1,0.5l0.5,1.1l-1,0.3l-0.5-0.1  l-0.4-0.4l-0.4,2.1l-0.4,0.5l-0.6-0.5l-2.1,0.8l-0.5,0.3l0.4,0.2l0.2,0.3v0.4l-0.2,0.4l-0.4,0.1l-0.4-0.1l-0.4,0l-0.2,0.5l0.4,0.5  l0.7,0.6l0.4,0.6l-0.6,0.6l-0.7-0.2l-1-0.5l-0.9-0.3l-0.7,0.4l0,0.9l0.7,0.5l1.6,0.4v0.3l-0.5,0.2l-1,0.2l-0.5,0.2l0.3,0.3l0.2,0.3  l0.4,0.9l-0.8,0.1l-0.4,0l-0.3-0.2l-0.3-0.4l-0.2-0.1l-0.1,0.2l0,0.4l0.2,0.6l0.5,0.5l0.6,0.4l0.5,0.2l-0.3,0.7l-0.5,0.3l-1.2,0.3  l0.4,0.6l-0.1,0.5l-0.4,0.3l-0.5,0l-0.2-0.1l-0.6-0.7l-0.2-0.2l-0.2-0.1l-0.3,0l-0.2,0.2l0,0.5l0.2,0.5l0.3,0.4l0.3,0.3l1,0.8l0.9,1  l0,0.2l0,0.6l0.1,0.3l0.4,0.2l0.9-0.3l0.5,0.2l-0.7,0.8v0.6l0.5,0.4l1.3,0.3l0.6,0.3l0.3,0.6l-0.1,0.9l0.6,0.5l1.4,0.3l0.6,0.4  l0.9,1.1l0.6,0.3l0.2-0.8l-0.2,0l-0.6-0.7l-0.1-0.2l-0.4-0.2l0.2-0.5l0.3-0.4l0.2-0.2l0.1-0.9l-0.2-0.7l-0.4-0.5l-0.7-0.4l-0.7-0.1  l-0.3-0.1l-0.1-0.3l0.1-0.4l0.2-0.4l0.2-0.3l0.1,0l-0.9-1.2l-0.3-0.8l0.6-0.4l0.5,0.7l0.3,0.3l0.2-0.3l0.1-0.9l0.1-0.5l0.1-0.3  l0.5,0.2l1.1,1.3l0.5-0.2l0.3,0.5l0.3,0.2l0.3,0.1l0.3,0.2l0.3,0.4l0.1,0.4l0.1,0.4l0.1,0.4l0.6,0.6l0.6,0.1l0.6-0.1l0.7,0.1  l1.2,0.8l0.7,0.3l0.6-0.1l0.4-0.7l-0.4-0.6l-0.6-0.6l-0.4-0.6l1.4-0.9l0.3-0.4l-0.1-0.5l-0.6,0l-1.6,0.6l-0.6,0l-0.4-0.3l0.2-0.8  l0.4-0.3l1.1-0.4l0.5-0.5l-0.4-0.3l-0.5-0.1l-1,0.1l1-1.2l-0.5-0.3l-0.4,0l-0.4,0.2l-0.5,0.1l-0.2-0.3l0-0.7l-0.1-0.6l-0.4-0.3  l-1.5-0.4l-0.8,0.5l-0.4-0.3l-0.2-0.5l0.3-0.3l0.2-0.1l0.4-0.4l0.2-0.1l0.3,0.1l0.2,0.2l0.2,0.2l0.3,0.2l0.4,0.2l0.4,0.1l0.4-0.1  l0.4-0.2l0.2-0.2l0.1-0.3l0.1-0.3l0.3-0.1l0.2,0.1l0.2,0.2l0.2,0.3l0.8,0.8l0.4,0.1l0.5-0.3l0.2,0.8l0.5,0l0.6-0.2l0.6,0.3l0.2,0.7  l0.2,0.8l0.3,0.4l0.6-0.7l0.3,1.5l0.3,0.5l0.5-0.3l0.4-0.4l0.9-0.5l0.4-0.4v-0.3l-0.2-0.4l0-0.4l0.4-0.2l0.2,0.1l0.4,0.2l0.3,0  l0.3-0.1l0.1-0.2l0.1-0.2l0.2-0.1l0.2,0.1l0.3,0.4l0.3,0.1l0.5,0.1l0.4,0.3l0.3,0.4l0.3,0.5l0.9,1.7l0.3,0.2l0.5,0l0.2-0.2l0-0.5  l-0.2-1.5l-0.1-0.5l-0.2-0.4l-0.3-0.3l0.5-0.5l1.5-1l-0.8-0.6l0-0.9l-0.8-0.6l-1.1-0.3l-0.8-0.1l-1.6,0.4l-0.7-0.2l0.4-0.8l-0.5-0.8  l-1-0.8l-1.1-0.6l-1.3-0.4l-0.5-0.4l-0.4-0.5l-0.1-0.6l0.1-0.4l0.2-0.7l0.3-0.6l0.4-0.3l0.3,0.2l0.2,0.4l0.1,0.5l0.1,0.4l0.3,0.3  l0.6,0.3l0.6,0.5l1.3,0.5l0.9,0.9l0.7,0.3l4.4,0.1l1-0.3l1.4-0.1l2.6,0.4l1.3-0.6l2.1-1.4l1.2-0.3l0.8-0.4l0.7-0.5l0.4-0.5l-1.9,0  l-1.7,0.9l-0.6,0l-0.6-0.3l0.8,0l1.9-1.2l0.8-0.2l1.6,0.1l0.8-0.3v-0.3l-1.5-0.1l-0.5-0.2l-1-0.6l-0.3-0.1v-0.3l1.1,0l2.2,0.4  l4.3-0.5l0.4-0.2l0.3-0.3l0-0.3l0.4-0.1l1.9-0.1l0.6-0.1l2.8-1.4l0.8-0.1v-0.3L-361.6,371.4z"/></svg>