<svg xmlns="http://www.w3.org/2000/svg" xmlns:xlink="http://www.w3.org/1999/xlink" version="1.1" x="0px" y="0px" viewBox="-461 335 100 100" fill="#999999" style="enable-background:new -461 335 100 100;" xml:space="preserve"><path d="M-416.7,364.5l-1.2,0.1l-1.2-0.4l-0.5-0.7l-0.7-1.6l-0.5-0.3l-0.6-0.2l-1.8-1.3v-0.7h0.3v-0.6l-3.3,0.8l-0.8,1l-0.5,0.2  l-0.1,0.2l0,0.5l-0.1,0.5l-0.4,0.2l-1.1,0.1l-0.3-0.1l-0.6-0.3l-1.7-1.7l-1.1,0.2l0.1,2l0.9,2.3l1.3,1.1l2.4,0.5l1.2,0.6l1,0.8h-4.5  v0.7l0.7,0.1l1.9,1.4l2.9,0.6l2.1,1.5l0.5-0.1l0.1-0.8l-0.4-0.9l-0.6-0.7l-0.4-0.3l0.7-0.5l0.7,0.6l0.5,1.2l0.3,1.4l-0.2,0.3  l-0.4,1.1l0.8-0.7l2.7-1.4l-0.5,0l-0.4-0.1l-0.4-0.2l-0.4-0.4l0.8-0.6l0.8,0.1l0.8,0.4l0.8,0.2l1-0.5l0.6-1l0.4-1.3l0.6-1.3  l-0.9-1.5L-416.7,364.5z M-396.3,346l0.5,1l0.9,1.4l1,0.5l0.7-0.6l-0.1-1.5l-0.2-0.8l-0.5-1.5l-2-4.8l-0.4-1.5l-0.8-0.8l-0.8,0.8  l-0.2,2.2l0.5,2.3L-396.3,346z M-402.1,341.4l0.3,0.8l1.2,2.4l0.9,1.5l0.3,0.6l0.5,1.5l0.4,1.6l0.7,1.1l0.8,0.5l0.7-0.2l0.2-1.1  l-0.4-1.1l-0.3-0.4l-3.3-6.5l-1.3-3.4l-0.6-1.2l-0.6-0.6l-0.5,0.4l0.1,1.4L-402.1,341.4z M-439.2,364.3l-1.3-0.7l-1.4,0.1l-1.3,0.7  l0.2,0.7l3.8,0.4l0.6-0.1l0.4-0.2l-0.4-0.3L-439.2,364.3z M-394.8,361.2l2.4,0.3l-1.7-1.8l-5.7-3.1V356l0.9-0.4l2.8,0.4l1.2-0.1  l0.6-0.4l-0.1-0.6l-2-1.4l-2.6-1l-0.5,0.1l-0.9,0.5l-0.4,0.1l-0.5-0.3l-0.9-0.9l-0.5-0.2v-0.7l1-0.3l0.8-1l0.4-1l-0.4-0.5l-3.7-0.6  l0.9-0.7l0.4-0.1l-0.7-1.3l-1.2-0.1l-3.5,1.2l-0.2,1.2l0.5,3.1l-0.7-1l-0.4-1.1l-0.1-1.4l0-1.7l0.5-0.8l1.1-0.6l0.8-0.7l-0.2-1  l-0.6-0.1l-0.4-0.4l-0.4-0.5l-0.5-0.4l-0.6-0.2l-2.1,0.5l-1.7,1.3l-1,0.5l-0.5-0.2l-0.5-0.4l-0.5-0.1l-0.4,0.7l0.1,0.7l0.4,0.6  l0.5,0.6l0.4,0.6l1.6,5.1l2.9,5l0.6,0.5l0.4,0.2l1,1.1l0.3,0.4l0.5,0.5l1.9-0.1l3.7,4.7l1.9,1.6l0.8-2.2l-0.5-2.6l-1.2-1.7l-1.4-1.2  l-1.1-1.3l1.3-0.4l1.4,1.3l1.3,2l0.8,1.8l0.4,2.4l0,2.5l0.5,2.1l1.7,1.2l-0.2-0.7l0-0.5l0.2-0.4l0.4-0.4v-0.8l-0.2-0.1l-0.2-0.3  l-0.2-0.2l0.6-0.9l0.9-0.5l1-0.1l0.9,0.1v-0.7l-1.6-1.7l-1-0.8l-1-0.2v-0.7L-394.8,361.2z M-397.2,430.5l-1-0.4l0.2-1l0.1-0.4  l-1.9-0.1l-0.8,0.4l-0.5,1.1l-0.2-0.9l-0.4-0.6l-0.5-0.4l-0.5-0.1v-0.7l1.1,0.3l0.8-0.1l1.6-0.9l0.5,0l0.5,0.1l0.4-0.2l0.2-0.8l-2-1  V424l0.5-0.3l0.1-0.5l-0.2-0.6l-0.5-0.6l-0.5-0.2l-1,0.3l-0.5-0.1l-0.4-0.7l-0.4-1l-0.5-0.8l-0.9-0.3l0.4-0.6l0.7-0.1l0.8,0.4  l0.6,0.7l0.6,0.6l0.8-0.2l0.5-0.8l-0.1-1.3l-1-1.1l-2.9-0.4l-1.2-1.6l-4.2,0.5v-0.6l2.3-2.1l-0.5,0.1l-0.5,0l-0.5-0.2l-0.4-0.4  l0.3-0.3l0.9-1.1l-0.7-0.7l-0.8,0.1l-1.7,1.2l0.2,0.3l0,0.1l0.1,0.4h-1l0.4,1.5l0.2,0.5l0.1,1.8l1.1,2.4l1.4,2.3l1.2,1.5l-0.2,2.5  l2,2.9l4.3,4l1.7,2.6l1,1l1.1-0.2l0.4-1.2l-0.2-1.7L-397.2,430.5z M-391,337.7l0.4,2.6l0.7,1.7l1.1,2l1.4,1.4l1.5,0.6l0.8-0.4  l0.3-0.7l0.2-0.9l-0.3-1l-0.4-0.4l-0.3-0.2l-0.6,0l-0.5,0.7l-0.5,0.1l-0.3-0.6l0-0.7l-0.3-0.9l-0.7-1l-0.6-1.1l-0.4-1.5l-0.5-1.3  l-0.7-0.8l-1.1-0.4l-0.6,0.8l0.5,1.3L-391,337.7z M-388.6,345.5l-1.6-2.8l-1.3-4l0.3-0.7l-1.4,0.8l-0.2,1.5l0.4,1.9l0.6,2.1l0.1,0.8  l0.1,2.8l-0.1,0.9l-0.2,0.7l0,0.6l-0.1,0.4l-0.4,0.1l-0.2-0.2l-0.1-0.3l-0.2-0.1l-0.3,0.6l-0.2,1.7l0.5,1.5l1.6,2.2l0.2,0.3l0.1,0.4  l0.1,0.3l0.5,0.4l0.4,0.3l0.3,0l-0.2-0.7l-0.4-1.1l-1-3.4l0.7-0.4l0.7,0.8l1.3,2.7l0.7,0.9l0.9,0.2l0.9-0.2l0.8-0.6v-0.7l-0.3-0.5  l-0.2-0.6l-0.1-1.8l-0.9,0.6l-0.9-0.8l-1.7-2.5l0.3-0.8l1,1.1l1.5,0.7l1.5-0.2l0.9-1.5l-2.5-1.5L-388.6,345.5z M-378.9,344.7  l-0.7-0.5l-1.4,0l-1.6,1.6l-0.8,0.4l-0.6,0.8l0.2,1.1l0.5,1.3l0.6,1l0.8,0.2l0.7-0.3l0.6-0.4l0.4-0.5l0.2-0.6l0-0.9l-0.3-1l1.4-1.5  L-378.9,344.7z M-396.3,390.6l-0.3-1.4l-0.6-0.7l-3.6-1l-0.5-0.3l-0.7-1.2l-0.4-0.5l-0.6-0.2l-1.5,0.2l-0.9-0.2l-2-0.9l-1.1-0.2  l0.4,1.6l1,2.4l0.2,1.7l0.3,1.3l0.6,0.7l0.8,0.3l4.3,0.8l0.6,0.7l3.1,6.5l0.3,0.3l0.5-0.3l0.4-0.7l0.3-0.7l0.2-0.3l0.1-2.9l-0.1-0.5  l-0.2-0.3l0.3-0.7l0.7-1.1l-0.3-1L-396.3,390.6z M-410.3,370.3l1.7,1l2.5,4.3l3,2l1.4,2.1l1.4,1.5l1.5-0.6l-0.2-1.7l0.2-1.3l0.1-0.8  l-1.6-0.9l-0.1-1.4l0.4-1.6l0.5-1.2l-1.3-1.3l-3.2,0.1l-1.7-0.8V369h2.7l0.4-0.5l-0.2-1.1l-0.7-1.5l-0.7-1.3l-4.1,0.2l0.5-0.2  l0.6-0.5l0.6-0.7l0.4-0.7l0.3-1.1l0-0.9l-0.4-0.6l-2.4-0.7l-2.7-2.3l-1.6-0.5l0-2.3l-2.3-4.6l-0.6-2.4l-0.7-1.4l-1.6-1l-3.2-0.8  l-0.3-0.1l-0.2,0l-0.2-0.1l-0.2-0.5l-0.6,4l0,2.1l0.9,1.5l-0.7,0.4l-0.2,0.7l0,1l-0.3,1.4l-0.3,0.3l-0.3,0l-0.3,0.3l-0.1,1.1  l0.1,0.7l0.1,0.4l0.4,0.6l0.4,0.6l1.3,1.3l0.5,0.2l0.8-0.4l0.8-0.7l0.6-0.1l0.4,1.2l-0.8,0.4l0,0.9l0.5,1l0.8,0.4l3.7,0.6l0.7,0.5  l0.9,0.8l0.7,1l0.3,0.9l0.1,1.6l0.2,1.2l0.4,0.7L-410.3,370.3z"/></svg>