<svg xmlns="http://www.w3.org/2000/svg" xmlns:xlink="http://www.w3.org/1999/xlink" version="1.1" x="0px" y="0px" viewBox="-461 335 100 100" fill="#999999" style="enable-background:new -461 335 100 100;" xml:space="preserve"><path d="M-416,382.9L-416,382.9L-416,382.9L-416,382.9L-416,382.9L-416,382.9L-416,382.9z M-415.9,383L-415.9,383l0-0.1L-415.9,383  L-415.9,383L-415.9,383L-415.9,383L-415.9,383z M-416.7,383L-416.7,383L-416.7,383L-416.7,383L-416.7,383z M-415.6,383.1  L-415.6,383.1L-415.6,383.1L-415.6,383.1L-415.6,383.1l0,0.1l0,0.1l0,0l0,0L-415.6,383.1L-415.6,383.1L-415.6,383.1z M-415.2,383.2  L-415.2,383.2L-415.2,383.2l0,0.1l0,0l0,0l0,0l0,0L-415.2,383.2L-415.2,383.2L-415.2,383.2z M-416.2,383.7L-416.2,383.7  L-416.2,383.7L-416.2,383.7L-416.2,383.7z M-414.1,385.1L-414.1,385.1L-414.1,385.1L-414.1,385.1l0-0.1L-414.1,385.1L-414.1,385.1  L-414.1,385.1L-414.1,385.1L-414.1,385.1z M-415.5,385.1L-415.5,385.1L-415.5,385.1L-415.5,385.1l0.1-0.1l0,0l0,0l-0.1-0.1l0,0l0,0  l0,0l0,0L-415.5,385.1L-415.5,385.1L-415.5,385.1z M-416.2,385.4L-416.2,385.4L-416.2,385.4l0,0.1l0,0l0,0L-416.2,385.4l0.1,0l0-0.1  L-416.2,385.4L-416.2,385.4L-416.2,385.4z M-414.4,385.9L-414.4,385.9L-414.4,385.9l0.1,0l0,0l0,0L-414.4,385.9L-414.4,385.9  L-414.4,385.9L-414.4,385.9L-414.4,385.9L-414.4,385.9z M-414.5,386.5L-414.5,386.5L-414.5,386.5l-0.1,0l0,0L-414.5,386.5  L-414.5,386.5L-414.5,386.5z M-415.8,386.8L-415.8,386.8L-415.8,386.8L-415.8,386.8L-415.8,386.8z M-414.9,387.8L-414.9,387.8  L-414.9,387.8L-414.9,387.8L-414.9,387.8L-414.9,387.8L-414.9,387.8L-414.9,387.8L-414.9,387.8z M-414.7,388L-414.7,388L-414.7,388  L-414.7,388l-0.1,0l0,0l0,0l0,0l0,0l0,0.1l0,0l0,0L-414.7,388L-414.7,388L-414.7,388L-414.7,388L-414.7,388L-414.7,388L-414.7,388z   M-414.7,388.2L-414.7,388.2L-414.7,388.2L-414.7,388.2l0.1,0.1l0,0l0,0l0,0l0-0.1l0,0l0-0.1l0,0l0,0L-414.7,388.2L-414.7,388.2  L-414.7,388.2z M-414.1,388.3L-414.1,388.3L-414.1,388.3l0-0.1l0,0l-0.1,0l-0.1,0l0,0.1L-414.1,388.3L-414.1,388.3z M-414.3,389.1  L-414.3,389.1L-414.3,389.1L-414.3,389.1L-414.3,389.1L-414.3,389.1L-414.3,389.1l0.1,0l0,0L-414.3,389.1L-414.3,389.1z   M-416.4,389.7L-416.4,389.7L-416.4,389.7l-0.1,0.1l0.1,0l0,0L-416.4,389.7L-416.4,389.7L-416.4,389.7z M-416.7,390.4L-416.7,390.4  L-416.7,390.4L-416.7,390.4L-416.7,390.4L-416.7,390.4L-416.7,390.4L-416.7,390.4z M-417.9,391.8L-417.9,391.8L-417.9,391.8  L-417.9,391.8L-417.9,391.8z M-417.7,392L-417.7,392L-417.7,392L-417.7,392L-417.7,392L-417.7,392z M-418,392.1L-418,392.1  L-418,392.1L-418,392.1L-418,392.1z M-417.8,392.1L-417.8,392.1L-417.8,392.1L-417.8,392.1L-417.8,392.1L-417.8,392.1z M-418,392.6  L-418,392.6L-418,392.6L-418,392.6L-418,392.6z M-418.4,393.8L-418.4,393.8L-418.4,393.8L-418.4,393.8L-418.4,393.8L-418.4,393.8  L-418.4,393.8z M-422.7,399.1L-422.7,399.1L-422.7,399.1L-422.7,399.1l0-0.1l0,0l0,0l0,0l0,0l0,0h0l0,0L-422.7,399.1L-422.7,399.1  L-422.7,399.1z M-422.3,399L-422.3,399L-422.3,399L-422.3,399l0,0.1L-422.3,399L-422.3,399z M-433.1,405.4L-433.1,405.4  L-433.1,405.4L-433.1,405.4L-433.1,405.4L-433.1,405.4z M-432.5,406.5L-432.5,406.5l0,0.1l0,0.1l0-0.1l0,0.1L-432.5,406.5  L-432.5,406.5L-432.5,406.5z M-432.3,407.8L-432.3,407.8L-432.3,407.8L-432.3,407.8L-432.3,407.8L-432.3,407.8l0,0.1l0,0l0,0  L-432.3,407.8L-432.3,407.8L-432.3,407.8L-432.3,407.8L-432.3,407.8z M-431.9,407.9L-431.9,407.9L-431.9,407.9L-431.9,407.9  L-431.9,407.9L-431.9,407.9z M-431.3,408.3L-431.3,408.3L-431.3,408.3L-431.3,408.3L-431.3,408.3L-431.3,408.3z M-418.6,381.6  L-418.6,381.6L-418.6,381.6L-418.6,381.6L-418.6,381.6l-0.1-0.1l0,0l0,0.1L-418.6,381.6L-418.6,381.6L-418.6,381.6l0,0.1l0,0  L-418.6,381.6L-418.6,381.6L-418.6,381.6z M-418.3,382.5L-418.3,382.5L-418.3,382.5L-418.3,382.5l-0.1-0.1L-418.3,382.5  L-418.3,382.5z M-421.5,395.6L-421.5,395.6L-421.5,395.6L-421.5,395.6L-421.5,395.6L-421.5,395.6L-421.5,395.6z M-420.9,396.3  L-420.9,396.3L-420.9,396.3L-420.9,396.3L-420.9,396.3L-420.9,396.3z M-420.8,396.4L-420.8,396.4L-420.8,396.4L-420.8,396.4  L-420.8,396.4z M-420.9,396.8L-420.9,396.8l0-0.1L-420.9,396.8L-420.9,396.8L-420.9,396.8L-420.9,396.8l0,0.1L-420.9,396.8  L-420.9,396.8L-420.9,396.8z M-421.2,396.8L-421.2,396.8L-421.2,396.8L-421.2,396.8L-421.2,396.8L-421.2,396.8z M-420.8,396.8  L-420.8,396.8L-420.8,396.8L-420.8,396.8L-420.8,396.8L-420.8,396.8z M-421,397.1L-421,397.1L-421,397.1L-421,397.1l0.1,0.1l0,0  L-421,397.1L-421,397.1z M-421.9,397.7L-421.9,397.7L-421.9,397.7L-421.9,397.7L-421.9,397.7z M-421.5,397.8L-421.5,397.8  L-421.5,397.8L-421.5,397.8L-421.5,397.8L-421.5,397.8l0-0.1L-421.5,397.8L-421.5,397.8L-421.5,397.8L-421.5,397.8z M-424.2,399.8  L-424.2,399.8L-424.2,399.8L-424.2,399.8L-424.2,399.8z M-423.6,400L-423.6,400L-423.6,400L-423.6,400L-423.6,400L-423.6,400  L-423.6,400z M-425.4,400.8L-425.4,400.8L-425.4,400.8L-425.4,400.8l0.1-0.1l0,0l0,0l0,0l0-0.1l0,0.1l0,0l0,0L-425.4,400.8  L-425.4,400.8z M-431.3,403.7L-431.3,403.7L-431.3,403.7L-431.3,403.7l-0.1,0l0,0l0,0l0,0l0,0l0,0l0,0.1l0.1,0L-431.3,403.7  L-431.3,403.7L-431.3,403.7L-431.3,403.7L-431.3,403.7z M-428.9,404L-428.9,404l-0.1,0l0,0l0,0.1l0,0L-428.9,404L-428.9,404  l-0.1,0.1l0,0l0,0h0l0,0L-428.9,404L-428.9,404L-428.9,404L-428.9,404z M-430.2,423.7L-430.2,423.7L-430.2,423.7L-430.2,423.7  L-430.2,423.7L-430.2,423.7L-430.2,423.7z M-430.3,424.9L-430.3,424.9L-430.3,424.9L-430.3,424.9z M-430.9,425L-430.9,425  L-430.9,425L-430.9,425L-430.9,425L-430.9,425L-430.9,425L-430.9,425z M-429,430L-429,430L-429,430l-0.1,0L-429,430L-429,430  l0.1,0.1l0,0L-429,430L-429,430L-429,430L-429,430z M-428.8,430.6L-428.8,430.6L-428.8,430.6L-428.8,430.6L-428.8,430.6l0,0.1  L-428.8,430.6L-428.8,430.6L-428.8,430.6L-428.8,430.6z M-428.8,431L-428.8,431L-428.8,431L-428.8,431L-428.8,431L-428.8,431z   M-431.4,431.9L-431.4,431.9L-431.4,431.9L-431.4,431.9l0,0.1l0,0L-431.4,431.9L-431.4,431.9L-431.4,431.9L-431.4,431.9z   M-430.2,432.5L-430.2,432.5L-430.2,432.5L-430.2,432.5L-430.2,432.5L-430.2,432.5L-430.2,432.5L-430.2,432.5z M-429.8,432.9  L-429.8,432.9L-429.8,432.9L-429.8,432.9L-429.8,432.9L-429.8,432.9z M-430.5,433.3L-430.5,433.3L-430.5,433.3L-430.5,433.3  L-430.5,433.3L-430.5,433.3z M-429.1,433.5L-429.1,433.5L-429.1,433.5L-429.1,433.5L-429.1,433.5l-0.1-0.1l0,0l0,0L-429.1,433.5  L-429.1,433.5L-429.1,433.5z M-425.3,433.5L-425.3,433.5L-425.3,433.5L-425.3,433.5L-425.3,433.5L-425.3,433.5z M-425.7,433.6  L-425.7,433.6L-425.7,433.6L-425.7,433.6l0,0.1l0.1,0.1l0,0l0,0l0,0L-425.7,433.6L-425.7,433.6L-425.7,433.6z M-426.1,433.7  L-426.1,433.7L-426.1,433.7L-426.1,433.7l-0.1,0l0,0.1l0,0L-426.1,433.7L-426.1,433.7z M-429.8,433.9L-429.8,433.9L-429.8,433.9  L-429.8,433.9L-429.8,433.9z M-427.8,434.2L-427.8,434.2L-427.8,434.2L-427.8,434.2L-427.8,434.2z M-427.3,434.2L-427.3,434.2  L-427.3,434.2L-427.3,434.2L-427.3,434.2L-427.3,434.2L-427.3,434.2L-427.3,434.2L-427.3,434.2z M-421.3,434.5L-421.3,434.5  L-421.3,434.5L-421.3,434.5L-421.3,434.5L-421.3,434.5L-421.3,434.5L-421.3,434.5z M-430.2,434.8L-430.2,434.8L-430.2,434.8  L-430.2,434.8L-430.2,434.8L-430.2,434.8L-430.2,434.8L-430.2,434.8L-430.2,434.8z M-423.8,434.9L-423.8,434.9L-423.8,434.9  L-423.8,434.9L-423.8,434.9L-423.8,434.9L-423.8,434.9L-423.8,434.9L-423.8,434.9L-423.8,434.9z M-408.2,430.1L-408.2,430.1  L-408.2,430.1l-0.2,0L-408.2,430.1l0,0.1l0,0l0,0l0,0L-408.2,430.1L-408.2,430.1L-408.2,430.1z M-406.1,430.8L-406.1,430.8  L-406.1,430.8L-406.1,430.8L-406.1,430.8L-406.1,430.8z M-417.4,381.5L-417.4,381.5L-417.4,381.5L-417.4,381.5l-0.1,0.1l-0.1,0.1  l0,0.1l0,0l0,0l0,0l0,0l0-0.1L-417.4,381.5L-417.4,381.5L-417.4,381.5L-417.4,381.5z M-417.4,382.1L-417.4,382.1l0,0.1l0,0.1l0,0h0  l0,0L-417.4,382.1L-417.4,382.1L-417.4,382.1z M-417,382.3L-417,382.3L-417,382.3L-417,382.3l-0.1,0l0,0l0,0l0,0l0,0l0,0.1l-0.1,0.1  l-0.1,0h0l0,0l0,0l0,0l0,0l0,0l0,0l0,0l0,0l0,0l0,0l0.1,0l0,0h0l0,0l0,0l0,0l0,0l0,0l0,0l0,0l0-0.1l0-0.1l0-0.1L-417,382.3  L-417,382.3l0,0.1l0,0l0,0L-417,382.3L-417,382.3L-417,382.3z M-417.5,382.5L-417.5,382.5L-417.5,382.5L-417.5,382.5L-417.5,382.5  L-417.5,382.5L-417.5,382.5z M-421,396.5L-421,396.5L-421,396.5L-421,396.5L-421,396.5L-421,396.5L-421,396.5z M-421,396.7  L-421,396.7L-421,396.7L-421,396.7l-0.1,0.1l0,0l0,0l0,0l0.1,0l0.1-0.1l0,0l0,0L-421,396.7L-421,396.7L-421,396.7L-421,396.7  L-421,396.7L-421,396.7z M-421.3,397.9L-421.3,397.9l0-0.2l0,0l0,0l0,0L-421.3,397.9L-421.3,397.9z M-424.5,399.3L-424.5,399.3  L-424.5,399.3L-424.5,399.3l-0.1,0l0,0L-424.5,399.3L-424.5,399.3L-424.5,399.3z M-424.3,399.2L-424.3,399.2L-424.3,399.2l0,0.1  L-424.3,399.2L-424.3,399.2L-424.3,399.2z M-424.5,399.7L-424.5,399.7L-424.5,399.7l0,0.1l0,0l0,0l0,0l0,0L-424.5,399.7  L-424.5,399.7L-424.5,399.7z M-425,400.3L-425,400.3L-425,400.3L-425,400.3L-425,400.3l0-0.2l0,0l0,0l0,0L-425,400.3L-425,400.3  L-425,400.3z M-425.1,400.3L-425.1,400.3L-425.1,400.3L-425.1,400.3L-425.1,400.3L-425.1,400.3l-0.1-0.1l0,0l0,0L-425.1,400.3  L-425.1,400.3l0,0.1L-425.1,400.3L-425.1,400.3L-425.1,400.3L-425.1,400.3z M-425.2,400.7L-425.2,400.7l0.1,0l0-0.1l0-0.1l0.1,0l0,0  l0-0.1l-0.1,0l-0.1,0l0,0l0,0L-425.2,400.7L-425.2,400.7z M-424.3,401L-424.3,401L-424.3,401l0,0.1l0,0h0l0,0L-424.3,401L-424.3,401  L-424.3,401L-424.3,401z M-426.1,402.2L-426.1,402.2L-426.1,402.2L-426.1,402.2L-426.1,402.2L-426.1,402.2l0-0.2l-0.1-0.1l0,0l0,0.1  L-426.1,402.2L-426.1,402.2L-426.1,402.2L-426.1,402.2z M-425.8,402.5L-425.8,402.5L-425.8,402.5l-0.1-0.1l0,0l0,0L-425.8,402.5  l0,0.1l0,0.1l0,0.1l0,0l0-0.1l0-0.1V402.5L-425.8,402.5L-425.8,402.5L-425.8,402.5L-425.8,402.5z M-428.5,403.7L-428.5,403.7l0.1,0  l0,0l0,0l0,0l0,0l0,0l0,0l0,0l0,0l0,0l0,0l0,0l0,0l0,0l0,0l0,0L-428.5,403.7L-428.5,403.7L-428.5,403.7L-428.5,403.7L-428.5,403.7z   M-428.6,404.9l-0.1-0.1l0,0l-0.1,0l0,0l0-0.1l-0.1-0.1l0,0l0,0l0,0.1l0,0.1l0.1,0.1l0,0.2l0,0l0.1,0.1v0l0,0l0,0L-428.6,404.9  L-428.6,404.9L-428.6,404.9L-428.6,404.9L-428.6,404.9L-428.6,404.9z M-429.1,405l0,0.2l0,0.1l0.1,0l0,0l0-0.1l0-0.1l0-0.1l0-0.1  l0-0.1l0.1,0l0-0.1l0-0.1l0,0l0,0l0,0l0,0l0,0l0,0l0,0l0,0l0,0l0,0l0,0l0,0l0,0l0,0l0,0l0,0L-429.1,405L-429.1,405L-429.1,405z   M-430.7,407.7L-430.7,407.7L-430.7,407.7l0-0.1l0,0l0,0l0,0l0,0l0,0l0,0l0,0l0-0.1l0,0l0,0l0,0l0,0l0,0l0,0.1l0,0.1l0,0.1  L-430.7,407.7L-430.7,407.7L-430.7,407.7L-430.7,407.7z M-430.7,408.7L-430.7,408.7l0-0.2l-0.1-0.2l0,0l-0.1-0.1l0,0l0,0.1l0,0.1  l0.1,0.2l0,0l0,0.1L-430.7,408.7L-430.7,408.7L-430.7,408.7z M-431.2,409.1L-431.2,409.1L-431.2,409.1L-431.2,409.1l0.1,0l0,0  l0.2-0.1l0.1-0.1l0-0.1l0,0l-0.1,0l0,0l-0.1-0.1l0,0l0,0.1l0,0l0,0l0,0l0,0l0,0l0,0.1l0,0l0,0l0,0l-0.1,0L-431.2,409.1L-431.2,409.1  L-431.2,409.1z M-431.4,410.2L-431.4,410.2L-431.4,410.2L-431.4,410.2l0.1-0.1l0-0.1l0-0.1l-0.1-0.1l0,0l0,0.1l0,0.1L-431.4,410.2  L-431.4,410.2z M-431.4,411.3L-431.4,411.3l-0.1,0.1l0,0l0,0l0,0l0,0l0,0.1l0,0.1l0,0l0,0l0,0l0.1,0l0,0l0,0l0,0l0,0l0-0.1  L-431.4,411.3L-431.4,411.3L-431.4,411.3z M-429.9,419.5L-429.9,419.5L-429.9,419.5l-0.1-0.1l0,0l0,0l0,0l0.1,0.1l0,0.1l0,0l0,0  L-429.9,419.5L-429.9,419.5L-429.9,419.5z M-430.3,420.8L-430.3,420.8L-430.3,420.8L-430.3,420.8L-430.3,420.8L-430.3,420.8z   M-429.7,422L-429.7,422L-429.7,422l0.1,0l0,0L-429.7,422L-429.7,422L-429.7,422L-429.7,422L-429.7,422L-429.7,422L-429.7,422z   M-429.9,423.2L-429.9,423.2l0.1,0l0,0L-429.9,423.2L-429.9,423.2l0-0.1l0,0L-429.9,423.2L-429.9,423.2z M-431.6,426.1L-431.6,426.1  L-431.6,426.1L-431.6,426.1l0,0.1L-431.6,426.1L-431.6,426.1L-431.6,426.1z M-430.4,426.3L-430.4,426.3L-430.4,426.3l0-0.1l0,0  L-430.4,426.3L-430.4,426.3L-430.4,426.3l-0.1-0.1l0,0L-430.4,426.3L-430.4,426.3L-430.4,426.3L-430.4,426.3L-430.4,426.3  L-430.4,426.3z M-430.4,426.4L-430.4,426.4L-430.4,426.4L-430.4,426.4L-430.4,426.4L-430.4,426.4L-430.4,426.4z M-430.6,426.4  L-430.6,426.4l-0.1,0.1l0,0l0,0l0,0l0,0L-430.6,426.4L-430.6,426.4L-430.6,426.4L-430.6,426.4z M-431,426.6L-431,426.6l-0.1-0.1l0,0  l0,0l0,0l0,0l0,0l0,0l0,0l0,0.1L-431,426.6L-431,426.6L-431,426.6L-431,426.6L-431,426.6z M-430.5,426.8L-430.5,426.8L-430.5,426.8  L-430.5,426.8L-430.5,426.8l-0.1-0.1L-430.5,426.8L-430.5,426.8L-430.5,426.8L-430.5,426.8L-430.5,426.8z M-430.2,426.9  L-430.2,426.9L-430.2,426.9L-430.2,426.9l-0.1-0.1l-0.1,0l0,0l0,0l0,0l0,0L-430.2,426.9L-430.2,426.9L-430.2,426.9z M-430.6,426.8  L-430.6,426.8L-430.6,426.8L-430.6,426.8L-430.6,426.8L-430.6,426.8L-430.6,426.8L-430.6,426.8z M-431.6,427.1L-431.6,427.1l0,0.1  l0,0l0,0L-431.6,427.1L-431.6,427.1L-431.6,427.1L-431.6,427.1L-431.6,427.1z M-430.4,427.2L-430.4,427.2l-0.1,0l0,0l0,0l0,0  L-430.4,427.2L-430.4,427.2L-430.4,427.2z M-429.5,429L-429.5,429L-429.5,429l-0.1,0.1l0,0l0.1,0l0,0l0,0l0,0v0l0,0L-429.5,429  l0.1,0l0,0l0,0l0,0l0,0L-429.5,429L-429.5,429L-429.5,429L-429.5,429L-429.5,429z M-429.1,429.3L-429.1,429.3L-429.1,429.3l0.1,0  l0-0.1l0,0L-429.1,429.3L-429.1,429.3L-429.1,429.3L-429.1,429.3L-429.1,429.3L-429.1,429.3z M-429.3,429.8L-429.3,429.8  L-429.3,429.8L-429.3,429.8L-429.3,429.8l0.1-0.1l0,0l0,0l0,0l0,0l0-0.1l0-0.1l0,0l0,0l0,0l0,0l0,0l0,0l0,0l0,0l0,0l0,0l0,0.1  L-429.3,429.8L-429.3,429.8L-429.3,429.8L-429.3,429.8z M-428.9,429.5L-428.9,429.5L-428.9,429.5L-428.9,429.5l0.1,0.1l0,0.1l0,0  l0,0l0,0l0-0.1l0,0l0-0.1L-428.9,429.5L-428.9,429.5L-428.9,429.5L-428.9,429.5z M-430.8,429.7L-430.8,429.7L-430.8,429.7l0-0.1l0,0  L-430.8,429.7L-430.8,429.7L-430.8,429.7L-430.8,429.7L-430.8,429.7L-430.8,429.7l-0.1,0.1l0,0l0,0l0,0L-430.8,429.7L-430.8,429.7  v0.1l0,0L-430.8,429.7L-430.8,429.7z M-430,429.8L-430,429.8L-430,429.8L-430,429.8L-430,429.8l0.1-0.2l0,0l0,0l-0.1,0.1L-430,429.8  L-430,429.8L-430,429.8L-430,429.8L-430,429.8L-430,429.8z M-407.2,429.7L-407.2,429.7L-407.2,429.7l0,0.1l0.1,0.1l0,0l0,0l0,0  l0-0.2l0,0L-407.2,429.7z M-430.1,430.1L-430.1,430.1l0-0.2l0,0l-0.1-0.1l0,0l0,0l0,0.1l0,0.1L-430.1,430.1z M-429.7,430L-429.7,430  L-429.7,430l0-0.1l0,0l-0.1,0L-429.7,430L-429.7,430L-429.7,430L-429.7,430L-429.7,430l-0.1,0.1l0,0l0,0L-429.7,430L-429.7,430  L-429.7,430z M-428.5,430L-428.5,430l-0.1,0l0,0l0,0l0,0.1l0,0l0.1,0L-428.5,430L-428.5,430L-428.5,430L-428.5,430z M-428.8,430.3  L-428.8,430.3L-428.8,430.3L-428.8,430.3l-0.1-0.2l-0.1,0l0,0l0,0l0,0.1l0,0l0,0l0.1,0L-428.8,430.3L-428.8,430.3z M-431.1,430.2  L-431.1,430.2l0,0.1l0,0l0,0L-431.1,430.2L-431.1,430.2L-431.1,430.2L-431.1,430.2L-431.1,430.2L-431.1,430.2z M-410.5,430.3  L-410.5,430.3l-0.1-0.1l0,0l0,0l0,0l0,0.1l0.1,0.1l0,0l0.1,0l0,0l0,0l0,0L-410.5,430.3L-410.5,430.3z M-429.4,430.6L-429.4,430.6  L-429.4,430.6l-0.1,0.1l0,0l0,0l0,0l0.1,0l0,0l0,0l0,0l0,0l0,0L-429.4,430.6L-429.4,430.6z M-429.1,430.7L-429.1,430.7L-429.1,430.7  l0,0.1l0,0l0.1,0l0,0L-429.1,430.7L-429.1,430.7z M-428.4,430.7L-428.4,430.7l0.1,0.1l0,0l0,0l0,0l0,0L-428.4,430.7L-428.4,430.7z   M-430.1,430.9L-430.1,430.9l0.2,0l0.1,0l0-0.1l0,0l-0.1,0l0,0l0,0L-430.1,430.9L-430.1,430.9L-430.1,430.9L-430.1,430.9z   M-428.6,431L-428.6,431L-428.6,431l-0.1,0.1l0,0L-428.6,431L-428.6,431L-428.6,431L-428.6,431z M-427.4,431.2L-427.4,431.2l0.1-0.1  l0,0l0,0l0,0l0,0l-0.1,0.1l0,0L-427.4,431.2L-427.4,431.2z M-426.3,431.2l-0.1,0.1l0,0.1l0.1,0l0,0l0,0l0,0L-426.3,431.2  L-426.3,431.2l0.1,0.1l0,0l0,0l0,0l0,0L-426.3,431.2z M-429,431.5L-429,431.5l-0.2,0l0,0l0,0l0.1,0.1l0.1,0L-429,431.5L-429,431.5  L-429,431.5L-429,431.5z M-427.1,431.5L-427.1,431.5L-427.1,431.5L-427.1,431.5l-0.1,0.1l-0.1,0l0,0l0,0l0.2-0.1L-427.1,431.5  L-427.1,431.5L-427.1,431.5z M-426.8,431.6L-426.8,431.6L-426.8,431.6L-426.8,431.6l0,0.1l0,0l0.2,0l0.1,0L-426.8,431.6z   M-430.4,431.7L-430.4,431.7L-430.4,431.7l0,0.1l0,0l0,0l0,0L-430.4,431.7L-430.4,431.7L-430.4,431.7z M-426.5,431.8L-426.5,431.8  L-426.5,431.8l-0.1,0.1l0,0l0,0.1l0,0l0.1-0.1l0-0.1L-426.5,431.8L-426.5,431.8L-426.5,431.8z M-428.1,431.8L-428.1,431.8  L-428.1,431.8l-0.2,0.1l0,0.1l0,0l0,0h0.2l0,0l0,0l0,0L-428.1,431.8L-428.1,431.8L-428.1,431.8L-428.1,431.8L-428.1,431.8l0.1,0.1  L-428.1,431.8L-428.1,431.8z M-427.1,431.8L-427.1,431.8l-0.1,0.1l0,0l0,0l0,0L-427.1,431.8L-427.1,431.8L-427.1,431.8z   M-424.3,432.7L-424.3,432.7L-424.3,432.7l0,0.1l0,0l0-0.1L-424.3,432.7L-424.3,432.7z M-423.9,432.9L-423.9,432.9L-423.9,432.9  L-423.9,432.9L-423.9,432.9l0.1,0.1l0,0l0-0.1l0,0l0,0l0,0l0,0l0,0l0,0l0-0.1l0,0l0,0l-0.1,0l0,0.1L-423.9,432.9L-423.9,432.9  L-423.9,432.9L-423.9,432.9L-423.9,432.9z M-426.2,433.1L-426.2,433.1l-0.1,0.1l0,0l0,0.1l0,0l0,0l0,0L-426.2,433.1L-426.2,433.1  L-426.2,433.1L-426.2,433.1z M-425.1,433.4L-425.1,433.4l0.1,0.1l0,0l-0.1-0.1l0,0l0,0L-425.1,433.4L-425.1,433.4L-425.1,433.4  L-425.1,433.4L-425.1,433.4z M-425.4,433.4L-425.4,433.4L-425.4,433.4l0-0.1l0,0l-0.1,0l0,0.1l0,0.1l0,0l0,0L-425.4,433.4z   M-425.9,433.7L-425.9,433.7l0-0.2l0-0.1l0,0l0,0l0,0l0,0l0,0l0,0l0,0l0,0l0,0l0,0l0,0l0,0l0,0l0,0l0,0l0,0l0,0l0,0l0,0l0,0.1l0,0  l0,0l0,0l0,0l0,0l0,0l0,0l-0.1,0l0,0l0,0.1l0,0.1L-425.9,433.7L-425.9,433.7L-425.9,433.7L-425.9,433.7z M-428.5,433.4L-428.5,433.4  l-0.1-0.1l0,0l0,0l0,0l0,0l0,0l0,0l0,0l0,0l0,0L-428.5,433.4L-428.5,433.4z M-425,433.5L-425,433.5L-425,433.5L-425,433.5  L-425,433.5l-0.2-0.1l0,0l0.2,0.2l0.1,0l0,0L-425,433.5L-425,433.5L-425,433.5L-425,433.5L-425,433.5L-425,433.5z M-426.1,433.5  L-426.1,433.5L-426.1,433.5l-0.1-0.1l-0.1,0l0,0l0,0.1l0,0.1l0,0.1l0,0L-426.1,433.5L-426.1,433.5z M-428.5,433.7L-428.5,433.7  L-428.5,433.7L-428.5,433.7l0,0.1l0,0l0,0l0,0L-428.5,433.7L-428.5,433.7L-428.5,433.7z M-423.1,433.8L-423.1,433.8L-423.1,433.8  L-423.1,433.8L-423.1,433.8L-423.1,433.8L-423.1,433.8l0,0.1l0,0l0.1,0l0,0L-423.1,433.8L-423.1,433.8L-423.1,433.8L-423.1,433.8z   M-425.4,433.9L-425.4,433.9L-425.4,433.9L-425.4,433.9L-425.4,433.9L-425.4,433.9L-425.4,433.9z M-425.7,434L-425.7,434L-425.7,434  L-425.7,434l0.1,0l0,0l0,0l0,0l0,0l0,0L-425.7,434z M-422.3,434L-422.3,434l-0.1,0L-422.3,434L-422.3,434L-422.3,434L-422.3,434  L-422.3,434L-422.3,434z M-421.9,434l-0.2,0l0,0l0,0l0,0l0,0l0,0l0,0l0,0l0,0l0,0l0,0l0.2,0l0-0.1L-421.9,434L-421.9,434L-421.9,434  L-421.9,434L-421.9,434L-421.9,434z M-426.8,434.1L-426.8,434.1L-426.8,434.1L-426.8,434.1L-426.8,434.1L-426.8,434.1L-426.8,434.1  L-426.8,434.1z M-426,434.3L-426,434.3L-426,434.3L-426,434.3l-0.1,0l0,0l0.1,0l0,0L-426,434.3L-426,434.3L-426,434.3z   M-429.3,434.5l-0.1,0.1l0,0l0,0l0,0l0,0L-429.3,434.5L-429.3,434.5l0.1,0l0,0l0,0l-0.1,0L-429.3,434.5z M-426.3,434.6L-426.3,434.6  l-0.1-0.1l0,0L-426.3,434.6L-426.3,434.6L-426.3,434.6L-426.3,434.6L-426.3,434.6L-426.3,434.6L-426.3,434.6L-426.3,434.6  L-426.3,434.6L-426.3,434.6z M-430.5,404.9L-430.5,404.9L-430.5,404.9l0.1,0.1l0.2-0.3l0.1-0.2l0-0.1l-0.1-0.1l-0.1,0.1l-0.1,0.1  l-0.1,0.1l0,0l0,0l0,0L-430.5,404.9L-430.5,404.9z M-430.8,425.7l-0.1,0.1l0.1,0l0.1,0h0.1l0,0l0.1,0l0.1,0l0-0.1l0-0.2l0-0.1l0.1,0  l0.1-0.1l-0.2-0.1l-0.1-0.1l-0.1-0.1l-0.1,0l-0.1,0l-0.1,0.1l0.1,0l0.1,0.1l0.1,0.2l0,0l0,0.1l0,0l0,0l0,0l0,0l0,0l-0.1,0.1  L-430.8,425.7z M-426,430.2L-426,430.2l-0.1,0l-0.1,0l-0.1,0.1l-0.1,0.1l0.2,0.1l0.1,0l0.1-0.1l0,0.1l0,0.1l0,0.1l0.1,0l0.1,0  l0.1-0.1l0.1-0.1l0-0.1l0,0l-0.1,0l-0.1,0L-426,430.2L-426,430.2L-426,430.2L-426,430.2z M-413.1,430.7l-0.1,0.1l0,0.2l0.1,0.1  l0.1,0l-0.1,0.1l0,0.1l0,0l0.1,0.1l0-0.1l0-0.1l0.1-0.1l0.1,0l0-0.1L-413.1,430.7L-413.1,430.7z M-412.1,431.3L-412.1,431.3l0,0.2  l0.1,0l0.1,0l0,0l0.1-0.1L-412.1,431.3L-412.1,431.3z M-426,433.1L-426,433.1l0.1-0.1l0.1,0l0,0.1h0l0-0.1l0-0.1l0-0.3l-0.1-0.1  l-0.1,0l0,0.1l0,0.2l-0.1,0l0-0.1l0-0.1l0-0.1l-0.1,0l0,0.1l0,0.1l0,0.1l0,0.1L-426,433.1L-426,433.1L-426,433.1z M-428.8,428.9  l-0.1,0.2l0,0.2l0,0.1l0.1,0l0.1-0.1l0-0.1l0.1-0.2l0-0.1l0-0.1l-0.1,0L-428.8,428.9z M-426.6,431.1l-0.1,0.2l-0.1,0.2l0.1,0.2  l0.1-0.1l0.1-0.2l0-0.2l-0.1-0.1L-426.6,431.1z M-424.7,400.5L-424.7,400.5L-424.7,400.5l-0.2,0.1l0,0l0,0l0,0l0,0.1l0.1,0.1  l0.1,0.1l0.1,0l0,0l0,0l0-0.1l0-0.1l0,0l0,0l0,0l0-0.1l0-0.1l0,0l0-0.1l0-0.1l0,0l0,0l0,0l0,0l-0.1,0l0,0l0,0l0,0l0-0.1l0-0.1  l-0.1,0L-424.7,400.5L-424.7,400.5z M-427.3,404.1L-427.3,404.1L-427.3,404.1L-427.3,404.1l-0.1,0l-0.1,0l-0.1,0l-0.1,0l0,0.1l0,0  l0,0l0,0l0,0l0,0.1l0,0l0,0.1l0,0l0,0l0,0l0,0l0,0l0.1-0.1l0.1-0.1l0-0.1l0-0.1l0.1,0l0.1,0.1l0.1,0l0-0.1L-427.3,404.1  L-427.3,404.1L-427.3,404.1L-427.3,404.1L-427.3,404.1L-427.3,404.1L-427.3,404.1z M-427,405l0.1,0.1l0.1,0l0.1-0.1l0-0.1l0-0.1l0,0  l0-0.1l0-0.1l0-0.1l0-0.1l0,0l0,0l0,0.1l0,0.1l0,0.1l0,0l0,0l0,0l0,0l0,0l0,0l0,0l0,0l0,0l0,0l0-0.1l0,0l0,0l-0.1,0l-0.1,0.1l-0.1,0  l0,0l0,0.1l0,0.1l0,0.1l0,0.1l0,0l0,0l0,0l0,0l0,0l0,0l0,0l0.2,0.1l0,0l0,0l0,0l0,0l0-0.1l0-0.1L-427,405l-0.2,0.1l0,0L-427,405z   M-427.6,405.1L-427.6,405.1l0.1,0l0-0.1l0-0.1l-0.1-0.2l0,0l0,0l0,0l0,0l0,0l0,0l0.1,0.1l0,0l0,0l-0.1-0.1l-0.1,0l0,0.1l0,0.1  l0,0.1l0,0L-427.6,405.1L-427.6,405.1L-427.6,405.1l-0.1-0.1l0,0L-427.6,405.1L-427.6,405.1L-427.6,405.1z M-408.9,429.4  L-408.9,429.4L-408.9,429.4L-408.9,429.4l-0.1,0.2l0,0l-0.1,0l-0.2,0l0,0.1l0.1,0.2l0,0.1l0,0l0-0.2l0.1-0.1l0.3-0.1l0.1-0.1l0,0  l0,0L-408.9,429.4z M-430.3,430.2L-430.3,430.2L-430.3,430.2L-430.3,430.2L-430.3,430.2l0.1-0.1l-0.1-0.1l-0.1-0.1l0,0l0,0l0,0.1  l0,0.1l0,0.1l0.1,0L-430.3,430.2L-430.3,430.2L-430.3,430.2L-430.3,430.2z M-427,430L-427,430l-0.1,0.1l-0.1,0.1l0,0l0.4-0.2l0-0.1  L-427,430z M-427,430.2L-427,430.2l0.1,0.1l0,0l0.4-0.1l0-0.1l-0.1-0.1l-0.1,0L-427,430.2L-427,430.2L-427,430.2z M-427.8,430.8  l0.1-0.2l0-0.1l-0.1,0l-0.1,0l-0.1,0l-0.1,0l-0.1,0l0,0l0,0.1l0,0l0.1,0.1l0.1,0L-427.8,430.8L-427.8,430.8z M-427.7,430.7  L-427.7,430.7L-427.7,430.7L-427.7,430.7L-427.7,430.7l0.1,0l0,0L-427.7,430.7L-427.7,430.7z M-426.3,431.9L-426.3,431.9  L-426.3,431.9l-0.1-0.1l0.1,0l0.1-0.1l0.1-0.1l0-0.1l-0.3,0.1l0,0l0,0.1l0,0.1l0,0l0,0l0,0l0,0.1l0,0l0,0l0,0L-426.3,431.9  L-426.3,431.9z M-427.7,432L-427.7,432l-0.1-0.1l0,0l-0.1,0l0,0.1l0,0.1l0,0l0.1,0l0.1,0l0.1,0L-427.7,432L-427.7,432L-427.7,432z   M-424.1,432.4l0.1,0l0.1,0l0.1,0l0,0l0,0l0,0l0,0l0,0l0-0.1l0-0.1l0-0.1l0-0.1l-0.1,0l-0.1,0l-0.1,0l0,0l0,0l0,0.1L-424.1,432.4  l-0.1,0l0,0L-424.1,432.4L-424.1,432.4z M-424,432.8L-424,432.8L-424,432.8L-424,432.8l0.1-0.2l0-0.1l0,0l-0.1,0l-0.1,0l0,0.1l0,0  l0.1,0L-424,432.8L-424,432.8l-0.2,0l0,0.1l0,0.1l0.1,0l0,0l0-0.1L-424,432.8L-424,432.8z M-419.9,433.3L-419.9,433.3l-0.2,0  l-0.1,0.1l0,0.1l0,0l0,0l0.1,0.1l0.1,0l0,0l0,0l0,0l0.1,0l0,0L-419.9,433.3L-419.9,433.3L-419.9,433.3z M-431.1,407.9L-431.1,407.9  L-431.1,407.9L-431.1,407.9L-431.1,407.9L-431.1,407.9l0.1,0.2l0.1,0l0,0l0.1,0.1l0,0l0,0l0-0.1l0-0.1l0-0.1l0-0.1l0,0l-0.1,0l0,0  l0,0l0,0l0,0l0,0.1l0,0.1l0,0.1l0.1,0l0,0L-431.1,407.9L-431.1,407.9z M-429.4,431l0,0.1l0,0.1l0.1,0l0,0l0,0l0,0l0,0l0-0.1l0-0.1  l0-0.1l0,0l-0.1,0l0,0l0,0l0-0.1l-0.1,0L-429.4,431z M-429.7,419.6L-429.7,419.6l0.1,0l0,0l0,0l0,0l0,0l0,0l0,0l-0.1-0.1  L-429.7,419.6L-429.7,419.6L-429.7,419.6L-429.7,419.6z M-430.1,423.1L-430.1,423.1L-430.1,423.1l-0.1,0.1l0,0l0,0l0,0l0,0.1l0,0  l0,0l0,0l0,0l0.1,0l0.1,0l0.1,0.1l0,0l0,0l0,0l-0.1-0.1l0-0.1L-430.1,423.1L-430.1,423.1z M-430.9,426.2L-430.9,426.2L-430.9,426.2  l0.2,0.1l0.1,0l0-0.1l0-0.1l0,0l0,0l0,0l0,0l0,0L-430.9,426.2L-430.9,426.2l0.1-0.1l-0.1,0l-0.1,0L-430.9,426.2L-430.9,426.2  L-430.9,426.2L-430.9,426.2z M-425.6,434.1L-425.6,434.1L-425.6,434.1l-0.2,0l-0.1,0.1l0,0l0,0l0,0l0,0.1l0,0l0.1,0L-425.6,434.1  L-425.6,434.1L-425.6,434.1L-425.6,434.1z M-417.1,388.6l-0.1,0.1l0,0.1l0,0.1l0.1,0.4l0.1,0l0.1,0l0.1,0l0.1-0.2l0.4-0.2v0.1  l-0.3,0.2l0,0.1l0,0l0,0.1l0.1,0.1l0.1,0l0.1,0l0,0l0-0.1l0,0l0.1,0l0,0l0,0l0,0l0-0.1l0-0.1l0-0.1l0-0.1l-0.3-0.2l0.2-0.2l0.6,0.2  l0.2,0l0.1-0.1l-0.1-0.1l-0.3,0l-0.1,0l-0.1,0l-0.1,0l0,0l0-0.1l0-0.1l0,0h-0.5l-0.5,0.2L-417.1,388.6z M-431,405.1l-0.2,0l-0.2-0.1  l0,0.1l0.1,0.3l0,0.1l0,0.1l0.1,0.2l0.1,0v0.1h-0.1l0.1,0.1l0.1,0l0.1-0.1l0.1,0l0.1,0.1l0,0.1l0,0.1l0,0.1l0.2,0l0.1,0l0.1-0.1  l-0.1,0l0,0V406l0.3-0.3l0.1,0l-0.1,0.1l0.1,0l0.1,0l0.1-0.1l0-0.1l0-0.1l0-0.1l0-0.1l-0.1-0.1l-0.2,0l-0.2,0.1l-0.1,0.1l0,0l0,0  l0,0.1l0,0.1l0,0l0,0l0,0l0,0l-0.2,0l-0.1,0l0,0l0,0l0,0l0-0.1l0.1-0.2l0-0.1l0.1,0v-0.1l-0.2,0L-431,405.1z M-430.4,429.2  L-430.4,429.2l0-0.2l0-0.1l-0.1-0.2l-0.1-0.1h-0.1l0,0.1l0.1,0.1l0,0.1l0,0.2l0.1,0.1L-430.4,429.2L-430.4,429.2z M-430.8,428.1  l0,0.1l0,0.1l0,0l0.1,0l0,0.1l0,0.1l0,0.1l0.1,0v-0.1l-0.1,0l0-0.1l0-0.1l0-0.1l0,0l0-0.1l0-0.1l0-0.1l0,0l0,0l0,0.1l0,0.1  L-430.8,428.1L-430.8,428.1z M-430.2,431.5l-0.1-0.1l-0.2,0l-0.1,0l-0.1,0.1l0.1,0l0,0l0,0.1l0.1,0l0.1,0l0.1,0l0,0.1h0l0-0.1l0.1,0  l0.2,0v-0.1l-0.2,0L-430.2,431.5z M-429.8,428.8L-429.8,428.8L-429.8,428.8L-429.8,428.8L-429.8,428.8l0-0.1l-0.2,0l-0.1-0.1l-0.2,0  l-0.1,0l0,0.1l0,0.1l0,0l0,0l0.1-0.1l0,0.2l0.1,0.2l0.1,0.1l0.1,0.1l0-0.1l0-0.1l0.1,0l0.1,0l0-0.1l0-0.1L-429.8,428.8L-429.8,428.8  z M-427.1,430.8L-427.1,430.8l0.2,0l0.1,0l0.1,0.1l-0.1,0.1l0.1,0l0.2,0l0,0l0.1-0.1l0,0l0,0l0,0l0,0l0,0l0.1,0l0,0l0-0.1l-0.1-0.1  l-0.3-0.1l-0.5,0l-0.1,0l-0.1,0.1l0,0.1l0,0.1l0,0l0.1,0l0.1,0.1l0.1,0l0.1-0.2H-427.1z M-424.6,432.8L-424.6,432.8L-424.6,432.8  l0.3-0.3l0.1-0.2l-0.1-0.3l0,0l0-0.1l-0.1,0l0,0l0,0l0,0l0,0l0,0l0-0.1l0-0.1l0-0.1l0.1-0.1l0-0.1l0-0.1l0-0.1l0.1-0.1l0.1-0.1  l0.1-0.1l0-0.2l-0.1,0l-0.1,0.1l-0.1,0.2l-0.1,0.2l-0.1,0.1l-0.8,0.1l-0.1,0l-0.1,0.1l-0.4,0.1l-0.1,0l0-0.1l0.1-0.2l-0.1,0  l-0.1,0.2l0,0.2l0,0.2l0.8,0.1v0.1h-0.4l-0.1,0l-0.2,0.1l-0.1,0l0.1,0.1l0.1,0.1l0,0.1l0,0.1l0,0.1l0,0.1l0,0.1l0,0.1l0,0.1l0,0.2  l0.1,0l0.2-0.1l0.1-0.1l0.1-0.1l0-0.1l0,0.1l0,0.1l0,0.1l0,0.1l0.1,0l0,0l0,0.1l0,0.1h0l0-0.1l0,0l0,0l0.1-0.2l0-0.1l0.1,0.1  l0.1,0.2l0.1-0.1l0,0l0.1,0l0,0l0.1-0.1L-424.6,432.8L-424.6,432.8L-424.6,432.8z M-429.4,431.7l-0.2,0.1l-0.1,0.2l0.1,0l0.1,0  l0,0.1l-0.2,0l-0.1,0l-0.1,0.1l0,0l0,0.1l0,0l0,0l0,0l0.1,0l0,0l0.1,0l0.1,0l0.1,0l0-0.1l0-0.1l0,0l-0.1,0l0.1-0.1l0-0.1l0-0.1  l-0.2-0.1L-429.4,431.7z M-428.2,431.8L-428.2,431.8l-0.1-0.1l0,0l0,0l0,0l0,0v-0.1l-0.1-0.1l-0.2,0l-0.2,0l-0.1,0.1l-0.1,0.1l0,0.1  l0.1,0v0.1l0,0l-0.1,0.1l0,0.1l0,0l0,0l0.1,0.1l0.1,0l0.1-0.1l0.1-0.1l0,0l0,0l0,0l0,0l0,0l-0.1-0.1H-428.2z M-427.6,431.7  L-427.6,431.7l0.2-0.2l-0.1-0.1l-0.1,0l-0.1,0l-0.1,0.1l-0.2,0.1l-0.1,0l0.1,0.2l0.1,0.1l0.1,0L-427.6,431.7L-427.6,431.7  L-427.6,431.7z M-428.3,429.8L-428.3,429.8l-0.1,0.1l0,0.1l0,0.1l0.1,0.1l0.1,0.1l0.1,0l0,0l0.1,0.1l0,0l0,0.1l0,0l0,0l0,0l0,0l0,0  l0.1,0l0.1,0l0.1,0l0.1,0v-0.1l0,0l0,0l-0.1,0l0,0l0.1-0.1l0-0.1l-0.1,0l-0.1,0l0-0.1l-0.1-0.1l-0.1-0.1l-0.1,0l0.1,0l0.1,0l0.1,0  v-0.1l-0.1-0.2l0,0l0,0l0,0l0-0.1l0-0.1l-0.2-0.1l-0.1-0.1l-0.1,0l0,0l0,0.1l0,0.1L-428.3,429.8L-428.3,429.8L-428.3,429.8z   M-388.9,408.3l-0.1-0.2l-0.1-0.2l-0.1-0.2l-0.1,0l-0.1-0.1l-0.3-0.4l-0.1-0.1l-0.3-0.2l-0.1-0.1l0-0.1l0-0.2l0-0.2l0-0.2l0-0.2  l-0.1-0.1l-0.1-0.1l-0.8-0.6l-0.6-0.8l-1.3-0.8l-0.1-0.1l-0.1-0.2l-0.2-0.4l-0.6-0.4l-1-1.2l-0.1-0.2l0.3-0.2l0.6-0.3l0.3-0.3  l0.3-0.6l0.7-0.9v0l0.2-0.3l0.1-0.3l0-0.3l-0.1-0.4l-0.1-0.2l0-0.2l0-0.2l0.1-0.2l0-0.2l-0.1-0.1l-0.1-0.1l-0.2-0.1l-0.1-0.1  l-0.1-0.2l-0.1-0.2l-0.2-0.2l-0.6-0.2l-0.3-0.2l-0.2-0.2l-0.1-0.2l0-0.2l0.1-0.2l0-0.2l-0.1-0.2l-0.2-0.1l0-0.1l0,0l0,0l0,0l0,0l0,0  l0,0l0-0.1l0-0.1l0-0.2l0,0l0,0l0,0l0-0.1l0,0l0.7-0.3l0.1-0.1l0.1-0.2l0-0.2l-0.1-0.2l-0.2-0.2l0-0.1l0-0.1l0-0.1l0-0.1l0-0.1  l0-0.1l0-0.1l0-0.1l-0.1-0.1l-0.2-0.1l-0.7,0l-0.4-0.1l-0.3-0.4l-0.3-0.6l-0.2-0.8l0-0.4l0.1-0.3l0.2-0.2l0.6-0.2l0.1-0.1l0-0.1l0,0  l-0.1,0l-0.1-0.1l0-0.1l0-0.1l0-0.1l0-0.1l0-0.4l-0.3-0.1l-0.6,0l-0.2-0.2l0.1-0.3l0.4-0.6l0-0.4l-0.1-0.9l0-0.4v0l0.1-0.2l0.3-0.4  l0.1-0.1l-0.1-0.2l-0.3-0.2l-0.1-0.2l0.2-0.2l1-0.3l0.3,0.2l0.1,0.1l0.1-0.1l0-0.2l0-0.2l-0.1-0.9l0-0.2l-0.1-0.4l-0.1-0.5l0-0.2  l-0.2-0.4l0-0.2l-0.1-0.8l-0.1-0.4l-0.1-0.3l-0.3-0.5l-0.6-1.1l-0.2-0.6l-0.1-0.3l-0.1-0.4l-0.1-0.6l0-0.2l-0.5-0.8l0-0.1l0-0.1  l0-0.1l0-0.1l-0.1-0.2l-0.2-0.6l-0.9-1.6l-0.2-0.7l0.2-0.9v0l1.3-2.5l0.2-0.3l0-0.1l0-0.1l0-0.2l0-0.1l1.6-2.2l0.1-0.2l0.1-0.5  l0-0.1l0-0.7l0-0.1l0-0.1l0.1-0.1l-1.2-1.1l-0.3-0.3l-0.7-1.5l-0.2-0.3v0l-0.3-0.7l-0.1-0.2l-0.1-0.1l-2.3-1l-0.2-0.1l-0.1-0.2  l-0.7-2.8l-0.1-0.3l-0.1-0.3l0-0.2l0-0.1l1-2.1l0.1-0.4l0.2-0.8l-0.3-0.3l-0.3-0.1l-0.8,0.1l-0.1-0.1l-0.1-0.1l0-0.2l0.2,0l1-0.8  l0.5-0.2l0.5-0.5l-0.5-0.6l0-0.1l0-0.2l0.1-0.8l0-0.3l0.1-0.1l1.5-1.8l0.5-1l-0.6-1.4l-0.2-0.9l-0.1-0.1l-2.6-1.3l-0.2-0.1l-0.2-0.1  l-0.1-0.2l0-0.4l-0.8-0.4l-0.1-0.1l-0.8-1.4l-0.2-0.5l-0.1-0.2l-0.1-0.1l-0.3,0.2l-0.5-0.1l-0.2,0.1l-0.2,0.3l0,0.2l-0.5,0.2  l-0.3,0.3l-0.1,0l-0.1,0l-0.1,0l0,0.1l0,0l0.1,0.1l0,0l-0.2,0.2l-0.9,0.3l-0.1,0l-0.3-0.2l-0.1,0l-0.1,0l-0.2-0.2l-0.1,0l-0.4,0.1  l-0.3-0.1l-0.7,0.1l-0.1,0.1l-0.1,0.2l-0.1,0.2l0,0.1l0,0.2l-0.1,0.2l-0.4,0.5l-0.2,0.4l-0.2,0.3l0,0.1l-0.1,0.1l-0.1,0l-0.6,0.2  l-0.1,0.1l-0.1,0.2l-0.1,0.1l0,0.1l0,0.1l0.1,0.1l0.1,0.3l0,0.3l-0.1,0.3l-0.1,0.2l-0.2,0.2l-0.1,0.1l0,0.1l0,0.1l0,0.1l-0.1,0.1  l0,0.1l0,0.3l0,0.1l0,0.1l-0.1,0.3l0.1,0.4l0,0.1l-0.4,0.7l0,0.2l-0.2,0.9l0,0.3l0.1,0.3l0,0.1l0.1,0.2l0,0.1l0,0.1l0,0.1l0,0l0,0  l0,0.4l0,0.1l0,0.1l0,0.1l0.1,0.2l0,0l0,0l0,0.1l0,0.1l0.1,0.1l0,0.1l0,0.1l0,0.1l-0.2,0.2l0,0.1l0,0.2l0,0.1l-0.1,0.2l-0.1,0.1  l-0.1,0.2l-0.1,0.2l-0.1,0.1l-0.1,0l-0.5-0.2l-0.2,0l-0.2,0.1l-0.8,0.7l-0.2,0.3l-0.1,0.2l0,0.2l0,0.5l0,0.1l0,0.1l0,0.1l0,0.1  l0,0.2l-0.1,0.1l-0.1,0l-0.1,0l-0.3,0.2l-0.1,0l-0.1,0.1l-0.1,0.2l0,0.2l-0.1,0.1l-0.1,0l-0.1-0.1l-0.1-0.3l-0.3-0.5l-0.4-0.3  l-0.7-0.3l-0.6-0.2l-0.6-0.4l-0.1-0.1l-0.1-0.2l-0.8-0.4l-0.3,0l-0.3,0.2l-0.1,0.5l-0.1,0.5l-0.4,0.2l-0.6,0.1l-1.2,0.8l-0.1,0  l-0.3-0.5l-0.1-0.1l-0.2-0.1l-0.7,0.1l-1-0.5l-0.1,0l-0.1,0l-0.5,0.2l-0.1,0l-0.1-0.2l-0.1-1l-0.1-0.1l-0.3-0.3l-0.3-0.6l0-0.1  l-0.1-0.3l-0.1-0.1l-0.6-0.6l-1.5-2.9l-0.1-0.1l-1.3-0.2l-0.9,0.6l-0.1,0.1l-0.1,0.2l-0.1,0.4l0.5,1.1l-0.2,0.5l-0.1,0.1l-0.2,0  l-1.2-0.7l-0.1,0.1l-0.4,0.7l0.2,0.2l0.5,0.1l0.3,0.3l0.2,0.1l0.1,0.2l0,0.2l-0.1,0.2l-0.1,0.1l0,0.2l0.1,0.1l0.7,0.3l0.3,0.3  l0.3,0.3l0.2,0.5l0.1,0.1l0,0l0,0.1l0,0l0,0l0.3,0l0.1,0.1l0,0.1l0,0.1l0.1,0.3l0,0.1l0.1,0.1l0.3,0.1l0.4,0.4l0.2,0.2l0.1,0.3  l0.7,0.2l0.2,0.2l0,0.1l0.1,0.2l0.1,0.1l0,0.1l0,0l0,0l0,0.1l0,0.1l0,0.1l0.1,0.1l0.9,0l0.3,0.1l0,0l0,0.1l0,0l0.3,0l0.3,0.1l0.2,0  l0.2,0.1l0.1,0l0.1,0l0.1,0l0.1,0.1l0.1,0.2l0.1,0.1l0.2-0.1l0.1,0.1l0.2,0.4l0.1,0.2l0.6,0.4l0.1,0.1l0,0.1l0,0.1l0,0.1l0.1,0.1  l0.2,0.2l0.1,0.2l0,0.3l0,0.1l0,0.1l0,0.3l0,0.1l0,0.1l0,0.1l0,0l0,0l0,0.1l0.1,0l0.3-0.2l0.1,0l0.1,0.1l0,0.1l0.2,0.6l0,0.1l0,0.1  l0.3,0.3l0.1,0.1l0.4,0.5l0.3,0.1l0.1,0.1l0,0.2l-0.1,0.2l-0.1,0.1l-0.3,0.1l-0.1,0.1l-0.1,0.2l0,0.3l0,0.3l0,0.2v0.6l0,0.1l0,0.2  l0,0.4l0,0.2l0.1,0.3l0,0.2l0,0.3l-0.1,0.1l-0.1,0.1l-0.1,0.1l0,0.1l-0.1,0.2l-0.1,0.2l0,0.2l0,0.3l0.1,0.2l0.2,0l0.2-0.1l0.2,0  l0.3,0.2l0.3,0.1l0.1,0l0.1,0.1l0,0.2l0,0.3v0.2l0.1,0.1l-0.1,0.3l-0.1,0.2l-0.5,0.2l-0.1,0.1l0,0.2l0,0.2l0,0.1l0.1,0l0,0.1l0,0.1  l0,0.1l-0.1,0.1l0,0.2l0.1,0.1l0.1,0.1l0.1,0.2l0,0l0,0.1l0,0.1l0,0.1l0,0.1l0,0.1l0,0.1l0.1,0.3l0.1,0.2l0.1,0.1l0.1,0.1l0.1,0.1  l0.2,0.5l0.2,0.2l0.1,0.2l0.1,0.3l0.2,0.5l0,0.1l0,0.1l-0.1,0l-0.1,0l-0.1,0l-0.1,0.2l-0.1,0.2l0,0.1l0,0.4l0,0.2l0,0.2l0,0.2l0,0.2  l0,0.2l0,0.2l0,0.2l0,0.2l-0.1,0.1l-0.2,0.2l0,0.1l-0.1,0.1l-0.1,0.1l-0.1,0.1v0.2l-0.1,0l-0.1,0.1l-0.1,0.2l0,0.2l0,0.1l0.1,0.2  l0,0.1l0,0.1l0,0.2l0,0.1l0,0.1l0,0.1l0,0.1l0,0.1l0.1,0.2l0,0.3l0.1,0.5l0.1,0.2l0.1,0.1l0.4,0.2l0.1,0.1l0.2,0.7l0,0.1l0,0.1  l0.1,0.1l0,0.1l0,0.1l0.1,0.5l0,0.2l0,0.2l0.1,0.2l0.1,0.2l0.1,0.4l0.2,0.3l0,0.2v0.1l0,0.1l0.1,0.1l0.1,0.1l0.1,0l0.1-0.1l0-0.1  l0-0.1l0-0.1l0.2,0.1l0.2,0.1l0,0l0.1,0.2l0.2,0.1l0,0l0,0l0-0.1l0,0l0,0l0.1-0.1l0.1,0l0.1,0l0.1,0l0.1-0.1l0.2-0.4l0.1-0.1l0,0  l0,0l0-0.1l0-0.1l0,0l0,0l0,0l0.2-0.1l0.1-0.1l0,0.1l0,0l-0.1,0l-0.1,0.1l0,0.1l-0.1,0.2l-0.2,0.5l-0.1,0.2l0,0.3l0,0.2l0.1,0.1  l0.1,0.1l0.1,0.1l0.3,0.1l0,0l0,0.1l0,0.4l0,0.1l0,0l0.1,0l0.1,0l0.1-0.1l0.1-0.1l0.2,0l0.2,0l0.1,0.1l0,0.1l0.1,0.2l0.1,0.1l0.1,0  l0.2,0l0.1,0.1l0.1,0.1l0.1,0l0.1,0l0,0.1l0,0.1l0,0.1l0,0.1l0.1,0.2l0.1,0l0.1,0l0.1,0l0.1,0.1l0.3,0.3l0.1,0.2l0.1,0.2l0,0.2  l-0.1,0.4l0,0.2l0,0.1l-0.1,0.1l0,0.1l-0.1,0l-0.1,0l-0.1,0l0.3,0.3l-0.1,0.1l0,0l0,0l0,0l0,0.1l0,0l-0.1,0.1l-0.1,0.3l-0.1,0.1l0,0  l0,0l0.1,0.1l0,0l0,0.1l0,0l0.1,0l0,0l0,0l0,0l0,0l-0.1,0l0,0.1l0,0.1l0,0.1l-0.1,0.1l-0.1,0.2l0,0.1l0,0.2l0.5,0.1l0.1,0.1l0,0.1  l0,0.1l0,0.1l0,0.1l0,0.1l0,0.1l0.1,0.1l0,0.1l0,0l0,0l0,0.1l0,0.2l0,0.1l0,0.1l0,0.1l0,0.1l-0.1,0l-0.1,0l-0.1-0.1l-0.1-0.2  l-0.1-0.1l-0.4-0.1l-0.1,0l0,0.1l0,0l0,0.1l0,0l0.1,0.3l0.1,0.1l0.2,0.1l0.1,0.1l0.1,0l0.1,0l0.1,0l0,0l0,0.1l0,0.1l-0.1,0.3l0,0.1  l0,0.2l0,0l-0.4,0.1l-0.1-0.1l0.1-0.1l0,0l0,0v-0.1l-0.1,0l-0.1,0l-0.1-0.1l-0.1-0.1l0,0l0-0.1l0,0l0,0l0,0l0,0l0,0l-0.1-0.1l0-0.1  l0-0.1l-0.1,0l-0.1,0l-0.7,0.4l-0.5,0.1l-0.1,0.1l0,0.2l-0.2,0l-0.1,0l0,0.2l0,0.1l0,0.1l0,0l0,0.1l0,0l-0.3-0.2l-0.1,0l-0.1,0  l0,0.1l0.2,0.1l-0.1,0.1l-0.1,0.1l0,0.1v0.1l0,0l0,0.1l-0.1,0.1l-0.1,0.1l-0.2,0.1l-0.1,0.2l0,0l0,0l0,0.1l0,0.1l0,0.1l-0.1,0.2  l0,0.1l0,0.2l0,0l0,0.1l0,0.1l-0.1,0.1l0,0.1l0,0.1l0,0.1l-0.1,0.2l-0.1,0.1l-0.1,0l-0.1,0.1l0,0l0,0.1l0,0.1l0,0l-0.1,0l0,0l0,0.1  l0,0.1l0,0.2l0,0h-0.1l-0.2,0.1l0,0l0,0.1l0,0l0,0l-0.1,0l0,0.2l-0.1,0.1l-0.2,0.1l-0.1,0.1l0,0.1l0,0.3l-0.1,0.1l-0.1,0.2l0,0.1  l0,0.1l0,0.1l0,0.1l0,0.1l-0.1-0.1l-0.2-0.1l-0.1,0l-0.1,0.3l0,0.1l-0.1,0.1l-0.2,0.1l-0.1,0l-0.1-0.1l0,0.1l0,0.1l0,0.1h0l-0.1,0.1  l-0.1,0.1l-0.1,0.1l0,0.1l0,0.1l-0.1,0.2l0,0l-0.1,0l0,0l0,0.1l0.1,0.1l0.1,0.2l0.1,0.2l-0.1,0.1l-0.3,0l-0.1-0.1l0,0l0,0l0,0l0,0  l0-0.1l0,0l-0.1-0.1l-0.1,0l-0.1,0.1l0,0.4l0,0.1l0,0.1l0,0.1l0,0.1l0,0.1v0.1l0.1,0.1l0.1,0.1l-0.1,0.1l-0.1,0.1l-0.1,0l-0.1-0.1  l-0.1,0.2l-0.1,0l-0.3,0l-0.1,0l-0.1,0l-0.1,0.1l0,0.1l0,0l0,0l0,0l0,0.1l0,0l-0.2-0.1l0,0l-0.1,0.1l-0.2,0.2l0,0.1l0,0.1l0,0.1  l0,0.1l0,0.1l0,0l-0.1-0.1l-0.1-0.2l0-0.1l-0.1,0l-0.1,0.1l0,0.1l0,0.1l0.1,0l0,0l0,0.1l0,0.1l0,0l0,0l-0.1,0l-0.1-0.1l0,0l0.1,0.1  h-0.3l0.2,0.1l0.1,0.1l-0.1,0.1l-0.1,0.1l-0.1,0.1l0,0.1l0,0l0,0.1v0.1l0,0.1l0,0l0,0l0,0l0,0.1l-0.1,0.1l-0.1,0l-0.1,0l0,0  l-0.1-0.2l0-0.1l0-0.1l0-0.1l0-0.1l-0.1-0.1l0,0l0,0l0,0l0,0.1l0,0l0,0l-0.1-0.1l-0.1,0l0,0l0,0.1l0,0.2l0,0.2l-0.1,0l-0.2,0l0,0  l0,0l0,0.1l0,0l0,0l-0.1,0.1l0.2,0.3l0,0.1l-0.2-0.1l0,0l0,0.1l0,0.1l0,0l0,0.1l-0.1,0.3l0,0l0,0.1l0,0.1l0,0.1l0,0.1v0.1l0,0  l-0.1,0.1l-0.1,0l0-0.2l-0.1-0.1l-0.1,0l-0.1-0.1l0-0.1l0-0.1l0-0.1l-0.1,0l-0.1,0l0,0l0,0.1l0,0.2l0.2,0.2l0.3,0.4l-0.1-0.1l-0.1,0  l-0.1,0l-0.1-0.2l-0.1-0.1l-0.1,0l-0.1,0.1l0,0.2l0,0.1l0,0.1l0.1,0l0.1,0l0,0l0.2,0.3l0.1,0.1l0.1,0.1l0,0.1l0,0.1l0,0.1l-0.1,0.1  l-0.1,0.2l-0.1,0.1l-0.1-0.2h0l0,0.1l-0.1,0.2l-0.2,0.2l0,0l0,0l0,0l0,0l0,0l0,0l0,0l0,0l-0.1,0l-0.1-0.1l0,0l-0.1,0l-0.1,0.1h-0.1  l0-0.1l0-0.1l0,0l-0.1,0.1l0,0.1l0,0.1l0,0.1l0,0.1l0,0.1l0,0l-0.1,0.1l0.1,0.2l0,0.2l-0.3-0.3l-0.1,0l0-0.1l0-0.1l0-0.4l0-0.1  l0-0.1l-0.1,0l-0.2,0.1l-0.1,0l-0.2,0l-0.1,0l-0.2,0.1v0.1l0.1,0l0.1,0l0.1,0l-0.1,0.1l-0.1,0l-0.1-0.1l-0.1-0.1l-0.1,0.2l-0.1-0.1  l-0.2-0.3l-0.1,0l-0.1,0.1l-0.1,0.1l0,0.1l0,0.1l0,0.1l0.2,0.1v0.1l-0.1,0l0,0l0,0.1l0.1,0l0,0.1l0,0.1l0,0.1l0,0.1l0.1,0l0.1,0  l0.1,0l-0.1,0.1l0,0.1l0.1,0.1l0.3,0.3l0.2,0.3l-0.1,0.1l-0.1-0.1l-0.1-0.1l-0.1-0.1l-0.2-0.2l-0.1-0.1l-0.1,0.1l0,0.1h0l0,0l0,0  l0,0.1l0,0l0,0l0,0.1v0.2l0,0.2l0.1,0.3l-0.1,0.1l0,0l0,0.1l0,0.2l0,0.1l0,0.1l0,0.1l0,0.1l-0.1,0.1l0,0.1l-0.1,0l-0.3-0.1l-0.1,0  l-0.1,0.1l0,0.1l0,0.1l0,0.1l0,0.1l-0.1,0.1l0,0l0,0.1l-0.1,0l-0.1-0.1l-0.1,0l-0.1,0.1l0,0.1l0,0.2l0,0.1l0.1,0.1l0,0l0,0l0,0  l0,0.1l0,0.1l-0.1,0.1l-0.1,0.1l-0.1,0l0,0.2l-0.1,0.3l0,0.2l0.1-0.1l0-0.1l0,0l0.1,0.1l0.3,0.1l0.1,0.2l-0.1,0l-0.1,0.1l-0.1,0.1  l-0.1,0.1l0.1,0.2l0,0.1l-0.1,0.1l-0.1,0.1l0,0.1l0,0.2l0,0.2l0,0l0.1,0l0.1-0.1l0,0.2l-0.1,0.3l0,0.1l0.1-0.1l0.1-0.1l0.1,0  l0.1,0.1l0,0l0,0l0,0.1l0,0l0,0l0,0l0,0.2l0,0.2l0,0.1l0.1,0l-0.1-0.1l0-0.1l0.3-0.4l0,0.1l0,0.1l0,0.1l0,0.1l0,0.1l0.1,0l0.2-0.1  l0,0.1l0,0.4l0,0.1l-0.1,0.3l0,0.1l0.1-0.1l0-0.1l0-0.1l0.1,0l-0.1,0.3l0.1,0.1l0,0.1l0,0.1l-0.1,0.1l-0.1,0.1l-0.1,0.1l0,0.1l0,0.1  l-0.1,0.3l-0.1-0.2l0,0.1l0,0.4l0,0.2l-0.2,0.6l0.2,0l0.1,0.1l-0.1,0.2l0.1,0l0.1,0.1l0.1,0l0.2,0l0,0l0,0.1l0,0.1l0,0.1l0.1,0.1  l0,0.1l0,0.1l0,0l0,0.1l0.1,0.1l0.1,0.2l0,0.1l0,0.1l0.1,0l0.1,0l0,0.1l0,0.1l0,0.1l0,0.1l0.1,0.2l0.3,0.2l0.1,0.1l-0.1,0l-0.1-0.1  l-0.1,0v0.1l0.1,0.2l0,0.1l0,0.1l0,0.1l0.1,0.1l0.1,0l0.1,0.1l0.1,0.4l0.1,0.2l0.3,0.3v0.1l-0.1,0l-0.3-0.2l-0.5-0.2l-0.1,0l-0.1,0  l0,0l0,0l0,0.1l0.2,0.2l0.1,0l0.1,0l0.1,0l0,0l0.1,0.2l-0.1,0.1l-0.5-0.1l0.1,0.1l0.3,0.1l0.1,0.1l0.1,0.1l0.1,0.1l-0.1,0.1l-0.3,0  l-0.1,0.1l0.1,0l0.1,0l0.1,0l0.1,0.1l0,0.1l0,0.2l0,0l0,0.1l0,0.1l0,0l0,0l0,0.1v0.1l0,0.2l0,0v0.1h-0.2l0,0.1l0,0l-0.1,0l0,0.1  l0.2,0.1l0.1,0.1l0.1,0.2l-0.1,0l-0.1,0.1l0,0l0,0.1l-0.1,0l-0.1,0l-0.1,0.1h0.1l-0.1,0.1l0,0l0,0l0,0l0,0l-0.1,0.1l0,0l0,0.1l0,0.1  l0,0.2l-0.1,0.1l0,0.1l0.1,0.1l0.1,0.1l-0.1,0l-0.2-0.1l-0.1,0.1l0.1,0l0.1,0.1l0,0.1l-0.1,0l-0.1,0l-0.2-0.1l-0.1,0l0,0.1l0,0.1  l0.1,0.1l0,0l-0.1,0.1l0.1,0.1l0.2,0.4l0,0.1l0,0.1l0,0l0,0l0,0l0,0.1l0,0.1l0,0.1l0,0l0,0l0,0l0,0l0,0l-0.1,0.1l0,0l0.1,0.1l0,0  h0.1l0,0l0,0l-0.1,0.1l-0.1,0l-0.2,0l-0.1,0l0.1,0.2l0,0.1l0,0.1l0,0l0,0l0,0l0.1,0l0.1,0.1l0,0.1l0,0.1l0.1,0l0.1,0l0.1,0.1l0,0  l0,0l-0.1,0l0.1,0.1l0.1,0.1l0.1,0l0.1,0v0.1h-0.2l0,0.1l0,0.1l0,0.1l0,0.1l-0.1,0l-0.3-0.1l0,0l0,0l0,0l0,0l0,0.1l0.1,0.1l0.1,0.1  l0.1,0l0.2,0.2l0,0.1l-0.1,0l-0.1-0.1l0.1,0.1l0,0l0,0l0,0v0.1l0,0l0.1,0.1l0,0l0,0l0.1-0.1l0.3,0l0.1,0v0.1l-0.2-0.1l-0.1,0  l0.2,0.3l0.1,0.2l-0.1,0.1l0.1,0l0.1,0l0.1-0.1l0.1-0.1l0-0.1l0-0.1l0,0l0,0l0-0.1l0-0.1l0-0.1l0.1-0.1l0.2,0l0.1-0.1l0.1-0.1  l0.3-0.2l0,0.1l0,0.1l0,0.1l0.1,0.1l-0.1,0l0,0.1l0,0.1l0,0.1l0,0.2l-0.1,0.2l0,0.1l0.1-0.1l0.1,0l0.2,0.1l-0.1-0.2l0-0.1l0-0.1  l0.1,0l0.1,0l0.1,0l0.1,0l0,0.1l0,0.1l0,0.1h0.2l0,0.1l0,0l0,0l0,0l0,0l0,0l0,0l0,0l0,0.1l0,0l0.1,0.2l0.1,0l0.1-0.1l0.1-0.1l0,0  l0,0.1l0,0.1l0.2,0l0.1,0l0.3,0.2l0.1,0.1l0,0l0.1,0l0.6-0.2l-0.1,0.2l0.3,0l0.2,0l0.2-0.2l0,0.1l0,0.1l-0.1,0.1l-0.2,0.2l0,0.1  l-0.1,0.1l-0.1,0.1l-0.1,0.1l0,0l0,0.1l0,0.1l0,0.1l0,0.1l0.2,0l0.1,0l0.2-0.2l0.1,0l0.2,0l-0.2,0.1l0,0l-0.1,0.2l0,0.1l0.1,0  l-0.2,0.2l-0.1,0.1l0.1,0l0.2-0.1l0.5-0.1l0.6-0.5l0.3-0.1l0.2,0.1l0.1-0.1l0.1-0.2l0.1-0.1l0.1,0l0,0.1l0,0.1l-0.1,0.1l0,0.1l0,0.1  l0,0.1l-0.1,0.1l-0.3,0.3l-0.1,0.1l-0.2,0.4l0,0.1l0,0.1l0,0.1l0,0.1l0.1,0l0.1,0.1l0.1,0l0.1,0l0,0.1l0,0.1l0,0l0.1,0l0,0l0,0  l0-0.1l0-0.1l0.1,0.1l-0.1,0.2l-0.1,0.1l0,0.1l0,0.1l0.1,0.1l0.1,0.1l0.1,0l0.2,0l0.4-0.1l0.2,0.1l-0.1,0.1l-0.1,0.2l-0.1,0.1  l-0.3,0.1l-0.1,0.1l0,0l0,0.2l0,0.1l0,0.1l0,0l0-0.1l0-0.1l0.2,0.1l0-0.1l0,0l0,0l0,0l0,0l0,0l0,0.1l0,0h0.1l0.1-0.2l0.3-0.6  l0.1-0.1l0,0.2l-0.1,0.2l-0.1,0.2l-0.1,0.2l-0.1,0.1l-0.1,0.1l-0.1,0l0,0l0,0l0,0.1l0,0.2l-0.2,0l-0.6,0.3l-0.2,0l-0.1,0l-0.1,0.2  l-0.1,0.1l0.1,0l0.2-0.1l0.1,0l0.1,0l0.2,0l0,0l0.7-0.1v-0.1l-0.1,0l0-0.1l0-0.1l0.1-0.1l0.4-0.2l0.2-0.2l0.1-0.2l0-0.1l0.1-0.1l0,0  l0-0.1l0-0.1l0-0.1l0,0l0.1,0l0-0.1l0-0.1l0-0.1l0,0l0.1-0.1l0,0.1l0,0.1l0,0.1l0,0.1l0,0.1l-0.1,0l-0.1,0l-0.1,0.1l-0.2,0.3l0,0.1  l0.1,0l0.2-0.1l0.3-0.1l0,0l0,0l0,0.1l0.1,0l0.7-0.1l0.1,0.1l0.3-0.3l0.3-0.1l0.1,0l0.1-0.1l0-0.1l0-0.1l0-0.1l0.1,0v0.1l-0.1,0.1  l0,0.1l0.1,0l0.1-0.1l0,0l0,0l0.2-0.1l0,0l0.1,0l0.1,0l0.1,0l0.1,0l-0.1-0.1l0-0.1l0.1,0l0.1,0l0.1,0.1l0.1,0l0,0l0.1-0.1l-0.1-0.1  l0.1-0.1l0.1,0l0.2,0l0,0.1l0,0.1l0,0.1l0,0.1l-0.1,0.1l-0.1,0l0,0.1l0,0.1l0.1,0l0.1-0.1l0.1,0l0,0.1l0.2-0.2l0.1-0.1l0.1,0l0,0.1  l-0.1,0.3l0,0.1l0.1,0l0.1,0l0.1-0.1l0.2-0.2l0.3-0.2v-0.1l-0.1-0.1l0.1-0.1l0-0.1l0-0.1l-0.3,0.1l0-0.1l0.1,0l0.1,0l0.1-0.1l0-0.1  l0,0l-0.1,0l-0.1-0.1l0-0.1l0,0l0.1,0l0.2,0.1l0,0.1l0,0.1l0,0.1l0,0.1l0.1,0l0,0l0-0.1l0-0.1l0,0l0,0l0.1,0l0.2,0l0.1,0l0.1-0.1  l0.1,0l-0.1-0.2l0.1,0l0.1,0.1l0,0.1l-0.1,0l0,0.1l0.1,0l0.3,0l0-0.1l0.1-0.4l0.1-0.1l0.1,0l0,0.1l0,0.1l0,0.1l-0.1,0.1l0.1,0.1  l0.1,0l0,0.1l0,0l0,0l0,0l0,0l0.1,0l0,0l0,0l0,0l0,0l0,0l0,0l0,0l0-0.1l-0.1-0.1l0-0.1l0.2-0.1l0,0l0,0l0,0.1l0.1,0l0.2-0.1l0.1-0.1  l-0.1-0.1l0.1,0l0,0l-0.1-0.1l-0.1-0.1l0-0.1l0.1,0.1l0,0l0,0l0-0.1l0,0l0,0l0.4,0l0.1,0l0,0l0-0.1l0,0l0.2,0l0.1,0.1l0,0.1l0.6,0  l0,0l0,0l0-0.1l0,0l0,0l0,0l0-0.1l0-0.1l0-0.1l-0.1,0v-0.1l0.3-0.1l0.1-0.1l0.1-0.1l0.1-0.1l0.1,0l0.1,0.2h-0.2v0.1l0.1,0.1l0,0  l0,0.1l0,0.1l0,0.1l0.3,0.4l0.1,0.1l0.1,0V431l0.3-0.1l-0.3-0.1l-0.1-0.1l0-0.1l0.1-0.1l0.1,0.1l0.1,0.2l0.1,0l0.1,0l0.1,0l0.1,0.1  l0,0.1l0.1,0.1l0,0.1l0.1,0l0.1,0l0-0.2l-0.1-0.2l0-0.1l0-0.1l0.1-0.2l0-0.2l-0.1,0l-0.1-0.1l-0.1-0.2l0.1,0l0.1,0.1l0.2,0.2l0,0  l0,0l0,0l0,0l0,0l0.1,0l0,0.1l0.2,0.3l0,0.2l0.2-0.1l0,0l0-0.1l0-0.1l0,0l-0.1,0l0-0.1l-0.1-0.1l-0.2-0.1l0-0.1l0-0.1l0,0l0.1,0l0,0  l0-0.1l0-0.1l0-0.1l-0.1-0.1l-0.1-0.1l0-0.1l-0.2-0.1v-0.1l0.1,0l0.1,0.1l0.1,0.1l0.1,0.2l0.1,0l0.1,0.1l0.2,0.2l0,0.1l0,0l0.1-0.1  l0,0l0.4,0.1l-0.1-0.2l-0.1-0.1l0-0.1l0.1,0l0.1,0.1l0.1,0.1l0,0l0,0.1l0,0.1l0.1,0.1l0.1,0.1l0,0l0-0.1l0-0.1l0,0l0,0l0,0l0-0.1  l0-0.1l0.1,0.1l0,0l0,0l0-0.1l0,0l0.1,0l0,0l0-0.1l0.1-0.1l-0.1-0.3l0-0.3l0.5-1l0.1-0.1l0.2-0.1l0.2,0.1l0.1,0.2l0.1,0.3l-0.4-0.3  l-0.2,0l-0.2,0.2l0,0.1l0,0.1l0,0.2l0,0.1l-0.1,0.2l-0.1,0.1l-0.1,0.1l-0.1,0.1l0,0.2l0.1,0.1l0.1,0.1l0.1,0.1l0.1,0l0-0.1l0.1,0  l0.1,0l0.1,0l0.1,0.1l0.1,0.1l0.1,0.1l0.1,0l0,0l0.1-0.1l0,0l0-0.1l0-0.1l0-0.1l0.1-0.1l0.1-0.1l0.1,0l0.1,0l0,0.1l0,0.1l0,0.1  l0.1,0l0.4-0.1l0,0.1l0.1,0.1l0,0l0-0.1l0-0.1l-0.1-0.1l0.2,0l0.1,0l0.1-0.2l0,0l0,0l0-0.1l0-0.1l0,0l0,0l0,0l0,0l0.1,0.1l0,0l0,0  l0-0.1l0,0l0,0l0.1,0.1l0,0l0.1,0l0,0l0,0.1l0.1-0.1l0-0.1l-0.1-0.1l0-0.1l0.1-0.1l0.1,0l0.1,0l-0.1,0.2l0.3,0.2l0.1,0.1l-0.2,0  l-0.1,0l0,0.1l0.1,0l0.3,0l0.2,0.1l0.4,0.3l0.2,0.1l0-0.1l0,0l0,0l0,0l0,0l0-0.1l0,0l0-0.1l0,0l0,0l0.1-0.1l0.3,0.3l0.2,0.1l0-0.1  l0-0.1l0-0.1l0-0.1l0.1-0.1l0.1,0l0.2,0l-0.1,0.1l-0.1,0.1l0,0.1l0.3,0.1l0.1,0l0.1-0.1l0,0l-0.1,0l0,0l0.1,0l-0.1-0.1l0-0.1l0-0.1  l0.1,0l0,0l0-0.1l0,0l0.1,0l0.1,0.1l0.1,0.1l0.1,0.1l0.3-0.4l0.4-0.4l0.7-0.9l0.4-0.3l0.4-0.6l0.6-0.6l0.2-0.1l0.4-0.1l0.2-0.2v0  l0.1-0.2l0.1-0.1l0.2-0.3l0.1-0.2l0.1-0.1l0.2-0.1l0.3-0.3l0.2-0.2l0.6-0.4l0.3-0.3l0.2-0.4l0.1-0.2l0.1-0.2l0.6-0.6l0.1-0.2  l0.1-0.2l0.1-0.1l0.1-0.1l0.3-0.1l0.1-0.1l0.6-0.7l0.1-0.1l0.1-0.3l0.1-0.1l0.5-0.6l1.5-2.3l0,0l0.6-0.7l0.5-0.7l0.1-0.3l0.1-0.1  l0.1-0.1l0.2-0.1l0.4-0.4l0.5-0.3l0.1-0.1l0.1-0.1l0.1-0.3l0.1-0.1l0.6-0.7l0.1-0.2l0-0.1l0.1-0.1l0.2-0.1l0,0h0l0.1-0.1l0.1-0.2  l0.1-0.4l0.1-0.2l0.2-0.3l0.1-0.2l0.2-0.8l0.1-0.4l0.2-0.3l0.4-0.7L-388.9,408.3z"/></svg>