<svg xmlns="http://www.w3.org/2000/svg" xmlns:xlink="http://www.w3.org/1999/xlink" version="1.1" x="0px" y="0px" viewBox="-461 335 100 100" fill="#e0e0e0" style="enable-background:new -461 335 100 100;" xml:space="preserve"><path vector-effect="none" d="M-371.4,382.6l-2.1,1l-0.7,0.6l-0.4,0.8l-0.2,0.9l-0.3,0.7l-0.5,0.7l-1.8,1.9l-0.8,0.4l-0.2,0.2  l-0.1,0.3l0.1,0.6l-0.1,0.2l-0.2,0.2l-0.2,0l-0.2,0l-0.2,0.1l-0.4,0.5l-0.2,0.5l-0.2,1.2l-0.3,0.6l-1.1,1.7l-0.3,0.8l-0.2,0.3  l-0.5,0.3l0,0.2l0.1,0.2l0,0.3l-3.7,6l-0.3,0.3l-0.4,0.2h-0.2l-0.2,0l-0.3,0.1l-0.5,0.5l-0.6,1.3l-1,0.7l-0.2,0.5l0,0.6l0.3,1.2  l-0.1,0.2l-1.7,3.2l-0.1,0.4l0.1,0.3l0.2,0.3l0,0.2l-0.4,0.2l-0.3,0.1l-0.2,0.1l-0.2,0.2l-0.2,0.3l-2.1,4.8l-0.2,0.8l-0.1,0.2  l-0.2,0.2l-0.6,0.2l-0.1,0.1l0.1,0.3l0.4,0.7l0.1,0.3l0,0.4l-0.1,0.2l-0.1,0.2l-0.1,0.2l-0.6,1.2l-0.8,1.1l-1,0.9l-0.6,1.1l-0.4,0.5  l-0.5,0.4l-3.1,1.8l-1.2,0.5l-0.5,0.4l-0.3,0.6l-0.2,0.6l-0.2,0.3l-0.3,0.2l-0.2,0.1l-0.3-0.1l-0.1,0l-0.1,0.1l-0.2,0.3l-0.2,0.1  l-0.6,0.1l-1-0.2l-1.1-0.1l-0.8-0.7l-0.6-0.2h-0.5l-3.3,0.6l-0.4,0l-0.3-0.2l0.2-0.4l0.5-0.4l0.5-0.2l0-0.3l-1.7-1.4l-0.7-1  l-0.2-0.2l-0.4-0.1l-0.1,0.1l-0.1,0.1l-0.7,0.9l-0.3,0.2l-1,0.3l-1,0.7l-0.3,0.1l-1,0l-0.5,0.1l-0.4-0.1l-0.9-0.5l-0.4-0.1l-0.9,0  l-0.4-0.1l-1.8-0.8l-0.8,0l-0.2-0.1l0-0.2l0.3-0.5l0-0.3l-0.3-0.4l-0.4-0.1l-0.5,0.1l-0.5,0.3l-0.3,0.4l-0.3,0.5l-0.3,0.4l-0.3,0.1  l-0.7,0l-0.3,0.4l-0.2,0.5l-0.3,0.3l-0.6,0l-0.3-0.1l-0.1,0.1l0,0.7l-0.2,0.5l-0.5,0.3l-1.1,0.4l-0.1,0.1l-0.3,0.3l-0.2,0l-0.1,0  l-0.3-0.2l-0.1,0h-0.6l-0.2,0.1l-0.2,0.4l-0.4,1.1l-0.4,0.4l-0.6,0.1l-0.4-0.1l-0.2-0.2l-0.9-1.1l-0.1-0.1l-0.4,0l-0.5,0.1l-0.5,0.1  l-0.5,0.1l-1.4-0.2l-0.2-0.1l-0.3-0.2l-0.7-0.6l-0.4-0.2l-0.2,0l-0.2,0l-0.4,0l-0.2-0.1l-0.4-0.2l-0.2-0.1l-1.2-0.1l-0.4-0.2  l-0.5-0.6l-1-0.7l-0.1-0.3l0.6-0.1l-0.5-0.5l-0.6-0.4l-0.6-0.2l-0.7-0.1l0.4-0.5l0.4-0.1l0.9,0.3l0.5-0.1l0.3-0.2l0.7-1.8l0.3-0.2  l0.3-0.1l0.6,0l0.4-0.1l0.3-0.1l1.3-1.3l0.5-0.7l1.1-2.7l1-1.9l2-2.7l0.2-0.4l0.4-1.3l0.2-0.2l0.3-0.2l-0.4-0.3l-0.2-0.2l-0.1-0.2  l0-0.3l0.1-0.3l0.4-0.5l0.1-0.1l0.2-0.8l0-0.4l-0.1,0l-0.3-0.3l-0.1-0.4l0.3-0.2l0.1-0.2l0-0.4l-0.2-0.7l-0.1-0.1l-0.3-0.2l0,0  l0.1-0.1l0.1-0.1l0.1-0.1l0.1-0.1l0.1-0.6l-0.1-0.6l-0.3-0.4l-0.6,0.1l0.6-1.4l0.4-0.6l1-1.2l0.7-1.1l0.9-0.7l0.3-0.5l0.2-0.5  l0.1-0.5l0.1-0.4l1-1l0.4-1.1l-0.1-2l0.2-1.2l0.2-0.6l0-0.4l-0.2-0.3l-0.4-0.4l-0.3-0.1l-0.3,0l-0.3,0.1l-0.3,0l0-0.2l-0.6-1  l-0.6-1.9l-0.3-0.3l-0.6-0.8l-0.3-0.2l-0.9-0.3l-0.3-0.1l-0.2-0.1l-0.3-0.3l-0.3-0.5l-0.2-0.3l-0.1,0l-0.1-0.2l-0.5-0.3l-0.7-1.3  l-0.2-0.2l-0.4-0.3l-0.2-0.2l-0.3-1l-0.2-0.3l-0.9-0.8l-0.3-0.5l0-0.7l0.1-0.4l0.4-0.9l0.1-0.4l-0.1-0.6l-0.3-0.2l-0.9-0.3l-0.3-0.2  l-0.3-0.4l-0.1-0.5l0.3-0.5l0.2-0.5l0-0.7l-0.3-1.2l-0.8-1.7l-0.5-2.9l0.1-0.7l0.5-1l0.1-0.5v-1.1l0-0.3l-0.4-0.9l0-0.7l0.1-0.5  v-0.5l-0.3-0.5l-0.3-0.1l-0.3-0.1l-0.2-0.1l-0.1-0.4v-3.4l-0.2-0.4l0-0.3l0.1-0.3l0.7-0.5l0.1-0.1l0-0.4l-0.2-1.1l0.1-0.5l0.2-0.4  l0.5-0.8l1.5-1.7l0.1-0.2l0.1-0.3l0.1-0.2l0.4-0.3l0.2-0.2l0.3-1.1l0.6-0.8l1.2-1.2l2.1-1.5l0.6-0.6l0,0l0.9-0.3l0.8-0.6l0.7-0.7  l0.5-0.8l0.7-1.9l0.6-0.9l0.1-0.5l0.2-3l0.3-1.1l0.6-0.9l0.5-0.3l1-0.5l0.4-0.4l0.3,0l1.4,0.3l0.5,0.2l0.2,0.2l0.3,0.5l0.9,0.4  l0.3,0.1l0.3,0.1l0.8,0.7l0.3,0.3l3.3,1.2l1,0.5l0.7,0.6l0.7,0.6l0.4,0.2l3,0.8l0.6,0l1.7-0.3l0.5,0.1l0.7,1l0.5,0.4l0.6-0.2  l0.3-0.3l0.1-0.2l0.1,0l0.4,0l0.3,0.1l0.1,0.1l0.3,0.2l1.8,0.9l1,0.3l1.1,0.2l-0.2-0.5h0.5l0.7,0.2l0.9,0.1l0.7,0.4l1.1,0.9l2.1,3.3  l3.1,2.3l3.8,3.6l0.3,0.1l0.1,0.1l0,0.2l0,0.2l0,0.1l0.1,0l0.3,0l0.1,0l0.7,0.4l2.1,1.8l0.6,1l-0.2,1.1l0.5-0.3l0.7-1l0.6-0.2  l0.6,0.1l0.6,0.4l0.4,0.5l0.1,0.5l-0.5,0.9l-1,1.3l-0.8,1.3l0.1,1h0.2l0.1-0.4l0.2-0.3l0.2-0.2l0.1-0.2l0.1-0.7l0.2-0.7l0.4-0.5  l1.2-0.7l0.3-0.5l0.5,0.2l0.6,0.5l0.4,0.6l0.2,0.5l0.3,0.4l1.8,1l0.9,0.7l1,1l0.8,1.1l0.3,1.1l0.1,1.1l0.6,2.1l0.1,1.1l-0.3,1.2  l-0.7,0.6l-0.9,0.5l-0.7,0.9l1.7-0.5l0.9-0.5l0.4-0.6l0.1-0.3l0.3-0.7l0-0.5l-0.2-3.9l0.2-1l0.4-0.8l0.3-0.2l0.4-0.1l0.5,0.1  l0.5,0.2l1.3,1.2l0.2,0.3l-0.2,0.3l0.7,1l0.2,0.6l0,0.6l0.1,0.8l0.3,0.5h0.5l-0.1,0.3l-0.1,0.2l-0.1,0.1l-0.1,0l0,0.2l0.1,0.4  l0.2,0.4l0.5,0.1l0.4,0.1l0.2,0.2l-0.1,0.4l-0.2,0.2l-0.2,0.3l-0.1,0.5l0.1,0.5l0.2,0.4l1.1,1.6l0.3,0.7l0.2,0.7l0.1,1l-0.1,0.8  l-0.5,1.7L-371.4,382.6"/></svg>