<svg xmlns="http://www.w3.org/2000/svg" xmlns:xlink="http://www.w3.org/1999/xlink" version="1.1" x="0px" y="0px" viewBox="-461 335 100 100" fill="#e0e0e0" style="enable-background:new -461 335 100 100;" xml:space="preserve"><polygon points="-361.8,383.8 -362.1,383.6 -362.9,383.1 -363.2,382.9 -363.4,382.6 -363.6,381.9 -363.7,381.6 -364.3,381.2   -365.1,380.8 -365.9,380.5 -366.6,380.4 -367.1,380.4 -367.8,380.8 -368.2,381 -368.5,381.1 -369.1,381 -369.4,381 -370.1,381.2   -371.6,382 -373.6,382.4 -374.2,382.7 -376,383.8 -378,384.5 -378.6,384.7 -379.2,384.6 -380,384.2 -382.6,382.3 -383,381.9   -383.2,381.5 -383.6,380 -384,379.4 -384.4,378.8 -385,378.3 -386.5,377.6 -387.8,377.5 -389.2,377.9 -391.2,379 -391.6,379.1   -392.1,379 -393.5,378.1 -393.7,377.9 -394.3,375.7 -394.6,375.1 -395.1,374.5 -396.2,373.5 -397.4,373.1 -400.8,373 -402.8,372.2   -403.5,372.2 -405.9,373.1 -408.4,374.7 -409.1,374.8 -409.4,374.6 -410,373.8 -410.4,373.5 -411.8,373.3 -413.3,373.8   -414.7,374.9 -415.8,376 -416.1,376.6 -416.5,377.3 -416.7,378 -416.9,378.7 -416.9,380.1 -417.5,380.2 -419.1,380.2 -421.1,380.2   -423.2,380.2 -425.3,380.2 -427.3,380.2 -429.4,380.2 -431.5,380.2 -433.5,380.2 -435.6,380.2 -437.6,380.2 -439.7,380.1   -441.8,380.1 -443.8,380.1 -445.9,380.1 -448,380.1 -450,380.1 -452.1,380.1 -451.9,380.4 -451.7,380.9 -451.6,381.4 -451.9,382.9   -451.9,383.6 -451.9,383.7 -451.5,383.9 -451.3,384.3 -450.7,384.7 -450.6,384.9 -450.5,385.2 -450.2,385.9 -450.1,386.4   -450.2,386.7 -450.6,387.5 -450.8,387.8 -449.7,387.9 -447.1,388.5 -446.4,388.6 -445.3,388.6 -444.1,388.4 -443.5,388.1   -443.6,388 -443.8,387.9 -443.9,387.8 -443.9,387.6 -443.8,387.6 -443.5,387.4 -443.7,387 -443.6,386.7 -443,386.2 -442.9,386.6   -443,387 -443.1,387.4 -443,387.6 -442.8,387.8 -442.5,387.7 -442.3,387.5 -442,387.4 -441.7,387.2 -440.3,385.8 -439.4,385.1   -438.8,384.7 -438.1,384.6 -437.5,384.7 -436.4,385.1 -425.8,384.3 -424.6,383.9 -423.1,383.1 -422.5,383 -422,383 -421.1,383.5   -420.5,383.4 -420.2,383.2 -419.7,382.6 -419.3,382.3 -418.7,382.1 -418.3,382.2 -417.9,382.4 -417.4,382.5 -417.3,382.6   -417.1,382.7 -416.8,382.9 -416.5,383 -416.3,382.9 -416,382.8 -415.7,382.7 -415.4,382.9 -414.6,383.6 -414,384 -413.6,384.1   -413,384.2 -411.9,384.5 -411.3,384.6 -410.9,384.5 -410.6,384.2 -410.3,383.7 -410.3,383.2 -410,383.2 -410.3,384.6 -411.5,385.1   -413,385 -414.1,384.6 -414.5,384.3 -414.8,383.8 -415.2,383.4 -415.8,383.2 -416.1,383.3 -416.5,383.4 -416.8,383.5 -417.2,383.3   -417.5,383.1 -417.9,382.9 -418.3,382.7 -418.7,382.8 -419,383 -419.5,383.8 -419.8,384.1 -420.2,384.4 -420.5,384.5 -420.8,384.6   -421.3,384.6 -421.6,384.5 -422.1,384 -422.4,383.9 -422.7,384 -423.4,384.4 -423.7,384.6 -425.6,385.2 -426.3,385.3 -428.4,385   -429.2,385.1 -429.3,385.1 -429.4,385.3 -429.6,385.4 -429.8,385.5 -430.1,385.6 -430.3,385.6 -430.5,385.6 -430.9,385.5   -431.5,385.6 -433.3,386 -437.9,385.8 -438.5,385.5 -438.8,385.5 -438.9,385.6 -439,386 -439.3,386.3 -440.6,387.4 -440.9,387.8   -441,388.4 -441,388.7 -440.9,389 -440.8,389.2 -440.7,389.3 -440.4,389.4 -440.4,389.7 -440.4,390.1 -440.2,391 -440.1,391.2   -439.7,391 -439.5,390.7 -439.2,390.6 -438.8,390.4 -438.5,390.4 -438.5,390.6 -439.6,391.3 -440.4,391.5 -441,391.4 -441.1,390.7   -440.9,390 -441.1,389.3 -442,389 -442.7,389.2 -443.9,390 -444.5,390.2 -445.1,390.5 -445.5,390.9 -445.9,391.1 -446.2,390.4   -446.6,390.6 -447.1,390.7 -448.1,390.6 -448.1,390.9 -447.6,390.8 -447.2,391 -447,391.2 -446.9,391.7 -446.8,391.8 -446.2,392.4   -446,392.7 -446.4,392.4 -446.7,392.4 -447.4,393 -447.2,392.5 -447.2,391.9 -447.4,391.4 -447.7,391.1 -448.4,391.1 -448.7,390.9   -449,390.7 -449.4,390.4 -449.9,390.3 -451.6,390.2 -451.8,390 -453.1,388.5 -453,388 -453.2,387 -453.7,386 -454.2,385.5   -453.8,385.1 -453.2,385.1 -452.9,385 -453.1,384.4 -453.4,384 -453.9,383.8 -454.5,383.8 -455.1,384.1 -455.4,384 -455.7,383.8   -455.9,383.5 -456,383.2 -456.8,383.9 -458.8,386.3 -459.2,386.6 -459.6,386.8 -460,386.9 -460.3,387.1 -460.7,388.2 -461,388.5   -460.7,389.3 -460.6,389.5 -460.8,390 -460.7,390.5 -460.1,391.1 -459.9,391.6 -459.9,392 -459.9,393.6 -459.9,394 -459.3,395.7   -459.2,396.2 -459.4,396.7 -459.6,397 -459.5,397.2 -459,397.4 -458.5,397.8 -458.4,397 -458.3,396.6 -458.1,396.4 -457.6,395.9   -457.5,395.5 -457,394.7 -455.8,394.4 -454.4,394.5 -448.9,394.5 -443.9,394.6 -436.5,394.6 -432.2,394.7 -429.2,394.7   -427.9,394.7 -427.7,394.5 -427.6,392.1 -427.6,389.2 -427.4,388.7 -427.1,388.5 -424.7,388.3 -423.2,387.8 -422.8,387.8   -420.6,388 -420,387.9 -419,387.6 -418.3,387.2 -417.5,386.9 -416.5,386.9 -412.8,387.7 -411.6,387.7 -410.5,387.5 -409.4,387.1   -408.5,386.5 -407.8,385.6 -407.6,384.7 -407.5,382.6 -407,381.8 -405.6,380.3 -404.8,380 -403.9,380.6 -402.4,382 -400.8,383.2   -400.8,383.2 -400.7,383.2 -400.7,383.2 -398.6,384.3 -397.4,384.6 -396.2,384.7 -395.7,384.9 -394.6,385.5 -394,385.7   -393.3,385.9 -392.9,386.1 -392.3,387 -391.3,387.8 -390.2,388.3 -389,388.5 -387.8,388.3 -386.7,388 -386.3,388.2 -385.1,389.3   -384.6,389.6 -384.1,389.7 -383.1,389.8 -382.6,389.9 -382.3,390.3 -382,390.6 -381.7,390.9 -381.4,391.1 -380.1,391.8 -379.3,392   -378.4,392.1 -376.5,391.9 -374.7,392.3 -373.7,392.2 -373,391.9 -371.4,390.7 -370.9,390.4 -370.3,390.5 -368.9,389.9   -367.6,389.9 -366.2,389.6 -363.7,389.3 -362.1,388.6 -361.1,387.2 -361,385.5 "/></svg>