<svg xmlns="http://www.w3.org/2000/svg" xmlns:xlink="http://www.w3.org/1999/xlink" version="1.2" baseProfile="tiny" x="0px" y="0px" viewBox="0 0 100.002 100" fill="#e0e0e0" xml:space="preserve"><g><path d="M19.767,20.493l0.145,0.072l0.047-0.015l0.12-0.063l0.081-0.014l0.069,0.026l0.104,0.125l0.071,0.042l-0.055-0.129   l-0.059-0.081l-0.07-0.049l-0.088-0.035v-0.084l0.147-0.036l0.28-0.121l0.18-0.027l-0.107-0.211l-0.301,0.023l-0.612,0.188   l-0.094,0.073l0.03,0.159L19.767,20.493z M22.741,18.89l-1.096,0.142l-0.297,0.147l1.702-0.192L22.741,18.89z M24.741,18.661   l0.374-0.151l0.023,0.001l0.012-0.016l-0.003-0.064l-0.911-0.02l-0.434,0.073L23.433,18.7l0.325,0.091L24.741,18.661z    M25.75,18.524l0.063-0.018l0.026-0.021l0.026-0.053l-0.104-0.084l-0.154-0.034l-0.164,0.025l-0.133,0.093l0.118-0.007   L25.75,18.524z M31.502,18.567l0.044,0.032l0.07,0.018l0.039-0.028l0.129-0.125l0.079-0.033h0.116l-0.17-0.123l-0.182-0.029   l-0.159,0.07l-0.1,0.174v0.093l0.084-0.057L31.502,18.567z M26.238,18.442l0.234-0.011l0.023-0.238l0.272-0.067l0.586,0.018   l0.021-0.011h0.019l0.013-0.013l-0.005-0.06l-0.161-0.099l-0.719,0.007l-0.245,0.009l-0.099,0.062l-0.041,0.155l0.027,0.184   L26.238,18.442z M27.807,18.026l0.07-0.053l0.072-0.105l0.197,0.13l0.231-0.013l0.226-0.097l0.18-0.113h0.115v-0.092l-0.68-0.046   l-0.337,0.075l-0.205,0.257l0.063,0.057H27.807z M29.4,17.612l0.145-0.008l0.338,0.079l0.086-0.012l0.077,0.015l-0.214-0.13   l-0.12-0.039l-0.132-0.012l-0.168,0.019l-0.143,0.053l-0.036,0.086l0.156,0.112L29.4,17.612z M57.797,15.164l0.13,0.007   l0.118-0.099l-0.035-0.188l0.044-0.115l0.065,0.001l0.034,0.159l-0.053,0.238l0.006,0.095l0.1-0.003l0.086-0.128l0.236-0.71   l-0.239-0.111l-0.333,0.109l-0.291,0.25l-0.118,0.311l0.122,0.107L57.797,15.164z M58.862,13.953l0.105-0.22l0.372-0.342   l0.136-0.193l-0.11,0.11l-0.548,0.263l-0.043,0.102v0.032l0.043,0.248H58.862z M76.66,12.637l0.1,0.153l0.328,0.347l0.071,0.209   l-0.047,0.358l-0.217,0.451L76.83,14.42l0.162,0.063l0.112-0.111l0.119-0.159l0.256-0.115l0.07-0.05l0.061,0.018l0.041,0.167   l-0.021,0.088l-0.063,0.081l-0.062,0.113l-0.017,0.184l0.279-0.106l0.049-0.028l0.024-0.102l0.06-0.106l0.072-0.084l0.067-0.039   v-0.101l-0.071-0.171l0.082-0.104l0.16-0.035l0.158,0.038l0.129,0.102l0.107,0.145l0.09,0.183l0.064,0.223l0.186-0.078l0.111,0.227   l0.014,0.364l-0.103,0.335l0.064,0.177l-0.272-0.085l0.014-0.076l0.021-0.05l0.031-0.036l0.042-0.032l-0.323-0.001l-0.104,0.055   l-0.125,0.225l0.011-0.216l0.063-0.267l-0.021-0.076l0.057-0.101l-0.145-0.059l-0.404-0.025l-0.021,0.349l0.299,0.567l-0.059,0.394   l-0.074,0.081l-0.279,0.161l-0.26,0.057l-0.166,0.128l-0.104,0.039l0.147,0.202l0.283,0.085l0.508-0.008l0.461-0.124l0.234-0.137   l0.188-0.212l0.135,0.095l0.18,0.027l0.912-0.105l-0.063-0.213l-0.142-0.172l0.076-0.023l0.066-0.046l0.137-0.367l0,0l-0.005-0.002   l-0.138-0.102l-1.412-1.555l-0.245-0.153l-0.304-0.117l-0.53-0.311l-0.214-0.218l-0.096-0.177l-0.164-0.448l-0.069-0.132   l-0.151-0.063l-0.148,0.058l-0.123,0.132L76.66,12.637z M29.521,12.165l0.026,0.061l0.033,0.011l0.012,0.057l0.04-0.03   l-0.028-0.141l-0.05-0.055l-0.118,0.01l0.05,0.044L29.521,12.165z M29.867,12.133l-0.028-0.074L29.698,12.1l0.042,0.073   L29.867,12.133z M36.939,8.113l0.09,0.155l0.165,0.06l0.349-0.027l0.188-0.097l0.116-0.155l0.102-0.17l0.148-0.143l-0.008-0.077   l0.003-0.062l0.017-0.042l0.039-0.017l-0.354-0.094l-0.318,0.019l-0.282,0.129l-0.255,0.246l0.064,0.064l0.038,0.084l-0.015,0.078   L36.939,8.113z M54.688,8.433l0.043,0.002l0.027,0.057l0.025,0.101h0.061l0.062-0.082l0.086-0.027l0.211,0.007l0.114,0.043   l0.037,0.108l-0.015,0.28l0.091,0.113l0.211,0.035l0.323-0.021l-0.034-0.024l-0.037-0.057l0.146-0.083l1.011,0.17L56.58,8.159   l-0.125-0.232l-0.063-0.085l-0.205-0.177L55.5,7.368l-0.39,0.066l-0.314,0.31l-0.227,0.557l0.023,0.19L54.688,8.433z M35.39,7.341   l-0.146,0.113l-0.048,0.222l0.082,0.199l0.102,0.092l0.181,0.003l0.229-0.132l0.186-0.295l0.065-0.339l-0.017-0.149l-0.517,0.221   l-0.058,0.037L35.39,7.341z M71.166,8.009l0.017-0.139l0.026-0.135l0.049-0.107l0.115-0.099l0.06-0.077l0.075-0.288l0.009-0.268   l0.047-0.227l0.195-0.162v0.282h0.053V6.601l0.03,0.003l0.022,0.03l0.005,0.015l0.002-0.154l-0.05-0.081l-0.092-0.016l-0.11,0.006   l-0.132,0.035l-0.057,0.098l-0.056,0.35l-0.252,0.908l-0.022,0.318v0.188h0.055L71.166,8.009z M73,7.594l-0.033-0.099l-0.043-0.182   l-0.094-0.07l-0.095-0.038l-0.043-0.083L72.56,7.091l-0.617,0.091l-0.185,0.089h0.073l0.051,0.032l0.031,0.071l0.01,0.12   l0.018,0.107l0.037,0.032l0.037,0.01l0.019,0.044l0.063,0.063l0.144-0.017l0.237-0.094l0.008,0.098l-0.014,0.044l-0.027,0.023   l-0.026,0.033l0.063,0.122l0.098,0.066l0.225,0.086l-0.052,0.063l-0.049,0.027l-0.011,0.003v0.094l-0.164,0.031l-0.243,0.128   l-0.218,0.055l-0.061,0.073l-0.139,0.288l0.355-0.094l0.082,0.035l0.051,0.075l0.061,0.067l0.109,0.01v0.086L72.49,9.198   l0.04,0.135l0.095,0.093l0.127,0.014l-0.237,0.164l-0.111,0.021L72.31,9.534l-0.057,0.094l-0.245-0.162l-0.202,0.093l-0.16,0.244   l-0.109,0.296l0.498,0.383v0.086l-0.123-0.051l-0.105,0.04l-0.051,0.093l0.057,0.106l0.08-0.009l0.246-0.121l0.116,0.035   l-0.044,0.176l0.087,0.118l0.142,0.069l0.117,0.022l0.053,0.04l0.074,0.081l0.08,0.054l0.071-0.039l0.058-0.048l0.086-0.019   l0.16,0.016l-0.021-0.047l-0.032-0.038l0.049-0.071l0.054-0.056l0.119-0.07l-0.084,0.211l-0.043,0.162l-0.064,0.072l0.285,0.187   l0.254,0.091l0.229,0.036l0.127-0.063l0.017-0.144l-0.06-0.313l-0.055-0.025l-0.384,0.067l0.013,0.014h0.022l0.017,0.018   l-0.002,0.07l-0.109,0.094l0.031-0.367l0.177-0.093l0.196-0.042l0.094-0.209l0.091-0.144l0.426-0.376l0.145-0.091l0.799-0.094   l0.092,0.052l0.063,0.091l0.067,0.032l0.107-0.128l0.08-0.057l0.111-0.01l0.217,0.021v0.094l-0.152,0.063l-0.441,0.312l0.158-0.108   l0.188-0.058l0.418-0.029l-0.066,0.158l-0.123,0.098l-0.299,0.128v0.093l0.098,0.045l0.13-0.001l0.124-0.047l0.082-0.089h0.056   l0.032,0.147l-0.032,0.092l-0.075,0.042h-0.094l0.174,0.063l0.084,0.008l0.025-0.086v-0.218l0.031-0.224l0.08-0.179l0.104-0.13   l0.106-0.077l-0.196-0.077l-0.138-0.18l-0.215-0.392l-0.168-0.122l-0.38-0.092l-0.165-0.087l-0.084-0.122l-0.09-0.206l-0.072-0.241   l-0.029-0.232l0.076-0.202l0.179-0.172l0.354-0.239l0.211-0.334l-0.057-0.36l-0.243-0.27L75.399,6.6l-1.043,0.201l-0.336-0.114   l-0.136-0.113L73.78,6.421l-0.07-0.197l-0.023-0.246l0.063-0.196l0.146-0.129l0.166-0.095l0.125-0.1V5.372l-0.213-0.116   L73.748,5.26l-1.104,0.322L72.549,5.65l-0.085,0.093l-0.046,0.094l-0.004,0.161l0.052,0.015l0.116-0.083l0.358-0.093l0.024,0.059   l-0.017,0.129l-0.035,0.13l-0.023,0.06l-0.113,0.104l-0.104,0.233l-0.057,0.255l0.028,0.164l0.16,0.051l0.146-0.109l0.137-0.149   l0.188-0.113l0.132-0.18l0.063-0.067l0.106-0.09l0.019,0.056l0.094,0.138l0.055,0.098l0.025,0.09l0.051,0.068L73.94,6.79   l0.076,0.044l0.056,0.099l0.043,0.098l0.043,0.044l0.276,0.015l0.088-0.015l0.059-0.048l0.051-0.075l0.064-0.059l0.1-0.006v0.085   l-0.066,0.014L74.696,7.01l-0.025,0.03l-0.046,0.035v0.094l0.063,0.079l0.043,0.099l0.063,0.192V7.64L74.74,7.685l-0.039,0.057   l-0.076,0.183l0.06,0.104l-0.414,0.01l-0.201-0.073l-0.158-0.23l0.051-0.209l-0.094-0.189l-0.143-0.181l-0.091-0.185l-0.108,0.103   v0.094l0.07,0.021l0.076,0.062l0.067,0.021l-0.05,0.153l-0.069,0.087l-0.095,0.033L73.412,7.54l0.073-0.201l0.041-0.066   L73.49,7.208l-0.039-0.033l-0.043-0.008l-0.052,0.001l0.069-0.077l0.06-0.122l0.091-0.282L73.44,6.74l-0.151,0.115l-0.146,0.154   l-0.115,0.16l0.063,0.215l-0.028,0.158L73,7.594z M33.246,4.984l0.021-0.016l0.024,0.003l0.011-0.016L33.301,4.89l-0.177,0.065   L32.98,5.113l-0.232,0.44l0.159,0.217l0.152,0.277l0.188,0.172l0.274-0.099l0.11-0.095l-0.153-0.086l-0.401-0.758l0.081-0.105   L33.246,4.984z M34.305,5.262l0.209-0.08l0.069,0.059l0.122,0.048l0.136,0.016l0.111-0.035l0.066-0.095l0.093-0.267l0.066-0.111   V4.7l-0.143-0.249L34.85,4.339l-0.446-0.027l-0.27,0.022l-0.22,0.088l-0.181,0.177L33.575,4.89l0.469,0.292L34.305,5.262z    M86.832,51.216l-0.028-0.04l0.04-0.371l-0.116-0.252l-0.183-0.214l-0.147-0.262l-0.022-0.088l-0.035-0.23v-0.013l-0.048-0.544   l-0.029-0.34l0.066-0.161l-0.082-0.177l-0.148-0.156l-0.125-0.099l-0.184-0.087l-0.377-0.111l-0.184-0.105v-0.001l-0.17-0.121   l-0.525-0.177l-0.178-0.186l-0.025-0.137l-0.02-0.092l0.065-0.25l0.156-0.249l0.096-0.258l-0.014-0.34l-0.079-0.329l-0.104-0.223   l-0.392-0.325l-0.181-0.213l-0.084-0.329l-0.031-0.342l-0.111-0.15l-0.146-0.101l-0.131-0.202l-0.024-0.275l0.106-0.225l0.461-0.47   l0.146-0.198l0.124-0.234l0.069-0.254l0.027-0.794l0.043-0.127l0.174-0.316l0.035-0.123l0.014-0.12l0.025-0.117l0.063-0.111   l0.148-0.185L84.245,40l-0.08-0.187l0.049-0.339l0.086-0.238l0.031-0.187l-0.117-0.183v-0.081l0.158-0.208l0.002-0.268l-0.125-0.23   l-0.225-0.098l-0.229-0.054l-0.272-0.14l-0.181-0.203l0.05-0.238l-0.17-0.382l-0.19-0.573l-0.046-0.522l0.418-0.367l0.193-0.31   l0.133-0.308l-0.037-0.142l-0.148-0.136l0.063-0.307l0.226-0.474l-0.25-0.205l-0.047-0.052l-0.468-0.525l-0.479-0.191l-0.229-0.316   l-0.153-0.071l-0.084-0.082l-0.274-0.543l-0.125-0.146l-0.854-0.63l-0.22-0.118l-0.262-0.311l-0.162-0.071l-0.178-0.014   l-0.17-0.052l-0.139-0.11l-0.094-0.187l0.215-0.186l0.082-0.161l0.033-0.251l-0.019-0.167l-0.099-0.471l-0.049-0.134v-0.083   l0.389-0.29l0.49-0.256l0.474-0.377l0.247-0.259l0.107-0.242l0.021-0.111l0.242-0.757l-0.019-0.193l-0.047-0.19l-0.028-0.216   l0.021-0.179l0.06-0.163l0.078-0.119l0.086-0.046l0.059-0.088l0.209-0.414l-0.104-0.096l-0.032-0.075l-0.121-0.104l-0.049-0.086   l-0.024-0.131l-0.007-0.244L81.849,24l-0.056-0.253l-0.168-0.783l-0.084-0.697l-0.169-0.285L81.289,21.7l-0.197-0.302l-0.057-0.278   l-0.007-0.299l0.021-0.494l-0.016-0.134l-0.168-0.526l-0.121-0.265l0.031-0.211l-0.01-0.38V18.81l-0.062,0.008L80.576,18.8   l-0.117-0.041L80.356,18.7l0.377-0.27l0.063-0.101l-0.023-0.22l-0.114-0.113l-0.13-0.024l-0.061,0.041l-0.096,0.188l-0.227,0.068   L79.5,18.223l-0.099-0.04L79.2,18.061l-0.059-0.015l-0.195,0.015l-0.029-0.029l-0.13-0.163l-0.269-0.062l-0.59-0.495l-0.087,0.018   l-0.13-0.116l-0.119-0.172l-0.051-0.148l-0.066-0.05l-0.148-0.035l-0.151-0.074l-0.071-0.167l0.084-0.175l0.576-0.476l0.09-0.128   l0.051-0.153l-0.014-0.129l-0.101-0.056l-0.045-0.006l-0.052-0.02l-0.049-0.03l-0.043-0.036l-0.026-0.011l-0.114,0.011   l-0.031-0.022l0.002-0.054l0.01-0.062l-0.008-0.049L77.41,15.11l-0.024-0.1l-0.035-0.093l-0.057-0.04l-0.229-0.096l-0.047-0.036   l-0.084-0.138l-0.231-0.299l-0.099-0.075l0.22-0.135l0.098-0.24l0.065-0.264l0.115-0.201V13.3l-0.638-0.536l-0.245-0.127v-0.085   l0.081-0.021l0.052-0.043l0.015-0.06l-0.036-0.071l-0.229,0.077l-0.41,0.281l-0.238,0.11l-0.992,0.195v0.094l0.064,0.061   l0.092,0.157l0.066,0.062v0.094l-0.189-0.003l-0.148-0.099l-0.117-0.163l-0.103-0.203l-0.116-0.313l-0.045-0.069l-0.072-0.02   l-0.053,0.045l-0.06,0.033l-0.095-0.058l0.063-0.058l0.04-0.063l0.063-0.16l-0.16-0.063l-0.299,0.154l-0.199,0.001l0.094-0.099   l0.126-0.088l-0.22-0.192l-0.266-0.545l-0.205-0.113l-0.281-0.067l-0.418-0.239l-0.264,0.025l0.09-0.06l0.056-0.022l0.073-0.002   v-0.102h-0.358l-0.09-0.047l-0.021-0.116v-0.149l-0.023-0.15l-0.229-0.371L71.226,9.9l0.151-0.271l-0.096-0.093l-0.349-0.18   L70.836,9.22l-0.062-0.174l0.004-0.166l0.103-0.099L70.677,8.72l-0.318,0.12L70.04,9.046L69.832,9.25l-0.069,0.136L69.679,9.61   L69.61,9.721l-0.092,0.081l-0.08,0.024l-0.154-0.01l-0.08,0.018l-0.03,0.015l-0.028-0.025l-0.139-0.175L68.955,9.56l-0.038-0.099   l-0.021-0.106l-0.07,0.101L68.746,9.52l-0.088,0.003L68.563,9.44l-0.088,0.106l-0.091-0.043l-0.083-0.122l-0.07-0.131l-0.028,0.11   l-0.036,0.092l-0.102,0.176l0.021-0.172l0.047-0.157l0.082-0.11l0.121-0.032V9.055l-0.104-0.01l-0.099,0.012L68.04,9.095   l-0.084,0.062l0.018,0.048l0.021,0.104l0.019,0.047l-0.438,0.249l-0.24,0.063l-0.149-0.134v0.094l-0.065-0.051l-0.056-0.004   l-0.147,0.056v0.094l0.051,0.013l0.108,0.082l-0.521,0.251l-0.137,0.116l-0.018,0.057l-0.008,0.173l-0.025,0.068l-0.033,0.026   l-0.089,0.028l-0.048,0.032l-0.2,0.197l-0.076,0.119l-0.053,0.162l0.164,0.145l0.096,0.046l0.125-0.004l-0.173,0.107l-0.194-0.051   l-0.352-0.244l0.09-0.109l-0.017-0.121l-0.066-0.146l-0.057-0.188l0.132-0.03l0.102-0.119l0.039-0.163l-0.053-0.165l0.055-0.094   l0.058,0.05l0.047,0.021l0.115,0.023l-0.047-0.216l0.053-0.211l0.107-0.16l0.133-0.062l0.291,0.027l0.157,0.081l0.132,0.166   l0.071-0.159l0.146-0.098l0.174-0.016l0.154,0.084l-0.002-0.06l0.01-0.017l0.022-0.001l0.029-0.006l-0.066-0.01l-0.051-0.017   l-0.034-0.053l-0.014-0.118l0.052-0.013l0.07-0.063l0.043-0.026l0.049,0.102l0.049-0.184l0.078-0.043l0.209,0.039h0.163   l0.046-0.034l0.086-0.125l0.063-0.028l0.213,0.028l0.343,0.129l0.86,0.075l0.205-0.045l0.199-0.185L69.87,8.629l-0.23-0.057   l-0.187,0.104l-0.302-0.146h-1.83l-0.348-0.143l-0.17-0.276h0.053V8.028L66.692,8.11l-0.092,0.12l-0.127,0.362l-0.33,0.578   L66.09,9.303l-0.483,0.701l-0.289,0.563l-0.118,0.14l-0.306,0.256l-0.605,0.332l-0.105,0.03L64.067,11.4l-0.19,0.322l-0.163,0.147   l-0.271,0.358l-0.062,0.129l0.074-0.052l0.082-0.035l0.087-0.016l0.09,0.009l-0.068,0.185l-0.23,0.131l-0.084,0.161l0.043,0.133   l0.039,0.355l0.078,0.166l-0.188-0.22l-0.019-0.324l0.03-0.38l-0.043-0.392l-0.301,0.194l-1.916,0.412l-0.672-0.119l-0.314,0.044   l-0.256,0.178l-0.197,0.36l-0.03,0.038l-0.032,0.046l-0.025,0.07v0.07l0.06,0.049l-0.005,0.068l-0.036,0.101l-0.04,0.087   l-0.054,0.06l-0.065,0.023l-0.106,0.077l-0.144,0.363l-0.162,0.12l-0.07,0.001L58.7,14.233v0.085h0.056v0.102l-0.274,0.279   l0.015,0.064l0.021,0.154l0.016,0.061l-0.067,0.017l-0.077,0.061l-0.061,0.1l0.035,0.22L58.3,15.648l-0.081,0.219l-0.011,0.144   h-0.092l-0.061-0.041l-0.31-0.39l-0.004-0.043h-0.334l-0.052-0.044L57.274,15.3l-0.062-0.041l-0.325,0.279l-0.066,0.016   l-0.239-0.016l-0.103-0.059l-0.018-0.142l0.037-0.312l-0.045-0.068l-0.285-0.08l-0.057-0.095L56.06,14.59l-0.056-0.077   l-0.071-0.027l-0.978,0.129l-0.429,0.231l-0.151,0.032L54.24,14.93l-0.235,0.248l-0.104,0.081l-0.039,0.008l-0.094-0.005   l-0.031-0.002l-0.118-0.035L53.59,15.1l-0.009-0.164l-0.059-0.14l-0.078-0.033l-0.312,0.033l-0.22-0.07l-0.154-0.128l-0.117-0.197   l-0.104-0.267v-0.086l0.081-0.091l0.311-0.485l0.032-0.035l0.063-0.042l0.072,0.008l0.057,0.061l0.055,0.039l0.068-0.062   l0.063,0.002l0.326-0.112l0.141-0.09l0.322-0.415l0.934-0.608l0.035-0.119l0.078-0.087l0.076-0.125l0.035-0.235l-0.055-0.396   l-0.006-0.233l0.061-0.173l-0.064-0.261l-0.074-0.547l-0.086-0.225l0.121,0.054l0.049,0.04l0.086-0.135l0.299-0.335l-0.252-0.097   l-0.563,0.348L54.608,9.56l-0.14,0.045l-0.138-0.062l0.199-0.002l0.145-0.007V9.44l-0.671,0.087l-0.276,0.117l-0.266,0.172   l-0.459,0.43l-0.271,0.167l-0.367,0.068l-0.329-0.083l-0.718-0.677l-1.269-0.565l-0.487-0.391l-0.176-0.087l-0.342-0.031   l-0.092,0.031l-0.075,0.075l-0.042,0.076l-0.053,0.075l-0.11,0.064l-0.304,0.033l-0.08,0.054L48.23,9.17l-0.106,0.458l-0.189,0.428   l-0.134,0.165l-0.177,0.065l0.079-0.131l0.032-0.13L47.71,9.909l-0.086-0.093l0.052-0.091l-0.003-0.043l-0.028-0.024l-0.021-0.03   l0.138-0.042l0.146-0.124l0.113-0.172l0.047-0.185l-0.042-0.221l-0.063-0.169v-0.15l0.161-0.161l-0.487-0.426l-0.149-0.054   l-1.941,0.464l-0.348-0.181V8.113l0.338-0.039l0.348-0.113l0.323-0.181l0.26-0.241l0.101-0.147l0.077-0.16l0.055-0.195l0.041-0.246   l0.045-0.572l-0.006-0.275l-0.04-0.191l0.057-0.195l-0.044-0.085L46.662,5.48l-0.086,0.075L46.455,5.39l-0.209,0.012l-0.211,0.063   l-0.118-0.008l0.004-0.128L45.94,5.3l0.035,0.003l0.052-0.035l0.025-0.001l0.2-0.159l-0.005-0.031l0.075,0.021l0.1,0.045   l0.105,0.014l0.104-0.08l-0.15-0.163L46.409,4.81L46.356,4.7l-0.109-0.475l-0.186-0.234L45.8,3.828l-0.19,0.013l0.032,0.29   l-0.365,0.141l-0.211,0.036l-0.093-0.129L44.89,3.937L44.7,3.801l-0.208-0.09l-0.141-0.107l-0.334-0.149l-0.494-0.026l-0.39-0.145   l-0.026-0.502l-0.104,0.085L42.9,3.049l-0.195,0.078l-0.153,0.19L42.073,3.56h-0.111l0,0l-0.005,0.004l-0.12,0.04l-0.136-0.016   L41.54,3.436l-0.145,0.033l-0.088,0.079L41.192,3.58l-0.079,0.081l-0.121,0.022l-0.586-0.002l-0.142-0.057l-0.059-0.166   L40.18,3.264l-0.037-0.141l-0.135-0.12L38.304,2.6l-0.631-0.259L37.03,2.23l-0.188,0.029l-0.547,0.206l-0.297-0.013l-0.282-0.088   l-0.109,0.404L35.571,3.09l0.045,0.367l0.109,0.24l0.156,0.278l0.104,0.283L35.941,4.51v0.096l0.273,0.135l0.434,0.383l0.231,0.145   l0.104,0.193l0.281,0.753l-0.276,0.189l0.056,0.104l0.09-0.063l0.169-0.047l0.166-0.006l0.075,0.064l0.039,0.147l0.094,0.147   l0.656,0.709l0.205,0.317l-0.001,0.335l-0.054,0.223l-0.134,0.103L38.038,8.59l-0.34,0.301L37.527,9l-0.204,0.055H36.44   l-0.651,0.179l-0.172-0.077l-0.079,0.115l-0.075,0.144L35.438,9.57l0.07,0.152l0.127-0.173l0.106,0.034l0.11,0.105l0.144,0.034   v0.094l-0.188-0.01l-0.247,0.05l-0.22,0.101l-0.113,0.142l0.022,0.358l0.166,0.302l0.229,0.209l0.215,0.078l0.093-0.032   l0.268-0.258l0.125-0.05l0.288,0.05l0.247-0.029l0.419-0.129l0.245-0.029l-0.016,0.044l-0.023,0.099l-0.016,0.045l0.172-0.076   l0.303-0.264l0.185-0.037l-0.082,0.208l-0.125,0.219l-0.125,0.171l-0.086,0.069l-0.138,0.014l-0.34,0.097l-0.099,0.076v0.094   l0.057,0.208l-0.084,0.217l-0.124,0.237l-0.064,0.274l0.023,0.067l0.142,0.308l0.22,0.382h0.054l0.145-0.162l0.262-0.127   l0.28-0.051l0.197,0.06v0.085l-0.022,0.157l0.11,0.139l0.148,0.133l0.094,0.14l0.001,0.212L38.55,13.9l-0.066,0.271l-0.061,0.148   l-0.177,0.084l-0.172-0.058l-0.317-0.212l-0.191-0.053l-0.151,0.011l-0.31,0.143l0.665,1.352l0.269,0.333l0.283,0.216l0.186,0.063   l0.085-0.14l0.094-0.06l0.204,0.058l0.306,0.142l1.022,0.021l0.299,0.071l0.304,0.186l0.508,0.439l0.293,0.117l0.013,0.271   l0.126,0.438l0.188,0.408l0.195,0.18l0.123,0.044l0.376,0.21l0.082,0.074l0.032,0.237l0.022,0.369l0.095,0.432l0.263,0.3   l0.58,0.376l0.294,0.117l0.721,0.084l0.301,0.177l0.101,0.177l-0.104,0.043l-0.443-0.099l-0.542-0.121l-0.478-0.329l-0.1-0.049   l-0.191-0.024l-0.148-0.067l-0.124-0.112l-0.552-0.815l-0.111-0.41l-0.11-0.143l-0.226-0.185l-0.324-0.382L40.9,16.847   l-0.177-0.232l-0.07-0.047l-0.273,0.014l-0.133-0.024l-0.109-0.083L40,16.575l-0.635-0.007l-0.639,0.157l-0.152,0.178l-0.322-0.026   l-0.583,0.145l-0.346,0.01l-0.628-0.156l-0.305-0.159l-0.286-0.243l-0.197-0.224l-0.096-0.042l-0.167-0.012l-0.182,0.042   l-0.178,0.107l-0.158,0.152l-0.114,0.173l-0.137,0.362l-0.214,0.819l-0.3,0.753l-0.05,0.2l-0.019,0.228l0.026,0.226l0.114,0.308   l0.057,0.257l0.07,0.203l0.084,0.183l0.061,0.079l0.206,0.528l0.041,0.068l-0.074,0.384L34.71,21.43l-0.185,0.131l-0.123,0.292   l-0.007,0.397l0.085,0.841l-0.024,0.332l-0.108-0.247l-0.047-0.333l-0.01-0.756l0.05-0.391l0.13-0.291l0.177-0.215l0.192-0.166   v-0.1l-0.311-0.151l-0.687-0.136l-0.324-0.167l-0.098-0.133l-0.099-0.185l-0.119-0.166l-0.154-0.071l-0.335,0.017L32.58,19.99   l-0.108,0.113l-0.068,0.191l-0.058,0.459l-0.068,0.222l-0.016,0.198l0.167,0.028l0.317-0.085l0.232,0.272l-0.043,0.462   l-0.179,0.463l-0.17,0.283l-0.099,0.096l-0.086,0.054l-0.099,0.022l-0.135,0.003l-0.116-0.058l-0.084-0.126l-0.065-0.127   l-0.066-0.057l-0.058-0.039l-0.153-0.178l-0.094-0.051l-0.135-0.005l-0.092,0.04l-0.102,0.049l-0.11-0.117l-0.073-0.17   l-0.147-0.449l0.141-0.09l0.317-0.028l0.145-0.075l0.174-0.131l0.076-0.125l0.025-0.243l-0.089-0.142l-0.179-0.051l-0.125-0.06   l0.068-0.171v-0.084l-0.27-0.188l-0.331-0.427l-0.225-0.491l0.052-0.38v-0.101l-0.644-0.187L27.6,18.852L26.414,19.1l-0.189-0.045   l-0.086-0.118l-0.086-0.06l-1.236,0.141l-0.635,0.247l-0.299,0.312l-0.156,0.109l-0.292,0.327l-0.259,0.18l-0.114,0.149   l0.018,0.178l0.104,0.107l0.236,0.118l0.07,0.097l0.015,0.17l-0.058,0.131l-0.077,0.042l-0.043,0.109L23,21.223l-0.158-0.002   l-0.067,0.124l-0.035,0.201l-0.155,0.409l-0.037,0.227l0.002,0.997l0.118,0.375l0.297,0.147l1.831,0.064l0.32,0.118l0.192,0.285   l-0.152-0.061l-0.277-0.177l-0.173-0.045l-0.187,0.003l-0.11,0.055l-0.202,0.309l0.059,0.148l-0.027,0.16l-0.071,0.143L24.097,24.8   l-0.09,0.099l-0.08,0.043l0.023,0.381l0.009,0.215l-0.025,0.208l-0.056,0.23l-0.114,0.294l-0.019,0.108l0.005,0.16l0.032,0.085   l0.039,0.07l0.029,0.117l0.075,0.955l-0.012,0.479l-0.075,0.425l-0.174,0.445l-0.66,1.04l-0.062,0.173l-0.083,0.23l-0.069,0.444   l-0.075,1.43l-0.059,0.465L22.51,33.18l-0.287-0.091l-0.121-0.051l-0.396,0.059l-0.426-0.129l-0.764,0.012l-0.269,0.084   l-0.144,0.105l-0.139,0.101l0.067,0.138l-0.016,0.118l-0.036,0.11l0.002,0.11l0.057,0.085l0.263,0.223l-0.445,0.226l-0.132,0.013   l0.099,0.206l0.028,0.236l0.011,0.232l0.05,0.196l0.159,0.186l0.21,0.104l0.637,0.09l0.416,0.159l0.227,0.038l0.212-0.015   l0.201-0.059l0.075-0.07l0.049-0.088l0.052-0.024l0.489,0.797l0.112,0.337l-0.068,0.479l-0.161,0.374l-0.058,0.198l-0.006,0.24   l0.072,0.28l0.047,0.087l0.021,0.037l-0.023,0.067l-0.358,0.218L22.13,38.7l-0.188,0.306l-0.161,0.143l-0.345,0.152l-0.156,0.165   l-0.178,0.363l-0.101,0.093l-0.476,0.053L20.48,39.98l-0.129,0.072l-0.136,0.143l-0.043,0.074l-0.066,0.167l-0.064,0.082   l-0.096,0.049l-0.085,0.007l-0.071,0.034l-0.057,0.136l0.017,0.198l0.128,0.091l0.177,0.052l0.525,0.295l0.207,0.22l0.042,0.063   l0.02,0.087l-0.007,0.159l-0.041,0.04L20.74,41.96l-0.066,0.073l-0.184,0.333l-0.188,0.223l-0.217,0.118l-0.712,0.023L18.572,43   l-0.396,0.305l-0.132,0.06H17.88l-0.517-0.153l0.066,0.293l-0.033,0.129l-0.301,0.084l-0.024-0.202L16.94,43.44l-0.308-0.046   l-0.036-0.044l-0.088-0.16l-0.058-0.056l-0.067-0.009l-0.25,0.055l-0.272-0.111l-0.259-0.211l-0.259-0.122l-0.273,0.148l0.1,0.076   l0.3,0.316l0.107,0.17l-0.13-0.032l-0.188-0.049l-0.262-0.07l-0.327,0.088l-0.116,0.061l-0.166,0.125l-0.156,0.065l-0.329,0.059   l-0.134,0.095l-0.027,0.116l0.184,0.139l0.106,0.251l-0.013,0.262l-0.132,0.13l-0.047,0.048l-0.007,0.139l0.081,0.032l0.233-0.004   l0.092,0.044l0.179,0.136l0.081,0.082l-0.107,0.367l0.184,0.234l0.545,0.24l-0.094,0.289l-0.043,0.185l0.034,0.158l0.536,0.737   l0.324,0.375l0.058,0.422l0.039,0.233l-0.029,0.255l-0.061,0.273l-0.012,0.237l0.123,0.145l-0.047,0.113l-0.025,0.281l-0.043,0.16   l-0.079,0.113l-0.204,0.143l-0.084,0.083l-0.412,0.761l-0.17,0.206l-0.082,0.144l-0.07,0.254l-0.023,0.285l0.058,0.237L15,52.199   l0.4-0.275l0.185,0.063l-0.065,0.039l-0.184,0.149l0.169,0.157l-0.12,0.159l-0.458,0.249l-0.744,0.583l-0.108,0.125l-0.154,0.323   l-0.099,0.108l-0.148,0.017l-0.106-0.1l-0.095-0.123l-0.112-0.063l-0.226,0.117l0.045,0.299l0.125,0.367l0.008,0.321l0.11-0.022   l0.208-0.104l0.109-0.03l0.111,0.016l0.212,0.07l0.288-0.035l0.017,0.065l-0.05,0.107l-0.029,0.104L14.3,55.07l0.021,0.103   l0.061,0.067l0.19,0.117l0.263,0.093l-0.016,0.052l-0.043,0.068l-0.015,0.085l0.068,0.262l-0.003,0.101l-0.048,0.133l-0.09,0.106   l-0.182-0.016l-0.11,0.062l-0.071,0.129l0.008,0.108l0.017,0.116l-0.042,0.15l-0.115,0.108l-0.122-0.03l0.034,0.162l0.061,0.105   l0.08,0.057l0.052,0.076l-0.017,0.166l-0.014,0.023l-0.004,0.022l0.001,0.021l0.011,0.024l0.134,0.069l0.004,0.121l-0.03,0.135   l0.031,0.105l0.107,0.014l0.318-0.09l0.134,0.014l0.154,0.154l0.49,0.748L15.51,58.88l0.093,0.183l0.166,0.088l0.555,0.014   l0.018,0.075l-0.057,0.112l-0.091,0.11v0.046l-0.179,0.106l-0.254,0.211l-0.148,0.231l0.135,0.17l-0.063,0.097l0.01,0.057   l0.064,0.027l0.094,0.008l-0.065,0.108l0.066,0.062l0.068,0.144l0.066,0.052l0.079,0.005l0.272-0.086l0.017-0.016l0.02-0.009   l0.018,0.009l0.019,0.016l0.124,0.06l0.347,0.081l0.147,0.008l-0.091,0.088l-0.019,0.103l0.023,0.112l0.043,0.127l0.069,0.113   l0.058,0.012l0.03,0.043l-0.005,0.211l-0.058,0.297l-0.055,0.167l0.011,0.147l0.279,0.486l0.007,0.08l0.009,0.096l-0.1,0.106   l-0.213,0.04l-0.109-0.021l-0.091-0.035l-0.09-0.008l-0.109,0.063l-0.08,0.096l-0.054,0.121l-0.016,0.127l0.037,0.113l-0.148,0.133   l-0.346,0.099l-0.168,0.077l-0.078,0.123L15.585,64.1l-0.083,0.108l0.108,0.119l0.044,0.143l-0.004,0.14l-0.049,0.119l-0.059,0.039   l-0.161,0.013l-0.069,0.044l-0.015,0.04l-0.027,0.141l-0.017,0.062l0.082,0.066l0.028,0.077l-0.023,0.084l-0.073,0.086   l-0.056,0.181l-0.04,0.172l-0.051,0.353l0.015,0.009l0.049-0.005l0.018,0.002l-0.03,0.041l-0.075,0.146l0.087,0.051l0.052,0.104   l0.05,0.262l-0.022,0.138L15.3,66.93l0.138,0.213l0.123,0.351l0.063,0.108l0.086-0.172l0.138,0.223l0.264,0.638l0.125,0.129   l0.272,0.121l0.118,0.076l0.039,0.067l0.032,0.086l0.048,0.127l0.008,0.043l0.065,0.006l0.12-0.072l0.07,0.001l0.136,0.086   l0.231,0.222l0.136,0.086l0.141,0.039h0.385l0.25,0.073l0.03,0.002l0.044,0.047l-0.003-0.002l-0.017,0.017l-0.001,0.104   l-0.013,0.009l-0.037,0.271l-0.001,0.089l0.023,0.054l-0.005,0.05l-0.077,0.066l-0.007,0.111l0.018,0.103l0.039,0.089l0.058,0.076   l-0.07-0.027l-0.037,0.02l-0.027,0.061l0.054,0.063l0.016,0.026l-0.59,0.384l-0.125,0.174l0.013,0.041l0.052,0.035l0.049,0.049   l0.007,0.082l-0.021,0.055l-0.061,0.091l-0.082,0.168l-0.208,0.258l-0.123,0.189l-0.045,0.137v0.393l-0.016,0.119l-0.052,0.396   l0.025,0.374v0.091l0.068,0.008l0.086-0.017l0.152-0.104l0.065-0.025l0.09,0.016l0.737,0.369l0.138,0.133l0.05,0.103l0.022,0.103   l0.001,0.069L18.491,74.3l0.057,0.083l0.39,0.415l0.027,0.073l-0.034,0.102l-0.143,0.006l-0.045,0.111l0.052,0.145l0.134,0.162   l0.535,0.518l0.012,0.052l-0.017,0.124l0.009,0.049l0.043,0.034l0.112,0.04l0.034,0.035l0.063,0.229l0.026,0.051l0.009,0.027   l0.016,0.098l0.021,0.043l0.036-0.004l0.109-0.069l0.032-0.002l0.051,0.194l-0.041,0.155l-0.022,0.149l0.103,0.172l0.095,0.041   l0.358,0.004l0.313,0.115l0.102-0.023l0.139-0.184l-0.03-0.204l-0.062-0.198l0.046-0.172l0.081-0.02l0.335,0.078l0.236-0.023   l0.088,0.014l0.502,0.283l0.173,0.01l-0.004,0.434l0.093,0.334l0.178,0.142l0.246-0.155l0.014-0.063l-0.026-0.063L22.93,77.57   l0.074-0.071l0.043,0.006l0.309,0.224l0.127,0.065l0.125,0.043l0.692,0.006l0.216,0.103l0.051,0.008l0.047-0.049l0.084-0.172   l0.051-0.063l0.072-0.023l0.165-0.021l0.06-0.029l0.041-0.068l0.058-0.178l0.038-0.06l0.135-0.076l0.032-0.01l0.156-0.048   l0.156,0.014l0.034,0.137l0.348,0.023l0.146,0.053l0.052,0.178L26.183,77.6l-0.021,0.028l-0.014,0.04l0.113,0.117l0.182,0.296   l0.105,0.134l0.176,0.111l0.352,0.061l0.179,0.094l0.059,0.073l0.077,0.158l0.075,0.063l0.082,0.018l0.031,0.009l0.096-0.024   l0.094-0.041l0.101-0.021l0.089,0.017l0.17,0.06l0.078,0.012l0.097-0.024l0.188-0.104l0.09-0.023l0.668,0.193l0.459-0.048   l0.145,0.017l1.275,0.681l0.79,0.164l0.093,0.088l-0.002,0.004l-0.166,0.188l-0.251,0.477l-0.365,1.005l-0.1,0.168l-0.05,0.041   l-0.294,0.159l-0.07,0.003l-0.018,0.03l-0.036,0.035l-0.039,0.064l-0.016,0.114l-0.018,0.067l-0.045,0.041l-0.063,0.02   l-0.225,0.005l-0.092,0.029l-0.042,0.108l-0.01,0.231l-0.035,0.097l-0.087,0.116l-0.106,0.103l-0.095,0.063l-0.221,0.263   l-0.123,0.107L29.31,83.32l-0.093,0.065l-0.34,0.529l-0.068,0.396v0.422l0.095,0.257v0.084l-0.202,0.159l-0.097,0.099l-0.041,0.108   l-0.016,0.23l-0.041,0.117l-0.053,0.078l-0.055,0.115l-0.041,0.137l-0.059,0.32l-0.009,0.157l0.025,0.146l0.053,0.154l0.041,0.16   l-0.01,0.17L28.288,87.4l-0.147,0.082l-0.129,0.104l-0.057,0.253l-0.016,0.245l-0.051,0.203l-0.085,0.176l-0.508,0.712   l-0.054,0.146l-0.016,0.173l-0.041,0.096l-0.055,0.072l-0.058,0.106l-0.054,0.184l-0.051,0.234l0.025,0.494l0.348,0.612   l0.017,0.374l-0.076,0.145l-0.214,0.228l-0.043,0.16l0.009,0.192l-0.015,0.055l-0.051,0.119l-0.032,0.06l-0.053,0.054l-0.024,0.051   l-0.009,0.051l0.003,0.029l0.007,0.03l-0.001,0.054l0.041,0.223l-0.017,0.133l-0.109,0.061l-0.044,0.058l-0.116,0.388l-0.021,0.165   l0.1,0.418l-0.003,0.194l-0.047,0.078l-0.134,0.142l-0.028,0.072l0.022,0.256l0.026,0.129l0.032,0.056l0.118,0.062l0.109,0.151   l0.181,0.362l0.049,0.062l0.051,0.045l0.043,0.061l0.017,0.113l-0.019,0.043l-0.032,0.121l0.41-0.123l0.181-0.018l-0.105,0.297   l-0.085,0.082l-0.19-0.002h-0.021l0.299,0.158l0.115,0.062l0.177,0.024l0.354-0.072l0.317-0.067l0.151-0.085l0.128-0.152   l0.146-0.229l0.113,0.058l0.518,0.031l0.05,0.051l0.025,0.111l0.016,0.111l0.023,0.049h1.046l0.361-0.08l0.078-0.053l0.035-0.053   l0.033-0.06l0.068-0.078l0.065-0.052l0.175-0.094l0.147-0.045L31.762,96l0.039-0.059l0.043-0.025l0.433-0.074h0.145l0.208,0.063   l0.093,0.011l0.044,0.051l0.043,0.115l0.057,0.113l0.078,0.053l0.306,0.081l0.515,0.002l0.024-0.003l0.223-0.037l0.01-0.057   l0.094-0.205l0.246-0.162l0.241-0.024l0.124,0.116l0.095,0.16l0.017,0.021l0.072,0.088l0.108-0.035l0.017-0.031l0.036-0.061   l0.009-0.091l-0.005-0.084l0.009-0.081l-0.002-0.041l-0.02-0.047l-0.013-0.054l0.018-0.065l0.028-0.025l0.043-0.016l0.035-0.002   l0.008,0.021l0.004,0.071l0.052,0.027l0.045-0.281l-0.072-0.008l-0.038-0.016l-0.092-0.038l-0.112-0.019l-0.391,0.066l-0.12,0.061   l-0.111,0.078l-0.119,0.063l-0.143,0.006l-0.167-0.096l-0.206-0.156l-0.04-0.007l-0.126-0.046l0.051-0.13l-0.02-0.102l-0.034-0.088   l0.009-0.086l0.078-0.092l0.204-0.111l0.085-0.08l0.061-0.238l0.038-0.086l0.109-0.162l0.062-0.037l0.091,0.003l0.433-0.087   l0.122-0.061l-0.075-0.188l0.128-0.073l0.201,0.012l0.148,0.066l0.012,0.087l0.008,0.154l0.027,0.146l0.079,0.06l0.1-0.066   l0.042-0.26l0.073-0.076l0.104,0.035l0.078,0.117l0.062,0.138l0.06,0.095l0.084,0.02l0.088-0.02l0.079,0.016l0.052,0.121   l-0.021,0.045l-0.108,0.162l-0.026,0.077l0.035,0.097l0.063,0.08l0.021,0.09l0.016,0.078l0.424-0.006l-0.065-0.074l0.072-0.233   l0.215,0.01l0.263,0.154l0.208,0.196l-0.148,0.033l0.001,0.084l0.113,0.112l0.007,0.007l0.233,0.174l0.197,0.052l0.315-0.029   l0.292-0.094l0.126-0.14l0.152-0.061l0.897,0.102h0.444l0.109,0.17h0.301l0.313,0.072l2.205,1.373l0.019,0.012l0.034,0.01   l0.47,0.13l0.516-0.009l0.219-0.104l0.117-0.182l0.1-0.216l0.175-0.205l0.116-0.063l0.122-0.014l0.114,0.042l0.093,0.103   l0.027,0.141l-0.016,0.146l0.031,0.125l0.165,0.084l0.063-0.004l0.1-0.063l0.041-0.011l0.242,0.089l0.239,0.021l0.123-0.024   l0.096-0.078l0.022,0.196l0.084,0.111l0.101,0.101l0.072,0.16v0.035l0.002,0.036l0.014,0.069l0.088,0.053l0.07-0.03l0.071-0.063   l0.092-0.041l0.394,0.578l0.072,0.141l-0.038,0.123l-0.184,0.143L47,98.521l0.023,0.123l0.006,0.127l0.043,0.112l0.078,0.075   l0.053-0.002l0.062-0.046l0.105-0.05l0.04,0.005l0.083,0.051h0.041l0.034-0.024l0.097-0.105l0.352-0.064l0.148,0.078l-0.005,0.215   l-0.146,0.438l0.02,0.076l0.003,0.072l-0.02,0.078l-0.04,0.038l-0.106,0.031l-0.032,0.022l-0.075,0.134l-0.032,0.073L47.77,100   l0.121-0.016l0.518-0.063l0.175-0.068l0.36-0.221l0.157-0.143l0.145-0.195l0.179-0.359l0.048-0.071l0.083-0.058l0.17-0.06   l0.069-0.046l0.134-0.18l0.117-0.238l0.074-0.266l-0.002-0.257l-0.033-0.146l-0.043-0.104l-0.069-0.075l-0.113-0.063l0.082-0.474   l0.01-0.109l-0.053-0.132l-0.069-0.134l-0.012-0.102l0.121-0.047l0.134-0.025l0.062-0.022l0.028,0.021l0.035,0.111l-0.01,0.046   l-0.038,0.058l-0.031,0.074l0.015,0.104l0.042,0.056l0.066,0.047l0.125,0.058l0.342,0.053l0.095-0.018l0.103-0.082l0.163-0.228   l0.111-0.078l0.194,0.002l1.062,0.402l0.033,0.037l0.024,0.062l0.039,0.057l0.069,0.021l0.237-0.027l0.324-0.148l0.114-0.032   l0.111,0.009l0.084,0.047l0.186,0.14l-0.066,0.081l-0.26,0.178l0.055,0.094l0.414,0.191l0.401,0.433l0.024,0.056l0.002,0.078   l-0.02,0.082l-0.025,0.056h-0.019l0.082,0.161l0.11,0.064l0.84,0.012l0.156-0.047l0.525-0.363l0.202-0.057l0.173,0.07l-0.018,0.322   l0.193,0.021l0.176-0.08l0.113-0.122l0.106-0.144l0.153-0.146l0.15-0.047L57.481,98l0.129-0.055l0.07-0.118l-0.031-0.089   l-0.088-0.057l-0.1-0.027l0.38-0.437l0.183-0.043l0.199,0.027l0.18,0.057l0.379-0.062l0.175-0.07l0.146-0.162l0.041-0.109   l0.063-0.275l0.055-0.125l0.225-0.194l0.027-0.034l0.148,0.006l0.352,0.068l0.654,0.004l0.453,0.092l0.082-0.026l0.081-0.202   l0.091-0.055l0.676-0.137l1.846,0.08l0.065-0.015l0.229-0.294l0.028-0.075l0.009-0.112l-0.015-0.316l-0.021-0.064l-0.041-0.027   l-0.066-0.065l-0.059-0.079l-0.025-0.064l-0.016-0.098l0.125-0.051l0.195-0.162l0.069-0.043l0.116-0.053l0.021-0.004l-0.025,0.055   l-0.021,0.127l-0.027,0.094l-0.051,0.072l-0.027,0.084l0.043,0.131l0.082,0.07l0.086-0.014l0.181-0.094l0.176-0.023l0.464,0.098   l0.137-0.021l0.315-0.121l0.132,0.025l0.037,0.068l0.086,0.254l0.043,0.098l0.065,0.078l0.237,0.191l0.113,0.056l0.166,0.005   l0.168-0.033l0.127-0.055l0.076-0.07l0.281-0.25l0.152-0.076l0.287-0.069h0.287l0.45,0.117l0.138-0.019l-0.082,0.207l0.127,0.154   l0.207,0.139l0.16,0.154l-0.22,0.109l-0.098,0.275l0.041,0.291l0.198,0.161l0.125,0.021l0.076,0.026l0.066,0.055l0.367,0.404   l0.394,0.297l0.089,0.035l0.067-0.022l0.067-0.036l0.084-0.003l0.076,0.041l0.045,0.048l0.051,0.03l0.086-0.003l0.056-0.049   l0.229-0.272l-0.002-0.101l-0.021-0.069l-0.025-0.062l-0.019-0.065l-0.007-0.073v-0.206l0.021-0.03l0.074-0.193l0.012-0.018   l-0.02,0.008l-0.006-0.271l0.021,0.008l0.129-0.17l0.006-0.032l0.096-0.235l0.02-0.026l0.019-0.143l0.005-0.146l-0.021-0.153   l-0.063-0.172l-0.157-0.271l-0.1-0.119l-0.1-0.074L70.64,94.74l-0.203,0.089l-0.121,0.021l-0.447-0.084l-0.133-0.133l0.151-0.23   V94.4l0,0l0.054-0.086l0.014-0.078l0.002-0.076l0.016-0.076l0.045-0.094l0.52-0.832l-0.037-0.037l-0.176-0.26l-0.271-0.633   l-0.137-0.134l-0.063-0.034l-0.162-0.166l-0.192-0.117l-0.063-0.094l-0.043-0.127l-0.004-0.017l-0.021-0.13l-0.12-0.268   l-0.563-0.592l-0.076-0.119l-0.072-0.145l-0.039-0.158l0.015-0.162l0.05-0.086l0.051-0.02l0.054,0.004l0.049-0.021l0.115-0.181   l0.03-0.04l0.32-0.225l0.105-0.119l0.146-0.231l0.074-0.081l0.121-0.064l0.444-0.086l-0.012-0.028l0.125-0.101l0.26-0.146   l0.3-0.287l0.129-0.092l0.834-0.332l1.108-0.193l0.27-0.15l0.786-0.687l0.112-0.188l0.045-0.256l0.017-0.063l0.036-0.063   l0.035-0.084l0.019-0.125l-0.016-0.342l0.016-0.111l0.037-0.11l0.108-0.229l0.021-0.117l-0.018-0.105l-0.074-0.117l-0.033-0.219   l-0.023-0.055l-0.006-0.043l0.045-0.084l0.071-0.067l0.263-0.099l0.271-0.036l0.833,0.231l0.141,0.075l0.131,0.099l0.123,0.188   l0.33,0.148l0.018,0.019l0.07-0.321l0.068-0.14l0.028,0.006l0.166-0.024l0.063-0.029l0.066-0.064l0.039-0.059l0.138-0.298   l0.05-0.159l0.025-0.176l0.005-0.203l-0.043-0.393l0.021-0.146l0.106-0.103l-0.101-0.049l-0.04-0.037l-0.085-0.168l-0.043,0.015   l0.02-0.115l0.24-0.506l-0.156-0.164l-0.389-0.772l-0.188-0.291l-0.113-0.063l-0.299-0.048l-0.151-0.071l-0.138-0.138l-0.127-0.19   l-0.084-0.221L75.5,79.887l-0.146,0.019l-0.138-0.076l-0.136-0.108l-0.143-0.087l-0.133-0.026l-0.052-0.013l-0.11,0.052   l-0.078,0.135l-0.082,0.213l-0.188-0.09l-0.254-0.184l-0.23-0.217l-0.115-0.188l-0.004-0.342l-0.092-0.215l-0.341-0.348   l-0.245-0.328L72.917,78l-0.161-0.063l-0.487-0.021l-0.227-0.135l-0.129-0.205l-0.105-0.24l-0.752-1.023l-0.101-0.057l-0.002-0.002   l0,0l-0.257-0.305l-0.036-0.115l-0.011-0.119l-0.045-0.1l-0.141-0.059l-0.227-0.24l-0.115-0.094l-0.137-0.072l-0.31-0.084   l-0.108,0.035l0.035,0.157l-0.149,0.021l-0.474-0.068l-0.16-0.059l-0.127-0.133l-0.264-0.588l-0.162-0.168l-0.371-0.176   l-0.156-0.13l-0.092-0.181l-0.039-0.198l-0.023-0.405l-0.011-0.208l-0.06-0.049l-0.086,0.015l-0.091-0.027l-0.088-0.092   l-0.063-0.095l-0.051-0.108l-0.052-0.148l-0.032-0.145l-0.037-0.275l-0.057-0.133l-0.085-0.094l-0.192-0.105l-0.082-0.1l0.006-0.03   l0.039-0.097L66.58,71.45l-0.021-0.017l0.067-0.151l-0.006-0.164l-0.065-0.132l-0.111-0.06L66.179,70.8l-0.123-0.084l-0.115-0.104   l-0.166-0.237l-0.084-0.159l-0.039-0.13l0.095-0.188l0.332-0.142l0.128-0.13l0.025-0.203l0.004-0.261l0.051-0.177l0.16,0.051   l0.059-0.192L66.69,68.5l0.065-0.189l0.024-0.242l-0.049-0.09l-0.116-0.045l-0.329-0.192l0.01-0.136l0.057-0.168l-0.021-0.182   l-0.137-0.13l-0.295-0.03l-0.123-0.121h-0.008l-1.218-0.651l-0.024-0.079l-0.002-0.113l-0.018-0.128l-0.07-0.123l-0.117-0.103   l-0.129-0.072L64.076,65.6l-0.07-0.188l-0.004-0.187l0.058-0.287l-0.024-0.188l-0.062-0.148l-0.091-0.14l-0.196-0.216l-0.396-0.248   l-0.084-0.15l0.102-0.149l0.082-0.056l0.055-0.059l0.015-0.161l-0.028-0.179l-0.064-0.111l-0.186-0.193l0.202,0.015l0.386,0.028   l0.154,0.109l0.049,0.117l-0.005,0.215l0.032,0.098l0.091,0.08l0.116,0.035l0.23,0.006l0.058,0.031l0.026,0.046l-0.004,0.058   l-0.035,0.07l-0.014,0.002l-0.011,0.004l-0.011,0.008l-0.01,0.011l-0.021,0.022l-0.008,0.025l0.008,0.027l0.021,0.029l0.141,0.143   l0.035,0.047l0.033,0.082l0.014,0.072l0.008,0.063l0.098,0.347l0.082,0.127l0.137,0.018l0.111-0.082v-0.111l-0.047-0.133   l-0.023-0.156l0.023-0.223l0.043-0.118l0.159-0.204l0.022-0.197l0.065-0.1l0.089-0.063l0.092-0.096l0.25-0.453l0.086-0.086   l0.235-0.133l0.097-0.087l0.028-0.016l0.072,0.003l0.03-0.02l0.02-0.047l-0.006-0.049l-0.012-0.041l-0.002-0.025l0.021-0.058   l0.018-0.063l0.028-0.063l0.06-0.051l0.224-0.19l0.324-0.096l0.602-0.046l0.431,0.078l0.104-0.011l0.089-0.088l0.178-0.275   l0.104-0.102l0.132-0.049l0.129-0.008l0.145,0.021l0.049-0.021l0.113-0.074l0.072-0.017l0.066,0.021l0.745,0.452l0.274,0.017   l0.065-0.063l0.174-0.174l0.114-0.136l0.052-0.229l0.054-0.516l0.065-0.045l0.067-0.018l0.066,0.016l0.063,0.047l0.07,0.021   l0.074,0.006l0.076-0.006l0.073-0.021l0,0h0.002l0.227-0.078l0.425,0.023l0.197-0.146l0.115-0.209l0.268-0.717l0.156,0.015   l0.131,0.093l0.135,0.06l0.168-0.087l0.084-0.256l0.047-0.08l0.302-0.215l0.049-0.053l0.004-0.045l0.022-0.016l0.099,0.035   l0.043,0.049l0.113,0.191l0.053,0.065l0.181,0.087l0.147-0.036l0.138-0.125l0.141-0.174l0.078-0.045l0.049-0.06L74.62,58.9   L74.573,58.8l0.134-0.101l0.108-0.141l0.031-0.17L74.752,58.2l0.329-0.198l0.363-0.068l0.725,0.004l0.154-0.03l0.306-0.113   l0.175-0.019l0.368,0.041l0.146-0.028l0.231-0.146l0.05-0.002l0.047-0.016l0.055-0.08l0.004-0.066l-0.018-0.088l-0.012-0.106   l0.034-0.124l0.074-0.092l0.067-0.004l0.078,0.024l0.103-0.015l0.081-0.063l0.123-0.156l0.086-0.063l0.158-0.033l0.293,0.037   l0.154-0.01l1.254-0.575l0.098-0.092l0.146-0.223l0.088-0.086l0.289-0.061l0.631,0.05l0.235-0.2l0.049-0.317l-0.216-0.123   l-0.295-0.089l-0.205-0.202l0.006-0.134l0.068-0.047l0.013-0.026l-0.159-0.063l-0.271-0.035L80.563,54.5l0.09-0.129l0.113-0.367   l0.192-0.197l0.256-0.039l0.3,0.097l0.062,0.057l0.042,0.07l0.052,0.069l0.087,0.047l0.09,0.002l0.225-0.1l0.294,0.016l0.092-0.047   l0.067-0.176l0.047,0.107l0.019,0.076l0.027,0.076l0.075,0.104l0.101,0.069l0.217,0.055l0.099,0.079l0.098,0.116l0.063,0.103   l0.023,0.124l-0.014,0.189l-0.063,0.154l-0.097,0.183l-0.044,0.155l0.093,0.072l0.443-0.186l0.099,0.003l0.043,0.144l-0.047,0.17   l-0.138,0.318l-0.026,0.229l0.038,0.096l0.279,0.078l0.115,0.063l0.307,0.233l0.298,0.066l0.176,0.008l0.129-0.037l0.079-0.09   l0.075-0.146l0.127-0.34l0.002-0.236l0.114-0.188l0.285-0.317l0.404-0.965l0.359-0.91l0.023-0.147l0.002-0.244l0.015-0.125   l0.043-0.09l0.063-0.06l0.053-0.084l0.018-0.165l0.01-0.322l0.063-0.359l0.11-0.34l0.138-0.271L86.832,51.216z M32.691,4.507   l0.05-0.041l0.041-0.192l0.021-0.248l-0.027-0.76l0.022-0.057l0.013-0.274l0.021-0.102l0.041-0.039l0.244-0.17l0.053-0.021   L33.246,2.6l0.068,0.034l0.069,0.121l0.052,0.027h0.554l0.122-0.035l0.222-0.174l0.125-0.068l1.005,0.056l0.202-0.16L33.913,2.49   l-0.388-0.098l-0.272-0.258l0.048-0.495L33.23,1.38l0.083-0.28l0.152-0.228l0.327-0.185l0.071-0.193l-0.066-0.17l-0.223-0.023   l0.063-0.069l0.491-0.027L33.747,0l-0.339,0.426L32.8,2.137l-0.077,0.297l-0.092,1.512l0.006,0.367L32.691,4.507z"/></g></svg>