<svg xmlns="http://www.w3.org/2000/svg" xmlns:xlink="http://www.w3.org/1999/xlink" version="1.1" x="0px" y="0px" viewBox="-461 335 100 100" fill="#999999" style="enable-background:new -461 335 100 100;" xml:space="preserve"><polygon points="-376.7,413.1 -378,413 -378.2,412.9 -378.3,412.7 -378.5,412.4 -378.7,412.2 -378.8,412.2 -378.9,412.1 -379,412   -379.3,411.7 -379.7,410.4 -380.9,410.4 -381.2,410.3 -381.4,410.2 -381.9,409.6 -382.3,409.3 -383,409 -383.4,408.6 -383.6,408.3   -383.8,407.9 -383.9,407.5 -383.9,407.1 -383.8,406.9 -383.6,406.7 -383.6,406.6 -383.8,406.4 -384,406.4 -384.4,406.4   -384.6,406.4 -384.7,406.1 -384.9,406 -385.1,405.8 -385.2,405.5 -385.1,404.7 -385.1,404.4 -385.2,404.2 -385.4,404 -385.7,403.8   -386,403.8 -386.1,403.6 -386.5,402.8 -386.7,402.6 -386.9,402.6 -386.9,402.4 -386.8,402.1 -386.5,401.5 -386.4,401.3 -386.6,401   -387.1,400.6 -387.2,400.4 -387,400.3 -386.8,400.3 -386.1,400.1 -385.9,400 -385.6,399.5 -385.6,398.8 -385.7,398.1 -385.7,397.5   -385.3,396.6 -385.1,395.8 -384.9,395.3 -384.9,394.9 -385.2,393.9 -385.3,393.8 -385.8,394 -386.1,394 -386.4,394 -386.9,393.6   -387.2,392.9 -387.2,392.1 -387.2,391.2 -387.1,391 -387,390.9 -386.9,390.7 -386.7,390.6 -386.4,390.6 -386.2,390.4 -386.1,390.2   -386.1,389.8 -386.1,389.3 -385.9,389 -385.4,389.1 -385.5,388.8 -385.4,388 -385.6,387.1 -385.6,386.2 -385.7,385.1 -385.7,384.5   -385.7,384.2 -385.9,383.6 -385.9,382.9 -386,382.5 -385.9,382.4 -385.8,382.3 -385.7,382.1 -385.7,381.9 -385.9,381.7 -386,381.6   -386,381.4 -386,381.2 -385.9,381.2 -385.8,381.2 -385.7,381.1 -385.2,380.6 -384.9,380.5 -384.2,380.2 -384,380 -383.9,379.8   -383.9,379.4 -384,379.3 -384.2,379.3 -384.2,379.3 -384.2,379.2 -384.2,379 -384.3,378.8 -384.3,378.6 -384.3,378.5 -384.9,378   -385.1,377.4 -385.4,376.8 -386.4,376.3 -386.8,376 -387.2,375.7 -387.4,375.4 -388,375 -388.7,374.1 -389.1,373.1 -389.2,372.4   -389.1,372.2 -388.9,372.2 -388.8,372.2 -388.6,372.6 -388.4,372.4 -388.3,372.2 -388.4,372.1 -388.2,372 -388.1,372.1   -387.9,372.1 -387.7,372.1 -387.6,372.1 -387.5,371.9 -387.5,371.6 -387.4,371.4 -387.1,370.9 -387.3,370.2 -388,368.9 -388,368.9   -388.2,368.4 -388.1,367.9 -387.8,367.5 -387.7,367 -387.7,366.7 -387.6,366.6 -387.3,366.2 -387.1,365.9 -387.1,365.7   -387.3,365.1 -387.3,364.8 -387.1,364.7 -387,364.6 -386.8,364.4 -386.8,364.2 -386.7,363.7 -386.6,363 -386.7,362.6 -387,362.3   -387.4,362.2 -387.4,362.2 -387.4,362.1 -387.4,362.1 -387.3,362 -387.3,361.8 -387.3,361.6 -387.4,361.5 -388.2,361.2   -388.5,361.2 -389.2,361.2 -389.5,361.3 -389.7,361.4 -389.8,361.5 -389.9,361.8 -389.9,361.9 -390,362 -390.8,362.3 -391,362.3   -391.3,362.3 -391.4,362.1 -391.3,361.9 -391.4,361.7 -391.4,361.5 -390.7,361.3 -390.5,361.2 -390.3,361.1 -390.2,360.9   -390.4,360.8 -390.6,360.7 -391,360.8 -391.1,360.8 -391.3,360.6 -391.4,360.5 -391.5,360.5 -391.5,360.4 -391.4,360 -391.3,359.9   -390.6,359.9 -390.2,359.9 -389.9,359.7 -389.7,359.9 -389.4,359.9 -389.2,359.9 -389.1,359.6 -389.2,359.3 -389.5,359.3   -390.1,359.4 -390.6,359.4 -390.9,359 -390.9,358.6 -390.6,358.1 -390.2,358.6 -390,358.7 -389.7,358.7 -389.5,358.5 -389.5,358.2   -389.5,357.9 -389.6,357.7 -389.7,357.5 -389.8,357.4 -389.9,357.3 -389.9,357 -389.6,355.8 -389.6,355.6 -389.7,354.9   -389.6,354.7 -389.5,354.5 -389.3,354.3 -389.2,354.2 -389.2,354.1 -389.3,353.7 -389.5,353.4 -389.5,353.3 -389.5,353.1   -389.4,353 -389.4,352.9 -389.5,352.8 -389.2,352.7 -389,352.8 -388.8,352.7 -388.7,352.4 -388.8,352.1 -388.9,352 -389.1,351.9   -389.3,351.8 -389.4,351.4 -389.4,350.3 -389.4,349.8 -389.3,349.6 -389.2,349.3 -389.1,349.1 -388.8,348.8 -389.1,348.5   -389.2,348.5 -389.9,348.6 -390.1,348.6 -390,348.3 -390.2,348 -390.4,347.8 -390.6,347.5 -390.6,347.4 -390.5,347.2 -390.5,347   -390.7,346.9 -390.8,346.8 -391,346.9 -391.1,346.9 -391.3,347 -391.4,347 -391.9,346.8 -391.9,346.8 -391.9,347 -392,347   -392.1,347.1 -392.2,347 -393,345.5 -393.2,345.3 -394,344.8 -394.2,344.6 -394.3,344.3 -394.5,344.1 -394.6,344 -395.1,343.9   -395.2,343.8 -395.3,343.7 -395.4,343.6 -395.8,343.6 -396,343.5 -396.1,343.4 -396.3,343.3 -396.4,343 -396.4,342.7 -396.3,342   -396.2,341.4 -396.1,341.1 -395.9,340.8 -395.5,340.6 -395.4,340.5 -395.4,340.3 -395.5,340 -395.5,339.9 -395.1,338.3   -395.1,338.1 -394.9,338 -394.8,337.9 -394.7,337.8 -394.7,337.6 -394.6,337.1 -394.7,336.6 -394.9,336.2 -395.4,336 -395.7,336   -396.2,336.2 -396.5,336.2 -396.8,336.1 -397.1,335.9 -397.4,335.7 -397.5,335.4 -399.6,335 -399.6,335.3 -399.6,335.4   -399.5,335.5 -399.7,335.8 -399.9,336 -400.6,336.5 -400.9,336.2 -401.2,336 -401.5,336 -401.8,336.3 -401.9,336.6 -401.9,336.9   -402,337.1 -402.2,337.2 -402.6,337.4 -402.7,337.6 -402.8,337.7 -402.8,337.7 -402.9,337.7 -402.9,337.7 -403.5,337.7   -403.9,337.8 -404.1,337.8 -404.2,338.1 -404.3,338.5 -404.5,338.8 -404.8,339 -405.5,338.3 -405.5,338.2 -405.3,338.1   -405.3,337.9 -405.4,337.8 -405.5,337.8 -405.6,337.8 -405.7,337.8 -405.7,337.7 -407.6,337.6 -407.7,337.5 -407.8,337.5   -407.8,337.5 -407.9,337.6 -408.3,337.7 -408.6,338 -408.9,338.1 -408.8,337.9 -408.9,337.9 -409,337.8 -409.1,337.6 -409.2,337.5   -409.4,337.5 -411.5,337.3 -412,337.4 -412.1,337.6 -414,337.6 -415.9,337.6 -416.3,337.5 -417.2,337.2 -419.1,337.1 -419.4,337.2   -419.5,337.5 -419.7,337.6 -422.1,337.6 -425.5,337.7 -429,337.7 -432.7,337.7 -435.8,337.8 -437.6,337.8 -437.6,337.6   -438.9,337.6 -438.9,337.7 -438.9,337.8 -438.8,338.1 -438.7,338.4 -438.6,338.7 -438.7,339 -438.9,339.3 -439.1,339.5   -439.3,339.7 -439.4,340 -439.6,340.7 -439.9,341.2 -439.9,341.5 -440,341.7 -440.2,341.8 -440.2,341.9 -440.2,342.2 -440.1,342.2   -440.1,342.2 -440,342.2 -440,342.3 -440,342.4 -440,342.4 -440,342.5 -440.1,342.8 -440.3,343.1 -440.4,343.3 -440.3,343.6   -439.9,344.4 -439.8,344.6 -439.8,344.9 -439.8,345.1 -439.7,345.1 -439.5,345.4 -439.4,345.4 -439.4,345.7 -439.3,345.9   -438.7,346.4 -438.5,346.5 -438.3,346.6 -437.9,346.6 -437.8,346.6 -437.9,346.8 -438,346.9 -438.2,347 -438.4,347 -438.6,347.1   -438.7,347.2 -438.8,347.3 -438.9,347.5 -439,347.9 -439,348.2 -438.8,348.4 -438.7,348.5 -438.6,348.5 -438.4,348.5 -438.4,348.7   -438.3,348.8 -438.2,348.9 -438.1,348.9 -437.9,348.9 -437.8,349 -437.7,349.1 -437.6,349.1 -437.6,349.3 -437.7,349.6   -437.8,349.7 -438.1,349.9 -438.3,350.3 -438.3,350.6 -438.2,351.3 -438.2,352.6 -438.1,352.9 -437.7,353.5 -437.6,353.7   -437.6,354.1 -437.8,354.9 -437.7,355.2 -437.4,355.8 -437.3,356 -437.4,356.2 -437.9,356.8 -438.2,357.3 -438.3,357.6   -438.2,357.9 -438,358.1 -437.9,358.1 -437.9,358.1 -437.7,358.1 -437.6,358.3 -437.6,358.4 -437.6,358.6 -437.4,358.7   -437.6,358.9 -437.7,359.1 -437.8,359.3 -437.8,359.6 -437.8,359.8 -437.7,360 -437.2,360.5 -436.6,361.2 -436.4,361.5   -436.4,361.7 -436.5,362.2 -436.4,362.3 -436.4,362.6 -436.4,363 -436.4,363.3 -436.6,363.4 -436.8,363.5 -437,363.7 -437,364   -436.9,364.2 -436.7,364.4 -436.4,364.4 -436.2,364.6 -436.2,364.9 -436.4,365.2 -436.9,365.4 -437,365.7 -437.3,366.3   -437.6,366.6 -437.7,366.7 -437.7,367.5 -437.8,367.8 -437.9,368 -437.8,368.1 -437.7,368.2 -437.6,368.3 -437.4,368.3 -437,368.3   -436.6,368.4 -436.2,368.6 -436.1,368.9 -436.1,369.2 -435.8,369.9 -435.7,370 -435.6,370 -435.5,370 -435.5,370.2 -435.5,370.4   -435.2,371.5 -435.2,371.7 -435.3,371.8 -435.5,371.9 -435.5,372.1 -435.4,372.3 -435.3,372.2 -435.2,372.4 -433.8,381.2   -433.9,381.4 -434.6,381.8 -434.8,381.9 -435,381.9 -435.2,381.8 -435.3,381.8 -435.4,381.9 -435.5,382.1 -435.6,382.3   -435.5,382.5 -435.3,383 -435.2,383.3 -435.2,383.6 -435.4,383.8 -435.7,384 -436.6,384.3 -436.9,384.5 -437.6,385.3 -437.9,385.5   -437.9,385.4 -438,385.4 -438.1,385.3 -438.2,385.3 -438.2,385.4 -438.3,386.6 -438.3,386.8 -438.5,386.9 -438.8,387.1 -439,387.2   -439,387.3 -438.9,387.5 -438.9,387.6 -439,387.7 -439.1,387.9 -439.2,388 -440.3,390.4 -440.5,391 -441.3,395.8 -441.3,395.9   -441.2,396.2 -441.1,396.3 -441,396.4 -441,396.6 -441.1,396.9 -441.9,397.8 -441.9,398 -442.1,398.7 -442.1,398.8 -442.9,399.1   -443.1,399.2 -444.9,402.3 -445.2,402.9 -445.2,403.5 -445.1,403.6 -444.9,403.9 -444.7,404.3 -444.7,404.4 -445,405.2   -445.1,405.3 -445.4,405.5 -445.5,405.6 -445.5,405.9 -444.3,411.4 -444,411.6 -443.6,412.1 -443.3,412.9 -442.8,415.5   -442.6,416.1 -442,417.1 -441.8,417.7 -441.7,418.3 -441.9,420 -440.9,420 -441,420.9 -441,421.3 -440.6,421.5 -440.3,421.5   -439.8,421.2 -439.5,421.1 -438.4,421.4 -438.2,421.5 -438.1,421.7 -438,422 -438,422.8 -437.7,423.9 -437.3,424.9 -437.2,425.2   -437.3,425.4 -437.4,425.6 -437.6,425.7 -438.2,425.6 -438.3,426.5 -438.2,426.7 -438,427.1 -437.9,427.2 -438,427.4 -438,427.7   -438,427.8 -438,427.9 -437.7,428.1 -437.7,428.2 -437.8,428.4 -438,428.6 -438.4,428.6 -439,428.6 -439.3,428.8 -439.9,428.9   -440.3,429 -440.3,429.5 -440.4,429.5 -440.8,429.7 -441,429.7 -441.1,429.6 -441.2,429.4 -441.3,429.3 -441.7,429.2 -442.8,429.2   -443,429.2 -443.1,429.2 -443.2,429.3 -443.3,429.5 -443,429.6 -440.9,430.2 -438.6,430.6 -436.6,430.8 -434.1,431.6 -431.4,432.2   -429.8,432.8 -429.8,432.9 -429.7,433 -429.7,433.1 -429.6,433.3 -429.4,433.4 -429.1,433.5 -428.5,434 -428.3,434.2 -428.3,434.2   -428.2,434.3 -427.9,434.3 -427.8,434.3 -427.6,434.4 -427.6,434.5 -427.6,434.7 -427.5,434.9 -427.4,435 -427.3,435 -426.9,435   -426.7,434.9 -425.6,434.8 -425.4,434.7 -425.2,434.5 -424.8,433.9 -424.6,433.7 -423.4,433.2 -422.3,432.9 -422.2,432.9   -422,432.8 -422,432.8 -422,432.7 -422,432.5 -421.6,432.1 -421.4,431.9 -420.3,431.4 -420.2,431.3 -420.1,431.2 -420.1,431.1   -420.2,430.9 -420.2,430.7 -420,430.6 -419.7,430.5 -419.5,430.5 -419.2,430.6 -419,430.5 -418.6,430.3 -417.5,430.2 -417,429.9   -416.7,429.8 -416.5,429.8 -416.2,429.8 -416.1,429.8 -415.9,429.7 -415.5,429.5 -415.4,429.5 -414.4,429.4 -414,429.4   -413.4,429.1 -413.1,428.9 -413,428.8 -412.8,428.6 -411.2,427.9 -410.9,427.8 -410.7,427.8 -410.5,427.6 -410.4,427.6   -410.3,427.7 -410.2,427.9 -410,427.9 -409.7,427.8 -409.3,427.7 -409.1,427.7 -409,427.6 -408.8,427.8 -408.5,427.8 -407.3,427.6   -407.1,427.5 -406.7,427 -405.8,426.3 -405.6,426.2 -404.8,425.7 -404.7,425.9 -404.4,425.8 -404.2,425.6 -404,425.5 -403.9,425.5   -402.8,425.2 -402.2,424.9 -402,424.7 -401.9,424.4 -401.8,424.3 -400.7,423.3 -400.4,423.2 -399.7,423.1 -396.4,422 -396.1,422   -396,421.9 -395.9,421.9 -395.7,421.7 -395.6,421.6 -394.4,421.2 -394.1,421 -393.9,420.7 -393.7,420.5 -393.1,420.3 -392.7,419.9   -392.5,419.7 -391.4,419.4 -391.1,419.2 -391,419.2 -390.6,419.2 -390.6,419.1 -390.5,419 -390.3,419 -389.9,418.9 -389.3,418.8   -383.7,419.2 -380.7,418.9 -380.1,418.7 -379.6,418.2 -379.5,417.9 -379.3,417.2 -379.3,416.9 -379.2,416.6 -378.8,415.8   -378.7,415.6 -377.9,414.7 -377.3,414.3 -376.6,413.9 -376.5,413.9 -376.5,413.4 "/></svg>