<svg xmlns="http://www.w3.org/2000/svg" xmlns:xlink="http://www.w3.org/1999/xlink" version="1.1" x="0px" y="0px" viewBox="-461 335 100 100" fill="#e0e0e0" style="enable-background:new -461 335 100 100;" xml:space="preserve"><style type="text/css">
	.st0{fill-rule:evenodd;clip-rule:evenodd;}
</style><polygon class="st0" points="-394.3,347.8 -394.3,339.1 -394.3,339.1 -404.3,335 -418.1,335.4 -416.1,340.6 -416.1,342.4   -416,344.2 -419.7,350.4 -421.2,350.5 -427.7,360.4 -427.7,365.8 -426.3,367.7 -427.7,369.4 -427.7,374.8 -425.5,375.6   -424.1,373.9 -421.9,376.5 -424.1,379.3 -426.1,380.2 -426,382.1 -425.3,382.5 -423.3,383.7 -422.4,390.2 -421.9,394.6   -424.7,396.5 -424.8,400 -420.4,407.2 -414.7,417.8 -414.6,419.2 -414.6,424 -414.6,425.1 -416,428.6 -413.5,431.9 -412.5,433.2   -408.1,433.1 -406.2,434.3 -405.1,435 -403,431.9 -401.6,423.3 -400,419.4 -398.7,416.2 -398.7,408.9 -397.7,407.1 -395.9,403.7   -395.7,396.4 -397.2,394.6 -397.2,369.3 -395.7,367.7 -395.7,364.1 -395.7,355 -394.3,353.2 "/></svg>