<svg xmlns="http://www.w3.org/2000/svg" xmlns:xlink="http://www.w3.org/1999/xlink" version="1.1" x="0px" y="0px" viewBox="0 0 100 100" fill="#999999" enable-background="new 0 0 100 100" xml:space="preserve"><path fill="#999999" d="M2.2,27.8l-0.1,0.1l0.1,0.2l0.1-0.1h0.1l0-0.2L2.2,27.8L2.2,27.8z M1.5,29.5l0,0.1l0.1,0.1  l0,0.1l0,0.1l0.1,0l0.1-0.1l-0.1-0.2L1.5,29.5z M55.9,35.8l0-0.2l-0.1-0.1l-0.1,0.2l0,0.2l0,0.2l0,0l0.1,0L55.9,35.8z M9.7,38.7  L9.7,38.7L9.7,38.7l-0.1-0.1l-0.1,0.1l0,0.1l0,0.1l0.1,0l0.1,0.1l0.1,0.1l0,0l0.1,0l0.1,0l-0.1-0.1L9.7,38.7z M53.3,40L53.3,40  L53.3,40L53.3,40l0.1,0l0.1-0.1l0-0.1l0-0.1l0,0l0,0l0,0l0,0l0-0.2l0-0.1l0,0l0-0.1l-0.1,0l-0.1,0l-0.1,0.1l0,0.2l0.1,0.1L53.3,40  L53.3,40z M56.2,43.4L56.2,43.4L56.2,43.4l0.1-0.1l0,0l0-0.1l0,0l-0.1-0.1L56.2,43l0,0l0,0L56,43.2l0,0.1L56.2,43.4L56.2,43.4z   M69.3,47.3l-0.1,0l0,0.1L69,47.6l0,0.1l0.1,0l0.1,0l0.1,0l0,0l0.1-0.1l0-0.1L69.3,47.3L69.3,47.3z M49.3,58.5L49.3,58.5L49.3,58.5  L49.3,58.5l0.1,0.1l0-0.1l0-0.1L49.3,58.5L49.3,58.5L49.3,58.5L49.3,58.5L49.3,58.5z M51.7,60.3v-0.1l-0.1-0.1l0,0l-0.1,0l0,0.2  l0.1,0.1L51.7,60.3L51.7,60.3z M51.4,62.7L51.4,62.7l-0.2-0.2l-0.1,0L51,62.4l0,0.1l0.2,0.1l0.1,0.2l0.1,0.1l0.1,0l0,0L51.4,62.7  L51.4,62.7z M83.1,64.3l0.1-0.2l0.1-0.1L83.2,64l-0.1-0.1l0,0l0,0l0,0l0,0h-0.1l0,0l-0.1-0.1l0-0.1l0,0l0,0.1l0,0.1l0.1,0.1l0,0.1  l0,0.1l0.1,0l0,0.1l0,0.1l0,0l0,0h0L83.1,64.3L83.1,64.3z M83.5,65.5L83.5,65.5L83.5,65.5l0.1-0.1l0,0l0,0l0,0l0,0l0-0.1l0-0.1  L83.6,65l-0.1,0l-0.1,0L83.2,65l-0.1-0.1l0,0L83,64.8l-0.1,0l0,0.1l0.1,0.1l0,0h0l-0.1,0l0,0.1l0,0l0,0l0,0l0,0l0,0.1l0.1,0l0.1,0  l0,0.1l0.2,0l0.1,0l0.1,0.1l0,0l0,0l0,0.1l0,0.1l0.1,0.1L83.5,65.5L83.5,65.5L83.5,65.5z M86.9,65.5l0.1,0.1l0.1,0l0-0.1l-0.1-0.1  l0,0l-0.1,0l0.1-0.2l-0.2,0l-0.1,0.1l0,0L86.9,65.5z M24.5,68.5l-0.1,0.1l-0.1,0l0.1,0.1l0.1,0l0,0.1l0,0.1l0.1-0.1l0,0l0-0.1l0-0.1  l0-0.1L24.5,68.5z M87,68.6L87,68.6l0.1,0l0.1,0l0-0.1h0l0,0l-0.1,0l-0.1,0l-0.1,0l0,0.1L87,68.6L87,68.6z M76.2,97.9L76.2,97.9  L76.1,98l0,0.1l0.1,0.1l0.1,0l0,0.1l0.1-0.1l0.1,0l0-0.1L76.2,97.9z M71.7,98.8l-0.1,0.1l-0.2,0l-0.1,0l-0.1,0l0,0l0.1,0.1l0.1,0  l0.1,0l0.1,0l0.1,0l0.1,0l0,0L71.7,98.8L71.7,98.8L71.7,98.8z M51.3,21.6L51.3,21.6l-0.1-0.2l-0.1-0.1l-0.1,0l-0.2,0.1l-0.1,0.1  l0,0.1l0.2,0.1l0,0l0,0L51.3,21.6l0.1,0.2l0.1,0l0-0.1l-0.1-0.1L51.3,21.6z M0.4,28.3L0.4,28.3l-0.3,0l-0.1,0l0,0.1l0,0.1l0.1,0.1  l0.1,0l0.2-0.1l0.3-0.4L0.4,28.3L0.4,28.3z M53.9,35.6l0.3-0.3l0-0.1l0-0.1l-0.1-0.4l0,0L54,34.9L54,34.9l-0.1,0l0,0.1l0,0.1v0  l0,0.1l-0.1,0.1l0,0.1L53.9,35.6L53.9,35.6L53.9,35.6z M77.6,48.1l0.1-0.1l0.1,0l0,0v-0.1l0,0l-0.1,0l-0.3-0.1l-0.1-0.1l-0.1,0  l-0.1,0l0,0l0-0.1l0,0l-0.2,0l0,0.1l0.2,0.2l0,0.1l0,0l0,0l0.1,0.1l0.1,0l0.1,0l0.1,0l0.1,0L77.6,48.1L77.6,48.1L77.6,48.1z   M77.9,48.1L77.9,48.1l0.1,0.1l0,0l0-0.1L78,48l-0.1-0.1l0,0l0,0.1L77.9,48.1L77.9,48.1z M54.8,55.6l0.2-0.1l0.1,0l0.1-0.1l0.1-0.2  l-0.1-0.2L55.1,55L55,55l-0.1,0.1l-0.2,0.4l0,0.1L54.8,55.6z M53.6,59.4l0-0.1l0.1-0.1l0-0.1l0-0.1l0-0.1l0-0.1l0-0.1l0-0.1l-0.1,0  l-0.1,0.1l-0.3,1.2l0,0.1l0,0.1l0,0l0-0.1l0,0l0-0.1l0-0.1l0.1-0.2l0,0l0.1-0.1L53.6,59.4z M80.8,60.8l0-0.1l0-0.1l0,0l0,0l0,0  l0-0.1l0-0.1l0-0.1l-0.1-0.1l-0.1-0.1l-0.1,0l-0.1,0l-0.1,0.1l0,0.1l0,0.1l0.1,0l0.1,0l0,0.1l0,0.3l0,0l0,0h0l-0.1,0.1l-0.1,0l0-0.1  l0-0.1l0-0.1l-0.1,0l0,0l0,0l0,0.1l0,0.1l0,0.1l0,0.2l0,0l0,0l0,0l0,0.1l0.1,0.1l0,0.1l0,0.1l0,0l0.1,0.1l0,0l0,0l0.1,0l0-0.1l0-0.2  l0-0.1l0,0l-0.1-0.1l0-0.1l0-0.1l0-0.1l0.1,0l0,0l0,0l0.1-0.1l0.1-0.1L80.8,60.8z M79.7,61.4L79.7,61.4l0.1,0l0.1-0.1l0-0.1L79.8,61  l-0.1-0.1l-0.1,0l0,0l-0.2,0.2h-0.1l-0.1,0.1l-0.1,0.1l0,0l0.1,0l0.1,0l0.1-0.1l0.1,0l0.1,0L79.7,61.4L79.7,61.4L79.7,61.4z   M85.4,62.9L85.4,62.9l0.1,0.2l0.1,0l0,0l0-0.1l0-0.1l0,0l0,0l0.1,0l0.1,0l0.1-0.1l0,0L86,63l0.1,0l0-0.1L86,62.9l0,0l0,0l-0.1-0.1  l-0.1,0l-0.1,0l0,0l-0.5-0.1l-0.1,0l0.1,0L85.4,62.9L85.4,62.9z M87.2,70.1l0.2,0.3l0,0.1l0,0l0.2,0l0.1,0l0,0l0.1,0H88l-0.1-0.1  l-0.1-0.1l0.1-0.2L87.8,70l-0.1,0l-0.1,0.1l0,0l0,0l0,0l-0.2,0L87.2,70.1L87.2,70.1z M40.7,76.4l-0.1-0.1l-0.1-0.1l-0.1,0l-0.1,0.1  l-0.1,0.1l-0.1,0.1l0,0l0,0l-0.1,0.1l0,0.1v0.1l0.1,0.1l0.1,0l0.1-0.1l0.1,0l0.2,0l0,0l0,0.1l0,0l0.1,0.1l0-0.1l0-0.1l0-0.1l0-0.1  l0-0.1L40.7,76.4z M93.9,79.7L93.9,79.7l0,0.1l-0.1,0l0,0l0,0.1l0.1,0l0.2-0.3l0-0.1l0-0.1l0-0.1l-0.1,0l-0.1,0l-0.1,0l-0.1,0.1  l0,0.1L93.9,79.7L93.9,79.7z M65.7,91.2L65.7,91.2L65.7,91.2l0.1,0l0.1,0.1l0.1,0l0,0.1l0,0l0-0.1l0.1-0.2L66,90.9l-0.1-0.1l-0.1,0  l-0.1,0.1l0,0l-0.1,0l-0.1,0L65.5,91l0,0l0,0L65.7,91.2z M46,70.5L46,70.5l-0.1-0.1L46,70.5L46,70.5L46,70.5L46,70.6l0,0.1l0.1,0  l0,0L46,70.5L46,70.5z M50.8,71.6l0,0.1l0.1,0.1l0.1,0l0-0.1L50.8,71.6L50.8,71.6z M84.2,67.8v0.1l0.1,0.1l0.1,0l0.1,0l0.1,0l0-0.1  h0l0.1,0v-0.2l-0.1-0.2l-0.1-0.1l0-0.1l-0.1-0.2l-0.1-0.1l-0.1,0l0-0.1l0.1-0.1l0-0.1l-0.1,0l-0.1,0l0,0l0,0l0,0l-0.1,0l-0.1-0.1  l-0.1,0l0,0.1l0,0l-0.2,0l-0.1,0.1l0,0.2l0.1,0.1l0.1,0.1l0.1,0.1l0.1,0.1l0,0.1l0,0.1l0.1,0.1L84.2,67.8l0.1-0.2l0.1,0l0,0.1  L84.2,67.8z M87.9,74.8L87.6,75l-0.1,0.3l0,0.1l0.1,0.1l0.2,0l0.2,0l0.3-0.1l0.1-0.3l-0.1-0.3l-0.1-0.1L87.9,74.8z M52.8,36.5  l0.1,0.1l0.2-0.1l0.1-0.4l0-0.2l0-0.1l-0.1,0L53,35.8l0,0l0-0.1l0-0.1l-0.1,0l-0.1,0.1l-0.1,0.2l0,0.2l0,0.1l0.1,0.1l0,0.1l-0.1,0  L52.8,36.5z M16,45.6L16,45.6l-0.1,0l-0.1-0.1l-0.2,0.1l-0.2,0l-0.1,0.2l0.2,0.4l0.4,0.4l0.1,0.1l-0.1-0.1l-0.1-0.1l0,0l-0.1-0.1  l-0.2-0.1l0-0.2l0.3-0.1l0.1-0.1l0.1-0.1l0-0.1L16,45.6L16,45.6L16,45.6L16,45.6L16,45.6z M17.8,46.1l0-0.2l-0.1,0L17.4,46L17.2,46  L17,46.2l-0.2,0.4l0,0.2l0,0.1l0.1,0l0.1-0.2l0.1-0.1l0.1-0.1l0.1,0l0.2-0.1l0.1-0.1L17.8,46.1z M60.5,60.6L60.5,60.6l-0.3-0.1  l-0.1,0.1L60,60.7l-0.2,0.1l-0.2,0l0.1,0.1l0.5,0.1l0.3,0l0-0.2l0-0.1L60.5,60.6z M81.5,64.4L81.5,64.4l-0.1-0.1l-0.1-0.1l-0.1-0.1  l-0.1,0l-0.1,0l-0.1,0l0,0.2l0,0.2l0,0.1l0,0.1l0,0.1l-0.1,0.3l0,0.1l0.1,0.1l0,0.1l0,0.1l0.1,0.1l0.1,0l0-0.5L81,64.9l-0.1-0.1  l0.1,0l0,0l0-0.1l0-0.1l0.1-0.1l0.1,0l0,0l0,0l0.1,0l0.1,0.1l0.1,0L81.5,64.4L81.5,64.4z M92.4,80l-0.2,0L92,80l-0.1,0l-0.1,0.1  l0,0.2l0.1,0.1l0.2-0.1l0.2,0l0.2,0l0.2-0.1l0.1,0l0,0l0-0.1l0-0.1l0-0.1L92.4,80z M26.4,72.3L26.4,72.3L26.4,72.3l-0.2,0.1l0,0.2  l0,0.5l0.1-0.2l0.1-0.1l0.1-0.1l0-0.1l0,0l0.1,0l0.1,0v-0.1L26.4,72.3L26.4,72.3z M26.9,72.9L26.9,72.9L26.8,73l-0.1,0.4l0.2-0.1  l0,0.1l0,0l0,0l0.1,0.1l0-0.3l0-0.2l0-0.2L26.9,72.9z M44.4,85.1L44.2,85L44,84.8l0,0v0l0,0l0,0L44,85l0.1,0.2l0.1,0.2l0.3,0.3  l0.1,0.1h0.1l0-0.5L44.4,85.1z M46.3,61.5L46.3,61.5l-0.1,0.2l-0.1,0.1L45.8,62V62l0.2,0.1l0.3,0l0.3,0l0.2-0.1V62l-0.2,0l-0.1-0.1  l-0.1-0.1l-0.1-0.1L46.3,61.5L46.3,61.5L46.3,61.5z M42.6,65.5l-0.2-0.1l-0.1-0.1l-0.1,0l-0.1,0L42,65.4l-0.1,0.1l0.2,0.1l0.1,0.2  l0.1,0.1l0.2,0.1l0.1-0.1l0-0.1l0-0.2L42.6,65.5L42.6,65.5z M46.8,64.5l0.3,0l0.3-0.1l0.2-0.2h-0.4l-0.2,0.1l-0.5,0l-0.3,0.1l-1,0.7  v0.1l0.3,0l0.6-0.2l0.3,0l0.2,0l0.1-0.1l0-0.3L46.8,64.5z M17.1,47.4h0.2l0-0.2l0.1-0.2l0.2-0.4l-0.1,0l-0.4,0.7V47.4z M9,37.7  l-0.2-0.2l-0.2-0.2l-0.2,0.1l0,0.2l0.1,0.2l0.2,0.3l0.1,0.1l0.1,0l0.2,0l-0.1-0.3L9,37.7z M63.1,33.4l0.1,0.7h0.1l0.5-0.8L64,33  l-0.4-0.3l-0.1,0l-0.1,0l0,0.1l0,0.1l-0.2,0.2L63.1,33.4z M70.3,47.5l0.1-0.5l0,0l0,0l0,0l0-0.1l-0.3-0.3l-0.1-0.1H70v0.1h-0.1  l-0.1-0.1l-0.1,0l-0.1,0.1l-0.1,0.1l0,0l-0.1-0.1l-0.1,0l-0.1,0l0,0.1l0.1,0.1l0.1,0.1l0.1,0.1l0.1,0.1l0,0.1l0,0.1l0,0.1l0,0.1  l0,0.1l0.1-0.1l0.1,0l0.1,0L70.3,47.5L70.3,47.5z M61.9,74.1L61.9,74.1h-0.3l0.1,0.3l0.2,0.1l0.2,0.1l0.2,0.1l0.3,0.3l0.2,0.1l0.3,0  V75l-0.2-0.3L61.9,74.1z M59.4,73l0.2,0l0.1-0.2l0-0.1l-0.1-0.1l-0.2-0.1l0-0.1l-0.1,0l-0.2,0L59,72.5l0.2,0.3L59.4,73z M64,69.8  l0.2,0.2l0.2,0l-0.1-0.2l-0.1-0.1l-0.1-0.1l0.1-0.2l0.2-0.7l-0.2,0L64,68.9l-0.2,0.2l-0.1,0.2l0.1,0.3L64,69.8z M72.4,67.7l-0.2,0  l0.2,0.4l0,0l0,0l0,0l0-0.1l0.1,0.1l0.1,0l0.1-0.1l0.1-0.1l-0.1-0.1l-0.1-0.1l0-0.1l0-0.1l-0.3,0.2L72.4,67.7z M70.8,71.1l0.2,0  l0.1-0.2l-0.3-0.2l-0.1-0.1l-0.1,0.1l-0.1,0.1l-0.1,0.1L70.3,71l0.3,0L70.8,71.1z M68.8,71.2l-0.3,0.2l-0.2,0.2l-0.1,0.2l0.1,0.1  l0.3,0l0.2-0.1l0-0.3l0,0l-0.1,0V71.2L68.8,71.2z M53.5,99.4l0-0.1l0.1-0.1v-0.1L53.3,99l-0.1,0l-0.1,0L53,99.1l-0.1,0.1l-0.1,0  h-0.1v0.1l0.4,0.3l0.3,0.1l0.3,0v-0.1l-0.1-0.1L53.5,99.4z M86,91.2l-0.3,0.1l-0.2,0l-0.4,0.2l-0.1,0L85,91.4l-0.1,0l0,0l-0.1,0.2  l0,0l-0.1,0.1l-0.2,0.3L84.3,92l0,0.1l0.1,0.1l0.1,0.1l0.1,0.1l0.1,0l0.2-0.2l0.1,0l0.1,0l0.1-0.1l0.1-0.1l0.1-0.1l0.1,0l0.3-0.1  l0.2,0v-0.1L86,91.3l0.1,0l0.1-0.1l0-0.1L86,91.2z M41.7,79.6L41,79.1l-0.2-0.2L40.4,78L40.2,78l-0.1,0.1l-0.3,0.6l0,0.1l0,0.1  l0.1,0.2l0.1,0.3l0,0.3l-0.1,0.8l0.1,0.1l0.1,0.2l0.1,0.1l0,0l0.2,0l0,0l0,0.1l0,0.1l0,0l0.3,0.1l0.1,0.1l0,0.2l0.1-0.1l0.1,0  l0.2,0.1l0.2,0l0.1,0l0-0.8l0-0.2l0.1-0.1l0.2-0.1l0.2,0l0.1-0.1l-0.1-0.2L41.7,79.6z M47.2,58.5L47,58.5l-1.4,0.1l0,0.1l0,0.2  l0.1,0.2l0.1,0.1l0.1,0.1l0.1,0.1l0,0.1L46,59.5v0.1l0.2,0.1l0.1,0l0.1,0.1l0.1-0.1l0.3-0.1l0.1-0.1l0.1-0.1l0-0.2l0-0.2L47,59  l0-0.2l0.1-0.2L47.2,58.5z M47,55.9L47,55.9L47,55.9L47,55.8l-0.1-0.1l0-0.1l0-0.1l0.1-0.1l-0.1-0.1l-0.1-0.1l-0.3,0l-0.1,0l-0.1,0  l-0.1,0.1l0.1,0.1v0l0,0l0,0.1l-0.1-0.1l-0.1,0l-0.1,0l-0.1,0l0.2,0.1l0.1,0.1l-0.4,0.2l0.1,0l0.2,0.1l0.1,0l0.1,0l0.1-0.1l0.1-0.1  l0.1,0l-0.1,0.2l-0.1,0.2l-0.2,0.1l-0.3-0.1l-0.2,0.1l-0.2,0.2l-0.1,0.1v0.1l0.1,0.1l0.1,0.1l0.3,0.1l0.2,0l0.2-0.1l0.1-0.1l0.1-0.1  l0.1,0.1h0.1l0-0.2l0.2-0.2l0-0.2l0.4-0.2H47z M8.2,35.2l-0.1-0.4L8,34.6l-0.1-0.2l-0.1,0l-0.1,0.1l-0.2,0.1l-0.2,0l-0.1,0L7,34.3  l-0.2-0.1l-0.3-0.1l-0.2-0.1L6.3,34l0-0.1L6,32.4l-0.1-0.3l0.2,0.1l0.1-0.1l0-0.3l-0.3-0.1l-0.7-0.3v-0.1h0.2v-0.1l-0.1-0.1L5.2,31  l0-0.2l0.1-0.2l0.1-0.1L6,30.3l0.2-0.2l0.1-0.3l0-0.5H6.3v0.1H6.3l-0.1-0.1l-0.1-0.1l-0.3-0.1l-0.1-0.1L5.6,29l-0.1-0.1l-0.2-0.1  L5,29.1l-0.3,0.1l-0.3,0.1l-1,0l-0.1,0l-0.1,0.1l-0.3,0.4L2.8,30L3,30l0.1,0.1l0,0.2l0,0.2l0.2-0.1l0.1,0.1l0,0.3L3.4,31l0.1,0.1  l0.1,0l0.2,0l0,0.1l0.3,0.7L4.3,32l0.3,0.1l0.3,0.2l0.2,0.2l0.1,0.3l0.1,0.6l0.1,0.3l0.1,0.3l0.1,0.2v0l0-0.1l0,0l0.1,0.1l0.4,0.1  l-0.1,0.1L6,34.6l-0.1,0l0,0.1l0.1,0l0.2,0l0.2,0l0.1,0.1L6.9,35L7,35.1l0.2,0l0.2,0l0.2,0.1l0.3,0.2l0.3,0.1l0.1,0.1l0.1-0.1l0-0.1  L8.2,35.2z M15.2,43.9l0-0.2l0-0.2l-0.2-0.2l-0.1-0.1l0-0.1l0-0.1l-0.3,0.1l-0.2,0.2l-0.1,0.2L14,43.8L13.9,44L13.8,44l-0.2,0.5  l0,0.3l-0.2,0.5l-0.2,1.4l0,0.4h0.1l0.2-0.3l0.1-0.2l0.1-0.1l0.2-0.1l0.1,0.3l0.2,0l0,0.1l0,0.1l0.1,0.1l0.1,0v-0.1l-0.1-0.2  l0.1-0.1l0.2,0l0.2,0.1l0-0.1l0,0l0-0.1l0-0.1l0.1,0.1l0,0l-0.1-0.2l0-0.1h0.1l0.1,0.2l0.1,0l0.1-0.2l0-0.8l0-0.2l-0.1,0.1L15,45.4  L15,45.5l-0.1,0l0-0.1l0.1-0.1l0.3-0.4l0-0.1l0-0.1l0-0.1l0-0.1l0-0.1l0-0.1l0.1-0.2L15.2,43.9z M17.4,58.6l-0.2-0.4L17,57.9  l-0.4-0.3l-0.5-0.2l-0.4,0.1l-0.3-0.2l-0.1-0.1l-0.1-0.3l-0.2-0.4l0,0L15,56.4l0,0l0,0l-0.3-0.1l-0.3,0.3L14,57.2l0.1,0.1L14,57.4  l0.1,0.2L14,57.8l0.3,0.2l0.4,0.6l0.2,0.2l0,0.2l0.3,0.3l0.6,0.5l0.3,0.4l0.1,0.1h0.2l0.1,0l0.1-0.1l0-0.2l0-0.1l-0.1-0.2l0-0.2  l0.1-0.1l0.1-0.1l0.1-0.1l0.1-0.1l0.2-0.1l0.3,0l0.4,0.1l0.3,0.2l0.2,0.2l-0.1-0.4L17.4,58.6z M14.7,53.8l0.3,0.3l0.1,0.1l0.2,0.1  l0.1,0l0.1-0.1l0.1,0l0.3,0.1l0.1,0l0.1-0.2l0-0.2l0-0.2L16,53.4l-0.4-0.6l-0.1-0.4L15,52l-0.1-0.2l0-0.2l-0.1-0.1l-0.2,0l0-0.1  l0-0.1l0,0l-0.1,0.1l-0.2,0.2l-0.2,0.1l-0.1-0.1L13.9,51l-0.1-0.1l0.1-0.2l0.1-0.1l0.1-0.1l0-0.2l0-0.1l-0.6-1.8h-0.4v0.1l0.1,0.1  l0,0.1l0,0.2l0,0.2l0,0.1l0.1,0.5L13,49.6l0.1,0.3l0,0.3L13,50.4l-0.3,0.1l-0.2,0.2l-0.1,0l-0.1-0.1l0-0.2l0-0.1l-0.1,0.1L12,50.4  l-0.1-0.3L11.8,50l-0.2,0.3h-0.1l0-0.1L11.5,50l0,0.4L11.4,51l-0.1,0.4l-0.2,0.2l-0.1,0L11,51.6l0,0.1l0,0.1l0,0.1L11,52.1l-0.1,0.1  l0,0.1l0.1,0.3l0.3,0.2l0.1,0.2h0.1l0.1-0.2l0.2-0.1l0.1-0.1l0.1-0.2l0-0.3l-0.1-0.5l0-0.2l0.1-0.2l0.1,0l0.1,0.2l0.3,0.8l0.1,0.2  l0.2,0.2v0.1l-0.1-0.1l-0.2-0.2l-0.1,0l0,0.2l0.2,0.3l0,0.1l0,0.3l0,0.1l0.2,0.2l0.4,0.1l0.2,0.2l0.2-0.4l0.4-0.1l0.4,0.1L14.7,53.8  z M61,15.5l0-0.1l-0.1-0.1l-0.1-0.1l-0.1,0l-0.1-0.1L60.5,15l0-0.1l0-0.1l-0.2-0.1l-0.5-0.1l-0.4-0.2l-0.9,0.7l-0.4,0.6L58,16.1  l-0.1,0.4l0.1,0.4l0.2,0.1l0.2,0l0.3,0.1l0.1,0l0.2,0.1l0,0l0,0.1l0,0l0,0l0.1,0l0,0l0.2,0.2l0.1,0.1l0.1,0.1l0.2-0.1l0.3-0.3  l0.1-0.1l0.4-0.1l0.2-0.1l0.1-0.1l0-0.1l0.2,0.1l0.1,0l0-0.1l0-0.1l-0.1-0.2l-0.1-0.4l0-0.2l0.2-0.1v-0.3l-0.2-0.1l-0.1-0.2l0.1-0.2  L61,15.5z M66.5,26.7l-0.1-0.2l-0.2-0.2L66,26.2l-0.6,0.2l-0.2,0l0,0l0-0.1L65,26.2l-0.1,0l-0.7,0.2l-0.4,0v0.1l0.1,0.1l0,0.1l0,0.2  l0,0.2l0.1,0.2l0.1,0.1l0,0.1l-0.1,0.2h0.1l-0.1,0.1l0,0l-0.1,0v0.1h0.1V28L64,28L64,28.1l0,0.1l0,0.1l0.1,0l0.1,0.1l0.1,0l-0.1,0.1  L64,28.5l0,0.1l0,0.1H64l0.1-0.1l0.7-0.2l0,0.1l0,0l0,0.1l0,0.1H65l0.1-0.1l0.1-0.1l0.1,0l0.1,0.2l0,0.1L65.1,29l0.4,0.1l0.2,0  l0.2,0l0.1-0.1l-0.1-0.2l-0.1-0.2l-0.1-0.2l0,0l0,0l-0.1,0l0.1-0.2l0.1-0.2l0.1-0.1l0.2,0l-0.1-0.1l-0.1,0l-0.1,0l-0.1,0l0.5-0.4  l0.1,0l0.2,0.1l0.1,0.1l0.1,0.2l-0.1,0.1l-0.1,0.1l-0.3,0.2l0.2,0l0.2,0.3l0.2,0.1l0,0.1V29l0,0.1l0.1,0.1l0.3,0.1l0.1,0l0.1,0.1  l0-0.1l0-0.1l0-0.1l0.1-0.1l0.1,0l0,0l0-0.1l-0.1-0.1l-0.1-0.2l-0.1-0.2l0.1-0.2l-0.2-0.1l0-0.1l0.1-0.1l0.2-0.1l-0.1,0l-0.2-0.1  l0.1-0.1l0.1-0.1l0.1,0l0.2,0l0-0.4l0.2-0.3l0.3-0.2l0.3-0.1l0-0.1l0-0.1l0-0.1l0,0l0,0l-0.1,0V26l0.1-0.1l0.1-0.1L68.2,26l-0.1,0  l-0.3,0l0,0l-0.1,0.1l-0.2,0.3v0.1l-0.2,0.1l-0.3,0.2L66.7,27l0-0.1L66.5,26.7z M71.2,19.3L71,19.1L70.8,19l-0.9-0.3l-0.3,0  l-0.3,0.1l-0.7,0.4l-0.2,0l0.1,0.2l0.2,0.2l0.7,0.6l0.4,0.2l0.2,0l1.1-0.4l0.1-0.1l-0.1-0.2l0.1-0.2L71.2,19.3z M54.5,53.9  L54.5,53.9L54.5,53.9l0,0.1L54.5,53.9l0.1,0l0.2,0.1l0.2-0.1l0.2,0l0.2,0.1l0.1,0.2l0.2,0l0.1,0.1l0.1,0.3l-0.1,0.1l0,0.1l0.1,0.1  l0.1,0.1l0.1,0.2l0.1,0.1l0.2,0.2l0.2,0.1l0.2,0l0.2-0.1v-0.1l-0.2-0.1l0.2-0.2l0.3-0.1l0.2,0.1l0,0l0.3,0.4l0,0.2l0,0.1l0.1,0  l0.2,0l0.3-0.1l0.2-0.1l0.2-0.1l0.1-0.2l0.1-0.6l0.1-0.2L58.7,54l0-0.4l0.1-0.7l-1,0.2l-0.2,0.1l-0.2-0.1l-0.5,0l-0.3-0.2l-0.2,0  L56,53L56,52.9l0-0.1l0-0.1l0-0.1l-0.4-0.2l-0.3-0.2L55,52l-0.1-0.2l0-0.1l0.1-0.2L55,51.4l0-0.1l0-0.3l0,0l-0.1,0l-0.1-0.1l0-0.1  l-0.3-0.3l0-0.2l0-0.2l0-0.2l-0.3-0.3l0-0.1l0.2-0.1v-0.1L54.2,49l0-0.5l0.2-0.5l0.3-0.2l-0.2-0.2l-1-0.8l-0.1-0.1l0-0.2l0.1-0.2  l0.1-0.1l0.1-0.1l0.1,0l-0.2-0.1L53,45.5l-0.2,0l-0.3,0l-0.3,0L52,45.4l-0.2,0.2l-0.2,0l-0.2-0.1l-0.2-0.1l-0.5,0L50,45.3l-0.4-0.2  l-0.2-0.2l-0.1-0.2l-0.1-0.3L49,44.3l-0.2,0l-0.2,0.1l-0.1-0.1l-0.1,0.1l-0.2-0.1l-0.3-0.1l-0.1-0.1l-0.1,0.1l-0.1,0l0-0.1l0-0.1  v-0.1l-0.3-0.1l-0.5-0.4l-0.5-0.2L46.1,43L46,42.7l0-0.2l-0.1-0.2l-0.2-0.7l0-0.1l-0.2-0.1l-0.2-0.1l-0.1-0.2l0.1-0.3l-0.1-0.1  l-0.2-0.1l-0.2-0.1l-0.1,0l-0.1,0l-0.2-0.2l-0.1-0.1l-0.3,0.1l-0.6,0.3l-0.2,0.1h-0.7l-0.1,0L42.1,41l-0.2,0.1l0,0.1v0.1l0,0.1  l-0.1,0.1l-0.1,0.1l-0.2,0l-0.1,0l0,0.1l0,0.2l0,0L41,42l-0.3,0.2l-0.3,0.1l-0.5,0.3l-0.3,0.1l-0.1,0l-0.3,0.2l-0.1,0L39,43l0,0.1  l0,0.2l0,0.2l0.3-0.1l1.2-0.1l0.2-0.1l0.1-0.1l0-0.2l-0.1-0.1l-0.2-0.1l-0.2,0v-0.1l0.1-0.1l0.2,0l0.2,0.1l0.2,0l0.2,0l0.1,0  l0.2,0.3l0.1,0.1l0.2,0l0.3-0.1l0.2,0l0.1,0l0.3,0.1l0.4,0.2l1.1,0.8l0.3,0.1l0.1,0.1l0.1,0.3l0.1,0.1l0.1,0l0.3,0.3l0.3,0.1  l0.3,0.2l0.1,0.1l0,0.1l0,0.2l0.1,0.1l0.1,0l0,0l0,0l0.3,0.2l0,0.1l0,0.3l0,0.1l0.2,0.1l0.2,0.1l0.5,0.1l0.2,0.1l0.2,0.2l0.2,0.4  v0.1H48v0.1l0.1,0.2l-0.1,0.2l-0.2,0.2l-0.1,0.2l0.1,0l0.1,0l0,0l0-0.1l0.3,0.6l0.1,0.1l0.2,0l0.4-0.1l0.2,0l0.8,0.2l0.2,0l0.3-0.1  l0.2,0l0.2,0l0.4,0.1l0.2,0l0.8-0.1l0.7,0l0-0.1l0.1,0.1l0.1,0.2l0,0l0,0.1l0,0.1l0.1,0.1l-0.1,0.1l-0.1,0.1l-0.3,0.1l0.3,0l0.3,0.1  l0.2,0.1l0.2,0.1l-0.2,0.5h0.2v0.1l0,0l0,0.1l0,0.1l0.1,0l0.1,0l0-0.1l0-0.1l0,0l0.1-0.1l0.1-0.1l0.1,0l0.1,0.2l-0.2,0.2l-0.2,0.3  l-0.1,0.3l0.3,0.1L53.8,52l0.2,0l0.2,0l0.1,0.1l0.1,0.4l0.2,0.2l0,0.2L54.5,53l-0.2,0.2l0,0.1l0,0.1l0.2,0l0.1,0.1L54.5,53.9  L54.5,53.9z M45.7,38.7l0.1,0l0.1,0.1l0.1,0.1l0.1,0l0.2-0.4l0.2-0.2l0.2,0.1l0.1-0.3l-0.1-0.2l-0.2-0.2l-0.2-0.1L46,37.9L45.9,38  l-0.1,0.2l-0.1,0.2l-0.1,0.1l-0.1,0l-0.1,0.1l0,0.3l0.1,0l0.1,0L45.7,38.7z M57.3,42.2L57.3,42.2l-0.2,0.1l0,0.1l0,0.1l0.1-0.1  l0.1,0l0.1,0.1l0.1,0.1l0-0.1l0,0l0.1,0.2l0.3,0.1l0,0.2l0.1-0.1l0.1,0l0.1,0l0,0.2h0.1l0.1-0.1l0.1,0.1l0.1,0.4l-0.5,0.2l0.4,0.5  l0-0.2l0.1-0.1l0.1-0.1l0.1,0l0,0.1l0.1,0.1l0.1,0.1l0.1-0.1h0.1l0.1,0.1l0.1,0l0.1-0.1l0.1-0.1l0.1,0l0,0l0,0l0-0.1l0-0.1l0-0.1  l0,0l0,0l-0.1-0.2l-0.2-0.2l-0.5-0.3l-0.2-0.1l-0.1-0.1l-0.1-0.1l0-0.2l0-0.4l0-0.1l-0.2-0.2l-0.8-0.5l-0.2,0.1l-0.1,0.1l0,0.2  l0,0.2l0.1,0.3L57.3,42.2L57.3,42.2z M51.6,36.8L51.6,36.8l0-0.1l-0.2,0.1l-0.6,0.9l-0.2,0.5l-0.1,0.2l-0.2,0.1l-0.2,0.2l0.3,0  l0.4-0.3l0.3-0.4l0.2-0.4l0.2-0.1l0.2-0.3l0.1-0.3l-0.2,0L51.6,36.8L51.6,36.8z M48.7,38.6l-0.4-0.2l-0.3-0.3l-0.3-0.3l-0.1,0l0,0  l0,0l0-0.1l-0.2,0.1l0.3,0.6l0,0.2l0.1,0.1l0.4,0.4l0.1,0.1v0.1l-0.1,0.1l0,0.1l0.1,0.1l0.3,0.1l0.2,0.1l0.1,0l0.3,0l0.2-0.2  l0.4-0.4v-0.1L49.6,39l-0.3,0l-0.2,0l0-0.2L48.7,38.6z M80.7,40.5l0.1,0.1l0.1,0.1l0.2-0.1l0.3,0.1l0.1-0.2l0-0.3v-0.1l-0.2-0.1  l-0.2-0.3l-0.1-0.3l0-0.3l-0.1,0l-0.1,0l0-0.1l0-0.1l-0.1-0.1l-0.1-0.1l0-0.1l0.1-0.1l-0.2-0.1l-0.1-0.1L80,37.6l0-0.1l-0.1-0.1  l-0.4-0.2L79,36.9l0-0.1l0.4-0.6l0.1-0.1l-0.2-0.2l-0.3-0.1l-0.2-0.1l0.1-0.3l-0.2-0.1l-2,0.1l0.1,0.4l0,0.3l-0.1,0.2l-0.3,0.1  l-0.5,0.1l-0.2,0.1l-0.1,0.2h-0.1l0-0.1l-0.1-0.1l0,0.1l0,0.1l0,0.1l0,0.1l-0.3-0.1l-0.4,0.1l-0.4,0l-0.1-0.3h-0.1l-0.1,0.1L73.4,37  l-0.1,0l-0.1,0l-0.1,0.1l0,0.1v0.1l0,0.1l0,0.1l-0.1,0.1l0,0l0,0l0,0l0,0l0,0.2l0,0.2l0,0.1l-0.1,0v0.1l0.2,0.1l0.4,0.4l0.2,0.1  l0.1,0l0.1,0.1l0.2,0.1l0.2,0.1l1,0.4l0.2,0l0.2-0.1l0.2-0.2l0.5-0.7l0,0l0.2-0.4l0.1-0.2l0.2-0.1l0.2-0.1l0.2,0l0.1,0l0.4,0.1  l0.1,0.1l0.1,0.1l0,0.1l-0.1,0.1l0,0l-0.3,0.3L77.3,39l-0.1,0L77,39l-0.1,0l-0.1,0.1l-0.2,0.3l0,0l-0.4,0.1l-0.1,0l0,0l0,0l-0.1,0  l-0.1,0.1l-0.1,0v0.1l0.2,0l0.1,0.1l0.3,0.5l0.1,0.1l0.1,0l0.6,0l0.7,0.1l0.3,0.1l0.3,0.2l0.2,0.1l0.4,0.1l0.4,0.1l0.2,0l0.7-0.1  l0.4-0.1l0.3-0.1l0-0.1l0,0l0,0l0-0.1v-0.1l-0.2-0.2L80.3,40l-0.4-0.3l-0.2-0.2l0.2-0.1l0.4,0l0.2,0.1l0.1,0.2l0,0l0.1,0.1l0,0.1  l-0.1,0.2l0,0l0,0.1l0,0.1l0,0.1l0.1,0.1l-0.1,0.1L80.7,40.5z M76,47.3L76,47.3L76,47.4l0,0.1l-0.5-0.6l0-0.1l-0.5-0.2l-0.2,0  L73,46.9l0,0.2l-0.1,0.2l-0.1,0.2l0,0.2l0.1,0.2l0.4,0.5l0.2,0.1l0.2,0.1l0.1,0l0.1,0l0.1,0.1l0.1,0.2l0.1,0.2l0,0.2l-0.1,0.1l0.1,0  l0.1,0.1l0.1,0.1l0.1,0.1l0,0l0,0l0,0l0-0.1l0,0.2l0,0.4l0.1,0.2l-0.2,0.1l0,0.2l0,0.2l-0.1,0.2l-0.1,0l-0.3,0l-0.1,0.1l-0.1,0  l-0.2,0l-0.1,0.1l-0.1,0.1l-0.1,0.2l0,0.2l0.1,0.1l0.2-0.1l0,0.1l0,0.2l0,0.1l0.1,0l0.1,0l0.1,0l0.1,0.2l0.1,0.2l0.1,0.1l0,0l0,0  l0.2,0.3l0.1,0.1l0.2,0l0.2,0.1l0.1,0l0.1-0.1l0.1-0.3l0.1-0.2l0.5-0.2l0.3-0.1v-0.2l-0.1-0.3l0.1-0.3l0.3-0.2l0.3,0l-0.2-0.6  l-0.1-1.1l0-0.2l0-0.2l0.1-0.2l0-0.1l-0.2,0l0.1-0.1l-0.1,0l0,0l-0.1-0.1l0.3-0.1l0.1-0.3l0-0.3l0.1-0.2l-0.1-0.2l-0.1-0.1l-0.1,0  L76,47.2l0,0l0,0L76,47.3L76,47.3L76,47.3z M59.7,69.7l0.1,0.4l0.2,0.4l0.2,0.3l0.4-0.4l0-0.1l0.2-0.1l0-0.1l0-0.1l-0.1-0.4  l-0.4-0.5l-0.1-0.2H60L59.9,69l-0.1-0.1l-0.3-0.2h-0.2l0,0.1l0,0h0l0,0l-0.1,0.1l0,0l0,0.1l0.1,0l0.1,0.2l0.1,0.1v0.1L59.7,69.7z   M63.3,60.3l0.1,0.1l0.1,0.1l0.4,0.2l0.4,0.4l0.1,0.1l0.1,0.1l0.1,0.3l0.1,0.1l0.2,0l0.3,0.2l0.5,0.1l0.1-0.1l0.1-0.4l0.3-0.4l0-0.1  l0-0.1l-0.1-0.1l-0.1,0l0.1-0.1L66,60.5l-0.3-0.2l-0.3-0.1l-0.2,0.2L65,60.3l-0.2-0.1l-0.2,0l-0.2,0.1l-0.1-0.1l-0.1-0.1l-0.1,0  l-0.1,0V60h0.1v-0.1l-0.1-0.1l-0.1,0l-0.6,0l-0.1,0l0,0.1l0,0.2L63.3,60.3z M63.3,59l0.1-0.3l0-0.2l-0.1-0.1L63,58.5L63,58.5l0-0.1  l0.1-0.1l0.1-0.1l0-0.2l0.1,0l0,0l0.1-0.1l-0.5-0.4L63,57l0.1-0.3l-0.1-0.1H62l-0.3-0.1l-0.1-0.1l0-0.1L61.5,56l0-0.1l0,0l-0.1-0.1  l-0.1-0.1l-0.1,0l-0.1,0l-0.1,0l0-0.1l0-0.2l-0.2-0.1l-0.2,0.1l-0.6,0.3L60,55.7l0,0.1l0,0.1l0,0.1l0,0.1l-0.1,0l0.1,0.1l0.2,0.3  l0.1,0.1l-0.1,0.2l0,0.1l0.1,0l0.1-0.1h0.1l0.2,0.2l0.2,0.2l0.2,0.3l0.1,0.4l0.2-0.1l0.1,0.1l0.2,0.4l0.1,0.2l0.1,0.1l0.1,0.1l0.2,0  l0.1,0.1l0.2,0.6l0.1,0.1l0.3,0.2l0.1,0.1H63l0-0.2l0-0.1l0.2-0.2L63.3,59z M63.1,63.7l0-0.1L63,63.4l-0.1-0.1l-0.1,0l0,0l0-0.1  l0.1-0.1l0-0.1l0-0.2l-0.1-0.2l-0.1-0.2l-0.1-0.1l-0.3,0l-0.1,0l0,0.1l0.1,0.3l0,0.2l-0.1,0.2l-0.1,0.2l-0.2,0.1l0.1,0.1l0,0  L62,63.5l-0.1,0.1l0,0.1l0,0.1l0.2,0l0.1,0v0.1l0,0.1l0,0.1l0,0.1l0,0.1l0.2-0.1l0.7-0.4L63.1,63.7L63.1,63.7z M58.6,72.5l0.3-0.6  l0.1-0.1v-0.1l-0.1,0l0,0l0,0l0,0l-0.1,0.1l-0.1,0l-0.1,0l-0.1-0.1l-0.1,0l-0.2,0l-0.1,0.1l-0.1,0.1L58,72l0,0.1l0.1,0.1l0,0.2  l0.1,0.1l0.2,0.1L58.6,72.5z M58.2,67.6l0-0.3l0-0.3l0-0.3l-0.1-0.2L58,66.5l-0.1,0l-0.1,0l-0.1,0.1h-0.1l-0.1-0.1l-0.2,0.1  l-0.4,0.2l0.1,0.1l-0.1,0l0,0l0,0.1L57,67.2l-0.1,0.1l0,0.1l0.1,0.1l-0.1,0.1l0,0l0,0.2l0.1-0.1l0.1-0.1l0.1,0l0.1,0.1l0.1-0.1l0,0  l0,0.1l0,0.1l0.1-0.1l0.1,0l0.1,0l0.1,0.1l0,0l0,0l0,0l0,0.1l0,0l0,0l0,0l0,0l0.1-0.1l0.1-0.1l0-0.1l0-0.2h0.1L58.2,67.6z   M67.8,63.5l0.1,0H68l0.1-0.3l0.2-0.1l0.2,0l0.2-0.1l0.1-0.1l0-0.1l0-0.1l-0.2-0.1l-0.1-0.1l-0.1-0.1l0,0l-0.4-0.1l-0.1,0.1l0,0.3  l-0.1,0l-0.3-0.6l-0.1,0.1l-0.2,0.1L67,62.5l-0.1,0.2l0.2,0l0,0.1l-0.1,0.3l0,0H67l-0.1,0l0,0.1l0,0.1l0,0l0,0l0,0.1L67.8,63.5z   M58.2,72.7l-0.2,0.1L57.5,73l-0.3-0.1L57,72.7l-0.1-0.1l-0.1,0.1v0.1l0.1,0.1l0.1,0.2l0.1,0.1l0.2-0.1l0.1,0.1l0.1,0.2l0,0.2  l-0.1,0.1H57l-0.2-0.1l-0.1-0.4l-0.2,0l-0.1-0.1L56.3,73l-0.1-0.1l-0.1-0.1L56,73L56,73.2l-0.1,0.1l0.1,0l0.1,0.1l-0.1,0.1l-0.1,0.1  l0,0l0,0.2l-0.1,0.3l0,0.2l0.4-0.2l1.4,0L58,74l0.2-0.1l0.1-0.1l0-0.8l0-0.2L58.2,72.7z M56.5,64.3l-0.1,0.2L56.3,65l0.2-0.1  l0.3-0.1l0.2-0.2l0.2-0.2l0-0.2l0.1-0.2l0.1-0.2l0.2,0.1l0.1-0.3l-0.2-0.2L57,63.1l0-0.1l0.1-0.2l0-0.1v-0.2h-0.1l-0.2,0.2L56.6,63  l-0.2,0.3l-0.1,0.4l0.2-0.1l0.1,0.1l0,0.1l-0.1,0.2V64l0.1,0l0.1,0l0,0v0.1L56.5,64.3z M55.5,62l0.2-0.2l0.3-0.4l0.3-0.4l0.3-0.4  l0.1-0.4l-0.3-0.4l-0.1,0l-0.1,0l0,0l0,0.1h-0.1l-0.1-0.1l-0.1,0l-0.1,0l-0.1,0.1v0.1l0,0l0.1,0L55.9,60l-0.1,0.1l-0.2,0l-0.2,0.2  l-0.1,0.3l0,0.3l0,0.1l-0.1,0.7l0,0.2L55.5,62z M79.6,74.8l-0.4-0.2l-0.4,0v0.1l0.1,0.1l0.1,0.1l0.1,0l0,0l0,0.1l0.1,0.1l0.2,0.1  l-0.1,0.1l-0.1,0l-0.1,0l-0.1,0l-0.1,0l-0.1,0.2l-0.1,0.1l-0.2-0.1l-0.2-0.2L78,75.1l-0.2,0.1l-0.2-0.1l-0.1,0.1l0,0.2l0.1,0.2  l0,0.1l0,0l0,0.1l0.2,0.1l0.2,0.4l0.2,0.1l0.3,0l0.1-0.1l0-0.2l0-0.2l0.2-0.3l0.1-0.1l0.2-0.1l0.3,0l0.2-0.1l0.2-0.2l0.1,0.1  l0.1,0.1l0.1,0l0.1-0.1l-0.1-0.2L79.6,74.8z M72.1,77.8L72,77.9L71.9,78L71.7,78l-0.1,0l0,0.1l0.1,0.1l0.1,0.1l0,0l0.1,0l0.3,0.1  l0.1,0l0.1-0.1l0.2,0l0.1,0.1l0.1,0.1l0.1,0l0.1-0.2l-0.2,0L72.5,78L72.1,77.8z M73.5,72.2l0.3-0.5l0.1-0.1l0.2-0.1l0.5-0.4l0.2-0.2  l0.1,0l0.2-0.1l0.2,0l0.2,0.1l0,0h0l0,0l0-0.1l-0.2-0.1l-0.2-0.1l-0.2-0.2l-0.2-0.2h-0.1l-0.1,0.1l-0.1,0.1l-0.3,0.1v0.1l0.1,0l0,0  l0,0l0.1,0v0.1l-1.3,0.7l-0.1,0l0,0.1l0,0.1l0.1,0.1l0.1-0.1L73,72l0,0h-0.3l-0.1,0l-0.1,0.1h-0.1l-0.1-0.1l-0.2,0L72,72.2l-0.1,0.1  l-0.2-0.1l0.2,0.3l0.5,0l0.9-0.3L73.5,72.2z M75.8,61.7l0.1-0.1l0.2-0.1l1-0.1l0.2-0.1l1-0.9l0.3-0.4l0.2-0.4l-0.5,0l-0.4,0.1  l-0.3,0.3l-0.3,0.2L77,60.5l-0.2-0.1l-0.2,0.1l-0.6-0.1l-0.3,0l-0.2,0.1l-0.2,0.2L75,60.9l-0.1,0.2l-0.1,0.2l-0.4,0.4l-0.1,0.2  l0.1,0.3l0.2,0l0.4-0.1l0.1,0l0.1,0l0.1,0l0.1,0l0.1-0.1L75.8,61.7z M82.9,59.5l0.3,0.1l0.1,0.1l0.2,0.3l0,0.1l0,0.1l0,0.1l0.1,0  l0.7,0l0.1,0l0.1-0.1l0-0.1l0-0.1l0.1-0.1l0.1-0.1l0.1-0.1l1-0.4l0.4-0.1l0.3,0.1l0.1-0.2l0-0.2L86.7,59l-0.1,0.1L86.5,59l-0.1-0.1  l0-0.1l0-0.1l0.1,0l0.3-0.1l-0.5,0l-0.3-0.1l0-0.2l-0.1,0.1l-0.1,0.1h-0.1l-0.2-0.1l0.1,0.2l0.1,0.1l0.1,0.1l0,0.2l-0.1-0.1  l-0.4-0.3l-0.4-0.1l-0.3-0.2L84.2,58l-0.4-0.1l-0.4,0l-1.3,0.3l-0.1,0.1L82,58.5l-0.2,0.1l-0.2,0l-0.2,0.1l-0.1,0.1l0,0.2l0,0.3  l0,0.2l0.1,0.2l0.1,0.1l0.1-0.1h0.1v0.1h0.1l0.1-0.2l0.1-0.1l0.2-0.1l0.3,0l0.2-0.1l0.1,0l0.1,0L82.9,59.5z M66.6,73.3L66.6,73.3  L66.6,73.3l0.7,0.8l0.4,0.2l0.2-0.4v-0.1l-0.1-0.1l0-0.1l0.1-0.1l0.1,0l-0.1-0.2l-0.2-0.1l-0.2-0.1L67.4,73l-0.1-0.1L67,72.5  l-0.1-0.2l-0.5,0.4l0,0.1l0,0.2l-0.1,0.2l-0.1,0.1L66.6,73.3L66.6,73.3L66.6,73.3L66.6,73.3z M64.9,74.2l0.6-0.6l0-0.1l0-0.1l0,0  l-0.4,0l-0.1,0l-0.2,0.2l-0.1,0l-0.4,0.9l0.3,0L64.9,74.2z M68.2,78.2l-0.1,0.1l-0.1,0l-0.3,0l-0.1,0.1l0.2,0.1l0.5,0.2l0.2,0  l0.2-0.1l0.2-0.2l0.1-0.3l0-0.3l-0.1-0.4l-0.3-0.4l-0.4-0.3l-0.4-0.1l0,0l-0.1,0l-0.1,0v0.1L68,77l0.2,0.1l-0.1,0.2v0.1l0.1,0.1  l0.1,0.1l0.1,0.4L68.3,78L68.2,78.2z M66.4,69l0.1-0.1l0.1-0.1l0.1,0v-0.1h-0.2v-0.1h0.2v-0.1l-0.2-0.1l0-0.2l0.2-0.5l0.1-0.1l0-0.1  l0-0.1l0-0.1l-0.2,0l-0.2,0l0,0.1l0,0.1l-0.2,0.2l-0.3-0.1L66,67.5l0.2-0.2l-0.3,0.1l-0.4,0.2l-0.3,0.3L65,68.1l0.1,0l0.1,0l0.1,0.1  l-0.3,0.2l-0.1,0.2l-0.1,0.5l0,0.2l0.1,0.1l0.1,0l0.2,0.2l0.1,0l0.4,0l0.2,0l0.3-0.2l0.1-0.1l0.1-0.1L66.4,69z M69.4,70l0.2-0.1  l0.1,0l0.1-0.1l0.3-0.7l0-0.3l0.1-0.6l0-0.3l0-0.6l-0.1-0.3l-0.1-0.3l-0.3-0.2l-0.2-0.1l-0.1,0.1l0,0l-0.2,0l-0.1,0L68.9,67  l-0.1,0.1l-0.7,0.5l-0.4,0.5l-0.1,0.1l-0.1-0.1l0,0l-0.1,0l-0.1,0.1v0.1l0.2,0.1l0.1,0.2l0.2,0.3l0,0l0,0.1l0,0.1l0.1,0.1l0.1,0.1  l0,0.1l0,0.1l0,0.1l0.3,0.2l0.1,0.1l0,0.1l0.1,0.3l0,0.1l0.1,0.1l0,0l0,0.1l0.1-0.1l0.2-0.1l0.1-0.1L69.4,70z M87.2,72.8l0.2,0  l0.7-0.7l0.3-0.2l1.2-0.3l0.4-0.2l-0.2-0.3l-0.6-0.1l-0.1-0.2L89,70.8l-1.1,0.2l-1.2,0.7l-0.1,0.1l-0.4,0.3l-0.2,0.3L86,72.5  l-0.2,0.2l-0.3-0.1l-0.1,0l-0.1,0.1l-0.1,0.1l-0.1,0.1l-0.1-0.1l-0.1,0.2l0,0.5l0.1,0.1l0.2,0.2l0.2,0.2l0.2,0l-0.1-0.2l0-0.2  l0.1-0.2l0.2,0L85.7,73l0.2-0.2l0.6-0.3l0.1,0.1l0.3,0.1L87.2,72.8z M85.1,70L85,70.2l0.1,0l0.1,0.1l0.1,0.1l0.1,0.1l0.1-0.1l0.1,0  l0.1,0l0.1,0l0.1-0.1l0-0.1l0-0.1l0.1-0.1l0.3,0.1h0.2l0.1-0.2h-0.1v0.1h-0.1l0-0.1l0,0l0.1-0.1l0-0.2l0.1-0.3l0-0.2l-0.1-0.1  l-0.1,0l-0.1,0.1l-0.1,0.1l0-0.2L86,69.1L85.8,69l-0.1-0.2h0.1v-0.1l-1-0.4l-0.1-0.2l0,0.2l0,0.1l0.1,0l0.1,0.1l0.1,0.2l0.1,0.1  l0.1,0.1l0,0l0.1,0l0.1,0l0.1,0.1l0,0.1l0,0.1l0,0.1l0,0l-0.1,0.1l-0.1,0.1l-0.1,0.2l0.1,0.2L85.1,70L85.1,70z M95,75.5l0.2,0.1  l0.5,0.2l-0.1,0.1l-0.1,0.1l-0.1,0V76l0.2,0l0.1,0l0.3-0.1l0-0.1l0-0.1l0,0l-0.1,0l0.1,0l0.1-0.1l0-0.1l0-0.1l0-0.2l0-0.1v-0.1l0,0  L95.7,75l0,0l0-0.1l0-0.1l0.1,0l0,0l0,0l0,0l0-0.1L95.4,75l-0.1-0.1h0l-0.1,0l0.1-0.2l0.1-0.1l0.3-0.1l0-0.1l-0.2,0l-0.3,0.1  l-0.2,0.2v-0.1L95,74.8l0,0l-0.1,0l0,0.1l-0.1,0.2l-0.1,0.1l-0.1,0.1h0.5L95,75.5z M91,77.6L91,77.6l-0.2,0.1l-0.2,0l-0.1-0.1  l0.1-0.3l-0.2-0.1l-0.1-0.4L90,76.7l-0.2,0.1l-0.2,0.2L89.5,77l-0.1-0.2l0,0.1l0,0.1l0,0.3l0,0.1l0.1,0.1l0.1,0.1h0.1l0.1-0.1  l0.1-0.1l0.1,0l0.1,0.1L90,77.7l0.1,0.2l0.2,0.2l0.1,0l0.1,0.1l0.1-0.1l0.1,0l0.1-0.1l0.1-0.1l0.1-0.1L91,77.6L91,77.6z M88.4,90  L88.4,90L88.4,90L88.4,90l-0.1-0.2l0,0l0.1-0.1l0-0.1l-0.1,0l-0.1-0.1L88.1,89l-0.3-0.2l0-0.1l0-0.2l0.1-0.2l0.1-0.2l0.1-0.1l0-0.1  l0.1-0.2l0.1-0.2l0.1-0.1l0.1-0.1l0-0.1l-0.1-0.1l0-0.1v-0.3l0-0.2l0.2-0.3l0-0.2l-0.1-0.1l-0.1,0l-0.1,0l-0.1,0.1l-0.2,0.2  l-0.1,0.1H88V86h-0.1l-0.2,0.1v0.1l0.1,0.2l0,0.4l-0.1,0.4l-0.3,0.3l0,0.4l-0.1,0.4L87,88.5L87,88.6l-0.1,0.1l-0.1,0.2l0,0.2  l0.1,0.1l0.3,0.2l0.1,0.1l0.1,0.1l0,0.1l0,0.1l0,0.2l0.1,0.4l0,0.1l-0.2,0v0.1h0.1v0.1l-0.2,0.1l0,0.1l0.1,0.2l0.1,0.1l0.1,0.1  l0.2,0l0.1,0.1l-0.1,0.2l0.1-0.1l0.1-0.1l0.1-0.1l0.1-0.1l-0.1,0l0,0l0,0l0,0l0.1-0.4l0.2-0.3l0.3-0.1l0.3,0.1l0.1-0.3l0-0.1  L88.4,90z M100,77.3l-0.1-0.2L99.8,77l-0.1,0l-0.3,0.4l-0.7,0l-0.4,0.2l-0.2,0.1l-1.3,0.7l-0.7,0.2l-0.1,0.1L96,78.9l-0.4,0.4  l-0.1,0.1l-0.1,0.1l-0.3,0.1l-0.1,0.1L95,79.8L94.9,80l-0.1,0.2l0,0.1l0,0.1l0,0.1l-0.1,0.1l0.1,0.1l-0.1,0.1l-0.3,0.1l-0.4,0.3  l-0.2,0.1l0.1,0.1l0.1,0l0.1,0l0.1,0.1l0,0.1L94,81.5l0,0.1l0.3,0.3l0.2,0.1l0.1,0.2l0,0.3l-0.1,0.3l-0.3,1L94,84l0.2,0.4l0,0.1  l0.1,0l0.5,0.3l0.5-0.3l0.4-0.4l0.3-0.4l0.5-0.7l0.2-0.2l0.5-0.3l0.3-0.1l0.2,0l0.6,0.2l-0.1-0.2l0-0.1l0.1-0.1l0.1-0.1l0-0.1l0-0.1  l-0.1,0l-0.1,0l-0.1,0L98,81.8l0.3-0.7l0.1,0l0-0.1l0-0.1l0-0.1l0.1,0l0.2,0l0,0l0.1-0.1l0.1-0.4l0.1-0.1l0.1-0.1l0.1-0.2l0-0.4  l0.1-0.2l0.2-0.3l0.1-0.1l0.1-0.5l0.1-0.1l0.2-0.1l-0.1-0.6L100,77.3L100,77.3z M15.1,49.6L15.1,49.6l-0.2,0.1l0.2,0.1v0.1l-0.1,0  l-0.1,0l-0.1,0l-0.1-0.1l0.2-0.4l0.1-0.2l0.1-0.3l-0.1-0.1l-0.1-0.1l-0.1-0.1l-0.2,0l0.1-0.1l0.1-0.2l0-0.2l-0.2-0.1l-0.1,0.3  l-0.1,0.1L14,48.4l-0.1,0.2l0.1,0.1l0.1,0.1l0.1,0.1l0,0.2l0,0.3l0,0.1l0.2,0.5l0.1,0.2l0.2,0.2l-0.1,0.1l0.2,0.3l0.2,0l0.2-0.1  l0.3,0v-0.1l-0.2-0.1l-0.1-0.1l-0.1-0.4l0.2,0l0.1,0l-0.2-0.2l-0.1-0.1L15.1,49.6z M43.8,64.4L43.8,64.4l-0.1-0.1l0.1-0.1l-0.1,0  l-0.1,0l-0.1-0.1l0-0.1l0.4-0.1l0-0.1l0.2,0l0.4,0.1l0-0.1l0,0l0,0l0,0l0.2,0l1.4-0.1l0.7-0.2l0.2-0.1v-0.1L46.7,63l0,0l0,0l0.1-0.1  l-0.5-0.4L46,62.4l-0.3-0.2l-0.3-0.1l-0.1,0h-0.1V62l0.1,0l0.2-0.1v-0.1l-0.2,0l-0.1-0.1l-0.1-0.1l-0.1-0.1l0.2-0.2l0.2-0.4l0.1-0.4  l-0.1-0.2l-0.6,0l-0.2,0.1l-0.2,0.2v0.1l0.3,0.1l0.2,0.4l0,0.4l-0.3,0.2l-0.2,0l-0.1-0.1l-0.2-0.2l-0.1,0l-0.1,0l-0.1,0l-0.4-0.4  l-0.1,0.1L43,60.8l-0.2-0.1l0-0.1l0-0.3h0.2L42.8,60l0-0.2l0-0.2l0.1-0.3l-0.2,0l-0.2-0.1l-0.3-0.2l0-0.1l0-0.1l0,0l0.3,0l0.2-0.1  l0.2,0l-0.1-0.1l0-0.1l0-0.1l0.1-0.1l-0.2-0.1l-0.2-0.1l-0.4-0.4L42,57.5l-0.3,0l-0.3,0l-0.2-0.1l-0.2,0l-0.1-0.2l-0.1-0.3l0.1-0.1  l0.1-0.1l0-0.2l0-0.2l0-0.1l0.1,0l0.1,0l0.1,0l0.1,0l0.5,0.2l0.5-0.3l0.5-0.4l0.4-0.2l1.2-0.1l0.9,0.1l0.2-0.1l-0.4-0.1l0.2-0.1  l0.4-0.4l0.1-0.1l0.1,0l0.3,0l0.1,0l0.1-0.1l0.1-0.1l0.1,0h0.4l0.1,0l0.1,0l0.1,0l0.1,0.1l0.1,0.3l-0.1,0.2l-0.4,0.4l0.1,0.1  l0.1,0.1l0.1,0l0.2,0l0.1,0.1l0.1,0.1l0.1,0.1l0.2-0.1l0,0.1l0,0l-0.1,0l0,0l0,0.1l0.2-0.1l0.2-0.1l0.2,0l0.2,0.1l0,0.2l0.5,0.7  l0,0.3l0.2,0.3l0.1,0.2l-0.1,0.2l0.1,0l0,0l0,0.1l0,0.1l0.1-0.1l0.1,0.1l0.1,0l0.1-0.3h0.1l0,0.1l0,0l0,0l0,0l0.2,0l0.2,0.1l0.2,0.2  l0.1,0.2l0.1-0.1l0,0l0.1,0.6l0.1,0.3l0.2-0.1h0.1l0,0.5l0.1,0.2l0.2,0.1l0.2,0l0.4,0.2l0.1,0.1l0.2-0.2l0.2-0.2l0.1-0.2l-0.1-0.1  l0.1-0.1l0,0l0,0l0,0l0-0.1l0-0.1l0,0l-0.1,0v-0.1H53v-0.1L52.8,59l0.3-0.3l0-0.2l0-0.3l0-0.2L53,57.9l-0.3-0.2l0-0.1l0-0.1l0,0  l0.1,0l-0.1-0.1l0-0.1l0-0.1l0.1-0.1l-0.2-0.1l-0.1,0l0.1-0.1l-0.2,0l-0.1,0l-0.1-0.1l-0.1-0.1l0.3-0.1l0-0.1l0-0.1l-0.1-0.1l-0.1,0  l-0.1,0l0-0.2l0-0.2l0-0.1l0-0.1l0.1-0.1l0.2-0.3l0-0.1l0-0.1l-0.1-0.1l-0.1-0.2l-0.1-0.3L52,53.8l0-0.3l0.5-0.3l0.2,0l0.1,0.2  l0-0.2l0-0.2l0.1-0.1l0.1,0l-0.1-0.1l0-0.1l0-0.1l0-0.1l0-0.1l-0.2-0.1l0-0.1L52.6,52l-0.5-0.4l-0.3-0.4l-0.2-0.2L51.4,51l-0.2,0  l-1.1-0.5l-0.1,0l-0.3-0.2L49,50.4l-0.2,0l-0.4-0.3l-0.5-0.8l-0.3-0.2V49l0.1-0.1l0-0.1l-0.1-0.1l-0.1,0v-0.1l0.1,0l0.2-0.1  l-0.4-0.4L47,47.9l-0.1,0.2l-0.1,0.1L45.6,48l-0.8,0l-0.2,0L44.6,48l0-0.1l0.1-0.1l0.1,0l0.3,0l0.1,0v-0.1L45,47.5l-0.3-0.1  l-0.1-0.1l-0.1-0.1l-0.1-0.1l-0.1,0l-0.1,0.2l0.1-0.3l0.1-0.1l0.2-0.1l0.1-0.1l0-0.2l-0.1-0.2L44.5,46l-0.2-0.1l-0.2-0.1l-0.4-0.1  l-0.2-0.1l-0.4-0.2l-0.2,0l-0.2,0.1l0.1,0l0.2,0.1l-0.2,0.2l-0.2,0l-0.1,0l-0.1,0.1l-0.1,0.1l-0.1,0l-0.2,0l-0.2-0.2l-0.4-1.1  l-0.2-0.3L41,44.4l-0.6,0l-0.2,0L40,44.2l-0.1-0.1l-0.2,0l-0.1,0.1l-0.2,0.2l-0.1-0.2l-0.2-0.2L38.9,44l-0.2,0l-0.1,0L38.5,44  l-0.1,0l-0.1,0l-0.1-0.1L38,43.8l-0.2-0.3L37.5,43l-0.1,0l-0.6,0.3l-0.1-0.1l-0.1,0l-0.2,0l-0.2,0l0.1-0.2h-0.1l-0.1,0.2l-0.2-0.1  l-0.1-0.2l0.2-0.1v-0.1l-0.5,0.1v-0.4l0.1,0.1l0,0l0.1-0.1l0.1-0.1l0.1,0l0.1,0l0.1,0l0.1-0.1l0.1-0.1l0.2-0.1l0.1,0l0.4,0.3l0,0  l0.1,0l0.2,0.1l0.1,0l0.2-0.1l0.1,0l0.1,0.1l0.1,0.1l0.2,0l0.3-0.1l0.2,0l0.1-0.1l0.1-0.1l0.3,0l0.1-0.1l0.1-0.3l0.1-0.1l0.1,0  l0.2,0l0.1,0.1l0.1,0l0.1,0l0.2-0.1l0.2,0l0-0.1l-0.1-0.2l0.1,0l0.1,0l0.1-0.1l0.1,0l0.2,0l0.1,0l0.1-0.1l0.1-0.1l0.1-0.1l0.1-0.1  l0.1-0.3l0.1-0.1l0.1-0.1l0.4-0.2l0.1-0.1v-0.1l-0.3,0L41,40.4l-0.6,0.4l-0.1-0.2l0.1-0.1l0.4-0.2l-0.1-0.1l0,0l0.1-0.2l-0.2-0.2  l-0.1-0.3l-0.1-0.2L40.1,39l0,0.1l0,0.1l0,0l0,0l0,0v0.1L40,39.1l-0.1-0.3l0-0.3l-0.1-0.2l-0.1,0.1l-0.1-0.2l-0.1-0.1l-0.1,0l0,0.2  l-0.1,0.1l-0.1,0.2h-0.1l-0.3-0.9l0-0.2l0-0.6l0.2-0.2l0.4-0.1l0.4,0l0.3-0.1l-0.1-0.1l0-0.2l0-0.2l0.1-0.1v-0.1l-0.1-0.1l0.1,0  l0.3,0.1l0.3,0l0.1,0l0.1,0.1L41,36l0.1,0.1l0,0.1l0,0.1l0,0l0.9,0.1l0.2,0.1l0.2,0.2l0.2,0.2l0.2,0.2l0.1,0.3l0,0.2l0.1,0.1  l0.3,0.5l0.1,0.2l0,0.2l-0.1,0.2l-0.1,0.1l0-0.1l-0.1,0l-0.1,0l-0.1,0l0.1,0.1l-0.1,0.2L42,39.4l0.2-0.6l0-0.2l-0.4,0.2l-0.2,0.1  l0.1,0.2l-0.1,0.2l-0.1,0.2l0.5,0.1l0.3,0l0.2-0.1l0.2-0.1l0.3-0.1l0.2,0l0.1,0l0.1-0.1l0.1-0.1l0.1-0.1l0.1,0v-0.1l-0.1,0l-0.1,0  l0,0l-0.1,0l0.2-0.1l0.2-0.1l0.4-0.1l0.2-0.1l0.4-0.3l0.1-0.1l0-0.2L44.2,37l-0.2-0.8l-0.5-0.5l-0.1-0.3l-1-1.1l-0.1-0.2L42,33.7  L42,33.6l0,0l-0.4-0.3L40.9,33l-0.6-0.4l-0.2-0.2L40,32.2l-0.3-0.9l-0.3-0.8l-0.1-0.2l0-0.3l-0.1-0.3l-0.1-0.3l-0.1-0.2l-0.3-0.4  l-0.2-0.2l-0.3-0.1l-0.4-0.4L37.8,28l-0.1-0.2l-0.1-0.5l0-0.1l0-0.3l0-0.1l-0.1,0l0-0.1l-0.1-0.1l-0.3-0.1L37,26.6l-0.1-0.1  l-0.6-0.5l-0.1-0.4l-0.1-0.1L36,25.5l0-0.2l0-0.3L36,24.7l-0.1-0.2l-0.1-0.2l0-0.3l0.4-0.9l0-0.2l0.3-1l0.3-0.5l0.2-0.3l0-0.2  l-0.2-0.1l-0.1-0.1l-0.1-0.2l-0.1-0.1l0-0.2l-0.1-0.2l-0.1-0.2l-0.2-0.1l0.1-0.1l0.1-0.1l0.3,0l0.2,0.1l0.1,0l0-0.1l0-0.1l0-0.1  l0.1,0l0.1,0L37,18.9l0-0.2l0.2-0.2l0.2,0l0,0.1l0.1,0.1l0.1,0.1l0.1,0l0-0.2h0.1v0.1h0.1v-0.2l0.1,0.1H38L38,18.3l0-0.2l0.1-0.2  l0.2-0.2l0.1,0.1l0.1,0l0.2,0l0,0l0.1-0.1l0.2-0.1l0.1-0.1l0.1-0.2l0-0.2l-0.1-0.3l0.3-0.1l0.3,0l0.3,0.2l0.2,0.4l-0.1,0.2l0,0.1  l0.1,0l0.1,0l0.3,0.2l0.1,0.3l-0.1,0.2l-0.1,0.1l-0.1,0.1l-0.2,0.1l-0.4,0.1l-0.7,0l-0.2,0.1l0.1,0.2l0.4,0.5l0,0.1l0,0l0,0l0,0  l0.3,0.4l0.1,0.2l-0.1,0.2l0.4,0l0.2,0l0.2,0.1l0.5,0.4l0.2,0.4l0.3,0.1l0.3,0.1l0.1,0.1l0.1,0l0.6,0.4l0.2-0.1l0.2,0.1l0.2,0.1  l0.4,0.1l0.2,0.1l0.5,0.3l0.2,0.4l0.1,0.5l-0.1,0.6l-0.2,0.5l0.1,0.2l0.2,0.2l0.2,0.3l0.1,0.4l0,0.1l0.2,0.2l0,0.1l0,0.2L45,26.7  l-0.1,0.2l0.1-0.1l0.8-0.1l0.3,0l1.6,0.7l1,0.2l0.2,0l0.2-0.1l0.1-0.1l-0.2,0l-0.2,0l-0.2-0.1l-0.1-0.1l-0.1-0.2l0-0.1l0-0.1l0-0.1  l-0.8-0.2l-1.2-0.6l-0.3-0.4l-0.6-0.9l-0.1-0.2l-0.1-0.1l-0.1,0l-0.2,0l-0.1,0l0-0.1l-0.1-0.3l-0.1-0.2l-0.1-0.2l0-0.3l0.3-0.5  l0.4-0.2l0.5,0l0.5,0.1l0.6,0.4l0.9,0.1l0.2,0.1l0.4,0.3l1,1.3l0,0.1l0,0.1l0.1,0.1l0.1,0l0.1,0.1l0,0.1l-0.1,0.2l0.1,0.2l0.4,0.7  l0-0.1l0-0.1l0.1-0.1l0.2,0l0.1,0.1l0.1,0.2l0.1,0l0.4,0.2L51,26.6l0,0.1l0.1,0l0.1-0.1h0.1v0.1l0,0.2l0.2,0.1l0.6,0v-0.1l-0.2,0  l0-0.1l0.1-0.1l0.2,0v-0.1L52,26.5l0-0.1l0.3-0.3L52.3,26l0-0.1l0-0.1l0-0.1l-0.1,0.1l-0.1,0L52,25.7l0-0.2l0-0.1l0.1,0l0.1,0l0-0.1  l0-0.1L52,25.1L51.9,25l0-0.1l0.1-0.1l0-0.1l-0.1-0.2l-0.4-0.2l-0.2-0.1l-0.1-0.2L51,23.8l-0.2-0.1l-0.1,0.1l-0.8-0.4l-0.1,0  l-0.2-0.1l-0.2-0.2l-0.1-0.2L49,22.6l-0.1-0.1l-0.1-0.1L48.7,22l0-0.2l0.1-0.3l0.2-0.3l0,0l0.1-0.1l0-0.1l0.3,0.1l0.3-0.1l0.6-0.3  l0.2,0l0.4,0.1l0.4-0.1l0.2,0.1l0.2,0.2l0.4,0.4l0.3,0.2l0.3,0.1l0.9,0.2l0.5,0.2l0.3,0.4l0.2,0.5l0.3,0.4l0.2,0.1l0.2,0.1l0.2,0.2  l0.1,0.3l0.1,0.2l0.2,0l0.5-0.1l0.4-0.3l-0.1-0.4L55.8,23l-0.6-0.9l-0.4-0.4l-0.3,0l-0.1-0.1l-0.1-0.3l-0.1-0.1l-0.1,0L53.7,21  l-0.1-0.1l-0.2,0.1l-0.3-0.1l-0.2-0.2l-0.1-0.2L52.5,20l-0.2-0.3l-0.2,0l0.1,0.1l-0.1,0.1l0.2,0.3l0.1,0.2v0.1l-0.1,0.1l-0.3,0  l-0.1,0.1l-0.1,0l-0.4-0.1l-0.1-0.1l-0.4-0.2l-0.1-0.1l-0.5-0.7l-0.1-0.4l0-0.3l0.2-0.2l0.8-0.1l0.1-0.1l0-0.1L51,18.2L50.9,18  l-0.1,0.1l-0.2,0l-0.2,0L50.3,18l-0.4-0.3l-0.1,0l-0.1-0.3l-0.2-0.3l-0.2-0.3l-0.2-0.1L49,16.6l-0.2-0.2l-0.1-0.3l0.1-0.4l0.2-0.2  l0.2-0.2l0.3-0.2l0.6-0.3l0.4,0l0.4,0.1l1.3,0.7l0.5,0.1l0.5,0l0.4-0.1l1.1-0.7L56,14l-0.1,0l-0.2,0l-0.1,0l0-0.1l0-0.1l0-0.1  l0.2-0.1l0-0.1l-0.1-0.1l-0.1-0.1l0.2-0.1l0.5-0.4l0.2-0.3l0.3-0.1l0.3,0l0.2,0.1l0.1-0.2l0.1,0l0.1,0l0.1-0.1l0.1,0.1l0.5,0.1  l0,0.2l0.1,0.2l0.1,0.1l0.2,0.1L58.9,13l0.1,0.2l0.1,0.2l0.1,0.2h0.1l0.1-0.1l0.2-0.2l0.4,0.2l0,0.1l0,0l-0.1,0l0.2,0.1l0.2,0  l0.4-0.2l0.4,0.2l0.4-0.3l0.3-0.5l0.3-0.2l0.2,0l0.4-0.2l0.1,0l0.2,0l0.2,0l0.1-0.1L63.3,12l0.2,0l0.1-0.1l0.2-0.2l0-0.2l0.2-0.1  l0.9,0l0.1,0.1l0.2,0.1l-0.1,0l-0.1,0.1L65,11.8L65,11.9l0,0.2l0,0l0.1,0l0.1,0.1l0.2,0.1l0.9,0.2l0,0.1h0.1l0.4-0.4l0.5,0.2  l0.5,0.3l0.4,0.2l0.2,0l0.6,0.1l0.2,0.1l0.2,0.2l0.2,0.1l0.2,0.1l0.1,0l0.4-0.2l0.5,0.1l0.5,0.2l0.5,0.1l0.8-0.1l0.1,0l0.1,0.1  l0.6,0l0.2,0.1l0.2-0.1l0.4,0.1l0.4,0.2l0.2,0.2h0.1l0-0.1l0-0.1v-0.1h0.1l0,0.1l0,0.1l0.1-0.1l0.2-0.1l0.2,0l0.1,0.2l-0.1,0.1  l-0.2,0.1l-0.2,0l-0.2,0v0.1l0.2,0.1l0.1,0.3l0,0.3l0.1,0.2l0,0.1l0.4,0l0.3-0.2l0.3-0.3l0.1-0.4l0.2-0.3l0.6-0.5L77,13.6l0-0.1  l0-0.1l0.1-0.1l0,0l0,0l0,0l0-0.1l0.1,0l0,0l0-0.1V13l0.1,0.1l0,0.1h0.1l0.1-0.1l0.1-0.1l0.1-0.3h0.1l0,0.1l0.1,0.1l0.1,0l0.1,0  l0.2,0l0-0.1l-0.1-0.1l0-0.1l0.1-0.1l0.3-0.2l0.2-0.1l0.1-0.2l0,0l-0.1-0.1l-0.1-0.2l0-0.1l0-0.1l0.1-0.1l0.2,0l0.1-0.1l0.1-0.2  l0-0.2l-0.3-0.1l-0.1-0.2l-0.2-0.3l0-0.2l0.2-0.4l-0.1-0.1l-0.2,0V9.6l0.2-0.3L78.4,9l0-0.3l0.1-0.3l0.1-0.3l-0.2-0.3l0.1-0.1  l0.7-0.1l0.2-0.1l0.3-0.3L80,7.1L80,7l0-0.1l0,0l0.1,0l0.6-0.6l0.1,0.2l0.2,0.1l0.2,0.1l0.2,0l0.1-0.1l0.1-0.3l0.1-0.3l0-0.3l0-0.3  l-0.2-0.7L81.6,4l-0.1-0.3l-0.1-0.2l0.1-0.1l0-0.4l0.1-0.2l0-0.1l0-0.1l0-0.1l0-0.1l-0.2,0.3l-0.1-0.1l-0.5-0.3L80,1.8l0.1-0.2  l0-0.2l-0.2,0l-0.2-0.1l-0.4-0.1L79,0.9l-0.2-0.1l-0.3,0l-0.4,0l-0.2-0.1l-0.1-0.1l-0.3-0.3l-0.1-0.1l-0.2,0l-0.2,0.2l-0.6,0  l-0.3,0.1l-0.3,0.2l-0.1,0l-0.1,0l-0.1,0L75.3,1l-0.1,0.2l0,0.2l0,0.2l0.1,0.2L75.5,2l0.2,0.1l0.2,0l0.1,0.1L76,2.3l0.1,0.1l0.1,0.4  l0,0.1l0,0.2l0,0.1l0.1,0.1l0.2,0l0.1,0.1l0.1,0.2l0,0.2l0,0.2l0,0.2l-0.1,0.1l0,0.1l0.1,0.3l0,0.1l0.2,0.1l0,0.1l0,0.1l-0.1,0  l-0.1,0l-0.1,0.1l-0.1,0.4L76.2,6l-0.1,0.2l-0.1,0l-0.1,0l-1,0.2l-0.1,0.1l-0.3,0.2l-0.3,0.1l-0.1,0l-0.2,0l-0.2,0L73.5,7l-0.2,0  l-0.2-0.1l-0.3-0.4l-0.3-0.1l-0.1,0L72,6.8l-0.4,0l-0.1,0l-0.1,0.1L71.3,7l-0.1,0.1l-0.1,0l-0.1,0l-0.2-0.1l-0.1,0l-1-0.1l-0.2,0.1  L69.4,7l-0.1,0.2l-0.1,0.1l-0.1,0l-0.1,0l-0.1,0l-0.1,0l-0.3,0.1L66.7,8l-0.3,0l-0.3,0l-0.2-0.1l-0.5-0.7L65.2,7l-0.5-0.2l0-0.1  l-0.1-0.1l0,0h-0.1l-0.2,0l-1.8-0.8l-0.3-0.2l-0.2,0l-0.1,0l-0.2,0.1l-0.4,0l0,0.2l0,0.3l-0.1,0.2l-0.2,0l-0.2-0.2l-0.4-0.5L60,5.4  l-0.2-0.1l-0.2,0h-0.3l0.1-0.1l-0.4,0l-0.2,0l-0.2-0.2l0-0.1l0-0.2l0-0.1l0,0l-0.1-0.1l0,0l-0.1-0.1l-0.1-0.1l0-0.1l0-0.1l0-0.4  l-0.1-0.4l-0.2-0.2l-0.3,0.1l-0.3,0.1l-0.2,0.3l-0.2,0l-0.2,0l-0.2,0l-0.4,0.1l-0.1,0l-0.3,0l-0.1,0l-0.1,0l-0.1,0l-0.1,0l0-0.1  l0-0.1l0-0.1l-0.2-0.1L55,3.1l-0.2,0l-0.2,0.1l-0.2,0.1l-0.2,0.1l0,0.1l-0.1,0.2l0,0.1l-0.1,0l0-0.1l-0.1-0.1l-0.1-0.1l-0.3-0.1  l-0.4,0l-0.3,0.2l0,0.5l0,0.3l0,0.1l-0.1,0.1l-0.1,0.1l-0.1,0l-0.3-0.2l0,0.1l-0.1,0l-0.1,0l-0.1,0L51.7,5l-0.2,0L51,4.6l-0.1,0  l-0.3,0.3L50.5,5L50.2,5L50,5l-0.2,0l-0.2,0.1l-0.3,0.4l-0.2,0l-0.4-0.1l-0.4,0l-0.2,0.1l-0.3,0.3L47.8,6l-0.4,0l-0.7-0.4l-1.1,0  l-0.2,0.1L45,5.9L44.8,6l-0.2,0l-0.1-0.1l-0.1-0.2l-0.2-0.1l-0.2,0l-0.3,0.1l-0.3,0.2L43.2,6l0,0.1l0,0.3l-0.1,0.1L43,6.7l-0.1,0.1  l-0.3,0.1l-0.5,0.1l-2.2-0.3l-1-0.1l-0.5,0.1l-0.3,0.3l-0.1,0.5l0,1.2L37.8,9l-0.1,0.3l-0.1,0.1l-0.1-0.1l-0.2-0.2l-0.1-0.1L37,9  L37,8.9l-0.1,0l-0.2,0l0,0.1l0,0.1l0,0.1l-0.2,0.2l-0.2,0.2L36,9.7l-0.2,0l-0.4-0.1l-0.2,0L35,9.8l-0.2,0l-0.2,0l-0.3,0l-0.1,0  L34,9.6l-0.1-0.1l-0.1,0l-0.3,0l-0.2,0l-0.1,0.1l-0.1,0l0-0.1l0-0.2l0-0.1l-0.1,0l-0.3,0l-0.4-0.1l-0.2,0l-0.3,0l-0.3,0.1L31,9.6  l-0.2,0.1l-0.1,0l-0.4-0.2l0,0l0-0.1l0-0.1l-0.1,0l0,0L30,9.4l-0.1,0l-0.7,0.2l-0.3,0.2l-0.3,0.2l-0.1,0.1l0,0.1l0,0.3l0,0.1  L28.2,11l-0.4,0.4l-0.2,0.3v0h0l-0.4,0.3l-0.1,0.1l0,0.1l0,0.2l0,0.2l-0.1,0.1l-0.3,0.1L26,12.6l-0.3,0.1l0,0.1l0,0.2l0,0.1l-0.1,0  l-0.2,0l-0.1,0l-0.1,0.1L25,13.4l-0.1,0.1l-0.3-0.1L24,13l-0.9-0.1l-0.3,0L22.6,13l-0.4,0.4L22,13.5l-0.4,0.1l-0.4,0l-0.6-0.1  l-0.3,0l-0.8,0.2l-1.7,0.1l0,0.7l-0.1,0.3L17.7,15l0.1,0.1l0,0.1l0,0.1l0.1,0.1l0.3,0.3l0.3,0.4l0.1,0.2l0.1,0.3l0,0.3l0,0.3  l-0.1,0.5l0,0.2l0,0.1l0,0.1l-0.1,0.1l-0.1,0.1l-0.1,0.1l-0.1,0.1l-0.1,0.2l-0.1,0l-0.1,0.1l-0.1,0.1l0,0.2l0,0.1l0,0.1l-0.1,0.2  l-0.3,0.2L17,19.5l-0.3-0.1l-0.3,0l-0.2,0.1l-0.1,0.1l0,0.1l-0.1,0.2L16,19.9L15.8,20l-0.1,0.1l0,0.1l0,0.4l0,0.2l0,0.2l0,0.1  l-0.1,0.2l-0.2,0.5l-0.1,0.1L15.1,22L15,22.1l-0.1,0.1l-0.1,0.3l0,0.3l0,0.3l-0.1,0.4l-0.1,0l-0.2,0.1l-0.1,0.1l0,0.1l0,0.2l0,0.1  l0.1,0.3l0,0.1l-0.2,0.5l0,0.1L14.2,25l-0.7,0.3l-0.3,0l-0.6-0.1l-0.2,0.1l-0.2,0.1l-0.4,0l-0.2,0.1l-0.2,0.2l-0.1,0.2l-0.1,0.3  l0,0.3l-0.2,0l-0.6,0l-0.1,0l0.1,0.1l0.2,0.9l0.1,0.1l0.3,0.3l0.5,0.9l0,0.3l-0.1,0.3l-0.2,0.2l-0.2,0l-0.2-0.1l-0.4-0.2l-0.1,0  l-0.1,0l-0.1,0.1l0,0.1l0.1,0.1l0,0.1l0,0.1l-0.1,0.2l0,0l0,0l0.1,0.1l0,0l0,0.1l0.1,0.1l0,0.1l0,0.2l-0.2,0.2L10,30.8l-0.2,0.2  l0,0.3l-0.1-0.1l-0.1,0H9.5l-0.1,0l-0.1,0.1l0,0.1l0,0.1l0,0.1l-0.2,0l-0.2-0.1l-0.3-0.3L8,31l-0.4-0.1l-0.4-0.1L7,30.8l0.1,0l0.1,0  l0.1,0.1L7.5,31L8,31.1l0.1,0.1l0.1,0.1l0.1,0l0.1,0l0.2,0.1l0,0.1l0.1,0.1l0.2,0.1l0.2,0.1l0.1,0.3l0,0L9,32.2l0,0l0,0.1l0,0.2l0,0  l-0.1,0.1l-0.1,0.1l-0.1,0l-0.1-0.1l0,0.2l0,0.2l0,0.1l-0.1,0.1l0.2-0.1l0.2,0l0.2,0l0.2,0.1l-0.1,0.1l0.1,0l0.1,0.1l0.1,0.1l0-0.2  l0.2,0l0.2,0.1l0.1,0.1v0.1l-0.1,0.1l-0.1,0l-0.1,0l-0.2,0v0.1l0.4,0.3l0.1,0.1l0,0.2l-0.2,0l-0.2,0l-0.2,0.1l0.1,0.1l0.1,0.2  l0.1,0.1V35H9.7v0.1l0.3,0l0.1,0.1l0.1,0.2l0.2,0.1l0,0.5l0.4,0.4l0.5,0.2l0.3-0.1l0.1,0.1l0.2,0.1l0.2,0l0.2-0.1l0,0.1l0.1,0l0.1,0  l0.1-0.1v0.1L12.4,37l0,0.2l0,0.2l0.1,0.1l0,0.1l0.1,0.1l0.3,0.2l0.9,1.1l0.4,0.3l0.4,0.2l0.3,0.3l0.2,0.3l0.1,0.5l0,0l-0.1,0  L15,40.8l0,0.1l0,0l0,0l0,0l0,0.1l0,0.1l0.1,0.1l0.1,0.1l0,0.1l0.1,0.1l0.1-0.1l0.1-0.2l0-0.1l0.1,0l0.1,0l0.3,0.1l0.2,0.1l0.1,0  l0,0l0-0.1l-0.1-0.1l-0.2-0.1l-0.5-0.4l-0.1,0l0,0l0-0.1l0-0.1l0.2,0.1l0-0.2l0.1-0.1l0.1-0.1l0.1-0.1l0-0.2l0-0.2l0-0.1l-0.2,0  v-0.1l0.1,0l0.1-0.1l0.1-0.1l0-0.1l0.1,0.1l0.1-0.1l0.1,0.1l0,0.2l-0.1,0.3l0-0.1l0,0l0.1,0l0.1,0l0,0.1l0,0l0,0l0,0l0,0.1l0.1,0  l0,0.1l0,0.1l0,0.1l-0.2,0.1l0.5,0L17,40.3l-0.1,0l-0.1-0.1l0-0.1l0.2-0.1l0.1-0.1h0.1l0.1,0.1l0.1,0.1l0.1,0l0.1-0.1h0.1V40l-0.1,0  l0,0.1h0l0,0.1l0.1,0.1l0.1,0.1l0.1-0.1l0.1,0l0.1,0.1l0.1,0.1l0.1,0v0.1l0.6,0.1l-0.2-0.2l0.2-0.2l0.1,0l0.2,0.1l-0.1-0.1v-0.1  l0-0.1l0.1-0.1l0.6,0.6l0.3,0.4l0,0.3l-0.1,0l-0.1,0.1l0,0.1l0.1,0.1l-0.1,0.2l0,0.2l0.1,0.3l0,0l0.1,0l0,0l0,0.2l0,0.1l0.1,0.1  l0,0.1l-0.1,0l-0.1,0l-0.1,0l0,0l-0.3-0.3l-0.2-0.1l-0.2,0l-0.1,0.1l0.1,0.2v0.1l-0.1,0.1l0,0l0,0.1l0,0.1L19,42.6l-0.2-0.1l-0.2,0  l-0.1-0.1l0-0.2l0-0.2l0-0.1l-0.2,0l-0.1-0.1l-0.1-0.1L18,41.6l-0.2,0l-0.1,0l-0.1,0l-0.1-0.1h-0.1l-0.1,0.3l-0.1,0.1l-0.2,0l-0.2,0  l0.1-0.1l0-0.1l0,0l0,0l0,0l0-0.1l0-0.1l0-0.1h-0.1l-0.1,0.2l-0.2,0.2L16.2,42L16,41.9l-0.2-0.1l-0.1-0.2l-0.1-0.1l-0.1,0.3l0,0.2  l0,0.3l0.1,0.2l0.2,0.1l0.1,0.1l0.1,0.1l0,0.1l-0.1,0l-0.1,0l-0.2,0l-0.2,0.1l-0.1,0.2l0,0.3l-0.1,0.2v0.1l0.4,0.3l0,0.1l0,0.1  l0,0.1l0.1-0.1l0.1,0l0.1-0.1l0.1,0l0.1,0.2l0.1-0.2l0.1-0.2l0.2-0.2l0.2-0.1l0.2,0.1l0.1,0.2l0.3,1.2l0.1,0.2l0.1,0.1l0.2,0.1  l0.4,0l0.1,0.1l0.2,0.5l0.2,0.3v0.3l-0.1,0.6l0,0.2l0.1,0.2l0,0.1l0.1,0.1l0.1-0.1l0.1-0.1l0-0.1l0.1,0l0.1-0.1l0.1-0.1l0.1,0.1  l0,0.1l0,0.1l-0.1,0.2l0.1,0l0.1,0.1l0,0l-0.1,0l-0.1,0l-0.1,0.1l0.1,0.1l0.1,0l0.1,0v0.1l-0.1,0.1l0.1,0.3L19.5,49l0.2-0.1l0,0.2  l-0.1,0l-0.1-0.1l-0.1-0.1l0,0.1l0,0l0,0l0,0l0,0.2l0.1,0.1l0.1,0.1l0.1,0.1l0.1-0.2l0.1,0l0.2,0.2l-0.1,0.1l-0.1,0.1l-0.1,0.1  l-0.1-0.1l0-0.1l-0.1,0.1L19.3,50l0,0l0.1-0.1l0,0.2l0,0.1l-0.1,0.1l-0.1,0.1l0.1,0l0.3,0l0.1,0.1l0.1,0.1l0,0.2l0.1,0.1l0.2,0  l0-0.2l0.1-0.1l0.1,0l0.1,0l-0.1,0l-0.1,0l-0.1-0.1l0.1-0.2l0.1,0l0.1,0.1l0.1,0.1l0.2,0l0.1,0l0.1-0.1l0.2-0.1l0.1-0.1l-0.1,0  l0-0.1l0-0.1l0.1,0l0.2,0.1l0.1-0.1l0,0l0,0l0-0.1l0.1-0.1l0.2-0.1l0.1,0l0.1-0.1l0-0.1l0-0.2l0-0.1l0,0l0,0l0,0l0-0.1h0.2l-0.5-0.8  l0-0.1l0.1,0l0,0l0.1,0l0.1,0.1l0.2,0.3l0.1,0.9l0.1,0.1l0.2,0l0.2,0.1l0.1,0.1L23.1,50l0.1,0l0,0l0.1-0.1l0.1,0.1l0.1,0l0.1,0  l0.1-0.1l-0.1,0.2h0.2l-0.1,0.1l0,0v0.1l0,0l0.1,0.1l-0.1,0.1l0,0.1l0,0l0.1,0.1v0.1l-0.2-0.1l-0.2-0.2l-0.2-0.1l-0.2,0l0.5,0.3  l0.1,0.1l0.1,0l0.1,0l0.2,0l0.1,0.1h0.1l0.1-0.3l0.7-0.5l0.2,0.1l0.2,0l0.2-0.1l0.2,0h0.7l0.3,0.3l0.2,0.1l0.1-0.1l0-0.3l0.1-0.2  l0.6-0.5l0.1,0l0.1,0.1l0.1,0.2l0.1,0l0.2,0l0.1,0l0.5-0.3l0.3-0.1l0.3,0l0.3,0.3l0.2-0.1l0.2,0l0.6,0.3l0.4,0.1l0.2,0.1l0,0.1  l0.1,0l0.1,0l0.1,0l0.1,0.1l0.1,0.2l0.1,0.1l0.1-0.2l0.2-0.2l0.2-0.1l0.1,0h0.1l0.1,0l0.2,0l0.1,0.1l0.1,0.1l0.4-0.1l0.3,0.1  l0.2,0.1l0.2,0l0.1-0.1l-0.1-0.1l0.1-0.1l0.1-0.1l0-0.1l0-0.1L34,49.8l0,0l-0.1-0.1l-0.1-0.1l0.1-0.1l0.3-0.2l0-0.1l-0.1-0.3l0-0.2  l0.5,0.3l0.1,0l0,0l0.1,0.1l0.1,0.2l0.5,0.7l0.2,0.3l-0.1,0l0,0l0,0l0,0.1l0,0l0.1,0.2l0,0l0.2,0.1l0.2,0l0.1,0l0.1-0.1l0-0.1l0,0  l0,0l0.1-0.1v-0.1l-0.1,0l0,0l0,0l-0.1,0v-0.1l0.1-0.1l0.1-0.2l0.1-0.1l0.1,0l0.1,0.1l0.1-0.1l0-0.1l-0.2,0l0.2-0.3l0.3,0.1l0.2,0.3  l-0.1,0.3l0.2,0.3l0.1,0.1l0.1,0l0.2,0.1L38,51l0.4,0.1l0.2,0.1l-0.1,0.2l-0.2,0.2l-0.1,0.1l0.5,0.3l0.2-0.1l0.4,0l0.2-0.1l0,0.1  l0,0.1l0,0.1l0.1-0.2h0.1l0.2,0.7l0.2-0.1l0.3,0.1l0.2,0l-0.1-0.2l-0.1-0.1l-0.2,0l-0.2,0l0.1-0.2l0.2,0l0.7,0.1l0.2,0l0.2,0.1  l0.2,0.2h-0.2v0.1l0.4,0l0.1,0l0.4-0.3l0.1,0l0.3,0.3l-0.2,0.2l0.2,0.1l0.9,0.1v0.1l-0.1,0L43,53.2l-0.1,0l0,0.1l0,0.1l0.2,0.1  l0.2,0.2l0.1,0.2l-0.1,0.1l-0.2,0l-0.2,0.2L42,54.4l-0.4,0l-0.3-0.2l-0.2,0.1l-0.6-0.2l-0.3,0l-0.1,0.1l-0.2,0.3l-0.2,0.1l-0.1,0  l-0.1,0.1l-0.2,0.2l0.4,0l0,0l0,0l0.2,0l0.3,0.2l0.2,0.1l0.1,0.1l0.2,0.2l0.1,0.2l0,0.1L40.3,56l-0.1,0l-0.1,0l-0.1,0L40,56  l-0.3,0.1l-0.2,0l-0.2,0L39.2,56l-0.4-0.3l-0.2-0.1l-0.1,0l-0.2-0.3l-0.9-0.8l-0.1,0l-0.1-0.1L36.6,54l-1.2-0.7l-0.9-0.2l-0.1,0  l-0.1,0.1l-0.1-0.1L34,53.1L33.7,53l-0.2-0.2l-0.2-0.1l-0.2,0.1L33,52.7l-0.5-0.1h-0.3l-0.1,0L32,52.5l0-0.1l0,0l-0.4-0.1l-0.1-0.1  L31.3,52l-0.1-0.4l-0.1-0.1l-0.1,0L31,51.5l-0.1-0.1l-0.1,0l-0.1,0.1l-0.1,0l-0.1,0l-0.3-0.2L30,51.2l-0.1-0.2l0-0.2l-0.1-0.1  l-0.1-0.1l-0.2,0l-0.2-0.1l-0.1-0.1l-0.1-0.1L29,50.5l-0.1,0l-0.2,0l-0.7-0.2l-0.1,0.1L26.9,51l-0.3,0.4l-0.5,0.9l-0.3,0.4l-0.4,0.3  L25.3,53l-0.2,0l-0.9-0.2l-0.6-0.4l-0.2-0.1l-0.2,0l-0.2,0l-0.2-0.1l-0.1-0.1l0,0.1l0,0.1l0,0.2l-0.1-0.1l-0.2-0.3l-0.1-0.1l0,0.2  l0,0.9l0,0.2l-0.1,0.1L22,54.2l0,0.1L21.5,55l0.1-0.1l0.1-0.1l0.1-0.1l0.1,0l0,0l0,0l0,0l0,0v0.1l-0.1,0.1l-0.1,0.1l-0.1,0.1  l-0.2-0.1l-0.3,0.4L20.6,56l-0.5,0.2L19.9,56h-0.1l-0.3,1l0.1,0.1l0,0.2l0.1,0.2l0.1,0.1l1.2,0.4l0.5,0.3l0.2,0.1l0.1,0.2l0.2,0.6  l0,0.2l0,0.2l-0.1,0.3l0.1,0.1l0,0.1l0,0.1l0,0.1h0.1l0.1-0.4l0.2-0.1l0.7,0.2l0.1,0.1l0.2,0.3l0.1,0.1l0.2,0.1l1,0.7l0.2,0.2  l0.4,0.7l0.8,1.5l0.2,0.6l0.1,0.6L26,65.4l-0.3,0.3L25,66.3l-0.2,0.4l-0.1,0.5l0,0.6l0.1,0.6l0.2,0.4l0.3,0.3l0.3,0.4l0.1,0.5  l0.1-0.2l0.1,0l0.1,0l0,0.1l0,0L25.8,70l0.2-0.1l0.2,0.1l0.1,0.2l0,0.2l-0.1,0.1l-0.1,0.2l0,0.1l0,0.2l0,0.1l0,0.1l0,0.1l0.1,0.2  l0.1,0.2l0.1,0.1l0.1-0.1h0.1l0.1,0.1l0.3,0.1l0.1,0.1l0.3-0.1l0.2,0l0.2,0l0.3,0.7l0,0l0.2,0.4l0.1,0l0.1-0.1l0.1-0.1l0.5-0.4  l0.1-0.1l0-0.1l0.1-0.1l0.1-0.1l0.2,0v-0.1l-0.2,0L29,72.1l-0.2-0.2l0.1-0.2l0-0.1l-0.1-0.1l0-0.2l0-0.1l0.1-0.2l0.1-1.3l0.1-0.2  l0.1-0.1l0.4-0.1l0.4-0.3l0.2-0.1l0.4,0l0.8,0.2l0,0.1l0,0.4l-0.1,0.3l0,0.2l0,0.1l-0.1,0.1l-0.1,0.1l0,0l0,0.2l0.1,0.1l0.3,0.2  l0.3-0.2l0.2,0.1l0.8,1.1l0.2,0.4l0,0.3l0.2,0.2l0.2,0.4l0.2,0.3l0.3-0.1L33.8,74l0,0.2l0.2,0.1v0.1l-0.2,0l0,0.2l0,0.2l0,0.2H34  l-0.1,0.2l-0.1,0.1l0.1,0.1l0,0.2l-0.1,0.2l-0.2-0.1l-0.1,0.2l-0.1,0.2l0,0.2l0.1,0.2l0.1,0.1l0.1,0.1l0.1,0l0.1-0.1h0.1l0.1,0.2  l0.4,0.2l0.2,0.1l0.1,0.2l0,0.3l0,0.2l0.1,0.2l0-0.1l0-0.1l0,0l0.1,0v-0.1l-0.1-0.2l0-0.2l0-0.1l0.1-0.1l0-0.1l0-0.1l-0.2-0.6  l-0.1-0.3l0-0.3l0-0.8l0.1-0.1l0.2-0.1l0.1,0.3l0.2-0.1l0.1-0.3l-0.2-0.2l-0.1-0.1l0-0.1l0.1-0.1l0.1-0.1l0.1,0l0.1,0.1l0,0.1l0,0.1  h0.1l0-0.2l0-0.2l-0.1-0.1h-0.2l0.1-0.3l0.1-0.2l0.4-0.3l0-0.6l0.5-0.3l0.7-0.1l0.6,0l0.3,0.1l0.2,0.2l0.2,0.2l0.1,0.5l0.1,0.3  l0,0.2l-0.1,0.3l0,0.1l0,0.1l0.2-0.2l0-0.1l0.1,0l0.5,0.4l0.1,0.2l-0.2,0.2l0.5,0.4l0.1,0.1l0.1,0.1l0.3,0.5l0.1,0.2l0.1,0.2h0.2  l0.5-0.1l0.2,0.1l0.2,0.2l0.1,0.2l-0.1,0.2v0.1l0.1,0.1l0.1,0.2l0.1,0.1l0.5,0.1l0.1,0l0.1-0.1l0.4,0.2l0.1-0.3l-0.2-0.2l-0.3-0.2  l-0.2-0.3l0.1-0.1l0-0.1l0-0.1L42.5,76v-0.1l0,0l0.1-0.1l-0.1,0l0,0l0-0.1l0-0.1l-0.2-0.1L42,75.4l-0.2-0.1l0,0l-0.1-0.2l-0.2-0.4  l-0.2-0.4l0-0.4l0.3-0.2h-0.3l0,0l0-0.1l0,0l-0.2-0.1l0.1-0.1l0.1-0.1l0.1-0.2l0.1,0.1l0.2,0.1l0.1,0l0.1-0.2l0-0.1l0,0l0,0l0-0.1  l0-0.1l0.1-0.1l0-0.1L42,72.4l-0.1,0l-0.1,0v-0.1l0.1,0l0-0.1l0-0.2l-0.1-0.2l-0.3-0.3l-0.2-0.2l0-0.1L41.3,71l-0.2-0.6L41,70.3  l0-0.1l0-0.1l0-0.1l0-0.1l0,0l0,0l0,0l0,0l0-0.1l-0.1-0.1l0-0.1l0.1,0l0.1,0l0.1,0l-0.1-0.3l-0.1-0.2l0-0.2l-0.3-0.5l-0.1-0.2  l0.2,0.1l0-0.1l-0.1-0.1l-0.2-0.1l0.1-0.1l-0.1,0l0,0l0.1,0l0-0.1l0,0l0,0l0-0.1l-0.2,0.1l-0.2,0l-0.2,0l-0.1-0.2l0-0.4l0-0.2  l0.1-0.1l0.1-0.1l-0.1-0.1l-0.1-0.1l0,0l-0.4-0.7l-0.1-0.3l-0.3-0.5l-0.1-0.1v-0.1h0.1v-0.1h-0.2l0.1-0.2l-0.1-0.1l-0.6-0.7l0-0.1  l0.1-0.2l0-0.1l-0.1-0.1l0,0l0-0.3l0-0.1L38,62.7l-0.1-0.1l-0.1-0.1l0-0.2l0-0.1l0.1-0.2l0-0.1l0-0.1l-0.1-0.2l0-0.1l0-0.3l0.1-0.2  l0.2-0.1l0.2-0.1l0.1,0.1l0.1,0.2l0,0.1l0.1,0.1l0.1,0.1l0.1,0.1l-0.1,0.1l0,0.1l0.3,0.2l0.1,0.1l0.2-0.2l0.2-0.1l0.2,0L40,62l0-0.1  l0,0l-0.1,0l0.1,0l0.1,0l0.2,0.1l0,0l0,0.1l0,0.1l0,0l0.1,0l0.1,0l0.1,0l0.2,0.2l0.1,0.2l0.2,0.5l0.1-0.1l0.1-0.1l0.3-0.2l0.2,0.3  l-0.2,0.1l0.2,0.1l0.4-0.1l0.2,0.1l0.1,0.1l0.1,0l0.1,0l0,0.1l0,0.1l0,0.1l0.1,0.1v0.1l-0.1-0.1l-0.2-0.1l0,0.2l-0.1,0.2l-0.1,0.1  l-0.1-0.1l-0.1-0.1l0,0.2l0,0.4v0l0.1,0.1l0.1,0l0.1-0.1l0.2,0.2l0.1,0.1l0.1,0.1l-0.2-0.1l0.1,0.2l0.1,0l0.2,0l0.1,0v0.1h-0.2V65  l0.2,0.1l0.1,0l0.2,0l0.2,0l-0.1-0.2L43,64.7l0-0.1l0.2,0l0.4,0l0.2,0l0.2-0.1L43.8,64.4z M78.1,93.3l0.2-0.2l0.1-0.3H78l0,0l0,0.1  l0,0l0,0l-0.1,0L78.1,93.3l-0.4,0l-0.2,0.2l-0.2,0.3l-0.3,0.3l0,0.1v0l0.1,0l-0.2,0.2l-0.3,0.1l-0.3,0l-0.2-0.1l0.1-0.1l-0.4-0.1  L75.5,94h-0.1l-0.1,0.1l-0.1,0l-0.1,0l-0.1,0L75,94.1l-0.1,0.1l-0.4,0.2l-0.1,0l-0.4,0.1l-0.4,0l-0.1,0l0,0l-0.1,0.2L73.3,95l-0.1,0  l-0.1,0L73,95.1l-0.2,0.4l-0.1,0.1l-0.3,0l-0.1,0l-0.1-0.1l-0.2-0.1l-0.2,0l-0.1,0l0-0.3l0-0.1l-0.1-0.1l0-0.1l0.1-0.1l-0.1-0.3  l0.1-0.2l0.1-0.2l0-0.1l0.1-0.1l0.1,0l0,0l0.1,0l0.1-0.1l-0.1-0.1v0l0.1-0.1l-0.1-0.1l-0.1,0l-0.1,0.1l0,0.2l-0.1-0.1l0-0.1l0-0.1  l0.1-0.1l-0.1-0.1l0.3-0.2l0.1-0.2l0.1-0.2h-0.7l-0.2,0L71,92.4l-0.1,0l-0.2,0l-1.8,0.7l-0.3,0l-0.3-0.1L68,92.9l-0.2-0.2l-0.2-0.2  l-0.1,0.1l-0.1-0.1l-0.2,0.1l-0.2,0l-0.3-0.1l-0.6,0.1h-0.3l-0.1,0l-0.1-0.1l-0.1-0.1l0,0l-0.2,0l-0.3,0.1l-0.5,0l-0.3,0l-0.2-0.1  L64,92l0-0.1l0-0.1l0-0.1l0-0.1l-0.1,0l-0.2,0l-0.1-0.2l-0.5-0.1l0,0.1l0,0l0,0L63,91.6l-0.7-0.3l-0.3,0.1l-0.2,0.1l-0.1,0.1  l-0.2-0.1l-1.1-0.2l-0.3,0l-0.2,0l-0.2,0.1l-0.7,0.4l-0.3,0.1l-0.9,0.2l-0.2,0.1L57,92.1l-1,0.3l-0.4-0.1l-0.1-0.1l-0.2,0l-0.1-0.1  l0-0.1l0-0.5l0-0.3L55,90.6l-0.1,0.1l-0.2,0.1l-0.2,0.1l-0.2,0l-0.2-0.1l-0.4-0.3l-0.3-0.1l-0.2-0.1L53,90.3l-0.1-0.1l0.2-0.1l0.3,0  l0.4,0.1l0.2,0l0.1,0l0.1,0l0.1-0.1l0.1-0.2l0.1,0l0-0.1l-0.2-0.6L54,89l-0.5-0.1l-0.4,0.2l0.1,0.5l-0.3,0l-0.1,0l-0.1,0.1l0,0.1  l-0.1,0.1L52.6,90l-0.1,0l-0.3,0L51.5,90L51.4,90L51,89.9l-1-0.1l-0.2-0.1l-0.2-0.4l0-0.1l0-0.4l-0.1-0.4l0-0.2l0.1-0.1v-0.1  l-0.2-0.1l-0.1-0.1l-0.1,0l-0.2,0.2l-0.1,0.2l0,0.2l0,0.2l0.1,0.2l-0.1,0.1l0,0.2l0.1,0.3l0.1,0.3l0,0.3L49,90.1l-0.2,0.1l-0.2,0  l-0.3,0l-0.1,0l-0.1,0l0,0l0-0.1l0-0.1L48,90l-0.1,0l0,0l-0.1-0.1l-0.1-0.2l0-0.6l0-0.3l0,0.1l-0.2,0.4l0,0.2l0,0.2l-0.2,0.3  l0.1,0.1l0,0l0,0l-0.1,0.1v0.1l0.1,0.1l0,0.1l-0.1,0.1l-0.1,0.3l0,0.1h0l0.1,0.1l0.1,0.1l0,0.1l-0.1,0.2l-0.2,0.3L46.9,92l0.1,0.2  L47,92.4l0,0.1l0.1,0.1l0.1,0.1h-0.1l0,0l0,0l0,0h-0.1l-0.1,0L46.7,93V93l0,0l0,0l0,0l-0.1,0.1l0.1,0.1l0.1,0.1l0.1,0.1l0.1,0.1  l0.1,0l0.2,0l0.1,0l0,0.1l0,0.1l0.1,0.1l0.3,0.1l0.7,0l0.2,0.2l0.3-0.1l0.8,0l0.2-0.2l0.1,0l0.1,0l0.1,0l0.1-0.1l0.4,0.2L51,94l1,0  l0.2,0.1l0.3,0.4l0.2,0.1l0.3-0.1l0,0l0-0.1l0.1,0l0.2,0.1h0.8l0.1,0l0,0l0.1,0l0.1,0l0,0l0,0.1l0.1,0.1l0,0l0.9,0.1l1.2-0.1v0.1  l0,0.1l0.7,0.3l0.2-0.1l0.2,0l0.2,0.1l0.2,0.1l0.2,0.3l0.1,0.1l0.1,0h0.1l0.2,0.1l0.3,0.1l1,0l0.1,0l0.1,0.1l0.1,0.1l0.1,0l0.1,0.1  l0.1,0.2l0.1,0.2l0,0.1l0,0.2l-0.1,0.3l0,0.2l0,0.5l0,0.2L60.5,98v0.1l2.8-0.1l0.2,0l0.2,0.1l0.3-0.1l0.2,0l0.2,0l0.1,0l0.1,0l0.1,0  h0.1l0.1,0l0.1-0.1l0.1,0l0.2-0.1l0.6,0.1l0.2,0l0.6-0.3l0.2-0.1l0.1,0l0.3,0l0.2-0.1l0.8,0l1,0.1l0.2-0.1l0.2-0.1l0.7-0.2l2.3,0.1  l0.8-0.3l0.5-0.1l0.4,0.1l0.1,0l0.1-0.1l0.1,0l0.1,0l0.1,0.1l0.2,0.1h0.2l0.2,0l0.3,0l0.1,0.1l0.2,0.2l0,0h0.3l0.2,0l0.7-0.3  l0.1-0.1l0.1-0.1l0.1,0l0.1-0.1l0.1-0.3l0.1-0.1l0.1-0.2l0.1-0.2l0.1-0.2l0.1-0.3l-0.1-0.2l0.1-0.2l0.2-0.2l0.1-0.2l-0.2,0.2  l-0.2-0.3l-0.2-0.7l0.2-0.2L78.1,93.3z"/></svg>