<svg xmlns="http://www.w3.org/2000/svg" xmlns:xlink="http://www.w3.org/1999/xlink" version="1.1" x="0px" y="0px" viewBox="-461 335 100 100" fill="#e0e0e0" style="enable-background:new -461 335 100 100;" xml:space="preserve"><path d="M-375.9,337.3l0.3,1l0.8,0.6l0.9,0.2l0.8-2.2L-375.9,337.3z M-411.1,375.7l-0.8,0.5l-0.4,1.1l-1.1,1.4l-0.1,0.4l0.9,0.6  l0.9,0.7l0.5,0.2l1-2.1l-0.4-1.1l0.9-0.9L-411.1,375.7z M-384.2,337.5l-2,4.5l-2.4,3.3l-4-1.2l-1.1,1.8l-0.3,0.8l2-0.1l0.6,0.1  l-0.7,1.2l-1.2,3l-0.7,1.2l3.2-1.2l3.1-1.6l3.1-0.9l3.3,1l0.1-4l0.8-3.7l0.3-3.4l-1.2-3.1L-384.2,337.5z M-415.8,394.9l1.2-1.1  l0.1-0.6l-4.1-2.5l-4.2-0.6l-3.9,0.7l-10.9,13.2l-0.1,3.3l-3.9,7.4l-1,4.2l0.5,2.6l0.9,2.2l0.5,2.2l-0.7,2.8l-1.2,1.2l-6.4,4.1  l2.8,0.8l3.5,0.2l3.2-0.7l1.9-1.7l1.5,0.9l1.6,0.7l1.7,0.5l1.7,0.3l0.3-1.8l0.8-1.4l1.2-1.1l1.6-0.8v1.4l8-4.2l1-1.7l0.1-1.6  l0.2-1.5l0.5-1.1l1-0.4l0.5-0.6l-1-3.1l-0.1-1.5l1.2-2.9l0.8-1.3l0.4-1.3l0.6-9.3l-0.3-2.8L-415.8,394.9z"/></svg>