<svg xmlns="http://www.w3.org/2000/svg" xmlns:xlink="http://www.w3.org/1999/xlink" version="1.1" x="0px" y="0px" viewBox="-461 335 100 100" fill="#e0e0e0" style="enable-background:new -461 335 100 100;" xml:space="preserve"><path d="M-387.7,413.4l-0.9-0.7l-1.4-3.7l-2.4-2.1l-3-0.7l-2.7,1.5l-2.2,2.6l-0.9,1.4l-0.4,1.9l-1.2,1.7l-0.5,0.9l0.4,0.4l0.4,0.4  l0.4,0.9l0.3,1l0.1,0.8l1.6,3.3l3.8,0.6l4.2-1l3.1-1.5l1.4-1.1l0.8-1l0.4-1.1l0.1-1.6l-0.4-1.7L-387.7,413.4z M-385.6,373.6  l-6.7-4.7l-1.3-0.6l-0.7-0.5l-2.7-2.3l-1.2-0.7l-1.4-0.2l-1.2,0l-1.2-0.1l-1.3-0.7l-0.8,1l-1.8-1l-1.6-1.1l-1.4-1.4l-1.2-1.8l-1-2  l-0.2-1.3l0.3-3.4l-0.5-3.4l-1.5-2.6l-2.1-2.2l-4-2.9l-0.4-0.2l-0.4,0.4l-3.8,2.1l-1.2,0.9l-0.5,0.8l-1.9,2.3l-1.1,1.7l0.1,1.2  l0.6,1.2l0.7,4.6l1,0.2l1,0.4l0.9,0.5l0.5,0.6l0.1,0.9l0,1.2l-0.2,1.1l-0.3,0.5l-2.3,0.5l-1.2,1.4l-2,6.7v0l-0.5,1.9l-0.1,1.7  l0.5,1.6l1.3,1.6l1.7,1.3l2.1,1.3l2.4,1l2.6,0.4l2.2-0.4l4.2-1.8l21.8-5l1.9,0.5l1,0.4l3.5,0.8l1,0l1.4-1.1l-0.7-0.7L-385.6,373.6z   M-432.5,422.9l-0.2-0.4l-0.7-0.3l-0.8,0.3l-0.6,1.3l-0.7,0.4l-0.7,0.6l0.4,0.6l1.3-0.4l1.4-1l0.7-0.6l-0.1-0.3L-432.5,422.9z   M-430.2,371.5l-0.3-0.6l-0.8-0.8l-1.6,0.2l-1.2,1l-0.6,1.4l-1.3-1.3l-0.4-0.5l-0.5,0.4l0,0.1l-0.2-0.1l-1-0.4l1.8-0.8l-2.1-2.6  l-4.2-2.2l-4.6-1.6l-3.1-0.6l-1.2-0.6l-0.8-1.1l-1.2-0.7l-2.3,0.6l-1.8,1.5l-2.1,3.7l-1.2,1l0.4,1.7l-0.5,4l0.1,2.2l0.7,1.4l1,1.4  l0.6,1.5l-0.6,1.9l1.8,4.6l0.1,10.1l1.5,4.5l1.1,0.7l0.5,1.2l0.4,1.5l0.9,1.5l1.4,1.3l1.3,0.8l1.1,1l0.9,1.7l-0.9,0.9l0.7,1.9  l0.2,0.7l6.4-2.7l5.7-3.4l3.9-4.7l1-6.8l-0.9-7l-1.6-4.5l-0.3-5.9l0.8-1.3l2.2-0.5l0.8-0.2l-0.9-2.5L-430.2,371.5z M-434.9,362.6  l1.2-0.3l-0.5-0.4l-0.4-0.2l-0.6,0.2l-0.6,0.8l0.3,0.5L-434.9,362.6z M-435.5,427.3l0,0.5l0.6,0.5l-0.1-0.5L-435.5,427.3z   M-364.2,362.1l-3,1.2l-4.9,4.1l-1.6,0.9l2.8,0.4l3.5-1.5l6.3-4.2L-364.2,362.1z M-375.5,384.5l0.2-0.2l-0.2-0.1V384.5z   M-377.4,384.8l-0.7-0.1l1,0.9h0.4l0.9-0.1l0.4-0.6l-0.7-0.1L-377.4,384.8z M-439.7,423.8l-1.2,0.7l-0.5,1.7l1.3,0.8l1.1-0.7l0.3-1  l-0.6-1L-439.7,423.8z M-437.5,427.7l0.2,0.2h0.3l-0.2-0.2L-437.5,427.7z M-435.4,422.7l-0.7-0.1l0.2,0.4l0.7,0.1L-435.4,422.7z"/></svg>