<svg xmlns="http://www.w3.org/2000/svg" xmlns:xlink="http://www.w3.org/1999/xlink" version="1.1" x="0px" y="0px" viewBox="-345 257 100 100" fill="#e0e0e0" style="enable-background:new -345 257 100 100;" xml:space="preserve"><polygon points="-245.8,308.5 -245.5,308.4 -246.4,308 -247.5,307.1 -247.7,307 -248.5,306.3 -251.1,305.1 -252.4,304.1   -252.9,303.8 -253.6,303.1 -253.9,302.9 -254.6,302.6 -255,302.4 -255.3,302.8 -255,303.2 -254,303.7 -253.8,304 -253.6,304.2   -253.4,304.5 -253,304.7 -252.7,304.9 -252.1,305.4 -252.4,305.6 -253.2,305.4 -253.4,305.6 -253.6,305.6 -253.6,305.5   -253.6,305.3 -253.8,305.3 -253.8,305.7 -253.6,306.2 -253.6,306.6 -253.7,306.8 -254,307 -254.2,307.3 -254.3,307.7 -254.4,307.9   -254.6,308 -254.8,307.9 -255,308 -255,308.2 -254.9,308.3 -254.8,308.4 -254.8,308.5 -254.7,308.5 -254.7,308.7 -254.8,308.9   -255.1,309 -255.7,309 -255.8,308.8 -255.5,307.7 -257.9,306.2 -258.5,306.1 -258.6,305.6 -259.4,305.1 -260.5,304.9 -261.4,305.1   -262.2,304.4 -262.5,304.3 -263.5,304.6 -265.7,304.1 -266.5,304.1 -267.2,304.2 -269,304.1 -269.5,304.3 -269.7,304.3 -270,304.4   -270.2,304.5 -270.3,304.6 -270.5,304.3 -270.5,304.2 -270.5,303.9 -270,292.5 -269.1,270 -268.7,258.5 -268.6,257 -268.6,257   -268.6,257 -312.9,257 -313.4,257.1 -313.6,257.3 -313.6,257.3 -313.7,270.9 -313.7,270.9 -324.5,270.8 -324.5,270.8 -324.6,270.8   -324.6,270.8 -324.7,271.2 -324.2,271.5 -323.4,271.6 -323,271.8 -322.8,272.4 -322.3,272.5 -321.7,272.4 -321,272.4 -320.7,272.6   -320.5,273 -320.4,273.5 -320.3,273.9 -320.2,274 -319.7,274.1 -319.5,274.3 -319.4,274.4 -319.3,274.9 -319.2,275.1 -318.9,275.5   -318.1,276.4 -317.8,276.5 -317.2,276.4 -317,276.5 -316.8,276.6 -316.7,277.1 -316.6,277.3 -315.7,278.3 -315.6,278.6   -315.5,279.1 -315.2,279.3 -314.3,279.6 -314.1,279.8 -313.8,280.1 -313.7,280.2 -313.4,280.1 -313.4,280.1 -313.5,279.8   -313.6,279.6 -313.5,279.5 -313.5,279.5 -313.1,279.5 -312.8,279.6 -312.7,279.7 -312.7,279.8 -313,280.1 -313.1,280.2   -312.6,280.4 -311.9,281.1 -311.4,281.3 -309.7,281.8 -309.4,281.9 -309.2,281.7 -308.9,281.8 -308.9,282 -308.9,282.3   -308.6,282.6 -307.7,283 -307.3,283.3 -305.7,285.6 -305.4,286.5 -305.7,287.1 -305.7,287.2 -305.5,287.2 -305.3,287.1   -305.3,287.1 -305.3,287.1 -305.2,286.9 -305.2,286.9 -304.9,287.1 -304.9,287.4 -305.1,287.9 -305,288.3 -305.2,288.6 -305,288.7   -304.6,288.7 -304.3,288.9 -304.3,289.2 -304.3,289.2 -304.5,289.4 -304.7,289.5 -304.7,289.5 -304.8,289.8 -304.5,289.7   -304.1,289.7 -303.8,289.8 -303.6,289.8 -303.5,289.8 -302.9,289.6 -302.6,289.6 -302.5,290.1 -302.4,290.3 -301.8,290.1   -301.5,290.1 -301.3,290.3 -301.1,290.4 -301,290.7 -301,290.9 -301,291.1 -300.2,291.2 -299.9,291.3 -299.8,291.4 -299.6,291.4   -299.3,291.4 -299.1,291.3 -299,291.3 -298.9,291.7 -298.9,292 -298.9,292.2 -298.6,292.6 -298.6,292.6 -299,292.5 -299.3,292.5   -299.6,292.6 -299.6,292.6 -299.6,293 -299.4,293 -299.4,292.8 -299.3,292.8 -299.1,293.1 -299.2,293.5 -299.2,293.5 -299.6,293.8   -300,294 -300.2,294.1 -300.2,294.1 -300,294.2 -299.6,294.4 -299.4,294.3 -299.4,294.6 -299.5,294.6 -299.6,294.6 -299.8,294.6   -300,294.5 -300,294.5 -300,294.6 -300,294.6 -300,294.6 -300,294.7 -300.1,294.6 -300.1,294.6 -300,294.8 -299.9,295 -299.8,295.2   -299.8,295.2 -300.1,295.1 -300.2,295.1 -300.3,295 -300.6,295.3 -300.6,295.3 -300.5,295.5 -300.3,295.7 -300,295.8 -300,295.8   -300.2,296 -300.5,296.2 -300.5,296.2 -300.7,296.5 -300.6,297 -299.9,297.4 -299.7,297.6 -299.8,297.6 -300.3,297.9 -300.3,298   -300,298.3 -300,298.3 -300.6,298.8 -300.6,298.8 -300.5,299.2 -300.3,299.2 -300.2,299.1 -300.2,299.1 -300.1,299.1 -300,299   -300,299.2 -300.2,299.6 -300.2,299.6 -300.3,299.7 -300.7,299.9 -301.2,299.9 -313.7,299.9 -331.7,300 -332,300.2 -332.3,300.5   -332.3,300.5 -332.5,300.7 -339.3,312.2 -341,315.1 -343.5,319.1 -343.6,319.6 -343.6,320 -343.4,320.4 -340.3,324.4 -340.7,325.3   -340.7,325.5 -341,325.8 -341.3,325.9 -341.6,326 -341.9,326.1 -342.2,326.3 -342.2,326.3 -342.3,327.2 -342.2,328.7 -342.5,329.4   -342.5,329.4 -343,330 -343,330 -343.2,330.3 -343.1,330.8 -343.1,331 -342.9,331.6 -342.8,331.8 -342.9,332.2 -342.9,332.4   -342.4,333.6 -342.4,334 -342.5,334.4 -342.5,334.4 -342.7,334.7 -343,335.4 -343.6,336.8 -343.6,336.8 -343.6,336.8 -344,337.3   -344.5,337.4 -344.5,337.4 -344.5,337.4 -342.4,338.9 -339.6,340.8 -336.2,343.9 -330.4,347.4 -330.1,347.8 -329.5,348.3   -328.8,348.5 -327.4,349.4 -326.8,349.7 -321.7,351.7 -317.9,352.6 -316,352.9 -309.6,352.5 -305,352.5 -304.7,352.5 -303.6,352.7   -303,352.8 -301.7,353.1 -299.1,353.9 -295.1,355.7 -292.6,356.8 -291.7,357 -291.7,357 -292.1,355.8 -292.1,355.5 -292.1,355.5   -292,355.1 -291.9,354.7 -291.7,354.3 -291.4,354 -290.7,353.7 -290.4,353.4 -290.2,353.1 -290,352.7 -289.8,352.4 -289.5,352.1   -287.1,350.5 -286.6,350 -286.3,349.8 -285.2,349.4 -284.9,349.4 -284.4,349.5 -283.8,350 -283.4,350.1 -283.1,349.9 -283.1,349.8   -283.1,349.8 -283.1,349.7 -283.2,349.4 -283.3,349.2 -283.3,349.2 -283.2,349 -282.1,347.2 -281.6,346.7 -281,346.2 -280.4,345.9   -277.7,345.3 -277.6,345.1 -277.6,344.7 -277.7,344.7 -278,344.5 -278.1,344.4 -278.1,344.2 -278.2,343.9 -278.2,343.7   -278.3,343.5 -278.4,343.4 -278.6,343.3 -278.7,343.2 -279.2,343.1 -279.4,342.8 -279.4,342.8 -279.2,342.6 -279,342.4   -278.8,342.1 -278.8,342.1 -278.9,341.9 -279.1,341.6 -279.2,341.3 -279.2,341.3 -279,341 -278.7,340.7 -278.3,340.7 -278.1,341   -278,341.5 -277.7,341.2 -277,340.5 -276.9,340.4 -276.6,340.3 -276.2,340.4 -275.9,340.5 -275.7,340.6 -275.3,340.5 -274.7,340   -274.5,339.9 -274.4,340.4 -274.3,340.2 -274.3,340.1 -273.6,340.6 -273.6,339.9 -273.6,339.9 -273.6,339.5 -273.4,339.1   -273.2,339 -272.6,338.8 -272.4,338.6 -272.2,338.2 -271.8,337.9 -271.1,337.2 -270.8,336.9 -270.7,336.7 -270.5,336.6   -270.1,336.6 -269.8,336.6 -269.2,336.8 -268.9,336.8 -268.6,336.5 -268.5,336.1 -268.5,335.7 -268.5,335.7 -268.6,334.5   -268.6,334.5 -268.5,334.3 -268.2,334 -268.2,333.8 -268.2,333.4 -268.3,333.4 -268.4,333.2 -268.6,333 -268.9,332.7 -269.3,331.6   -269.6,331.2 -270.1,330.6 -270.3,330.3 -270.4,330 -270.4,329.5 -270.2,329.2 -269.6,328.7 -269.3,328.4 -269.1,328.1   -268.8,327.4 -268.8,326.8 -268.8,326.8 -269.3,326.3 -268.9,325.2 -268.6,324.8 -268.4,324.6 -268.3,324.5 -268.2,324.5   -268.1,324.4 -267.4,324 -264.9,323.2 -264,322.8 -252.4,314.1 -252.4,314 -249.9,312.2 -248.8,311.1 -248,309.8 -247.9,309.7   -247.4,309.6 -247,309.5 -246.6,309.3 -246.2,309.1 -246,309.3 -245.9,309 -245.9,308.7 -245.9,308.7 "/></svg>