<svg xmlns="http://www.w3.org/2000/svg" xmlns:xlink="http://www.w3.org/1999/xlink" version="1.1" x="0px" y="0px" viewBox="-461 335 100 100" fill="#999999" style="enable-background:new -461 335 100 100;" xml:space="preserve"><path d="M-450.1,412.4l0.1-0.1l-0.1-0.1h-0.2l-0.1,0.1l0.1,0.1H-450.1z M-453.4,415.4l0,0.7h0.3l0.2-0.3l-0.4-1.3l-0.6,0.2l-0.3-0.2  l-0.2,0.6l0.5,0.4H-453.4z M-422.9,404.8l-0.2,0.3l0,0.2l0.1,0.1h0.3l0.1-0.1l0-0.5l-0.1-0.1H-422.9z M-450.6,414.7l0.1-0.1  l-0.1-0.1h-0.2l-0.1,0.1l0.1,0.1H-450.6z M-439.9,407.8l0.1-0.1l-0.1-0.1h-0.2l-0.1,0.1l0.1,0.1H-439.9z M-402.7,343.3l0.1-0.1  l-0.1-0.1h-0.3l-0.1,0.1l0.1,0.1L-402.7,343.3z M-437,405l0.1-0.1l-0.1-0.1h-0.1l-0.1,0.1l0.1,0.1H-437z M-416.1,410.8l0.1-0.1  l0-0.2l-0.2-0.3h-0.1l-0.1,0.1l0,0.5l0.1,0.1L-416.1,410.8z M-416.9,414.7l0.1-0.1v-0.2l-0.1-0.1h-0.2l-0.1,0.1v0.2l0.1,0.1H-416.9z   M-449.3,413.8l0.1-0.1l-0.1-0.1h-0.2l-0.1,0.1l0.1,0.1H-449.3z M-423.9,402.6l-0.4-0.6l-0.4,0.5l-1.1,0l-0.8-0.9l-0.5,0.6l-0.1,0.6  l-0.6,0.7l-0.5,0l-0.1-0.2l-0.5,0l-0.3-0.2l-0.1-0.6l0.2-0.1l0.1-0.3l-0.4-0.1l-0.3,0.2l-0.3-0.5h-0.3l-0.1,0.2l-0.7,0l-0.5,0.5  l-0.4,0l-0.2,0.3l0.2,0.4h0.6l0.5,0.6l-0.3,2.1l0.2,0.5l-0.8,0.1l-0.3-0.5l-0.6-0.2l-0.2-1.2l-0.4,0l-0.6,0.9h-0.7l-0.5-0.5  l-0.2,0.2l-0.3-0.2l-0.6,0l-0.2,0.3l0.2,0.1l0.1,0.4l-0.2,0.3l-0.4-0.3l-0.1-0.4l-0.7,0.8l0.4,0.1l0.2,0.4l-0.2,0.3l-0.4,0l0,0.7  l-1.1-0.2l-0.3,0.2l-0.2-0.2h-0.6v0.2l0.5,0.4l0.2,0.5l-0.1,0.5l0,0.5l-0.5,1.3l-0.4,0l-0.2,0.2l-1.1,0l-0.1,0.2l-0.6-0.2l-0.2,0.7  l-0.4-0.4l0.1-0.3l-0.6,0.5l-0.6-0.2l0,0.5h0.3l0.8,0.6l-0.2,1.2l-0.5,0.4l-0.1,0.2l-1.2,0.2l-0.1,0.2l-0.9,0l-0.4-0.9l-0.5,0  l-0.1-0.2l-0.5,0.8l0.1,0.9l-0.5,0.6l-0.9,0l-0.6-0.5l-0.9,0.2l-0.6,0.7h-0.7l-0.2-0.2l-0.3,0l-0.4,0.6l0.1,0.4h0.3l0.4,0.4h0.5  l0.5,1v0.7l0.2,0.2l-0.5,1.6l-0.6,0.2l0.3,0.4l-0.8,1h-0.8l-0.6-0.4l-1.5-0.2l-0.2,2l0.5,1l0.6,0.2l0.1,0.2h0.5l0.2,0.5h0.7l0.2-0.2  h0.3l0.2,0.2h0.3l0.2-0.2l0.6,0l0.3-0.5l0.3,0.2l0.2-0.2l0.1,0.2l1.2,0.2l0.2,0.2l1.1,0l0.6,0.5l0.6,0l0.1,0.2h0.8l0.1,0.2l0.5,0  l0.2,0.2h0.3l0.2-0.2l0.2,0.4l0.6,0l0.1-0.2l1.7,0l0.2,0.2l1,0l0.3,0.5l0.2-0.4l-0.1-0.6h0.8l0.1-0.2l0.6-0.2l0.1-0.6l0.4-0.3l2,0.2  l0.1,0.2h0.3l-0.1,0.8l0.2,0.4h0.3l0.3,0.7l0.6-0.9h0.6l-0.1-0.6l0.2-0.3l0.1,0.2h0.3l0.3-0.5h0.5l0.4-0.7h0.4l0.2,0.2l1.1,0  l-0.4,0.8l0.3,0.5l-0.3,0.5l0.2,0.3l0.3,0l0.9-0.7l0.1-0.5l0.3,0.2l0.2-0.6l-0.9-2.3v-0.4l-0.5-0.2l0.3-0.7l0.1-0.2l-0.2-0.2  l0.2-1.9l0.5-0.1l0.2-0.6l-0.5-0.6l-0.4-0.3l-0.2-1.2l0.6-2.1v-0.2l-0.6-0.7l0-0.7l0.5-1l0.6-0.7l0.3-0.2l0.5,0l0.1-0.2l0.9,0  l0.3-0.5l0.7-0.5l0.2-0.6l-0.4-0.3l-0.6,0l-0.1-0.3l0.8-0.1l0.1,0.2l0.5,0l0.2-0.3l0.2-1.4l0.5-0.1l0.4-1.3l0.2-1.4l-0.3-0.5  L-423.9,402.6z M-430.6,427l-0.1,0.1l0.1,0.1h0.2l0.1-0.1l-0.1-0.1H-430.6z M-427.8,416.8l-0.1,0.1l0,0.5l0.1,0.1l0.1,0l0.1-0.1  l0-0.5l-0.1-0.1H-427.8z M-460.8,421l-0.2,0.3l0.1,0.1h0.3l0.1-0.1l0-0.2l-0.1-0.1H-460.8z M-422.8,404l0-0.2l-0.1-0.1l-0.3,0  l-0.1,0.1l0,0.2l0.1,0.1h0.3L-422.8,404z M-457,420.5l-0.1,0.1l0,0.2l0.1,0.1l0.1,0l0.1-0.1v-0.2l-0.1-0.1H-457z M-449.8,425.4  l-0.1,0.1l0.1,0.1h0.1l0.1-0.1l-0.1-0.1H-449.8z M-457.1,416.2l-0.1-0.1h-0.2l-0.1,0.1v0.2l0.1,0.1h0.2l0.1-0.1V416.2z   M-401.8,342.4l0.1-0.1l-0.1-0.1h-0.2l-0.1,0.1l0.1,0.1L-401.8,342.4z M-401.8,423.4l0.2,0.3h0.1l0.1-0.1l0-0.2l-0.2-0.3h-0.1  l-0.1,0.1L-401.8,423.4z M-372.7,341.7l0.1-0.1l-0.1-0.1h-0.2l-0.1,0.1l0.1,0.1H-372.7z M-373.3,342.4l0.1-0.1l-0.1-0.1h-0.1  l-0.1,0.1l0.1,0.1H-373.3z M-378.1,338.2l0.1-0.1l-0.1-0.1h-0.1l-0.1,0.1l0.1,0.1H-378.1z M-394.9,420l0.1-0.1l-0.1-0.1h-0.3  l-0.1,0.1l0.1,0.1L-394.9,420z M-365.7,339.8l0.1-0.1l-0.1-0.1h-0.5l-0.1,0.1l0.1,0.1L-365.7,339.8z M-362.4,339.8l0.1-0.1l-0.1-0.1  l-0.1,0l-0.1,0.1l0.1,0.1L-362.4,339.8z M-417.9,410.1l-0.1,0.1l0,0.5l0.1,0.1h0.3l0.1-0.1l0-0.2l-0.2-0.3H-417.9z M-362.9,339.6  l0.1-0.1l-0.1-0.1h-0.1l-0.1,0.1l0.1,0.1H-362.9z M-394.9,420.7l0.1-0.1l-0.1-0.1h-0.3l-0.1,0.1l0.1,0.1H-394.9z M-362,339.6  l0.1-0.1l-0.1-0.1l-0.1,0l-0.1,0.1l0.1,0.1H-362z M-400.3,342.8l0.1-0.1l-0.1-0.1h-0.2l-0.1,0.1l0.1,0.1H-400.3z M-400.8,342.8  l0.1-0.3l-0.1-0.1l-0.5,0l-0.1,0.3l0.1,0.1H-400.8z M-399.9,342.8l0.1-0.1l-0.1-0.1h-0.1l-0.1,0.1l0.1,0.1H-399.9z M-396.1,343  l0.1-0.1l-0.1-0.1h-0.2l-0.1,0.1l0.1,0.1H-396.1z M-400.9,343.1l-0.1,0.1l0.1,0.1h0.1l0.1-0.1l-0.1-0.1H-400.9z M-396.6,343.3  l0.1-0.1l-0.1-0.1l-0.2,0l-0.1,0.1l0.1,0.1H-396.6z M-399.3,418.2l0.1-0.1l-0.1-0.1l-0.3,0l-0.1,0.1l0.1,0.1H-399.3z M-398.1,418.2  l0.1-0.1l0-0.2l-0.1-0.1h-0.1l-0.1,0.1l0,0.2l0.1,0.1H-398.1z M-398.7,342.8l0.1-0.3l-0.1-0.1l-0.3,0l-0.1,0.1v0.2l0.1,0.1H-398.7z   M-375.1,344.9l0.1-0.4l-0.1-0.1l-0.3,0l-0.1,0.3l0.1,0.1L-375.1,344.9z M-383.6,338.6h-0.2l-0.2,0.3l0,0.2l0.1,0.1h0.2l0.1-0.3  l0.1-0.2L-383.6,338.6z M-378.4,339.3l-0.6,0.5l-0.8-0.2l-0.1,0.6l0.7,0.4l0.7-0.5l0.4-0.6L-378.4,339.3z M-375.7,347.5l-0.1,0.1  l0.1,0.1h0.1l0.1-0.1l-0.1-0.1H-375.7z M-376.6,347.2l-0.1,0.1l0.1,0.1l0.4,0l0.1-0.1l-0.1-0.1L-376.6,347.2z M-378.8,341l-0.1,0.1  l0.1,0.1h0.1l0.1-0.1l-0.1-0.1H-378.8z M-378.1,340.5l-0.1,0.1l0.1,0.1h0.1l0.1-0.1l-0.1-0.1H-378.1z M-380.3,340l-0.1,0.3l0.1,0.1  l0.3,0l0.1-0.1l-0.2-0.3H-380.3z M-382.6,338.4l-0.1,0.1l0.1,0.1h0.1l0.1-0.1l-0.1-0.1L-382.6,338.4z M-383.5,339.1l-0.1,0.1  l0.1,0.1l0.2,0l0.1-0.1l-0.1-0.1H-383.5z M-381.7,338.4l-0.1,0.1l0.1,0.1h0.1l0.1-0.1l-0.1-0.1L-381.7,338.4z M-375.3,348.3v0.2  l0.1,0.1l0.1-0.1v-0.2l-0.1-0.1L-375.3,348.3z M-374.5,350.9l-0.1,0.1v0.2l0.1,0.1l0.1,0l0.2-0.4l-0.1-0.1H-374.5z M-363.3,343.3  l-0.1,0.1l0,0.2l0.1,0.1h0.1l0.1-0.1v-0.2l-0.1-0.1H-363.3z M-361.1,340.7l-0.3,0l-0.1,0.1v0.2l0.1,0.1h0.3l0.1-0.1v-0.2  L-361.1,340.7z M-364.1,344.2l-0.1,0.1l0.1,0.1h0.1l0.1-0.1l-0.1-0.1H-364.1z M-362.9,340.3l-0.2-0.2l-0.3,0.2l-0.5,0l-0.1,0.2  l-0.6-0.2l-0.3-0.7l-0.3,0l-0.3,0.7l-0.9,0l-0.8,1l0.1,0.8l-0.3,0.2h-1.4l-0.3-0.2l-0.2-0.5l-0.3,0.2l-0.2-0.5l-0.4,0.3l-0.1,0.6  l-0.8-0.2l-0.6,0.5l-1.2,0l-0.5,0.8l-0.2,0.6l-0.8,0.5l-0.5,0.7l-0.5,0.3l-0.3,1.4l0.5,1l1.4,0l0.2,0.2h1.5l0.1-0.2h0.6l0.2-0.2h0.3  l0.1-0.2l0.4,0l0.6-0.5l1,0l0.2-0.2l0.4,0l0.3-0.5l0.6-0.5l0.7-0.2l0.6-0.7l0.2-0.2l0.6,0l0.4-0.6l0.1-1.3h1.2l1.1-1.2l0.4-0.6  l0-0.5l-0.4-0.3L-362.9,340.3z M-373.7,348.4l-0.1,0.1l0.1,0.1l0.3,0l0.1-0.1l-0.1-0.1H-373.7z M-367.4,346.5l-0.1,0.1l0,0.2  l0.1,0.1h0.1l0.1-0.1l0-0.2l-0.1-0.1H-367.4z M-371,349.1l-0.1,0.1l0,0.2l0.1,0.1l0.3,0l0.1-0.3l-0.1-0.1H-371z M-367.9,347  l-0.1,0.4l0.1,0.1h0.3l0.1-0.1l-0.2-0.3L-367.9,347z M-402.3,429l-0.1,0.1l0,0.2l0.1,0.1h0.2l0.1-0.1v-0.2l-0.1-0.1H-402.3z   M-401.9,422.9l-0.4-0.3h-1.5l-0.4,0.3l-0.2,0.7l0.7,0.1l0.1,0.5l0.6,0.2l0.1-0.7l0.8-0.1L-401.9,422.9z M-402.2,428.7v-0.2  l-0.1-0.1h-0.2l-0.1,0.1v0.2l0.1,0.1h0.2L-402.2,428.7z M-401.8,430.4l-0.2,0.3l0.1,0.1h0.3l0.1-0.1l0-0.2l-0.1-0.1L-401.8,430.4z   M-412.5,412.9l-0.1,0.1v0.2l0.1,0.1h0.2l0.1-0.1V413l-0.1-0.1H-412.5z M-415.9,415.3l-0.2-0.4h-0.4l-0.3,0.2l-0.2,0.3l0,0.7  l0.2,0.3l0.3,0l0.4-0.5L-415.9,415.3z M-415.3,412.1l-0.1-0.1l-0.2,0l-0.1,0.1v0.2l0.1,0.1h0.1l0.1-0.1V412.1z M-416.1,416.6  l-0.1,0.1l0.1,0.1h0.3l0.1-0.1l-0.1-0.1H-416.1z M-413.2,411.1l-0.2-0.1l-0.1-1.7l-0.2-0.3l-0.7,0.2l-0.6,0.7l-0.7,0.1l0.9,1.6  l0.2,0.5l0,0.5l-0.3,0.2l0.1,1.9l0.2,0.4l0.3-0.2l0.6-0.5l0.4,0l0.5-1.3v-0.5l-0.5-0.7L-413.2,411.1z M-415.2,413.8l-0.1,0.1  l0.1,0.1h0.2l0.1-0.1l-0.1-0.1H-415.2z M-385.8,342.6l-0.1,0.1l0.1,0.1h0.2l0.1-0.1l-0.1-0.1H-385.8z M-394.5,421.5l-0.1-0.1h-0.1  l-0.2,0.3l0.1,0.1l0.3,0l0.1-0.1L-394.5,421.5z M-395.1,422.1l-0.6-0.2l-0.3-0.5h-0.3l-0.2,0.2l-0.1-0.1l-0.2-1.7l-0.3-0.2l-0.9,0  l-0.3-0.7l-1.1-0.5l-0.2,2l-0.5,0.9l0,0.2l-0.4,0.6h-0.3l-0.5,1l0.2,0.7l-0.2,0.1l-0.1,0.3l0.5,0.6l0.5,0.5l0.4-0.2l0.2,1.3  l-0.5,0.1l-0.2-0.2l-0.1,0.4l-0.7,0.2l-0.3,0.5h-0.3l-0.2,0.8l0.1,0.2l0.2,0.6l0.4,0.1l0,0.5l0.4,0.3l0.3,0l0.6-0.5l0.5-0.8l0.1-0.7  l0.5-0.7v-0.5l0.2-0.3l0.6-0.2l0.6-0.9l0.1,0.7l0.6-0.2l0.5-0.7l0.2,0.1l-0.1,0.6h0.4l0.2-0.4l0-0.5l0.6-1.2l0-0.7L-395.1,422.1z   M-394.2,423.5l-0.1,0.2h-0.2l-0.1,0.3l0.1,0.1l0.3,0l0.2-0.3l-0.1-0.3H-394.2z M-395.1,425.8l-0.1,0.1l0.1,0.1h0.2l0.1-0.1  l-0.1-0.1H-395.1z M-399.6,431.4l-0.1,0.1l0,0.5l0.1,0.1l0.3,0l0.2-0.4l-0.2-0.3H-399.6z M-401.4,430.4l-0.1,0.1v0.2l0.1,0.1l0.2,0  l0.1-0.1l0-0.2l-0.1-0.1H-401.4z M-399.5,430.3l-0.1-0.1h-0.2l-0.1,0.1l0.1,0.1l0.2,0L-399.5,430.3z M-399.2,429.4l-0.1-0.1h-0.2  l-0.2,0.4l0.1,0.1h0.2L-399.2,429.4z M-401.5,429.7l-0.3,0l-0.1,0.1l0.1,0.1l0.3,0l0.1-0.1L-401.5,429.7z"/></svg>