<svg xmlns="http://www.w3.org/2000/svg" xmlns:xlink="http://www.w3.org/1999/xlink" version="1.1" x="0px" y="0px" viewBox="-461 335 100 100" fill="#999999" style="enable-background:new -461 335 100 100;" xml:space="preserve"><path d="M-442.9,404.3l-0.1-0.5l0.1-0.3l0.3-0.2l0.4-0.2l0-0.3l0-0.4l-0.1-0.4l-0.1-0.2l-0.5-0.1l-0.4,0.1l-0.4,0l-0.3-0.4l-0.2,0.3  l-0.5,0l-0.6,0.3l-0.4,0.5l0,0.6l-0.3,0.1l-0.2,0.2l-0.1,0.3l0,0.4l0.2,0l0.9,0.4l0.4,0.1L-442.9,404.3z M-361.1,362.8l-0.4-0.7  l-1.6-2.1l-0.3-0.9l-0.1-0.7l0.3-2.2l-11.6,0l-11.6,0l-11.6,0l-11.6,0l-1.6,0l-0.9,0.1l-0.8,0.4l-1.9,1.4l-2,0.9l-1.8,1.3l-8.2,3.8  l-1.1,0.2l-5.9-0.4l-2.6,0.2l-0.6-0.1l-2-0.7l-1.2-0.1l-2.5,0.4l-0.2,0.1l-0.1,0.1l-0.2,0.1l-0.3,0l-0.7-0.3l-0.3-0.1l-0.3,0.1  l-2.3,1.2l-2.6,1.4l-1,0.4l-1.6,0l-1.7,0.4l-0.6,0l-4.4-0.3l-1.2,0.3l-0.7,0.5l0.2,0.3l0.4-0.1l0.3-0.2l0.4-0.2h0.5l0.4,0.2l1.2,0.9  l0.2,0.2l0.3,0.5l0.2,0.2l0.2,0l0.5-0.2l0.2,0l0.3,0.2l0.7,0.6l0.2,0.1l0,0.2l0.8,0.9l0.2,0.2l0.1,0.4l0.2,0.3l0.3,0.2l0.6,0.1  l0.2,0.1l0.1,0.1l0.1,0.1l0.1,0.2l0.2-0.1l0.2-0.2l0.1-0.1l0.5,0l0.4-0.1l0.3-0.2l0.1-0.4l0.4,0.3l0.1,0.2l0.2-0.2l0.6,0.3l0.5-0.2  l0.3-0.5l0.2-1.2l0.4-0.7l0.2-0.5l0,0.6l-0.2,0.7l0,0.6l0.6,0.3l1.1-1.3l0.3-0.3l1.1-0.7l0.7-0.2l1.7-0.4l0.7-0.4l0.5-0.6l0.4-0.4  l0.6-0.2l0.9,0l-0.3,0.1l-0.7,0.2l-0.3,0.1l-0.3,0.3l-0.4,0.6l-0.3,0.3l-0.5,0.4l-2.4,1.4l-0.6,0.3l-0.6,0.3l-0.4,0.5l0,0.4l0.3,0.5  l0,0.3l-0.3,0.3l-0.2-0.1l-0.2-0.3l0-0.4l-0.4,0.2l-0.4,0.2l-0.4,0.3l-0.3,0.4l-0.9,1.9l0.1,0.4l0.3,0.9l0.1,1l0.1,0.5l0.2,0.4  l0.3,0.3l0.4,0.2l0.9,0.1l0.3,0.2l0.7,1.5l0.4,0.4l0.9,0.4l1,0.2l0.8-0.2l0.5,0.6l0.3,0.2l0.3,0.1l0.4-0.1l0.3-0.2l0.2-0.2l0.2-0.1  l0.3-0.1l0.6-0.3l0.3-0.1l2.4,0l0.4-0.2l0.5-0.4l0.3-0.4l0.1-0.4l-0.1-0.4l0-0.2l0.2,0.2l0.3,0.1l0-0.1l0,0h0.1l0.1,0l-0.1-0.1  l0-0.1l-0.1-0.2l0.7-0.1l0.7-0.2l0.6-0.3l0.2-0.6h0.2l0.2,0.4l0.4,0.1l1.2-0.1l0.1,0l0.1,0l0.3,0.1l0.2,0.2l0.2,0.4l0.2,0.1l0.6,0  l0.5-0.3l0.3-0.3l0.2-0.1l0.2,0.3l-0.1,0.4l-0.2,0.5l-0.1,0.5l-0.3-0.1l-0.3-0.1l-0.6,0l-0.3-0.1l-0.2-0.3l-0.1-0.3l-0.2-0.2l-0.6,0  l-0.7,0.2l-0.7,0.3l-0.5,0.3l-0.3,0.3l-0.8,1.3l-0.2,0.8l-0.1,0.1l-0.2,0l-0.2,0.1l-0.2,0.1l-0.1,0.1l-0.2,0.4l-0.5,1.8l-0.6,1.2  l-0.2,0.7l0.1,0.7l0.1,0.3l0.1,0.2l0.2-0.1l0.3-0.3l0.3-0.2l0.7-0.3l0.2-0.1l0.2-0.6l0-0.7l0.1-0.5l0.5-0.3l-0.2,1.2l0.1,0.4  l0.6,0.2l0.3-0.2l1.1-2.1l0.1-0.6l0.1-0.6l0.5-0.4h0.6l0.8,0.6l0.6,0v0.2l-0.3,0l-0.3,0l-0.2-0.1l-0.2-0.1l-0.8,0l-0.6,1.1l-0.7,2.7  l0.6-0.2l1.6-0.8l0.3-0.3l0.3-0.2l2.1-0.4l0.7-0.3l1.4-0.9l0.7-0.2l0.3-0.2l1-1.4l0.2-0.1l0.5-0.2l0.2-0.1l1-1l0.3-0.1l0.4,0l0.7,0  l0.2-0.1l0.5-0.4l0.2-0.2l0.7-0.2l0.8,0l0.7,0.2l0.6,0.4l0.5,0.4l0.4,0.2l1.3,0.2l1.3,0.4l0.6,0.1l0.7-0.1l0.5-0.3l0.9-1l0.3-0.2  l0.5-0.1l1-0.6l0.5-0.1l0.4,0.1l0.7,0.3l0.3-0.1l0.3-0.1l0.4,0l0.3,0.1l0,0.1l0.2,0.2l0.2,0.2l0,0.2l-0.3,0.1l-0.5,0l-0.1,0.1l0,0.2  l-0.6,1.6l-0.2,0.4l-0.4,0.4l-0.3,0.4l0.2,0.4l0.3,0.3l0.2,0.3l0.2,0.2l0.4,0.2l0.3,0.1l1,0.1l0.4,0.4l0.5,0.7l0.6,0.5l0.8-0.3  l-0.3,0.5l-0.8,0.1l-0.8-0.2l-0.3-0.4l-0.3-0.6l-0.7-0.2l-0.8-0.1l-0.6-0.3l-0.3-0.6l-0.2-0.8l0-0.8l0.2-0.6l0.3-0.5l0.2-0.7  l-0.1-0.5h-0.7l-0.5,0.4l-0.4,0.5l-0.5,0.5l-0.9,0.2l-0.2,0.1l-0.5,0.5l-0.2,0.1h-4l-0.7-0.1l-1.3-0.4l-0.7,0l-0.2,0.1l-0.2,0  l-0.2,0.1l-0.1,0.3l-0.1-0.1l-0.1-0.1l-0.1-0.1l-0.1-0.2h-0.2l-0.4,0.4l-0.2,0.3l-0.1,0.3l0,0.4l-0.1,0.1l-0.2,0.1l-0.4,0.2  l-1.2,1.2l-0.2,0.3l-0.3,0.7l-0.6,0.9l0,0.6l0.2,0.5l0.1,0.6l0.1,0.2l0.3-0.2l0.2-0.3l0-0.1l0.2-0.2l0.2-0.2l0.3-0.1l0.4,0l-0.1,0.4  v0.7l-0.2,0.3l0.6,0.4l0.6-0.3l1.1-1l-0.1,0.8l-0.3,0.6l-0.3,0.5l-0.2,0.5l-0.4,0.3l-0.1,0.3l0.2,0.4l0.2,0.4l0.1,0.3l0.1,0.3  l0.3,0.2v-0.7l0.1,0.1l0.3,0.1l0-0.4l0-0.4l0.1-0.3l0.1-0.3h0.2l0,0.6l0.2,0.3l0.3,0l0.1-0.4l0.5,0.2l0.2,0.1l-0.2-0.6l-0.3-0.6  l-0.2-0.6l0.1-0.6l0.7,1l0.4,0.5l0.5,0.4l0.2-0.4l-0.4-0.3l-0.2-0.4l-0.1-0.9h0.4l-0.2-0.4l0.4-0.1l0.2,0.4l0.2,1.3l0.1-0.3l0.1-0.3  l0.1-0.3l0.2-0.3l0.2,0.3l0.3,0.1l0.3-0.1l0.1-0.5l-0.2-0.3l-0.4-0.2l-0.4-0.3v-0.3l-0.5-0.2l0.3-0.1l0.7,0l0.1,0l0-0.4l0.1-0.3  l0.2-0.3l0.3-0.2l-0.2,1l0.1,0.4l0.4,0.2l-0.3,0.5l-0.1,0.3l0.2,0.1l0.3-0.1l0.3-0.4l0.3-0.1l0-0.6l0.2-0.5l0.2-0.4l0.1-0.5h0.2  l0.7,0.4l0.3,0.3l0.1,0.4l-0.4-0.1l-0.1,0l-0.1-0.1h-0.2l-0.2,0.3l0,0.3l0.1,0.3l0.3,0.2l-0.8,0.4l-0.2,0.6l0.3,0.2l0.5-0.7l0.2,0.4  l0.3,0.2l0.2-0.1l-0.1-0.5l0.3,0l0.2-0.1l0.1-0.2l0-0.3h0.2l0.3,0.2h0.3l0.3-0.1l0.3-0.3l-0.1,0.6l-0.4,0.3l-0.5,0.2l-0.3,0.5l0.5,0  l0.5,0.3l0.4-0.1l0.4-1.1h0.2l0.2,0.5v0.2l-0.5,0.6l-0.2,0.1v0.2h0.4l0.3,0.1l0.4,0.5l0.1-0.5l0.2-0.3l0.3-0.2l0.4,0.1l-0.1,0.4  l0,0.2l0.1,0.3l-0.2,0l-0.2,0.1l-0.2,0.1l-0.1,0.2l0.1,0.3l0.2,0.1l1.1-0.1l0.3-0.1l0.3-0.2l0.4-0.1l-0.1,0.4l-0.2,0.3l-0.3,0.2  l-0.4,0.2l-0.3,0.1l-1,0.1l-0.2,0.1l-0.4-0.1l-0.4,0l-0.3,0.9l-0.3,0l-0.2-0.3l0.1-0.5l-0.3-0.1l-0.1-0.1l-0.1-0.1l-0.1-0.2l0.5,0  l1.3-0.3l-0.3-0.4l-0.3-0.3l-0.3-0.2l-0.5,0l0.1,0.1l0.1,0.2l0.1,0.1l-0.6,0.2l0-0.4l0-0.4l-0.1-0.3l-0.2-0.1l-0.4-0.1l-0.3-0.1  l-0.2-0.2l-0.1-0.1l-0.3,0.1l-0.3,0.2l-0.2,0.3l-0.1,0.2l0.1,0.1l0.4,0.6l0.2,0.3l-0.3,0.5l-0.2,0l-0.8-0.6l0.1-0.2l0.1-0.5l0.1-0.2  l-0.4,0.2l-0.3-0.2l-0.7-0.2l-0.4-0.1l0.1,0.4l0.2,0.1l0.3,0l0.3,0.1l0.1,0.3l-0.1,0.3l0,0.2l0.4,0.1l-0.6,0.2l-0.5-0.3l-0.4-0.5  l-0.2-0.4l-0.3,0.3l-0.3,0.2l-0.7,0.2v0.2l0.4-0.1l0.1,0l0.1-0.1l0.5,0.4l0.4,0.5l0,0.5l-0.6,0.2l0-0.6l-0.4,0l-0.5,0.1l-0.3-0.4  h-0.2l-0.1,0.4l-0.1,0.3l0.3,0.5l-0.2,0.1l-0.5-0.1l-0.5,0l-0.4-0.1l-0.3-0.1l-0.1,0.1l0,0.1l0,0l-0.2,0l0.2,0.3l0.1,0.3l0.1,0.3  l0,0.3h-0.2l-0.2-0.4l-0.3,0.1l-0.2,0.4l-0.1,0.4l-0.2-0.5l0-0.2l-0.3,0.3l-0.3,0.1l-0.3,0l-0.3-0.2l-0.1,0.5l0,0.4l0.2,0.2l0.6,0  l-0.9,1.4l-0.1,0.2l-0.2,0.3l-0.5,1.2l-0.1,0.3l0.1,0.7l0.3,0.1l0.4-0.2l0.4-0.1l0.7-0.1l0.3-0.3l0.2-0.4l0.3-0.5l0.4-0.2l0.5-0.2  l0.5-0.2l0.2-0.4l0.1-0.6l0.3-0.6l0.4-0.4l0.6-0.2l0.2,0.2l-0.3,0.4l-0.4,0.4l-0.2,0.3l-0.2,1l0.1,0.4l0.5,0.3l0.7-0.4l1.8-1.4  l-0.2,0.4l-0.3,0.5l-0.4,0.4l-0.3,0.2l-0.3,0.1l-0.5,0.4l-0.3,0.1l-0.4-0.1l-0.7-0.3l-0.2-0.1l-0.3,0.3l-0.8,1.1l-0.2,0.3l0,0.4  l-0.2,0.4l0,0.3l0,0.2l0,0.1l0.1,0l0.2,0l0.2,0.1l0,0.2l-0.1,0.4l0,1.6l0.1,0.8l0.5,0.3l0.4,0l0.3,0.1l0.2,0.2l0.1,0.4l0.2,0.4  l0.4,0.1l0.8-0.1l0.1,0.1l0.2,0.1l0.2,0.2l0.3,0.1l1.2,0l0.8,0.3l0.2-0.6l0-0.8l0-0.5l-0.2-0.6l-0.1-0.6l0.2-0.5l0.7-0.1l-0.4,0.8  l0.4,2.8l-0.3,1.5l-0.2,0.4l-0.3,0.3l-1,0.5l-0.4,0.3l0,0.3l0.4,0.5l0.5,0.4l0.4,0.2l0.4-0.1l0.4-0.3l0.8-1.1l0.5-0.9l0.4-0.5  l0.4-0.4l0.3-0.2l0.2-0.3l0-0.6l0.3,0.2l0.1,0.1l0-0.2l0.1-0.1l0.1-0.1l0.1-0.2l0.4,0.3l0.3-0.1l0.1-0.3l-0.2-0.5l0.8-0.2l0.7-0.4  l0.5-0.6l0.3-0.9l0.5,0.4l0,0.6l-0.3,0.6l-0.4,0.5l0.2,0.1l0.2,0.2l0.2,0.2l0.1,0.3l-1.4,0.1l0,0.1l0,0.4l0,0.1l-0.2,0l-0.4,0  l-0.2,0.1l-0.2,0.4l-0.2,0.5l-0.2,0.4l-0.3,0.2l-0.2,0.4l-0.6,2.4l0.1,0.3l0.3,0.2l0.4,0.1l0.4,0l0.4-0.1l0.2-0.2l0.2-0.3l0.1-0.3  h0.2v0.2l-0.2,0.2l-0.5,0.7l-0.3,0.2l-0.3,0.2l-0.2,0.2l-0.1,0.4l0.4,0l0.8-0.4l1.3-0.9l0.9-1l1.1-1.3l3.1-6l0.6-2.6l0.5-1.2  l3.2-4.7l0.6-0.6l0.8-0.4l1.3-0.2l2.7,0.3l1.3-0.2l5.9-3.2l0.4-0.3l0.2-0.3l0.4-0.8l0.3-0.3l0.3-0.2l0.2,0l0.2,0.1l2.7,0.2l0.8-0.1  l0.3,0.1l0.3,0.2l0.3,0.2l0.3,0.2l0.5,0.1l0.5,0l1-0.2l0.5,0l1.4,0.2l0.6-0.2l1.4-0.9l0.3-0.2l0.7,0.4l0.7,0l0.6-0.3l0.4-0.6  l0.1-0.3l0.1-0.8l-0.1-0.4l0.1-0.2h0.5l0.3,0.2l0.1,0.7l0.3,0.2l0.5,0.1l0,0.2l-0.1,0.3l0.2,0.2l0.7,0.1l0.8-0.1l0.8-0.3l0.5-0.4  l0.2-0.4l0.2-1.4l0-0.6l-0.5-3.9l0.1-1.4l0.3-1.3l0-0.6l-0.4-0.5l-0.3-0.2l-1.1-0.2l-0.5-0.2l-0.4-0.3l-0.7-0.8l-0.2-0.3l-0.1-0.2  l-0.2-0.2l-0.9-0.3l-0.3-0.2l-0.6-0.6l-0.6-0.4l-0.7-0.2l-0.9-0.1l-0.3-0.1l0.1-0.4l0-0.7l0.1-0.3l0.7-0.8l2-0.9l0.8-0.6l0.6-0.4  l0.9-0.2l0.6,0.2l-0.4,0.7l2.2,0l0.9-0.4l0.5-0.8l0.1-0.9l0.3-0.6l0-0.4l-0.1-1l0-0.4l0.1-0.3l0.6-1.4l0.1-0.6L-361.1,362.8z   M-438.8,407.7l-0.5-0.7l-0.1-0.3l-0.1-0.5l0.1-0.3l0.2-0.2l0.1-0.2l-0.2-0.3l-0.5-0.4l-0.7-0.1l-0.5,0.3l-0.1,0.8l-0.5-0.3  l-0.2-0.2l-0.2,0.4l-0.3,0.1l-0.3,0.2l-0.3,1.1l-0.3,0.3l-0.4,0.2l-0.3,0.3l-0.1-0.1l-0.1-0.1l0-0.1l0-0.2l0.2,0l0.4-0.2l-0.5-0.1  l-0.6,0.2l-0.5,0.4l-0.4,0.4l0.4,0.8l0.7,0.8l0.8,0.5l0.7-0.1l0.2,0.2l0.1,0.1l0.4,0.1l-0.2-0.4l0.4-0.7h0.2l-0.1,0.3l0,0.3l0,0.3  l0.1,0.3l0.7-0.3l0.6,0l0.6,0l0.7-0.4l-0.2-0.3l0.2-0.5l0.1-0.6l-0.3-0.6v-0.2H-438.8z M-445.6,396.8l1.1,0.2l0.3,0l0.2-0.1l0.1-0.2  l0.1-0.2l0.1-0.2l0.2-0.1l1-1l0.1-0.3l-0.2-0.3l-0.6-0.1l-0.9,0.1l-0.8,0.2l-0.4,0.3l-0.2,0.5l-0.5,0.4l-0.6,0.3l-0.4,0.3l0.5,0.2  l0.4,0.1H-445.6z M-439.9,382.8l-0.4,0.1l-1.2-0.2l-0.6,0l-0.6,0.2l0.1,0.3l0.1,0.4l0,0.9l0.1,0.4l0.3,0.1h0.4l0.4,0.2l0.8,1.2  l0.4,0.2l0.3,0l0.4-0.1l0.4,0l0.3,0.2l0.4-0.5l0.2-0.5l0.3-1.3l0.3-0.5l0.3-0.4l0.3-0.4l0.1-0.8l-0.1-0.1l-0.2-0.3l-0.5,0l-0.4,0  l-0.5,0l-0.1,0l0,0l0.1,0.1l-1,0.5L-439.9,382.8z M-446.8,395.3h0.3l0.2-0.1l0.1-0.2l0-0.2l0.1-0.3l0.5-0.7l0.2-0.5l0.1-0.6l0-0.3  l-0.1-0.1l-0.1-0.1l-0.2,0.1l-0.2,0.1l-0.2,0h-0.2l-0.1-0.1l0,0l0,0l-0.2-0.1l-0.9,1l-1.2,0.2l-1.3,0l-1.2,0.6l0.1,0l0.3,0.2  l-0.2,0.2l0,0.1l0.2,0.4l-0.1,0.2l-0.1,0.2l0.4,0l0.3-0.2l0.3-0.3l1.7,0l0.1,0l0.1,0.1l0.4,0.5l0.2,0.1l0.1-0.1l0.1-0.1l0.1-0.1  L-446.8,395.3z M-436.3,407.3l-0.1-1l0-0.9l-0.1-0.4l-0.1-0.3l-1.7,0.6l-0.5,0.4l-0.3,0.5l0,0.5l0.4,0.3h0.7l-0.3,0.6l0,0.4l0.2,0.4  l0.1,0.5l0.2,0.4l0.4-0.2l0.7-0.8l0.3-0.5L-436.3,407.3z M-434.6,392.1l-0.1,0.4l-0.3,0l-0.2-0.3l0-0.5l-0.4-0.1l-0.7,0.8l-0.5,0.2  l-0.3,0.3l-0.3,0.6l-0.3,0.7l-0.1,0.5h-0.1l-0.7,0.8l-1.1,0.7l0.1,0.4l1.1,0.8l0.3,0.4l0.3-0.1l0.3-0.2l0.3-0.3l0.2-0.4l0.1,0.1  l0.2,0.2l0.1,0.1l0.1-0.2l0.1-0.2l0-0.1h0.2l0.3,0.7l0.7-0.2l0.8-0.5l0.6-0.2l-0.3-0.7l-0.2-0.8l0.1-0.8l0.4-0.7l-0.4-0.3l0.1-0.9  L-434.6,392.1z M-433.6,408.7l-0.2-0.3l-0.2-1.4l-0.3-0.8l-0.5-0.6l-0.6-0.5l-0.3,0.4l-0.1,0.4l0.2,0.7l0,0.5l0,0.4l-0.1,0.4  l-0.3,0.5l0.2,0.3l0.2,0.2l0-0.5l0.3-0.2l0.4,0.1l0.1,0.4l-0.2,0.2l-0.9,0.4l-0.3,0.1l-0.2,0l-0.1,0.1l0,0.2l0,0.3l0.1,0.2l0.2-0.1  l0.2-0.1l0.1-0.1l0.9,0.1l0.3,0l0.3-0.2l0.3,0.1l0.4,0l0.4-0.2l0.2-0.4l-0.1-0.3L-433.6,408.7z M-429.7,383L-429.7,383h0.2H-429.7z   M-426.2,395.4L-426.2,395.4l-0.1-0.2l0.2-0.2l0-0.1l-0.2-0.1l-0.5,0.3l-0.2,0.1l-0.2-0.2l-0.1,0.3l-0.1,0.3l-0.2,0.3l-0.2,0.2  l-0.2,0l-0.3-0.1l-0.3,0l-0.2,0.3l0.2,0.3l0.5,0.2h0.5l0.4-0.4h0.2l0,0.1l0.2,0.3l0.7-0.6l0.2-0.3l-0.2-0.3l0.2-0.2l0-0.1l0-0.2  l-0.2,0L-426.2,395.4z M-420.7,393l0.6-0.1l0-0.2l-0.3-0.3l-0.2-0.4l0.1-0.4l0.4-0.4l0-0.5l-0.3,0l-0.4,0.2l-0.5,0.1l-0.5-0.1  l-0.3,0.4l-0.4,0.3l-0.3,0.4l-0.1,0.5l-0.8,0l-0.4,0.4l-0.3,0.5l-0.4,0.2l-0.4,0.1l0.1,0.3l0.3,0.2l0.2-0.1l0.2,0.1l0.4,0.1l0.4,0  l0.4-0.1l0.3,0.4l0.5-0.3l0.1-0.5l-0.7-0.3v-0.2l0.7,0l0.2,0l0.6-0.6l0-0.1l0.3,0l0.3,0.2L-420.7,393z M-432.6,401.6l-0.8,0.7  l-0.5,1.1l0,1l0.8,0.6l0.8,0l0.3-0.4l0-1.4l0.3-1.2l-0.2-0.3L-432.6,401.6z M-426.1,401.6l-0.5-0.1l-0.8,0l-0.8,0.2l-0.3,0.7  l-0.1,0.1l-0.2,0l-0.2,0l-0.2,0l0,0.2l0.1,0.4l0,0.1l-0.7,0.7v0.2l0.5,0.2l-0.1,0.3l-0.4,0.3l-0.2,0.2l0.1,0.4l0.2,0.4l0.3,0.2  l0.3-0.4h0.2l0.1,0h0.1l0.1,0l0.2,0l0.1,0.1l0.1,0.2l0.1,0.2l0.1-0.5l0.1-0.5l0-0.5l-0.2-0.3l0.4-0.1l0.1,0.1l0.2,0.3l0.2-0.2  l0.2-0.2l0.2-0.4v-0.2h-0.2v-0.2l0.5,0l0.3,0.4l0.2,0.4l0.2-0.1l0.1-0.6l-0.2-1.1L-426.1,401.6z"/></svg>