<svg xmlns="http://www.w3.org/2000/svg" xmlns:xlink="http://www.w3.org/1999/xlink" version="1.1" x="0px" y="0px" viewBox="-461 335 100 100" fill="#999999" style="enable-background:new -461 335 100 100;" xml:space="preserve"><polygon points="-361.3,405.7 -361.4,405.4 -361.3,405.1 -361.2,404.8 -361.2,404.5 -361.4,404 -361.4,403.7 -361.4,403.1   -361.5,402.9 -361.6,402.8 -361.9,402.5 -362.1,402.4 -362.4,401.8 -362.5,401.7 -362.7,401.5 -362.8,401.4 -362.9,401.2   -363,401.2 -363.1,401.2 -363.2,401.2 -363.3,401.2 -364.1,401 -364.4,401 -365,400.8 -365.1,400.3 -364.9,399.2 -364.8,398.5   -364.8,398.2 -364.6,397.9 -364.6,397.9 -364.4,397.6 -363.2,397 -363,397 -362.7,397 -362.4,396.9 -362.1,396.8 -362.3,396.6   -362.9,396.3 -363.2,396 -363.3,395.9 -363.5,395.5 -363.6,395.5 -363.7,395.6 -363.9,395.6 -364.6,395.3 -364.6,394.8   -364.1,393.6 -364.1,393.3 -363.7,392.2 -363.8,392.1 -364.4,392.1 -364.6,392.2 -365.2,392.5 -365.4,392.6 -365.7,392.6   -366,392.6 -366.3,392.5 -366.5,392.4 -366.7,392.2 -367.5,391.1 -367.6,390.8 -367.7,390.6 -367.7,390.3 -367.7,390 -367.2,386.3   -367.3,386.1 -367.5,386.1 -367.6,386.1 -367.6,385.9 -367.6,385.9 -367.5,385.9 -367.5,385.8 -367.5,385.8 -367.6,385.5   -367.6,385.4 -367.7,385.4 -367.8,385.4 -367.8,385.4 -367.9,385.3 -367.9,385.1 -367.9,385 -367.6,384.9 -367.4,384.8   -367.4,384.6 -367.6,384.6 -367.7,384.4 -367.5,384.1 -367.3,383.7 -367,383.5 -366.3,383.2 -366,383.1 -365.8,382.7 -365.7,382.5   -365.6,382.3 -365.5,382.2 -365.4,382 -365.1,381.4 -365,381.1 -365.1,380.7 -365.2,380.4 -365.3,380.1 -365.5,379.8 -365.8,379.6   -366.5,379.6 -366.8,379.5 -367.1,379.3 -367.2,379.2 -367.2,378.8 -367.2,378.6 -367.4,378.4 -367.5,378.4 -367.6,378.5   -367.8,378.5 -368.1,378.6 -368.4,378.6 -368.6,378.5 -369,377.8 -369.4,377.3 -369.5,376.9 -369.7,374.2 -369.8,374 -370.2,373.8   -370.1,373.6 -369.8,372.8 -369.8,372.7 -369.7,372.6 -369.6,372.3 -369.7,370.9 -369.7,370.6 -370,370.3 -370.2,370 -370.5,369.9   -370.7,369.9 -371,370 -371.1,370 -371.3,369.9 -371.5,369.9 -371.6,370 -371.9,370 -372.1,369.9 -372.4,369.9 -372.7,370.6   -372.9,370.8 -373.1,371 -373.3,371.1 -373.5,371.1 -373.8,371.1 -374,371.1 -374.3,371.1 -374.5,371.2 -374.7,371.3 -374.9,371.1   -375,370.9 -374.9,370.7 -374.8,370.4 -374.7,370.3 -374.1,369.6 -374,369.4 -373.9,369.2 -374,369.1 -374,368.9 -373.8,368.8   -373.7,368.7 -373.5,368.7 -373.3,368.7 -373.2,368.5 -373.2,368 -373,367.7 -372.9,367.7 -372.6,367.6 -372.5,367.5 -372.5,367.5   -372.3,367.5 -372.3,367.4 -372.3,367.3 -372.3,367.2 -372.3,367.2 -372.3,367.1 -372.2,366.8 -372.1,366.7 -371.5,366.8   -371.3,366.9 -371,366.9 -370.8,366.8 -370.6,366.6 -370.6,366.2 -370.7,366.2 -370.9,366.2 -371.2,366.2 -371.3,366 -371.1,365.8   -370.9,365.7 -370.6,365.6 -370.9,365.3 -371.3,365.1 -372.1,364.9 -372.5,364.9 -372.7,364.8 -372.8,364.6 -372.9,364.1   -373,363.9 -373.3,364.2 -373.7,364.2 -374.4,363.8 -374.6,363.6 -374.7,363.4 -374.8,363.1 -374.9,362.8 -375.2,361.9   -375.3,361.7 -375.5,361.8 -375.7,361.9 -376,361.9 -376.3,361.8 -376.5,361.7 -376.7,361.6 -377,361.6 -376.3,358.1 -376.3,358   -376.4,357.8 -376.5,357.7 -376.5,357.6 -376.6,357.3 -376.5,357 -376.6,356.8 -376.8,356.6 -377.1,356.5 -377.4,356.5   -377.7,356.5 -378,356.3 -378,356.1 -378,355.8 -377.8,355.2 -377.8,354.9 -377.9,354.6 -378,354.4 -378.3,354.3 -378.5,354.4   -378.7,354.4 -378.8,354.2 -378.8,354.1 -379,353.9 -379,353.7 -379,353.4 -378.8,353.1 -378.7,352.8 -378.5,352.5 -378.6,352.2   -378.7,351.9 -378.9,351.6 -381,350.6 -381.6,350.4 -382.6,350.2 -382.8,350.2 -382.9,350.3 -383,350.3 -383.2,350.2 -383.4,350.1   -383.4,350.1 -383.5,350.1 -383.8,350.3 -384.4,350.5 -384.6,350.7 -384.5,350.8 -384.3,351.1 -384.1,351.3 -383.7,351.5   -383.7,351.6 -383.7,351.7 -383.6,351.9 -383.5,351.9 -383.3,352 -383.2,352 -383.2,352.2 -383.2,352.5 -383.4,352.7 -383.5,352.7   -383.5,353.1 -383.6,353.2 -383.9,353.6 -384.7,353.4 -384.9,353.4 -385.5,353.7 -385.7,353.9 -386,354.1 -387.5,354.6   -387.9,354.9 -388.1,355.1 -388.2,355.3 -388.2,355.5 -388.2,355.8 -388.3,356 -388.5,356.2 -388.8,356.6 -389.5,356.6   -389.8,356.5 -389.9,356.4 -390.1,356.2 -390.3,356.2 -390.4,356.2 -390.6,356.2 -390.8,356.2 -391,356.1 -391.5,355.7   -391.7,355.7 -392,355.6 -392.5,355.4 -392.7,355.3 -392.9,355.2 -393.2,355 -393.3,354.9 -393.5,354.9 -393.7,354.9 -393.8,354.8   -393.9,354.8 -394.1,354.6 -394.2,354.6 -394.3,354.5 -394.7,354.6 -394.9,354.5 -395.4,354.3 -395.9,354.2 -395.9,354.1 -396,354   -396.1,354 -396.6,354.2 -396.7,354.3 -396.7,354.3 -396.8,354.2 -396.9,354.2 -396.9,354.2 -397,354.3 -397.1,354.4 -397.2,354.4   -397.3,354.5 -397.3,354.7 -397.5,354.6 -397.6,354.5 -397.7,354.5 -397.8,354.6 -398.3,355 -398.4,355.1 -398.5,355.3   -399.2,355.2 -399.4,355.3 -399.4,355.5 -399.3,355.7 -399.4,355.8 -399.5,355.8 -399.5,356 -399.5,356.1 -399.5,356.2   -399.7,356.4 -400,356.5 -400.1,356.7 -400.1,357 -400.3,357.1 -400.5,357.2 -400.8,357.4 -400.9,357.5 -400.9,357.7 -401.1,358   -401.2,358.2 -401.3,358.3 -401.5,358.4 -402.1,358.4 -402.5,358 -403,357 -403.4,356.6 -403.5,356.5 -403.4,356.4 -403.3,356.1   -403.3,356 -403.4,355.6 -403.6,355.4 -403.9,355.3 -404.2,355 -404.8,354.2 -405,354 -405.3,353.9 -405.6,353.9 -406.2,354.1   -406.5,354.1 -406.7,354.2 -406.8,354.3 -407,354.9 -407.1,355.1 -407.6,355.4 -407.6,355.5 -407.8,355.8 -407.9,355.8   -408.1,355.8 -408.1,355.9 -408.2,356.3 -408.4,356.5 -408.6,356.7 -408.8,356.8 -409,356.8 -409.4,357 -409.7,357 -410,356.9   -410.2,356.8 -410.5,356.6 -410.7,356.4 -411.3,355.7 -411.5,355.5 -412.3,355.1 -412.6,354.9 -412.8,354.3 -412.6,353.9   -412.2,353.5 -412,353 -412,352.7 -412.1,352.1 -412,351.8 -411.8,351.7 -411.5,351.7 -411.2,351.7 -411.2,351.4 -411.6,351.4   -412.5,351.1 -412.9,351 -414.1,351.1 -414.7,351.2 -415.7,351.6 -416.2,351.7 -417.3,351.6 -417.6,351.6 -418.4,351.2   -418.4,351.2 -418.4,351.2 -418.5,351.2 -418.6,351.2 -418.7,351.3 -419.3,351.6 -419.4,351.6 -419.7,351.6 -420.5,351.3   -420.9,351.4 -421.1,351.5 -421.6,351.9 -422.1,352.2 -424.3,352.8 -424.6,352.6 -424.9,352.1 -425.2,351.9 -425.8,351.7   -426,351.6 -426.3,351.6 -426.5,351.6 -426.8,351.7 -427.2,352 -427.3,352 -427.5,352 -427.5,351.9 -427.5,351.8 -427.6,351.7   -428,351.3 -428.2,351.1 -428.5,351 -428.7,351 -429.6,351 -429.9,351 -430,350.9 -430,350.7 -430.3,350.6 -430.6,350.6   -430.8,350.5 -430.9,350.4 -430.9,350.3 -430.9,350.2 -430.9,350.2 -431.3,349.9 -431.8,349.6 -432.3,349.6 -432.5,350.1   -432.5,350.4 -432.7,350.5 -432.9,350.6 -433.2,350.5 -433.4,350.5 -433.7,350.5 -433.9,350.4 -434,350.1 -434.1,349.9 -434,349.6   -433.8,349.2 -433.8,348.9 -433.8,348.7 -433.8,348.4 -434,348.2 -434.2,348.2 -434.4,348.2 -434.7,348.2 -434.9,348.1 -435,348.3   -435.1,348.2 -435.2,348.2 -435.3,348.2 -435.5,348.2 -435.6,348.2 -435.7,348.3 -435.7,348.2 -435.9,348.1 -435.9,348.1   -436,348.1 -436.3,348.1 -436.4,348.1 -436.5,348.1 -436.7,348 -436.8,348 -436.9,348 -437.3,348.1 -437.4,348.1 -437.4,348.1   -437.4,348.2 -437.5,348.2 -437.6,348.2 -437.7,348.1 -437.8,348 -438.4,347.9 -442.8,347.7 -442.9,348.6 -442.9,348.9   -442.7,349.3 -442,350.1 -441.9,350.4 -441.9,350.7 -441.9,350.9 -442.1,351.5 -442.2,351.6 -442.2,351.7 -442.1,352.1   -442.2,352.3 -442.3,352.6 -442.3,352.9 -442.5,353.3 -442.9,353.4 -443.9,353.4 -443.7,353.1 -443.9,353.1 -444.3,353.1   -444.5,353.3 -444.9,353.6 -445.7,353.9 -446,354.3 -446,354.4 -446,354.7 -446.1,354.9 -446,354.9 -445.6,355 -445.3,355.1   -445.1,355.2 -444.8,355.5 -444.7,355.6 -444.3,355.7 -444.2,355.8 -444.2,355.9 -444.1,356 -443.8,356.3 -443.7,356.4   -443.5,356.5 -443,356.6 -442.9,356.7 -442.7,356.9 -442.7,357.2 -442.8,357.7 -442.9,358.3 -442.7,359.9 -442.7,360.1   -442.7,360.7 -442.8,360.9 -443,361.1 -443.3,361.2 -443.7,361.3 -444,361.2 -444,361.1 -444,361 -444,360.9 -444.2,360.9   -444.3,360.8 -444.4,360.5 -444.5,360.5 -444.7,360.5 -444.7,360.5 -444.7,360.7 -444.7,361 -444.7,361.1 -444.9,361.4   -445.1,361.5 -445.4,361.5 -445.7,361.4 -445.8,361.5 -446.4,361.8 -446.6,361.9 -447.2,361.8 -447.4,361.8 -447.8,361.9   -448,361.9 -448.3,361.8 -448.4,361.8 -448.5,361.7 -448.6,361.6 -448.8,361.6 -449.1,361.6 -450.2,361.5 -450.3,361.5   -450.3,361.5 -450.5,361.6 -450.6,361.7 -450.7,362 -450.8,362.1 -451,362.3 -453.5,363.6 -454,363.7 -455.1,363.6 -455.7,363.6   -456,363.8 -456.3,364.1 -457.6,366 -457.8,366.6 -458.1,367.6 -459.4,370.1 -459.8,370.7 -460.2,371.1 -460.2,371.1 -460.2,371.1   -460.2,371.2 -460.1,371.2 -460.1,371.2 -460.2,371.3 -460.2,371.4 -460.3,371.5 -460.3,371.6 -460.3,371.6 -460.6,371.7   -460.7,371.8 -460.9,372 -461,372.3 -461,372.5 -460.8,372.8 -460.6,373.1 -460.3,373.4 -460.1,373.6 -459.6,373.7 -459.4,373.8   -459.2,373.5 -459.2,373.4 -459.2,373.3 -459.4,373.2 -459.5,373.1 -459.5,373.1 -459.5,372.6 -459.6,372.5 -459.6,372.4   -459.6,372.3 -459.6,372.3 -459.5,372.3 -459.5,372.3 -459.5,372.3 -459.3,372.3 -459.1,372.1 -458.8,371.9 -458.7,371.6   -458.8,371.4 -458.9,371.2 -459.4,370.9 -459.2,370.9 -459,370.9 -458.7,371.2 -458.6,370.9 -458.5,370.7 -458.6,370.5   -458.8,370.2 -458.5,370.2 -458.2,371 -457.8,371.1 -457.4,370.5 -457.4,370.4 -457.2,370.5 -457.1,370.6 -457.2,370.9   -457.1,370.9 -457,370.9 -456.9,370.8 -456.9,370.8 -456.6,370.9 -456.4,370.8 -456.3,370.5 -456.2,370.3 -456.2,370.2 -456,370.1   -455.9,370.1 -455.8,370.1 -455.7,370 -455.7,369.9 -455.7,369.7 -455.6,370 -455.5,370 -455.4,370.1 -455.6,370.2 -455.9,370.5   -456.1,370.6 -456.1,370.7 -456.2,370.9 -456.3,371.1 -456.5,371.2 -456.7,371.2 -456.9,371.2 -457.2,371.3 -457.3,371.4   -457.4,371.6 -457.5,371.8 -457.4,372 -457.1,372 -457.3,372.1 -457.3,372.2 -457.3,372.3 -457.2,372.5 -457.3,372.6 -457.3,372.7   -457.3,372.9 -457.3,373 -457.2,373 -456.8,372.8 -456.8,372.8 -456.7,372.7 -456.7,372.5 -456.4,372.4 -456.4,372.5 -456.5,372.6   -456.5,372.6 -456.5,372.7 -456.5,372.9 -456.5,373.1 -456.6,373.3 -456.7,373.5 -456.8,373.7 -457,373.8 -457.1,373.8   -457.1,374.1 -457,374.3 -456.8,374.4 -456.7,374.7 -456.5,374.6 -456.3,374 -456.2,373.8 -455.6,373.3 -455.4,373.1 -455.3,373.2   -455.2,373.2 -455.2,373.2 -455.3,373.3 -455.3,373.4 -455.4,373.5 -455.6,373.6 -455.7,373.7 -455.9,373.9 -456,374.2   -456.1,374.7 -455.9,374.9 -455.8,374.8 -455.8,374.8 -455.7,374.8 -455.6,374.8 -455.7,374.9 -455.8,375 -455.9,375.1   -455.9,375.3 -455.9,375.5 -455.7,375.4 -455.3,375.1 -454.9,374.6 -454.7,374.3 -454.6,373.9 -454.4,373.5 -454.2,373.2 -454,373   -453.9,373 -453.5,372.6 -453.4,372.4 -453.5,372.3 -453.4,372.2 -453.2,372.1 -453.3,372.3 -453.4,372.4 -453.3,372.5   -453.3,372.8 -453.4,372.9 -453.6,373 -453.9,373.7 -454.1,374.3 -454.1,374.3 -454.3,374.4 -454.4,374.5 -454.4,374.7   -454.5,374.7 -454.6,374.6 -454.7,374.8 -454.9,375.6 -454.9,375.8 -454.8,376 -454.5,376 -454.7,376.2 -454.9,376.4 -455,376.5   -455.2,376.5 -455.3,376.8 -455.4,377 -455.4,377.3 -455.4,377.5 -455.3,377.7 -455.2,377.8 -455.1,377.6 -455,377.6 -454.9,377.8   -454.7,377.8 -454.5,377.8 -454.3,377.7 -454.1,377.6 -454,377.4 -453.9,377.3 -453.6,377.3 -453.8,377.5 -453.8,377.8   -453.9,378.2 -453.8,378.4 -453.7,378.7 -452.8,379.6 -452.7,379.7 -452.7,379.7 -452.6,379.9 -452.6,380.1 -452.7,380.5   -452.7,380.8 -452.7,381.2 -452.5,381.3 -452.2,381 -452.1,381.1 -451.9,381.1 -451.7,381.1 -451.5,381 -451.3,381.1 -451.2,381.2   -450.4,381.9 -450.1,382.1 -449.9,381.8 -449.9,381.8 -449.9,381.7 -449.8,381.7 -449.7,381.8 -449.7,381.9 -449.7,381.9   -449.8,382 -449.8,382.1 -449.8,382.3 -449.7,382.5 -449.6,382.6 -449.6,382.7 -449.4,382.8 -449.1,382.7 -448.9,382.5   -448.9,382.2 -448.7,382.2 -448.5,382.1 -448.3,382 -448.3,381.8 -448.1,382 -448.3,382.3 -448.6,382.5 -448.8,382.7 -448.9,383   -448.7,383.3 -448.5,383.5 -448.2,383.6 -448,383.5 -447.8,383.4 -447.7,383.3 -447.6,383.1 -447.7,382.5 -447.6,382.4   -447.5,382.3 -447.2,382.1 -447,382 -446.8,381.7 -446.6,381.6 -446.4,381.5 -446.8,382.1 -447,382.4 -447.3,382.5 -447.3,382.6   -447.2,382.8 -447,382.9 -446.9,382.7 -446.8,382.6 -446.6,382.8 -446.4,383 -446.3,383.2 -446.7,382.9 -447,383.2 -447.3,383.6   -447.2,383.9 -447,384.1 -446.9,384.1 -446.7,384.1 -446.5,384.2 -446.3,384.5 -446.1,384.6 -446,384.6 -445.8,384.6 -445.7,384.7   -445.5,385 -445.5,385.1 -445.1,385.3 -444.9,385.4 -444.7,385.6 -444.5,385.9 -444.4,386 -444.3,386.1 -444.1,386.2 -443.9,386.3   -443.6,386.3 -443.5,386.3 -443.1,386.1 -443,386 -443,386 -442.8,385.9 -442.6,385.5 -442.4,385.4 -442.4,385.3 -442.3,385   -442.3,384.9 -442.2,385 -442.1,385.4 -442.4,385.9 -442.9,386.6 -443.1,387 -443,387.4 -442.8,387.7 -442.3,387.8 -441.9,387.6   -441.7,387.3 -441.8,386.9 -441.9,386.5 -441.8,386.4 -441.8,386.4 -441.7,386.4 -441.7,386.5 -441.1,387.2 -441,387.3   -440.8,387.3 -440.5,387.1 -440.6,387.3 -440.8,387.5 -441,387.6 -441.1,387.7 -441.1,387.8 -441.3,387.9 -441.3,387.9 -441.4,388   -441.3,388.8 -441.4,389 -441.6,389.4 -441.7,389.7 -442,390 -442.5,390.6 -442.5,390.7 -442.6,390.7 -442.7,390.8 -442.7,390.9   -442.7,390.9 -442.6,390.9 -442.5,390.9 -442.5,390.8 -442.1,390.7 -441.3,390.3 -440.9,390.1 -440.8,390.4 -440.7,390.7   -440.5,390.9 -440.3,391 -440.1,391 -439.9,390.7 -439.6,390.1 -439.5,390.1 -439.5,390.3 -439.6,390.6 -439.7,390.7 -439.8,390.9   -440,391.1 -440,391.3 -439.9,391.7 -439.7,392 -439.2,392.1 -438.7,392.1 -438.4,391.9 -438.3,391.9 -438.4,392.1 -438.7,392.5   -438.8,392.8 -438.8,393 -438.7,393.3 -438.5,393.5 -438.4,393.6 -438.5,393.8 -438.4,393.9 -438.3,394 -438,394.1 -437.9,394   -437.8,393.4 -437.7,393.2 -437.6,393.2 -437.4,393.2 -437.3,393.1 -437.2,393.1 -437.1,393 -437,393 -437,393.1 -437,393.2   -437,393.5 -437.2,393.3 -437.3,393.6 -437.3,394 -437.3,394.3 -437.3,394.3 -437.1,394.4 -437.1,394.4 -437.1,394.5 -437.1,394.6   -437.2,394.7 -437.2,394.6 -437.1,395 -437.2,395.1 -437.3,395.2 -437.2,395.3 -437.1,395.4 -436.7,395.6 -436.6,395.2   -436.5,394.8 -436.4,394.5 -436.1,394.2 -436.2,394.5 -436.3,394.7 -436.3,394.9 -436.3,395 -436.4,395.1 -436.4,395.2   -436.3,395.3 -435.9,395.3 -435.1,395.3 -435.1,395.4 -435.3,395.5 -435.8,395.4 -436,395.4 -436.2,395.5 -436.4,395.7   -436.6,396.1 -437,396.5 -437,396.6 -437,396.6 -437,396.7 -437.1,396.7 -437.3,396.7 -437.3,396.7 -437.3,396.9 -437.3,397   -437.2,397.2 -437,397.3 -436.7,397 -436.1,396.8 -435.8,396.8 -435.5,396.8 -435,397.1 -434.7,397.3 -434.5,397.2 -434.1,396.9   -433.6,396.7 -433.3,396.5 -433.2,396.3 -433,395.9 -432.9,395.7 -432.7,395.5 -432.7,395.4 -432.5,395.4 -432.4,395.4   -432.4,395.3 -432.6,395.1 -432.7,394.9 -432.6,394.5 -432.4,394.1 -432.1,393.9 -431.8,394.2 -431.5,394 -431.3,394 -431,394   -430.7,394 -430.5,393.8 -430.2,393.3 -430,393.1 -429.8,393.1 -429.8,393 -429.8,392.9 -429.8,392.8 -429.7,392.6 -429.6,392.5   -429.4,392.4 -429.4,392.4 -429.3,392.5 -429.2,392.5 -429.2,392.4 -429.1,392.3 -429.1,392.3 -429,392.2 -428.9,392.1   -428.5,390.6 -428.5,390.6 -428.5,390.5 -428.5,390.4 -428.4,390.4 -428.3,390.4 -428.3,390.4 -428.2,390.3 -428.2,390.3   -428.1,389.8 -428,389.7 -427.9,389.7 -427.8,389.7 -427.7,389.7 -427.6,389.5 -427.6,389 -427.5,388.9 -427.3,388.5 -427.2,388.4   -426.8,388.2 -426.7,388.1 -426.7,388.1 -426.7,387.9 -426.7,387.9 -426.6,387.9 -426.6,387.9 -426.5,387.8 -426.5,387.8   -426.6,387.6 -426.6,387.6 -426.4,386.6 -426.4,386.4 -426.4,386.3 -426.4,386.3 -426.3,386.1 -425.8,385.8 -425.2,385.6   -423.2,385.2 -422.9,385.2 -422.6,385.4 -422.4,385.6 -422.1,385.8 -421.8,385.9 -421.6,385.9 -421.4,385.9 -418.4,385.3   -418.3,385.2 -418.3,384.3 -409.7,384.3 -409.3,384.3 -408.9,384.5 -408.7,384.5 -408.5,384.6 -408.4,384.9 -408.3,385.8   -408.2,386 -407.2,386.6 -406.6,387.1 -406.1,387.7 -405.8,388.3 -405.6,388.8 -405.6,388.9 -405.5,389 -405.3,389.1 -405.2,389.1   -405.1,389.2 -405,389.6 -404.9,389.7 -404.6,390 -404.5,390.1 -404.4,390.2 -404.3,390.6 -404.2,390.7 -404.1,390.8 -404,390.9   -404,391.1 -404.1,391.4 -404,391.6 -403.9,391.8 -403.7,392.1 -403.5,392.2 -403.5,392.3 -403.6,392.4 -403.7,392.5 -403.6,392.5   -403.3,392.6 -403.2,392.5 -403.1,392.6 -403,392.6 -402.8,392.6 -402.7,392.8 -402.5,393 -402.3,393.1 -402.2,393.2 -401.6,393.7   -401.6,393.8 -401.6,394 -401.7,394.1 -401.8,394.3 -401.8,394.4 -401.7,394.6 -401.7,394.8 -401.9,394.9 -402,395 -402.2,395.1   -402.3,395.2 -402.5,395.6 -402.7,396.2 -402.6,396.7 -402.1,396.8 -401.5,396.8 -401,396.9 -400.7,396.9 -400.5,397.1   -400.5,397.3 -400.7,398.1 -400.8,398.6 -400.7,399.5 -400.7,399.7 -400.6,400.1 -400.6,400.1 -400.6,400.3 -400.6,400.3   -400.5,400.4 -400.5,400.4 -400.4,400.5 -399.9,401.2 -399.7,401.3 -399.6,401.5 -399,402.3 -399.1,402.5 -399.3,402.8 -399.6,403   -399.9,403 -400.1,403.1 -400.4,403.3 -400.6,403.6 -400.8,404 -401,404.2 -401.1,404.3 -401.2,404.5 -401.2,404.7 -401.2,404.8   -401.3,404.8 -401.5,406 -401.7,406.3 -402,406.6 -402.3,407 -402.4,407.5 -402.2,407.7 -402.1,407.2 -401.8,407 -401.4,406.8   -401,406.9 -400.8,406.9 -400.4,407.2 -400.2,407.2 -400,407.1 -399.5,406.8 -398.7,406 -398.6,405.8 -398.2,405.2 -398.1,405   -397.9,404.8 -397.8,404.7 -397.6,404.7 -397.2,404.6 -397.1,404.6 -396.7,404.7 -396.6,404.8 -396.5,404.8 -396.3,404.8   -396.2,404.8 -396,404.8 -395.8,404.7 -395.6,404.9 -395.4,404.8 -395,404.3 -394.7,404.3 -394.5,404.3 -393.7,404.5 -393.5,404.6   -393.4,404.8 -393.6,405.4 -393.5,405.6 -393.3,405.6 -393.1,405.6 -392.5,405.3 -392,404.9 -391.8,404.7 -391.5,404.7   -391.3,404.6 -391.1,404.6 -391,404.6 -390.8,404.6 -390.7,404.6 -390.7,404.7 -390.6,404.8 -390.5,404.7 -390.2,404.6   -389.9,404.5 -389.9,404.4 -389.9,404.3 -389.9,404.2 -389.8,404.1 -389.7,404 -389.7,403.9 -389.7,403.7 -389.5,403.7   -389.3,403.9 -389.2,404.1 -389.2,404.8 -389.1,405 -389,405.3 -388.8,405.5 -388.7,405.4 -388.7,405.2 -388.7,404.9 -388.5,404.8   -388.2,404.8 -388,404.9 -387.8,405.1 -387.7,405.4 -387.8,405.5 -388,405.6 -388.1,405.8 -388.2,406.1 -388,406.1 -387.8,406   -387.6,406 -387.5,406.1 -387.4,406 -387.3,406 -387.2,405.9 -387.1,405.8 -387,405.9 -386.8,406.1 -386.2,406.4 -385.9,406.6   -385.8,406.7 -385.8,406.7 -385.9,406.8 -386,406.8 -386.1,406.9 -386.2,406.9 -386.3,407.1 -386.2,407.2 -386.1,407.4   -386.1,407.5 -386,407.6 -385.9,407.7 -385.9,407.8 -385.9,407.8 -386,407.9 -386.1,408.1 -386.2,408.5 -386.2,408.8 -386,409   -385.7,409.1 -385.5,409.1 -385.5,409.3 -385.5,409.4 -385.2,410.4 -385.3,410.6 -385.4,410.8 -385.4,411 -385.3,410.8   -385.1,410.7 -385,410.7 -384.8,410.9 -384.7,411 -384.7,411.1 -384.8,411.3 -384.9,411.4 -384.9,411.4 -385,412 -385.1,412.6   -384.9,413.2 -384.6,413.7 -384.3,414.2 -384.2,414.4 -383.8,414.8 -384,415.2 -384.1,415.7 -384.1,416.1 -383.8,416.5   -383.9,416.6 -384.1,416.7 -384.1,416.9 -384.2,417.3 -384.3,417.5 -384.5,417.7 -384.5,417.9 -384.6,418.2 -384.9,418.7   -385.2,418.9 -385.3,419 -385.4,419.2 -385.4,419.4 -385.4,419.5 -385.5,419.7 -385.6,419.8 -385.6,419.8 -385.5,419.8   -385.1,419.4 -384.9,419.2 -384.7,419.6 -384.5,419.8 -384.3,419.5 -384.2,419.4 -384.2,419.4 -384.1,419.2 -384.1,419.2   -384,419.2 -383.7,419.2 -383.5,419.2 -383.4,419.2 -383.3,419.3 -383.2,419.4 -383.1,419.7 -383.1,419.8 -382.9,419.8   -382.4,419.7 -382.2,419.7 -382,420 -381.8,420.8 -381.5,421.1 -381.4,421.2 -381.1,421.1 -381,421.2 -381,421.4 -380.9,421.5   -380.6,421.6 -380.6,421.8 -380.7,422.3 -380.6,422.2 -380.4,422.1 -380.2,422.1 -380,422 -379.8,421.9 -379.7,421.7 -379.5,421.6   -379.2,421.6 -379.1,421.6 -378.8,421.5 -378.8,421.5 -378.7,421.3 -378.7,421.2 -378.5,421.3 -378.5,421 -378.3,421.1 -378,421.5   -377.8,421.5 -377.3,421.3 -377.1,421.2 -377,420.9 -377.1,420.7 -377.2,420.4 -377.2,420.2 -377.2,420 -377,419.8 -376.8,419.5   -376.7,419.5 -376.4,419.4 -376.3,419.3 -376.3,419.2 -376.3,418.9 -376.2,418.8 -376.1,418.7 -375.7,418.5 -375.5,418.2   -375.4,418 -375.3,417.7 -375.3,417.4 -375.4,417.3 -375.4,417.3 -375.5,417.3 -375.5,417.2 -375.5,417.1 -375.4,417 -375.4,416.9   -375.4,416.5 -375.3,416.2 -374.9,415.8 -374.8,415.5 -373.2,415.6 -373.3,416.1 -373.2,416.4 -372.9,416.7 -372.5,417.1   -372.1,417.3 -371.5,416.8 -371.1,416.6 -370.8,416.9 -370.6,416.9 -370.1,416.8 -369.6,416.9 -369.1,417.3 -368.6,417.5   -368.3,417.1 -368.2,417 -368.3,416.8 -368.3,416.7 -368.2,416.5 -367.9,416.2 -367.9,416.1 -367.7,416 -367.7,416 -367.7,415.9   -367.7,415.8 -367.7,415.7 -367.3,415.2 -367.2,415 -367.2,414.6 -367.1,414.4 -367,414.3 -367,414.2 -366.9,414.2 -366.8,414   -366.9,413.9 -367.2,413.6 -367.3,413.5 -367.3,412.9 -366.6,411.9 -366.5,411.4 -366.5,411.1 -366.5,411 -366.3,411 -365.7,410.9   -365.6,410.9 -365.4,411 -365.3,411.1 -365,411.1 -365.1,410.9 -365.3,410.6 -365.5,410.3 -365.8,410.2 -365.8,410 -365.8,409.8   -365.8,409.3 -365.7,409.2 -365.6,409 -365.6,408.9 -365.8,408.9 -366.6,409.1 -366.7,409.2 -368,408.8 -369.1,408 -369.1,407.9   -368.9,407.6 -368.9,407.5 -368.9,407.2 -368.9,407 -368.7,406.2 -368.7,405.9 -368.8,405.8 -368.9,405.6 -369,405.5 -369,405.3   -368.9,405.2 -368.3,404.7 -368.1,404.7 -367.6,404.8 -367.3,404.7 -366.9,404.6 -366.6,404.5 -366.5,404.6 -366.3,404.7   -366.2,404.8 -366.1,404.8 -365.9,404.7 -365.8,404.8 -365.4,404.7 -365.2,404.6 -365,404.7 -364.8,404.8 -364.7,405 -364.6,405.2   -364.5,405.3 -364.4,405.5 -364.2,405.6 -364,405.7 -363.7,405.7 -363.5,405.5 -363.5,405.4 -363.5,405.1 -363.5,404.9   -363.2,404.9 -362.9,405.3 -362.5,406.1 -362.2,406.3 -361.8,406.4 -361,406.3 "/></svg>