<svg xmlns="http://www.w3.org/2000/svg" xmlns:xlink="http://www.w3.org/1999/xlink" version="1.1" x="0px" y="0px" viewBox="-461 335 100 100" fill="#999999" style="enable-background:new -461 335 100 100;" xml:space="preserve"><path d="M-430.2,420.6l-0.6,0h-1.1l-0.2-0.2l-0.1-0.3l-0.2-0.1l-0.4,0.3l-0.2-0.2l-0.2-0.1l-0.2,0.1l-0.1,0.4l0.9,0.8l0.5,0.3  l0.6,0.1l1.4,0.1l0.7-0.1l0.4-0.3v-0.5l-0.5-0.3L-430.2,420.6z M-435.7,402.4l1.1,0l0.8-0.5l0-0.8l-0.9-0.5l-1.2-0.1l-0.8,0.4l0.1,1  L-435.7,402.4z M-406.1,348.8l0.9,0.3l0.7,0.1l0.4-0.1l0.4-0.2l0.4-0.1l0.6,0.3l1.7,0.4l1.4,0.5l3,0.4l0.6,0.2l0.4-0.9l-1.4-0.9  l-3.3-1.3l-0.8-0.5l-0.6-0.3l-0.7-0.1l-1,0l-1.8,0.2l-1.6,0.5l-0.2,0.2l-0.1,0.1h-0.2l0.5,0.5L-406.1,348.8z M-418.7,391.1l0.2,0.2  l0.7,0.5l0.7,1l0.8,0.5l3.1,0.8l3.1,2l1.1,0.3l1.1,0.1l3.1,0.7l0.8,0.1l0.3,0.1l0.3,0.3l0.3,0.7l0.3,0.2l0.4-0.2l0.4-0.7l0.1-0.9  l-0.1-1l-0.3-0.8l-1-1.2l-2.5-1l-2.7-1.4l-2.4-0.8l-4.9-2l-0.8-0.1l-0.7,0.1l-0.7,0.3l-0.6,0.4l-0.4,0.5l-0.1,0.4l0.1,0.4l0.2,0.4  L-418.7,391.1z M-363.7,378.1l-1.3-1.3l-0.6-0.9l-0.2-0.7l0.2-0.2l0.9-0.5l0.3-0.3l0.4-1.1l0.2-0.2l0.4-0.9l0-1.7l-0.4-2.9l-1-2.3  l-0.2-0.8l0.1-1.6l-0.1-0.7l-0.5-0.7l-0.2-0.3l-1,0l-0.9-0.2l-0.4,0l-0.3,0.2l-0.1,0.4l0.1,0.3l0.2,0.2l0.8,0.2l0.1,0.3l-0.2,0.5  l-0.2,0.1l-0.4-0.2l-0.6-0.5l-0.5,0.1l-0.7,0.2l-0.6-0.1l-0.4-0.7l1,0l0.4-0.1l0.3-0.2l0.2-0.5l-0.2-0.2l-0.9-0.1l-1.7-0.5l-1,0  l-0.7,0.5l-0.4,0.1l-0.2,0.3l-0.2,0.3l-0.3,0.1l-0.3-0.1l-0.5-0.3l-0.3-0.2l-0.1-0.2l-0.2-0.2l-0.3-0.1h-1.2l-0.3-0.1l-0.5-0.5  l-0.2-0.2l-0.2-0.1l-0.1,0l-1.4,0.2l-0.6-0.1l-0.6-0.4l0.3-0.9l-0.5-0.4l-0.7,0l-0.4,0.4l-0.3,0.5l-0.6,0.2l-0.7-0.1l-0.5-0.3h-0.2  l0.1,0.4l0.1,0.1v0.2l-0.1-0.1l-0.1,0.1l-0.1,0.2l0,0l0.1,0l0.2,0l0.1,0l-0.5,0.5l0.1,0.3l-0.1,0l-0.6-0.1l-0.2-0.2l-0.4-1.1  l0.6,0.2l0.2,0.1v-0.2l-1.7-1.6l-0.2-0.6l-0.4,0.1l-1-0.3l-1.1-0.4l-0.6-0.3l-0.5,0.3l-1-0.3l-0.9-0.6l-0.9-1.1l-2.1-0.6l-0.7-0.3  l-0.9-0.6l-3.6-0.8l-1.1-0.1l-1.2,0.1l-1.1,0.3l-0.9,0.4l-0.7-0.3l-0.8,0.1l-0.7,0.4l-0.3,0.6l-0.4-0.3l-0.5-0.2l-0.5,0l-0.5,0.1  l-0.7,0.2l-0.2,0l-0.4,0l-0.5-0.1l-0.9-0.3l-0.5-0.1l-1,0.1l-0.4-0.1l-0.4-0.5l-0.7,1l-1.2,0.9l-4.3,2l-0.7,0l-0.7-0.1l-0.7,0.1  l-0.6,0.4h1.9v0.3l-1.8,0.9l-0.3,0l-0.2,0.4l-1.3,2l0.1,0.4l0.1,0.8l0.2,0.7l0.5,0.3l0.3,0.2l0.6,0.7l0.3,0.2l0.4,0l0.7,0.2l3.3,0.2  l1.5-0.2l0.7-0.7l0.5,0.4l0.8,0.4l0.8,0.3l0.5,0.1l0.4-0.1l0.2-0.2l0.2-0.2l0.2-0.1l0.4,0l0.7,0.2l0.4,0l2.2,0.8l0.3-0.2l0.2,0.1  l1.2,1.1l0.6,0.3l0.7,0.2l1.9,1.2l2.2,1l0.7,0.5l0.5,0.6l0.3,0.5l0.5,0.3l1.8,0.1l0.4,0.2l0.7,1.3l-0.4,0l-0.3-0.2l-0.3-0.2  l-0.2-0.1l-0.5-0.1l-0.1,0l0.1,0.2l0.1,0.9l0.1,0.3l0,0.3l-0.4,0.3l-0.3,0.1l-0.3-0.1l-0.3-0.2l-0.2-0.2l-0.2,0.5l-0.1,0.8l0.1,0.7  l0.4,0.3l0.7,0.1l0.4,0.2l0.5,1l-0.4-0.1l-0.6,0l-0.6,0.1l-0.4,0.2l-0.2,0.3l-0.4,0.9l-0.3,0.3l0,0.2l0,0.1l0,0.1l-0.2,0.2l0.2,0.6  l0.8,1.5l0.4,0.5l0.6,0.3l0.6,0.2l0.5,0.4l0.2,0.7l-0.3,0.5l-0.7,0.2l-1.4,0.1l-1.5,0.6l0.2,0.9l3.7,4l0.7,0.3l0.6,0.2l0.7,0.5  l0.7,0.6l0.5,0.5l1.8,2.8l0.3,0.7l0.3,0.3l1.2,0.7l0.9-0.1l0.7,0.5l0.6,0.8l0.7,0.6l0.4,0.1l0.8,0l0.4,0.1l1.6,0.8l0.3,0.2l0.2,0.4  l-0.1,0.3l-0.3,0.3l-0.2,0.5l-0.1,0.4l0.1,2.2l-0.1,0.9l-0.3,0.6l-0.6,0.2l-0.3-0.2l-0.7-0.8l-0.1,0l-0.1-0.1l-0.1-0.1l-0.2,0  l-0.1,0.1l-0.1,0.2l-0.1,0.2l-0.2,0.1l-5.9-0.5l-1.1,0.2l-0.9,1l-0.6,1.3l-0.7,1.1l-0.9,0.8l-1.4,0.3l-2.5-0.4l-0.5-0.2l-0.6,0  l-0.9,0.3l-0.7,0.1l0.2-0.6l-3-0.7l-3.4,0.6l-0.6,0l-0.5-0.2l-0.7-0.4l-1.2-0.5l-1.4-0.1l-2.8,0.1l-0.8-0.2l-1.4-0.7l-0.7-0.2  l-5.5-0.4l-1.5,0.2l-1.2,0.7l-0.6-0.3l-1.1,0.2l-0.6-0.3l-0.2-0.3l0-0.3l0-0.2l-0.6-0.1l-0.6-0.3l-0.2-0.2l0.8-0.3l0.7-0.1l0.7,0.1  l0.8,0.3v-0.2l0.9,0.1l0.7-0.5l0-0.6l-1.3-0.3l-0.5,0.1l-1.6,0.5l-0.3,0l-0.3,0l-0.3,0l-0.2,0.1l-0.4,0.6l0,0.1l-0.1,0.1l-0.4,0.3  l-0.2,0.1h-0.3l-0.4-0.2l-0.3-0.1l-0.2,0.1l-0.1,0.1l-0.2,0.1l-0.4,0l-0.2-0.1l-0.8-0.6l-0.4-0.2l-0.4-0.1l-1.6-0.1l-0.5-0.2l-1-0.5  l-0.2,0l-0.2,0.1l-0.2,0l-0.1-0.3l0-0.1l-0.2-0.3l-0.1-0.1l-2-0.1l-4.6-2l-1.4-0.3l-2-0.1l-0.4,0l-0.4,0.1l-0.2,0.3l-0.1,0.3l-0.4,0  l-0.8-0.2l-0.7,0.1l-1.6,0.6l-1.2,0.7l-0.3,0.3l0.1,0.4l0.1,0.3l0.1,0.5l0.1,0.4l-0.1,0.2l-0.5,0.4l-0.4,1.7l-0.6,0.5l0.2,0.4  l0.1,0.1l-1.2,1.8l0.9,1.1l0.2,0.5l0.1,0.7l0.3,0.7l1.3,0.7l0.3,0.4l0.3,0.3l0.7,0.4l0.8,0.3l0.6,0.1l0.8-0.2l0.7-0.5l0.7-0.3  l0.7,0.2l0.2-0.3l0.3,0.2l0.9,0.3l0.4,0.1l0.3,0l0.2,0.1l0.1,0.4l0.2,0.3l0.4,0.3l0.4,0.2l1.1,0.2l0.6,0.3l3.4,2.5l0.7,0.6l0.1,0.2  l0,0.1l0,0.1l0.1,0.1l0.1,0.1l0.3,0.1l0.1,0.1l2.2,3.2l0.1,0.5l0.3,0.3l0.3,0.2l0.3,0.1l2.3,0l0.5-0.1l0.1-0.3l-0.2-0.7l-0.2-0.6  l-1.5-1.6l0.6-1l0.6-0.6l2.5-1.2l1.5-1.2l0-0.1l0-0.2l0-0.1l0.1-0.1l0.4,0.1l0.2,0.1l0,0.1l0.3-0.3l0.4-0.5l0.3-0.2l-0.3,0.8  l-0.1,0.4l0,0.5l0.5-0.4l0.4-1l0.5-0.1l-0.2,0.6l0.2,0.5l0.4,0.2l0.4-0.3h0.2l0.5,0.3l0.3-0.5l0.3-0.7l0.5-0.3l0.3,0.2l0.3,0.7  l0.3,0.1l0.4-0.1l1.1-0.7l0.8-0.2l2.8,0l2.3,0.2v0.2l-1.3,0l-0.5,0.2l-0.2,0.5l0.3,0.1l2.1-0.2l4.7,0.8l0.3,0.1l1,0.7l0.3,0l0.9,0  l3.7,0.4l1.3,0.4l1.2,0.5l0.9,0.5l0.9-0.4l1.9,0.2l1-0.6l0.2,0.2l0.2,0.1l0.5,0l-0.1-0.2l-0.1-0.4l-0.1-0.2l0.8,0.1l4.1-0.4l0.5,0.1  l1,0.4l0.4,0l0.3-0.4l-0.2-1.4l0.2-0.1l0.4,0.2l0.7,0.4l2.8-0.5l5.1-0.1l3.7,0l2.8-0.5l1.4,0l1.1,0.4l1.1,0.6l2.8,0.9l1.2,0.8l1.1,1  l2.5,3.2l0.6,0.4l0.4-1.1l0.1-0.6l-0.1-1.1l0-0.6l-0.1-0.4l-0.4-1l-0.1-0.3l0.1-0.7l0.3-0.7l2-3.4l-0.1-0.1l-0.3-0.3l-0.5-0.3  l-1.9-0.7l-1.3-0.9l-0.3-0.3l-0.5-0.8l-0.3-0.3l-1.4-0.3l-0.5-0.3l-0.2-0.7l0.1-0.4l0.3-0.1l0.2-0.2l-0.1-0.6l-0.2-0.3l-3.2-3.2  l-0.3-0.6l0.6-0.5l1.3-0.3l2.6,0.5l1.4-0.5l0.5-0.5l0.7-1.2l0.5-0.5l1.3-0.8l0.5-0.4l0.4-0.7l0.2-0.6l0.2-0.7l0.1-0.7l-0.3-1.4  l0-1.5l-0.2-0.7l-0.3-0.3l-0.8-0.7l-0.3-0.4l-0.5-1l-0.3-0.3l-0.8,0l-0.9,0.3l-0.6,0.1l-0.1-0.6l0.6-0.4l1.8-0.5l0.5-0.3l1.5-1.7  l1.1-1.5l0.5-0.5l1.2-0.9l0.4-0.7l0.2-0.6l0.2-2.2L-363.7,378.1z"/></svg>