<svg xmlns="http://www.w3.org/2000/svg" xmlns:xlink="http://www.w3.org/1999/xlink" version="1.1" x="0px" y="0px" viewBox="-461 335 100 100" fill="#999999" style="enable-background:new -461 335 100 100;" xml:space="preserve"><path d="M-416.9,360.3l0.4-0.3l0.2-0.1l0.3-0.1l0.6-0.1l0.3-0.1l0.7-0.5l1.1-0.5l0.3-0.1l0.1,0l0.3,0l0.1,0l0.1,0l0.2-0.1l0.1-0.1  l0.3,0l0.6,0l0.3,0l0.3-0.1l-0.1,0l-0.6,0l-0.9-0.2l-0.3,0l-1.3,0.3l-0.4,0.2l-1,0.6l-0.9,0.3l-0.7,0.3l-0.5,0.4l0.1,0.5  L-416.9,360.3z M-405.5,357.6l0.3-0.1l0.2-0.1l0.1-0.3l0.3-0.1l0.1-0.1l0-0.1l-0.2-0.1l-0.6,0l-0.2,0.1l-0.3,0.2l-0.2,0.2l-0.3,0.5  l-0.2,0.2v0.2l0.5-0.5L-405.5,357.6z M-422.3,363.6l0.2,0l0.4-0.2l0.3-0.1l0.3,0l0-0.2l0.1-0.3l-0.1-0.1l-0.2,0l-0.2,0.1l-0.2,0  l-0.2-0.1l-0.9,0.4l-0.1,0.2l0.3,0.1L-422.3,363.6z M-363,380.1l-0.5-0.4l-0.4-0.6l-0.3-0.6l-0.3-1l-0.2-0.3l-0.8-0.6l-2.2-0.8  l-1.7-0.9l-0.2-0.1l-0.2-0.1l-0.2-0.2l-0.3-0.1l-0.3,0.1l-0.1,0.3l0.2,0.1l0.3,0.1l0.2,0.2l0.1,0.1l0.7,0.2l0.3,0l-0.1,0.2l0,0.1  l0.1,0.1l0.3-0.1l0.2,0.1l0.5,0.3l0.3-0.1l0.2,0.2l0.1,0.3l0.1,0.2l0.1,0.2l0.1,0.1l0.1,0.1l0.1,0.1l0.1,0.2l0,0.1l-0.7,0.3  l-0.1,0.1l-0.1,0.1l-0.1,0.2l-0.1,0.1l-0.3,0.1l-0.2-0.1l-0.1-0.3l0-0.4h-0.1l-0.1,0.1l0,0.1l0,0.1l0.1,0.1l-0.1,0.1l-0.1,0l-0.1,0  l0-0.1l0-0.2l0.1-0.1l0.1-0.1l0.1-0.1l0.1-0.2l0.1-0.1l0.1-0.1l0.1,0l0.2,0l0.1,0.1l0.1,0.1l0.1,0.3l0.2,0.1l0.2-0.1l0.1-0.2v-0.5  l0-0.1l-0.1-0.1l0-0.1l0.1-0.1v-0.1l-0.3,0.1l-1-0.2l-0.1,0l-0.1,0l-0.1,0.1l0,0.1l0,0.4l-0.1,0.1l-0.6,0.1l-0.3,0.1l-0.2,0.1  l-0.3,0.5l-0.1,0.1l-0.1-0.3h-0.1l0,0.2l-0.1,0.1l-0.1,0l-0.1-0.1l0-0.2l0-0.6l-0.1-0.5l-0.2,0l-0.2,0.2l-0.3-0.1v-0.1l0.1,0  l0.1-0.1l0.1-0.1l-0.1-0.2l-0.2-0.2l-0.2-0.1l-0.5-0.1l-0.3-0.1l-0.2-0.2l-0.1-0.2l-0.2-0.3l-1.4-0.6l-0.4,0.1l-0.2,0.1l-0.1,0.1  l0.2,0.1l0.4,0.5l0.2,0.1l1.2,0.4l0.2,0l0.1,0l0.1,0.1l0.1,0.1l0.1,0.1l0.7,0.4l0.2,0.2l-0.2,0.2l-0.4,0.1l-0.4,0.1l-0.3,0l-0.3-0.1  l-0.3-0.2l-0.2-0.2l-0.1-0.3v-0.1l0.2-0.1l0.1,0l0.2,0v-0.1l-0.8,0.1l-0.3,0l-0.2-0.3l0.1-0.3l-0.1-0.2l-0.2-0.2l-0.2-0.2l0.2,0.5  l-0.2,0.2l-0.3-0.1l-0.4-0.2l-0.3-0.3l-0.3-0.4l-0.1-0.4l0.2-0.2l0.3-0.2l-0.1-0.4l-0.3-0.4l-0.2-0.5l-0.2-0.1l-0.2,0l-0.1,0.4  l-0.3,0.1l-0.1,0.2h-0.1l0-0.2l0.1-0.2l0-0.1l-0.3-0.1l-0.1-0.1l-0.1-0.4l0.2,0l0.3,0.1l0.2,0l0.3-0.1l0.2,0l0.2,0l0.2,0.2l0.5,0.9  h0.1l0-0.1l0,0l0,0l0,0l-0.2-0.2l-0.2-0.3l-0.1-0.3l0-0.2l0.1,0l0.2,0l0.2,0l0.1,0l0,0.1l-0.1,0.1l-0.2,0.2l0.4,0.2l0.1,0.1l0.2-0.1  l0.1-0.1l0.2-0.1l0.3,0l0.2,0.1l0.2,0.2l0.2,0.1l0.2-0.1h0.1l0.5,0.6l0.1,0.2l-0.1,0l-0.1,0l-0.1,0l0.2,0.2l0.2,0l0.5,0l0.1,0.1  l0.3,0.2l0.5,0.2l0.6,0.5l0.3,0.1l0.2,0l0.1-0.1l0-0.1l-0.1-0.2l-0.1-0.1l-0.6-0.1l-0.3-0.1l-0.3-0.2l-1.1-0.9l-0.9-0.7l-1.6-1.5  l-1.9-1.4l-0.9-1l-0.5-0.3l-0.1-0.2l-0.1-0.1l-0.2-0.1l-2.2-0.2l-2.5-0.5l-0.2,0l-0.1,0.1l0.2,0.1l2.4,0.5l0.3,0.2h-0.8l-0.4,0.1  l0.1,0.3l-0.8,0l-0.3-0.1l-0.1-0.3l-0.1-0.1l-0.2,0.2l-0.1,0.3l0,0.1l-0.3,0l-0.1-0.1l-0.2-0.2l-0.1-0.3l-0.1-0.3l0-0.3l0.3-0.2  l-0.1-0.1l-0.3-0.2l-0.6-0.1l-2.7-1.1l-1.9-0.5l-0.7,0l-0.4,0l-1.4,0.9l-0.5,0.2l-0.6,0.1l-2.5,0.1l-2,0.2l-0.7-0.1l-0.6-0.1l-1-0.4  l-0.2-0.1l-0.2-0.1l-0.3-0.2l-0.2-0.1l-0.1,0.2l0,0l0,0l0,0.1l0,0.1h-0.1l0-0.2l0-0.2l0-0.2l-0.2-0.1l-0.3-0.1l-0.4-0.2l-0.2-0.1  l-0.9-0.1l-0.4-0.1l-0.3-0.2l-0.2,0.1l-0.4,0.1l-0.1,0.1l-1.3-0.4l-0.4,0l-0.1,0.2l0.5,0.1l1,0.1l0.3,0.3l-0.1,0.4l-0.3,0.4  l-0.6,0.4l-0.2,0.1l-0.2,0.1l-2.3,0.1l-0.6,0.1l-0.6,0.2l-0.2,0.1l-0.4,0.4l-1.5,0.9l-0.3,0.1l-0.3,0l-0.4,0l-0.3-0.1l-0.4-0.2l0,0  l-0.5-0.2l-0.5,0l-3.1,0.3l-0.7-0.1l-0.1-0.1l-0.2-0.1l-0.2-0.1l-0.1,0.1l-0.1,0l-0.3,0.2l0,0l-0.3,0l-1,0.3l-0.6,0.1l-0.6,0  l-1.7-0.4l-1.5-0.2l-1.4-0.5l-1.7-0.4l-0.3,0l-0.2,0.1l-0.1,0.3l-0.1,0.1l-0.4,0l-0.2,0l-0.1,0.1l-0.2,0.3l-0.1,0.1l-0.5,0.1  l-0.5-0.2l-1.5-1.3l-0.1-0.1l-0.1-0.1l0.1-0.2l0.3-0.4l-0.6,0.3l-0.2,0.2l0.2,0.2v0.1l-0.3,0l-0.7-0.4l-0.3-0.1l-0.3,0l-0.1,0  l-0.1,0l-0.1,0.2l-0.3,0.1l-1.4,0.1l-0.5,0.2l-0.3,0.2l-0.3,0.1l-0.7,0l-0.1,0.1l0.1,0.1l0.1,0.1l0.2,0.1l0.1,0.1l0,0.2l-0.1,0.2  l-0.9,0.5l-0.6-0.1l-0.2,0.1l0.1,0.3l-0.4,0.2l-0.9,1l-0.4,0.2l-0.4-0.1l-0.7-0.5l-0.1,0l-0.2,0.1l-0.1,0.1l0,0.2v0l-0.1,0.2  l-0.1-0.1l-0.3,0.1l-0.2,0.1l-0.3,0.1l-0.3,0l-0.1,0.1l-0.5,0.8l-0.7,0.7l-1.1,0.8l-0.5,0.4v0l-4.2,3.1l-3.4,2.6l-0.6,0.3l-1.6,0.5  l-0.5,0.2l-0.1,0.1l0,0l-0.1,0l-0.2,0.1l-0.2,0.3l-0.3,0.7l0,0l0.3,0.3l0,0.4l-0.2,0.5l-0.3,0.4l-0.4,0.3l-0.1,0.2l0,0.3v0l0.1,0.2  l0.1,0.2l0.3,0.4l0.2,0.2l0.3,0.7l0.2,0.2l0.1,0.1l0.1,0.1l0,0l0,0.3l0,0l0,0.1l-0.2,0.2l-0.1,0.1l0,0l0.1,0.8l0,0.3l-0.1,0.3  l-0.2,0.2l-0.2,0l-0.4-0.1l-0.2,0l-0.3,0l-0.1,0.1l-0.1,0.1l-0.1,0.2l-0.5,0.4l-0.2,0.2l-0.2,0.3l-0.1,0.1l-0.4,0.1l-0.2,0.1  l-0.1,0.2l0,0.3l0,0l0,0.5v0l0.9,0.1l0.5,0.2l0.8,0.2l0.4,0.3l0.7,0.2l0.1-0.1l0.1-0.1l0.2-0.4l0.1-0.1l0.1,0l0.1,0l0.1,0.1l0.1,0.1  l0.1,0.1l0,0.2l0,0.2l-0.1,0.2l0.2,0.2l0.5,0.1l0.3,0.1l0.1,0.2l0.1,0.5l0.1,0.1l0.4,0.3l0.1,0.2l0.1,0.2l0,0.1l0,0.1l0,0.1l0,0.1  l0,0.1l0.1,0.2l0.1,0.1l0.2,0l0.2-0.1l0.2-0.1l0.3,0l0.4,0.2l0.3,0.4l0.2,0.5l0.1,0.5l0.3,0l0.7,0.1l0.2-0.1l0.2-0.1l0.1,0l0.1,0  l0.1,0.2l0,0l0,0.3l-0.1,0.3l0,0.2l0.3,0.2l0.3,0l0.1,0l0.1,0.1l0.1,0.1l0,0.1l0,0.1l0.1,0l0.4-0.1l0.4,0l1.2,0.4l0.7,0.1l0.2,0.1  l0.1,0.1h0l0,0.1l0,0l0,0l0,0l0,0l0,0l0,0l0.1,0.2l0,0.2l-0.1,0.2l0,0.2l0,0.2l0.2,0.4l0,0.3l-0.1,0.2h0l0.4,0l0.3-0.2l0.3-0.1  l0.6-0.1l0.2,0l0.3,0.1l0.1,0l0,0l0,0l0,0l0-0.1l0.1-0.1l0.1,0l0.1,0l0.1,0l0.1,0l0.1,0l0.1,0l0.1-0.2l0.2-0.1l0.1,0l0.1,0l0.2-0.1  l0.1-0.1l0.1-0.1l0.1-0.1l0.1-0.1l0.2-0.1l0.1,0l0.1,0l0.1-0.2l0,0l-0.1-0.1l0-0.1l0-0.3l0-0.1l0.2-0.1l0.2,0l0,0l0.4,0.1l0.3,0  l0.8-0.1l0.4,0l0.2,0.1l0.2,0.6l0.1,0.1l0.1,0.1l0.1,0.1l0.1,0.1l0.1,0.2l0.1,0.2l0.1,0.4l0.7-0.4l0.2-0.1l0.1,0l0.2,0.1l0.1,0  l0.1,0l0.2-0.2l0.1,0l0.2,0l0.3,0.1l0.2,0l0.2-0.1l0.1-0.2l0.2-0.1l0.2,0l0.2,0.1l0.2,0.4l0.1,0.2l0.1,0l0.2,0.1l0.1,0.1l0.3,0.2  l0.4,0.4l0.3,0.1l-0.1,0.2l-0.3,0.7l-0.1,0.3v0l0.1,0.3l-0.1,0.2l-0.2,0.1l-0.1,0.2l-0.1,0.3l0,0.6l0,0.3l-0.4,0.9l-0.1,0.4v0  l0.1,0.2l0.1,0.2l0.2,0.1l0.2-0.1l0.2-0.1l0.2,0.1l0.1,0.1l0.1,0.2l0,0.2v0l0,0.2l-0.3,0.3l-1.3,0.6l0.2,0.1l0.1,0l0.2,0l0.1,0v0.1  l0,0.1l0.3,0.1l0.4,0.2l0.3,0.1l0.5-0.1l0.4-0.3l0.2-0.4l-0.1-0.5l0.2-0.2l0.2-0.2l0.2,0l0.1,0.2l-0.1,0.5l0.1,0.2l0.2,0.1l-0.2,0.4  l0,0.2h0.1l0.2-0.2l0.3,0l0.3,0.1l0.3,0.1v0.1h-0.2v0.1l0.2,0.1l0.1,0l0.3-0.1l0.6,0l0.1,0l0.2-0.1l0-0.1l-0.1-0.1l0-0.2l0.1-0.2  l0.1-0.1l0.3-0.2l0.2,0.2l0.1,0l0.3-0.1l0.1,0l0.1,0.1l0.2,0.2l0,0l0,0.1l0,0.1l0,0.1l-0.5,0.2l-0.3,0.1l-0.2,0l-0.1,0.1l-0.3,0.4  l-0.1,0.1l-0.3,0.1l-0.1,0.1l-0.1,0.2l0,0.1l0.1,0.1l0.1,0.1l0.1,0l0.1,0l0.1,0l0,0.1l0,0l0.1,0.3l0.3,0.4l0.3,0.6l0.2,0.6l0,0.6  h0.1l0.3-0.1l0.5,0.1l0.9,0.2l-0.2,0l-0.5,0.1l-0.1,0l0,0.3l0,0.1l0.1,0.2l0.2,0.2l0.2,0.1l0.3,0.1l0.4,0v0.1l-0.2,0.1l-0.2,0.1  l-0.1,0.2l0,0.2l-0.2,0.1l3.7-0.2l0.2,0l0.4,0.2l0.2,0l0.1-0.3l0.3-0.2l0.4-0.3l0.2-0.2l0.4-0.6l0.1-0.1l0.1-0.1l0.1-0.1l0,0l0,0  l0-0.2l0,0l-0.1-0.1l0,0l0,0l0-0.1l0.1-0.8l0,0l-0.1-0.3l0-0.1v0l0,0l0.1-0.5l0.1-0.2l0.1-0.2l0.8-0.6l0.2-0.1l0.3-0.1l0.3,0  l0.9,0.4l0.2,0l0.2,0l0.1-0.1l0.1-0.1l0.2-0.2l0.1-0.2l0-0.2v0l-0.1-0.5l0,0l0,0l-0.1-0.1l-0.1-0.1l-0.1-0.1l-0.1,0l-0.1,0l-0.1-0.2  l0-0.2l0.2-0.4l0-0.3l-0.5-1.9l0-0.3l0-0.3l0-0.3l0-0.3l-0.1-0.1l-0.1-0.1l0,0l-0.1-0.1l-0.1-0.1l0-0.1l0-0.8l0-0.3l0-0.2l0-0.1  l0.1-0.1l0.2-0.1l0.4-0.2l0.3,0l0.7,0.1l1.3-0.2l0.6,0l0.5,0.3l0.3,0.1l0.2-0.1l0.2-0.1l0.2,0l0.3,0.3l0.1,0.1l0.2,0l0.1,0l0.8-0.1  l0.3-0.1l0.2-0.1l0.2-0.2l0-0.1l0-0.1l0.1-0.5l0.3-0.4l0.5-0.6l0.5-0.6l0.6-0.8l0.2-0.1l0.2-0.1l0.2-0.1l0.2-0.2l0.1-0.2l0.1-0.2  l0.1-0.1l0.2-0.2l0.2-0.1l1.2-0.2l0,0.2l-0.2,0.3l0,0.4l1.1,0.8l0.3,0.4l0.1,0.1l0.2,0.1l0.1,0l0.1-0.1l0.2,0l0.4,0.2l0.2,0.3  l0.2,0.3l0.3,0.3l0.4,0.1l0.4,0l0.3,0l0.2,0.2l0,0l0.1-0.1l0.1-0.3l0-0.2l-0.1-0.2l-0.2-0.1l-0.1-0.1l0.1-0.3l0.2-0.5l0-0.4l0.1-0.1  l0.2,0l0.3,0l0.2-0.1l0.3-0.3l0.1,0h0.1l0-0.1l0,0l0,0l0,0l-0.1-0.2h0l0.3-0.1l0.3-0.1l0.2-0.2l0.2-0.2l0.4-0.1l0.1,0l0.1,0l0.3,0  l0.3-0.1l0.1-0.2l0-0.3l0.1-0.2l0.6-0.2l0.3-0.2l0.2-0.2l0.2-0.2l0.2-0.2l0.2-0.3l0.1-0.3l0.1-0.4l0.2-0.3l0.1-0.1l0.1-0.1l0.1-0.1  l0.1-0.1l0,0l0,0l0.2,0l0,0l0,0l0,0l0,0l0-0.1l0.1-0.1l0.1-0.1l0.1-0.1l0.2,0l0.4-0.2l0.2,0h0.6l0.4-0.1l0.4-0.1l0.3-0.2l0.2-0.3  l0-0.4l-0.2-0.3l-0.3-0.3l-0.3-0.2h0l0.4-0.3l0-0.1l0-0.2l0-0.1l0.4-0.4l0.1-0.1l0-0.8l0.1-0.4l0.1-0.2l0.3,0.1l0.3,0.3l0.3,0.2  l0.3-0.2l0.6-0.6l0.1-0.2l0,0h-0.4l0.1-0.1l0.4-0.3v0l-0.5-0.3l-0.1-0.2l0.3-0.1l0.1,0l0.1-0.1l0.1-0.6l0.1-0.3l0.2-0.2l0,0l0.1-0.1  l0.1-0.1l0.3-0.2l0.7-0.7l0.1-0.1l0.1-0.1l0.5-0.1l0.5-0.1l0.4,0l0.4,0.1l0.4,0.3l0.2,0.4l0,0l-0.1,0l-0.1,0.2l0,0l0.3,0l0,0.2  l0,0.2l0.3,0.2l0.2,0.3l0.2,0.5l0.3-0.2l0.3,0l0.6,0.3l0.4,0.1l1.2,0l-0.1,0.1l0,0.2l0,0.2v0l0.2-0.1l0.2,0.1l0.2,0.1l0.2,0.1  l0.2-0.1l0.4-0.2l0.6-0.2l0.3-0.4l0.1-0.2l0.1-0.2l0.2-0.3l0.2,0.2l0.1,0.4l0.1,0.1l0.2,0l0.4,0.1l0.2,0l0.3-0.2l0.1-0.4l-0.1-0.8v0  l0.1-0.2l0.2,0l0.2,0.1l0.1,0.1l0.1,0.1l0.1,0.1l0.4,0.4l0.2,0.1l0.2,0l0.4-0.1l0.1-0.1l0.1-0.1l0.1-0.1l0.1,0l0.1,0l0.1,0l0,0l0,0  l0.1-0.1V385l-0.1-0.1l-0.1-0.1l-0.2-0.4l0.2-0.1l0.1,0l0.4,0.2l0,0.1l0.1,0.1l0.2,0l0.3,0l0.1,0l0,0.1l0.3,0l1.6-0.1l-0.1-0.1v0  l0-0.1l0-0.2l0-0.2l0.1,0.1l0.1,0.1l0.1,0.1l0.1,0.1l0.2,0.1l0-0.1l-0.1-0.2l0.1,0l0.1,0l0.1,0l0.1,0.1l0.2-0.2l0.1-0.1l0.1-0.1  l0.3-0.1l0.1,0l0.1,0h0l-0.1-0.1l-0.1-0.1l-0.1-0.2l0.9-0.1l0.3-0.1l0-0.2l0.1,0l0.1,0l0.1,0l0.1,0l0.1,0.1l0.1,0.1h0.1l-0.2-0.5  l0,0l0-0.1l0-0.1l0.3-0.1l0.3,0l0.4,0l0.3,0.1l0.1,0.2h0.1l0.1-0.2l0-0.2l0.1-0.2l0.4-0.1l0.4-0.3l0.2-0.1l0-0.1l0-0.1l0,0l0.2,0.1  l0.1,0l0-0.2l0-0.2l0.1-0.1l0.2,0.1l0-0.2l0-0.1l0.1-0.1l-0.1-0.2v0l0.1-0.1l0.2,0l0.2,0l0.1,0.1l0.2,0.3l0.1,0.1l0.4,0l0.3-0.2  l0.3-0.3l0.2-0.3l0.2,0.2l0.1,0l0.1,0l0.1,0l0.1,0.1l0.1,0.2l0.2-0.2l0.3,0l0.7,0.1l-0.2,0.1l0,0l0,0v0l0.1,0.1l0.2,0.1l0,0l0,0  l0.4,0l0.4,0l0.2-0.1l0.2-0.1l0.2,0l0.5,0l0.2,0L-363,380.1z M-433.4,408.3l-0.2,0l-0.3,0.1l0.1,0.1l0.1,0.2l0.1,0.1h-0.1v0.1  l0.1,0.1l0.1,0l0.2,0l0.4-0.1l0.2-0.2l0-0.2l-0.1-0.1L-433.4,408.3z M-432.9,407.1l-0.2,0l-0.2-0.1l-0.1,0.1l-0.2,0.3l0,0.3l0.3,0.2  l0.7,0.2l0.2-0.2l-0.2-0.6l0.3-0.1V407l-0.2,0L-432.9,407.1z"/></svg>