<svg xmlns="http://www.w3.org/2000/svg" xmlns:xlink="http://www.w3.org/1999/xlink" version="1.1" x="0px" y="0px" viewBox="0 0 100 100" fill="#99999" enable-background="new 0 0 100 100" xml:space="preserve"><path fill="#999999" d="M45.6,62.5l0,0.4l0.2,0.2l0.3,0l0.4-0.2l0-0.3l-0.2-0.2L45.6,62.5L45.6,62.5z M37.3,61.7h-0.4l-0.2,0.2  l0,0.3l0.1,0.1l0.4,0l0.2-0.4L37.3,61.7L37.3,61.7z M35.3,66.4l-0.2,0.4l0,0.4l0.5,0.5l0.3,0l0.3-0.4l0.5-0.1l0.1-0.3v-0.4l-0.3-0.4  L35.3,66.4z M34.9,68.4l0-0.7l-0.5-0.4l-0.9,0l-0.1-0.1h-0.5l-0.1,0.1l-0.7,0l-0.3,0.4l0,0.3l0.3,0.2h0.5l0.6,0.5l0.1,0.4l0.3,0  l0.1-0.1l0.1,0.1l0.3,1l0.5,0.5l0.4,0l0.2-0.2l0.1-1l-0.4-0.4L34.9,68.4z M37.5,52.5L37.5,52.5l-0.1,0.4l0.2,0.2l0.3,0L38,53l0-0.3  l-0.2-0.2L37.5,52.5z M45.3,49.6L45.3,49.6l0.1-0.5L45,48.7l-0.3,0l-0.1,0.1v0.4l0.3,0.4L45.3,49.6z M45.2,54.7l0-1.3l0.3-0.6  l0.3-0.4L45.6,52l0.1-0.3l0-0.6l-0.5-0.7l-0.5,0.1l0.1-0.3v-0.4l-0.5-0.4l0-0.3l-0.2-0.2h-0.9L43.1,49h-1.7L41,49.3l-0.4,0l-0.3,0.4  l0,0.2l0.2,0.2l0.2,0.1l-0.1,0.1l0,0.4l0.2,0.2h0.4l0.2,0.2l0.1,1l0.6,0l0.3,0.2l-0.3,0.4l0,0.3l0.1,0.1l0.3,0l0.1-0.1l0.1,0.1  l-0.3,0.6l0,0.3l-0.3,0.4v0.4l0.1,0.3l0.8,0.2l0.1-0.1h0.5l0.1-0.1h1.1L45.2,54.7z M39.7,62.4L39.6,63l0.2,0.2l0.7,0l0.1-0.8  l-0.6-0.1L39.7,62.4z M38.2,50l-1.1,0.1L36.8,50l-0.2,0.2l0.1,0.6l-0.5,0.4v0.1l0.6,0.2l0,0.3L36.6,52l0.4,0.4l0.3,0.1l0.1-0.1  l0.3,0l0.3-0.2l0-0.6l-0.3-0.4l0-0.3l0.3-0.2L38.2,50z M33.8,76.2l-0.8,0l-0.5-0.5l-0.1-0.3l0.1-0.2l1-0.4l-0.2-0.4L33,74.4l0.3-0.3  l0-0.4L33,73.5l-0.1,0.2H32l-0.3,0.7l0.1,0.1l0,0.3l-0.5,0.6l0,0.3l0.3,0.1l0.3-0.1l0.2,0.2l0.1,0.4l-0.1,0.1v0.3l-0.2,0.2l-0.3-0.1  l-0.4,0.1l-0.3,0.6l-0.1-0.2l-0.3,0l-0.1,0.8l0.3,0.1l0.1,0.3l0.3,0l0.1-0.1l0.3,0L32,78h0.1l0.1-0.3l0.4-0.3h0.4l0.3,0.4l0.1,0  l0.1-0.4l0.5-0.4l0-0.3l0.2-0.1L33.8,76.2z M30.6,72.7l0.3-0.3l-0.2-0.4l-0.1,0.1h-0.4l-0.3-0.3l-0.4,0l-0.3-0.4l-0.3,0l-0.3,0.3  l-0.3,0L28,71.3h-0.4l-0.1,0.2l-0.7-0.6L26.4,71l-0.2-0.4l0.7-0.4v-0.2l0.6-0.7l0.1-0.2l0.7,0l0.3-0.3l0.3,0l0.3-0.3l0.3-0.1l0-0.3  l-0.7-0.7l-0.1-0.4l-0.3-0.4l-0.3,0l-0.1-0.2l-0.3,0l-0.1,0.3l-0.3-0.4l-0.6,0l-0.1,0.1l-0.2-0.1l0.1-0.2l0.3-0.2l0.1-0.4l0.2-0.2  l0.3,0l0.2-0.2l0.7-0.1l0.5,0.4l0.3,0l0.2,0.2v0.1l0.4,0.2l1.5,0l0.2-0.4l0-0.6L30.8,65l0.3-0.3v-0.6l0.3-0.1l0-0.3l-0.1-0.2l0-0.9  l-0.6-0.2l0-0.3l0.1-0.2l0-0.6l-0.1-0.1l0.2-0.2l0.1,0.3l0.4-0.3l0.3,0l0.1-0.7l-0.2-0.4l-0.3,0l-0.5,0.6l-0.9-0.2l0.1-0.4l0.7,0  l0.2-0.2l-0.2-0.4l-0.8-0.2l0.3-0.4l0-0.3l0.2-0.2l1.4,0l0.7-0.4l0.4,0.6l0.5,0l0.2-0.2v-0.4l-0.1-0.1l0-0.9L33,56l0.1-0.5h0.5  l0.3-0.1l0.3,0.7l-0.1,0.1l0.4,0.7l0.3,0.1l0.1,0.2l0.3-0.3l0.8-0.1l0.1-0.3l0.3,0.1l0.2-0.1l0-0.3l-0.3-0.3l0.1-0.2l0-0.4l0.3-0.3  l-0.1-0.4l-0.2-0.1l0-0.4l0.4-0.4l-0.3-0.5l-0.1-0.6l-0.3-0.4h-0.1l-0.3-0.5l-0.5-0.1l-0.1-0.2h-0.4l-0.2,1.1l-0.3,0.1L34,52.9  l-0.2,0.4L33,53.6l-0.4,0.7l-0.4,0l-0.3,0.4L31.7,55l-0.4,0.1l-0.1,0.3L31,55.4l0.4-0.9l-0.2-0.4L30.6,54l-0.7,0.7l-0.3,0l-0.5,0.4  l0,0.3l-0.3,0.4l-0.4,0L28,56.2l-0.4,0l-0.1,0.3l-0.2,0.3l-0.1-0.2l-0.3,0.1l0,0.7l-0.2,0.4l-0.1,0l-0.2,0.2v0.4l-0.2,0.2l-0.7,0  l-0.1,0.2l-0.5,0l-1,1v1l-0.2,0.2l-0.1-0.2l-0.4-0.2h-0.7l-0.1,0.1l-1.2,0L20.9,61l-0.8,0l-0.5,0.6L18.7,62l-0.4,0.2l-0.6,0.4  l-1.2,0L16.4,63l-0.3,0.1L16,63.4v0.4L16,63.9l-0.3-0.1l-0.3,0.1l-0.2-0.2l0-0.3L14.8,63l-0.1-0.6l-0.2-0.2l-0.1,0l-0.4-0.3h-1.5  L12.1,62l-0.5-0.3l-0.3,0l-0.4,0.5L10.8,62l-0.3,0l-0.3-0.4L10,61.9l-0.3,0.4l0,0.4l-0.3,0.7l-0.3,0.4l-0.1,0l-0.6,0.8l0,0.4  l0.3,0.4l-0.1,0.2l-0.4,0l-0.1-0.4l-0.3-0.2l-0.3,0.3l-0.7,0.3l-1,0.1l-0.8,1.3l-0.2,0.2l-0.3,0l-0.1-0.1l-0.7,0l-0.4,0.3l-0.3,0  l-0.3,0.5l0,0.3l0.2,0.2l1.2-0.1l0.2,0.2L4.2,69v0.4L3.8,70l-0.4,0l-0.6,0.5l0,0.9l0.1,0.1l0,0.7l-0.2,0.2l-0.3,0l-0.7-0.6l-0.4,0  l-0.2,0.4l0,0.3l-0.4,0.6l0.1,0.3l-0.1,1.2l0.7,0.7l-0.1,0.4L1.1,76v0.6l0.1,0.3l0.3,0.4l0.3,0l0.3,0.2l-0.3,0.7l-0.3,0.3L1.7,79  l0.5-0.3l0.7,0.1l0.3-0.2L3,78.2l0.7-0.5l0.3,0l0.4-0.3l0.3,0.4l0.4,0l0.3-0.4v-0.2L5.9,77l0-0.1l0.6-0.5l0.7-0.1l-0.1-0.6l0.2-0.1  l0.5-0.5l0-0.2l0.5-0.5l0.3,0l0.1,0.1h0.5l0.1-0.4l0.2,0.2l0.7,0.1l-0.1,0.3l0.1,0.7l0.2,0.2l0.3,0l0.3,0.4l0.4,0.1l0.8,0.7l0.4,0  l0.6-0.7l0.4,0.3l0.5,0.4l0.5-0.3l0.4,0l0.6-0.5l0-0.7l-0.3-0.5L13.9,75l-0.2-0.2l0.3-0.2l0.5-0.5l0.1-0.2l1.1,0l0.5-0.3l0.6-0.3  l0.3,0l1.2-0.7l0.3,0l0.3-0.3l0.8,0l0.3,0.3l0.4,0l0.1-0.1l1-0.6l0.3,0l0.8-0.6l1.4,0.1v0.6l-0.4,0.4l0,0.4l-0.1,0.1l0.2,0.4h0.1  l0.3,0.4l0,0.2l0.3,0.1v0.3L24,74.7l-0.1,0.4l0.2,0.2h0.4l0.1,0.2l0.3,0.4l0.3,0l0.3-0.4l0.7,0l0.3-0.5h0.5l0.1,0.4l0.3,0.2l0.2-0.3  l0.1-0.2h0.5l0.2-0.2l0-0.3l0.3-0.2h0.4l0.1-0.4l0.5-0.5l0.7-0.1l0.2-0.4L30.6,72.7z M14.7,81.5l-0.3,0l-0.1,0.1l0,0.3l0.3,0.4  l0.3-0.2l0-0.3l-0.2-0.1L14.7,81.5z M17.8,57.5l0-0.3l0.4-0.3l0-0.6L18,56.2l-1.1,1.3l-0.2-0.2l0-0.3l-0.3-0.2l-1,0.9l-0.5,0.2v1  l0.1,0.1l0,0.3l0.1,0.3l0.3,0.3l0,0.2l0.3,0.3V61l0.3,0.3l-0.1,0.3l0.1,0.5h0.4l0.5-0.4l-0.3-0.6l0.3-0.3v-0.6l0.2-0.4l0.2-0.1v-1.2  l0.1-0.1l0-0.7l0.2-0.1L17.8,57.5z M25.7,78.2l-0.3-0.5l-0.7,0l-0.6,1l0,0.7l0.3,0.2l0.3,0l0.4,0.4l0.4,0l0.1-0.1l0.5-0.1l0.1-0.9  l-0.6-0.1V78.2z M34.9,61.8l0-0.3l-0.2-0.2h-0.5l-0.3,0.3l-0.4,0l-0.4,0.2l0.3,0.4l0.1,0.9l0.2,0.4l0.3,0l0.1,0.1l0.5,0l0.5-0.4  v-0.6L35,62.3h-0.5l-0.1,0.1l-0.2-0.1l0.3-0.4L34.9,61.8z M21.9,55.3l0.1-0.4l-0.2-0.2l-0.4-0.1l-0.2,0.2l0,0.6l0.2,0.2h0.1  L21.9,55.3z M25.3,49.3l0.2-0.2l-0.2-0.2h-0.1l-0.1,0.1l0,0.3l0.1,0.1H25.3z M24.3,53.3l-0.5,0.4l-0.1,0.7l0.3,0.1l0.3-0.4  L24.3,53.3z M12.2,60.8l-0.1-0.8l-0.4,0l-0.1,0.4l0.3,0.3l0.1,0.2L12.2,60.8z M47,62.5v-0.2l-0.1-0.1l-0.3,0l-0.1,0.1l0,0.4l0.1,0.1  L47,62.5z M49.7,56.7l0.4-0.1l0.7,0.9l0.3,0l0.3-0.5l0-0.3l0.4-0.3l0-0.3l-0.2-0.2l-0.4,0.3l-0.4,0l-0.3-0.1l-0.3-0.4l-0.4,0  l-0.3,0.5l-0.7,0.1l-0.1,0.4l0.2,0.4h0.5L49.7,56.7z M70.3,72.4l-0.8,0.1l0.4,0.4l0.3,0l0.2-0.2L70.3,72.4z M72.3,83.4l-0.1-0.1  l0.3-0.6l-0.3-0.4l0-0.3L72,81.7l-0.3,0l-0.5-0.6l-0.5,0.4l-0.2,0.4l-0.4,0l-0.7,0.5l-0.7,1.2l0,0.6l0.2,0.2l0.1-0.2l0.1,0.1  l0.1,0.5l0.6,0.2l0,0.2l-0.3,0.3l0.1,0.5l0.4-0.1l0.6-0.5l0-0.4l0.5-0.5l0.2,0.1l0.1,0.2h1.2l0.1-0.5L72.5,84L72.3,83.4z M69.1,81.5  l0.6-0.5v-1.2l-0.2-0.2l-1.8,0.2L67.4,80v0.3l0.1,0.2l0,0.9l0.2,0.5l0.3-0.2l0.1-0.4l0.6,0.3L69.1,81.5z M66.5,82h-0.1L66.3,82  l0,0.3l0.1,0.1l0.1,0l0.1-0.1L66.5,82L66.5,82z M69.7,73.1l-0.1,0.2l0.1,0.1h0.5l0.1-0.2l-0.1-0.1H69.7z M68.7,84.6l-0.1,0.1l-0.1,0  l-0.1,0.1l0,0.1l0.1,0.1l0.4,0l0.1-0.1l0-0.3l-0.1-0.1L68.7,84.6z M53.6,75.9l-0.7,0l-0.1,0.1l-0.2-0.2l-0.1-0.4l-0.3,0L52,75.8  l-0.3,0l-0.4,0.4h-0.5l-0.3-0.1l-0.1,0.1h-0.5l-0.1,0.2l-0.3,0L49,76.7l-0.2,0.5l-0.5-0.7l0.1-0.4h0.1l0.3-0.4l0.1-0.2l0.3,0  l0.8-0.4l0.1-0.3L50,74.8v-0.6l-0.3-0.4l-0.6,0.3l-0.3,0.4l-0.4-0.3l-0.2-0.4l0-0.7L48,72.9l-0.3,0l-0.1-0.2l-0.4-0.3l0.1-0.2l0-0.3  l0.3-0.3l0-0.7l-0.2-0.2l-0.3,0l-0.1-0.3l-0.3,0L46.4,71l-0.7,0.1l-0.4,0.3l-0.3,0l-0.2,0.2V72l0.5,0.4l0.3,0.1l-0.3,0.3l0,0.3  l0.4,0.3l-0.6,0.1l-0.5,0.4l-0.1,0.3l0,0.6l0.1,0.1l0.1-0.2l0.8,0l0.1-0.1l0.8-0.1l0.6,0.3l0.2,0.2l0,0.9l0.1,0.1l-0.3,0.6l0.4,0.6  l-0.1,0.1l0,1l-0.1,0.1l0,0.9l-0.5,0.5l-0.4,0.1l-0.2,0.2l0.1,0.9l0.6,0.5h0.7l0.1-0.1l0.4,0.3h0.4l0.3-0.4H49l0.3-0.3l0.7,0.9  l0.3,0l-0.1-1l-0.4-0.7l0-0.6l0.3,0l0.3,0.5l0.6,0.3l0.3,0.4l0.6,0.2l0.1,0.3l0.3,0l0.1-0.4l-0.4-0.4l0-0.3l-0.6-0.7l-0.1-0.7  l-0.2-0.2l-0.3-0.1l0.1-0.2l0.3,0l0.4-0.3l0.1,0.1l0.3-0.1l0.1-0.6l0.4-0.3l0.1-0.2h0.1l0.4,0.4h0.4l0.4-0.6l0.2-0.1l-0.1-0.5  L53.6,75.9z M70.1,76.8L70.1,76.8L70,77l0.2,0.2h0.1l0.1-0.1l0-0.3l-0.1-0.1L70.1,76.8z M50.8,70.1l0-0.2l-0.1-0.1l-0.3,0L50.3,70  l-0.2,0.1v0.2l0.1,0.1h0.4L50.8,70.1z M53.6,69.7l-0.4,0l-0.1,0.1h-0.4l-0.6-0.3l-0.3,0l-0.6,0.5l0.2,0.2h0.1l0.2,0.2l0.2,0.4  l0.3,0.1h0.4l0.1,0.4l0.2,0.2l0.3,0.1l0.7,0l0.1-0.5l-0.1-0.2l0-1.2L53.6,69.7z M49.9,73.6v-0.4l-0.1-0.1h-0.1l-0.3,0.4v0.2l0.1,0.1  L49.9,73.6L49.9,73.6z M64,76.4l-0.2,0.2l0.2,0.2l0.3,0l0.1-0.1l0-0.3l-0.1-0.1L64,76.4z M54.1,72L54.1,72l-0.5-0.1l-0.1,0.2  l0.3,0.3l0,0.2l0.2,0.2h0.1l0.1-0.5l-0.1-0.1V72z M58.8,73.5v0.2l0.1,0.1H59l0.2-0.2L59,73.2L58.8,73.5z M57.9,71.5l-0.1-0.2l-0.3,0  l-0.2,0.2l0.5,0.7h0.4l0.5-0.4l-0.2-0.4H57.9z M58,74.7l-0.1-0.2l-0.1,0l-0.1,0.1v0.6l0.2,0.2l0.1,0l0.1-0.2l0.3,0l0.1-0.4l-0.2-0.2  L58,74.7z M67.7,76.6l1,0l0.1-0.1l0.1,0.2h0.6l0.1-0.1l0.1,0.1l0.4,0l0.1-0.1l0.2-0.1l-0.1-0.2h-0.1l-0.4-0.4l-0.5-0.1l0.1-0.1  l-0.1-0.2v-1.2l-0.6-0.9v-0.4l0.8,0l-0.5-0.7l-0.3-0.1l0.3-0.3v-0.6l-0.4-0.4l0-0.3l-0.3-0.3l0-0.2l-0.3-0.1l0-0.2l0.3-0.1l0.2-0.2  l0.1-0.4l0.1,0.2l0.3,0l0.2-0.2l0.1-0.9l0.1-0.1l-0.1-0.3v-0.6l0.1-0.1l0-0.3l-0.3-0.5h-0.5l-0.3,0.3h-0.1l-0.4-1l-0.1,0L67.2,66  l-0.3,0l-0.1-0.2l0.3-0.2v-1.2l-0.3-0.1L66.4,64l0.2-0.1l0.2-0.4l-0.8-1l-0.3,0l-0.1,0.3l-0.4,0L65,63.6l-0.4-0.1L64,62.8l0-0.3  l-0.2-0.4h-1.5l-0.2-0.7l-0.2-0.2l-0.3-0.1l-0.4,0L61,61l-0.1,0.1l-0.8,0l-0.1,0.2l-0.5,0l-0.7,0.9h-0.1l0.1,0.2l-0.5,0.4h-0.4  l-0.3-0.1L57.1,63l-0.1-0.1L56.8,63l-0.3,0l-0.1,0.1h-1.1l-0.1,0.1h-0.5l-0.4-0.4l-0.8-0.3L52.7,62h-0.4l-0.1-0.2h-1.7L50.3,62  l-1.2,0.2l-0.4,0.4l-0.3,0.2h-0.5l-1,0.4l-0.3,0.5l0,0.9l0.2,0.2l0.1,0l0.9,0.8l0.3,0.6l0,0.3l0.3,0.4l0.3,0l0.1-0.3L49,67l0.1,0.3  l-0.1,1l0.1,0.3l0.5,0.4l0.1,0.2l0.6-0.3l0.4,0.3l0.3,0l0.1,0.2l1.8,0l0.1,0.2l0.7,0l0.3,0.3l0.4,0l0.1,0.1l-0.1,0.2l0,0.3l0.3,0.1  l0,0.2l-0.3,0.2l-0.1,0.2l0.7,0.4l-0.1,0.1l0,0.3l0.2,0.2l0.1,0l0.5,0.4l0.3,0l0.2-0.4l0.1-1.2l0.1-0.3l0.3-0.1l0.3-0.7h1.1l0.1,0.2  l-0.1,0.1v0.6l0.3,0.4l0.1,0l0.3,0.3l0.4-0.3h0.4l0.2,0.2l0.1,0.3v0.4l-0.3,0.3l0,0.3l0.1,0.1l-0.2,0.4l-0.4,0.1l0.1,0.4l1,0.4  l0.1,0.4l-0.3,0.1l-0.5,0.5l0,0.3l0.1,0.2l0.1,0.5l0.6-0.1l0.5-0.4l0.4,0l0.1-0.5l0.5-0.4l0.3,0l0.2,0.2l0.1,0.3v0.4l-0.3,0.1  l-0.1,0.3v1l-0.1,0.1l0,0.4l0.1,0.1v0.6l0.2,0.4l1,0l0.1-0.1H64l0.2-0.2v-0.6l-0.1-0.2L64,77.2l-0.3-0.3l0-0.3l-0.3-0.3l0.8-0.7  l-0.1-0.1L63.9,75l-0.5-0.3l-0.5-0.5l0-0.4l0.7-0.7l0.1-0.2l0.3,0l0.4-0.6l0.4,0.4l0.4,0l0.2-0.2l-0.1-0.3v-0.6L64.9,71l-0.5-0.2  l-0.1-1l0.1-0.1l0.2,0.2l0,0.3l0.2,0.4l0.6-0.2l0.5,0.4l0.1-0.1l0.1,0.1l-0.1,0.6l0.3,0.6l0,0.3l0.1,0.1v1l-0.1,0.2l0.1,0.2l0,0.3  l0.3,0.1l0,0.3l0.5,0.1l0.2,0.2l0.1,0.7L67.1,76l0.2,0.5l0.3,0L67.7,76.6z M76.9,22L76.9,22l0.1-0.2l-0.1-0.1l-0.3,0l-0.1,0.1l0,0.2  l0.1,0.1L76.9,22z M75.8,21.6l-0.2,0.2l0,0.1l0.1,0.1l0.2-0.2L75.8,21.6L75.8,21.6z M77.2,24.1L77.2,24.1l-0.1,0.2l0.1,0.1l0.3,0  l0.1-0.1l0-0.2l-0.1-0.1L77.2,24.1z M77.9,22.9l0.2,0.3l0.3,0l0.4-0.6l0.3,0l0.6-0.3l0.1-0.2l0.5-0.6l0-0.3l-0.6-0.1l-0.1-0.7  l-1-0.7l-0.3,0l-0.2,0.4l0.3,0.1l0,0.9l-0.3,0.3v0.2l-0.7,0.6l-0.1,0.2l-0.3-0.3l-0.8,0L76,22l-0.2,0.2l0,0.3l0.4,0.3L76,23.3  l0.3,0.4l0.3-0.2h0.5l0.4-0.6L77.9,22.9z M78.4,17L77.6,17l-0.2,0.4l0,0.3l0.2,0.2l0.3,0l0.3-0.1L78.4,17z M75.1,22.4L75.1,22.4  l-0.1,0.2l0.1,0.1l0.1,0l0.1-0.1l0-0.1l-0.1-0.1L75.1,22.4z M74.9,18.6l-0.3,0l-0.1,0.1l0.2,0.2L74.9,18.6L74.9,18.6z M78.8,17.2  l0-0.3l-0.1-0.1h-0.1l-0.1,0.1l0,0.3l0.1,0.1L78.8,17.2L78.8,17.2z M75.4,18.4l0.1-0.1l0.1,0.2l0.3,0l0.5-0.4l0.1,0l0.2,0.2  l-0.4,0.3l0.1,0.2l0.7,0l0.3,0.1l0.2-0.4v-0.4l-0.2-0.2l-0.4,0l-0.4-0.4h-0.1l-0.2-0.2v-0.4L76,16.7l-0.2-0.2l0-0.3l0.2-0.2h0.7  l0.5,0.6l0.3,0l0.7-0.6l0.7,0.1l0.1-0.3l0.3,0l0.2-0.2l-0.2-0.2L79,15.5l-0.1-0.2h-1.1l-0.1-0.1l-0.1,0.1l-1,0l-0.1-0.1l-0.1,0.1  l-0.1-0.1l-0.4,0l-0.1-0.6l-0.7,0l-0.1,0.8l0.2,0.1l0.2,0.4l-0.7,0v0.4l0.3,0.4l0.6,0.3l0.2,0.5l-0.2,0.1l-0.1-0.3l-0.5,0.1  l-0.2,0.2l0,0.3l-0.3,0.3l0.2,0.2L75.4,18.4z M88.7,27.8L88.7,27.8l0.1-0.4l-0.3-0.2l-0.3,0l-0.1,0.2l0.3,0.4L88.7,27.8z M92.4,33.8  l0.2-0.2l0-0.2l-0.1-0.1l-0.3,0l-0.2,0.2l0.2,0.2L92.4,33.8z M74.2,20.7l-0.1,0.2l0.2,0.4l0.1-0.1l0.3,0l0.2-0.2l-0.3-0.2L74.2,20.7  z M93.3,36.5L93.3,36.5l0.3,0.1l0.1-0.1l0-0.1l-0.1-0.1l-0.3,0l-0.1,0.1L93.3,36.5z M93.6,36.1L93.6,36.1l0.1-0.4l-0.1-0.1l-0.1,0  l-0.1,0.1l0,0.3l0.1,0.1L93.6,36.1z M79.4,19.2l-0.1,0l-0.3-0.4l-0.2-0.5l-0.5-0.1l-0.2,1l0.3,0.4l1.2,0.6l0.3,0.3l0.4,0l0.1-0.7  l-0.1-0.1V19l0.3-0.3l0-0.4l-0.3-0.1l-0.1-0.4l-0.3,0l-0.2,0.2v0.6l0.1,0.2L79.4,19.2z M82,17.4L82,17.4l0.1-0.2l-0.2-0.4l-0.4,0  L81.4,17l0.2,0.4L82,17.4z M85.9,24.7l0,0.3l0.2,0.2l0.1-0.2l0.4,0l0.1-0.7l0.5-0.6v-0.1l-0.3-0.1l-0.1-0.2l-0.7,0.1l-0.2,0.2l0,0.3  l-0.3,0.1l0,0.3L85.9,24.7z M85.7,28.1l0.2,0.2l0,0.4l0.1,0.1v0.6l0.4,0l-0.3,0.4v0.4l0.1,0.3l0.5,0.1l0.5-0.5v-0.6l0.4-0.3l0-0.3  l0.1-0.2l-0.1-0.4l-0.2-0.1l-0.3-0.2l0-0.3l0.3-0.3l0-0.3L87.2,27l-0.3,0l-0.3-0.3l-0.5,0.1l-0.4,0.6l-0.3,0.2l0.2,0.4H85.7z   M71.1,17.5l0,0.2l0.2,0.2l0.1,0l0.1-0.1l0-0.3l-0.1-0.1L71.1,17.5L71.1,17.5z M73.6,18.9L73.6,18.9l-0.1-0.2l0-0.2l-0.1-0.1h-0.1  l-0.1,0.1l0,0.3l0.1,0.1L73.6,18.9z M8.2,51.3l0.2,0.2l0.3,0l0.2-0.4l0-0.3l-0.1-0.1l-0.3,0l-0.3,0.4V51.3z M0.5,74.9l-0.4,0L0,75.3  l0.2,0.1l0.1,0.2l0.3,0l0.2-0.2l0-0.3L0.5,74.9z M8.6,52.3l0.3,0.3l0,0.3L9.3,53l0-0.9H8.7L8.6,52.3z M7.7,46.8L7.5,48L8,48.1  l0.2-0.4l-0.1-0.6l0.3-0.6l-0.1-0.4l-0.3-0.2l-0.8,0l-0.2,0.5l0.5,0.1L7.7,46.8z M12.4,83.5l-0.2,0.2l0.1,0.6L12,84.4l-0.3,0.3  l-0.1-0.1l-0.4,0l-0.5,0.3l-0.1,0.7l0.3,0.4l0.3,0l0.1,0.1l0.4-0.4h0.5l0.1,0.1l0.3-0.3l0.3,0.1l0.3-0.4l0-0.3l-0.4-0.4l0.2-0.2h0.4  l0.1-0.4l-0.5-0.4L12.4,83.5z M11.8,82.9v-0.2l-0.2-0.2l-0.3,0l-0.1,0.1v0.1l0.2,0.2L11.8,82.9L11.8,82.9z M13.5,81h-0.7l-0.3-0.2  l-0.4-0.6h-0.4l-0.2,0.4l0,0.4l0.1,0.2l-0.1,0.6l0.2,0.2l0.3,0l0.2-0.2l0.1-0.4l0.3,0l0.2,0.2l0,0.4l0.6,0.2l0.1-0.4l0.5-0.1l0-0.4  l-0.4-0.1L13.5,81z M10.8,83.5l0.5-0.4L11,82.7l-0.5,0.2l-0.2,0.2l0.3,0.4L10.8,83.5z M67.2,15.6l0.1,0l0.1-0.1v-0.2l-0.1-0.1h-0.1  l-0.1,0.1L67.2,15.6L67.2,15.6z M72.3,18.4l-0.1,0l-0.1,0.1v0.2l0.1,0.1h0.1l0.1-0.1L72.3,18.4L72.3,18.4z M71.9,17.9l0,0.1l0.2,0.2  l0.2-0.2v-0.1l-0.1-0.1L71.9,17.9L71.9,17.9z M73,18.7l0.1-0.2l-0.3-0.4h-0.1l-0.1,0.1l0,0.4l0.1,0.1H73z M72.1,15.5v-0.1l-0.5-0.5  l-0.1,0l-0.1-0.2l-0.1,0.4l0.5,0.5L72.1,15.5z M14.4,85.8L14.3,86l-0.1,0l-0.1,0.1l0,0.3l0.1,0.1h0.4l0.1-0.1v-0.4l-0.1-0.1  L14.4,85.8z M70.6,15.5L70.6,15.5l0.1-0.4L70.6,15l-0.4,0l-0.1,0.1l0,0.3l0.1,0.1L70.6,15.5z M70.9,17.3l0.1,0l0.1-0.2l0.1,0  l0.1-0.1l-0.1-0.2l0-0.2l-0.1-0.1H71l-0.2,0.2L70.9,17.3L70.9,17.3z M69.9,16.2L69.9,16.2l0.1,0.3l0.3,0l0.2-0.2l0-0.1l-0.2-0.1  l-0.1,0.2L69.9,16.2z M79.8,59.6L79.8,59.6L79.7,60l0.1,0.1l0.1,0l0.1-0.1h0.1l0.1-0.1l0-0.2l-0.1-0.1L79.8,59.6z M88.2,58.2l0-1  l-0.3-0.7l-0.6-0.3l-0.4,0l-0.2,0.2v0.7l0.9,1.7l0.4-0.1l0-0.6L88.2,58.2z M87.7,65.7h-0.1l-0.1,0.1l0,0.2l0.1,0.1l0.1,0l0.1-0.1  L87.7,65.7L87.7,65.7z M88.4,51.9L88.4,51.9l-0.2-0.1l-0.1,0.1V52l-0.1,0.1l0.1,0.1h0.1l0.2-0.2L88.4,51.9z M88.1,65.9l0,0.3  l0.1,0.1l0.1,0l0.1-0.1l0-0.1L88.1,65.9L88.1,65.9z M86.6,54.7l0.6,0.1l0.3,0.3l0.2-0.1l0.1-0.6l-0.1-0.3l0.3-0.4l0-0.3L87.7,53  l-0.4,0l-0.3,0.1l-0.5,0.5l0.1,0.6l-0.1,0.2L86.6,54.7z M89.5,49.4L89.5,49.4l-0.1,0.2l0.2,0.2l0.1,0l0.1-0.1l0-0.3l-0.1-0.1  L89.5,49.4z M91.7,48.4L91.7,48.4l-0.1,0.5l0.1,0.1l0.3,0l0.1-0.1l0-0.3l-0.2-0.2L91.7,48.4z M88.6,57.7h-0.1l-0.1,0.1l0,0.3  l0.1,0.1l0.1,0l0.1-0.1L88.6,57.7L88.6,57.7z M89.4,54.7l-0.7-0.6l-0.4,0l-0.1,0.4l0.5,0.7l1-0.1l0-0.2l-0.2-0.2H89.4z M88.4,53.9  l0-0.2l-0.1-0.1h-0.1l-0.1,0.1l0,0.1l0.1,0.1L88.4,53.9L88.4,53.9z M86.8,52.3L86.6,52l0.1-0.3l-0.1-0.3l0.1-0.5l0.3,0l0.3,0.4h0.4  l0.3-0.2l-0.3-0.5l-0.2-0.1l0.1-0.1H88l0.3,0.3l0.3,0l0.1-0.1l0.3-0.1l0-0.3l0.1-0.1L89,49.8l0.2-0.1l0.1-0.2l-0.2-0.1l-0.4-0.6  l-0.3-0.1l-0.4,0l-0.4-0.4h-1.1l-0.3-0.1L86,47.7v-0.4L85.8,47h-0.3l-0.3,0.3L85,47.2h-0.4l-0.1,0.3l-0.3-0.3l-0.7,0l-0.3,0.2  l-0.1-0.1l-0.3,0l-0.1,0.3l-0.1-0.1l-0.1,0.4l0.1,0.2l-0.3,0.1l-0.5,0.4v0.6l0.2,0.2l0.1,0l0.4,0.4l0.3,0l0.7,0.7l-0.5,0.1L83,50.8  l0.6,0.8H84l0.4-0.6l0.3,0l0.1-0.4l0.2-0.2l0.3,0l0.2,0.5l0.3,0.3l-0.2,0.2l-0.3,0l-0.1,0.2l0.5,1.3v0.6l0.6,0.1l0.5-1L86.8,52.3z   M84,47l0-0.1l-0.1-0.1l-0.1,0L83.6,47l0.1,0.1L84,47L84,47z M85.1,52.6L85.1,52.6l0.2,0.1l0.1-0.1l0-0.1l-0.2-0.2l-0.1,0.1  L85.1,52.6z M85.2,50.7L85.2,50.7l-0.3,0.1l0.1,0.1l0.1,0l0.1-0.1L85.2,50.7z M88.2,55.4l0-0.2l-0.1-0.1h-0.4l-0.1,0.1l0,0.3  l0.1,0.1l0.3,0L88.2,55.4z M88.9,53l0,0.2l0.1,0.1l0.3,0l0.1-0.1l0-0.1l-0.2-0.2L88.9,53z M87.5,55.9L87.5,55.9l0.1,0.3l0.1,0  l0.1-0.1V56l-0.1-0.1L87.5,55.9z M94,39.1L93.7,39l-0.1-0.4l-0.7-0.3l-0.2-0.2l0-0.7l-0.1-0.1l0-0.3l0.4-0.3l0.3-0.7l-0.2-0.2  l-0.4,0l-0.1,0.1l-0.4-0.6L92,35.3l-0.1-0.1l-0.1-0.5h-0.1l-0.4,0.4l-0.8,0.2l-0.3,0.3h-0.5l-0.5-0.4l-0.6,0.2l-0.1,0.3l-0.3-0.1V35  l-0.1-0.1l0-0.3l-0.3-0.6l0.2-0.2l0.3-0.1v-1.2l-0.3-0.2l-0.4-0.6l-0.3-0.1l-0.6,0.1l0,0.9l0.1,0.1l0,0.3L86.1,33l-0.4,0.3l-0.1-0.1  l-0.3,0.1l0,0.4l0.1,0.3l0.2,0.4l0.2,0.1l0,0.4L85.6,35l0.1,0.1l-0.1,0.1l0,0.9l-0.1,0.1l0,0.3l0.1,0.1l-0.1,0.2l0,0.3l0.3,0.4  l0,0.1l-0.3,0.2l0.1,0.1l-0.1,0.2l-0.3,0l-0.1-0.2l-0.3,0.1l-0.3-0.2l0.2-0.4l0.3-0.1l0-0.3L84.8,37v-0.6L84.5,36v-0.6l-0.2-0.2  l-0.3,0l-0.5,0.5l0,0.7l-0.2,0.2l-0.1-0.1l-0.3,0.1l0.3,0.4l-0.8,0.2L82.3,37l0.4-0.3l0-0.7l-0.1-0.3l-0.4-0.4l0.2-0.2l0.8,0  l0.3-0.4l0-0.7l-0.2-0.2L83,33.6l0.1-0.2l-0.3-1l0.3-0.4v-0.7l0.2-0.1l0.4,0.3h0.4l0.3-0.2v-0.6L84,29.8V29l-0.1-0.2l-0.1-0.6  l-0.2-0.2l-0.2,0.1v0.1l-0.4,0.5v0.6l0.1,0.2l-0.1,0.1v0.6l-0.3,0.3l0.1,0.1l-0.2,0.2L82.3,31l-0.6-0.2l-0.5,0.4l-0.1-0.1l0.3-0.6  l0.1-0.7l0.3-0.1l0.1-0.2l-0.3-0.5l-0.3,0l-0.1,0.3l-0.4,0l-0.1-0.2L80.5,29l0.1-0.3L80.4,28l-0.4-0.1L80,28.3l-0.2,0.2l-0.5,0  l-0.7,0.9l-0.3,0l-0.9,0.8L77.3,31L77,31.1l0.1,0.2l0,0.9l-0.3,0.4l-0.3-0.5l-0.1,0.2h-0.5l-0.1-0.3l-0.4,0l-0.1,1.3l-0.1,0.1  L74.9,33v-0.1l-0.3-0.2l-0.3,0l-1,1L73.2,34l-0.1,0l-0.2,0.2l0.1,0.5h0.1l0.3-0.3l0.1,0.1l0.3,0l0.1,0.2l-0.3,0.3l0,0.3l0.4,0.7v0.6  l0.3,0.4l0.5,0.1l0,0.1l-0.9,0.8l-0.4,0.1L72.6,39l-0.1,1.3l-0.2-0.5l-0.8-0.9l0-0.1l0.4-0.3l0-1.5l-0.1-0.1l0-0.3l-0.3-0.4l-0.8,0  l-0.4,0.3h-0.5l-0.1,0.1l-0.3-0.4l-0.4,0l-0.3,0.3H68l-0.3,0.3l-0.1-0.4l0.3-0.1l0.2-0.2l-0.1-0.2h-0.5l-0.5-0.3l-0.3,0.1h-0.4  L66.3,36l0.3,0.4L66.1,37L65.8,37l-0.3,1.3L65,38.6L64.9,39l-0.4,0.3l0.3,0.4l-0.6,0.4l-0.1,0.6l-0.3,0.1l0,0.4l-0.2,0.2l-0.4,0  L63,41.9L62.5,42l-0.1,0.3l-0.2,0.1l-0.5,1.3l0.1,0.1l0.3,0.6l-0.4,0.7l-0.1,0.4l-0.8-0.1l-0.2-0.2l-0.1-0.4l-0.3,0L60.1,45l-0.3,0  l-0.2,0.4L59,45.9l-0.2-0.1l0.5-0.6l0.1-0.9l0.4-0.7l0.8-0.9l0.1-0.4l0.9-1l0.1,0l0.5-0.4l-0.1-0.3l0-0.7l0.3-0.1l0.1-0.3v-1  l-0.5-0.6L62,37.6l-0.3-0.1l-0.8,0l-0.1-0.2l-0.3-0.1V36l-0.3-0.4l-0.3,0l-0.4-0.4l-0.7,0l-0.1,0.2l-0.3-0.1l-0.5-0.4l-0.6-0.1  l-0.3-0.4l0.1-0.1l-0.2-0.2l-1,0l-0.7-0.6l-0.3,0L54.8,33l0.2-0.5l0.3,0.1l0.1-0.3l0.7,0.1l0.1-0.2l0.3,0l0.1,0.2l0.3,0l0.1-0.7  l0.5-0.1l0.7-0.6l1,0.3l0.1,0.1l0.3,0l0.3,0.4l0.4,0l0.3-0.3H61l0.3,0.3l0.3,0.1l0.3-0.1l0.1,0.1l0.3,0l0.2,0.2l-0.3,0.7l-0.3,0.3  l0.2,0.2l0.3,0l0.1-0.1l0.3,0.4H63l0.3-0.4l0.3,0.1l0.3-0.1l0.1-0.2l-0.2-0.2L63.1,33l-0.3-0.8l-0.2-0.2l-0.3,0l-0.5-0.4l0.3-1.6  l0.4-0.3l0.1-0.2l0.1,0l0.3,0.4l0.2,0.5l0.3-0.1H64l0.4-0.4l1-0.3l0.1,0.2l-0.1,0.3l0.3,0.4l0.5-0.4l0.1-0.6l0.4-0.4l0.1-0.4  l0.5-0.6l0-0.3l0.1-0.2l0-0.9l-0.3-0.4v-0.4l-0.1-0.1l0.1-0.4l0.3,0.5l0.1,0.4l0.7,0.3l0.3,0.3l0.4,0l0.1,0.1l0.3,0l0.6,0.3l0.4,0  l0.1,0.6l0.3,0l0.3-0.4l0-0.4l0.3-0.4l0.3,0l0.1-0.1l0.1,0.1l0.4,0l0.8-0.4l0.8,0.1l-0.2,0.4l-0.2,0.1l0.2,0.8l0.3,0l0.4-0.7  l0.3,0.2l-0.1,0.4l-0.3,0.3l0,0.3l-0.7,0.4l-0.1,0.4l-0.8,0l-0.3,0.5L72.4,29h-0.5l-0.3-0.1l-0.3,0.4l-0.7,0l-0.3,0.5l-0.2,0.1  l0,0.3l-0.3,0.4l0.2,0.2l0.3,0l0.1-0.2l0.2,0.1l-1,1.3l-0.3-0.1l0.1-0.1l-0.2-0.2h-0.4l-0.9,1l0,0.4L67.8,33l0.1,0.4l0.3,0l0.1-0.4  l0.3-0.2l1,0l0.4-0.3l0.1,0l0.3-0.4l0.1-0.4l0.8-0.8l0.7-0.4l0.5-0.1l0-0.3L72,30.3h-0.5l0-0.3l0.4,0.1l0.5-0.4h1l0.1-0.1l0.3,0  l0.4-0.3l0.3,0l0.3-0.3l0.3,0.1l0.3-0.3l0.4-0.1l0.3-0.4l0.1,0.1l0.1-0.1l0.8-0.1l0.8-0.6l0.2-0.2l0-0.3l-0.3-0.1l0.2-0.2l0.3,0  l0.3-0.3l0.1,0.4l0.8-0.7h0.1l1.2-1.6l0.3,0l0.4-0.4l0.3,0l0.7-0.5l0-0.7l-0.3-0.4l-0.8,0.4l-0.5,0.6l-0.4,0l-0.2,0.1l-0.4,0  l-0.1,0.2l-0.5,0l-0.1,0.2h-0.5l-0.3,0.1l-0.1,0.1l-0.3,0l-0.3,0.4l-0.3,0.1l-0.8-0.7l-0.3,0.1L76.2,24l-0.1-0.5l-0.4,0l-0.1-0.6  L74.9,23l0,0.2l0.3,0.3L75,23.5l-0.5-0.2l0.1-0.1l-0.1-0.2l-0.7,0l0-0.1l0.5-0.1l-0.5-0.4l-0.1,0.1h-0.7L73,22.7l-0.4,0.1L72.4,23  L72.1,23l0.4-0.3v-0.4l-0.3-0.1l0-0.4l0.3-0.1l0.4,0.6l0.3,0l0.1-0.5l0.2-0.4l0.2-0.1l0-0.3l0.8-0.7l-0.2-0.4l-0.3,0l-0.8,0.8  l-0.1-0.4l0.4-0.6l-0.1-0.4l-0.3,0.1h-0.4L72.4,19l-0.1,0.7l-0.6,0.1l-0.1-0.1l-0.5,0l-0.1,0.1l-0.5-0.1l0.3-0.5l0-0.3l0.8-0.6  L71.3,18l-0.6-0.2l0-0.3l-0.2-0.4l-0.1,0.2l-0.3,0l-0.3,0.3l-0.2-0.1l0.3-0.4l-0.1-0.9l0.3-0.1l0.2-0.2l-0.1-0.2h-0.5l-0.1-0.1  l-0.3,0l-0.1,0.4l-0.3,0l-0.1-0.2l-0.1,0.1L68.4,16l-0.1,0.2h-0.1l-0.1-0.4l-0.2-0.2l-0.7,0.1l-0.3,0.4l0,0.3l-0.4,0.7l0,0.3  l-0.1,0.1v0.4L66,18.4l-0.5,0.1L65,18.3l-0.2,0.4l0,0.3l-0.5,0.2l-0.3-0.3l-0.3,0l-0.3,0.5l0,0.3l-0.2,0.2L63,19.9L63,19.5l-0.4,0.3  H62l-0.1,0.2l-0.1-0.1l0.1-0.3v-0.4L61.8,19l0-1l0.1-0.1l0.2,0.2l0,0.2l0.5,0.1l0.3-0.4l0.1-0.7l0.8-0.8l0.2,0.1l-0.3,0.3l0.1,0.2  h0.5l0.3-0.3l-0.1-0.1l0-0.1l0-0.1l0,0l0-0.1l0-0.1l0,0l0-0.1l0-0.1l0-0.1L64.7,16l-0.1-0.1l-0.1-0.1l-0.1-0.1l0-0.1l0,0l0,0l0,0  l-0.1,0l-0.1,0l-0.1,0l-0.1,0l-0.1,0l-0.1,0l0-0.1l0-0.1l0-0.1l0,0l0-0.1l-0.1,0L63.6,15l0,0l0-0.1l0-0.1l0-0.1l-0.1-0.1l-0.1-0.1  l-0.1,0l0,0l0,0l0,0.1l-0.1,0l-0.1,0l-0.1,0l-0.1,0l-0.2,0l-0.1,0l-0.2-0.1l-0.1-0.1l-0.1,0l-0.1,0L62,14.5l-0.1,0l-0.1-0.1l-0.1,0  l0,0l-0.1,0l-0.1,0l-0.1,0l-0.1,0l-0.1,0l-0.1,0l-0.2,0l-0.1,0l-0.1,0l-0.1-0.1l0-0.1l0,0l0-0.1l-0.1,0l-0.1,0l0,0l0,0l0,0l-0.1,0  l-0.1,0l0,0l-0.1,0l0,0l-0.1,0l-0.1,0l-0.1,0l0,0.1l0,0l0,0.1l0,0.1l-0.2,0.1l-0.1,0l-0.1,0l-0.1,0l-0.1,0l-0.1,0l-0.1,0l-0.1,0  l-0.1,0l-0.1,0l-0.1,0l-0.1,0l-0.1,0l-0.1,0.1l0,0.1l0,0l-0.1,0l-0.1,0l0,0l-0.1,0l-0.2,0l-0.2,0l-0.1,0l-0.1,0l-0.1,0l0,0.1l0,0  l-0.1,0.1l-0.1-0.1l-0.3-0.2l-0.1,0l0-0.1l0-0.2l0-0.1l0-0.1l0,0l0,0l0-0.1l0-0.1l0-0.1L56.5,14l-0.1-0.1l-0.1,0l-0.1,0l-0.1,0l0,0  l-0.1,0L56,14l-0.1,0l-0.1,0l-0.1,0l-0.1,0l-0.1,0l-0.1,0l0,0l-0.1-0.1l0-0.1l0,0l-0.1,0l-0.1,0l-0.1,0l-0.1,0l0,0l-0.1,0l-0.1,0  l0,0.1l0,0.1l0,0.1l-0.1,0l-0.1,0l-0.1,0l-0.1,0L54.3,14l0-0.1l0-0.1l-0.1-0.2l-0.1-0.1L54,13.6l-0.1,0l-0.1,0l0,0l-0.1,0.1l0,0.1  L53.6,14l-0.1,0.1l0,0.1l0,0.1l0,0.1l0,0.1l0,0.1l0,0.1l-0.1,0.1l0,0.1l0,0.1l-0.1,0.1l-0.1,0l-0.1,0l-0.1,0l0,0l0,0l-0.1,0l-0.1,0  l-0.1,0l-0.1,0l-0.1,0.1l0,0.1l0,0.1l0,0.1l0,0.1l0,0.1l0,0.1l0,0l-0.1,0l-0.1,0l-0.1,0.1l0,0.1l0,0.1l0,0.2l0,0l0,0.1l0.1,0l0.1,0  l0-0.1l0-0.1l0.1,0l0.1,0l0.1,0.1l0,0.1l0,0.1l-0.1,0l-0.1,0l-0.1,0l-0.1,0.1l0,0.1L52,16.6L52,16.6l-0.1,0.1l0,0l0,0.1l0,0.1l0,0  l0.1,0.1l-0.1,0.1l-0.1,0l-0.1,0l-0.1,0.1l-0.1,0l-0.1,0l-0.1,0.1l-0.1,0l0-0.1l0-0.1l0,0l-0.1,0l-0.1,0l-0.1,0l-0.1,0l0,0l-0.1,0  l0-0.1l-0.1,0l-0.1,0l-0.1,0l-0.1,0l-0.1-0.1l-0.1,0l-0.2,0l-0.1,0l-0.1,0L49.8,17L49.8,17l-0.1,0l0,0l0,0l0,0l-0.1,0.1l0,0l0,0  l-0.1-0.1l-0.1,0l-0.1,0l0-0.1l-0.1,0l-0.1,0.1l-0.1,0l-0.1,0l-0.1-0.1l-0.1,0l-0.1,0l0,0.1l0,0.1l0,0.1l-0.2,0.2l-0.1,0l0,0l0,0  l-0.1-0.1l0-0.1l0.1,0l0-0.1l-0.1-0.1l-0.1,0.1l0,0.1l0,0.1l-0.1,0.1l-0.1,0l-0.2,0l-0.1,0l-0.1,0l-0.1,0.1l-0.1,0.1l0,0.1V18l0,0.1  l0.1,0.1l0,0.1l-0.1,0l-0.1-0.1l0,0l-0.1,0l-0.1,0.1l0,0.1l0,0l0,0.1l-0.1,0l-0.1,0l-0.1,0l-0.2-0.1l0,0l0,0l-0.1,0l0,0l-0.1,0  l-0.1,0.1l0,0.1l0,0.2l0,0.2l-0.1,0.1l-0.1,0l-0.2,0.1l-0.1,0l-0.2-0.1l-0.1-0.1l-0.1-0.1L45.5,19l0-0.1l0-0.2l0-0.1l0-0.2l0-0.2  l0-0.1l-0.1-0.1l-0.1,0l-0.1,0.1l0,0.1l0,0.1l-0.1,0.1l0,0l-0.1,0l0,0l-0.1,0l-0.1,0l-0.1,0l-0.1,0l-0.1,0.1l0,0.1l0,0.1l0,0.1  l0,0.1l-0.1,0l-0.1,0l0-0.1l0-0.1l0-0.1l0-0.1l0-0.1l0,0l0-0.1l0-0.1l-0.1,0l-0.2,0l-0.1,0l-0.1,0l0,0l-0.1,0l-0.2,0l-0.2,0l-0.1,0  l-0.1,0l-0.1,0l-0.1,0l0,0l0,0l0,0l-0.1-0.1l-0.1-0.1l0,0l0-0.1L43,18.1l-0.1-0.1l-0.1,0l-0.1,0l-0.1,0l-0.1,0l-0.1,0l-0.1,0l-0.1,0  l0,0l-0.1,0l-0.1,0l-0.1,0L42,18.1l-0.1,0.1l-0.1,0.1l-0.1,0.1l0,0.1l0,0.1l0,0.1l0,0l-0.1,0.1l0,0.1l0,0.1l0,0.1l-0.1,0l-0.1,0  l-0.1,0l-0.1,0L41,19l-0.2,0l0,0l-0.1,0l-0.2,0.1l-0.1,0l-0.1,0.1l-0.1,0.1l0,0.1l0,0.1l0,0.1l0.1,0.1l0.1,0.1l0.1,0.1l0,0l0.2,0.1  l0,0l0.1,0l0.1,0.1l0.1,0.1l0.1,0l0,0l0,0l0.1,0.1l0.1,0.1l0,0l0,0.1l0,0.1l0,0.1l-0.1,0.1L41.2,21L41,21.3l0,0.1l-0.4,0.4L40,22  l-0.6-0.5l-0.7,0l-0.5,0.2l-0.4,0.4l-0.1,0l-0.3,0.5l-0.1,0.7l-0.5,0.5l-0.3,0.2l-0.5,0.1l-0.7-0.2L35,23.9l-1.1,0l-0.8,0.8  l-0.4,0.1l-0.6,0.7l-0.1,0.6l0.1,0.2l0.1,0.9l0.3,0.3l0,0.4L32.3,28v0.6l0.1,0.2l-0.1,0.1l-0.1,0.8l-0.2-1.1l-0.3-0.4l-0.3,0  l-0.5,0.4l-1,0.4l-0.3,0.3H29l-0.1-0.8l0.1-0.1l0-0.7l0.7-0.9l-0.2-0.4h-0.4L29,26.6l-0.8,0L28,26.4h-0.4l-0.1,0.3h-0.4l-0.5,0.4  l-0.4,1L25.7,29l-0.1,0L25,29.6l-0.1,0l-0.7,0.8l0,0.1l-0.7,1l-0.1,0.6l-0.6,0.7l-2.2,1h-0.6l-0.3,0.4l0,0.1l-1.2,1.3l-0.3,1.3  l-0.6,0.5h-0.1L17,37.9l-0.1,0.7l-0.8,0.4l-0.7,0l-0.1,0.2l-0.8,0l-0.1,0.2L14,39.2h-0.5l-0.1,0.1l-0.3,0l-0.5,0.5l0,0.3l-0.3,0.5  L12,40.8h-0.5l-0.3,0.4l0,0.4l0.5,0.4l0.7,0l0.8,0.7l0.1,0.3L13,43.1l0,0.6l0.3,0.5h0.1l0.3,0.4l0,0.3l0.1,0.2v1l-0.3,0.3l0,0.4  l0.7,0.7l0.1,0.2l0.5,0.3l1.2,0l0.1,0.2l0.7,0.1l0.5,0.4l0.3,0l0.3,0.1l0.3-0.1l0.3-0.4l1-0.4l0.3-0.3l0.8-0.1v-0.3l0.7-0.7l0-0.7  l0.3-0.3l0-0.1l0.5-0.5l0.2-0.1l0-0.4l-0.1-0.1l0.1-0.5l0.1,0.1l1,0.1l0,0.3l0.4,0.4l0,0.6l-0.1,0.2l-0.1,0.3l0,0.6l0.1,0.1l0,0.3  l0.3,0.4l0.3,0l0.7,0.6l0.7,0L26,48l-0.2,0.4l-0.1,0l-0.2,0.2l0.2,0.4l0.7,0.2l0.1-0.1l0.3,0.3l0.4,0l0.1,0.1l0.2-0.2l0.1-0.3H28  l0.5-0.4l0.3,0l0.2,0.2l0.1,0.4l0.5-0.3l0.6,0.2v0.4l0.3,0.7l0.8,0l0.1,0.2l0.8,0l0.1-0.2h0.5l0.4-0.3l0.3,0l1-0.6l0.8,0l0.1-0.1  l0.3,0l1.1-0.9l0.3,0l0.8,0.4l0.1,0.2l0.8-0.1l0.3-0.5l0.3-0.1l0.8,0l0.1-0.3l0.8,0.5l0.4,0l0.1-0.1l0.8,0l0.1-0.2l1-0.1l0.5-0.6  l1,0.1l0.6,0.8v0.4L45.6,49l0.7,0.9v0.4l0.1,0.3L46.3,51l0.1,0.3l0.2,0.2l0.3,0l0.3-0.5l0.3-0.2l0.1-0.4l0.3,0l0.1,0.4L47.8,51v0.6  l-0.1,0l-0.2-0.4l-0.2,0.4l0.3,0.7l0.7,0.2l1,1.2l0.4,0l0.4-0.7l0.1,0.4l-0.3,0.6l0.3,0.2l0.3,0l0.1,0.2l1.2,0l0.3-0.2l0.3,0.3h0.1  l1.3,1.3l-0.1,0.2l0,0.9l0.2,0.4l0.1-0.1l0.5,0l0.2,0.4l0,0.7l0.1,0.3l-0.4,0.3l0,0.3l0.1,0.2l0.5,2.3h1.2l0.4-0.6l0.1,0l0.1-0.3  l0.3,0l0.3-0.2l0-0.6l0.2-0.4l1.1,0.6l0.2-0.2v-0.4l0.1-0.1v-0.6l-0.2-0.2l-0.3-0.1l0-0.4l0.2-0.1l0.5-0.5l0-0.3l0.3-0.2l1,1l0.1,0  l1.9,1.9l0.3-0.5l-0.6-0.8l-0.4,0l-0.3-0.4l-0.1,0l-2-2l0.2-0.1l0.5,0.6l0.2-0.4l0-0.4l-0.1-0.1l0.1-0.2h1.1l0.5,0.4l-0.1,1  l-0.3-0.2l0-0.4l-0.2-0.1L61.5,56l-0.4,0.4l0,0.3l0.5,0.5l0.1,0l0.4,0.4l0.6-0.3l0.1,0.3l0.1,0l0.9,1l0.1,0.2l0.1,0l0.5,0.5l0.6,1.1  l0.3-0.2l0.6,0.1l0,0.1l-0.4,0.3l0.1,0.3l0,0.2l0.3,0.1l0.1,0.2l0.3,0.1l0.1,0.7l0.3,0.1l0.4,0l0.1,0.1l0.3-0.2l0-0.1l1.6-1.9  l0.1-0.3l0-0.4l-0.3-0.6L68.9,59l0.2-0.1l0.3-0.4l0.1-0.4l0.3-0.3l-0.1-1.6l-0.5-0.5h-0.1l-0.3,0.3l-0.1-0.4l0.2-0.2l0.8,0l0.3,0.1  l0.1,0.4l0.3,0.5l0,0.3l0.3,0.4l0.4,0l0.1-0.4l0.2-0.2l0.1,0.2l0.3,0.1L71.5,57l-0.1,0.4l-0.3,0L71,57.6l0,0.9l0.3,0.1l0,0.1  l0.3,0.1l0.1,0.3l0,0.4l0.1,0.3l0.3,0.4l0.3,0.1l0,0.3l0.1,0.1l0,0.4l0.1,0.2l-0.1,1l0.2,0.4l0.4,0l0.1,0.4l0.1,0.1L72.7,64l0.1,1.6  l0.2,0.4l0.4,0l0.1-0.3l0.2-0.1l0.1-0.5l0.1,0.2l1,0.1l0.1,0.4l0.2,0.2h0.4l0.3,0.1l0.4,1l0.3,0l0.2-0.2v-0.7l0.2-0.1l0.4,0.3  l0.4-0.2l0.1-0.4l-0.2-0.5l-0.5,0.3L77,65.5l0-0.9l-0.1-0.1l0-0.4l0.3-0.3l-0.2-0.4l-0.3,0l-0.3,0.4l-0.1,0.4l-0.5,0.5l-0.2-0.1  l0.3-0.5L76,64l0-0.3l-0.9-0.1L75,63.5l-0.2-0.1l0-0.4l0.3-0.1l0-0.3l-0.3-0.4l0.5-0.4l0.3,0l0.1,0.2l0.5,0.4h1l0.5-0.6l0.7-0.3  l0.2-0.2l0-0.7l0.3-0.1l-0.4-0.6l0-0.3l-0.8-0.9l0-0.3L77.3,58l-0.3,0l-0.1,0.2h-0.5l-0.5,0.5l0,0.3L75.7,59l-0.2-0.4l-0.3-0.1  l0.3-0.1v-0.4l-0.1-0.1l0-0.3l-0.3-0.1L75,56.1l-0.3,0l-0.1,0.2l-0.8-0.2l-0.4,0.3l-0.3,0l-0.1-0.3l-0.5-0.1l-0.2-0.2l0-1l-0.4-0.7  l0-0.3l-0.4-0.2L71.2,53l0-0.9l0.1-0.1v-0.4l0.3-0.4l-0.2-0.2l-0.3,0L71,51l-0.2-0.2l0-0.3L70.2,50l-0.1,0l-0.3,0.4l-0.8,0l-0.1-0.2  l0.7-0.4l0.1-0.4l0.5-0.6v-0.6l0.2-0.1l0.1,0.2l0.2-0.2l0.1-0.5l0.6,0.5l0,0.3l0.1,0.1l-0.1,0.1l0,0.4L71,49.5L71,50l0.3-0.2  l0.5,0.2l0.2,0.7l0.5,0.5l0.3-0.2l0-0.4l0.3-0.1L73,50.1l0.1-0.2v-0.6L72.5,49l0-0.3l-0.4-0.9l0.3-0.6l0-0.9L71.9,46l-0.3-0.1  l0.2-0.2l0.3,0l0.1-0.2l0.5-0.6l0-0.3l0.3-0.3l0.1-0.6l0.2-0.2l0.1,0.1l0.3,0l0.1-0.2l0.3-0.2h0.4l0.3,0.5l0.5,0.7h0.5l0.3-0.4  l0.1,0.4l0.3,0.3l0.1,0.5l0.3,0l0.2-0.2l0-0.3l0.1-0.1l0.4,0.6l0.3,0l0.1-0.2l0.4,0l0.1-0.4l-0.1-0.1l0-0.3l0.3-0.5l0.3,0l0.1-0.1  l0.4,0l0.6-0.3l0.2,0.1l-0.1,0.2l-0.5,0.2v0.4l0.3,0.1l-0.1,1.2l0.2,0.1l0.4-0.3l0.1,0.2l0.3,0.4l1.1,0.6l0.5-0.3l0.1,0.2l0.5,0.4  h0.4l0.1-0.3l0.3,0.1l0.2-0.2l-0.4-0.9l-0.3-0.1l0.1-0.5l0.4,0.3l0.3,0l0.1,0.4l0.5,0.1v0.4l0.6,0.5l0.3,0l0.1,0.1h0.7l0.1-0.4  l0.2,0.4l-0.1,0.2l0,0.4l0.5,0.5l0.8,0.1l0.3,0.3l0.3,0l0.3,0.4h0.4l0.1,0.1l0.7,0l0.2-0.2l0-0.3l-0.3-0.4l-0.6-0.4l0-0.4L89,47  l0.3-0.4l0.3,0.3l0.3,0l0.3-0.3l0.2,0.2l0,0.4l0.4,0.9l0.2,0.2h0.4l0.3-0.4l0-0.4l-0.2-0.4l-0.2-0.1l-0.3-0.6l0.7-0.1l-0.1-1.6  l-0.1-0.1l0-0.4l-0.2-0.1L91,43.8l-0.3,0l-0.2,0.3l-0.1-0.3l-0.4-0.2L90,43.1l-0.6-0.7l-0.4,0l-0.4,0.7l-0.2-0.1l0.1-0.1v-0.4  l-0.4-0.3l0.5-0.1l0.5-0.4v-1.2l0.3-0.2l0.1,0.3l0.1,0l0.2-0.2L89.6,40l0.1-0.6l0.2-0.2l0.5,0l0.4-0.6l0.3,0l0.1,0.2l0.7,0l0.3,0.8  l0.2,0.2h0.1l0.4,0.4l0.1-0.2l0.3,0l0.3,0.1l0.3-0.4L94,39.6V39.1z M85.8,55.2l-0.4,0.6l-0.3-0.3l-0.3,0l-0.3,0.7l0,0.3l-0.3,0.3  l0,0.3l0.1,0.1l0,0.3l0.2,0.2h0.1l0.2-0.2l0.1-0.4l0.3,0.1l0.5-0.4v-0.4l-0.1-0.1l0.5-0.5l0.1-0.3l-0.1-0.2L85.8,55.2z M63.7,35.7  L63.7,35.7l0.4-0.3L64,34.9l-0.3,0.5L63.7,35.7z M64.7,33.4h0.4l0.3-0.5l0.3-0.2l0-0.3l0.3-0.3l0-0.2l-0.3-0.2h-0.5L65.1,32  l-0.4,0.3l0,0.4l-0.5,0.4l0,0.3l0.5,0.1L64.7,33.4z M63.2,32.1l-0.1-0.1L62.9,32l0,0.2l0.2,0.2l0.4,0l0.1-0.1l-0.1-0.2L63.2,32.1z   M63.9,31.6l0.2-0.2l0-0.4L64,30.9l-0.1,0l-0.3,0.2l0,0.4l0.1,0.1L63.9,31.6z M97.7,30.2l0,0.3l-0.1,0.2l0.1,0.1l0.3,0l0.1-0.1  l0-0.3L97.7,30.2L97.7,30.2z M72.3,36.6l0-0.3l-0.1-0.1h-0.1l-0.2,0.2l0,0.1l0.1,0.1L72.3,36.6L72.3,36.6z M99.1,16.8l-0.4-0.4  l-0.3,0l-0.2-0.2l0.1-1.3L97.6,15l-0.2,0.2L97.3,16l0.1,0.2l0,0.7l0.2,0.2l0.4,0l0.5,0.4l0.3,0l0.1,0.1h0.7l0.3-0.4l0-0.4L99.1,16.8  z M96.4,31.2L96.4,31.2l-0.1,0.2l0.2,0.2l0.1,0l0.1-0.1v-0.2l-0.2-0.2L96.4,31.2z M94.3,39.8L94.3,39.8l-0.1,0.4l0.1,0.1l0.2-0.2  v-0.2l-0.1-0.1L94.3,39.8z M64.5,18.6L64.5,18.6l0.1,0.3l0.1-0.1l0-0.2l-0.1-0.1H64.5z M62.1,19.6L62.1,19.6l0.2,0.1l0.1-0.1  l-0.2-0.2l-0.1,0.1V19.6z M82.1,27.9V28l0.2,0.2l0.1-0.1l0-0.3l-0.1-0.1L82.1,27.9L82.1,27.9z M90.8,42.2l0.3,0l0.1-0.2L91,41.8  l0-0.3l-0.1-0.1l-0.3,0l-0.1,0.1l0.1,0.2L90.8,42.2L90.8,42.2z M82,29.1L82,29.1l0.1-0.2L82,28.8l-0.1,0l-0.1,0.1V29l0.1,0.1  L82,29.1z M74.4,31.9l0.3,0l0.2-0.2l0-0.1l-0.1-0.1l-0.3,0l-0.1,0.1l0,0.2L74.4,31.9L74.4,31.9z M72.3,38l0.2-0.2l0-0.2l-0.1-0.1  h-0.1l-0.2,0.2l0,0.2l0.1,0.1H72.3z M75,31.2l0.3,0l0.1-0.1l0-0.3l-0.1-0.1l-0.1,0l-0.1,0.1l0,0.2L75,31.2L75,31.2z M82,28.6l0-0.3  l-0.1-0.2l-0.1-0.4l-0.2,0.1v0.6l0.2,0.2L82,28.6z M74.5,47L74.5,47l0.1-0.4l-0.1-0.1l-0.3,0l-0.1,0.1l0,0.3l0.1,0.1L74.5,47z   M71.4,64.4l0.3,0.1l0.3-0.4l0.4,0l0.2-0.2l0-0.3l-0.2-0.2l-1.1-0.2L70.8,64v0.6l0.2,0.2l0.1,0L71.4,64.4z M73.5,45.6l-0.1-0.2  l-0.1,0.1v0.4l0.1,0.1l0.1,0l0.1,0.2l0.1,0l0.2-0.2l-0.3-0.4L73.5,45.6z M74.9,45.9l-0.1-0.2l-0.1,0l-0.1,0.1l0,0.1l0.2,0.2l0.1,0  l0.2-0.2L75,45.9L74.9,45.9z M74.2,44.2l0-0.1l-0.1-0.1l-0.1,0L74,44l0,0.2l-0.1,0.1l0.1,0.1l0.1,0L74.2,44.2z M76,47.3L76,47.3  l-0.1,0.2l0.1,0.1l0.1,0l0.1-0.1v-0.2l-0.1-0.1H76z M75.5,49.8l0.4,0.1l-0.1,0.6l0.6,0.1l0.1-0.2l-0.1-0.1v-0.4l-0.1-0.1l0-0.7  l0.3-0.3l-0.1-0.1l0-0.3l-0.6-0.4v-0.6l0.3-0.1l0.1-0.2l-0.5-0.4l-0.1,0l-0.3,0.4L75.1,47l-0.1,0.6l-0.4,0.3l0,0.3l0.7,0.7  L75.5,49.8z M77.3,50.2l0,0.7l0.3,0.6l0.5,0.5l0.7,0.3l0.3-0.4l0.1,0l0.3,0.4l0.4,0l0.1,0.1h0.7l0.2-0.4l-0.3-0.4l0.4-0.1l0-0.3  l0.3-0.3l-0.1-0.3l0.1-0.3l-0.1-0.7l-0.6-0.1l-0.4-0.3l-0.5-0.1l0.3-0.3l0-0.9l-0.6-0.9l0.1-0.1v-0.6L79.3,46l-0.4,0.4l0,0.3  L78.6,47L78.4,47l0.4-0.4l0.1-0.7l-0.5,0l-0.1,0.4l-0.3,0.1l-0.1,0.4l-0.2,0.1l-0.1,0.2L77,47.7l0,0.4l0.3,0.1l0.1-0.2l0.1,0.1v0.6  l0.3,0.4l-0.4,0.1l0.1,0.1l0,0.4L77.3,50.2z M74.9,46.7L74.9,46.7l0.2,0.1l0.1-0.1l0-0.1l-0.1-0.1l-0.1,0l-0.1,0.1L74.9,46.7z   M74.6,49.1L74.6,49.1l0.1-0.5l-0.1-0.1l-0.1,0l-0.1,0.1v0.1l-0.1,0.2l0.2,0.2H74.6z M75.1,79.5L75.1,79.5l-0.1,0.2l0.2,0.2l0.1-0.1  l0-0.3l-0.1-0.1H75.1z M74.9,79.5l-0.3,0.1l-0.1,0.3L74,80.1v0.6l0.1,0.2l0,0.3l0.2,0.2l0.4,0l0.3-0.2l0-1.2L74.9,79.5z M73.4,66.2  L73.4,66.2l-0.2-0.1l-0.1,0.1l0,0.2l0.1,0.1l0.1,0l0.1-0.1L73.4,66.2z M72.7,66.3l-0.2,0.2l0.1,0.1h0.1l0.1,0.1h0.1l0.1-0.1l0-0.3  l-0.1-0.1L72.7,66.3z M76,56.1l0.3,0.1l0.3,0l0.1-0.1l0.1,0.2l0.2-0.1l0.1-0.9l-0.3-0.1l-1-0.9l-0.3,0.1l0,1l0.4,0.4L76,56.1z   M76.4,67.8l-0.3-0.1l-0.1-0.4l-0.7,0.1l-0.3,0.3l-0.1,0l-0.3,0.4l-0.1-0.1H74l-0.5,0.5v0.7l-0.1,0.2l0,0.3l0.6,0.5l0.3,0l0.3,0.2  l-0.1,0.1l0,0.4l0.5,0.1l0.2-0.2l0.1-0.5l0.3-0.1l0.4,0.3l0.2-0.1l0.1-0.3l0-0.4l-0.1-0.2l0.4-0.3l0-0.6l-0.3-0.1L76.4,67.8z   M77.5,79.8l0,0.8l0.2,0.1l0.2-0.2l-0.1-0.7L77.5,79.8z M77.2,80.8L77.2,80.8l-0.1,0.4l0.1,0.1h0.1l0.2-0.2v-0.2l-0.1-0.1L77.2,80.8  z M79.2,63.9l-0.3,0l-0.1,0.2l-0.2,0.1l0,0.3l0.2,0.2l0.4,0.1l0.2-0.4l0-0.3L79.2,63.9z M78.2,45.7L78.2,45.7l0.1-0.2l-0.1-0.1  l-0.1,0l-0.1,0.1l0,0.2l0.1,0.1L78.2,45.7z M79.9,58.1l0-0.3l0.1-0.2l-0.1-0.1l-0.3,0l-0.1,0.1l0,0.4l0.1,0.1L79.9,58.1L79.9,58.1z   M81.8,53.9l-0.5-0.4l0-0.3l-0.3-0.5l-1.4,0L79.2,53l0,0.4l0.3,0.3l0.1,0.6l0.1,0.2l0,0.3l0.3,0.7l0.3-0.1l0.4,0l0.4,0.3l0.4-0.4  l0.3,0l0.1-0.7l-0.1-0.2L81.8,53.9z M80.5,47.9L80.5,47.9l-0.1,0.2l0.2,0.2l0.3,0l0.1-0.1v-0.2l-0.2-0.2L80.5,47.9z M82.5,53.4  l-0.4-0.1l-0.1,0.1l0,0.6l0.1,0.1h0.4l0.1-0.1L82.5,53.4L82.5,53.4z M78.7,59.8l0.2-0.1l0-0.4L78.7,59l-0.2,0.1l0,0.4L78.7,59.8z   M84,66.4L84,66.4L84,66.7l0.2,0.2l0.2-0.2l-0.2-0.2L84,66.4z M85.1,64.7H85l-0.1,0.1l0,0.3l0.1,0.1l0.3,0l0.1-0.1l-0.1-0.1  L85.1,64.7L85.1,64.7z M77.5,45.7l-0.1,0.2l-0.1-0.2l-0.3,0l-0.1,0.7l0.5,0.5l0.5-0.5l-0.1-0.1l0-0.3L77.5,45.7z M84.7,65.3  l-0.4,0.3l0,0.6l0.3,0.4l0.2-0.1l0-0.3l0.4-0.4L85,65.3l-0.3-0.1L84.7,65.3z M84.5,68l-0.2-0.2L84.1,68v0.1l0.2,0.2l0.3,0l0.1-0.1  l-0.1-0.1L84.5,68z M76.8,47.2L76.8,47.2l-0.1,0.4l0.1,0.1l0.2-0.2l0-0.2l-0.1-0.1H76.8z M85.5,67.4l-0.2-0.5L85.1,67L85,67.5  l-0.3-0.1l-0.2,0.2l0.3,0.8l0.3-0.1l0.3,0.1l0.1-0.1l-0.1-0.6L85.5,67.4z M81.1,48.5l0.3,0.1l0.1-0.7l0.1-0.1v-0.6l-0.9-0.8l-0.5,0  L80,47l0.3,0.5l0.3,0l0.3-0.3l0.1,0.1L81.1,48.5z M76.6,46.6L76.6,46.6l-0.1,0.2l0.2,0.2l0.3,0l0.1-0.1l-0.4-0.4L76.6,46.6z   M77.8,45.9l0,0.2l0.1,0.1l0.1,0l0.1-0.1l0-0.1L78,45.9L77.8,45.9L77.8,45.9z M80,46.5l-0.2-0.2l-0.1,0.1l0,0.3l0.1,0.1L80,46.5z   M79,43.9l-0.1,0L78.8,44l0,0.3l0.1,0.1l0.1,0l0.1-0.1L79,43.9L79,43.9z M79.1,45.1l0.3,0l0.2-0.2v-0.1l0.1-0.2l-0.1-0.2h-0.4  l-0.1,0.1l0,0.2L79,44.7L79.1,45.1L79.1,45.1z"/></svg>