<svg xmlns="http://www.w3.org/2000/svg" xmlns:xlink="http://www.w3.org/1999/xlink" version="1.1" x="0px" y="0px" viewBox="-461 335 100 100" fill="#e0e0e0" style="enable-background:new -461 335 100 100;" xml:space="preserve"><polygon points="-361.7,367.4 -361.4,367.1 -361.4,366.7 -361.3,366.5 -361.2,366.3 -361.4,365.9 -361.5,365.6 -361.7,365.4   -362.2,364.9 -362.7,364.7 -362.7,364.5 -363,364.4 -363.2,364.5 -363.5,364.6 -363.8,364.7 -364.8,364.7 -365,364.8 -365.1,364.8   -365.1,364.7 -365.4,364.2 -365.6,363.5 -365.8,363.1 -366.9,361.6 -366.9,361.6 -367,361.6 -367,361.6 -367.3,361.7 -367.5,361.8   -367.8,361.7 -368.1,361.6 -368.2,361.6 -368.2,361.6 -368.4,361.7 -368.5,361.7 -368.6,361.7 -368.7,361.6 -369.4,360.5   -369.6,360.1 -369.6,359.8 -369.5,359.5 -369.5,359.3 -369.7,359.1 -369.8,359.1 -370.2,359.1 -370.2,358.7 -370,358.1   -370.5,357.8 -371,357.7 -371.5,357.9 -371.6,358.1 -371.6,358.1 -372,358 -372.3,358.4 -372.5,358.6 -372.8,358.7 -373.7,358.6   -374,358.6 -374.2,358.7 -375,358.7 -375.2,358.8 -375.7,359.1 -376.3,359.2 -377.1,359.6 -377.5,359.6 -378,359.4 -378.4,359.1   -378.7,358.7 -379.6,357.5 -379.7,357.2 -379.8,356.3 -380,356.1 -380.2,356 -380.8,356 -381,355.9 -381.1,355.7 -381.2,355.3   -381.3,355.1 -381.4,355 -381.7,354.9 -382.2,354.6 -382.4,354.6 -383.2,354.8 -383.7,354.8 -383.9,354.9 -384.2,355 -384.3,355.2   -384.4,355.5 -384.6,355.7 -384.8,355.8 -385,355.8 -385.2,355.6 -385.4,355.5 -385.9,355.6 -387.1,356.2 -387.4,356.1   -387.7,355.8 -388.1,355.6 -388.6,355.5 -388.9,355.6 -389.4,355.5 -390.3,355.1 -390.8,355 -391,354.9 -391.4,354.5 -391.6,354.4   -391.9,354.4 -395,355.1 -395.9,355.2 -396.3,355.4 -396.3,355.5 -396.3,355.7 -396.3,356.1 -396.3,356.3 -396.3,356.4   -396.5,356.7 -397,357.2 -397.2,357.5 -397.4,357.9 -398,359.6 -398.3,360.3 -398.6,360.8 -399.1,361.2 -399.4,361.4 -399.6,361.3   -399.8,361.1 -400,361 -400.2,361.1 -400.7,361.5 -400.9,361.6 -401.2,361.6 -401.3,361.5 -401.4,361.5 -401.6,361.8 -401.7,361.9   -401.8,362.3 -401.9,362.5 -402,362.6 -402.3,362.7 -402.9,363.1 -403.5,363.3 -403.8,363.5 -404.5,364.1 -404.8,364.3   -405.1,364.2 -405.7,363.6 -406,363.5 -406.6,363.7 -406.7,363.7 -406.8,363.5 -406.8,363.3 -406.7,363.1 -406.7,362.9 -407,362.6   -407.3,362.6 -408,362.7 -408.2,362.6 -408.5,362.2 -408.6,362.1 -408.8,362 -408.9,362 -410.3,362.4 -410.6,362.5 -410.7,362.9   -410.9,363.7 -411,364.1 -411,364.1 -411,364.2 -411,364.5 -411,364.6 -411.8,365.1 -413.8,365.1 -414.7,365.7 -414.9,365.7   -416.7,365.5 -417.6,365.6 -418.2,365.6 -418.4,365.7 -420.5,366.2 -420.8,366.4 -421.2,367.2 -421.3,367.3 -421.6,367.3   -421.7,367.4 -421.9,367.7 -421.9,367.7 -421.8,367.8 -421.7,368.1 -421.9,369 -421.9,369.5 -421.8,369.9 -421.4,370.3   -420.8,370.7 -421.2,370.8 -421.6,370.9 -421.8,371.1 -422.3,371.7 -422.7,371.9 -423.1,371.9 -423.5,371.8 -424.1,371.6   -424.7,371.5 -427.8,371.9 -428.9,372.3 -429.4,372.4 -431.2,372.2 -435.5,372.5 -436.7,372.1 -437.7,371.6 -437.8,371.5   -437.9,371.2 -438.2,371 -438.5,370.7 -438.7,370.6 -438.9,370.7 -439.1,370.7 -439.2,370.7 -439.4,370.5 -439.9,369.8 -440,369.7   -440.4,369.6 -440.5,369.6 -440.7,369.5 -442.2,367.4 -442.7,367 -443.6,366.9 -444.4,366.7 -444.9,366.6 -445.5,366.9   -446.4,367.7 -446.2,367.9 -446.2,368 -446.3,368.1 -446.4,368.3 -446.4,368.4 -446.5,368.5 -446.5,368.5 -446.5,368.6   -446.5,368.6 -446.4,368.7 -446.3,368.7 -446.4,369.1 -446.5,369.4 -446.6,369.6 -446.9,369.8 -447.4,369.9 -447.6,370   -447.6,370.2 -447.5,370.3 -447.2,370.5 -447.1,370.6 -446.9,371 -446.8,371.1 -447,371.4 -447,371.7 -446.9,372.2 -446.9,372.9   -446.8,373.1 -446.7,373.3 -446.5,373.4 -446.8,373.5 -447.8,373.6 -449,373.9 -449.5,373.8 -449.7,373.2 -449.9,373.4   -450.2,373.8 -450.4,374 -450.5,374 -451.4,373.9 -451.5,373.8 -451.7,373.6 -451.8,373.4 -451.9,373.2 -451.9,373 -452.1,372.9   -453.3,372.4 -453.9,372.3 -454.5,372.6 -454.6,372.8 -454.5,373.1 -454.6,373.3 -454.7,373.4 -455.3,373.7 -455.5,373.9   -455.6,373.9 -455.7,373.9 -455.8,373.8 -455.8,373.7 -456,373.8 -456.2,374.2 -456.3,374.4 -456.1,374.5 -455.2,374.8   -454.8,374.8 -453.9,375.1 -453.4,375 -453.1,375.2 -452.8,375.5 -452.7,376 -452.8,376.4 -452.5,376.6 -452.3,376.8 -452.2,377.1   -452.2,377.4 -452.4,377.7 -452.8,377.8 -453,378 -452.9,378.9 -453.7,379.5 -455.3,380.2 -455.4,379.9 -455.6,379.8 -455.8,379.9   -456,380.1 -455.9,381 -456,381.1 -456.1,381.1 -456.1,381.1 -456.1,381.3 -456.1,381.4 -456,381.4 -455.9,381.4 -455.9,381.5   -455.5,382.4 -455.4,382.8 -455.5,383.1 -455.7,383.2 -456.2,383.5 -456.1,383.9 -456.3,384.3 -456.3,384.7 -456.2,384.8   -455.9,384.8 -455.8,384.9 -455.8,385.1 -456,385.5 -456,385.6 -455.8,385.7 -455.3,385.5 -455,385.5 -454.8,385.7 -454.9,386   -455.3,386.4 -455.6,386.6 -455.7,386.9 -455.6,387.2 -455.3,387.3 -455.1,387.4 -455,387.5 -455.1,387.6 -455.3,387.8 -455.9,388   -456.1,388.2 -455.7,388.3 -455.5,388.3 -455.3,388.5 -455.2,388.8 -455.5,388.9 -455.9,388.9 -456.1,388.9 -456.2,388.9   -456.3,389 -456.3,388.9 -456.4,388.9 -456.7,388.7 -457,388.7 -457.6,388.7 -458.1,388.6 -458.3,388.7 -458.5,388.9 -458.5,389.2   -458.7,389.3 -458.8,389.4 -459,389.5 -459,389.6 -459,389.7 -459,389.9 -459.1,390 -459.2,390.1 -459.5,390.2 -459.9,390.5   -460,390.7 -460.6,391.4 -460.8,391.6 -461,391.7 -460.4,391.8 -458.4,391.7 -458.2,391.8 -457.9,392.1 -457.8,392.2 -457.6,392.2   -457.5,392.3 -457.6,392.5 -457.7,392.8 -457.8,393 -457.9,393.3 -458,393.6 -458,393.7 -457.8,394.3 -457.6,394.5 -457.5,394.7   -457.3,394.9 -457.1,394.9 -457.1,395.2 -456.9,395.3 -456.6,395.3 -456.4,395.5 -456.3,395.9 -456.5,396.1 -456.8,396.2   -456.9,396.4 -456.8,396.7 -456.6,396.9 -456,397.2 -455.5,398 -455,398.4 -454.8,399.4 -454.7,399.4 -454.1,399.8 -453.9,400   -453.8,400 -453.7,399.8 -453.6,399.8 -453.5,399.8 -453.4,399.9 -453,400 -452.7,400.2 -452.4,400.5 -452.2,400.9 -451.9,401.3   -451.4,401.5 -451.3,401.9 -451.1,401.9 -451,401.6 -450.9,401.7 -450.5,401.8 -450.5,401.8 -450.4,401.9 -450.3,402 -450.3,402   -450.2,402.1 -450.1,402 -450.1,402 -450,402 -449.8,402.1 -449.6,402.4 -449.5,402.8 -449.5,403.1 -449.3,403.9 -449.2,404   -449.1,404.1 -448.5,404.7 -448.1,405.4 -448,405.6 -447.2,406.2 -447.1,406.4 -447,406.6 -446.8,406.8 -446.1,407.3 -445.9,407.5   -444.7,407.5 -444.5,407.6 -444,408.4 -443.9,408.6 -443.7,409.3 -443.7,409.5 -443.5,409.8 -443.3,409.9 -443.1,409.9   -442.9,410.1 -443.1,410.1 -443.2,410.2 -443.4,410.3 -443.4,410.4 -443.1,410.5 -443,410.6 -442.8,410.7 -442.7,410.4   -442.6,410.8 -442.6,411 -442.5,411 -442.2,411 -441.9,410.9 -441.7,410.9 -441.7,411.3 -441.6,411.2 -441.5,411.2 -441.5,411.1   -441.4,411 -440.1,411.1 -439.5,411.2 -438.9,411.4 -438.2,412.2 -438.1,412.4 -438.1,412.6 -438,412.9 -438,413.1 -437.9,413.4   -437.8,413.4 -437.5,413.5 -435.7,414 -435.3,414.3 -435,414.8 -435,414.9 -434.9,414.9 -434.8,414.8 -434.7,414.6 -434.6,414.5   -433.3,414.5 -431.7,414.9 -431.6,414.9 -431.4,414.9 -431.1,414.7 -431,414.7 -429.8,414.7 -429.5,414.8 -429.1,415.1   -428.7,415.1 -428.5,415.4 -428.2,415.5 -428,415.4 -427.7,415.2 -427.5,415.2 -427.2,415.6 -427.1,415.6 -426.9,415.6   -426.8,415.5 -426.5,415.3 -426,414.7 -425.8,414.5 -425.5,414.7 -425.1,414.5 -424.4,414 -424.3,413.8 -423.9,413.1 -423.7,412.9   -423.7,412.9 -423.7,412.8 -423.6,412.5 -423.6,412.4 -423.2,412.1 -422.9,412 -422.2,412.3 -421.6,412.6 -421.4,412.6   -421.3,412.5 -421.2,412.4 -421.1,412.2 -421,411.9 -420.8,412.1 -420.7,412.1 -420.4,411.9 -420.1,411.9 -419.9,411.8   -419.8,411.6 -419.6,411.6 -419.5,411.6 -418.7,411.6 -418.5,411.7 -418.4,411.8 -418.3,411.7 -418.3,411.7 -418.3,411.6   -418.3,411.6 -418.3,411.6 -418.3,411.5 -418.4,411.4 -418.4,411.3 -418.4,411.2 -418.4,411.2 -418,410.9 -417.9,410.9 -417.7,411   -417.4,410.9 -417.4,410.3 -417.2,409.9 -416.8,409.7 -416.5,409.9 -416.4,410.1 -416.3,410.3 -416.2,410.3 -415.9,410.4   -414.7,410.6 -414.2,410.5 -414.2,410.5 -414.1,410.3 -414,410.1 -414,410 -413.9,409.7 -413.7,409.6 -413.6,409.5 -413.4,409.5   -413.4,409.4 -412.8,409.4 -412.6,409.4 -412.4,409.2 -412.3,409 -412.2,408.8 -412.2,408.8 -412,408.7 -411.9,408.7 -411.7,408.6   -411.5,408.4 -411.4,408.3 -411.3,408.2 -411.3,408.1 -411.3,408.1 -411.2,408 -411,407.9 -410.8,407.8 -410.9,407.6 -410.9,407.5   -410.9,407.4 -410.9,407.4 -411,407.3 -410.8,407.1 -410.7,407 -410.6,406.9 -410.4,406.8 -410.1,406.7 -410,406.6 -409.9,406.6   -409.8,406.6 -409.4,406.6 -408.6,406.4 -408.3,406.4 -408,406.5 -407.3,407 -406.7,407.3 -406.5,407.3 -405,406.8 -404.6,406.6   -404.4,406.6 -403.5,406.7 -402.9,407.1 -402.7,407.1 -402.4,407 -402.2,406.9 -402,406.8 -401.9,406.8 -401.9,406.8 -401.7,406.8   -401.6,406.9 -401.6,406.9 -401.4,407.1 -401.3,407.2 -401.3,407.2 -401.2,407.2 -400.9,407 -400.9,407 -400.6,407.1 -399.8,407.8   -399.2,407.1 -396.8,407 -396.5,406.4 -395.9,406.5 -395.3,406.8 -394.9,407.2 -394.7,407.3 -394.5,407.3 -394.4,407.3   -393.6,407.2 -393.3,407 -393.1,406.8 -393,406.6 -393,406.3 -392.9,406.1 -392.8,406.1 -392.7,406.1 -392.5,406.1 -392.4,406   -392.4,405.9 -392.5,405.4 -392.5,405.2 -392.5,405.1 -391.9,404.6 -391.6,404.4 -391.3,404.3 -391,404.3 -390.9,404.4   -390.6,404.6 -390.4,404.7 -390.3,404.7 -390.1,404.6 -390,404.5 -389.7,404.6 -389.2,404.8 -388.9,404.8 -388.7,404.8   -388.6,404.8 -388.5,404.8 -388.4,405 -388.1,405.2 -387.9,405.1 -387.2,404.3 -387.1,404.2 -386.6,404.2 -386.5,404.1   -386.4,403.8 -386.2,403.3 -386.2,402.4 -386.1,401.9 -385.8,401.6 -385.5,401.5 -384.9,401.5 -384.5,401.3 -384.6,400.8   -385.1,400 -385,399.5 -384.8,399.2 -384.6,398.9 -384.4,398.5 -384.3,397.7 -384.2,397.3 -384,397 -383.7,396.9 -383.1,397   -382.8,396.8 -382.5,396.4 -382.4,396 -382.2,395.8 -381.8,395.7 -381.5,395.5 -381.3,395.2 -381.2,394.7 -381.6,394.5   -381.6,394.4 -381.7,394.4 -381.7,394.3 -381.7,394.2 -381.7,394 -381.6,393.9 -381.5,393.8 -381.2,392.9 -381,392.6 -380.7,392.3   -380.2,392.2 -380,392 -379.9,391.7 -379.9,391.5 -380,391.3 -380,391 -380,390.8 -379.9,390.7 -379.9,390.7 -379.2,390.1   -379.1,390 -378.8,388.9 -378.7,388.9 -378.7,388.9 -378.9,388.6 -379,388.5 -379.1,388.5 -379.3,388.5 -379.3,388.3 -378.7,387.6   -378.4,387.3 -377.7,386.8 -377.4,386.5 -377.3,386.3 -377.2,385.9 -377.2,385.7 -377,385.5 -376.7,385.2 -376.5,385.1   -376.5,384.8 -376.5,384.6 -376.5,384.4 -376.5,384.1 -376.4,383.9 -376.3,383.6 -376.2,383.4 -376,382.6 -375.9,382.3   -375.4,381.5 -375.1,381.2 -374.8,381.1 -374.2,380.8 -373.9,380.3 -373.9,379.5 -374,378.8 -374,378.1 -373.8,377.5 -373.3,377.1   -372.4,376.4 -371.7,376.2 -371.5,376 -371.4,375.9 -371.4,375.7 -371.4,375.5 -371.4,375.4 -371,374.9 -371,374.7 -370.9,374.3   -370.8,374.1 -370.7,374 -370.5,373.8 -370.4,373.7 -370,373.2 -369.9,373 -369.6,372.9 -369.3,372.8 -369.2,372.8 -368.5,372.9   -368.3,372.8 -368.1,372.8 -367.9,372.6 -367.7,371.7 -367.3,371.6 -366.2,372.2 -365.7,372.2 -365.1,372.2 -364.6,371.9   -364.1,371.6 -363.8,371.1 -363.6,370.9 -363.3,370.8 -363,370.8 -362.9,370.7 -362.7,370.5 -362.8,370.3 -362.9,370.2 -362.9,370   -362.7,369.7 -362.4,369.5 -361.9,369.3 -361.6,369.1 -361.2,368.4 -361,368.1 -361.5,367.7 "/></svg>