<svg xmlns="http://www.w3.org/2000/svg" xmlns:xlink="http://www.w3.org/1999/xlink" version="1.1" x="0px" y="0px" viewBox="-461 335 100 100" fill="#999999" style="enable-background:new -461 335 100 100;" xml:space="preserve"><path d="M-443.1,381.7L-443.1,381.7L-443.1,381.7L-443.1,381.7l0,0.2l0,0h0.1l0-0.1l0,0l0,0l0-0.1l0.1-0.1l0-0.1h0l0,0h0l0,0l0,0.1  L-443.1,381.7L-443.1,381.7L-443.1,381.7L-443.1,381.7L-443.1,381.7z M-443.3,382L-443.3,382l-0.1-0.1l-0.1,0.1l0,0l0,0v0.1l0,0  l0.1,0.1h0.1l0,0.1l-0.1,0l0,0l0.1,0l0.1,0l0.1-0.1v0l0,0l0,0L-443.3,382z M-445.6,378.8L-445.6,378.8l0.1-0.1l0,0L-445.6,378.8  l-0.2,0l0.1,0H-445.6L-445.6,378.8z M-366.9,393.1l-0.1,0l-0.1,0h-0.1l0-0.1l0,0.1l0,0v0.1l0,0l0,0v0l0.1,0l0.1,0.1l0,0l0.1,0l0.1,0  l0-0.1L-366.9,393.1L-366.9,393.1z M-444,381.2l0.2-0.1l0,0l0-0.1v0l0.1-0.1l0-0.1l0.1,0l0-0.1l-0.1,0l-0.3,0.3L-444,381.2  L-444,381.2z M-442.7,383.1l0.1-0.2h0l0.1,0l0.5-0.1l0-0.1l-0.3-0.1l-0.4,0.1l0,0l-0.1,0l0,0.1l0,0.1L-442.7,383.1L-442.7,383.1z   M-389,408.7l0,0.1l0,0l0.5-0.8l0-0.1l-0.1,0.1L-389,408.7z M-389.5,409.4L-389.5,409.4l0,0.1l0.1,0l0.2-0.3l0,0L-389.5,409.4z   M-392.5,409.4l0,0.3l0.1,0l0-0.2L-392.5,409.4L-392.5,409.4z M-389.7,409.7L-389.7,409.7l-0.1,0.1l0.4-0.1l-0.1,0L-389.7,409.7z   M-390.6,409.9L-390.6,409.9l0.6-0.1l-0.4,0.1L-390.6,409.9z M-389.9,409.8L-389.9,409.8L-389.9,409.8L-389.9,409.8z M-391.4,409.8  l0,0.1l-0.4,0.1l0.9-0.1l0,0l-0.1-0.1L-391.4,409.8z M-394.3,410L-394.3,410l0.3,0.1l0.1,0l-0.3,0L-394.3,410z M-394.9,410l-0.5,0.1  v0l0.7-0.1l0,0L-394.9,410z M-393.6,410L-393.6,410l0.9,0l-0.4-0.1L-393.6,410z M-370.6,354.1L-370.6,354.1L-370.6,354.1  L-370.6,354.1z M-401.7,350.8l0.2-0.1l0-0.2l-0.1-0.1l-0.2-0.3l-0.1,0.1l0,0.4L-401.7,350.8z M-399.5,411.4l-0.1,0l-0.1,0l-0.2,0.1  l-0.3,0.3l0,0.2l0.4-0.1l0.1,0l0.1,0.1l0,0.1l0,0.1l-0.1,0.1l0.1,0l0.1-0.2l0.1-0.2l0-0.2L-399.5,411.4z M-405.4,362.8l0,0.2  l0.1,0.1l0.1,0.1l0.1,0l0.1-0.1h0v-0.3l-0.1-0.3l-0.1-0.1l-0.1-0.1l-0.2-0.2l-0.1,0.1l0.1,0.3L-405.4,362.8z M-422.2,416.9l0-0.1  l0,0l-0.2,0l-0.2,0.1l0,0.2l0.1,0.2l0.1,0.1l0,0.2l0.1,0.1l0.1-0.1l0.1-0.2l0.1-0.2L-422.2,416.9L-422.2,416.9z M-361,382.6  l-0.2-0.1v-0.2l0-0.3l0-0.4v-0.5l0-0.3l-0.4,0.4l-0.3,0.5l0,0.1l-0.1,0.1l-0.1,0.3l-0.1,0.1l0,0l-0.1-0.1l-0.1-0.1l-0.1,0h-0.3  l0.1-0.1l0.1-0.1l0.1-0.1l0.1,0v-0.1l-0.2-0.1l-0.7,0.1v-0.2l0.3-0.1l0.3,0l0.3-0.2l0-0.1V381l0-0.1l0-0.1l0.1-0.2l0-0.2l-0.1-0.1  h-0.3l-0.6,0.2l-1.4-0.2l-1.1,0.2l-0.3-0.2h0.6l0.5-0.1h1.2l1.1-0.3l0.2-0.1l0.4-0.6l0.2-0.2l-0.1-0.3l-0.2-0.3l-0.4-0.3l-0.3-0.1  l-0.9,0.2l-0.4,0l-1.4,0.5l-0.1-0.2l0.2-0.1l0.8-0.1l0.4-0.2l0.2-0.1h0.5l0.3-0.1l0.2-0.2l0-0.4l-0.7-0.2l-0.2-0.2l0.4-0.2l0.8,0.1  l0.3-0.2v-0.2l0-0.2v-0.2l-0.1-0.1l0.3-0.2l0.1-0.1v-0.2l-0.1-0.4l0-0.1l0.1-0.2l0.2-0.2l0.1-0.3l0-0.5l-0.1-0.1l-0.3-0.4l-0.1,0  l-0.1,0l-0.1,0l0-0.1v-0.1l0-0.1l0-0.1l-0.3-0.1l-0.2,0.2l-0.4,0.6l-0.2-0.1l-0.1-0.1l-0.1-0.2l0-0.3l0-0.2l0-0.2l-0.1-0.1l-0.1,0  l-0.3,0V372l0.1,0l0-0.1l0-0.2l-0.1-0.3l-0.1-0.1l-0.2,0l-1,0.3l-0.2,0l-2-1.2l0.1,0.2l0.3,0.3l0.1,0.2l-0.7-0.5l-0.2-0.1l-0.2,0.1  l-1.1,1.7l-0.2,0.4l-0.1,0.1l-0.3,0.3l-0.1,0.1l-0.1,0.1l-0.2,0.5l-0.1,0.2l0-0.4l0.1-0.3l0.1-0.3l0.7-0.8l0.2-0.5l0.5-0.6l0.2-0.6  l0.3-0.2l0.5-0.2l-0.2-0.2l-0.6-0.4l-0.2-0.2l0-0.1l0-0.1l-0.1-0.2l0-0.2l0.2-0.2l0.4-0.9l-0.3-0.3l-0.4,0.1l-0.7,0.4l-1.9,0.5  l-0.7,0.4l-0.3,0.1l-0.3-0.2l0.1-0.4l0.3-0.5l0.1-0.5l-0.4,0.6l-0.2,0.2l-0.3,0l0.5-0.5l0.2-0.3l0-0.4l0.2-0.3l0.7-0.5l0.6-0.7  l0.1-0.1l0-0.2l0.2-0.5l0-0.1l0-0.2v-0.1l0-0.1l0.1-0.1l0-0.1l0-0.2l-0.1-0.5l0-0.3l-0.1-0.1l-0.1,0l-0.1-0.1l0-0.3l0-0.5l-0.1-0.3  l-0.2-0.2l-0.2-0.1l-0.5,0.1l-0.8,0.7l-0.4,0l-0.6-0.3l-1,0l-0.2-0.1l0.1-0.1l0.2-0.2l0.1-0.1l0-0.4l-0.1-0.2l-0.5,0l-0.1-0.1  l-0.3-0.2l0.2-0.5l0.2-0.2l0.6,0l0.1-0.1l0.9-0.8l0.1-0.2l0.1-0.4l0-0.3l-0.1-0.1l0-0.1l-0.2-0.4l0,0l0-0.2l-0.1-0.1l-0.2-0.1  l0.2-0.4l0.3-0.2l0.8-0.2l0.7-0.6l1.6-0.7l0.4-0.5l-1.7,0.3l-0.2-0.1l-0.4-0.3l-0.2-0.1l-0.8,0.1l-0.2,0.2l-0.4,0.4l-0.2,0.3  l-0.1,0.3l-0.1,0.3l-0.6,0.4l0,0.2l0,0.2l0,0.2l-0.6,0.2h-1.1l-0.3,0.2l-0.1,0.2l0,0.3l0,0.5l0,0.4l-0.1,0.4l-0.1,0.3l-0.2,0.1  l0,0.1l0,0l0.1,0l-0.2,0.2l-0.2-0.2l-0.2-0.3l-0.3-0.2l-0.3-0.3l-0.2-0.1l-0.1-0.1l-0.1-0.2l0-0.2l-0.1,0.1l-0.1,0h-0.1l-0.1-0.2  l0-0.1l-0.1,0l-0.3,0.1l-0.7,0l-0.1-0.1l0.1-0.3l0-0.3l0-0.2l-0.3-0.1l-0.1-0.1l-0.1-0.1l-0.1,0.1l-0.1-0.3l0.3-0.2l0.2-0.3l0.4-0.7  l-0.2-0.6v-0.1l0-0.2l-0.1-0.2l-0.1-0.2l-0.2-0.1h-0.9l0-0.1l0-0.3l0-0.1l-0.2,0.1l-0.4-0.1l-0.3,0.1l-0.1,0l0.1-0.2l0-0.1l-0.1-0.2  l0-0.1l0.2-0.2v-0.1l0,0l-0.1,0l0.1-0.4l0.1-0.1l0.1-0.1l0.1-0.2l-0.4-0.2l-0.8-0.8l-0.4,0.2l-0.1,0.1l-0.5-0.2h-0.3l-0.2,0.1  l-0.1,0.1l-0.1,0.4l-0.1,0.1l-0.1,0l-0.1-0.3l0-0.1l-0.1,0.1l-0.1,0.2l-0.1,0.2v0.2l0,0l-0.2,0.1l-0.2,0l-0.2-0.1l0.1,0l0.1-0.1  l-0.2,0l-0.1-0.1l-0.1-0.2l-0.1-0.1l-0.1,0l-0.3,0.2l-0.1,0.1l0,0.1l0,0.1v0.1l0,0.1l-0.1-0.1l-0.1-0.2l0-0.2l0-0.3v-0.2l-0.1,0  l-0.3,0.1l-0.1,0.1l-0.1,0.2l0,0.2l0,0.1l-0.1,0l0-0.1l0-0.2l-0.1-0.1l-0.2,0l-0.2,0.3l-0.1,0.3l0.2,0.3l0.2,0.7l0.2,0.2v0.2h-0.2  l0.1,0.3l0,0.1l0.1,0.1l0,0.1l-0.1,0.2l0,0.1l0.1,0l0,0l-0.1,0.4l0.1,0.2l0.3,0.2l0,0.1l0,0.2l0,0.2l0,0.1l0.1,0l0.1,0l0,0.1  l0.1,0.3l0.1,0.2l0.1,0.2l0,0.3l0,0.2l-0.1,0.2l-0.1,0.2l0,0.1v0.1l-0.2,0.1l-0.1,0.2l-0.1,0.3l0,0.3l0.1,0.3l0.2,0.3l0.3,0.3v0.2  l-0.2,0l-0.4-0.5l-0.2-0.2l-0.2,0l-0.8,0.3l0.3-0.3l0.8-0.5l-0.2,0l-0.4,0.2l-0.6,0.2l-0.4,0.3l0.2,0.2l0,0.2v0.2l0.1,0.3l0.1,0.2  l0.1,0.2l0.3,0.2v0.1l-0.3-0.1l-0.2-0.3l-0.2-0.4l-0.2-0.3l-0.1,0.1l-0.1,0.2l-0.2,0.5l-0.1,0l-0.2-0.3l-0.1-0.1l0.1-0.2l0.1-0.1  l0.1-0.1h0.1l-0.3-0.1l-1.1,0.3l-0.3,0.3l0.1,0.1l0.1,0l-0.1,0.1l-0.1,0l-0.1,0l-0.1-0.1V360h0.1v-0.2l0-0.1l-0.4-1l-0.2-0.4  l-0.2-0.2l-0.9-0.1l-0.2-0.2l-0.1,0.4l-0.6,0.2l-0.2,0.3l-0.2,0.3l0,0.2l0.1,0.1l0.1,0.1l0,0.3l-0.1,0.3l-0.1,0.1l-0.2,0.1l-0.3,0.2  l-0.2,0.3l-0.1,0.3l0,0.3l0,0.3l0,0.1l0,0.2l-0.1,0.1l-0.1,0.2l0,0.3l-0.1,0.2l-0.1,0.2l-0.1,0.1v0.1l0.1,0.1l0,0.1l0,0.2l0,0.2  h-0.1l-0.1-0.4l-0.1-0.3l-0.1-0.1l-1.4,0l0.2,0.2l0.8,0l-0.2,0.1l-0.2,0.1l-0.2,0.1l-0.2,0l0.1,0.3l0.1,0.3l0.1,0.3l0,0.4l-0.1-0.3  l-0.3-0.9l-0.2-0.5l-0.2-0.2l-0.3-0.2l-0.1-0.3l-0.1-0.6l-0.1-0.3l-0.4-0.6l-0.1-0.1l-0.2-0.1l-0.3-0.4l-0.1-0.1l-0.4,0.1l-0.1-0.1  l-0.1-0.2l-0.1-0.4l-0.1-0.2l-0.4-0.2l-0.9,0.2l-0.3-0.2l0,0l0,0v0l0-0.1l-0.1,0l-0.4,0l-0.1,0l-0.2-0.2l-0.1-0.1l-0.8-0.1l-0.1,0  l-0.2,0.6l0,1l0.1,1l0.3,0.6v0.2h-0.1v0.1l0.1,0.2l0.2,0.5l0.3,0.2l0.1,0.2l0,0.3l-0.1,0.3l0.1,0.2l0.3,0.4l0.1,0.1l0,0l0.1-0.2  l0-0.1l0,0l0,0l0,0l0,0l0.1,0.1l0.2,0.4l0,0l0.1,0h0.1l0,0.1l0,0.3l0,0.1l0.3,1.1l0,0.3l-0.1,0.4l0,0.1l-0.2,0.1l0,0.1l0,0.2v0.2  l0,0.1v0.2l0,0.1l0,0.1l0,0.1l0,0.2l0.1,0.1l0.2,0.1l0.1,0.1l0.1,0.3l0.1,0.4l0,0.4l-0.1,0.3l-0.1-0.1l-0.1-0.3l0-0.4l0-0.3  l-0.4-0.5l-0.3-0.4l-0.1-0.1l0-0.1v-0.9l0-0.2l-0.2-0.4l0-0.2l0-0.6l0-0.2l-0.1-0.3l-0.1-0.1l-0.1,0l-0.2,0l-0.1,0l0-0.1l0-0.1  l-0.1-0.3l-0.1-0.3l-0.1-0.2l-0.2-0.2l-0.1-0.4l-0.1-0.2l-0.1-0.1l-0.7-0.1l-0.4-0.3l-0.6-0.2l0-0.2l0.1-0.4l0.2-0.7l-0.1-0.3  l-0.1-0.5l-0.1-0.4l-0.1-0.2l-0.1-0.1l-0.1-0.1l-0.1-0.1l-0.1,0.1l-0.1,0.1l-0.1,0.1l-0.1,0l-0.1,0l0.3-0.6l0.1-0.4l-0.1-0.2  l-0.2-0.1l-0.2-0.3l-0.2-0.3l-0.3-0.1l-0.6,0.7l-0.1,0l0-0.3l0.1-0.5l0.1-0.3l-0.5-0.2l-0.2,0l-0.2,0.1l0,0.1l0,0.2l-0.2,0.5  l-0.1,0.2l-0.2,0.1l0.1-0.7l-0.3-0.1l-0.8,0.3l-0.3,0.3l-0.1,0.1l-0.1,0.2l-0.1,0.5l-0.1,0.1v0.1l0,0l0.1,0.1l0,0v0.1h-0.1l0,0.2  l0.1,0.2l0.1,0.1l0.1,0.1l-0.2,0l-0.3-0.3l-0.2-0.1l0-0.2l0-0.1l-0.1,0l-0.1,0l-0.1,0.1l-0.1,0.1l0,0.4l-0.2,0l-0.4-0.3l-1.2,0.2  l-0.5,0.3l-0.2,0.2l-0.1,0.2l0,0.1v0.1l0.1,0.5l0.1,0.2l0.1,0.2l0.1,0.1l-0.1,0.3l-0.2,0.2l-0.2,0.1l-0.2,0l-0.1,0.1l-0.1,0.2l0,0.2  v0.2l0.5,0.6l0,0.1l0.3,0.8l0.1,0.5l0.1,0.5l0,0.6l-0.1,0.6l-0.1,0.6l-0.1,0.3l-0.1,0.1l-0.2,0.1l-0.1,0l0-0.2l0-0.1l0.1-0.1l0.1,0  l-0.3,0l-0.1,0l-0.1-0.1l-0.1-0.2l0,0l-0.3,0l-0.1,0.2l-0.1,0.5l-0.2-0.3l-0.5-0.1l-0.2-0.3l-0.1-0.3l0-0.6l0-0.3l-0.1-0.2l-0.2-0.4  l0-0.1l0-0.2l0-0.2l-0.1-0.2l0,0l-0.1,0l-0.1-0.1l-0.1-0.2l-0.1,0l-0.1,0l-0.4-0.2l-0.5-0.1l-0.2-0.2l0-0.4l-0.2-0.3l-0.2-0.2  l-0.2-0.3l0-0.1l0-0.2l0-0.1l-0.1-0.1l0-0.1l0-0.2l-0.1-0.2l-0.4-0.7l-0.1-0.3l-0.1-0.3l-0.1-0.2l-0.1-0.1l0.1-0.2l-0.2-0.1  l-0.2-0.2l-0.1-0.3l0-0.5l-0.2,0.2l-0.2,0l-0.4-0.2l-0.1,0.1l-0.3,0.4l-0.2,0.1l-0.3,0l-0.1,0l-0.1,0.1l-0.2,0.2l-0.1,0l-0.4,0  l-0.2,0l-0.2,0.2l0.1,0.3l0,0.4l-0.1,0.3l-0.1,0.2l0.2,0.2l0.1,0.2l0.1,0.3l0.1,0.4l0.1,0.8l0.1,0.2l0.3,0.8l0.2,0.7l0.1,0.6  l-0.2,0.2v0.2l0.2,0.2l0.2,0.4l0.2,0.5l0.1,0.6l0,0.4l-0.1,0.3l-0.1,0.2l-0.1,0.1l-0.1,0.1l0,0.3l0.1,0.3l0.2,0l-0.2,0.1h-0.2  l-0.1,0.1l0,0.2l0,0.4l0,0.2l-0.1,0.3l-0.3,0.4l-0.1,0.3l0.1,0.3l-0.1,0.3l-0.1,0.3l0,0.4l-0.1-0.3l0-1l-0.1-0.2l-0.1,0l-0.3,0.2  l-0.1,0l-0.3,0l-0.3,0.1l0.1,0.1l0.1,0l0.3,0l0.1,0.1l0.1,0.3l0.1,0.1l-0.1,0.5l0,0.3l-0.1,0.2l-0.2,0.1l-0.1,0l-0.1,0l-0.1-0.1  l-0.1-0.1l-0.1-0.1l0-0.1l0-0.1l-0.1-0.2l-0.1-0.1l-0.2-0.1l0,0v-0.1l0-0.1l0-0.2l0-0.3v-0.1l0-0.1l-0.1-0.1l-0.2-0.2l-0.1,0.2  l0,0.4l0.1,0.4l-0.2,0.1l-0.1-0.2v-0.4l0.1-0.4l-0.1-0.3l0-0.4l0.1-0.9l0-0.1l0,0l0,0l0-0.2l0,0l-0.1,0l0,0l-0.2-0.3l-0.1-0.1  l-0.1,0l0,0.2l-0.1,0.1l-0.2,0l-0.2,0.1l-0.6,0.8l-1,0.8l-0.3,0.5l0,0.1l-0.1,0.6l0,0.1l-0.1,0.2l0,0.1l0,0.3v0.4l0,0.5l0.1,0.6  l0.2,0.7l0.2,0.7l0.2,0.5l-0.1,0.2l-0.1-0.1l-0.3-0.1l-0.1-0.2l0-0.1l-0.3-0.5l-0.3-0.9l-0.2-0.4l-0.3-0.2l-0.1,0.3l0,0.7l0.2,1.7  v0.3l-0.1,0.3l-0.1,0.1l-0.1,0.1l-0.1,0.1l0,0.2l-0.1,0.1l-0.1,0.2l0.1,0.2l0.2,0.3l0.1,0.2l0,0.2l0,0.4l0.1,0.5l-0.1,0.3l-0.1,0.1  l-0.1-0.1v-0.1l0.1-0.4l-0.1-0.4l-0.2-0.4l-0.2-0.2l0-0.1v0l0,0l0,0l-0.1-0.2l-0.4-1.1v-0.2l0-0.4v-0.3l-0.1-0.5v-0.3l0-0.2l0-0.2  l-0.1-0.1l0.1-0.4l-0.1-0.2l-0.3-0.3l-0.3-0.4l-0.1-0.1l-0.2,0l-0.2,0.1l-0.4,0.3l-0.9,0.4v-0.1l0.4-0.2l0.5-0.6l0.5-0.8l0.2-0.8  l-0.2-0.9l-0.5,0.1l-0.6,0.5l-0.4,0.3v-0.1l0.2-0.2l0.5-0.7l0.1-0.2l-0.1-0.3l-0.3-0.1l-1.5,0l-0.2-0.1l0-0.1l-0.1-0.1l-0.1-0.2  l0-0.3l0-0.1l-0.1-0.1l-0.1-0.1l0.1-0.2l0.1-0.1l0-0.2l0-0.3l0,0l-0.2-0.4l0-0.1l-0.1-0.1l-0.4-0.3l-0.2,0l0.3-0.2h0.3l0.3,0.1  l0.2,0.3l0,0.2l0.1,0.3l0.2,0.3l0.2,0.1l0,0.1l0.2,0.3l0.1,0.1l1.2,0.1l0.3-0.2l0.7-0.9l-0.1-0.1l-0.5-0.3l-0.1,0l-0.3,0.1l-0.2,0  v-0.2l0.9-0.4l0.3-0.2l0.2-0.3l0.5-1.1v-0.2l-0.4-0.3l0.3-0.2l0.1-0.3l0-0.4l-0.1-0.5l-0.2-0.2l-1,0.3v-0.1l0.4-0.3l0.1-0.2  l-0.3-0.2l-0.9,0.2l-0.5,0.3l-0.3,0l-0.2-0.3h0.1l1-0.3l0.3-0.2l1.3-0.1l-0.1-0.5l-0.2-0.3l-0.2-0.1l-0.3-0.1l-1,0.3l-0.2-0.2  l-0.2-0.3l0-0.2l0.1-0.2l0.1,0l0.2-0.2l0.1-0.2l-0.2-0.1l0-0.1l0-0.2l0-0.2l-0.1-0.1l-0.4,0l-0.3,0.2l-0.1,0.1l0.2,0.4l0,0.2v0.4  l-0.1,0.1l-0.1,0.1l-0.1,0.1l-0.1,0l0.1-0.2l0.1-0.2l0.1-0.3l0-0.3l-0.1-0.2l-0.2,0l-0.2,0.1l-0.1,0l-0.1-0.1l-0.1-0.1l0-0.4l0-0.4  v0l0-0.1l-0.1-0.2l0-0.1l0.1-0.1v-0.3l-0.1-0.3l-0.2-0.1l0-0.2l0-0.1l-0.6-0.3l-0.1,0l-0.2,0.1h-0.1l-0.1-0.1l-0.1-0.2l-0.4-0.4  l-0.1,0l-0.1,0.1l-0.1,0.1l-0.1,0.1l-0.1-0.1l0.5-0.5l0.1-0.2l-0.4-0.6l-0.1-0.1l-0.1-0.1h-0.1l-0.1,0.1l-0.2-0.1l-0.6,0.1l0-0.3  l-0.1-0.2l-0.1,0l-0.1,0.3l-0.1,0.2l-0.1-0.1l-0.1-0.2l-0.1-0.1h-0.1l-0.1,0.1l-0.1,0.1l-0.1,0.1l-0.1-0.1v-0.2l0.1-0.2l0-0.2  l-0.1-0.2l0-0.1v-0.2l0-0.2l0.1-0.1l0.2,0v-0.1l-0.4-0.1l-0.1-0.1l0.1-0.2l-0.2-0.4l-0.7-0.4l-0.2-0.3l-0.1-0.5l-0.2-0.4l-0.3-0.3  l-0.3,0l0.1,0.2l0.2,0.2l0.1,0.2l0,0.3l-0.1,0l-0.6-0.3l-0.3-0.3l-0.3-0.2l-0.4,0.1l0,0.2l0,0.1l-0.2,0.2l-0.4,0.4l-0.2,0l-0.2-0.1  l-0.3-0.4l-0.4-0.2l-0.3-0.3l-0.2-0.1h-0.9l0.5,0.4l0.1,0.1l0.1,0.1l0,0.2l-0.1,0.2l-0.2-0.1l0-0.1l-0.1-0.3l-0.1-0.1l-0.1,0l-1,0.2  l0.1,0.1l0,0.1l0.1,0.3l-0.3-0.1l-0.3-0.3l-0.3-0.1l-0.3,0.2l0.2,0.4l0.3,0.3l0.3,0.2l0.3,0l-0.2,0.7l-0.4,0.1l-0.4-0.2l-0.4,0  l-0.1,0.2l0.1,0.1l0.1,0.1l0.3,0.3l0.4,0.2l1.4,0.4l0.2-0.3l0.1,0l0.4-0.6l0.2-0.2l0.1-0.1l0.3-0.1v0.2l-0.1,0.2l-0.1,0.3l-0.1,0.3  l0.1,0.1l0.4-0.1l0.2-0.1l0.7-0.8l0.3-0.2l0.4-0.1l-0.4,0.2l-0.1,0.1l0,0.1l0,0.5l0,0.2l-0.2,0.2l-0.1,0.2l0,0.2l0.1,0.1l0.4,0.1  l0.5-0.1l0.5-0.3l0.4-0.4l0.1,0l0.2,0.1v0.2h-0.1l-0.1,0.1l-0.1,0.1l-0.1,0.2l-0.1,0.1l-0.1,0l0,0l0.2,0.2l0.4,0.2l1.2-0.2l-0.2,0.2  l-0.5,0l-0.4,0.3l-0.2,0.1h-0.4l0.1,0.3l0,0.1l0.1,0.1l-0.1,0.1l-0.1,0l-0.2-0.3l0-0.1l0-0.1l0-0.1l-0.1,0h-0.3l-1-0.3l-0.3,0  l-1.4,0.4l-0.4,0.3l0.4,1l0.6,0.7l2.2,0.9l0.5,0.5l0.8,0.4l0.2-0.1l0.2-0.2l0.4-0.2l0.2,0l-0.1,0.3l-0.2,0.1l-0.2,0l-0.2,0.1  l-0.1,0.2l-0.1,0.3l0,0.3l-0.1,0.3l0.2,0.1l0.2,0.2l0.2,0.3l0.1,0.3l0.1,0.4l0.1,0.5l0.1,0.4l0.2,0.2v0.2l-0.3,0.2l-0.4,1.2  l-0.3,0.2v-0.1l0.1-0.3l0.2-0.4l0.1-0.3l0.1-0.8v-0.1l-0.1,0l-0.1,0.2l0,0.2l0,0.1l-0.1-0.1l0-0.1l0.1-0.2v-0.2l-0.1-0.2h-0.1  l-0.1,0.1l-0.1,0l-0.1-0.3l-0.1-0.3l-0.1-0.2l-0.2,0v0.2l-0.1,0.4l-0.6,1.6l-0.2,0.9l-0.1,0l-0.1-0.2l0.1-0.4l0.5-1.3l0-0.1l0-0.1  l0.1-0.1l0.1-0.2l0-0.3l0-0.5l0-0.1l-0.1-0.1l-0.3-0.6l-0.3-0.4l-0.1-0.1l-0.1-0.2l0-0.3l-0.1-0.1l-0.6-0.1l0,0l-0.1,0.2l-0.1,0.4  l-0.1,0.5l0,0.6l0,0.5l-0.3,1.1l0-0.3l0.1-0.5l0-0.6l-0.1-0.6l-0.1,0.1l-0.1,0.3l-0.2,0.6l-0.1,0.2l-0.2,0.1l-0.4,0l0.3-0.2l0.3-0.4  l0.2-0.5l0.2-0.5l-0.1-0.1l-0.1,0.1l-0.1,0.2l-0.1,0.1l0-0.1l0-0.1l-0.1-0.5l-0.1-0.2l-0.1-0.1l-0.1,0.1l-0.1,0.2l0,0.2l0,0.2  l-0.2,0.3l-0.5,0.6l-0.2,0.3h-0.1l0.1-0.2l0.4-0.8l0,0l0.2-0.3l0.1-0.2l0-0.2l0-0.4v-0.3l0-0.1l-0.2-0.2l-0.1-0.3l-0.1-0.1l-0.1-0.1  l-0.2,0.1l-0.4,0.7l-0.1-0.5l0-0.3l-0.2-0.4l-0.2-0.3l-0.2-0.1l-0.3-0.1l-0.9-0.7l-1.4-0.4l-0.2,0.1l0,0.3l-0.1,0.1l-0.4,0l-0.1,0.1  l-0.1,0.2l-0.1,0.2l-0.1,0.2v0.2l0.2,0.2l0.9,0l0.2,0.1l0.4,0.6l0.2,0.2l-0.8-0.7l-0.6-0.1l-0.8,0.1l-0.3,0.2l0.3,0.4l0.5,0.5  l0.3,0.4l0.1,0.1l0.2,0l0.4,0.2l0.2,0.1l0.2,0.1l0.3,0.7l0.2,0.2v0.1l-0.2-0.1l-0.2-0.2l-0.1-0.3l0-0.4l-0.3,0.2l-0.5-0.1l-1.6-1  l-0.5-0.1l-0.4,0.1l-0.1,0.3l-0.1,0.4v0.7l0.1,0.2l0.4,0.5l0.4,0.4l0.2,0.1l0.1,0.2l0.2,0.1l0.5,0.7l0.2,0.2l0.9,0.2l0.4,0.4  l0.2,0.1l0.8,0.1l0.2,0.3l0.8,0.3l-0.3,0.1l-0.4-0.1l-0.6-0.5h-0.4l-1.1-0.5l-0.6,0.2l-0.2,0l-0.2-0.1l-0.3-0.4l-0.2-0.1l-0.7-0.1  l-0.5-0.3l-0.2,0l-0.4,0.4l0,0.7l0.2,0.7l0.3,0.6l0.5,0.6l0.1,0.2l0.1,0.1l0.5-0.2l0.3,0.3l0.5,0.2l2.4,0.1l0.4-0.4l0.3-0.1l0.5-0.1  l-0.1,0.2l-0.4,0.3v0.1h0.1l0.1,0l0.1,0.1l-0.2,0.2l-0.2,0l-0.4-0.1l-0.2,0l-0.2,0.2l-0.7,0.1l-0.1-0.1l-0.1-0.1l-0.6,0.3l-0.1,0.1  l0.1,0.3l0.2,0.3l0.1,0.1l0.4,0.2l0.5,0.2l1.1-0.1l-0.1,0.1l-0.1,0l-0.1,0l-0.1,0l-0.4,0.3l-0.2,0l0.1,0.2l0,0l0.1,0v0.2l-0.2,0.1  l-0.5-0.1l-0.1,0.2l-0.1-0.2l0-0.1l-0.4,0.5l-0.2,0.2l-0.2-0.1l0.1-0.3l0.1-0.2l0-0.3l-0.1-0.4l-0.1-0.1l-0.2-0.2l-0.2-0.3l-0.1-0.1  l-3.8-2.2l-0.4,0l-0.4,0.3l0.1,0.3l0,0.3l0,0.3l0,0.3l0.4,0.8l0.3,0.5l0.2,0.2l0.4,0.2l0.5,0.3l0.4,0.1l0.3,0.2l0.3,0.3l0.2,0.3  l-0.3-0.1l-0.9-0.5l-1.4-0.3l0.2,0.3l0.3,0.4l0.3,0.4l0.4,0.5l0.2,0.1l0.1,0.2l0.1,0.3l0.2,0.2l0.2,0.1l0.2,0.1l0.4,0l-0.5,0.3  l-0.3,0l-0.3-0.1l-0.2-0.2l-0.1-0.3l-0.1-0.2l-0.6-0.2l-0.4-0.2l-0.5-0.6l-0.2-0.1l-0.3,0l-0.9-0.5l-0.2,0l-0.1,0l-0.2,0.2l-0.3,0.2  l0,0.3v0.4l0,0.3l-0.2,0.2l-0.5,0.3l-0.1,0.1l-0.1,0.2l-0.2,0.2l-0.4,0.2l0.2,0.4l0.3,0.1l2.6-0.3l1.4,0.6l0.2,0.3l0.1-0.3l0.2,0  l0.2,0.2l0,0.4l-0.1-0.1l-0.1,0l-0.2,0l0.1,0.1l0.1,0.1l0,0.2l0,0.2v0.2l0.4,0.3l0.4,0.1l1.7-0.5l0.3-0.6l0.1-0.1l0.1,0l0-0.1l0-0.3  l0.3,0.2l1.2-0.3l0.5-0.4l0.3-0.1l-0.1-0.1l0,0l0,0l0.1-0.1l0,0l0.1,0h0.1l0.1,0.2l0.1,0.2l0.1,0.1l0.1,0l0.3,0.1l0.6,0.1l0.1,0  l0.1-0.1l0.2-0.3l0.1-0.1v-0.2l-0.2-0.3l0-0.5l0.1-0.4l0.3-0.1v0.1l0,0.3l0.3,0.3l0.5,0.2l0.3-0.1l0.5-0.1l0.2-0.3l0-0.2l0-0.7  l0-0.1l0.1,0.1l0.1,0.2l0,0.3l0.1,0.2l0.2,0.1l0.2-0.2l0.2-0.4l0.1-0.5l0.3,0.2l0.1,0.2l0.1,0.3l-0.2,0.1l-0.4,0.6l-0.2,0.2v0.2  l0.2,0l0.1,0v0.2l0.1,0l0.3-0.1l0.1,0l0.1,0.1l0.1,0.1l-0.1,0.2v0.1l0.2,0l0.2,0.1l0.1,0l0.1-0.1l-0.3-1.7l-0.1-0.3l-0.1-0.5l0-0.1  l0-0.1l0.1,0h0.1l0.2,0.2l0.1,0l0-0.1l0,0l0.1,0.1l-0.2,0.4l-0.1,0.4l0,0.4l0.2,0.7l0.1,0.2l0.1,0.1l0.1,0l0.1-0.1l0.1-0.2l0.1-0.6  l0.1,0l0.2,0.4l0.1,0.2l0.1,0l0.1-0.1l0.2-0.4l0-0.2v-0.2l-0.1-0.5l0-0.2l0-0.3l0-0.1l0.1-0.2l0.1,0.3l0.2,0.8l0.1,0.4v0.3l0,0.3  v0.4l0.1,0.4l0.1,0.1l0.5-0.2l0.1-0.2l0-0.2l-0.1-0.2v-0.2l0.2,0l0.1,0.1l0.1,0.1l0.2-0.1l0.2-0.3l0.1-0.1l0.2,0v0.2l-0.1,0.2  l-0.4,0.3v0.1l0.6,0l0.3-0.1l0.3-0.3l0.7-1l0.3-0.1l-0.2,0.2l-0.1,0.1l-0.1,0.2l0,0.2v0.3l0,0.2l-0.1,0.1l-0.2,0.1l-0.4,0.3l-1,0.2  l-0.2,0.1l-0.2,0.4l0.1,0.2l0.4,0.2l0.5,0.5l0.2,0.4l0.2,0.1l0.3,0l0.1-0.1l0.1-0.2l0.1-0.2l0-0.1l0.1,0l0.1-0.1l0.2-0.2l0.1-0.2  l0.1-0.3l0-0.3l0-0.4l0.1,0.2l0.2,0.5l0.1,0.2l0.1,0.1l0.1,0l0.1-0.1l-0.1-0.3l0.1,0l0.1,0l0.1-0.1l0.1-0.1l0,0.3l0.1,0.2l0.3,0.3  l-0.2,0.3l-0.2,0.3l0.2,0l0.5-0.2l0.6,0.1h0.3l0.9-0.3l-0.6,0.3l-1.2,0.4l-0.6,0.3l0,0.1l0.1,0.3l-0.1,0l-0.2-0.3l-0.1,0v0.1l0,0h0  l0,0l-0.2,0.2l-0.6,0.3l-0.3,0.4l-0.9,0.7l-1,0.3l-0.2,0.2l-0.3,0.5l-0.1,0.1l-0.3-0.1l-0.1,0.1l0,0.4l-0.2,0.2l-0.4,0.2l-0.3,0.4  l-0.2,0.3l-0.1,0.3l0.4-0.2l0.2,0l0.2,0.1v0.2h-0.2l-0.1,0l-0.1-0.1l-0.2,0.2l-0.3,0.1l-0.1,0.1l0.2,0.2l0.2,0.1l0.8-0.1l0.1-0.1  l0,0l0.1,0l0.6,0.5l2.6,0.5l0.5-0.2l1.4-1.2v-0.2h-0.1v-0.1l0.3-0.3l0.4,0l0.3,0.3l0,0.7l-0.4,1.1l-0.1,0.3l-0.2,0.2l-0.1,0.1  l-0.1,0.1l-0.1,0.3l0.3,0l0.2,0.2l0,0.3l-0.2,0.2l-1,0.2l-0.2-0.2l-0.2,0.2l-0.2-0.1l-0.2-0.1l-0.2-0.1h-0.7l-0.1,0.1l-0.1,0.2  l-0.1,0.1l-0.8-0.4l-1.2-0.3l-0.8,0.2l-0.8,0l-0.2,0.1l0,0.3h-0.2l-0.1,0.1l-0.3,0.3l0.2,0.4l0.1,0.1l0.1,0.1v0.1l-0.1-0.1l-0.4-0.4  l-0.3-0.1l-0.1-0.2l-0.1-0.4l-0.1,0.1l-0.2,0.1l-0.1,0l-0.1,0l0.1-0.1l0.3-0.1l0.1-0.2l0-0.1v0l0-0.2l-0.1-0.1l-0.2,0l0.1-0.1  l0.1-0.1l-0.4,0.1l-0.7,0.7l-0.4,0.1v0.2l0.7-0.1l0.1,0.1l-0.5,0.4l-0.5,0.1l-0.2,0.1l-0.1,0.2l-0.2-0.4l-0.2-0.2l-0.3,0l-0.3,0.3  l0,0.1l-0.1,0.3l-0.1,0.1l-0.1,0l-0.2,0l-0.1,0l-0.1,0.2l0,0.2l0,0.3l0,0.3l-0.5-0.7l0.1-0.2l0.1-0.1l0.1-0.1l0.1,0l0-0.2l0-0.1  l0.3-0.2l0.1-0.2l0.1-0.2l-0.7-0.1l-0.4,0.1l-0.3,0.3l0,0.3l0,0.3l0.1,0.3l0,0.2l-0.1,0.2l-0.1,0.2l-0.2,0.1l-0.1-0.1l-0.2,0.2  l0-0.2v-0.3l0-0.2l-0.1,0l-0.1,0.1l-0.1,0.1l-0.1-0.1l0.1-0.4l-0.1-0.1l-0.4,0l0,0.1l0,0.1l0,0.1l0,0.1v0.1l-0.8-0.1l-0.4,0.1  l-0.3,0.5l-0.1,0.1l-0.4,0l-0.1,0.1l-0.2,0.3l-0.1,0.1l-1-0.2l-0.7-0.5l-0.2,0l-1,0.3l-0.2,0.1l-0.3,0.4l-0.2,0.1l-0.2-0.2l-0.1,0.2  l0.3,0.9l0.1,0.4l0.2,0.3l0.4,0.6l0.1,0.2l0,0.4l0.1,0.1l0.1,0.1l0.1,0.2l0.6,0.4l0.2,0l0.4-0.2l0.2,0l0.7,0l0.3-0.2l0.2-0.5l0-0.4  l0.3-0.4l0.3-0.2l0.1,0.1l-0.1,0l-0.1,0.1l-0.1,0.1l1.1,0.3l0.1,0l0.1-0.1l0.1-0.1l0.1-0.1l0.2-0.3v-0.1l0.9-0.2l0.5,0l0.5,0.6  l1.3,0.1h1.1l1.1,0.1h-0.1l0.3,0l0.4,0.4l0.2,0v-0.1l-0.5-0.3l-0.1-0.2h1l0.1,0.1l0.1,0.2l0.1,0.2l0,0.1l-0.1,0.1l-0.1,0l-0.2,0  l0.2,0.2l0.8-0.2l-0.2-0.1l-0.1,0v-0.2l0.1-0.1l0.3-0.3l0.1-0.1l0.5,0.2v-0.1l0.1-0.1l0.1,0l0.1,0.1l0.1,0.2l0.1-0.2l0.1-0.1  l0.1-0.1l0.1,0l-0.1,0.3l-0.2,0.4l-0.1,0.2h0.2l-0.1,0.3l0.6,0l0.3,0.1l0.2,0.2l-0.1,0.2l0,0.1l-0.1,0l0.1,0.1l-0.1,0.2l-0.1,0.1  l-0.2,0.2l-0.3,0.4l-0.1,0.1l0.2,0.2l0.3-0.2l0.3-0.3l0.3-0.2l0.3-0.1l0.3-0.2l0.6-0.5v0.1l-0.3,0.3l-1,0.5v0.1l0,0l0.1,0.1  l-0.1,0.1l-0.1,0.1l-0.1,0.2l-0.1,0.2h0.2l-0.2,0.2l-0.2-0.1l-0.2-0.2l-0.2-0.1l0.1,0.2l0.1,0.2l0.1,0.2l0.1,0.1l0,0.1l0.1,0.2  l0.1,0.2l0.1,0v0.1l-0.1,0.2l0,0.3l0.1,0.3l0.2,0.3l0.2,0l0.3-0.1l0.4-0.3v0.1l-0.1,0.2l0,0.1h0.1l0.1,0l0.1,0l0.1,0.1l-0.1,0.1l0,0  l0.1,0.2l0,0.3l-0.1,0.3l-0.1,0.3l0.1,0l0.1,0l0.1-0.1l0.1-0.1l0.1,0.3l0.1,0.3l0.2,0.2l0.1,0.1l0.1,0l0.1,0l0.1-0.1l0-0.1l0-0.1  h0.3l0.1-0.1l0-0.1v-0.1l0-0.2l0.2-0.4l0-0.1v-0.3l0-0.3l0.1-0.2l0.2-0.1l-0.1,0.5l0,0.2l0.1,0.2l0.1,0.1l0.1-0.1l0.2-0.3l0.5-0.5  l0.3-0.1l0.3,0.1l-0.1-0.3l0.1-0.1l0.5-0.2l0.4-0.4l0.1-0.1l0.1-0.1l0.1-0.5l0.1-0.1l0.1-0.1l0.4-0.4l-0.1,0.2l-0.1,0.2l-0.2,0.2  v0.1l0.2,0l0.6-0.5l0.2,0l0.7,0.2v0.1l-0.7-0.1l-0.1,0l-0.2,0.2l-0.5,0.3v0.2h0.9v0.1l-0.4,0.2l0.2,0.1l0.2,0.3l0.1,0.1l0.2,0l0.3,0  l0.1,0.1l-0.8,0l-0.1-0.2l-0.1-0.2l-0.2,0l-0.2-0.1l0-0.4l-0.4,0l-0.1,0l-0.1,0.1l-0.1,0.2l-0.3,0.1l-0.3,0.5l-0.2,0.2v0.1l0.1,0  l0.1,0l0.1,0.1l0,0.2l-0.5,0.1l-1,0.5l-0.2,0.2l0,0.2l-0.1,0.3l0,0.2l0,0.4l-0.1,0l-0.1-0.1l-0.1,0l-0.1,0.3v0.3l0,0.2l-0.1,0.2  l0.2,0.4l0.1,0.1l0.1,0l0.2-0.1l0.3-0.1l0.8,0.1l-0.2,0.1l-0.4,0.1l-0.2,0.2l-0.2-0.1l-0.2,0.1l-0.3,0.4l-0.4,0.3l-0.4,0.2v0.2  l0.8,0.3l0.4,0.1l0.3-0.3l0.1-0.2l0.4-0.3l0.1-0.1h0.1l0.2-0.1l0.1-0.1l0.1-0.1l0-0.1l0-0.1l0-0.1l0.7-0.6l0.8-0.2l1.7,0.1h0l0,0h0  l0,0v0.1l-0.1,0.1l-0.1,0h-0.1v0.1l0.2,0.1l0.4-0.2l-0.3,0.4l-0.2,0l-1.3-0.3l-0.2,0l-0.2,0.1l-0.4,0.3h0.1l0.1,0.1l0.2,0.1h-0.2  l-0.4-0.1l-0.2,0l-0.2,0.1l-0.1,0.1l-0.2,0.4l-0.2,0.4l-0.3,0.3l-0.6,0.4l0,0.3l-0.1,0.2l-0.3,0.2l0.3,0.1l0.1-0.1l0.1-0.1l0.1,0  l0.3,0l0.2,0l0.1,0.2l-0.1,0.4l0.2-0.1l0.3,0l0.3,0l0.2,0.1l-0.3,0.1l-0.1,0.1l-0.1,0.3l0.1,0.1l0.2,0l0.3-0.2l-0.2,0.4l-0.3,0  l-0.3-0.1l-0.2,0.1l0.2,0.1l-0.1,0.1l-0.1,0.1l-0.1,0.2l0.1,0.1l0.1,0l0.1,0l0.1,0l-0.1,0.1l-0.1,0l-0.3-0.2l-0.1-0.1l0-0.1  l-0.1-0.1l-1.4-0.3l-0.3,0.2l0.3,0l0.3,0.2l0.6,0.5l-0.1,0l-0.1,0.1h0.2v0.2l-0.1,0.1l-0.2,0l-0.2,0l-0.2-0.1l0.2-0.1l0.1,0  l-0.2-0.1l-0.3,0l-0.2,0.2l-0.1,0.3l0.1-0.1l0.3,0.1l0.2,0.2l0.2,0.2v0.1l-0.1,0.1l-0.1,0l-0.1,0l-0.1-0.1l-0.2,0.4l-0.3,0.2  l-0.8,0.1l-0.4,0.4l-0.2,0.1l-0.1,0l-0.2-0.2l-0.1,0l-0.1,0l-0.3,0.3l-0.4,0.1l-0.1,0.1l-0.1,0.1l-0.1,0.1l-0.1,0.2l0.1,0.2  l-0.1,0.1l-0.2,0.1l-0.9,0l-0.2-0.1l-0.1-0.2h0.1l-0.1-0.5l-0.2-0.5l-0.3-0.4l-0.3-0.2l-0.3-0.3l-0.1,0l-0.1,0.1l-0.1,0.1l-0.1,0.2  l0,0.2v0.2l0,0.4l0,0.2l0,0.2l-0.1,0.4l0.1,0.4l0.2,0.3l0.2,0.1l0.2,0l0.2-0.1h0.1l0,0.2l-0.1,0.1h-0.4l-0.1,0.2l-0.2,0.8l-0.1,0.2  l0.1,0.2l0.1,0.1l0.1,0.1l0,0.2l0,0.2l-0.1,0.1l-0.1,0.1l-0.1,0.2l0.1,0.1l0.1,0.3l0.1,0.1l0.1,0l0.1-0.1l0-0.1l0-0.1l0.2-0.1  l0.9,0.1l0.1,0l0.1-0.1l0.2-0.2l0.3-0.1l0.3-0.2h0.2l-0.1,0.1l0.2,0.1l0.2-0.2l0.2-0.3l0.2-0.1l2.4,0.6l0.5-0.2l0.1,0l0.4,0l1.5-0.5  l0.3,0l0.3,0.2l0.3,0.3l0.3,0.2l2.7-0.4l0,0l0,0l0,0h0l-0.1-0.4l0.1-0.2l0.2-0.1l0.4,0l0.4,0.1l0.2,0.1l-0.1-0.3l-0.2-0.2l-0.5-0.2  v-0.1l0.1-0.1l0.3-0.3l0.1-0.1l0.1-0.1l0.5-0.1l0.2,0l0.4,0.2h0.7l-0.3,0.2l-0.4,0.1l-0.7,0l0.1,0.5l0,0.2l-0.1,0.2l0.2,0.3l0.2,0.2  l0.2,0.1l0.4,0.3l1.2,0.4l0.8,0.5l0.4,0.4l0-0.1l-0.1-0.3l0.3,0.1l0.2-0.1l0.2-0.2l0.3-0.5l0.2-0.3l0-0.3l-0.3-0.1v-0.1l0.3,0.1  l0.1,0.5l-0.1,0.6l-0.3,0.4v0.1l0.2,0l0.6-0.2v0.1h0l-0.1,0h0v0.1h0.3v0.1l-0.3,0l-0.1,0l0,0.1l-0.1,0l-0.2-0.2l-0.1-0.1h-0.6  l0.6,0.5l0.3,0.1l0.4,0.4l0.4,0.2l0.1,0l0.1-0.2l0-0.2l0-0.2l0-0.2l0.1-0.1l0.2-0.1l0.2-0.2l0.3-0.3l0.4-0.5l0.1-0.2v-0.1l0-0.2  l0.1-0.1l0.1,0.1l0,0.3l0,0.2l-0.3,0.5l0.7,0.4l0.1,0.1l0.2,0.4l0.1,0.2l-0.3,0l-0.5-0.5l-0.3-0.1l-0.6,0.1l-0.3,0.2l-0.3,0.3  l0.1,0.3l0.1,0.1l-0.1,0.1l0,0l0.2,0.5l0.3,0.4l0.6,0.5l-0.1-0.3l-0.2-0.3l-0.3-0.5v-0.1l0.2,0l0.1,0.1l0.1,0.3l0.1,0.3l0.2,0.2  l0.2,0.1l0.2,0.2l0.1,0.3l-0.3-0.1v0.1l0.2,0.1l0.2,0l0.1-0.1l0.2-0.2l0,0.1l0,0.3l0.1,0l0.2,0.1l0.1,0l-0.1,0.1l-0.1,0l-0.1,0  l-0.1-0.1l0.1,0.2l1.4,1.2l0.3,0.1l0.7,0l-0.1-0.3l0.1,0l0,0l0,0.1l0,0l0,0l0,0l0,0l0.2,0.2l2.4,0.2l-0.9-0.2l0-0.1l0.9,0.1l0.1,0  l0.1-0.1l0.1,0l0.1,0.1l0,0.1l-0.1,0.1l-0.1,0l0.3,0.3l1.5,0.4l1.1,0.7l0.7,0.1l0.5,0.4l0.1,0.1l1.2,0.3l0.2-0.3l0.1,0.1l0.2,0.1  l0.3,0.1l0,0.1l0,0l-0.1,0l0.3,0.1l0.7-0.2l1.7,0.5l0.5,0l1.9-0.5l1.1-0.6l1.9-0.3l-0.1,0h-0.2l-0.4,0l0-0.1l0-0.3l0-0.3l-0.1-0.1  l-0.1-0.1l-0.2-0.3l-0.1-0.1l0-0.1l0,0l0.1,0l-0.1-0.1l0.2,0l0.6,0.4l0.3,0l0.5-0.1l0.3,0v0.1l-0.3,0l-0.1,0.1l-0.1,0.2l-0.1,0.1  l-0.3,0.1l-0.1,0.1l0.3,0.4l0.6-0.1l0.6-0.5l0.9-0.4l0.4-0.5l0.3-0.6l0.2-0.7l-0.1,0.1l-0.7,0l0-0.2l0-0.1l-0.1-0.1l-0.1,0l0.1-0.1  l0.3,0l0-0.2h0.4l0,0.1v0h0l0,0l0.2,0.1l0.2-0.2l0.4-0.8l-0.2,0.1l-0.7-0.1l-0.1,0l-0.2,0.2l-0.1,0l-0.1-0.1l0-0.1l0-0.2l0.1-0.2  l0.2,0.2l0.2-0.1l0.1-0.3l0-0.4l0.1-0.2l0.1-0.2l0.2-0.1l0.1,0.1l0.1-0.1l0.1,0h0.2v-0.1l-0.2-0.1l0.2,0l0.2,0.1l0.2,0l0.2-0.2  l0-0.2l0-0.1l0-0.3l0.2,0.2l0.6,0.3v0.1l-0.3,0l-0.3,0.1l-0.2,0.3l-0.1,0.4l1.2-0.8v-0.1l0-0.1v-0.1l0-0.1l0.1,0.1l0.1-0.1l0.1-0.2  l0.1-0.3l0.1,0.2v0.2l-0.1,0.2l-0.1,0.1l0.8-0.2l1.2-0.4l1.1-0.7l0,0.4l0.1,0l0.1-0.1l0.1-0.1l0.3,0.3l0.1,0l0.7,0l0.3-0.1l0.2-0.2  l-0.1-0.2l-0.1-0.2l0-0.2l-0.1-0.2l0.1-0.3l0.1,0h0.2l0.1-0.1l-0.1-0.2l0-0.2l0-0.5l0-0.1l0.1,0.1l0.1,0.2l0,0.1l0,0.1l0,0.3l0,0.5  h0l0,0.1v0.1l-0.1,0.1l0,0l0,0.1l0,0.2l0.1,0.2l0,0.2l-0.1,0.5l0.2,0l0.1-0.1l0-0.1l-0.1-0.2l0-0.2l0-0.3v-0.5l0-0.1l0.1,0.1  l0.1,0.2l0,0.2l0,0.5l0,0.2l0.1,0.1l0.1-0.1v-0.3l0-0.4v-0.3l0-0.2l0.1-0.1l0.1,0.1l0.1,0.1l0.3,0.5l0.2,0.1l0,0.1v0.3l0,0.1l0,0.1  l0.1-0.1l0-0.2V409l0-0.2l0.1,0l0.2-0.1l-0.1,0l-0.1-0.1l-0.1-0.1l-0.1-0.1l0.2,0.2l0.2,0.1l1.2-0.4l1.4-1.1l-0.1,0.2l-0.1,0.2  l-0.1,0.1l-0.1,0.1l0.3-0.1l0.4-0.7l0.6-0.6l0.1-0.2l0.2-0.5l-0.1,0.1l-0.1,0.1l-0.1,0l0.1-0.3l0.2-0.3l0.5-0.4l-0.1,0.3l0.2-0.1  l0.5-0.4v-0.1h-0.1v-0.1l0.1-0.1l0.1-0.1l0.1,0l0.1,0.2l0.1-0.2l0.1-0.1l0.2-0.2l0.3-0.4l0.1-0.1l0.2-0.1l0.6-0.5v-0.1h-0.4l0.3-0.3  l2.3-0.7l0.3-0.2l-0.2-0.1l-0.8,0.3l0.8-0.6l0.3-0.4l0,0.1l0.1,0.1l0,0.1l0.2-0.2l0.5-0.2l0.5,0l0.6-0.2l0.2-0.2h-0.3l-0.1,0  l-0.1-0.1l0.2-0.1l0.5,0.1l0.2-0.1l0.1-0.3l0.1-0.4l0-0.3l-0.2-0.2v-0.2l0.1,0.1l0.1,0l0.1,0l0.1-0.1l-0.1-0.2l-0.2-0.5l-0.1-0.2  l-0.2-0.1l-0.3-0.1l-0.2-0.1l0.2,0.1l0.4,0.1l0.2,0.2l0.2,0.2l0.2,0.4l0.1,0.4l-0.1,0.3v0.1l0.1,0.1l0.3,0.1l0.1,0.1l0-0.2l0-0.1  l-0.1-0.1l-0.1-0.1v-0.1l0.1-0.1l0.1,0.1l0.1,0.2l0,0.3l0.1,0.1l0.1,0l0.3-0.1v0.1l-0.2,0.6l0.2,0l0.1,0l0.1-0.1l-0.1-0.2l0.1-0.1  l0.1,0l0.1,0.1l0.1,0l0.1-0.1l0.2-0.3l0.1-0.1l0.2,0.1l0.2,0.2l0.3,0.4l0.2,0.2l0.2,0.1l0.4,0l0.2-0.1l0.3-0.4h0.2l-0.1-0.3l0-0.3  l-0.1,0.1l-0.1,0l-0.2,0l-0.1-0.1l-0.1-0.1l0-0.1l0-0.1l0.1,0l0.2-0.1l0.1-0.2l0.1-0.2h0.1v0.1l0,0.1l0,0.1l0,0.2l0.1-0.2l0.2-0.3  l0.2-0.2l0.5-0.3l0.1-0.1l0.2-0.4l0-0.1l0.1,0l0.2-0.2l0.1,0l0-0.1l0-0.3l0-0.1l0.1,0l1,0.2l0.2,0.2l-0.4,0.2l-0.8,0.2l-0.4,0.3  l0.2-0.1l0.6-0.2l0.9-0.1l0-0.1l0.1-0.3l0-0.1l0-0.1l0-0.1l0.1,0l0-0.1l0-0.1l0-0.2V396l0-0.2l0.3-0.5l0-0.2l0-0.4l0-0.2l0.1-0.2  l0.8-1l0.1-0.2l-0.1-0.1l-0.3,0.2l-0.6,0.8l-0.4,0.1l0,0.2h-0.2l-0.2-0.1l-0.1-0.2h-0.1l-0.2-0.2l-0.1-0.3l0.1-0.1h1.2l0.2-0.1  l0.1-0.2l0-0.2l-0.1-0.2l-0.2-0.2l-0.4-0.2l-0.1-0.2l0.5-0.4l1.5,0.5l-0.1-0.1l0.1-0.2l-0.2-0.2l-0.5-0.2l-0.1-0.1l-0.2-0.3  l-0.1-0.3l0-0.3v-0.1l-0.1,0l-0.5-0.2l-0.1-0.2l0-0.1l0.1-0.2l0-0.2l-0.1-0.1l-0.2,0l-0.1,0l-0.1-0.1l0.7,0.1l0.1,0.1l0.2,0.5  l0.2,0.2l0.3,0.8l0.1,0.1l0.2,0.1l0.3,0.1l2-0.4l0.4-0.4l0.1,0l-0.1-0.3l-0.1-0.2l-0.3-0.4v-0.2l0.2-0.1l0.1-0.1l0.1-0.1l0.3,0.1  l1,0l0.2-0.1l0-0.2l-0.2-0.2l-1-0.4l0.3-0.2l0.9,0.4l0.1-0.1l0.2-0.3l0.1-0.1l0.1-0.1l0-0.2l-0.1-0.2l-0.1-0.1l-0.6-0.5l-1.3-0.3  l-0.5-0.4l0.2-0.1l0.5,0.2l0.9-0.2l0.8,0.4l0.4,0.1l0.4-0.3l-0.2-0.3l-0.9-0.4l-0.4-0.4l-0.1-0.1l0-0.2l-0.1-0.2l-0.1-0.2l-0.1-0.1  l-2.9-0.3v-0.2l1.8-0.1l0.3-0.4l-0.1-0.1l-0.1-0.1l-0.1-0.2l-0.1-0.2l0.3,0.1l0.5,0.5l0.5,0.2l0.3,0.2l0.1,0.1l0.1,0.1l0.1,0.3  l0.1,0.3l0.1,0.2l0.2,0.1l0.6-0.1l0.6,0.2l0.1-0.1l0.3-0.3l0.1-0.1l0-0.1l-0.1-0.2l-0.2-0.3l0.2-0.1l0.4-0.1l0.2-0.2l0.2-0.3  l0.1-0.3L-361,382.6z M-400.3,359.3L-400.3,359.3l0-0.1L-400.3,359.3l0-0.1l0.1,0l0-0.3l-0.1,0l-0.2,0.1l-0.1,0.1v0.2h0.2  L-400.3,359.3z M-448.4,374.5L-448.4,374.5L-448.4,374.5L-448.4,374.5L-448.4,374.5l-0.1,0.1l0,0.1L-448.4,374.5L-448.4,374.5z   M-438.9,374.7L-438.9,374.7l0.1-0.1l0-0.1l-0.1,0l-0.1,0.1L-438.9,374.7L-438.9,374.7L-438.9,374.7z M-443.7,375l0.1-0.2  L-443.7,375l-0.1-0.1l0,0l-0.1,0.1l0,0.1L-443.7,375z M-445.3,376.4L-445.3,376.4l-0.2,0.1v0.2l0.1-0.1l0.1-0.1L-445.3,376.4z   M-446.3,376.4L-446.3,376.4l-0.1,0.1L-446.3,376.4L-446.3,376.4L-446.3,376.4z M-444.4,381.9L-444.4,381.9L-444.4,381.9  L-444.4,381.9l-0.1-0.1l0,0.1L-444.4,381.9L-444.4,381.9z M-441.9,390.1l0.1,0.2l0.1,0.1l0.1,0l0.1,0v-0.1l0,0l-0.1,0.1l-0.1-0.2  l-0.2-0.3l-0.2-0.3l0,0.2l0.1,0.1L-441.9,390.1z M-441.3,394.9l0.1-0.2l0.1,0l0.1-0.1l0,0l0,0l0-0.1h-0.1l-0.1,0.1l-0.1,0.1l0,0l0,0  L-441.3,394.9L-441.3,394.9z M-436.7,402.2L-436.7,402.2l0.1,0.1l0.1-0.1l-0.1-0.1l-0.1-0.1l0-0.1l-0.1-0.1l-0.1,0.1l0.1,0.1  L-436.7,402.2L-436.7,402.2z M-425.4,419.6l-0.1,0.1l0,0.1l0,0.1l0.1,0h0l0.1-0.1l0-0.2H-425.4z M-444.1,381.3L-444.1,381.3  L-444.1,381.3l-0.1,0.1l-0.1,0l0.1,0.1l0.1,0l0,0l0.1-0.1l0.1,0h0v-0.1L-444.1,381.3L-444.1,381.3z"/></svg>