<svg xmlns="http://www.w3.org/2000/svg" xmlns:xlink="http://www.w3.org/1999/xlink" version="1.1" x="0px" y="0px" viewBox="2 0 100 100" fill="#e0e0e0" enable-background="new 2 0 96 100" xml:space="preserve"><path d="M38.15,92.074l-0.024-0.016l-0.017,0.015l0.009,0.015l0.018-0.008l0.023,0.012l0.028,0.014l0.017-0.012l-0.035-0.016  L38.15,92.074z M67.271,49.953l-0.097,0.175l-0.125,0.356l-0.021,0.084l-0.006,0.043l0.002,0.037l0.029,0.055l0.036,0.017  l0.091,0.001l0.086,0.03l0.037,0.006l0.03-0.015l0.021-0.047l-0.004-0.047l-0.039-0.094l0.1-0.071l0.012-0.207l-0.064-0.359  L67.271,49.953z M67.225,49.947l0.064-0.095l0.023-0.109l-0.043-0.085l-0.043-0.009l-0.037,0.034L67.16,49.74l-0.023,0.058  l-0.012,0.043l-0.009,0.064l0.004,0.059l0.026,0.025L67.225,49.947z M69.791,50.914l-0.044-0.032l-0.052-0.021l-0.102-0.063  l-0.033,0.125l0.025,0.156l0.076,0.028l0.055-0.021l0.053,0.004l0.039-0.008l0.02-0.06l-0.01-0.064L69.791,50.914z M68.979,49.718  l-0.043,0.021l-0.064,0.081l-0.059,0.097l-0.039,0.093l-0.006,0.025l0.002,0.032l0.019,0.047l0.004,0.029l0.024,0.002l0.117,0.038  l0.032,0.016l0.011-0.187l0.02-0.083l0.038-0.083l0.011-0.058l-0.021-0.048L68.979,49.718z M96.993,28.181l-0.155-0.169  l-0.045-0.092l0.02-0.124l0.098-0.221l-0.018-0.1L96.77,27.41l-0.181-0.142l-0.026-0.032l-0.033-0.09l-0.024-0.013l-0.03,0.001  l-0.035-0.014l-0.217-0.187l-0.117-0.032l-0.146,0.066l-0.113,0.073l-0.103,0.024l-0.104-0.022l-0.115-0.066l-0.121-0.037  l-0.248,0.014l-0.118-0.059l-0.122-0.147l-0.216-0.15l-0.054-0.011l-0.133,0.004l-0.06,0.011l-0.063,0.028l-0.105,0.077  l-0.055,0.027l-0.139,0.002l-0.057,0.021l-0.049,0.042l-0.043,0.062l-0.053,0.116l-0.031,0.013l-0.063-0.031l-0.021-0.023  l-0.03-0.057l-0.026-0.02l-0.027-0.002l-0.095,0.021l-0.051-0.019l-0.038-0.036l-0.042-0.03H93.4l0.082-0.069l0.127-0.074  l0.101-0.084l0.011-0.097H93.72l-0.071-0.132l0.063-0.067l0.094-0.054l0.023-0.09l0.07,0.017l0.072-0.034l0.064-0.063l0.042-0.069  l0.016-0.084l-0.013-0.057l0.008-0.041l0.367-0.176l0.086-0.108l-0.051-0.185l-0.17-0.204l-0.043-0.077l-0.032-0.16l-0.026-0.069  l-0.057-0.051l-0.047-0.005l-0.026-0.026l-0.002-0.04l0.021-0.049l0.056-0.155l0.014-0.023l0.011-0.025l0.01-0.027l0.005-0.026  h-0.011L94.16,24.39l-0.5,0.141l-0.133,0.11l0,0l-0.24,0.276l-0.141,0.079l-0.095-0.091l0.005-0.084l0.075-0.127l-0.014-0.083  l-0.073-0.157l-0.047-0.066l-0.064-0.036l0.166-0.046l0.053-0.031l0.041-0.051l0.029-0.055l0.032-0.048l0.054-0.033l0.342-0.095  l0.035-0.032l0.049-0.111l0.078-0.123l-0.002-0.048l-0.053-0.063l-0.042-0.02l-0.045,0.017l-0.062,0.051l-0.116,0.072l-0.104,0.002  l-0.096-0.058L93.2,23.572l-0.033-0.063l-0.049-0.187l-0.029-0.053l-0.088-0.115l-0.042-0.04l-0.044-0.057l-0.039-0.07l-0.045-0.053  l-0.063-0.006l-0.06,0.031l-0.157,0.127l-0.167,0.088l-0.053,0.012l-0.121-0.004l-0.063,0.015l-0.172,0.129l-0.063,0.027  l-0.104,0.019L91.757,23.4l-0.026,0.028l-0.045,0.071l-0.029,0.028l-0.031,0.006l-0.036-0.001l-0.032,0.004L91.5,23.613  l-0.059,0.041l-0.121,0.053l-0.033,0.008l-0.028,0.001l-0.026,0.006l-0.034,0.024l-0.011,0.032l0.004,0.037l-0.006,0.028  l-0.111,0.011l-0.012,0.044l0.035,0.133l-0.005,0.085l-0.032,0.022l-0.117-0.018l-0.026,0.051l-0.026,0.14l-0.023,0.065  l-0.047,0.062l-0.055,0.039l-0.063,0.021l-0.071,0.007l-0.126-0.009l-0.063-0.017l-0.123-0.05l-0.182-0.024l-0.027-0.021  l-0.008-0.029L90.1,24.323l-0.016-0.028l-0.025-0.017l-0.026-0.009l-0.24-0.042l-0.058-0.021l-0.166-0.099l-0.188-0.048  l-0.055-0.022l-0.057-0.033l0.031,0.07l0.057,0.063l0.021,0.032l-0.071-0.021l-0.24-0.111l-0.119-0.035l-0.124,0.004l-0.054,0.009  l-0.071-0.001l-0.05-0.029l0.021-0.144l-0.036-0.061l-0.168-0.199L88.352,23.5l-0.123-0.047l-0.1,0.01l-0.055,0.051L87.9,23.777  l-0.045,0.038l-0.055,0.021l-0.074,0.016l-0.17,0.001l-0.082,0.012l-0.076,0.04l-0.033,0.04l-0.053,0.096l-0.033,0.035l-0.038,0.014  l-0.117-0.007l-0.149,0.083l-0.324,0.479l-0.1,0.092l-0.049,0.014l-0.072-0.008l-0.123-0.031l-0.052,0.011l-0.03,0.061l0.004,0.069  l0.055,0.135l0.019,0.067l-0.015,0.066l-0.051,0.041L86.17,25.19l-0.055,0.035l-0.049-0.007l-0.068,0.001l-0.063,0.012l-0.037,0.029  l-0.002,0.028l0.01,0.021l0.007,0.021l-0.011,0.029l-0.028,0.011h-0.038l-0.034,0.01l-0.012,0.038l-0.024,0.024l-0.189,0.059  l-0.051,0.029l-0.221,0.199l-0.056,0.017l-0.054-0.026l-0.047-0.014L85.1,25.742l-0.051,0.049L84.99,25.82h-0.059l-0.179-0.025  l-0.34,0.026l-0.255,0.066l-0.045,0.004l-0.041-0.003l-0.084-0.02l-0.047-0.002l-0.027,0.017l-0.025,0.026l-0.033,0.023  l-0.041,0.009l-0.092,0.003l-0.039,0.011l-0.039,0.027l-0.013,0.028l-0.002,0.036l-0.009,0.05l-0.116,0.268l-0.028,0.102  l-0.019,0.122l-0.043,0.135l-0.063,0.123l-0.076,0.087l-0.297,0.21l-0.082,0.096l-0.049,0.044l-0.123,0.042l-0.058,0.033  l-0.047,0.05l-0.077,0.111l-0.049,0.048l-0.051,0.03l-0.049,0.016l-0.047,0.004l-0.049-0.003l-0.016-0.017l-0.008-0.027  l-0.012-0.018l-0.029,0.014l-0.2,0.133l-0.095,0.082l-0.076,0.099l-0.057,0.123l0.006,0.053l0.049,0.02l0.113,0.013l0.039,0.038  v0.046l-0.035,0.109l0,0h0.002l0,0l-0.012,0.098l-0.082,0.104l-0.107,0.085l-0.09,0.039l-0.078,0.014l-0.039,0.021l-0.084,0.094  l-0.047,0.033l-0.156,0.048l-0.116,0.084l-0.037,0.008L81.1,28.882l-0.041-0.09l-0.037-0.008l-0.039,0.049l-0.018,0.078  l-0.023,0.063l-0.059,0.004l-0.033-0.047l-0.017-0.057l-0.019-0.006l-0.037,0.106l-0.045,0.063l-0.049-0.025l-0.041-0.067  l-0.056-0.132l-0.028-0.052l-0.031-0.01l-0.033,0.058l-0.001,0.036l0.013,0.033l0.006,0.033l-0.019,0.038l-0.024,0.012l-0.035,0.004  l-0.271-0.023L80.1,28.948L79.98,29.01l-0.185,0.19l-0.119,0.053l-0.075,0.006l-0.139-0.025l-0.143,0.007l-0.049-0.019l-0.111-0.07  l-0.133-0.034l-0.452,0.016l-0.021,0.156l-0.15,0.211l-0.021,0.138l0.07,0.265l0.029,0.051l0.093,0.074l0.026,0.061l0.051,0.057  l0.074,0.022l0.08,0.015l0.07,0.031l0.053,0.075l0.004,0.056l0.019,0.027l0.095-0.01l0.25-0.087l0.087-0.015l0.118,0.007  l0.041-0.015l0.096-0.071l0.038-0.013l0.07,0.086l0.282,0.521l0.013,0.043l-0.021,0.062l-0.102,0.085l-0.045,0.054l-0.012,0.033  l-0.012,0.068l-0.009,0.031l-0.019,0.029l-0.042,0.045l-0.019,0.024l-0.021,0.052l-0.018,0.063l-0.01,0.066v0.07l0.039,0.117  l0.16,0.161l0.057,0.115l0,0l0.055,0.207l-0.035,0.178l-0.119,0.118l-0.195,0.029l-0.058-0.027l-0.103-0.087l-0.057-0.023  L79.415,32.3l0.008,0.046V32.4l-0.069,0.033l0.039,0.048l0.004,0.059l-0.027,0.041l-0.051-0.006l-0.033-0.049l-0.01-0.058  l-0.018-0.052l-0.063-0.033L79.102,32.4l-0.205,0.134l-0.096,0.045l-0.156,0.02l-0.049-0.003l-0.144-0.042l-0.06,0.002l-0.117,0.041  l-0.06,0.003l-0.041-0.037l-0.073-0.161l-0.031-0.046l-0.047-0.013l-0.131-0.008l-0.043,0.007l-0.058,0.04l-0.034,0.056  l-0.025,0.065l-0.037,0.066l-0.041,0.041l-0.051,0.033l-0.055,0.024l-0.054,0.015l-0.065,0.002l-0.045-0.018l-0.096-0.058  l-0.109-0.026l-0.229,0.005l-0.113-0.014h-0.096l-0.177,0.081l-0.935,0.054l-0.417-0.046l-0.361-0.188l-0.299-0.213l-0.107-0.018  l-0.065,0.021l-0.046,0.037l-0.043,0.043l-0.053,0.041l-0.061,0.02l-0.119-0.004l-0.058,0.004l-0.108,0.07l-0.08,0.216l-0.082,0.073  l-0.121,0.035l-0.366,0.035L73.04,32.89l-0.069,0.007l-0.033-0.005l-0.064-0.02l-0.029-0.005l-0.013-0.006l-0.024-0.023  l-0.015-0.001l-0.017,0.014l-0.008,0.019v0.016l-0.002,0.008v0.008l-0.006,0.021l-0.01,0.023l-0.016,0.018h-0.012l-0.031-0.013  l-0.014-0.002l-0.127,0.001l-0.07-0.011l-0.172-0.076l-0.069-0.003l-0.113,0.047h-0.06l-0.039-0.031l0.051-0.1l-0.008-0.062  l-0.08-0.064l-0.129-0.048L71.73,32.58l-0.201,0.024l-0.114-0.059l-0.211-0.147l-0.134,0.036l-0.045-0.002l-0.041,0.004  l-0.034,0.027l-0.033,0.035l-0.037,0.025l-0.09,0.024l-0.092,0.008l-0.183-0.01l-0.102-0.028l-0.045-0.053l-0.026-0.073l-0.044-0.09  l-0.051-0.056l-0.075-0.056l-0.08-0.036l-0.069,0.004l-0.029,0.022l-0.036,0.01l-0.038-0.004l-0.033-0.02l-0.021-0.036v-0.035  l0.005-0.037l-0.009-0.044l-0.057-0.069l-0.065,0.007l-0.063,0.053l-0.05,0.068l-0.02-0.177v-0.196l-0.017-0.093l-0.042-0.082  l-0.072-0.054l-0.201-0.107l-0.041-0.03l0.027-0.104l0.051-0.118l0.069-0.102l0.081-0.056l0.194-0.05l0.075-0.058l0.023-0.105  l-0.089-0.061l-0.042-0.036l-0.066-0.09l-0.035-0.022l-0.037-0.018l-0.041-0.027l-0.071-0.081l-0.043-0.096l-0.019-0.105l0.01-0.111  l0.001-0.06l-0.052-0.073l-0.002-0.05l0.022-0.052l0.063-0.094l0.051-0.129l0.07-0.12l0.156-0.682l0.004-0.056l-0.012-0.065  l-0.027-0.056l-0.078-0.082l-0.025-0.046l-0.003-0.061l0.032-0.119l-0.008-0.063v-0.001l0,0l-0.048-0.058l-0.071-0.063l-0.145-0.098  l-0.082-0.025l-0.188-0.027l-0.065-0.05L68.85,27.88l-0.054-0.003l-0.133,0.104l-0.07,0.069l-0.044,0.07L68.5,28.159l-0.086-0.027  l-0.063,0.017l-0.181,0.133v0.001l-0.067,0.043l-0.582,0.088l-0.073,0.031l-0.038,0.01l-0.038-0.001l-0.079-0.012l-0.036,0.012  l-0.051,0.068l-0.006,0.09l0.022,0.088l0.043,0.068l0.08,0.019l0.043,0.016l0.026,0.021l0.007,0.042l-0.039,0.067l0.018,0.148  l-0.034,0.092l-0.046,0.093l-0.078,0.302l-0.199,0.34l-0.082,0.182l-0.004,0.039l0.004,0.035l0.016,0.07l0.01,0.016l0.027,0.03  l0.008,0.016l-0.008,0.031l-0.016,0.02l-0.018,0.019l-0.013,0.024l-0.026,0.083l-0.008,0.04l0.002,0.05l0.016,0.04l0.04,0.07  l0.008,0.041l-0.021,0.088l-0.127,0.287l-0.014,0.252l-0.047,0.104l-0.005,0.03l0.005,0.029l0.016,0.027l0.051,0.049l0.059,0.129  l0.059,0.037l0.051,0.023l0.041,0.039l0.067,0.094l0.064,0.117l0.048,0.126l0.027,0.055l0.072,0.109l0.026,0.056l0.013,0.062  l0.014,0.154l0.027,0.143l0.004,0.068l-0.005,0.068l-0.014,0.071l-0.054,0.158l-0.146,0.284l-0.068,0.23l-0.002,0.037l0.01,0.044  l0,0l-0.026,0.146l-0.097,0.173l-0.121,0.127l-0.102,0.012l-0.045-0.044l-0.104-0.063l-0.047-0.042l-0.02-0.035l-0.021-0.063  l-0.014-0.029l-0.01,0.001l-0.077-0.063l-0.002-0.014l-0.058,0.014l-0.098,0.083h-0.057l-0.061-0.031l-0.055-0.02l-0.041,0.016  l-0.021,0.076l-0.023,0.054L66.01,34.01l-0.054-0.006l-0.043-0.038l-0.054-0.028l-0.068,0.023l-0.115,0.088l-0.119,0.053  l-0.111-0.031l-0.23-0.131l-0.1-0.018l-0.106,0.005l-0.104,0.03l-0.09,0.053l-0.035,0.051l-0.062,0.129l-0.04,0.034l-0.043-0.008  l-0.135-0.06l-0.043-0.026l-0.027-0.046l-0.022-0.056l-0.033-0.033l-0.101,0.03l-0.17,0.02l-0.094-0.038l-0.072-0.098l-0.056-0.12  l-0.03-0.104H63.85l0,0l-0.037-0.176v-0.061l-0.012-0.068l-0.035,0.001l-0.048,0.039l-0.098,0.102l-0.041,0.031l-0.21,0.074  l-0.102,0.059l-0.033,0.081l-0.063,0.071l-0.079,0.052l-0.081,0.023l-0.029-0.005l-0.113-0.045l-0.044,0.007l-0.024,0.036  l-0.021,0.042l-0.034,0.026l-0.058-0.013l-0.227-0.136l-0.217-0.1l-0.064-0.039l0,0l-0.043-0.051l-0.044-0.04l-0.051-0.027  l-0.062-0.015l-0.101-0.04l-0.196-0.106l-0.097-0.035h-0.026l-0.07,0.008l-0.022-0.002l-0.022-0.025l-0.002-0.051l-0.022-0.024  l-0.055-0.011l-0.067,0.011l-0.123,0.042l-0.07,0.046l-0.022,0.007l-0.034-0.006l-0.02-0.015l-0.016-0.017l-0.021-0.012  l-0.049-0.014l-0.025-0.003l-0.072,0.004l-0.021-0.008l-0.017-0.015l-0.224-0.139l-0.097-0.032l-0.115,0.036l-0.076,0.009  l-0.055,0.033L60.02,33.38l-0.068,0.041l-0.053,0.008l-0.022-0.02l-0.005-0.028L59.87,33.35l-0.007-0.03l-0.025-0.023l-0.029,0.008  l-0.033,0.014l-0.028-0.008l-0.174-0.137l-0.046-0.056l-0.034-0.126l0.022-0.265l-0.024-0.123l-0.044-0.055l-0.254-0.141  l-0.034-0.012l-0.255,0.1l-0.141,0.076l-0.115,0.063l-0.06,0.018l-0.06-0.018l-0.057-0.003l-0.054,0.049l-0.051,0.062l-0.052,0.039  l-0.112,0.034l-0.05,0.001l-0.297-0.079l-0.094-0.098v-0.124l-0.012-0.108l-0.126-0.053l-0.073,0.008l-0.181,0.071l-0.082-0.007  l-0.006-0.048l0.004-0.055l-0.056-0.028l-0.041-0.005l-0.039-0.012l-0.074-0.038l-0.027-0.065l-0.019-0.075l-0.048-0.069  l-0.07-0.041l-0.161-0.053l-0.075-0.046h-0.001l-0.032-0.056l-0.052-0.012l-0.053,0.02l-0.044,0.033H56.46l-0.388-0.105  l-0.041-0.029l-0.021-0.077l0.029-0.082l0.046-0.082l0.031-0.078l0.018-0.143l-0.007-0.138l-0.03-0.134l-0.053-0.131l-0.082-0.12  L55.87,30.69l-0.927-0.169l-0.069-0.045l-0.062-0.086l-0.03-0.067l-0.044-0.034l-0.098,0.016l-0.029-0.009l-0.035-0.088  l-0.029-0.033l-0.078-0.031l-0.033-0.02l-0.031-0.031l-0.014-0.066l-0.058-0.013L54.27,30.04l-0.164,0.201l-0.067,0.047  l-0.103,0.004l-0.129-0.023l-0.041-0.014l-0.074,0.021l-0.148,0.01l-0.063,0.025l0.026,0.058l0.093,0.103l0.006,0.034l0.015,0.037  l-0.001,0.029l-0.031,0.012l-0.02,0.014l-0.022,0.034l-0.021-0.021l-0.148-0.054l-0.445-0.239l-0.234-0.088l-0.354-0.047  L52.04,30.18l-0.084,0.03l-0.017,0.035l-0.006,0.044l0.006,0.042l0.049,0.067l-0.004,0.043l-0.022,0.045l-0.069,0.104l-0.055,0.055  l-0.063,0.036l-0.071,0.003l-0.074-0.026l-0.032-0.036l-0.021-0.051l-0.037-0.069l-0.04-0.045l-0.159-0.135l-0.118-0.047  l-0.395,0.003l-0.204-0.05l-0.147-0.083l-0.08-0.025l-0.398-0.027l-0.071-0.084l-0.036-0.137l-0.029-0.271l-0.039-0.139l-0.057-0.09  l-0.09-0.036l-0.404,0.105l-0.275,0.031l-0.124-0.039l-0.174-0.177l-0.249-0.125l-0.385-0.318l-0.141-0.055l-0.055-0.032  l-0.061-0.064l-0.063-0.055l-0.079-0.026L47.5,28.565l-0.095,0.042l-0.13,0.153L47.2,28.812l-0.089-0.007l-0.089-0.053l-0.089-0.067  l-0.161-0.092l-0.128-0.137l-0.068-0.057L46.5,28.371l-0.163-0.038l-0.063-0.048l0,0l0,0l-0.041-0.066l-0.065-0.046l-0.285-0.146  l-0.049-0.04l-0.015-0.034l-0.002-0.038l-0.016-0.053l-0.042-0.066l-0.058-0.063l-0.068-0.049l-0.074-0.026l-0.049,0.007  l-0.021,0.033l-0.013,0.045l-0.029,0.042L45.4,27.807l-0.054,0.009L45.311,27.8l0.01-0.052l-0.053-0.013l-0.02-0.027l0.013-0.03  l0.049-0.02l-0.044-0.088l-0.187-0.215l-0.044-0.102l-0.065-0.216l-0.066-0.085l-0.074-0.04l-0.471-0.09l-0.023-0.04l-0.006-0.045  l-0.011-0.039l-0.038-0.021l-0.05,0.017l-0.063-0.002l-0.063-0.013l-0.052-0.017l-0.06-0.044l-0.016-0.051l-0.005-0.055  l-0.026-0.054l-0.046-0.02l-0.133-0.001l-0.059-0.011l-0.054-0.033l-0.123-0.128l-0.054-0.036l-0.1-0.029l-0.057-0.026l-0.032-0.042  l-0.064-0.122l-0.041-0.029l-0.12-0.021l-0.055-0.019l-0.057-0.029l-0.021-0.029l0.002-0.034l0.004-0.032l-0.01-0.021l-0.123-0.004  l-0.064,0.036l-0.032,0.05L42.7,25.939l0.027,0.232l-0.016,0.048l-0.063-0.034l-0.136-0.164l-0.059-0.035l-0.064-0.003L42.327,26  l-0.062,0.009L42.2,25.983l-0.035-0.046l-0.089-0.181l-0.024-0.021l-0.059-0.015l-0.026-0.013l-0.024-0.027l-0.034-0.059  l-0.017-0.024l-0.055-0.033l-0.114-0.02l-0.062-0.021l-0.047-0.037l-0.107-0.143l-0.104-0.062l-0.087-0.018l-0.06-0.047l-0.02-0.149  l0.003-0.073l0.009-0.066l0.021-0.062l0.04-0.06l0.05-0.04l0.054-0.027l0.045-0.036l0.027-0.064l0,0l-0.009-0.121l0.026-0.163  l0.063-0.14l0.1-0.048l0.055,0.008h0.067l0.063-0.018l0.04-0.048l-0.009-0.057l-0.054-0.153l0.017-0.053l0.056-0.007l0.039,0.032  l0.031,0.007l0.066-0.241l0.013-0.085l-0.009-0.069l-0.023-0.021l-0.029,0.001L41.96,23.46l-0.018-0.038l-0.023-0.148l-0.067-0.121  l-0.023-0.062l0.013-0.065L41.875,23l0.094-0.031l0.02-0.034l0.01-0.047l0.021-0.024l0.029-0.021l0.029-0.038h0.001l0.064-0.049  l0.027-0.028l0.023-0.033l0.001-0.019l-0.008-0.02l-0.006-0.022l0.013-0.026l0.018-0.014l0.039-0.021l0.02-0.014l0.071-0.082  l0.039-0.076l0.005-0.081l-0.03-0.096l-0.044-0.099l-0.03-0.093l-0.001-0.093l0.048-0.102l0.085-0.069l0.191-0.051l0.068-0.058  l0.165-0.208l0.072-0.116l0.043-0.133l0.027-0.063l0.047-0.027l0.116-0.015l0.062-0.02l0.04-0.026l0.085-0.079l0.114-0.079  l0.032-0.035l0.097-0.155l0.045-0.047l0.193-0.147l0.063-0.097l-0.042-0.099l0.045-0.044l0.057-0.068l0.051-0.038l0.032,0.045  l0.031,0.065l0.056,0.014l0.217-0.074l0.025-0.001l0.011,0.01l0.006-0.017l0.007-0.051l-0.022-0.052l-0.065-0.105l-0.104-0.056  l-0.246-0.068l-0.274-0.12l-0.047-0.039l-0.04-0.054l-0.063-0.12l-0.04-0.051l-0.091-0.073l-0.317-0.179l-0.066-0.024l-0.05,0.004  l-0.048,0.015l-0.064,0.009l-0.055-0.014l-0.105-0.067l-0.162-0.065l-0.318-0.181l-0.236-0.068l-0.117-0.007l-0.117,0.027  l0.027-0.065l0.03-0.054l0.018-0.056l-0.011-0.073l-0.029-0.045l-0.044-0.044l-0.033-0.044l-0.001-0.047l0.021-0.017l0.029-0.003  l0.031,0.001l0.026-0.004l0.022-0.021l0.078-0.144l-0.021-0.035l-0.092-0.052l-0.087-0.139l-0.039-0.029h-0.053l-0.101,0.056  l-0.056,0.014l-0.096-0.039l-0.058-0.082l-0.052-0.09l-0.074-0.061l-0.227-0.095l-0.103-0.065l-0.072-0.085l-0.057-0.107  l-0.041-0.048l-0.054-0.026l-0.234-0.059l-0.07-0.007l-0.163,0.044l-0.13,0.006l-0.057,0.012l-0.132,0.083l-0.037,0.007  l-0.039-0.015l-0.069-0.019L39.627,17.4l-0.055-0.047l-0.049-0.056l-0.03-0.05l-0.005-0.021l-0.008-0.02l-0.012-0.017l-0.014-0.015  l-0.048-0.026l-0.05-0.01l-0.049,0.002l-0.053,0.011l-0.042-0.012l-0.021-0.049l-0.021-0.123l-0.052-0.092l-0.078-0.042  l-0.088-0.026l-0.081-0.044l-0.043-0.053l-0.023-0.06l-0.009-0.066l-0.001-0.071l-0.019-0.08l-0.045-0.027l-0.056-0.014l-0.05-0.038  l-0.013-0.038l0.005-0.033l0.008-0.031l-0.002-0.033l-0.018-0.028l-0.049-0.039l-0.013-0.03l0.002-0.041l0.008-0.035l0.004-0.035  l-0.016-0.039l-0.022-0.016l-0.061-0.007l-0.025-0.012L38.4,15.882l-0.014-0.059l-0.021-0.051l-0.108-0.066l-0.088-0.079  l-0.047-0.024l-0.157,0.031l-0.062,0.145l-0.022,0.163l-0.039,0.087l-0.054-0.019l-0.08-0.083l-0.054-0.026l-0.055,0.116  l-0.035,0.053l-0.042,0.042l-0.049,0.025l-0.043,0.002l-0.086-0.01l-0.083,0.021l-0.038-0.001l-0.101-0.051l-0.026-0.023  l-0.013-0.036l-0.008-0.065l0.022-0.145l0.047-0.145l0.008-0.124l-0.095-0.085l-0.121-0.076l0.014-0.083l0.313-0.259l0.055-0.061  l0.016-0.046l-0.076-0.1l-0.119-0.124l-0.059,0.002l-0.027-0.008L37.03,14.7l-0.02-0.027l-0.024-0.066l-0.04-0.049l-0.016-0.027  l-0.002-0.038l0.008-0.035l0.002-0.033l-0.08-0.09l0.011-0.062l0.084-0.131l0.021-0.072l0.024-0.16l0.02-0.075l0.07-0.16  l0.007-0.071l-0.033-0.078l-0.038-0.038l-0.141-0.083l-0.094-0.074L36.476,12.9l-0.055-0.117l-0.069-0.1l-0.118-0.063l-0.061-0.02  l-0.005-0.047l0.017-0.068l0.004-0.082l-0.077-0.347l-0.009-0.018l-0.005-0.022l0.006-0.047l0.017-0.033l0.021-0.021l0.013-0.023  l-0.011-0.038l-0.128-0.189l-0.09-0.195l0.013-0.074l0.075-0.042l0.126-0.03l0.458-0.014l0.129-0.031l0.057-0.03L36.84,11.2  l0.096-0.117l0.061-0.03l0.075,0.029l0.047,0.065l-0.007,0.064l-0.026,0.065l-0.019,0.068l0.005,0.057l0.058,0.198l0.054,0.122  l0.272,0.232l0.082,0.092l0.096,0.082l0.104,0.031l0.105-0.058l0.043-0.009l0.08-0.038l0.044-0.012l0.036,0.004l0.087,0.022  l0.028-0.002l0.053-0.075l0.036-0.225l0.033-0.085l0.063-0.049l0.092-0.042l0.095-0.03l0.078-0.014l0.065,0.014l0.066,0.032  l0.064,0.021l0.059-0.017l0.136-0.156l0.315-0.254l0.135-0.164l0.063-0.125l0.029-0.137l-0.016-0.125l-0.076-0.087l-0.09-0.099  l-0.031-0.11l-0.022-0.117l-0.062-0.119l-0.188-0.168l-0.064-0.1l-0.002-0.143l0.02-0.073l0.015-0.201l0.022-0.072L39.12,9.24  l0.027-0.058l-0.01-0.142l-0.109-0.057l-0.259-0.011L38.66,8.938l-0.244-0.133l-0.102-0.008l-0.111,0.051l-0.027-0.021l-0.007-0.09  l-0.013-0.073l-0.041-0.05L38.06,8.579l-0.055-0.026l-0.119-0.036l-0.052-0.029l-0.178-0.294l-0.301-0.287L37.28,7.78l-0.063-0.225  l0.041-0.735l-0.021-0.25l-0.055-0.247l-0.158-0.471l0.029-0.329l0.244-0.169l0.313-0.136l0.235-0.229l0.03-0.088l0.008-0.09  l-0.01-0.09l-0.028-0.088l-0.081-0.155l-0.094-0.09l-0.117-0.052l-0.149-0.043l-0.121-0.07l-0.164-0.219L36.842,3.79l-0.184-0.078  l-0.733-0.125l-0.143-0.062l-0.127-0.117l-0.072-0.134l-0.199-0.738l-0.029-0.068L35.226,2.3l-0.045-0.134L35.152,1.87l-0.029-0.143  L34.82,1.183L34.707,0.89l0.028-0.308l0.091-0.199l0.057-0.215l-0.037-0.153l-0.188-0.01l-0.09,0.048l-0.145,0.162l-0.096,0.039  l-0.084-0.021L34.17,0.17l-0.061-0.083L34.062,0l-2.419,1.511l-0.021,0.013L31.56,1.605L31.572,1.7l0.027,0.108L31.577,1.93  l-0.05,0.066l-0.194,0.156l-0.062,0.069l-0.04,0.032l-0.049-0.01l-0.085-0.054L31.01,2.164l-0.115,0.011l-0.111,0.038l-0.079,0.062  l-0.026,0.089l0.013,0.21l-0.03,0.075l-0.294,0.282l-0.042,0.022l-0.278,0.06l-0.056-0.001L29.94,2.993L29.8,2.889l-0.123-0.02  l-0.123,0.048L29.11,3.174l-0.344,0.089L28.66,3.266l-0.205-0.088l-0.111,0.024L28.291,3.25l-0.067,0.113l-0.042,0.053L28.158,3.43  l-0.087,0.027l-0.21,0.158l-0.187,0.193l-0.065,0.053l-0.061,0.016l-0.136-0.019h-0.068l-0.186,0.045l-0.143-0.006L26.169,3.67  l-0.132-0.065l-0.128-0.094l-0.052-0.058L25.811,3.38l-0.077-0.051l-0.117-0.002l-0.211,0.046l-0.3,0.015L23.97,3.16l-0.813-0.296  l-0.204-0.035L22.75,2.846l-0.206,0.083l-0.241,0.179L22.219,3.15l-0.511,0.088L21.665,3.26l-0.094,0.079L21.564,3.43l0.026,0.101  l0.001,0.11l-0.048,0.078L21.39,3.826l-0.052,0.089l0,0l-0.004,0.146l-0.017,0.047L21.289,4.14l-0.08,0.044L21.175,4.21  l-0.054,0.087l-0.016,0.097l0.025,0.094l0.07,0.075l0.079,0.047l0.079,0.031l0.082,0.012l0.092-0.01l0.097,0.01l0.055,0.066  l0.072,0.192L21.8,4.985l0.024,0.084l-0.009,0.079l-0.06,0.058l-0.193,0.102l-0.076,0.08l-0.028,0.118l0.03,0.115l0.072,0.102  l0.096,0.07l0.1,0.02l0.22-0.058l0.065,0.004l0.17,0.061l0.116-0.006l0.121-0.03l0.117-0.003l0.101,0.071l0.041,0.125l-0.032,0.124  l-0.073,0.112L22.514,6.3l-0.112,0.08l-0.114,0.052l-0.347,0.06l-0.075,0.07l-0.11,0.199l-0.02,0.045L21.72,6.854l-0.01,0.05  l-0.007,0.113l0.007,0.06l0.017,0.057l0.028,0.053l0.152,0.131l0.206,0.112l0.172,0.138l0.052,0.212l-0.069,0.292L22.17,8.351  l-0.031,0.064l-0.034,0.054l-0.042,0.046l-0.054,0.039l-0.121,0.048l-0.052,0.036l-0.032,0.067l-0.011,0.168l0.045,0.119l0.087,0.09  l0.117,0.083l0.104,0.106l0.179,0.247l0.119,0.069l0.3,0.051l0.088,0.055l0.035,0.085l0.007,0.194l0.04,0.195l-0.01,0.08  l-0.035,0.071l-0.052,0.079l0.031,0.072l0.041,0.056l0.055,0.036l0.069,0.013l0.061-0.017l0.104-0.063l0.064-0.005l0.054,0.028  l0.094,0.095l0.053,0.029l0.063,0.002l0.171-0.027l0.063-0.021l0.066-0.048l0.025-0.057l0.014-0.066l0.03-0.074l0.058-0.059  l0.059-0.012l0.043,0.036l0.013,0.085l-0.021,0.082l-0.082,0.16l-0.022,0.084v0.084l0.023,0.154l-0.003,0.076l-0.027,0.065  l-0.034,0.066l-0.024,0.069l0.01,0.076l0.096,0.265l0.087,0.103l0.115,0.04l0.123-0.007l0.115-0.038l0.126-0.008l0.221,0.113  l0.134-0.014l0.136-0.055l0.106-0.011l0.101,0.041l0.119,0.099l0.109,0.067l0.226,0.055l0.11,0.065l0.311,0.256l0.084,0.106  l0.02,0.086l-0.034,0.075l-0.103,0.118l-0.026,0.064l-0.033,0.129L26,12.906L25.896,12.9l-0.043,0.007l-0.075,0.025l-0.099,0.051  l-0.073,0.072l0.004,0.086l-0.042-0.005l-0.073-0.021l-0.028,0.012l-0.034,0.035l-0.028,0.013l-0.025-0.002l-0.2-0.073l-0.059,0.013  l0.024,0.106l-0.032,0.002l-0.078-0.006l-0.03,0.016l-0.025,0.037L24.966,13.3l-0.021,0.027l-0.039,0.021l-0.078,0.009l-0.073-0.008  l-0.063,0.012l-0.052,0.065l-0.143-0.052l-0.056,0.083l-0.028,0.132l-0.061,0.098l-0.067,0.015l-0.207-0.043l-0.092,0.174  l-0.041,0.032l-0.053,0.019l-0.242,0.189l-0.049,0.051l-0.031,0.061l-0.011,0.083l-0.002,0.05l-0.005,0.017l-0.014,0.013  l-0.025,0.035l-0.007,0.018l-0.008,0.045l-0.007,0.017l-0.01,0.008l-0.025,0.012l-0.007,0.005l-0.034,0.061l-0.011,0.013  l0.032,0.042l0.181,0.33l0.093,0.356l0.098,0.149l0.008,0.071l-0.017,0.07l-0.038,0.06l-0.053,0.066l-0.039,0.064l-0.126,0.323  l-0.022,0.086l-0.001,0.168l-0.052,0.148L23.46,16.57l0.011,0.072l0.017,0.053l0.027,0.047l0.043,0.053l0.053,0.023l0.141-0.025  l0.065,0.001l0.047,0.029l0.06,0.054l0.028,0.035l-0.187,0.102l-0.069,0.052l-0.049,0.066l-0.001,0.077l-0.05,0.046l-0.045,0.06  l-0.049,0.051l-0.064,0.022l-0.071,0.002l-0.061,0.01l-0.055,0.027l-0.055,0.052l-0.036,0.064l-0.013,0.052l-0.025,0.029  l-0.069-0.005l-0.084-0.024l-0.036-0.003l-0.041,0.009l-0.034,0.023l-0.027,0.034l-0.021,0.039l0.022,0.067l-0.035,0.066  l-0.065,0.05l-0.063,0.02l-0.012,0.016l0.029,0.074l0.003,0.026l-0.024,0.027l-0.048,0.037l-0.027,0.026l-0.066,0.1l-0.052,0.046  l-0.025,0.03l-0.021,0.075l-0.046,0.036l-0.011,0.03l-0.01,0.053l-0.025,0.02l-0.075,0.015l-0.068,0.034l-0.05,0.034l-0.044,0.042  l-0.047,0.058l-0.033,0.07l0.004,0.064l0.01,0.07l-0.013,0.09l-0.043,0.047l-0.128,0.036l-0.027,0.03l-0.021,0.049l-0.162,0.229  l-0.032,0.026l-0.04,0.006l-0.055-0.018l0.007,0.024l0.008,0.052l0.006,0.025l-0.06-0.006l-0.064,0.033l-0.052,0.055l-0.02,0.058  l-0.011,0.015l0.159,0.086l0.065,0.096l0.073,0.159l0.046,0.163l-0.015,0.107l-0.535,0.447l-0.124,0.07l-0.585,0.133l-0.556,0.26  l-0.048,0.055l-0.138,0.451l-0.138,0.448l-0.167,0.542l-0.177,0.342L19.027,23.3l-0.251,0.485l-0.201,0.27l-0.083,0.138  l-0.104,0.254l-0.04,0.054l-0.054,0.037l-0.415,0.217l-0.367,0.191l-0.428,0.224l-0.462,0.241l-0.088,0.061l-0.239,0.292  l-0.077,0.151l-0.188,0.732l-0.065,0.174l-0.089,0.158l-0.125,0.131l-0.396,0.326l-0.257,0.336l-0.036,0.073l-0.018,0.067  l-0.037,0.443l-0.019,0.055l-0.043,0.034l-0.514,0.157l-0.453,0.139l-0.269,0.022l-0.255-0.021l-0.278,0.024l-0.273,0.059  l-0.244,0.083l-0.396,0.197l-0.366,0.182l-0.264,0.059l-0.226-0.03l-0.165-0.114l-0.125-0.181l-0.099-0.23l-0.011-0.071l0.014-0.134  l-0.027-0.073l-0.039-0.045l-0.091-0.074l-0.105-0.123l-0.081-0.063l-0.091-0.047l-0.095-0.03l-0.068-0.01l-0.062,0.016l-0.124,0.05  l-0.125,0.02l-0.057,0.018l-0.059,0.04l-0.18,0.2l-0.222,0.16l-0.313,0.323L9.25,29.013L9.012,29.71l-0.075,0.106l-0.275,0.266  L8.47,30.396l-0.38,0.362l-0.207,0.145l-0.292,0.294l-0.132,0.226l-0.087,0.271l-0.069,0.443l-0.067,0.427l0.025,0.148l0.101,0.112  L7.86,33.03l0.132,0.088l0.231,0.207l0.14,0.053l0.774-0.031l0.121,0.031l0.115,0.063l0.092,0.116l0.016,0.132l-0.019,0.294  l0.011,0.141l-0.011,0.062L9.433,34.26l-0.018,0.07l0.005,0.069l0.024,0.144L9.43,34.676l-0.048,0.132L9.21,35.096l-0.015,0.059  l-0.004,0.127l-0.027,0.185l0.001,0.054L9.226,35.7l0.102,0.172l0.127,0.15l0.133,0.115l0.059,0.073l0.066,0.197L9.76,36.49  l0.05,0.037l0.126,0.045l0.182,0.04l0.377-0.01l0.127-0.027l0.121-0.053l0.122-0.036l0.129,0.026l0.068,0.096l0.012,0.145  l-0.014,0.311l-0.021,0.406l0.025,0.124l0.051,0.075l0.13,0.14l0.025,0.089l0.015,0.083l0.038,0.07l0.108,0.121l0.202,0.176  l0.056,0.071l0.036,0.084l0.108,0.486l0.069,0.195l0.09,0.186l0.194,0.303l0.107,0.308l0.087,0.135l-0.066,0.047l-0.212,0.104  l-0.047,0.084l-0.025,0.11l0.01,0.1l0.063,0.055l0.012,0.02l0.003,0.021l-0.004,0.024l-0.011,0.024l-0.008,0.071l-0.005,0.027  l-0.001,0.026l0.003,0.026l0.011,0.025l0.072,0.042l0.13,0.021l0.112,0.037l0.025,0.087L12.411,41.1l-0.155,0.056l-0.034,0.039  l-0.022,0.04l-0.035,0.026l-0.062-0.002l-0.07-0.03l-0.062-0.004l-0.061,0.019l-0.196,0.133l-0.05,0.063l0.011,0.062l0.043,0.059  l-0.021,0.024l-0.056,0.012l-0.066,0.024l-0.12,0.062l-0.066,0.019l-0.431-0.034l-0.119-0.059l-0.055-0.053l-0.023-0.05l-0.017-0.14  l-0.031-0.124l0.004-0.039l0.017-0.022l0.056-0.037l0.02-0.036l-0.04-0.084l-0.135-0.003l-0.337,0.081l-0.146,0.104l-0.057,0.021  l-0.176,0.01l-0.063,0.029l-0.118,0.086l-0.063,0.014L9.609,41.37l-0.185,0.062L9.31,41.445l-0.038,0.021l-0.033,0.057L9.16,41.742  l-0.035,0.063l-0.116,0.099l-0.143,0.031l-0.652,0.009l-0.175-0.021l-0.143-0.071l-0.251-0.266L7.55,41.543l-0.908-0.024  l-0.24,0.088l-0.127,0.019l-0.06-0.012l-0.182-0.089l-0.078-0.023l-0.062,0.011l-0.131,0.073l-0.087,0.032l-0.059-0.006  l-0.045-0.046l-0.062-0.112l-0.023-0.028L5.46,41.401L5.431,41.39l-0.045,0.004l-0.017,0.021l-0.006,0.029l-0.011,0.028  l-0.101,0.187L5.22,41.685l-0.061-0.048l-0.02-0.204L5.093,41.36l-0.167-0.007L4.856,41.5v0.282L4.853,42.15l-0.002,0.487  L4.6,42.635l-0.316-0.002l-0.375-0.002l-0.148,0.023l-0.102,0.074v-0.027l-0.004-0.033L3.643,42.64l-0.021-0.014l-0.039,0.007  l-0.002,0.03l0.013,0.035l0.004,0.024l-0.029,0.046L3.531,42.81l-0.044,0.019l-0.046-0.02l-0.02-0.033l-0.008-0.027l-0.012-0.015  L3.37,42.738l-0.028,0.024l-0.008,0.032l0.002,0.031l-0.005,0.022l0.007,0.007l0.013,0.012L3.36,42.88l-0.013,0.013H3.335  l-0.032-0.006l-0.01,0.001l-0.022,0.014l-0.058,0.026l-0.025,0.017l-0.076,0.118L3.109,43.09L3.1,43.118l-0.014,0.103l-0.031,0.087  l-0.007,0.054l0.015,0.036l0.032-0.023l0.063-0.072v0.075l-0.007,0.07l0.005,0.066l0.036,0.064l0.053,0.05l0.051,0.027l0.058-0.002  l0.069-0.04l-0.015,0.071l-0.044,0.015L3.31,43.707l-0.04,0.049l-0.041-0.05l-0.034-0.012l-0.037,0.013l-0.045,0.025l-0.007,0.015  l-0.012,0.047l-0.013,0.01l-0.064-0.003l-0.015,0.003L2.983,43.87l0.045,0.041l0.077,0.024l0.159,0.021l0.203-0.008l0.046,0.005  l0.03,0.01l0.031-0.002l0.047-0.034l0.022-0.024l0.014-0.025l-0.004-0.024L3.622,43.83l0.222-0.268l0.055-0.048l0.07-0.032  l0.075-0.049l0.118-0.023l0.049-0.028l0.044-0.032l0.053-0.025L4.414,43.3l0.036-0.021l0.032-0.047l0.044-0.102L4.56,43.1  l0.066-0.011l0.122-0.001l0.083-0.015l0.071-0.044l0.087-0.087l0.042,0.015l0.083-0.036l0.052,0.021l-0.171,0.13l-0.04,0.017  l-0.035,0.01l-0.062,0.05L4.824,43.16l-0.113-0.007l-0.03,0.007l-0.053,0.059L4.574,43.35l-0.115,0.045L4.4,43.441l-0.093,0.1  L4.256,43.62l-0.017,0.018l-0.031,0.011l-0.063,0.006l-0.05,0.033l-0.063,0.02L4.02,43.721l0.012,0.05l0.025,0.005l0.03-0.007  l0.021,0.014l-0.003,0.065H4.041l-0.143-0.044L3.837,43.84l-0.012,0.083l0.019,0.17l-0.015,0.14l0.018,0.049l0.063,0.004l0.05-0.033  l0.002-0.046l-0.02-0.055l-0.012-0.06l0.021,0.027l0.032,0.052l0.015,0.017l0.03,0.006l0.024-0.015l0.019-0.003l0.014,0.039  l-0.064,0.031l-0.059,0.062l-0.047,0.075l-0.029,0.07l0.023,0.032l0.03,0.008l0.037-0.012l0.043-0.028l-0.014,0.044l-0.007,0.047  l0.012,0.037l0.041,0.015l0.05-0.016l0.02-0.03l0.016-0.019l0.036,0.017l0.029-0.022l0.025-0.003l0.021,0.015l0.016,0.034  L4.226,44.57l-0.028,0.015l-0.019,0.029l-0.006,0.039l0.006,0.039l0.019,0.027l0.028,0.021l0.038,0.021l0.007-0.005l0.018-0.01  l0.021-0.009h0.019l0.009,0.014l0.01,0.024l0.015,0.023l0.023,0.01L4.43,44.82l0.035,0.025l0.012,0.026L4.45,44.883l-0.099,0.013  l-0.024,0.008l-0.063,0.132L4.299,45.1l0.083,0.015L4.47,45.1l0.057-0.028l0.001,0.04l-0.01,0.037l-0.035,0.065L4.448,45.18  l-0.009-0.012l0.013,0.054l0.03,0.063l0.043,0.054l0.088,0.037l0.004,0.032L4.616,45.44l0.011,0.015l0.021,0.013l0.1,0.083  l0.563,0.384l0.56,0.242l0.308,0.215l0.213,0.125l0.119,0.036l0.319,0.031l0.111,0.049l0.106,0.019l0.062,0.033l0.152,0.033  l0.017,0.009l0.017,0.013l0.022,0.013l0.034,0.011l0.035,0.004l0.108-0.004l0.039,0.011l0.061,0.049l0.032,0.011l0.219,0.002  l0.131,0.038l0.069,0.01l0.043-0.027l0.1-0.186l0.064-0.067l0.086-0.062l0.085-0.046l0.063-0.018l0.102-0.015l0.18-0.064  l0.181-0.027l0.21-0.085l0.187-0.023l0.049-0.017l-0.009-0.039l-0.039-0.04l-0.035-0.023l0.068-0.121l-0.015,0.032L9.36,46.088  l0.013,0.023l0.038,0.009l0.021,0.002l0.008,0.006l0.004,0.012l0.011,0.017l0.028,0.024h0.016l0.013-0.01l0.021-0.003l0.083,0.003  l0.057-0.025l0.032-0.054l0.003-0.088l0.054,0.044l0.028,0.054l0.035,0.046l0.072,0.02l0.007,0.006l0.02,0.024l0.012,0.021  l0.017-0.005l0.02-0.013l0.014-0.008l0.021,0.002l0.016,0.006l0.014,0.011l0.016,0.017l0.023,0.014l0.019-0.006l0.017-0.013  l0.019-0.007h0.067l0.026-0.007l0.021-0.017l0.009-0.028l0.006-0.048l0.002-0.049l-0.006-0.029l-0.001-0.032l0.03-0.083  l-0.021-0.035l-0.012-0.042l-0.007-0.048v-0.035l0.039-0.059l0.128-0.068l0.028-0.029l0.024-0.055l0.056,0.026l0.06,0.062  l0.039,0.052l0.028,0.066l0.016,0.082l-0.005,0.082l-0.029,0.069l-0.019,0.029l-0.024,0.055l-0.023,0.033l-0.036,0.022L10.49,46.13  l-0.037-0.009h-0.03l-0.054,0.041l-0.104,0.123L10.21,46.31l-0.04,0.033l-0.104,0.207l-0.057,0.059l-0.01,0.013L9.996,46.66  l0.006,0.084l-0.014,0.033l-0.166,0.25l-0.105,0.198l-0.089,0.118l-0.06,0.127l-0.035,0.055l-0.109,0.049L9.15,47.537l-0.124,0.012  L8.967,47.59l-0.021,0.006l-0.072,0.005l-0.002-0.005l-0.035,0.021l-0.183,0.169L8.588,47.83L8.52,47.858L8.48,47.86l-0.03-0.004  l-0.027,0.009l-0.036,0.041l-0.018,0.039l-0.012,0.04l-0.021,0.029l-0.038,0.009l-0.021-0.016L8.13,47.833l-0.028-0.024  l-0.026,0.054L8.022,48.02l-0.031,0.05l-0.016,0.001l-0.044-0.02l-0.02-0.005l-0.018,0.007l-0.014,0.015l-0.013,0.017l-0.012,0.012  l-0.016,0.024L7.82,48.154L7.799,48.17l-0.034-0.027l-0.032,0.044l-0.008,0.021L7.721,48.24l-0.049-0.027L7.568,48.19l-0.046-0.024  l0.022-0.048l-0.006-0.069l-0.039-0.14H7.481L7.449,47.93L7.42,47.92L7.4,47.919l-0.007,0.058l0.011,0.053l0.02,0.042l0.009,0.041  l-0.02,0.05l-0.016,0.009l-0.021,0.003l-0.018,0.007L7.35,48.201l-0.047,0.066l-0.019,0.019l-0.035,0.015l-0.107,0.025l-0.243,0.005  l-0.043,0.015L6.82,48.41l-0.158,0.075l-0.239,0.037v-0.025l-0.07-0.038l-0.054-0.055l-0.012-0.068l0.049-0.075l-0.009-0.058  l0.075-0.112l-0.011-0.056l-0.046-0.04L6.314,47.99l-0.03,0.024l-0.046,0.045l-0.024,0.009L6.19,48.061l-0.025-0.012l-0.029-0.002  l-0.029,0.012L6.053,48.09l-0.028,0.007l-0.054-0.009l-0.03-0.028l-0.046-0.083l0.026-0.036l0.059-0.027l0.025-0.035l0.009-0.046  l-0.011-0.026l-0.026-0.004l-0.084,0.063l-0.128,0.072l-0.047,0.04l-0.031,0.042L5.658,48.07l-0.021,0.06l-0.009,0.071l-0.013,0.06  l-0.03,0.051L5.56,48.369l0.003,0.081l0.027,0.065l0.087,0.14l0.045,0.109l0.059,0.063l0.114,0.096l0.142,0.201l0.035,0.08  l0.053,0.05l0.102,0.072l0.153,0.212l0.044,0.042l0.103,0.075l0.297,0.288l0.063,0.032l0.039-0.01L7,49.894l0.015,0.053  l-0.012,0.101l0.02,0.058l0.095,0.117l0.062,0.052l0.104,0.047l0.067,0.111l0.065,0.053l0.105,0.136l0.051,0.052l0.198,0.118  l0.406,0.433l0.049,0.041l0.056,0.03l0.064,0.013l0.02,0.109l0.097,0.152l0.215,0.256l0.149,0.143l0.026,0.034l0.016,0.032  l0.278,0.359l0.305,0.242l0.358,0.338l0.117,0.073l0.118,0.107l0.2,0.081l0.059,0.045l0.111,0.117l0.036,0.024l0.069,0.017  l0.184,0.123l0.506,0.211l0.104,0.08l0.03,0.017l0.035-0.004l0.039-0.019l0.037-0.009l0.033,0.017l0.053,0.047l0.059,0.021  l0.066,0.004l0.457-0.028l0.061-0.041l0.021-0.066l0.053-0.01l0.065,0.014l0.059,0.006l0.033-0.023l0.034-0.036l0.039-0.023  l0.047,0.015l0.022-0.025l0.075,0.004l0.574-0.286l0.19-0.034l0.271-0.089l0.06-0.052l0.012-0.057l0.029-0.041l0.14-0.121L13.954,53  l0.058-0.02L13.987,53l-0.019,0.023l-0.023,0.051l0.109-0.024l0.182-0.132l0.14-0.051l0.11-0.07l0.04,0.004l0.043,0.012l0.063-0.017  l0.082-0.052l0.057-0.051l0.387-0.232l0.149-0.008l0.059-0.014l0.207-0.109l0.024-0.021l0.013-0.022l0.028-0.015l0.03-0.012  l0.02-0.01l0.045-0.047l-0.001-0.059l-0.035-0.072l-0.009-0.033l0.009-0.018l0.019-0.023l0.011-0.031l-0.019-0.047l0.035-0.008  l0.012-0.021l-0.005-0.029l-0.018-0.035l0.038-0.027l0.114-0.127l0.023-0.046l0.024-0.065l0.171-0.18l0.071-0.124l0.106-0.396  l0.013-0.016l0.042-0.039l0.012-0.016l0.01-0.035l-0.001-0.027l-0.006-0.027l-0.003-0.041l-0.011-0.02l-0.022-0.019l-0.023-0.024  l-0.021-0.064l-0.026-0.004l-0.038,0.004l-0.036-0.002l-0.032-0.016L16.114,50.5L16.1,50.482l-0.015-0.024l-0.038-0.122  l-0.008-0.006l-0.014-0.027l-0.061-0.031l-0.015-0.037l-0.005-0.046l-0.017-0.011l-0.155,0.06l-0.046,0.005l-0.051-0.032  l-0.044-0.015l-0.062,0.011l-0.105,0.039l0.002-0.023l-0.005-0.046l0.003-0.023l-0.039,0.019l-0.015,0.009l-0.013,0.017L15.38,50.16  l-0.006-0.044l0.001-0.094l0.009-0.054l0.021-0.01l0.188,0.081l0.078,0.014l0.057-0.019l-0.059-0.103l-0.02-0.015l-0.027-0.003  l-0.033-0.008l-0.027-0.011L15.55,49.88l0.027-0.063l0.063,0.015l0.067,0.048l0.041,0.037l0.039,0.056l0.024,0.026l0.1,0.024  l0.024-0.007l-0.022-0.04L15.91,49.93l0.023-0.045l0.008-0.039l-0.056-0.025l0.021-0.023l-0.044-0.021v-0.023l0.035-0.028  l-0.047,0.003l-0.12,0.025l-0.055-0.007l-0.188-0.065l0.03-0.031l0.054-0.02l0.059-0.003l0.046,0.021l0.028,0.019l0.019-0.008  l0.009-0.022l-0.001-0.026L15.66,49.56l-0.019-0.022l0.123,0.035l0.032-0.01l0.01-0.038l-0.028-0.035l-0.071-0.046l0.055-0.012  l0.065,0.021l0.057,0.037l0.023,0.038l0.014,0.034l0.03-0.008l0.031-0.024l0.013-0.013l0.015-0.024l0.014-0.035l0.015-0.012  l0.021,0.045h0.026l0.007-0.047l0.015-0.011l0.053,0.013l0.038-0.004l0.026-0.014l0.057-0.053l0.003-0.014l0.023-0.041l0.027-0.034  l0.013,0.008l0.007-0.036l0.031-0.06l0.032-0.365l-0.035-0.155l-0.124,0.01l-0.094-0.042L16.15,48.63l0.01-0.044l0.018-0.034  l0.011-0.033l-0.019-0.044l-0.101,0.1l-0.06,0.028l-0.08-0.031l-0.054-0.062l0.04-0.011l0.144,0.024l-0.017-0.06l0.024-0.031  l0.048-0.009l0.055,0.004l0.077,0.023l0.004,0.027l-0.007,0.039l0.037,0.055l0.043-0.003l0.066,0.014l0.062-0.012l0.027-0.083  l0.013-0.064l0.029-0.072l0.037-0.066l0.033-0.043l0.082-0.038l0.035,0.046l-0.01,0.07l-0.055,0.037l-0.023,0.034l0.001,0.078  l0.018,0.081l0.017,0.045l0.071,0.024l0.06-0.033l0.054-0.038l0.048,0.009l0.011,0.028l-0.039,0.037l0.007,0.029l0.029,0.014  l0.041-0.002l0.072-0.024l0.063-0.044l0.103-0.102l0.066-0.02l0.073,0.004l0.032,0.011l0.06,0.042h0.033l0.036-0.008h0.042  l0.216,0.087l0.097,0.018l0.093-0.046l0.043-0.03l0.063-0.027l0.065-0.011l0.05,0.02l0.05,0.029h0.054l0.043-0.023l0.021-0.042  l0.037,0.034l0.018,0.058l-0.003,0.063L18.345,48.7l-0.062,0.035l-0.052-0.025l-0.051-0.045l-0.058-0.024l-0.112,0.021l-0.071,0.059  l-0.136,0.184l-0.061-0.046l-0.032-0.017l-0.037-0.012l-0.026,0.003l-0.025,0.011l-0.031,0.001l-0.04-0.025l-0.056-0.046  l-0.058-0.028l-0.065-0.004l-0.075,0.023l-0.049,0.037l-0.059,0.063l-0.049,0.069l-0.021,0.056l-0.008,0.076L17.1,49.103  l-0.034,0.066v0.038l0.007,0.04l0.002,0.041l-0.015,0.077l-0.042,0.131l-0.01,0.063l0.019,0.047l0.084,0.145l0.03,0.033l0.052-0.016  l0.073-0.044l0.068-0.053l0.028-0.042l0.037-0.039l0.227-0.02l0.007-0.012l0.007-0.022l0.011-0.023l0.021-0.018l0.019-0.006  l0.02-0.002l0.021,0.002l0.026,0.006v0.026l-0.065,0.012l-0.023,0.058l-0.016,0.064l-0.038,0.031l-0.122-0.008l-0.059,0.012  l-0.051,0.042l-0.063,0.152l-0.043,0.076l-0.059,0.033l-0.014,0.034l-0.021,0.224l-0.02,0.077l-0.059,0.131l-0.012,0.064l0.02,0.076  l0.051,0.021l0.065-0.014l0.146-0.051l0.061,0.002l0.059,0.015l0.076,0.008l0.183-0.033l0.072,0.009l0.137,0.039l0.067-0.005  l0.068-0.045l0.058-0.022l0.079,0.006l0.142,0.029l0.074-0.016l0.134-0.066l0.067-0.015l0.032-0.011l0.061-0.049l0.019-0.011  l0.118-0.045l0.113-0.063l0.023-0.007l0.019,0.031l-0.017,0.038l-0.032,0.032l-0.028,0.014L18.887,50.4l-0.201,0.107l-0.184,0.068  l-0.097,0.069l-0.147,0.063L18.2,50.721l-0.042-0.004l-0.079-0.023l-0.035,0.002l-0.041,0.031l-0.068,0.135l-0.051,0.053  l-0.071,0.053l-0.078,0.041l-0.073,0.018l-0.045,0.025l-0.126,0.115l-0.052,0.025l-0.05,0.043l-0.095,0.188l-0.021,0.053  l0.093-0.016l0.169-0.121l0.06-0.029l0.176-0.059l0.033,0.01l0.014,0.057l-0.019,0.037l-0.061-0.045l-0.166,0.117l-0.012,0.012  l-0.122,0.071l-0.197,0.06l-0.029,0.016l0.011,0.032l0.035,0.032l0.049,0.015l0.095-0.024l0.049-0.005l0.022,0.029l-0.022,0.021  l-0.114,0.016l-0.04,0.014l-0.012,0.025l0.005,0.031l0.029,0.084l0.014,0.103l0.013,0.038l0.04,0.047l0.022-0.021l0.065-0.049  l0.005,0.068l0.039,0.029l0.045,0.021l0.021,0.034l0.025,0.029l0.115,0.039l0.035,0.035h-0.044l-0.029,0.018l-0.059,0.053  l-0.203,0.146l-0.049,0.056l-0.001,0.049l0.047,0.062l0.027,0.009l0.067-0.042l0.024,0.001l0.016-0.009l0.006-0.043l-0.004-0.075  l0.003-0.039l0.012-0.026l0.032-0.016l0.063,0.001l0.025-0.022l0.046,0.057l-0.025,0.062l-0.048,0.082l-0.018,0.107l0.096-0.046  l0.015-0.016l0.005-0.063l0.005-0.023l0.014-0.02l0.015,0.018l0.021,0.016l0.01,0.015l0.142-0.065l0.032-0.005l0.021,0.03  l0.108,0.251l-0.016,0.033l-0.07,0.016l-0.126-0.022l-0.055,0.008l0.017,0.049l0.032,0.048l0.018,0.011l0.038,0.004l0.029,0.006  l0.024,0.019l0.018,0.024l0.005,0.031l0.03,0.035l0.068-0.01l0.071-0.021l0.04-0.004l-0.006,0.07l-0.098,0.049l-0.063,0.063  l0.091,0.111l-0.034,0.033l-0.027,0.121l-0.028,0.055l0.124-0.091l0.02-0.011l0.04-0.016l0.021,0.008l-0.039,0.055l-0.026,0.075  l0.018,0.078l0.047,0.026l0.063-0.076l0.018,0.039l-0.007,0.025l-0.013,0.023l0.002,0.027l0.022,0.022l0.032,0.017l0.027,0.021  l0.005,0.035h-0.021l-0.133,0.095l0.029,0.047l0.005,0.067l-0.012,0.154l-0.01,0.035l-0.045,0.047l-0.011,0.031l0.003,0.035  l0.015,0.074l0.003,0.041l-0.004,0.076l-0.013,0.071l-0.023,0.065l-0.126,0.183l-0.034,0.072L18.044,54.9l-0.008,0.104l-0.012,0.035  l-0.022,0.024l-0.038,0.031l-0.036,0.024h-0.017l-0.014,0.075l-0.031,0.063l-0.036,0.055l-0.027,0.054l-0.017,0.11l-0.004,0.008  v0.07l0.008,0.02l0.016,0.003l0.015,0.001l0.007,0.011l-0.011,0.039l-0.048,0.065l-0.01,0.037l-0.021,0.148l-0.057,0.16  l-0.009,0.039v0.199l-0.014,0.052l-0.028,0.062l-0.033,0.053l-0.025,0.021l-0.036,0.016l-0.008,0.039l0.011,0.086l-0.006,0.119  l-0.017,0.051l-0.032,0.05l0.003,0.034l0.073,0.1l0.022,0.042l-0.013,0.123l0.007,0.062l0.039-0.01l0.122-0.152l0.015,0.049  l0.004,0.025l0.002,0.031l-0.011,0.028l-0.022,0.006l-0.021,0.004l-0.011,0.021l0.014,0.061l0.025,0.043v0.033l-0.06,0.027  l-0.01-0.031l-0.016-0.025l-0.019-0.021l-0.024-0.016l0.074,0.256l0.027,0.146l-0.022,0.063l0.036,0.174l0.062,0.07l0.024,0.012  l0.021-0.022l-0.003-0.026l-0.018-0.023l-0.048-0.042l0.017-0.021l0.003-0.026l-0.008-0.033l-0.012-0.035h0.023l0.059,0.025  l0.034,0.022l0.016,0.031l0.005,0.039l0.015,0.03l0.021,0.021l0.026,0.012l0.064-0.006l0.063-0.027l0.066-0.016l0.073,0.029  l-0.354,0.143l-0.047,0.029l-0.025,0.047L17.8,58.21l0.037,0.188l0.012,0.028l0.078,0.118l0.047,0.045l0.053,0.006l0.059-0.061  l0.06,0.029l0.091,0.078l0.05,0.031l0.058,0.014l0.174-0.014l0.055,0.021l0.045,0.048l0.034,0.047l0.022,0.022l0.031,0.021  l-0.004,0.052l0.008,0.056l0.063,0.035l-0.075,0.041l-0.052-0.063l-0.071-0.187l-0.051-0.049l-0.042-0.004l-0.043,0.016  l-0.052,0.013l-0.096-0.015l-0.048-0.018l-0.06-0.07l-0.09-0.009L17.92,58.65l-0.031,0.05l-0.012,0.114l0.011,0.205l0.045-0.043  l0.041-0.068l0.042-0.055l0.049,0.004l-0.034,0.041L17.979,59l-0.063,0.146l-0.005,0.029l0.01,0.031h0.023l0.023-0.021l0.019-0.051  l0.02-0.013l0.022,0.001l0.016,0.021l-0.003,0.019l-0.032,0.034l-0.008,0.025l0.007,0.029l0.03,0.063l0.006,0.035l-0.003,0.039  l-0.04,0.103l0.038,0.012l0.009,0.033l-0.008,0.039l-0.016,0.03l-0.013-0.008l-0.033-0.018l0.008,0.1l-0.009,0.038l-0.021,0.05  l-0.064,0.086l-0.019,0.039l0.017,0.039l0.041-0.033l0.014-0.018l0.012-0.021h0.021l0.014,0.051l-0.005,0.041l-0.012,0.035  l0.003,0.035l0.032,0.043l0.028-0.021l0.02-0.052l0.027-0.139l0.048-0.095l0.059-0.082l0.052-0.049l0.021,0.083v0.032l0.137-0.144  l0.029-0.072l-0.053-0.038l0.022-0.046l0.005-0.117l0.047-0.044l0.056-0.119h0.023l-0.023,0.244l0.021,0.043l0.039,0.014  l0.021,0.022l-0.036,0.072l0.022,0.031l-0.014,0.09l0.016,0.04l0.075-0.036l0.091-0.028l0.055,0.008l-0.032,0.067l-0.017-0.002  l-0.16,0.045l-0.077,0.033l-0.048,0.006v0.022h0.113l-0.036,0.054l-0.045,0.002l-0.046-0.012l-0.039,0.014l-0.008,0.09l-0.021,0.031  l-0.049-0.041l-0.051,0.1l0.063,0.08l0.095,0.041l0.05-0.022l0.005-0.012l0.013-0.013l0.017-0.006l0.019-0.004l0.013,0.012  l-0.007,0.027l-0.012,0.031l-0.005,0.02l0.021,0.055l0.021,0.025l0.092,0.038l-0.045,0.042l-0.034,0.074l-0.012,0.086l0.022,0.076  l-0.047-0.02l-0.035-0.033l-0.012-0.049l0.027-0.062l-0.114-0.128L18.378,60.3l-0.046,0.091l-0.034,0.002l-0.048-0.025l-0.025-0.001  l-0.044,0.026l-0.028,0.045l-0.015,0.055l-0.002,0.17l0.012,0.131l0.029,0.107l0.058,0.045l0.076,0.197l0.014,0.063l0.035,0.014  l0.093-0.02l0.033,0.02l0.032,0.047l0.024,0.058l0.01,0.051l0.025,0.063l0.05,0.033l0.035,0.035l-0.021,0.064l-0.06-0.064  l-0.095-0.162l-0.046-0.05l-0.07-0.011l-0.057,0.041l-0.037,0.068l-0.013,0.074l-0.007,0.135l0.007,0.039l0.019,0.041l0.022,0.029  l0.019,0.031l0.008,0.046l-0.003,0.028l-0.005,0.017l-0.001,0.015l0.009,0.022l0.016,0.019l0.016-0.003l0.018-0.003l0.019,0.01  l0.055,0.073l0.026,0.017l0.051,0.002l-0.021,0.058l0.03,0.053l0.057,0.038l0.057,0.016l0.099-0.012l0.045,0.006l0.046,0.026  l-0.019,0.052l0.026,0.113L18.844,62.4l-0.045,0.063l-0.031-0.01V62.41l0.051-0.03l-0.041-0.058l-0.06-0.035l-0.063-0.018  l-0.056-0.008l-0.041,0.004l-0.019,0.006l-0.014-0.008l-0.026-0.035l-0.017-0.035l-0.005-0.029l-0.015-0.023l-0.042-0.016  l-0.017,0.033l-0.004,0.031l0.004,0.029l0.017,0.022l-0.016,0.021l-0.026,0.07l0.09,0.021l0.04,0.071l0.028,0.261l0.008,0.022  l0.02,0.026l0.012,0.026l-0.005,0.028l-0.011,0.02l-0.008,0.004l0.021,0.047l0.045,0.05l0.024,0.045l0.021-0.034l0.024-0.027  l0.03-0.021l0.037-0.012l-0.005,0.062l-0.032,0.026l-0.041,0.019l-0.034,0.032l-0.012,0.046l0.012,0.04l0.032,0.027l0.053,0.002  l-0.059,0.066l0.005,0.067l0.149,0.246l0.027,0.071l0.02,0.109l0.02,0.037l0.051,0.059l0.017,0.035l0.011,0.092l0.017,0.033  l0.027,0.043L19.01,64.02l-0.019,0.041l-0.03,0.039l-0.008,0.035l0.016,0.045l0.027,0.041l0.023,0.027L19,64.293l0.004,0.053  l0.022,0.049l0.035,0.037l0.048,0.018l0.103,0.01l0.047,0.021l-0.12,0.058l-0.044,0.007h-0.043l-0.026,0.008l-0.007,0.029  l0.019,0.057l0.108,0.121l0.049,0.086l-0.022,0.068l0.038,0.051l-0.026,0.053l-0.039,0.045l0.005,0.037l0.013,0.041l0.082,0.068  l0.036,0.053l0.089,0.172l0.046,0.06l-0.058,0.019l-0.045-0.023l-0.044-0.041l-0.054-0.024l0.02,0.04l0.059,0.063l0.012,0.021  l0.011,0.053l0.058,0.108l0.001,0.072l0.061,0.112l0.018,0.049l0.005,0.054l-0.021,0.047l0.038,0.065l0.027,0.076l0.004,0.08  l-0.024,0.076l-0.033-0.042l-0.024,0.007l-0.001,0.033l0.037,0.045l-0.026,0.041l0.025,0.032l0.086,0.044l-0.045,0.084l-0.016,0.046  l-0.003,0.054l0.031,0.123v0.017l-0.031,0.038l0.018,0.091l0.037,0.094l0.033,0.052l0.022-0.025l0.002,0.064l-0.029,0.086  l-0.019,0.092l0.034,0.092l0.053,0.044l0.017,0.024l0.006,0.045l-0.007,0.026l-0.028,0.042l-0.007,0.021l0.005,0.023l0.037,0.08  l0.05-0.037l0.05-0.01l0.037,0.021l0.018,0.061L19.8,67.783l-0.018,0.008l-0.015-0.023l-0.001-0.057l-0.102,0.046l-0.011,0.002  L19.63,67.78l-0.004,0.002l0.004,0.003l0.004,0.027l0.019,0.047l0.044,0.035l0.057,0.021l0.056,0.001l-0.021,0.016l-0.034,0.039  l-0.012,0.016l0.018,0.025l0.02,0.019l0.023,0.014l0.028,0.011L19.76,68.05l-0.038-0.014l-0.066-0.071l-0.005-0.011l-0.023-0.031  l-0.024-0.021l-0.011,0.025l-0.003,0.075l0.01,0.036l0.025,0.014l0.018,0.028l0.048,0.14l0.023,0.119l0.034,0.047l0.05,0.031  l0.056,0.023l-0.038,0.021l-0.027,0.021l-0.016,0.028l-0.004,0.044l0.056,0.024l0.009,0.011l-0.002,0.063l0.002,0.02l0.089,0.273  l0.015,0.065l0.01,0.021l0.02,0.024l0.02,0.006L20,69.051l0.014,0.004l0.017,0.051v0.136l0.021,0.159l0.003-0.098l0.016-0.078  l0.04-0.052l0.073-0.022l-0.028,0.039l-0.028,0.028l-0.022,0.031l-0.009,0.048v0.195l-0.01,0.023l-0.015,0.018l-0.02,0.017  l0.011,0.033l0.023,0.017l0.023,0.008l0.011,0.012l0.014,0.04l0.037,0.026L20.22,69.7l0.055-0.002v0.022l-0.093,0.012l0.012,0.069  l0.063,0.085l0.061,0.063l0.188,0.153l0.055,0.072l0.109,0.211l0.024,0.086l-0.009,0.142l0.009,0.041l0.031,0.021l0.053,0.014  l0.092,0.013l-0.046,0.032l-0.002,0.029l0.015,0.034L20.86,70.9l0.029,0.063l0.036,0.056l0.031,0.025l0.017-0.02l0.113-0.072  l0.026-0.014l0.023-0.027l0.056-0.008l0.118,0.002v0.023l-0.162,0.041l-0.087,0.032l-0.038,0.05l-0.007,0.026L21,71.094  l-0.017,0.021l-0.005,0.041l0.004,0.048l0.015,0.039l0.049,0.074l-0.016,0.082l0.048,0.052l0.064,0.017l0.033-0.027l0.224-0.123  v0.021l-0.018,0.02l-0.003,0.016l0.011,0.016l0.029,0.019l-0.141,0.032l-0.035,0.016l-0.027,0.027l-0.028,0.043l-0.017,0.048  l0.005,0.041l0.031-0.013l0.112,0.013l0.019,0.006l0.022,0.028l0.016,0.011l0.021,0.002l0.044-0.004l0.021,0.002l0.135,0.059  l0.03,0.021l0.074,0.102l0.024,0.023l-0.011,0.011l-0.01,0.006l-0.01,0.005l-0.013,0.003l-0.029-0.063l-0.038-0.032l-0.109-0.042  l-0.047,0.033l-0.042-0.013l-0.038-0.021l-0.038,0.011l-0.027,0.002l-0.183-0.014l0.089,0.102l0.055,0.041l0.066,0.017l0.068,0.002  l0.043,0.016l0.027,0.04l0.181,0.604l0.022-0.023l0.024,0.055l-0.012,0.029l-0.068,0.041l-0.025,0.033l-0.021,0.043l-0.03,0.096  l0.165,0.047l0.028,0.025l0.072,0.152l0.035,0.02l0.044,0.01l0.036,0.021l0.015,0.053l-0.016,0.1l-0.002,0.049l0.018,0.046  l0.132,0.075l0.014,0.016l0.032,0.021l0.038,0.102l0.028,0.035l0.042,0.002l0.052-0.023l0.042-0.031l0.019-0.024l0.021-0.021  l0.101-0.05l0.034-0.032l0.01,0.045l0.031,0.018l0.032,0.008l0.015,0.012l-0.008,0.039l-0.02,0.006l-0.028-0.009l-0.032-0.005  l-0.056,0.014l-0.037,0.021l-0.03,0.039l-0.032,0.063l-0.026-0.031l-0.035-0.012l-0.038,0.004l-0.033,0.02l-0.014,0.036  l-0.001,0.041l-0.016,0.02l-0.058-0.028l0.017,0.06l0.048,0.044l0.112,0.055l0.002,0.006l0.021,0.039l0.014,0.004l0.038-0.006  l0.015,0.002l0.022,0.025l0.044,0.088l0.045-0.053l0.038-0.021l0.044,0.015l0.062,0.05l0.032,0.059l0.02,0.141l0.022,0.063  l-0.03,0.029l0.004,0.037l0.025,0.031l0.036,0.016l0.045-0.012l0.035-0.021l0.038-0.011l0.048,0.02v0.022l-0.102,0.014l-0.039,0.048  l0.003,0.073l0.025,0.091l-0.011,0.033l0.03,0.026l0.048,0.008l0.045-0.022l0.013-0.041l-0.006-0.048l0.006-0.043l0.052-0.022  l-0.01,0.029l-0.001,0.018l0.011,0.041L23,74.604l0.014-0.002l0.036,0.018l-0.008,0.011l-0.008,0.024l-0.007,0.012l0.042,0.02  l0.135,0.159l-0.084-0.012l-0.012,0.015l0.031,0.043l-0.06-0.002l-0.037-0.072l-0.033-0.092l-0.049-0.059l0.007,0.083l0.065,0.124  l0.023,0.119l0.017,0.023l0.017,0.018l0.008,0.027l0.001,0.084l0.008,0.041l0.021,0.032l0.028,0.06l0.009,0.145l0.039,0.059  l0.029,0.014l0.204,0.07l0.03,0.025L23.42,75.6l-0.077-0.004l-0.077-0.018l-0.044-0.031l-0.015,0.076l0.031,0.066l0.093,0.127  l0.018,0.065l0.006,0.185l0.014,0.033l0.039,0.051l0.014,0.028l0.003,0.033l-0.005,0.067l0.002,0.033l0.03,0.066l0.102,0.134  l0.046,0.081l0.107,0.137l0.038,0.106l0.061,0.118l0.027,0.203l0.076,0.27l0.044,0.105l0.05-0.135l0.038-0.035l0.044,0.055  l-0.04,0.014l-0.002,0.018l0.042,0.039l0.037,0.058l0.025,0.015l0.048-0.007l-0.038,0.027L24.112,77.6H24.07l-0.031-0.021h-0.021  l0.001,0.021l-0.008,0.021l-0.015,0.006l-0.02-0.015l0.002,0.015l0.003,0.013l0.007,0.01l0.011,0.01l-0.007,0.05l0.021,0.181  l-0.002,0.073l0.078,0.215l0.003,0.063l-0.001,0.073l0.021,0.023l-0.047-0.008l-0.01-0.077l-0.032-0.097l0.008,0.084l0.014,0.106  l0.023,0.056l-0.017,0.039l0.021,0.051l0.035,0.059l0.025,0.057l0.06,0.226l0.014,0.137l0.035,0.165l0.014,0.034l0.022,0.019  l0.006,0.039l0.003,0.079l0.021,0.063l0.015,0.021l0.03,0.027l-0.042,0.105l0.152,0.627l0.106,0.016l0.142-0.047l0.149-0.023  l-0.026,0.038l-0.05,0.027l-0.053,0.017l-0.037,0.006l-0.027,0.012l-0.045,0.06l-0.025,0.019l-0.024-0.002l-0.085-0.043l0.009,0.045  l0.022,0.028l0.029,0.025l0.026,0.036l0.009,0.031l-0.002,0.072l0.005,0.02l0.045,0.055l0.032,0.057l0.243,0.618l0.069,0.099  l0.027,0.052l0.011,0.064l0.011,0.031l0.022,0.022l0.024,0.019l0.01,0.019l0.004,0.026l0.023,0.068l0.209,0.354l0.049,0.121  l0.021,0.074l0.005,0.042l-0.003,0.04l0.027-0.029l0.019-0.029l0.022-0.021l0.042-0.009v0.021l-0.028,0.111l0.042,0.15l0.119,0.274  l0.018,0.117l0.024,0.063l0.047,0.043l-0.004-0.012l0.011-0.015l0.02-0.015l0.018-0.002l0.02,0.021l0.016,0.016l0.02,0.006  l0.021,0.02l0.1,0.115l-0.053-0.1l0.013-0.052l0.128-0.097l0.067,0.066l0.015,0.031l-0.048,0.014l-0.107-0.006l-0.008,0.023  l0.038,0.072l0.038,0.049l0.044,0.035l0.051,0.02l0.055,0.008l0.039-0.014l0.062-0.057l0.043-0.021l-0.024,0.054l-0.01,0.043  l0.012,0.032l0.045,0.028v0.021l-0.238-0.052l-0.061,0.013l0.055,0.107l0.079,0.089l0.011,0.033l0.01,0.013l0.055-0.021h0.023  l0.406,0.449l0.079,0.108l0.176,0.427l-0.012,0.043l0.062,0.088l0.019,0.059l0.008,0.066l0.024,0.037l0.044,0.016l0.063,0.003  l0.049,0.017l0.039,0.04l0.058,0.099l0.052,0.125l0.035,0.048l0.043-0.015l0.022,0.043l-0.01,0.025l-0.033,0.021l0.005,0.039  l0.01,0.022l0.014,0.019l0.016,0.03l0.289,0.692l0.153,0.537l0.046,0.27l0.053,0.133l0.099,0.043l-0.017,0.019l-0.04,0.032  l-0.01,0.017l0.003,0.033l0.016,0.024l0.018,0.021l0.008,0.021l0.015,0.06l0.194,0.392l0.026,0.127l0.035,0.043l0.083,0.078  l0.025,0.051l0.035,0.143l0.006,0.066l0.017,0.056l0.115,0.155l0.048,0.135l0.056,0.268l0.048,0.135l0.023,0.045l0.033,0.041  l0.043,0.014l0.057-0.033l0.025-0.055l-0.005-0.06l-0.042-0.11l0.036,0.019l0.023,0.031l0.03,0.062l0.017,0.002l0.021-0.014  l0.019-0.003l0.007,0.024l-0.001,0.023l-0.015,0.021l-0.004,0.022l-0.038,0.043l-0.151,0.085l0.002,0.051l0.021,0.033l0.001,0.029  l-0.012,0.048l0.004,0.052l0.104,0.262l0.044,0.08l0.045,0.041l-0.022-0.058l-0.014-0.067l-0.006-0.129l-0.019-0.054l-0.032-0.055  L28.94,89.1l0.024-0.068l0.024,0.066l0.016,0.026l0.027,0.021l0.029,0.004l0.031,0.177l0.061,0.038l-0.015,0.063l0.028,0.125  l0.052,0.087l0.056-0.052l0.03,0.045l0.124,0.122l0.014,0.053l0.07,0.123l0.027,0.061l0.008,0.064l-0.017,0.034l-0.023,0.031  l-0.012,0.057L29.5,90.21l0.027,0.058l0.011,0.032l0.002,0.039l-0.008,0.06l0.006,0.035l0.027-0.016l0.024,0.034l0.015,0.057  l0.001,0.15l0.015,0.071l0.001,0.065l-0.041,0.08l0.033,0.024l0.035,0.021l0.065-0.026l0.059,0.023l0.056,0.041l0.062,0.027  l-0.084,0.102l-0.058,0.021l-0.077-0.032l-0.03,0.007l-0.158-0.029l-0.063-0.021l-0.013-0.048l0.063-0.288l0.021-0.043l0.023-0.04  l0.02-0.042l0.005-0.054l-0.055-0.054L29.455,90.4l-0.027-0.17l-0.002-0.043l0.007-0.072l-0.005-0.038l-0.021-0.045l-0.05-0.087  l-0.016-0.047l-0.04,0.029l0.012,0.051l0.072,0.099l-0.028,0.086l0.031,0.202l-0.003,0.089h-0.023l-0.081-0.524l-0.017-0.06  l-0.037,0.028l0.024,0.047l-0.016,0.027L29.2,89.988l-0.028,0.003l0.012-0.019l0.013-0.041l0.002-0.053l-0.016-0.046l-0.019,0.047  L29.16,89.9l-0.033-0.018l-0.02-0.027l-0.011-0.037l-0.001-0.041l0.017-0.01l0.075,0.023l0.018-0.016l-0.021-0.063l-0.049-0.073  L29.077,89.6l-0.05,0.034l0.013,0.043l0.021,0.148l0.021,0.032L29.16,90.1l0.064,0.49l-0.02,0.081l0.066,0.454l0.164,0.545  l0.257,0.583h0.021l-0.007-0.047l-0.099-0.249l-0.005-0.034l0.044,0.005l0.048,0.108l0.062,0.196h0.021l0.006-0.028l0.009-0.013  l0.03-0.024L29.8,92.298l0.003,0.048h-0.025l-0.003-0.025l-0.004-0.014l-0.007-0.013l-0.008-0.019L29.75,92.35l0.093,0.193  l0.035,0.105l0.044,0.065l0.01,0.038l0.003,0.042l0.012,0.054l0.021,0.047L30,92.92l-0.012-0.061l0.014-0.049l0.035-0.037  l0.051-0.032l-0.012,0.05l-0.012,0.02l-0.022,0.021l0.023,0.046l0.024-0.036l0.035-0.1l0.019-0.021l0.076,0.037l0.045,0.008  l0.021-0.033l0.017-0.017l0.039-0.019l0.045-0.01l0.033,0.012v0.023l-0.038,0.017l-0.046,0.012l-0.025,0.015l0.02,0.008l0.038,0.023  l0.028,0.023l-0.011,0.012l-0.176-0.023l-0.031,0.019l-0.036,0.038l-0.025,0.044l-0.006,0.034l0.029,0.039l0.04-0.004l0.043-0.016  l0.043,0.002l-0.035,0.024l-0.06,0.03l-0.058,0.013l-0.046-0.067l-0.035,0.003l-0.013,0.038l0.046,0.071l0.277,0.231l0.051,0.063  l0.114,0.193l0.114,0.104l0.033,0.074l0.231,0.271l0.041,0.102l0.173,0.158l0.266,0.375l0.106,0.119l0.429,0.311l0.311,0.283  l0.043,0.029l0.078,0.021l0.076,0.047l0.025,0.021l0.045,0.052l0.022,0.012l0.432,0.129l0.197,0.038l0.175-0.021l-0.014-0.104  l0.11-0.079l0.156-0.054l0.35-0.059l0.051-0.024l0.081-0.11l0.041-0.043l0.623-0.375l0.126-0.053l0.055-0.008l0.022-0.03l0.054-0.19  l0.024-0.026l0.088-0.083l0.028-0.037l0.016-0.033l0.046-0.341l-0.022-0.104l-0.067-0.104h0.091l-0.02-0.039l0.013-0.035  l0.047-0.059l0.031-0.089l0.015-0.023l0.056-0.036l0.058-0.026l0.034-0.039L35.38,93.41l-0.031,0.061l-0.038,0.014L35.27,93.49  l-0.043,0.033l0.026-0.061l0.013-0.072l0.011-0.217l0.016-0.051l0.112-0.201l0.071-0.085l0.443-0.362l0.111-0.072l0.121-0.055  l0.116-0.027l0.428-0.051l0.051-0.013l0.046-0.022l0.02-0.031l0.021-0.053l0.048-0.021l0.166-0.011l0.041-0.018l0.037-0.024  l0.03-0.03l0.05-0.031l0.123-0.029l0.092-0.051l0.056-0.016l0.11-0.016h0.03l0.021,0.005l0.023,0.002l0.033-0.007l0.064-0.055  l0.025-0.015l0.104-0.011l0.118,0.014l0.112,0.031l0.086,0.035l0.036-0.014l0.099,0.004l0.116-0.06l0.061,0.009l0.054,0.018  l0.053-0.004l0.048,0.031l0.195,0.024l0.22,0.12l0.203,0.175l0.052,0.024l0.043-0.023l-0.049-0.057l-0.228-0.166l-0.046-0.043  l-0.021-0.03l-0.007-0.019l-0.015-0.017L39,91.857l-0.007-0.034l0.01-0.039l0.02-0.028l0.01-0.025l-0.012-0.03l-0.068-0.024  l-0.072,0.035l-0.075,0.051l-0.071,0.027l-0.438-0.01l-0.131-0.027l-0.112-0.048l-0.258-0.229l-0.085-0.102l-0.059-0.118  l-0.007-0.069l0.039-0.127l0.021-0.156l0.021-0.07l0.029-0.063l0.03-0.049l0.016-0.016l0.035-0.028l0.015-0.021l0.01-0.037  l-0.002-0.03l0.004-0.028l0.187-0.259l0.126-0.112l0.053-0.065l0.021-0.077l0.009-0.014l0.058-0.064l0.066-0.134l0.188-0.256  l0.13-0.131l0.124-0.083l-0.081-0.061l-0.031-0.101l-0.022-0.218l-0.003-0.047l0.011-0.043l0.027-0.029l0.044-0.012l0.024-0.018  l0.004-0.038l-0.001-0.045l0.006-0.036l0.045-0.06l0.062-0.05l0.188-0.109l0.07-0.061l0.04-0.015l0.045,0.011l0.081,0.037  l0.072,0.006l0.166-0.026l0.068-0.021v-0.022l-0.012-0.027l0.125,0.009l0.062-0.025l0.065,0.025l-0.011,0.021l-0.097,0.039  l-0.028,0.005l-0.025-0.001l-0.018,0.009l0.004,0.034l0.012,0.013l0.022,0.007l0.054,0.004l0.578,0.121l0.041-0.012l0.003-0.039  l-0.048-0.025l-0.089-0.023h-0.089l-0.027-0.009l-0.033-0.022L40.1,88.498l-0.047-0.016l-0.049-0.008l-0.052-0.002l-0.053,0.002  l0.023-0.047l0.038-0.015l0.398,0.063l0.073,0.041l-0.003,0.067l0.052,0.021l0.063-0.01l0.064-0.021l0.055-0.012l0.017-0.035  l0.023-0.277l-0.014-0.563l-0.029-0.133l-0.002-0.529l-0.029-0.635l0.037-0.186l0.01-0.499l-0.065-0.339l-0.006-0.256L40.593,85.1  l-0.02-0.002l-0.087-0.041l-0.065-0.014l-0.057,0.016l-0.022,0.059l-0.031,0.017l-0.147,0.105l-0.042,0.021H40.1l0.025-0.052  l0.182-0.178l0.029-0.022l0.028-0.016l0.035-0.009l0.021,0.002l0.021,0.005h0.089l0.029-0.009l0.009-0.031l-0.018-0.17l-0.023-0.026  l-0.053-0.007l0.016,0.018l0.005,0.021l-0.006,0.022l-0.015,0.029h-0.021l-0.018-0.128l-0.075-0.231l-0.018-0.134l0.008-0.063  l0.029-0.123l0.011-0.129l0.062-0.312l0.021-0.063l0.034-0.024l0.055-0.271l0.08-0.178L40.66,83.1l0.029-0.045l0.008-0.018  l-0.006-0.109l0.006-0.033l0.026-0.051l0.086-0.102l0.099-0.2l0.02-0.03l0.045-0.048l0.186-0.288l-0.102,0.063l-0.066,0.028  l-0.03-0.014l0.027-0.039l0.171-0.086l0.065-0.066l0.103-0.18l0.008-0.01l0.013-0.012l0.075-0.043l0.027-0.037l0.069-0.127  l0.013-0.051l0.112-0.191l0.076-0.189l0.012-0.047l0.006-0.064l0.036-0.153l0.024-0.062l0.058-0.09l0.021-0.051l0.017-0.117  l0.059-0.168l0.037-0.24l0.019-0.398l0.044-0.236l0.01-0.126l0.013-0.028l0.059-0.064l0.02-0.031l-0.021-0.098l-0.001-0.035  l0.023-0.061l0.033-0.053l0.026-0.058l0.005-0.076l-0.051,0.015l-0.015,0.006l0.014-0.053l0.006-0.06l0.013,0.006l0.033,0.015  l0.006-0.093l0.03-0.163l0.008-0.093l-0.012-0.087l-0.032-0.124l-0.022-0.058l-0.043,0.011l-0.005,0.014l-0.018,0.033l-0.045-0.053  l-0.059-0.035l-0.04-0.037L42,78.152h-0.04l-0.033-0.012l-0.025-0.021l-0.025-0.024l-0.023-0.008l-0.143-0.005l-0.073-0.017  l-0.068-0.006l-0.04-0.016l-0.022-0.036l-0.034-0.084l-0.104-0.122l-0.042-0.068l-0.012-0.078l0.073-0.096l0.051-0.035l0.008-0.041  l0.001-0.078l0.021,0.029l0.03,0.019l0.024,0.021l0.011,0.035l-0.011,0.081l0.011,0.038l0.046,0.027l0.02-0.1l0.001-0.263  l0.034,0.032l0.101,0.132l0.044,0.117l0.154,0.17l0.198,0.496h0.022l-0.014-0.127l-0.163-0.369l-0.067-0.226l-0.034-0.057  L41.853,77.4l0.021-0.078l0.058-0.115l0.013-0.148l-0.039-0.129l-0.235-0.488l-0.046-0.131l-0.077-0.397l-0.007-0.147l0.038-0.117  l-0.047-0.043l-0.046,0.026l-0.05,0.058l-0.057,0.049l-0.073,0.019l-0.014-0.034l0.028-0.049l0.048-0.025l0.005-0.01l0.05-0.061  l0.035-0.014l0.097-0.006l0.028-0.045l0.072-0.183l0.05-0.063l0.013-0.148l-0.01-0.262l0.04-0.188l0.007-0.071l0.007-0.02  l0.012-0.021l0.003-0.02l-0.021-0.02H41.73l-0.077,0.018l-0.032,0.002l-0.023-0.02l0.062-0.029l0.028-0.021l0.02-0.022l0.009-0.043  L41.7,74.367l-0.022-0.039l-0.021-0.113l-0.025-0.033l-0.076-0.052l-0.037-0.032L41.5,74.076l-0.008-0.032l-0.01-0.162l-0.104-0.521  l0.001-0.07l-0.037-0.107l-0.023-0.132l-0.005-0.258l0.095-0.371l0.033-0.306l-0.007-0.028l0.099-0.217l0.018-0.06l0.044-0.061  l0.104-0.105l0.035-0.047l0.055-0.1l0.035-0.048l-0.045-0.021l0.012-0.052l0.053-0.099l0.007-0.064l0.14-0.355l0.053-0.086  l0.258-0.25l0.108-0.069l0.139-0.039l0.029-0.021l0.051-0.051l0.024-0.017l0.021-0.004l0.022-0.002l0.029-0.009l0.11-0.06  l0.051-0.038l0.039-0.042h0.021l0.034,0.041l0.042-0.014l0.051-0.031l0.06-0.021l0.143-0.004l-0.008-0.016l0.008-0.023l0.024-0.021  l0.02,0.001l0.02,0.015l0.025,0.008l0.147,0.01l0.077,0.016l0.052,0.029l0.086,0.141l0.017,0.127l-0.004,0.291l0.042-0.035  l0.033-0.067l0.082-0.25l0.11-0.241l0.019-0.136l-0.015-0.142l-0.051-0.131l0.023,0.021l0.01,0.011l0.011,0.018l0.024-0.023  l-0.014-0.035l0.014-0.031l0.03,0.104l0.009,0.054l0.003,0.06l-0.022,0.25l0.005,0.064l0.018,0.063l0.038,0.047l0.061,0.019  l0.028,0.017l0.096,0.082l0.03,0.041l0.023,0.022l0.029,0.019l0.025,0.002l0.021-0.02l0.001-0.027L44.4,70.405l-0.014-0.021  l-0.018-0.024l-0.015-0.03l0.002-0.04l0.09-0.113l0.053-0.044l0.145-0.09l0.151-0.151l0.047-0.01l0.018-0.053l0.002-0.178  l0.02-0.062l0.058-0.1l0.033-0.173l0.09-0.202l0.039-0.146l0.076-0.094l0.018-0.058l-0.012-0.043l-0.019-0.03l-0.004-0.031  l0.034-0.041l0.187-0.116l0.046-0.009l0.043-0.012l0.048-0.002l0.051,0.021l0.036-0.031l0.038-0.019l0.041,0.001l0.041,0.029  l0.013,0.025l-0.007,0.022l-0.016,0.026L45.7,68.646l0.189-0.063l0.064-0.006l0.13,0.036l0.042-0.008l-0.028-0.071l0.055,0.002  l0.039,0.019l0.015,0.03l-0.019,0.039l0.055,0.017l0.115,0.008l0.05,0.022l0.063-0.017l0.067,0.033l0.062,0.043l0.05,0.009h0.019  l0.146-0.035l0.065-0.054l0.253-0.123l0.061-0.02l0.062-0.016l0.133-0.008l0.022-0.012l0.025-0.052l0.04-0.006l0.043,0.004  l0.036-0.002l0.048-0.038l0.049-0.054l0.047-0.039l0.1,0.01l0.071-0.034l0.104-0.074l0.16-0.078l0.049-0.012l0.05-0.027l0.179-0.178  l0.155-0.048l-0.037-0.036l-0.032-0.054l-0.015-0.048l0.018-0.023l0.023,0.01l0.018,0.051l0.016,0.013l0.028-0.006l0.003-0.017  l-0.005-0.021l0.005-0.029l0.078-0.166l0.025-0.094l0.02-0.184l0.044-0.17l0.007-0.162l-0.006-0.162l-0.018-0.091l-0.037-0.068  l0.027,0.106l0.01,0.111l0.006,0.106l-0.033,0.046l-0.057-0.029l-0.004,0.008l-0.021,0.01l-0.024,0.007l-0.019,0.002l-0.019-0.009  l-0.016-0.018l-0.017-0.014l-0.099-0.03l-0.04-0.061l-0.015-0.074l0.006-0.071l0.125-0.23l0.024-0.107l0.04-0.055l0.098-0.088  l0.092-0.124l0.057-0.056l0.111-0.045l0.039-0.046l0.055-0.097l0.074-0.078l0.783-0.479l0.129-0.035l0.123-0.078l0.133-0.033  l0.053-0.034l0.05-0.036l0.045-0.026l0.017,0.038l0.026,0.005l0.156-0.114l0.024-0.009l0.053-0.015l0.021-0.014l0.066-0.064  l0.075-0.061l0.107-0.051l0.112-0.082l0.267-0.098l0.08-0.058l0.042-0.022l0.044-0.01l0.053-0.021l-0.017-0.05l-0.067-0.091  l0.109,0.002l0.025-0.015l0.043-0.034l0.066-0.029l0.032-0.023l-0.002-0.027l-0.019-0.016l-0.067-0.036l-0.071-0.024l-0.023-0.036  l0.016-0.033l0.068-0.004l0.025,0.015l0.014,0.024l0.007,0.022l0.007,0.008l0.01,0.004l0.006,0.008l0.012,0.008l0.019,0.003  l0.021-0.007l0.026-0.03l0.019-0.006l0.072-0.049l0.196-0.226l0.05-0.072l0.023-0.109l0.02-0.052l0.07-0.05l-0.002-0.059  l-0.011-0.07l0.009-0.053l0.036,0.049l0.008,0.021h0.022l0.045-0.049l0.127-0.086l0.027-0.037l0.016-0.011l0.056-0.057l0.006-0.014  l0.015-0.02l0.043-0.09l0.021-0.031l0.103-0.088l0.52-0.317l0.973-0.444l0.115-0.09l0.034-0.12l0.028-0.032l0.012-0.033l0.008-0.037  l0.018-0.034l0.027-0.03l0.07-0.055l0.044-0.063l0.136-0.095l0.031-0.049l0.154-0.151l0.139-0.111l0.061-0.049l-0.076,0.053  l-0.092,0.072l-0.086,0.055l-0.07-0.004l-0.037-0.031l0.029-0.051l0.01,0.006h0.072l0.029-0.006l0.021-0.014L55,61.258l0.02-0.01  l0.065-0.023l0.054-0.055l0.067-0.105l0.172-0.119l0.028-0.03l0.014-0.06l0.036-0.06l0.302-0.321l0.02-0.067l0.269-0.404l0.11-0.049  l0.046-0.054l0.063-0.106l0.135-0.172l0.031-0.087l0.088-0.126l0.006-0.021l-0.016-0.012l-0.023-0.005l-0.021,0.001l-0.014,0.013  l-0.053,0.081l-0.018-0.031l-0.041-0.043l-0.009-0.02l0.003-0.043l0.033-0.05l0.008-0.034l0.018-0.029l0.037,0.031l0.045,0.051  l0.035,0.027l0.051-0.018l0.262-0.336l0.398-0.353l0.235-0.165l0.356-0.35l0.193-0.146l0.145-0.063l0.166-0.131l0.14-0.063  l0.267-0.127l0.25-0.13l0.115-0.072l-0.791,0.388l-0.09,0.009l0.01-0.021l-0.011-0.021l-0.045-0.051l0.019,0.006l0.029,0.008  l0.02,0.008l0.006-0.053l0.023-0.03l0.025,0.003l0.012,0.047l0.021,0.029l0.05-0.01l0.053-0.03l0.029-0.022l0.009-0.017l0.006-0.04  l0.008-0.016l0.014-0.009l0.043-0.02l0.01-0.009l-0.001-0.053l-0.005-0.031l-0.014-0.026l-0.024-0.039l-0.026,0.049l-0.029,0.005  l-0.033-0.011l-0.041,0.001l-0.135,0.12l-0.154-0.047l-0.043-0.002v0.012l-0.036,0.062l-0.009,0.01l0.002,0.022l0.01,0.019  l0.016,0.012l0.019,0.008v0.021l-0.048,0.023l-0.029,0.038l-0.034,0.03l-0.063,0.002v0.023l0.035,0.012l0.096,0.056l-0.032,0.015  l-0.029,0.008L57.9,57.859l-0.021-0.021l-0.01,0.054l0.02,0.037l0.002,0.034l-0.057,0.04l-0.021,0.004h-0.023l-0.027,0.002  l-0.037,0.016l-0.018,0.021l-0.014,0.021l-0.02,0.02l-0.037,0.012l0.016-0.033l0.005-0.035l-0.005-0.037l-0.016-0.033l-0.027,0.04  l-0.021,0.002l-0.014-0.026l-0.007-0.051l0.021-0.031l0.045-0.035l0.052-0.026l0.039-0.011v-0.025l-0.037-0.041l0.004-0.059  l0.031-0.057l0.049-0.041l0.03-0.037l0.048-0.117l0.055-0.043l-0.012-0.08l0.059-0.098l0.081-0.091l0.069-0.06l0.031-0.02  l0.04-0.015l0.045-0.011l0.05-0.002l0.176-0.149l0.136-0.144l0.077-0.057l0.074-0.021l0.043,0.007l0.123,0.039l0.136,0.024  l0.043,0.021l-0.011,0.285l0.011,0.063l-0.021,0.03l-0.003,0.026l0.013,0.02l0.029,0.018l-0.057,0.026l-0.143,0.093l0.014-0.037  l0.015-0.022l0.007-0.019l-0.012-0.018l-0.143,0.051l-0.086,0.025l-0.037,0.029l-0.008,0.01h-0.018l-0.016,0.002l-0.002,0.023  l0.014,0.02l0.021,0.001l0.021-0.003l0.012,0.006l0.003,0.055l0.008,0.027l0.021,0.01l0.075-0.009L59,57.375l0.209-0.127  l0.077-0.012l-0.007,0.016l-0.032,0.014l-0.006,0.015l0.194-0.099l0.098-0.022l0.063-0.031l0.032-0.008l0.108,0.004l0.035-0.004  l0.063-0.025l0.122-0.075l0.137-0.025l0.402-0.121l0.06-0.009l0.019-0.013l0.028-0.025l0.031-0.016l0.034,0.018l0.036,0.029  l0.033-0.004l0.072-0.039l0.506-0.187l0.336-0.185l-0.053-0.02l-0.048-0.031l-0.049-0.018l-0.038-0.008l-0.021-0.018l-0.018-0.023  l-0.021-0.025l-0.006-0.014V56.27l-0.002-0.021L61.38,56.23l-0.014-0.004l-0.037,0.006l-0.017-0.002l-0.121-0.029l-0.055-0.024  l-0.084-0.071l-0.064-0.031l-0.028-0.027l-0.013-0.031l-0.031-0.108l0.023-0.071h0.021l0.015,0.028l0.019,0.073l0.015,0.037  l0.073,0.074l0.013,0.008l0.03,0.039l0.069,0.006l0.145-0.008l0.234,0.199l0.156,0.088l0.094-0.055h-0.039l-0.032-0.012  l-0.024-0.025l-0.017-0.035l0.076-0.055L61.954,56l0.005-0.049l0.033-0.069l0.037-0.151l0.015-0.035l0.054-0.045l0.072-0.028  l0.16-0.042l0.143-0.059l0.286-0.176l0.12-0.094l-0.111,0.076l-0.059,0.023l-0.025-0.031l0.025-0.033l0.059-0.038l0.063-0.032  l0.038-0.012l0.055-0.053l0.083-0.119l0.052-0.125l-0.045-0.076l-0.021,0.077l-0.007,0.04l0.002,0.043l-0.062-0.036l-0.043,0.024  l-0.046,0.049l-0.068,0.037l0.013-0.217l0.03-0.104l0.057-0.091l0.072-0.078l0.479-0.375l0.17-0.057l0.089-0.064l0.077-0.077  l0.052-0.063l-0.033,0.025l-0.045,0.034l-0.078,0.033L63.637,54l-0.013-0.014l-0.017-0.004l-0.022,0.004l-0.019-0.023l-0.022-0.015  l-0.03-0.007l-0.037-0.002l0.024-0.039l0.043-0.012l0.046,0.006l0.041,0.022l0.033-0.022l0.01-0.027l-0.006-0.031l-0.018-0.037  l-0.026-0.044l-0.021-0.013l-0.074,0.008l-0.148-0.011l-0.068-0.027l-0.035-0.056l0.123-0.025l0.063,0.002l0.056,0.023l0.039-0.088  l-0.045-0.146l-0.348-0.799l-0.021-0.316l0.096-0.279l0.164-0.245l0.471-0.507l0.158-0.114l0.281-0.15l0.035-0.01l0.075,0.002  l0.035-0.008l0.032-0.019l0.119,0.028l0.156-0.03l0.203-0.084l0.205-0.084l0.491-0.136l0.065-0.005l0.135,0.007l0.064-0.018  l0.166-0.125l0.254-0.129l0.104-0.074l0.084-0.082l0.006-0.015l0.002-0.037l0.013-0.019l0.01-0.006l0.021-0.007l0.126-0.092  l0.031-0.012l0.04-0.026l0.043-0.062l0.157-0.354l0.046-0.065l0.013-0.031l-0.006-0.036l-0.013-0.038l-0.006-0.037l0.018-0.012  h0.116l0.085-0.049l0.095-0.087l0.076-0.103l0.03-0.094l-0.041-0.137l-0.092-0.079l-0.119-0.042l-0.123-0.026l-0.104-0.007  L66.91,48.76l-0.053-0.039l-0.086-0.1l-0.039-0.061l-0.019-0.052l-0.038-0.268l-0.042-0.147l-0.052-0.072V48l0.068,0.002  l0.039,0.039l0.02,0.063l0.005,0.072l0.011,0.062l0.045,0.127l0.008,0.072l0.018,0.052l0.04,0.06l0.077,0.088l0.059,0.044  l0.053,0.01l0.054-0.017l0.057-0.038l0.013,0.08l0.119,0.06l0.15,0.052l0.105,0.06l0.017,0.055l0.03,0.179l0.031,0.076l-0.051,0.085  l-0.136,0.174L67.391,49.5l-0.021,0.05l-0.011,0.059l0.041,0.183l-0.01,0.029l-0.008,0.034l0.159,0.285l0.021,0.058l-0.027,0.049  l0.029,0.094l-0.021,0.079l-0.042,0.069l-0.03,0.065l0.002,0.067l0.024,0.081l0.062,0.133l0.053-0.034l0.041,0.039l0.027,0.075  l0.01,0.074l0.018,0.012l0.038,0.004L67.785,51l0.025-0.01l0.035-0.028l0.02-0.007l0.006-0.012l-0.004-0.034l-0.012-0.025  l-0.043-0.038l-0.015-0.031l0.003-0.041l0.033-0.074l0.009-0.039l-0.006-0.078l-0.101-0.34l-0.008-0.081l0.037,0.003l0.053,0.061  l0.027,0.056l0.012,0.065l0.009,0.384l0.017,0.08l0.039,0.017l0.045-0.035l0.031-0.072l0.011-0.047l0.003-0.037l-0.014-0.034  l-0.059-0.069l-0.008-0.035l0.006-0.033l0.015-0.028l0.017,0.035l0.014,0.039l0.019,0.03l0.031,0.013l0.028-0.008l0.051-0.031  l0.039-0.008L68.119,50.6l0.003,0.137l0.03,0.107l0.054,0.004l0.053-0.041l0.05-0.018l0.047-0.027l0.039-0.068l0.013-0.066  l-0.011-0.048l-0.045-0.097l-0.01-0.06l0.006-0.065l0.012-0.059l0.035-0.063l0.021-0.082l0.022-0.014l0.021,0.005l0.018-0.005  l0.006-0.046l-0.012-0.063l-0.048-0.12l-0.009-0.064l0.021-0.067l0.035-0.042l0.024-0.041l-0.015-0.063l0.063,0.051l-0.001,0.072  l-0.063,0.136l0.065,0.089l0.048,0.093l0.008,0.098l-0.064,0.11l-0.025,0.075l0.016,0.102l0.064,0.188l-0.021,0.027l-0.014,0.037  l-0.007,0.044l-0.002,0.047l-0.007,0.04l-0.018,0.022l-0.021,0.018l-0.021,0.025l-0.023,0.087l0.02,0.074l0.063,0.035l0.1-0.033  l-0.031-0.029l-0.015-0.035l0.003-0.039l0.02-0.037l0.025,0.045L68.686,51l0.043-0.009l0.021-0.048v-0.178l0.056,0.041l0.014-0.088  l-0.024-0.234h0.021l0.047,0.027l0.035-0.044l0.021-0.074l0.009-0.063l-0.027-0.096l-0.065-0.003l-0.073,0.032l-0.054,0.009  l0.003-0.015l-0.003-0.211l0.008-0.064l0.103-0.271l0.006-0.062l-0.006-0.149l0.013-0.056l0.058-0.081l0.02-0.063L68.9,49.263  l-0.019-0.066l-0.006-0.085l0.003-0.022l0.01-0.022l0.028-0.034l0.015-0.066l0.028-0.06l0.006-0.019l0.013-0.004l0.021-0.049  l0.017-0.054l-0.004-0.021l0.063,0.002l0.01,0.067l-0.028,0.079l-0.055,0.039l-0.057,0.144v0.042l0.019,0.076l0.011,0.1l0.014,0.049  l0.003,0.047l-0.023,0.063l-0.046,0.07l-0.014,0.032l-0.006,0.051l0.017,0.035l0.038,0.016H69l0.035-0.014l0.037,0.029l0.037-0.032  l0.025-0.057l0.012-0.046l0.068-0.128l0.024-0.083l-0.04-0.038l-0.063-0.018l-0.021-0.043l0.007-0.054l0.021-0.049l0.033-0.046  l0.047-0.042l0.056-0.028l0.063-0.004l-0.107,0.093l-0.049,0.058l-0.021,0.051l0.028,0.049l0.119,0.071l0.028,0.07l-0.016,0.062  l-0.037,0.042l-0.044,0.034l-0.036,0.039l-0.017,0.049l-0.008,0.187l-0.064,0.2l0.012,0.049l0.018,0.051l-0.06,0.391l0.011,0.066  l0.108,0.236l-0.047,0.106l0.065,0.063l0.11,0.014l0.091-0.043l0.021-0.057l-0.019-0.049l-0.029-0.053l-0.016-0.066V50.7  l0.006-0.026l0.017-0.016l0.032-0.006l0.021-0.016l0.015-0.035l0.021-0.067l0.019,0.058l0.006,0.031v0.027l-0.012,0.014  l-0.055,0.047l0.025,0.059l0.059,0.021l0.064-0.017l0.047-0.049l0.004-0.056L69.6,50.561l-0.016-0.062l0.012-0.049l0.045-0.112  l0.01-0.062h0.023l0.02,0.062l0.029,0.266l0.016,0.035l0.019,0.028l0.019,0.012l0.117,0.021l0.135,0.097l0.078,0.043l0.063-0.009  l0.006-0.021l0.021-0.043l0.021-0.031l0.009,0.022l0.008,0.025l0.019,0.021l0.028,0.012l0.035,0.002l0.06-0.026l0.019-0.058  l-0.01-0.141l-0.009-0.012l-0.048-0.107l-0.064-0.065l-0.014-0.019l-0.041-0.127l-0.049-0.286l-0.063-0.106l-0.09-0.071  l-0.053-0.032l-0.046-0.013l-0.046-0.03l-0.041-0.069l-0.02-0.08l0.028-0.059h0.048l0.02,0.06l0.011,0.07l0.022,0.035l0.049,0.015  l0.106,0.075l0.052,0.027l-0.004-0.055l0.016-0.03l0.033-0.006l0.043,0.021l0.078-0.046l0.016-0.099L70.29,49.36l-0.011-0.042  l-0.045-0.089l-0.012-0.055l0.01-0.053l0.02-0.038l0.012-0.038l-0.018-0.05l0.054,0.023l0.058-0.07l-0.008-0.084l-0.018-0.068  l-0.027-0.058l-0.14-0.184l-0.031-0.073l0.046-0.031l-0.054-0.093l-0.019-0.042L70.07,48.13v-0.034l0.009-0.036l0.026-0.045  l0.008-0.027l-0.016-0.081L70.04,47.77l-0.028-0.128l-0.039-0.031l-0.101-0.04l0.071-0.048l0.021-0.08L69.95,47.35l-0.031-0.089  l-0.04-0.073l-0.013-0.077l-0.013-0.044l-0.037-0.101l-0.008-0.063l0.021-0.047l0.037-0.044l0.034-0.053l0.014-0.046l0.013-0.067  l0.007-0.067l-0.009-0.047l-0.036-0.035l-0.091-0.029l-0.038-0.046l-0.066-0.164l-0.035-0.054l-0.061-0.077l-0.013-0.039  l0.002-0.068l0.029-0.099l0.009-0.178l0.044-0.088l0.174-0.186l0.087-0.071l0.028-0.033l0.017-0.037V45.3l-0.019-0.017l-0.088,0.003  l-0.028-0.007l-0.027-0.014l-0.226-0.078l-0.055-0.011l-0.042,0.007l-0.027,0.018l-0.021,0.021l-0.025,0.012h-0.033l-0.212-0.068  l-0.043-0.039l-0.032-0.067l-0.002-0.076l0.029-0.067l0.078-0.124l0.156-0.415l0.006-0.075l-0.041-0.035l-0.043,0.033l-0.037,0.059  l-0.041,0.016l-0.049-0.094l-0.032-0.016l-0.097-0.065l-0.053-0.059l-0.076-0.135l-0.049-0.052L68.82,43.95l-0.063,0.007  l-0.033-0.014l-0.031-0.034l-0.002-0.023l0.012-0.027l0.006-0.044L68.693,43.8l-0.034-0.007l-0.029-0.015l-0.005-0.039l0.066-0.318  l-0.004-0.032l-0.023-0.053v-0.033l0.018-0.038l0.047-0.074l0.017-0.041l0.001-0.032l-0.008-0.031l-0.004-0.032l0.012-0.033  l0.051-0.042l0.063-0.003l0.067,0.006l0.062-0.013l0.043-0.034l0.123-0.12l0.031-0.04l0.01-0.063l-0.01-0.075l-0.02-0.067  l-0.021-0.041l0.039-0.068l0.037-0.05V42.38l-0.078-0.019l-0.011-0.044l-0.062-0.053l-0.016-0.04l0.006-0.032l0.02-0.073  l0.004-0.041l-0.016-0.071v-0.034l0.018-0.043l0.034-0.03l0.069-0.027l0.052-0.024l0.01-0.03l0.037-0.055l0.012-0.032l-0.008-0.013  l-0.008-0.058l-0.007-0.015l-0.019-0.139l-0.073-0.1l-0.105-0.065l-0.068-0.015l-0.035,0.081l-0.047,0.074l-0.072,0.004  l-0.158-0.054l-0.208-0.01l-0.074-0.016l-0.237-0.189l-0.846-0.442l-0.094-0.021l-0.006-0.024l-0.029-0.051l-0.029-0.037  l-0.012-0.013l-0.003-0.018v-0.183l-0.011-0.021l-0.047-0.048l-0.033-0.072l-0.053-0.022l-0.062-0.019l0.019-0.106L67,40.077  l0.042-0.061l0.017-0.154l0.034-0.015l0.041-0.007l0.023-0.033l0.004-0.047l0.01-0.043l0.021-0.024l0.043,0.007l0.029-0.064  l0.045-0.044l0.031-0.045l-0.01-0.067l-0.042-0.122l-0.015-0.03l-0.019-0.019v-0.016l0.16-0.087l0.06-0.021l0.063,0.006l0.053,0.036  l0.045,0.06l0.029,0.069l0.003,0.064l0.039,0.002l0.136,0.036l0.055,0.005l0.028-0.022l0.058-0.104l0.113-0.146l0.039-0.082  l0.01-0.093l0.073-0.093l0.039-0.104l0.026-0.232l-0.008-0.2l0.031-0.059l0.108-0.02l0.053,0.015l0.103,0.04l0.086,0.022  l0.015,0.007l0.015,0.001l0.037-0.009l0.022-0.015l0.04-0.044l0.029-0.011l0.112,0.003l0.097,0.02l0.193,0.072l0.191,0.02  l0.025-0.02l0.033-0.077l0.021-0.025l0.025-0.005l0.021,0.007l0.021,0.012l0.221,0.078l0.082,0.005l-0.047-0.075l0.06-0.013  l0.01-0.035l-0.01-0.047l0.004-0.048l0.028-0.038l0.119-0.088l0.023-0.034l0.008-0.036l-0.008-0.034l-0.023-0.029l-0.156,0.008  l-0.076-0.01l-0.055-0.056l-0.02-0.016l-0.066-0.004l-0.032-0.009l-0.022-0.02l-0.076-0.095l-0.014-0.038l-0.003-0.034l-0.009-0.03  l-0.035-0.025v-0.021l0.055-0.126l-0.005-0.076l-0.028-0.046l-0.041-0.036l-0.039-0.047l-0.028-0.024l-0.097-0.038l0.002,0.063  l-0.032,0.015l-0.03-0.001l-0.029-0.004l-0.024,0.003l-0.034,0.029l-0.027,0.035l-0.027,0.028l-0.039,0.011l-0.066-0.016  l-0.104-0.067l-0.063-0.031l-0.137-0.005l-0.065-0.013L68.564,37.2l-0.025-0.051l-0.087-0.067l-0.033-0.071l-0.12-0.062l-0.05-0.049  l-0.013-0.218l-0.086-0.096l-0.233-0.158l-0.194-0.227l-0.104-0.055l-0.145,0.042l-0.054,0.031l-0.063,0.028l-0.061,0.003  l-0.041-0.044l-0.021-0.067l-0.016-0.03l-0.052-0.058v-0.032l0.006-0.031l-0.022-0.054l-0.023-0.158l0.009-0.017l0.019-0.011  l0.018-0.026l0.059-0.202l0.063-0.119l0.081-0.064l0.021-0.068l-0.004-0.039l-0.019-0.021L67.352,35.2l-0.011-0.018l-0.005-0.035  l0.005-0.019l0.011-0.019l0.035-0.116l0.026-0.043l0.106-0.068l0.028-0.024l0.021-0.026l0.021-0.023l0.035-0.014l0.065-0.014  l0.188-0.065l0.058-0.035l0.024-0.053l-0.005-0.13l0.012-0.052l0.051-0.069l0.047-0.044l0.151-0.096l0.024-0.03l0.015-0.033  l0.019-0.016l0.033,0.022l0.021,0.01l0.029,0.001l0.033-0.004l0.023-0.006l0.07,0.011l-0.006-0.091l-0.064-0.193l-0.046-0.078  l-0.085-0.041l-0.188-0.037l-0.074-0.033l-0.022,0.002l-0.013,0.025l-0.008,0.083l-0.016,0.021l-0.042-0.013l-0.024-0.048  l-0.002-0.059l0.017-0.048l0,0l0.042-0.07l0.066-0.229l0.023-0.052l0.039-0.066l0.041-0.042l0.029,0.02l0.005,0.066l-0.003,0.076  l0.01,0.07l0.041,0.049l0.113,0.034l0.053,0.024l0.042,0.049l0.04,0.033l0.035,0.039l0.025,0.026l0.064,0.043l0.072,0.032  l0.027,0.003l0.067-0.001l0.038,0.018l0.021,0.035l0.019,0.041l0.026,0.033l0.034,0.022l0.034,0.016l0.075,0.017l-0.017,0.029  l-0.006,0.031l0.008,0.024l0.027,0.009l0.025,0.011l-0.004,0.063l0.019,0.027L69.12,34.2l0.043,0.034l0.009,0.044l-0.029,0.067  L69.1,34.38l-0.117,0.06l-0.023,0.025l0.057,0.041l0.271-0.1l0.115,0.045l0.025,0.054l0.021,0.061l0.031,0.051l0.055,0.024  l0.051-0.02l0.048-0.118l0.065-0.044l0.086,0.016l0.143,0.143l0.092,0.03l0.143-0.036l0.064-0.045l-0.018-0.066l-0.035-0.011  l-0.037-0.001l-0.022-0.023l0.011-0.077l-0.029,0.02l-0.029,0.007l-0.025-0.008l-0.021-0.029l-0.028-0.102l-0.08-0.042l-0.093-0.032  l-0.065-0.071l-0.002-0.061l0.024-0.067l0.041-0.06l0.041-0.039l0.053-0.026l0.029,0.009l0.029,0.03l0.051,0.038l0.037,0.019  l0.049,0.056l0.029,0.025l0.034,0.014l0.071,0.019l0.027,0.023l0.017,0.043l-0.011,0.031l0.004,0.025l0.054,0.022l0.077,0.021  l0.021,0.026l0.002,0.049l-0.026,0.015l-0.048-0.021l-0.037,0.005l0.003,0.096l0.021,0.058l0.064,0.107l0.023,0.057l0.026,0.216  l0.024,0.064l0.039,0.046l0.213,0.092l0.049,0.031l0.031,0.044l0.021,0.069l0.027,0.032l0.113,0.052l0.076,0.09l0.061,0.041  l0.064,0.029l0.051,0.006l0.054-0.03l0.038-0.035l0.037-0.001l0.05,0.073l0.015,0.006l0.016,0.002l0.018-0.002l0.018-0.006l0,0  l0.174-0.015l0.017,0.002l0.017,0.005l0.016,0.008l0.046,0.08l0.028,0.038l0.031,0.018l0.043-0.009l0.024-0.032l0.009-0.045  l-0.004-0.048l0.027-0.097l0.14-0.118l0.026-0.061l-0.022-0.044l-0.043-0.001l-0.044,0.008L71.93,35.14v-0.042l0.034-0.029  l0.047-0.024l0.038-0.024l-0.059-0.008l-0.055-0.025l-0.021-0.044l0.033-0.065l0.022-0.019l0.021-0.011l0.022-0.002l0.066,0.02  l0.002-0.018l-0.021-0.041L72.055,34.7l0.021-0.03l0.068-0.023l0.06,0.011l0.019,0.053l-0.005,0.152l-0.005,0.014l0.008,0.007  l0.039,0.019l0.024,0.004l0.063-0.006l0.027,0.002l0.038,0.031l0.021,0.053l0.014,0.059l0.025,0.048l0.043,0.06l0.004,0.044  l-0.008,0.045l0.004,0.062l0.02,0.033l0.066,0.086l0.023,0.047l0.018,0.025l0.021,0.007l0.021-0.009l0.021-0.023h0.001h0.002  l0.004-0.002l0.006-0.001h0.005l0.004,0.004l0.043,0.056l-0.011,0.048l-0.045,0.037l-0.063,0.021l0.062,0.037l0.05,0.004  l0.025,0.021l-0.014,0.084l-0.139,0.245l-0.013,0.087l0.06,0.319l0.072,0.179l0.032,0.14l-0.029,0.25l-0.006,0.267l-0.073,0.271  l-0.018,0.137l0.012,0.121l0.027,0.125l0.037,0.069L72.787,38l0.115-0.046l0.121-0.005l0.713,0.302l0.507,0.111l0.251,0.107  l0.111,0.003l0.326-0.07l0.266,0.024l0.13-0.033l0.044,0.001l0.037,0.011l0.068,0.032l0.119,0.02l0.028-0.002l0.019-0.011  l0.034-0.036l0.019-0.009l0.051,0.006l0.042,0.025l0.04,0.03l0.047,0.023l0.09,0.012l0.393-0.054l0.102-0.037l0.516-0.083  l0.18,0.006l0.039-0.006l0.07-0.037l0.034-0.001l0.155,0.082l0.477,0.145l0.125,0.015l0.031-0.004L78.15,38.5l0.035-0.005  l0.037-0.009l0.055-0.044l0.027-0.012l0.057,0.004l0.022,0.027l0.021,0.04l0.053,0.042l0.055,0.013l0.082,0.004l0.074-0.011  l0.033-0.033l0.017-0.057l0.037-0.001l0.042,0.021l0.028,0.009l0.022-0.018l0.02-0.043l0.021-0.02l0.049-0.007l0.155,0.014  l0.345-0.043l0.18,0.027l0.061-0.02l0.086-0.027l0.104,0.005l0.102,0.025l0.088,0.035l0.023,0.02l0.031,0.05l0.02,0.02l0.025,0.009  l0.047,0.002l0.021,0.017l0.019,0.007l0.045-0.013l0.024,0.005l0.021,0.019l0.049,0.063l0.044,0.039l0.039,0.027l0.043,0.019  l0.058,0.015l0.168,0.023l0.027,0.02l0.051,0.073l0.092,0.039l0.08,0.048l0.02,0.1l0.023,0.007l0.057,0.021l0.002,0.012l0.104,0.077  l0.029,0.015l0.014,0.017l-0.026,0.024l0.08,0.035l0.03,0.03l0.023,0.056l0.01,0.062l-0.01,0.039l-0.044,0.07l-0.114,0.03  l-0.197,0.066l-0.031-0.004l-0.023-0.011l-0.014-0.018l-0.004-0.027l-0.219-0.133l-0.123-0.041l-0.094,0.041l-0.019,0.059  l0.015,0.063l0.043,0.113l0.006,0.057l-0.002,0.055l-0.009,0.055l-0.163,0.459l-0.031,0.136l-0.015,0.12l-0.017,0.053l-0.034,0.051  l-0.047,0.039l-0.05,0.029l-0.039,0.039L80.1,40.776l0.019,0.214l-0.013,0.099l-0.063,0.086l-0.081,0.037l-0.095,0.008l-0.27-0.022  l-0.004,0.042l0.073,0.119l0.002,0.048l-0.062-0.024l-0.071-0.049l-0.029-0.026l-0.071,0.023l-0.011,0.063l0.034,0.14l-0.004,0.069  L79.386,41.9l-0.022,0.061l-0.04,0.026l-0.065-0.017l-0.098-0.098l-0.008-0.031l-0.006-0.079l-0.008-0.023l-0.035-0.001L78.9,41.693  l-0.032,0.046l0.008,0.066l0.021,0.072l0.002,0.061l-0.035,0.054l-0.057,0.021l-0.063-0.009l-0.06-0.037l-0.029-0.054l-0.057-0.142  l-0.031-0.013L78.551,41.8l-0.035,0.222l-0.025,0.075l-0.029,0.048l-0.048,0.032L78.339,42.2l-0.132,0.016l-0.12-0.009l-0.244-0.053  l-0.134,0.011l-0.039,0.09l-0.005,0.134l-0.033,0.143l-0.038,0.026l-0.035-0.006l-0.035-0.016l-0.043-0.003l-0.057,0.023  l-0.043,0.038l-0.033,0.046l-0.109,0.195l-0.016,0.049l0.004,0.048l0.035,0.082l0.014,0.044l-0.01,0.065l-0.063,0.191l-0.033,0.058  l-0.06,0.03l-0.062,0.005l-0.051,0.018l-0.03,0.067l0.014,0.076l0.053,0.027l0.053,0.02l0.021,0.053l-0.028,0.057l-0.046-0.003  l-0.041,0.005l-0.012,0.084l0.016,0.061l0.094,0.175l0.023,0.062l0.027,0.114l0.029,0.058l0.025,0.025l0.058,0.035l0.021,0.032  l0.009,0.027l0.016,0.087l0.042,0.148l0.034,0.07l0.041,0.031l0.042,0.011l0.01,0.021l-0.013,0.027l-0.032,0.032l-0.023,0.032  l0.006,0.027l0.019,0.028l0.015,0.036l0.074,0.561l0.041,0.145l0.077,0.104l0.106,0.029l0.013-0.115l-0.06-0.292l-0.002-0.155  l0.019-0.081l0.036-0.05l0.07-0.003l0.062,0.048l0.048,0.067l0.026,0.051l-0.001-0.003l0.012-0.024l0.001-0.003l0.021,0.028  l0.002,0.023L77.979,45.3l0.002,0.018l0.049,0.046l0.008,0.001l0.021,0.107l0.016,0.036l0.072,0.254l0.018,0.089l0.01,0.011  l0.031,0.008l0.008,0.013l0.003,0.103l0.015,0.036l0.041,0.046l0.043,0.016l0.043,0.008l0.045,0.021l0.021,0.038l-0.001,0.035  l0.01,0.012l0.053-0.029l0.021-0.026l0.013-0.033l0.016-0.028l0.029-0.012l0.021,0.004L78.6,46.08l0.023,0.005l0.021-0.005  l0.045-0.016l0.086-0.019l0.041-0.025l0.023-0.027l0.055-0.05l0.021-0.025l0.055-0.082l0.004-0.014l-0.002-0.016v-0.017l0.017-0.013  L79,45.775l0.031,0.003l0.008-0.001l0.049-0.052l0.014-0.032l-0.012-0.041l-0.042-0.106l-0.049-0.24l-0.048-0.11l-0.018-0.139  l0.062-0.171l0.094-0.163l0.084-0.114l0.052-0.045l0.178-0.077l0.053-0.037l0.042-0.047l0.073-0.123l0.004-0.137l-0.084-0.405  l-0.006-0.133l0.007-0.075l0.021-0.046l0.045-0.002l0.041,0.048l0.041,0.064l0.133,0.153l0.051,0.025l0.074-0.019l0.057-0.048  l0.104-0.146l0.053-0.059l0.137-0.047l0.064,0.098l0.031,0.134l0.045,0.061l0.049-0.047l0.039-0.161l0.055-0.032l0.066,0.036  l0.008,0.075l-0.039,0.149l0.011,0.116l0.123,0.398l0.018,0.17l0.015,0.051l0.02,0.028l0.041,0.041l0.018,0.03l0.006,0.026  l-0.006,0.048l0.006,0.024l0.016,0.023l0.043,0.034l0.012,0.018l0.004,0.031l-0.01,0.069l0.001,0.034l0.017,0.058L80.912,45  l0.002,0.036l-0.021,0.063l-0.057,0.121l-0.016,0.052l-0.002,0.139l0.082,0.492l-0.004,0.242l0.024,0.117l0.062,0.091l0.106,0.043  l0.048,0.059l0.026,0.271l0.022,0.105l0.037,0.052l0.088,0.076l0.033,0.052l0.016,0.053l0.021,0.267l-0.007,0.201l0.013,0.058  l0.04,0.108l0.007,0.06l0.187,1.13l-0.005,0.088l-0.036,0.017l-0.05-0.001l-0.036,0.034l0.071,0.232l0.043,0.228l0.006,0.031  l0.003,0.031l0.024-0.009l0.024-0.014l0.021-0.017l0.021-0.021l0.036-0.046l0.04-0.012l0.038-0.004l0.037-0.02l0.022-0.047v-0.047  l-0.008-0.048v-0.051l0.021-0.067l0.008,0.003l0.017,0.004l0.015-0.009l0.002-0.035l-0.012-0.098l0.01-0.045l0.031-0.025  l0.078,0.022l0.204,0.151l0.208,0.199l0.059,0.078l0.025,0.099l0.016,0.1l0.033,0.033l0.038-0.034l0.03-0.099l0.023-0.075  l0.047-0.016l0.055,0.03l0.041,0.061l0.018,0.02l0.02,0.01l0.021-0.001l0.021-0.012l0.008-0.007l0.005-0.008l0.004-0.024  l-0.002-0.024l-0.004-0.025L82.9,49.395l-0.021-0.044l-0.01-0.046l0.006-0.045l0.058-0.115l0.032-0.025l0.039-0.009l0.06-0.024  l-0.01-0.028l0.004-0.234L83.053,48.8l0.008-0.02l0.039-0.015l0.029-0.002l0.086,0.015l0.059,0.019l0.045,0.035l0.048,0.022  l0.071-0.022l-0.061-0.108l0.003-0.042l0.003-0.005l0.016,0.002l0.07-0.032l0.031-0.006l0.025-0.015l0.015-0.043l0.002-0.035  l-0.026-0.405l-0.039-0.142l-0.115-0.123l-0.025-0.056l-0.035-0.114l-0.002-0.081l0.035-0.137l0.004-0.075l-0.02-0.068l-0.072-0.127  l-0.025-0.066l-0.01-0.073l0.027-0.277l0.105-0.094l0.01,0.005l0.031-0.081l0.115-0.137l0.047-0.072l0.006-0.064l-0.021-0.07  l-0.064-0.124l-0.024-0.074l-0.018-0.097l0.006-0.092l0.041-0.063l0.079-0.03l0.063,0.016l0.049,0.049l0.045,0.067l0.066,0.056  l0.084-0.005l0.084-0.042l0.063-0.054l0.05-0.065l0.133-0.269v-0.043l-0.006-0.042l-0.002-0.054l0.026-0.235l-0.015-0.147  l0.004-0.061l0.021-0.057l0.063-0.089l0.011-0.03l0.002-0.032l-0.006-0.04l-0.02-0.204v-0.098l0.104-0.674l-0.008-0.115  l-0.013-0.037l-0.045-0.062l-0.02-0.037l-0.102-0.07l-0.055-0.406l0.003-0.125l-0.01-0.056l-0.013-0.024l-0.021-0.017l-0.026-0.034  l-0.069-0.115l-0.024-0.057l-0.017-0.063l-0.007-0.075l0.007-0.086l0.021-0.08l0.041-0.057l0.084-0.031l0.063,0.037l0.092,0.144  l0.032,0.041l0.104,0.107l0.021,0.047l0.01,0.045l0.025,0.031l0.06,0.009l0.066-0.006l0.1-0.057l0.055-0.02l0.021,0.01l0.019,0.025  l0.02,0.018l0.029-0.008l0.021-0.017l0.016-0.023l0.013-0.027l0.007-0.028l0.079-0.048l0.155-0.007l0.162,0.02l0.104,0.036  l0.128,0.174l0.065,0.033l0.258-0.032l0.093,0.021l0.091,0.036l0.111,0.028l0.072,0.014l0.186,0.102l0.053,0.041l0.045,0.065  l0.047,0.052l0.056,0.003l0.048-0.054l0.01-0.071l-0.005-0.077l0.005-0.069l0.032-0.07l0.146-0.197l0.013-0.05l0.018-0.135  l0.015-0.033l0.033-0.041l0.016-0.061l0.012-0.126l0.038-0.132l0.155-0.372l0.015-0.059l0.011-0.119l0.018-0.056l0.022-0.029  l0.067-0.048l0.023-0.029l0.002-0.029l-0.011-0.061l0.001-0.021l0.036-0.041l0.04-0.028l0.028-0.04l0.008-0.142l0.022-0.042  l0.035-0.03l0.049-0.031l0.045-0.179l0.023-0.05l0.038-0.038l0.146-0.094l0.039-0.081l0.065-0.241l0.026-0.057l0.048-0.009h0.04  l0.04-0.005l0.044-0.026l0.037-0.048l0.027-0.061l0.012-0.066V39.76l0.019-0.104l0.13-0.174l0.051-0.093l0.061-0.302l0.053-0.072  l0.061-0.108l0.018-0.15l-0.021-0.147l-0.058-0.101l-0.116-0.055l-0.13-0.025l-0.114-0.043l-0.076-0.108l-0.01-0.146l0.186-0.529  l0.072-0.116l0.094-0.1l0.104-0.074l0.063-0.022l0.111-0.014l0.061-0.019l0.059-0.045l0.082-0.135l0.047-0.059l0.026-0.012  l0.063-0.001l0.029-0.015l0.004-0.016l-0.026-0.033l0.002-0.019l0.013-0.012l0.034-0.019l0.012-0.012l0.289-0.426l0.024-0.026  l0.029-0.013l0.069-0.009l0.028-0.021l0.021-0.063l-0.007-0.08l-0.065-0.367l0.002-0.069l0.021-0.077l0.037-0.033l0.12-0.044  l0.053-0.036l0.138-0.147l0.101-0.124l0.038-0.071l-0.004-0.075l-0.041-0.042l-0.115-0.037l-0.044-0.039l-0.031-0.24l0.013-0.03  l0.024-0.028l0.015-0.026l-0.012-0.028l-0.025-0.014l-0.026-0.006l-0.026-0.01l-0.023-0.024l-0.039-0.108l-0.016-0.142l0.006-0.143  l0.021-0.112l0.044-0.12l0.006-0.053l-0.014-0.068l-0.062-0.118l-0.006-0.057l0.043-0.069l0,0l0.051-0.04l0.095-0.107l0.032-0.054  l0.019-0.041l0.004-0.024l-0.001-0.022l0.012-0.103l0.012-0.026l0.031-0.033l0.027-0.015l0.071-0.017l0.03-0.015l0.026-0.028  l0.045-0.069l0.03-0.024l0.061-0.01l0.051,0.074l0.067,0.007l0.06-0.019l0.119-0.058l0.248-0.082l0.058-0.036l0.095-0.121  l0.073-0.149l0.088-0.121l0.133-0.034l0.074,0.013l0.065,0.001l0.054-0.027l0.038-0.074l0.033-0.085L91.43,32.3l0.051-0.021  l0.148-0.018l0.043-0.018l0.032-0.041l0.083-0.143l0.138-0.171l0.087-0.035l0.182-0.034l0.089-0.047l0.089-0.087l0.07-0.103  l0.117-0.226l0.123-0.172l0.196-0.141l0.222-0.1l0.854-0.146l0.215,0.01l0.05,0.017l0.067-0.006l0.066-0.022l0.049-0.028  l0.064-0.079l0.028-0.062l0.034-0.029l0.089,0.019l0.028,0.018l0.021,0.018l0.022,0.011l0.041-0.002l0.033-0.019l0.053-0.059  l0.035-0.015l0.06,0.003l0.062,0.016l0.111,0.052l0.057,0.041l0.041,0.045l0.066,0.116l0.038,0.046l0.103,0.087l0.021,0.029  l-0.027,0.071l-0.03,0.06l0.004,0.057l0.072,0.061l0.443,0.206l0.027,0.027l0.022,0.03l0.024,0.026l0.035,0.016l0.033-0.002  l0.062-0.027l0.032-0.004l0.041,0.015l0.025,0.022l0.026,0.012l0.041-0.017l0.013-0.023l0.033-0.093l0.005-0.028l-0.017-0.038  l-0.027-0.022l-0.029-0.018l-0.023-0.026l-0.008-0.033l-0.002-0.065l-0.02-0.029l-0.089-0.093L95.552,30.4l-0.077-0.129  l-0.014-0.068l0.043-0.106l-0.007-0.053l-0.011-0.031l-0.012-0.066l-0.004-0.035l-0.01-0.033l-0.036-0.055l-0.013-0.036v-0.075  l0.025-0.072l0.043-0.063l0.052-0.047l0.129-0.089l0.057-0.05l0.109-0.14l0.041-0.028l0.149-0.045h0.021l0.012-0.013l0.007-0.047  l0.01-0.039l0.022-0.019l0.063-0.022l0.02-0.021l0.025-0.052l0.021-0.013l0.035-0.011l0.026-0.017l0.162-0.146l0.052-0.058  l0.042-0.059l0.038-0.037l0.06-0.03l0.063-0.015l0.051,0.006l0.037,0.045l0.002,0.048l0.014,0.025l0.071-0.026l0.062-0.035  l0.014-0.026l-0.006-0.042l-0.002-0.082l0.015-0.059l0.054-0.104l0.018-0.052L96.993,28.181z M18.88,94.939l-0.004-0.004  l-0.015,0.002l-0.014,0.063l-0.031,0.052l-0.048,0.038l-0.062,0.023l-0.001-0.011l0.001-0.035h-0.021l0.006,0.062l0.027,0.021  l0.038-0.012l0.039-0.023l0.03-0.032l0.057-0.123l-0.003-0.011L18.88,94.939L18.88,94.939z M17.887,85.503l-0.013,0.063l0.017,0.056  l0.031-0.097l0.009-0.053l0.004-0.052l0.008-0.012L17.95,85.4l0.006-0.01l0.001-0.016h-0.022L17.887,85.503z M15.972,86.723  l-0.021,0.061v0.068L16,86.764l0.039-0.093v-0.044l-0.035,0.042L15.972,86.723z M17.141,86.953l-0.005,0.004l0.001,0.012  l0.024-0.021l-0.011,0.005L17.141,86.953z M20.729,89.011h-0.005l-0.004,0.011l0.011,0.009l0.005-0.003l0.003-0.008l0.006-0.006  h-0.008L20.729,89.011z M17.429,87.661l-0.015,0.019l0.018-0.007l0.019-0.009l0.036-0.025l-0.001-0.008l0.003-0.006V87.62  l-0.006-0.004L17.429,87.661z M17.664,83.973l-0.013,0.02l0.013-0.003l0.011-0.009l0.025-0.016h-0.022L17.664,83.973z   M17.783,85.852l-0.008,0.008l-0.001,0.017l0.018-0.002l0.006-0.009l0.003-0.012l0.008-0.012l-0.014,0.008L17.783,85.852z   M20.775,86.792l0.003,0.009h0.012l0.026-0.01l-0.042-0.007L20.775,86.792z M20.686,89.174l-0.021,0.024l-0.013,0.028l-0.006,0.034  l0.003,0.033l0.016-0.017l0.012-0.022l0.01-0.024l0.008-0.024l-0.004-0.024L20.686,89.174z M18.628,84.611l-0.001,0.023l0.004,0.03  l0.011-0.017l0.007-0.019l0.008-0.04l-0.021,0.003L18.628,84.611z M84.373,96.104l-0.012-0.002l-0.018-0.016l-0.074-0.025  l-0.018-0.027l0.001-0.067l-0.005-0.03l-0.012-0.027L84.169,95.9l-0.082,0.018l-0.071,0.032l-0.029,0.04l-0.026,0.129l0.006,0.037  l0.022,0.029l0.029,0.017l0.031-0.002l0.025-0.021l0.023,0.021l-0.022,0.04l-0.003,0.035l0.017,0.033l0.029,0.024l0.043,0.017  l0.034-0.008l0.035-0.017l0.041-0.015l0.041-0.007l0.021,0.001l0.051,0.027l0.033,0.039l0.021,0.007l0.011-0.035l0.009-0.063  l-0.001-0.035L84.373,96.104z M85.223,98.166l0.06-0.035l0.042-0.037l0.019-0.044l-0.011-0.06l-0.03-0.038l-0.038-0.024  l-0.033-0.031l-0.008-0.063v-0.088l-0.041,0.074l-0.021,0.072l-0.035,0.055l-0.091,0.021l-0.071,0.027l-0.021,0.065l-0.012,0.065  l-0.041,0.038l0.055,0.064l0.014,0.022l0.007,0.037l-0.003,0.026l0.005,0.024L85,98.364l0.052-0.015l0.112-0.132L85.223,98.166z   M85.939,99.104l-0.021-0.037l-0.031-0.082l-0.053-0.092l-0.014-0.05l-0.008-0.127L85.8,98.652l-0.021-0.055l-0.019-0.064  l-0.03-0.043l-0.08-0.07l-0.055-0.02l-0.053,0.023l-0.082,0.073l-0.021-0.022l-0.082,0.037l-0.018,0.006l-0.015,0.01l-0.019,0.024  l-0.022,0.022l-0.031,0.011h-0.071l-0.029,0.008l-0.072,0.164l-0.014,0.038v0.342l0.047-0.042l0.066,0.019l0.062,0.048l0.045,0.043  l0.036,0.071l0.027,0.088l0.033,0.063l0.057-0.002l-0.002,0.04l0.004,0.033l0.017,0.024l0.028,0.011l-0.021,0.04l0.01,0.033  l0.024,0.03l0.03,0.028l-0.028,0.041l0.024,0.034l0.043,0.028l0.027,0.027l-0.003,0.064l-0.013,0.063l0.011,0.048l0.072,0.03  l0.045-0.128l0.036-0.062h0.04l0.026,0.013l0.03-0.003l0.028-0.01l0.016-0.014l0.004-0.035l-0.017-0.025l-0.021-0.021l-0.012-0.025  l0.014-0.111l0.088-0.184l0.027-0.082l-0.004-0.172L85.939,99.104z M82.271,91.914l-0.023-0.031l-0.032-0.015l-0.039,0.009  l0.013,0.055l-0.03,0.051l-0.052,0.035l-0.049,0.016L82.04,92.07l0.011,0.086l0.027,0.09l0.035,0.054l0.158,0.011l0.09-0.108  l0.011-0.147l-0.083-0.105L82.271,91.914z M84.637,95.867l0.041-0.016l0.012-0.009l0.02-0.042V95.77l-0.039-0.121l-0.054-0.109  l-0.011-0.059l0.018-0.063l0.035-0.04l0.029-0.048l0.002-0.063l-0.025-0.041l-0.061-0.004l-0.062,0.021l-0.026,0.035l-0.014,0.035  l-0.027,0.049l-0.031,0.041l-0.026,0.02v0.032l0.035,0.207l0.026,0.052l0.045,0.036l0.039-0.001l0.02-0.063l0.044,0.024l0.019,0.038  l-0.009,0.021l-0.03-0.019h-0.022l-0.007,0.041l-0.023,0.015l-0.023,0.014l-0.012,0.031l0.006,0.09l0.017,0.035l0.034-0.014  l0.048-0.072l0.008-0.019L84.637,95.867z M84.8,95.958l-0.022-0.047l-0.032-0.021l-0.026,0.014l-0.003,0.054l-0.06-0.017  l-0.03,0.027l-0.003,0.051l0.023,0.045l0.181,0.134v-0.142l-0.013-0.065L84.8,95.958z M83.496,95.217l-0.083-0.035l-0.067-0.055  l-0.031-0.061l-0.012-0.077l0.004-0.15l-0.021-0.03l-0.036-0.002l-0.045,0.029l-0.019,0.034l-0.011,0.05l-0.006,0.096l0.021,0.074  l0.052,0.084l0.065,0.066l0.072,0.027l0.094,0.023l0.045,0.003l0.027-0.026l-0.011-0.026L83.496,95.217z M84.895,94.152v0.053  l0.041,0.111l-0.002,0.054l-0.022,0.131l0.004,0.039l0.026-0.001l0.027-0.05l0.021-0.064L85,94.384l-0.004-0.063l-0.018-0.045  l-0.045-0.09v-0.068L84.895,94.152z M83.177,94.541l0.054,0.029v-0.067l-0.056-0.021L83.177,94.541z M83.76,95.122l-0.008-0.017  l-0.027,0.006l-0.031,0.031l0.004,0.028l0.004,0.013l0.017,0.02l0.017,0.007l0.045,0.041l0.005-0.089l-0.011-0.02L83.76,95.122z   M82.857,81.479l0.024-0.045l-0.046-0.029l0.029-0.045l0.053-0.051l0.029-0.043l0.003-0.156l-0.009-0.082l-0.051-0.117l0.014-0.088  l0.043-0.151v-0.075l-0.021-0.068l-0.036-0.063l-0.054-0.062l0.037-0.064l-0.007-0.074l-0.018-0.07l0.012-0.058l-0.075-0.079  l-0.026-0.013l-0.009-0.014l-0.006-0.027l-0.013-0.03l-0.027-0.017l-0.032,0.043l-0.03,0.021l-0.037-0.012l-0.024-0.027  l-0.001-0.016l0.008-0.018l0.006-0.029l0.07-0.143l0.009-0.025l0.036-0.002l0.035,0.006l0.023,0.025l0.004,0.062h0.021l0.031-0.054  l0.012-0.037l-0.02-0.039l-0.058-0.063L82.745,79.6l0.001-0.074l0.027-0.057l0.063,0.01v-0.066h0.023l0.008,0.041l-0.016,0.078  l0.008,0.039l0.021,0.02l0.028,0.004l0.022-0.014l0.012-0.032h0.025l0.067,0.032l0.056-0.094l0.036-0.137l0.017-0.097l-0.002-0.209  l0.016-0.092l0.072-0.115l-0.012-0.03l-0.074-0.05l-0.056-0.073l-0.032-0.031l-0.068,0.014l-0.045-0.02l-0.034-0.039L82.9,78.557  l0.023-0.037l0.034-0.004l0.026,0.029l0.002,0.059l0.043-0.031l0.052-0.026l0.044-0.028l0.02-0.037l0.017-0.047l0.065-0.048  l0.006-0.052l-0.016,0.006l-0.037,0.008l-0.015,0.008l-0.019-0.215l0.004-0.103l0.037-0.112l-0.047-0.096l-0.024-0.018l-0.034,0.008  l-0.029,0.01l-0.021-0.004l-0.015-0.035l-0.019,0.031l-0.007,0.021l0.006,0.019l0.02,0.021l-0.029,0.013l-0.02,0.002l-0.018-0.013  l-0.021-0.022l-0.022,0.012l-0.062,0.011l-0.029,0.021l-0.012,0.022l-0.002,0.059l-0.008,0.033l-0.018,0.025l-0.07,0.085  l-0.038,0.026l-0.006-0.002l-0.021,0.045l-0.002,0.023l0.002,0.082v0.03l-0.014,0.039l-0.016,0.024l-0.125,0.16l-0.021,0.064  l0.043,0.049v0.02l-0.015,0.052l0.046,0.146l0.001,0.03l-0.069,0.027l-0.002,0.063l0.008,0.068l-0.035,0.043l0.014,0.022  l0.044,0.049l0.01,0.021l-0.005,0.013l-0.014,0.02l-0.061,0.109l-0.065,0.191l-0.005,0.081l0.072,0.034l0.015,0.025l-0.021,0.056  l-0.049,0.088v0.17l-0.012,0.072l-0.029,0.088l-0.048,0.059L82.225,80.2l-0.021,0.028l-0.03,0.027l-0.026,0.026l-0.011,0.04  l0.024,0.148l0.008,0.229l0.023,0.051l0.037,0.018l0.035,0.008l0.019,0.015l-0.013,0.041l-0.014,0.002l-0.049,0.004l-0.018,0.003  l-0.016,0.018l-0.02,0.035L82.1,80.961l-0.017,0.043l-0.013,0.775l0.015,0.082l0.037,0.063l0.067,0.025h0.076l0.025,0.013  l0.02,0.032l0.006,0.043L82.3,82.051l-0.026,0.001l-0.053,0.017l-0.015-0.008h-0.004l-0.001,0.034l0.009,0.017l0.021,0.02  l0.024,0.016l0.022,0.008l0.033,0.134l-0.014,0.039l-0.016,0.021l-0.061,0.028l-0.014,0.002l-0.064-0.002l-0.01,0.004l-0.006,0.009  l-0.008,0.008L82.1,82.4l-0.026-0.01l-0.001-0.027l0.017-0.063l-0.011-0.073l-0.025-0.021l-0.029,0.024l-0.021,0.058h-0.023  l-0.025-0.039l-0.044,0.062l-0.072,0.146l-0.017,0.065l0.005,0.326l-0.015,0.035l-0.041,0.072l-0.011,0.051l0.005,0.045l0.014,0.049  l0.008,0.051l-0.016,0.045l-0.011,0.181l-0.013,0.026l-0.021-0.014l-0.01-0.039l0.021-0.054l-0.047,0.011l-0.019-0.01l-0.008-0.021  l-0.05-0.071l-0.021-0.017l-0.022,0.008l-0.075,0.117l-0.024,0.097h-0.005l-0.01,0.01l-0.009,0.015v0.02l0.01,0.02h0.01l0.012-0.004  l0.037,0.021l0.028,0.01l0.026,0.013l0.012,0.022v0.134l-0.021,0.146l0.01,0.052l0.054,0.036l0.022-0.004l0.028-0.016l0.025,0.006  l0.012,0.047l0.003,0.037l0.018,0.063l0.004,0.035l0.017,0.037l0.037,0.014l0.036,0.008l0.021,0.021l-0.012,0.027l-0.025,0.01  l-0.031,0.006l-0.021,0.021v0.03l0.013,0.046l0.025,0.042l0.039,0.019l0.027,0.011l0.005,0.024l-0.003,0.032l0.014,0.031l0.1,0.102  l0.029,0.013l0.026,0.002l0.021,0.013l0.012,0.043L82.1,84.58l0.026-0.059l0.032-0.109v-0.1l0.008-0.033l0.043-0.041l0.016-0.026  v-0.036l-0.013-0.111l-0.01-0.029L82.162,84l-0.033,0.004l-0.02,0.036l0.004,0.062l-0.016-0.007l-0.035-0.011l-0.016-0.006v0.124  l-0.015,0.022l-0.03,0.012l-0.031-0.002l-0.014-0.012l-0.001-0.072l0.005-0.041l0.02-0.033l0.105-0.109l0.037-0.018l0.066-0.008  l0.016-0.023l0.119-0.512l0.008-0.11l-0.012-0.075l-0.025-0.039l-0.037-0.016l-0.046-0.004l-0.026,0.027l-0.016,0.063l-0.013,0.111  h-0.024v-0.271l0.012-0.072l0.016-0.043l0.063-0.082h-0.021l0.016-0.029l0.024-0.018l0.031-0.006l0.037,0.006l-0.082-0.082  l-0.031-0.054l0.037-0.024l0.049-0.002l0.05-0.013l0.031-0.021l-0.009-0.028l0.063-0.036l0.023-0.008v-0.025l-0.02-0.047  l0.051-0.053l0.067-0.051l0.032-0.039l-0.006-0.059l0.063,0.002l0.008-0.014l-0.007-0.031l-0.011-0.033l-0.014-0.023l-0.017-0.037  l0.021-0.031l0.033-0.029l0.019-0.022l-0.007-0.046l-0.021-0.023L82.609,82l-0.017-0.025l-0.004-0.029l0.007-0.006l0.016-0.004  l0.029-0.027l0.024-0.018l0.03-0.015l0.008-0.017l-0.042-0.021l0.002-0.04l-0.026-0.035L82.6,81.736l-0.035-0.01l-0.023-0.021  l-0.032-0.104l-0.022-0.033v-0.021l0.087,0.008l0.092-0.008l-0.017-0.053l-0.006-0.016l0.034,0.019l0.032,0.026l0.025,0.033  l0.018,0.034h0.021l0.009-0.059l0.034-0.029L82.857,81.479z M83.041,77.557l0.107,0.031l-0.032-0.072l-0.013-0.02l-0.019-0.041  l-0.045,0.001l-0.093,0.04l0.031,0.033L83.041,77.557z M81.926,80.09l-0.008,0.034l0.04,0.231l0.038-0.021l0.006-0.03l-0.005-0.039  l0.007-0.043l0.016-0.021l0.051-0.059l0.021-0.033l0.018-0.074l0.008-0.166l0.018-0.053l-0.014-0.035l-0.01-0.016l-0.01-0.017  l-0.016-0.013l-0.018-0.01H82.04l-0.021,0.019l-0.022,0.03l-0.039,0.039l0.006,0.056l-0.022,0.18L81.926,80.09z M80.619,84.307  l-0.038-0.014l-0.085-0.012l-0.037-0.002V84.3l0.042,0.046l0.015,0.12l0.058,0.037l0.067-0.007l0.037-0.041l0.006-0.063  l-0.029-0.068L80.619,84.307z M83.311,82.377l0.004-0.018v-0.008l-0.004-0.009l-0.015-0.03l-0.022-0.015l-0.029-0.002l-0.028,0.013  l-0.022,0.036l-0.016,0.058l-0.008,0.062l0.001,0.048l0.017,0.039l0.031,0.055l0.036,0.047l0.028,0.018l0.027-0.036l-0.004-0.059  l-0.021-0.104l0.003-0.022L83.311,82.377z M83.137,83.121l-0.021-0.028l-0.006-0.026l-0.071-0.15l0.022-0.052l-0.035-0.02  l-0.108,0.003l-0.028,0.028l-0.048,0.062L82.809,83l0.021,0.027l0.046,0.008l0.023,0.021l0.019,0.027l0.032,0.03l0.033,0.017  l0.047,0.012l0.029,0.02l0.006,0.027l0.028,0.063l0.046,0.052l0.055-0.01L83.137,83.121z M81.965,84.928l-0.027-0.044l0.011-0.055  l0.032-0.043l0.021-0.038l-0.021-0.044l-0.047-0.074l-0.066-0.058h-0.061l-0.025,0.101l0.023,0.101l0.008,0.055l-0.021,0.045  l-0.022,0.012l-0.052,0.006l-0.022,0.016l-0.006,0.017l-0.02,0.075l0.034,0.02l0.022,0.021l0.027,0.019l0.049,0.008l0.036-0.004  l0.087-0.025l0.031-0.016l0.055-0.041l-0.01-0.023L81.965,84.928z M81.561,86.939l-0.018-0.056l-0.059-0.106l-0.026-0.123  l-0.063-0.069l-0.011-0.048l-0.243,0.178l-0.1,0.098l-0.039,0.049l-0.016,0.044l-0.012,0.002H80.95l-0.029,0.009l-0.022,0.023  l-0.006,0.029l0.006,0.104l-0.008,0.081l0.002,0.06l0.02,0.056l0.085,0.138l-0.002,0.062l-0.052,0.141l-0.01,0.082l0.022,0.021  l0.129-0.014l0.069,0.021l0.052,0.041l0.056,0.034l0.079-0.01l0.066-0.047l0.04-0.064l0.021-0.073l0.005-0.07l-0.005-0.039  l-0.009-0.031l-0.001-0.031l0.015-0.041l0.029-0.031l0.036-0.021l0.019-0.022l-0.019-0.043l0.067-0.047l0.008-0.105l-0.055-0.201  v0.021H81.561z M87.04,78.281l0.041,0.027l0.052-0.009l-0.031-0.065L87.04,78.281z M85.749,82.046l-0.028,0.032l0.006,0.036  l0.063-0.027L85.749,82.046z M83.113,82.788l0.033,0.024l0.014-0.062l-0.008-0.035l-0.049-0.092L83.1,82.576l-0.018-0.043  l-0.023-0.028l0.006-0.008l0.013-0.009l0.011-0.03l0.001-0.021l-0.009-0.002l-0.025,0.02l-0.033,0.037l-0.01,0.058l0.016,0.146  L83.113,82.788z M81.568,84.309l-0.026-0.018l-0.008-0.014l-0.013-0.012l-0.019,0.002l-0.007,0.029l0.005,0.036l-0.011,0.094  l0.008,0.003l0.029-0.015l0.029-0.006l0.039-0.043l0.016-0.036l-0.006-0.014L81.568,84.309z M82.068,79.49l0.019-0.025l0.011-0.035  l0.02-0.039l-0.042-0.02l-0.009-0.008l-0.028-0.014l-0.035,0.026l0.006,0.042l0.034,0.033L82.068,79.49z M82.979,79.773l0.041-0.035  l-0.012-0.016l-0.029,0.004l-0.02-0.002l-0.003,0.029l-0.013,0.025l-0.018,0.018l-0.017-0.023v-0.02l-0.021-0.02l-0.033,0.031  l0.009,0.019l0.018,0.008l0.005,0.026l-0.023-0.012l0.023,0.045H82.9l0.008,0.006l0.001,0.011l-0.017,0.003l-0.027,0.015  l-0.002,0.017l0.019-0.008l0.031,0.004l-0.002,0.004l0.002,0.009l0.017,0.012l0.004,0.015l0.014-0.037l0.014-0.039l-0.01-0.024  l0.016-0.043L82.979,79.773z"/></svg>