<svg xmlns="http://www.w3.org/2000/svg" xmlns:xlink="http://www.w3.org/1999/xlink" version="1.1" x="0px" y="0px" viewBox="0 4 100 100" fill="#e0e0e0" enable-background="new 0 4 100 92" xml:space="preserve"><path d="M58.561,88.232l-0.055-0.027l-0.063,0.04l-0.039,0.019l-0.02,0.045l0.021,0.058l0.023,0.028l0.041,0.013l0.053-0.003  l0.049-0.03l-0.008-0.019l0.01-0.035L58.561,88.232z M25.974,63.746l0.041-0.045l0.006-0.026l0.007,0.005L26.03,63.7l0.051,0.007  h0.074v-0.031l-0.006-0.059l-0.008-0.049l-0.018-0.017l0.018-0.012l0.009-0.022l-0.006-0.031l-0.033-0.01l-0.059,0.002h-0.024  l-0.022,0.026H25.99l-0.017-0.022l-0.032,0.008h-0.004l-0.057,0.011l-0.003,0.058l-0.02,0.022l0.002,0.03l-0.003,0.022l0.008,0.063  l0.035,0.013l0.035,0.013l0.025-0.025l-0.002,0.025L25.974,63.746z M32.697,70.791l-0.024,0.003l-0.051-0.033l-0.078-0.021  l0.014,0.126l0.063,0.175l0.076,0.128l0.033-0.09l0.021-0.119l0.002-0.115l-0.021-0.083L32.697,70.791z M51.954,86.824l-0.039-0.02  l-0.006-0.049l0.002-0.053l-0.015-0.036l-0.073-0.028l-0.192-0.021l-0.086-0.03l-0.102-0.005l-0.094,0.028l-0.074,0.058  l-0.053,0.079l0.104,0.172L51.494,87l0.422,0.023l0.059-0.03l0.021-0.07l-0.008-0.067L51.954,86.824z M64.65,83.52l-0.06-0.023  l-0.055-0.034l-0.091,0.019l-0.098,0.131l-0.013,0.146l0.164,0.063l0.081-0.014l0.068-0.035l0.051-0.054l0.019-0.073L64.7,83.561  L64.65,83.52z M63.984,84.71l-0.131,0.062l-0.074,0.104l-0.023,0.154l0.1,0.039l0.196-0.063l0.155-0.137l-0.027-0.179L63.984,84.71z   M48.295,85.063l-0.39-0.028L47.468,84.9l-0.049,0.004l-0.042,0.014l-0.036,0.01l-0.021,0.023l0.046,0.055l0.164,0.135l0.079,0.053  l0.091,0.039l0.296,0.051h0.1l0.094-0.055l0.061-0.015l0.2,0.019l0.074-0.021l-0.11-0.102L48.295,85.063z M54.425,88.391  l0.027-0.006l0.108-0.221l-0.019-0.04l-0.024-0.032l-0.029-0.021l-0.036-0.019L54.4,87.997l-0.049-0.011l-0.045,0.021l-0.031,0.044  l-0.021,0.067l0.002,0.055l0.014,0.058l0.006,0.076l0.029,0.033l0.059,0.032L54.425,88.391z M49.855,85.868l-0.053-0.013  l-0.104,0.004l-0.041,0.063l0.052,0.069l0.09,0.047l0.092,0.013l0.067-0.066l-0.042-0.088L49.855,85.868z M61.536,85.923  l-0.05,0.011L61.4,85.997l-0.066,0.129l-0.011,0.134l0.085,0.047l0.104-0.063l0.073-0.124l-0.01-0.136L61.536,85.923z   M54.555,90.251l-0.123,0.036l-0.066,0.037l0.021,0.063l0.081,0.038l0.069,0.017l0.053-0.039L54.581,90.3L54.555,90.251z   M63.421,84.139L63.29,84.08l-0.104-0.023l-0.201,0.004L62.3,84.214l-0.548,0.353l-0.195,0.045l-0.725-0.271L60.7,84.414  l0.036,0.046l0.087,0.067l0.089,0.086l0.039,0.098l0.023,0.259l-0.018,0.107l-0.08,0.09l0.021,0.04l0.018,0.04l-0.05,0.019  l-0.054,0.045l-0.039,0.016l-0.053,0.005l-0.107-0.008l-0.053,0.003l-0.338,0.132L60.12,85.54l-0.242,0.146l-0.084,0.034  l-0.101,0.011l-0.691,0.227l-0.273,0.152l-0.049-0.016l-0.056,0.028l-0.244-0.087l-0.058,0.059l0.054,0.182l0.024,0.027  l-0.008,0.066l-0.035,0.102l0.024,0.143l0.026,0.066l0.042,0.026l0.048-0.006l0.063-0.021l0.058-0.029l0.022-0.041l0.022-0.049  h0.053l0.06,0.021l0.043,0.009l0.047-0.018l0.098-0.063l0.227-0.063l0.32-0.035l0.092-0.051l0.176-0.127l0.289-0.123l0.279-0.2  l0.109-0.05l0.104-0.024l0.237,0.035l0.111,0.001l0.095-0.057l0.098-0.08l0.346-0.178l0.132,0.104l0.112,0.113l0.119,0.052  l0.153-0.089l0.255-0.245l0.045-0.028l0.043-0.053l0.198-0.1l0.045-0.047l0.031-0.078l0.215-0.218l0.06-0.1l0.117-0.261l0.115-0.102  l0.32-0.083l0.166-0.095l-0.043-0.105L63.421,84.139z M99.824,83.003l-0.074-0.106l-0.055-0.063l-0.049-0.029l-0.127-0.047  l-0.059-0.037L99.327,82.6l-0.065-0.023l-0.053-0.002l-0.282,0.091l-0.067,0.002l-0.086-0.01l-0.139,0.008l-0.271,0.083L98.23,82.77  l-0.303,0.06l-0.142,0.008l-0.164-0.035l-0.121-0.067l-0.041-0.014l-0.037,0.008l-0.071,0.039l-0.041,0.002l-0.076-0.041  l-0.226-0.199l0.082-0.006l0.052-0.039l0.031-0.064l0.023-0.083l0.01-0.094l-0.025-0.063l-0.102-0.123l0.271-0.609l0.031-0.241  L97.357,80.9l-0.051-0.536l-0.024-0.292l-0.044-0.471l-0.031-0.348l-0.135-0.561l-0.098-0.402l0.084-0.665l0.075-0.601l-0.024-0.203  l-0.115-0.07l-0.848,0.172l-0.104-0.066l-0.327-0.354l-0.074-0.126l-0.035-0.103l-0.035-0.061l-0.053-0.031l-0.086-0.029  l-0.086-0.049l-0.054-0.07l-0.044-0.078l-0.061-0.068l-0.144-0.074l-0.685-0.141l-0.433-0.191l-0.166-0.037l-0.343-0.027  l-0.157-0.049l-0.247-0.145l-0.31-0.086l-0.097-0.053l-0.164-0.188l-0.33-0.306L91.9,74.314l-0.534-0.482l-0.151-0.184l-0.146-0.325  l-0.15-0.167l-0.025-0.088l-0.014-0.1l-0.027-0.113l-0.221-0.502l-0.046-0.062l-0.058-0.046l-0.067-0.029l-0.04-0.031l-0.012-0.033  l0.015-0.037l0.037-0.038l0.049-0.052l0.017-0.055l-0.016-0.05l-0.05-0.04l-0.088-0.038l-0.04-0.086l-0.027-0.1l-0.054-0.083  l-0.056-0.03l-0.047-0.006L90.1,71.52l-0.055-0.063l-0.027-0.066l-0.014-0.147L89.99,71.18l-0.067-0.102l-0.165-0.182l-0.049-0.121  V70.66l0.063-0.206l0.01-0.116l-0.049-0.148l-0.09-0.065l-0.109-0.043l-0.102-0.083l-0.428-0.507L88.6,69.008l-0.391-0.466  l-0.338-0.403l-0.273-0.324L87.18,67.32l0.299-0.35l0.394-0.46l0.002-0.001l0.801-0.951l0.427-0.512l0.295-0.35l0.561-0.67  l0.421-0.502v-0.002l0.595-0.713l0.655-0.789l0.427-0.515l0.088-0.096L92.13,61.38l-0.007-0.007l0.008-0.107l0.014-0.041l0.03-0.019  l-0.021-0.412l-0.021-0.069l0.098-0.194l0.037-0.126v-0.12l-0.024-0.118l-0.063-0.197l-0.091-0.191l-0.013-0.062l-0.008-0.177  l-0.045-0.137l-0.139-0.229l-0.051-0.122l-0.002-0.121l0.035-0.26l-0.035-0.109l-0.186-0.235l-0.103-0.079l-0.134-0.055  l-0.883-0.127l-1.016-0.148l-0.888-0.13l-0.868-0.127l-0.521-0.076l-0.172-0.071L87,56.943l-0.076-0.291l-0.013-0.143l0.063-0.447  l-0.07-0.562l-0.012-0.295l0.037-0.374L86.924,54.7l-0.021-0.064l-0.024-0.06l-0.011-0.063l0.045-0.136l-0.03-0.032l-0.045-0.025  l-0.019-0.036l0.041-0.095l0.137-0.174l0.029-0.104l0.07-0.482l0.012-0.498l-0.178-0.65l-0.229-0.848l-0.21-0.707l-0.19-0.646  l-0.18-0.613l-0.178-0.595l-0.146-0.502l-0.076-0.394l-0.007-0.487l0.032-0.087l0.249-0.338l0.282-0.379l0.252-0.342l0.197-0.267  l0.148-0.132l0.17-0.107l0.055-0.069l0.027-0.124l-0.009-0.106L87.1,45.435l0.016-0.087l0.09-0.063l0.247-0.016l0.075-0.028  l0.047-0.078l-0.047-0.088l-0.088-0.079l-0.08-0.046l-0.174-0.044l-0.199-0.015l-0.383,0.021L86.2,44.883l-0.418-0.173l-0.326-0.313  l-0.13-0.453l0.043-0.203l0.158-0.359l0.014-0.245l-0.148-0.949l-0.065-0.623l0.032-0.278l0.145-0.294l0.163-0.211l0.183-0.188  l0.246-0.13l0.08-0.089l-0.037-0.133l0.367-0.022l0.526-0.031l0.387-0.024l-0.06-0.115l-0.385-0.499l-0.082-0.163l-0.05-0.072  l-0.063-0.057L86.652,39.2l-0.047-0.044l-0.043-0.149l-0.033-0.043l-0.043-0.023l-0.057-0.009l0.075-0.131l0.129-0.067l0.283-0.038  l0.131-0.036l0.101-0.069l0.234-0.268l0.027-0.05l0.033-0.042l0.068-0.039l0.072-0.013l0.068,0.006l0.061-0.014l0.055-0.071  l0.021-0.153l-0.019-0.162l0.008-0.149l0.094-0.107l0.163-0.129l0.101-0.18l0.03-0.105l0.157-0.052l0.043-0.207l0.021-0.222  l-0.003-0.055l-0.024-0.119l-0.004-0.065l0.017-0.078l0.071-0.119l0.019-0.061l0.017-0.122l0.076-0.235l0.029-0.261l0.039-0.091  l0.125-0.177l-0.057-0.057l-0.008-0.051l0.016-0.058l0.011-0.071l-0.017-0.025l-0.182-0.25l-0.027-0.063l0.029-0.029l0.053-0.026  l0.002-0.061L88.543,34.5l-0.027-0.027l-0.004-0.061l0.004-0.135l0.031-0.135l0.074-0.062l0.109-0.003l0.125-0.021L88.953,34  l0.042-0.11l-0.024-0.326l0.024-0.131l0.028-0.069l0.109-0.146l0.028-0.063l0.046-0.198l0.057-0.123l0.121-0.147l0.07-0.119  l0.031-0.133l-0.014-0.128l-0.054-0.26l-0.038-0.059l-0.128-0.195l-0.069-0.143l-0.013-0.17l0.019-0.038l0.072-0.069l0.016-0.044  l-0.004-0.112l0.004-0.037l0.033-0.149l-0.002-0.063l-0.031-0.046l0.031-0.144l-0.002-0.104l-0.019-0.095l-0.022-0.228l-0.035-0.113  l-0.045-0.106l-0.054-0.089l-0.083-0.102l-0.089-0.083L88.854,29.8l-0.125-0.019l-0.071-0.031l0.061-0.077l0.104-0.085l0.063-0.067  l0.004-0.06l-0.02-0.13l0.016-0.075l0.031-0.031l0.05-0.019l0.044-0.031l0.02-0.07l0.003-0.058l0.01-0.063l0.017-0.058l0.023-0.043  l0.057-0.071l0.01-0.039l-0.008-0.032l-0.015-0.193l-0.078-0.396l-0.075-0.125l-0.018-0.063l-0.001-0.149l-0.011-0.066l-0.021-0.066  L88.9,27.646l-0.03-0.04l-0.042-0.033l-0.051-0.021l0.016-0.045l0.008-0.018l0.018-0.024l-0.073-0.185l0.03-0.313l0.11-0.517  l-0.03-0.097l-0.01-0.077l0.022-0.067l0.032-0.05l0.027-0.061l0.02-0.072l0.008-0.078l-0.008-0.081l-0.02-0.059l-0.043-0.101  l-0.043-0.218l-0.21-0.028l-0.257-0.045l-0.531,0.008l-0.615,0.012l-1.104,0.021L85.4,25.47l-0.824,0.016l-0.172-0.096L84.3,25.199  l-0.149-0.394l-0.109-0.177l-0.549-0.668l-0.239-0.365l-0.192-0.413l-0.156-0.205l-0.192-0.084l-0.426-0.077l-0.188-0.11  l-0.341-0.286l-0.746-0.243l-0.055-0.004l-0.05,0.026l-0.061,0.095l-0.037,0.039l-0.05,0.011l-0.069-0.055l-0.035-0.107  l-0.024-0.123l-0.037-0.1l-0.086-0.094l-0.077-0.013l-0.164,0.063l-0.043-0.002l-0.043-0.021l-0.043-0.034l-0.033-0.035  l-0.086-0.022l-0.014-0.046l0.016-0.054l0.006-0.043l0.009-0.018l0.018-0.022l0.007-0.031l-0.029-0.043l-0.098-0.109l-0.324-0.269  l-0.061-0.09l-0.104-0.447l-0.012-0.136l0.019-0.072l0.03-0.063l0.021-0.058l-0.014-0.055l-0.031-0.07l0.018-0.145l-0.023-0.086  l-0.102-0.139l-0.104-0.099l-0.12-0.032l-0.29,0.134l-0.109-0.011L78.029,19.3l-0.17-0.174l-0.058-0.033l-0.149-0.021l-0.068-0.022  l-0.074-0.053l-0.201-0.094l-0.402-0.093l-0.313-0.173l-0.027,0.045l-0.015,0.098l-0.067,0.086l-0.055,0.019l-0.054,0.004  l-0.11-0.021h-0.058l-0.037,0.03l-0.034,0.039l-0.044,0.027l-0.116,0.012l-0.117-0.018l-0.223-0.092l-0.263-0.229l-0.084-0.044  L75.188,18.6l-0.078,0.058l-0.063,0.092l-0.048,0.109l-0.07,0.107l-0.091,0.043l-0.468,0.047l-0.072-0.02l-0.136-0.098l-0.065-0.03  l-0.402-0.061l-0.09-0.034l-0.088-0.073l-0.025-0.074l-0.002-0.09l-0.012-0.119l-0.019-0.048l-0.083-0.153l-0.004-0.051l0.011-0.046  v-0.046l-0.04-0.044l-0.087-0.043l-0.083-0.019l-0.175-0.016l-0.341-0.08l-0.813-0.39l-0.18-0.049L71.58,17.48l-0.087,0.021  l-0.085,0.007l-0.077-0.032L71.3,17.435l-0.047-0.099L71.217,17.3l-0.043-0.01l-0.085,0.02l-0.043-0.004l-0.065-0.043l-0.065-0.056  l-0.069-0.044l-0.078-0.001l-0.078,0.021l-0.252,0.005l-0.265-0.076L70.086,17.1l-0.088,0.015l-0.082,0.024l-0.081,0.011  l-0.745-0.295l-0.131-0.174l0.102-0.346l0.015-0.109l-0.026-0.114l-0.111-0.157l-0.061-0.196l-0.168-0.184l-0.061-0.092  l-0.094-0.227l-0.121-0.203l-0.021-0.058l-0.003-0.049l-0.015-0.043l-0.058-0.037l-0.11-0.037l-0.057-0.008l-0.059,0.008  l-0.09,0.043l-0.061,0.066l-0.105,0.182l-0.06,0.066l-0.169,0.111l-0.07,0.064l-0.095,0.053l-0.106-0.018l-0.205-0.085l-0.778-0.146  l-0.081-0.026l-0.176-0.102l-0.204-0.165l-0.05-0.01l-0.248,0.042l-0.416,0.183l-0.082,0.015l-0.07-0.031L64.98,15.02l-0.072-0.044  l-0.088-0.021l-0.477,0.015l-0.188,0.072l-0.176,0.122l-0.326,0.304l-0.032,0.089l0.14,0.161l0.026,0.114l-0.021,0.122l-0.051,0.103  l-0.083,0.061l-0.442,0.075l-0.084-0.012l-0.187-0.077l-0.21-0.027l-0.74,0.135l-0.08-0.004l-0.07-0.023l-0.143-0.074l-0.088-0.027  l-0.264-0.002l-0.076-0.026l-0.202-0.117l-0.321-0.07l-0.152-0.001l-1.024,0.216l-0.329,0.014l-0.127,0.051l-0.385,0.298  l-0.105,0.055l-0.106,0.088l-0.06,0.008l-0.236,0.08l-0.112,0.063l-0.046,0.104l-0.063,0.024l-0.301,0.057l-0.102,0.034l-0.044,0.05  l-0.056,0.119l-0.039,0.05L57.384,17.2l-0.073,0.012l-0.063,0.034l-0.025,0.088l-0.041,0.069l-0.242,0.27l-0.778,0.535l-0.154,0.169  l-0.067,0.108l-0.029,0.104l-0.021,0.129l-0.086,0.203l0.006,0.137l0.019,0.035l0.063,0.056l0.021,0.043l0.007,0.045l-0.007,0.156  l-0.017,0.093l-0.068,0.164l-0.018,0.1l-0.023,0.046l-0.131,0.11l-0.246,0.161l-0.065,0.062L55.24,20.17l-0.127,0.137l-0.077,0.037  l-0.115,0.002l-0.315-0.069l-0.115,0.018l-0.877,0.509l-0.186,0.06h-0.115l-0.119-0.016l-0.111,0.007l-0.096,0.063l-0.098,0.092  l-0.094,0.04l-0.104,0.005l-1.41-0.122l0.05,0.551l0.022,0.092l0.156,0.423l0.116,0.546l0.082,0.238l0.122,0.19l-0.117,0.22  l-0.015,0.096l0.098,0.038l0.077,0.044l0.027,0.11l-0.002,0.668l-0.035,0.105L51.801,24.3l-0.648,0.177l-0.088-0.03L50.982,24.4  l-0.806-0.072l-0.213-0.094l-0.125-0.167l0.041-0.004l0.104-0.035l-0.169,0.008l-0.073-0.024l-0.041-0.071h0.266l0.305,0.04  l0.08-0.018l0.143-0.056l0.075-0.011l0.141,0.043l0.075,0.011l0.065-0.031l0.235-0.075l0.369-0.045l0.292-0.102l0.012-0.246  l-0.253,0.213l-0.372,0.09l-2.037,0.115l-0.232,0.038l-1.721,0.385l-0.854,0.264l-0.887,0.265L44.52,25l-0.924,0.175l-0.891,0.222  l-0.851,0.31l-0.959,0.129l-0.924-0.268l-0.956-0.171l-0.924-0.268l-1.447-0.286l-0.433-0.198l-0.748-0.527l-0.815-0.444  l-0.077-0.066l-0.154-0.165l-0.071-0.032l-0.108-0.025l-0.572-0.388l-0.101-0.029l-0.077-0.048l-0.258-0.308l-0.374-0.283  l-0.181-0.173l-0.155-0.256l-0.123-0.35l-0.073-0.116l-0.047-0.094l-0.067-0.235l-0.046-0.091l0.021-0.233l-0.164-0.155  l-0.243-0.094l-0.674-0.155l-0.433-0.168l0.04-0.052l0.03,0.004l0.059,0.017l0.05-0.009l-0.187-0.096l-0.167,0.031l-0.176,0.072  l-0.215,0.032l-1.99-0.268l-0.39-0.131l-0.834-0.435l-0.378-0.271l-0.35-0.362l-0.261-0.393l-0.11-0.246l-0.054-0.256l0.008-0.047  l0.016-0.059l-0.001-0.067l-0.184-0.298l-0.039-0.1l-0.022-0.142l0.005-0.149l0.041-0.125l-0.215-0.765l-0.072-0.802l-0.098-0.242  l-0.011-0.347l-0.035-0.141l0.06-0.192l-0.017-0.579l-0.337-0.07l-0.165-0.001l-0.116,0.063l-0.102,0.104l-0.132,0.082l-0.141,0.06  l-0.123,0.035l-0.268-0.021l-0.165-0.161l-0.142-0.236L23.288,13.4l-0.076-0.108l-0.088-0.096l-0.086-0.133l-0.083-0.076  l-0.066-0.089l-0.036-0.176l-0.06-0.142h-0.122L22.41,12.7l-0.159-0.003l-0.094-0.089l-0.081-0.12l-0.251-0.201l-0.01-0.111  l0.021-0.13l-0.038-0.15l-0.065-0.056l-0.685-0.338l-0.337-0.27l-0.104-0.188l-0.013-0.272l0.049-0.075l0.271-0.168l0.016-0.043  l-0.001-0.05l0.017-0.043l0.957-0.169l0.213-0.132v-0.001h0.002V10.09l0.046-0.07l0.042-0.085l0.024-0.094l0.002-0.092l-0.026-0.084  L22.049,9.33l-0.078-0.076l-0.297-0.123L21.38,8.846l-0.127-0.179l-0.07-0.179l0.01-0.229l0.095-0.19l0.151-0.142l0.175-0.092  l0.324-0.064l0.271-0.184l0.189-0.061l-0.114-0.242l-0.146-0.199l-0.354-0.327l-0.871-1.045l-0.317-0.296l-0.101-0.069L20.422,5.33  l-0.061,0.09l-0.055,0.05l-0.063,0.016l-0.395-0.008l-0.122,0.034l-0.1,0.069l-0.304,0.31l-0.715,0.402l-0.275,0.278l-0.067,0.046  L18.149,6.63l-0.362,0.124l-0.217,0.12l-0.169,0.142l-0.258,0.331l-0.171,0.177l-0.217,0.122l-0.517,0.201l-0.246,0.151  l-0.051,0.058l-0.018,0.066l-0.188,0.3l-0.088,0.251l-0.026,0.05l-0.055,0.064l-0.345,0.195L15.16,8.994l-0.078-0.021l-0.145-0.064  L14.856,8.91l-0.088,0.04l-0.077,0.066L14.62,9.099l-0.132,0.23l-0.03,0.041l-0.042,0.032l-0.085,0.047l-0.04,0.033l-0.063,0.099  l-0.087,0.201l-0.085,0.082l-0.301,0.153l-0.094,0.079l-0.07,0.09l-0.145,0.302l-0.06,0.095l-0.072,0.079l-0.081,0.066l-0.082,0.053  l-0.113,0.045l-0.092,0.005l-0.094-0.025l-0.541-0.24l-0.07-0.016l-0.055,0.007l-0.126,0.041l-0.2,0.008l-0.068,0.016l-0.101,0.049  l-0.27,0.195l-0.091,0.043l-0.345,0.046l-0.051,0.006l-0.301-0.075l-0.343-0.155l-1.093-0.229L8.816,10.35l-0.463-0.005L8.06,10.273  l-0.145-0.005l-0.063-0.015L7.746,10.19l-0.143-0.038l-0.118-0.058L7.376,10.02L7.315,9.95l-0.01-0.07l0.017-0.057l0.021-0.056  l0.011-0.068L7.328,9.655L7.205,9.599l-0.05-0.036L7.131,9.507L7.089,9.364L7.068,9.312L7.019,9.26L6.972,9.23L6.925,9.197  L6.892,9.13l0.045-0.099L6.905,8.96L6.838,8.917L6.765,8.902L6.714,8.878l0.001-0.057l0.014-0.063L6.714,8.717L6.666,8.711  L6.618,8.729L6.581,8.755L6.569,8.767L6.028,8.588L5.894,8.631L5.86,8.53L5.806,8.198L5.77,8.126L5.727,8.062L5.6,7.78L5.559,7.716  L5.511,7.689L5.458,7.626l-0.043-0.07L5.399,7.509L5.37,7.475L5.183,7.347L5.166,7.324L5.154,7.293L5.136,7.267l-0.04-0.011  L5.038,7.258L5.011,7.253L4.879,7.156L4.86,7.109l0.043-0.081L4.795,6.933L4.731,6.797L4.575,6.154L4.514,6.01L4.406,5.932  l0.019-0.02l0.016-0.03l-0.12-0.004L4.21,5.856L4.116,5.802l-0.015-0.02l-0.42-0.304l-0.1-0.085l-0.31-0.145l-0.07-0.081  l-0.14-0.211l-0.08-0.057L2.854,4.938L2.303,5.39L2.279,5.466l0.026,0.219L2.293,5.79L2.262,5.877L2.09,6.222l-0.022,0.09  L2.057,6.421l0.011,0.095l0.018,0.086l-0.003,0.08L2.029,6.761v0.001L2.003,6.91l0.019,0.126L2.021,7.157L1.933,7.29L1.832,7.363  L1.563,7.484L1.451,7.512L1.319,7.501L0.961,7.324L0.838,7.31L0.556,7.384L0.438,7.397L0.321,7.383L0.24,7.385L0.162,7.413  L0.057,7.479L0,7.56l0.032,0.081l0.135,0.16L0.19,7.867l0.03,0.142l0.062,0.133L0.281,8.19L0.269,8.234l0.001,0.06l0.019,0.057  l0.063,0.132l0.003,0.06L0.32,8.663L0.325,8.72l0.134,0.104l0.23,0.122l0.2,0.141L0.93,9.25l-0.103,0.2L0.803,9.557L0.85,9.818  L0.801,9.896l-0.084,0.07L0.644,10.09v0.001l0.028,0.046l0.016,0.045l0.022,0.103l0.03,0.047l0.048,0.037l0.038,0.041l0.005,0.06  l-0.004,0.056l0.018,0.051l0.022,0.05l0.05,0.148l0.071,0.101l0.084,0.08l0.275,0.132l0.023,0.194l-0.14,0.479l-0.021,0.132  l0.01,0.084l0.025,0.078l0.025,0.12l-0.022,0.048l-0.045,0.045l-0.018,0.041l0.065,0.033l0.094,0.03l0.04,0.025l0.038,0.044  L1.46,12.55v0.138l-0.025,0.261l0.048,0.336l-0.005,0.112l-0.066,0.266v0.078l0.016,0.167l-0.003,0.061l-0.018,0.107l0.017,0.058  l0.047,0.033l0.076,0.035l0.26,0.048l0.17-0.099l0.065-0.014l0.081,0.03l0.072,0.063l0.063,0.089l0.04,0.104l0.004,0.104  l-0.116,0.168l-0.188,0.146l-0.146,0.165l0.022,0.314l-0.018,0.128l-0.032,0.129l-0.035,0.097l-0.038,0.051l-0.092,0.039  l-0.043,0.037l-0.007,0.057l0.042,0.124l-0.029,0.041l-0.1,0.049l-0.066,0.054l-0.05,0.083l-0.043,0.138l-0.044,0.1l-0.126,0.142  l-0.048,0.095v0.001l-0.044,0.084l-0.032,0.079L1.06,16.93l0.027,0.092l0.003,0.083l-0.044,0.07l-0.055,0.067L0.97,17.314  l0.09,0.144l0.182,0.028l0.335-0.039l0.063,0.02l0.186,0.09l0.056,0.039l0.03,0.061l0.019,0.075l0.031,0.08l0.057,0.074l0.04,0.014  l0.036-0.014l0.033-0.006l0.04,0.03l0.004,0.032l-0.021,0.104l-0.003,0.039l0.038,0.074l0.071,0.008l0.084-0.03L2.406,18.1  l0.142-0.017L2.69,18.15l0.129,0.112l0.19,0.232l0.012,0.061L2.968,18.64l-0.18,0.145l-0.043,0.058l-0.022,0.198l0.105,0.117  l0.116,0.088l0.021,0.111l-0.048,0.131l-0.033,0.16l-0.01,0.162L2.9,19.943v0.001l0.021,0.109l-0.068,0.193l0.031,0.106l0.07,0.04  l0.192,0.018l0.079,0.061l0.073,0.186l0.05,0.056l0.188-0.029l0.047,0.06l0.03,0.092l0.044,0.088l0.298,0.19l0.118,0.137L4.06,21.46  l-0.063,0.079L3.926,21.58l-0.063,0.056l-0.036,0.116l0.016,0.131l0.049,0.109l0.032,0.109l-0.032,0.126l-0.069,0.186v0.064  l0.041,0.113l0.03,0.043l0.038,0.017l0.038,0.013l0.038,0.026l0.019,0.043l0.027,0.099l0.024,0.031l0.047,0.011l0.103-0.032  l0.051-0.002l0.036,0.021l0.059,0.063l0.113,0.059l0.033,0.059L4.511,23.11l-0.058,0.072l-0.028,0.171l0.028,0.115l0.048,0.104  l0.025,0.145l-0.028,0.156L4.426,23.99l-0.182,0.224l-0.057,0.161l0.04,0.111l0.104,0.067l0.135,0.032l0.161-0.01l0.074,0.013  l0.065,0.058l0.048,0.056l0.054,0.038l0.061,0.021l0.066,0.002l0.088,0.048l0.076,0.103l0.125,0.23l0.056,0.14l-0.007,0.12  L5.23,25.637l-0.054,0.22l-0.005,0.135l-0.016,0.013L5.09,26.028l-0.022,0.017l-0.011,0.103l0.076,0.096l0.101,0.088L5.3,26.403  l0.005,0.091l0.033,0.053l0.044,0.042l0.042,0.063l0.023,0.082l0.01,0.063l0.02,0.06l0.059,0.066l0.14,0.066l0.151-0.013l0.29-0.114  l0.133,0.01l0.09,0.115l0.056,0.16l0.025,0.147l0.013,0.276l0.035,0.111l0.099,0.124l-0.126,0.081l0.029,0.076l0.097,0.077  l0.075,0.074l0.024,0.122l-0.012,0.294l0.024,0.135l0.161,0.209l0.066,0.129l-0.021,0.129l-0.063,0.101l-0.063,0.131l-0.03,0.133  l0.032,0.101v0.002L6.763,29.6l0.091,0.094l0.111,0.014l0.116-0.038l0.102-0.07v-0.002h0.003l0.093-0.026l0.172-0.085l0.135-0.003  L7.899,29.6l0.192,0.176l0.066,0.041l0.141,0.027l0.153,0.142l0.242,0.34l0.132,0.328l0.063,0.084l0.092,0.027l0.195-0.059  l0.06,0.011l0.084,0.058l0.106-0.007l0.101-0.051l0.125-0.107l0.053,0.003l0.053,0.018l0.054,0.004l0.167-0.057l0.329,0.016  l0.104-0.035l0.101-0.058l0.083-0.029l0.086,0.001l0.16,0.061l0.036,0.006l0.025,0.022l0.025,0.131l0.022,0.043l0.032,0.036  l0.042,0.035l0.104,0.045l0.111-0.005l0.222-0.048l0.097-0.037l0.089-0.062l0.092-0.046l0.113,0.012l0.086,0.061l0.038,0.086  l-0.01,0.099l-0.061,0.105l-0.082,0.073l-0.157,0.1l-0.072,0.104l-0.079,0.077l-0.108,0.013l-0.203-0.012l-0.261,0.139l-0.106,0.023  l-0.362-0.011l-0.106,0.036l-0.065,0.073l-0.042,0.102l-0.019,0.112v0.103l0.052,0.245l-0.016,0.087l-0.158-0.047h-0.023  l-0.024,0.006l0.044,0.128l0.06,0.12l0.02,0.027l0.007,0.026l-0.006,0.025l-0.021,0.026l-0.042,0.032l-0.026,0.04l-0.013,0.051  l0.002,0.059l0.066,0.184l0.332,0.529l0.286,0.256l0.124,0.144l0.038,0.186l-0.038,0.089l-0.065,0.078l-0.046,0.079l0.015,0.101  l0.071,0.049l0.202-0.001l0.077,0.064l-0.019,0.167l-0.113,0.19l-0.069,0.179l0.107,0.125l-0.041,0.076l-0.056,0.028l-0.065,0.014  l-0.132,0.044l-0.092-0.023l-0.053,0.005l-0.138,0.084l-0.077,0.07l-0.083,0.021l-0.153-0.067l-0.067,0.006l-0.054-0.022  l-0.109-0.071L9.87,35.333l-0.037,0.015l-0.071,0.117l-0.005,0.03l0.015,0.078L9.76,35.6l-0.031,0.016l-0.072,0.009l-0.034,0.011  L9.567,35.69l-0.025,0.073v0.083l0.015,0.086v0.001l0.048,0.162l-0.013,0.119l-0.045,0.115l-0.04,0.153L9.43,36.587l-0.141-0.05  l-0.153-0.081l-0.121,0.005L8.98,36.582l0.01,0.16l-0.025,0.153l-0.146,0.1l-0.146,0.016l-0.067,0.027l-0.051,0.071L8.54,37.184  l0.013,0.128l-0.018,0.071l-0.143,0.166l-0.04,0.102l0.076,0.087l0.043,0.023l0.048,0.037l0.038,0.046l0.018,0.051l0.016,0.066  L8.616,38l0.027,0.03l0.021,0.043l0.018,0.119l0.002,0.117L8.7,38.416l0.058,0.081l0.016,0.042l-0.002,0.066l-0.014,0.067  l-0.021,0.039l-0.031,0.007l-0.114-0.04L8.236,38.65l-0.161-0.039l-0.178-0.094l-0.201-0.059L7.675,38.63l0.043,0.254L7.71,39.069  l-0.023,0.05l-0.03,0.046l-0.033,0.04l-0.038,0.032l-0.272,0.062l-0.049,0.082l0.159,0.515l0.066,0.135l0.096,0.07l0.103-0.082  h0.116l0.106,0.066l0.08,0.124l0.028,0.142l-0.01,0.154L7.94,40.804l-0.025,0.058l-0.073,0.117l-0.01,0.057l0.023,0.072l0.039,0.054  l0.03,0.054v0.069l-0.053,0.071l-0.21,0.169l-0.076,0.082l-0.126,0.111L7.4,41.855l-0.043,0.159l-0.079,0.173H7.276l-0.043,0.045  l-0.05,0.033l-0.11,0.052l0.106,0.148l0.117,0.067l0.136,0.008l0.152-0.022l0.013,0.002l0.011,0.005l0.01,0.009l0.463,0.837  l0.068,0.076l0.079,0.066l0.068,0.074l0.038,0.104l0.022,0.125l0.035,0.109l0.052,0.102l0.07,0.101l0.079,0.078l0.243,0.174  l0.037,0.094L8.87,44.696l0.035,0.043l0.091-0.022l0.086-0.058l0.15-0.145l0.094-0.04l0.252-0.004l0.112-0.027l-0.021,0.189  l0.09,0.094l0.111,0.075l0.035,0.136l-0.063,0.094L9.6,45.181l-0.081,0.106l0.09,0.076l0.152,0.035l0.157-0.019l0.096-0.091  l0.026-0.015l0.026-0.007l0.026,0.007l0.025,0.015l0.016,0.008l0.017,0.013l0.173,0.219l0.061,0.105l0.041,0.116l0.016,0.125  l0.004,0.104l0.025,0.09l0.175,0.167l0.205,0.291l0.165,0.134l0.072,0.073l0.046,0.104l0.001,0.063l-0.031,0.119L11.1,47.068  l0.023,0.058l0.059,0.037l0.003,0.056l-0.036,0.08l-0.071,0.087l-0.139,0.14l-0.11,0.08l-0.083,0.019l-0.088-0.007l-0.113,0.01  l-0.104,0.059l-0.005,0.075l0.071,0.063l0.229,0.024l0.098,0.043l0.075,0.065l0.028,0.084l-0.033,0.104l-0.078,0.08l-0.086,0.069  l-0.063,0.074v0.002l0.111,0.245l0.302,0.035l0.61-0.067l0.552,0.17L12.765,49l0.146,0.146l0.502,0.289l0.238,0.191l0.339,0.205  l0.216,0.245l1.56,1.354l0.002,0.002l0.165,0.121l0.157,0.084l0.164,0.034l0.182-0.021l0.092-0.034l0.236-0.13l0.073,0.005  l0.294,0.1l0.109,0.06l0.067,0.076l0.057,0.094l0.088,0.111l0.138,0.104l0.029,0.046l0.01,0.068l-0.02,0.041l-0.028,0.033  l-0.046,0.114l-0.021,0.021l-0.002,0.031l0.035,0.082l0.023,0.035l0.154,0.148l0.024,0.031l0.02,0.035l0.092,0.127l0.033,0.034  l0.051,0.023l0.026,0.077l0.103,0.076l0.026,0.08l-0.008,0.084l-0.027,0.061l-0.031,0.053l-0.021,0.066l-0.009,0.085l0.005,0.049  l0.034,0.026l0.081,0.021l0.067,0.044l0.041,0.062l0.047,0.054l0.077,0.01l0.101,0.041l0.089,0.127l0.117,0.265l0.08,0.093  l0.181,0.087l0.051,0.107l0.024,0.108l0.186,0.33l0.035,0.049l0.094,0.063l0.04,0.035l0.028,0.056l0.027,0.106l0.017,0.045  l0.085,0.092l0.203,0.154l0.071,0.108l0.015,0.128l-0.03,0.139l-0.79,2.143l-0.031,2.488l1.702,0.002l0.055,0.033l0.019,0.076  l-0.019,2.889l0,0l0.009,0.185l0.549,0.078l0.057,0.021l0.055,0.033l0.085,0.092l0.067,0.117l0.046,0.131l0.043,0.264l0.022,0.057  l0.041,0.045l0.059,0.025l0.061,0.009l0.062-0.002l0.191-0.032l0.064,0.003l0.063,0.022l0.049,0.041l0.105,0.175l0.167,0.188  l0.2,0.184l0.034,0.051l0.026,0.061l0.011,0.065l-0.014,0.063l-0.039,0.051l-0.049,0.045l-0.04,0.051l-0.013,0.064l0.012,0.041  l0.064,0.139l0.104,0.118l0.029,0.06l0.014,0.012l0.096,0.297l0.01,0.078l0.045,0.114l0.024,0.038l0.035,0.035l0.071,0.057  l0.077,0.047l0.199,0.063v-0.003l-0.006-0.011l0.008,0.006l0.003-0.006l0.028-0.035v0.039l0.38,0.037l0.118-0.037l0.045-0.028  l0.047-0.043l0.039-0.051l0.016-0.06l-0.015-0.082L23.99,66.32l-0.027-0.071l0.016-0.104l0.084,0.021l0.22,0.121l0.362-0.003  l0.1,0.047l0.092-0.041l0.351,0.041l0.106-0.028l0.095-0.075l0.067-0.106l0.032-0.118l-0.004-0.066l-0.028-0.113l-0.004-0.063  l0.016-0.067l0.046-0.123l0.011-0.073l-0.03-0.269l-0.033-0.135l-0.042-0.107l-0.085-0.092l-0.107-0.08L25.14,64.72l-0.039-0.127  l0.018-0.032l0.034-0.047l0.021-0.043l-0.058-0.055l0.026-0.074l0.044-0.072l0.021-0.025l0.283-0.264l0.061-0.017l0.279,0.037  l0.089,0.002l0.102-0.104l-0.039-0.106l-0.131-0.082l-0.164-0.034l-0.14-0.06l0.038-0.123l0.146-0.093l0.188,0.027l0.088-0.05  l0.087,0.005l0.094,0.028l0.104,0.017l0.027-0.007l0.048-0.028l0.032-0.007l0.036,0.021l0.059,0.083l0.03,0.021l0.071-0.018  l0.054-0.04l0.043-0.013l0.043,0.069l-0.019,0.026l-0.009,0.02l-0.008,0.076l0.081-0.059l0.08-0.088l0.062-0.028l0.041,0.219  l0.048,0.091l0.077,0.051l0.107-0.021l-0.005,0.103l-0.03,0.063l-0.152,0.194l-0.099,0.175l-0.03,0.081l-0.066-0.094l-0.07-0.063  l-0.088-0.034l-0.113-0.013l-0.072-0.026l-0.214-0.109l-0.104-0.026l-0.096,0.015l-0.171,0.058l-0.111,0.007l-0.211-0.037  l-0.086,0.023l-0.055,0.099l0.164,0.042l0.138,0.071l0.092,0.118l0.033,0.192l0.071,0.067l0.342,0.199l0.121,0.041l0.089,0.009  l0.056,0.062l0.045,0.075l0.094,0.06l0.087-0.013l0.075-0.071l0.055-0.1l0.029-0.102l0.063,0.041l0.002,0.037l-0.021,0.039  l-0.008,0.045l-0.003,0.091l0.003,0.032l0.022,0.033l0.072,0.051l0.016,0.019l-0.008,0.247l0.047,0.051l0.137,0.012l0.106-0.022  l0.194-0.082l0.108-0.019l0.042,0.014l0.075,0.055l0.058,0.014l0.062-0.006l0.113-0.029l0.056-0.006l0.111,0.008l0.049,0.014  l0.052,0.021l0.055,0.031l0.019,0.026l0.015,0.03l0.037,0.056l0.039,0.103l0.002,0.271l0.013,0.097l0.147,0.213l0.165,0.037  l0.189-0.08l1.626-1.035l0.188-0.065l0.193-0.03l0.185,0.021l0.18,0.07l0.076,0.053l0.032,0.063l0.026,0.098l0.068,0.121  l0.083,0.108l0.072,0.06l-0.031,0.155l0.119,0.337l-0.058,0.201l0.072,0.034l0.03,0.043l-0.021,0.034l-0.081,0.01l0.02,0.063  l0.005,0.108l0.016,0.073l0.018,0.027l0.202,0.205l0.213,0.131l0.097,0.086l0.126,0.182l0.235,0.43l0.138,0.2l0.141,0.156  l0.074,0.112l0.033,0.116l0.048,0.063l0.306,0.122l0.17,0.17l0.081,0.116l0.036,0.1l0.045,0.078l0.271,0.225l0.148,0.221  l0.029,0.065l0.004-0.177l0.078,0.038l0.102,0.139l0.067,0.122l0.04,0.16l0.027,0.234l0.001,0.229l-0.036,0.146l0.063,0.113  l0.033,0.035l0.049,0.018l-0.013,0.041l-0.022,0.24l-0.079-0.085l-0.048,0.043l-0.031,0.099l-0.038,0.082l-0.047,0.072l-0.012,0.07  l0.007,0.143l0.047,0.164l0.114,0.102l0.145,0.019l0.137-0.082l0.094-0.017l0.404-0.023l0.125,0.021l0.018,0.032l0.012,0.049  l0.006,0.1l0.017,0.026l0.045-0.015l0.047-0.024l0.032-0.009l0.064,0.056l0.033,0.06l0.045,0.172l0.096-0.023l0.05,0.085  l0.013,0.136l-0.018,0.129l-0.034,0.062l-0.106,0.095l-0.037,0.043l-0.007,0.064l0.024,0.05l0.007,0.041l-0.057,0.049l-0.05-0.099  l-0.085-0.105l-0.102-0.086l-0.102-0.035l-0.107,0.064l-0.019,0.144l0.03,0.163l0.041,0.11l0.245,0.309l0.04,0.116l0.042,0.063  l0.104,0.027l0.21,0.012l0.218,0.051l0.168,0.104l0.133,0.157l0.116,0.215l0.065,0.254l0.005,0.749l0.043,0.183l0.317,0.78  l0.038,0.062l0.17,0.18l0.183,0.282l0.063,0.077l0.182,0.162l0.106,0.175l0.008,0.155l-0.114,0.314l0.005,0.152l0.019,0.084  l0.049,0.059l0.363,0.35l0.099,0.072l0.245,0.068l0.127,0.057l0.055,0.098l0.02,0.14l0.05,0.112l0.068,0.088l0.232,0.244  l0.107,0.082l0.145,0.045l0.027,0.027l0.017,0.045l0.007,0.057l0.025,0.035l0.061,0.018l0.569,0.048l0.103-0.011l0.306-0.069  l0.257,0.005l0.126,0.032l0.099,0.062l0.083,0.026l0.358-0.045l0.247,0.033l0.215,0.089l0.188,0.128l0.613,0.565l0.192,0.1  l0.924,0.202l0.189,0.081l0.17,0.135l0.391,0.398l0.035,0.062l0.081,0.188l0.042,0.07l0.079,0.064l0.21,0.079l0.082,0.071  l0.047,0.136l-0.065,0.056l-0.111,0.014l-0.099-0.002l-0.106,0.01l-0.087,0.037l-0.048,0.074l0.007,0.119l0.105,0.111l0.679,0.3  l0.185,0.125l0.417,0.375l0.238,0.069l0.106,0.063l0.044,0.126l0.048,0.059l0.31,0.076l0.065,0.08l0.054,0.092l0.07,0.078  l0.111,0.032l0.112,0.009l1.762,0.599l0.165,0.104l0.089,0.107l0.042,0.113l0.011,0.274l0.03,0.114l0.075,0.09L49.6,85.3l0.39,0.229  l0.271,0.233l0.064,0.022l0.12-0.065l0.125,0.013l0.231,0.072l0.114-0.004l0.21-0.061l0.237-0.032l0.341-0.159l0.106-0.021  l0.056,0.002l0.044,0.021l0.099,0.08l0.056,0.016l0.088,0.017l0.357,0.104l0.107,0.012l0.396-0.027l0.098-0.029l0.104-0.016  l0.11,0.021l0.152,0.123l0.099,0.176l0.077,0.186l0.093,0.148l0.188,0.09l0.473-0.018l0.23,0.045l0.151,0.143l0.063,0.167  l0.088,0.132l0.227,0.035l0.445-0.04l0.062,0.011l0.089,0.053l0.064,0.013l0.054-0.015l0.038-0.033l0.033-0.035l0.035-0.03  l0.563-0.328l0.498-0.403l0.059-0.035l0.338-0.303l0.078-0.035l0.227-0.067l0.102-0.013l0.127-0.028l0.049-0.076l0.029-0.104  l0.062-0.108l0.196-0.094l0.237,0.032l0.418,0.145l0.231,0.014l0.217-0.045l0.195-0.099l0.17-0.15l0.072-0.116l0.061-0.164  l0.033-0.172l-0.021-0.142l-0.037,0.037l-0.031,0.019l-0.075,0.022l0.28-0.312l0.057-0.043l0.066-0.035l0.172-0.162l0.101-0.043  h0.054l0.16,0.037h0.194l0.046-0.012l0.074-0.055l0.06-0.012l0.173,0.005l0.055-0.005l0.216-0.053l0.231-0.026l0.055-0.021  l0.097-0.08l0.026-0.02l0.002-0.024l0.125-0.104l0.349-0.21l0.089-0.076l0.045-0.028l0.04-0.01l0.028-0.019l0.011-0.062l0.017-0.028  l0.088-0.086l0.041-0.026l0.137-0.028l0.337-0.016l0.11-0.053l0.119-0.082l0.164-0.041l0.321-0.02l0.16,0.023l0.272,0.107  l0.151,0.03l0.324,0.016l0.155,0.033l0.125,0.069l0.035-0.043l0.115,0.037l0.539,0.006l0.049,0.023l0.039,0.057l0.049,0.058  l0.078,0.024l0.141-0.002l0.064-0.021l0.061-0.061l0.033,0.131l0.084,0.121l0.125,0.084l0.15,0.021v0.043l-0.05,0.027l-0.092,0.099  l-0.023,0.02l-0.05,0.021l-0.002,0.044l0.035,0.03l0.066-0.016l-0.002,0.059l0.014,0.047l0.029,0.02l0.101-0.049l0.036,0.024  l0.027,0.037l0.026,0.021l0.024,0.012l0.022,0.027l0.03,0.028l0.048,0.011l0.053-0.01l0.159-0.068l-0.031,0.047l-0.021,0.058  l0.006,0.054l0.046,0.04l-0.063,0.028l-0.054,0.033l-0.058,0.021l-0.074-0.005l0.051,0.055l0.16,0.106l-0.006,0.094l0.063,0.091  l0.177,0.153l0.071,0.103l0.334,1.342l0.019,0.269l-0.087,0.718l0.002,0.053l0.02,0.133l0.014,0.051l0.025,0.043l0.1,0.096  l0.057,0.104l0.037,0.129l0.029,0.259l0.039,0.037l-0.027,0.152l0.342,0.377l0.071,0.183l-0.058,0.116l-0.16,0.175l-0.032,0.118  l0.011,0.068l0.051,0.111l0.021,0.096l0.07,0.207l0.013,0.067l0.01,0.022l0.021,0.007l0.066-0.011l0.021,0.004l0.117,0.138  l0.008,0.022l0.051,0.045l0.044,0.109l0.063,0.232l0.127,0.291l0.028,0.279l0.037,0.09l0.078,0.041l0.69,0.045l-0.037,0.035  l0.353,0.111l0.129,0.012l0.054-0.009l0.103-0.026l0.062-0.006l0.061,0.013l0.105,0.055l0.063,0.013l0.288-0.066l0.117-0.014  l0.127,0.006l0.107,0.027l0.084,0.07l0.051,0.132l0.01,0.045l-0.004,0.021L71.305,91.6l-0.021,0.064l-0.02,0.253h0.08l0.114-0.071  l0.176-0.142l0.21-0.108l0.215-0.055l0.197,0.045l0.159,0.195l0.155,0.328l0.113,0.151l0.141,0.065l0.171,0.025l0.163,0.054  l0.17,0.034l0.189-0.031L73.7,92.28l0.03-0.013l0.019,0.039l0.047,0.008l0.054-0.019l0.041-0.028l0.06-0.058h0.026l0.018,0.022  l0.036,0.015l0.079-0.021l0.119-0.1l0.067-0.037l0.167-0.031l0.151-0.01l-0.037,0.092l0.098,0.045l0.278,0.02l0.322-0.053  l0.94,0.173h0.443l0.059,0.019l0.028,0.047l0.02,0.058l0.031,0.054l0.049,0.021l0.182-0.002l0.201,0.092l0.127,0.152l0.24,0.381  l0.066,0.059l0.087,0.036l0.104,0.021l0.117,0.006l0.049-0.013l0.049-0.021l0.045-0.01l0.037,0.023l0.037,0.036l0.045,0.009  l0.108-0.025l0.294-0.138l0.436-0.067l0.74-0.252l0.234-0.013l0.225,0.079l0.309,0.301l0.213,0.09l0.208,0.006l0.914-0.094  L82,93.218l0.035,0.106l0.02,0.029l0.205,0.18l0.04-0.01l0.026-0.037l0.029-0.027l0.427-0.111l0.223-0.014l0.201,0.052l0.022,0.003  l0.063-0.009l0.02,0.006l0.006,0.022l-0.01,0.068l0.004,0.021l0.059,0.075l0.041,0.028l0.177,0.025l0.058,0.02l0.104,0.068  l0.032-0.029l0.031-0.109l0.004-0.039l-0.016-0.028v-0.032l0.049-0.053l0.029-0.012l0.145-0.027l0.188-0.009l0.094,0.015  l0.076,0.033l-0.021,0.021l-0.049,0.09l0.112,0.076l0.263,0.043l0.104,0.06l0.306,0.272l0.058,0.019l0.082-0.002l-0.029-0.079  l-0.112-0.189v-0.012l0.005-0.021l-0.004-0.029l-0.019-0.035l-0.022-0.015h-0.046l-0.056-0.028l-0.036-0.003l-0.026-0.017  l-0.021-0.116l-0.017-0.034l0.002-0.039l0.041-0.062l0.084-0.101l0.049-0.076l0.089-0.049l0.354-0.108l0.093-0.011l0.092,0.014  l0.08,0.046l0.188,0.187l0.018,0.051l0.002,0.319l0.016,0.077l0.126,0.18l-0.08,0.073l0.086,0.048l0.488,0.061l0.721,0.17  l0.849,0.141l0.867,0.252l0.021,0.029l0.03,0.135l0.02,0.029l0.195,0.072l1.031,0.238l-0.07-0.063l-0.073-0.053L90.45,94.9  l0.073-0.039l0.041-0.037l0.006-0.022v-0.03l0.023-0.061l0.081-0.105l0.029-0.055l-0.044-0.049l-0.051-0.027l-0.123-0.039  l0.113-0.088l0.084,0.004l0.084,0.032l0.111,0.013l-0.027-0.025l-0.054-0.061l-0.028-0.027l0.016-0.034l0.009-0.093l0.015-0.031  l0.053-0.033l0.021,0.018l0.018,0.035l0.092,0.065l0.011,0.095l0.034,0.084l0.16-0.477l0.031-0.48l0.037-0.568l0.029-0.487  l0.021-0.334l0.019-0.083l0.03-0.055l0.074-0.075l0.035-0.045l0.014-0.197l-0.057-0.226l-0.027-0.211l0.111-0.149l0.109-0.026  l0.1,0.004l0.09-0.021l0.078-0.098l0.029-0.101l0.055-0.397l0.064-0.478l0.049-0.358l0.041-0.308l0.048-0.351l0.046-0.178  l0.073-0.153l0.126-0.097l0.625-0.179l0.186-0.122l0.098-0.049l0.105-0.033l0.215-0.035l0.047-0.059l0.019-0.143l0.089-0.141  l0.194,0.026l0.229,0.081l0.194,0.025l0.112-0.059l-0.004-0.082l-0.051-0.105l-0.029-0.131l0.037-0.071l0.162-0.159l0.056-0.1  l-0.005-0.037l-0.021-0.032l-0.016-0.037l0.01-0.052l0.034-0.043l0.044-0.028l0.102-0.04l0.041-0.023l0.069-0.049l0.041-0.02  l0.05-0.005l0.108,0.005l0.055-0.014l0.028-0.028l0.043-0.074l0.041-0.032l0.05-0.014l0.866-0.092l0.105-0.037l0.043-0.033  l0.043-0.043l0.041-0.027l0.057,0.012l0.061,0.029l0.043,0.004l0.159-0.037l0.044-0.019l0.04-0.021l0.035-0.027l0.054-0.1  l0.039-0.053l0.057-0.016l0.354,0.01l0.405,0.01l0.469,0.012l0.202,0.031l0.204,0.006l0.149-0.033l0.051,0.005l0.045,0.021  l0.037,0.027l0.041,0.02l0.051,0.002l0.115-0.111l0.057-0.23l0.042-0.839l0.038-0.092l0.084-0.044l0.211-0.034l0.077-0.069  l0.017-0.105l-0.042-0.094l-0.065-0.094l-0.045-0.107l-0.027-0.652l0.008-0.068l0.021-0.06l0.055-0.077l0.02-0.06l0.057-0.093  l0.103-0.045h0.113L100,83.395L99.824,83.003z"/></svg>