<svg xmlns="http://www.w3.org/2000/svg" xmlns:xlink="http://www.w3.org/1999/xlink" version="1.1" x="0px" y="0px" viewBox="0 0 100 100" fill="#e0e0e0" enable-background="new 0 0 100 100" xml:space="preserve"><path d="M91.047,77.604l0.191,0.039l0.16,0.141l0.162,0.17l0.182,0.13l-0.021,0.058h-0.012l-0.035,0.023l0.199,0.068l0.186-0.125  l0.154-0.174l0.115-0.09l0.248,0.037l0.094,0.071l-0.072,0.056l-0.236-0.013v0.087l0.076,0.02l0.051,0.021l0.076,0.041l0.119-0.071  l0.125-0.004l0.109,0.057l0.064,0.1l0.207-0.126l0.186,0.083l0.299,0.361l-0.162,0.06l-0.033,0.108l0.051,0.076l0.109-0.043  l0.103-0.015l0.127,0.062l0.024,0.01l0.006-1.014l-0.032-0.148l-0.107-0.065l-2.711-0.003L91.047,77.604L91.047,77.604z   M99.348,89.693l-0.242,0.004v-0.053l0.004-0.01l-0.391-0.121l-0.148-0.093l-0.139-0.108l-0.068-0.067l-0.047-0.074l-0.09-0.226  l-0.018-0.152l-0.186-0.576l-0.029-0.021l-0.057-0.117l-0.199-0.229l-0.127-0.271l-0.023-0.08l0.025-0.128l0.076-0.1l0.098-0.088  l0.074-0.099l0.027-0.123l-0.021-0.129l-0.049-0.117l-0.068-0.098l-0.391-0.357l-0.326-0.368l-0.205-0.34l-0.096-0.08l-0.121-0.045  l-0.125-0.006l-0.373,0.063l-0.119,0.006l-0.117-0.018l-0.117-0.051l-0.08-0.087l-0.043-0.11l-0.084-0.512l-0.09-0.254l-0.129-0.229  l-0.168-0.181l-0.105-0.065l-0.11-0.039l-1.068-0.152l-0.016-0.355v-0.004l0.022-4.045l-0.524-0.021l-0.259-0.065l-0.461-0.251  l-0.283-0.013v-0.07l0.072-0.054l0.06-0.081l0.004-0.072l-0.101-0.031l-0.114,0.023l-0.16,0.109l-0.365,0.055l-0.268,0.074  l-0.15,0.104l0.123,0.104l-0.086,0.051h-0.092l-0.086-0.044l-0.082-0.08l0.045-0.075l0.053-0.116l0.041-0.047l-0.121-0.06  l-0.241,0.005L90.771,78.8l-0.095-0.092l0.091-0.155L90.695,78.4l-0.187-0.06l-0.254,0.068l-0.239,0.146l-0.146,0.174l0.275,0.069  l0.344,0.169l0.037,0.166l-0.117,0.094l-0.402,0.141l-0.104-0.061l-0.201-0.002l-0.107-0.025L89.5,79.212l-0.1-0.16l-0.082-0.083  l0.129-0.128l0.17-0.131l0.178-0.101l0.143-0.047v-0.074l-0.283-0.084l-0.139,0.006l-0.137,0.078l-0.07-0.078l-0.065-0.086  l0.071-0.075l0.086-0.114l0.058-0.053v-0.087l-0.252,0.024l-0.64,0.17l-0.082-0.107l-0.104,0.006l-0.03-0.006v-0.087l0.121-0.062  l0.18-0.138l0.11-0.034l-0.084-0.201l-0.354-0.139l-0.111-0.146l0.467-0.018l0.225-0.066l0.136-0.152l0.127,0.052l0.06-0.084  l0.051-0.126l0.106-0.078v0.074l-0.067,0.17l0.053,0.131l0.096,0.02l0.066-0.157l-0.041-0.181l0.104-0.103l0.142,0.009l0.07,0.154  l0.069,0.091l0.178,0.013l0.38-0.06l-0.062,0.111l-0.017,0.104l0.021,0.096l0.055,0.08l0.016-0.047l0.06-4.57l1.539-4.176  l0.06-0.268l-0.027-0.25l-0.141-0.212l-0.396-0.301l-0.164-0.179l-0.033-0.09l-0.053-0.207l-0.057-0.105l-0.076-0.072l-0.184-0.12  L90.9,66.664l-0.361-0.645l-0.047-0.211l-0.1-0.211l-0.354-0.17l-0.154-0.181l-0.229-0.515l-0.174-0.248l-0.194-0.08l-0.152-0.02  l-0.09-0.103l-0.08-0.12l-0.131-0.084l-0.158-0.044l-0.065-0.052l-0.01-0.097l0.018-0.165l0.041-0.129l0.063-0.103l0.051-0.117  l0.019-0.165l-0.054-0.155l-0.198-0.147l-0.054-0.151l-0.098-0.047l-0.066-0.067l-0.178-0.248l-0.039-0.065l-0.047-0.063  l-0.299-0.287l-0.047-0.068l-0.068-0.161l0.002-0.06l0.041-0.043l0.09-0.225l0.056-0.064l0.039-0.078l-0.021-0.135l-0.057-0.091  l-0.27-0.202l-0.17-0.22l-0.111-0.183l-0.129-0.147l-0.215-0.114l-0.572-0.195l-0.143-0.01l-0.463,0.254L85.542,60.3l-0.354,0.038  l-0.319-0.068l-0.306-0.162l-0.323-0.233l-0.003-0.004l-3.038-2.642l-0.423-0.479l-0.659-0.398l-0.466-0.375l-0.979-0.563  l-0.285-0.285l-1.002-0.479l-1.076-0.332l-1.188,0.135l-0.588-0.071l-0.218-0.478v-0.004l0.123-0.146l0.168-0.137l0.152-0.154  l0.064-0.204l-0.055-0.165l-0.146-0.13l-0.189-0.081l-0.445-0.049l-0.139-0.121l0.008-0.146l0.205-0.114l0.22-0.019l0.172,0.012  l0.162-0.033l0.215-0.158l0.271-0.27l0.141-0.172l0.07-0.154l-0.006-0.108l-0.115-0.073l-0.047-0.111l0.008-0.096l0.061-0.232  l-0.002-0.123l-0.09-0.202l-0.141-0.144l-0.322-0.259l-0.398-0.566l-0.342-0.326l-0.049-0.176l-0.006-0.202l-0.031-0.244  l-0.08-0.227l-0.117-0.207l-0.34-0.425l-0.031-0.024l-0.029-0.016l-0.051-0.028l-0.051-0.013l-0.051,0.013l-0.053,0.028  l-0.187,0.177l-0.307,0.036l-0.297-0.068l-0.175-0.147l0.158-0.208l0.478-0.291l0.123-0.183l-0.068-0.266L72.536,46.8l-0.177-0.183  l0.041-0.369L72.182,46.3l-0.488,0.009l-0.184,0.078l-0.295,0.282l-0.166,0.111l-0.178,0.043l-0.068-0.083l0.004-0.432l-0.072-0.183  l-0.473-0.34l-0.156-0.152l-0.135-0.195l-0.102-0.198l-0.068-0.213l-0.045-0.245l-0.074-0.201l-0.133-0.146l-0.154-0.13  l-0.133-0.148l-0.902-1.63l-0.02-0.019l-0.02-0.01l-0.025-0.003l-0.299,0.044l-0.264-0.017l-0.229-0.13l-0.207-0.29l0.218-0.101  l0.096-0.064l0.084-0.087h0.004l0.154-0.338l0.084-0.31l0.112-0.269l0.246-0.218l0.147-0.158l0.408-0.331l0.104-0.139v-0.135  l-0.06-0.104l-0.076-0.105l-0.047-0.14l0.021-0.111l0.144-0.229l0.051-0.111l0.135-0.582l0.02-0.301l-0.057-0.275l-0.154-0.243  l-0.207-0.129h-0.227l-0.201,0.16l-0.186-0.137l-0.131-0.263l-0.312-1.003l0.097-0.161l0.53-0.118l0.074-0.064l0.063-0.078  l0.06-0.089l0.047-0.097l0.017-0.36l-0.084-0.495l0.041-0.335l0.393,0.115l0.348,0.183l0.313,0.074l0.693,0.056l0.221,0.078  l0.063-0.013L70.58,35l0.027-0.13l0.004-0.13l-0.031-0.082L70.469,34.5l-0.033-0.207l-0.004-0.229l-0.033-0.231l-0.041-0.084  l-0.053-0.059l-0.049-0.075l-0.031-0.13l-0.033-0.098l-0.075-0.09l-0.093-0.072l-0.084-0.046l-0.147-0.169l0.078-0.199l0.276-0.322  l0.035-0.139l-0.024-0.249l0.03-0.146l0.101-0.14l0.129-0.052l0.285-0.031l0.282-0.195l0.05-0.297l-0.021-0.313l0.064-0.236  l0.236-0.01l0.301,0.158l0.273,0.096l0.149-0.205l0.078-0.3l0.086-0.223l0.024-0.233l-0.094-0.316v-0.002l-0.027-0.167v-0.162  l0.05-0.143l0.108-0.104l0.064-0.021l0.143-0.016l0.062-0.031l0.021-0.055l-0.029-0.152l0.011-0.06l0.139-0.229l0.072-0.028  l0.147,0.049l0.213,0.139l0.105,0.043l0.131-0.011l0.301,0.132l0.16-0.043l0.15-0.137l0.268-0.164l0.104-0.009l0.18,0.046  l0.257-0.086l0.127-0.025l0.108-0.056l0.08-0.148l-0.211-0.244l0.137-0.349l0.22-0.371l0.039-0.324l-0.152-0.127l-0.396,0.003  l-0.139-0.096l-0.027-0.195l0.091-0.155l0.127-0.151l0.073-0.174l-0.073-0.362l-0.242-0.28l-0.558-0.499l-0.647-1.031l-0.129-0.356  l-0.004-0.114l0.024-0.1l0.052-0.08l0.082-0.062l0.041-0.05l0.012-0.05L73.381,23l-0.037-0.052l-0.115-0.235l-0.086-0.249  l0.047-0.012h0.045l0.312,0.092l0.027-0.169l-0.099-0.477v-0.201l0.035-0.218l0.082-0.199l0.127-0.142l0.207-0.072l0.707,0.021  l0.207-0.046l0.508-0.27l0.396,0.022l0.211-0.025l0.154-0.149l0.141-0.204l0.305-0.195l0.162-0.143l0.117-0.204l0.02-0.192  l-0.074-0.167l-0.168-0.12l-0.221-0.022l-0.18,0.089l-0.174,0.121l-0.188,0.072l-0.433,0.093l-0.215,0.01L75,19.67l-0.082-0.068  l-0.063-0.072l-0.045-0.084l-0.05-0.254l-0.049-0.042l-0.071-0.013l-0.313-0.118l-0.166-0.002L74,19.075l-0.195,0.112l-0.203,0.068  l-0.643-0.031l-0.326,0.111l-0.104-0.008l-0.104-0.034l-0.102-0.004l-0.244,0.208l-0.195,0.099l-0.207,0.013l-0.163-0.112  l-0.115-0.021l-0.383,0.114l-0.179-0.052l-0.125-0.165l-0.256-0.638l-0.472-0.663l-0.301-0.275l-0.272-0.053l-0.132-0.08  l-0.372-0.344l-0.613-0.227l-0.265,0.006l-0.334,0.165l-0.18,0.052H67.51v0.003l-0.197,0.135l-0.227,0.075l-0.217-0.027  l-0.176-0.183l-0.004-0.003v-0.003l-0.064-0.198l0.059-0.258l0.125-0.254l0.123-0.197l0.043-0.251l-0.129-0.251l-0.313-0.407  l-0.05-0.263l0.025-0.573l-0.051-0.238l-0.146-0.145l-0.188-0.149l-0.057-0.149l0.244-0.157l-0.191-0.242l-0.066-0.216l-0.025-0.54  l-0.049-0.288l-0.108-0.312L65.693,12l-0.258-0.018l-0.566,0.223l-0.295,0.024l-0.273-0.13l-0.113-0.129l-0.037-0.115l-0.02-0.124  l-0.045-0.162l-0.082-0.12l-0.086-0.083l-0.066-0.103l-0.008-0.177l-0.131-0.139l-0.195-0.171L63.37,10.59l0.021-0.201l0.043-0.032  l0.127-0.046l0.031-0.024l0.01-0.264l0.105-0.427l0.199-0.455l0.014-0.233l-0.107-0.272l-0.246-0.45l-0.147-0.201l-0.17-0.093  L63.117,7.89L63,7.85l-0.104-0.075l-0.095-0.108l-0.127-0.112l-0.146-0.024L62.216,7.55l-0.264-0.063l-0.201-0.133l-0.078-0.216  l0.109-0.313l0.354-0.437l0.141-0.226l0.056-0.303l-0.049-0.282l-0.095-0.205l-0.055-0.223l0.055-0.334l0.111-0.14l0.018-0.136  l-0.065-0.115L62.034,4.31L61.92,4.185l-0.072-0.041L61.75,4.148L61.551,4.21l-0.094-0.019L61.41,4.129l-0.051-0.192l-0.037-0.083  l-0.074-0.053l-0.076-0.025l-0.074-0.031l-0.059-0.083l-0.08-0.223V3.315l0.137-0.362l-0.125-0.22L60.771,2.63L59.71,2.482  l-0.188,0.009l-0.32,0.151l-0.395,0.285l-0.363,0.344l-0.244,0.31l-0.25,0.195l-0.266,0.146l-0.855,0.282l-0.082,0.142l-0.037,0.199  l-0.154,0.27h-0.004l-0.092,0.21l-0.098,0.093l-0.123,0.01l-0.42-0.108l-0.092-0.075l-0.064-0.129l-0.408-0.917l-0.074-0.26  l0.006-0.27l0.086-0.257l0.17-0.22l0.127-0.074l0.119-0.021l0.101-0.047l0.082-0.145l0.014-0.124L55.869,2.32L55.82,2.044  l-0.088-0.292l-0.117-0.216l-0.164-0.17l-0.229-0.149L54.25,0.815l-0.529-0.09l-0.455,0.072l-0.369,0.316L52.596,1.55l-0.307,0.356  l-0.543,0.096l-0.182,0.186l-0.127,0.034l-0.074-0.05L51.146,1.96l-0.101-0.067l-0.239-0.062l-0.266-0.025l-1.035,0.071  l-0.241-0.031L49.007,1.74l-0.183-0.139L48.74,1.558l-0.129-0.021l-0.124,0.021l-0.251,0.096l-0.13,0.016l-0.164-0.065l-0.468-0.388  l-0.412-0.205L46.661,0.7L46.54,0.675l-0.188,0.028l-0.087,0.04l-0.096,0.096l-0.09,0.019l-0.085-0.012l-0.066-0.025l-1.329-0.715  l-0.174-0.05l-0.313,0.028l-0.405,0.108l-0.388,0.167l-0.257,0.192L42.631,0.7l-0.406-0.059l-0.837-0.279L41.302,0.3l-0.044-0.22  l-0.087-0.065L41.051,0l-0.09,0.009L40.462,0.21l-0.064,0.046l-0.065,0.103l-0.019,0.09l-0.013,0.086l-0.04,0.099l-1.264,1.847  l-0.124,0.341L38.836,2.89l-0.161,0.075L37.808,3.11l-0.58,0.191l-0.452,0.053l0.065,0.149l0.078,0.127l0.055,0.142l0.007,0.183  l-0.319,0.242l-0.645,0.616h-0.003l-1.041,1.115l-2.02,2.156l-1.36,1.453l-0.266,0.226l-0.276,0.13L27.92,10.56l-0.657,0.107  l-0.297,0.14l-0.202,0.276v0.002l-0.892,1.738l-0.083,0.335l-0.326,3.125l0.003,0.207l0.038,0.217l0.26,0.604v0.003l0.78,1.695  l0.112,0.396l0.046,0.409l0.044,1.701l-0.057,0.387l-0.16,0.375l-0.815,1.227v0.003h-0.003l-0.093,0.373l-0.09,1.202l-0.421,1.52  l-0.1,0.75l0.069,2.312l0.083,2.139l-0.021,0.321l-0.088,0.303l-1.734,3.348l-0.361,0.802l-0.23,0.322l-0.294,0.192l-2.48,0.666  l-1.48,0.896l-1.116,0.672l-1.115,0.672l-1.117,0.673l-1.115,0.672l-1.119,0.673l-1.114,0.671l-1.115,0.67l-1.116,0.669  l-1.117,0.669l-1.115,0.669L6.19,46.03l-1.114,0.669L3.96,47.368l-1.119,0.667l-1.114,0.669L0.609,49.37l0.793,2.901L1.848,53.9  l1.617,5.944L2.684,60.09l-0.013,0.003l-0.006,0.009l0.006,0.018l0.013,0.02l0.493,1.713l0.073,0.176l0.103,0.059l1.915-0.529  l0.207,0.121l0.148,0.366l0.211,0.801L5.577,63.22l-1.215,1.035v0.09l0.115-0.036l1.997,0.34l1.995,0.345l1.998,0.342l1.995,0.339  l0.808,0.141h0.007l3.441,0.662l0.542,0.211l0.564,0.328l1.037,0.62l0.886,0.529l0.886,0.526l0.886,0.529l0.887,0.525l1.771,1.055  l0.883,0.529l0.889,0.525l0.884,0.526l0.886,0.527l0.886,0.522l0.886,0.525l0.886,0.525l0.883,0.524l0.89,0.526l0.883,0.523  l0.9,0.532l0.67,0.578l0.854,0.738l0.852,0.737l0.853,0.735l0.854,0.737l0.958,0.831l0.954,0.827l0.956,0.83l0.957,0.826  l0.004,0.002L42.91,84.3l0.892,0.726l0.89,0.722l0.89,0.726l0.888,0.721l1.156,0.939l1.158,0.936l1.155,0.938l1.161,0.937  l1.153,0.937l1.156,0.933l1.157,0.936l1.154,0.934l0.961,0.776l0.963,0.774l0.963,0.772l0.961,0.775l0.777,0.622l0.064,0.023  l0.066,0.029l0.061,0.023l0.068,0.024l0.924,0.084l0.805,0.07l0.803,0.075l0.803,0.069l0.806,0.075l1.034,0.094l1.033,0.092  l1.037,0.095l1.033,0.092l1.035,0.094l1.035,0.097l1.033,0.093l1.035,0.094l0.768,0.067l0.768,0.068l0.771,0.07l0.77,0.068  l1.063,0.1l0.443-0.093l0.438-0.093l0.442-0.094l0.441-0.097l1.811-2.021l0.632-1.062l0.646-0.707l0.154-0.228l0.295-0.782  l0.758-1.249l0.197-0.434l0.025-0.115l0.037-0.351l0.053-0.167l0.369-0.687l0.856-2.188l0.347-0.492l0.531-0.355l1.625-0.673  l0.579-0.07h2.611l0.575,0.111l2.189,1.1l0.008-0.272l-0.076-0.104l0.007-0.124l0.043-0.139l0.026-0.152l-0.014-0.141l-0.127-0.379  l0.17,0.219l0.068,0.322l0.037,0.351l0.072,0.306l0.694-0.381l0.39-0.102l0.434,0.006l0.467,0.087l0.439,0.151l0.561,0.354  l0.35,0.111l0.367,0.267L97.9,89.9l1.099,0.111l0.267-0.068l0.123-0.137L99.348,89.693z M89.109,78.969h-0.135l0.018,0.053  l0.025,0.127l0.018,0.053l-0.188-0.034l-0.195-0.063l-0.375-0.215h0.182l0.266-0.08l0.172-0.008l0.213,0.088V78.969L89.109,78.969z"/></svg>