<svg xmlns="http://www.w3.org/2000/svg" xmlns:xlink="http://www.w3.org/1999/xlink" version="1.1" x="0px" y="0px" viewBox="0 0 100 100" fill="#999999" enable-background="new 0 0 100 100" xml:space="preserve"><path d="M87.8,21.7L87.2,20l-0.8-1.2L84,18.5l-1,0.3l-1.1,0.6v-1.1l1.7-1.1l0.8-0.9l-0.1-1.6L82,12.1l-1.8-3L79.4,6L78,4h-1.6  l-2.2-0.7h-1.5l-3.4,1.3l-1.9,0.3l-1-0.2l-0.9,0.2l-1.3,2.7l-1.1,0.9l-1.2-0.2l-0.6-0.9L62,6.2l1.8-1.1l1.4-1.6l-1.5-0.8l-1.5-1  l-1.4-1.3l-0.9-0.3L59,0.3L60,2l-2.4,0.5l-0.9,0.9l-0.2,1.5L57,6.2l0.3,1.5l0.1,1.2l-1.6,1.4l-1.1,0.6l1.1-1.4l-0.7-0.8l0.7-0.8  l0.4-1L56,5.6l-0.7-0.8L55,3.6l-0.6-0.3l-1.5,0.2l0.2,1.7l-0.8-0.4L49.9,5l-0.7-0.1l-2,0.9l-2.1,0.4l-0.5,1l-0.3,1.4l-1,1L43,11.1  l0.5,2l-1.4,1.5l-0.9,0.6L41,15.9l-1.7,0.6l-1,0.8l-0.7,1.3l4.7,1.9l4.9-0.8l-0.9,1.6l-0.6,1.9l-0.9,0.6l-2,0.6l-0.9,0.5l-1.3,1  l-1.1,1.5l0.8,1.1l0.3,1.6L40,30.4l-2.4-0.8L33.7,29l-0.5,0.2l-1,1.5l-0.7,0.4l-2.6-2.3l-3.8-0.3l-2.4,0.2l-1.6,0.8h-1.7l-0.9-0.2  l-0.9,0.5L17.1,31v1.6l1.8-0.8l0.5,1.2l0.1,1.7l1.2-0.5l0.1,1.2l-0.1,1.1l-0.6,1.7l-0.3,1.9l2.5-0.7l2.6,0.3l-0.2,1l0.2,0.9  l-2.6,0.6l-2.4,1.4l-0.2,0.8v1l0.8,0.6l2.1,0.7l-2.4,0.4l-1.9,0.7l-0.9-0.2l-0.8,0.5l0.2,1l0.8,0.8L17,50.7v0.8l1.3,0.4l1.6-0.3  l1.6,0.3l-1.2,1.3l0.8,0.6h0.8l1.1-0.4h1.1l0.4,0.3l0.3,1.3l0.4,0.5l0.6,0.4l0.7,0.1l5.1-0.4l1.6,0.4l1.6,0.7l-1,1.1L33.3,58h-0.5  l-1.2,0.6L30,58.7l-0.9,0.7l-2.5,3.8l0.7,0.5l0.3,0.8l-1.1,1.9l-0.8,1.1l-3.4,3.4l-2.7,2l2.3-0.3l2.2-1.1l0.4-0.5l0.5-0.3l1.5,0.7  l1.1,0.2l3.3-0.4l1.2-0.8l1.6-2.2l1,1.1l2.1,0.8l-4.2,1.5l-4.2,1.1l-3.9,0.5l-0.7,0.3l-2,2l-1.2,0.6l-1,1l0.8,0.7l0.2,2.1l1.1,1  l-2.5,0.3l-0.9-0.5l-1.1-0.4l-1.1-0.2l-1.2,0.3L12.7,82l-0.4,0.9l-0.1,0.9l2.2,0.2l4.5-0.3l0.7,0.3L19,85.1L17.5,86l-1.6,0.6  l-1.3,1.1l-2.3,2.6l0.6,1.7l1.5-0.3l0.5,0.7l2,0.3l7.4-2.6L22,91.3l-0.8,1.1l-0.7,0.3c-1.2,0.8-2.3,1.8-3.4,2.7l-0.8,1.4l1.7-0.3  l1.7-0.9l4.9-1l0.8,0.2l-0.3,0.4l-2.6,1.5l-1.9,3l1.5,0.2l3.1-1.2l1.1-0.2l1.1,0.2l1,0.5h0.4l7.4-2.1l1.2-1.3l2.2-0.4l1.7-1.4  l1.1-0.1l0.9-0.7l0.2-1.3l-0.2-1.4l-0.4-0.7l-0.6-0.3h1.8l0.5,0.3l0.5,0.6l1.2,1l1.3-0.3l1.6-1l1.2-1.7l0.5-0.3l2.7-0.8l0.6-0.3  l0.5-0.6l0.4-1.1l0.5-0.9l1.3-0.6l3.4-0.6l2.1,0.1l1.2-0.7l0.6-2.1l0.8,2l0.4,0.2l0.5-0.5l1.2-0.8l1.3-0.1l2.1,0.6l1.9-0.3l1.7-1.1  L72,78l1-0.5l0.8-0.9l2-3.5l0.3-3l0.5-1.9l0.6-1.7l0.9-1.5l0.7-1.6l-0.3-4.2c-0.4-1.8-0.9-3.6-1.4-5.4l-0.3-1.7l0.3-0.6L77,49.7  l0.1-1l-0.2-2l-0.8-1.6c-0.3-1.7-0.7-3.4-1.2-5.2l-0.8-1.1l-0.4-1.5v-1.2l0.6-0.6l1.2,0.2l1.1-0.4l-0.3-0.9l-0.6-0.9l1.5,0.8  l1.5,0.2l1.2-1l0.9-1.7l0.3-1.2l0.4-0.9l1.8-0.3l1.5-0.7l0.7-2.6h-1.1L84,25.9l0.2-2.5l-0.4-1.9l0.8,0.3l0.7,0.6l0.7,1.4l0.6,0.5  l0.2-1.5L87.8,21.7z"/></svg>