<svg xmlns="http://www.w3.org/2000/svg" xmlns:xlink="http://www.w3.org/1999/xlink" version="1.1" x="0px" y="0px" viewBox="-461 335 100 100" fill="#e0e0e0" style="enable-background:new -461 335 100 100;" xml:space="preserve"><path d="M-446.8,430.5l-0.4-0.3h-1.3l-0.5,0.5l-0.5-0.2l-0.5,0.4l-1,0.4l-0.6,0.5l0,0.9l0.5,0.2l0.3,1.6l1.2,0.1l0.3-0.2l0.4,0.3  l0,0.2l0.4,0.1l0.1-0.8l0.4-0.1l0.4-0.6l0-0.4l0.8-0.4l0-0.2l0.3-0.2L-446.8,430.5z M-370.2,367l-0.2-0.2l-0.3-0.9l-1.2-0.6l-0.5,0  l-1.6-0.7l-0.5-0.2h-1.6l-0.4-0.3l0-0.5l-0.4-0.3l-0.5,0l-0.2,0.4l-0.3,0l-1-0.7l-0.9-0.3l0-0.2l-0.5-0.4l0-0.5l-0.5-0.5l0-0.7  l-0.5-0.9l0-0.7l-0.3-0.2l0-1.1l-0.3-0.2l0-3.3l0.3-0.2v-1.6l0.3-0.2v-0.9l0.3-0.2l0-0.7l0.3-0.2l0-0.4l0.3-0.2l0-0.5l0.5-0.9v-0.9  l0.5-0.9l0.3-0.4l0-1.1l0.3-0.2l0-0.9l0.5-0.9l0-7.4l-0.4-0.3h-0.8l-1,0.4h-0.8l-1.8,0.9l-2.1,0.9l-2.1,1.1l-0.5,0l-0.8,0.4h-0.8  l-0.8,0.4l-1.3,0l-0.3,0.2h-1.3l-0.3,0.2l-0.5,0l-0.8,0.7l-0.3,0l-1,0.9l-0.8,0.2l-1,0.9l-1,0.4l-2.9,2.5l-0.3,0l-0.5,0.5l-0.8,0.2  l-0.3,0.5l-0.3,0l-0.4,0.3l0,0.2l-2.1,2l0,0.2l-0.5,0.5l-1.3,2.2l0,0.4l-0.3,0.2l0,0.9l-0.3,0.2v0.7l-0.3,0.2l0,0.9l-0.3,0.2l0,0.9  l-0.3,0.2v0.7l-0.8,0.9l0,0.2l-2.1,3.6l0,0.2l-0.3,0.2l0,0.4l-0.3,0.2l0,0.4l-0.3,0.2l0,0.4l-0.3,0.2l0,0.5l-0.3,0.2l0,0.4l-0.3,0.2  l0.3,0.5l-0.5,0.7l0,0.7l-0.3,0.2l0,0.4l-0.3,0.2l0,0.5l-0.3,0.2v0.7l-0.5,0.7l0,0.5l-1.3,1.8l0,0.5l-0.5,0.9l-1.6,1.3l0,0.2  l-0.5,0.5l0,0.4l-0.3,0.4l-1,0.9l0,0.2l-1.6,1.3l0,0.2l-1,0.9l-0.7,1.2l-0.6,0.3l0,0.2l-0.5,0.4v0.7l-0.7,0.5l-0.3,0l-0.8,0.7  l-0.5,0l-0.8,0.5l-0.8,0.2l-0.4,0.3l0.3,0.2l-0.4,0.1l-0.8,0.7l-0.3-0.2l-0.5,0l-0.3-0.4l-0.5,0l-0.1,0.8l-0.5,0.2l0,0.2l-0.8,0.7  l-0.3,0.4l0,0.4l-0.3,0.2l0,0.5l-0.3,0.4l-0.8,0.4l0.3,0.2l0,0.9l0.5,0.4v0.7l-0.5,0.7l0,2.5l-0.3,0.2l0,1.1l-0.8,1.3l-0.5,0.5  l0,0.2l-0.6,0.5l-0.3,0l-0.9,0.8l0,0.5l-0.3,0.2l0,1.1l0.2,0.2l-0.3,0.2l0,0.4l0.8,0.7l0.3,0.5l0,0.4l0.5,0.7l0,1.6l-0.3,0.2l0,1.1  l0.5,0.4v1.1l-1,1.8v1.1l0.3,0.2l-0.6,0.8l-0.4,0.1l-0.3,0.9l-0.8,0.9l0,1.8l-0.3,0.2l0,0.4l-0.3,0l-0.1-0.3l-1.3,0l-0.5,0.4l-0.3,0  l-0.9,1l0,0.5l-0.5,0.4l0,0.4l-0.5,0.5l0,1.6l0.9,0.1l0.3,0.2h1.3l0.4,0.3l0,0.5l-0.4,0.3l-1,0l-0.4,0.3l-0.3,1.1l-0.5,0.4l0,0.2  l-0.9,0.8l-0.3,0l-0.6,0.8v0.7l-0.8,0.4l0,0.4l-0.5,0.4l0,0.7l0.4,0.3l0.3-0.2h0.3l0.5,0.4l0.5-0.2l0.6,1l0.1,0.6l1.6-0.2l0.1-1  l0.4-0.3l0.2,0.2h1.3l0.3-0.2l0.4-0.1l0-0.7l0.5-0.2l0-0.9l0.3-0.4l0.1-0.1l0.8,0.7l1.4-0.1l0.3-0.7l-0.8-0.4l0-0.2l0.3-0.2  l-0.3-0.4l0-0.4l0.1-0.1l0.5,0.2l0.4-0.3l0-1.1l0.1-0.1l0.3,0l0.5-0.5l0.8,0l0.2,0.2h0.8l0.3-0.2l1,0l0.3,0.2h1l0.4,0.3l-0.3,0.7  l0.8,0.4l0.5,0.9l0.5,0.4l-0.3,0.2l0,0.4l0.3,0.2l0,0.7l0.3,0.2l0.1,0.6l0.3,0l0.5,0.4l0.8,0l0.5,0.4h0.3l0.7-0.6v-1.3l0.3-0.2  l0-0.2l0.4-0.3l0.5,0l0.4-0.3l0-0.2l0.7-0.8h2.1l0.5,0.4l0.6,0.1l0.3,0.4l0,0.9l0.3,0.2l-0.3,0.2l0,0.7l-0.3,0.2l0,1.1l-1,1.1  l0.1,0.3h0.5l0.3-0.2l0.3,0.2h0.5l0.4-0.3l0-0.7l0.5-0.7l0-0.4l0.5-0.4l0-0.7l0.5-0.4l0.3-1.1l0.8-0.4l-0.1-0.8l-0.3,0l-0.9,0.8  l0,0.2l-0.4,0.3l-0.7-0.1l0-0.2l-0.5-0.4l0-1.1l0.9-0.8l0.8-0.2l0.9-0.8v-0.7l0.5-0.7l0-0.5l0.6-0.1l0.4-0.3l0-0.2l0.4-0.1l1.3-1.1  l1-0.2l0.3-0.4l0.5,0.2l1,0l0.3-0.2l0.3,0.2h1.8l0.9-0.5l0.3-0.5l0-0.7l0.3-0.2l0-0.9l0.4-0.3l0.3,0l1.4-1.2l-0.3-0.4l0-0.9l0.5-0.4  l0.1-0.5l0.8,0l0.3-0.2h0.8l0.3-0.2l0.8,0.2l1.1,0.4l0.1-0.6l0.5-0.4l0-0.2l0.4-0.1l2.3-2l0.5,0l1.2-0.8l0-0.2l0.5-0.5v-0.7  l-0.4-0.3l-0.7-0.1l0.3-0.4l-0.8-0.7V405l0.3-0.2l0.3-0.9l1.4-1.4l2.3,0l0.5-0.7l0.8,0l0.5,0.2l0.8-0.5l0.5,0l0.6-0.3l0.1-0.3  l0.4-0.1v-0.7l0.3-0.4l0.6-0.3l1-0.2l0.1-0.3l0.8-0.7l0-0.4l0.8-1.3l1.3-1.1l0.3-1.3l-0.5-0.4l-0.3-0.7l-0.6-0.6l-0.5,0l-0.1-0.3  l-0.3-0.2l0.3-0.2l-0.3-0.5l0-1.3l0.3-0.2l0.3-0.9l0.3-0.2l0.3-1.1l0.9-0.5h0.8l2-1.7l0.5-0.9l0-0.7l0.5-0.7v-0.7l-0.5-0.4l0.3-0.2  l0-0.4l0.8-0.7v-0.7l1.3-1.1l0.5-0.9l0-0.2l0.8-0.7l-0.3-0.5l0.5-0.2l0-0.4l0.3-0.2l0-0.9l0.5-0.5l0-0.2l0.8-0.4l0-0.2l1-1.1l0-0.2  l0.5-0.4l0-0.5l-0.3-0.2l0-0.9l-0.2-0.2l0-0.7l0.4-0.1l0.3,0.2l0.5,0l0.6-0.6l0.4-0.6l0.4-0.1l0.3-0.4L-370.2,367z"/></svg>