<svg xmlns="http://www.w3.org/2000/svg" xmlns:xlink="http://www.w3.org/1999/xlink" version="1.1" x="0px" y="0px" viewBox="-461 335 100 100" fill="#999999" style="enable-background:new -461 335 100 100;" xml:space="preserve"><path d="M-393.6,346.2l-0.1-0.3l-0.3-2.5l0.1-0.3l-0.8-0.3v-0.4l0.2-0.4l0.2-0.5l-0.1-0.7l-0.5-0.3l-0.1-1.2l-0.6-0.4l-0.2-0.2  l0.7-1l-0.8-0.6l0.5-0.2l0.2-0.2l0.4-0.3l0-0.3l0.1-0.1l0-0.4l0.1-0.2l0-0.1l-0.3,0.4l-0.4,0.9l-0.4,0.4l-0.3,0.2l-0.3,0.1l-0.3,0.1  l-0.3,0l-0.4,0.1l-0.8,0.9l-0.4,0.3l-0.7,0.1l-0.2,0.2l0.1,0.5v0l0,0.1l-0.1-0.1v0h0l-0.3-0.2l-0.4-0.6l-0.1-0.2l-0.3,0l-0.1,0.2  l-0.1,0.4l-0.2,0.4l-0.2,0.6l-0.1,1.3l-0.1,0.7l-0.2,0.4l-0.4,0.7l-0.1,0.4l-0.7,0.1l-1,0.4l-1.2,0.3l-0.3,0l-0.2-0.3l-0.2-0.3  l-0.2-0.3l-0.2-0.2l-0.2-0.1h-0.3l-0.8,0.3l-0.2,0l-0.3-0.1l-0.1,0l-0.1,0.1l-0.2,0.2l-0.1,0l-1.7-0.1l0,0l-0.1,0l0.2,0.2l-0.1,0.1  l-0.1,0.2l-0.1,0.1l0.1,0.5l-0.1,0.5l-0.3,0.8l-0.2,1.6l-0.1,0.4l0.3,0.1l0,0.3l-0.3,1l-0.1,0.2l-0.8,0.8l-0.2,0l-0.3-0.1l-0.4-0.3  l-0.3-0.1l-0.3,0.2l-0.2,0.5l-0.1,2.3l-0.5,2.1l0,0.4l-0.1,0.3l-0.1,1.2l-0.1,0.2l-0.7,3.4l-0.8,3.9l-1.8,5.5l-0.3,0.2l0,0.1l0,0.3  l0,0.1l-0.7,2.3l-0.4,0.6l-1.8,4.1l-0.1,0.2l-1.9,3.3l-0.5,0.7l-0.2,0.4l0.6,0.5l0.4,0.5l0,0.5l-0.7,0.7h0l-0.3,0.2l-2.5,2.4  l-0.5,0.9l0,0.4l0.2,0.9l-0.1,0.4l-0.8,0.8l-1.1,0.8l-0.4,0.3v0l0.2,0.7l0.9,2.7l0.7,2.1l0.8,2.2l1.1,2.9l1.3,3.5l0.5,2l0,1l0.1,0.4  l0.3,0.5v0l0.2,0.3l0,0.3l-0.2,0.8l0,0.4l0,0.3l0.2,0.2l1.2,1l0.2,0.4l0.7,2.1l1.3,3.7l0.9,2.4l0.1,0.1l0,0.1l0,0.1l0,0.2l0.1,1.4  l1,2.6l0.9,2.4l0.6,2.6l0,1.7l0.2,0.6l0.5,1l0.2,0.4l0.2,0l0.2,0l0.2,0l0.1-0.1l0-0.2l0.1-0.2l0.2-0.3l0.4-0.5l0.1-0.2l0.1-0.3  l0.1-0.7l0.2-0.6l0.3-0.5l0.2-0.6l0.1-1.4l0.2-0.6l1-2.7l0.1-0.5l0-1.5l0.2-0.9l0.1-0.2l0.1-0.2l0.1-0.2l0-0.3l0.3-1l0.9-1.4  l0.4-0.8v-0.8l-0.5-1.5l0-0.7l0.2-0.4l0.2-1.3l0.1-0.3l0.1-0.3l0.1-0.3l0-0.3l-0.1-0.4l-0.3-0.5l-0.1-0.3v-0.6l0.4-1l0.1-0.6  l0.9-3.1l1.3-2.6l0.2-0.6l0.1-0.6l0.1-0.3l0.1-0.3l0.2-0.2l0.4-0.3l0.1-0.2l0.1-0.6l0-0.6l0.1-0.6l0.3-0.6l0.9-0.8l0.2-0.5l0-0.8  l0.1-0.7l0.9-1.7l-0.3-0.1l-0.3-0.2l-0.2-0.3l-0.1-0.7l-0.5-0.9l-0.1-0.9l0.2-0.6l0.7,0.1l0,0l-0.1-0.7l0.3-0.6l0.3-0.5l0-0.6l0,0  l-0.2,0l-0.2-0.5l-0.1-1.3l-0.2-1l0.2-0.9l-0.1-0.4l-0.2,0l-1.3,0.7l-2.4,2l-1.3,0.5l-2.7,0l-1.3,0.2l-0.6,0.2l-0.6,0.1l-0.6-0.1  l-0.5-0.4l-0.3-0.9l0.3-0.9l1-1.6l0.1-0.8l0-0.7l0.1-0.7l0.4-0.8l0.4-0.5l1.8-1.3l0.8-0.8l0.4-0.3l0.4-0.2l1.3-0.3l0.1,0.1l0.1,0.1  l0.1,0l0.1-0.1l0-0.6l0-0.4l-0.2-0.3l-0.4-0.2l-1.5-0.4l-1.1-0.6l-0.3-0.1l-0.2,0.1l-0.4,0.4l-0.2,0.1l-0.2,0l-0.3,0l-0.7-0.1  l-0.2-0.4l0.2-0.5l0.6-0.2l0.6-0.3l-0.3-0.9l-0.4-1l0.1-0.8l0-0.1l0-0.1l0-0.1l0-0.1l0,0l0,0l0,0v0l0-0.6l0-0.5l-0.3-2.4l-0.1-0.4  l-0.4-0.8l0-0.2l0.3-0.4l0.9-0.8l0.2-0.3l0.1-0.3l0-0.3l-0.2-0.2l-0.3-0.1l0.1-0.3l0.1-0.8l0.1-0.3l0.1-0.1l0.3-0.1l0.1-0.1l0.2-0.5  l0.3-1.8l0.4-0.7l0.6-0.4l0.7-0.3l0.7-0.4l0.6-0.6l0.3-0.2l0.4,0l0.3,0.2l0.6,0.5l0.4,0.1l1.4-0.1l0.7,0.1l0.7,0.4l0.2,0.6l0,0.8  l0.1,0.7l0.6,0.2l0.5,0l0.5,0.1l1.8,0.5l-0.1-0.2l-0.1-0.1l-0.1-0.1l-0.1-0.3l0.2,0l0.1-0.1l0-0.1l-0.1-0.1v-0.2h0.2l0-0.1l0,0l0,0  l0,0l0.3-0.2l-0.1-0.2l0.1-0.1l0.1-0.1v-0.2l-0.1,0l-0.1,0l-0.1-0.1l-0.1-0.1l0-0.2l0.1-0.2l0.1-0.1l0.2-0.1v-0.2l-0.2-0.2l0-0.1  l-0.2-0.2h-0.1l-0.1,0v-0.2h0.3l-0.1-0.2l-0.1-0.5l0.1,0.2l0.1-0.3l0.1-0.1l0,0.1l0,0.1l0,0l0.1-0.1l-0.1-0.3l-0.1-0.7l-0.1-0.2  v-0.2h0.2v-0.2l-0.2-0.1l-0.1-0.2l0-0.2l0-0.1l0.2-0.1l0.2-0.2l0.3-0.4l0.4-0.3l0.5,0.1l0.3-0.2l0.7-0.6l1.2-0.8l0.4-0.1l0.6-0.9  l1.1-1.3l0.2-0.7l-0.1-0.3l0.3-0.8l0.4-0.6l0.2,0l0.3-0.6L-393.6,346.2z M-398.5,350.2l-0.1,0.7l0,0.3l0.1,0.2l-0.1,0.1l0,0.1l0,0.1  l0,0.2l-0.8,0.9l-0.5-0.1l-0.2-0.5l-0.1-0.5l-0.2-0.2l-0.1-0.1l-0.2-0.6l-0.4-0.6l-0.1-0.2l0.1-0.8l0.7-0.7l0.8-0.4l0.5,0l0.4,0.3  l0.2,0.2l0.1,0.3l0,0.4l0,0.2l0,0.2L-398.5,350.2z"/></svg>