<svg xmlns="http://www.w3.org/2000/svg" xmlns:xlink="http://www.w3.org/1999/xlink" version="1.2" baseProfile="tiny" x="0px" y="0px" viewBox="0 0 85.072 100" fill="#e0e0e0" xml:space="preserve"><path fill-rule="evenodd" d="M24.912,45.089l-0.029-0.08l-0.024-0.103l-0.035,0.008l-0.048,0.131l-0.07,0.08l-0.073,0.029  l-0.016,0.068l0.06,0.058l0.093,0.031l0.101,0.003l0.068-0.044l0.019-0.067v-0.039l-0.014-0.025L24.912,45.089z M27.37,42.742  l0.052-0.071l-0.034-0.097l-0.054-0.088l-0.063-0.062L27.201,42.4l-0.088,0.044l-0.057,0.105l-0.077,0.248l-0.047,0.051L26.87,42.89  l-0.057,0.053l-0.023,0.091l-0.053,0.022l-0.104-0.001l-0.075-0.056l0.032-0.141l-0.268,0.006L26.2,42.848v0.083l-0.094,0.066  l0.026,0.016l0.012-0.002l0.004,0.011l0.007,0.048l-0.169,0.012l-0.127-0.012l-0.087-0.033l-0.159-0.088l-0.074-0.018l-0.152,0.014  l-0.181,0.053L25.054,43.1l-0.073,0.168l0.039,0.258l0.129,0.138l0.16,0.057l0.589,0.018l0.039-0.004l0.034-0.059l0.038-0.148  l0.143,0.122l0.28-0.146l0.065,0.163l0.08-0.212h0.093l0.095,0.088l0.094,0.058l0.021,0.037l0.072,0.174l0.028,0.053l0.085,0.042  l0.072-0.006l0.054,0.01l0.034,0.087l0.107-0.128l-0.039-0.182l-0.123-0.159l-0.137-0.061l0.129-0.054l0.096-0.071l0.069-0.108  l0.048-0.163l-0.043-0.114l0.003-0.113L27.37,42.742z M26.378,47.509l-0.019,0.162l0.135,0.039l0.019-0.162l-0.068-0.104  L26.378,47.509z M30.878,47.428l-0.099-0.211l-0.126-0.11l-0.092-0.053l-0.051,0.052l0.004,0.118l-0.104,0.079l0.07,0.118  l0.267,0.276l0.103,0.063l0.118-0.114l-0.073-0.096L30.878,47.428z M40.941,88.578l-0.11-0.068l-0.051-0.052l-0.063,0.012  l-0.06,0.034l-0.072,0.024l-0.098-0.009l0.038,0.093l0.065,0.069l0.085,0.021l0.104-0.055l0.086,0.062l0.114,0.047l0.11-0.007  l0.08-0.102l-0.101-0.016L40.941,88.578z M39.054,88.264l-0.057-0.166l-0.078-0.055l-0.125,0.012l-0.039,0.061l0.047,0.096  l0.075,0.116L39,88.416l0.103,0.007l-0.009-0.09L39.054,88.264z M38.806,98.654l-0.272-0.26l-0.046,0.093L38.446,98.5l-0.047-0.027  l-0.066-0.018l-0.029-0.018l-0.068-0.083l-0.046-0.021l-0.037,0.01l-0.052,0.041l-0.032,0.01l-0.087,0.067l0.021,0.146l0.056,0.145  l0.031,0.062l0.172,0.21l0.248,0.179l0.247,0.032l0.163-0.234L38.905,98.8L38.806,98.654z M12.16,77.116l-0.11,0.046l-0.321,0.067  l-0.109,0.074l-0.039,0.146l0.058,0.118l0.177,0.181v0.058l-0.02,0.102l0.104,0.063l0.148,0.012l0.112-0.052l0.044-0.145  l-0.041-0.371L12.16,77.116z M23.143,40.579l-0.016-0.026l-0.012-0.018l-0.103-0.092l-0.135,0.08l-0.159,0.369l0.12,0.202  l0.153-0.008l0.137-0.16l0.091-0.188l-0.052-0.139L23.143,40.579z M22.977,64.671l-0.204-0.191l-0.038-0.096l-0.007-0.082  L22.7,64.244l-0.1-0.021l-0.046-0.028l-0.037-0.073l-0.022-0.095l-0.035-0.581l-0.027-0.125l-0.216-0.438l-0.028-0.173l-0.046-0.129  l-0.201-0.274l-0.042-0.12l-0.008,0.104l-0.077-0.089l0.027-0.086l0.091-0.046l0.109,0.028v-0.059l-0.063-0.12l0.071-0.061  l0.234-0.082l-0.092-0.017l-0.083-0.03l-0.068-0.055l-0.048-0.091l-0.081,0.063l-0.06,0.005l-0.041-0.055l-0.014-0.113l-0.04-0.033  l-0.258-0.13v-0.058l0.07-0.013l0.054-0.037l0.041-0.063l0.035-0.085l-0.14-0.029l-0.106,0.055l-0.105,0.074l-0.14,0.033  l-0.043-0.018l-0.128-0.084l-0.073-0.031l-0.072,0.013l-0.063,0.04l-0.058-0.002l-0.056-0.11l0.06-0.011l-0.01-0.013l0.006-0.047  l0.324,0.029l0.098-0.034l-0.033-0.129l0.088-0.126l0.026-0.17l0.036-0.149l0.119-0.064l0.11,0.038l0.117,0.06l0.108,0.011  l0.082-0.108l-0.132-0.085l-0.204-0.075l-0.197-0.01l-0.105,0.105h-0.033l-0.021-0.013l-0.044-0.051l-0.01,0.024l0.002,0.025  L21.1,60.229l-0.036-0.001l0.035-0.146l-0.024-0.09l-0.08-0.022l-0.131,0.061l0.055,0.135h-0.146l0.066-0.146l0.127-0.568  l0.012,0.043L21,59.539l0.014,0.046l0.075-0.095l0.043-0.089l0.02-0.095l0.01-0.116l-0.024-0.017l-0.008,0.002l-0.005-0.008  l-0.012-0.04h-0.049l-0.048,0.048l-0.038-0.018l-0.046-0.05l-0.068-0.046l0.055-0.07l-0.061-0.088l-0.039,0.011l-0.031,0.05  l-0.043,0.027l-0.098-0.017l-0.091-0.032l-0.089-0.006l-0.091,0.055l0.043,0.027l0.02,0.03l0.012,0.035l0.022,0.043l-0.068,0.052  l-0.045,0.081l-0.08,0.189l-0.044-0.222l0.002-0.094l0.042-0.072l-0.072-0.073l-0.044-0.08l-0.047-0.067l-0.082-0.037l0.024-0.04  l0.017-0.035l0.02-0.03l0.038-0.029v-0.059H20.06l-0.058-0.009l-0.053-0.021l-0.061-0.034v0.064l-0.259-0.25l-0.119-0.043  l-0.016,0.229l-0.117-0.084l-0.03-0.045l-0.051,0.031l-0.041,0.014l-0.102,0.014v-0.059l0.021-0.044l0.007-0.027l-0.028-0.123  h-0.051l-0.023,0.09l-0.01,0.067l0.008,0.053l0.025,0.043l-0.078-0.065l0.005-0.327l-0.073-0.125l-0.077,0.02l-0.062-0.011  l-0.04-0.046l-0.015-0.086l-0.13,0.064l-0.16,0.046l-0.136,0.077l-0.059,0.166l0.004,0.39l-0.041,0.145l-0.112,0.151l-0.045-0.07  l-0.198,0.196l-0.105,0.041l-0.488,0.061l-0.137,0.064l-0.105,0.231l-0.106,0.139l-0.123,0.121l-0.088,0.049l-0.044,0.034  l-0.076,0.164l-0.049,0.066l-0.068,0.037l-0.228,0.085l0.029,0.019l0.005,0.004v0.011l0.014,0.037l-0.09,0.077l-0.255,0.438  l-0.122,0.135l-0.415,0.315l-0.094-0.05l-0.125-0.021l-0.176,0.007l-0.487,0.227l-0.047,0.141l-0.114,0.144l-0.143,0.125  l-0.557,0.243l-0.139,0.025l-0.165-0.017l-0.4-0.118l-0.797-0.112l-0.231-0.139l-0.318-0.421l-0.027-0.107l0.016-0.121l0.028-0.114  l0.005-0.077l-0.052-0.073l-0.063,0.002l-0.053-0.011l-0.022-0.111h-0.052l-0.065,0.108l-0.077,0.175l-0.024,0.162l0.095,0.07  l0.125,0.058l0.048,0.141l-0.007,0.171l-0.042,0.149l-0.541,1.282l0.086,0.028l0.054,0.06l0.104,0.17l0.042,0.043l0.037,0.021  l0.094,0.006l0.038,0.026l-0.015,0.057l-0.031,0.046l-0.019-0.002L11.3,63.545l-0.082,0.141l-0.115,0.088L10.98,63.84v0.058  l0.048,0.241l0.042,0.145l0.062,0.132l0.031-0.211l0.074-0.189l0.12-0.104l0.164,0.052l-0.079,0.133l-0.066,0.186l0.146,0.07  l0.364-0.221l0.173-0.013l0.146,0.163l0.055,0.21l0.031,0.232l0.056,0.188l0.13,0.077l0.111,0.097l0.102,0.218l0.076,0.247  l0.028,0.173l-0.078,0.486l0.018,0.187l0.159,0.131l0.054-0.07l0.182,0.128l0.155,0.16l0.095,0.208l0.002,0.279l-0.121,0.431  l0.027,0.492l0.028,0.17l0.128,0.248l0.034,0.127l-0.02,0.139l-0.06,0.144l-0.074,0.11l-0.063,0.047l-0.052,0.011l-0.126,0.047  l-0.217,0.014l-0.021-0.003l-0.12,0.073l-0.052,0.075l0.02,0.035l0.103-0.057l0.091,0.13L12.88,69.58l-0.087,0.198l-0.006,0.107  l0.056,0.342l-0.011,0.063l-0.024,0.059l-0.021,0.059l0.006,0.072l0.027,0.069l0.018,0.018l0.02,0.004l0.106,0.099l0.091,0.066  l0.047,0.078l-0.063,0.104l0.047,0.069l0.066-0.236l0.051-0.087l0.083-0.057l-0.054,0.006l-0.042-0.007l-0.032,0.009l-0.023,0.05  l-0.049-0.058l0.198-0.14l0.223,0.017l0.209,0.125l0.154,0.188l0.061,0.136l0.011,0.104l-0.022,0.295l-0.022,0.126l-0.058,0.166  l-0.079,0.155l-0.082,0.093l0.048-0.03l0.04-0.043l0.032-0.052l0.025-0.064h0.047L13.8,71.796l-0.111,0.142l-0.093,0.156  l-0.018,0.157l0.072,0.072l0.366,0.117l-0.197,0.046l-0.151-0.057l-0.122-0.129l-0.224-0.359l-0.063-0.05l-0.098-0.02l-0.014,0.051  l0.017,0.242l-0.03,0.086v0.063l0.033,0.098l0.021,0.418l0.089,0.386l0.012,0.178l-0.057,0.125l0.054,0.068l-0.084,0.171  l-0.116,0.305l-0.097,0.153l-0.195,0.252l-0.054,0.106l-0.007,0.039l0.025,0.03l0.102,0.244l0.01,0.078l-0.026,0.138l-0.042,0.075  l-0.124,0.149l-0.03,0.083l0.058,0.177l0.252,0.19l-0.011,0.141l0.117,0.2l-0.041,0.171l-0.355,0.417l-0.035,0.067l0.008,0.078  l0.052,0.133l0.038,0.029l0.05,0.003l0.045,0.026l0.02,0.102l0.007,0.08l0.02,0.064l0.032,0.046l0.044,0.031l-0.022-0.089  l0.044-0.016l0.068,0.039l0.05,0.065l0.023,0.117l-0.005,0.227l0.03,0.095l0.086-0.062l0.077,0.05l0.06,0.11l0.03,0.154l0.032,0.059  l0.004,0.034l0.155-0.096l0.099,0.067l-0.065,0.143l-0.033,0.046l0.117,0.02l0.167,0.087l0.056-0.049h0.055l0.09,0.394l0.057,0.486  l0.165-0.041l0.087,0.159l-0.003,0.225l-0.107,0.155v0.063l0.111,0.027l0.126,0.005l0.068,0.052l-0.057,0.171l0.043,0.063  l0.102-0.063l-0.024-0.187l0.122-0.174l0.185-0.134l0.156-0.067l0.163,0.018l0.194,0.094l0.174,0.146l0.104,0.174v-0.188  l0.161,0.157l0.096,0.075l0.085,0.023l0.058-0.037l0.079-0.128l0.036-0.027l0.074-0.007l0.049-0.022l0.726-0.736l0.06-0.114  l0.052,0.042l0.022,0.01l0.076-0.052h-0.053l0.078-0.321l0.111-0.191l-0.008-0.065l-0.043-0.049l-0.042-0.055L17.293,78.1  l-0.042-0.164l-0.021-0.183l0.018-0.205l0.056-0.174l0.089-0.127l0.288-0.305l0.007-0.04v-0.073l-0.035-0.049l-0.178,0.039  l-0.081-0.021l-0.006,0.009l-0.021-0.047l-0.059-0.033l-0.042-0.043l0.034-0.073v-0.07l-0.095-0.04l0.011-0.031l0.074-0.009  l0.103,0.024l0.063,0.056l0.057,0.079l0.059,0.04l0.066-0.049l0.289,0.338l0.167,0.158l0.208,0.067l0.026-0.058l0.08-0.127  l0.118-0.129l0.135-0.063l0.258,0.026l0.135,0.042l0.101,0.062l0.049-0.068l0.053,0.063l0.091,0.06l0.1,0.048l0.074,0.019  l0.061,0.039l0.163,0.178l0.069,0.039l0.041,0.033l0.18,0.211l0.146,0.07l0.064,0.049l0.035,0.081h0.053l0.107-0.068l0.109-0.033  l0.112,0.017l0.111,0.085l-0.031,0.075l-0.004,0.045l0.026,0.031l0.055,0.031l0.03-0.187l0.121-0.084l0.13-0.052l0.062-0.088  l0.016-0.093l0.066-0.185l0.014-0.069l-0.027-0.063l-0.051-0.05l-0.023-0.053l0.055-0.081l-0.041-0.223l0.103-0.26l0.181-0.207  l0.196-0.073v-0.058l-0.166-0.124l-0.057-0.088l-0.021-0.136l0.011-0.135l0.086-0.401l0.179-0.489l0.042-0.291l-0.118-0.164  l0.176-0.6l0.02-0.255l-0.049-0.412l0.017-0.123l0.032-0.098l0.033-0.07l0.017-0.058l0.015-0.135l0.066-0.153l0.016-0.093  l-0.009-0.13L21.9,71.927l-0.009-0.117l0.011-0.227l0.037-0.232l0.063-0.195l0.089-0.11v-0.058l-0.035-0.019l-0.028-0.031  l-0.033-0.02v-0.057h0.048L22,70.761l0.003-0.108l0.037-0.114l0.051-0.121l0.034-0.022l0.048-0.001l0.045-0.022l0.023-0.085  l-0.014-0.06l-0.043-0.002l-0.052,0.029l-0.042,0.032l-0.066-0.256l0.043-0.294l0.265-0.702l0.013-0.143l-0.158-0.116l-0.158-0.227  l-0.059-0.05l-0.104-0.051l-0.074-0.122l-0.167-0.479l-0.016-0.088l-0.03-0.393l0.009-0.144l0.062-0.182l0.078-0.126l0.175-0.155  l0.093-0.107l0.127-0.269l0.082-0.125l0.106-0.053l0.157-0.048l0.088-0.125l0.117-0.343l0.159-0.264l0.061-0.143l0.024-0.203  l0.021-0.095l0.082-0.159l-0.001-0.094L22.977,64.671z M13.385,78.24l-0.006,0.009l-0.047,0.037l-0.048,0.004l-0.037-0.025  l-0.016-0.051l-0.08-0.267l-0.193-0.036l-0.226,0.015l-0.183-0.12l-0.103,0.188v0.063h0.055v0.067l-0.031,0.195l0.111,0.299  l0.261,0.443l0.026,0.065l0.007,0.064l0.026,0.047l0.086,0.012l0.076-0.021l0.032-0.039l0.068-0.249l0.053-0.31l0.067-0.131  l-0.029-0.066l0.034-0.063l0.141-0.121l-0.033-0.022L13.385,78.24z M11.84,59.707l-0.14,0.119l-0.09,0.098L11.569,60v0.091  l-0.01,0.091L11.53,60.27l-0.058,0.087l0.264,0.021l0.032-0.211l0.001-0.262l0.168-0.128l0.413-0.069l0.063-0.089l0.024-0.113  l-0.02-0.109l-0.068-0.074l-0.032-0.063l-0.015-0.057l0.002-0.073l-0.092,0.07l-0.038,0.045L12.16,59.29l-0.027,0.036l-0.127-0.018  l-0.046,0.013l-0.015,0.097l0.015,0.128l-0.015,0.113L11.84,59.707z M20.271,58.59l0.05-0.023l0.056,0.047l0.057,0.075l0.043,0.005  l0.031-0.067l-0.003-0.047l-0.023-0.051l0.059-0.26l0.002-0.067l-0.008-0.04l-0.026-0.073l-0.049-0.047l-0.057-0.012l-0.044,0.079  l-0.053,0.128l-0.021,0.084l0.03,0.061l-0.076,0.181L20.271,58.59z M20.19,57.991l-0.021-0.073l-0.041-0.064l-0.054-0.016  l-0.045,0.042l-0.041,0.006l-0.03,0.013l-0.013,0.08l-0.03,0.065l-0.05,0.04l-0.053,0.025l-0.032,0.037v0.075l0.028,0.082  l0.131,0.025l0.286-0.061l-0.009-0.034l-0.022-0.039l-0.014-0.044l0.009-0.078L20.19,57.991z M59.664,84.056l-0.097,0.188  l0.021,0.145l0.107,0.133l0.167,0.161l0.083-0.063l0.064-0.061l-0.041-0.123l-0.058-0.106l-0.08-0.086l-0.114-0.058v-0.129H59.664z   M61.51,80.961l0.052-0.034l0.036-0.057l0.02-0.058l0.037-0.062l0.013-0.073l-0.034-0.034l-0.049-0.021l-0.065-0.016l-0.047,0.014  l-0.023,0.041l-0.036,0.038l-0.068,0.033l-0.051,0.049v0.033l0.136,0.128L61.51,80.961z M59.657,83.246l-0.236-0.003l-0.107,0.064  l-0.064,0.15l-0.009,0.155l0.058,0.07l0.1,0.046l0.094,0.093l0.1,0.069l0.127-0.022v-0.066l-0.037-0.038l-0.023-0.042l-0.038-0.106  h0.191V83.56l-0.038-0.022l-0.061-0.068l-0.048-0.038l0.052-0.132L59.657,83.246z M85.046,68.552l-0.02-0.066l0.037-0.108  l-0.048-0.023l-0.037-0.044l-0.03-0.057L84.5,67.179l-0.477-0.66l-0.064-0.062l-0.127-0.059l-0.104-0.141l-0.186-0.311l-0.235-0.199  l-0.082-0.088l-0.146-0.253l-0.05-0.034l-0.141-0.032l-0.656-0.372l-0.589-0.489l0.042-0.422l-0.028-0.059l-0.167-0.159  l-0.031-0.095l-0.004-0.083l-0.028-0.062l-0.107-0.023l-0.183,0.061l-0.082-0.003l0.007-0.219l-0.243-0.119l-0.556-0.104  l-0.683-0.502l-0.735-0.303l-0.078-0.048l-0.614-0.16l-0.258-0.171l-0.146-0.04l-0.113-0.053l-0.446-0.48l-0.256-0.198l-0.117-0.04  l-0.095-0.053l-0.271-0.402l-0.241-0.239l-0.523-0.384l-1.042-0.574l-1.227-0.398l-0.148-0.155h-0.047v0.07h-0.047l-0.148-0.126  l-1.69-0.573l-0.281-0.193l-0.113-0.112l-0.127-0.102l-0.433-0.12l-1.134-0.617l-1.338-0.615l-0.098-0.103l-0.109-0.085  l-0.453-0.144l-0.432-0.301l-0.196-0.189l-0.156-0.223l-0.111-0.319l-0.034-0.384l0.063-0.359l0.18-0.242l0.729-0.38l0.255-0.205  l0.188-0.233l0.125-0.111l0.146-0.047l0.129-0.061l0.15-0.139l0.125-0.154l0.061-0.107l0.002-0.167l-0.005-0.124l-0.062-0.354  l-0.054-0.182l0.021-0.151l-0.13,0.006l-0.146-0.261l-0.204-0.062l-0.009-0.016l-0.598-0.153l-1.804,0.219l-1.164-0.065  l-1.182,0.202l-0.325-0.008l-0.847-0.194l-0.832,0.002l-0.154-0.032l-0.146-0.029l-0.136-0.072l-0.293-0.216l-0.129-0.044  l-0.075-0.054l-0.194-0.257l-0.099-0.088l-0.298-0.1l-0.577-0.104l-0.255-0.118l-0.255-0.213l-0.139-0.085l-0.12-0.025l-0.043-0.01  l-0.119-0.055l-0.081-0.14l-0.047-0.188l-0.041-0.396l-0.056-0.148l-0.111-0.094l-0.288-0.056l-0.411-0.167l-0.254-0.165  l-0.937-0.923l-0.298-0.494l-0.222-0.192l-0.516-0.34l-0.453-0.405l-1.037-1.241l-0.047-0.104l-0.039-0.148l-0.442-0.712  l-0.148-0.309l-0.257-0.658l-0.279-1.003L51.856,41.1l-0.119-0.822l-0.099-0.348l-0.229-0.495l-0.085-0.137l-0.03-0.082  l-0.045-0.352l-0.03-0.069l-0.112-0.196l-1.023-2.62l0.053-0.156l-0.063-0.13l-0.126-0.089l-0.137-0.033l-0.069-0.072l-0.082-0.162  l-0.103-0.161l-0.138-0.074l-0.022-0.02l-0.013-0.044l-0.021-0.045l-0.041-0.02l-0.043,0.01l-0.021,0.021l-0.017,0.021l-0.02,0.009  l-0.039,0.039l-0.055,0.072l-0.069,0.041l-0.191-0.114l-0.335-0.117l-0.071-0.089l-0.14-0.057l-0.835-0.52l-2.185-1.917  l-0.062-0.068l-0.069-0.11L44.693,32l-0.279-0.229l-0.136-0.082l-0.343-0.05l-0.016-0.005l-0.312-0.104l-0.134-0.076l-0.219-0.176  l-0.211-0.215l-0.407-0.55l-0.192-0.078l-0.261-0.209l-0.229-0.246l-0.147-0.268l-0.292-0.289l-0.194-0.271l-0.15-0.277  l-0.133-0.372l-0.043-0.2l-0.015-0.211l-0.021-0.049l-0.099-0.133l-0.031-0.06l-0.02-0.073l-0.029-0.26l-0.218-1.002l-0.026-0.441  l0.042-0.706l-0.018-0.11L40.5,25.191l-0.064-0.157l-0.094-0.322l-0.044-0.433l0.05-0.397l0.188-0.694h-0.097v-0.062l0.185-0.167  l0.076,0.003l0.129,0.096l0.185,0.183l0.075,0.111l0.131,0.119l0.159-0.015l0.13-0.096l0.056-0.173l-0.055-0.01l-0.09-0.039  l-0.05-0.013v-0.068l0.082-0.028l0.055-0.073l0.005-0.075l-0.179-0.078l0.004-0.096l0.082-0.163l0.023-0.066l0.061-0.087  l0.082-0.051l0.081,0.039l0.035,0.11l-0.027,0.126l-0.109,0.23l0.058,0.087l0.048,0.111l0.031,0.099l0.011,0.045l0.21-0.254  l0.095-0.164l0.04-0.16l0.014-0.325l0.03-0.11l0.054-0.009h0.044l0.019-0.061l0.024-0.054l0.06-0.097l-0.028-0.067l0.07-0.108  l0.006-0.093l-0.044-0.102l-0.078-0.076l-0.102-0.038l-0.117,0.003v0.076l0.022,0.004l0.048-0.008l0.023,0.004l-0.093,0.072  l-0.154-0.156l-0.143-0.191l-0.075-0.046l-0.056-0.045l-0.114-0.122l0.021-0.107l-0.086-0.071l-0.128-0.064l-0.104-0.094  l0.084,0.147l0.042,0.123l-0.021,0.124l-0.105,0.155l-0.099-0.138l0.041-0.024l0.022-0.023l0.031-0.018l0.057-0.01v-0.068  l-0.093-0.134l-0.073-0.148l-0.087-0.146l-0.142-0.122l0.019,0.07l0.012,0.029l0.023,0.039l-0.156,0.013l-0.071-0.101l0.005-0.18  l0.07-0.223v0.043l0.01,0.099l-0.01,0.066l0.079,0.044l0.073,0.024l-0.048-0.381l-0.006-0.339l-0.042-0.142l-0.079-0.146  l-0.043-0.147l0.065-0.153l-0.079,0.039l-0.16,0.161l-0.104,0.08l0.024,0.021l0.008,0.005l0.021,0.038l-0.137-0.003l-0.12-0.074  l-0.064-0.121l0.023-0.146l-0.068-0.063l-0.029-0.063l0.021-0.052l0.077-0.031l-0.03-0.178l0.007-0.147l-0.029-0.106l-0.142-0.059  l0.032,0.115l-0.019,0.139l-0.056,0.118l-0.078,0.049l-0.085-0.041l-0.063-0.212l-0.077-0.093l0.038-0.215l0.061-0.028l0.081,0.058  l0.094,0.041l0.152-0.025l0.055-0.073l0.032-0.109l0.08-0.137l-0.06-0.135l0.032-0.037l0.067-0.002l0.054-0.034l0.021-0.101  l-0.006-0.073l0.014-0.073l0.07-0.099l-0.075-0.074l-0.018-0.089l0.028-0.096l0.064-0.094h-0.045v-0.063l0.143-0.277l0.264-0.256  l0.292-0.162l0.231,0.004l-0.018,0.099l0.093,0.03l0.13-0.017l0.088-0.049v-0.063l-0.24-0.097l-0.044-0.093l0.09-0.164l0.049,0.214  h0.048l0.053-0.055l0.123,0.113l0.117,0.005v-0.063l-0.067-0.123l0.118-0.184l0.191-0.17l0.152-0.084l0.027,0.145l0.057,0.093  l0.135,0.144l0.049-0.007l0.183-0.131l0.087-0.035l-0.06,0.131l-0.079,0.084l-0.103,0.048l-0.125,0.015l-0.064,0.066l-0.007,0.142  l-0.039,0.125l-0.158,0.021v-0.075l0.073,0.003l0.024-0.003l-0.003-0.01l-0.021-0.038l-0.023-0.03l-0.005,0.015l-0.014-0.023  l-0.072,0.026l-0.077,0.006l-0.081-0.009l0.098,0.139l-0.048,0.049l-0.036,0.003l-0.028-0.042l-0.034-0.085H41.76l-0.003,0.093  l-0.025,0.048l-0.049,0.014l-0.068-0.011l0.034,0.093l-0.047,0.11l-0.079,0.131l-0.056,0.15l0.096-0.019l0.197-0.125l0.26-0.064  l0.059-0.037l0.12-0.102l0.706-0.262l1.208-0.583l1.164-0.762l0.271-0.063l0.563-0.02l0.174-0.054l0.075-0.104v-0.001l0.054-0.17  l0.249-0.208l0.084-0.146l-0.271,0.128l-0.145,0.021l-0.117-0.077l-0.037-0.173l0.077-0.142l0.144-0.088l0.158-0.01v-0.075  l-0.079-0.043l-0.026-0.096l0.021-0.096l0.06-0.044l0.085,0.031l0.061,0.143l0.071,0.034l0.058-0.031l0.083-0.146l0.253-0.091  l0.076-0.011l0.045,0.027l0.172,0.175l0.064,0.03l0.691,0.161l0.126-0.045l0.088,0.148l0.292,0.061l0.063,0.176l-0.047,0.085  l-0.112,0.074l-0.129,0.056l-0.102,0.026l0.178,0.079l0.188-0.059l0.169-0.128l0.126-0.134l0.078-0.039l0.196-0.038l0.04-0.064  l0.036-0.042l0.262-0.126l-0.191-0.034l-0.03-0.199l0.075-0.225l0.12-0.105l0.164,0.029l0.39,0.174l0.131,0.107l0.564,0.594  l0.093,0.124l0.104,0.196l0.027,0.177l-0.131,0.06l0.269,0.14l0.069,0.113l0.063,0.074l0.09,0.027L51.296,15.2l-0.213-0.025  l-0.191,0.005l-0.082,0.127l-0.051,0.076l0.353-0.03l0.281,0.151l0.339-0.034l0.144-0.178l0.136-0.169l0.056-0.133l-0.008-0.021  l-0.005-0.009l-0.063-0.006l-0.107-0.06l-0.076-0.084l-0.568-0.959l-0.495-0.223l-0.069-0.054l-0.281-0.22l-0.119-0.036l-0.246-0.03  l-0.2-0.108l-0.05-0.101l-0.059-0.114l0.022-0.351l0.216-0.488l0.063-0.146l0.051-0.198l0.054-0.21l-0.122-0.194l-0.035,0.009  l-0.209,0.048l-0.23,0.111l-0.213,0.016l-0.194-0.223l-0.003-0.012l-0.005-0.01l-0.005-0.01l-0.008-0.009l-0.033-0.027l-0.093-0.108  l0.109-0.1l0.037-0.023l0.055-0.074l0.021-0.07l-0.018-0.066l-0.058-0.061l0.163-0.217l0.124-0.095l0.671-0.511l0.204-0.377  l-0.028-0.1l-0.027-0.093l-0.07-0.014l-0.097-0.019l-0.21,0.023l-0.182-0.029l-0.215-0.213l-0.135-0.094l-0.198-0.04l-0.1-0.058  l-0.215-0.016l-0.109-0.038l0.104,0.183l-0.195,0.03l-0.061-0.09l-0.024-0.142l-0.095-0.13l-0.001-0.001V8.732l-0.044-0.259  l-0.039-0.122l-0.056-0.104l0.186-0.115l0.03-0.054l0.103-0.174l0.095-0.219l0.077-0.094l0.095-0.01L48.96,7.54l0.171-0.125  l0.33-0.178l0.175-0.182l0.152-0.214l0.175-0.164l0.241-0.032l0.177,0.006l0.134-0.071l0.061-0.124l0.018-0.038l0.01-0.265  l0.041-0.056l0.026-0.063l0.014-0.073L50.683,5.88L50.57,5.901l-0.107-0.011L49.6,5.609l-0.304-0.011L49.24,5.561l-0.1-0.114  l-0.05-0.02l-0.436,0.031l-0.313-0.055l-0.727,0.155l-0.289-0.014l-0.15-0.061l-0.454-0.279l-0.584-0.136L44.466,4.95l-0.405-0.266  l-0.179-0.06l-0.063-0.021l-0.056,0.008l-0.114,0.045l-0.066,0.002l-0.066-0.029l-0.13-0.098l-0.056-0.025L43.317,4.5l-0.352-0.036  L42.55,4.518l-0.104-0.009l-0.119-0.057l-0.22-0.15L41.89,4.264l-0.171-0.03l-0.29-0.118l-0.247-0.219l-0.135-0.333l-0.063-0.228  L40.865,3.26l-0.148-0.021l-0.149-0.058l-0.068-0.048l-0.041-0.041l-0.017-0.07l0.001-0.135l0.02-0.12l0.027-0.073l0.02-0.074  l-0.003-0.127l-0.064-0.229l-0.113-0.077l-0.301-0.01L39.93,2.141L39.887,2.09l-0.039-0.064l-0.082-0.084l-0.079-0.04l-0.168-0.03  l-0.076-0.03l0.105-0.104l0.001-0.096l-0.05-0.099l-0.046-0.116l-0.045-0.241l-0.029-0.119l-0.048-0.104l0.075-0.183l0.432-0.24  l0.152-0.207l0.003-0.143l0.002-0.133L39.827,0l-0.34,0.066l-0.12,0.024l-0.724,0.376l-0.509,0.025L37.82,0.601l-0.305,0.164  L37.27,0.96l-0.324,0.053l-0.078,0.05l-0.14,0.115l-0.083,0.019l-0.134-0.05l-0.231-0.173L36.144,0.96L36.09,0.968l-0.054-0.005  l-0.01-0.003h-0.003l-0.368-0.074l-0.169,0.017l-0.207,0.06h-0.001l-0.003,0.001l0,0l-0.067,0.036l-0.066,0.013l-0.065-0.011  l-0.06-0.038l-0.037-0.05l-0.042-0.04l-0.046-0.026l-0.126-0.03l-0.071,0.017l-0.063,0.048l-0.054,0.081l-0.001,0.001l-0.243,0.235  l-0.219-0.012l-0.222-0.107l-0.255-0.056l-0.501,0.084l-0.494,0.159l-0.128,0.077l-0.462,0.459l-0.059,0.129l-0.075,0.366  l-0.135,0.32l-0.006,0.04l0.008,0.108l-0.012,0.052l-0.031,0.033l-0.079,0.036l-0.029,0.028l-0.16,0.274l-0.1,0.104l-0.102,0.015  l-0.121-0.04l-0.25-0.024l-0.121,0.018l-0.238,0.08l-0.071,0.005l-0.073-0.029l-0.121-0.105l-0.064-0.033l-0.072-0.001l-0.138,0.039  l-0.068-0.003l-0.206-0.116L29.646,3.07l-0.151,0.047l-0.076-0.003l-0.044-0.09l0.034-0.052l0.158-0.129l0.035-0.072l-0.068-0.104  L28.987,2.34l-0.109-0.029L28.75,2.325l-0.725,0.199l-0.296-0.032l-0.232-0.188L27.46,2.639l-0.026,0.094l-0.042,0.066l-0.155,0.188  l0.014,0.154l0.05,0.151l0.019,0.143l-0.087,0.132L27.11,3.644l-0.028,0.095l0.007,0.119l-0.016,0.146l-0.069,0.123L26.927,4.2  l-0.033,0.099l0.059,0.198l0.13,0.149l0.303,0.033l0.15,0.125l0.054,0.2l-0.006,0.267l-0.056,0.257l-0.045,0.072l-0.056,0.094  l-0.129,0.024l-0.512-0.134l-0.248,0.022l-0.092-0.015l-0.08-0.037l-0.045-0.048l-0.038-0.052l-0.056-0.049l-0.295-0.103  l-0.031-0.112l0.039-0.213l-0.014-0.116L25.813,4.77l-0.184,0.002l-0.677,0.194l-0.068,0.038l-0.03,0.077l-0.089,0.337l-0.058,0.079  l-0.155,0.154l-0.061,0.092l-0.01,0.074l-0.002,0.228l-0.03,0.109l0.008,0.096l0.018,0.075l0.035,0.059l0.061,0.042l-0.125,0.213  l0.112,0.141l0.21,0.081l0.318,0.063l0.124,0.05l0.052,0.114l-0.054,0.226l-0.052,0.069l-0.149,0.134l-0.055,0.101l-0.036,0.14  L24.912,7.85l0.028,0.087l0.066,0.115l0.293,0.3l0.092,0.184l-0.093,0.197l-0.2,0.125l-0.301,0.114l-0.236-0.005l-0.006-0.232  l-0.072-0.176L24.201,8.31l-0.104-0.142l-0.046-0.226l-0.005-0.204L24,7.57l-0.179-0.117l-0.146-0.038l-0.14-0.01l-0.311,0.054  l-0.477,0.243L22.601,7.75l-0.092-0.02l-0.174-0.105l-0.076-0.002l-0.078,0.089l-0.014,0.117l0.012,0.117l-0.004,0.081l-0.108,0.151  l-0.135,0.055l-0.819-0.011l-0.165-0.06L20.795,8.06l-0.09-0.125l-0.142-0.372l-0.064-0.052l-0.157-0.088l-0.053-0.05l-0.014-0.059  l0.01-0.157l-0.042-0.991L20.22,6.102l-0.056,0.013l-0.115,0.085L20,6.265l-0.024,0.073L19.94,6.4l-0.077,0.03l-0.055-0.023  l-0.182-0.173l-0.006-0.128L19.48,6.068l-0.348,0.043l-0.137,0.126l-0.123,0.25L18.816,6.74l0.068,0.14l0.095,0.065l0.014,0.104  l-0.018,0.13v0.147l0.097,0.365l0.01,0.133l-0.044,0.228l-0.21,0.438l-0.106,0.368l-0.064,0.104l-0.083,0.077l-0.086,0.04  l-0.077,0.058l-0.039,0.103l-0.034,0.118l-0.052,0.1l-0.003,0.007l-0.52,0.35l-0.133,0.199l-0.028,0.132l0.017,0.23l-0.022,0.127  l-0.058,0.096l-0.067,0.04l-0.157,0.05l-0.183,0.141l-0.031,0.116l0.128,0.357l-0.235,0.217l-0.017,0.024l-0.004,0.028l0.004,0.024  l0.017,0.026l0.076,0.077l0.06,0.187l0.065,0.097l0.068,0.039l0.156,0.031l0.067,0.043l0.08,0.17l-0.026,0.174l-0.178,0.346  l-0.229,0.279l-0.215-0.04l-0.234-0.104l-0.281,0.087l0.026-0.158l0.042-0.122l0.029-0.125l-0.012-0.178L16.45,12.29l-0.061-0.134  l-0.124-0.221l-0.07-0.164l-0.047-0.063l-0.047-0.038l-0.411-0.22l-0.108-0.039l-0.122-0.008l0.012-0.026l0.027-0.05l0.125-0.289  l0.205-0.247l0.105-0.241l-0.183-0.239l-0.107-0.037l-0.219,0.004l-0.115-0.016l-0.055-0.037l-0.052-0.096l-0.022-0.008  l-0.036-0.015l-0.044,0.021l-0.11,0.098l-0.052,0.029l-0.126-0.006l-0.332-0.194l-0.139-0.049l-0.068-0.035l-0.451-0.666  L13.62,9.097l-0.197-0.1l-0.187-0.075l-0.131-0.108l-0.079-0.165l-0.028-0.251l0.024-0.265l0.116-0.534l0.024-0.297l-0.004-0.313  L13.13,6.756l-0.098-0.142l-0.205-0.035l-0.095,0.02l-0.304,0.065L12.234,6.77l-0.151,0.161l-0.061,0.131l0.028,0.045l0.047,0.035  l0.003,0.104l-0.043,0.095l-0.07,0.084l-0.082,0.063l-0.203,0.103l-0.35,0.463l-0.149,0.103l-0.31,0.07L10.74,8.298l-0.14,0.141  l-0.071,0.101l-0.03,0.088l0.024,0.039l0.167,0.145l0.211,0.408l0.021,0.377l-0.155,0.333l-0.312,0.27l-0.079,0.026l-0.146,0.016  l-0.073,0.056l-0.05,0.105l-0.017,0.117v0.115l-0.038,0.292l-0.012,0.021l-0.07,0.151l-0.004,0.022l-0.091,0.116l-0.05,0.042  l-0.068,0.021l-0.508,0.115L9.06,11.548l-0.156,0.3l-0.009,0.017L8.872,11.97l0.006,0.054L8.86,12.058l-0.088,0.049l-0.043-0.003  l-0.126-0.039l-0.197,0.005l-0.343-0.126l-0.07,0.008l-0.054,0.025l-0.06,0.015l-0.088-0.03l-0.011-0.026l-0.134-0.195l-0.106-0.099  l-0.113-0.066l-0.729-0.182l-0.118,0.063l-0.069,0.117l-0.078,0.101l-0.151,0.02L6.07,11.785l-0.421,0.308l-0.229,0.08l-0.536-0.056  L4.79,12.149l-0.201,0.123l-0.44,0.182l-0.216,0.04L3.7,12.498l-0.22-0.045l-0.166-0.1l-0.32-0.358l-0.103,0.05l-0.075,0.094  l-0.058,0.123L2.714,12.4l-0.098,0.163l-0.145,0.121l-0.161,0.083l-0.151,0.045l-0.177-0.002l-0.05,0.008l-0.026-0.004L1.85,12.776  l-0.028-0.003l-0.032,0.027l-0.032,0.047l-0.021,0.044v0.019l-0.213,0.029l-0.108,0.066l-0.091,0.149l-0.039,0.169l-0.006,0.182  l0.02,0.182l0.08,0.423l0.145,0.218l0.193,0.144l0.186,0.037l0.096,0.036l0.162,0.161l0.096,0.072l0.231,0.06l0.088,0.062  l0.043,0.15l-0.017,0.059l-0.082,0.18l-0.019,0.084l0.014,0.081l0.077,0.12l0.028,0.075l0.04,0.421l0.054,0.148l0.326,0.182  l0.311,0.234l0.024,0.038l0.046,0.073l0.05,0.126l0.058,0.114l0.095,0.072l0.306,0.134l0.055,0.042l-0.007,0.126l-0.063,0.155  l-0.147,0.265l-0.231,0.275l-0.036,0.06l0.036,0.294L3.61,18.61v0.159l-0.194,0.163L3.28,19.181l-0.049,0.05l-0.037-0.015  l-0.089-0.108l-0.057-0.024l-0.252,0.069L2.542,19.27l-0.093,0.088l-0.124,0.217l-0.104,0.095l-0.065,0.016l-0.166,0.003  l-0.057,0.024l-0.037,0.086l0.032,0.054l0.043,0.047l-0.015,0.063l-0.232,0.112l-0.257-0.091l-0.262-0.142l-0.251-0.042L0.9,19.826  l-0.128,0.1l-0.062,0.035l-0.057,0.01l-0.129-0.005l-0.064,0.012l-0.248,0.142L0.19,20.14l-0.105,0.089L0,20.342l0.125,0.192  l0.116,0.101l0.012,0.07l-0.009,0.081l0.02,0.091l0.085,0.148l0.076,0.064l0.249,0.022l0.188,0.137l0.045,0.289l-0.014,0.563  l0.125,0.21l0.234,0.203l0.492,0.287l0.135,0.033l0.353-0.07l0.124,0.012l0.357,0.146l0.128,0.142l0.03,0.05l0.016,0.059  l-0.003,0.03l-0.007,0.027l0.002,0.049l-0.015,0.007l-0.034,0.158l-0.006,0.013l0.081,0.218l0.038,0.246l0.028,0.086l0.217,0.41  l0.041,0.131l-0.127,0.002l-0.258-0.076l-0.132,0.001l-0.164,0.09l-0.131,0.162l-0.051,0.203l0.08,0.213l-0.1,0.074l-0.246,0.425  l-0.362,0.28l-0.076,0.133l0.022,0.312l0.159,0.279l0.218,0.229l0.187,0.156l-0.24,0.132l-0.05,0.087l-0.061,0.311l-0.018,0.06  l-0.001,0.05l0.027,0.092l0.029,0.046l0.156,0.185l0.056,0.098l0.084,0.201l0.041,0.075l0.064,0.067l0.141,0.102l0.066,0.078  l0.044,0.098l0.024,0.092l0.032,0.088l0.067,0.077l0.096,0.038l0.084-0.015l0.086-0.028l0.096-0.008l0.091,0.026l0.419,0.224  l0.287,0.104l0.759,0.468l0.135,0.058l0.186,0.031L5.046,29.9l0.049,0.072l0.038,0.082L5.2,30.12l0.068,0.017l0.288,0.007  l1.241-0.358l0.205-0.016l0.294-0.192l0.222,0.039L7.42,29.939l0.086,0.184l0.158,0.159l0.084,0.181l0.029,0.06l-0.015,0.173  l-0.079,0.105L7.58,30.88l-0.079,0.089l-0.045,0.12l-0.06,0.222l-0.055,0.114l-0.159,0.178l-0.369,0.311l-0.145,0.23l-0.31,0.342  l-0.11,0.204l0.033,0.25l0.141,0.474l0.075,0.001l0.074,0.03l0.057,0.045h0.093l0.199-0.067l0.877,0.001l0.299-0.069l0.351-0.234  l1.241-0.304l0.513-0.344l0.173-0.044l0.087-0.046l0.037-0.078l0.017-0.05l0.045-0.055l0.054-0.046l0.187-0.078l0.211-0.245  l0.165-0.039V31.73l-0.109-0.203l0.118-0.232l0.337-0.382l0.053-0.118l0.045-0.151l0.009-0.077l-0.009-0.159l0.022-0.071  l0.167-0.246l0.093-0.104l0.108-0.094l0.206-0.121l0.398-0.129l0.179-0.089l0.099-0.109l0.002-0.105l-0.014-0.109l0.038-0.118  l0.038-0.036l0.107-0.073l0.021-0.023l0.008-0.071l0.022-0.056l0.072-0.111l-0.037-0.193l0.154-0.203l0.53-0.355l0.174-0.171  l0.085-0.033l0.122-0.022l0.438-0.317l0.055-0.01l0.059,0.01h0.055l0.048-0.035l0.074-0.085l0.207-0.172l0.089-0.049l0.181-0.033  l0.462,0.037l0.076,0.112l0.054,0.037l0.165,0.037l0.328,0.008l0.066-0.026l0.207,0.117l0.347,0.125l0.719,0.133l0.201,0.105  l0.133,0.232l-0.015,0.113l0.131,0.103l0.326,0.129l-0.006-0.154l0.027-0.125l0.053-0.105l0.068-0.097l0.229,0.172l0.75,0.418  l0.048,0.226l0.343,0.148l0.048,0.095l0.055,0.077l0.122,0.018l0.133-0.021l0.085-0.04l0.038,0.129l0.066,0.089l0.087,0.065  l0.323,0.15l0.118,0.084l0.049,0.126l0.045,0.013l0.249,0.292l0.072,0.036l0.087,0.022l0.209,0.015l0.072,0.043l0.193,0.187  l0.079,0.042l0.364,0.338l0.343,0.158l0.048,0.078l0.041,0.131l0.073,0.011l0.027-0.05l-0.094-0.058l0.041-0.082l0.019-0.03  l0.042-0.028v-0.062l-0.067-0.023l-0.054-0.04l-0.043-0.06l-0.036-0.08L23,30.419l0.033-0.03l0.033-0.016L23.019,30.3l0.129-0.015  l0.229,0.206l0.08-0.051l0.116,0.13l0.24,0.193l0.112,0.115l0.064,0.04l0.071-0.011l0.058-0.041l0.024-0.056l0.032-0.042l0.07,0.018  l0.116,0.059l0.147,0.042l0.261,0.182l0.134,0.04l0.108,0.086l0.218,0.376l0.316,0.231l0.21,0.346l0.297,0.729l0.088,0.367  l0.22,2.369l0.16,0.745l0.065,0.154l0.233,0.114l0.102,0.117l0.455,0.633l0.571,1.191l0.08,0.196l0.033,0.2l0.011,0.399l0.028,0.205  l0.059,0.167l-0.052,0.127l-0.026,0.21v0.207l0.024,0.116l-0.156,0.541l-0.104,0.178l-0.179,0.151l0.157,0.481l0.136,0.147  l0.199-0.091l-0.022-0.039l-0.031-0.102l0.316-0.102l0.352,0.011l0.349,0.093l0.495,0.229l0.092,0.068l0.067,0.099l0.033,0.131  l-0.022,0.063l-0.041,0.042l-0.022,0.066l0.005,0.223l-0.01,0.184l-0.068,0.156l-0.172,0.143l1.14,0.393l0.377,0.203l0.205,0.223  l0.063,0.036l0.062,0.059l0.041,0.138l0.033,0.156l0.038,0.115l0.341,0.202l0.174,0.144l0.022,0.188l0.118,0.057l0.07,0.155  l0.062,0.182l0.092,0.134l0.061-0.008l0.082-0.041l0.069-0.009l0.054,0.173l0.149,0.245l0.016,0.155l-0.005,0.236l-0.063,0.229  l-0.11,0.16l-0.16,0.011l-0.205-0.073l-0.1,0.034l-0.087,0.128l-0.001,0.108l0.056,0.149l0.087,0.11l0.199,0.068l0.095,0.123  l0.057,0.05l0.012-0.014l0.052-0.016h0.07l0.066,0.029l0.018-0.125l0.104-0.156l0.023-0.148l0.05-0.076l0.115-0.032l0.131-0.002  l0.096,0.015l0.527,0.195l0.208,0.002l-0.053-0.066l0.078-0.006l0.079,0.01l0.072,0.025l0.066,0.037v0.071l0.175,0.062l0.49,0.262  l0.354,0.102l0.853,0.668l0.17,0.262l0.386,0.8l0.049,0.159l0.019,0.151l0.032,0.083l0.156,0.207l0.056,0.132l0.1,0.078l0.111,0.173  l0.092,0.188l0.038,0.12l0.086-0.021l0.552-0.015l0.127,0.062l0.129,0.088l0.116,0.104l0.094,0.111l0.071,0.033l0.201,0.031  l0.042,0.069l0.026,0.124l0.063,0.073l0.081,0.049l0.695,0.542l0.162,0.228l0.175,0.308l0.083,0.191l0.034,0.186l0.005,0.194  l0.024,0.186l0.06,0.166l0.11,0.138l0.057,0.023l0.213,0.041l0.06,0.021l0.111,0.093l0.188,0.058l0.112,0.087l0.752,0.681  l0.695,0.824l0.528,0.808l0.113,0.11l0.051-0.102l0.083-0.07l0.175,0.073l0.5,0.324l0.104,0.022l0.561,0.028l0.147,0.047  l0.225,0.134l0.215,0.186l0.397,0.463l0.095,0.146l0.138,0.273l0.083,0.122l0.07,0.158l0.024,0.156l0.055,0.122l0.17,0.055  l0.159-0.045l0.17-0.23l0.263-0.089l0.256-0.169l0.127-0.053l0.578-0.114l0.276,0.009l1.112,0.528l0.14,0.163h0.052l0.052-0.075  l0.039,0.043l0.038,0.093l0.067,0.068l0.067,0.015l0.225-0.015l-0.085-0.281l0.221-0.144l0.444-0.062l0.047,0.084l0.11,0.002  l0.213-0.056l0.095,0.039l0.491,0.438l0.437,0.554l0.232,0.4l0.188,0.379l0.016,0.098l0.014,0.2l0.024,0.089l0.087,0.091  l0.252,0.167l0.398,0.702l0.165,0.447l0.057,0.345l-0.08,0.387l0.046,0.065l0.197,0.03l0.052,0.025l-0.009-0.127l-0.027-0.125  l-0.009-0.111l0.045-0.085l0.097-0.022l0.11,0.039l0.17,0.103L54,62.051l0.119,0.14l0.15-0.002l0.067-0.184l0.077-0.101l0.177-0.06  l0.195-0.021l0.132,0.011l0.129,0.101l0.261,0.294l0.127,0.156l0.114,0.073l0.085,0.102l0.079,0.043l0.111,0.058l0.153-0.04  l0.129,0.103l0.096,0.137l0.04,0.17l-0.023,0.153l-0.229,0.086l-0.282,0.28l-0.047,0.115l-0.077,0.064l-0.055,0.028l-0.143,0.012  l-0.157,0.078l-0.069,0.178l0.013,0.195l0.092,0.131l0.095-0.123l0.326-0.174l0.146-0.124l0.353-0.086l0.108-0.075l0.213,0.12  l0.198,0.059l0.194-0.04l0.299-0.263l0.088-0.029l0.375,0.023l0.089-0.023l0.211-0.166l0.229-0.093l0.213,0.063l0.198,0.159  l0.183,0.19l0.187,0.239l0.196,0.319l0.621,1.325l0.158,0.316l0.017,0.268l-0.043,0.097l-0.152,0.061l-0.063,0.063l-0.074,0.05  l-0.085,0.02l-0.069,0.037v0.089l0.049,0.16l-0.051,0.201l-0.18,0.25l0.03,0.158l0.078,0.034l0.114,0.095l0.136-0.034l0.066,0.065  l0.068,0.049l0.194,0.084l0.141,0.136l0.086,0.189l0.088,0.06l0.132,0.022l0.215-0.061l0.121-0.016l0.104,0.047l0.447,0.471  l0.141,0.067l0.174,0.11l0.211,0.243l0.112,0.243l-0.127,0.106v0.063l0.077,0.006l0.078-0.011l0.073-0.023l0.066-0.035l0.083,0.021  l0.205,0.276l0.127,0.048l0.352,0.047l0.139-0.055l0.217-0.274l0.254-0.161l0.127-0.195l0.155-0.094l0.538,0.042l0.101-0.042  l0.003,0.12l0.04,0.067l0.151,0.13l0.194,0.322l0.245,0.259l0.105,0.156l0.044,0.19l0.053,0.13l0.235,0.357l0.054,0.209  l-0.088,0.355l0.013,0.053l0.053,0.04l0.037,0.095l0.034,0.182v-0.058l0.125,0.935l0.067,0.153l0.148,0.244l0.098,0.35l0.068,0.239  l0.056,0.229l0.063,0.115l0.202,0.143l0.202,0.205l0.179,0.333l0.268,0.356l0.275,0.86l0.058,0.32l0.291,2.158l0.405,0.93  l0.105,0.171l0.104,0.075l0.146,0.03l0.107,0.086l0.072,0.138l0.038,0.183l0.012,0.388l-0.048,0.388l-0.1,0.344l-0.156,0.258  l-0.189,0.158l-0.119,0.063l-0.108,0.027l-0.514-0.062l-0.33,0.021l-0.247,0.117l-0.452,0.303l-0.296,0.1l-0.135,0.073l-0.056,0.104  l-0.009,0.088l-0.011,0.05l0.011,0.051l0.063,0.095l0.042,0.041l0.096,0.046l0.053,0.037l0.21,0.235l0.113,0.256l0.014,0.305  l-0.095,0.389l-0.534,1.115l-0.099,0.407l-0.022,0.05l-0.102,0.09l-0.021,0.046l-0.065,0.069l-0.73,0.225l-0.241,0.11l-0.126,0.188  l0.038,0.311l0.061,0.217l0.01,0.17l-0.045,0.156l-0.101,0.167l-0.025,0.138l0.062,0.162l0.185,0.286l-0.144,0.134l-0.023,0.168  l0.074,0.187l0.146,0.195l0.132,0.119l0.172,0.114l0.189,0.089l0.189,0.052l1.29-0.07l0.421,0.128l0.105-0.053l0.338-0.071  l0.1-0.064l0.093-0.084l0.08-0.103l0.067-0.118l0.104-0.282l0.188-0.957l0.126-0.293l0.977-1.211l0.24-0.216l0.68-0.354l0.229-0.079  l0.217-0.186l0.076-0.021l0.099-0.141l0.28-0.266l0.06-0.119l0.053-0.666l-0.001-0.233l-0.129-0.613l-0.073-0.692l0.003-0.164  l-0.016-0.028l-0.085-0.062l0.027-0.213l0.088-0.165l0.09-0.14l0.078-0.259l0.079-0.117l0.179-0.17l0.429-0.22l0.063-0.063  l0.06-0.076l0.285-0.211l0.791-0.358l0.689-0.188l0.158-0.013l0.172,0.026l0.108,0.069l0.183,0.216l0.145-0.093l0.202-0.062  l0.175,0.034l0.064,0.184l0.105-0.188l0.063-0.084l0.053-0.035l0.026-0.037l0.239-0.218l-0.005-0.05l0.005-0.36l0.031-0.062  l0.073-0.063l0.139-0.097l-0.099-0.014l-0.243-0.086l-0.048-0.05l-0.026-0.075l-0.168-0.337l-0.017-0.277l0.129-0.529l0.039-0.292  l-0.025-0.106l-0.124-0.206l-0.051-0.104l-0.023-0.122l0.004-0.123l0.052-0.511l0.261-0.624l-0.247-0.026l-0.255-0.124l-0.224-0.176  l-0.152-0.176l-0.088-0.136l-0.085-0.099l-0.115-0.061l-0.176-0.021l-0.127-0.039l-0.336-0.281l-0.428-0.212l-0.063-0.072  l-0.045-0.145l-0.105-0.137l-0.129-0.115l-0.111-0.075l-0.233-0.078l-0.892-0.048l-0.239-0.107l-0.325-0.222l-0.215-0.266  l0.092-0.231v-0.063l-0.189-0.237l-0.088-0.259l0.014-0.28l0.118-0.297l0.243-0.444l0.336-0.318l0.115-0.215l0.117-0.099l0.07-0.117  l-0.13-0.282l-0.101-0.348l-0.018-0.118l0.055-0.351l0.142-0.218l0.111-0.101l0.281-0.254l0.261-0.442l0.105-0.065l0.047-0.097  l0.173-0.547l0.15-0.297l0.577-0.836l0.347-0.506l0.458-0.443l0.525-0.248l0.534,0.037l0.064,0.023l0.16,0.002l0.073,0.03  l0.039,0.064l0.034,0.087l0.039,0.073l0.058,0.032l0.147-0.049l0.131-0.093l0.131-0.055l0.151,0.063l-0.035,0.047l-0.014,0.022  l0.303-0.1l0.138,0.009l-0.051,0.155l-0.147,0.079l-0.345-0.064l-0.141,0.054l0.146,0.161l-0.036,0.149l-0.139,0.12l-0.167,0.075  l0.092,0.133l0.193,0.103l0.401,0.146l0.392,0.23l0.121,0.031l0.047,0.026l0.125,0.127l0.051,0.037l0.073,0.01l0.149-0.015  l0.07,0.005l0.384,0.221l0.128,0.034l2.396,0.128l0.111,0.041l0.354,0.282v0.059h-0.094l0.081,0.081l0.043,0.125l0.015,0.158  l0.003,0.179l0.046,0.135l0.105,0.123l0.191,0.158l0.211,0.239l0.099,0.226l-0.057,0.201l-0.253,0.16l0.077,0.052l0.19,0.063  l0.077,0.08l0.045,0.135l-0.013,0.106l-0.067,0.063l-0.111,0.007v0.068l0.086,0.086l0.459,0.691l0.066,0.047l0.095,0.034  l0.261,0.179l0.222,0.212l0.177,0.081l0.177,0.116l0.093,0.017h0.296l0.117,0.039l0.345,0.276l0.057,0.03l0.06,0.021l0.154,0.013  l0.039-0.03l0.072-0.129l0.038-0.03l-0.02-0.077l0.097-0.493l-0.002-0.108l-0.051-0.239l0.015-0.088l0.066-0.203l0.027-0.194  l0.025-0.097l0.162-0.405l0.26-0.194l0.094-0.109l0.059-0.274l0.115-0.091l0.059-0.093l0.009-0.09L85.046,68.552z M42.038,31.963  l-0.052,0.098l-0.007,0.013l-0.018,0.021l-0.012,0.024l-0.004,0.031l0.006,0.03l-0.127,0.216l-0.223,0.031l-0.213-0.11l-0.1-0.211  l0.071-0.235l0.11-0.111l0.074-0.074l0.229-0.117l0.205-0.035l0.051,0.094l0.022,0.165L42.038,31.963z M41.052,16.999l0.07-0.041  l0.012-0.116l-0.118-0.094h-0.123l-0.096,0.159l0.029,0.135l0.119,0.025L41.052,16.999z M41.224,17.116l0.203,0.003l0.096,0.019  l0.092,0.048l-0.168-0.152l-0.131-0.028l-0.124,0.087l-0.141,0.197l-0.172,0.336l-0.057,0.185l0.011,0.062L41.224,17.116z   M58.97,83.09l0.012-0.088l0.041-0.104l0.021-0.044l0.036-0.039l-0.071-0.104l-0.111-0.035l-0.26,0.009l-0.15,0.112l0.215,0.179  L58.97,83.09z M48.706,62.196l-0.037,0.045l-0.03,0.091l0.086-0.047l0.037-0.1L48.706,62.196z M46.939,81.69l0.147-0.139  l-0.012-0.029l-0.07-0.055l-0.119,0.002l-0.082,0.067l-0.034,0.069l0.005,0.067l0.082,0.035L46.939,81.69z M56.913,82.933  l0.085-0.008l-0.002-0.032l-0.04-0.047L56.93,82.75l-0.085-0.071l-0.126-0.031l-0.028,0.01l0.009,0.112l0.057,0.117L56.913,82.933z   M64.024,85.923l0.102-0.122l0.29-0.192l0.071,0.008l0.059-0.012l0.041-0.042l0.023-0.078l-0.254-0.044l-0.406-0.18l-0.219-0.023  l-0.111,0.046l-0.285,0.271l-0.28,0.132l-0.085,0.078l-0.158,0.108l-0.562,0.196l-0.209,0.035l-0.127-0.005l-0.117-0.024  l-0.087-0.063l-0.033-0.118l0.04-0.218l-0.023-0.095h-0.042l0.025,0.028l-0.027,0.074l-0.006,0.022l0.011,0.02l0.022,0.07  l-0.269,0.523l-0.183,0.243L60.833,86.7l-0.123,0.068l-0.125,0.048l-0.137-0.029l-0.039-0.038l-0.073-0.115l-0.028-0.03l-0.07-0.016  l-0.227,0.016l-0.183-0.06l-0.087-0.009l-0.047-0.037l-0.129-0.167l-0.069-0.037l-0.202-0.016l-0.069,0.016l-0.066,0.03  l-0.101,0.063l-0.541,0.139l-0.146,0.01l-0.234-0.02l-0.08,0.035l-0.27,0.329l-0.201,0.199l-0.235,0.159l-0.879,0.335l-0.34,0.064  l-0.229-0.109l-0.338,0.18l-0.382,0.104l-0.414,0.025l-0.87-0.124l-0.218,0.058l-0.104,0.011l-0.163-0.022l-0.149-0.058  l-0.301-0.173l-0.094,0.1l-0.491,0.085l-0.098,0.063l-0.09,0.084l-0.1,0.074l-0.293,0.069l-0.317,0.17l-0.156,0.039l-0.458-0.065  l-0.154,0.004l0.016-0.032l0.003-0.01l0.03-0.025l-0.102-0.051l-0.333-0.067l-0.206-0.129l-0.251-0.215l-0.212-0.091l-0.071-0.064  l-0.047-0.102l-0.011-0.085l0.014-0.154l-0.198-0.149l-0.872,0.067l-0.104-0.256l-0.024-0.084l-0.01-0.29l-0.041-0.062l-0.271-0.187  l-0.017-0.041l-0.008-0.063l-0.011-0.058l-0.038-0.024l-0.057,0.01l-0.096,0.047l-0.14,0.036l-0.08,0.047l-0.083,0.024l-0.109-0.04  l-0.063,0.202l-0.164,0.078l-0.198-0.001l-0.161-0.031l-0.246-0.103l-0.07-0.017l-0.083,0.024l-0.081,0.062l-0.042,0.077l0.04,0.078  l-0.248,0.22l0.016,0.082l0.066,0.087l0.016,0.082l0.011,0.113l0.011,0.054l-0.011,0.04l-0.061,0.068l-0.242,0.191l-0.594,0.267  l-0.308,0.043l-0.225-0.131l-0.006-0.08l-0.085-0.064l-0.201-0.103l-0.074-0.073l-0.197-0.353l-0.177-0.413l-0.036-0.164  l-0.083-0.011l-0.083,0.011l-0.042-0.107l-0.085,0.155l0.028,0.229l0.01,0.221l-0.147,0.136l-0.091-0.012l-0.113-0.033l-0.097-0.004  l-0.04,0.08l-0.037,0.145l-0.093,0.107l-0.217,0.155l-0.229-0.086l-0.19,0.153l-0.188,0.212l-0.218,0.091l0.08,0.092l-0.009,0.128  l-0.045,0.148l-0.044,0.239l-0.168,0.341l-0.018,0.019l-0.003,0.011l0.007,0.063l0.02,0.081l0.064,0.1l0.014,0.043l-0.007,0.079  l-0.038,0.164l-0.016,0.007l-0.051,0.249l0.014,0.026l-0.032,0.035l-0.104,0.064l-0.01-0.038l-0.123,0.061l-0.003,0.109l0.066,0.125  l0.084,0.106l0.059,0.105l0.021,0.107l0.01,0.118l0.032,0.134l0.067,0.15l0.104,0.182l0.123,0.154l0.124,0.064l0.285,0.006  l0.103,0.053l0.12,0.126l0.297,0.499l0.165,0.154l0.273,0.021l0.594-0.103l0.581-0.021l0.575,0.072l0.225,0.098l0.185,0.198  l0.029,0.075l0.045,0.182l0.046,0.082l0.067,0.039l0.075-0.014l0.105-0.053l0.875,0.122l0.038,0.028l0.07,0.127l0.037,0.028  l0.082,0.023l0.058,0.052l0.08,0.108l0.157,0.091l0.042,0.037l0.178,0.341l0.08,0.041l0.09,0.03l0.067,0.044l0.131,0.13l0.304,0.181  l0.353,0.284l0.223,0.14l0.256,0.092l0.328,0.056l0.247,0.077l0.211,0.15l0.605,0.602l0.23,0.161l0.256,0.11l0.306,0.063  l0.273,0.109l0.439,0.346l0.315,0.043l0.072-0.024l0.134-0.085l0.064-0.019l0.802-0.065l0.269,0.048l0.588,0.277l0.502,0.331  l0.65,0.631l0.175,0.25l0.581,1.246l0.082,0.103l0.562,0.133l0.116-0.026l0.127,0.082l0.421,0.162l0.091,0.09l0.093,0.157  l0.425,0.061l0.119,0.115l0.09-0.034l0.02,0.02l0.032,0.075l0.473-0.239l0.253-0.038l0.259,0.095l0.277,0.196l0.179,0.079  l0.08-0.063l0.03-0.056l0.066-0.005l0.099,0.03l0.087,0.048l0.055,0.056l0.103,0.144l0.131,0.108L60.628,100l0.147-0.043  l0.142-0.136l0.004-0.11l-0.126-0.527l-0.131-0.287l-0.035-0.179l0.089-0.079l0.008-0.104l0.363-0.925l0.115-0.177l0.152-0.075  l0.112-0.036l0.107-0.072l0.127-0.066l0.168-0.009v-0.065l-0.03-0.059l0.017-0.021l0.063-0.037l-0.05-0.061l0.253-0.141l0.039-0.014  l0.038,0.047l0.075,0.034l0.054-0.026l-0.021-0.145l-0.06-0.11l-0.063-0.034l-0.146,0.019l-0.058-0.058l-0.013-0.11l0.043-0.073  l0.105,0.059l0.036-0.216l-0.032-0.13l-0.104-0.063l-0.172-0.018l-0.129-0.07l-0.105-0.148l-0.02-0.132l0.131-0.02v-0.062  l-0.101-0.055l-0.121,0.086l-0.155-0.188l-0.079-0.278l0.109-0.181l-0.044-0.109l0.09-0.043h0.075l0.042,0.064l-0.01,0.155  l0.061-0.091l0.049-0.104l0.066-0.038l0.117,0.11l-0.067-0.214l-0.109-0.151l-0.138-0.092l-0.268-0.052l-0.495-0.278l-0.049-0.071  l-0.05-0.123l-0.033-0.151l-0.019-0.886l0.015-0.16l0.037-0.152l0.137-0.25l0.341-0.407l0.106-0.329l0.044-0.192l0.087-0.264  l0.015-0.186l0.022-0.086l0.101-0.102l0.03-0.09l-0.013-0.103l-0.073-0.171l-0.012-0.096l0.046-0.123l0.2-0.307l0.179-0.147  l0.123-0.189l0.138-0.282l0.642-1.008l0.769-0.983l0.191-0.467l0.35-0.574l-0.114,0.004l0.021-0.132L64.024,85.923z M55.368,82.981  l-0.104,0.035l0.026,0.111l0.103-0.036L55.368,82.981z M51.79,62.812l-0.051,0.183l0.076,0.07l0.16,0.077l0.057,0.052l0.096-0.056  l0.118-0.041l0.105-0.011l0.07,0.038l0.102-0.097l0.05-0.033l-0.023-0.073l0.002-0.055l0.021-0.057l-0.139-0.096l-0.451-0.162  h-0.146l0.031,0.093l0.021,0.037l-0.063,0.044L51.79,62.812z"/></svg>
