<svg xmlns="http://www.w3.org/2000/svg" xmlns:xlink="http://www.w3.org/1999/xlink" version="1.1" x="0px" y="0px" viewBox="-461 335 100 100" fill="#999999" style="enable-background:new -461 335 100 100;" xml:space="preserve"><path vector-effect="none" d="M-417.7,368l0.9,0.6l1.4-0.4l2.3,0l2.4,0.3l1.7,0.4l0.2,0.2l0.2,0.6l0.2,0.2h0.3l0.2-0.1l0.1-0.1  l0-0.1l2,0.4l0.3,0.1l0.8,0.7l0.2,0.2l1.5,0l2.4-0.4l0.6,0.1l1,0.4l0.5,0.1l2.7-0.1l0.9,0.1l0.8,0.4l0.9,0.6l2.3,2.1l1.1,0.8  l0.5,0.7l0.3,0.7l0.3,0.4l0.4,0.3l0.8,0.2l2.4,0.2l0.8,0.2l0.7,0.4l0.9,0.9l0.7,0.4l0.8,0.2l2.3,0.4l0.2,0.1l0.2,0.2l0.3,0.2  l0.4,0.1h3.4l0.2,0.1l0.4,0.7l0.2,0.2l3.4,0.6l1.8,0.6l0.2,1l1.3,1.2l1,1.4l1.5,3.2l0.7,1.6l0.7,1.1l0.9,0.9l1.3,0.9l-0.5,0.4  l-2.4,0.6l-1.7,0.9l-1,0.3l-0.8-0.2l0.3-0.2l0.1-0.2l0.2-0.6l-0.8,0.3l-0.7,1.1l-0.8,0.2l-0.7-0.2l-0.8-0.4l-0.8-0.2l-1.4,0.5  l-3.6,0.3l-2.5-0.4l-0.4,0l-0.3,0.1l-0.4,0l-0.5-0.3l-0.2-0.4l-0.1-0.6l-0.1-0.5l-0.4-0.2l-0.4-0.1l-0.2-0.3l-0.2-0.3l-0.3-0.2  l-1.4-0.3l-0.3-0.2l-0.7-0.3l-1,0.1l-1.6,0.4l-0.7,0.1l-2.4-0.1v-0.3l5-0.3l-0.5-0.5l-0.6-0.1l-1.4,0l-0.7-0.3l-1.2-0.8l-0.6-0.2  l-1,0.4l-0.7,1.2l-2,4.6l-0.6,0.9l-0.7,0.5l-0.6,0l-0.4-0.2l-0.4-0.2l-0.5-0.2h-2.5v-0.4l1-0.3l-0.5-0.4l-0.6-0.8l-0.5-0.4l-0.6-0.2  l-1.3-0.1l-2.4,1.7l-0.8,1.2l0.3,1.3l-0.3,0.1l-0.6,0.4l-0.3,0.1l0.1,0.2l0.1,0.5l0.1,0.3l-0.5-0.2l-0.5,0l-0.5,0.2l-0.4,0.4  l0.8,0.5l0.9,0.2l0.9-0.1l0.9-0.3l0.5,1.8l-0.1,0.8l-1.1,0.3l-1,0l-0.9-0.2l-0.8-0.4l-4-3.5l-0.8-1l-3.4-2l-1-0.4l-1.1-0.1l-0.8,0.3  l-1,0.6l-1,0.1l-2-0.6l-2-0.3l-6.2,0.4l-0.3-0.1l-1-0.6l-1.6-0.8l-0.4-0.3l-0.2-0.4l-0.5-1.2l-0.1-0.4l-0.2-0.3l-0.8-0.3l-0.3-0.2  l-0.1-1l0.1-1.2l-0.3-1l-1.2-0.4l-3.2,0l-0.7-0.3l-1.1-2.5l-0.4-0.5l-0.4-0.3l-0.5-0.2l-0.4-0.1l-0.3-0.2l-0.2-0.6l-0.3-1.1  l-0.9-1.7l-1.1-0.6l-3.4,0.1l-2.1-0.3l-0.7,0l-0.4,0.4l-0.4,0.2l-0.3-0.1l-1.1-0.4l-0.1-0.1l-0.6-0.1l-1.4-0.4l-0.8-0.1l-0.8-0.2  l-0.8-0.5l-0.6-0.7l-0.2-0.8l0.3-0.4l0.7-0.5l0.3-0.4l0.1-0.6l-0.1-1.4l0.1-0.4l0.4-0.6l0-0.4l0.2-0.2l0.7-0.1l0.4-0.3l0.4-0.6  l0.5-0.4l0.8,0.3l0.5-1.4l1.4-1.3l1.6-0.5l1.2,0.9l0.7-0.8l0.7,0l0.8,0.3l1,0.2l3-0.4l1,0l0.9,0.3l0.5,0.1l0.5-0.1l0.5-0.3l0-0.3  l0-0.4l0.3-0.5l1-1.3l0.5-0.4l0.8-0.4l1.8-0.3l2.1,0.1l6.9,1.5l4.4,0.1l2,0.5l3.2,0.2L-417.7,368"/></svg>