<svg xmlns="http://www.w3.org/2000/svg" xmlns:xlink="http://www.w3.org/1999/xlink" version="1.1" x="0px" y="0px" viewBox="-345 257 100 100" fill="#e0e0e0" style="enable-background:new -345 257 100 100;" xml:space="preserve"><path vector-effect="none" d="M-255.7,282.7l0.2,0.1l3.9-1.1l0.4,0.2l0.3,0.7l0.4,1.6l-0.5,0.8l-2.5,2.1v0.2l-0.2,0.1l-0.4,0.3  l-2.4,2.3l-0.7,0.3l0,0l0,0l-2.3,0.7l-4.6,1.3l-4.6,1.3l-4.6,1.3l-4.6,1.3l-5.1,1.5l-5.1,1.5l-5.1,1.5l-5.1,1.5l2.7,2.9l2.7,2.9  l2.7,2.9l2.7,2.9l0.1,0.1l0.1,0.1l0.1,0.1l0.1,0.1l2.2,2.7l2.3,2.6l2.3,2.6l2.2,2.6l1,1.2l0,0l0,0l0,0l-0.1,0.1l-1.5,0.8l-2.5,1.4  l-2.2,1.2l-0.5,0.4l-0.3,0.4l-0.6,1.5l-0.7,1.8l-0.7,1.6l-0.9,2.2l-0.4,0.4l-2.4,0.5l-2.8,0.6l-2.9,0.6l-3,0.6l-1.8,0.4l-1.8,0.4  l-0.6,0.3l-0.5,0.5l-1.1,1.9l-0.9,1.6l-1.3,2.2l-1.3,2.2l-1.6,1.3l-2.4,2l-2.2,1.8l-2.2,1.8l-0.5,0.2l-0.6,0l-2.1-0.4l-2.4-0.4  l-3.6-0.6l-3-0.5l-2.9-0.5l-3.2-0.5l-2.4-0.4l-2.3-0.4l0.3-0.2l0.1-2.1l0.1-0.6l0.4-1l0-0.4l-0.4-0.4h-0.3l0-0.1v-0.1l0,0l-0.1,0  l0.1-0.6l0.2-0.5l0.3-0.4l0.2-0.6l0.1-1.3l0.1-0.6l1-2.6l0.1-0.5l0-1.4l0.1-0.8l0.1-0.2l0.1-0.2l0.1-0.2l0-0.3l0.2-0.9l0.9-1.3  l0.3-0.8v-0.7l-0.4-1.4l0-0.7l0.1-0.4l0.2-1.2l0.1-0.3l0.1-0.2l0.1-0.3l0-0.3l-0.1-0.3l-0.3-0.5l-0.1-0.2v-0.6l0.4-1l0.1-0.6  l0.9-2.9l1.2-2.4l0.2-0.6l0.1-0.6l0.1-0.3l0.1-0.3l0.2-0.2l0.3-0.3l0.1-0.2l0.1-0.5l0-0.5l0.1-0.5l0.3-0.5l0.8-0.8l0.2-0.4l0-0.7  l0.1-0.7l1-1.9l0.1-0.7l-0.1-0.7l-0.3-0.6l-0.2-0.5l-0.2-0.6l-0.1-0.7l0.3-0.6l0.3-0.5l0-0.5l-0.2-0.2l0.4-0.7l0.4-1l0.1-0.5l0-1.6  l0,0l0,0l0,0v0l0,0l0.1-1.8l0.3-1.7l1-2.3l0.7-0.7l-0.4-1.3v-0.2l0.2-0.3l-0.5-1.9l0.1-0.2l0.1-0.1l0.1,0l0.1-0.1l0-0.2l-0.1-0.3  l0-0.2l0-0.3l0-0.3l-0.2-0.6l0-1.1l0.1-0.4l0.3-0.3l-0.2-0.3l0-0.3l0.3-0.6l-0.1-0.1v-0.1l0.1-0.1l0.2-0.1v-0.2l-0.1-0.3l0.4-1.5  h-0.3l0-0.1l0-0.1l0.1-0.1l0.1-0.1l-0.2-0.3l-0.1-0.5l0-0.5l0.1-0.3l-0.2-0.4l0-0.7l-0.1-0.2v-0.2h0.1v0.2h0.1l0-0.2l-0.1-0.2  l-0.1-0.2l-0.1-0.1l-0.1-0.1l-0.1-0.3l0.2,0l0.1-0.1l0-0.1l-0.1-0.1v-0.2h0.1l0-0.1l0,0l0,0l0,0l0.3-0.2l-0.1-0.2l0.1-0.1l0.1-0.1  v-0.2l-0.1,0l-0.1,0l0-0.1l-0.1,0l0-0.2l0.1-0.2l0.1-0.1l0.2-0.1v-0.2l-0.2-0.2l0-0.1l-0.1-0.2h-0.1l-0.1,0v-0.2h0.3l-0.1-0.2  l-0.1-0.5l0.1,0.2l0.1-0.3l0.1-0.1l0,0.1l0,0.1l0,0l0.1-0.1l-0.1-0.3l-0.1-0.6l-0.1-0.2v-0.2h0.1v-0.2l-0.2-0.1l-0.1-0.2l0-0.2  l0-0.1l0.1-0.1l0.2-0.2l0.3-0.4l0.4-0.3l0.5,0.1l0.3-0.2l0.7-0.6l1.1-0.7l0.4-0.1l0,0l0.1-0.1l0.1,0l0.1,0l0.1,0.1v0l0,0l0,0  l0.2,0.2l2.2,0.5l0.2,0.1l0.4,0.4l0.1,0h0.3l0.1,0l0,0.2l0,0.2l-0.1,0.1l-0.1,0l0.2,0.2l0.2,0.2l0.2,0.1l0.3-0.1l0.5,0l0.1,0.3  l-0.1,0.4l0,0.5l0.2,0.4l0.9,1.4l0.1,0.3l0,0.1l0.1,0l0.5,0l0.8-0.1l0.1,0l0.2,0.1l0.1,0l0.1-0.1l0.2-0.2l0.1,0l0.2,0.1l0.7,0.7  l1.3,0.9l1.8,1.7l0.3,0.2l0.4,0.1l1.2,0.1l0.3,0.2l3.6,0.4l0.7,0.6l0.4-0.2l0.4,0l1.3,0.3l0.3,0l0.3-0.1l3.3-2.3l3.1-2l0,0h0l0,0  l2.3-1.4l3.5-2.2l3.5-2.3l3.5-2.2l3.5-2.3l2.6-1.7l0,0l3.6-2.2l6.1-3.9l5-3.1l1,3.5l0.7,2.4l0.2,0.7l0.7,2.6l0.9,3.5l1,3.6l1.4,5.1  l-1.6,0.5l0,0l0,0l0,0l0,0l1,3.5L-255.7,282.7"/></svg>