<svg xmlns="http://www.w3.org/2000/svg" xmlns:xlink="http://www.w3.org/1999/xlink" version="1.1" x="0px" y="0px" viewBox="0 0 100 100" fill="#e0e0e0" style="enable-background:new 0 0 100 100;" xml:space="preserve"><path d="M93.8,41.3c0.2-0.4,0.6-0.5,1.1-0.5c-0.2-0.3-0.3-0.6-0.7-0.3c-0.1-0.1-0.2-0.2-0.4-0.3c0,0,0-0.2,0-0.2  c-0.4,0-0.2-0.4-0.6-0.4c-0.3,0.1-0.2,0-0.2-0.2c0-0.1,0.2-0.2,0.2-0.3c0-0.1-0.2-0.1-0.1-0.3c-0.9,0.1-0.1,0-0.4,0.2  c-0.2,0.1-0.1,0.1-0.1,0.3c-0.3,0.2-0.3,0.5-0.5,0.8c-0.2-0.3-0.5,0.3-0.5-0.2c-0.2,0-0.4,0.1-0.6,0.1c0,0-0.1-0.1-0.1-0.1  c-0.1,0-0.5,0.2-0.6,0.2c-0.3-0.1-1.3-1.1-0.9-1.2c-0.1-0.2-1.4-0.6-1.6-0.3l0,0c-0.4-0.2-0.3-0.9-0.7-1c0-0.2-0.8-1.1-1.1-0.9  c-0.2-0.2-0.7-0.3-1-0.2c-0.5,0.1-0.2,0.3-0.6,0.5c-0.1,0-0.3,0-0.4,0c-0.2,0.1-0.2,0.2-0.1,0.4c-0.3,0.3-0.4,0.2-0.7,0.4  c-0.3,0.1-0.6,0-1,0.1c-0.2,0-0.4,0.3-0.7,0.3c-0.6,0-0.2,0-0.4-0.4c-0.3-0.6-0.4-0.1-0.9-0.1c0-0.3,0.1-0.6,0.1-0.9  c-0.1,0-0.1,0-0.2,0.1c-0.2,0-0.4-0.1-0.4-0.3c0,0-0.1,0.1-0.1,0.1c-0.1,0-0.3-0.1-0.4-0.1c-0.1,0.1-0.1,0.2,0,0.3l0,0  c-0.1,0-0.3,0-0.4,0.1c0,0.2,0,0.3,0.2,0.4l0,0l0,0c0.1,0.2,0,0.4-0.1,0.5c-0.1,0-0.1,0-0.2,0c0,0.1-0.3,0.3-0.3,0.6  c-0.4,0-5.6-7.5-6-7.9c-0.8-0.7-2.1-1.1-2.8-1.8c-0.2-0.2-0.2-0.4-0.4-0.6l0,0c0.4-0.2,0.4,0.1,0.7-0.2c0.2-0.2,0.2-0.6-0.1-0.7  c0.1-0.1,0.2-0.1,0.3-0.2c0,0,0-0.1,0-0.1c-0.1,0.1-0.3,0.1-0.4,0.1c0,0.1-0.1,0.2-0.1,0.3c-0.1,0-0.2,0.1-0.2,0.2  c-0.2,0-0.3,0-0.5-0.1c0,0.1-0.1,0.2-0.1,0.2l0.1,0.1c-0.2,0.1-0.4,0.3-0.7,0.5c-0.4,0.2-1,0.1-0.7,0.6c-0.3,0.2-0.5,0.5-0.8,0.7  c-0.1-0.1-0.3-0.1-0.5-0.1C66,29.8,66,29.9,66,30c-0.1,0-0.1,0-0.2,0c0,0.1,0,0.2,0,0.3c-0.1,0-0.2,0-0.4,0c0,0.1,0,0.2,0,0.3  l0.1,0.1c0,0.1-0.1,0.2-0.1,0.4l-0.1,0c-0.1-0.1-0.1-0.1-0.2-0.2L65,30.7c-0.1,0-0.1,0-0.2,0c0,0-0.2,0-0.2-0.1  c-0.2-0.1-0.4,0-0.5,0.2c-0.4-0.1-0.3,0.1-0.4,0.3c-0.2,0.2-0.1,0.3-0.4,0.2c0.2,0-0.2-0.5-0.2-0.5L63,30.7c0-0.1,0.1-0.1,0.2-0.2  c0-0.2,0-0.3,0.2-0.4c-0.1,0-0.1-0.1-0.1-0.2l0.1,0c0.5,0.1,0.5-0.3,0.5-0.7c-0.3,0.1,0-0.1-0.3,0c0,0.2-0.1,0.2-0.1,0.4l-0.1,0  c0-0.1-0.1-0.1-0.2-0.1c-0.2,0.4-0.8-0.1-0.9-0.4c-0.2-0.1-0.9-0.1-0.9,0.3c0.3-0.1,0.4,0,0.4,0.3c-0.2-0.2-0.4-0.1-0.4,0.1  c-0.1,0.1-0.2,0.1-0.3,0.1c0.3-0.4-0.2-0.3-0.1-0.6l0.1,0l0-0.1l0.1,0c0-0.2-0.2-0.2-0.3-0.2c0-0.1,0-0.1,0.1-0.2l0-0.1  c-0.3-0.1-0.2-0.3-0.6-0.4c0,0.1,0,0.2,0.2,0.2c-0.2,0.3,0.1,0.4-0.2,0.3c-0.3-0.1-0.4,0-0.6,0.1c0.1,0.2,0.1,0.3-0.1,0.4  c-0.1-0.1-0.2-0.1-0.3,0c-0.1-0.4-0.1-0.2-0.3-0.3c0,0.2-0.1,0.3-0.3,0.4c-0.1-0.1-0.1-0.2-0.2-0.3c-0.1-0.2-0.3-0.3-0.3-0.5  c0.1,0,0.1,0,0.2,0c0.1,0.1,0.1,0.1,0.3,0c-0.1-0.1-0.1-0.2,0-0.3c-0.1,0,0.3-0.7,0-1.1l0,0c-0.4,0.1-0.5-0.4-0.5-0.7  c0-0.2,0-0.4-0.1-0.6c-0.1-0.2-0.5-0.4-0.3-0.6c-0.4-0.2-1,0.3-1.2,0.6c-0.1-0.1-0.4-0.2-0.5-0.2c-0.1-0.1-0.2-0.2-0.3-0.3  c-0.4-0.2-0.9-0.4-1.2-0.1c-0.1,0-0.1-0.1-0.1-0.2c-0.1,0-0.3-0.1-0.4-0.1c-0.1,0.1-0.1,0.2,0,0.3c0.1,0.1,0.2,0.1,0.1,0.3  c0,0-0.5-0.2-0.5-0.3c-0.1,0.9-0.6,0.3-1,0.7c0.1,0.1,0,0.3,0.3,0.3c0,0.1-0.2,0.2-0.2,0.4c-0.3,0.1-0.3-0.1-0.6,0  C52,26.7,52,26.9,51.8,27c-0.3,0.1-2.7,0.8-3,0.8c-0.4,0-0.4,0.4-0.4-0.2c-0.2,0-0.2,0.3-0.3,0.3c-0.2,0-0.4-0.1-0.5,0  c-0.1,0-0.6,0.3-0.6,0.4c-0.2,0.3,0.2,0.6-0.2,0.6c-0.1,0-0.3-0.2-0.4-0.3c-0.2,0-0.2,0.2-0.4,0.2c-0.2,0-0.2-0.1-0.3-0.1  c-0.1,0-0.1,0-0.1,0c0,0,0,0-0.2,0.1c-0.1,0-0.4,0-0.5,0.1c-0.2,0.1-0.3,0.3-0.4,0.3c0-0.1-1.3-0.1-1.6,0.1c0,0-0.1,0.2-0.3,0.3  c-0.2,0.1-0.4-0.1-0.6,0c-0.4,0.2-0.1,0.6-0.4,0.7c-0.3-0.2,0-0.5-0.1-0.6c-0.2,0-0.4,0-0.6,0c-0.3-0.1-0.4,0-0.3,0.3  c-0.1,0-0.5-0.2-0.6-0.2c-0.3,0-0.2,0.2-0.3,0.1c-0.2-0.4-0.3-0.3-0.7-0.3c0,0.1,0,0.2,0.1,0.3c0,0-0.1,0.1-0.1,0.1  c-0.1-0.1-0.4-0.3-0.4,0c0.9,0.1,0,0.5,0.1,0.8c-0.2,0-0.3-0.2-0.3,0c0.2,0,0.8,0.3,0.9,0.3c0.1-0.1,0.2-0.2,0.3-0.1  c0.4,0.2,0.1,0.3-0.1,0.4c0,0-0.3-0.2-0.4-0.2c-0.1,0.5-0.3,0.7,0.4,1c0.1,0,0.3-0.1,0.4,0c0.1,0,1,0.6,0.9,0.8  c-0.1,0.5-0.4,0.1-0.6,0.1c-0.2-0.1-0.3,0-0.5,0.1C39.3,33,39.2,33,39,32.9c-0.3,0-0.6,0.1-0.9,0.1c0.4,0.5-0.9,0.6-0.6,1  c-0.1,0,0.3,0.2,0.2,0.5c0.1,0,0.2,0.1,0.3,0.1c0.2,0.4,0.1,0.6-0.3,0.9c-0.3,0.2-0.6,0.1-1,0.3c-0.2,0.1-0.3,0.3-0.4,0.4  c-0.1,0-0.4-0.1-0.4,0c-0.3,0.4,0.7,0.5,0.8,0.9c0.1,0.3-0.3,0.1,0.1,0.4c0.2,0.1,0.6,0.1,0.9,0.2c-0.2,0.5,0.4,0.5,0.7,0.6  c0.1,0,0.3,0,0.4,0.1c0.2,0.1,0,0.5,0.4,0.6c-0.4,0-0.4,0.5-0.5,0.8l0,0c-0.2,1-1.1,1.1-2,1c-0.5-0.1-0.6-0.3-0.9-0.5  c-0.4-0.3-0.2-0.1-0.5,0.3c-0.1,0.2-0.6,0.7-1,0.6c-0.3-0.1,0.3-0.2,0-0.4c-0.2-0.2-0.7-0.1-1-0.3c-0.4-0.2-0.6-0.4-0.7-0.8  c-0.3,0.1,0-0.3-0.1-0.4c0-0.1-0.1-0.2-0.1-0.3c-0.1,0-0.2,0-0.3,0c0-0.1-0.1-0.2-0.1-0.3c-0.3,0.3-1,0.2-1,0.1  c-0.4,0.1-0.4,0.6-0.4,0.6s-0.5,0-0.5,0.1c-0.3-0.1-0.6-0.6-0.5-0.9c-0.2,0.2-1.3-0.2-1,0.3c-0.3-0.1-0.3-0.1-0.4-0.4  c-0.2,0.2-0.3,0.4-0.5,0.6c-0.1,0-0.2-0.1-0.3,0c-0.1,0.1-0.1,0.3-0.2,0.4c-0.2,0.2-0.5,0.6-0.9,0.5c-0.2,0-0.2-0.1-0.4-0.2  c-0.5-0.2-0.7-0.7-1.1-1.2c-0.1-0.2-0.3-0.5-0.5-0.5c-0.4-0.1-0.2,0.2-0.4,0.3c0.9,0.5-0.6,2.2-0.3,0.7c0.1-0.5-0.2-0.7-0.5-1.2  c-0.3-0.5-0.9-0.6-1-1.2c0.3-0.1-0.3-0.4-0.4-0.5c-0.3,0-0.3-0.1-0.4-0.1c-0.1,0-0.5,0.1-0.5,0.1c0,0-0.3-0.3-0.5-0.1  c-0.6-0.1-0.2-0.9-0.6-1.2c-0.1,0.4-0.8,0.1-1,0.3c-0.2,0.1-0.1,0.4-0.2,0.5c-0.5,0.3-0.1-0.2-0.3-0.2c-0.1,0-0.5,0.3-0.7,0  c-0.3-0.4,0.2-0.1,0.3-0.2c0-0.4-0.8-0.8-1.1-0.9c-0.1,0.3,0.2,0.7-0.3,0.6c0,0,0.1-0.1,0.1-0.1c-0.2-0.2-0.8,0.7-0.8,0.6  c-0.1,0.4-0.9,0.4-1.3,0.5c-0.1,0-0.7,0-0.8,0c-0.3,0-0.1,0.7-0.3,0.9c-0.1,0.1-0.6,0.1-0.7,0.2c-0.1,0-0.3,0.2-0.5,0.3  c-0.3,0.1-0.6-0.3-0.7-0.1c0.2,0.2,0.2,1.5,0,1.7c0.2,0.1,0.2,0.2,0.2,0.4c-0.3,0.4-0.8,0.2-1.2,0.5c0,0-0.2-0.2-0.2-0.2  c0,0-0.1,0-0.2,0c0-0.5-0.3-1.3-0.5-1.6c-0.2-0.3-0.4-0.8-0.8-0.4c-0.2,0.2-0.3,0.2-0.4,0.5c-0.1,0.4,0,0.6-0.6,0.8  c-0.4,0.1-0.4,0-0.6,0.4c-0.3,0.4-0.4,1-0.6,1.4c0.8,0.5,0.3,1.1-0.4,1.3c-0.3,0.5-0.7,1-1,1.5c0.4,0.3,0.8,0.5,1.2,0.8  C6.1,44,6.1,44.1,6,44.3c0.1,0,0.1,0.1,0.2,0.1c-0.1,0.1-0.3,0.2-0.4,0.2c0.3,0.6,0,0.7,0.5,1.2l0,0c0.2-0.4,0.1-0.3,0.5-0.3  c0.2,0,0.8,0.2,1,0.3c0.5,0.3,1.6,3.7,1.3,4c-0.4,0.3-0.5-0.3-0.7-0.3C7.9,49.5,8,49.8,8,50.2c0.5,0.1,1,0.7,1.3,1.1  c0-0.1,0.1-0.2,0.2-0.1c0-0.1,0-0.2-0.1-0.3c0.2,0,0.1,0.3,0.3,0.3c0-0.1,0.3-0.3,0.4-0.3c0-0.1,0-0.2,0-0.3c0,0.1,0.2,0.3,0.2,0.3  c0,0,0.1-0.2,0.1-0.2c0.1,0,0.2,0.3,0.3,0.1c0.1,0,0.1,0.1,0.1,0.1c0.1,0,1.1-0.4,1.1-0.4c0.1-0.1,0.4-0.3,0.4-0.2  c0.1-0.1,0.1-0.2,0.2-0.3c0.1,0.2,0.2,0.2,0.2,0.3c0.2-0.1,0.5-0.4,0.5-0.3c0.7-0.5,1.4-0.2,1.9,0.3c0,0,0.1-0.3,0.2-0.2  c0.1,0.2-0.1,0.8,0.4,0.5c0,0-0.1,0.1-0.1,0.1c0.2,0.2,0.2-0.1,0.4-0.1c0,0.1,0,0.2,0.1,0.3c-0.1,0.1,0.3,0.2,0.4,0.2  c0-0.1-0.1-0.2-0.1-0.3c0.3-0.1,0.5,0,0.7-0.3c0.6,0.3,1.1,0.3,1.3,1c0.2,0.6,0.3,1.5,0.1,2.2c-0.2,0.6-0.9,1.1-0.9,1.7  c0,0,0.1,0.6,0.2,0.6c0.1,0.4,0.5,0,0.5,0.3c0.6,0.2,0.9,0.1,1.4-0.1c0.2-0.1,0-0.3,0.4-0.2c0.4,0.1,0.1,0.1,0.1,0.3  c0,0.1-0.1,0.4-0.1,0.5c0,0.2,0.3,0.4,0.3,0.6c0,0.5-0.2,0.3-0.5,0.3c-1,0-1.3,0.1-1.8,0.9c-0.1,0.1-0.4,0.7-0.6,0.7  c-0.4-0.1,0-0.5,0-0.6c0.3-0.6,0.9-1,1.5-1.1c0.3,0,0.8,0,0.8-0.4c-0.1-0.5-0.6-0.2-0.9-0.2c-0.5,0-2.8-0.8-3.4-1.1  c-0.3-0.1-0.6-0.5-0.9-0.5c-0.1,0-0.2,0.2-0.4,0.2c-0.2,0-0.2-0.1-0.4-0.2c-0.2,0.1-0.4,0.4-0.5,0.5c-0.1,0.2,0,0.5-0.1,0.6  c-0.2,0-0.6-0.3-0.8,0.1c0.1,0.2,0,0.4,0.1,0.6c0.1,0.2,0.3,0.3,0.4,0.4c0,0.1,0,0.2,0,0.3c0,0.1,0.8,0.3,0.6,0.5  c-0.3,0.1-0.2-0.1-0.4-0.2c-0.1,0-0.3,0-0.4,0c-0.1,0-0.2,0.1-0.4,0.1c-0.1-0.1-0.2-0.3-0.2-0.3c-0.5-0.4-1.1-0.3-1.6-0.7  c0,0-0.1,0.2-0.1,0.2c0,0.1-0.1,0.1-0.1,0c-0.5,0.3,0.2,1,0.4,1.1c0.3,0.2,0.5,0.2,0.7,0.5c0.2,0.3,0.1,0.7,0.2,1  c0.2,0.7,0.5,1.3,0.4,2c-0.2,0.8,0.2,0.2,0.8,0.7C13,63,13,63.6,13,63.7c0.3,0.5,0.5,0.2,0.9,0.4c0.2,0.1,0.1,0.2,0.3,0.3  c0.1,0.1,0.4,0,0.5,0.1c0.3,0.2,0.6,0.4,0.3,0.8c0,0-0.3-0.6-0.3-0.6c0,0.4,0.2,0.6,0,1.1c-0.1,0.3-0.5,0.5-0.6,0.7  c-0.3,0.4,0,0.7,0,0.9c0,0-0.2,0.4-0.2,0.5c0.9-0.6,1.4-1,2.4-1.2c0.5-0.1,1.2-0.1,1.7-0.1c0.6,0,1.1,0.6,1.5,1  c0.5,0.5,1.2,2.4,1.5,2.8c0.2,0.3,0.1,0.4,0.6,0.4c0.3,0,0.7-0.1,0.9-0.1l1.7-12.3l6.3-1.2l5.4,4.3c0.3,0.2,0.2,0.5,0.4,0.8l0,0  l2,2.6l2.9-0.3l3,0.4l1.2-0.6l0,0l0.8,1l0.6,0.4l0.7,1.5l0.8-0.4L48.1,69L48,69l0,1.4l1.3,0l0.1,0.9l0.4,1.9c0,0,1.2,0.3,1.8,0.1  s0.7-0.2,1,0l0,0c0.1,0,0.1-0.1,0.2-0.1c0.1,0.1,0.2,0.3,0.3,0.5c0,0,0,0,0,0c0,0,0,0,0,0c0,0,0,0,0,0c0,0,0,0,0,0c0,0,0,0,0-0.1  c0,0,0.1,0,0.1,0c0,0,0,0,0,0c0,0,0,0,0,0l0,0c0,0-0.1,0-0.1,0c0.1,0.1,0.1,0.2,0,0.3l0,0l0,0c0,0.2-0.1,0.3-0.3,0.4l0,0  c0.4,0.1,0.8,0.5,1.2,0.7c0,0,0,0,0-0.1c0,0,0,0,0.1,0c0,0,0,0,0-0.1c0.1,0,0.1,0.1,0.2,0.1c0,0,0.1,0,0.1-0.1c0,0,0,0-0.1,0  c0,0,0-0.1,0.1-0.1c0,0-0.1-0.1-0.1-0.2l0,0l0,0c0,0-0.1,0-0.1,0c0-0.1,0-0.3-0.1-0.4c0.1,0,0.1-0.1,0.1-0.2c0,0,0,0,0,0  c0,0,0-0.1,0-0.1c0.4-0.1,0.3-0.5,0.6-0.6c0-0.1,0-0.1,0.1-0.2c0.2,0,0.3-0.1,0.4-0.2c0-0.2,0-0.3,0-0.5c0,0-0.1,0-0.1-0.1  c0.1,0,0.1-0.1,0.2-0.1c0,0,0.1,0,0.1,0c0,0,0-0.1,0-0.1c0.1,0,0.2-0.1,0.2-0.2c0,0,0.1,0,0.1,0l0,0c0.1-0.1,0.2-0.1,0.3-0.1  c0,0,0,0,0,0c0,0,0-0.1-0.1-0.1c0.3-0.6,1.3-0.4,1.5-0.9c0,0,0.1,0,0.1,0c0,0,0.1-0.1,0.1-0.1c0.2-0.1,0.9-1.5,1.1-0.8  c0.3,0.2,0.3-0.3,0.5-0.4c0.2-0.1,0.4-0.1,0.6-0.3c-0.4,0,0.1-0.8,0.2-0.9c0.3-0.5,0.5-0.8,1.1-1c1.5-0.4,2.8,0.3,3.2,0.5  c0.3,0.1,0.5,0.1,0.8,0.1c0.3,0.1,0.7,0.5,0.9,0.1c0.1-0.1-0.1-0.5-0.1-0.7c0-0.3,0-0.7,0.1-1c0.2-0.4,0.7-0.8,1.1-0.9  c0.1,0,1.7,0.5,2.3,0.7c0.6,0.2,1.3,0.1,1.9,0.3c0.2-0.2,0.1-0.4,0.3-0.5c0.2-0.1,0.4-0.1,0.5-0.1c0.5,0,0.9,0.1,1.4-0.1  c1.7-0.4,4.7-0.3,5.6-0.3c0.5,0,0.7-0.1,1.1,0.2c0.3,0.2,0.4,0.5,0.8,0.6c0.4,0.1,0.7,0,1.1,0.2c0.2,0.1,0.5,0.5,0.8,0.4  c0.3-0.2-0.5-1.3-0.3-1.7c0.1-0.3,0.3-0.2,0.5-0.4c0.3-0.4,0,0,0-0.3c0-0.6,0.7-0.8,0.7-0.8s-0.3-1.1-0.4-1.2  c-0.1-0.3-0.4-0.6-0.6-0.9c-0.3-0.5-1.5-2.7-0.7-3c-0.3-0.5-1.5,0.1-1.6-0.3c-0.1-0.3,2.5-1.4,2.7-1.5C84,56.5,85,56,85.1,56  s0.2,0.3,0.4,0.4c0.3,0.1,0.3,0,0.6-0.2c0.4-0.2,0.3-0.1,0.6,0c0.3,0.1,0.3,0.2,0.5-0.1c0.1-0.2,0-0.6-0.1-0.8  c-0.2-0.1-0.6,0.1-0.8-0.1c-0.2-0.3,0.2-1.3,0.2-1.7c0-0.6,0.1-1.1,0.2-1.7c0.1-0.3,0-0.8,0.2-1.6c0-0.3-0.3-1.2,0.2-1.1l0,0  c0.2,0.1,0.5,0.2,0.8,0.2c0.7,0.2,1.1,0.1,1.7-0.1c0.4-0.1,1.6-0.4,1.3,0.3c0.4-0.1,0.5-0.4,0.7-0.6c0.1-0.1,0.2-0.2,0.2-0.4  c0.1-0.1,0.1-0.1,0.2-0.1c0.2-0.1,0.3-0.1,0.5-0.2l0,0c0-0.1,0-0.2,0-0.3c0,0,0-0.1,0-0.1c0-0.1,0.2,0,0.2-0.2  c0-0.3-0.2-0.4-0.3-0.7c-0.2-0.5-0.5-1.2-0.6-1.8c0-0.4-0.1-1.3,0.3-1.5c0.3-0.1,0.8-0.1,0.9-0.3c0.1-0.2,0.4-0.2,0.6-0.4  c0-0.3,0.2-0.4,0.2-0.7C94.1,42,93.6,41.8,93.8,41.3z"/></svg>