<svg xmlns="http://www.w3.org/2000/svg" xmlns:xlink="http://www.w3.org/1999/xlink" version="1.1" x="0px" y="0px" viewBox="10 0 80 100" fill="#999999" enable-background="new 10 0 80 100" xml:space="preserve"><path d="M81.986,74.128l-0.297-0.097l-0.267-0.021l-0.116,0.134l-0.086,0.198l-0.201,0.101l-0.234,0.072l-0.182,0.099l-0.131,0.222  l-0.121,0.313v0.222l0.219-0.048l0.02,0.121l0.045,0.097l0.078,0.062h0.121l0.037-0.104l-0.076-0.065l-0.105-0.066l-0.051-0.07  l0.025-0.139l0.066-0.086l0.088-0.012l0.088,0.065l0.369-0.192l0.178-0.061l0.129-0.016l0.012,0.021l0.033,0.043l0.055,0.048  l0.07,0.019l0.059-0.012l0.027-0.024l0.02-0.022l0.031-0.013l0.062-0.031l0.036-0.082l0.019-0.116l-0.01-0.106l0.133,0.217  l0.185-0.037l0.071-0.202l-0.192-0.313L81.986,74.128z M89.033,15.198l-0.441-0.091l-0.436-0.229l-0.469-0.15l-0.42,0.242L87.125,15  l-0.141-0.025l-0.262-0.107l-0.156-0.013l-0.793,0.192l-0.26,0.019l-0.498,0.139l-1.109,0.061l-1.01,0.06l-0.517-0.06L81.9,15.074  l-0.439-0.344l-0.633-0.882l-0.26-0.24L80.41,13.51l-0.473-0.155l-0.183-0.091l-0.103-0.102l-0.163-0.307l-0.242-0.274l-0.597-0.404  l-0.221-0.281l-0.623,0.408l-0.82,0.313l-1.045,0.395l-1.276,0.493l-0.058,0.056l-0.059,0.155l-0.053,0.048l-0.779,0.271  l-1.002,0.348h-0.029l-0.028-0.006l-0.027-0.018l-0.096-0.006l-0.009,0.035l0.007,0.061l-0.046,0.06l-0.446,0.222l-0.959,0.464  L70.23,15.6l-0.849,0.403l-0.196,0.246l-0.195,0.516l-0.275,0.72l-0.164,0.307l-0.189,0.246l-0.774,0.71l-0.649,0.587l-0.256,0.307  l-0.216,0.655L66.3,20.554l-0.315,0.019l-0.158-0.107l-0.074-0.126l-0.051-0.139l-0.088-0.107l-0.303-0.102l-1.236-0.037l0.092-0.18  l-0.047-0.102l-0.127-0.013l-0.447,0.259l-0.377,0.013l-0.385-0.085l-1.018-0.464l-0.097-0.022l-0.567,0.12h-0.154l-0.146-0.054  L60.633,19.4l-0.416,0.079l-0.258,0.006l-0.736-0.198l-0.975-0.266l-0.18-0.095l-0.156-0.157l-0.268-0.348l0.006,0.06l-0.017,0.139  l0.003,0.073l-0.576-0.044l-0.054-0.035l-0.01-0.054l-0.021-0.031l-0.141,0.056l-0.053,0.005l-0.129-0.011l-0.137-0.037  l-0.041-0.061l-0.019-0.078l-0.082-0.089l-0.187-0.157l-0.053-0.023l-0.094,0.042l-0.021,0.079l0.008,0.088L56.02,18.4l-0.506,0.221  l-0.553,0.048l-1.057-0.12l-1.051-0.119l-0.31,0.024L52.23,18.53l-0.119-0.017l-0.229-0.198l-0.295-0.091l-0.127-0.07l-0.152-0.181  l-0.254-0.397l-0.181-0.186l-0.304-0.192l-0.987-0.631l-0.94-0.606l-1.021-0.647l-0.906-0.584l-0.801-0.509l-1.128-0.727  l-0.964-0.612l-0.965-0.619l-0.533-0.343l-0.059-0.017l-0.061,0.006l-0.051-0.013l-0.031-0.054l-0.053-0.224l-0.036-0.089  l-0.066-0.091l-0.075-0.022l-0.197,0.01l-0.07-0.041l-0.157-0.265l-0.096-0.07l-0.403-0.092l-0.703-0.354l-0.59-0.163l-1.905,0.019  l-0.083-0.023l-0.147-0.084l-0.084-0.019l-1.546,0.03l-1.838,0.035l-0.128-0.019l-0.18-0.082l-0.098-0.031l-0.104,0.006  l-0.342,0.044l-1.483,0.01l-0.226-0.054l-0.209-0.132l-0.385-0.336L30.74,9.698l-0.06-0.144l0.004-0.161l0.029-0.199l-0.009-0.192  l-0.132-0.233L30.554,8.6l-0.9-0.949l-0.446-0.48l-0.244-0.408L28.88,6.286V6.28l0.041-2.059l0.05-0.126l0.381-0.475l0.078-0.198  V3.218l-0.089-0.24l-0.196-0.372l-0.029-0.19l0.066-0.229l0.268-0.383l-0.048-0.091L28.86,1.5l-0.65-0.395l-0.252-0.066L27.775,1.08  l-0.178,0.079l-0.233,0.054l-0.24-0.066l-0.426-0.342l-0.226-0.132l-0.177-0.048l-0.207-0.024h-0.209l-0.178,0.037L25.487,0.78  l-0.403,0.438L24.86,1.374l-0.238,0.037L24.44,1.32l-0.149-0.161l-0.322-0.512L23.93,0.558l0.01-0.126l0.07-0.102l0.087-0.104  l0.058-0.113L24.113,0l-0.549,0.534L23.016,1.07l-0.551,0.54l-0.546,0.54l-0.55,0.533L20.82,3.217L20.273,3.76l-0.551,0.534  l-0.549,0.54l-0.548,0.533L18.077,5.91l-0.55,0.533l-0.549,0.54l-0.55,0.534l-0.547,0.534l-0.55,0.542l-0.997,0.984l-1,0.983  l-0.999,0.984l-0.997,0.991l0.285,0.139l0.224,0.174l0.122,0.228l-0.015,0.303l0.012,0.13l0.09,0.109l0.109,0.102l0.083,0.114  l0.028,0.113l0.005,0.114l-0.029,0.229l-0.037,0.137l-0.044,0.091l-0.004,0.102l0.077,0.157l0.12,0.107l0.143,0.095l0.113,0.114  l0.025,0.163l-0.104,0.253l-0.127,0.228L12.4,15.905l0.229,0.084l0.155-0.03l0.393-0.144l0.19,0.007l0.22,0.113l0.024,0.133  l-0.107,0.13l-0.472,0.247l0.021,0.056l0.153,0.054l0.124,0.148l-0.196,0.127l-0.064,0.078l0.124,0.048l0.083-0.007l0.172-0.047  l0.194-0.013l0.196-0.054l0.104-0.006l0.007,0.047l0.221,0.284l0.149,0.395l0.113,0.061l0.046-0.035l0.043-0.098l0.104-0.095  l0.27-0.079l0.178,0.072l0.318,0.344l0.187,0.096l0.187,0.054l0.145,0.097l0.066,0.203l-0.024,0.792l-0.094,0.392l-0.188,0.287  l-0.091,0.048l-0.102,0.024l-0.089,0.042l-0.056,0.085l0.006,0.107l0.124,0.211l0.042,0.107l-0.017,0.096l-0.1,0.239l-0.029,0.11  l0.025,0.12l0.078,0.102l0.092,0.101l0.074,0.11l0.126,0.389l0.098,1.208l0.107,0.228l0.207,0.133l0.468,0.133l0.207,0.13  l0.115,0.211l0.285,1.49l0.1,0.167l0.314,0.348l0.149,0.234l0.089,0.091l0.135,0.035l0.062-0.017l0.112-0.091l0.039-0.019  l0.025-0.017l0.043-0.079l0.024-0.019l0.038,0.019l0.022,0.035l0.017,0.037l0.019,0.018l0.019,0.024l0.279,0.132l0.054,0.013  l0.066,0.083l0.039,0.091l0.201,0.619l0.15,0.853l0.416,0.864l0.096,0.089l0.134,0.007l0.081-0.072l0.066-0.077l0.089-0.019  l0.099,0.139l0.057,0.486l0.058,0.187l0.269,0.275l0.092,0.167l-0.027,0.224l-0.146,0.174l-0.199,0.113l-0.178,0.139l-0.087,0.24  l0.064,0.392l0.561,1.345l0.447,1.067v0.187l-0.094,0.438l-0.014,0.192l0.012,0.203l0.041,0.198l0.071,0.168l0.087,0.104  l0.231,0.215l0.05,0.114l-0.037,0.104l-0.185,0.233l-0.044,0.12l-0.01,1.91l-0.061,0.209l-0.313,0.662l-0.071,0.113l-0.1,0.089  l-0.1,0.048l-0.207,0.044l-0.1,0.047l-0.227,0.338l-0.209,0.792l-0.588,0.48l0.037,0.348l0.172,0.401l0.104,0.391l-0.125,0.397  l-0.313,0.143l-0.815,0.085l-0.205,0.12l-0.337,0.325l-0.48,0.107l-0.066,0.18l-0.017,0.222l-0.107,0.18l-0.207,0.038l-0.159-0.092  l-0.163-0.035l-0.203,0.199l-0.098,0.174l-0.082,0.196l-0.052,0.211l-0.005,0.438l-0.058,0.205l-0.259,0.629l-0.283,0.366  l-0.14,0.399l-0.17,0.148l-0.636,0.319l-0.08,0.085l-0.061,0.348l-0.161,0.426l-0.235,0.253l-0.321,0.161l-0.401,0.145l-0.292,0.199  l-0.169,0.3l-0.249,1.004l-0.028,0.082l-0.07,0.104l-0.17,0.203l-0.046,0.091l0.013,0.18l0.112,0.354l-0.029,0.206l-0.085,0.127  l-0.356,0.274l-0.879,1.164l-0.575,0.765l-0.029,0.189l0.307,1.01l0.307,1.01l0.01,0.384l-0.182,1.557l-0.234,2.022l-0.165,1.412  l0.037,1.338l0.058,1.998h0.754l0.038-0.006l0.153,0.006l0.019,0.26l0.135,0.085l0.366,0.028l0.741,0.41l2.123,1.176l2.122,1.178  l2.123,1.177l2.123,1.179l2.123,1.181l2.121,1.178l2.121,1.179l2.123,1.176l2.123,1.177l2.119,1.177l2.122,1.178l2.123,1.185  l2.123,1.175l2.123,1.178l2.123,1.178l2.123,1.185l0.814,0.448l0.153,0.24l0.173,1.069l0.221,1.332l-0.182,0.013l-0.097,0.086  l-0.035,0.135l0.015,0.177L47.66,87l-0.236,0.126L47.203,87.3l-0.143,0.164l-0.051,0.082l-0.05,0.116l-0.024,0.113l0.018,0.103  l0.07,0.071l0.16,0.02l0.053,0.076l-0.039,0.164L47.118,88.4l0.028,0.137l0.473-0.028l0.211,0.017l0.209,0.057l0.188,0.089  l0.137,0.126l0.074,0.157l0.172,0.606l0.1,0.195l0.135,0.182l0.54,0.385l0.845,0.6l0.842,0.605l0.845,0.608l0.844,0.606l0.845,0.6  l0.846,0.606l0.842,0.606l0.846,0.605l0.842,0.6l0.845,0.606l0.846,0.608l0.843,0.605l0.844,0.605l0.844,0.601l0.846,0.606  l0.84,0.607l0.031-0.04l0.033-0.013l0.035-0.008l0.041-0.013l0.192-0.143l0.185-0.277l0.211-0.204l0.289,0.084l0.059-0.145  l0.01-0.055l0.238,0.291l0.377,0.095l0.33-0.054l0.1-0.134l-0.152-0.215l-0.021-0.085l0.029-0.138l0.063-0.007l0.067,0.037  l0.049,0.006l0.08-0.15l0.06-0.148l0.072-0.14l0.127-0.103l0.036,0.144l-0.032,0.288l0.063,0.184l0.338-1.018L65.826,98l0.141-0.127  l0.031-0.061l-0.008-0.119L66,97.643l0.082-0.109l0.084-0.09l0.088-0.006l0.086,0.133l0.109-0.283l0.326-1.207l0.313-0.805  l0.496-0.84l0.037-0.24l-0.195-0.18l-0.348-0.103l-0.326,0.022l-0.146,0.192l-0.041-0.103l-0.021-0.098l-0.004-0.209l0.037-0.066  l0.088-0.012l0.11,0.006h0.103l0.31-0.071l0.094-0.079l0.074-0.18l-0.262-0.061l-0.117-0.049l-0.099-0.09l0.109-0.09l0.114,0.019  l0.252,0.138l0.174-0.144l0.015,0.133L67.523,93.4l0.067,0.121l0.076,0.054l0.065,0.221l0.097,0.056l0.086-0.049l0.088-0.106  l0.07-0.12l0.024-0.09l0.033-0.065l0.209-0.235l0.025-0.168L68.26,92.97l-0.219,0.013l-0.1-0.092l-0.045-0.088l-0.033-0.092  l-0.066-0.102l-0.037-0.099l0.063-0.075l0.219-0.121L68.04,92.65l0.201,0.151l0.28-0.051l0.254-0.24l0.798-2.19l0.021-0.307  l-0.025-0.147l-0.063-0.151l-0.108-0.078l-0.345,0.139l-0.139-0.041l-0.041-0.114l0.119-0.146L68.79,89.48l-0.117-0.09l-0.026-0.148  l0.074-0.182l0.104,0.084l-0.008,0.037l-0.039,0.088l0.264,0.02l0.047,0.013l0.131,0.144l0.045,0.031l0.215,0.096l0.086-0.018  l0.123-0.113l0.113-0.229l0.104-0.563l0.267-0.422l0.203-0.527l0.174-0.281l-0.021-0.061L70.486,87.3l-0.016-0.054l0.057-0.239  l0.008-0.09v-0.14l0.018-0.131l0.078-0.097l0.176-0.043l-0.018,0.14l-0.107,0.371l-0.078,0.168l0.176-0.028l0.134-0.104l0.239-0.275  l0.13-0.088l0.477-0.217l0.144-0.092l0.113-0.12l0.088-0.143l0.061-0.151l0.004-0.187l-0.107-0.354l0.006-0.133l0.338-0.479  l0.063-0.168l0.041-0.498l0.056-0.121l0.205-0.276l0.35-0.323l0.076-0.119l-0.01-0.109l-0.203,0.15l-0.207,0.024l-0.121-0.116  l0.055-0.263l-0.211-0.157l0.025-0.316l0.186-0.631l0.01-0.084l0.035-0.148l-0.01-0.066l-0.146-0.199l-0.02-0.071l0.043-0.169  l0.295-0.365l0.182-0.414l0.088-0.139l0.115-0.119l0.494-0.397l0.291-0.181l0.248-0.076l0.41-0.296l1.002-0.313l0.322-0.035  l0.313,0.072l0.295,0.133l0.302,0.066l0.344-0.126l0.604-0.717l0.459-0.19l0.31-0.217l0.27-0.271l0.117-0.228l-0.066-0.138  l-0.281-0.182l-0.063-0.143l0.066-0.109l0.018-0.063l-0.047-0.024l-0.082-0.031l-0.053-0.069l-0.027-0.093l-0.004-0.084l0.203,0.109  l0.207-0.18l0.223-0.266l0.25-0.133l0.141-0.028l0.07-0.025l-0.014-0.019l0.102,0.037l0.008,0.041l-0.014,0.049l0.039,0.078  l0.238,0.252l0.137,0.09l0.172,0.06l-0.322,0.164l0.029,0.107l0.221-0.041l0.244-0.302l0.111-0.252l-0.016-0.108l-0.096-0.138  l-0.125-0.092l-0.121-0.006l-0.109,0.02l-0.088-0.031l-0.123-0.246l-0.063-0.376l-0.019-0.724l-0.031-0.06l-0.071-0.017  l-0.072-0.024l-0.031-0.096l0.021-0.056l0.092-0.055l0.021-0.066l-0.03-0.154l-0.086-0.114l-0.129-0.03l-0.158,0.065l0.024-0.12  l-0.028-0.132l-0.064-0.149l0.119-0.139l0.092,0.038l0.09,0.106l0.104,0.055l0.181,0.139l0.187,0.606l0.182,0.136l0.211-0.263  l0.041-1.152l0.35-0.271l-0.148,0.221l-0.041,0.12l0.025,0.139l0.006,0.113l-0.096,0.278l-0.01,0.143l0.043,0.145l0.064,0.092  l0.092,0.065l0.133,0.063l0.156,0.013l0.104-0.113l0.104-0.133l0.268-0.106l0.195-0.215l0.123-0.08l0.084,0.008l0.387,0.095  l0.287,0.024l0.092-0.228L82.74,73.1l0.199-0.203l0.012,0.211l0.109,0.112l0.172,0.02l0.186-0.072l0.15,0.187l0.205-0.127  l0.354-0.426l0.563-0.51l0.213-0.132l0.048-0.175l0.356-0.535l0.752-0.768l0.033-0.818l-0.033-0.186l-0.119-0.216l-0.381-0.492  l-0.496-0.638l-0.502-0.635l-0.508-0.656l-0.484-0.625l-0.452-0.581l-0.546-0.696l-0.506-0.654l-0.491-0.625l-0.248-0.322  l-0.252-0.325l-0.253-0.323l-0.252-0.326l-0.01-0.742l-0.008-0.69l-0.01-0.696l-0.016-1.063l-0.012-1.07l-0.017-1.063l-0.015-1.067  l-0.008-0.66l-0.008-0.661l-0.014-0.804v-24.56l-0.012-1.328l-0.012-1.267l-0.005-0.523l0.142-0.275l0.338-0.331l0.813-0.799  l0.814-0.799l0.811-0.802l0.814-0.799l0.51-0.729l0.512-0.727l0.512-0.732l0.511-0.727l0.829-1.181l0.83-1.178l0.83-1.184  l0.828-1.184L89.033,15.198z"/></svg>