<svg xmlns="http://www.w3.org/2000/svg" xmlns:xlink="http://www.w3.org/1999/xlink" version="1.1" x="0px" y="0px" viewBox="-461 335 100 100" fill="#e0e0e0" style="enable-background:new -461 335 100 100;" xml:space="preserve"><path d="M-382.9,345.6l0.4,0.2l0.4-0.1l1.4-0.8l0.2-0.2l0.5-0.7l0.3-0.3l1.4-0.8l0.2-0.6l-0.8-0.1l-2,0.3l-0.6,0.3l-1.1,1.5  l-0.7,0.5l0.1,0.4L-382.9,345.6z M-366,376.4l-2.1-0.6l-0.9,0.1l-0.6,0.9l0.2,0.8l0.9,0.2h1.2l1,0.2l1.7,1.5l1,0.6l0.5-0.5l-0.2-1  l-0.8-1.1l-1-0.9L-366,376.4z M-376.4,345.8l-0.1,0.4l0.1,0.6l0.1,0.6l0.2,0.4l0.5,0.2l0.7-0.3l0.6,0.1l0.8,0.6l-0.2,0.5l-0.8,0.5  l-1,0.4l0.3,0.9l-0.4,0.4l-0.7,0.1l-0.6-0.1l-1.3-0.8l-0.7-0.1l-0.5,0.9l0.5,0l0.4,0.1l0.9,0.3l-0.3,2.1l-0.2,0.3l-0.6,0.2l-1.1,0.8  l-0.6,0.3l-1,0.7l0.4,0.6l1,0.6l0.6,0.7l2.2,4l1.8,4.4l1.3,1.6l2.3,0.2l2-1l1.9-1.8l1.6-2l1-1.8l0.4-2.7l-0.8-2.2l-8.2-11.7  l-0.7-0.5l-0.7-0.2l-0.7,0.1l-0.8,0.3l-0.7,0.5l-0.2,0.5l0.3,0.3L-376.4,345.8z M-361.6,430.9l-0.8-1.1l-0.4-0.8l-0.2-0.7l-0.2-2.9  l-0.1-0.6l-0.6,0.7l-0.7,0.4l-0.5-0.3l0-1.3h0.4l0.2,0.2l0.2,0.1l0.3-0.2l0.4-0.5l-0.5-0.3l-0.2-0.2l-0.1-0.3l0.1-0.5l0.3,0.3  l0.8,0.6l-0.3-1l-0.1-1.1l0.2-1.1l0.5-0.9l-2.2-0.5l-1.2-0.5l-0.5-0.8l-0.3-0.7l-1.4-2l-0.4-1.2l0.1-1.2l0.2-1.2l-0.1-0.9l-2-0.7  l-0.8-0.8l-2.6-3.9l-0.9-2l-2.6-8.7l0.1-1l0-0.9l-1.6-4.2l-0.1-1.8l0.2-3.4l-0.2-0.1l-2.2,0.1l-0.5-0.2l-0.8-0.7l-0.9-1.3l-0.6-0.6  l-0.5,0l-1.1,1.1l-3.3,2.4l-1.3,0.5l-1.7,0l-0.7-0.3l-0.3-0.8l0.2-1l0.7-1.4l-0.1-0.7l-0.8,0.5l-0.8,0.2l-2,0.1l-2,0.5l-0.6-0.1  l-0.6-0.3l-0.4-0.3l0.1-0.1l0.6-0.3l2.5-1.8l0.9-0.9l2.1-3l1.4-1.4l3.2-2l1.4-1.3l1.1-1.7l1.1-1.9l0.5-0.3l1.2,0l1.2,0.4l0.7,0.9h-1  l0.6,0.7l0.7,0.1l0.7-0.1l0.8,0.1l0.7,0.4l0.3,0.5l0.2,0.6l0.3,0.6l1.1,0.7l1.3,0.2l1.1-0.4l0.4-1.3l-0.4-1.3l-2.2-3.2l-1.2-2.7  l-0.9-2.7l-1.4,0.1l-1.6-2.2l-1.4-2.9l-0.7-2l-0.2-1.4v-2.2l-0.2-1.3l-0.5-1.2l-0.6-0.9l-0.4-1l-11.4-5.7l-3-0.6h-13.6l-3,0.4  l-8.5,3.5l-2.8,1.9l-1.8,2.6l-4.5,11.4l-1.9,3.6l-0.3,0.9l-0.2,1.8l-0.1,0.6l-1,2.3l-3.9,6.5l-1.5,4.1l-0.8,1.2l-3.4,3.7l-3.3,5.5  l-9.4,10.5l5.9,0.7l5.9,0.7l5.9,0.7l5.9,0.7l5.2,0.7l5.2,0.7l5.2,0.7l5.2,0.7l2.9,0.4h0l3.2,5.4l2.9,8l0.2,1.5l0.2,3.2l0.5,1.8  l0.7,1.8l0.8,1.4l1.1,1l1.2,0.8l1,1l0.4,1.6l2.8,0l9.3-0.1l9.4-0.1l9.4-0.1l9.4-0.1L-361.6,430.9z"/></svg>