<svg xmlns:dc="http://purl.org/dc/elements/1.1/" xmlns:cc="http://creativecommons.org/ns#" xmlns:rdf="http://www.w3.org/1999/02/22-rdf-syntax-ns#" xmlns:svg="http://www.w3.org/2000/svg" xmlns="http://www.w3.org/2000/svg" xmlns:sodipodi="http://sodipodi.sourceforge.net/DTD/sodipodi-0.dtd" xmlns:inkscape="http://www.inkscape.org/namespaces/inkscape" viewBox="0 0 100 100" fill="#e0e0e0" version="1.1" x="0px" y="0px"><g transform="translate(0,-952.36216)"><path style="color:#e0e0e0;font-style:normal;font-variant:normal;font-weight:normal;font-stretch:normal;font-size:medium;line-height:normal;font-family:sans-serif;text-indent:0;text-align:start;text-decoration:none;text-decoration-line:none;text-decoration-style:solid;text-decoration-color:#000000;letter-spacing:normal;word-spacing:normal;text-transform:none;direction:ltr;block-progression:tb;writing-mode:lr-tb;baseline-shift:baseline;text-anchor:start;white-space:normal;clip-rule:nonzero;display:inline;overflow:visible;visibility:visible;opacity:1;isolation:auto;mix-blend-mode:normal;color-interpolation:sRGB;color-interpolation-filters:linearRGB;solid-color:#000000;solid-opacity:1;fill:#999999;fill-opacity:1;fill-rule:nonzero;stroke:none;stroke-width:2.26481652px;stroke-linecap:round;stroke-linejoin:round;stroke-miterlimit:4;stroke-dasharray:none;stroke-dashoffset:0;stroke-opacity:1;color-rendering:auto;image-rendering:auto;shape-rendering:auto;text-rendering:auto;enable-background:accumulate" d="M 46.074219 28.166016 L 46.074219 28.167969 L 44.808594 28.208984 A 0.73630817 0.73630817 0 0 0 44.138672 28.699219 L 43.947266 28.626953 A 0.73630817 0.73630817 0 0 0 43.003906 29.052734 L 42.853516 29.441406 L 42.519531 29.378906 A 0.73630817 0.73630817 0 0 0 42.070312 29.433594 L 40.253906 30.287109 A 0.73630817 0.73630817 0 0 0 39.882812 30.679688 L 39.529297 31.558594 L 39.138672 32.261719 A 0.73630817 0.73630817 0 0 0 39.064453 32.78125 L 39.230469 33.521484 L 38.777344 34.552734 A 0.73630817 0.73630817 0 0 0 38.716797 34.802734 L 38.644531 35.972656 A 0.73630817 0.73630817 0 0 0 38.369141 35.869141 L 36.052734 35.501953 L 35.089844 35.285156 L 34.6875 34.621094 A 0.73630817 0.73630817 0 0 0 34.220703 34.283203 L 31.347656 33.628906 L 29.755859 33.115234 A 0.73630817 0.73630817 0 0 0 29.277344 33.125 L 28.886719 33.267578 L 27.853516 32.660156 A 0.73630817 0.73630817 0 0 0 27.578125 32.564453 L 26.462891 32.414062 A 0.73630817 0.73630817 0 0 0 26.041016 32.482422 L 24.939453 33.021484 L 23.699219 32.597656 A 0.73630817 0.73630817 0 0 0 23.210938 32.601562 L 21.988281 33.042969 A 0.73630817 0.73630817 0 0 0 21.617188 33.335938 L 20.916016 34.421875 A 0.73630817 0.73630817 0 0 0 20.910156 34.431641 L 20.724609 34.730469 L 20.449219 34.720703 A 0.73630817 0.73630817 0 0 0 19.734375 35.720703 L 19.810547 35.917969 A 0.73630817 0.73630817 0 0 0 19.482422 36.181641 L 18.916016 37.009766 A 0.73630817 0.73630817 0 0 0 18.841797 37.150391 L 18.427734 38.181641 A 0.73630817 0.73630817 0 0 0 18.386719 38.580078 L 18.46875 39.0625 A 0.73630817 0.73630817 0 0 0 19.291016 39.667969 L 20.685547 39.484375 L 20.943359 39.666016 L 19.230469 40.564453 L 18.251953 40.861328 A 0.73630817 0.73630817 0 0 0 17.734375 41.650391 L 17.755859 41.849609 L 17.128906 42.007812 A 0.73630817 0.73630817 0 0 0 16.71875 42.283203 L 15.042969 44.539062 L 12.902344 45.521484 A 0.73630817 0.73630817 0 0 0 12.861328 46.837891 L 14.207031 47.560547 L 15.775391 48.5 A 0.73630817 0.73630817 0 0 0 16.462891 48.537109 L 17.265625 48.164062 L 17.537109 48.552734 L 17.734375 50.160156 A 0.73630817 0.73630817 0 0 0 18.640625 50.785156 L 19.285156 50.626953 L 21.183594 51.201172 A 0.73630817 0.73630817 0 0 0 21.355469 51.232422 L 23.365234 51.34375 A 0.73630817 0.73630817 0 0 0 24.125 50.765625 L 24.347656 49.757812 L 24.951172 49.494141 A 0.73630817 0.73630817 0 0 0 25.326172 49.126953 L 25.794922 48.105469 L 25.806641 48.125 A 0.73630817 0.73630817 0 0 0 25.871094 48.214844 L 26.429688 48.923828 L 26.091797 49.669922 A 0.73630817 0.73630817 0 0 0 26.535156 50.673828 L 27.802734 51.087891 A 0.73630817 0.73630817 0 0 0 28.029297 51.123047 L 28.738281 51.123047 L 29.005859 51.982422 A 0.73630817 0.73630817 0 0 0 29.826172 52.490234 L 30.910156 52.314453 L 31.736328 52.847656 L 32.724609 54.015625 A 0.73630817 0.73630817 0 0 0 33.34375 54.273438 L 34.412109 54.189453 L 34.582031 54.263672 L 33.787109 54.673828 A 0.73630817 0.73630817 0 0 0 33.408203 55.162109 L 33.232422 55.929688 L 31.363281 55.453125 A 0.73630817 0.73630817 0 0 0 30.449219 56.251953 C 30.449219 56.251953 30.491138 56.762831 30.517578 57.207031 C 30.364702 57.091431 30.041016 56.845703 30.041016 56.845703 A 0.73630817 0.73630817 0 0 0 29.09375 56.898438 L 27.097656 58.783203 A 0.73630817 0.73630817 0 0 0 26.939453 58.998047 L 26.630859 59.636719 L 26.058594 59.941406 L 25.566406 59.640625 A 0.73630817 0.73630817 0 0 0 25.380859 59.560547 L 21.294922 58.402344 A 0.73630817 0.73630817 0 0 0 20.662109 58.515625 L 19.505859 59.355469 A 0.73630817 0.73630817 0 0 0 19.201172 59.951172 L 19.201172 60.693359 A 0.73630817 0.73630817 0 0 0 19.21875 60.845703 L 17.646484 61.007812 A 0.73630817 0.73630817 0 0 0 17.142578 61.285156 L 16.898438 61.597656 A 0.73630817 0.73630817 0 0 0 16.25 61.210938 L 7.9511719 61.210938 A 0.73630817 0.73630817 0 0 0 7.2148438 61.962891 A 0.73630817 0.73630817 0 0 0 6.4882812 62.300781 L 5.1113281 64.501953 A 0.73630817 0.73630817 0 0 0 5.0722656 65.208984 L 6.2285156 67.630859 A 0.73630817 0.73630817 0 0 0 7.0527344 68.033203 L 10.083984 67.353516 L 12.082031 68.199219 A 0.73630817 0.73630817 0 0 0 12.501953 68.244141 L 16.1875 67.572266 L 17.324219 68.378906 L 18.195312 69.457031 A 0.73630817 0.73630817 0 0 0 19.058594 69.669922 L 20.751953 68.939453 A 0.73630817 0.73630817 0 0 0 20.808594 68.912109 L 22.341797 68.091797 L 23.533203 67.611328 A 0.73630817 0.73630817 0 0 0 23.769531 67.984375 L 24.498047 68.603516 A 0.73630817 0.73630817 0 0 0 24.878906 68.773438 L 25.621094 68.871094 L 25.554688 69.039062 A 0.73630817 0.73630817 0 0 0 25.662109 69.765625 L 26.076172 70.289062 A 0.73630817 0.73630817 0 0 0 27.037109 70.460938 L 27.888672 69.941406 L 29.367188 71.589844 A 0.73630817 0.73630817 0 0 0 30.494141 71.552734 L 31.457031 70.326172 L 38.193359 69.628906 A 0.73630817 0.73630817 0 0 0 38.425781 69.564453 L 39.664062 68.990234 L 42.994141 68.777344 A 0.73630817 0.73630817 0 0 0 43.671875 68.175781 L 44.097656 65.865234 A 0.73630817 0.73630817 0 0 0 44.056641 65.453125 L 43.714844 64.615234 L 44.201172 62.269531 L 45.701172 61.964844 L 47.566406 62.259766 A 0.73630817 0.73630817 0 0 0 48.234375 62.017578 L 50.216797 59.751953 L 51.148438 59.751953 A 0.73630817 0.73630817 0 0 0 51.832031 58.742188 L 51.677734 58.359375 C 51.733864 58.369375 51.729854 58.369 51.787109 58.375 C 52.515935 58.4826 53.204334 58.595703 53.666016 58.595703 C 53.986378 58.595703 54.1266 58.501316 54.287109 58.416016 C 54.447617 58.331016 54.603253 58.228781 54.765625 58.113281 C 55.09037 57.882481 55.439378 57.593794 55.771484 57.308594 C 56.044929 57.073894 56.075083 57.035597 56.287109 56.841797 L 56.5 57.267578 L 56.400391 59.070312 A 0.73630817 0.73630817 0 0 0 57.203125 59.845703 L 59.419922 59.638672 A 0.73630817 0.73630817 0 0 0 59.568359 59.607422 L 62.705078 58.630859 L 63.433594 58.863281 A 0.73630817 0.73630817 0 0 0 64.324219 58.474609 L 65.068359 56.900391 L 65.402344 56.699219 A 0.73630817 0.73630817 0 0 0 65.75 55.966797 L 65.603516 54.923828 L 66.9375 53.917969 A 0.73630817 0.73630817 0 0 0 67.216797 53.46875 L 67.435547 52.302734 L 68.896484 52.083984 L 72.345703 52.787109 A 0.73630817 0.73630817 0 0 0 72.654297 52.777344 L 77.279297 51.730469 A 0.73630817 0.73630817 0 0 0 77.683594 51.484375 L 79.251953 49.599609 A 0.73630817 0.73630817 0 0 0 79.324219 49.492188 L 80.058594 48.205078 L 87.462891 44.289062 A 0.73630817 0.73630817 0 0 0 88.050781 44.537109 L 89.535156 44.46875 A 0.73630817 0.73630817 0 0 0 90.148438 44.087891 L 91.21875 42.130859 L 94.308594 41.9375 A 0.73630817 0.73630817 0 0 0 94.982422 41.044922 L 94.611328 39.339844 A 0.73630817 0.73630817 0 0 0 93.835938 38.761719 L 93.609375 38.779297 L 93.570312 38.558594 A 0.73630817 0.73630817 0 0 0 93.419922 38.222656 L 91.865234 36.283203 A 0.73630817 0.73630817 0 0 0 91.216797 36.011719 L 88.580078 36.279297 L 85.550781 33.388672 A 0.73630817 0.73630817 0 0 0 85.259766 33.21875 L 80.429688 31.732422 A 0.73630817 0.73630817 0 0 0 80.105469 31.707031 L 77.673828 32.070312 L 70.199219 31.404297 L 67.248047 30.966797 A 0.73630817 0.73630817 0 0 0 66.953125 30.982422 L 64.449219 31.636719 L 62.683594 31.953125 L 62.470703 31.816406 A 0.73630817 0.73630817 0 0 0 62.166016 31.707031 L 59.732422 31.40625 L 58.853516 31.257812 A 0.73630817 0.73630817 0 0 0 58.111328 31.587891 L 57.412109 32.675781 L 54.587891 32.193359 A 0.73630817 0.73630817 0 0 0 54.498047 32.185547 L 53.798828 32.152344 L 52.367188 31.251953 A 0.73630817 0.73630817 0 0 0 52.236328 31.1875 L 50.902344 30.677734 A 0.73630817 0.73630817 0 0 0 50.615234 30.628906 L 50.287109 30.640625 L 50.091797 30.273438 A 0.73630817 0.73630817 0 0 0 49.845703 30.005859 L 48.138672 28.890625 A 0.73630817 0.73630817 0 0 0 47.990234 28.816406 L 46.353516 28.210938 A 0.73630817 0.73630817 0 0 0 46.074219 28.166016 z " transform="translate(0,952.36216)"/></g></svg>