<svg xmlns="http://www.w3.org/2000/svg" xmlns:xlink="http://www.w3.org/1999/xlink" version="1.1" x="0px" y="0px" viewBox="-461 335 100 100" fill="#999999" style="enable-background:new -461 335 100 100;" xml:space="preserve"><polygon points="-361.6,398.6 -361.7,398.1 -361.7,397.5 -361.7,396.6 -361.7,396.4 -361.8,396.1 -362.6,395.2 -362.7,395   -362.7,394.8 -362.6,394.5 -362.3,394.1 -362.2,393.9 -362.3,393.6 -362.5,393.4 -363.6,392.9 -363.9,392.6 -364.1,392.2   -364.1,391.7 -364.1,390.5 -364.3,390.1 -365.6,389.1 -365.9,388.7 -365.7,388.3 -365.4,387.7 -365.1,387.1 -365.2,386.7   -365.5,386.5 -366,385.9 -366.3,385.6 -366.9,385.5 -367.5,385.6 -368.7,386.3 -369.1,386.1 -368.9,385.3 -367.9,383.3 -367.9,383   -367.9,382.5 -367.8,382.2 -367.7,381.9 -367.5,381.4 -367.4,381.1 -367.5,380.5 -367.8,380.2 -368.2,380 -368.4,379.5   -368.1,379.2 -366.8,378.5 -366.4,378.1 -366.3,377.6 -366.2,376.8 -366.1,375.4 -366.2,374.8 -366.4,374.4 -366.6,374.2   -368,373.4 -369,372.3 -370.4,371.6 -370.7,371.3 -370.7,370.8 -370.5,370.3 -370.6,369.7 -370.5,368.7 -372.9,368.8 -373.4,369   -375.6,368.2 -376.7,368.2 -377,368 -377.3,367.7 -377.8,366.9 -378.1,366.6 -378.6,366.5 -378.8,366.5 -379.1,366.5 -379.3,366.5   -379.4,366.3 -379.6,366.2 -379.9,366.3 -380.1,366.6 -380.2,367 -380.4,367.4 -380.7,367.6 -380.9,367.7 -382,367.6 -382.4,367.8   -382.9,368.1 -383.3,368.4 -383.4,368.6 -383.4,368.8 -383.5,368.9 -383.6,369 -383.8,369 -384,368.8 -384.2,368.7 -384.4,368.8   -384.6,369 -384.8,369.1 -385,368.8 -385.5,368.1 -385.7,367.9 -387,367.3 -387.6,366.9 -388,366.3 -389.3,364.2 -389.8,363.7   -391.3,362.4 -391.4,362.1 -391.5,361.5 -391.4,361.3 -391.3,361.1 -391.3,361 -391.3,360.7 -391.4,360.6 -391.6,360.5   -394.5,360.3 -394.8,359.9 -395,359.4 -395.1,358.9 -395.3,358.5 -395.5,358.5 -396.4,358.8 -396.8,358.9 -397.1,358.8   -397.4,358.6 -397.7,358.2 -397.8,358 -397.8,357.9 -397.8,357.7 -398,357.5 -398.1,357.4 -398.6,357.3 -399.1,357 -400,355.9   -400.5,355.6 -400.6,355.6 -400.7,355.7 -400.8,355.7 -400.9,355.6 -401,355.5 -401.2,355 -401.3,354.8 -401.5,354.6 -401.8,354.6   -401.9,354.8 -402,355.2 -401.6,355.9 -401.5,356.3 -401.8,356.7 -402.2,356.9 -402.4,356.9 -402.6,356.8 -402.8,356.2   -402.9,355.6 -403.1,355 -403.5,354.8 -404.1,354.8 -404.4,354.9 -404.7,355.1 -405.7,356.2 -406.1,356.4 -407.2,356.5   -407.5,356.7 -407.9,357.1 -408.3,357.1 -408.6,356.8 -409.1,356.7 -409.3,357 -409.5,357.7 -409.7,357.9 -410.6,358 -411.5,357.9   -411.8,358 -412.5,358.6 -413.1,358.9 -413.3,359.2 -413.5,359.8 -413.6,360 -413.9,360.2 -414.3,360.2 -414.9,360 -415.1,360.2   -415.2,360.6 -415.2,360.9 -415.2,361.5 -415,362.7 -415,363.2 -414.8,363.7 -414.2,364.7 -414.2,365 -414,366.5 -414.2,367.5   -414.2,368.2 -414.1,368.5 -414,368.7 -413.9,369.3 -413.9,370.3 -413.5,373.5 -413.5,374.7 -413.6,375.7 -413.9,376.4   -414.8,377.5 -415.1,377.7 -415.3,377.9 -415.3,378.2 -415.5,378.3 -415.8,378.5 -416.1,378.8 -416.2,379.1 -418.1,380.4   -418.6,380.5 -418.8,380.8 -419,381.1 -419.2,381.5 -419.8,382 -421,382.5 -423.3,383.1 -424.2,383 -424.8,382.8 -425,382.6   -425.7,381.6 -425.9,381.5 -427.1,381.3 -428.2,380.8 -428.9,380 -429.1,379.9 -429.3,379.8 -429.4,379.4 -429.8,377 -429.9,376.8   -430.1,376.6 -430.3,376.1 -430.4,375.2 -430.5,374.7 -430.6,374.3 -431,373.6 -431,373.3 -431,373 -431.1,372.9 -431.3,372.8   -431.7,372.7 -432.5,372.2 -433.6,371.3 -434.6,370 -437.6,367.3 -438.4,366.2 -438.5,365.8 -438.6,365.3 -438.5,364.2   -438.4,363.3 -438.3,363.1 -438.3,363 -438.3,363 -438.4,362.9 -438.6,362.8 -438.8,362.9 -439,363 -439.1,363.1 -439.4,363.1   -440,363.3 -446.7,366.9 -447.3,367.1 -449.8,367.3 -450.4,367.6 -450.9,368.1 -452.4,371.1 -453.4,372.4 -453.9,373.8 -454.1,374   -454.3,374.1 -454.5,374.4 -454.7,374.9 -454.8,375.3 -454.8,375.9 -454.8,377.6 -454.8,377.8 -454.9,378.1 -455,378.4   -454.8,379.1 -454.8,379.4 -454.8,380.4 -455,381.3 -455.2,382 -455.6,382.5 -456.4,383.3 -456.6,383.4 -456.7,383.6 -457.2,384.3   -457.4,384.6 -458.4,385.1 -458.5,385.4 -459.6,386.1 -459.8,386.6 -459.8,387 -459.7,387.5 -459.6,388 -459.7,390.1 -459.9,390.9   -460.4,392.4 -460.5,393.4 -460.6,393.5 -460.6,393.6 -460.6,393.9 -460.5,394.1 -460.4,394.1 -460.3,394.1 -460.1,394.2   -459.9,394.4 -459.8,394.5 -459.7,394.7 -459.6,395 -459.6,395.4 -459.5,395.6 -459.6,395.8 -459.6,396.2 -459.6,396.7   -459.4,397.2 -459.4,397.4 -459.5,397.5 -459.7,397.6 -459.8,397.5 -460.1,397.1 -459.9,396.7 -459.9,396.2 -460,396.1   -460.1,396.1 -459.9,395.7 -460,395.4 -460.1,394.8 -460.2,394.5 -460.4,394.3 -460.5,394.5 -460.5,394.9 -460.4,395.3   -460.5,395.6 -460.5,396.1 -460.5,396.4 -460.6,396.6 -460.7,396.8 -460.8,397.1 -461,397.5 -461,398 -461,398.5 -460.8,399.5   -460.8,399.7 -460.8,399.9 -460.8,400.2 -461,400.7 -461,400.9 -460.9,401.4 -460.8,401.9 -460.2,403.5 -460,404.3 -459.9,405.2   -459.9,405.3 -459.3,405.2 -458.5,405.2 -458,405.1 -457.8,404.6 -457.7,403.9 -457.4,403.1 -457.1,402.6 -456.6,402 -456.1,401.6   -455.7,401.4 -455.1,401.3 -454.9,401.3 -453,399.8 -452.5,399.5 -451.2,399.5 -445.6,396.8 -445,396.8 -444.7,397 -444.2,397.3   -443.9,397.4 -439.8,397.3 -438.9,397.5 -438.5,397.7 -437.9,398.4 -437.7,398.5 -437.5,398.4 -435.5,397.6 -434.6,397   -434.1,396.9 -433.6,397.1 -433.3,397.9 -432.8,399.1 -432.2,399.6 -431.5,399.4 -430.8,398.7 -430.9,398.4 -430.7,398.2   -429.1,397.9 -428.8,397.9 -426.4,398.9 -425.9,399 -425.1,398.5 -424.6,398.3 -423.7,398.4 -423.3,398.3 -423.2,398.4   -423.1,398.5 -423,398.7 -423.1,398.9 -423,399 -422.6,399 -421.6,398.8 -421.2,398.8 -419.5,399.4 -418.2,400.4 -417.7,400.7   -417.3,400.7 -416.9,400.7 -415.3,399.8 -414.8,399.7 -414.4,399.9 -413.5,400.5 -413.1,400.7 -412.6,400.5 -411.8,400   -411.5,399.7 -410.4,398.2 -409.9,397.8 -408.1,397 -408,397 -407.7,397.1 -407.5,397.1 -407.5,396.9 -407.4,396.6 -407.4,396.3   -407.2,396.1 -406.9,396.2 -406.7,396.7 -406.3,397.7 -406,399.2 -405.8,399.7 -405.7,399.9 -405.2,400.4 -405.1,400.7   -404.8,401.5 -404.4,402.2 -403.9,402.6 -399.1,403.4 -398.2,403.3 -397.5,403.6 -397.3,403.6 -396.4,403.6 -396.3,403.6   -396.2,403.9 -395.9,404.7 -395.8,405 -395.6,405.1 -394.8,405.7 -393.4,407.3 -391.4,408.7 -390.5,409.7 -389.1,410.8   -388.8,411.4 -388.5,412.1 -387.7,413.5 -386.9,414.1 -385,415 -384.2,415.3 -383.4,415.4 -383.1,414.9 -382.7,414.7 -382.4,414.7   -381.7,415 -381.3,415 -380.2,414.4 -380,414.1 -379.2,412.7 -378.4,411.7 -378,411.5 -376.2,411.2 -375.7,411.3 -375.4,411.5   -374.5,412.2 -374.1,412.4 -373.9,412.3 -373.2,411.7 -373,411.4 -372.6,411.8 -372.2,412 -371.7,412.2 -370,412.3 -369.6,412.3   -369.5,411.9 -369.4,411.4 -369.3,410.2 -368.9,409.1 -367.5,408.2 -367.1,407.4 -367,406.8 -366.6,406.4 -365.6,405.6   -365.5,405.3 -365.3,405 -365.2,404.7 -365,404.5 -364.8,404.4 -364.2,404.3 -363.7,404 -363,403.6 -362.5,403.3 -361.9,403.7   -361.7,403.2 -361.5,402.7 -361.4,402.1 -361.3,401.5 -361.2,401.2 -361.1,401.1 -361,400.9 -361,400.5 -361,400.3 "/></svg>