<svg xmlns="http://www.w3.org/2000/svg" xmlns:xlink="http://www.w3.org/1999/xlink" version="1.1" x="0px" y="0px" viewBox="-461 335 100 100" fill="#999999" style="enable-background:new -461 335 100 100;" xml:space="preserve"><path vector-effect="none" d="M-384.7,338.6l1.2,0.4l1.3,0l1.2-0.4l-0.2,1.9l-0.4,0.3l-0.5-0.4l-0.8-0.2l-0.8,0.5l-0.1,0.7l0.1,0.9  l-0.2,1l-1,0.8l-1.4,0.8l-0.8,0.9l0.6,1.2l0.1,0l0.1,0l0.1,0l0.1,0l1-0.3l1.5-0.1l1.4,0.1l0.7,0.3l0,0l0.3,1l0.5,0.8l0.7,0.6  l0.9,0.4l0.7,0.9l0.4,0.2l0.4-0.1l0.8,0.6l0.3,0.5l0,0.7l-0.2,1l-0.1,0.4l-0.2,0.3l-0.2,0.3l0,0.5l0.1,0.5l0.2,0.5l1.1,1.6l0.6,0.6  l0.4,0.2l0.4,0l0.3,0.1l0.3,0.5l-0.1,0.8l-0.5,0.7l-0.4,0.8l0.2,1.2l0.3,0.9l1.2,1.2l0.3,0.7l-1.4,1.6l-1.2,2l-2.3,2l-1,1.3  l-0.3,0.9l-0.1,0.7l-0.3,0.6l-0.8,0.4l-0.7,0l-1.1-0.4l-0.6,0l-1.1,0.6l-1.7,2.1l-2,1.8l-0.8,1l-0.7,1.1l-1.1,2.2l0.1,0.2l0.3,0.6  l0.3,0.4l1.5,1.2l2,0.3l0.9,0.5l0.1,1.3l-0.6,0.8l-1,0.2l-1.9-0.5l-2.6-1.3l-0.9-0.2l-0.8,0.3l-0.7,0.6l-0.8,0.5l-1.1,0l-0.4-0.3  l-0.7-0.8l-0.3-0.2l-1.8,1.1l-0.9,0.4l-0.9,0.2l-0.8,0.3l-0.5,0.7l-0.7,1.3l-1.7,1.4l-0.7,1l-0.3,0.7l-0.9,0.9l-0.4,0.5l-0.1,0.5  l0.2,1.1l-0.1,0.6l-0.2,0.2l-0.7,0.3l-0.2,0.2l-0.2,1.3l0.7,0.4l1.1,0.2l1.2,0.7l0.7,0.2l0.9,0.5l0.9,0.6l0.4,0.7l-0.2,1.1l-0.8,0.9  l-1,0.7l-1,0.4l-1.2,0l-1.2,0.4l-0.6,0.8l0.7,1.2l-0.8,1.9l-1.6,1.3l-1,0.6l-2.5,1.5l-0.8,0.9l-1,2l-0.8,0.9l-0.6,0.4l-0.7,0.3  l-0.7,0.2l-0.7,0.1l-0.9,0.2l-1.9,2l-1,0.8l-1.6,0.3l-0.5,0.5l0.2,1.1l0,0v0l0,0.2l-0.3-0.2v0h0l-0.6-0.5l-0.9-1.5l-0.3-0.4  l-0.6,0.1l-0.3,0.6l-0.3,0.8l-0.5,0.8l-0.4,1.3l-0.1,3l-0.3,1.6l-0.4,1l-1,1.7l-0.2,0.9l-1.6,0.1l-2.4,1l-2.9,0.8l-0.7-0.1l-0.5-0.6  l-0.4-0.7l-0.5-0.6l-0.6-0.5l-0.6-0.2h-0.6l-1.9,0.6l-0.4,0l-0.7-0.2l-0.3,0l-0.3,0.1l-0.6,0.4l-0.2,0.1l-4.1-0.3v-0.1l0.1-0.3  l-0.2,0l-0.1-0.1v-0.1l0-0.2l0.3-0.7l0.5-0.7l0.5-0.5l1.1-0.5l0.4-0.6l0.3-0.7l0.4-0.5l-0.3-0.4l0.3-0.1l0.2,0.1l0.2,0.4l1.5-3.3  l0.2-1.8l-1.1-1.5l1.1-0.8l0.8-1.1l1-2.7l0.1-0.8l0-1.6l0.2-0.8l0.9-1.4l0.3-0.7l-0.2-0.8l2.7-2l1.3-1.4l0.6-1.8l0.1-0.8l2-5.3  l-0.3-0.4l0.8-0.7l0.6-2.5l0.9-0.6l0-0.7l2-4.9l0.2-1.2l0.1-3l-0.2-0.7l-0.3-0.6l-0.2-0.5l0.3-0.5l0.6-0.2l0.7,0.1l0.6,0.3l0.3,0.3  h0.3l0.5-0.3l1.2,0.1l0.7-0.3l0.3-0.4l0.5-1.2l0.3-0.5l0-0.3l-0.1-0.1l-0.3,0l0.4-0.5l0.6-1.5l0.4-0.6l0.3-0.1h0.8l0.2-0.2l0-0.6  l-0.2-0.3l-0.3-0.2l-0.2-0.2l0-1.5l0.8-2.7l0.2-1.9l-0.2-0.7l-0.7-1.3l-0.2-0.9V365l0.2-0.5l0.7-0.5l0.2-0.3l0-1.9l0.2-1.9l0.6-1.6  l1.2-1l0.9,0.7l0.8-1.3l0.8-2l0.7-1.3l2.8-1.6l0.9-1.2l-0.9-1.5v-0.4l1,0.2l4.1-1l2.7-2.6l0.8-0.6l0.5-0.6l0.3-0.9l0-2.9l-0.1-1.3  l-0.3-1.1l-0.6-0.7l0.6,0l0.4,0.1l0.4,0.2l0.9,0.7l1.1,0.3l1.2,0l1.4-0.2l3.5,0.3l0.2-0.1l0.6-0.4l0.3-0.1l0.3,0.1l0.6,0.5l0.3,0.1  l3.1-0.2l0.5-0.2l0.5-0.5l0.2-0.6l0-1.2l0.2-0.5l1.1-0.7l0.8,0.5l1.2,2.2L-384.7,338.6"/></svg>