<svg xmlns="http://www.w3.org/2000/svg" xmlns:xlink="http://www.w3.org/1999/xlink" version="1.1" x="0px" y="0px" viewBox="-461 335 100 100" fill="#e0e0e0" style="enable-background:new -461 335 100 100;" xml:space="preserve"><polygon points="-362.8,410.9 -363,410.9 -363.2,410.9 -363.6,410.7 -363.8,410.4 -364,410 -364.1,409.6 -364.1,409.2 -363.7,409.4   -363.6,409.1 -363.6,408.2 -363.5,407.9 -363.2,407.7 -363.1,407.5 -363.4,407.2 -363.2,407.2 -362.7,407.2 -363,406.8   -363.2,406.3 -363,406 -362.5,406.1 -362.8,405.7 -363.6,404.1 -364.1,402.2 -364,401.4 -363.9,400.4 -364,399.6 -364.7,399.2   -364.8,399.9 -364.9,400.3 -365.1,400.5 -365.3,400.4 -365.5,400 -365.6,399.7 -366,399.7 -365.9,399.3 -366.1,399.3 -366.4,399.6   -366.7,399.7 -366.8,399.6 -367.1,399.2 -367.3,399.1 -367.1,398.8 -367.2,398.7 -367.8,398.4 -367.8,398.4 -368.3,398.2   -368.3,398.1 -368.8,398 -369.1,397.7 -369.4,397.4 -369.5,397.3 -369.8,397.6 -370.1,398.1 -370.4,398.3 -370.8,397.7   -371.1,397.4 -372,396.9 -372.4,396.5 -372.4,396.4 -372.4,395.7 -372.3,395.6 -372.1,395.4 -372,395.3 -372.1,395.2 -372.2,395.1   -372.3,395.1 -372.4,395 -372.5,394.5 -372.6,394.2 -372.8,394 -373,394 -373.3,394.1 -373.6,394.2 -373.6,394.3 -373.8,394   -373.9,393.5 -373.8,393 -373.7,392.5 -373.4,391.6 -373.5,391.2 -373.8,390.8 -374.9,389.9 -375,389.8 -375,389.6 -375.1,389.5   -375.2,389.4 -375.3,389.5 -375.4,389.5 -375.6,389.5 -377.1,389.1 -377.5,388.9 -377.9,388.8 -378.5,388.8 -379.6,388.9   -379.9,389.1 -380.4,389.3 -380.8,389.4 -381.1,389.4 -381.3,389.4 -381.5,389.2 -381.8,389.1 -382,389 -383.9,388.6 -384.1,388.5   -384.1,388.4 -384.1,388.2 -384.2,388 -384.3,387.8 -384.5,387.8 -384.6,387.8 -384.6,387.9 -384.7,387.9 -385,387.7 -385.2,387.5   -385.5,387.4 -385.8,387.6 -386,387.5 -386.3,387.5 -386.6,387.6 -386.9,387.9 -387.1,387.6 -387.1,387.4 -386.8,387.3   -386.7,387.1 -386.8,386.9 -387,386.5 -387,386.3 -386.9,385.9 -386.7,385.7 -386.7,385.6 -387,385.2 -387.8,384.8 -388,384.5   -388.2,384.4 -388.3,384.6 -388.4,385 -388.6,385.5 -388.9,385.7 -389.3,385.6 -390,384.6 -390.3,384.4 -390.6,384.3 -391.1,384.3   -391.4,384.3 -391.8,384.2 -391.2,383.5 -391.1,383.5 -390.8,383.4 -390.7,383.3 -390.6,383.2 -390.5,382.9 -390.6,382.9   -390.5,382.9 -390.1,382.6 -390.1,382.6 -389.8,382.3 -388,380.9 -385.4,378 -385.1,377.5 -384.8,376.8 -384.6,376.1 -384.6,375.8   -384.6,375.4 -384.7,375.3 -384.9,375.2 -385,375 -384.7,374.3 -384.7,374 -384.7,373.6 -384.7,373.2 -384.6,373 -384.1,372.6   -383.9,372.4 -383.8,371.8 -384.2,369.5 -384.3,368.9 -384.3,368.7 -384.5,368.5 -384.8,368.1 -384.9,368 -384.9,367.8   -384.9,367.5 -384.9,367.4 -385,367.2 -385.3,366.8 -385.4,366.6 -385.6,365.9 -385.7,365.6 -386.1,365 -386.3,364.7 -386.4,364.3   -386.7,362 -387.2,360.3 -387.6,359.5 -388.6,359 -389.3,358.5 -390.1,358 -390.5,357.4 -390.7,356.8 -390.6,355.9 -393.4,355.7   -393.6,356.2 -394.2,357 -394.4,357.4 -394.4,358.3 -394.4,358.4 -394.6,358.6 -394.6,358.8 -394.6,358.9 -394.5,359 -394.4,359   -394.3,359.1 -394.3,359.7 -394.4,360.1 -394.6,360.6 -395,361 -395.7,361.4 -395.8,361.5 -395.9,361.7 -396,362.2 -396.1,362.4   -396.2,362.6 -396.6,362.7 -396.9,362.9 -397.3,363.4 -397.5,363.7 -397.6,364 -397.6,364.4 -397.4,364.8 -397.3,365.3   -397.4,365.7 -397.7,365.9 -398.7,366.3 -399,366.3 -399.5,365.6 -399.8,365.4 -399.9,366 -400.2,365.9 -400.3,365.9 -400.4,366.3   -400.5,366.3 -401,366.4 -401.2,366.5 -401.6,366.5 -401.9,366.7 -402.2,367 -402.5,367.2 -402.9,367.3 -403.2,367.4 -403.5,367.5   -403.8,367.7 -403.6,366.9 -403.6,366.6 -404.1,366.3 -404.3,366.2 -404.3,365.8 -404.4,365.7 -405,365.7 -405.1,365.7   -405.7,365.1 -406,363.6 -406.4,363.2 -406.7,363.1 -407.5,363.3 -407.9,363.3 -408.1,363.1 -408.2,362.6 -408.4,362.4   -408.6,362.3 -408.8,362.3 -409.1,362.2 -409.5,362.2 -409.7,362.3 -409.8,362.3 -409.9,362.6 -410,362.7 -410.1,362.7   -410.5,363.2 -410.7,363 -411.2,362.2 -411.5,362.6 -412.2,363.3 -412.3,363.4 -412.4,363.3 -412.2,363.1 -412,362.8 -412,362.5   -412,362.2 -411.9,361.9 -411.6,361.7 -411.1,361.3 -410.6,360.5 -410.4,360 -410.5,359.7 -410.1,359.2 -409.9,358.9 -409.8,358.3   -409.7,357.9 -409.4,357.6 -409.2,357.4 -409.7,356.9 -409.7,356.1 -409.5,355.2 -409.2,354.6 -409.8,353.8 -410,353.4   -410.7,352.6 -411.2,351.6 -411.4,350.7 -411.4,349.6 -411.1,348.6 -411.1,348.7 -411.1,348.6 -411.1,348.6 -411,348.5   -410.9,348.3 -410.8,348.1 -410.9,347.8 -411,347.6 -411.3,347.3 -411.5,347.2 -411.8,347.4 -412.1,347.8 -412,347.5 -411.8,347.1   -411.7,346.8 -412.1,345.1 -412.1,344.8 -412.2,344.5 -412.5,344.4 -413,344.3 -413.4,344 -413.4,343.4 -413.3,342.7 -413,342.4   -412.9,342.2 -412.9,342.1 -412.9,342 -413,341.9 -413.2,341.7 -413.3,341.4 -413.4,341.2 -413.6,341 -413.3,340.7 -413.2,340.6   -413,340.5 -412.9,340.5 -412.6,340.3 -412.8,340.2 -412.9,340 -413.4,339.7 -414.5,339.2 -414.8,338.8 -415,338.7 -415.2,338.9   -415.3,339 -415.5,339.1 -415.7,339.1 -415.9,339.1 -416.3,339.1 -416.7,339.2 -416.9,339.1 -416.8,338.7 -416.6,338.4   -416.3,338.2 -416.1,337.9 -416.2,337.4 -416.5,337.1 -417,336.9 -417.5,336.9 -417.8,337.2 -417.8,337.7 -417.8,338 -417.9,338.1   -418.3,337.7 -418.5,337.3 -418.6,336.9 -418.8,335.8 -418.9,335.4 -419.1,335.1 -419.6,335 -419.5,335.3 -419.7,335.5   -419.8,335.7 -420,335.9 -420,336.1 -419.9,336.3 -419.9,336.4 -420.5,336.6 -421,336.8 -421.2,336.9 -421.3,336.7 -421.4,336.6   -421.5,336.5 -421.8,336.6 -422,336.7 -422.4,336.7 -422.8,336.7 -423.2,336.8 -423.6,337.1 -424.5,337.8 -425.5,338.3 -426,338.4   -426.3,338.3 -426.4,338 -426.2,336.9 -426.3,336.5 -426.7,336.3 -428,336 -428.4,336 -428.8,336.1 -429.6,336.9 -430,337.1   -430.2,336.7 -430.7,336.9 -430.9,336.9 -431.2,336.9 -431.2,338.2 -432,341.1 -432.4,342 -432.4,342.5 -432.2,343.2 -432.1,343.7   -432.1,344.1 -432.7,344.7 -433.2,344.9 -433.6,345.1 -434.1,345.1 -436,345.2 -436.5,345.2 -437.1,345.5 -437.4,345.9 -438,347   -438.2,347.2 -438.8,347.5 -439,347.7 -439.1,347.9 -439.2,348.2 -439.1,353.9 -439.6,354 -439.8,354.1 -440.9,354.7 -441.8,355.5   -445.2,359.6 -445.5,359.8 -445.8,360 -446.7,360.2 -447.7,360.7 -451.2,363.5 -453.2,366 -453.4,366.2 -455.3,367.1 -455.7,367.1   -456.6,368.4 -457,368.8 -457.1,368.9 -457,369.2 -456.7,369.7 -456.6,370 -456.6,370.2 -456.8,370.3 -456.9,370.4 -457.5,370.5   -457.5,370.6 -457.5,371.1 -457.5,371.5 -457.7,371.9 -457.9,372.3 -458.5,372.7 -458.6,373.1 -458.6,373.7 -458.8,373.8   -459.5,374.1 -458.9,375 -458.7,375.2 -458.3,375.6 -457.8,375.8 -457.4,376 -457.3,376.1 -456.9,376.7 -456.9,377 -457,377.2   -457.1,377.8 -457.1,378.7 -456.6,379.3 -453.7,380.6 -449.5,382.1 -445.7,384.1 -444.8,384.7 -444,385.6 -443.5,386.7   -443.3,386.5 -443.1,386.4 -442.8,386.3 -442.5,386.3 -443,386.9 -443.3,387.4 -443.2,388 -442.8,388.6 -443.1,388.6 -443.2,388.5   -443.4,388.3 -443.5,388.2 -443.7,388.6 -443.2,389 -440.1,390.5 -435.3,391.7 -434.6,392 -433.9,392.4 -433.6,392.9 -433.7,392.3   -434.3,391.9 -435.5,391.2 -435.5,391.1 -435,391.1 -434.7,391.3 -433.9,391.7 -433.5,392 -433.2,392.3 -432.9,392.6 -432.4,392.7   -432.5,392.9 -432.7,393 -432.9,393 -433.1,392.9 -433.1,393.2 -432.9,393.5 -432.5,393.7 -431.6,393.9 -431.1,394.1 -429.9,394.9   -428.9,395.9 -427.2,397.3 -427,397.4 -426.6,397.5 -426.2,397.7 -425.8,398 -425.6,398.4 -425.6,398.7 -425.7,399 -425.6,399.2   -425.5,399.4 -425,399.6 -424.9,399.8 -424,400.7 -420.8,403.4 -417.3,406.7 -414.9,408 -414.6,408.6 -414.6,408.8 -414.9,409.2   -414.9,409.4 -414.7,409.4 -414.1,409.5 -414,409.6 -413.6,409.6 -413.2,409.9 -412.8,410.1 -412.6,410.4 -412.4,410.8   -412.1,411.6 -412,412 -409.2,414.6 -408.7,414.8 -408.2,415 -407.7,415.3 -407.4,415.7 -407.7,415.7 -407.4,416.1 -407,416.3   -406.6,416.5 -405.8,417 -405,417.4 -404.6,417.7 -403.3,418.8 -402.4,419.3 -401.4,419.6 -401.5,419.7 -401.5,419.7 -401.5,419.7   -401.6,419.8 -401.1,420.1 -400.6,420.3 -400,420.5 -399.3,420.6 -398.8,420.8 -398.5,420.9 -397.8,421.2 -397.2,421.6 -395.5,423   -394.8,423.4 -391.5,424.6 -390.1,425.4 -387.5,427.2 -385,428.1 -384.6,428.2 -384.2,428.4 -383.2,429.5 -382.4,429.8   -379.5,430.1 -378,430.7 -377.2,430.8 -376.1,431.1 -375.7,431.3 -375.5,431.4 -375.3,431.6 -375.1,431.7 -374.7,431.8   -374.4,431.9 -373.8,432.3 -373.1,432.5 -372.9,432.8 -372.8,433.1 -372.6,433.4 -372.4,433.6 -372.1,433.8 -371.1,434.2   -370.8,434.2 -370.7,434.3 -370.6,434.4 -370.5,434.6 -370.3,434.7 -368.7,434.7 -368.4,434.7 -367.8,434.9 -367.4,435   -366.2,434.9 -367,434.3 -367.1,434.1 -367.1,433.8 -366.8,433.4 -366.8,433.1 -366.8,432.9 -367,432.4 -366.9,431.8 -367,431.6   -367,431.4 -367.1,431.2 -367,426.1 -367.1,424.9 -367.1,424.7 -367.3,424.5 -367.5,424.4 -367.6,424.2 -367.8,423.9 -367.8,423.7   -367.6,423.2 -367.6,423 -367.8,422.2 -367.8,422 -367,421.4 -366.7,421.5 -366.5,421.6 -366.4,421.6 -366.4,421.2 -366.6,420.8   -366.8,420.5 -366.9,420.2 -366.9,419.7 -366.9,419.7 -367.1,418.3 -367,417.9 -366.7,417.4 -366.4,417.3 -366,417.3 -365.6,417.4   -365,416.3 -364.8,415.8 -364.8,415.4 -365,414.3 -364.8,413.5 -364.7,413.3 -364.5,413.1 -363.9,412.8 -363.8,412.7 -363.6,412.8   -363.6,412.9 -363.7,413 -363.7,413.1 -363.6,413.2 -363.6,413.4 -363.6,413.5 -363.3,413.4 -363.2,413.3 -363.1,412.9   -363.1,412.7 -362.8,412.3 -362.6,412.1 -362.6,411.8 -362.7,411.4 "/></svg>