<svg xmlns="http://www.w3.org/2000/svg" xmlns:xlink="http://www.w3.org/1999/xlink" version="1.1" x="0px" y="0px" viewBox="0 6 100 100" fill="#999999" enable-background="new 0 6 100 88" xml:space="preserve"><path d="M15.567,7.444L15.8,7.519l-0.129-0.117L15.26,7.289l-0.105-0.118l0.305,0.145l0.679,0.189l1.474,0.788l0.262,0.229  l0.24,0.062L18.52,8.81l0.497,0.206l0.28,0.066L21.7,9.297l0.596-0.036l1.576-0.391l0.258-0.1l0.204-0.139l0.106-0.055l0.146-0.022  l0.437-0.015l0.596,0.091l0.071,0.03l0.065,0.048l1.248,0.563l0.286,0.06l1.072-0.04l0.271,0.035L29.17,9.46l0.479,0.177l1.162,0.17  l0.061,0.021l0.114,0.088l0.038,0.021l0.107,0.039l0.226,0.193l0.346,0.188l0.547,0.4l0.285,0.262l0.128,0.04l1.021,0.146  l0.101,0.047l0.097,0.073l0.274,0.128l0.128,0.035l1.161,0.043l1.284,0.196l0.284,0.089l0.139,0.021l0.087,0.035l0.235,0.27  l0.23,0.115l0.084,0.072l0.057,0.229l0.055,0.127l0.139,0.23l0.265,0.313l0.036,0.098l-0.012,0.133l-0.057,0.226l-0.027,0.401  l0.037,0.461l0.059,0.227l0.756,1.667l0.151,0.229l0.684,0.826l0.406,0.375l0.466,0.313l1.784,0.71l1.979,0.306l2.328,0.021  l1.347,0.255l1.377,0.407l1.071,0.203l0.225-0.001l0.057,0.022l0.045,0.027l0.23,0.104l0.18,0.147l0.066,0.033l0.058,0.021  l0.927,0.236l0.49,0.207l0.53,0.154l0.457,0.072l0.083,0.063l0.174,0.225l0.114,0.092l0.122,0.052l0.566,0.108l1,0.327l0.207,0.106  l0.174,0.141l0.558,0.566l1.539,0.989l0.346,0.342l0.188,0.147l0.414,0.194l0.265,0.046l0.123,0.052l0.916,0.521l0.265,0.099  l0.561,0.073l0.563,0.009l0.59-0.059l0.328-0.082l0.294-0.074l0.507-0.217l0.703-0.4l0.129-0.052l0.284-0.044l0.128-0.06  l0.836-0.564l1.041-1.083l0.276-0.421l0.151-0.183l0.229-0.158l0.114-0.097l0.397-0.73l0.295-0.696l0.035-0.269l-0.035-0.811  l-0.117-0.165l-0.155-0.414l-0.134-0.176l-0.276-0.247l-0.101-0.133l-0.426-1.024l-0.037-0.262l-0.006-0.278l-0.022-0.103  l-0.11-0.237l-0.038-0.117l-0.021-0.262l0.016-0.286l0.092-0.528l0.086-0.236l-0.014-0.063l-0.025-0.068l-0.011-0.068l0.028-0.062  l0.079-0.097l0.571-1.028l0.148-0.191l1.198-1.027l0.099-0.135l0.303-0.309l0.127-0.063l0.252-0.093l0.111-0.08l0.086-0.076  l0.918-0.62l1.475-0.536l0.867-0.502l0.735-0.313l0.288-0.055l1.198,0.063l0.284-0.021l0.521-0.117l0.25-0.122l0.971-0.744  l0.092-0.038l0.308-0.02l0.28-0.066l0.173,0.123l0.276,0.094l0.306,0.06l0.261,0.021l1.379-0.126l0.032-0.021l0.065-0.092  l0.031-0.021l0.139-0.021l0.068-0.003l0.074,0.023l0.051,0.038l0.01,0.033V8.49l0.025,0.063l0.199,0.178l0.256,0.046l0.58-0.008  l0.25,0.074l0.618,0.398l0.123,0.062l0.106,0.04l0.116,0.021l0.293,0.019l1.474,0.379l0.342,0.191l0.111,0.027l0.072,0.01  l0.209,0.072l0.085,0.011l0.216-0.011l0.145,0.039l0.263,0.113l0.284,0.038l0.125,0.042l0.078,0.066l0.015,0.089l-0.034,0.064  l-0.111,0.115l-0.022,0.059l0.062,0.384l0.062,0.099l0.095,0.078l0.129,0.065l-0.051,0.123l-0.078,0.397L87.1,11.79l0.022-0.061  l-0.015-0.053l-0.043-0.05l-0.058-0.052l-0.095,0.517l0.009,0.128l0.095,0.066l0.385,0.126l0.142,0.022l0.103,0.053l0.123,0.121  l0.103,0.137l0.08,0.189l0.086,0.043l0.101,0.025l0.077,0.038l0.05,0.071l0.059,0.137l0.062,0.05l-0.011-0.104L88.3,12.91  l0.123,0.04l0.272,0.005l0.058,0.02l0.177,0.126l0.04,0.021l0.792,0.058l0.874-0.012l1.076,0.215l0.997,0.349l-0.148,0.124  l-0.027,0.047l0.052,0.028l0.164,0.059l0.397,0.263l0.145,0.035l1.197-0.012l1.67,0.102l0.568-0.148l0.142-0.086l0.073-0.024  l0.254,0.043l0.051-0.012l0.048-0.024l0.048-0.011l0.053,0.026l0.023,0.017l0.076,0.04l0.089,0.02l0.124,0.058l0.206,0.029  l0.258,0.086l0.733,0.135l0.228,0.119l0.099,0.206l-0.057,0.251l-0.015,0.138l0.047,0.112l0.215,0.207l0.335,0.416l0.032,0.108  l0.093,0.178L100,16.451l-0.023,0.021l-0.01,0.021l-0.396,0.27l-0.178,0.215l-0.229,0.535l-1.024,0.719l-0.076,0.2l-0.002,0.23  l0.063,0.53l0.006,0.517l0.146,0.673l0.043,0.128l0.222,0.391l0.082,0.321l0.274,0.507l0.086,0.254L98.939,22.2l-0.094,0.216  l-0.078,0.252l-0.066,0.347L98.51,23.45l-0.021,0.125l-0.059,0.213l-0.123,0.216l-0.369,0.484l-0.189,0.168l-0.17,0.188  l-0.061,0.088l-0.105,0.216l-0.262,0.409l-0.101,0.221l-0.003,0.244l0.057,0.136l0.179,0.278l0.543,1.182l0.028,0.142l-0.008,0.125  l-0.105,0.328l0.042,0.263l0.323,0.475l0.092,0.259l-0.002,0.153l-0.057,0.457l0.016,0.243l0.062,0.218l0.522,1.107l0.111,0.339  l0.045,0.362v0.777v1.057v2.513v2.98v2.462v0.96v2.126v1.753v1.231v1.837v1.841v1.839v1.838v1.84v1.838v1.84v1.839v1.839v1.839  v1.839v1.838v1.84v1.84v1.839v1.839v0.783l-0.002,0.785v0.785v0.784v0.785v0.785v0.785v0.784v0.785l-0.002,0.785v0.785v0.785v0.598  l-0.002,0.6v0.601v0.601v0.742l-0.006,0.01l-0.006,0.01l-0.007,0.01l-0.007,0.01l-0.014,0.002l-0.014,0.002l-0.014,0.002  l-0.014,0.002h-0.636l-0.92-0.002h-0.771h-0.784l-0.843-0.002h-0.713h-0.537h-1.017v0.786v0.786v0.787v0.786l-0.778-0.386  l-0.777-0.383l-0.777-0.385l-0.777-0.386L88.7,91.195l-0.779-0.385l-0.776-0.386l-0.779-0.384l-0.778-0.384l-0.776-0.384  l-0.778-0.385l-0.778-0.386l-0.777-0.384l-0.778-0.385L80.92,87.35l-0.777-0.385l-0.779-0.384l-0.777-0.384l-0.777-0.385  l-0.779-0.386l-0.777-0.385l-0.777-0.384l-0.779-0.385l-0.776-0.386l-0.778-0.383l-0.777-0.385l-0.778-0.384l-0.778-0.385  l-0.777-0.386l-0.778-0.384l-0.778-0.385l-0.777-0.385l-0.778-0.385l-0.778-0.384l-0.777-0.384l-0.778-0.387l-0.778-0.383  l-0.777-0.385l-0.778-0.386l-0.778-0.384l-0.777-0.385l-0.778-0.385l-0.779-0.385l-0.776-0.385l-0.778-0.383l-0.778-0.387  l-0.777-0.384l-0.779-0.384l-0.778-0.385l-0.778-0.385L52.9,73.516l-0.778-0.385l-0.778-0.385l-0.777-0.385l-0.778-0.385  l-0.779-0.384l-0.776-0.384l-0.779-0.385l-0.778-0.385l-0.778-0.386L45.12,69.67l-0.779-0.385L43.564,68.9l-0.778-0.385  l-0.574-0.283l-0.129,0.017l-0.28,0.127L41.44,68.54l-0.363,0.166l-0.363,0.164l-0.362,0.164l-0.363,0.165l-0.364,0.164  l-0.363,0.166l-0.363,0.164l-0.364,0.166l-0.363,0.164l-0.363,0.164l-0.363,0.164l-0.364,0.164l-0.361,0.166l-0.363,0.164  l-0.364,0.165l-0.097,0.044l-0.012,0.006l-0.003,0.002l-0.004,0.002l-1.079,0.545l-1.077,0.543l-1.077,0.545l-1.078,0.544  l-0.398,0.2l-0.098,0.012l-0.092-0.044l-0.287-0.236l-0.788-0.649l-0.788-0.646l-0.788-0.648l-0.789-0.649l-0.354-0.292  l-0.739-0.383l-0.64-0.144l-0.556-0.124l-0.557-0.124l-0.556-0.122l-0.557-0.125l-0.556-0.125l-0.556-0.123l-0.557-0.125  L21.35,68.77l-0.556-0.123l-0.557-0.125l-0.557-0.123l-0.556-0.125L18.57,68.15l-0.558-0.127l-0.556-0.121L16.9,67.775l-0.481-0.898  l-0.441-0.822l-0.717-1.337l-0.454-0.849l-0.438-0.814l-0.162-0.193l-0.206-0.104l-2.26-0.684l-1.504-0.454l-1.201-0.364L8.9,61.232  l-0.137,0.014l-0.696,0.236L7.332,61.73l-0.25,0.022L6.965,61.71l-0.829-0.608l-0.113-0.115l-0.079-0.221l-0.11-0.584L5.715,60.01  l-0.938-0.502L4.698,59.34l-0.013-0.875l-0.028-0.891l-0.025-0.829l-0.085-0.4l-0.242-0.401l-0.963-1.217L2.567,53.75l-0.962-1.215  l-0.883-1.116l-0.147-0.351l0.156-0.297l0.088-0.102l0.115-0.251l0.215-0.185l0.055-0.09l0.024-0.107l0.007-0.126l2.226-0.955  l0.118-0.127l0.264-0.81l-0.015-0.135l-0.072-0.176l0.019-0.219l0.158-0.672L3.907,46.73l-0.1-0.076l-0.281-0.143l-0.069-0.057  l-0.061-0.123l-0.122-0.659l-0.534-1.68l0.003-0.104l0.029-0.104l0.104-0.248l0.083-0.371l0.09-0.134l0.271-0.266l0.051-0.121  l-0.061-0.13l-0.092-0.141l-0.021-0.132l0.154-0.101l0.178-0.085l0.105-0.126l0.447-1.312l0.01-0.248l-0.92-2.159L3.09,37.845  l0.468-3.267L3.54,33.384L3.4,32.421l-0.999-3.023l-0.744-1.223l-0.806-1.048l-0.704-0.729L0,26.191l1.469-0.704l1.41-0.646  l0.186-0.043l0.459-0.026l0.16-0.081l0.784-0.878l0.664-0.928l0.574-0.564l0.389-0.696l0.1-0.254l0.003-0.211L6.04,20.719  l-0.028-0.224l0.035-0.242l-0.009-0.117l-0.198-0.36l-0.192-0.664l-0.471-1.078l-0.012-0.109l0.067-0.411l0.099-0.146l0.402-0.385  l0.426-0.642l0.324-0.223l0.708,0.007l0.345-0.116l0.103-0.07l0.093-0.08l0.076-0.095l0.105-0.218l0.266-0.212l0.082-0.21  l0.054-0.505l0.142-0.129l0.118,0.014l0.113,0.055l0.115,0.039l0.123-0.032l0.212-0.146l0.228-0.12l0.207-0.176l0.254-0.5  l0.172-0.157l3.597-1.461l0.44-0.248l0.204-0.166l0.112-0.196L14.33,11.13l-0.146-0.227l-0.422-0.352l-0.129-0.243l-0.005-0.347  l0.093-0.665l-0.046-0.653l0.112-0.427l0.003-0.353l0.016-0.097l0.181-0.6l-0.006-0.282l0.135,0.027l0.215,0.07l0.094,0.05  l0.08,0.161l0.098,0.068l0.205,0.081L15.567,7.444L15.567,7.444z"/></svg>