<svg xmlns="http://www.w3.org/2000/svg" xmlns:xlink="http://www.w3.org/1999/xlink" version="1.1" x="0px" y="0px" viewBox="-461 335 100 100" fill="#999999" style="enable-background:new -461 335 100 100;" xml:space="preserve"><style type="text/css">
	.st0{fill-rule:evenodd;clip-rule:evenodd;}
</style><polygon class="st0" points="-411.4,355.9 -410.4,356.7 -409.8,355.9 -408.3,356.8 -407.9,357.6 -406.7,357.9 -406.3,358.1   -405.6,359.1 -404.4,360.8 -403.4,363 -401.6,364.6 -401.7,364.9 -401.9,365.4 -402.1,365.4 -402.8,367.7 -402.9,368.9   -403.4,369.2 -405.3,371.1 -405.1,372.3 -405,376.4 -404.8,376.6 -405.1,378 -407.1,379.2 -407.6,380.3 -407,380.5 -404.7,380.7   -403.2,380 -399.5,383 -397.9,383.7 -396.7,385.3 -396.8,386.5 -396,387.7 -396,388.7 -395.6,389.2 -395.2,389.8 -394.2,390.5   -393.3,390.6 -392.6,390.6 -391.5,389.7 -390.6,388.7 -390.2,388.9 -389.8,390.7 -389,391.2 -390,393.4 -389.2,394.7 -389.5,396.2   -389.3,397.3 -386.2,399.3 -387.2,401.1 -389.3,403.6 -389.4,404 -389.3,404.6 -389.3,405 -389.7,406.2 -390.5,407.1 -390.1,408.2   -389.3,408.5 -388.1,408.6 -388.2,409.4 -387.6,409.8 -386.4,411.4 -386,414.1 -386.1,416.2 -386.7,418.1 -386.7,419.4   -389.7,419.8 -391.2,421.8 -393.3,421.2 -393.7,423.2 -392.8,424.9 -392.8,425.7 -393.4,426.9 -393.3,427.9 -394.7,429.6   -395,429.5 -396,429.1 -397,430.3 -397.5,430.3 -398.1,430.3 -398.6,431 -399.4,431.2 -400.6,432.1 -402.7,433.1 -403.5,432.6   -405.3,433.3 -406.2,433.2 -407.7,434 -409.2,435 -410,434.8 -410.8,434.2 -411.2,431.3 -411.7,430.4 -412.2,430 -412.8,429.3   -413.5,429 -413.7,428.6 -414.1,428.1 -415.3,427.6 -418.3,428.7 -422.2,429.6 -423.2,430.9 -424,431.2 -426.2,431.5 -427.4,431   -427.8,432.1 -428.3,432.3 -429.9,431.2 -431.6,433.7 -431.7,434.5 -432.3,434.6 -432.9,433.1 -432.9,431.5 -434.7,432.2   -434.8,433.6 -436,429.4 -436,428.7 -435.8,428.1 -435.2,427.2 -433.5,425.9 -430.5,424.3 -423,417.9 -422.8,417.3 -421.5,413.2   -421.2,411.7 -421.4,410.4 -422.3,404.7 -423.6,398.1 -424.7,393.9 -425.4,392.1 -427.5,389 -430,384.2 -430.8,380.7 -431.7,377   -431.9,376 -431.9,375.4 -431.3,371.3 -430.5,367.8 -427.9,362.3 -427.7,362 -427.4,359.7 -427,357.7 -426.6,356.6 -424.7,353.4   -421.4,347.4 -418.7,339.4 -418.5,338.8 -418.4,338.1 -418.4,335.7 -418.3,335 -416.4,336.9 -415.4,337.7 -415.4,339.4   -413.6,340.8 -412.7,341.2 -410.4,343.3 -410,343.8 -409.2,344.1 -409,344.6 -407.1,347.8 -407,348.8 -407.7,349.8 -409.9,352.9 "/></svg>