<svg xmlns="http://www.w3.org/2000/svg" xmlns:xlink="http://www.w3.org/1999/xlink" version="1.1" x="0px" y="0px" viewBox="-461 335 100 100" fill="#e0e0e0" style="enable-background:new -461 335 100 100;" xml:space="preserve"><path d="M-457.7,369.6l-0.6-0.7l0.1,0.8l0,1.9l0.2,0.6l-0.1,0.3l0.1,0.1l-0.1,0.5l-0.2,2.5l-0.7,2.4l-0.7,1.8l-1.3,2.2l1.1,0.3  l0-0.5l0.8-1.1l0.2-0.6l0.1-0.6l0.3-0.7l0.3-0.6l0.2-0.3v-0.2l-0.3-0.4l0.1-0.5l0.3-0.5l0.2-0.5v-1.1l0-0.4l0.2-0.5l0-0.4l0-2.6  L-457.7,369.6z M-361.1,381.9l-0.4-0.3l-2.8-0.5l-1,0.3l-0.3,0l-1-0.4l-0.3-0.2l-0.1-0.3l0.2-0.6l0.4-0.7l0.1-0.3l0.2-1.1l0.1-0.3  l0.6-0.6l0-0.3l-0.3-0.6l0.1-0.7l0.3-0.6l0.4-0.5l0.3-0.5l0.2-0.7l0-0.8l-0.1-0.8l-0.1-0.7l-0.8,0l-1-0.3l-2.4-1.2l-1.1-0.8  l-0.9-1.6l-0.4-0.9l-0.4-0.7l-1.7-1.5l-1-1.2l-2.5-1.7l-1.8-2l-1-0.7l-0.2-0.2l-0.2-0.3l-0.3-1l-0.1-0.3l-0.2-0.1l-1,0.1l-0.3-0.1  l-0.9-0.4l-1.2,0.2l-5.9-1l-0.6-0.4l-0.5-0.9l-0.3-1l-0.2-0.3l-0.6-0.6l-0.2-0.3l-0.2-0.6l-0.4-1.9l-0.4-1.3l-0.3-0.5l-0.4-0.1  l-0.2,0.2l-0.1,0.3l0,0.3l-0.1,0.3l-0.2,0l-0.4-0.2h-0.2l-2.2,1l-0.7,0.5l-1.4,1.9l-0.3,0.3l-1,0.6l-0.6,0.3l-0.6-0.1l-1.1-0.8  l-0.6-0.2l-0.5,0.1l-2.1,1.1l-0.5,0.1l-0.5-0.1l-0.6-0.3l-1.6-1.3l-2.1-0.7l-0.6,0l-1.2,0.3l-0.5-0.1l0-0.1l0-0.2l0-0.2l-0.2-0.2  l-0.1,0l-0.5,0.1l-1.2-0.1l-0.6,0.1l-1,0.6l-0.6,0l-2.9-1.2l-0.4-0.1l-2,0.5l-0.3,0.2l0.2,0.3l-0.9,0.9l-0.9,0.2l-0.8-0.6l-0.6-1.5  l-0.4-0.9l-0.6-0.3l-0.6,0.1l-1.1,0.8l-2.4,1l-0.3,0l-0.3-0.1l-0.7-0.8l-0.5-0.3l-1.1-0.3l-5.1,0.2l-0.3-0.1l-0.6-0.5l-0.3-0.2  l-0.8,0l-7,3.3l-1.5,0.1l-0.6,0.3l-2.4,1.8l-0.3,0.1l-0.8,0l-0.5,0.3l-0.6,0.5l-0.6,0.7l-0.4,0.7l-0.3,1l-0.1,0.8l-0.3,0.6l-0.7,0.2  h-1l-0.6,0.1l0.1,1.1v2.6l0,0.3l-0.2,0.4l0,0.3v1.3l0.3,2.5l0.1,0.6l0.1,0.7l0.1,0.2l0.2,0.1l0.2,0.2l0.7,1.2l0.1,0.3l0,0.6l0.1,0.6  l0.6,1.7l0.1,0.3v0.2l0,0.2l0,0.4l0.1,0.3l0.2,0.2l0.2,0.2l0.1,0.1l0,0.2l0.2,0.9l0.2,1.2v0.7l-0.3,0.3l-0.2,0.2l-0.7,1.5l0,0v0.1  l0.1,0.2l1-0.9l0.2,0v0.7l0,0.3l0.2,0.1l0.1,0.1l0.1,0.3l0.1,0.3l0,0.2l-0.1,0.3h-0.1l-0.1,0l-0.1,0.1v0.2l0.1,0.7l0,0.2l1.4-1.2  l0.4-0.1l0.5,0.5l1,1.8l0.6,0.5l1.8,0.1l0.7,0.3l1.2,0.9l0.3,0.4l0.3,0.3l1.2,0.3l0.6,0.5l0.3,0.2l0.6,0.2l0.4,0.3l0.2,0.1l0.2-0.1  l0.4-0.3l0.4,0l0.2,0.2l0.1,0.3v0.5l0.1,0.5l0.4,0.3l0.4,0.2l0.4,0l0.3-0.2l0.2-0.3l0.2-0.2l1.8-0.5l3.1,0.4l1.8-0.5l0.4,0.2  l0.3,0.3l0.2,0.6l0.3,1.3l0.2,0.7l0.2,0.4l0.3,0.1h1l0.2,0l0.1,0.1l0.1,0.2l0.2,0.2l0.2,0.1l-0.2,0.4l0.1,0.2l1,0.5l0.2,0.2l0.1,0.4  l0.3,1.2l0.1,0.5l0,0.5l-0.2,0.5l-0.3,0.3l-0.5,0.4l-0.2,0.4l-0.2,0.2l-0.3,0.2l-0.2,0.2l-0.2,0l-0.1,0l0,0.1l0,0.1l0,0.1v0.1  l-0.4,0.6l-0.1,0.2v0.3l0.1,0.7l0,0.3l-0.1,0.5l-0.4,1.4l-0.1,2.3l0.1,1.1l0.4,1l1,1.8l0.3-0.3l0.4-0.8l0.4-0.2l0.4,0l1,0.5l0.2,0  l0.4-0.1l0.2,0l0.2,0.2l0.1,0.2l0.1,0.2l0.1,0.2l0.2,0.1l0.6,0.1l0.1,0.2l-0.1,0.3l-0.1,0.3v0.3l0.3,0.4h0.4l0.4-0.2l0.3-0.1  l0.3,0.1l1,0.9l0.6,0.4l1.4,0.5l0.7,0.6l0.2,0.3l0.3,0.6l0.2,0.2l0.2,0.1l0.4,0.1l0.1,0.1l0.3,0.4l0.2,0.6l0.2,0.6l0.1,0.6l0.3,1.3  v0.6l-0.3,0.4l-0.2,0.2l-0.1,0.1l-0.1,0.1v0.3l0.1,0.3l0.1,0.2l0.2,0.1l0.1,0.1l0,0.2v0.1l-0.1,0.2l0.6,0.2l1.5,0.9l0.3,0.1l0.3,0  l0.8-0.4l1.1-0.1l0.3-0.2l0.3-0.1l0.1,0l0.3,0.2l0.2,0l0.1,0l1.3-0.8l0.4,0l0.3,0.1l0.5,0.3l0.3,0.1h1.1l0.5-0.1l1-0.6l0.6-0.1  l0.5,0.2l0.5,0.6l0.3,0.8l0.2,0.3l0.3,0.1l0.6,0l0.5,0.2h0.6l0.6-0.3l1.9-1.8l0.9-0.5l1.1-0.2l0.4-0.3h0.1l0.1,0l0.1,0l0.2,0.6  l0.3,0.3l0.3,0l1.1-0.2l0.3-0.2l0.2-0.5l0-0.8l-0.2-0.6l-0.2-0.5l-0.2-0.6l-0.1-0.4l0-0.1h0.1l0.1-0.2l0.3-0.2v-0.1l0-0.2v-0.2  l0.1-0.2l0.6-0.4l0.8-0.1l0.8,0.1l1.3,0.5l0.8-0.1l0.7-0.5l0.7-0.8l0.3-0.6l0.3-1.4l0.2-0.4l0.3,0l1.1,0.4l1.4-0.1l0.4-0.3l0.7-1  l0.4-0.2l0.2,0l0.1,0.1l0.1,0.2l1.2,1.6l-0.2,0.1l-0.4,0l-0.3,0.2l0,0.3l0.4,0.2l0.1,0.2l-0.1,0.2l-0.5,0.2l-0.1,0.2l0.1,0.5  l0.4,0.4l0.4,0.2l1.5,0.3l0.4,0l0.2-0.1l0.3-0.4l0.2-0.1l0.6,0.1l0.2,0l0.4-0.3l0.1-0.4l0-1.3l0.1-0.1l0.2-0.3l0-0.1l0-0.2l-0.1-0.1  l-0.1,0l-0.1-0.1l-0.1-0.3l-0.1-0.3l-0.2-0.2l-0.2-0.2l-0.1,0l-0.2,0.1l-0.1,0l-0.1-0.1l-0.2-0.5l0-0.3l-0.1-0.2l-0.2-0.1l-0.3,0.1  l-1,0.5l-0.7,0l-0.4-0.1l-0.2-0.4l0-0.7l0.3-0.6l0.8-0.9l0.3-0.6l0.1-0.6v-0.6l0.1-0.8l0.2-0.6l0.3-0.3l1-0.6l0.3-0.3l0.3-0.5  l0.1-0.6l-0.1-0.6l-0.4-1l-0.1-0.6l0-0.4l0.1-0.3l0.1-0.3l0.1-0.3l0-0.3l-0.1-1.5l0-0.4l0.2-0.3l0.4-0.3l0.2-0.1h0.1l0.1-0.1  l0.1-0.2v-0.2l-0.2-0.6l0-0.3l0.2-0.6l0.3-0.3l0.4-0.3l0.4-0.4l0.1-0.3l0-0.3l0.1-0.2l0.2-0.2l0.6-0.3h0.3l0.6,0.2h0.3l2.1-0.4  l0.6-0.4l0.3-0.3l0.6-0.9l0.6-1.4l0.1-0.3l0-0.3l0-0.7l0-0.3l0.5-0.9l0.8-0.1l1.9,0.5h0.1l0.2,0l0.1-0.1l0.1-0.2l0.2-0.1l0.2,0  l1.8,0.8l0.4-0.1l0.3-0.4l0.2-0.9l0.1-0.8l0.1-0.3l0.3-0.4l0.5-0.5l0.3-0.2l1.1-0.3l0.4-0.3l0.2-0.5L-361.1,381.9z"/></svg>