<svg xmlns="http://www.w3.org/2000/svg" xmlns:xlink="http://www.w3.org/1999/xlink" version="1.1" x="0px" y="0px" viewBox="-461 335 100 100" fill="#999999" style="enable-background:new -461 335 100 100;" xml:space="preserve"><polygon points="-377,386.6 -379.7,385.8 -383.9,385.8 -385.4,385.3 -386.9,384.3 -389.4,381.9 -390.9,380.9 -391.7,380.9   -393,381.7 -393.6,381.7 -393.8,381.2 -394.6,378.9 -395.1,378.1 -396.4,377.3 -399.4,376 -400.7,374.6 -403.6,367.6 -405.2,365.1   -406.2,367 -406.8,365.8 -408.2,361.9 -409.7,359.6 -410.1,358.5 -409.8,357 -410.4,354.1 -410.9,353 -411.9,352.4 -411.2,350.8   -410.8,350.4 -411.6,350.4 -411.7,350.3 -411.2,346.5 -410.7,344.6 -410.1,342.6 -411.4,342.1 -411.5,341.6 -411.6,341   -411.6,339.7 -412.1,338.4 -412.2,338.3 -413.2,337.3 -413.9,337.3 -414.5,338 -415.2,338.4 -415.3,338.5 -417.3,338.9   -418.3,338.8 -418.3,338.4 -419,338 -419.6,337 -419.9,335.7 -420.4,335.1 -420.5,335 -421.8,336.1 -422.8,336.2 -423.7,336.3   -424.5,337.5 -424.8,339.2 -424.8,339.4 -425.5,341.4 -426.8,342.8 -430.1,344.3 -431,345.2 -431.6,345.7 -431.9,346.6 -432,348   -432.1,349 -432.2,349.5 -432.3,350 -432.6,350.3 -432.9,350.7 -434.2,351.9 -434.4,352.2 -434.8,352.7 -434.7,353.8 -434.7,355.5   -434.9,356.5 -434.9,356.6 -435,356.7 -435.6,357.3 -437.3,358.1 -437.9,358.8 -438,360.7 -437.3,361.5 -437,362.3 -438,364.2   -438.4,364.6 -438.8,364.9 -440.1,365.3 -440.8,365.7 -441.3,366.5 -441.5,366.9 -441.8,367.4 -441.9,367.6 -442,368 -442.1,368.3   -442.3,368.9 -444.3,372.4 -445.4,374.4 -445.5,374.9 -445.8,375.7 -444.8,376.2 -444.4,376.5 -442.8,377.7 -442,378.9   -444.3,378.7 -444.3,379.3 -444.4,379.7 -444.4,379.8 -444.5,380.1 -444.6,380.6 -443.9,381.3 -445,382 -445.3,383.3 -445.2,385   -444.9,385.9 -444.6,386.8 -443.8,388.3 -442.9,388.8 -442.8,388.8 -441.9,388.9 -441.5,389.1 -440.8,389.5 -440.2,390.2   -440.1,390.3 -439.5,391.4 -438,394.5 -437.9,395.2 -437.7,397.1 -437.7,397.4 -437.2,397.8 -436,398.1 -435.8,398.2 -435.9,398.2   -435.3,398.3 -435,398.2 -434.8,398.1 -434.2,398.1 -433.7,398.9 -433.7,399.9 -433.8,400.1 -434,400.4 -434.4,400.9 -434.6,401.6   -434.6,402.5 -434.8,403 -434.9,403.4 -434.7,404 -434.6,404.4 -434,404.9 -432.2,405.1 -431.6,405.6 -431.3,406.7 -431.1,407.6   -431.7,408.8 -432.6,409.6 -433.2,410.4 -433.9,412.3 -434.3,413.6 -435,414.9 -436,415.8 -435.1,416.4 -434.6,416.7 -435,417.8   -435.4,418.8 -437.4,421 -439.5,422 -436.8,425.7 -435.2,427.1 -433,428.1 -427.5,429.5 -425.8,431.1 -424.6,435 -423,434.5   -415.5,434 -414.2,433.6 -413.3,432.2 -412.2,431.8 -411.9,431 -411.9,430.1 -411.5,429.4 -410.8,429.1 -408.4,428.9 -408.9,427.7   -403.8,427.1 -401.3,427.4 -398.9,428.3 -394.5,431.7 -392.2,433 -390.4,433.2 -390.4,432.2 -390.8,428.1 -390,422.5 -390,418.1   -389.4,416.7 -388.1,414.6 -385.8,411.8 -384.9,410 -384.2,408.9 -384,408.4 -384.1,407.5 -384.7,407 -385.2,406.6 -385.3,406.2   -384,404.3 -377.5,400.1 -377.7,399.7 -378.2,399.1 -377.9,398.4 -377.5,398.2 -376.5,398.6 -377.1,397.9 -377.6,396.9   -377.8,395.8 -377.7,394.5 -376.8,393.8 -376.8,393.2 -377,392.6 -377,391.6 -376.6,388.7 -376.5,388.5 -376.5,387.3 -376.2,387.1   -376.7,386.6 "/></svg>