<svg xmlns="http://www.w3.org/2000/svg" xmlns:xlink="http://www.w3.org/1999/xlink" version="1.1" x="0px" y="0px" viewBox="-461 335 100 100" fill="#e0e0e0" style="enable-background:new -461 335 100 100;" xml:space="preserve"><path d="M-424.7,364.7l9.7-2.8l0.8,1.6l1-0.7l0.1-2l-2.1-10.9l5.2-3.2l-0.4-3.1l0-3.4l-0.2-0.7l-0.8-0.9l-2.1-0.8l-4.9-1.3l-0.4-1.5  l-2.5,0.3l-0.2,0.2l-0.5-0.2l-1.3,0l-0.3-0.1l-0.7,0l-0.8,0.6l-0.8,1.8l-0.4,0.7l0,0l-0.3,0.5l-0.2,0.1l-0.1,0l-0.4-0.1l-1-0.3  l-1.3-0.3l-1.4,0l-0.8,0.1l-1,0.4l-0.8,0.6l-0.1,0.1l0,0.1l0.8,2.1l0.6,2.1l5.6-1.5l0.4,1.4l-4.1,1l0.4,1.6l-0.1,4.1l-2,5.9  l-4.5,6.2l-0.8,1.6l-0.3,1.4l0.1,1.1l0.9,1.9l0.8,0.7l0.6,0.2l0.3,0.1l2.6-0.6l2.9-2.1l3.4-0.9L-424.7,364.7z M-385.6,411.8  l-7.7-0.9l-0.6-3l0.6-0.6l1.7-2l0.2-1.1l-2.9,1.6l-0.9,0.5l0.8-3.8l0.1-0.3l0.5-0.5l1.8-0.6l1.2,0.2l-0.5-1.9l-0.2-0.8l-0.6-1  l-3.9-2.6l1.9-6.6l-0.4-1.1l-25.1-3.8l-6.6,1.6l-1.6,1.3l1.3,5.3l0.9,1.3l2.7,2.2l1.4,2.6l0.7,6.8l1.3,16.5l0.2,0.2l-0.1,0.2  l0.2,2.1l-0.8,1.3l-1.2,0.8l-0.3,1.7l0.8,0.6l0.1,2l-0.7,1.7l0.2,1.7l1.5,1.1l0.9,0.7l1.1,0.2l2.2-2.4l2.1,0.1l0.7,0.7l1.4,0  l0.7-0.8l5,0.1l1.5-0.8l1-2l-1.7-0.4l-1.1-1.1l0.7-0.8l0-1.5l3.2-5.8l2.1,1.5l2.9-1.5l2.1,0.1l2.2-1.6l3.9-0.4v-0.5l4.4-0.9  L-385.6,411.8z"/></svg>