<svg xmlns="http://www.w3.org/2000/svg" xmlns:xlink="http://www.w3.org/1999/xlink" version="1.1" x="0px" y="0px" viewBox="0 0 100 100" fill="#999999" enable-background="new 0 0 100 100" xml:space="preserve"><g display="none"><polygon display="inline" opacity="0.3" fill-rule="evenodd" clip-rule="evenodd" points="61.895,24.028 72.986,32.744    80.301,45.612 81.291,52.141 82.301,57.644 78.916,60.651 73.961,60.856 67.637,64.805 53.982,64.206 48.24,67.385 47.848,69.743    40.123,72.512 29.236,79.245 29.15,79.826 23.324,75.656 20.453,69.196 16.094,61.54 14.01,51.32 15.342,41.87 15.787,42.775    17.975,40.485 17.666,36.128 24.092,32.539 29.834,30.949 34.381,27.6 45.078,25.02 50.223,25.822 57.947,24.028  "/></g><g display="none"><path display="inline" d="M15.831,14.239V6.48h1.539l1.828,5.503c0.172,0.513,0.291,0.889,0.359,1.128   c0.102-0.273,0.238-0.684,0.428-1.23l1.846-5.4h1.383v7.759h-0.99V7.745l-2.256,6.494h-0.924l-2.238-6.597v6.597H15.831   L15.831,14.239z M24.019,14.239l2.973-7.759h1.094l3.18,7.759h-1.18l-0.889-2.358h-3.248l-0.854,2.358H24.019L24.019,14.239z    M26.239,11.061h2.633l-0.805-2.153c-0.256-0.649-0.426-1.179-0.547-1.606c-0.102,0.513-0.238,0.991-0.426,1.487L26.239,11.061   L26.239,11.061z M37.604,11.522l1.025,0.256c-0.223,0.838-0.598,1.487-1.162,1.914c-0.564,0.444-1.23,0.684-2.051,0.684   c-0.838,0-1.504-0.171-2.033-0.513c-0.531-0.342-0.924-0.837-1.197-1.486c-0.273-0.633-0.41-1.333-0.41-2.068   c0-0.803,0.154-1.504,0.461-2.119c0.309-0.581,0.752-1.06,1.316-1.367s1.197-0.461,1.881-0.461c0.768,0,1.436,0.188,1.947,0.598   c0.529,0.394,0.906,0.94,1.111,1.658l-1.008,0.239c-0.189-0.564-0.445-0.975-0.787-1.23c-0.342-0.257-0.77-0.394-1.281-0.394   c-0.598,0-1.094,0.137-1.486,0.444c-0.41,0.273-0.684,0.649-0.855,1.128c-0.154,0.479-0.238,0.991-0.238,1.504   c0,0.649,0.102,1.23,0.289,1.709c0.189,0.496,0.496,0.854,0.889,1.111c0.41,0.239,0.855,0.358,1.316,0.358   c0.582,0,1.061-0.171,1.471-0.495C37.194,12.667,37.468,12.172,37.604,11.522L37.604,11.522z M39.911,14.239V6.48h5.588v0.923   h-4.562v2.376h4.271v0.905h-4.271v2.632h4.75v0.923H39.911L39.911,14.239z M47.089,14.239V6.48h2.684   c0.598,0,1.059,0.052,1.367,0.12c0.443,0.103,0.82,0.29,1.145,0.563c0.41,0.342,0.701,0.786,0.906,1.316   c0.205,0.529,0.307,1.145,0.307,1.828c0,0.599-0.068,1.128-0.205,1.572c-0.137,0.462-0.307,0.838-0.529,1.128   c-0.223,0.308-0.445,0.547-0.701,0.701c-0.256,0.188-0.564,0.308-0.922,0.393c-0.359,0.086-0.787,0.137-1.248,0.137H47.089   L47.089,14.239z M48.132,13.316h1.641c0.512,0,0.922-0.034,1.195-0.137c0.309-0.103,0.529-0.239,0.701-0.41   c0.238-0.239,0.428-0.563,0.564-0.974s0.205-0.906,0.205-1.487c0-0.82-0.121-1.436-0.395-1.88   c-0.273-0.427-0.598-0.718-0.973-0.854c-0.273-0.119-0.719-0.171-1.316-0.171h-1.623V13.316L48.132,13.316z M54.591,10.463   c0-1.282,0.342-2.29,1.043-3.025c0.684-0.718,1.572-1.076,2.666-1.076c0.717,0,1.367,0.153,1.932,0.495   c0.58,0.342,1.008,0.82,1.314,1.436c0.291,0.615,0.445,1.299,0.445,2.085s-0.154,1.487-0.461,2.103   c-0.326,0.615-0.77,1.094-1.352,1.418c-0.58,0.308-1.213,0.479-1.879,0.479c-0.734,0-1.385-0.188-1.965-0.547   c-0.564-0.342-1.01-0.82-1.299-1.436C54.745,11.778,54.591,11.146,54.591,10.463L54.591,10.463z M55.651,10.479   c0,0.923,0.256,1.675,0.752,2.205c0.494,0.529,1.127,0.803,1.896,0.803s1.4-0.273,1.896-0.82c0.496-0.529,0.752-1.299,0.752-2.29   c0-0.649-0.119-1.196-0.324-1.657c-0.223-0.462-0.529-0.838-0.939-1.094c-0.41-0.257-0.873-0.394-1.367-0.394   c-0.736,0-1.352,0.257-1.881,0.752C55.907,8.497,55.651,9.317,55.651,10.479L55.651,10.479z M63.308,14.239V6.48h1.059l4.068,6.084   V6.48h0.973v7.759h-1.041l-4.068-6.084v6.084H63.308L63.308,14.239z M71.306,14.239V6.48h1.025v7.759H71.306L71.306,14.239z    M73.288,14.239l2.973-7.759h1.094l3.18,7.759h-1.18l-0.889-2.358h-3.248l-0.854,2.358H73.288L73.288,14.239z M75.509,11.061h2.633   l-0.805-2.153c-0.256-0.649-0.426-1.179-0.547-1.606c-0.102,0.513-0.238,0.991-0.426,1.487L75.509,11.061z"/></g><g><path d="M23.333,74.834c-1.409,0.125-0.416-1.229-0.664-1.832c-0.339-0.824-0.715-1.076-1.701-1.31   c0.82-1.233-0.256-2.726-0.839-3.854c-0.469-0.906-2.498-2.774-0.634-3.028c-0.73-2.031-3.108-2.821-3.67-5.109   c-0.547-2.229-0.682-4.124-0.816-6.374c-0.08-1.329-0.821-2.379-1.011-3.656c-0.155-1.044,0.292-1.509,0.497-2.332   c0.431-1.73,0.908-2.939,1.03-4.815c0.319,0.22,0.912,0.163,1.273,0.299c-0.03-0.329,0.225-0.619,0.13-1.003   c0.316,0.088,0.741-0.089,1.017-0.021c0.091-1.336-0.585-2.076-0.578-3.293c0.006-1.14,1.36-2.022-0.213-2.804   c0.923-0.067,3.508-0.062,4.229-0.485c0.511-0.3,0.64-1.567,0.979-1.881c0.637-0.588,0.803-0.354,1.47-0.656   c1.36-0.614,1.883-0.335,3.334-0.503c1.907-0.221,2.549-1.717,3.666-3.036c0.467,0.415,0.712,0.248,1.305,0.344   c0.111-0.663,0.225-2.716,0.806-2.993c1.261-0.604,0.896,0.82,1.554,1.02c1.158,0.35,2.691-1.71,3.812-0.127   c0.567-0.425,1.075-0.942,1.67-1.339c0.861,1.475,2.102-0.161,3.008-0.343c-0.579,0.191-1.322,0.21-1.27,0.944   c1.302-0.331,1.973,0.364,3.152,0.2c0.92-0.127,1.965-1.401,2.951-1.528c1.182-0.151,2.072,0.923,3.191,0.865   c1.257-0.064,2.334-1.395,3.476-1.497c0.414,2.434,4.979-3.753,4.871,0.965c0.932-0.425,2.626,0.196,3.513,0.471   c1.848,0.573,1.34,1.688,3.583,1.734c0.044,1.033,1.324,1.495,2.18,1.982c1.353,0.771,1.24,0.993,2.033,2.131   c1.236,1.773,2.69,2.291,3.657,4.004c0.792,1.401,1.308,3.321,2.175,4.861c0.358,0.636,0.885,1.248,1.331,1.658   c0.775,0.713,2.481,1.214,2.157,2.699c-0.104,0.48-1.326,0.85-1.49,1.646c-0.212,1.028,0.332,1.095,0.673,1.996   c0.567,1.5,1.286,2.863,1.95,4.342c0.415,0.924,1.54,3.187,1.196,4.199c-0.098,0.288-1.304,1.686-1.601,2   c-0.749,0.796-1.06,0.552-1.757,0.816c-0.042-0.001-0.084-0.003-0.126-0.005c-0.718,0.966-1.759,0.665-2.028-0.506   c-0.57,0.36-1.09,1.313-1.805,1.502c-0.448,0.118-0.658-0.65-1-0.531c-0.447,0.157-0.506,0.469-0.871,0.674   c-1.482,0.831-2.624,2.392-4.263,3.222c-1.463,0.741-0.985,0.425-2.505-0.021c-0.718-0.211-1.486-0.128-2.232-0.229   c-1.634-0.222-3.367-0.278-4.963-0.631c-0.625-0.138-1.244-0.487-1.838-0.619c-1.094-0.245-0.527-0.262-1.828,0.129   c-1.556,0.467-2.9,0.98-4.134,1.788c-1.449,0.948-3.178,1.83-3.366,3.666c-0.214,2.081,0.112,1.772-2.009,2.334   c-2.839,0.751-4.406,4.443-7.787,2.225c-0.64,0.824-1.507,0.804-2.171,1.301c-0.57,0.426-0.839,1.303-1.524,1.739   c-0.365,0.231-0.532-0.453-1.013-0.072c-0.438,0.347-0.336,0.94-0.704,1.311c-0.609,0.612-1.241,1.027-2.126,1.043   c-0.86,0.015-1.343-0.6-2.037-0.642c-0.984-0.061-1.209,0.533-2.124,0.136c-0.371-0.161-0.396-0.761-0.71-0.974   c-0.328-0.224-0.805-0.103-1.129-0.322c-0.748-0.507-1.218-0.487-1.534-1.528c0.211,0.428,0.349,0.886,0.534,1.321"/></g></svg>