<svg xmlns="http://www.w3.org/2000/svg" xmlns:xlink="http://www.w3.org/1999/xlink" version="1.1" x="0px" y="0px" viewBox="-461 335 100 100" fill="#999999" style="enable-background:new -461 335 100 100;" xml:space="preserve"><path d="M-389.4,369.1L-389.4,369.1l-0.1,0.2l0,0.1l0,0.1l-0.5,0.7l-0.2,0.2l-0.1,0.1l0,0.1l0,0.2l0,0.1l0,0.1l-0.2,0.4l0,0.2  l0.1,0.2l0.1-0.2l0.2-0.4l0.2-0.3l0.3-0.7l0.2-0.6l0.3-0.5l0-0.2L-389.4,369.1L-389.4,369.1z M-401.7,344.5l0,0.1l0,0.1l0,0.3l0,0.2  l0.1,0.1l0,0l0,0l0,0l0,0v-0.1h0l0.1,0.1l0.1,0l0.3,0l0.1,0l0,0v0l0,0l0,0l0,0l0.1,0l0.1,0l0.1,0l0-0.1l0-0.1l-0.1-0.1l-0.1-0.1  l0-0.1l0-0.1l0.1-0.1l0-0.1l-0.1-0.1l0-0.1l-0.1-0.2l-0.1-0.1l-0.1,0l0.1-0.1l0-0.1l-0.1-0.1l-0.1,0l-0.1,0l-0.1,0l0,0.1l0,0.1  l0,0.1l0,0.1l0,0.1l0,0.1l-0.1,0l-0.1,0l-0.1,0l0,0l-0.1,0l-0.1,0l-0.1,0l-0.1,0.1L-401.7,344.5L-401.7,344.5z M-385.7,358.5  l-0.1-0.2l-0.1-0.2l-0.1-0.1l-0.1-0.1l-0.1-0.1l-0.1-0.2l-0.1-0.1l-0.3-0.4l-0.1-0.2l-0.5-1.1l-0.1-0.5l0-0.1l-0.1-0.1l-0.1-0.1  l-0.2-0.1l-0.1-0.1l0.2-0.1l0.1-0.2l0-0.3l-0.2-0.4l-0.1-0.8l-0.1-0.3l0-0.1l0-0.1l0.1-0.2l0.1-0.5l0-0.2l-0.1-0.2l-0.2-0.2l0-0.1  l0-0.1l0-0.3l0-0.1l0.1-0.2l0-0.3l0-0.2l-0.1-0.5l-0.1-1.4l-0.1-0.2l-0.2-0.3l-0.1-0.1l0-0.1l0.1-0.2l0-0.1l0,0v0l0,0l0,0l0,0l0,0  l0,0l0,0l0,0l0-0.1v-0.1l0-0.1l0-0.1l0,0l-0.1-0.1l0,0l-0.1-0.2l-0.1-0.4l0-0.2l0.1-0.2l0-0.1l-0.1-0.1l-0.1,0l-0.1,0l-0.1,0  l-0.1-0.1l0-0.1l0-0.3l0-0.1l-0.2-0.3l0-0.1l0-0.1l0-0.1l0-0.1l0.1-0.6l0-0.4l0-0.1l-0.2-0.2l0-0.1l0-0.1l-0.1-0.1l-0.1,0l-0.1-0.1  l-0.1-0.1l0-0.1l0.1,0l0,0l0-0.1l-0.1-0.1l-0.1,0l-0.1,0l-0.1,0l-0.1-0.1l-0.1-0.2l0-0.1l0-0.2l0,0l-0.2-0.2l-0.1-0.1l-0.1,0l-0.1,0  l0,0l0-0.1l-0.1,0l-0.1,0l0,0.1l0,0.2l0,0.1l0,0.1l0,0.1l-0.1,0l-0.1,0l-0.1,0l-0.1,0l0-0.1l0.1-0.2l0-0.1l0-0.1l-0.1-0.2l0-0.1  l-0.1-0.1l-0.1-0.1l-0.1-0.1l-0.1-0.1l-0.1,0l-0.1,0.1l0,0l-0.1-0.1l0-0.1l0-0.1l0-0.1l0.1-0.1l0-0.2l-0.1-0.4l0-0.2l0,0.2l0,0.1  l0.1,0.1l0.1,0l0-0.1l0-0.2l0-0.1l-0.2-0.4l-0.1,0.2l-0.1,0l-0.1-0.1l-0.2-0.1l0.1-0.1l0.1,0l0.1,0l0.1,0l0.1,0l0-0.1l0-0.1  l-0.1-0.1l0-0.1l0,0l-0.1,0l-0.1,0l-0.1,0l-0.1,0.1l0,0.1l0-0.2l-0.1-0.1l-0.1-0.1l-0.1-0.1l0-0.1l0-0.1l0-0.1l-0.2-0.3l-0.1,0  l-0.1,0.1l0,0.1l0.1,0.2l0,0.1l-0.1,0l-0.1,0l-0.1,0l-0.1,0l0,0l0,0l0,0l-0.1-0.1l-0.1,0l-0.1,0l-0.1,0.1l0,0.1l0,0l0-0.1l0-0.1l0,0  l0.1-0.1l0,0l-0.1-0.1l-0.1,0l-0.1,0l-0.1,0l0.1-0.2l0-0.1l-0.1,0l0-0.1l0-0.1l0.1-0.1l0.1,0l0,0.1l0.1,0.1l0.1,0.1l0.1,0l0.1,0  l0-0.1l0.1-0.1l0.1,0l0.3,0.3l0,0l0-0.1l-0.1-0.3l0-0.2l0-0.2l0-0.2l-0.1-0.2l0-0.1l0-0.2l0-0.1l-0.2-0.2l-0.1-0.1l-0.1,0l-0.1,0.1  l-0.2,0.2l0,0.1l0,0.1l0,0l0,0l0,0l-0.1,0l0,0l0,0l0,0l0,0.1l0.1,0l0.1,0.1l0.1,0.2l0,0.1l-0.1-0.1l0,0.1l-0.2-0.3l-0.1-0.1  l-0.1,0.1l-0.3,0.1l-0.1,0.1l0.3,0l0.1,0l0.1,0l0,0l0,0l0,0l0.1,0l0.1,0l0,0l0.1,0.1l0,0.1l0,0l-0.1,0l0,0l-0.1,0l-0.1,0l0,0.1  l0,0.1l0,0.1l0,0.1l0,0.1l0,0.1l-0.1,0.1l-0.1,0l-0.1-0.1l-0.1,0.1l-0.1,0.2l-0.1,0.1l-0.1-0.1l-0.1,0.1l-0.1,0.1l-0.1,0.1l0,0.1  l-0.1,0l-0.1,0l-0.1,0.1l-0.1,0.1l0,0.1l0,0.1v0l-0.1,0.2l0,0l0,0.4l0,0.1l-0.1,0.1l-0.1,0.1l-0.1,0l-0.1,0l-0.2-0.4l-0.1-0.1  l-0.2,0l-0.2,0l-0.1,0l-0.1,0l-0.1,0l-0.1,0.2l-0.1,0.1l0.3,0.1l0-0.1l0.1,0.1l0.1,0.3l0.2,0.2l0.1,0.1l0,0.2l0.1-0.1l0.1,0l0.1,0  l0.1,0.1l0,0l-0.1,0.2l0,0l0,0.1l0,0.1l0,0.1l0,0l0,0l0,0.1l0,0.1l0,0l0,0l0,0l0.1,0.2l0,0.1l0,0.3l0,0.1l0,0.1l0.1,0.1l0.1,0.2  l0,0.1l0,0.2l-0.1,0.5l0,0.2l-0.1,0l-0.1,0.1l-0.1,0.1l0,0.1l0,0.1l0,0.1l-0.1,0.1l-0.2,0.3l-0.1,0.2l-0.2,0.6l0,0.1l0,0.2l0,0.1  l0.1,0.2l0,0.1l-0.3,0.3l-0.1,0.2l0.1,0.1l-0.2,0.2l-0.2,0.2l-0.3,0.1l-0.3,0.1l-0.1,0l-0.1,0l-0.1,0l-0.1,0l-0.1,0l-0.1,0l-0.1,0  l-0.4-0.1l-0.1-0.1l0-0.1l-0.1-0.1l0-0.1l-0.1-0.1l-0.1,0l0,0.2l0,0.1l0,0.1l0,0.1l0.1,0.2l0.1,0.2l0.1,0.2l0,0.1l-0.1,0l-0.1,0  l-0.2-0.1l0,0l0,0.1l0,0l-0.1,0l-0.1,0l-0.1,0l-0.1,0l-0.1,0.1l-0.1,0.1l-0.1,0.1l0,0.1l-0.2-0.3l-0.1,0l-0.1,0.1l0,0.1l0.1,0.3  l0,0.1l-0.1,0.2l0,0.1l0,0.4l0,0.1l0.1,0.2l-0.1,0.2l-0.2,0.1l-0.2,0.1l-0.2,0l-0.2-0.1l-0.2-0.1l-0.1-0.1l0.1-0.1l0-0.1l-0.1,0l0,0  l0,0v0l0-0.1l-0.1-0.3l0-0.2l-0.1-0.1l-0.1-0.1l-0.2,0.1l0-0.1l0-0.2l0-0.2l-0.1-0.1h-0.3l0,0.1l0.1,0.1l-0.1,0l0,0.1l0,0.1l0,0.1  l-0.1,0l-0.1,0l0-0.1l0-0.1l0,0l-0.1,0l0,0l0-0.1l0-0.1l0.1-0.1l0,0l-0.1-0.1h-0.1l-0.1,0l-0.1,0.1l0,0.3l-0.1,0.2l-0.1,0l-0.1,0  l-0.1,0.1l-0.1,0.2l0,0.2l0,0.2l0.1,0.1l0.1,0l0.1,0.1l-0.3,0.1l-0.1,0.4l0.1,0.5l0.2,0.3l0.1,0.1l0.3,0.1l0.3,0.2v0.1l-0.5,0.3  l0.3,0.2l0.2,0.1l0.3,0.1l0.1,0.1l0,0.2v0.2l0,0.2l-0.2,0.3l0,0.2l0,0.1l0,0.1l0.1,0.1l0.1,0.1l0,0.1l-0.1,0.1l-0.1,0.1l-0.1,0  l0,0.1l0,0.1l0,0.1l0,0.1h-0.1l0-0.1l0-0.1v-0.1l0-0.2l0.1-0.4l0-0.2l0-0.1l0.1-0.1l0-0.1l0-0.1l0-0.1l-0.1,0l-0.1,0l-0.1,0  l-0.3-0.2l-0.1,0l-0.1,0.1l0.1,0.1l0.1,0.2l0.1,0.2l0,0.2l0,0.1l0,0.1l0,0.1l-0.1,0.1l-0.1,0l-0.1,0l-0.1,0l-0.2,0l-0.3-0.2  l-0.2,0.1l-0.1,0.1l0,0.1l0,0.2l0,0.1l-0.1,0.1l-0.2,0.1l-0.1,0.2l-0.1,0.2l0,0.2l0,0.3l0,0l0.1,0.1l0,0l0,0l0,0l0.1,0.2l0,0l0,0  l0,0.1l0,0l-0.1,0.1l0,0l0,0.1l0.1,0.3l0,0.1l0.1,0l0.1-0.1l0.2-0.3l0,0l0,0.1l0.1,0.1l0.1,0.1l0.1,0l0.1,0l0.1,0l0.2-0.1l0.1,0  l0.1,0.1l0.2,0.2l0.1,0.1l0.1,0l0.1,0.1l0.1,0.3v0.3l0,0.2l-0.1,0.2l0-0.1l0-0.5l-0.1-0.2l-0.1-0.1l-0.2,0l-0.2,0.2l0.1,0.1l0.1,0.1  l0,0.2l-0.1,0.1l0-0.1l0-0.2l0-0.1l-0.1-0.1l-0.2-0.1l-0.1,0l-0.1-0.1l-0.3-0.4l0,0.2l-0.1,0.1l-0.1,0.1l0,0.1l0,0.1l-0.1,0.1  l-0.2,0.2l0,0l-0.1,0.1l-0.1,0l0,0.1v0.1l0,0.1l-0.2,0.2l0,0.1l0,0.2l-0.5,1l0,0.1l0,0.2l0,0.1l-0.1-0.1l-0.2,0.2l-0.1,0.2l-0.1,0.2  l-0.1,0.2l-0.1,0.1l-0.2,0.1l-0.1,0l-0.1-0.1l0-0.1l0.1-0.9l0.1-0.2l0.1-0.2l0.4-0.5l0.1-0.2l0,0l0-0.1l0,0l0,0l0,0l0-0.1l0-0.4  l0-0.1l-0.1-0.2l0-0.1l0-0.1l0,0l-0.1,0.1l-0.9,0.9l-0.2,0.3h0l0.1,0.2l0.1,0l0.1,0l0.1,0l0-0.1l0.1-0.1l0.1,0l0,0.1l0,0.2l-0.1,0.1  l-0.2,0l-0.2,0.1l-0.1,0.1l-0.4,0.3l-0.1,0.1l-0.2,0.4l-0.3,0.2l-0.3,0.2l-0.2,0.2l-0.2,0.3l-0.1,0.2l0,0.2l0,0.1l0.1,0.1l0,0.1  l0.1,0l0.1,0l0.1,0l-0.1,0.2l0,0.1l0,0.1l0.2-0.1l0.1,0l0.1,0l0,0l0,0l0.1,0.5l0.1,0.2l0,0l0.1,0l0.1,0l0.1,0l0,0l0,0l0,0.1  l-0.1,0.1l-0.3,0.1l-0.2-0.1l-0.2,0.1l-0.2,0.1l-0.2,0.1l-0.2,0l-0.1,0l-0.1,0.1l-0.1,0.2l-0.1,0.1l-0.1,0l0-0.2l0.1-0.2l0.3-0.6  l0.1-0.1l0.1-0.1l0.1-0.1l0.1-0.2l0.1-0.1V359l-0.1-0.1l-0.2-0.1l-0.1-0.1l-0.1-0.1l-0.1-0.1l-0.1-0.2l0,0l0-0.2l0-0.1l0-0.1l0,0  l-0.1,0l-0.2,0.1l-0.3,0.1l-0.5,0.5l-0.7,0.5l-0.4,0.1l-0.1,0.1l0,0.1l0.2,0.1l0.1,0.1l-0.2,0l-0.2,0l-0.2,0l-0.2,0.1l-0.1,0.1  l-0.3,0.2l-0.2,0.2l-0.1,0l0,0l0,0l0,0l0,0l-0.2,0.1l-0.4,0.5l-0.3,0.2l-0.1,0.1l-0.1,0.3l-0.1,0.2l0,0.1l0,0.1h0.1l0.1,0l0.1,0  l0.1,0.1l0,0.1l-0.2,0.3l-0.1,0.1l-0.1,0l0,0l0.1,0.1l0.1,0l0.2,0l0.2,0.1l0.3,0.3l0.1,0.1l0.2,0.3l0.1,0.2l-0.1,0.1l-0.1-0.1  l-0.1-0.2l-0.1-0.1l-0.2,0l0,0.1l0,0.2l-0.1,0.1l-0.1,0l-0.1,0l-0.1-0.1l-0.1,0l0,0l0,0.1l0,0.1l0,0.1l-0.2-0.1l-0.1-0.1l-0.2-0.5  l-0.1-0.1l-0.1-0.1l-0.1-0.1l0.1-0.1l0-0.1l0-0.1l0.1-0.1l-0.1-0.1l0-0.1l0-0.1v-0.1l0,0l-0.1,0l-0.2,0h-0.3l-0.2,0l-0.2,0.1  l-0.2,0.1l-0.2,0.1l-0.1,0.1l-0.1,0.2l0,0.2l0.1,0l0.2-0.1l0.2-0.1l0,0.1l-0.1,0.1l-0.1,0.1l0,0.1l0,0.1l0.1,0.1v0l-0.2,0l-0.2-0.1  l-0.1,0l-0.1,0l-0.1,0l-0.1,0l-0.1,0l0-0.1l0-0.1l0-0.2l-0.1-0.1l-0.1,0l-0.1,0l-0.1,0l-0.1,0l-0.4,0.2l-0.2,0l-0.3-0.2l-0.1,0h-0.1  l-0.1,0l-0.1,0l-0.1,0l-0.2,0.1l-0.2,0.2l0,0.1l0,0.1l0.1,0.1l0.1,0.1l0,0.1l0,0.1l0,0.1l0,0.1l0,0.2l0,0l-0.1,0.1l-0.1,0.1l0,0.1  l0.1,0.4l-0.1,0.1l-0.1,0l0-0.1l-0.1,0.1l0-0.1l0.1-0.2l0-0.1l0,0l0,0l-0.1-0.1l-0.1-0.2l-0.1,0.1l-0.1,0l0,0l-1.1,0.1l-0.1,0.1  l0,0.1l0.1,0.1l0.1,0.1l0.1,0.1l0,0.1l0,0.1l-0.1,0.1l-0.2,0.1l-0.1,0.1l-0.1,0.1l-0.1,0.1l-0.1,0l-0.1,0l-0.1-0.1l0-0.1l0-0.1  l0-0.1l0-0.1l0-0.1l0,0l-0.1-0.4l0-0.2l0-0.1l0,0l-0.3,0.2l-0.4,0.2l-0.2,0.1l-0.2,0.1l-0.2,0.2l-0.2,0.4l-0.1,0.2l-0.2,0.1  l-0.4,0.2l0.1,0l-0.1,0l-0.2,0l-0.1,0l-0.1,0.1l-0.1,0.1l0,0.1l-0.1,0.1l-0.1,0l-0.1,0l-0.1-0.1l-0.2-0.1l-0.1,0l-0.2,0l-1.5-0.1  l-0.2,0h-0.2l-0.1,0l-0.1,0.1l0,0.1l0,0.4l0,0.1l0,0.1l-0.1,0.1l-0.1,0.1l-0.1,0.1l0,0.1l0,0.2l0.1,0.2l0.3,0.4l0.1,0.2l0,0.2  l-0.1,0.2l-0.1,0.2l0-0.2l-0.1,0l-0.1,0.1l0,0.2l0,0.1l0.1,0.3l0,0.1l-0.1,0.3l-0.2,0.3l-0.2,0.3l-0.2,0.3l-0.1,0.3l-0.1,0.1  l-0.1,0.1l-0.1,0.1l-0.1,0.2l0,0.1l-0.2,0.2l0,0.1l-0.2,0.6l-0.2,0.3l-0.2,0l0,0.3l0,0.1l-0.1,0.1l-0.1,0.1l-0.5,0.8l-0.1,0.2l0,0.1  l-0.1,0l0,0l-0.1,0.3l-0.4,0.6l-0.1,0.2l-0.1,0.4v0.2l0,0.2l0.4,0.6l0.1,0.3l0.2,0.2l0,0.1l0,0.3l-0.2,0.9l0,0.5l0.3,1.4l0,1.4  l0.1,0.2l0.4,0.7l0.5,0.7l0.3,0.9l0.2,0.5l0,0.2l0,0.1l0,0.2l0,0l-0.1,0.1l0,0l0,0l0,0.1l0,0v0.4l-0.1,0.2l0,0.4l0,0.3l0.1,0.2  l0.6,0.8l0.1,0.2l0.1,0.2l0,0.1l0.3,0.3l0.1,0.2l0.1,0.2l0.1,0.5l0,0.3l-0.1,0.1l-0.2,0l-0.1,0.1l0,0.1l0,0.1l0,0l-0.1,0.1l0,0  l0,0.1l0,0.1l0,0.1l0,0.1l0,0.3l0,0.1l-0.1,0.1l-0.1,0.1l-0.1,0.3l0,0.1l0,0.1l0.1,0.1l0.1,0.1l0.1,0.1l0,0l0.1,0l0,0l0,0.1l0.1,0.2  l0.1,0l0.1,0.2l0,0.3l0,0.2l-0.1,0.3l-0.1,0.2l-0.2,0.2l-0.4,0.4l-0.2,0.2l-0.5,1l-0.1,0.3l0,0.2l-0.1,0.1l-0.3,0.2l-0.1,0.1  l-0.2,0.4l0-0.1l0,0v-0.1l-0.2,0.2l-0.1,0.3l-0.1,0.3l-0.1,0.3l-0.4,0.7l-0.1,0.1l-0.2,0.1l-0.1,0.1l-0.4,0.9l-0.3,1.4l-0.2,0.7  l0,0.2l-0.1,0.2l-0.2,0.2l-0.2,0.2l-0.2,0.1l-0.1,0l-0.1-0.1l-0.1,0l-0.3,0.1l-0.4,0l0,0l-0.1,0.1l-0.2,0.1l-0.1,0.1h-0.1l-0.1-0.1  l0,0.2l-0.1,0.3l-0.1,0.2v2l-0.2-0.1l-0.1,0l-0.1,0.1l-0.5,0.6l-0.1,0.1l0,0.3l0,0.4l0,0.4l-0.1,0.2l0-0.3l0-0.1l-0.1-0.1l-0.1,0.1  l0,0.1l0,0.1l0,0.1l0.1,0.2l0,0l0,0l0,0l0,0l0,0l0,0l0,0l0,0.1v0.2l0,0.1l-0.1,0.1l0,0.1l0,0.7l0.1,0.3l0.2,0l0,0.1l0,0.1l0,0.1  l0,0.1l-0.1-0.1l-0.2,0l-0.1,0.1l0,0.2l0.1,0.2l0,0.2v0.1l0,0.1l0,0.1l0.2,0.3l0.1,0.4l0.1,0.7l0,0.3l0,0.2l0,0.2l0,0.1l0.1,0.1  l0,0.1l0,0.3l0.1,0.2l0,0.4l0.1,0.2l0,0.3l0,0.1l0.1,0.2l0.1,0.2l0.2,0.3l0.1,0.1l0.1,0.1l0.1,0.2l0.1,0.1l0.5,0.4l0.2,0.2l0.1,0.3  l0.1,0.6l0,0.7l0.1,0.3l0,0.2l0,0l0.1,0.1l0,0l0,0l0,0l0.3,0.3l0.1,0.2l0.2,0.2l0.1,0.1l0,0.1l0,0.1l0,0.1l0,0.1l-0.1,0.1l0,0.1  l0.1,0.2l0,0.1l-0.1,0.2l-0.5,0.2l-0.2,0.1l0,0.2l0,0.5l-0.1,0.2l0.1,0.1l0,0.1l0.1,0.3l0.1,0.2l0,0.1l0,0.1l-0.1,0.1l0,0.1l0.1,0.7  l-0.1,1.3l0.1,1.1l0.2,0.5l0.2,0.2l0.5,0.3l0.2,0.2l0,0.1l0,0.2l0,0.1l0,0.1l0,0l0,0l0.3,0.3l0.1,0.1l0.1,0.3l-0.1,0.7l0.1,0.2  l0.5,0.7l0.1,0.3l0,0.6l0.1,0.2l0.6,0.4l0.1,0l0.2,0l0.2,0.1l0.4,0.5l0.2,0.1l0.1,0l0.1,0l0.1,0l0.1,0.1l0.2,0.2l0.1,0.1l0.1,0  l0,0.2l-0.1,0.1l-0.1,0l-0.1-0.1l-0.2-0.3l-0.1-0.1l-0.1-0.1l0.1,0.2l0.2,0.3l0.1,0.3l0.1,0.1l1,0.2l0.7,0l0.7,0.1l0.3,0.1l0.5,0.2  l0.5,0.4l0.1,0.1l0.1,0.2l0.1,0.1l0.2,0.2l0.7,0.3l0.2,0.2l0.1,0.1l0.1,0.3l0.1,0.1l0.1,0l0.1,0l0.1,0l0.1,0l2-0.1l0.5-0.1l0.4-0.3  l0.2,0l0.1-0.1l0.1-0.1l0.7-0.7l1-0.5l0.9-0.5l1.4-0.6l1-0.3l0.8,0l0.7,0.1l0.2,0.1l0.1,0l0.5-0.1l0.1,0l0.1-0.1h0.1l0.1,0l0.1,0  l0.1-0.1l0.1-0.1l0.1-0.1l0.2-0.1l0.1-0.1l0.2-0.1l0.4-0.3l0,0l0,0l0.1,0l0.1,0.2l0,0l0.1,0l0.3-0.4l0.2-0.2l0.1-0.1l0.2-0.1l0-0.1  l0-0.2l0-0.1l0-0.1l0-0.1l0.1-0.1l0,0.1l0,0.1l0,0.1l0.1,0.1l0.1-0.2l-0.1-0.5l0.1-0.2l0.4-0.3l0-0.1l0-0.2l0-0.1l0.2-0.3l0.6-1.5  l0.2-1.2l-0.1-0.4l0,0l0.1,0.1l0.1,0l0.1,0l0.4-1.2l0.1-0.3l0-0.2v-0.1l0,0l0,0l0,0h0l0.1,0h0l0,0l0.1-0.1l0,0l0.1-0.2l0.4-1  l0.4-1.6l0-0.2l-0.1-0.1l-0.1,0l-0.1,0l0.1-0.2l0.1-0.1l0,0l0,0.1l0.1,0.1l0.8-2.5l0.2-1.1l0.3-0.7l0.2-0.8l0-0.7l0.1-0.5l0.3-2  l0.2-0.5l0.1-0.5l1.8-4.1l0.9-2.8l0.1-0.2l0.1-0.3l0.1-0.6l0-0.2l0-0.1l0.3-0.6l0.1-0.3l0-0.3l0-0.1l0.1-0.2l0-0.1l0-0.1l0-0.1  l-0.1,0l-0.1,0.1l0-0.1l0.1-0.1l0.1-0.1l0.1-0.1l0.7-2.6l0.6-1.7l0.4-1.1l0.6-1.2l0-0.1l0-0.1l-0.2-0.2l0-0.1l0.1-0.1l0.1,0.1  l0.1,0.1l0,0.1l0.2-0.7l0-0.3l0-0.2l0.2-1.2l0.9-2.2l0.6-2.3l0.3-0.4l0.5-1.2l0.4-1.4l0.4-0.8l0.2-0.5l0.1-0.1l0.1-0.2l0-0.1  l0.2-1.4l0.2-0.4l0.1,0l0.1,0l0,0l0-0.1l0-0.1l-0.1-0.1l0-0.1l0-0.1l0-0.1l0-0.1l0.3-1.1l0.2-0.9l0.1-0.5l0-0.5l-0.3-1.8l-0.2-0.3  l0-0.1l0.1-0.5l0.4-0.8l0.3-0.9l0.5-0.9l0.1-0.1l0.1-0.1l0.1,0l0.3,0l0.2-0.1l0.4-0.1l0.2-0.1l0.2-0.1l-0.2,0l-0.2,0l-0.2-0.1  l-0.1-0.1l-0.1-0.2l0-0.2l0-0.3l0.3-0.3l0.2-0.2l0.4-0.6l0-0.1v-0.2l0-0.1l0-0.1l0-0.3l0-0.1l-0.1,0l-0.1-0.1l0-0.3l0-0.3l0.1-0.7  l0-0.2l-0.2-0.2l-0.2-0.1l-0.5-0.2l-0.2-0.2l-0.1-0.2l0-0.2l0-0.2l0.1-0.2l0.2-0.4l0.1-0.1l0-0.1l0-0.1l-0.1-0.2l-0.1-0.2l0-0.4  l-0.1-0.2l-0.1-0.2l-0.1-0.1l-0.1-0.1l0-0.1h0l0.1-0.2l0-0.1l0-0.1l-0.1-0.4l0-0.2l0.4-0.6l0.2-0.1l0.2-0.1h0.4l0.3,0l0.2-0.1l0.1,0  l0,0l0,0.1l0,0l0,0l0,0l0.1,0.4l0,0.1l0,0.2l0,0.1l0.2,0.3l0,0l0.1,0l0,0l0,0l0,0l0.1,0.1l0,0.1l0,0.1l0,0.1l0,0.1l0,0.1l0,0.1  l0,0.1l0.1,0.1l0.1,0.1l0.1,0.1l0.1,0l0,0.1l0,0.4l0.1,0.2l0.1,0.2l0.3,0.3l0.2,0l0.1,0.1l0.1,0.4l0.1-0.1l0.1,0l0.1,0l0.1,0  l0.1-0.1l0.2-0.4l0.5-0.7l0-0.1l-0.1,0l0.1-0.2l0.6-1.2l0-0.2l0-0.1l0.1-0.4l0-0.2l0,0l0.1-0.1l0-0.1l0,0l0-0.1l0-0.1l0-0.1l0.1-0.2  l0,0l0-0.1l0,0l0-0.1l0.1-0.1l0-0.1l0,0L-385.7,358.5z"/></svg>