<svg xmlns="http://www.w3.org/2000/svg" xmlns:xlink="http://www.w3.org/1999/xlink" version="1.1" x="0px" y="0px" viewBox="-345 257 100 100" fill="#e0e0e0" style="enable-background:new -345 257 100 100;" xml:space="preserve"><path d="M-251.5,295.8L-251.5,295.8L-251.5,295.8L-251.5,295.8L-251.5,295.8L-251.5,295.8z M-251.1,295.9L-251.1,295.9L-251.1,295.9  L-251.1,295.9L-251.1,295.9z M-251.1,296.1L-251.1,296.1L-251.1,296.1L-251.1,296.1L-251.1,296.1z M-249.3,292.3L-249.3,292.3  l0.2,0.1l0.1,0l0.1,0l0.1,0l-0.1-0.1l0-0.1l0.1,0l0,0l-0.1-0.1l0,0l-0.1,0l-0.1,0l-0.1,0l-0.1,0l-0.1,0l-0.1,0l0,0l0,0L-249.3,292.3  L-249.3,292.3z M-329.2,297.9L-329.2,297.9L-329.2,297.9l0.1,0l0,0l0,0l0-0.1l-0.1,0L-329.2,297.9L-329.2,297.9L-329.2,297.9  L-329.2,297.9L-329.2,297.9L-329.2,297.9z M-323.3,314.2L-323.3,314.2L-323.3,314.2L-323.3,314.2L-323.3,314.2L-323.3,314.2l0-0.1  l0,0L-323.3,314.2L-323.3,314.2L-323.3,314.2z M-321.1,314.7L-321.1,314.7L-321.1,314.7L-321.1,314.7l-0.1,0v0.1L-321.1,314.7  L-321.1,314.7l0,0.1L-321.1,314.7L-321.1,314.7L-321.1,314.7z M-320.1,315.3L-320.1,315.3L-320.1,315.3l-0.1,0l0,0l0,0l0,0l0,0  l0,0.1l0.1,0L-320.1,315.3L-320.1,315.3L-320.1,315.3z M-322.3,316.1L-322.3,316.1l0.1,0.1l0.1,0l0,0l0-0.1l-0.1-0.1l-0.1,0  L-322.3,316.1L-322.3,316.1L-322.3,316.1L-322.3,316.1L-322.3,316.1L-322.3,316.1z M-325.8,321.1l0,0.1l0,0h0L-325.8,321.1l0.1,0.1  L-325.8,321.1L-325.8,321.1z M-251.2,296.4L-251.2,296.4L-251.2,296.4L-251.2,296.4z M-251.3,296.6L-251.3,296.6L-251.3,296.6  L-251.3,296.6z M-251.4,296.7L-251.4,296.7L-251.4,296.7L-251.4,296.7L-251.4,296.7z M-251.5,296.8L-251.5,296.8L-251.5,296.8  L-251.5,296.8L-251.5,296.8L-251.5,296.8L-251.5,296.8z M-245.8,300.2L-245.8,300.2l0.1-0.1l0,0l0,0l-0.1,0l-0.1,0l-0.1,0.1  L-245.8,300.2L-245.8,300.2z M-247.6,304.3L-247.6,304.3L-247.6,304.3l-0.1,0l0,0l0,0l0,0l-0.1,0l0,0.1l0.1-0.1l0.1,0l0,0H-247.6  L-247.6,304.3L-247.6,304.3L-247.6,304.3L-247.6,304.3z M-251,296.5L-251,296.5L-251,296.5L-251,296.5L-251,296.5L-251,296.5  L-251,296.5L-251,296.5L-251,296.5z M-253.2,297.6L-253.2,297.6L-253.2,297.6L-253.2,297.6l0.1,0l0.1-0.1l0,0l0,0l0,0l0,0l0,0l0,0  l0,0l0,0l0,0l0,0l0,0l0,0l0,0l0,0l0,0l0,0l0,0l0,0L-253.2,297.6L-253.2,297.6z M-251.7,298.4L-251.7,298.4L-251.7,298.4l-0.1,0l0,0  l-0.1,0h-0.1l0,0l0.1,0L-251.7,298.4l0,0.1l0.1,0.1l0.2,0l0,0l0,0l0-0.1l0,0l0,0l0,0l0,0l0,0l0,0l0,0l0,0l0,0l0,0l0,0l0,0l0,0l0,0  l0,0l0,0L-251.7,298.4L-251.7,298.4L-251.7,298.4l0.1,0L-251.7,298.4L-251.7,298.4L-251.7,298.4L-251.7,298.4L-251.7,298.4  L-251.7,298.4L-251.7,298.4L-251.7,298.4z M-327.8,298.6L-327.8,298.6L-327.8,298.6l0.1-0.1l0-0.1l0,0l0,0l0,0l0,0l0-0.1l-0.1,0  l-0.1,0l0,0.1L-327.8,298.6L-327.8,298.6z M-249.9,302.6L-249.9,302.6L-249.9,302.6L-249.9,302.6L-249.9,302.6l0,0.1l0,0l0,0l0,0  l0.3-0.1l0,0l0,0l-0.1,0l0,0l0,0l0,0l0,0l0,0l0,0l0,0l0,0L-249.9,302.6L-249.9,302.6L-249.9,302.6L-249.9,302.6L-249.9,302.6  L-249.9,302.6L-249.9,302.6L-249.9,302.6L-249.9,302.6L-249.9,302.6z M-340.3,306.4l0-0.1l0-0.1l0,0l0,0l0,0l0,0l0,0l0,0l0,0l0,0.1  l0,0l0,0l0,0.1l0,0l0,0l0,0L-340.3,306.4l0,0.1L-340.3,306.4L-340.3,306.4L-340.3,306.4z M-336.9,312.8L-336.9,312.8l0,0.1l0,0.1  l0.1,0l0.1,0l0-0.3L-336.9,312.8L-336.9,312.8z M-344.1,296L-344.1,296l-0.1,0.1l-0.1,0.2l0,0.1l0.1,0.1l0,0l0,0l0.1,0l0,0l0-0.1  l0-0.1l0,0l0-0.1l0-0.1l0-0.1l0,0L-344.1,296L-344.1,296l0.1,0L-344.1,296L-344.1,296z M-248.5,304.3L-248.5,304.3L-248.5,304.3  l0-0.1l-0.1-0.1l-0.1,0l-0.1,0.1l-0.1-0.1l0-0.1l0-0.1l-0.1,0l0,0l0,0l0,0l-0.1,0h-0.4v0l0.3,0.1l0.2,0l0,0l0,0l0,0l0.1,0l0.1,0  l0.1,0l0.1,0.1l0,0l0,0l0,0l0,0l0,0l0.1,0.1L-248.5,304.3L-248.5,304.3L-248.5,304.3z M-247.8,305l-0.3,0l-0.1,0l0,0l-0.1,0l0,0  l0,0.1l0,0l0.1,0l0,0l0,0.1v0l0,0l0,0l0.1-0.1h0.2l0.1,0l0-0.1l-0.1-0.1L-247.8,305z M-254.8,294l0.1,0l0.2,0l0.2,0l0.1,0l0.2-0.2  l0-0.2l-0.1-0.2l-0.1-0.2l-0.1,0.1l-0.2,0l-0.1,0.1l0,0.1l0.2,0l0,0l0,0.1l-0.1,0l-0.1,0l-0.3,0l-0.1,0l0,0L-254.8,294L-254.8,294  L-254.8,294z M-257.2,291.3L-257.2,291.3l0.1,0l0-0.1l0,0l0,0l0,0l0.5-0.1l-0.1-0.1l0-0.1l0.1,0l0.1,0.1l0.1-0.1l0-0.1l0-0.1  l-0.1-0.1l-0.2,0.2l-0.1,0l-0.2,0l-0.1,0l-0.2,0.5L-257.2,291.3L-257.2,291.3z M-265.8,301L-265.8,301l0.1,0.1l0,0l0.1-0.1l0-0.1  l-0.1-0.3l0-0.1l-0.1,0l-0.1,0.1l0,0.1l-0.1,0.4l0,0.1l0.1-0.1L-265.8,301z M-252.3,306.5L-252.3,306.5l-0.1,0l0,0l0,0l-0.1-0.1  l0-0.1l-0.1,0l-0.1,0l-0.2-0.1l-0.1,0l-0.1,0l-0.1,0l-0.1,0.1l0,0.1l0,0.1l0.3,0.2l1,0l0-0.1L-252.3,306.5z M-285.6,315.2l0,0.2  l0,0.1l0.1,0l0.1,0l0.1,0.2l0.1,0.1l0,0l0,0l0,0l0.1,0l0,0l0,0l0,0l0,0l-0.1-0.3l0-0.4l0-0.9l-0.1-0.2l-0.1-0.2l-0.2-0.1l-0.1,0.2  l0,0.3l0.1,0.8L-285.6,315.2z M-250.6,298.2L-250.6,298.2L-250.6,298.2l0.1,0l0.1,0l0,0l0.1,0l0,0l0,0l-0.1,0l-0.1,0l-0.1,0l-0.1,0  L-250.6,298.2L-250.6,298.2L-250.6,298.2z M-336.7,312.4L-336.7,312.4l-0.1,0l0,0.1l0,0L-336.7,312.4L-336.7,312.4L-336.7,312.4z   M-336.6,312.7L-336.6,312.7l0.2-0.1l0.1-0.1l0-0.1l0-0.1l0,0l0-0.1l-0.1,0l-0.1,0l-0.1,0.1L-336.6,312.7l-0.1,0L-336.6,312.7  L-336.6,312.7L-336.6,312.7L-336.6,312.7z M-343.6,295.5L-343.6,295.5l0-0.2l0,0l-0.1,0l0,0l-0.1,0l-0.1-0.1l0-0.1l0-0.1l0-0.1l0,0  l-0.1,0l0,0l0,0l0,0.1l0,0l-0.1,0.1l0,0l0,0l0,0l0,0l0,0l-0.1,0l-0.2,0.1l-0.1-0.1l-0.1,0l-0.2,0l-0.1-0.1l0,0.2l0,0.1l0,0.1  l0.1,0.1l0.2,0.1l0.1,0.1l0,0.1l0,0.2l0,0.1l0,0.1l0,0l0.1,0l0.1,0l0.1,0l0.1-0.2l0.1,0l0.1,0l0.1,0.1l0.1,0l0-0.1l0-0.1l0,0l0.1,0  l0,0l0,0L-343.6,295.5L-343.6,295.5L-343.6,295.5z M-341.6,300.2L-341.6,300.2l-0.1-0.1l-0.1,0l-0.1,0l-0.1,0l0,0l0,0l0,0l0,0l0,0  l0,0l0,0l-0.1,0l0,0l0,0l0,0l0,0l0,0l0,0l0,0l0,0l0,0.2l0,0.3l0,0.1l-0.1,0l0,0l0,0l0,0l0,0l0,0l0,0l0.2,0l0.3,0.1l0-0.1l0.1-0.2  l0-0.1l0-0.2l0.1-0.2L-341.6,300.2L-341.6,300.2z M-256.2,291.7L-256.2,291.7L-256.2,291.7l0.1-0.2l0-0.1l0,0l0.1-0.1l0,0l0.1,0  l0.3-0.1l0.1,0l0.1,0l0.1-0.1l0.1-0.2l0.1-0.4l0-0.1l-0.1-0.1l-0.1,0l-0.4,0.1l-0.1,0l-0.1,0l-0.1,0.1l-0.1,0.1l-0.1,0l-0.1,0l0,0  l0,0l0,0.2l0,0l0,0.1l0,0.4L-256.2,291.7z M-322.2,313.9L-322.2,313.9l0,0.1l0.1,0.1l0.1,0l0.1,0l0.1,0l0.1,0l0-0.1l0-0.3l-0.1-0.2  l0-0.1l-0.1-0.1l0,0l0-0.1l0,0l0,0l-0.1,0l0,0l0,0.1l0,0.1l0,0.1l0,0.1v0.1l0,0.1l0,0l-0.1,0l0,0l0,0L-322.2,313.9L-322.2,313.9z   M-321.4,320.2l-0.1-0.3l0-0.2l0-0.1l0-0.1l0-0.1l-0.1-0.1l0-0.1l0-0.2l0-0.1l-0.1-0.1l0-0.2l-0.1-0.2h0l-0.1,0l-0.1-0.1l-0.1-0.1  l0-0.1l0-0.2l0-0.1l0-0.1l0-0.1l-0.1-0.1l0-0.1l-0.1-0.1l-0.1-0.1l-0.1-0.3l-0.2-0.3l0-0.1l0-0.1l0-0.1l0,0l0-0.1l-0.1-0.1l0-0.1  l0-0.1l0-0.1l0-0.1l0,0l-0.1-0.1l0,0l-0.4-0.5l0-0.1l0-0.1l0-0.1l-0.1-0.3l-0.1-0.1l-0.2-0.1l0,0l0,0l0,0l-0.1,0l-0.1,0.1l0,0  l-0.1,0l-0.1-0.1l0,0l-0.1,0l-0.1,0l-0.1,0l-0.6-0.6l-0.2-0.3l-0.2-0.4l0-0.2l0.1-1.2l0-0.1l0-0.1l-0.1-0.6l0-0.2l0.2-0.5l-0.2,0  l0.1-0.1l-0.1-0.2l-0.2-0.2l-0.1-0.1l0-0.1l-0.2-0.4l0-0.1l0-0.1l0-0.1l0-0.1l0.1-0.1l0.1,0l0-0.1l0-0.2l0-0.2l0.1-0.2l0.1-0.1  l0.1,0.1l0-0.1l-0.2-0.5l0-0.2l0-0.1l0-0.1l0.1-0.1l0,0l0,0l0,0l0-0.1l0-0.1l0,0l0,0l0.1-0.1l0,0l0-0.1l0.1-0.2l0-0.1l0-0.2  l-0.2-0.5l0-0.1l-0.1-0.2l0-0.1l0.1-0.1l0-0.1l-0.1-0.8l0-0.2l0-0.1l0-0.2l0-0.1l0-0.1l-0.1-0.1l0,0l0-0.1l-0.3-0.5l-0.5-0.8  l-0.2-0.4l-0.5-0.8l-0.5-0.5l-0.3-0.2l-0.1-0.1l-0.2,0l-0.2-0.1l-0.9-0.7l-0.1-0.1l-0.1-0.1l-0.1-0.2l-0.1-0.1l-0.1-0.1l-0.3-0.2  l-0.2-0.1l-0.1-0.1l-0.6-1.2l-0.2-0.2l-0.1-0.1l-0.6-0.2l-0.1,0l-0.1,0.1l0.1,0l0,0l0,0.1l-0.1,0l-0.1,0l-0.3-0.2l-0.1-0.1l0,0.3  l0,0.4l-0.1,0.2l-0.1,0.1l-0.4,0.3l-0.1,0.2l-0.1,0.2l0,0.2l0,0.2l-0.2,0.1l-0.1,0l0,0l0,0l0,0l-0.1,0.1l0,0l0,0.1l-0.1,0.1l-0.1,0  l-0.1-0.1l0-0.1l0-0.1l0-0.1l-0.1,0l-0.1,0l-0.1,0.1l-0.1,0l-0.1,0l-0.1-0.1l-0.1-0.2l0,0l0-0.1l0,0l0,0l-0.1,0l0,0l0,0l0-0.1  l-0.1-0.1l-0.1,0l-0.1,0l-0.7,0.3l-0.2,0.1l-0.2,0.1l-0.2,0l-0.2,0.1l-0.1,0.2l0,0.1l0,0.1l-0.1,0.1l-0.1,0.1l-0.2,0.1l-0.1,0  l-0.1,0l-0.1-0.1l-0.1-0.1l-0.1-0.1l-0.1-0.1l-0.1,0l-0.1,0l0,0l0,0l-0.1-0.1l-0.1-0.1l0-0.1l0-0.1l0-0.1l0.2-0.4l0.1-0.1l0.1,0  l0.1,0l0-0.1l0-0.1l0-0.2l0-0.3l0-0.2l0-0.1l-0.1-0.1l-0.1-0.1l0-0.1l0.1-0.1l0.1,0l0,0l0-0.1l0-0.1l0-0.1l-0.1,0l-0.2,0.1l-0.1,0  l-0.2-0.1l-0.1,0l-0.1,0.1l-0.1,0l-0.2-0.1l-0.1,0l-0.1,0l0,0l0,0l0-0.1l0,0l0-0.1l0,0l0,0l0,0l0,0l-0.1-0.1l0-0.1l0-0.1l0-0.2  l0-0.1l-0.1-0.1l-0.1,0l-0.1,0l0,0l0,0l0,0l0-0.1l0,0l-0.1,0l-0.3,0.2l-0.1,0l-0.1,0l-0.2-0.1l-0.3-0.1l-0.1,0l-0.2-0.1l-0.1,0  l-0.1,0l-0.1,0l-0.1,0l-0.2-0.1l-0.1-0.1l-0.1-0.1l-0.2-0.6l0,0l-0.1,0l-0.1,0l0,0l-0.1,0v0l-0.1,0l0,0l0,0l0,0l-0.1,0l0,0l0,0.1  l0,0.1l0,0.2l0,0.1l0,0.1l0,0.1l0,0l0,0l0,0.1l0,0l0,0.1l0,0l0,0.1l0,0.1l0,0.1l0,0.1l0,0.2l0.1,0.2l0.1,0.2l0.1,0.2l0.2,0.1  l0.1,0.1l0.1,0.2l0.2,0.3l0.1,0.2l0.1,0.1l0.1,0.1l0,0.1l0.1,1l-0.1,0.6l0,0l0,0l0,0l0,0l0,0l-0.1,0l-0.1,0l0,0l0,0.4l0,0.1l0.1,0.2  l0,0.1l0,0.4l0,0.1l0,0.1l0.1,0.1l0.1,0.2l0,0.1l0,0.1l-0.1,0.1l0,0.1l0,0l0,0.1l0,0.1l0,0.1l-0.1,0.2l0,0.2l0,0.1l-0.1,0l-0.1,0.1  l0,0l0,0l0,0l0,0l0,0.1l0,0.1l0.1,0.2l0,0.1l0.1,0.1l0,0.1l0,0.1l0,0.1l0.1,0.1l0,0l0.1,0l0.1,0l0.1,0l0.1,0l0,0l0,0l0,0.1l0,0  l-0.1,0l0,0l0.1,0l0.1,0l0.1,0l0.1,0l0,0.1l0,0l0,0l0,0v0.1l0,0.1l0,0.1l0,0.1l0,0l0,0l0.1,0l0.1,0l0,0l0,0.1l0.1,0l0,0v0l-0.1,0  l0,0.1l0,0.3l0,0.1l0.1,0l0.1,0l0.1,0l-0.1,0l0,0l0,0.1l0,0.1l-0.1,0l-0.1,0l0,0.1l0,0.1l0,0.1l0.1,0.1l0.1,0l0.1,0l-0.1,0.1  l-0.1,0.3l0,0.1l0,0.1l-0.1,0.1l0,0.1l0,0.1l0,0.1l0,0.1l0,0.1l0,0l0,0l0.1,0.1l0,0.1l0,0.1l0,0.1l0.1,0l0,0.1l0,0.2l0,0.2l0.1,0.1  l0.1-0.1l0.1,0l0.1,0.1l0.1,0.1l0.3,0.2l0.1,0.1l0,0.1l0,0.1l0,0.1l0.1,0l0.1,0l0.1-0.1l0.1,0l0.1,0.1l-0.1,0l-0.1,0l-0.1,0  l-0.1,0.1l-0.1,0l-0.3,0l-0.1,0l0,0.1l0,0.3l0,0.1l0,0.1l0.1,0.1l0.1,0l0.1,0.1l0.1,0l0.1,0l0,0l0.1,0l0.1,0l0.1,0l0,0l-0.1,0.1  l-0.1,0.1l0,0.1l0.1,0.1l0.2,0l0.1,0.1l0.1,0.2l0.1,0.1l0,0l0,0l0.1,0.1l0.4,0.3l0.1,0.1l0,0.1l0,0.2l0.1,0.1l0,0.1l0,0l0.2,0.2  l0.2,0.3l0,0.1l0,0l0,0l0.1,0l0.1,0l0,0l0,0l0,0l0.2,0.1l0.1,0.1l0,0.1l0.1,0.7l0,0.1l0.1,0.1l0,0.1l0,0.2v0.1l-0.1,0.1l-0.1,0  l-0.1,0.1l-0.3,0.3l0,0.1l0.1,0l-0.1,0.2l0.1,0.1l0.2,0l0.2,0.1l0.2,0.1l0.3,0.4l0.1,0.1l0.2,0.1l0.1,0l0.2,0l0.1,0l0.3,0l0.1,0.1  l0.1,0.1l0.1,0l0.2,0l0.1,0l0,0.1l0.1,0.3l0.1,0.1l0,0l0,0l0.1,0.1l0,0.1l0,0.2l0,0.1l0.1-0.1l0.2,0l0.1-0.1l0.2,0.1l0.1,0l0.1,0  l0,0.1l0.1,0.1l0.1,0.1l0.1,0l0.1,0l0.4,0.4l0.1,0.1l0.2,0.1l0.8,0.3l0.7,0.3l0.2,0.1l0.1,0.1l0.1,0.1l0,0l0,0l0,0l0,0l0,0.1  l0.1,0.1l0.4,0.3l0.1,0.1l0.1,0.2l0.1,0.1l0.1,0.1l0.1,0l0.3,0l0.1,0l0.2,0.1l0.1,0.1l0.1,0.1l0.1,0.1l0.1,0.1l0.1,0.1l0.1,0l0.1,0  l0.1,0l0.2,0.1l0.9,0.5l0.6,0.2l0.2,0.1l0.1,0.2l0.1,0.2l0.2,0.6l0,0.1l0.1,0.1l0.2,0.2l0.1,0.1l0.1-0.2l0.1-0.1l0-0.1l0,0l0-0.1  l0-0.1l0,0l0,0l0,0.1l0,0l0.2,0l0.2-0.1l0.3-0.3l0.1,0l0.1,0l0.2,0l0.1,0l0.2-0.1l0.1,0l0.4,0.2l0.2,0.1l0.2-0.1l0-0.1l0-0.1l0-0.1  l0-0.1l0-0.1l0-0.1l-0.2-0.3l-0.1-0.1l0-0.1l0.1,0.1l0.1,0.2l0.2,0.3l0,0.1l0,0l0,0l0.2-0.1l0.1,0l0.1,0l0.1,0l-0.1,0.1l-0.2,0.1  l-0.1,0.1l0,0.2l0,0.1l0.1,0l0.1,0.1l0,0.1l0,0.1l0,0.1l0,0l0.2,0.1l0.1,0l0.2,0l0,0l0.1-0.1l0,0h0.2l0-0.1l0-0.2l0,0l0-0.1l0-0.1  L-321.4,320.2z M-245,300.8l0-0.1l0-0.1l0-0.1l-0.1-0.1l-0.1-0.2l-0.1-0.1l-0.1,0l-0.1,0l-0.4,0.2l-0.2,0l-0.2-0.1l-0.1,0l-0.1,0  l0,0l0,0.1l0,0.1l-0.1,0l-0.1,0l-0.1,0l-0.1,0l0.1-0.1l0-0.1l-0.1-0.1l-0.1,0l-0.1,0l-0.2-0.2l0,0.1l0,0l0,0l0,0l0-0.1l-0.1-0.1  l-0.1-0.1l-0.1,0l-0.1,0l-0.1-0.1l-0.2-0.3l-0.1-0.1l-0.1,0l-0.1,0.1l0,0.1l0,0.1l0,0.1l0,0l0,0.1l0,0.1h0l0-0.1l0-0.1l0-0.1  l0.1-0.3l0,0l0,0l0,0l0-0.1l0-0.1l-0.1,0l-0.1,0l-0.1,0l-0.2-0.1l-0.5-0.3l-0.1,0l0,0l0,0l0,0l0,0l-0.1,0.1l0,0l0,0l-0.3-0.1l-0.1,0  l-0.2,0.1l-0.2,0l-0.1,0.1l0,0.1l0,0.1l0,0l0,0l0,0l0,0.1l0,0.1l0,0l0,0.1l0,0l0,0l-0.1-0.1l0,0l-0.1,0l0,0l0,0l0,0l0,0l0,0l-0.1,0  l-0.2,0.1l-0.1,0l-0.1,0l0,0l0,0l0,0l-0.2-0.4l0,0l0,0l0-0.1l0.1-0.1l0.1,0l0.3,0l0.1,0l0.1,0l0.1,0l0.1,0l0.1,0l0.1-0.2l0,0l0,0  l-0.2-0.3l0-0.1l0-0.1l0-0.1l-0.1,0l0,0l0-0.1l0-0.1l-0.2-0.2l-0.1,0l0,0l0,0l-0.1,0l-0.2,0.2l-0.1,0.1l-0.1,0.1l0,0.1l0,0l-0.2,0  l-0.1,0l-0.1,0l-0.1,0l-0.1,0l-0.1,0l0,0.1l0,0.1l-0.1,0l-0.3,0l-0.3,0l-0.4,0l-0.1,0l-0.3,0.1l-0.1,0l0.1-0.1l0.6-0.2l0.2-0.1  l0.1-0.1l0-0.1l0-0.1l-0.1,0l-0.1,0l0-0.1l0-0.1l0,0l0,0l0,0l0-0.1l0,0l0,0l0-0.1l0,0l-0.1,0l-0.1-0.2l-0.1-0.1l0-0.1l0-0.1l0.1-0.1  l0.1-0.1l0.1,0l0.2,0l0.1,0l0-0.1l0-0.3l-0.1-0.1l0,0l0,0l0,0l0,0l0-0.1l0,0l0-0.1l0,0l0,0l0,0l0,0l0,0l0,0l0,0h0l-0.1-0.1l-0.1-0.1  l-0.1-0.1l0,0l-0.1,0l-0.1,0l-0.1,0l0,0l-0.1-0.1l0,0l-0.1,0l0,0l0,0l0,0l0,0l0,0l-0.1-0.1l0,0l0-0.1l0-0.1l0,0l-0.1,0.1l-0.1,0.2  l-0.1,0.1l-0.1,0l-0.1,0l-0.1-0.1l-0.1-0.1l-0.1-0.1l-0.1-0.1l-0.1,0l-0.2,0l-0.1,0l-0.1-0.1l0-0.1l0-0.3l0-0.1l-0.2-0.2l0-0.1  l0-0.1l0-0.1l0.1,0l0-0.1l0-0.2l0-0.1l0,0l0,0l-0.3-0.2l0,0l0,0l-0.1-0.1l0,0l0,0l-0.1,0.1l0,0l0,0l-0.1,0l-0.1,0l-0.1,0l0,0l0,0.1  l0,0.1l0,0l0,0l0,0l0,0l0,0l-0.1,0l0,0l0,0l0,0.1l0,0.1l0.1,0.2l0,0.1l0,0.1l-0.2,0.2l-0.1,0.1l0,0l0,0l0,0l0,0.2l0,0.1l-0.2,0.1  l-0.2,0.2l-0.1,0l-0.1,0l-0.1,0.1l-0.1,0.1l-0.1,0.1l-0.2-0.1l0-0.2l0.1-0.2l0.1-0.2l0.2-0.2l0.1-0.1l0-0.2l0-0.1l-0.1,0l-0.1,0  l-0.1-0.1l0,0l0-0.2l0,0l0.1,0l0.1,0.1l-0.1-0.4l0-0.1l-0.2-0.1l-0.1-0.1l0,0l-0.1,0l-0.1,0l0,0l0,0.1l-0.1,0.1l0,0l0,0l0,0l0,0.1  l0,0.2l0,0.1l-0.1,0.1l0,0.1l0,0.2l0,0.1l-0.1,0.1l0,0l0,0.1l0,0.2l0,0.1l0,0.1l-0.1,0.1l-0.1,0.1l-0.3,0.4l-0.1,0.1l-0.1,0l0,0.1  l0,0.1l0,0.1l0,0.1l-0.1,0.1l-0.1,0l-0.1,0.1l-0.1,0.1l-0.5,0.3l0,0.1l0,0l0,0l0,0.2l0,0l0,0l0,0l-0.1,0l0,0l0,0l-0.1,0.1l-0.1,0.1  v0l0.1,0l0.1,0l0.1,0l0,0.2l0,0.1l-0.1,0l-0.1,0l-0.1,0l-0.1,0l-0.1,0l-0.1,0.1l-0.2,0.4l-0.1,0.1l-0.2,0l-0.1,0.1l0,0.1l0.1,0  l0.1,0.2l-0.1,0.2l-0.3,0.5l0,0.1l0,0.2l0,0.1l-0.1,0.1l-0.5,0.3l-0.1,0.1l-0.1,0.1l0,0.1l0,0.2l-0.1,0.2l-0.1,0.2l-0.1,0.2  l-0.2,0.1l-0.1,0l-0.1,0l-0.4,0l-0.1,0l-0.2-0.2l0,0.1l0,0.1l0,0.1l-0.1-0.1l0.2-0.3l-0.1-0.1l-0.1,0.1l-0.2,0.4l-0.4,0.3l-0.1,0.1  l-0.1,0.1l-0.3,0.2l-0.1,0.1l0,0l0,0.1l0,0.1l0,0.2l0,0.1l0,0.1l0,0.1l0.1-0.1l0,0l0.1,0l0,0l0,0l0,0l0.5,0.4l0.2,0.1l0.2,0l0.2-0.1  l0,0.1l0,0l0,0l0,0l-0.1,0.1l0,0l0,0.2l0,0.2l0,0.1l0,0.1l-0.1,0.1l-0.1,0l-0.1,0l-0.1,0l-0.2,0.2l-0.2,0.2l0,0l-0.2,0.2l-0.1,0  l-0.1,0l-0.1,0l-0.1,0l-0.1-0.1l0,0l-0.1,0l0,0l-0.1,0l0,0l0,0l-0.1-0.1l-0.1,0l-0.1,0l0,0.2l-0.1,0l-0.1,0l-0.1,0l0,0.1l0,0l0.1,0  l0.1,0l0.1,0.2l0.3,1l0,0.1l0,0.1l0,0.2l0,0.2l0,0.2l0.1,0.2l0.1,0.2l0.2,0.2l0.1,0.1l0,0.1l-0.1,0.1l-0.1,0l-0.1-0.1l-0.1-0.1l0,0  l-0.1,0l-0.1,0l-0.1-0.1l0,0l-0.2,0l-0.1,0l-0.3-0.1l-0.1,0l0-0.1l-0.1-0.5l-0.1-0.2l-0.2-0.4l0-0.2l0-0.4l0-0.4l0-0.2l0-0.2l0-0.1  l0,0l0,0l0,0l-0.1,0l-0.1,0.1l0,0.1l0,0.1l0,0.1l-0.1,0l-0.1,0l-0.1,0l-0.1,0l-0.1,0l-0.1,0.1l-0.2,0.2l-0.1,0.1l-0.2,0.1l-0.1,0  l0,0.1l0,0.1l0.1,0.2l0,0.1l0,0.1l0,0.6l0,0.2l0.1,0.1l0.1,0l0.1,0l0,0l0,0.1l0,0.2l0,0.1l-0.1,0.1l-0.2,0.1l0,0l0,0.1l0.2-0.1  l0,0.1l0,0.1l-0.1,0.2l0,0.1l0,0.2l0,0.1l-0.5,0.4l-0.2,0.1l-0.2,0l0,0l0-0.1l0-0.1l0,0l-0.1-0.1l-0.3-0.3l-0.1-0.1l0-0.1l-0.1-0.3  l-0.1-0.1l-0.1,0l-0.2,0l-0.2,0l-0.2,0l0,0l0-0.1l0,0l0.1-0.1l0,0l0-0.2l-0.1-0.1v-0.1l0-0.1l0-0.1l-0.1-0.1l0,0l0,0l0,0l0,0l-0.1,0  l0,0l0-0.1l-0.1,0l-0.1,0l-0.2-0.1l-0.1-0.1l-0.3,0l-0.3-0.2l-0.1,0l0,0.1l0.1,0.5l0,0.2l-0.1,0.2l-0.1,0.2l0,0.2l-0.1,0.2l-1.1,1.4  l-1.2,1.1l-0.2,0.1l-0.1,0.1l0,0.1l0,0.1l0,0.1l-0.1,0.2l-0.2,0.3l0,0.1l0,0l-0.1,0.1l0,0.1l0,0.1l0,0l0,0l-0.1,0.1l-0.4,0.3  l-0.2,0.3l0,0l-0.1,0l-0.2,0.2l-0.1,0.1l0,0l0.1,0.1l-0.1,0.2l-0.3,0.3l-0.2,0.1l-0.9,0.3l-0.1,0l-0.3,0.1l-0.8,0.2l-1.4,0.4  l-1.4,0.4l-0.8,0l-1,0.2l-0.2,0.1l-0.6,0.3l-0.4,0.3l-0.1,0.1l0,0.1l0,0.2l-0.1,0.3l0,0.1l0,0.1l0.1,0.1l0.1,0.1l0.1,0.1l0.2,0  l0.1,0l0,0l0,0l0,0l0,0l-0.1,0.1l-0.1,0l-0.1,0l-0.2,0l0,0.1l0.1,0.2l0,0.1l0.2,0.2l0.1,0.1l0,0.1l-0.1-0.1l-0.1-0.1l0,0l-0.2,0l0,0  l-0.2,0.1l0,0l0,0l0,0l0,0l0,0l-0.1-0.2l-0.1-0.1l-0.2-0.1l-0.1,0l0-0.1l-0.1,0.1l-0.1,0.1l0,0.4l-0.1,0.2l0,0.1l0,0l0.1,0l0.1,0  l0.1,0.1l-0.1,0l-0.1,0l-0.1,0.1l0,0.1l0,0.1l0,0.1l0.1,0l0.4-0.1l0.1,0l0.1,0.1l0.1,0l0,0l0-0.1l0.1-0.1l0.1,0l0,0l0,0l-0.1,0.1  l0,0l-0.1,0l0,0l-0.2,0l-0.1,0l-0.1,0l-0.1,0.1l0,0.1l0.1,0.1l-0.1,0l-0.1,0l-0.1,0l0,0l0,0.1l-0.1,0.5l-0.2,0.3l-0.1,0.2l0,0.1  l0,0.1l0,0l0.1,0l0,0l0,0l-0.1,0l0,0l0,0.1l0,0.1l0.1,0.2l0,0l0,0l0.1,0l0,0l0,0l0.1,0.1l0,0.1l0,0l0,0l0.1,0l0,0l0,0l0.1,0.1l0,0  l0.1,0l-0.1,0l-0.1,0l-0.1,0l-0.1,0l-0.1,0.1l-0.1-0.1l-0.1-0.1l-0.1-0.1l-0.1,0l-0.1,0l-0.3,0.1l0,0.1l0,0.2l-0.1,0.2l0,0l0,0.2  l0,0.1l0.1,0.1l0.1,0.2l0.1,0.1l0.2,0.1l0.1,0.1l0.1,0.1l0.1,0.1l0.1,0l0.1,0l0.2-0.1l0.1,0l0.1,0l0.1,0.1l0.1,0l0,0l0,0.1l0,0  l0.1,0l0.1,0.1l0.1,0l-0.2,0.1l-0.2-0.1l-0.2-0.2l-0.2-0.1l-0.1,0l-0.2,0.1l-0.1,0l-0.1,0l-0.3-0.2l-0.2-0.1l-0.4-0.4l-0.2-0.1  l-0.4-0.2l-0.2,0l-0.1,0.1l0,0.1l0,0.1l0,0.1l-0.1,0.1l-0.1,0.1l-0.1,0l-0.1,0l-0.1,0v0l0.2-0.1l0.1-0.1l0-0.1l-0.1-0.1l-0.1-0.1  l-0.3-0.1l-0.2-0.1l-0.1,0l-0.1,0l-0.1,0.1l0,0l-0.1,0l0,0l0-0.1l0-0.1l-0.1,0l-0.1,0l-0.1,0.1l0-0.1l0.1-0.1l0,0l0-0.1l0-0.1l0-0.1  l0.1-0.1l-0.1-0.1l-0.1,0l-0.1,0.1l-0.2,0.1l-0.1,0.1l-0.1,0l-0.1,0l0,0l0,0l0,0l0,0l0,0l0,0l0,0l0-0.1l0,0l0,0l0-0.1l0-0.1l-0.1,0  l-0.1,0.1l-0.1,0.1l0,0l0,0.2l0,0l0,0.1l0,0l0,0l0,0.1l0,0.1l0,0l-0.1-0.1l0,0l0,0l0,0l0,0l-0.1,0.1l0,0l-0.1,0l-0.1-0.1l-0.1,0  l-0.6,0l-0.1,0l-0.1,0l-0.1,0l-0.3,0l-0.1,0l-0.1-0.1l-0.1-0.2l-0.1-0.1l-0.1-0.1l-0.2-0.1l-0.2-0.1l-0.3-0.1l-0.1-0.1l-0.1-0.1  l-0.1-0.2l0-0.1l0-0.1l0-0.1l0-0.1l0-0.1l-0.1-0.2l0-0.1l0-0.1l-0.1,0.3l-0.1,0.2l-0.1,0.1l-0.1,0.1l-0.2,0.2l0,0.1l0,0.1l0,0.2l0,0  l0,0l0,0.1l0,0.1l0,0.1l0.1,0l0.1,0l0.2,0l0.1,0l0,0.1l0,0.4l0,0.2l0,0.1l0.1,0.1l0.1,0.1l0.5,0.4l0,0.1l0,0.1l0,0l0.1-0.1l0,0  l0.1,0.2l0.1,0.1l0.1,0l0.1,0l0.1,0l0.1,0l0.1,0.1l0.1,0.3l0.1,0.1l0.1,0.1l0.2,0.1l0.1,0.1l0.1,0.2l0.1,0.1l0.1,0l0.3,0l0.1,0  l0.1,0.1l0.1,0.2l0.3,0.4l0,0.1l0,0.1l0,0l0.1,0l0.1,0l0.3,0.1l0.1,0l0.1,0.1l0.2,0.3l0.2,0.2l0.2,0.1l0.2,0l0.2-0.1l0.1-0.1l0,0  l0,0l0.1,0l0,0l0,0l0,0l0.1,0l0.1,0l0.1-0.1l0.1,0h0l0.1,0l0,0l0.1,0l0,0l0.1,0l0,0l0.1,0l0,0l0,0l0,0l0-0.1l0.1-0.1l0.3-0.2  l0.1-0.1l0.2,0l0.3,0l1.1-0.3l0.1,0l0.7,0.3l0.1,0l0.1,0l0.1,0l0.2-0.1l0.1,0l0.1,0l0,0.1l0,0.1l0.1,0.1l0.1,0l0.1-0.2l0.4-0.2  l0.1,0l0.1,0l0.1,0l0.3,0.1l0.1,0l0.3-0.1l0.4-0.5l0.3-0.1l0.4,0l0.1,0l0.1,0l0-0.1l0.3-0.8l0.2-0.3l0-0.1l0-0.1l0,0l-0.1,0l0,0  l0-0.1l0.1-0.1l0.6-0.3l0.1,0l0.3,0l0.1,0l0.1-0.1l0.1-0.1l0.1-0.1l0.1,0l1.5,0.1l0.1,0l0,0l0.1,0l0,0l0,0l0.1,0l0.1,0l0.1,0l0.1,0  l0.1,0l0.2,0l0.1,0l0.1,0l0.1,0l0,0.1l0,0.1l0,0.1l-0.1,0.1l-0.1,0.1l-0.2,0.1l0,0.1l0,0l0.1,0l0.2-0.1l0.2,0l0.2,0l0.2,0.1l0.2,0.1  l0.1,0l0.2,0l0.3,0.1l0.2,0.1l0.4,0.3l0.2,0l0.2-0.1l0.1,0l0.1,0l0.1,0.1l0.3,0.3l0.1,0.1l0.1,0l0.8-0.5l0.3-0.4l0.1-0.1l0.1,0  l0.7-0.1l0.2,0l0.2,0.1l0.1,0l0,0.1l0.1,0l0.1,0l0,0l0.1-0.1l0.8-0.3l0.1,0l0.1,0l0.1,0.1l0.4,0.3l0.1,0l0.1,0l0.1-0.1l0-0.1l0-0.1  l0-0.1v-0.1l0.1-0.1l0.2-0.1l0.1-0.1l0.1-0.2l0.1-0.3l0.1-0.4l0-0.2l0-0.1l0,0l0,0l0-0.1l0,0l0,0l0.1,0l0,0l0.3,0l0.3-0.1l0.1-0.1  l0-0.1l0-0.1v-0.1l0-0.1l0-0.1l0-0.1l0-0.1l0-0.1l0,0l-0.1,0l-0.1,0l-0.1,0l-0.1-0.1l0,0l0-0.2l0-0.1l-0.1-0.1l0,0l0-0.1l0.1-0.3  l0.1-0.2l0.2-0.1l0.4-0.1l0.1,0l0-0.1l0-0.1l0-0.1l0-0.1l0.1,0l0.2,0l0.1-0.1l0.2-0.2l0.1,0l0.1,0l0.2-0.2l0.1-0.1l0.2,0l0.1,0  l0.1-0.1l0-0.1l-0.1-0.1l-0.1-0.1l-0.1-0.1l-0.1,0l-0.1,0l-0.1,0l-0.1,0l-0.1,0l-0.1,0.1l-0.1,0l-0.1-0.1l0-0.1l0-0.1l0-0.1l0,0  l-0.1-0.1l0,0l0-0.1l0,0l0.1,0l0.1,0l0.1-0.1l0-0.1l-0.1-0.2l0-0.1l0,0l0,0l0.1-0.1l0-0.1l0-0.1l0-0.1l0-0.1l0.1-0.1l0.1-0.1  l0.3-0.2l0.1-0.1l0.1-0.2l0.1-0.1l0.1,0l0.1,0.2l0.1,0.1l0.2,0l0.3-0.1l0.2,0l0.1,0l0-0.1l0-0.2l0-0.1l0.2-0.2l0,0l-0.1,0l-0.1-0.1  l0-0.1l0.2-0.8l0.1-0.2l0.1-0.1l0.1,0l0,0l0,0l0.1,0l0,0l0-0.1l0-0.1l-0.1-0.2l0-0.1l0-0.1l0-0.1l0-0.1l-0.1-0.3l0-0.1l0-0.2l0-0.2  l0.2-0.6l0-0.2l-0.1-0.1l-0.1-0.1l-0.1-0.1l0-0.1l0,0l0.2-0.1l0-0.1l0.1-0.2l0.1-0.2l0.1-0.4l0.1-0.2l0,0l0.1,0l0,0l0,0l0.2-0.2l0,0  l0,0l0,0l0.1,0l0-0.1l0-0.1l0.2-0.2l0-0.2l0-0.2l0-0.2l0.1-0.1l0.1,0l0,0l0,0.1l0,0.1l0.1,0l0.2,0l0.1,0l0.1,0l0,0l0,0.1l0,0.1  l0.1,0.1l0.1,0l0.1,0l0.2-0.2l0.1-0.1l0.1,0l0-0.1l0-0.1l0.1,0l0.1,0l0.1,0l0.2,0.1l0.1,0l0.1,0l0.1-0.1l0.1,0l0.1,0.1l0,0l0,0l0,0  l0,0l0,0.1l0.1,0.2l0.1,0l0.1,0l0.1,0l0.1-0.1l0.1,0l0.1,0l0.1,0l0,0l0,0l0,0l0-0.1l0-0.1l0.1-0.1l0-0.1l0.1,0l0.2,0.3l0.1,0  l0.1-0.1l0.1,0.1l0.1,0l0.1,0l0.2-0.1l0.1,0l0.2,0.1l0.2,0l0.4-0.1l0.2,0l0.3,0.1l0.9,0l0,0l0.1-0.1l0.1,0l0.1,0l0,0l0,0l0,0.1  l0.2,0.1l0.4,0.2l0.3,0.3l0.1,0.1l0.1,0l0.2,0l0.1,0l0.1,0l0.1,0l0,0l0.2-0.1l0,0l0.1,0l0,0l-0.1-0.1l0,0l0,0l0,0l0,0l0,0l0.1-0.1  l0,0l0-0.1l0-0.1l-0.1-0.1l0-0.1v-0.2l0-0.1l-0.1-0.1l0,0l0-0.1l0.1-0.1l0.1-0.1l0.1,0l0.1,0.1l0,0.1l0.1,0.1l0.1,0.1l0,0l0.1,0  l0.2,0.1l0.1,0l0,0l0,0.1l0,0l0,0l0,0l0.1,0l0.2,0.2l0.1,0l0.1,0l0.3,0.1l0.1,0l0.7-0.3l0.1,0l0.4,0l0.5-0.1l0,0l0.1-0.1l0.1,0.1  l0.1,0l0.2,0l0.1,0l0.2,0l0.1,0l0.2,0l0.1,0l0.1-0.1l0.1-0.1l0.1-0.1l0-0.1l0-0.1l0.1,0l0.1,0l0,0l0.1,0l0-0.1l0,0l-0.2-0.2  l-0.1-0.1l0-0.1l-0.1,0l-0.1,0l-0.1,0l-0.1,0.1l-0.1,0l0,0l0,0l-0.1,0l0-0.1l0-0.1l0.1-0.1l0-0.1l0-0.1l-0.1-0.1l-0.1,0l-0.1,0  l-0.1,0l0,0.1l-0.1,0l0,0l0,0l0,0l0-0.1l0,0l0,0l-0.1,0l0,0l0,0l0,0l-0.1-0.1l-0.2-0.1l-0.2-0.1l-0.1-0.2l-0.1-0.2l-0.1-0.1l0,0l0,0  l-0.1-0.1l0,0l0,0l0-0.1l0-0.1l0,0l0.1-0.1l0.3-0.3l0.2-0.1l0.2,0l0-0.1l0-0.1l0,0l0,0l0.2-0.1l0.1-0.1l0,0l0,0l0.1,0l0.2,0.1  l0.2,0.2l0.1,0.2l0,0l0.1,0l0,0l0.1-0.1l0.2-0.1l0.1,0l0.1,0l0.1,0l0.1,0l0.2,0.1l0.1,0l0.1,0l0.1,0l0.1-0.1l0.2-0.1l0.9-0.3  l0.9-0.3l0.2-0.1l0.2-0.3l0.1-0.1l0-0.1l0-0.2l0-0.1L-245,300.8z"/></svg>