<svg xmlns="http://www.w3.org/2000/svg" xmlns:xlink="http://www.w3.org/1999/xlink" version="1.1" x="0px" y="0px" viewBox="-461 335 100 100" fill="#999999" style="enable-background:new -461 335 100 100;" xml:space="preserve"><path d="M-405.5,369.6l0.1,0l0.1-0.1l0.1-0.2l0-0.2l0-0.1l0.2-0.1l-0.4-0.2l-0.1,0.1l-0.1,0.4l-0.1,0.2l0.1,0.1L-405.5,369.6z   M-391.4,407.6l0.3-0.8l0.5-1.1l-0.3,0l-0.2,0l-0.1-0.1l-0.1-2.7l-0.1-0.2l-0.1-0.2l-0.6-0.6l-0.9-1.2l-1.3-1.7l-1.1-1.4l-0.8-1.6  l-1.1-1.3l-1.2-1.4l-1.4-1.6l-1.1-1.3l-1.1-1l-1.3-1.2l-0.4-0.2l-0.1,0l0,0.1l0,0.2l0.1,0.8l-0.1,0.8l0.1,0.3l0.3,0.3l0.2,0.1l0.2,0  l1.3,0l0.5,0.1l0.2,0.2l0.1,0.4l0.1,0.4l0.1,0.2l0.2,0.2l0,0.1l0,0.2l0.1,0.3l0,0.2l0,0.4l0.1,0.4l0.5,0.7l0.1,0.3l0,0.2l0,0.2  l0,0.2l0.1,0.2l0.4,0.6l0.1,0.5l0.1,0.4l0.5,1.1l0.2,0.3l0,0.1l-0.1,0.2l-0.1,0.2l-0.1,0.1l-0.1,0l-0.2,0.1l-0.1,0l-0.1,0l0-0.1  l0-0.1l0-0.1l-0.6-0.5l-0.2-0.4l-0.2-0.2l-0.2-0.1l-0.1-0.1l-0.3-0.4l-0.1-0.1l-0.1-0.4l-0.2-0.4l-0.3-0.3l-0.3,0l-0.1-0.1l-0.1-0.1  l-0.1-0.1l-0.4,0.1l-0.3-0.4l-0.1-0.5l0.1-0.4l-0.2-0.1l-0.3-0.3l-0.2-0.1l-0.4-0.1l-0.2,0.2l0,0.3l0.2,0.4l0.1,0.3l-0.2,0.3  l-0.3,0.3l-0.1,0.4l0.1,0.1l0.1,0.1l0.1,0.1l0,0.1l-0.1,0.1l0,0.1l0,0.1l-0.1,0.1l-0.2,0.1l-0.2,0.1l-0.2,0l-0.2,0.1l-0.2,0.1  l-0.2,0l-0.2-0.1l0-0.2l0.1-0.2l0-0.2l-0.2-0.2l-0.2-0.1l-0.2,0l-0.2,0l-0.2-0.2l-0.1-0.1l-0.1-0.2l-0.1-0.2l0-0.2l-0.1-0.1  l-0.5-0.5l-0.1-0.2l-0.2-1.1l0.1-0.3l0.2-0.3l0.3-0.3l0.1-0.1l0.2-0.6l0-0.1l-0.1-0.2l0-0.1l0.1-0.1l0.2-0.2l0.1-0.1l0-0.2l0-0.2  l0-0.2l0.1-0.2l0.1-0.2l-0.1-0.2l-0.2-0.2l-0.1-0.1l-0.1-0.2l-0.4-0.3l-0.2-0.2l-0.2-0.4l-0.1-0.2l-0.2-0.1l-0.2,0l-0.4,0.1l-0.2,0  l-0.2-0.1l-0.1-0.1l-0.1-0.2l-0.2-0.3l-0.3-0.6l-0.7-1.1l-0.2-0.4l0-0.4l0.2-0.4l0.3-0.4l0.1-0.4l-0.1-0.9l0-2.1l-0.2-0.6l0-0.2  l0.1-0.4l0-0.2l0,0.1l-0.1,0.1l-0.1,0.1l-0.1-0.1l0-0.2l0.1-0.3l0-0.2l-0.1-0.2l-0.4-0.3l-0.1-0.3l0.2-0.6l0-0.3l-0.5-0.2l-0.2-0.2  l-0.3-0.5l-0.2-0.6l-0.1-0.3l0-0.3l0-0.3l0.1-0.1l0.1-0.1l0.1-0.1l0-0.1l0-0.3l-0.4-1.1l-0.3-0.2h-0.2l-0.2,0l-0.3-0.1l0-0.1l0-0.1  l-0.1-0.1l-0.2-0.1l0-0.1l0-0.1l0-0.1l-0.2-0.6l-0.1-0.8v-0.2l0.1-0.6l0-0.4l0.1-0.6l0.1-0.5l0.1-0.2l0.2-0.2l1.4-1.1l-0.2-0.3v-0.4  l0.1-0.4l0.1-0.3l0.1-0.1l0.3-0.2l0.1-0.1l0-0.1l0-0.2l0-0.1l0.1-0.1l0.1-0.1l0.5-0.5l0.1-0.3l0-0.4l-0.1-0.3l-0.1-0.2l-0.1-0.1  l-0.1-0.1v-0.4l-0.2-0.9l-0.1-1.6l-0.3-0.7l-0.1-0.1l-0.1-0.1l-0.1-0.1l0-0.2l0-0.3l0-0.1l-0.1-0.1l-0.1-0.3l0.1-0.3l0.4-0.6  l-0.2-0.2l-0.1-0.4l0-1.6l-0.2-2.5l-0.2-0.7l0-0.2l0.1-0.4l0-0.2l-0.1-0.2l-0.1-0.2l-0.1-0.2l0.1-0.2l0.1-0.1l0.3-0.2l0.1-0.1l0-0.1  l-0.1-0.1l0-0.1l0-0.4l0.1-0.1l0.2-0.2l0.1,0l0.1,0l0.1,0l0.1-0.1l0,0l-0.1-0.3l-0.1-0.4l-0.1-0.2l-0.4-0.5l-0.1-0.2l-0.1-0.2  l-0.1-0.2l-0.2-0.2l-0.4-0.3l-0.7-0.7l-1-1.5l-0.4-0.9l-0.1-0.9v-0.4l0-0.1l-0.1,0l-0.1,0l-0.1,0l-0.3-0.7l-0.1-0.9l0.1-0.4l0.1-0.1  l-0.1-0.1l-0.1-0.3l-0.3-0.3l-0.4-0.2l-0.3-0.1l-0.3-0.2l-0.3-0.3l-0.3-0.2l-0.4,0.1l-0.3,0.2l-0.3,0l-0.3-0.1l-0.4-0.1l-0.4,0  l-0.3,0.1l-0.3,0.2l-0.4,0.1l-0.5,0l-0.2-0.1l-0.2-0.1l-0.2-0.2l-0.2-0.5l-0.2-0.2l-0.7-0.5l-0.2-0.1l-0.1,0l-0.2,0.1l-0.1,0l-0.2,0  l-0.3-0.1l-0.2,0l-0.1,0l-0.2,0.1l-0.1,0l0,0l-0.4-0.1l-0.3-0.1l-0.1,0l-0.8-0.6l-0.6-0.6l-0.2-0.1l-0.2,0l-0.2,0.1l-0.2,0.2l0,0.7  l0.1,0.2l0.1,0.1l0.1,0l0.1-0.1l0.1,0l0.1,0.1l0.2,0.2l0.1,0.1l0,0.3l-0.2,0.9l0.2,0.3l0.2,0.1l0.1-0.1l0.1-0.1l0.2,0l0.1,0.1  l0.1,0.1l0,0.2l0.1,0.1l0.3,0.1l0.1-0.2l0-0.4l0.1-0.3l0.3,0.1l0.7,0l0.3,0.2l0.2,0.3l0.1,0.2l0,0.2l0,0.1l-0.1,0.1l0,0.1l0,0.2  l0.1,0.2l0.3,0.2l0.1,0.1l0.2,0.3l0.1,0.2l0.2,0.1l0.2,0.1l0.5,0.2l0.1,0.1l0.2,0.5l0.1,0.4l-0.1,0.3l-0.4,0.6l-0.2,0.6l-0.1,0.3  l0,0.3l0.2,0.2l1,0.5l0.3,0.2l0.2,0.2l0.2,0.2l0.3,0.1l0.2,0.3l0.2,0.2l0.2,0.2l0,0.4l-0.1,0.7l0,0.3l0.3,0.8l0.1,0.1l0.4,0.3  l0.1,0.1l0.2,0.6l0.2,0.2l0.3,0v0.3l0.1,0.2l0,0.2l-0.2,0.3l-0.2,0.2l-0.5,0.4l-0.2,0.1l-0.2,0.1l-0.6,0.7l-0.2,0.5l-0.1,0.2  l-0.3,0.2l-0.2,0l-0.2,0.2l-0.2,0.1l-0.2,0l-0.4-0.1l-0.2,0l-0.2,0.1l-0.3,0.1l-0.2,0.1l-0.2,0.1l-0.2,0.4l-0.2,0.1l-0.2,0l-0.1,0  l-0.1,0l-0.1,0.2l0,0.2l0.1,0.1h0.2l0.2,0l0.2,0.2l0.1,0.4l0.1,0.8l0.1,0.4l0.2,0.4l0.2,0.3l0.3,0.3l0.4,0.7l-0.1,0.4l-0.2,0.4  l-0.9,1.4l0,0.1l0,0.1l0,0.1l-0.1,0.1l-0.2,0.1l-0.1,0.1l0,0.2l0,0.2l0,0.2l-0.1,0.2l-0.3-0.3l-0.1,0.2l0.1,1.1l0,0.2l-0.1,0.2  l-0.2,0.4l0,0.1l0.2,0.1l0.2,0l0.2,0l0.2,0l0.2,0.2l0.1,0.2l0.1,2.1l0,0.5l-0.2,0.5l0,0.2l0.1,0.3l0,0.2l0,0.2l-0.1,0.2l-0.1,0.7  l-0.5,1.2l0,0.4l0,0.4l0.1,0.2l0.4,0.3l0.1,0.2l0.2,0.4l0.2,0.9l0.2,0.4l0.4,0.2l0.9-0.3l0.5,0.2l0.2,0l0.1,0.1l0,0.3l-0.1,0.2  l-0.4,0.2l-0.1,0.2l-0.2,0l-0.1,0.1l0,0.3l-0.1,0.2l-0.4,0.2l-0.1,0.1l-0.2,0.3l-0.3,0.3l-0.3,0.2l-0.3,0.1l-0.1,0l-0.1-0.1  l-0.1-0.1l-0.2,0l-0.3,0.1l-0.1,0l-0.1,0.2l-0.2,0.4l-0.2,0.1l-0.1,0l-0.1,0l-0.1,0l-0.1,0l-0.1,0.1l0,0.1l-0.1,0.1l-0.1,0l-0.1-0.1  l-0.2-0.3l-0.1-0.1l-0.1,0l-0.1,0l-0.2,0.1l-0.1,0.1l-0.1,0.1l-0.1,0.1l-0.1-0.1l-0.1-0.1l-0.1-0.1l-0.1,0l-0.1,0l-0.2,0.2l-0.1,0.2  l-0.4,0.8l-0.5,0.7l-0.2,0.3l0,0.2l0.1,0.9l0.1,0.1l0.3,0.2l0.3,0.3l0.1,0.3l-0.1,0.4l-0.3,0.8l-0.2,1.4l0,0.2l0.1,0.2l0.1,0.2  l0.2,0.3l0,0.1l-0.1,0.2l-0.4,0.1l-0.3,0.4l-0.2,0.5l-0.3,1.4l-0.2,0.5l-0.4,0.2l-0.2,0l-0.1,0.1l0,0.2l0,0.2l-0.1,0.3l-0.2,0.1  l-0.5,0.1l-0.2,0.1l-0.3,0.3l-0.2,0l-0.2-0.1l-0.2,0l-0.1,0.1l-0.1,0.3l0.2,0.4l0.4,0.1l0.5,0l0.3,0.1l0.5,0.7l0.1,0.2l-0.1,0.1  l-0.5,0.2l-0.1,0.1l0.1,0.4l0.4,0.2l0.5,0.1l0.4,0.1l0.2,0.2l0.6,0.8l0.1,0.2l0,0.2l0.1,0.2l0.1,0.1l0.2,0l0.1,0.1l0.1,0.1l0,0.1  l0,0.1l0,0.7l0.1,0.2l0.3,0.4l0.2-0.1l0.4-0.6l0.2-0.2l0.2-0.1l0.4-0.1l0.1-0.1l0.1-0.3l0.1-0.1l0.2,0.2l0.4,0.7l0.2,0.3l0.7,0.4  l0.3,0.2l0.1,0.4l-0.1,0.6l0.1,0.2l0.3,0.5l0.1,0.1l0.2,0.1l0.1,0l0.1,0.1l0.2,0.4l0.2,0.3l0.6,1.3l0.2,0.3l0.2,0.1l0.5,0.2l0.2,0.1  l0.1,0.2l0.1,0.2l0.1,0.2l0.1,0.1l0.3,0.2l0.1,0.1l0.1,0.2l0.3,0.7l0.1,0.2l0.2,0.1l0.2,0.1l0.1-0.1l0-0.2v-0.4l0.1-0.4l0.2-0.3  l0.3-0.1l0.7,0.5l0.4,0l0.4-0.1l0.7-0.5l0.3-0.1l0.4,0l1.3,0.2l0.1-0.1l0.1-0.3l0.1-0.1l0.4-0.2l0.9,0l1.2-0.4l0.1,0l0.2,0l0.1,0  l0.1-0.1l0.1-0.1l0.1-0.1l0.1,0l0.4,0.2l0.3,0.4l0.4,0.8l0.3,0.4l0.7,0.7l0.2,0.4l0,0.4l-0.2,0.8l0.1,0.4l0.2,0.4l0.1,0.4l0.1,0.4  l0,1l0,0.2l0.1,0.3l0.1,0.2l0.1,0.2l0.1,0.2l0,0.2l-0.1,0.2l-0.3,0.4l-0.1,0.2l0,0.2l0.1,0.2l0,0.1l-0.1,0.1l0,0.2l0.3,1.9l0,0.3  l-0.2,0.3l-0.2,0.1l-0.2,0.1l-0.2,0.1l-0.1,0.2l-0.1,0.2l-0.1,0.3l-0.1,0.2l-0.3,0.2l-0.2,0.4l-0.2,0.1l-0.2,0.2v0.4l0.1,0.8l0,0.5  l-0.2,0.4l-0.8,1.1l-0.1,0.1l-0.3,0.1l-0.2,0.1l-0.2,0.2l-0.4,0.4l-0.1,0.3l-0.1,0.5l0,0.5l0.1,0.4l0.2,0.1l0.4,0.2l0.2,0.1l1.1,1.1  l0.2,0.3l0.1,0.4l-0.3,0.8l0,0.4l0.5,1.1l0.3,0.3l0.4,0l0.6,0.1l0.3,0.3l0.4,0.9l0.1,0.2l0.2,0.2l0.4,0.3l0.1,0.1l0.1,0.1l0.2,0.4  l0.1,0.1l0.1,0l0.8,0.4l0.2,0.2l0.2,0.4l0.1,0.2l0.6,0.5l0.1,0.2l0.1,0.3l0.1,0.2l0.2,0.1l0.2,0.1l0.2,0.2l0.1,0.1l0,0.3l0.1,0.1  l0.1,0l0.2,0l0.1,0l0.2,0.1l0.1,0.1l0.2,0.3l0.4,0.3l0.4,0.1l0.4,0l0.4,0l0.3,0.2l0.1,0.4l0,0.5l0,0.4l-0.1,0.4l-0.3,0.2l-0.3,0.2  l-0.3,0.2l-0.1,0.4l0.4,0.6l0,0.3l0.2,0.2l0.7,0.1l1.3,0l0.7-0.1l0.1-0.1l0.1-0.2l0-0.2l0-0.3l-0.1-0.5l0-0.2l0.1-0.2l0.1-0.2  l-0.1-0.1l-0.4-0.2l-0.1-0.1l0-0.1l0.1-0.1l0.1-0.1l0-0.1l0-0.5l0-0.3l0.3-0.3l-0.1-0.3l-0.2-0.5l-0.1-0.3l0-0.9l0-0.1l-0.3-0.3l0,0  l-0.1,0l0,0l0-0.1l-0.1-0.1l-0.1-0.1l-0.1,0l-0.3-0.1l-0.1,0l-0.1,0l-0.1-0.1l0-0.1l-0.2-0.3l-0.2-0.6l0.2-0.1l0.9-0.6l0.2-0.2  l0.1-0.2l0-0.5l0.1-0.2l0.3-0.4l0-0.1l-0.2-0.4l0-0.1l0.1-0.6l0.2-0.5l0.4-0.4l0.9-0.8l0.2-0.2l0.3-0.1l0.2,0l0.3,0.1l0.2,0.1  l0.1,0.2l0.1,0.1l0.2,0.1l0.2,0l0.1-0.1l0-0.2l0.1-0.1l0.3,0l1.2-0.4l0.1,0l0.2,0l0.1,0l0.1-0.1l0.9-0.6l0.2-0.2l0.1-0.3l0-0.2  l-0.1-0.4l0-0.2l0.2-0.8l0.1-1.9l0.1-1.2l0.1-1.6l0.1-1.6l-0.4-1.5l-0.3-1.4l0-0.3l0.1-0.3L-391.4,407.6z M-407.2,368.8  L-407.2,368.8l0.1,0.2l0.1,0l0.1-0.1l0-0.2l-0.1-0.2l-0.1-0.1l-0.2,0l0,0l-0.1,0.1l0,0.1L-407.2,368.8z"/></svg>