<svg xmlns="http://www.w3.org/2000/svg" xmlns:xlink="http://www.w3.org/1999/xlink" version="1.1" x="0px" y="0px" viewBox="-461 335 100 100" fill="#e0e0e0" style="enable-background:new -461 335 100 100;" xml:space="preserve"><path d="M-414.8,342.1L-414.8,342.1L-414.8,342.1L-414.8,342.1L-414.8,342.1L-414.8,342.1L-414.8,342.1L-414.8,342.1L-414.8,342.1z   M-414.8,363.4L-414.8,363.4L-414.8,363.4L-414.8,363.4z M-414.6,356.2L-414.6,356.2L-414.6,356.2L-414.6,356.2L-414.6,356.2  L-414.6,356.2L-414.6,356.2L-414.6,356.2L-414.6,356.2z M-414.9,339.5L-414.9,339.5L-414.9,339.5L-414.9,339.5L-414.9,339.5  L-414.9,339.5L-414.9,339.5L-414.9,339.5L-414.9,339.5z M-414.8,336.9L-414.8,336.9L-414.8,336.9L-414.8,336.9z M-417.8,378.5  L-417.8,378.5L-417.8,378.5L-417.8,378.5L-417.8,378.5l0,0.1L-417.8,378.5L-417.8,378.5L-417.8,378.5z M-417.6,374.9L-417.6,374.9  L-417.6,374.9L-417.6,374.9L-417.6,374.9L-417.6,374.9L-417.6,374.9L-417.6,374.9L-417.6,374.9z M-414.6,377.1L-414.6,377.1  L-414.6,377.1L-414.6,377.1L-414.6,377.1L-414.6,377.1L-414.6,377.1L-414.6,377.1L-414.6,377.1z M-417.8,344L-417.8,344L-417.8,344  L-417.8,344L-417.8,344L-417.8,344L-417.8,344L-417.8,344z M-415,349.5L-415,349.5L-415,349.5L-415,349.5L-415,349.5L-415,349.5  L-415,349.5L-415,349.5L-415,349.5z M-414.9,335.2L-414.9,335.2L-414.9,335.2L-414.9,335.2l0,0.1L-414.9,335.2z M-414.5,377.9  L-414.5,377.9L-414.5,377.9L-414.5,377.9L-414.5,377.9L-414.5,377.9L-414.5,377.9L-414.5,377.9L-414.5,377.9z M-414.3,342.1  L-414.3,342.1L-414.3,342.1L-414.3,342.1L-414.3,342.1L-414.3,342.1L-414.3,342.1L-414.3,342.1L-414.3,342.1z M-414.3,338.2  L-414.3,338.2L-414.3,338.2L-414.3,338.2L-414.3,338.2L-414.3,338.2L-414.3,338.2L-414.3,338.2z M-414.4,371.6L-414.4,371.6  l-0.1-0.1L-414.4,371.6L-414.4,371.6z M-414.1,338.4L-414.1,338.4L-414.1,338.4L-414.1,338.4L-414.1,338.4L-414.1,338.4  L-414.1,338.4L-414.1,338.4L-414.1,338.4z M-414.1,351.7L-414.1,351.7L-414.1,351.7L-414.1,351.7l0,0.1L-414.1,351.7z M-414.4,357.6  L-414.4,357.6L-414.4,357.6L-414.4,357.6z M-414.1,336L-414.1,336l0,0.1l0.1,0.1L-414.1,336z M-414.4,344.8L-414.4,344.8  L-414.4,344.8L-414.4,344.8L-414.4,344.8L-414.4,344.8L-414.4,344.8L-414.4,344.8L-414.4,344.8z M-414.4,369.5l0-0.2l-0.2,0.1l0,0.1  L-414.4,369.5z M-414.5,335.6L-414.5,335.6L-414.5,335.6L-414.5,335.6z M-416.5,381.2L-416.5,381.2L-416.5,381.2L-416.5,381.2  L-416.5,381.2L-416.5,381.2L-416.5,381.2L-416.5,381.2L-416.5,381.2z M-414.9,380.7L-414.9,380.7l-0.1,0.1l0.2-0.1H-414.9  L-414.9,380.7z M-415.1,343.6L-415.1,343.6L-415.1,343.6L-415.1,343.6L-415.1,343.6L-415.1,343.6L-415.1,343.6L-415.1,343.6  L-415.1,343.6z M-415,361.7L-415,361.7L-415,361.7L-415,361.7z M-414.8,349.7L-414.8,349.7L-414.8,349.7L-414.8,349.7L-414.8,349.7z   M-414.8,396.4L-414.8,396.4L-414.8,396.4l0,0.1L-414.8,396.4L-414.8,396.4z M-414.8,361.7L-414.8,361.7L-414.8,361.7L-414.8,361.7z   M-414.4,378.4L-414.4,378.4L-414.4,378.4L-414.4,378.4L-414.4,378.4L-414.4,378.4L-414.4,378.4L-414.4,378.4L-414.4,378.4z   M-414.5,397.1L-414.5,397.1L-414.5,397.1L-414.5,397.1z M-414.5,379.9L-414.5,379.9L-414.5,379.9L-414.5,379.9L-414.5,379.9  L-414.5,379.9L-414.5,379.9L-414.5,379.9L-414.5,379.9z M-414.6,419.9L-414.6,419.9L-414.6,419.9L-414.6,419.9L-414.6,419.9z   M-415.6,359.1L-415.6,359.1L-415.6,359.1L-415.6,359.1z M-415.5,388.2l-0.1,0.1l0,0l0,0L-415.5,388.2z M-415.5,391.7L-415.5,391.7  L-415.5,391.7L-415.5,391.7L-415.5,391.7L-415.5,391.7z M-415.4,355.8L-415.4,355.8L-415.4,355.8L-415.4,355.8L-415.4,355.8  L-415.4,355.8L-415.4,355.8L-415.4,355.8L-415.4,355.8z M-415.9,381.3L-415.9,381.3L-415.9,381.3L-415.9,381.3L-415.9,381.3  L-415.9,381.3L-415.9,381.3L-415.9,381.3L-415.9,381.3z M-416,383.8L-416,383.8L-416,383.8L-416,383.8L-416,383.8L-416,383.8  L-416,383.8L-416,383.8L-416,383.8z M-415.2,336.5L-415.2,336.5L-415.2,336.5L-415.2,336.5z M-415,386.7L-415,386.7L-415,386.7  L-415,386.7L-415,386.7L-415,386.7L-415,386.7L-415,386.7L-415,386.7z M-415.2,343.5L-415.2,343.5L-415.2,343.5L-415.2,343.5  L-415.2,343.5L-415.2,343.5L-415.2,343.5L-415.2,343.5L-415.2,343.5z M-415.1,391.9L-415.1,391.9L-415.1,391.9L-415.1,391.9  L-415.1,391.9L-415.1,391.9L-415.1,391.9L-415.1,391.9L-415.1,391.9z M-415.3,335.1L-415.3,335.1L-415.3,335.1L-415.3,335.1  L-415.3,335.1z M-413.7,353.5L-413.7,353.5L-413.7,353.5L-413.7,353.5L-413.7,353.5L-413.7,353.5L-413.7,353.5L-413.7,353.5  L-413.7,353.5z M-408.9,352.9L-408.9,352.9l0.2-0.3L-408.9,352.9L-408.9,352.9z M-408.7,349.8l-0.1-0.2l-0.1,0.1l0,0L-408.7,349.8z   M-408.6,366.9L-408.6,366.9L-408.6,366.9L-408.6,366.9L-408.6,366.9L-408.6,366.9L-408.6,366.9L-408.6,366.9L-408.6,366.9z   M-408.7,357.5L-408.7,357.5L-408.7,357.5L-408.7,357.5L-408.7,357.5L-408.7,357.5L-408.7,357.5L-408.7,357.5L-408.7,357.5z   M-408.9,352L-408.9,352L-408.9,352L-408.9,352L-408.9,352L-408.9,352L-408.9,352L-408.9,352L-408.9,352z M-409.1,356.2  L-409.1,356.2L-409.1,356.2L-409.1,356.2z M-409,368.9L-409,368.9L-409,368.9L-409,368.9l0,0.1L-409,368.9z M-410.7,346.3  L-410.7,346.3L-410.7,346.3l0-0.1L-410.7,346.3L-410.7,346.3L-410.7,346.3L-410.7,346.3L-410.7,346.3z M-409.3,356.6L-409.3,356.6  L-409.3,356.6L-409.3,356.6z M-409.1,389.1L-409.1,389.1L-409.1,389.1L-409.1,389.1L-409.1,389.1L-409.1,389.1L-409.1,389.1  L-409.1,389.1L-409.1,389.1z M-408.4,373.4L-408.4,373.4L-408.4,373.4L-408.4,373.4z M-408.3,350.5L-408.3,350.5L-408.3,350.5  L-408.3,350.5L-408.3,350.5L-408.3,350.5L-408.3,350.5L-408.3,350.5L-408.3,350.5z M-406.7,389.2L-406.7,389.2L-406.7,389.2  L-406.7,389.2L-406.7,389.2z M-406.7,367.1L-406.7,367.1L-406.7,367.1L-406.7,367.1L-406.7,367.1L-406.7,367.1L-406.7,367.1  L-406.7,367.1L-406.7,367.1z M-405.6,357l0-0.1l0-0.1l-0.1-0.1l0,0.1l0.1,0.3L-405.6,357z M-411,347L-411,347L-411,347L-411,347z   M-406.3,358.6l0.1-0.1L-406.3,358.6L-406.3,358.6L-406.3,358.6l-0.2,0L-406.3,358.6L-406.3,358.6z M-406.7,400.9L-406.7,400.9  L-406.7,400.9l0,0.1L-406.7,400.9z M-407.9,355.1L-407.9,355.1L-407.9,355.1L-407.9,355.1z M-408.2,377L-408.2,377L-408.2,377  L-408.2,377L-408.2,377L-408.2,377L-408.2,377L-408.2,377z M-407.4,358.9L-407.4,358.9L-407.4,358.9L-407.4,358.9z M-407.5,365.8  L-407.5,365.8L-407.5,365.8L-407.5,365.8L-407.5,365.8L-407.5,365.8L-407.5,365.8L-407.5,365.8L-407.5,365.8z M-411.1,337.8l0.1-0.2  l0-0.2h-0.1l-0.1,0.1l0,0.1L-411.1,337.8L-411.1,337.8L-411.1,337.8z M-413.3,341.3L-413.3,341.3L-413.3,341.3L-413.3,341.3  L-413.3,341.3L-413.3,341.3L-413.3,341.3L-413.3,341.3L-413.3,341.3z M-413.3,360.6L-413.3,360.6L-413.3,360.6L-413.3,360.6z   M-413.2,343.6L-413.2,343.6L-413.2,343.6L-413.2,343.6z M-413.3,339.6L-413.3,339.6L-413.3,339.6L-413.3,339.6L-413.3,339.6  L-413.3,339.6L-413.3,339.6L-413.3,339.6L-413.3,339.6z M-412.6,338.3L-412.6,338.3L-412.6,338.3L-412.6,338.3L-412.6,338.3  L-412.6,338.3L-412.6,338.3L-412.6,338.3L-412.6,338.3z M-412.6,340.3L-412.6,340.3L-412.6,340.3L-412.6,340.3l0.1-0.1l-0.1,0  L-412.6,340.3L-412.6,340.3z M-414.4,421L-414.4,421L-414.4,421L-414.4,421L-414.4,421L-414.4,421z M-414,352.2L-414,352.2  L-414,352.2L-414,352.2z M-413.4,384.6L-413.4,384.6L-413.4,384.6L-413.4,384.6L-413.4,384.6L-413.4,384.6L-413.4,384.6  L-413.4,384.6L-413.4,384.6z M-413.4,346.4L-413.4,346.4L-413.4,346.4L-413.4,346.4z M-413.4,341.8L-413.4,341.8L-413.4,341.8  L-413.4,341.8L-413.4,341.8L-413.4,341.8L-413.4,341.8L-413.4,341.8L-413.4,341.8z M-412,338.4L-412,338.4L-412,338.4L-412,338.4  L-412,338.4L-412,338.4L-412,338.4L-412,338.4L-412,338.4z M-411.6,415.9L-411.6,415.9L-411.6,415.9L-411.6,415.9z M-411.3,337  L-411.3,337L-411.3,337L-411.3,337l0.1-0.3l-0.1,0l0,0l0,0.1L-411.3,337L-411.3,337z M-412.3,345L-412.3,345L-412.3,345L-412.3,345z   M-411.3,345L-411.3,345L-411.3,345L-411.3,345l0.1,0.1L-411.3,345L-411.3,345L-411.3,345L-411.3,345z M-412.5,398.3L-412.5,398.3  L-412.5,398.3L-412.5,398.3L-412.5,398.3L-412.5,398.3L-412.5,398.3L-412.5,398.3L-412.5,398.3z M-412.4,337.8L-412.4,337.8  L-412.4,337.8L-412.4,337.8L-412.4,337.8L-412.4,337.8L-412.4,337.8L-412.4,337.8L-412.4,337.8z M-412.4,359.9L-412.4,359.9  L-412.4,359.9L-412.4,359.9z M-412.6,423.3L-412.6,423.3L-412.6,423.3l0.1,0.1L-412.6,423.3L-412.6,423.3L-412.6,423.3L-412.6,423.3  L-412.6,423.3z M-412.4,358.3L-412.4,358.3L-412.4,358.3L-412.4,358.3z M-406.2,370.6L-406.2,370.6L-406.2,370.6L-406.2,370.6z   M-408.1,351.3L-408.1,351.3l-0.1,0.1L-408.1,351.3L-408.1,351.3L-408.1,351.3z M-408.1,362.4L-408.1,362.4L-408.1,362.4  L-408.1,362.4L-408.1,362.4L-408.1,362.4z M-408.2,429.8L-408.2,429.8l0,0.1l0,0.1l0.1,0.1l0-0.1l0-0.1L-408.2,429.8z M-407.4,402.7  L-407.4,402.7L-407.4,402.7L-407.4,402.7L-407.4,402.7L-407.4,402.7l0.2-0.1L-407.4,402.7L-407.4,402.7z M-408.1,384.1l-0.4-0.1  l-0.3,0.1l-0.1,0.3l0.1,0.3l0.3,0.1l0.3-0.2l0.2-0.3L-408.1,384.1z M-407.8,375.8L-407.8,375.8L-407.8,375.8l0.1-0.1L-407.8,375.8  L-407.8,375.8z M-407.5,419.7L-407.5,419.7L-407.5,419.7L-407.5,419.7L-407.5,419.7L-407.5,419.7z M-407.3,421.2L-407.3,421.2  L-407.3,421.2L-407.3,421.2L-407.3,421.2L-407.3,421.2z M-407.8,358.2L-407.8,358.2L-407.8,358.2L-407.8,358.2z M-408,402.8  L-408,402.8L-408,402.8l0.1,0L-408,402.8L-408,402.8z M-408.7,390.5L-408.7,390.5L-408.7,390.5l-0.1,0.1L-408.7,390.5L-408.7,390.5z   M-408.1,376L-408.1,376L-408.1,376L-408.1,376z M-408.7,403.1L-408.7,403.1L-408.7,403.1L-408.7,403.1l-0.1,0.1l0.1,0l0,0  L-408.7,403.1L-408.7,403.1z M-409.3,415.4L-409.3,415.4L-409.3,415.4L-409.3,415.4L-409.3,415.4L-409.3,415.4L-409.3,415.4  L-409.3,415.4L-409.3,415.4z M-409.3,390.7L-409.3,390.7L-409.3,390.7L-409.3,390.7L-409.3,390.7L-409.3,390.7L-409.3,390.7  L-409.3,390.7L-409.3,390.7z M-409.4,375.7L-409.4,375.7L-409.4,375.7L-409.4,375.7z M-414.3,351.1L-414.3,351.1L-414.3,351.1  L-414.3,351.1L-414.3,351.1z M-409.1,395.3l-0.1-0.2l-0.1-0.2l0,0.1l0.1,0.6l0.1-0.2L-409.1,395.3z M-408.8,400.2L-408.8,400.2  L-408.8,400.2L-408.8,400.2z M-408.9,418L-408.9,418L-408.9,418L-408.9,418L-408.9,418L-408.9,418L-408.9,418L-408.9,418L-408.9,418  z M-409,416.5L-409,416.5L-409,416.5L-409,416.5L-409,416.5L-409,416.5L-409,416.5L-409,416.5L-409,416.5z M-409,422.5L-409,422.5  l0.1,0L-409,422.5L-409,422.5z M-406.6,388.4L-406.6,388.4L-406.6,388.4l0,0.1L-406.6,388.4z M-405.6,370.2L-405.6,370.2  L-405.6,370.2L-405.6,370.2L-405.6,370.2L-405.6,370.2L-405.6,370.2L-405.6,370.2L-405.6,370.2z M-405.7,357.9L-405.7,357.9  L-405.7,357.9L-405.7,357.9z M-406.3,388.3L-406.3,388.3l0,0.1L-406.3,388.3L-406.3,388.3L-406.3,388.3z M-405.9,370.4L-405.9,370.4  L-405.9,370.4L-405.9,370.4L-405.9,370.4L-405.9,370.4L-405.9,370.4L-405.9,370.4L-405.9,370.4z M-405.9,386.5L-405.9,386.5  L-405.9,386.5L-405.9,386.5z M-405.6,357.7L-405.6,357.7L-405.6,357.7L-405.6,357.7z M-404.8,369.2L-404.8,369.2L-404.8,369.2  L-404.8,369.2z M-405.2,369.9L-405.2,369.9L-405.2,369.9L-405.2,369.9L-405.2,369.9L-405.2,369.9L-405.2,369.9L-405.2,369.9  L-405.2,369.9z M-404.2,382L-404.2,382L-404.2,382L-404.2,382z M-404.8,369.4L-404.8,369.4L-404.8,369.4L-404.8,369.4z   M-406.9,356.3L-406.9,356.3L-406.9,356.3L-406.9,356.3z M-407.3,371.8l-0.1,0.3l-0.1,0.3l-0.2,0.3v0.2l0.1,0.1l0.3,0l0.2-0.2v-0.4  l0.1-0.3l0-0.2l0-0.2L-407.3,371.8z M-407,402.3L-407,402.3L-407,402.3L-407,402.3L-407,402.3L-407,402.3z M-407.3,381.4  L-407.3,381.4L-407.3,381.4L-407.3,381.4z M-407.4,373.7L-407.4,373.7L-407.4,373.7L-407.4,373.7L-407.4,373.7z M-407.2,383.1  L-407.2,383.1L-407.2,383.1L-407.2,383.1z M-406.9,402l0.1-0.1l0-0.1l0.1-0.3l0,0.1L-406.9,402z M-406.8,400.2L-406.8,400.2  L-406.8,400.2L-406.8,400.2z M-409.4,396.2L-409.4,396.2L-409.4,396.2L-409.4,396.2z M-406.7,399.6L-406.7,399.6L-406.7,399.6  L-406.7,399.6L-406.7,399.6L-406.7,399.6z M-406.6,399.3L-406.6,399.3L-406.6,399.3L-406.6,399.3l0.2,0l0.1-0.1L-406.6,399.3  L-406.6,399.3z M-409,403.3l-0.1,0l0,0.1l0,0L-409,403.3L-409,403.3z M-413.2,360.4L-413.2,360.4L-413.2,360.4L-413.2,360.4  L-413.2,360.4L-413.2,360.4L-413.2,360.4L-413.2,360.4L-413.2,360.4z M-413.3,398.5L-413.3,398.5L-413.3,398.5L-413.3,398.5z   M-413.3,385.2L-413.3,385.2L-413.3,385.2L-413.3,385.2L-413.3,385.2L-413.3,385.2L-413.3,385.2L-413.3,385.2L-413.3,385.2z   M-413.5,391.1L-413.5,391.1L-413.5,391.1L-413.5,391.1L-413.5,391.1z M-413.4,422.8L-413.4,422.8L-413.4,422.8L-413.4,422.8  L-413.4,422.8L-413.4,422.8z M-413,340.7L-413,340.7L-413,340.7L-413,340.7L-413,340.7L-413,340.7z M-412.3,398.1L-412.3,398.1  L-412.3,398.1L-412.3,398.1L-412.3,398.1L-412.3,398.1z M-412.4,434.1l-0.1-0.1l-0.1-0.1l0-0.1l0-0.1l0,0l0.1,0v-0.1l-0.2,0.1l0,0.2  l0.2,0.5h0.1l0-0.1L-412.4,434.1z M-412.8,345.3L-412.8,345.3L-412.8,345.3L-412.8,345.3z M-413.5,344.6L-413.5,344.6L-413.5,344.6  L-413.5,344.6L-413.5,344.6L-413.5,344.6L-413.5,344.6L-413.5,344.6L-413.5,344.6z M-412.7,360.1L-412.7,360.1L-412.7,360.1  L-412.7,360.1z M-412.2,345.6L-412.2,345.6L-412.2,345.6L-412.2,345.6z M-414,422.3L-414,422.3L-414,422.3L-414,422.3L-414,422.3  L-414,422.3L-414,422.3L-414,422.3z M-414.1,386.4L-414.1,386.4L-414.1,386.4L-414.1,386.4L-414.1,386.4L-414.1,386.4L-414.1,386.4  L-414.1,386.4L-414.1,386.4z M-414.1,371.6L-414.1,371.6L-414.1,371.6L-414.1,371.6L-414.1,371.6L-414.1,371.6L-414.1,371.6  L-414.1,371.6L-414.1,371.6z M-413.6,354.2L-413.6,354.2L-413.6,354.2L-413.6,354.2L-413.6,354.2L-413.6,354.2L-413.6,354.2  L-413.6,354.2L-413.6,354.2z M-414.1,363.5L-414.1,363.5L-414.1,363.5l-0.1,0.2L-414.1,363.5L-414.1,363.5z M-413.9,338.4  L-413.9,338.4L-413.9,338.4L-413.9,338.4L-413.9,338.4L-413.9,338.4L-413.9,338.4L-413.9,338.4L-413.9,338.4z M-413.7,388.4  L-413.7,388.4L-413.7,388.4L-413.7,388.4L-413.7,388.4L-413.7,388.4z M-413.7,355.8L-413.7,355.8L-413.7,355.8L-413.7,355.8  L-413.7,355.8L-413.7,355.8L-413.7,355.8L-413.7,355.8L-413.7,355.8z M-413.8,353L-413.8,353L-413.8,353L-413.8,353L-413.8,353  L-413.8,353L-413.8,353L-413.8,353L-413.8,353z M-409.6,357.4L-409.6,357.4L-409.6,357.4L-409.6,357.4L-409.6,357.4L-409.6,357.4  L-409.6,357.4L-409.6,357.4L-409.6,357.4L-409.6,357.4z M-413.8,356.2L-413.8,356.2L-413.8,356.2L-413.8,356.2L-413.8,356.2  L-413.8,356.2L-413.8,356.2L-413.8,356.2z M-410.7,401.9L-410.7,401.9L-410.7,401.9L-410.7,401.9L-410.7,401.9L-410.7,401.9z   M-410.6,348.2L-410.6,348.2L-410.6,348.2L-410.6,348.2z M-411,347.6L-411,347.6L-411,347.6L-411,347.6z M-412.2,434.6L-412.2,434.6  L-412.2,434.6L-412.2,434.6L-412.2,434.6L-412.2,434.6z M-410.9,434.2l0,0.1l0,0.1l0.2-0.2L-410.9,434.2L-410.9,434.2z   M-410.6,347.9L-410.6,347.9L-410.6,347.9L-410.6,347.9z M-409.8,394.2L-409.8,394.2L-409.8,394.2l0,0.1L-409.8,394.2L-409.8,394.2z   M-410.4,347.3L-410.4,347.3L-410.4,347.3L-410.4,347.3L-410.4,347.3L-410.4,347.3L-410.4,347.3L-410.4,347.3L-410.4,347.3z   M-409.7,400.7L-409.7,400.7L-409.7,400.7L-409.7,400.7L-409.7,400.7L-409.7,400.7L-409.7,400.7L-409.7,400.7L-409.7,400.7z   M-410.4,346.9L-410.4,346.9L-410.4,346.9L-410.4,346.9L-410.4,346.9L-410.4,346.9z M-410.7,433.7L-410.7,433.7l0,0.2l0.1,0.1l0-0.2  v0l0,0l0,0l0,0L-410.7,433.7z M-412,393.5L-412,393.5L-412,393.5L-412,393.5z M-411.1,423.2L-411.1,423.2L-411.1,423.2L-411.1,423.2  L-411.1,423.2L-411.1,423.2z M-411.7,435L-411.7,435l0.1,0L-411.7,435L-411.7,435z M-412.1,415.5L-412.1,415.5L-412.1,415.5  L-412.1,415.5z M-412.1,359L-412.1,359L-412.1,359L-412.1,359z M-411.7,339.2L-411.7,339.2L-411.7,339.2L-411.7,339.2l-0.2,0.2  l-0.2,0.3l-0.1,0.2l0.2-0.1l0.1-0.2L-411.7,339.2L-411.7,339.2z M-411.3,434.9L-411.3,434.9L-411.3,434.9L-411.3,434.9l0.1,0l0-0.1  L-411.3,434.9L-411.3,434.9z M-411,345.5L-411,345.5l-0.1,0.1L-411,345.5L-411,345.5z M-411.5,338.6L-411.5,338.6l0,0.1  L-411.5,338.6l0.2,0L-411.5,338.6z M-411.5,344.7L-411.5,344.7L-411.5,344.7L-411.5,344.7L-411.5,344.7L-411.5,344.7L-411.5,344.7  L-411.5,344.7L-411.5,344.7z"/></svg>