<svg xmlns:dc="http://purl.org/dc/elements/1.1/" xmlns:cc="http://creativecommons.org/ns#" xmlns:rdf="http://www.w3.org/1999/02/22-rdf-syntax-ns#" xmlns:svg="http://www.w3.org/2000/svg" xmlns="http://www.w3.org/2000/svg" xmlns:sodipodi="http://sodipodi.sourceforge.net/DTD/sodipodi-0.dtd" xmlns:inkscape="http://www.inkscape.org/namespaces/inkscape" viewBox="0 0 100 100" fill="#e0e0e0" version="1.1" x="0px" y="0px"><g transform="translate(0,-952.36216)"><path style="color:#000000;font-style:normal;font-variant:normal;font-weight:normal;font-stretch:normal;font-size:medium;line-height:normal;font-family:sans-serif;text-indent:0;text-align:start;text-decoration:none;text-decoration-line:none;text-decoration-style:solid;text-decoration-color:#000000;letter-spacing:normal;word-spacing:normal;text-transform:none;direction:ltr;block-progression:tb;writing-mode:lr-tb;baseline-shift:baseline;text-anchor:start;white-space:normal;clip-rule:nonzero;display:inline;overflow:visible;visibility:visible;opacity:1;isolation:auto;mix-blend-mode:normal;color-interpolation:sRGB;color-interpolation-filters:linearRGB;solid-color:#000000;solid-opacity:1;fill:#e0e0e0;fill-opacity:1;fill-rule:nonzero;stroke:none;stroke-width:2.26481652px;stroke-linecap:round;stroke-linejoin:round;stroke-miterlimit:4;stroke-dasharray:none;stroke-dashoffset:0;stroke-opacity:1;color-rendering:auto;image-rendering:auto;shape-rendering:auto;text-rendering:auto;enable-background:accumulate" d="M 46.119141 7.8085938 L 46.119141 7.8125 L 37.359375 7.8125 A 0.74039203 0.74039203 0 0 0 36.623047 8.6230469 L 41.216797 55.867188 A 0.74039203 0.74039203 0 0 0 41.429688 56.318359 L 42.46875 57.357422 L 41.785156 61.056641 L 22.537109 60.113281 L 21.347656 59.519531 A 0.74039203 0.74039203 0 0 0 20.275391 60.181641 L 20.275391 60.632812 L 18.027344 60.958984 L 16.878906 60.572266 A 0.74039203 0.74039203 0 0 0 16.716797 60.537109 L 14.517578 60.316406 A 0.74039203 0.74039203 0 0 0 13.78125 60.722656 L 13.552734 61.177734 L 13.193359 61.505859 L 12.853516 61.042969 A 0.74039203 0.74039203 0 0 0 12.628906 60.841797 L 11.880859 60.40625 L 11.273438 59.300781 A 0.74039203 0.74039203 0 0 0 10.625 58.916016 L 10.195312 58.916016 A 0.74039203 0.74039203 0 0 0 9.6425781 59.162109 L 9.3828125 59.453125 L 8.8222656 59.5 A 0.74039203 0.74039203 0 0 0 8.1679688 60.039062 L 7.7460938 61.560547 L 7.4101562 62.470703 A 0.74039203 0.74039203 0 0 0 7.3652344 62.726562 L 7.3652344 63.333984 L 7.0585938 63.623047 L 5.9707031 63.689453 A 0.74039203 0.74039203 0 0 0 5.2910156 64.574219 L 5.4023438 65.132812 L 5.2402344 65.279297 A 0.74039203 0.74039203 0 0 0 5 65.826172 L 5 66.435547 A 0.74039203 0.74039203 0 0 0 5.4628906 67.121094 L 5.8828125 67.291016 L 6.1328125 67.574219 L 6.1328125 68.539062 A 0.74039203 0.74039203 0 0 0 6.3632812 69.074219 L 6.6230469 69.322266 L 6.2070312 69.671875 A 0.74039203 0.74039203 0 0 0 5.9628906 70.060547 L 5.8378906 70.558594 A 0.74039203 0.74039203 0 0 0 6.0078125 71.236328 L 6.6386719 71.929688 L 6.546875 72.257812 A 0.74039203 0.74039203 0 0 0 7.1035156 73.177734 L 7.7949219 73.330078 A 0.74039203 0.74039203 0 0 0 8.3632812 73.224609 L 8.3769531 73.525391 A 0.74039203 0.74039203 0 0 0 8.5390625 73.957031 L 8.8847656 74.384766 A 0.74039203 0.74039203 0 0 0 8.9960938 74.496094 L 9.1542969 74.625 A 0.74039203 0.74039203 0 0 0 9.1152344 75.234375 L 9.3085938 75.748047 L 9.0996094 76.107422 A 0.74039203 0.74039203 0 0 0 9.0351562 76.716797 L 9.2304688 77.296875 A 0.74039203 0.74039203 0 0 0 9.3046875 77.451172 L 9.3828125 77.390625 A 0.74039203 0.74039203 0 0 0 9.3085938 77.458984 A 0.74039203 0.74039203 0 0 0 9.3320312 77.494141 L 9.3066406 77.458984 A 0.74039203 0.74039203 0 0 0 9.1035156 77.878906 L 9.0742188 78.083984 A 0.74039203 0.74039203 0 0 0 8.6933594 78.601562 L 8.6230469 78.976562 A 0.74039203 0.74039203 0 0 0 8.796875 79.601562 L 9.0039062 79.835938 A 0.74039203 0.74039203 0 0 0 9.2910156 80.037109 L 9.3339844 80.052734 L 9.4824219 80.259766 A 0.74039203 0.74039203 0 0 0 9.6972656 80.460938 L 10.126953 80.724609 A 0.74039203 0.74039203 0 0 0 10.931641 80.703125 L 11.195312 80.525391 A 0.74039203 0.74039203 0 0 0 11.238281 80.492188 L 11.861328 79.994141 A 0.74039203 0.74039203 0 0 0 12.003906 79.841797 L 12.142578 79.646484 L 12.414062 79.941406 L 12.513672 80.464844 A 0.74039203 0.74039203 0 0 0 12.628906 80.748047 L 12.960938 81.230469 A 0.74039203 0.74039203 0 0 0 14.181641 81.230469 L 14.478516 80.798828 L 14.591797 80.785156 A 0.74039203 0.74039203 0 0 0 15.097656 80.486328 L 15.21875 80.486328 A 0.74039203 0.74039203 0 0 0 15.792969 80.212891 L 16.087891 79.851562 L 16.779297 80.033203 L 17.703125 80.810547 A 0.74039203 0.74039203 0 0 0 18.224609 80.984375 L 19.152344 80.929688 A 0.74039203 0.74039203 0 0 0 19.792969 80.470703 L 19.902344 80.199219 L 20.365234 80.074219 A 0.74039203 0.74039203 0 0 0 20.560547 79.988281 L 20.996094 79.722656 L 21.550781 79.462891 A 0.74039203 0.74039203 0 0 0 21.958984 78.630859 L 22.400391 78.810547 L 22.326172 78.908203 A 0.74039203 0.74039203 0 0 0 22.746094 80.080078 L 22.662109 80.064453 L 22.646484 80.226562 A 0.74039203 0.74039203 0 0 0 23.115234 80.992188 L 23.365234 81.087891 L 23.388672 81.361328 L 23.128906 81.978516 A 0.74039203 0.74039203 0 0 0 23.640625 82.986328 L 23.814453 83.027344 L 23.992188 83.583984 A 0.74039203 0.74039203 0 0 0 24.724609 84.097656 L 24.921875 84.087891 A 0.74039203 0.74039203 0 0 0 25.017578 84.277344 C 24.902058 84.353344 24.737594 84.434788 24.683594 84.492188 C 24.595894 84.585188 24.533203 84.667969 24.533203 84.667969 A 0.74039203 0.74039203 0 0 0 24.501953 84.712891 L 24.193359 85.195312 L 23.761719 85.804688 A 0.74039203 0.74039203 0 0 0 24.365234 86.974609 L 25.347656 86.974609 A 0.74039203 0.74039203 0 0 0 25.869141 86.759766 L 25.892578 86.931641 L 25.683594 87.273438 A 0.74039203 0.74039203 0 0 0 25.693359 88.058594 L 25.894531 88.373047 L 25.894531 88.972656 A 0.74039203 0.74039203 0 0 0 25.964844 89.291016 L 26.242188 89.873047 A 0.74039203 0.74039203 0 0 0 26.931641 90.294922 L 27.142578 90.285156 A 0.74039203 0.74039203 0 0 0 27.599609 90.652344 L 27.591797 90.652344 L 27.701172 90.939453 A 0.74039203 0.74039203 0 0 0 27.720703 90.986328 L 27.914062 91.402344 A 0.74039203 0.74039203 0 0 0 29.021484 91.685547 L 29.892578 91.048828 A 0.74039203 0.74039203 0 0 0 30.134766 90.75 L 30.240234 90.509766 L 30.265625 90.519531 A 0.74039203 0.74039203 0 0 0 30.574219 90.533203 A 0.74039203 0.74039203 0 0 0 30.943359 90.787109 A 0.74039203 0.74039203 0 0 0 30.943359 90.789062 A 0.74039203 0.74039203 0 0 0 31.158203 90.820312 L 30.953125 90.820312 A 0.74039203 0.74039203 0 0 0 31.492188 91.3125 L 32.587891 91.566406 L 33.501953 92.091797 A 0.74039203 0.74039203 0 0 0 34.552734 91.736328 L 34.775391 91.210938 A 0.74039203 0.74039203 0 0 0 34.818359 90.777344 A 0.74039203 0.74039203 0 0 0 34.904297 90.703125 L 35.066406 90.777344 A 0.74039203 0.74039203 0 0 0 35.841797 90.685547 L 36.257812 90.353516 A 0.74039203 0.74039203 0 0 0 36.513672 89.601562 L 36.916016 89.601562 A 0.74039203 0.74039203 0 0 0 37.365234 89.449219 A 0.74039203 0.74039203 0 0 0 37.375 89.464844 L 37.558594 89.773438 L 37.558594 90.060547 L 37.375 90.263672 A 0.74039203 0.74039203 0 0 0 37.681641 91.457031 L 38.982422 91.914062 A 0.74039203 0.74039203 0 0 0 39.59375 91.857422 L 40.369141 91.416016 A 0.74039203 0.74039203 0 0 0 40.730469 90.898438 L 40.789062 90.5625 L 41.867188 90.443359 A 0.74039203 0.74039203 0 0 0 42.298828 90.242188 L 42.601562 89.953125 A 0.74039203 0.74039203 0 0 0 42.830078 89.46875 L 42.908203 88.359375 L 43.162109 87.191406 A 0.74039203 0.74039203 0 0 0 43.117188 86.742188 L 43.0625 86.619141 L 43.158203 86.599609 A 0.74039203 0.74039203 0 0 0 43.705078 86.113281 L 44.128906 84.865234 L 44.435547 84.279297 A 0.74039203 0.74039203 0 0 0 44.484375 83.710938 L 44.345703 83.28125 A 0.74039203 0.74039203 0 0 0 44.179688 83 L 43.933594 82.740234 L 43.9375 82.605469 A 0.74039203 0.74039203 0 0 0 43.902344 82.351562 L 44.251953 82.029297 L 44.679688 82.060547 A 0.74039203 0.74039203 0 0 0 45.181641 81.912109 L 45.470703 81.693359 L 46.740234 81.574219 A 0.74039203 0.74039203 0 0 0 47.105469 81.4375 L 47.8125 80.925781 A 0.74039203 0.74039203 0 0 0 48.117188 80.357422 L 48.125 80.152344 L 48.650391 79.900391 A 0.74039203 0.74039203 0 0 0 49.033203 78.994141 L 48.904297 78.615234 L 48.992188 78.460938 A 0.74039203 0.74039203 0 0 0 49.005859 77.763672 L 48.980469 77.710938 A 0.74039203 0.74039203 0 0 0 49.601562 77.162109 L 49.933594 75.875 A 0.74039203 0.74039203 0 0 0 49.896484 75.390625 L 49.5625 74.634766 L 49.640625 74.574219 A 0.74039203 0.74039203 0 0 0 49.863281 74.294922 L 50.007812 73.978516 L 50.267578 73.779297 A 0.74039203 0.74039203 0 0 0 50.470703 73.892578 L 51.279297 74.191406 L 52.513672 75.0625 A 0.74039203 0.74039203 0 0 0 53.476562 74.96875 L 53.802734 74.625 L 54.511719 74.644531 A 0.74039203 0.74039203 0 0 0 55.255859 73.753906 L 55.021484 72.621094 A 0.74039203 0.74039203 0 0 0 55.332031 72.679688 C 55.332031 72.679688 56.177269 72.652344 56.261719 72.652344 C 56.446979 72.652344 56.716584 72.550659 56.865234 72.380859 C 57.013894 72.210959 57.046647 72.046747 57.060547 71.935547 C 57.088347 71.713247 57.051544 71.609319 57.027344 71.511719 C 57.012944 71.454719 57.009441 71.458109 56.994141 71.412109 L 57.101562 70.777344 L 57.335938 70.443359 A 0.74039203 0.74039203 0 0 0 57.458984 69.880859 L 57.46875 69.919922 L 57.925781 69.761719 A 0.74039203 0.74039203 0 0 0 58.230469 69.564453 L 58.927734 68.808594 L 59.34375 68.900391 L 60.431641 69.623047 A 0.74039203 0.74039203 0 0 0 61.316406 69.576172 L 61.648438 69.298828 A 0.74039203 0.74039203 0 0 0 61.904297 68.853516 L 62.095703 67.716797 L 62.865234 67.685547 A 0.74039203 0.74039203 0 0 0 63.205078 67.583984 L 66.027344 65.951172 A 0.74039203 0.74039203 0 0 0 66.070312 65.927734 L 68.302734 64.425781 L 70.214844 64.351562 L 77.705078 64.820312 A 0.74039203 0.74039203 0 0 0 78.314453 64.5625 L 79.582031 63.080078 L 88.337891 62.412109 A 0.74039203 0.74039203 0 0 0 89.009766 61.802734 L 90.173828 62.148438 A 0.74039203 0.74039203 0 0 0 91.083984 61.679688 L 91.445312 60.642578 L 92.666016 60.003906 A 0.74039203 0.74039203 0 0 0 93.025391 59.580078 L 93.833984 57.128906 L 94.775391 55.824219 A 0.74039203 0.74039203 0 0 0 94.916016 55.390625 L 94.916016 52.429688 L 94.990234 51.947266 A 0.74039203 0.74039203 0 0 0 94.998047 51.785156 L 94.224609 40.146484 A 0.74039203 0.74039203 0 0 0 93.304688 39.478516 L 89.339844 40.476562 L 88.738281 39.941406 L 88.960938 39.640625 A 0.74039203 0.74039203 0 0 0 89.103516 39.154297 L 88.951172 36.746094 A 0.74039203 0.74039203 0 0 0 88.4375 36.087891 L 84.949219 34.972656 L 83.585938 33.763672 A 0.74039203 0.74039203 0 0 0 82.976562 33.585938 L 81.183594 33.873047 L 80.609375 32.207031 A 0.74039203 0.74039203 0 0 0 80.125 31.738281 L 77.923828 31.070312 L 78.017578 30.126953 A 0.74039203 0.74039203 0 0 0 77.701172 29.445312 L 46.539062 7.9414062 A 0.74039203 0.74039203 0 0 0 46.119141 7.8085938 z " transform="translate(0,952.36216)"/></g></svg>