<svg xmlns="http://www.w3.org/2000/svg" xmlns:xlink="http://www.w3.org/1999/xlink" version="1.1" x="0px" y="0px" viewBox="-461 335 100 100" fill="#e0e0e0" style="enable-background:new -461 335 100 100;" xml:space="preserve"><polygon points="-369.5,416.1 -370.6,413.2 -373.4,411.9 -372.7,410.9 -372.4,410.2 -371.8,409.6 -370.5,409 -372.3,406.7   -372.9,404.1 -372.9,401.4 -372.1,398.6 -374.8,400.2 -374.6,398.5 -374.7,396.5 -375.4,394.9 -376.9,394.3 -378.9,393.8   -379.7,392.5 -380,391 -380.6,389.9 -384.8,387.5 -386.4,385.9 -387.7,382.6 -386.5,382.2 -385.8,381.7 -385,381.4 -383.4,381.2   -390.4,378.1 -392.1,380.5 -394,379.9 -394.3,378.1 -391.8,376.8 -393.3,375.2 -387.7,372.2 -388.8,370.9 -390.1,370.1 -391.6,370   -393.3,370.8 -393.8,366.1 -393.2,362 -391.6,360.9 -389.1,365 -384.7,360.5 -385.2,359.2 -384.6,358.3 -383.3,357.5 -381.9,356.3   -386.8,356.3 -391.7,357.6 -395.9,359.7 -398.9,362.1 -402.5,354.7 -405,354 -406,352.4 -406.6,350.5 -407.4,349 -410.8,346.8   -418.9,343.2 -428.1,337.3 -435.2,335 -442.4,335.1 -450.7,339.8 -452.5,341.5 -453.9,343.8 -454.4,346.7 -453.9,349.8   -452.4,352.4 -446.5,358.6 -444.9,360.7 -443.7,363.2 -443.2,365.8 -443.6,367.2 -444.3,368.6 -444.6,370 -443.9,371.5   -442.9,372.5 -442.3,373.5 -441.8,374.7 -441.7,376 -440.1,379.8 -436.3,383.4 -428.9,388.5 -428.1,389.3 -426.9,391.9   -425.9,392.8 -424.8,393.1 -420.4,392.8 -418.2,393 -416,392.9 -413.4,392.4 -410.3,391.4 -409.9,395 -408.4,398 -406.8,400.2   -406.1,401.6 -407.6,404.6 -410.6,405.8 -413.8,404.8 -416,401.6 -417.8,403.2 -423.2,405.9 -428.9,411.9 -427,413 -426.1,413.6   -425.9,414.5 -425.9,416.1 -421.4,422.5 -419.6,423.5 -416.6,423 -411.4,420.9 -408.2,420.5 -396,422.1 -390.3,421.1 -388.9,421.3   -389.1,423.5 -385.8,423.8 -382.5,421.7 -379.6,420.5 -377.6,423.5 -377.8,426.8 -379.8,427.9 -382.2,428.6 -383.4,430.8   -382.5,433.9 -380.1,435 -377.1,434.7 -374.8,433.7 -372.6,430.8 -370.1,424.6 -367.6,423.5 -367.6,422.1 -368.9,419.5 "/></svg>