<svg xmlns="http://www.w3.org/2000/svg" xmlns:xlink="http://www.w3.org/1999/xlink" version="1.1" x="0px" y="0px" viewBox="0 21 100 72.5" enable-background="new 0 21 100 100" fill="#999999" xml:space="preserve"><path d="M10.201,35.479l-0.023-0.068l-0.003-0.071l0.005-0.051l-0.01-0.046l-0.047-0.063l-0.076-0.113l-0.041-0.026l-0.067,0.022  l-0.075,0.104l0.012,0.115l0.045,0.113l0.019,0.1L9.884,35.62l-0.199,0.178l-0.067,0.127l0.09-0.022l0.084,0.008l0.072,0.033  l0.102,0.095l0.073,0.051l0.066,0.033l0.029-0.011l0.014,0.015l0.03-0.004l0.03-0.015l0.014-0.019l0.021-0.173l-0.004-0.064  l0.002-0.031l0.039-0.101l0.006-0.04l-0.015-0.074L10.201,35.479z M17.666,34.162l-0.146-0.079l-0.103-0.039l0.041,0.051  l0.017,0.026l0.007,0.021l0.013,0.013l0.063,0.02l0.023,0.013l0.119,0.102l0.07,0.036l0.049-0.009l-0.031-0.065L17.666,34.162z   M18.428,33.889l-0.052-0.01l-0.045-0.002l-0.027,0.038l0.018,0.125l0.027,0.039l0.063,0.008l0.057-0.026l0.029-0.056l0.004-0.067  l-0.023-0.064L18.428,33.889z M0.493,32.834l-0.047-0.059L0.308,32.67l-0.029-0.063l0.01-0.037l0.035-0.072l-0.002-0.029  L0.29,32.445l-0.047-0.004l-0.051,0.01l-0.043,0.018h0.023l-0.03,0.001l-0.068,0.02L0,32.574L0.011,32.6l0.023,0.029l0.014,0.032  l-0.033,0.067l0.01,0.035l0.023,0.034l0.025,0.025l0.025,0.018l0.055,0.024l0.02,0.014l0.019,0.025l0.018,0.047l0.016,0.023  l0.021,0.047l0.032,0.155L0.31,33.24l0.007,0.029l0.005,0.039l-0.003,0.047l-0.01,0.035l-0.004,0.031l0.017,0.037l0.021-0.038  l0.045-0.005l0.045,0.004l0.021-0.014l0.014-0.053l0.058-0.093l0.013-0.051l-0.023-0.29L0.493,32.834z M15.213,31.506l-0.035,0.064  l-0.025,0.063l0.008,0.047l0.142,0.166l0.106,0.168l0.006,0.026v0.028l0.005,0.021l0.021,0.01l0.06,0.008l0.06,0.015l0.043,0.021  l0.042,0.037l0.033,0.047l0.014,0.058l0.039,0.062l0.283,0.209l0.274,0.275l0.161,0.095l0.081,0.037l0.076,0.021l0.034-0.027  l0.004-0.021l0.017-0.035l0.001-0.019l-0.009-0.019h-0.01l-0.012,0.004l-0.013-0.008l-0.029-0.028l-0.053-0.031l-0.025-0.024  l-0.036-0.109l-0.008-0.012l-0.018-0.094l0.004-0.383l-0.007-0.047l-0.037-0.021l-0.223-0.013L16.114,32.1l-0.058,0.022  l-0.032-0.029l-0.045-0.021l-0.053-0.012l-0.054-0.004l-0.033-0.024l-0.001-0.06l0.023-0.09l0.037-0.063l0.006-0.022l-0.007-0.026  l-0.029-0.047l-0.021-0.078l-0.035-0.051L15.6,31.396l-0.07-0.052l-0.104-0.061l-0.016-0.013l-0.018-0.011l-0.027-0.004  l-0.019,0.007l-0.023,0.028L15.311,31.3l-0.043-0.022l-0.02-0.045L15.23,31.2l-0.039,0.017l0.043,0.172v0.065L15.213,31.506z   M27.152,48.227l-0.116-0.152l-0.113-0.196l-0.033-0.101l-0.085-0.079l-0.026-0.033l-0.028,0.081l0.025,0.098l0.041,0.098  l0.044,0.188l0.054,0.102l0.07,0.084l0.071,0.063l0.023-0.022l0.027,0.021l0.035,0.018l0.036,0.004l0.03-0.021l-0.001-0.022  l-0.042-0.078L27.152,48.227z M21.701,47.646l-0.055-0.023l-0.057,0.018l-0.044-0.043l-0.076-0.013l-0.087,0.011l-0.074,0.023  l-0.023-0.02l-0.021,0.004l-0.015,0.021l-0.006,0.039l0.064,0.001l0.203-0.023l0.072,0.006l0.07,0.02l0.13,0.061l0.021-0.021  l-0.051-0.021L21.701,47.646z M20.929,47.359L20.89,47.33l-0.101-0.029l-0.035-0.039l-0.025-0.045l-0.027-0.033h0.045l-0.007-0.026  l-0.014-0.023l-0.02-0.021L20.682,47.1l0.002,0.022l-0.002,0.022l-0.091-0.022l-0.428,0.022l0.01,0.035l0.181,0.06l0.047,0.045  l0.028,0.04l0.068,0.039l0.142,0.06l0.049,0.038l0.058,0.061l0.066,0.054l0.146,0.049l0.07,0.06l0.058,0.064l0.029,0.046l0.03-0.051  l0.012-0.056l0.001-0.123l-0.172-0.142L20.929,47.359z M25.573,47.35l0.015-0.043l-0.01-0.027l-0.024-0.033l-0.031-0.027  l-0.031-0.012l-0.063-0.048l-0.1-0.177l-0.065,0.011l-0.013,0.039l0.043,0.12l0.021,0.111l0.017,0.022l0.021,0.019l0.021,0.032  l0.008,0.026v0.023l-0.01,0.027l-0.021,0.031l0.042,0.015l0.018,0.037l0.005,0.037l0.011,0.017l0.049-0.01l0.023-0.025l0.017-0.027  l0.03-0.021l-0.016-0.044l0.018-0.037L25.573,47.35z M8.372,45.82l-0.003,0.002v0.003H8.37v0.002l0.003-0.001v-0.003H8.372V45.82z   M24.311,45.386l-0.01-0.007v0.001L24.311,45.386L24.311,45.386z M24.265,45.441l0.006,0.058l0.026,0.047l0.079,0.099l0.088,0.182  l0.028,0.035l0.018,0.009l0.023,0.004l0.038,0.019l0.032,0.022l0.078,0.084l0.036,0.022l0.05,0.021l0.043-0.004l0.02-0.049  l-0.139-0.423l-0.112-0.02l-0.1-0.046l-0.169-0.115l-0.001,0.003h-0.003L24.3,45.38l-0.009-0.007L24.265,45.441z M24.299,45.376  l-0.002-0.002l-0.003-0.001h-0.002l0.009,0.006l0,0L24.299,45.376z M20.006,46.998l-0.039-0.063l-0.046-0.052l-0.051-0.021  l-0.081-0.026l-0.028-0.062l0.021-0.205l-0.003-0.037l-0.016-0.018l-0.046-0.076l-0.053-0.162l-0.018-0.014l-0.023-0.011L19.6,46.24  l-0.021-0.027l-0.01-0.063l0.053-0.434l0.016-0.018l0.022-0.018l0.02-0.023l0.009-0.039l-0.003-0.026l-0.009-0.032l-0.011-0.028  l-0.012-0.013l-0.009-0.035l0.144-0.465l0.015-0.131l-0.029-0.104l-0.05,0.029l-0.004,0.039l0.032,0.104l-0.004,0.052l-0.033,0.1  l-0.017,0.08l-0.092,0.289l-0.023,0.152l-0.157,0.479l-0.054,0.088l-0.063,0.08l-0.063,0.056l0.099,0.046l0.03,0.021v-0.023  l0.02-0.025l0.018-0.012l0.019,0.006l0.014,0.008l0.017,0.004l0.033-0.002l0.025,0.002l0.035,0.01l0.025,0.015l0.024,0.005  l0.045,0.045l0.025,0.025l0.025,0.031l0.006,0.105l-0.002,0.036l-0.01,0.027l-0.02,0.013l-0.043,0.004l-0.007,0.014l0.009,0.021  l0.008,0.034l0.01,0.004l0.055,0.071l0.085,0.047l0.024,0.02l0.029,0.059l0.06,0.168l0.031,0.033l0.109,0.021l0.015-0.021  l-0.026-0.084L20.006,46.998z M23.967,43.469l-0.044,0.065l-0.013,0.108l0.021,0.104l0.058,0.048l0.029-0.044l-0.004-0.104  l-0.023-0.109L23.967,43.469z M23.051,42.609l0.04,0.02l0.051-0.015l-0.015-0.035l-0.079-0.071l-0.003-0.051l0.063-0.126  l-0.006-0.049l-0.037-0.007l-0.109,0.033l-0.048-0.008l-0.032,0.018l-0.049,0.058l-0.017,0.013l-0.036,0.004l-0.016,0.012  l-0.003,0.022l0.004,0.075l0.017,0.061l0.003,0.033l-0.01,0.024l-0.045,0.045l-0.055,0.283l-0.023,0.067l-0.009,0.043l0.02,0.037  l0.058,0.049l0.084-0.304l0.13-0.28l-0.012-0.015l-0.004-0.011l-0.005-0.04l0.056,0.028L23.051,42.609z M16.59,40.367l-0.05-0.065  l-0.036-0.049l-0.019-0.008l-0.021,0.005l-0.016,0.014l-0.011,0.01l-0.026-0.01l0.003-0.019l-0.026-0.017l-0.028-0.011l-0.029-0.005  l-0.049,0.025l-0.042,0.021l-0.021,0.028L16.24,40.3l0.037,0.011l0.078,0.02l0.094,0.025l0.083,0.031l0.034,0.021l0.026,0.019h0.025  l-0.002-0.022L16.59,40.367z M30.241,44.352l-0.04-0.018l-0.162-0.053l-0.058-0.012h-0.353l0.016,0.045l0.044,0.019l0.194-0.002  l0.027,0.003l0.024,0.006l0.028,0.014l0.022,0.002l0.087,0.033l0.113,0.065l0.103,0.043l0.055-0.034l-0.04-0.027L30.241,44.352z   M26.569,39.124l-0.085-0.052l-0.074,0.01l0.064,0.051l0.068,0.035l0.061,0.046l0.041,0.083h0.021l-0.028-0.09L26.569,39.124z   M24.854,38.389l-0.031,0.004l-0.026-0.002l0.058,0.021L24.854,38.389L24.854,38.389z M24.741,38.367l-0.045-0.063L24.67,38.22  l-0.012-0.177l-0.026,0.047l-0.022,0.073l-0.006,0.076l0.021,0.052l0.061,0.045L24.741,38.367z M19.406,33.51l0.152-0.351  l0.012-0.146l-0.036-0.133l-0.147-0.283l-0.002-0.018v-0.036l0.007-0.022l0.011-0.022l-0.001-0.026l-0.027-0.035l-0.024-0.066  l0.024-0.061l0.005-0.037h-0.081l-0.015,0.021l-0.016,0.016l-0.023,0.006l-0.156,0.004l-0.035,0.017l-0.038,0.083l-0.056,0.016  l-0.135-0.008l-0.045,0.026l-0.037,0.037l-0.028,0.042l-0.021,0.043l-0.037,0.117l-0.026,0.133l-0.01,0.137l0.011,0.132l0.033,0.029  l0.012,0.03l-0.017,0.035l-0.016,0.028l-0.013,0.031l-0.015,0.026l-0.02,0.012l-0.065,0.02l-0.052,0.045l-0.029,0.058l0.005,0.052  l0.045,0.042l0.071,0.042l0.076,0.034l0.056,0.013l0.03,0.012l0.077,0.058l0.032,0.019l0.11,0.021l0.107,0.076l0.014,0.02  l0.071-0.01l0.033,0.011l0.055,0.025l0.063-0.013l0.133-0.066v-0.02L19.4,33.708l-0.014-0.021l-0.004-0.022l0.001-0.03L19.406,33.51  z M11.519,24.238l-0.098-0.016l-0.038,0.146l0.112,0.13l0.148,0.064l0.069-0.048l0.02,0.026l0.029,0.023l0.038,0.015h0.042  l-0.054-0.098l-0.127-0.136L11.519,24.238z M64.945,52.869l-0.021,0.027l-0.047,0.049l-0.02,0.035l0.08-0.031l0.067-0.092  l0.037-0.103l-0.015-0.06l-0.029,0.039L64.945,52.869z M11.454,66.637l-0.072,0.039v0.037l0.053,0.02l0.108-0.013l0.021,0.001  l0.021-0.003l0.022-0.015l0.01-0.016l0.01-0.021l0.002-0.021l-0.012-0.009L11.454,66.637L11.454,66.637z M23.576,65.25l-0.043-0.018  l0.016-0.068L23.5,65.096l-0.075-0.055l-0.064-0.023l-0.12,0.104l-0.046,0.062l-0.027,0.071l-0.015,0.056l-0.003,0.021l0.14,0.057  l0.046,0.026l0.044,0.035l0.048,0.046l0.058-0.031l0.061,0.002l0.056-0.004l0.041-0.055v-0.057l-0.025-0.058L23.576,65.25z   M23.975,63.523l-0.027-0.02v0.043l-0.015,0.032l-0.042,0.069l-0.012,0.026v0.031l0.008,0.022l0.011,0.01l0.005-0.008l0.015-0.033  l0.034-0.032l0.08-0.056l-0.034-0.063L23.975,63.523z M38.484,57.225h-0.036l-0.047,0.012l-0.063-0.021L38.26,57.27l0.046,0.113  l0.105,0.096l0.103-0.006l-0.002-0.175l0.002-0.019L38.484,57.225z M38.06,56.695h-0.034l-0.118,0.044l-0.041-0.034l-0.071-0.021  l-0.081-0.011l-0.067,0.002l-0.062,0.065l-0.052,0.07l-0.01,0.065l0.061,0.056l0.06,0.014l0.221,0.009l0.043-0.007l0.021-0.012  l0.045-0.045l0.104-0.064l0.023-0.021l-0.033-0.091L38.06,56.695z M37.087,56.111h0.002l0.001-0.002h0.003l-0.006-0.02V56.111z   M37.553,56.555l-0.003-0.021l-0.015-0.012l-0.014-0.008l-0.006-0.01l0.002-0.023l0.016-0.043l0.07-0.086l-0.065-0.031l-0.053-0.063  l-0.024-0.074l0.014-0.072l-0.112-0.041l-0.094-0.021l-0.087,0.01l-0.089,0.051l0.016,0.066l0.02,0.207l0.016,0.065l0.042,0.058  l0.056,0.047l0.191,0.105h0.047l0.019-0.061l0.012-0.013l0.024-0.015L37.553,56.555z M37.108,55.852l-0.027-0.027l-0.034-0.082  l-0.024-0.039l-0.01,0.029l-0.014,0.018l-0.019,0.01l-0.024,0.01l0.011,0.037l0.008,0.088l0.015,0.035l0.031,0.01l0.036-0.021  l0.032-0.036L37.108,55.852z M83.866,65.708l0.095-0.017l0.098-0.041l0.166-0.094l-0.064,0.107l0.107-0.021l0.092-0.072l0.123-0.164  l0.047,0.003l0.109-0.042l0.062-0.006l-0.028,0.01l-0.023,0.014l-0.02,0.018l-0.016,0.023l0.043-0.005l0.037-0.016l0.068-0.044  l0.012,0.012l0.014,0.01v-0.045l-0.01-0.033l-0.016-0.025l-0.021-0.025l-0.054,0.005l-0.142,0.063l-0.147,0.042l-0.047,0.021  l-0.246,0.152l-0.088,0.021l-0.14,0.055l-0.035,0.021l-0.047,0.05l-0.015,0.021l0.021,0.006h0.063V65.708z M65.462,55.809  l-0.028-0.062l-0.013-0.067l-0.019-0.062l-0.047-0.044l0.02,0.124l0.049,0.141l0.074,0.104l0.094,0.017l0.027-0.037l-0.041-0.039  L65.462,55.809z M96.285,67.1h-0.01l-0.01-0.002l-0.002,0.004l0.006,0.015l-0.002,0.007l-0.01-0.008l-0.013,0.019L96.24,67.17  l0.05-0.025l0.002,0.004v-0.002l0.005-0.013l0.001-0.017l-0.001-0.012L96.285,67.1z M97.992,66.249l-0.021,0.08l-0.016,0.03  L97.924,66.4l-0.053,0.063l-0.012,0.025h0.02l0.122-0.164l0.039-0.11l-0.029-0.137L97.992,66.249z M98.012,66.076L98.012,66.076  L98.012,66.076L98.012,66.076L98.012,66.076z M98.033,66.021l-0.014,0.026l-0.009,0.026l0.066-0.108l-0.027,0.028L98.033,66.021z   M98.207,65.427l0.033,0.259l-0.014,0.088l0.041-0.07l0.006-0.078l-0.023-0.152L98.207,65.427z M99.869,59.568h-0.016l-0.006,0.012  l-0.021,0.047l-0.049,0.036l-0.057,0.021l-0.041-0.01l-0.068,0.04l-0.043,0.009l-0.028-0.006l-0.078-0.029l-0.034-0.008  l-0.012-0.005l-0.016-0.01l-0.021-0.008h-0.026l-0.025,0.014l-0.051,0.043l-0.021,0.009l-0.099,0.129l-0.126,0.222l-0.037,0.122  l-0.01,0.133l0.013,0.072l0.042,0.134l0.01,0.063l0.021,0.028l0.052-0.022l0.165-0.145l0.029-0.034l0.015-0.022l0.013-0.03  l0.03-0.021l0.028-0.018l0.015-0.018l0.015-0.053l0.079-0.144l0.037-0.052l0.097-0.074l0.051-0.053l0.041-0.103l0.111-0.183  l0.036-0.045l0.007-0.01l-0.007-0.022L99.869,59.568z M99.915,57.527l-0.034-0.074l-0.011-0.066l-0.024,0.047l0.031,0.096  l0.063,0.095L100,57.667L99.915,57.527z M99.449,58.752v-0.033l0.076-0.164l0.057-0.169l0.007-0.036l0.003-0.068l0.008-0.026  l0.014-0.022l0.019-0.016l0.05-0.017l0.02-0.013l0.015-0.006l0.015,0.002l0.011-0.002l0.004-0.025l-0.004-0.018l-0.017-0.029  l-0.004-0.02l0.041-0.086l0.014-0.021l0.067-0.143l0.013-0.016l0.01-0.018l0.008-0.031l-0.155,0.02l-0.075-0.146l-0.024-0.203  l-0.002-0.154l0.007-0.036l0.027-0.079l0.007-0.049l-0.007-0.039l-0.049-0.158l-0.033-0.016l-0.082-0.002l-0.064-0.021l-0.029,0.004  l-0.013,0.039l-0.034-0.012l-0.029-0.014l-0.02-0.021l-0.014-0.063l-0.014-0.026l-0.021-0.025l-0.014-0.031l-0.168-0.23l-0.09-0.083  l-0.054-0.03l-0.216-0.066l-0.07,0.013l-0.348,0.16L98.2,56.527l-0.065-0.014L98.105,56.5l-0.1-0.018l-0.074-0.002l-0.023,0.004  L97.887,56.5l-0.033,0.034l-0.097,0.075l-0.005,0.043l0.014,0.027l0.025,0.008l0.032-0.013l-0.013-0.006h-0.004l-0.002-0.002  l-0.006-0.015l0.063-0.021l0.082-0.063l0.052-0.024l0.001,0.021l0.02,0.045l0.021-0.021l0.062,0.023l0.076,0.018h0.076l0.059-0.029  l0.051-0.043l0.068-0.035l0.077-0.021l0.071,0.003l0.046,0.017l0.012,0.016l-0.007,0.018l-0.006,0.025l0.008,0.025l0.014,0.024  l0.008,0.029l-0.018,0.028l-0.023,0.027l-0.041,0.063l-0.033,0.029l-0.227,0.092l-0.061,0.009l-0.049-0.024l-0.053-0.02  l-0.195,0.008l-0.182-0.057L97.7,56.805l-0.14,0.018l-0.06-0.006l-0.028-0.036h0.02l0.011,0.019l0.017,0.003l0.019-0.008  l0.021-0.014l-0.039-0.005l-0.022-0.021l-0.013-0.022l-0.012-0.013l-0.027-0.005l-0.086,0.004l-0.004,0.001h-0.002l-0.071-0.007  l-0.177-0.061l-0.211-0.025l-0.017,0.018l0.052,0.03l0.063,0.017l0.134,0.006l-0.052,0.021l-0.053-0.002l-0.102-0.021h-0.217  L96.6,56.684l-0.104-0.033L96.4,56.604l-0.074-0.059l0.066,0.02l0.221,0.037l0.048,0.021l0.028,0.019l0.039,0.008l0.041-0.004  l0.03-0.01l0.027-0.021l-0.011-0.01l-0.189-0.052l-0.277-0.036l-0.133-0.033l-0.195-0.08l-0.073-0.008h-0.271l-0.139-0.035  l-0.046-0.006l-0.029,0.006l-0.068,0.027L95.311,56.4l-0.072,0.021l-0.063,0.035l-0.014,0.025l0.025-0.002l0.127-0.026l0.107-0.058  h0.074l0.076,0.015l0.063,0.022l-0.203-0.006l-0.047,0.018l-0.041,0.029l-0.058,0.017l-0.175,0.017l-0.102,0.029l-0.057,0.007  l-0.057-0.01L94.79,56.49l-0.054-0.01h-0.248l-0.063,0.016l-0.113,0.051l-0.063,0.018l-0.197,0.021l-0.062,0.023l-0.196,0.17  l-0.109,0.068l-0.383,0.084l-0.113,0.045l-0.061,0.015l-0.139,0.015l-0.209,0.059l-0.27,0.043l-0.021,0.007l-0.067,0.028  l-0.03,0.008l-0.033-0.002l-0.076-0.021l-0.125,0.016l-0.26,0.07l-0.6,0.057l-0.438,0.073h-0.25l-0.342,0.056l-0.317,0.108  l-0.058,0.011l-0.054,0.02l-0.19,0.132l-0.168,0.06l-0.096,0.01L89.35,57.75l-0.07,0.029l-0.106,0.086l-0.207,0.072L88.9,57.986  l-0.354,0.207l-0.055,0.051l-0.033,0.052l-0.146,0.429l-0.002,0.004l-0.047,0.139l-0.063,0.08v0.021l0.076-0.03l0.063-0.074  l0.04-0.09l0.009-0.045l0.002-0.004l0.004-0.026l0.008-0.024l0.058-0.115l0.043-0.173h0.024l-0.01,0.104l-0.08,0.182l-0.018,0.079  l-0.021,0.092l-0.006,0.011l-0.039,0.063l-0.176,0.195l-0.031,0.084L88.122,59.5l-0.072,0.268l0.002,0.139l0.048,0.259l-0.004,0.126  l-0.041,0.178l-0.005,0.069l0.009,0.175l-0.029,0.158l-0.002,0.24l-0.01,0.063v0.028l0.01,0.037l0.096,0.171l0.014,0.056  l-0.004,0.056l-0.014,0.043l-0.026,0.045l-0.128,0.166l-0.283,0.201L87.5,62.141l-0.061,0.092l-0.062,0.132l-0.021,0.073  l0.002,0.053l0.012,0.052l0.007,0.069l-0.006,0.064l-0.029,0.133l-0.051,0.611l-0.038,0.104l-0.085,0.106l-0.106,0.083l-0.104,0.033  l-0.064,0.044l-0.25,0.301l-0.246,0.157l-0.144,0.051l-0.063,0.03l-0.26,0.225l-0.795,0.326l-0.06,0.043l-0.126,0.134l-0.031,0.045  l-0.072,0.082l0.006,0.021l0.063,0.008l0.063-0.004l0.039-0.01l0.071-0.049l0.017,0.017l0.028-0.017l-0.006-0.073l0.08-0.066  l0.206-0.101l0.205-0.155l0.074-0.017l-0.049,0.064l-0.088,0.079l-0.097,0.066l-0.146,0.048l-0.073,0.051l-0.063,0.07l-0.044,0.074  l0.062,0.021l0.09,0.111l0.064,0.018l0.021-0.013l0.01-0.021l0.014-0.021l0.03-0.011l0.038,0.006l0.025,0.011l0.054,0.048  l0.063,0.096l-0.004,0.1L85.5,65.775l0.044-0.025l0.149-0.04l0.078-0.038l0.043-0.006l0.054,0.021l-0.048,0.031l-0.123,0.035  l-0.025,0.032l-0.021,0.017l-0.055,0.004l-0.104-0.01l-0.019,0.021l-0.053,0.098l-0.027,0.034l-0.039,0.024L85.3,65.996l-0.056,0.01  l-0.049-0.018l-0.092,0.051l-0.18,0.063l-0.074,0.041l-0.023,0.021l-0.07,0.077l-0.015,0.031l0.015,0.016l0.082-0.035l0.034-0.002  l0.005-0.023l0.012-0.023l0.006-0.018h0.021l0.004,0.043l0.022,0.095l-0.006,0.036l-0.028,0.021l-0.029-0.011l-0.021-0.032  l-0.006-0.045l-0.055,0.028l-0.072,0.02l-0.152,0.019l-0.079-0.006l-0.144-0.035l-0.061,0.019l-0.094-0.038l-0.192-0.05  l-0.079-0.041L83.9,66.255l0.026,0.042l0.046,0.039l0.033,0.042l-0.038,0.004l-0.034-0.005l-0.031-0.016l-0.024-0.026l0.021,0.062  l0.029,0.049l0.014,0.045l-0.029,0.05l-0.039-0.009l-0.063-0.045l-0.059-0.055l-0.025-0.041l0.021-0.049l0.079-0.092l0.009-0.044  L83.8,66.169l-0.126-0.035L83.619,66.1h0.014l0.004-0.005l-0.002-0.009l0.004-0.009l0.045,0.021l-0.013-0.039l-0.032-0.031  l-0.041-0.024l-0.043-0.015l0.041-0.064l-0.076,0.027l-0.041-0.01l-0.035-0.028l-0.063-0.03l0.02,0.1l0.066,0.064l0.088,0.053  l0.086,0.063l-0.059-0.014l-0.063-0.026l-0.051-0.036l-0.021-0.041l-0.018-0.016l-0.043,0.007l-0.07,0.021l-0.041-0.009l-0.03-0.014  l-0.058-0.045l-0.051,0.03l-0.016,0.013l0.008-0.034l0.014-0.028l0.02-0.024l0.025-0.021l-0.012-0.019l-0.004-0.014l-0.002-0.015  l-0.006-0.019l0.033,0.025l0.037,0.012l0.041-0.002l0.041-0.013v-0.022l-0.045-0.004l-0.021-0.017l0.01-0.019l0.044-0.008  l0.027,0.006l0.016,0.009l0.014-0.001l0.063-0.051l0.021-0.006l0.021,0.002l0.02,0.025l-0.012,0.037l-0.006,0.032l0.032,0.015  l0.085-0.002l0.04-0.006l0.037-0.016l-0.011,0.021L83.639,65.9l0.037-0.008l0.031-0.026l0.02-0.035v-0.038l-0.021-0.021l-0.17-0.105  l-0.114-0.178l-0.096-0.04l-0.084,0.01l-0.545,0.132l-0.334,0.029l-0.404-0.008l-0.201,0.048l-0.053,0.013l-0.275,0.111l-0.068,0.01  l-0.146-0.008l-0.077,0.005l-0.047,0.022l0.01,0.041l0.078,0.146l0.019,0.065l-0.022,0.131l-0.002,0.066l0.024,0.049l-0.021,0.088  l-0.041-0.084l-0.024-0.306L81.07,65.91l-0.014-0.021l-0.029-0.004l-0.029,0.014l-0.014,0.033l-0.025,0.041l-0.057,0.051  l-0.311,0.211l-0.127,0.058l-0.134,0.04l-0.517,0.023l-0.065,0.017l-0.05,0.028l-0.006,0.026l0.066,0.013l0.07,0.023l0.023,0.051  l-0.021,0.047l-0.063,0.01l0.022,0.021l-0.021,0.021l-0.045,0.066h-0.021l0.004-0.045l0.036-0.06l0.003-0.048l-0.027,0.021  l-0.047,0.022l-0.049,0.02l-0.029,0.001l-0.021-0.028l-0.007-0.071l-0.016-0.026l0.031-0.016l0.023-0.024l0.031-0.049v-0.021  l-0.474,0.018l-0.438-0.012l-0.338,0.037l-0.142,0.03l-0.584,0.212l-0.035,0.027l-0.026,0.032l-0.061,0.02l-0.061,0.028  l-0.025,0.061l0.035-0.031l0.035-0.006l0.035-0.002l0.035-0.017l0.107-0.074l0.139-0.021l0.02-0.014l0.027-0.037l0.021-0.017  l0.226-0.069l0.035-0.026l0.018-0.019l0.043-0.02l0.043-0.014l0.025-0.004l0.014,0.015l0.03,0.071L78.3,66.633l-0.036,0.035  l-0.203,0.037l-0.064-0.01l-0.021-0.06l-0.037,0.027l-0.047,0.021l-0.045,0.008l-0.043-0.01l-0.018,0.015l-0.038,0.021l-0.021,0.018  l-0.014,0.027l0.012,0.021l0.014,0.021v0.028l-0.026,0.035l-0.043,0.026l-0.054,0.017l-0.254,0.032l-0.032-0.017l0.011-0.043  l0.025-0.034l0.029-0.027l0.021-0.034l-0.351,0.108l-0.062,0.03l-0.051,0.044l-0.242,0.051l-0.085,0.037l-0.074,0.039L76.544,67.1  l-0.221,0.058l-0.464,0.065l-0.107,0.041l-0.068,0.006l-0.09,0.021l-0.09,0.009L75.4,67.259l-0.096-0.01l-0.041-0.019l-0.1-0.068  l-0.02-0.005l-0.148-0.302l-0.077-0.09l-0.206-0.191l-0.064-0.102l-0.097-0.242l-0.057-0.09l-0.065-0.037l-0.147-0.014l-0.054-0.023  l-0.412-0.063l-0.067-0.026l-0.028-0.041l-0.018-0.065l-0.041-0.045l-0.273-0.173l-0.109-0.094l-0.053-0.026l-0.06-0.013  l-0.211-0.004l-0.282,0.021l-0.41-0.014l-0.279-0.045l-0.254-0.094l-0.217-0.154l0.014,0.137l0.172,0.087l0.208,0.069l0.125,0.076  l-0.052,0.043l-0.067-0.037l-0.069-0.061l-0.059-0.031l-0.07-0.013l-0.333-0.094l-0.026-0.002l-0.033,0.004l-0.01,0.013  l-0.002,0.014l-0.012,0.014l-0.072,0.035l-0.037,0.008l-0.051,0.002l-0.031-0.021l-0.035-0.046l-0.014-0.046l0.034-0.021l0.048,0.01  l0.086,0.033l0.053,0.003v-0.023l-0.137-0.088l-0.068-0.06l-0.031-0.059l-0.059-0.017l-0.112-0.052l-0.069-0.057l0.066-0.037  l0.072,0.02l0.11,0.105l0.175,0.049l0.146,0.109l0.079,0.04l0.006-0.085l-0.006-0.023l-0.04-0.028l-0.065-0.027l-0.07-0.018  l-0.051-0.007l-0.063-0.021l-0.073-0.05l-0.112-0.103l-0.063-0.082l-0.058-0.099l-0.047-0.116l-0.045-0.222l-0.021-0.038  l-0.045-0.01l-0.081,0.002l-0.077-0.016l-0.063-0.041l-0.05-0.057l-0.034-0.061l-0.047-0.159l-0.029-0.045l-0.021-0.06l-0.011-0.074  l-0.03-0.043l-0.081,0.033l-0.045-0.027l-0.262-0.213l-0.074-0.041l-0.038-0.058l-0.024-0.067l-0.021-0.118l-0.045-0.104  l-0.005-0.044l-0.001,0.004v-0.021l0.001,0.018l0.032-0.076l-0.017-0.062l-0.106-0.117l-0.033-0.055l-0.105-0.37l-0.037-0.276  l-0.109-0.303l-0.051-0.099l-0.17-0.192l-0.205-0.304L68.65,61.13l-0.11-0.182l-0.026-0.028l-0.035-0.012l-0.019-0.012l-0.032-0.026  l-0.031-0.031l-0.041-0.09l-0.06-0.063l-0.194-0.155l-0.217-0.246l-0.086-0.077l-0.047-0.055l-0.046-0.122l-0.062-0.05l-0.129-0.066  l-0.106-0.091l-0.366-0.418l-0.15-0.289l0.032-0.041l0.017-0.015l0.017-0.011l-0.028-0.055l-0.033-0.104l-0.224-0.371l-0.221-0.4  l-0.187-0.475l-0.024-0.115l-0.023-0.041l-0.05-0.019l-0.004-0.034l-0.212-0.406l-0.013-0.065l0.03-0.129l0.005-0.06l-0.035-0.039  l-0.049,0.035l-0.047,0.019l-0.047-0.003l-0.052-0.027l-0.05-0.048l-0.252-0.427l-0.047-0.123l-0.049-0.27l-0.064-0.211  l-0.014-0.264l-0.021-0.129L65.17,55.12l-0.023-0.062l-0.026-0.035l-0.054-0.113l-0.014-0.072l0.043,0.102l0.258,0.438l0.086,0.054  l0.035,0.073l0.053,0.213l0.002,0.039l0.017,0.032l0.073,0.055l0.146,0.202l0.17,0.165l0.047,0.076l0.152,0.129l0.124,0.078  l0.063,0.052L66.35,56.6l-0.004,0.057l-0.009,0.049l-0.021,0.048l-0.032,0.052l-0.032-0.024l-0.059,0.013l-0.063,0.032l-0.05,0.034  l-0.053,0.057l0.002,0.021l0.023,0.021l0.024,0.1l0.077,0.158l0.041,0.217h0.023l0.021-0.144l0.02-0.071l0.034-0.056l0.036-0.045  l0.089-0.142l0.019-0.054l0.026-0.137l0.046-0.13l0.01-0.131l-0.082-0.133l-0.227-0.138l-0.035-0.045l-0.031-0.015l-0.174-0.149  l-0.058-0.03l-0.322-0.356l-0.474-0.82l-0.034-0.112l-0.01-0.385l-0.023-0.063l-0.055-0.145l-0.021-0.031l-0.012-0.035l-0.027-0.159  l-0.014-0.043l0.008-0.093l-0.096-0.318l0.063-0.258l0.002-0.088l-0.006-0.049l-0.009-0.031l-0.019-0.002l-0.031,0.039l-0.011,0.043  l0.013,0.098l-0.002,0.032l-0.025,0.03l-0.037,0.018h-0.039l-0.026-0.025l-0.008-0.046l0.013-0.048l0.107-0.229l-0.008-0.063  l-0.061-0.065l0.084,0.022l0.021-0.004l0.016-0.021l-0.002-0.045l0.01-0.021l0.105-0.104l0.022-0.047l0.097-0.326l0.033-0.035  l0.004,0.051l-0.004,0.183l0.036-0.388l-0.083-0.908l0.033-0.568l0.052-0.303l0.062-0.64l-0.034-0.112l-0.028,0.094l-0.015,0.209  l-0.021,0.086h-0.021l0.021-0.291l-0.017-0.078l-0.045-0.035l-0.068-0.01l-0.087,0.002V49.5l0.225,0.021l0.057-0.021l0.025-0.055  l0.026-0.639l0.017-0.13l0.012-0.108l0.178-1.362l0.607-2.093l0.438-0.664l0.185-0.346l0.113-0.27l0.086-0.195l0.037-0.128  l0.037-0.054l0.028-0.061l0.003-0.146l0.021-0.063l-0.031-0.123l0.09-0.434l-0.21,0.016l-0.152-0.01l-0.041,0.01h-0.001  l-0.009,0.052l-0.04,0.034l-0.018,0.016l0,0l-0.074,0.021l-0.055-0.035l-0.071,0.047h-0.001l-0.014,0.018l0.01,0.059l0.022,0.072  l-0.002,0.062l0,0l-0.063,0.026l-0.031-0.01l-0.014-0.021l-0.01-0.022l-0.021-0.016l-0.024-0.001l-0.006,0.015l-0.001,0.019v0.002  l-0.015,0.012l-0.066-0.012l-0.031-0.047l-0.019-0.049L66.1,42.864l-0.066-0.003l-0.055-0.008l-0.049-0.021l-0.058-0.034  l-0.144-0.132l-0.088-0.037l-0.033-0.043l-0.025-0.05l-0.03-0.042l-0.06-0.042l-0.059-0.026l-0.063-0.012l-0.275-0.017l-0.043-0.012  l-0.006-0.049l-0.063-0.016h-0.24l-0.2,0.021l-0.183-0.022l-0.043,0.002l-0.098,0.047l-0.068,0.021l-0.029-0.015L64.098,42.3  l-0.063-0.014l-0.148,0.036l-0.109-0.006l-0.118-0.031l-0.245-0.113l-0.029-0.029l-0.074-0.103l-0.02-0.021l-0.083-0.002  l-0.037-0.011v-0.03l0.024-0.064l-0.088-0.021l-0.1-0.054l-0.088-0.024l-0.009,0.01l-0.04,0.048H62.87l-0.063-0.072l-0.091-0.032  l-0.1-0.023l-0.091-0.044l-0.187,0.065l-0.041-0.009l-0.034-0.021l-0.064-0.058l-0.025-0.006l-0.027-0.004l-0.008-0.017l0.041-0.043  l-0.031-0.026l-0.037-0.015l-0.041-0.002l-0.043,0.002l0.013-0.053l-0.032-0.037l-0.109-0.063l-0.047-0.053l-0.018-0.012  l-0.027-0.002l-0.021,0.012l-0.023,0.008l-0.035-0.018l0,0l-0.021,0.02l0,0l-0.025,0.006l-0.031-0.007l-0.03-0.019l-0.071,0.012  l-0.115-0.075l-0.05,0.044l-0.026-0.05l-0.028-0.019l-0.076-0.001l-0.054,0.02l-0.021,0.004l-0.02-0.005l-0.021-0.028l-0.017-0.01  l-0.063-0.002l-0.059,0.007l-0.061-0.01l-0.065-0.049l-0.008-0.035l0.02-0.039l0.028-0.04l0.014-0.036l-0.007-0.041l-0.037-0.088  l-0.036-0.043l-0.082-0.02l-0.076-0.027l-0.021-0.074l-0.022-0.156l-0.008-0.052l-0.128-0.334l-0.04-0.15l-0.044-0.137l-0.047-0.056  l-0.053-0.049l-0.046-0.053l-0.1-0.109l-0.035-0.043l-0.127-0.092l-0.028-0.025l-0.015-0.034l0.002-0.063l-0.009-0.035l-0.021-0.025  l-0.025-0.006l-0.027-0.001l-0.027-0.011l-0.049-0.035l-0.012-0.018l-0.057-0.07l0.063-0.104l0.008-0.027l-0.006-0.027l-0.014-0.023  l-0.015-0.018l-0.007-0.016l0.007-0.063l0.046-0.137l0.014-0.061l-0.008-0.063l-0.021-0.057l-0.034-0.052l-0.046-0.048l-0.008-0.005  l-0.037-0.017l-0.008-0.012l-0.006-0.025l-0.006-0.008l-0.021-0.01l-0.09-0.031l0.021-0.033l0,0l0.002-0.002l0.053-0.052l0.012-0.03  l0.004-0.032l0.016-0.041l0.01-0.063l0.028-0.072l0.009-0.037l-0.003-0.117l0.003-0.016l-0.011-0.043l-0.013-0.026l-0.024-0.013  l-0.049-0.004L59.6,37.793l-0.002-0.033l0.01-0.072v-0.127l-0.024-0.047l-0.063-0.051l-0.063-0.027l-0.055-0.016l-0.02-0.014  l-0.037-0.063l-0.031-0.014l-0.039,0.009l-0.066,0.033l-0.035,0.001l-0.013-0.014l-0.031-0.053l-0.021-0.017l-0.111,0.001  l-0.018-0.014l-0.016-0.021l-0.04-0.056l-0.022-0.014l-0.012-0.032l-0.008-0.037l-0.013-0.026L58.85,37.08l-0.057-0.016  l-0.029-0.016l-0.039-0.04l-0.026-0.043l-0.034-0.028l-0.005-0.004l-0.079-0.015v-0.017l-0.037-0.036l-0.043-0.03l-0.018-0.004  l-0.004-0.03l0.01-0.067l-0.006-0.03l-0.022-0.028l-0.028-0.015l-0.025-0.019l-0.01-0.035l0.025-0.049l0.014-0.033l-0.009-0.015  l-0.049-0.021l-0.055-0.049l-0.05-0.057l-0.031-0.047l0.035-0.046l-0.039-0.022l-0.065-0.015l-0.047-0.016l-0.046-0.05l-0.029-0.039  l-0.021-0.041l-0.021-0.055l0.002-0.021l0.01-0.021l0.002-0.018l-0.023-0.007l-0.044-0.034l-0.043-0.042l-0.009-0.022l-0.004-0.043  l-0.023-0.068l-0.059-0.053l-0.31-0.14l-0.051-0.009l-0.026-0.02l-0.013-0.041l-0.005-0.045l-0.01-0.025l-0.021-0.008l-0.089-0.015  l-0.055-0.034l-0.055-0.053l-0.029-0.061l0.021-0.06l-0.002-0.051l-0.049-0.069l-0.09-0.105l-0.029-0.111l-0.014-0.115l-0.014-0.018  l-0.024-0.02l-0.022-0.024l-0.005-0.035l0.017-0.022l0,0l0.093-0.043l-0.001-0.002l-0.131-0.045l-0.063-0.039l-0.043-0.063  l-0.003-0.034l0.005-0.076l-0.014-0.029l-0.031-0.022l-0.074-0.03l-0.035-0.022l0.004-0.056l-0.114-0.134l-0.04-0.069l-0.079-0.306  l-0.019-0.03l-0.015-0.017l-0.016-0.032l-0.015-0.018l-0.021-0.01l-0.046-0.002l-0.021-0.01l-0.01-0.022l0.02-0.039l-0.01-0.024  l-0.017-0.011l-0.047-0.021l-0.011-0.013l-0.017-0.05l-0.038-0.034L56.1,33.318L56.083,33.3l-0.001-0.042l-0.006-0.033l-0.014-0.025  l-0.021-0.02l0.027-0.068l-0.012-0.064l-0.063-0.125l-0.027-0.183l-0.025-0.044l-0.027-0.01l-0.04-0.004l-0.035-0.01l-0.016-0.021  l-0.011-0.017l-0.166-0.12l-0.023-0.043l0.025-0.068l-0.066-0.107l-0.041-0.046l-0.063-0.041l-0.15-0.063l-0.025-0.019l-0.062-0.069  l-0.074-0.059l-0.229-0.093l-0.035-0.021l-0.029-0.025l-0.025-0.028l-0.02-0.033l-0.012-0.044l-0.012-0.09l-0.025-0.055  l-0.096-0.029l-0.211-0.057l-0.091-0.043l-0.062-0.066l-0.026-0.02l-0.033-0.008l-0.034-0.003l-0.031-0.028l-0.012-0.043  l0.027-0.095l-0.004-0.082l-0.047-0.04l-0.079,0.01l-0.078,0.039l-0.055,0.043l-0.035-0.013l0.004-0.047l0.026-0.067l0.005-0.049  l-0.027-0.016h-0.084l-0.04-0.018l-0.027-0.023l-0.021-0.029l-0.039-0.074l-0.021-0.058l-0.053-0.069l-0.021-0.039l-0.009-0.041  l0.014-0.039l-0.028,0.014l-0.032,0.009l-0.033,0.004l-0.035-0.003l-0.029-0.015l-0.021-0.041l-0.026-0.009l-0.062,0.02  l-0.049,0.036l-0.051,0.024l-0.066-0.017l0.011-0.024l0.028-0.056l0.006-0.016l-0.01-0.03l-0.023-0.021l-0.022-0.006l-0.011,0.014  l-0.014,0.06l-0.033,0.033l-0.049,0.015l-0.164,0.02l-0.512-0.063l-0.027-0.018l-0.01-0.033h-0.021L52.3,30.521h-0.106l-0.063-0.018  L52.1,30.5l-0.024,0.012l-0.021,0.018l-0.027,0.011l-0.029,0.006l-0.029,0.001l-0.041-0.02l-0.046-0.032l-0.048-0.013l-0.05,0.041  l-0.084-0.02l-0.3,0.028l-0.113-0.043l-0.036-0.027l-0.147-0.067l-0.112-0.011l-0.043-0.02l-0.017-0.058l-0.057,0.012l-0.04-0.026  l-0.042-0.035l-0.059-0.014l-0.029,0.015v0.001l-0.03,0.058l0,0l-0.036,0.014l-0.037,0.007l-0.023,0.021l0,0l-0.012,0.031  l-0.008,0.084l-0.011,0.031L50.47,30.6l-0.006,0.012l0,0l-0.344-0.023l-0.025,0.008l-0.025,0.039l0,0l-0.032,0.023h-0.001  l-0.006,0.007v0.001l-0.01,0.007L50,30.675l-0.016-0.007l-0.015-0.032l-0.013-0.006l-0.059,0.021l-0.113,0.056l-0.055,0.011  l-0.118-0.002l-0.023,0.002l-0.023,0.022l0,0l-0.009,0.022l-0.003,0.027l-0.01,0.035l-0.092,0.143l-0.014,0.043l0,0l-0.014,0.004  L49.372,31.1v0.008l-0.031,0.053l-0.02,0.02l-0.037,0.016l0,0l0.018,0.041l-0.008,0.011h-0.001l-0.028,0.014h-0.001l0.017,0.042  l-0.019,0.024l0,0l-0.027,0.021l0,0l-0.101,0.232l-0.021,0.029l-0.017,0.029l-0.006,0.043l0.007,0.035l0.013,0.035l-0.001,0.037  l-0.029,0.042l-0.003,0.019l0.023,0.045l0.001,0.014l0,0l-0.028,0.015l-0.022,0.003l-0.02-0.001l-0.016,0.005l-0.038,0.027l0,0  l-0.02,0.021l-0.006,0.033L48.95,32.07l-0.044,0.123l-0.001,0.037l0.023,0.03l0.076,0.044l0.029,0.035v0.001l-0.035,0.015  l-0.085,0.014l-0.143,0.095l0,0l-0.017,0.025l-0.001,0.001l-0.069-0.034l-0.022,0.019l-0.037,0.03l0,0l-0.086,0.159l-0.027,0.033  v0.001l-0.025,0.018l-0.126,0.06l-0.026,0.021l0,0l-0.016,0.03L48.3,32.882l-0.001,0.001l-0.012-0.008l-0.029,0.007v0.001  l-0.015,0.108L48.2,33.076l0,0l-0.079,0.035L48,33.093l-0.172-0.042l-0.188,0.004l-0.046-0.023l0.013-0.047l0.006-0.021  l-0.046,0.015l-0.018,0.01l-0.039-0.057l-0.028,0.006l-0.027,0.03l0,0l-0.037,0.021l-0.046-0.018l-0.088-0.074l-0.028-0.017  l-0.038-0.011l-0.135-0.066l-0.162-0.141l-0.019-0.026l-0.008-0.021l-0.012-0.021l-0.026-0.019l-0.024-0.006l-0.085,0.006  l-0.278-0.061l-0.093-0.045l-0.148-0.111l-0.03-0.012l-0.036-0.01l-0.022-0.018l0.026-0.069l-0.016-0.031l-0.029-0.022l-0.033-0.01  l-0.221-0.012l-0.202-0.037l-0.286-0.086l-0.121-0.059l-0.151-0.146l-0.108-0.048l-0.069-0.051l-0.104-0.103l-0.056-0.112  l-0.021-0.017l-0.026-0.011l-0.076-0.049l-0.051-0.058l-0.08-0.02l-0.088,0.001l-0.057,0.026l-0.033-0.043l-0.257-0.144  l-0.023-0.008l-0.02-0.012l-0.015-0.027l-0.011-0.028l-0.01-0.021l-0.045-0.038l-0.148-0.092l-0.045-0.043l-0.014-0.03v-0.032  l-0.006-0.045l-0.021-0.045l-0.056-0.092l-0.028-0.133l-0.041-0.047l-0.056-0.039l-0.059-0.059l-0.013-0.025l-0.044-0.146  l-0.059-0.064l-0.014-0.031l-0.01-0.016l-0.04-0.043L43.29,30.09l-0.006-0.029l0.007-0.051l-0.001-0.027l-0.059-0.174l-0.008-0.074  l0.01-0.063l0.044-0.112l0.013-0.073l0.006-0.114L43.287,29.3l-0.045-0.049l-0.062-0.112l-0.029-0.026l-0.055-0.023l-0.023-0.015  l-0.038-0.063l-0.04-0.086l-0.046-0.077l-0.061-0.033l-0.016-0.014l-0.007-0.031l-0.004-0.035l-0.006-0.027l-0.02-0.021  l-0.042-0.021l-0.023-0.021l-0.025-0.035l-0.006-0.017l0.004-0.021l0.004-0.048l-0.007-0.03l-0.031-0.042l-0.007-0.035l0.005-0.021  l0.018-0.035l0.001-0.02l-0.012-0.016l-0.053-0.027l-0.007-0.032l-0.006-0.065l-0.009-0.031l-0.037-0.056l-0.095-0.095l-0.019-0.035  l-0.021-0.011l-0.101-0.013l-0.031-0.009l-0.02-0.027l-0.009-0.034l-0.003-0.035l-0.01-0.032l-0.04-0.049l-0.062-0.041l-0.067-0.029  l-0.06-0.011l-0.06-0.021l-0.146-0.152l-0.022,0.023l0,0l-0.04-0.04l-0.015-0.008l-0.01,0.005l-0.006-0.034l-0.015-0.02  l-0.023-0.009l-0.032-0.002l-0.032-0.011l-0.031-0.046l-0.021-0.01l-0.02-0.004l-0.035-0.011l-0.012,0.004l-0.021,0.023l0,0  l-0.013,0.008l-0.016,0.001l-0.034-0.013l-0.02-0.018l-0.016-0.019l-0.02-0.016l-0.181-0.077l-0.093-0.021l-0.04-0.028l-0.124-0.136  l-0.255-0.17l-0.108-0.111l-0.079-0.034l-0.031-0.045l-0.04-0.111l-0.039-0.061l-0.047-0.033l-0.056-0.027l-0.064-0.041  l-0.076-0.077l-0.023-0.013l-0.054-0.018l-0.238-0.134l-0.031-0.04l-0.021-0.058l-0.243-0.244l-0.058-0.04l-0.053-0.016  l-0.001-0.011l-0.036-0.024l-0.062-0.029l-0.02-0.028l-0.023-0.054l-0.021-0.027l-0.04-0.031l-0.137-0.082l-0.052-0.017  l-0.079-0.008l-0.061-0.02l-0.107-0.057l-0.132-0.032l-0.073-0.027l-0.032-0.039l-0.109-0.054l-0.02-0.021l-0.006-0.015  l-0.004-0.019l-0.014-0.032l-0.03-0.048l-0.133-0.135l-0.036-0.055l-0.082-0.216l-0.061-0.106l-0.085-0.111l-0.105-0.09  l-0.118-0.039l-0.139,0.011L37.57,24.36l-0.042-0.035l-0.035-0.012H37.36h-0.08h-0.082l-0.082-0.001h-0.082h-0.081h-0.081H36.79  l-0.082-0.001h-0.081H36.55h-0.082h-0.081l-0.081-0.001h-0.082h-0.082h-0.081h-0.082l-0.082-0.001h-0.082h-0.081h-0.081H35.57  h-0.082l-0.081-0.001h-0.081h-0.082h-0.082h-0.081l-0.082-0.001h-0.082h-0.081h-0.081h-0.082l-0.082-0.001H34.51h-0.082h-0.081  h-0.082l-0.082-0.001h-0.081H34.02h-0.082h-0.081l-0.081-0.001h-0.082h-0.082H33.53h-0.082l-0.082-0.001h-0.081h-0.082h-0.081H33.04  l-0.081-0.001h-0.082h-0.081h-0.082h-0.082h-0.081l-0.082-0.001h-0.081h-0.082L32.225,24.3h-0.082v0.688l0.001,0.022v0.71h-0.135  h-2.964H28.91h-0.135h-1.887h-0.135h-0.135h-3.28l-0.191-0.02l-0.086-0.028l-0.162-0.052l-0.163-0.053l-0.162-0.052l-0.162-0.053  L22.25,25.41l-0.162-0.053l-0.163-0.052l-0.162-0.053l-1.291-0.398l-1.29-0.399l-1.291-0.398L16.6,23.66l-1.291-0.399l-1.29-0.399  l-1.291-0.398l-1.291-0.399l-0.115-0.035l-0.006-0.002l-0.011-0.004l0,0l0.04-0.035l0.044-0.129l0.004-0.068l-0.026-0.064  l0.05-0.084l0.017-0.022l0,0l0.071-0.053l0.024-0.023l0,0l0.037-0.053l0.026-0.056l0.022-0.078l-0.001-0.005l-0.127,0.01  l-0.232,0.018L11.023,21.4l-0.232,0.018l-0.231,0.018l-0.232,0.018l-0.231,0.018L9.865,21.49l-0.231,0.018L9.398,21.52l-0.231,0.018  l-0.232,0.018l-0.231,0.018L8.471,21.59L8.24,21.608l-0.232,0.018l-0.231,0.018L7.543,21.66l-0.464,0.034l-0.231,0.019L6.615,21.73  l-0.231,0.017l-0.232,0.018L5.92,21.782L5.688,21.8l-0.231,0.018l-0.232,0.018l-0.231,0.018L4.76,21.87l-0.231,0.018l-0.232,0.018  l-0.231,0.018H4.063h0.001l-0.01,0.021l0.002,0.041l0.006,0.065l-0.007,0.063l0.009,0.056L4.1,22.221l0.059,0.104l0.048,0.112  l0.153,0.291l0.048,0.038l0.137,0.026l0.058,0.03l0.047,0.042l0.034,0.045l0.055,0.13l0.058,0.146l0.026,0.198l0.01,0.109  l0.031,0.068l0.073,0.083l0.121,0.024l0.107,0.003l0.038,0.041l0.006,0.096l0.039,0.058l0.057,0.023l0.066,0.016l0.05,0.037  l0.042,0.043l0.047,0.033l0.129,0.033l0.047,0.033l0.018,0.075L5.696,24.23l-0.063,0.089l-0.03,0.062L5.562,24.44l-0.056,0.034  L5.45,24.462l-0.095-0.054l-0.074-0.013l0.008,0.025l0.099,0.083l0.026,0.018l0.047,0.018l0.022,0.018l0.042,0.061l0.022,0.059  l-0.025,0.085l-0.019,0.05l-0.008,0.049l0.063,0.068l-0.073-0.002l-0.042,0.009l0.012-0.002L5.443,24.97l0.017,0.043l0.074,0.047  l0.017,0.03l0.119,0.085l0.022,0.032L5.7,25.229l0.012,0.02l0.032,0.021l0.043,0.014l0.062,0.047l0.043,0.016l0.027,0.021  l0.051,0.056l0.019,0.011l0.033,0.039l0.157,0.212l0.335,0.379l0.102,0.225l-0.004,0.279l-0.049,0.138l-0.019,0.079l0.013,0.056  l0.058,0.028l0.131,0.002l0.059,0.022l0.074,0.096l0.024,0.042l0.054,0.067l0.03,0.024l0.391,0.224l0.031,0.033l0.01,0.06  l0.057,0.169l0.019,0.324l-0.034,0.49l0.021,0.125l0.06,0.117l0.063,0.058l0.015-0.037l-0.016-0.069l-0.03-0.037l-0.027-0.012  l-0.002-0.026L7.56,28.51l0.024-0.019l0.033-0.005l0.035,0.005l0.034,0.011l0.026,0.013l-0.005-0.053l-0.022-0.038l-0.03-0.037  L7.627,28.34l0.052,0.015l0.057,0.042l0.045,0.051l0.021,0.044l-0.01,0.045l-0.033,0.037l-0.088,0.07l0.134,0.003l0.117,0.018  l0.1,0.045l0.082,0.083l0.053,0.098L8.2,29.013l0.028,0.139l0.003,0.14l-0.019,0.104L8.21,29.432l0.007,0.026l0.029,0.043  l0.007,0.019l0.012,0.198l-0.012,0.071L8.188,30.01L8.2,30.047l0.142,0.008L8.4,30.075l0.049,0.039l0.025,0.046l0.041,0.111  l0.032,0.047l0.021,0.06l-0.01,0.074l-0.019,0.075l-0.004,0.061l0.029,0.055l0.225,0.16l0.126,0.051l0.051,0.039l0.052,0.11  l0.038,0.058l0.053,0.025l0.083-0.002l0.049,0.004l0.045,0.023l0.07,0.061l0.219,0.137l0.232,0.096l0.207,0.115l0.143,0.192  l0.261,0.031l0.417,0.129l0.049,0.021l0.243,0.265l0.021,0.051l0.023,0.026l0.314,0.203l0.042,0.02l0.026,0.018l0.013,0.037  l0.016,0.074l0.022,0.034l0.024,0.026l0.027,0.024l0.033,0.021l0.131,0.048l0.089,0.026l0.024,0.043l0.017,0.057l0.031,0.053  L12,32.967l-0.023,0.047v0.022l0.041,0.032l0.034,0.035l0.035,0.023l0.041-0.006l0.018,0.034l0.055,0.069l0.021,0.041l0.008,0.03  h0.021l0.022-0.013l0.045-0.01l0.079,0.011l0.082,0.032l0.058,0.074l0.03,0.045l0.059,0.01l0.022,0.044l0.006,0.069l0.015,0.057  l0.063,0.035l0.027,0.057l0.047,0.027l0.02,0.062l0.013,0.063l0.002,0.039l0.136,0.058l0.075,0.065l0.028,0.045l-0.027,0.02  l-0.012,0.006l0.025,0.014l0.063,0.023l0.031,0.004l0.087-0.004l0.074-0.002l0.029,0.014l0.028,0.034l0.047,0.089l0.011,0.049v0.037  l-0.014,0.045l0.008,0.03l0.019,0.017h0.05l0.055,0.002l0.044,0.031l0.031,0.033l0.011,0.029l0.019,0.025l0.028,0.019L13.7,34.62  l0.003,0.039l0.013,0.032l0.023,0.029l0.026,0.049l-0.008,0.112l-0.016,0.039l-0.07,0.204l-0.063,0.139l-0.042,0.067l-0.026,0.033  l-0.01,0.024l0.008,0.027l0.023,0.025l0.028,0.009l0.029-0.015h0.033l0.026,0.023l0.016,0.05l0.011,0.036l0.013,0.02l0.013,0.021  l-0.025,0.017l-0.026,0.028l-0.026,0.06l-0.033,0.07l-0.042,0.045l-0.026,0.019l-0.008,0.022l-0.003,0.031l-0.023,0.016  l-0.023,0.021l-0.018,0.039l-0.065,0.068l-0.097,0.125l-0.067,0.07h0.148h-0.109h-0.039l-0.014,0.016l-0.05,0.047l-0.021,0.039  l-0.063,0.05l-0.026,0.026l-0.016,0.047l-0.005,0.052l-0.008,0.036l0.013,0.025l0.031,0.004l0.029-0.029l0.025-0.033l0.061-0.023  l0.036,0.006l0.034-0.017l0.023-0.019l0.026-0.008l0.013-0.023l0.003-0.023l0.028-0.016l0.021,0.006l0.026,0.014l-0.003,0.024  L13.4,36.438l0.013,0.021l0.019,0.016l0.029,0.012l0.013,0.011l-0.005,0.019l-0.021,0.01l-0.023,0.014l0.005,0.011l0.016,0.003  l0.029,0.006l0.013,0.012l-0.01,0.037l-0.037,0.043l-0.05,0.06l-0.016,0.034l-0.021,0.023l-0.005,0.033l0.005,0.039l0.003,0.047  l0.033,0.045l0.026,0.027l0.023,0.031l0.011,0.042l0.005,0.036l0.029,0.022l0.021,0.029l0.026,0.016l0.039,0.005l0.041-0.013  l0.037-0.022l0.023-0.02h0.031l0.021,0.014l0.014,0.002l0.002-0.021l0.006-0.019h0.023l0.01-0.021l-0.013-0.037l-0.021-0.027  l-0.026-0.017l0.003-0.034l-0.026-0.047l-0.013-0.027l0.008-0.014l0.023,0.008l0.028,0.028l0.016,0.026l0.026,0.049l0.036,0.058  l0.013,0.005l0.019-0.002l0.039-0.006l0.029,0.003l0.021-0.021l0.013-0.004l0.023,0.017l0.006,0.022l0.016,0.009l0.031,0.005  l0.047,0.021l0.013,0.019l0.034,0.005l0.033,0.023l0.014,0.027l-0.011,0.042l-0.042,0.028l-0.016,0.029l-0.021,0.027l-0.023,0.031  l-0.011,0.013L14,37.307l-0.083-0.014l-0.055-0.021l-0.026-0.019l-0.003-0.026l-0.028-0.011l-0.039,0.011l-0.013-0.016l-0.006-0.021  l-0.021-0.01l-0.036,0.008l-0.026,0.004l-0.016,0.015l0.005,0.019l0.021,0.002l0.021-0.011l0.005,0.011l0.011,0.012l0.008,0.021  l0.023-0.013l0.021,0.018l-0.013,0.047l-0.028,0.037l-0.056,0.039l-0.002,0.021l-0.023,0.025l-0.037,0.021l-0.028,0.02l-0.008-0.026  l0.008-0.033h-0.028l-0.026-0.017l0.003-0.03l-0.021-0.022L13.473,37.3l-0.047-0.039l-0.081-0.03l-0.06-0.039l-0.089-0.017  l-0.052-0.028l-0.068-0.064l-0.064-0.027l-0.071-0.093l-0.023-0.047l0.014-0.031l0.021-0.038l0.019-0.051l0.016-0.05l-0.014-0.06  l-0.008-0.026l-0.002-0.023l-0.019-0.013l-0.039-0.008h-0.028l-0.029,0.016l-0.033,0.021l-0.063,0.039l-0.063,0.037l-0.028,0.032  l-0.034,0.034L12.54,36.85l-0.097,0.037l-0.053,0.019l-0.056,0.01l-0.057,0.008l-0.482-0.014l-0.063-0.015l-0.049-0.025  l-0.062-0.046l-0.052-0.022l-0.057-0.008l-0.076,0.002l-0.075-0.008l-0.122-0.046l-0.054-0.011l-0.188-0.008l-0.195,0.024  l-0.057-0.013l-0.128-0.082l-0.044,0.009l-0.017,0.045l0.014,0.065l0.012,0.01l0.022,0.01l0.021,0.014l0.01,0.021l-0.001,0.035  l0.003,0.016l0.028,0.041l0.009,0.032l0.004,0.069l0.026,0.057l0.062,0.019l0.065-0.004l0.04-0.014l0.043,0.037l0.071,0.11  l0.049,0.023l0.038-0.014l0.017-0.028l0.018-0.024h0.045l0.034,0.018l0.026,0.025l0.018,0.032l0.01,0.036l-0.017,0.005l-0.03,0.013  l-0.018,0.004l0.037,0.033l0.16,0.051l0.063,0.045l0.012,0.023l0.029,0.096l0.01,0.017l0.044,0.052l0.011,0.018l0.031,0.037  l0.072,0.027l0.136,0.034l0.178,0.093l0.049,0.016l0.021,0.015l0.099,0.091l0.08,0.047l0.028,0.021l0.078,0.098l0.04,0.105  l0.022,0.121l0.007,0.137l0.004,0.129l0.017,0.039l0.039,0.016l0.077,0.003l0.025,0.013l0.004,0.027l-0.003,0.035l0.007,0.031  l0.015,0.016l0.069,0.051l0.063-0.019l0.099,0.022l0.102,0.043l0.073,0.049l0.032,0.003l0.102-0.044l0.052-0.012l0.047,0.002  l0.044,0.01l0.081,0.031l0.11,0.051l0.103,0.057l0.064,0.023l0.028,0.018l0.067,0.132l0.029,0.043l0.155,0.188l0.035,0.018  l0.031-0.014l0.024-0.024l0.018-0.013l0.191-0.014l0.067,0.008l0.123,0.044l0.102,0.065l0.098,0.067l0.103,0.229l0.053,0.101  l0.01,0.047l0.028,0.044l0.188,0.098l0.154,0.148l0.052,0.021l0.144-0.01l0.05-0.024l-0.01-0.05l0.05-0.037l0.049-0.051l0.054-0.045  l0.063-0.019V40.01l0.005-0.035l0.07-0.021l0.093,0.002l0.069,0.035l-0.007,0.003l0.104-0.012l0.077,0.029l0.207,0.133l0.043,0.021  l0.016-0.034l-0.014-0.047l0.003-0.036l-0.005-0.026l0.002-0.025v-0.028l0.019-0.042l0.042-0.039l0.038,0.024l0.136-0.136  l0.011-0.03v-0.196l0.021-0.07l0.049-0.025l0.057,0.015l0.046,0.048l0.017,0.055l0.005,0.162l-0.021,0.033l-0.019,0.058L16.6,39.857  l-0.045,0.022l-0.028,0.039l-0.037,0.039l-0.025,0.019l-0.047,0.028l-0.026,0.022l-0.061,0.004l-0.021,0.016l0.021,0.02l0.006,0.043  l0.019,0.037l0.025,0.033l0.031,0.02l0.042-0.016l0.003-0.023l-0.014-0.029l0.034-0.008l0.047-0.008l0.011-0.039l0.01-0.036  l0.045-0.019l0.042-0.014l0.025,0.003l0.029,0.013l-0.021,0.017l-0.055,0.021l-0.008,0.035v0.039l0.019,0.034l0.034,0.052  l0.033,0.043l0.039,0.025l0.05,0.061l0.034,0.047l0.042,0.058l0.021,0.021l0.003,0.033l-0.014,0.034l0.014,0.052l0.021,0.039  l0.035,0.027l0.064,0.085l0.045,0.046l0.053,0.021l0.061-0.004l0.018,0.004l0.012,0.01l0.005,0.015l0.002,0.015l0.001,0.006  l0.143,0.086l0.031,0.011l0.056,0.036l0.06,0.057l0.104,0.068l0.02,0.031l0.023,0.021l0.041,0.026l0.05,0.047l0.046,0.003  l0.091,0.049l0.065,0.048l0.113,0.169l0.041,0.011l0.135-0.006l0.052,0.006l0.014,0.011l0.037,0.021l0.014,0.022l0.04,0.023  l0.033,0.004l0.042-0.024l0.018,0.032l-0.004,0.046l-0.004,0.013l0.186,0.118l0.053-0.011l0.028-0.03l0.022-0.032l0.039-0.016  l0.032,0.007l0.126,0.065l0.075,0.063l0.111,0.133l0.071,0.148l0.025,0.092l0.014,0.102l0.063,0.026l0.078,0.022l0.081,0.043  l0.057,0.063l0.021,0.053l0.054,0.066l0.077,0.05l0.178,0.638l0.022,0.117l-0.005,0.529l-0.014,0.072l-0.002,0.029l0.016,0.019  l0.031-0.001l0.018-0.021l0.017-0.063l0.009-0.139l-0.023-0.273l0.038-0.128l0.023,0.11l-0.004,0.362l0.008,0.06l0.031,0.121  l0.004,0.06l-0.013,0.047l-0.017,0.039l-0.007,0.033l0.015,0.03l-0.003,0.021l0.003,0.53l-0.009,0.057l-0.021,0.037l-0.065,0.059  l-0.057,0.078l-0.029,0.084l-0.007,0.396l-0.023,0.105l-0.07,0.06l0.007,0.015l0.01,0.038l0.007,0.015l-0.042,0.008l-0.011,0.022  l0.01,0.063l-0.007,0.039l-0.031,0.049l-0.007,0.022l0.005,0.042l0.014,0.006l0.024-0.01l0.033-0.007l0.009-0.017l0.022-0.076  l0.024-0.057l-0.002-0.069l0.012-0.03l0.016-0.02l0.03-0.051l0.006-0.018v-0.038l0.004-0.022l0.017-0.01l0.037-0.003l0.011,0.015  l0.003,0.035l-0.003,0.067l0.008,0.035l0.031,0.042l0.005,0.021l-0.012,0.021l-0.043,0.025l-0.013,0.016l-0.001,0.025l0.011,0.016  l0.012,0.012l0.021,0.07l-0.018,0.023l-0.055,0.047l-0.034-0.021l0.022,0.088l0.02,0.011l0.023,0.004l0.018,0.02l0.007,0.034  l-0.007,0.096l0.011,0.058l0.02,0.045l0.031,0.035l0.047,0.032L19.98,46.47l-0.023,0.019l-0.016,0.027l-0.012,0.037l0.061-0.02  l0.04-0.049l0.022-0.063l0.007-0.064l-0.017-0.1l0.01-0.041l0.05-0.033l0.018,0.033l0.002,0.031l-0.014,0.025l-0.029,0.021  l0.056,0.158l0.043,0.05l0.054-0.059l0.015,0.029l0.021,0.02l0.025,0.005l0.027-0.011l-0.018-0.014l-0.032-0.035l-0.019-0.016  l0.051-0.033l0.018-0.01l-0.065-0.059l-0.026-0.071l-0.013-0.083l-0.026-0.091l0.04,0.028l0.034,0.059l0.024,0.066l0.009,0.053  l0.02,0.047l0.048,0.063l0.063,0.06l0.063,0.036h-0.065l0.031,0.045l0.139,0.131l0.102,0.053l0.022,0.02l0.043,0.055l0.028,0.263  l0.028,0.097l-0.023,0.02l0.013,0.009l0.006,0.009l0.005,0.024l0.016-0.026l0.03-0.015l0.039-0.005l0.044,0.004l-0.05-0.049  l-0.021-0.026l-0.014-0.028l0.187,0.026l0.087-0.005l0.071-0.046l-0.034-0.022l0.001-0.033l0.027-0.021l0.049,0.013l0.025,0.026  l0.017,0.039l0.022,0.084l0.078,0.168l0.063,0.093l0.071,0.064l0.135,0.046l0.04,0.019l0.032,0.024l0.15,0.157l0.084,0.063  l0.099,0.05l0.112,0.029v0.021l-0.236-0.088l-0.069-0.043l-0.02,0.021l0.628,0.317l0.098,0.082l0.292,0.106l0.037,0.058l0.084,0.045  l0.157,0.063l0.188,0.14l0.104,0.103l0.099,0.069l0.042,0.056l0.084,0.171l0.034,0.021l0.062,0.013l0.073,0.028l0.117,0.066  l0.208,0.184l0.322,0.355l0.204,0.154l0.099,0.051l0.477,0.161l0.051,0.032l0.211,0.172l0.046,0.06l0.162,0.406l0.076,0.11  l0.107,0.078l0.048,0.049l0.02,0.059l0.009,0.066l0.118,0.334l0.066,0.389l0.075,0.206l0.011,0.063l0.012,0.03l0.075,0.11  l0.043,0.086l0.038,0.035l0.095,0.06l0.051,0.045l0.025,0.013l0.041,0.004l0.073-0.004l0.037-0.015l0.045-0.034l0.026-0.015  l0.142-0.022l0.025-0.008l0.043-0.031l0.083-0.028l0.057-0.05l0.053-0.059l0.053-0.043l0.132-0.06l0.045-0.045l0.017-0.078  l0.025-0.05l0.058-0.047l0.439-0.224l0.083-0.06l0.1-0.105l0.037-0.053l0.016-0.046l0.009-0.017l0.041-0.052l0.015-0.03l0.003-0.03  l-0.005-0.066l0.002-0.03l0.013-0.013l0.025-0.039l0.015-0.04l-0.034-0.035l0.042-0.17l0.026-0.059l0.011-0.053l-0.035-0.049  l0.028-0.061l0.002-0.057l-0.019-0.051l-0.029-0.047l-0.119-0.121l-0.021-0.035l-0.015-0.071l-0.019-0.035l-0.048-0.037l-0.106-0.04  l-0.052-0.039l-0.043-0.023l-0.324-0.08l-0.069-0.026l-0.028-0.042l-0.009-0.064l-0.033-0.11l-0.002-0.071l0.015-0.135l-0.017-0.053  l-0.051-0.063l-0.06-0.052l-0.148-0.09l-0.006-0.014l-0.012-0.043l-0.013-0.009l-0.02-0.001l-0.016-0.006l-0.014-0.011l-0.016-0.015  l-0.019-0.027l-0.011-0.031l-0.005-0.07l0.012-0.062l0.028-0.075l0.036-0.07l0.033-0.041l-0.058-0.074L27.09,48.68l-0.01-0.01  l-0.008-0.02l-0.01-0.014l-0.017,0.008l-0.043,0.028l-0.154,0.063l-0.051,0.007l-0.134-0.038l-0.073-0.084l-0.039-0.11l-0.012-0.124  l-0.015-0.033l-0.033-0.035l-0.07-0.063l-0.056-0.036l-0.11-0.037l-0.265-0.127l-0.023-0.043l-0.017-0.056l-0.037-0.045l-0.075-0.06  l-0.028-0.047l-0.017-0.043l-0.028-0.029l-0.068-0.012h-0.035l-0.07,0.01l-0.069,0.028l-0.015,0.013l-0.016,0.057l-0.007,0.169  l0.104,0.201l-0.012,0.136l-0.02,0.02l-0.062,0.039l-0.018,0.006l-0.027,0.016l-0.015,0.036l-0.008,0.04l-0.014,0.027l-0.07,0.037  l-0.061-0.017L25.24,48.49l-0.054-0.137l0.002-0.028l0.033-0.013l0.096,0.031l0.02,0.042l0.047-0.01l0.056-0.028l0.053-0.041  l-0.018-0.033l-0.061,0.002l-0.166,0.004l-0.162-0.034l-0.103-0.013l-0.042-0.004l-0.039-0.015l-0.086-0.043l-0.037-0.009  l-0.054-0.027l-0.122-0.17l-0.021-0.044l-0.051-0.028l-0.06-0.067l-0.095-0.142l-0.052-0.125L24.35,47.4l-0.041-0.104l-0.051-0.078  l-0.064-0.167l0.002-0.156l0.008-0.146l0.041-0.125l0.082-0.101l0.034-0.055l0.015-0.072l0.006-0.191l-0.006-0.057l-0.021-0.101  l-0.002-0.04l-0.01-0.029l-0.021-0.021l-0.021-0.016l-0.01-0.019l-0.016-0.065l-0.035-0.056l-0.043-0.051l-0.038-0.058l-0.012-0.039  l-0.003-0.032l-0.01-0.031l-0.03-0.036l-0.025-0.021l-0.027-0.018l-0.027-0.012l-0.062-0.013l-0.035-0.019l-0.135-0.102  l-0.131-0.194l-0.021-0.056l-0.013-0.08l-0.031-0.061l-0.036-0.054l-0.029-0.056l-0.006-0.023l0.006-0.095l-0.007-0.035l-0.05-0.104  L23.36,44.46l-0.029-0.053L23.31,44.35l-0.012-0.063l-0.001-0.245l-0.03-0.059l-0.08,0.022l-0.017-0.043l-0.053-0.019l-0.134-0.002  l-0.053-0.026L22.826,43.8l-0.038-0.026l-0.022-0.025l-0.062-0.119l-0.019-0.072l-0.029-0.064l-0.014-0.073l-0.018-0.006  L22.6,43.412l-0.028-0.018l-0.126-0.166l-0.011-0.023l-0.004-0.129l-0.005-0.029l-0.018-0.029l-0.005,0.008l-0.02,0.01L22.36,43.04  l-0.015-0.003l-0.007-0.014l-0.026-0.082l-0.01-0.1l-0.011-0.027l-0.032-0.057l-0.026-0.06l-0.008-0.062l0.02-0.059l0.058-0.061  l-0.007-0.101l0.034-0.138l0.012-0.121l-0.072-0.053l-0.039-0.061l-0.145-0.37V41.59l0.011-0.029l0.015-0.015l0.007-0.021  l-0.009-0.047l-0.039-0.054l-0.056-0.04l-0.041-0.035l0.006-0.043l-0.111-0.091l-0.031-0.055l0.012-0.093L21.891,41l0.047-0.063  l0.014-0.057l-0.06-0.047l-0.052,0.023l-0.066-0.015l-0.067-0.034l-0.053-0.039l-0.037-0.039l-0.019-0.039l-0.007-0.053l0.006-0.281  l-0.007-0.065l-0.025-0.065l-0.042-0.022l-0.054-0.013l-0.064-0.039l-0.089-0.067l-0.094-0.101l-0.021-0.016l-0.12-0.063  l-0.054-0.036l-0.022-0.042l-0.217-0.141l-0.1,0.032l0.029,0.128l0.037,0.12l0.018,0.169l0.045,0.147l0.027,0.028l0.061,0.019  l0.055,0.06l0.103,0.104l0.109,0.098l0.03,0.059l0.001,0.035l-0.116,0.104l-0.059,0.01l-0.074-0.036l-0.035-0.041l-0.074-0.149  L20.8,40.52l-0.036-0.022l-0.077-0.034l-0.028-0.018l-0.014-0.022l-0.017-0.059l-0.013-0.028l-0.048-0.053l-0.049-0.036  l-0.012-0.037l0.048-0.091l0.008-0.029l0.019-0.015l0.021-0.011l0.018-0.021l0.007-0.034v-0.062l-0.011-0.034l-0.156-0.142  l-0.047-0.054l-0.032-0.022l-0.061-0.029l-0.024-0.021l0.003-0.047L20.29,39.57l-0.03-0.014l-0.057-0.035l-0.05-0.084l-0.031-0.094  l-0.002-0.068l0.046-0.069l0.062-0.032l0.074-0.02l0.079-0.029l-0.018-0.046l-0.013-0.022l-0.015-0.021l-0.063-0.001l-0.225-0.073  l-0.081-0.014l-0.019,0.004L19.75,38.84l-0.044,0.005h-0.02l-0.038-0.03l-0.095-0.047l-0.039-0.031l-0.032-0.066l0.009-0.044  l0.031-0.005l0.035,0.051l-0.015-0.085l-0.05-0.062l-0.062-0.058l-0.049-0.079l-0.01-0.021l-0.028-0.026l-0.036-0.023l-0.033-0.034  l-0.005-0.031l0.001-0.044l-0.005-0.038l-0.023-0.016l-0.008-0.039l-0.012-0.175l-0.013-0.047l0.021-0.043l-0.085-0.17l-0.034-0.026  l-0.064-0.009L18.9,37.6l-0.059-0.031l-0.077-0.073l-0.05-0.039l-0.057-0.017l-0.011-0.008l-0.023-0.043l-0.018-0.014l-0.018-0.001  l-0.01,0.021l-0.018,0.002l-0.101-0.013l-0.028-0.009l-0.042-0.027l-0.043-0.043l-0.033-0.055l-0.013-0.061l-0.029-0.043  l-0.069-0.026L18.127,37.1l-0.061-0.025l-0.028-0.036l-0.021-0.052l-0.012-0.06l-0.004-0.062l-0.024-0.047l-0.113-0.065l-0.036-0.05  l0.006-0.041l-0.027-0.059v-0.025l-0.02-0.027l-0.006-0.025l0.007-0.026l0.019-0.026l0.02-0.063l-0.024-0.128l0.043-0.046  l-0.018-0.018l-0.017-0.018l-0.027-0.021l-0.049-0.003l-0.046-0.021l-0.021-0.039l0.005-0.043l0.014-0.045l0.002-0.045l-0.053-0.12  l0.016-0.099l0.045-0.074l0.007-0.039l0.019-0.006l-0.031-0.104l-0.19-0.155l-0.042-0.115l0.036-0.174l0.019-0.115l-0.024-0.072  l0.006-0.032l0.01-0.026l0.002-0.027l-0.018-0.016l-0.023,0.006l-0.018,0.012l-0.02-0.002l-0.025-0.012l0.021-0.021l-0.1-0.026  l-0.317,0.002l-0.038-0.015l-0.198-0.125l-0.031-0.033l-0.016-0.044l-0.057-0.256l-0.014-0.053l-0.059-0.083l-0.014-0.06  l-0.034-0.043l-0.059-0.14l-0.003-0.056l0.006-0.057l-0.006-0.051l-0.04-0.029l0.012-0.05l-0.026-0.042l-0.049-0.027l-0.056-0.012  l-0.173,0.055l-0.032,0.024l-0.049,0.026l-0.054,0.015L15.97,33.7l-0.015-0.028l-0.015-0.091l-0.016-0.031l0.026-0.04l0.015-0.037  l-0.006-0.037l-0.035-0.039l0.021-0.032l-0.004-0.032l-0.021-0.025l-0.037-0.017l0.015-0.051l0.007-0.015l-0.069,0.022l-0.041,0.004  l-0.019-0.015l-0.002-0.049l-0.008-0.015l-0.064,0.011l-0.084,0.033l-0.028,0.02l-0.016,0.029l0.006,0.026l0.015,0.024l0.014,0.052  l0.006,0.014l-0.01,0.007l-0.046,0.008h-0.035l-0.084-0.021l-0.026-0.024L15.32,33.18l0.04-0.017l-0.005-0.04l-0.022-0.053  L15.32,33.02l0.01-0.043l0.041-0.1l0.004-0.02l-0.055-0.153l-0.032-0.041l-0.035-0.021l-0.038-0.019l-0.043-0.028l-0.008-0.018  l-0.006-0.051l-0.009-0.019L15.128,32.5l-0.051-0.008l-0.026-0.018l-0.04-0.043l-0.015-0.026l0.002-0.166l-0.012-0.033l-0.033-0.044  l-0.313-0.329l-0.496-0.388l-0.308-0.235l-0.109-0.035l-0.032-0.04l-0.026-0.05l-0.032-0.046l-0.403-0.389l-0.024-0.018l-0.08-0.013  l-0.027-0.015l-0.02-0.017l-0.019-0.007l-0.039,0.011l-0.044,0.043l-0.035,0.013l-0.043-0.008l-0.028-0.022l-0.026-0.028  l-0.033-0.027l-0.035-0.016l-0.028-0.007l-0.026-0.009l-0.029-0.023l-0.024-0.033l-0.009-0.029l0.002-0.043l-0.017-0.142  l-0.021-0.067l-0.028-0.041l-0.061-0.019l-0.063-0.001l-0.05-0.016l-0.044-0.127l-0.058-0.039l-0.137-0.059l-0.024-0.039  l-0.069-0.146L12.09,29.68l-0.119-0.194l-0.025-0.016l-0.021-0.004l-0.014-0.013l-0.005-0.043l-0.049-0.103l-0.016-0.019  l-0.016-0.024l-0.006-0.038l0.006-0.014l0.029-0.047l0.01-0.027l0.001-0.044l-0.02-0.06L11.842,29l0.004-0.026l0.016-0.047  l0.01-0.103l0.028-0.121l0.026-0.309l-0.008-0.043l-0.037-0.061l-0.016-0.035l-0.003-0.032l0.007-0.068l-0.004-0.032l-0.033-0.054  l-0.082-0.076l-0.017-0.054l-0.021-0.195l0.021-0.345l-0.008-0.076l-0.059-0.171l-0.003-0.034l0.003-0.107l-0.006-0.033  l-0.015-0.021l-0.014-0.017l-0.007-0.016l-0.034-0.033l-0.226-0.062l-0.058-0.039l-0.034-0.056l-0.001-0.065l0.037-0.068l0.003-0.05  l-0.052-0.056l-0.067-0.054l-0.046-0.047l-0.028-0.098l-0.007-0.127l0.104-1.076l0.03-0.126l0.054-0.106l0.112-0.112l0.024-0.063  l-0.038-0.074l-0.046-0.06l-0.027-0.065l-0.038-0.223l-0.021-0.039l-0.046-0.013l-0.082-0.001l-0.076-0.069l-0.042-0.057  l-0.001-0.047L10.987,24l-0.04-0.035l-0.048-0.03l-0.055-0.024l-0.081-0.015l-0.024-0.007l-0.031-0.019l-0.013-0.014l-0.046-0.072  l-0.013-0.04l-0.002-0.036h0.001l0.009-0.008l0.009-0.008l0,0l0.026,0.017l0.012,0.037l0.006,0.037l0.011,0.017l0.02,0.008  l0.046,0.03l0.031,0.007l0.041,0.005l0.039,0.01l0.07,0.029h0.001l0.183,0.113l0.064,0.016l0.04,0.021l0.08,0.098l0.043,0.034  l0.031,0.01l0.109,0.01l0.037,0.011l0.063,0.046l0.03,0.01l0.01,0.012l0.058,0.056l0.029,0.018l0.03,0.004l0.23-0.004l0.057,0.016  l0.472,0.353l0.06,0.012l0.276,0.131l0.029,0.027l0.012,0.036l0.016,0.023l0.035,0.015l0.04,0.013l0.029,0.014l0.058,0.047  l0.059,0.035l0.132,0.058l0.258,0.071l0.148,0.013l0.135-0.019l0.031-0.02l0.013-0.021l0.014-0.017l0.039-0.008l0.029-0.011  l0.032-0.026l0.025-0.032l0.024-0.07l0.025-0.009l0.012-0.007l-0.028-0.038l-0.005,0.006l-0.017,0.003l-0.022-0.006l-0.022-0.024  l0.004-0.029l-0.002-0.171l0.009-0.041l0.048,0.025l0.015,0.124l0.058,0.049l0.042-0.003l0.042-0.011l0.089-0.031l0.028,0.057  l0.078,0.031l0.173,0.043l0.464,0.207l0.056,0.062l0.023,0.098l0.014,0.237l0.027,0.088l-0.064,0.002l-0.021-0.002l0.053,0.04  l0.4,0.153l0.048,0.007l0.124-0.007l0.509,0.133l0.182,0.021l-0.054-0.024l-0.044-0.014l-0.039-0.021l-0.037-0.049l0.045-0.007  l0.051-0.02l0.04-0.004l0.034,0.087l0.043,0.038l0.093,0.057l0.089,0.067l0.048,0.028l0.046,0.012l0.04-0.016l-0.024-0.034  l-0.05-0.036L16.6,26.034l0.116-0.03l0.083,0.076l0.063,0.097l0.061,0.029l0.018,0.124l-0.018,0.17l-0.044,0.164l-0.065,0.105  l-0.012-0.055l-0.044-0.089l-0.01-0.063l-0.009-0.027l-0.023-0.024l-0.028-0.007l-0.025,0.025l0.003,0.024l0.095,0.243l0.023,0.13  l-0.01,0.131L16.7,27.326l0.01,0.119l0.144,0.389l0.081,0.121l0.377,0.404l0.152,0.203l0.046,0.089l0.04,0.121l0.001,0.13  l-0.067,0.113l0.033,0.018l0.015-0.01l0.008-0.02l0.013-0.008l0.023,0.009l0.038,0.028l0.012,0.006l0.045,0.017l0.042,0.04  l0.097,0.148l0.019,0.084l-0.005,0.354l0.008,0.047l0.024,0.054l0.028,0.043l0.023,0.046l0.01,0.063l-0.063,0.16l-0.002,0.043  l0.032,0.037l0.041,0.008l0.043-0.015l0.036-0.03l0.009,0.018l0.021,0.027l0.011,0.021l0.045-0.002l0.044,0.079l0.064,0.182  l0.036,0.052l0.051,0.057l0.046,0.063l0.027,0.122l0.021,0.046l0.031,0.036l0.084,0.026l0.024,0.03l0.016,0.039l0.15,0.23  l0.053,0.055l0.109,0.077l0.03,0.048l0.011,0.078l0.019,0.012l0.086,0.028l0.025,0.015l0.005,0.025l-0.005,0.104l-0.023,0.063  l-0.07,0.122l-0.014,0.063l0.014,0.08l0.039,0.053l0.121,0.074l0.049,0.056l0.025,0.015l0.012-0.037l-0.008-0.025l-0.014-0.024  l0.001-0.021l0.031-0.008l0.202-0.019l0.067,0.019l0.087,0.08l0.035,0.116l-0.015,0.132l-0.064,0.129l0.057,0.022l0.056,0.034  l0.043,0.041l0.017,0.041l0.02,0.074l0.004,0.032l-0.006,0.027l-0.03,0.06l-0.009,0.031l0.013,0.061l0.057,0.149l0.007,0.029  l-0.028,0.008l0.002,0.021l0.019,0.021l0.02,0.017l0.03,0.01l0.07,0.002l0.029,0.01l0.016,0.021L19.9,33.22l0.026,0.034l0.05,0.021  l0.071,0.048l0.018,0.026l0.018,0.059l0.018,0.033l0.025,0.024l0.063,0.048l0.21,0.111l0.059,0.044l0.063,0.024l0.059-0.01h0.049  l0.035,0.061l0.003,0.033l-0.005,0.035l-0.012,0.028l-0.018,0.013l-0.03-0.011l-0.019-0.024l-0.016-0.032l-0.022-0.03l-0.057-0.025  l-0.048,0.022l-0.032,0.049L20.4,33.854l0.059,0.092l0.504,0.431l0.073,0.091l0.058,0.1l0.05,0.135l0.036,0.058l0.054,0.023  l0.067,0.01l0.07,0.021l0.362,0.164l0.135,0.039l0.112-0.019l-0.014,0.056l-0.03,0.033l-0.02,0.036l0.021,0.067l0.04,0.056  l0.142,0.108l0.018,0.033l0.012,0.068l0.023,0.043l0.006,0.018l0.009,0.016l0.019,0.006l0.045-0.002l0.01,0.002l0.028,0.033  l0.084,0.123l0.036,0.091l0.101,0.141l0.025,0.019l0.3,0.279l0.119,0.082l0.086,0.012l-0.006,0.045l-0.005,0.019l-0.013,0.022  l0.079-0.008l0.12-0.063l0.07-0.016l0.079,0.015l0.074,0.038l0.064,0.049l0.053,0.051l-0.028,0.004l-0.019,0.01l-0.039,0.029  l0.023,0.016l0.015,0.017l0.011,0.019l0.015,0.017l0.021,0.009l0.05,0.006l0.016,0.008l0.073,0.09l0.014,0.006l0.014,0.031  l0.03-0.025l0.03-0.051l0.014-0.041l-0.003-0.043l-0.012-0.027l-0.026-0.012l-0.047,0.007l0.063-0.065l0.032-0.045l0.013-0.053  l0.002-0.087l0.017-0.031l0.037-0.001l0.037,0.021l0.017,0.033l0.001,0.039l0.005,0.029l0.013,0.027l0.024,0.043l-0.096,0.035  l-0.033,0.008v0.023l0.116-0.024l0.111-0.009l0.11,0.01l0.224,0.05l0.052,0.021l0.098,0.061l0.046,0.007l0.017-0.015l-0.04-0.033  l0.079-0.005l0.184,0.067l0.063-0.021l0.015,0.063l-0.04,0.027l-0.158,0.021l-0.028-0.004l-0.02,0.006l-0.016,0.063l-0.018,0.016  L24.611,36.8l-0.018-0.03l-0.02,0.039l0.009,0.036l0.03,0.024l0.045,0.006l-0.04,0.076l0.007,0.047l0.056,0.023l0.106,0.006  l-0.017,0.033l-0.031,0.01L24.7,37.075l-0.042,0.018l-0.018,0.024l-0.027,0.104l0.023-0.037l0.044-0.021l0.037,0.01l0.007,0.051  l-0.034,0.041l-0.064,0.012l-0.068-0.01l-0.05-0.021l0.026,0.149l0.12,0.239l0.041,0.247L24.754,38l0.014,0.076l-0.001,0.08  l0.012,0.023l0.032,0.016l0.032-0.004l0.038-0.019l0.059-0.045l0.024,0.026l0.015,0.012l0.044,0.016v0.021l-0.012,0.022  l-0.007,0.014l0.026,0.041l0.082,0.089l-0.04,0.038l-0.054-0.004l-0.061-0.008l-0.061,0.017l0.05,0.021l0.112,0.025l0.053,0.018  l0.147,0.092l0.081,0.072l0.114,0.129l0.049,0.08l0.058,0.008l0.071-0.002l0.064,0.01l0.126,0.059l0.064,0.021l0.146,0.014  l0.071,0.016l0.134,0.043l0.061,0.037l0.041,0.012l0.037-0.018l0.018-0.018l0.022-0.019L26.44,39l0.023-0.005l0.055,0.003  l0.054,0.01l0.051,0.02l0.043,0.033l0.075,0.106l0.143,0.392l-0.065-0.043l-0.089-0.125l-0.063-0.029l0.025,0.06l0.104,0.103  l0.023,0.045l0.01,0.048l0.045,0.097l0.01,0.073l0.024,0.096L26.969,40l0.079,0.111l0.147,0.146l0.078,0.058l0.093,0.035l0.026,0.02  l0.076,0.04l0.07-0.032l0.063-0.055l0.05-0.029l0.433,0.064l0.006-0.01l-0.02-0.021l-0.036-0.016l-0.047,0.004l0.011-0.013  l0.007-0.011l0.009-0.01l0.018-0.012v-0.02l-0.059-0.018l-0.058-0.012l-0.026-0.023l0.033-0.057l0.054-0.033l0.052,0.004  l0.031,0.035l-0.006,0.059l0.039-0.01h0.032l0.047,0.01l-0.003,0.01l0.038,0.02l0.045,0.017h0.018l0.026,0.058l-0.034,0.012h-0.052  l-0.027,0.025l0.018,0.01l0.111,0.024l0.035,0.022l0.073,0.086l0.322,0.281l0.07,0.076l0.052,0.108l0.034,0.124l0.019,0.123  l-0.045,0.223l0.012,0.046l0.029-0.003l0.09-0.093l0.032-0.004l0.035,0.006l0.063,0.019l-0.009-0.021l-0.011-0.018L29.1,41.342  l-0.014-0.011l0.088,0.045l0.055,0.103l0.073,0.136l0.088-0.005l0.017,0.043l-0.021,0.017l-0.035,0.009l-0.024,0.021l0.003,0.042  l0.044,0.074L29.37,41.85l-0.045-0.007l-0.147-0.12l-0.066-0.024v-0.021l0.039-0.025l0.024-0.049l0.002-0.05l0.001-0.013  l-0.025-0.061l-0.038-0.021l-0.065-0.018l-0.063-0.002l-0.027,0.03l-0.005,0.169l-0.014,0.055l-0.001,0.004l-0.096,0.164  l-0.02,0.097l-0.015,0.038l-0.024,0.023l-0.032-0.01l-0.016-0.029l0.007-0.035l0.013-0.033l0.008-0.031l-0.003-0.068l0.013-0.043  l0.001-0.002l0.011-0.022l0.017-0.022l0.019-0.023l0.021-0.018l0.035-0.067l-0.012-0.039l-0.023-0.007l-0.013,0.033l-0.011,0.051  l-0.06,0.105l-0.014,0.021l-0.116,0.195L28.59,42.1l-0.053,0.065l-0.118,0.117l-0.115,0.175l-0.014,0.05l-0.006,0.14l0.005,0.06  l0.021,0.069l0.026,0.05l0.011,0.028l0.004,0.043L28.35,42.96l0.025-0.012l0.032,0.006l0.006,0.022l-0.018,0.026l-0.032,0.013  L28.353,43l-0.004-0.035V42.96l-0.006,0.003l-0.016,0.027l-0.036,0.121l-0.012,0.063l0.018,0.056l0.065,0.021l0.025,0.031  l0.008,0.07l-0.005,0.08l-0.017,0.058l0.034,0.046l0.012-0.021l0.002-0.184l0.019-0.04l0.036-0.017l0.059-0.004l0.05,0.014  l0.069,0.033l0.06,0.039l0.026,0.035l0.004,0.01l0.008,0.006l0.008,0.009l0.004,0.019l-0.005,0.018l-0.029,0.023l-0.009,0.016  l-0.003,0.054l0.003,0.054l-0.091-0.027l-0.094-0.002l-0.089,0.023l-0.073,0.047l0.115,0.028l0.35-0.007l0.112,0.033l0.082,0.078  l0.068,0.086l0.074,0.063l0.012-0.063l-0.053-0.066l-0.216-0.167L28.895,43.6l-0.019-0.035l-0.008-0.035l0.013-0.014l0.081,0.053  l0.099,0.043L29.1,43.62l0.03,0.014l0.021,0.031l0.025,0.063l0.037,0.074l0.042,0.036l0.055-0.004l0.081-0.042l0.082,0.023  l0.064-0.045l0.102-0.143l0.063-0.043l0.152-0.044l0.077-0.031l0.05-0.043l0.047-0.1l0.045-0.063l0.069-0.127l0.037-0.037  l0.031,0.047l-0.017,0.065l-0.125,0.103l-0.031,0.062l0.008,0.103l-0.009,0.021l-0.015,0.001l-0.017,0.009l-0.01,0.009l-0.009,0.021  l0.005,0.013l0.01,0.01l-0.003,0.019l-0.032,0.044l-0.168,0.152l-0.025,0.006l-0.012,0.013l-0.003,0.017l0.006,0.037l-0.003,0.014  l-0.022,0.041l-0.006,0.02l-0.009,0.001l-0.03-0.016l-0.017-0.063l-0.023-0.028l-0.033,0.014l-0.025,0.002l-0.106-0.037l-0.04,0.014  l-0.021,0.032l-0.015,0.037l-0.02,0.029l-0.02,0.013l-0.068,0.028l0.157,0.161l0.1,0.063l0.09-0.007l-0.04-0.047l0.01-0.034  l0.044-0.021l0.157-0.013l0.024,0.007l0.021,0.022l-0.009,0.017l-0.021,0.01l-0.015-0.004l0.032,0.045l0.037,0.022l0.044-0.004  l0.05-0.033l0.023-0.021l0.015-0.018l0.01-0.021l0.006-0.036l-0.002-0.036l-0.014-0.021L30.007,44l-0.01-0.033v-0.055l0.021-0.01  l0.04,0.012l0.057,0.01l0.016-0.004l0.03-0.016l0.019-0.002l0.018,0.007l0.008,0.015l0.003,0.016l0.004,0.009l0.11,0.041l0.03-0.005  l0.026-0.012l0.02,0.004l0.007,0.045l-0.002,0.148l-0.008,0.044l-0.031,0.101l0.025-0.01l0.037-0.027l0.014-0.006l0.027,0.006  l0.005,0.02l-0.002,0.023l0.014,0.025l0.037,0.055l-0.028,0.021l-0.129,0.002l0.044,0.056l0.079-0.006l0.169-0.05l0.095,0.021  l0.123,0.096l0.076,0.033l-0.23-0.063L30.59,44.5l-0.073,0.05l0.111-0.001l0.133,0.016l0.128,0.033l0.188,0.111l0.327,0.121  l0.049,0.027l0.051,0.035l0.044,0.049l0.028,0.063v0.051l-0.014,0.139l0.004,0.029l0.042-0.054l0.077-0.339l0.027,0.023l0.074,0.031  l0.028,0.032l0.01,0.041v0.091l0.01,0.043L31.8,45.077l-0.073-0.045l-0.022-0.007L31.7,45.047l0.014,0.098l0.058,0.026l0.088,0.013  l0.082-0.004l0.042-0.022l0.044,0.017l0.033-0.015l0.032-0.021l0.043-0.005l0.019,0.021l0.068,0.111l0.056,0.057l0.035,0.021  l0.04,0.008l0.039-0.008l0.023-0.014l0.003-0.02l-0.024-0.024l0.052,0.004l0.04,0.021l0.326,0.271l0.005,0.033l-0.009,0.036  l-0.026,0.023l-0.105-0.042l-0.134-0.014l-0.052-0.023l-0.063-0.062l-0.023-0.031l-0.012-0.012l-0.013,0.008l-0.026,0.021  l-0.011,0.015l-0.031,0.056l-0.003,0.02l0.031,0.02l0.036-0.009l0.03-0.001l0.012,0.045l0.003,0.066l-0.009,0.022l-0.027,0.009  l-0.017-0.006l-0.06-0.037L32.3,45.723l-0.017,0.01l-0.019,0.008l-0.019-0.002l-0.01-0.018l-0.036-0.09l-0.193-0.206l-0.022-0.052  l-0.056-0.031l-0.071-0.015l-0.068,0.001l0.019,0.036l0.03,0.021l0.062,0.027l0.111,0.087l0.074,0.088l0.248,0.459l0.099,0.121  l0.115,0.066l0.016-0.008l0.007-0.022l0.009-0.015l0.024,0.013l0.015,0.016l0.013,0.011l0.016,0.006l0.021,0.002l0.019-0.014  l0.009-0.035l0.008-0.108l0.02-0.103l0.001-0.039l-0.005-0.02L32.712,45.9l-0.041-0.168l0.002-0.061l0.039,0.01l0.126,0.098  l0.035,0.045l-0.046,0.082l-0.014,0.039l-0.005,0.051l0.02,0.111l-0.004,0.051l-0.039,0.033l0.038,0.025l0.043,0.045l0.035,0.057  l0.015,0.058l-0.022,0.067l-0.051-0.004l-0.051-0.031l-0.024-0.022l-0.056-0.03l-0.029-0.011l-0.034-0.004l-0.012,0.011l0.005,0.022  l0.014,0.021l0.014,0.011l0.035,0.019l0.034,0.046l0.029,0.058l0.018,0.054l0.015,0.114l0.012,0.05l0.03,0.042l0.273,0.223  l0.235,0.135l0.086,0.021l-0.04-0.049l-0.134-0.071l-0.053-0.04l-0.098-0.098l-0.048-0.032l-0.024-0.023l-0.014-0.031l0.075,0.013  l0.075,0.034l0.069,0.049l0.06,0.057l0.048-0.025l0.039,0.011l0.131,0.123l0.021,0.011l0.046,0.018l0.02,0.016l0.011,0.021  l0.004,0.043l0.007,0.021l0.019,0.026l0.063,0.047l0.023,0.011l0.023,0.004l0.024-0.007l0.062-0.036l0.063,0.039l0.047,0.06  l0.057,0.037l0.095-0.029l0.032-0.022l0.083-0.075l0.014-0.029l-0.023-0.021l-0.085,0.03l-0.044-0.01l0.028-0.037l0.042-0.023  l0.05-0.009l0.054,0.005l0.054,0.021l0.032,0.033l0.118,0.248l0.014,0.043l-0.002,0.061l-0.021,0.031l-0.032,0.024l-0.032,0.036  l0.01,0.002l0.022-0.002h0.011l-0.004,0.014L34.417,47.7l-0.005,0.01l-0.103-0.069l-0.06-0.024l-0.012,0.03l0.047,0.026l0.094,0.054  l0.033,0.026l-0.053-0.024l-0.035-0.021l-0.048-0.021l-0.438-0.258L33.8,47.415l-0.248-0.126l-0.008-0.005v-0.036l-0.003-0.018  l-0.009-0.014l-0.021-0.02l-0.025-0.016h-0.021l-0.01,0.034l0.023,0.058l0.055,0.053l0.731,0.413l0.196,0.167l0.118,0.078  l0.124,0.051l0.036,0.035l0.012,0.076l0.035,0.033l0.204,0.127l0.452,0.283l0.167,0.148l0.039,0.022l0.062,0.021l0.154,0.108  l0.422,0.422l0.091,0.152l0.039,0.137l0.052,0.062l0.057,0.057l0.042,0.058l0.029,0.147l0.034,0.064l0.135,0.043l0.057,0.038  l0.092,0.094l0.069,0.1l0.047,0.053l0.083,0.039l0.024,0.037l0.034,0.075l0.017,0.021l0.014,0.016l0.129,0.106l0.059,0.037  l0.054,0.017l0.04,0.034l0.115,0.213l0.003,0.003l0.013,0.017l0.01,0.018l0.004,0.02l-0.039,0.024l0.008,0.021l0.051,0.041  l0.113,0.159l0.016,0.044l-0.006,0.117l0.006,0.025l0.033,0.017l0.029-0.013l0.031-0.021l0.038-0.008l0.055,0.026l0.295,0.316  l0.062,0.047l0.034,0.017l0.058,0.019l0.026,0.02l0.595,0.699l0.032-0.033l0.036-0.025l0.039-0.018l0.042-0.008L39.12,52.52  l0.007,0.021l0.015,0.016l0.014,0.01l0.006,0.011l0.021,0.019l0.132,0.077l0.055,0.05l0.139,0.168l0.256,0.234l0.104,0.15  l0.029,0.177h0.021l0.028-0.036l0.03,0.016l0.027,0.041l0.022,0.045l-0.023,0.015l-0.027,0.018l0.039,0.099l0.117,0.172l0.113,0.267  l0.02,0.101l-0.043,0.946l0.016,0.065l0.037,0.06l0.271,0.312l0.311,0.582l0.055,0.181l0.03,0.056l0.046,0.035l0.065,0.014  l0.229,0.108l0.119,0.083l0.052,0.02l0.147,0.017l0.038,0.028l0.018,0.049l0.014,0.063l0.029,0.062l0.005,0.032l-0.041,0.025  l-0.068,0.086l-0.034,0.061l-0.012,0.066l0.028,0.262l0.002,0.453l-0.031,0.131l-0.008,0.065l-0.007,0.019l-0.037,0.061l-0.02,0.02  l-0.023,0.011l-0.054,0.005l-0.033,0.007L41.31,58.2l-0.028,0.042l-0.022,0.046l-0.035,0.044l-0.147,0.124l-0.185,0.203  l-0.022,0.038l-0.003,0.035l-0.009,0.041l-0.014,0.037l-0.019,0.026l-0.038,0.024l-0.033,0.003l-0.029-0.007h-0.029l-0.03,0.019  l-0.068,0.058l-0.02,0.012l-0.009,0.013l0.028,0.021l0.037,0.008l0.019-0.029l0.259,0.1h0.073l0.106-0.035l0.05-0.008l0.083,0.008  l0.049,0.022l0.165,0.207l0.056,0.069l0.046,0.099v0.132l-0.021,0.061l-0.038,0.041l-0.048,0.022l-0.057,0.007L41.328,59.7  l-0.113,0.099l-0.063,0.033l-0.22,0.021l-0.053,0.029l-0.046,0.012l-0.225-0.022L40.47,59.91l-0.339,0.201l0.01,0.048l0.004,0.071  l0.011,0.067l0.065,0.06l0.082,0.145l0.063,0.086l0.05,0.086l0.028,0.024l0.055,0.032l0.024,0.028l0.019,0.054l0.024,0.207v0.141  l0.007,0.033l0.029,0.061l0.007,0.034l0.019,0.06l0.187,0.258l0.079,0.139l0.041,0.055l0.092,0.076l0.035,0.04l0.021,0.058  l0.094,0.094l0.169,0.271l0.149,0.165l0.193,0.162l0.06,0.039l0.06,0.057l0.028,0.006l0.04-0.012l0.036-0.002l0.103,0.256  l0.017,0.021l0.021,0.02l0.019,0.024l0.009,0.032l-0.016,0.06l0.001,0.026l0.097,0.039l0.033,0.064l0.037,0.146l0.074,0.084  l0.112,0.074l0.244,0.123l0.024-0.027l0.021-0.006l0.021,0.006l0.03,0.005l0.024-0.007l0.051-0.028l0.031-0.006l0.046,0.016  l0.007,0.036L42.9,63.795l-0.006,0.084l0.022,0.016l0.068-0.002l0.086-0.021l0.021-0.002l0.033,0.011l0.006,0.016l0.004,0.019  l0.023,0.021l0.037,0.008l0.035-0.004l0.025,0.01l0.01,0.043l0.016,0.033l0.035,0.021l0.116,0.056l0.138,0.029l0.278,0.063  l0.056,0.035l0.053,0.043l0.046,0.012l0.106-0.022l0.018,0.009l0.015,0.021l0.018,0.016l0.023-0.013l0.044-0.043l0.035-0.012  l0.024,0.021l0.018,0.029l0.012,0.016l0.077,0.006l0.028,0.018v0.04l-0.02,0.153l0.016,0.045l0.051,0.019l0.034,0.007l0.063,0.029  l0.102,0.021l0.178,0.082l0.309,0.104l0.335,0.125l0.066,0.033l0.027,0.041l0.648,0.563l0.116,0.103l0.079,0.119l-0.066,0.069v0.021  l0.039,0.024l0.133,0.062l0.022,0.022l0.011,0.021l0.014,0.016l0.063,0.015l0.025,0.018l0.113,0.123l0.253,0.441l0.077,0.086  l0.148,0.047l0.131,0.061l0.04,0.026l0.049,0.026l0.123,0.012l0.053,0.017l0.186,0.054l0.032,0.021l0.248,0.074l0.055,0.008  l0.099,0.029l0.121,0.017l0.122,0.048l0.158,0.033l0.3,0.168l0.433,0.174l0.16,0.032l0.378,0.032l0.178,0.058l0.132,0.019  l0.166,0.076l0.541,0.131l0.063,0.027l0.113,0.064l0.072,0.015l0.008-0.001l0.063-0.005l0.044-0.017l0.067-0.063l0.118-0.088  l0.122-0.041h0.125l0.135,0.041l0.226,0.129l0.044,0.014l0.183,0.094l0.084,0.084l0.048,0.063l0.041,0.122l0.051,0.059l0.123,0.104  l0.27,0.343l0.12,0.092l0.06,0.01l0.137-0.018l0.055,0.018l0.146,0.127l0.035,0.055v0.031l-0.004,0.043l0.012,0.039l0.156,0.05  l0.053,0.038l0.345,0.148l0.362,0.202l0.149,0.101l0.095,0.097l0.049,0.085l-0.006,0.098l0.168,0.016l0.154,0.05l0.214,0.134  l0.167,0.032l0.172,0.058l0.153,0.028l0.245,0.118l0.249,0.055l0.797,0.3l0.446,0.205l0.063,0.017l0.209,0.006l0.066,0.017  l0.201,0.113l0.132,0.03l0.062,0.021l0.055,0.044l0.021,0.033l0.032,0.082l0.027,0.028l0.037,0.011l0.01-0.023l-0.012-0.079  l-0.012-0.021l0.004-0.016l0.044-0.004l0.023,0.004l0.024,0.016l0.021,0.019l0.008,0.017L58.5,71.422l0.003,0.018l0.009,0.008  l0.016,0.009l0.016,0.006l0.006-0.003l0.006,0.025l0.002,0.021l-0.015,0.02l-0.038,0.021l0.048,0.037l0.15,0.05l0.17,0.128  l0.073,0.034l0.095,0.031l0.104,0.021l0.072,0.021h0.152l0.105,0.037l0.035,0.006l0.524,0.029l0.069,0.014l0.067,0.027l0.104,0.062  l0.063,0.021l0.336,0.028l0.702,0.189l0.16,0.092l0.064,0.015l0.061,0.002l0.039-0.021l0.004-0.01l0.001-0.021l0.004-0.021  l0.013-0.017l0.016-0.002l0.031,0.021l0.02,0.005l0.139,0.007l0.104,0.062l0.306,0.385l0.188,0.15l0.095,0.122l0.022,0.029  l0.043,0.021l0.069,0.01l0.203,0.076l0.409,0.071l0.314,0.099l0.062,0.006l0.021-0.008l0.021-0.015l0.016-0.015v-0.008l0.018,0.009  l0.015,0.015l0.009,0.014l0.004,0.008l0.064,0.017l0.063,0.026l0.041-0.03l0.043,0.024l0.043,0.031l0.047-0.006l-0.043,0.042  l-0.098-0.011l-0.186-0.052l0.057,0.06l0.104,0.044l0.113,0.035l0.37,0.172l0.07,0.056l0.218,0.152l0.018-0.049l0.002-0.018  l0.037,0.076l0.008,0.032h-0.045l0.021,0.033l0.026,0.013l0.029,0.006l0.033,0.014l0.075,0.084l0.03,0.023l0.062,0.022l0.199,0.022  l0.104,0.034l0.034,0.007l0.031-0.008l0.063-0.027l0.035-0.006l1.353,0.147l0.142,0.035l0.123,0.051l0.872,0.489l0.127,0.015  l0.343,0.075l0.248,0.1l0.135,0.036l0.271,0.043l0.063-0.018l0.039-0.041l0.033-0.05l0.049-0.045l0.051,0.021l0.057,0.014  l0.346,0.03l0.101-0.01l0.212-0.062l0.295-0.156l0.203-0.082l0.205-0.12l0.109-0.048l0.157-0.045l0.046-0.029l0.059-0.026  l0.138-0.015l0.056-0.014l0.066-0.031l0.027-0.021l0.014-0.022l0.013-0.011l0.063-0.021l0.068-0.035l0.2-0.028l0.753-0.222l0.1-0.06  l-0.008-0.066l0.06-0.09l0.101-0.063l0.107-0.045l0.076-0.045l0.104-0.117l0.051-0.03l0.058-0.015l0.122-0.014l0.058-0.018  l-0.013-0.028l-0.008-0.031l0.004-0.028l0.017-0.019l0.035-0.004l0.028,0.017l0.026,0.02l0.027,0.011l0.251-0.042l0.033,0.004  l0.07,0.016l0.025,0.002l0.027-0.006l0.059-0.029l0.189-0.026l0.248,0.007l0.164,0.047l0.018-0.017l-0.048-0.071l-0.093-0.033  l-0.285,0.009l-0.106-0.03l0.091-0.008l0.135-0.031l0.098-0.044l-0.02-0.048l-0.024,0.006l-0.056,0.061l-0.029,0.022L74.2,73.257  l-0.511-0.026l-0.063-0.015l-0.004-0.03l0.036-0.054l0.021-0.018l0.037-0.007l0.025-0.019l-0.02-0.058h0.185l0.03-0.02l0.14-0.197  l0.062-0.056l0.072-0.036l0.084-0.015l0.035,0.015l0.044,0.03l0.04,0.036l0.021,0.025l0.015,0.047l0.003,0.033l0.014,0.035  l0.045,0.049l0.034,0.051l-0.026,0.033l-0.05,0.025l-0.034,0.03l-0.002,0.038l0.012,0.035l0.035,0.057l0.043-0.034l0.053-0.079  l0.045-0.017l0.088-0.043l-0.003-0.011l0.021-0.023l0.035-0.029l0.014-0.007l0.037-0.01l0.017-0.008l0.01-0.017l0.011-0.049  l0.021-0.011l0.023-0.005l0.025,0.005l0.025,0.022l0.051,0.026L75.113,73l0.033,0.033l-0.021,0.14l-0.121,0.082l-0.272,0.083  l-0.039,0.029l-0.014,0.037l0.021,0.029l0.067,0.012l0.129,0.007l0.064-0.007l0.055-0.021l0.051,0.028l0.084,0.012l0.168,0.002  h-0.021l0.294,0.008l0.149,0.028l0.107,0.062l0.045,0.033l0.889,0.353l0.311,0.122l-0.021-0.038l-0.047-0.026l-0.105-0.041  l-0.035-0.027L76.8,73.824l-0.079-0.061l-0.029-0.01l-0.068-0.023L76.4,73.684v-0.021h0.043v-0.022l-0.107-0.063l-0.049-0.021  l-0.033-0.007l-0.081,0.005l-0.06-0.013l-0.129-0.047l-0.082-0.004v0.02l0.238,0.087l-0.084,0.022l-0.168-0.069l-0.287-0.188  l0.043-0.004l0.026-0.016l0.001-0.017l-0.039-0.009l-0.025-0.01l-0.006-0.02l0.015-0.01l0.028,0.015h0.021l0.004-0.049l-0.013-0.058  l0.007-0.047l0.056-0.02l0.068,0.011l0.044,0.025l0.071,0.073l0.106,0.082l0.128,0.07l0.135,0.037l0.127-0.018l0.067-0.033  l0.063-0.021l0.046,0.019l0.018,0.089l0.019,0.043l0.043,0.047l0.062,0.049l0.031,0.024l0.099,0.05l0.377,0.079l0.078,0.035  l0.041,0.058l0.035,0.07l0.063,0.074l-0.035,0.039l-0.041,0.021l-0.033-0.003l-0.021-0.035l-0.035,0.011l-0.076-0.007l-0.038,0.019  l0.581,0.33l0.324,0.209l0.529,0.412l0.055,0.025l0.766,0.627l0.09,0.034l0.037,0.042l0.057,0.091l0.291,0.316l0.252,0.173  l0.047,0.089l0.062,0.037l0.129,0.053l0.188,0.146l0.054,0.007l-0.042-0.039l0.02-0.023l0.033,0.01l0.01,0.054l0.051-0.013  l0.066,0.015l0.065,0.026l0.043,0.025l0.038,0.055l0.025,0.131l0.033,0.063l-0.049-0.019l-0.034-0.047l-0.021-0.06l-0.006-0.058  l-0.027-0.027l-0.137-0.044l-0.051-0.028l-0.002,0.064l0.051,0.081l0.395,0.431l0.605,0.606l0.396,0.385l0.24,0.22l0.174,0.203  l0.015,0.014h0.002l0.116-0.075l0.069-0.188l0.045-0.083l0.021-0.039l0.012-0.049l-0.002-0.059L82.718,78l-0.002-0.021l0.005-0.047  l-0.003-0.023l-0.028-0.078l-0.008-0.025l-0.002-0.066l0.016-0.037l0,0l0.066-0.074v-0.001l0.034-0.094l-0.01-0.197l0.012-0.103  V77.23l0.037-0.035l0.039-0.012l0.041-0.004l0.041-0.018l0.032-0.037l0.013-0.027l0.05-0.111l-0.408-0.516l-0.023-0.051  l-0.001-0.061l0.021-0.055l0.059-0.099l0.152-0.257l0.322-0.536l0.145-0.243l0.25-0.416l0.218-0.363l0.153-0.257l0.059-0.098  l0.057-0.095l0.016-0.024l0,0l0.037-0.046l0.052-0.025H84.3l0.435-0.001h0.437l0.435-0.001l0.437-0.001l0.419-0.001h0.016h0.436  l0.436-0.001h0.435h0.282l0.063-0.008l0.059-0.021l0,0l0.012-0.018l0.021-0.044l0.011-0.026l-0.02,0.008l-0.008,0.002l-0.006,0.002  l-0.012,0.012H88.16l-0.012-0.055l0,0l0.076-0.062l-0.041-0.037v-0.02l0.068-0.027v-0.001l-0.021-0.031l-0.092-0.05l-0.012-0.06  l0.021-0.045l0.039-0.027l0.037-0.018l0,0L88.182,73.3l-0.031-0.024l-0.004-0.03l0,0l0.035-0.038l0.014,0.013l0.011,0.007  l0.041,0.004h-0.001l-0.012-0.017l-0.02-0.035L88.2,73.163l0,0l0.014,0.002l0.005-0.005v-0.01l0.004-0.008l0.019,0.013l0.026,0.008  l0.019-0.008v-0.033l-0.019,0.008l-0.047-0.017l-0.031-0.022V73.09l0.021-0.011l0.059-0.019l0.047-0.043l0,0l0.02-0.052l-0.027-0.04  h-0.021v0.022h-0.021l0.008-0.046l0,0l0.029-0.014l0.043,0.002l0.049,0.012l0,0l-0.037-0.059l-0.004-0.019v-0.041l-0.006-0.046  l-0.02-0.004l-0.03,0.015l-0.034,0.005l-0.021-0.009l-0.022-0.015l-0.031-0.015l-0.101-0.012l-0.008-0.019l0.004-0.026l-0.017-0.035  l-0.02-0.019l-0.029-0.021l-0.035-0.01l-0.075,0.034l-0.021-0.027l-0.015-0.066h-0.03l-0.082,0.023l-0.018,0.008l-0.02-0.01  l-0.043-0.01l-0.052-0.002l-0.039,0.012l0.017-0.03l0.029-0.022l0.021-0.023l-0.002-0.033l-0.036-0.021l-0.048-0.003l-0.027-0.012  l0.024-0.049l-0.012-0.051l0.021-0.054l0.01-0.046l-0.043-0.023l-0.009,0.021l-0.011,0.011l-0.018,0.005l-0.025,0.005v-0.021  l0.041-0.073l-0.043-0.113l-0.213-0.297l-0.045-0.035l-0.113-0.054l-0.047-0.038l0.011-0.037v-0.021L87.032,71.5l-0.029,0.023  h-0.038l-0.217-0.064l-0.059-0.033l-0.092-0.089l-0.064-0.03l0.006-0.007l0.044-0.046l-0.007-0.023l-0.043-0.008H86.48l-0.006,0.014  l0.012,0.029l0.004,0.027l0,0l-0.031,0.014l-0.016-0.009l-0.041-0.041l-0.019-0.015l-0.12-0.042l-0.037-0.032l-0.015-0.064  l-0.019-0.033l-0.11-0.129l-0.013-0.028l-0.016-0.06l-0.019-0.021l-0.033-0.006l-0.075,0.008l-0.031-0.013l-0.112-0.118  l-0.028-0.043l-0.014-0.032l-0.018-0.057l-0.013-0.021l-0.028-0.017l-0.064-0.017l-0.014-0.021L85.6,70.448l-0.019-0.058  l-0.026-0.05l-0.035-0.028l-0.086-0.004L85.35,70.32l-0.064-0.01l-0.025-0.076l-0.048-0.023l-0.098-0.021l-0.073-0.03l0.014-0.05  l0.019-0.004h0.006l1.384,0.01v-0.001l0.004-1.734v-0.001l0.024-0.025l0.065-0.018h0.137h0.691l0.693,0.001l0.693,0.001h0.692  l0.693,0.001l0.692,0.001h0.537h0.156l0.693,0.001l-0.004-0.274l0.023-0.125l0.026-0.035l0.041-0.057h0.001l0.262-0.092l0.066,0.021  l0.053,0.046l0.047,0.051l0.053,0.038l0.039,0.005l0.035-0.008l0.029,0.007l0.044,0.089l0.04,0.029l0.127,0.071l0.027-0.008v-0.002  l0.02-0.023l0.016-0.07l0.014-0.021l0,0l0.16-0.115l0.029-0.033v-0.001l0.047-0.123l0.015-0.028h0.001l0.045-0.037h0.001  l0.043-0.023l0.038-0.027l0,0l0.029-0.047l0.011-0.033l0.01-0.072l0.009-0.03l0.078-0.126l0.012-0.035l-0.012-0.045l-0.012-0.01  H93.7l0.069-0.049l0.02-0.015l0,0l0.093-0.042l0.037-0.027l0.031-0.047l0.013-0.049l0.006-0.049l0.012-0.054l0.031-0.052  l0.096-0.107l0.039-0.061l0.012-0.035l0.013-0.08l0.028-0.075l0.017-0.095l0.019-0.034l0.022-0.023l0.069-0.052l0.027-0.021  l0.031,0.006l0.029,0.015l0.033,0.009l0.027-0.004l0.063-0.021l0.035-0.016l0.021-0.007l0.018,0.007l0.029,0.027l0.023,0.014  l0.02-0.002l0.019-0.01l0.022-0.008l0.196-0.002l0.021,0.004v-0.008l0.014-0.012l0.014-0.006l0.038-0.007l0.026-0.058l0.068-0.099  L95.117,66l0.088-0.154l0.072-0.094l0.076-0.15l0.018-0.006l0.035-0.02l0.021-0.023l-0.03-0.016l-0.033,0.007l-0.031,0.024  l-0.025,0.029l-0.018,0.023l0.005-0.061l0.022-0.041l0.016-0.039l-0.02-0.056l-0.037,0.062l-0.055,0.063l-0.062,0.049l-0.063,0.023  l0.01-0.033l0.015-0.029l0.021-0.022l0.135-0.114l0.024-0.015l0.076-0.003l0.056-0.016l0.036-0.037l0.011-0.022l-0.019,0.063  l-0.009,0.056l0.021,0.022l0.028-0.019l0.024-0.045l0.017-0.054l0.007-0.045l0.025-0.086l0.063-0.091l0.078-0.08l0.072-0.058  l0.02,0.125l0.021,0.055l0.033,0.047l0.025,0.053l0.002,0.066l-0.017,0.131l-0.003,0.002l-0.01,0.012l-0.008,0.021l-0.004,0.021  l0.008,0.017l0.017,0.019l0.015,0.017l0.008,0.003l-0.008,0.039l-0.029,0.051l-0.008,0.027l-0.024,0.053l-0.05,0.061l-0.033,0.067  l0.021,0.07l-0.105,0.118l-0.006,0.021l-0.004,0.048l0.008,0.051l0.033,0.021l0.074,0.021l0.166,0.088l0.084,0.021l0.062,0.006  l0.03,0.019l0.016,0.033l0.013,0.051l-0.01,0.002l-0.015,0.023l-0.004,0.025l0.017,0.014l0.009,0.002l0.087,0.021l0.013,0.024v0.03  l-0.002,0.026l0.002,0.016l0.045,0.051l0.008,0.004l-0.01,0.051l-0.019,0.035l-0.011,0.029l0.02,0.037l0.018-0.02l0.019-0.028  l0.017-0.031l0.012-0.032v0.043l-0.01,0.082l-0.02,0.08l-0.025,0.035l-0.025,0.025l0.012,0.042l0.039,0.014l0.051-0.062l0.017,0.068  l0.006,0.084h0.022V66.93l0.01-0.049l0.043-0.099l0.01-0.048l0.018-0.047l0.151-0.213l0.026-0.072l0.016-0.221l0.018-0.051  l0.043-0.064L96.734,66l-0.016-0.141l0.016-0.137l0.043-0.115l0.063-0.096l0.074-0.085l0.058-0.09l0.113-0.386l0.063-0.413  l0.069-0.104l0.067-0.153l0.043-0.099l-0.025-0.072l0.038-0.06l0.036-0.168l0.033-0.077l0.082-0.115l0.051-0.049l0.063-0.028V63.59  l-0.063,0.004l-0.041,0.032l-0.031,0.041l-0.037,0.031l0.063-0.13l-0.148,0.012l-0.076,0.021l-0.032,0.043l-0.015,0.055  l-0.033,0.057l-0.082,0.096l-0.063,0.055l-0.032,0.001l-0.029-0.021l-0.059-0.015l-0.035-0.031l0.021-0.072l0.066-0.133  l-0.049-0.013l0.021-0.038l0.045-0.05l0.026-0.052h-0.021l-0.022,0.065h-0.021l0.036-0.123l0.118-0.102l0.146-0.071l0.11-0.029  l-0.019,0.043l-0.01,0.039l-0.023,0.03l-0.057,0.017l0.113-0.018L97.4,63.32l0.086-0.086l0.021-0.012l0.055-0.017l0.053-0.04  l0.046-0.057l0.034-0.061l0.029-0.208l0.022-0.03l0.011-0.031l-0.025-0.07l-0.062-0.113l-0.004,0.055l-0.022,0.078l0.006,0.021  v0.021l-0.194-0.023l-0.063,0.003l0.043,0.019l0.041,0.013l0.088,0.013h0.098l0.029-0.011V62.76l-0.02-0.033l0.046,0.01  l-0.003,0.059l-0.047,0.063l-0.083,0.021v-0.023l0.042-0.021l-0.014-0.003L97.6,62.826l-0.008-0.008l-0.012-0.008l-0.021,0.022  l-0.018-0.007l-0.021-0.018l-0.027,0.002l-0.012,0.015l-0.004,0.021l-0.008,0.021l-0.021,0.011l-0.02-0.004l-0.066-0.04  l-0.088-0.022l-0.043,0.021l-0.092,0.026l-0.035,0.021l-0.039,0.044l-0.033,0.046l-0.04,0.034l-0.062,0.005l0.014-0.056l0.01-0.092  l0.02-0.049l-0.037,0.004L96.9,62.813l-0.031-0.008l-0.021-0.013l-0.009-0.028l-0.09-0.056l-0.033-0.045l-0.008-0.052v-0.065  l0.01-0.063l0.021-0.037l0.032,0.005l0.17,0.001l0.031-0.006l0.02,0.039l-0.016,0.051l-0.031,0.041l-0.034,0.02l0.04,0.008  l0.027-0.035l0.037-0.104l0.058-0.098l0.032-0.09l0.057-0.108l0.064-0.087l0.049-0.005l0.022-0.045l0.022-0.009l0.025,0.016  l0.027,0.027l0.023,0.002l0.024-0.02l0.021-0.023l0.017-0.014l0.026-0.027l0.135-0.188l-0.032,0.018l-0.017,0.011l-0.016,0.016  l0.01-0.028l0.002-0.045l-0.012-0.102l-0.01-0.021l-0.027-0.026l-0.006-0.025l0.012-0.024l0.021-0.008l0.021,0.008l0.01,0.024  l0.006,0.052l0.014,0.029l0.057,0.049l-0.004,0.123l-0.006,0.039l-0.018,0.03L97.6,61.923l-0.021,0.022l-0.036,0.004l-0.01,0.016  l-0.004,0.034l0.01,0.13l0.018-0.04l0.043-0.14l0.021-0.018l0.021-0.007l0.018-0.014l0.025-0.113l0.004-0.032l-0.015-0.07  l-0.071-0.129l-0.023-0.069l-0.012-0.267l0.018-0.135l0.07-0.251l0.042-0.093l0.063-0.081l0.099-0.063l-0.018-0.026v-0.026  l0.02-0.022l0.041-0.009l0.037-0.104l0.375-0.522l0.172-0.172l0.134-0.078l0.049-0.047l0.174-0.102l0.034-0.036l0.064-0.104  l0.293-0.313L99.449,58.752z M99.668,56.667l0.009,0.035v0.022l0.021,0.036l0.011,0.06l0.013,0.02l-0.011-0.096l-0.011-0.049  l-0.01-0.035l-0.004-0.031l-0.019-0.012l0.003,0.017L99.668,56.667z"/></svg>