<svg xmlns="http://www.w3.org/2000/svg" xmlns:xlink="http://www.w3.org/1999/xlink" version="1.1" x="0px" y="0px" viewBox="-461 335 100 100" fill="#e0e0e0" style="enable-background:new -461 335 100 100;" xml:space="preserve"><polygon points="-371.9,403.7 -372.3,403.7 -372.5,403.9 -372.9,403.5 -373.9,402.6 -373.7,402.3 -374,401.8 -374.2,401.6   -374.3,401.4 -374.5,401.4 -374.8,401.6 -374.9,401.7 -375,401.6 -375.1,401.3 -375.1,401.2 -376.1,400.8 -376.4,400.4   -376.5,399.7 -376.1,399.6 -375.6,399.5 -375.4,398.8 -375.4,398.5 -375.7,397.8 -375.8,397.5 -375.8,397.1 -375.7,396.8   -375.6,396.4 -375.5,396.1 -375.3,394 -375.3,393.4 -375.4,393.2 -375.7,392.7 -375.8,392.5 -375.8,392.2 -375.8,391.4   -375.9,391.2 -376.1,391.1 -376.3,391.2 -376.5,391.3 -376.7,391.3 -376.9,391.1 -377,390.5 -377.1,390.3 -377.8,389.7   -378.4,389.7 -379.1,389.7 -379.8,389.6 -380.2,389.3 -380.7,388.4 -381.1,388.1 -381.5,387.9 -382.2,387.9 -382.6,387.7   -382.8,387.6 -383.1,387.2 -383.3,387 -383.9,387.1 -384,387.1 -384.2,386.7 -384.2,386.3 -384,385.8 -383.9,384.6 -383.6,384.2   -383.3,383.9 -383.2,383.4 -383.2,382.9 -383.4,382.5 -383.6,382.1 -383.9,381.9 -384.4,382 -384.6,382.3 -384.8,382.8 -385.1,383   -385.3,382.8 -385.9,381.4 -386,381.3 -386,381.1 -385.9,381 -385.3,381 -384.8,380.8 -384.5,380.4 -384.4,379.6 -384.6,377.9   -384.5,377.2 -384,376.9 -383.7,376.3 -383.7,375.5 -383.9,374.8 -384.2,374.2 -384.6,373.9 -385,373.7 -385.5,373.7 -385.9,373.7   -386.2,374.2 -386.3,374.8 -386.5,375.2 -386.9,375.5 -387.3,375.7 -387.7,375.6 -388,375.5 -388.3,375.2 -388.6,374.7   -388.7,374.2 -388.7,373.7 -388.8,373.2 -389.1,372.7 -389.4,372.6 -389.8,372.5 -390.1,372.3 -390.3,372 -390.4,371.6   -390.6,371.2 -391.3,370.8 -391.6,370.1 -392,369.9 -392.4,370.1 -392.6,370.4 -392.8,370.6 -393.2,370.3 -393.4,370 -393.8,369   -393.9,368.6 -394.2,367.2 -393.9,366.3 -393.4,365.6 -392.8,364.6 -392.6,363.3 -392.6,362.1 -392.5,361.1 -391.8,360.2   -391.5,359.8 -391.6,359.4 -391.9,359.1 -392.7,358.8 -392.9,358.6 -392.9,358.3 -392.7,357.7 -392.4,357.3 -392,356.8   -391.6,356.4 -391.6,355.9 -391.8,355.7 -392.7,355.4 -393,355.2 -393.2,354.7 -393.4,353.5 -393.5,353 -393.8,352.6 -394.1,352.3   -394.4,352.2 -394.8,352.2 -395.5,352.6 -396.5,353.9 -397.3,354.1 -398,353.8 -398.8,353.1 -399.5,352.3 -400.1,351.3 -400.5,351   -400.6,350.7 -400.6,350.5 -400.7,349.7 -401,348.8 -401.1,348.5 -401.1,348.3 -401.2,348.1 -401.3,347.8 -402,347.4 -402.8,347.2   -404.3,347.2 -406.4,346.4 -407.2,346.3 -407.7,346.6 -408.1,347.8 -408.3,348.5 -408.3,349.1 -408.3,349.4 -408.6,349.4   -409,349.1 -409.3,348.8 -410,347.5 -409.6,347 -409.6,346.5 -409.8,346.1 -410.1,345.8 -410.6,345.9 -410.9,346.3 -411.2,346.8   -411.5,347.2 -412,347.3 -412.3,347 -412.3,346.5 -412.2,346 -411.8,345.6 -411.5,345.4 -411.3,345.1 -411.1,344.4 -411.2,343.7   -411.4,343.4 -411.8,343.4 -412.8,343.5 -413.2,343.7 -413.6,344.1 -414.1,344.3 -414.6,344.5 -415,344.3 -415.2,343.9   -415.3,343.3 -415.4,342.7 -415.8,342.8 -416.5,343.4 -416.9,343.5 -417.4,343.4 -417.7,343.2 -417.2,341.8 -417.3,341.2   -417.7,340.8 -418.2,340.6 -420.2,340.3 -421.1,340 -421.6,339.2 -421.8,339 -422.5,338 -422.8,337.6 -424.3,336.5 -425,336.1   -427.9,336.2 -428.3,335.9 -428.4,335.1 -428.8,335 -429.4,335.4 -429.7,335.5 -430.6,335.5 -431.1,336.2 -432.5,337.3   -432.9,337.5 -433.2,337.4 -433.8,336.8 -434.3,336.7 -435.1,337.1 -436.5,338.8 -437.3,339.3 -438,339.3 -440.5,338.3   -440.9,338.1 -441.2,338 -441.4,338.1 -441.5,338.3 -441.4,338.6 -441.4,338.8 -441.4,339 -441.3,339.2 -441.3,339.3 -441.4,339.4   -441.7,339.4 -441.9,339.4 -442,339.3 -442.2,339.3 -442.4,339.5 -443.3,339.7 -444.1,339.2 -444.8,338.6 -445.6,338.2   -445.8,338.3 -445.9,338.5 -446,338.7 -446.2,338.9 -446.3,338.9 -446.7,338.8 -446.8,338.8 -447.1,339.1 -447,339.5 -446.9,339.9   -446.8,340.5 -446.8,341.2 -446.9,341.6 -447.1,341.8 -447.6,341.9 -448,341.7 -448.3,341.3 -448.5,340.9 -448.9,340.5   -449.3,340.4 -449.5,340.7 -449.6,341.1 -450.3,341.6 -450.6,342 -450.7,342.5 -450.7,342.8 -449.7,342.3 -449.1,342.3   -448.6,342.7 -448.4,342.8 -448.2,342.4 -447.9,342.9 -447.4,343 -446.5,342.8 -446.1,343 -445.6,343.7 -445.3,343.5 -444.4,344.5   -444.2,344.7 -444.1,345.3 -443.9,345.2 -443.7,344.8 -443.5,344.6 -443.2,344.9 -443.1,345.3 -442.9,345.6 -442.1,346   -442.1,346.2 -442.4,346.5 -442.8,346.5 -442.8,346.8 -442.2,347.2 -441.8,347.3 -441.5,347.1 -441.3,347.2 -441.1,347.4   -441,347.5 -441,347.7 -441.2,348.1 -441.3,348.2 -441.1,349.1 -440.7,349.7 -440.2,350.2 -439.6,350.5 -439.6,350.8 -440,351   -440,351.1 -440,351.2 -439.9,351.4 -439.9,351.4 -439.3,351.2 -439,351.6 -438.8,352.1 -438.5,351.9 -438.2,352.2 -438.2,352.5   -438.4,352.8 -438.6,353.1 -438.1,353.4 -438,353.5 -438,353.7 -438.4,354.3 -438.1,354.6 -437.6,354.8 -437.2,355.3 -437.2,355.5   -437.2,356.5 -437.2,356.7 -437,356.9 -436.7,356.9 -436.5,357.1 -436.3,357.4 -437.1,357.9 -436.8,358.1 -436.5,358.6   -436.2,359.1 -436.1,359.4 -436,359.6 -435.6,359.9 -435.5,360 -435.4,360.3 -435.5,360.7 -435.3,360.9 -435.3,361.1 -435.9,361.2   -435.7,362 -435.1,362.9 -433.7,364.8 -433,365.4 -432.3,365.7 -432.2,366.4 -432.1,366.6 -432.1,366.7 -432.1,367 -432,367.2   -431.9,367.2 -431.7,367.3 -431.6,367.3 -431.4,368.2 -431.3,368.7 -431.1,368.9 -430.9,368.9 -430.7,369 -430.7,369 -430.5,369.1   -429.9,369.1 -429.6,369.2 -429.3,369.4 -429,369.7 -428.8,370 -429,370.1 -429.1,370.4 -429.2,370.7 -429.2,371.1 -428.8,371.5   -429,372.5 -428.7,372.7 -428.4,372.9 -427.9,374.2 -427.6,374.7 -427.4,374.8 -426.8,374.9 -426.6,375.1 -426.4,375.2   -426.2,375.3 -425.6,375.5 -425.4,375.7 -425,376.5 -425,377 -424.8,377.4 -424.2,378.1 -423.9,379 -423.9,379.1 -423.8,379.3   -423.8,379.5 -423.8,379.7 -424,379.7 -423.8,380.1 -422.8,380.7 -422.8,380.9 -422.9,381.1 -422.9,381.2 -422.6,381.3   -422.4,381.4 -421.7,382.2 -421.1,382.6 -420.8,382.9 -420.8,383.4 -420.3,383.5 -419.8,383.8 -419.3,384.1 -418.8,383.8   -418.6,384.4 -417.9,385.3 -417.6,385.9 -417.1,387 -417.1,387.6 -417.3,388.1 -416.9,388.4 -416.9,388.7 -416.9,389.1   -416.6,389.5 -416.6,389.7 -416.7,390.4 -416.3,391.3 -415.4,392.9 -415.4,393.5 -414.1,396 -413.9,396.9 -413.9,397.4   -413.9,397.9 -414,398.2 -414.2,398.6 -414.3,399.1 -414.1,399.6 -414.3,399.7 -414.4,400 -414.4,401.2 -414.4,401.5 -414.1,402   -414,402.1 -413.9,402.1 -413.8,402.1 -413.8,402.4 -413.8,403.4 -413.8,403.7 -414,404 -414.3,404.1 -414.1,404.6 -414.2,404.8   -414.4,404.8 -414.6,405 -414.7,406 -414.8,406.1 -415.1,406.2 -415.2,406.4 -415,407.1 -415,407.5 -415,407.6 -415.3,408.3   -415.6,408.6 -415.8,408.7 -416.1,408.8 -416.3,408.9 -416.4,409.1 -416.3,409.6 -416.4,409.8 -416.6,409.9 -416.9,410   -416.8,410.3 -416.4,410.9 -416.3,411.1 -416.1,411.4 -416,411.7 -416.3,412.4 -416.4,413.2 -417,415 -417.2,415.1 -417.3,415.2   -417.3,415.4 -417.1,415.5 -417.1,415.7 -417.4,416.8 -417.4,417.1 -417.3,417.6 -416.8,419.2 -416.8,419.6 -416.7,419.8   -416.6,420 -416.5,420.2 -416.6,420.5 -416.6,420.7 -416.7,421 -416.6,421.2 -416.4,421.7 -416.4,421.8 -416.4,421.9 -416.7,422.2   -416.9,422.3 -416.8,423.3 -416.5,424.3 -416.1,425 -415.9,425.3 -415.7,428.6 -415.7,429.1 -415.6,429.5 -415.9,429.7   -416.7,429.7 -416.9,429.8 -417.3,430.1 -417.7,430.4 -418,430.8 -416.7,431.4 -416.2,431.8 -415.8,432.5 -415.8,432.7   -415.7,432.8 -415.7,432.9 -415.7,433.9 -415.5,434.3 -414.9,435 -415,434.7 -414.8,434.3 -414.6,434 -413.4,433.1 -411.8,433.2   -410.1,433.6 -408.7,433.7 -408.2,433.5 -408.1,433.1 -408.2,432 -408.3,432 -408.3,431.9 -408.1,431.6 -408,431.5 -407.4,431.2   -407.7,430.8 -407.8,430.3 -407.8,429.9 -407.9,429.4 -408.2,429.1 -408.6,428.9 -408.8,428.7 -408.6,428.3 -408.1,427.5   -407.8,427.2 -407.4,427 -406.8,426.8 -406.6,426.5 -406.8,425.9 -406.4,425.3 -404.9,425.2 -404.3,424.9 -404.3,424.6   -404.3,424.2 -404.3,423.9 -404.3,423.7 -404.2,423.6 -403.5,423.4 -403.1,423.2 -402.8,422.9 -402.7,422.5 -402.6,421.8   -402.7,421.3 -403,420.1 -403,419.6 -402.8,419.1 -402.4,418.9 -398.4,417.8 -397.9,417.6 -397.8,416.9 -398.2,415.5 -398.3,414.7   -398.1,414.2 -397.3,413.3 -396.8,412.5 -396.6,411.7 -396.7,411 -398,409.7 -398.4,409.2 -398.4,408.8 -398.2,408.3 -398.1,407.7   -398.1,407.2 -398.5,405.6 -398.7,404.4 -398.6,403.5 -398.1,402.8 -396.4,401.7 -395.2,401.2 -393.2,400.1 -392.7,400.1   -392.4,400.5 -392.2,401.2 -392.2,404 -392.2,404.4 -392.4,404.7 -392.6,405 -392.7,405.3 -392.7,405.7 -392.3,406 -391.8,405.7   -391,404.8 -390.7,404.7 -390.5,404.7 -390.4,404.7 -390.3,404.3 -390.3,404 -390.4,403.3 -390.3,402.9 -389.9,402.2 -389.6,402.3   -389,403.5 -388.6,404.1 -388.4,404.1 -387.4,402.6 -386.9,402.1 -386.5,401.8 -385.9,401.9 -385.8,402.1 -385.8,402.3   -385.8,402.6 -385.9,402.8 -386.1,403.1 -386.1,403.3 -386.1,403.6 -385.9,403.8 -385.6,403.9 -385,404 -384.7,404.1 -384.3,404.4   -384,405.1 -383.7,405.6 -383.4,405.8 -383,405.8 -382.6,405.6 -382.3,405.3 -382.1,404.8 -382.2,404 -382.1,403.8 -381.5,403.8   -381,403.6 -380.7,403.1 -380.7,402.2 -380.5,402.7 -379.3,403.9 -378.8,404.6 -378.7,404.9 -378.6,405.2 -378.6,405.8   -378.6,406.1 -378.1,406.6 -377.7,406.5 -376.8,405.8 -376.4,405.6 -376.1,405.5 -373.4,405.6 -372.4,405.5 -371.8,404.9   -371.3,403.9 -371.6,403.7 "/></svg>