<svg xmlns="http://www.w3.org/2000/svg" xmlns:xlink="http://www.w3.org/1999/xlink" version="1.1" x="0px" y="0px" viewBox="-461 335 100 100" fill="#e0e0e0" style="enable-background:new -461 335 100 100;" xml:space="preserve"><style type="text/css">
	.st0{fill-rule:evenodd;clip-rule:evenodd;}
</style><polygon class="st0" points="-372.4,344 -370.7,342.7 -371.1,341.9 -372.7,342.8 -373,341.4 -372.2,337.7 -373.6,335.7   -374.8,335.6 -376.4,335 -376.6,336.4 -375.9,337.4 -380.9,342.4 -382.9,342.3 -387.4,344.2 -388.4,344.2 -390,346.1 -390.5,346   -393.2,345.5 -394,346.5 -394.5,348.4 -395.8,349.5 -398.1,353.7 -399.3,354.5 -399.8,359.3 -400.7,361.6 -401,363.8 -402.7,365.8   -404,366.9 -405,368.9 -406.6,371.1 -407.8,372.6 -408.9,373.6 -410.8,375.5 -414.4,373 -416.7,374.6 -418.1,376.6 -419.9,379   -421.4,379.8 -424.4,382.4 -427,382.1 -427.3,382.6 -425.4,383.3 -430.6,388.1 -435,391.7 -441,396.2 -444.5,399.6 -443.8,401.3   -443.1,403.5 -442.1,404.9 -442.4,408.6 -443.2,408.9 -444.6,408.9 -445.8,409.1 -448.5,410.5 -451.7,416.6 -450.4,417.6   -443.6,422.3 -439.3,425.6 -434.7,429.2 -431.3,431.9 -431,432.3 -427.4,435 -416.1,425.4 -418.3,420.7 -418.5,420.5 -419.3,419.6   -423,419.8 -423.5,419.3 -425,419.3 -425.5,418.6 -425.7,416 -425.9,415.4 -427.9,415 -428,414.8 -426,412.8 -425.9,412.7   -424.9,412.7 -423.9,413 -422.9,414.2 -421.3,416.1 -419.3,415.1 -419.1,415.2 -418.7,415.3 -417.1,417.3 -416.3,417.9   -411.6,417.7 -406,413.6 -404.2,413.7 -402.9,412.7 -402.4,411.1 -401.2,409.8 -400.8,407.9 -400,405 -400.5,402.6 -401.5,401.7   -406.3,403 -406.4,403 -414,405.1 -415.2,403.3 -416,400.5 -417.1,395.3 -416.4,392.3 -416.4,392.2 -416.1,392.2 -405,389.5   -400.8,388.6 -396,386.7 -395.5,385.8 -392.7,374.4 -391.7,370.9 -391.5,370.1 -389.4,365.7 -388.9,360.5 -388.4,359 -386.8,356.9   -384.1,354.3 -381.8,353.6 -380.8,352.4 -379.3,351.3 -379,351.4 -377.6,353.9 -375.7,355.7 -374.1,356.4 -370.7,355 -370.3,353.7   "/></svg>