<svg xmlns="http://www.w3.org/2000/svg" xmlns:xlink="http://www.w3.org/1999/xlink" version="1.1" x="0px" y="0px" viewBox="-461 335 100 100" fill="#e0e0e0" style="enable-background:new -461 335 100 100;" xml:space="preserve"><polygon points="-361.5,386.7 -361.6,386.6 -361.6,386.6 -361.6,386.5 -361.5,386.4 -361.5,386.3 -361.5,386.2 -361.5,386.2   -361.5,386.2 -361.5,386.2 -361.6,386.2 -361.6,386.2 -361.6,386.1 -361.6,386.1 -361.6,386.1 -361.6,386 -361.6,386 -361.5,385.9   -361.6,385.9 -361.6,385.9 -361.7,385.9 -361.7,385.9 -361.7,385.9 -361.7,385.8 -361.7,385.8 -361.7,385.8 -361.8,385.7   -361.9,385.6 -361.9,385.5 -361.9,385.5 -362,385.5 -362,385.4 -362,385.2 -362,385.1 -362.1,384.9 -362.2,384.8 -362.4,384.5   -362.5,384.4 -362.7,384.4 -362.7,384.3 -362.8,384.3 -362.8,384.2 -362.8,384.1 -363.3,383.7 -363.4,383.7 -363.4,383.6   -363.3,383.5 -363.3,383.4 -363.4,383.4 -363.4,383.3 -363.5,383.3 -363.8,383.2 -363.9,383.2 -363.9,383.1 -363.9,383 -364,382.7   -364,382.6 -364.1,382.6 -364.1,382.5 -364.4,382.4 -365,382.1 -365.2,382 -365.5,381.4 -365.7,381.2 -365.9,381.1 -366.5,381   -366.6,381 -366.7,380.9 -366.8,380.9 -367,380.9 -367.2,380.9 -367.4,381 -367.5,381 -368,381 -368.1,381.1 -368.2,381.1   -368.8,382 -369,382.1 -369.1,382.2 -369.2,382.4 -369.4,382.6 -369.5,382.6 -370.2,381.9 -370.3,381.8 -370.5,381.8 -370.9,381.6   -371,381.6 -371.2,381.6 -372,381.8 -372.2,381.8 -372.8,381.7 -373,381.7 -373.3,381.9 -373.6,382.3 -373.8,382.5 -374,382.4   -374.8,381.5 -374.8,381.4 -374.9,381.3 -374.9,381.1 -375,380.5 -375,380.4 -375,380.4 -374.2,380 -374.2,379.9 -374.1,379.8   -374.2,378.9 -374.2,378.8 -374.2,378.7 -374.2,378.6 -373.5,377.6 -373.4,377.4 -373.4,377.3 -373.4,377.2 -373.4,377.1   -372.1,374.2 -372.1,374.1 -371.4,372.7 -371.5,372.5 -371.6,372.3 -371.8,372.2 -372.6,371.9 -372.9,371.8 -373.1,371.8   -373.4,371.9 -374.3,372.4 -374.4,372.4 -374.5,372.4 -374.8,372.4 -375,372.4 -375.2,372.4 -375.2,372.4 -375.4,372.4   -375.5,372.3 -376,372 -376.4,371.5 -376.5,371.4 -376.5,371.3 -376.6,371.2 -376.6,371.2 -377.4,370.7 -377.7,370.7 -378.2,370.8   -378.4,370.7 -378.7,370.6 -378.8,370.6 -379.1,370.6 -379.3,370.8 -379.5,371 -379.6,371 -379.7,371.1 -379.8,371.1 -380.2,371.5   -380.2,371.5 -380.3,371.5 -380.4,371.5 -380.5,371.5 -381,371.8 -381.1,371.9 -381.2,371.9 -381.4,372.1 -381.4,372.1   -381.5,372.2 -382.1,372.7 -382.2,372.8 -382.3,372.9 -382.5,373.3 -382.5,373.4 -382.5,373.5 -382.5,373.6 -382.6,373.7   -382.6,373.8 -382.8,373.8 -382.9,373.8 -382.9,373.8 -383,373.9 -383.2,374 -383.5,374.2 -383.6,374.2 -383.7,374.2 -383.8,374.2   -384,374.1 -384.4,374 -384.5,374 -385.8,374.6 -386.9,374.7 -387,374.7 -387.4,374.9 -387.4,374.9 -387.5,374.9 -387.6,374.9   -387.7,374.8 -387.8,374.8 -387.9,374.8 -387.9,374.9 -388,375 -388.1,375 -388.5,375.1 -389,375.5 -389.4,375.7 -389.7,375.9   -389.9,375.9 -390,375.9 -390.1,375.8 -390.4,375.6 -390.6,375.6 -390.7,375.6 -390.8,375.4 -390.9,375.4 -390.9,375.4   -390.9,375.5 -391,375.6 -391.2,375.7 -391.3,375.7 -391.4,375.7 -392.3,375.5 -392.5,375.4 -392.6,375.4 -392.7,375.3   -392.8,375.3 -393.5,375.3 -393.6,375.3 -393.6,375.3 -393.6,375.2 -393.6,375.1 -393.7,375.1 -393.7,375.1 -393.8,375.1   -393.9,375.1 -394,375 -394.1,375 -394.2,374.9 -394.6,374.9 -394.9,375 -395,375 -395.3,374.9 -395.5,374.9 -395.8,374.9   -396.3,375 -396.5,375 -396.7,374.8 -397.1,374.5 -397.3,374.3 -397.3,374.2 -397.4,374.1 -397.4,374.1 -397.4,374 -397.5,374   -397.8,374 -397.8,373.9 -398.1,373.8 -398.1,373.7 -398.1,373.6 -398.1,373.6 -398.1,373.5 -398.1,373.4 -398.3,373.4   -398.3,373.4 -398.4,373.4 -398.4,373.3 -398.3,373.2 -398.3,373.1 -398.3,373 -398.3,372.9 -398.4,372.6 -398.4,372.5   -398.3,372.5 -398.3,372.4 -398.3,372.3 -398.3,372.2 -398.3,372.2 -398.5,372.2 -398.6,372.1 -398.6,372.1 -398.7,372.1   -398.8,372.1 -398.9,372 -399,372 -400.1,372 -400.3,371.8 -400.4,371.8 -400.4,371.9 -400.5,371.9 -400.6,371.8 -400.7,371.8   -400.9,371.6 -400.9,371.6 -401,371.5 -401.1,371.5 -401.1,371.5 -401.1,371.3 -401.1,371.3 -401.1,371.3 -401.2,371.2   -401.2,371.1 -401.3,371 -401.3,370.9 -401.4,370.9 -401.9,370.5 -402,370.4 -402.3,370.3 -402.6,370.3 -403,370.3 -403.6,370.5   -403.6,370.5 -403.7,370.4 -403.8,370.3 -403.9,370.3 -404.1,370.3 -404.2,370.3 -404.2,370.2 -404.2,370.2 -404.2,370.1   -404.2,370.1 -404.4,370 -404.4,370 -404.6,370 -404.8,369.9 -404.9,369.9 -405,369.8 -405.4,369.9 -406.4,369.6 -406.5,369.6   -406.6,369.7 -407,370 -407.1,370 -407.1,370 -407.2,370 -407.6,370 -407.7,370 -407.8,370 -407.9,370.2 -408,370.2 -408.3,370.2   -408.4,370.2 -408.5,370.3 -408.6,370.4 -408.7,370.4 -409,370.4 -409.2,370.4 -409.3,370.5 -409.5,370.7 -409.6,370.8   -409.7,370.9 -409.8,371.1 -410.1,371.2 -410.3,371.2 -410.5,371.2 -410.9,371 -411.1,371 -411.5,371.2 -411.7,371.2 -411.9,371.1   -412.1,371 -412.2,370.9 -412.3,370.9 -412.6,371 -412.7,370.9 -412.8,370.8 -412.8,370.7 -412.9,370.5 -413.1,370.4 -413.6,370.5   -413.8,370.4 -413.9,370.4 -414.3,370.1 -414.7,370 -414.8,369.9 -415,369.5 -415.2,369.4 -415.5,369.3 -415.6,369.3 -415.7,369.2   -415.7,369.1 -415.8,368.9 -415.8,368.8 -415.7,368.7 -415.6,368.6 -415.6,368.5 -415.7,368.3 -415.9,368.2 -415.9,368.1   -416,367.9 -416,367.8 -415.9,367.7 -415.9,367.5 -415.9,367.4 -415.9,367.4 -415.9,367.3 -415.9,367.2 -415.9,367.2 -416,367   -416.1,366.8 -416.2,366.6 -416.2,366.5 -416.2,366.3 -416.1,366.2 -416.2,366.1 -416.2,366.1 -416.2,366 -416.2,366 -416.1,365.7   -416,365.6 -416,365.6 -416.3,365.4 -416.4,365.3 -416.5,365.3 -416.7,365.3 -416.7,365.2 -416.9,365.1 -416.9,365.1 -417.2,365.1   -417.2,365.1 -417.4,365 -417.5,364.9 -417.5,364.9 -417.7,365 -417.9,364.9 -418.1,364.8 -418.2,364.8 -418.5,364.9 -418.6,364.9   -418.7,364.9 -418.8,364.7 -418.9,364.6 -419.1,364.6 -419.2,364.6 -419.3,364.6 -419.5,364.5 -420.8,363.8 -421,363.7   -421.2,363.6 -422.1,363.6 -422.5,363.6 -422.7,363.6 -423,363.5 -423.2,363.3 -423.4,363.1 -423.7,362.9 -423.8,362.8   -424.1,362.8 -424.8,362.6 -424.9,362.6 -425,362.5 -425.1,362.4 -425.1,362.3 -425.2,362.2 -425.8,362.1 -425.9,362 -425.9,361.9   -426,361.7 -426.1,361.6 -426.2,361.6 -426.3,361.8 -426.3,361.8 -426.3,362 -426.3,362.1 -426.3,362.2 -426.5,362.3 -426.5,362.4   -426.5,362.6 -426.7,363 -426.8,363.2 -426.9,363.3 -427,363.3 -427.6,363.5 -427.9,363.7 -428.1,364 -428.1,364.1 -428.2,364.2   -428.2,364.3 -428.2,364.4 -428.2,364.6 -428.2,364.7 -428.2,364.8 -428.5,364.8 -428.6,364.8 -428.7,364.9 -428.8,364.9   -428.8,364.9 -428.9,365 -429,365.3 -429,365.4 -429.1,365.5 -429.2,365.6 -429.2,365.7 -429.2,365.7 -429.1,365.9 -429.1,366   -429.1,366.1 -429.2,366.3 -429.2,366.4 -429.3,366.5 -429.3,366.7 -429.5,367.1 -429.5,367.3 -429.4,367.4 -429.3,367.5   -429.2,367.6 -429.1,367.7 -429.1,367.7 -429.1,367.8 -429,367.8 -428.9,367.9 -429.1,368.1 -429.1,368.2 -429,368.4 -428.8,368.8   -428.8,368.9 -428.7,369 -428.5,369.2 -428.4,369.2 -428.2,369.2 -428.1,369.3 -428.1,369.3 -428,369.4 -428,369.5 -428,369.5   -428,369.7 -428.1,370 -428.1,370.1 -428.1,370.3 -428.1,370.4 -428.1,370.4 -428.1,370.5 -428.6,371.6 -428.8,371.7 -429.2,372   -429.3,372.1 -429.4,372.2 -429.4,372.2 -429.5,372.2 -429.6,372.1 -429.7,372 -429.7,372 -430,372.2 -430.3,372.2 -430.3,372.3   -430.2,372.3 -430.2,372.4 -430.2,372.6 -430.3,372.7 -430.5,372.8 -430.8,373 -430.9,373.1 -431.1,373.1 -431.2,373.1   -431.4,373.1 -431.5,373 -431.6,372.9 -431.6,372.8 -431.7,372.8 -431.8,372.7 -431.9,372.7 -432,372.5 -432.1,372.4 -432.9,372.3   -433,372.3 -433.1,372.4 -433.2,372.5 -433.3,372.5 -433.3,372.5 -433.4,372.4 -433.4,372.3 -433.5,372.2 -433.5,372.2   -433.6,372.2 -433.7,372.3 -433.8,372.4 -433.9,372.4 -434,372.4 -434.1,372.3 -434.2,372.2 -434.3,372.1 -434.8,371.9   -434.8,371.9 -434.8,371.9 -434.9,371.9 -434.9,371.9 -434.9,371.9 -435,371.9 -435,371.9 -435.1,372 -435.1,372 -435.2,372.1   -435.2,372.1 -435.3,372.1 -435.4,372 -435.4,371.9 -435.4,371.9 -435.5,371.8 -435.6,371.8 -435.7,371.8 -435.8,371.9 -435.9,372   -436.1,372.1 -436.4,372.1 -436.4,372.2 -436.5,372.3 -436.5,372.4 -436.6,372.4 -436.7,372.4 -436.7,372.3 -436.8,372.3   -436.9,372.1 -437.1,372.1 -437.9,372.1 -438.1,372 -438.1,372 -438.1,371.9 -438.2,371.7 -438.3,371.7 -438.4,371.6 -438.9,371.7   -439.2,371.8 -439.3,371.8 -439.4,371.8 -439.4,371.7 -439.5,371.6 -439.5,371.5 -439.6,371.4 -439.7,371.3 -439.7,371.3   -439.7,371.2 -439.7,371.1 -439.8,371.1 -440,371 -440.1,370.9 -440.1,370.8 -440.2,370.7 -440.2,370.4 -440.2,370 -440.2,369.8   -440.4,369.5 -440.4,369.4 -440.4,369.3 -440.4,369.2 -440.5,369.2 -442.7,369.1 -443,369 -443.7,369 -443.9,369 -444,369   -444.2,369 -444.2,368.9 -444.3,368.9 -444.3,368.9 -444.3,368.8 -444.4,368.6 -444.4,368.3 -444.4,368.2 -444.5,368.1   -444.7,368.1 -444.9,368.1 -445,368.2 -445.1,368.3 -445.1,368.4 -445.1,368.5 -445.2,368.6 -445.2,368.6 -445.3,368.7   -445.4,368.7 -445.5,368.6 -445.7,368.3 -445.8,368.3 -445.9,368.2 -446,368.1 -446.1,368 -446.1,367.8 -446.2,367.8 -446.3,367.7   -446.3,367.8 -446.4,367.8 -446.4,367.9 -446.5,367.9 -446.5,368 -446.5,368.1 -446.6,368.5 -446.9,368.6 -447.2,368.6   -447.7,368.5 -447.9,368.5 -448.1,368.6 -448.4,368.8 -448.4,368.8 -448.6,369.1 -448.7,369.2 -449,369.3 -449.1,369.4   -449.1,369.5 -449.1,369.6 -449.2,369.7 -449.3,369.7 -449.5,369.7 -449.7,369.7 -450,369.8 -450.1,369.8 -450.4,369.9   -450.5,369.9 -450.6,370 -450.8,370.3 -450.9,370.3 -451.2,370.4 -451.3,370.5 -451.3,370.5 -451.3,370.7 -451.3,370.7   -451.4,370.8 -451.4,370.8 -451.5,370.9 -451.5,370.9 -451.7,370.9 -451.9,370.8 -452.1,370.8 -452.2,371 -452.3,371 -452.4,371   -452.5,371 -452.8,371.3 -453,371.4 -453.4,371.5 -453.5,371.5 -453.5,371.6 -453.5,371.7 -453.5,371.9 -453.6,372 -453.8,372.1   -453.9,372.1 -454.4,372.1 -454.6,372.2 -454.7,372.3 -454.7,372.4 -454.7,372.5 -454.7,372.6 -454.7,372.6 -454.6,372.7   -454.6,372.7 -454.6,372.8 -454.7,372.8 -454.7,372.8 -454.6,372.9 -454.5,373 -454.5,373 -454.4,373.1 -454.4,373.2 -454.5,373.2   -454.7,373.3 -455,373.4 -455.1,373.5 -455.3,373.5 -455.3,373.6 -455.4,373.7 -455.5,373.8 -455.6,373.8 -455.7,373.8   -455.8,373.6 -455.9,373.6 -456,373.6 -456.1,373.7 -456,373.9 -455.9,374 -456,374.1 -456.1,374.2 -456.6,374.4 -456.7,374.4   -456.7,374.4 -456.7,374.3 -456.8,374.3 -456.8,374.2 -456.8,374.1 -456.9,374.1 -456.9,374 -456.9,374 -457,374 -457,374.1   -457.1,374.1 -457.1,374.3 -457,374.5 -457,374.5 -457.5,374.4 -457.5,374.4 -457.6,374.4 -457.7,374.3 -457.7,374.2 -457.8,374.2   -457.8,374.2 -457.8,374.2 -458,374.3 -458,374.3 -458.2,374.4 -458.3,374.3 -458.4,374.3 -458.5,374.3 -459.1,374.4 -459.1,374.4   -459.2,374.5 -459.2,374.7 -459.3,374.7 -459.3,374.8 -459.3,375 -459.2,375.1 -459.2,375.2 -459.4,375.4 -459.6,375.5   -459.7,375.6 -459.8,375.7 -459.8,375.7 -460.1,375.8 -460.2,375.8 -460.3,375.7 -460.2,375.8 -460.2,375.9 -460.2,376   -460.2,376.1 -460.2,376.2 -460.3,376.3 -460.2,376.4 -460.2,376.4 -460.1,376.4 -460.1,376.5 -460.1,376.6 -460.2,376.7   -460.4,376.9 -460.5,376.9 -460.5,377 -460.5,377.1 -460.4,377.1 -460.4,377.2 -460.3,377.2 -460.3,377.2 -460.3,377.3   -460.3,377.4 -460.3,377.4 -460.2,377.5 -460.2,377.5 -460,377.6 -459.8,377.6 -459.8,377.6 -459.6,377.7 -459.5,377.8   -459.5,377.9 -459.5,378 -459.7,378.1 -459.7,378.1 -459.7,378.2 -459.7,378.2 -459.8,378.2 -459.9,378.3 -459.8,378.4   -459.7,378.5 -459.6,378.6 -459.6,378.6 -459.5,378.6 -459.5,378.6 -459.5,378.6 -459.4,378.7 -459.3,378.7 -459.2,378.8   -459.2,378.8 -459.1,378.8 -459,378.8 -459,378.8 -458.7,378.9 -458.7,379 -458.5,379.2 -458.4,379.3 -458.3,379.3 -458.3,379.2   -458.2,379.2 -458.1,379.3 -457.9,379.5 -457.9,379.6 -458,379.7 -458,379.8 -457.9,379.9 -457.9,380 -457.9,380.1 -457.9,380.1   -457.7,380.2 -457.7,380.3 -457.6,380.3 -457.5,380.3 -457.3,380.5 -457.2,380.6 -457.1,380.6 -456.9,380.5 -456.9,380.6   -456.8,380.6 -456.5,381.1 -456.5,381.1 -456.5,381.1 -456.4,381.1 -456.1,381.1 -455.9,381.1 -455.9,381.1 -455.8,381.1   -455.7,381 -455.6,380.9 -455.5,380.9 -455.5,380.9 -455.4,380.9 -455.3,380.9 -455.1,380.9 -455.1,380.9 -454.9,380.9   -454.8,380.9 -454.8,381.1 -454.8,381.1 -454.8,381.2 -454.8,381.3 -454.7,381.3 -454.7,381.3 -454.7,381.4 -454.6,381.4   -454.6,381.5 -454.5,381.5 -454.4,381.5 -454.4,381.6 -454.4,381.6 -454.3,381.8 -454.3,381.8 -454.2,381.9 -453.9,381.8   -453.8,381.8 -453.7,381.7 -453.7,381.7 -453.7,381.6 -453.7,381.6 -453.6,381.5 -453.5,381.6 -453.4,381.6 -453.3,381.6   -453.3,381.7 -453.4,381.8 -453.4,381.9 -453.4,382 -453.3,382.1 -453.3,382.1 -453.2,382.2 -453,382.3 -452.9,382.4 -452.6,382.5   -452.5,382.5 -452.5,382.6 -452.5,382.6 -452.5,382.7 -452.5,382.7 -452.5,382.8 -452.4,382.9 -452.4,383.1 -452.3,383.2   -452.2,383.2 -452.2,383.3 -452.2,383.4 -452.2,383.6 -452.2,383.7 -452.1,383.8 -452,383.8 -452,383.9 -452,384 -452.1,384   -452.1,384.1 -452.1,384.1 -452.1,384.1 -451.3,385.4 -451.2,385.5 -451.1,385.6 -451.1,385.6 -451,385.6 -450.9,385.6   -450.9,385.7 -450.8,385.7 -450.8,385.8 -450.8,385.9 -450.7,386 -450.7,386 -450.7,386 -450.7,386 -450.7,386.1 -450.7,386.1   -450.7,386.2 -450.7,386.2 -450.7,386.3 -450.6,386.4 -450.5,386.5 -450.4,386.6 -450.4,386.8 -450.4,387 -450.5,387.2   -450.5,387.3 -450.4,387.3 -450.4,387.3 -450.3,387.4 -450.3,387.5 -450.3,387.6 -450.4,387.7 -450.5,387.8 -450.5,388   -450.5,388.1 -450.7,388.4 -450.7,388.5 -450.8,388.6 -450.8,388.6 -450.6,389.1 -450.5,389.3 -450.5,389.4 -450.4,389.6   -450.4,389.8 -450.5,389.9 -450.5,389.9 -450.7,390.1 -451.3,390.9 -451.4,391 -451.5,392.1 -451.5,392.1 -451.3,392.3   -451.2,392.4 -451.2,392.5 -451.1,392.6 -451.1,392.7 -451.1,392.9 -451.1,392.9 -451,393 -450.9,393 -450.9,393.1 -450.9,393.1   -450.9,393.2 -450.9,393.2 -450.8,393.4 -450.7,393.4 -450.5,393.2 -450.4,393.2 -450.3,393.2 -450.1,393.3 -450,393.3 -450,393.4   -449.9,393.5 -449.9,393.5 -449.7,393.6 -449.4,393.7 -449.3,393.7 -449.3,393.6 -449.2,393.6 -449.2,393.5 -449.1,393.5   -449.1,393.6 -448.9,393.8 -448.8,393.9 -448.8,393.9 -448.8,393.8 -448.7,393.8 -448.4,393.9 -448.4,393.9 -448.2,393.9   -448.2,393.9 -447.6,393.9 -447.5,393.9 -447.4,393.8 -447.2,393.8 -447.1,393.9 -447,393.9 -446.8,394.1 -446.7,394.1   -446.6,394.1 -446.5,394.1 -446.4,394.1 -446.3,394.1 -446.2,394.1 -446.1,394.1 -446,394.2 -445.9,394.2 -445.6,394.1   -445.4,394.1 -445.1,394 -444.9,394 -444.9,394 -444.8,394 -444.7,394 -444.6,394.1 -444.5,394.1 -444.4,394.1 -444.3,394.1   -444.3,394.1 -444.2,394.1 -444.1,394.2 -443.9,394.1 -443.8,394.1 -443.6,394.2 -443.5,394.2 -443.3,394.2 -443.3,394.2   -443.2,394.3 -443.1,394.3 -443,394.4 -442.7,394.4 -442.2,394.6 -442.1,394.7 -441.6,395.4 -441.4,395.6 -441.3,395.6 -441,395.6   -440.9,395.6 -440.8,395.6 -440.7,395.6 -440.7,395.6 -440.6,395.6 -440.4,395.9 -440.3,396 -440.2,396.2 -440.2,396.2   -440.1,396.3 -439.9,396.3 -439.8,396.3 -439.4,396.6 -439.2,396.8 -439.2,396.8 -439.1,396.9 -439.1,396.9 -439,397 -438.4,397.2   -438.2,397.3 -438,397.3 -437,397.2 -436.9,397.2 -437,397.3 -437,397.4 -437.1,397.5 -437.1,397.6 -437.1,397.7 -437.2,397.7   -437.2,397.8 -437.1,398 -437.2,398.2 -437.2,398.3 -437.1,398.4 -436.8,398.4 -436.7,398.4 -436.6,398.5 -436.5,398.6   -436.3,398.9 -436,399.9 -435.6,400.8 -435.6,401 -435.5,401.2 -435.5,401.4 -435.5,401.5 -435.4,401.7 -434.2,402.8 -434.1,402.9   -434.1,403 -434,403.1 -434,403.6 -434,403.7 -433.9,403.7 -433.6,403.6 -431.4,403.4 -424.4,404.3 -422.9,403.9 -422.7,403.9   -419,404.5 -418.4,404.4 -418.1,404.4 -417.7,404.5 -417.4,404.7 -417,405.5 -416.7,405.8 -416.5,405.9 -413.3,406.6 -413.2,406.6   -413.2,406.6 -411.4,407.6 -411.3,407.6 -408.9,407.1 -408.9,408 -408.9,408 -408.6,408.1 -407.7,408.1 -407.6,408.1 -407.6,408.1   -407.5,408.3 -407.3,408.3 -406.8,407.7 -406.7,407.6 -406.5,407.6 -406.4,407.5 -406.3,407.5 -406.3,407.5 -406.1,407.4   -405.9,407.3 -404.7,406.6 -401.9,405.5 -397.6,404.8 -397.4,404.8 -397.2,404.9 -396.5,404.9 -395.7,405 -395.6,405 -395.5,405   -395.2,404.8 -395.1,404.8 -394.3,404.9 -394.2,404.9 -394.1,404.8 -393.6,404.8 -393.6,404.8 -393.6,404.8 -393.5,404.7   -393.5,404.7 -393.5,404.7 -393.5,404.7 -393,404.4 -392.3,404.1 -392,404 -391.9,404 -391.8,404 -391.8,404 -391.7,404   -391.7,403.9 -391.7,403.9 -391.6,403.8 -390.7,403.5 -390.7,403.4 -390.6,403.2 -390.5,403.1 -390.3,402.9 -390.1,402.8   -390,402.6 -389.9,402.4 -389.9,402.3 -389.5,401.9 -389.1,401.3 -389,401.2 -388.6,401 -387.9,400.7 -387.7,400.6 -387.6,400.5   -387.3,400.5 -387.2,400.5 -387.1,400.4 -386.6,399.8 -386.5,399.8 -386.3,399.8 -386.2,399.7 -386.1,399.7 -386,399.7 -386,399.5   -386,399.4 -386,399.3 -386.1,399.1 -386.3,398.6 -386.4,398.5 -386.5,398.4 -386.9,398.2 -387,398.1 -387.2,397.7 -387.3,397.6   -387.4,397.4 -387.4,397.3 -387.4,397.2 -387.5,397.1 -387.7,397 -387.7,396.9 -387.7,396.8 -387.7,396.6 -387.6,396.5   -387.5,396.4 -387.5,396.3 -387.5,396.3 -387.4,396.3 -387.4,396.1 -387.3,396 -387.3,395.9 -387.2,395.9 -387.2,395.8   -387.3,395.6 -387.3,395.6 -387.2,395.5 -386.6,394.3 -386.6,394.2 -386.5,394.1 -386.3,394 -386.3,394 -386.1,393.9 -386.1,393.9   -386,393.9 -386,393.8 -386,393.8 -385.9,393.8 -385.8,393.8 -385.5,393.9 -384.7,393.9 -384.6,393.9 -384.5,393.9 -384.2,394.2   -384.1,394.4 -384,394.5 -384,394.6 -383.5,394.7 -382.8,394.9 -382.7,394.9 -382.4,395 -381.3,395.1 -381.3,395.2 -381.2,395.2   -381.1,395.2 -380.9,395.3 -380.8,395.2 -380.7,395.2 -380.5,394.9 -380.2,394.7 -380,394.6 -380,394.5 -379.8,394.5 -379.6,394.5   -379.5,394.4 -379.4,394.3 -379.3,394.2 -379.3,394.1 -379.2,394 -379.2,394 -379,393.9 -378.4,393.3 -378.2,393.1 -378.1,392.9   -378.1,392.8 -378.1,392.6 -378.1,392.5 -378,392.5 -377.6,392.4 -377.5,392.3 -377.4,392.3 -376.9,392.6 -376.8,392.6   -376.2,392.5 -375.6,392.5 -375.2,392.4 -374.7,392.3 -374.6,392.2 -374.5,392.2 -374.3,391.9 -373.6,391.3 -373.5,391.3   -373.5,391.3 -373.3,391.3 -373.3,391.3 -373.2,391.3 -373.1,391.2 -373,391.1 -372.8,390.9 -372.8,390.7 -372.8,390.6   -372.9,390.5 -372.9,390.4 -372.9,390.3 -372.4,389.4 -371.9,388.9 -371.9,388.8 -371.9,388.7 -371.8,388.6 -371.7,388.5   -371.6,388.5 -371.4,388.5 -371.3,388.4 -371.1,388.3 -371.1,388.2 -371,388.2 -371,388.2 -370.6,388.3 -369.5,388.3 -369.4,388.3   -369.4,388.2 -369.4,387.9 -369.3,387.8 -369.2,387.6 -369.2,387.6 -369.2,387.5 -369.2,387.4 -369,387.3 -368.9,387.3   -368.9,387.4 -368.9,387.3 -368.7,387.2 -368.7,387.2 -368.7,387.3 -368.6,387.5 -368.5,387.5 -368.4,387.6 -368.3,387.6   -368,387.6 -367.9,387.6 -367.9,387.5 -367.8,387.3 -367.8,387.3 -367.7,387.2 -367.6,387.2 -367.5,387.2 -367.4,387.1 -367.1,387   -367.1,386.9 -366.9,386.9 -366.9,386.9 -366.7,386.8 -366.6,386.7 -366.6,386.7 -366.5,386.7 -366.4,386.7 -366.2,386.8   -366,386.9 -365.9,386.9 -365.7,386.9 -365.6,386.9 -365.6,386.8 -365.5,386.8 -365.4,386.8 -365.3,386.9 -365.2,386.9   -365.1,386.9 -364.9,386.7 -364.9,386.6 -364.8,386.5 -364.7,386.6 -364.7,386.6 -364.7,386.7 -364.6,386.8 -364.6,386.8   -364.5,386.7 -364.5,386.7 -364.4,386.6 -364.4,386.7 -364.3,386.9 -364.2,387 -364.1,387 -363.3,387.2 -363.2,387.2 -362.9,387.1   -362.8,387.1 -362.5,387.2 -362.5,387.2 -362.4,387.2 -362.3,387.3 -362.2,387.3 -362.2,387.3 -362.1,387.2 -362,387.2 -362,387.1   -361.9,387.1 -361.9,387 -361.9,387 -361.8,387 -361.7,387 -361.7,387 -361.6,386.9 -361.6,386.8 -361.5,386.8 -361.5,386.8   -361.5,386.7 "/></svg>