<svg xmlns="http://www.w3.org/2000/svg" xmlns:xlink="http://www.w3.org/1999/xlink" version="1.1" x="0px" y="0px" viewBox="-461 335 100 100" fill="#e0e0e0" style="enable-background:new -461 335 100 100;" xml:space="preserve"><polygon points="-369.9,373.4 -370.2,373.2 -372.6,372 -373.4,371.5 -374.9,370.4 -376.1,369.8 -376.5,369.8 -378.5,369.6   -379.5,369.2 -383.8,365 -386.4,363.1 -386.8,362.7 -387.2,362.1 -387.4,361.5 -387.7,361 -388.2,360.8 -388.6,361.1 -389.6,362.1   -390.1,362.4 -391.6,362.5 -393,362.4 -394,362.1 -394.7,361.6 -395,361.3 -395.8,360.2 -397.1,357.9 -397.4,357.8 -397.6,358.1   -397.7,358.2 -398.2,358.4 -398.4,358.4 -399.2,358.3 -400.5,357.9 -401.1,357.7 -402,357.2 -402.2,357 -402.8,356.5 -403.6,355.4   -404.2,354.7 -405.1,354 -405.8,353.3 -406.3,352.7 -407,351 -407.6,350.2 -409.9,347.9 -410.2,347.5 -412,344.8 -412.7,344.3   -418.7,341.6 -419.4,341 -419.8,340.6 -420.1,339.9 -420.5,339 -420.5,337.3 -419.6,335.9 -421.7,335.6 -422.8,335.7 -423.6,336.6   -424,337.1 -424.8,337.4 -425.8,337.5 -426.5,337.2 -426.9,336.7 -427.1,336.5 -427.3,335.9 -427.5,335.6 -427.8,335.3 -428.1,335   -429.1,335.1 -429.8,335.6 -430.8,336.8 -431.3,337 -431.6,337.1 -431.8,337.3 -432.1,337.5 -432.2,337.8 -432.3,338 -432.3,338.5   -432,338.7 -431.8,338.8 -431.2,338.9 -431,339.1 -430.9,339.1 -430.6,339.5 -430.3,340 -430.3,340.4 -430.3,340.5 -430.5,340.9   -430.5,341.2 -429.5,341 -429.3,341.1 -429.3,341.2 -429,341.5 -427.8,343.2 -427,345.3 -426.5,346.8 -425.6,348.4 -425.2,349.3   -425.4,349.5 -425.5,349.6 -426.6,349.6 -427.1,349.9 -427.5,350.3 -427.7,350.9 -428.1,351.4 -428.3,351.6 -428.5,351.8   -428.6,351.5 -428.7,351.4 -429.5,350.2 -429.9,349.6 -430,349.3 -430,349.1 -430,348.3 -430.4,347.8 -431.5,347 -432.1,346.8   -432.5,346.7 -434.4,346.9 -435.1,346.9 -435.3,347 -435.9,347.3 -435.8,347.5 -435.5,348.1 -435.4,348.3 -435.4,348.3   -436.2,348.6 -436.5,348.7 -437.6,349.4 -442.1,352.7 -442.5,353.3 -442.8,353.7 -441.9,354.2 -441.8,354.2 -442.8,355.8   -443.6,356.8 -444.3,358.3 -444.7,360.2 -444.7,361.8 -443.9,366.1 -443.9,366.3 -445.7,366 -448.3,366.1 -448.6,366.2   -450.7,366.6 -452,367.9 -452.9,370.3 -452.9,371.3 -452.8,371.5 -452.4,372.5 -451.4,374.6 -451.2,375.7 -451.2,375.7   -451.2,375.8 -451.5,376.3 -452,376.7 -452.4,377.3 -452.5,377.4 -452.4,378.5 -452.2,379.5 -452,379.9 -451.9,380.2 -451.4,381.3   -450.3,383.1 -449.9,383.7 -449,384.7 -448.3,385.7 -447.8,387.3 -447.8,388.9 -448.3,390.1 -449.3,391 -450,391.5 -450.6,391.8   -450.5,392 -450.2,392.4 -450.1,393 -450.3,393.4 -450.7,393.4 -451.2,393.1 -451.7,393.1 -452.2,393.3 -452.6,393.7 -452.4,394.6   -452.6,396.6 -452.6,397.6 -452.3,398.5 -451.9,399.3 -451.3,399.9 -451,400.2 -450.2,400.6 -450,401.3 -450.1,402.1 -449.5,402.8   -448.6,403.1 -449.3,402.6 -448.9,400.9 -449.7,400.3 -449.7,399.8 -445.1,400.4 -443.1,400.1 -441.7,398.2 -441.9,399.1   -441.9,399.6 -440.9,401.9 -440.8,402.6 -441.1,403.5 -441.8,402.9 -443.1,402.2 -447.2,400.8 -447.7,401 -447.9,401.7   -447.6,402.3 -446.5,403.1 -446.7,403.2 -446.7,403.3 -446.8,403.5 -446.4,403.7 -445.7,404 -445.2,404.4 -445,404.8 -444.8,404.9   -443.9,404.8 -443.4,404.9 -443.2,404.9 -443,403.7 -442.1,403.8 -441.3,404.5 -441.4,405.4 -441.4,405.8 -441.1,406 -440.8,406.4   -440.5,406.6 -440.5,407.5 -439.8,408.3 -438.4,409.5 -438,410.3 -437.8,410.6 -437.4,410.5 -437.1,410.1 -436.8,409.9   -436.1,409.5 -435.9,409.8 -435.6,409.9 -435.4,410.2 -435.1,409.7 -434.4,409.4 -433.6,409.4 -433,409.8 -432.7,410.6   -432.3,412.5 -431.8,413.4 -430.1,414.7 -429.5,415.4 -428.9,416.7 -428.6,416.9 -428.3,416.9 -428.1,417 -428,417.6 -427.6,418.2   -426,418.2 -425.3,419.3 -424.8,419.6 -424.4,419.9 -424.8,420.8 -424.5,421.6 -422,423.9 -421.9,426.8 -421.9,427.1 -422.1,427.3   -421.8,427.7 -421.3,428.1 -421.1,428.2 -421,428.8 -421,429.1 -421,429.5 -420.7,430.1 -420.3,430.3 -419.3,430.7 -418.5,431.2   -415.4,432.2 -414.6,432.6 -413.1,434.3 -412.2,435 -412.3,434.4 -412.3,432.9 -412.6,432.3 -413,431.9 -413.1,431.7 -413.1,431.1   -413.1,430.8 -412.9,430.5 -412.8,430.1 -413.1,428.8 -412.8,428.5 -412.5,428.5 -412.2,428.3 -412,427.3 -412.3,426.9 -412.7,426   -412.9,424.9 -412.8,423.8 -412.6,422.8 -412,421.3 -417.4,418.1 -418.4,417.2 -419.1,416.2 -419.8,413.5 -420.8,412.9   -423.5,412.8 -422.9,412.3 -423.3,411.7 -423.5,411.1 -423.4,410.5 -423.5,410 -424,409.4 -424.6,409 -424.7,408.7 -424.1,408.4   -423.6,409.2 -421.8,410.7 -421.4,410.4 -420.9,410.3 -420.4,410.6 -420.2,411.1 -419.3,410.7 -418.2,410.7 -414.1,411.7   -413.4,411.6 -413.1,410.7 -413.3,410.8 -414,411.1 -414.3,409.9 -413,410.2 -412.5,410.1 -412.1,409.5 -411.6,408.3 -410.9,407.5   -410.8,407.5 -410.8,407.2 -410.8,406.4 -410.7,405.9 -410.3,404.9 -410,404.6 -407.8,402 -407.2,401.1 -406.3,400.6 -405.6,399.7   -405,398.7 -404.5,397.6 -404.2,396.8 -403.7,396.3 -403.1,396 -402.5,395.3 -402.3,394.6 -402,393.1 -401.8,392.3 -401.1,391.1   -399.9,389.7 -398.7,388.6 -397.7,388.1 -396.7,388.6 -396,389.9 -395.6,391.4 -395.6,392.6 -395.6,392.6 -395.9,392.9   -396.2,393.6 -396.2,394 -396.3,394.9 -396.3,395.2 -396.1,395.8 -395.4,397.6 -393.9,398.7 -393.2,399.1 -392.4,399.2   -391.8,398.9 -390.2,397.9 -389.8,397.5 -388.7,396.8 -386.5,396.8 -385.5,396.5 -383.9,394.4 -382.9,393.8 -381.8,394.4   -381.3,393.7 -381.2,392.9 -381.3,392.1 -381.3,391.1 -381.2,390.6 -380.7,389.7 -380.1,388.2 -380.1,388 -380.5,387.4 -383,384.9   -383.5,384 -383.4,382.9 -383,382.4 -381.8,381.6 -381.3,381.4 -379.8,381.8 -378.1,382.8 -376.6,383.2 -375.5,381.9 -375.5,381.4   -375.5,380.8 -375.5,380.2 -375.2,379.6 -374.8,379.3 -373.1,378.7 -369.6,378.1 -369.1,375.8 -369.2,374.3 "/></svg>