<svg xmlns="http://www.w3.org/2000/svg" xmlns:xlink="http://www.w3.org/1999/xlink" version="1.1" x="0px" y="0px" viewBox="-461 335 100 100" fill="#e0e0e0" style="enable-background:new -461 335 100 100;" xml:space="preserve"><path d="M-384.9,428.9l-0.3,0.3v0.5l0.3,0.3h0.6l0.2-0.3v-0.5l-0.3-0.3H-384.9z M-380.4,417.5l-1.1-1.1v-0.6l-2.7-3.3l0-1.1  l-0.5-0.6l0-4.4l-0.5-0.5v-1.1l-1.1-1.1l0-1.7l-0.5-1.1l0.5-0.5l0-4.5l1.1-1.6v-1.1l1.6-3.3l-1.1-2.8l0-2.7l-0.5-0.6v-2.8l-0.5-1.1  l-3-3l-1.6,0l-1.3-1.4l0-0.5l-0.8-0.3l-2.9-3.6l-0.5-1.1l0-2.2l-0.6-0.5v-2.2l-2.4-2.5l-0.8-0.3l-0.5-2.3l-0.5-0.5l-0.5-4.4  l-0.5-1.1l-2.1-1.6l0.5-1.1l0-2.8l0.5-1.1l1.6-1.1l-0.6-0.5l0-1.7l-1.1-1.6v-0.5l-2.4-2.5l-2.1,0l-2.6-1.6h-1.1l-0.5-0.6l-1.6,0  l-1.1-0.5l-1.1-1.1l-1.6,0l-1.9,3.1l0,2.8l-0.6,0.6l0,3.9l-1.1,1.7v1.6l0.6,0.6l0,1.6l-0.5,1.1l-2.1,2.3v1.1l-2.1,2.3v0.6l-1,1.1  l-1.1,2.3l0,1.1l-1.1,1.1v1.1l-0.5,0.6l0,2.2l-0.5,0.5l-0.5,2.8l-0.5,0.5v1.7l-0.5,0.5v1.7l-1.1,1.1l-1,2.2l-2.1,2.2l-0.5,1.7  l-2.7,2.8v1.7l2.1,2.8v1.6l-1.1,1.7l0,1.7l-1,1.7l-0.5,3.3l-1.9,1.9l-1.6,0.5l-0.2,1.4l4.5,2.5h1.6l1.1,0.5l1.1,1.1h0.5l1.9,1.9  l0.5,2.2l1.1,1.1v0.6l1.9,2h0.5l1.9,1.9v1.7l0.5,1.1l2.1,1.6l1.1,2.2l0.8,1.4l1.6,0.5l3.2,2.8l2.7,1.1l3.7,2.8l2.1,0.6l0.5,0.6  l5.3,0l1.6,1.1l3.7,0l0.5-0.5l0.5,0.5l4.8,0l0.8-1.9l1.3-0.8l1.9-1.9l0.5-1.7l3.7-3.9v-0.5l1.6-1.7l1-2.8L-380.4,417.5z"/></svg>