<svg xmlns="http://www.w3.org/2000/svg" xmlns:xlink="http://www.w3.org/1999/xlink" version="1.0" x="0px" y="0px" viewBox="0 0 100 100" fill="#e0e0e0" enable-background="new 0 0 100 100" xml:space="preserve"><path d="M88.4476852,19.3628368l0.2263565,0.7070522l0.4639816,0.5645332l1.6544495,1.2883873l0.9810028,0.7937908  l0.027977,0.2738667l-0.315834,0.651186l-0.1341553,0.447176l0.2571487,0.4778786l0.6064072,0.5757046l0.0475082,0.27668  l-0.1453323,0.3214569l-0.3130188,0.6175842l0.6651764,1.8110428l0.1118164,1.7522774l-0.1733093,1.2436962l0.0056305,0.7183094  l0.0866547,0.6092243l0.5645294,1.4057465l-0.3773193,2.322525l0.4248276,1.2632256l0.5840683,1.0228806l0.3186417,1.822216  l0.4695206,0.8635597l0.7685394,0.7573738l0.4388199,0.2543335l0.846756,0.6260262l0.6064987,0.5198402L97.5,44.1273155  l-0.7601852,0.6371994l-0.609314,0.5701637l-0.1732254,0.6148529l0.2850418,0.9837341v0.5281982l-0.3884964,0.1677628  l-1.581871-0.0559464l-1.2408752-0.0418777l-1.4252777-0.0475082l-2.0066986-0.0950966l-1.2408829-0.0586815l-1.7047729-0.0782089  l-0.5868759,0.0391464l-1.5623398,0.2738647l-1.1039047,0.1956558l-0.187294,0.053051l-0.3437195,0.2431602l-0.2375336,0.7238541  l-0.2124557,0.8244972l-0.2291718,0.3660622l-3.3118057,1.1905594l-1.2939301,0.1649513l-0.7490082-0.1229858l-0.5338287,0.0978241  l-0.4583511,0.2543373l-0.1565094,0.3828659l-0.0223465,0.4918633l0.0978317,0.4946823l0.3186417,0.6875191l0.0558624,0.6875229  l-0.20401,0.4862366l-0.0475082,0.4863205l-0.0950089,0.5253868l0.1704941,0.2851219l0.3185577,0.044693l0.3213654,0.240345  l0.4528046,0.2180023l0.3745117,0.4163857l-0.0168076,0.5925064l-0.3130112,0.3353577l-0.27668,0.1761246l-1.2408829,0.1565056  l-0.9809113,0.1257172l-1.2828445,0.9446716l-1.366684,1.0060768l-1.615303,0.6651764l-0.7126846,0.187294l-1.2436905,0.4778786  l-1.4895859,0.7853508l-0.7350311,1.2575951l-0.9251328,1.4477119l-0.8915405,0.9698257l-1.2157173,0.919426l-1.1346092,0.34935  l-1.4253616,0.4416275l-1.7970543,0.3381729l-1.2715874,0.1117325l-0.3801346,0.0726624l-1.1207085,0.0223465l-0.5477295-0.0698547  l-0.4108429-0.0390625l-0.1649513,0.1033783l-0.0558624,0.2263565l-0.0223465,0.5198364l-0.0754814,0.5953293l-0.3548927,0.5002213  l-0.2515182,0.2235413l-0.2934799,0.0922852l-0.9418564-0.1341629l-0.7880783-0.159317l-1.875351-0.2123718l-0.3745079,0.0503235  l-0.1397018,0.0614929l-0.5841522,0.3409042l-0.8998909,0.7154922l-0.6120415,0.62603l-0.4555321,0.2934799l-1.090004,0.1536942  l-0.4750633,0.2291718l-2.0290413,1.5622482l-0.4331894,0.3800583l-2.0877228,1.3555069l-0.5896912,0.4499893L39.9779396,76.69487  l-1.2465096,1.0005341l-0.7965202,0.4387283l-0.1453323,0.259964l-0.0391502,0.60923v1.3470612v1.2912064v1.8725357v1.8724518  v2.1520309H36.696846v0.0027237l-0.0056305-0.0027237L2.5,87.5776749l0.011173-0.0335236l1.0620279-1.006073l0.7182252-1.2744904  l1.2185349-0.5672607l2.5487986-0.2739487l3.7869511-1.0592117l3.3984556-1.6014023l0.9613867-0.6371994l1.0285091-1.2800293  l1.7104015-1.6684418l3.1943569-2.006691l1.4700546-1.123436l2.241415-2.8199387l1.4896698-2.339241l1.2380657-1.509201  l0.8552017-1.3414383l0.6008663-1.3610535l0.3381729-2.1967239l-0.2263584-0.8608322l-0.9446697-1.4085579l-0.6315708-0.3772392  l-0.1704941-0.6651726l0.3381748-1.1738434l-0.0056305-2.0234146l0.1900272-3.241951l1.0508537-2.624279l2.5684166-3.4515076  l0.4778786-1.4225464l0.2934799-2.2637596l0.0251617-0.8021507l3.213974-3.2307777l1.8808975-2.4844894l0.6539993-0.6093102  l1.66008-1.1374245l5.7963791-2.4902039l3.2754669-1.785799l1.9115982-1.3023739l1.1402397-1.545536l3.1581116-6.0897751  l3.0994263-8.6526451l0.2598801-1.0061636l1.3862152-0.2905827l0.9810028-0.125802l0.7908897-0.3186426l0.9781876-0.6539164  l0.939045,0.2626925l-0.4695244,0.4443598v1.0732012l0.6651726,1.2548676l1.1570435,1.4085608l2.1016235,1.7858829  l1.6377335,0.7154102l2.3392487,0.4303722l2.7277374-0.7825336l1.5259171-0.0139027l0.740654-0.3381729l0.8076096,0.4946804  l1.5343628,0.159235l1.4812241-0.2598782l1.1207123-0.7490139l0.712677-0.8635597l0.1118164,0.4248295l0.0335236,0.4582615  l0.2179947,0.268322l0.4415436,1.0955467l0.2319946,0.4276428l0.8523865-0.0698528l0.740654,0.2151871l1.6712494-0.1034565  L88.4476852,19.3628368z"/></svg>