<svg xmlns="http://www.w3.org/2000/svg" xmlns:xlink="http://www.w3.org/1999/xlink" version="1.1" x="0px" y="0px" viewBox="-461 335 100 100" fill="#999999" style="enable-background:new -461 335 100 100;" xml:space="preserve"><polygon points="-361,343.4 -361.1,343.3 -361.2,343.2 -361.3,343.2 -361.5,343.2 -361.5,343.2 -361.6,343.1 -361.6,343 -361.7,343   -361.8,343 -361.8,342.9 -361.8,342.8 -361.8,342.8 -361.9,342.7 -361.9,342.7 -362,342.7 -362,342.7 -362.1,342.6 -362.1,342.6   -362.2,342.6 -362.2,342.5 -362.3,342.3 -362.3,342.3 -362.4,342.2 -362.4,342.2 -362.5,342.2 -362.6,342.1 -362.6,342.1   -362.7,342.1 -362.7,342 -362.6,341.9 -362.6,341.8 -362.7,341.9 -362.9,341.9 -362.9,341.9 -363,341.8 -363.1,341.7 -363.2,341.6   -363.4,341.7 -363.5,341.6 -363.7,341.5 -364.2,341.4 -364.4,341.4 -364.5,341.4 -364.5,341.3 -364.6,341.3 -364.6,341.3   -365.2,341.2 -365.6,341.2 -365.7,341.2 -365.7,341.2 -365.7,341.3 -365.8,341.3 -365.9,341.4 -366,341.5 -366.1,341.5   -366.1,341.5 -366.3,341.4 -366.3,341.4 -366.4,341.3 -366.4,341.3 -366.6,341.2 -366.8,341.2 -367,341.1 -367.3,341 -367.4,341   -367.6,341 -367.9,341.1 -367.9,341.1 -368,341.1 -368.4,341.1 -368.5,341.1 -368.7,341.1 -368.9,341.1 -369.2,341.2 -369.5,341.2   -369.8,341.3 -370.2,341.4 -370.5,341.4 -370.8,341.5 -371.1,341.6 -371.4,341.6 -371.7,341.7 -372.1,341.8 -372.4,341.8   -372.7,341.9 -373,342 -373.3,342 -373.6,342.1 -374,342.1 -374.2,342.2 -374.3,342.2 -374.6,342.2 -374.9,342.3 -375.5,342.4   -377,342.7 -378.5,343 -380,343.3 -381.5,343.6 -383.4,344 -385.2,344.3 -387.1,344.7 -388.9,345 -389.5,345.1 -389.6,345.2   -389.6,345.2 -389.8,345 -390,344.9 -390.4,344.8 -390.7,344.6 -390.9,344.5 -391.2,344.6 -391.3,344.5 -391.4,344.6 -391.5,344.6   -391.6,344.6 -391.8,344.6 -392.5,344.8 -393.1,345 -393.2,345.2 -393.5,345.2 -393.7,345.3 -393.9,345.3 -394,345.2 -394.3,345.1   -394.4,345 -394.5,345.1 -394.5,345.1 -394.6,345.1 -394.7,345 -394.8,345 -394.9,344.9 -395.2,344.9 -395.5,344.9 -395.7,345   -395.8,344.9 -396,344.8 -396.2,344.6 -396.3,344.6 -396.4,344.4 -396.6,344.3 -396.8,344.2 -397,344.2 -397.3,344 -397.4,344   -397.6,344 -397.7,344 -397.8,344 -398,344.2 -398.2,344.1 -398.4,344.1 -398.6,344.1 -398.7,344.2 -398.8,344.2 -398.9,344.2   -399,344.2 -399.2,344.2 -399.6,344.3 -399.7,344.3 -399.9,344.2 -400.2,344 -401.4,344 -401.4,344 -401.5,344.2 -401.5,344.2   -401.6,344.2 -401.8,344.2 -402,344.1 -402,344 -402.1,343.9 -402.3,343.9 -402.4,343.9 -402.8,344 -404.1,344 -405.3,343.6   -405.4,343.6 -405.7,343.6 -406,343.5 -406,343.5 -406.2,343.6 -406.4,343.7 -407.1,343.7 -408,343.5 -408.7,343.2 -409,343.1   -409.1,343 -409.2,342.8 -409.7,342.4 -409.7,342.3 -409.9,342.3 -409.9,342.2 -410,342.1 -410,342 -410,341.9 -410.4,341.6   -410.5,341.6 -410.5,341.5 -410.8,341 -411,340.9 -411,340.9 -411,340.9 -411.1,340.6 -411.2,340.5 -411.2,340.5 -411.3,340.4   -411.3,340.4 -411.3,340.4 -411.7,340.4 -413.6,340.4 -415.5,340.4 -417.4,340.4 -419.3,340.4 -421.2,340.4 -423.1,340.4   -425,340.4 -426.9,340.4 -428.8,340.4 -430.7,340.4 -432.6,340.4 -434.4,340.4 -436.3,340.4 -438.2,340.4 -440.1,340.4 -442,340.4   -442.5,340.4 -442.6,340.4 -442.6,340.4 -442.7,340.5 -442.9,340.6 -443.2,340.5 -443.2,340.5 -443.4,340.6 -443.4,340.6   -443.5,340.6 -443.6,340.6 -443.8,340.6 -443.9,340.5 -444,340.5 -444.1,340.5 -444.2,340.6 -444.3,340.6 -444.5,340.6   -444.6,340.5 -444.9,340.1 -445,340 -445.7,339.6 -446.4,339.2 -447.1,338.7 -447.7,338.3 -447.6,338.1 -447.7,338 -447.8,337.9   -447.9,337.6 -448,337.5 -448.1,337.4 -448.3,337.4 -448.5,337.3 -448.7,337.1 -448.8,337.1 -449.2,337.2 -449.2,337.2   -449.3,337.1 -449.4,337.2 -449.6,337.3 -449.6,337.2 -449.6,337.2 -449.7,337.2 -449.9,337.2 -450,337.2 -450,337.1 -450.1,337.1   -450.2,337.1 -450.3,337 -450.5,337 -450.6,337.1 -451.4,337.2 -451.8,337.4 -452,337.5 -452.2,337.6 -452.4,337.6 -452.4,337.7   -452.4,337.8 -452.4,337.8 -452.5,337.9 -452.6,337.9 -452.7,337.9 -452.8,338 -452.8,338.1 -452.9,338.2 -453.1,338.3   -453.5,338.4 -453.7,338.6 -453.9,338.7 -454,338.7 -454.2,338.8 -454.6,339.1 -454.7,339.2 -454.8,339.2 -455.1,339.1   -455.5,339.1 -455.7,339 -455.8,338.9 -455.9,338.9 -456,339 -456.1,339.1 -456.6,339.1 -457.1,339.1 -457.2,339.1 -457.2,339   -457.2,338.9 -457.3,338.9 -457.4,338.9 -457.4,338.8 -457.5,338.8 -457.6,338.7 -457.6,338.7 -457.6,338.6 -457.6,338.6   -457.7,338.5 -457.7,338.5 -457.8,338.5 -457.8,338.6 -457.9,338.6 -458.1,338.5 -458.2,338.4 -458.3,338.4 -458.3,338.5   -458.4,338.5 -458.7,338.5 -459,338.6 -459.3,338.8 -459.7,339 -460,339.2 -460.1,339.3 -460.2,339.3 -460.2,339.4 -460.2,339.4   -460.3,339.4 -460.4,339.4 -460.5,339.3 -460.6,339.3 -460.7,339.4 -461,341 -461,341.6 -460.9,342 -460.9,342.2 -461,342.4   -460.9,342.7 -460.8,343.7 -460.7,344.1 -460.7,344.8 -460.6,345 -460.4,345.4 -460.4,345.6 -460.3,345.7 -460.3,345.9 -460.1,346   -459.4,346.8 -459.4,346.9 -459.1,347.6 -458.9,347.9 -458.9,347.9 -458.9,348 -458.9,348.1 -458.9,348.2 -458.8,348.4   -458.8,348.6 -458.7,348.7 -458.3,349.2 -458.2,349.3 -458.2,349.3 -458,349.5 -458,349.5 -457.9,349.6 -456.8,350.5 -455.6,352.1   -455.5,352.2 -455.4,352.8 -455.4,352.9 -455.1,353.1 -454.9,353.4 -454.7,353.6 -454.4,354.5 -454.2,354.8 -454,355.1   -453.9,355.3 -453.8,355.6 -453.8,355.8 -453.7,356 -453.4,356.6 -453.3,356.7 -453.1,357.1 -453.1,357.2 -453,357.4 -452.4,358.4   -452.1,358.8 -452.1,359 -451.5,360.1 -451.2,361 -451.1,361.2 -450.6,361.6 -450.4,361.8 -450.2,362.1 -450,362.7 -449.8,363.4   -449.8,363.7 -449.6,364.4 -449,365.6 -448.7,366.3 -448.7,367 -448.6,367.3 -448.4,367.5 -448.2,367.7 -448.1,367.8 -448,368.1   -447.7,368.5 -447.1,369.7 -446.6,370.3 -446.1,371 -445.4,372 -445.2,372.6 -445,373.1 -444.5,374 -444.4,374.1 -444.4,374.2   -444.4,374.2 -444.4,374.4 -444.5,374.5 -444.5,374.5 -444.5,374.6 -444.4,374.7 -443.7,375.3 -443.7,375.4 -443.1,375.9   -442,377.4 -442,377.5 -442,377.7 -441.8,377.9 -441.3,378.5 -441.3,378.5 -441.1,379 -440.9,379.5 -440.6,380 -440.6,380.4   -440.4,380.7 -440.3,381.7 -440.2,383.1 -440.2,383.5 -440.3,383.7 -440.4,383.7 -440.5,383.8 -440.6,384.1 -440.8,384.2   -440.7,384 -440.7,383.9 -440.8,384 -440.9,383.9 -440.9,383.7 -440.8,383.6 -440.8,383.5 -440.9,383.5 -440.9,383.4 -440.9,383.3   -440.9,383.3 -440.9,383.3 -441,383.3 -441,383.7 -441,383.7 -441.1,383.9 -441.1,384 -441.1,384 -441.1,384.6 -441,384.8   -441,385.1 -440.9,385.3 -440.7,385.5 -440.6,385.8 -440.5,386.7 -440.5,387.1 -440.5,387.2 -440.6,387.3 -440.6,387.2 -440.6,387   -440.7,387.1 -440.9,387.4 -440.9,387.5 -440.9,387.6 -440.8,388 -440.5,388.9 -440.5,389.2 -440.6,390.3 -440.5,390.5   -440.4,390.9 -440.4,391.3 -440.4,391.4 -440.5,391.6 -440.5,391.7 -440.5,391.7 -440.6,391.7 -440.7,391.8 -440.7,391.9   -440.8,392.1 -440.8,392.2 -440.8,392.4 -440.7,392.6 -440.7,392.9 -440.8,393.1 -440.7,393.2 -440.6,393.6 -440.5,393.8   -440.4,394.4 -440,395.2 -439.8,395.6 -439.6,395.9 -439.6,396 -439.6,396.4 -439.6,396.4 -439.7,396.5 -439.7,396.6 -439.7,396.8   -439.4,397.1 -439.3,397.4 -439,397.7 -438.8,398 -438.4,398.8 -438.3,399.1 -438.3,399.7 -438.2,400 -437.9,400.6 -437.8,400.9   -437.9,401.2 -438,401.8 -438,401.9 -438.2,402.5 -438.2,402.6 -438.1,403 -438.1,403.3 -437.9,403.8 -437.9,404.2 -437.8,404.4   -437.7,404.6 -437.7,404.7 -437.6,404.9 -437.7,405 -437.9,405.5 -437.9,405.6 -437.9,406.3 -437.9,406.4 -437.9,406.5   -437.9,406.6 -437.8,406.8 -437.4,407.2 -437.4,407.2 -437.5,407.5 -437.4,407.8 -437.1,408.4 -437,408.6 -436.9,409 -436.9,409.3   -437,409.6 -437.1,409.6 -437.1,409.6 -437.2,409.6 -437.2,409.7 -437.2,409.7 -437,410 -437.1,410.6 -437,411.2 -436.9,411.3   -436.5,411.5 -436.2,411.7 -436,411.9 -435.8,412.2 -435.7,412.7 -435.6,413.2 -435.5,413.3 -435.5,413.4 -435.7,413.9 -435.7,414   -435.7,414 -435.7,413.7 -435.8,413.6 -435.8,413.6 -435.9,413.7 -436,413.7 -436.1,413.7 -436.1,413.8 -436.2,414 -436.1,414.2   -436.1,414.3 -436,414.5 -435.9,414.7 -435.9,414.9 -435.9,415 -435.7,415.5 -435.6,415.7 -435.6,415.8 -435.6,415.9 -435.5,415.9   -435.5,416 -435.4,416.1 -435.4,416.1 -435.2,416.1 -435.2,416.1 -435.1,416.3 -435,416.4 -435,416.8 -435,416.9 -435,417.1   -434.8,417.4 -434.9,417.5 -434.8,418.1 -434.8,418.4 -434.8,418.5 -434.8,418.6 -434.7,418.6 -434.7,418.7 -434.6,419.4   -434.5,419.4 -434.2,419.8 -434,420.3 -434,420.3 -433.8,420.4 -433.7,420.5 -433.6,420.8 -432.9,421.9 -432.9,422 -432.9,422.1   -432.9,422.5 -432.8,422.7 -432.7,422.9 -432,423.6 -431.8,423.9 -431.7,424.2 -431.7,424.2 -431.8,424.4 -431.7,424.5   -431.7,424.6 -431.5,424.8 -431.2,425.2 -431.1,425.3 -430.6,425.7 -430.2,426.2 -430,426.4 -429.1,427.1 -428.6,427.7   -428.1,428.3 -428.1,428.3 -428,428.4 -427.2,429.2 -427,429.4 -426.8,429.6 -426.4,430 -426.3,430 -426.1,430.1 -426,430   -425.9,429.9 -425.8,429.8 -425.6,429.7 -425.5,429.6 -425.3,429.5 -425,429.4 -424.4,428.8 -424.3,428.8 -424.3,428.8   -424.2,428.9 -424.2,429 -424.2,429.1 -424.1,429.1 -423.9,429 -423.8,428.8 -423.7,428.7 -423.7,428.5 -423.7,428.3 -423.6,428.2   -423.5,428.1 -423.4,428 -423.5,427.9 -423.7,427.6 -423.7,427.5 -423.7,427.3 -423.7,427.2 -423.6,427.1 -423.5,427.2   -423.4,427.2 -423.4,427.2 -423.3,427.2 -423.3,427.1 -423.3,427 -423.4,426.9 -423.4,426.8 -423.4,426.8 -423.3,426.7   -423.2,426.7 -423.1,426.7 -423.1,426.6 -423.2,426.5 -423.2,426.4 -423.2,426.4 -423.2,426.3 -423.1,426.4 -423.1,426.4   -423,426.4 -422.9,426.4 -422.9,426.4 -422.8,426.3 -422.8,425.7 -422.8,425.6 -422.6,425.5 -422.6,425.5 -422.5,425.5   -422.5,425.6 -422.4,425.6 -422.3,425.6 -422.2,425.4 -422.1,425.4 -421.9,425.5 -421.7,425.3 -421.6,425.2 -421.4,425.2   -421.4,425.2 -421.3,425.2 -421.2,425.4 -421.1,425.5 -421,425.7 -420.8,425.8 -420.7,425.8 -420.6,426 -420.6,426.1 -420.6,426.3   -420.6,426.7 -420.4,426.9 -420.2,427 -419.7,426.8 -419.5,426.8 -419.4,426.9 -419.4,427 -419.4,427.1 -419.4,427.2 -419.3,427.3   -419.3,427.3 -419.3,427.4 -419.2,427.5 -419.2,427.6 -419.1,427.8 -419,427.9 -419,428 -419,428.3 -419.1,428.5 -419.2,428.6   -419.3,428.6 -419.5,428.7 -419.6,428.8 -419.6,428.9 -419.5,429.1 -419.3,429.3 -419.3,429.5 -419.2,429.6 -419,429.7   -418.9,429.9 -418.9,430.3 -419,430.6 -419,430.9 -418.7,430.9 -418.4,430.8 -418.1,430.8 -418,430.8 -417.8,430.7 -417.7,430.7   -417.6,430.7 -417.5,430.9 -417.5,431.1 -417.5,431.3 -417.4,431.4 -417.1,431.4 -417,431.4 -416.9,431.4 -416.8,431.3   -416.7,431.3 -416.5,431.2 -415.3,431.5 -415,431.6 -414.7,431.8 -414.3,432.2 -414,432.3 -413.4,432.5 -413.2,432.5 -413,432.4   -412.3,432.3 -412.2,432.3 -411.9,432.5 -411.7,432.5 -411.5,432.4 -411.5,432.4 -411.4,432.4 -411.2,432.3 -411.2,432.3   -411.1,432.3 -411.1,432.3 -411.1,432.3 -411,432.4 -410.9,432.4 -410.8,432.4 -410.5,432.2 -409.1,432 -407.6,432.2 -407.4,432.3   -407.3,432.6 -407.2,432.7 -407.1,432.7 -406.9,432.8 -406.8,432.8 -406.7,432.8 -406.6,433 -406.3,433 -406,432.9 -405.6,432.7   -405.6,432.6 -405.5,432.5 -405.4,432.4 -405.2,432.4 -405.1,432.4 -405.1,432.3 -405.4,431.8 -405.4,431.6 -405.4,431.4   -405.3,431.2 -405.2,431.1 -405.1,431 -405,431 -404.8,431.1 -404.7,431.1 -404.6,431.1 -404,430.9 -403.9,430.9 -403.7,430.8   -403.7,430.6 -403.4,430 -403.4,429.9 -403.3,429.9 -403.3,429.8 -403.2,429.7 -403.2,429.6 -403.1,429.5 -403.1,429.5 -403,429.4   -403,429.4 -402.9,429.3 -402.1,429.3 -402,429.2 -401.9,429.1 -401.7,429 -401.3,429 -401.1,429 -400.8,428.7 -400.6,428.5   -400.5,428.5 -400.3,428.6 -400.2,428.6 -400,428.5 -400,428.3 -400,427.9 -400,427.5 -400,427 -400,426.5 -400,426.1 -400,425.6   -400,425.1 -400,424.7 -400,424.2 -400,423.7 -400,423.3 -400,422.8 -400,422.3 -400,421.9 -400,421.4 -400,420.9 -400,420.5   -400,420 -400,419.5 -400,419.1 -400,418.6 -400,418.1 -400,417.7 -400,417.2 -400,416.8 -400,416.3 -400,415.8 -400,415.4   -400,414.9 -400,414.5 -400,414 -400,413.5 -400,413.1 -400,412.6 -400,412.2 -400,411.7 -400,411.2 -400,410.8 -400,410.3   -400,409.9 -400,409.4 -400,408.9 -400,408.5 -400,408 -400,407.6 -400,407.1 -400,406.6 -400,406.2 -400,405.7 -400,405.3   -400,404.8 -400,404.4 -400,403.9 -400,403.5 -400,403 -400,402.5 -400,402.1 -400,401.6 -400,401.2 -400,400.7 -400,400.3   -400,399.8 -400,399.4 -400,398.9 -400,398.5 -400,398.4 -400,397 -400,395.6 -400,394.2 -400,392.8 -400,391.4 -400,390   -400,388.7 -400,387.3 -400,385.9 -400,384.5 -400,383.2 -400,381.8 -400,380.6 -400,379.4 -400,378.2 -400,377 -400,376.3   -398.3,376.3 -396.5,376.3 -394.8,376.3 -393.1,376.3 -392.7,376.3 -392.6,376 -392.6,375.7 -392.6,375.3 -392.6,374.8   -392.6,374.4 -392.6,373.9 -392.6,373.4 -392.6,373 -392.6,372.5 -392.6,372.1 -392.6,371.6 -392.6,371.2 -392.6,370.7   -392.6,370.3 -392.6,369.8 -392.6,369.4 -392.6,368.9 -392.6,368.4 -392.6,367.5 -392.6,366.5 -392.6,365.5 -392.6,364.5   -392.6,363.5 -392.6,362.6 -392.6,361.6 -392.6,360.6 -392.6,359.6 -392.6,358.7 -392.6,357.7 -392.6,356.7 -392.6,355.7   -392.6,354.8 -392.6,353.8 -392.6,352.8 -392.6,352.5 -392.6,352.2 -392.6,351.9 -392.6,351.6 -392.6,351.2 -392.6,350.9   -392.6,350.6 -392.6,350.3 -392.6,350 -392.6,349.7 -392.6,349.3 -392.6,349 -392.6,348.7 -392.6,348.4 -392.6,348.1 -392.6,347.8   -392.6,347.5 -392.3,347.5 -391.9,347.5 -391.4,347.5 -391,347.5 -390.6,347.5 -390.3,347.4 -389.9,347.4 -389.6,347.4   -389.2,347.4 -389.1,347.4 -388.9,347.4 -388.8,347.4 -388.7,347.3 -388.6,347.3 -388.4,347.3 -387.8,347.2 -387.2,347   -386.6,346.9 -385.9,346.8 -385.3,346.7 -384.7,346.6 -384.1,346.4 -383.5,346.3 -382.8,346.2 -382.2,346.1 -381.6,346 -381,345.8   -380.3,345.7 -379.7,345.6 -379.1,345.5 -378.5,345.4 -377.8,345.2 -377,345.2 -376.3,345.1 -375.8,345.1 -375.5,345.1   -375.4,345.1 -375.4,345.1 -375.4,345.2 -375.4,345.3 -375.4,345.4 -375.3,345.4 -375.2,345.4 -375.2,345.4 -375.2,345.6   -375.2,345.6 -375.2,345.7 -375.1,345.8 -375,346 -374.8,346.3 -374.8,346.3 -374.8,346.4 -374.8,346.5 -374.8,346.5 -374.7,346.6   -374.7,346.6 -374.6,346.6 -374.5,346.5 -374.4,346.6 -374.3,346.8 -374.3,346.8 -374.2,346.9 -374.1,346.9 -374,346.9 -374,347   -373.9,347.1 -373.8,347.1 -373.8,347.2 -373.9,347.3 -373.6,347.6 -373.5,347.8 -373.7,347.9 -373.6,348 -373.5,348.4   -373.4,348.7 -373.3,348.8 -373.2,348.8 -372.9,348.7 -372.9,348.7 -372.8,348.6 -372.7,348.4 -372.5,348.4 -372.4,348.3   -371.7,347.6 -371.6,347.5 -371.5,347.4 -371.4,347.2 -371.3,347.2 -371.1,347 -370.9,346.9 -370.9,346.6 -370.7,346.4   -370.6,346.4 -370.6,346.4 -370.6,346.5 -370.5,346.5 -370.5,346.4 -370.5,346.4 -370.4,346.3 -370.2,346.2 -370.1,346.2   -369.9,346 -369.8,346 -369.6,345.9 -369.3,345.7 -369,345.3 -368.7,345.2 -368.5,345.1 -368.4,345.2 -368.3,345.2 -368.2,345.3   -368.1,345.3 -368,345.2 -367.8,344.9 -367.7,344.7 -367.6,344.7 -367.4,344.7 -367.2,344.7 -367.1,344.8 -367,345.1 -366.9,345.1   -366.9,345.1 -366.8,345.2 -366.8,345.3 -366.6,345.5 -366.5,345.5 -366.1,345.5 -366.1,345.5 -366,345.4 -365.9,345.3   -365.9,345.2 -365.9,345.2 -365.5,344.8 -365.4,344.7 -365.1,344.5 -364.9,344.3 -364.9,344.2 -364.9,344.2 -364.8,344.2   -364.7,344.2 -364.7,344.1 -364.6,344 -364.6,344 -364.4,344 -364.2,343.8 -364.1,343.8 -364,343.8 -363.4,343.6 -363.4,343.6   -363.3,343.5 -363.3,343.5 -363.3,343.4 -363.2,343.4 -363.2,343.5 -363.2,343.6 -363.1,343.7 -363,343.7 -362.9,343.6   -362.9,343.7 -362.8,343.7 -362.6,343.6 -362.5,343.7 -362.3,343.7 -362,343.6 -361.8,343.4 -361.5,343.4 -361,343.5 "/></svg>