<svg xmlns="http://www.w3.org/2000/svg" xmlns:xlink="http://www.w3.org/1999/xlink" version="1.1" x="0px" y="0px" viewBox="-461 335 100 100" fill="#999999" style="enable-background:new -461 335 100 100;" xml:space="preserve"><polygon points="-361,404.9 -361.1,404.4 -361.2,403.9 -361.2,403.6 -361.3,403.5 -361.6,403.1 -361.7,402.9 -361.9,402.5   -362.1,402.1 -362.4,401.7 -362.5,401.6 -362.7,401.5 -363,401.4 -363.2,401 -363.4,400.8 -363.4,400.7 -363.5,400.6 -363.4,400.5   -363.3,400.1 -363.2,399.3 -363,398.9 -362.7,398.3 -362.6,398 -362.7,397.9 -362.8,397.6 -362.9,397.5 -362.9,397.3 -362.9,397.2   -362.8,396.9 -362.7,396.8 -362.6,396.8 -362.6,396.7 -362.6,396.6 -362.6,396.5 -362.7,396.4 -362.7,396.4 -362.8,396.1   -362.8,396 -362.8,395.9 -362.5,395.3 -361.7,394.1 -361.4,393.1 -361.2,392.8 -361.1,392.4 -361.2,391.9 -361,391.7 -361.1,391.6   -361.2,391.5 -361.3,391.4 -361.6,391.4 -361.6,391.4 -361.9,391.3 -362.4,391.1 -362.7,391 -362.9,391 -363.2,391.1 -363.3,391.1   -363.5,391.1 -363.8,391 -363.9,391 -364.8,390.9 -365.1,390.8 -365.2,390.8 -365.4,391 -365.6,391.4 -365.8,391.6 -366.1,391.9   -366.4,392 -366.8,392.1 -367,392 -367.3,391.9 -367.5,391.8 -367.7,391.9 -368.1,392.1 -368.3,392.1 -368.4,392 -368.5,391.9   -368.5,391.8 -368.6,391.7 -368.8,391.7 -369,391.7 -369.5,391.8 -370.6,392.1 -370.8,392.1 -370.8,391.9 -370.7,391.7   -370.6,391.5 -370.9,391.5 -371.2,391.6 -371.5,391.8 -371.8,391.9 -372.5,391.8 -373.1,391.8 -373.4,391.8 -373.9,391.6   -374.6,390.8 -375,390.4 -375.3,390.3 -375.5,390.3 -375.6,390.3 -375.7,390.3 -376.1,390.4 -376.4,390.3 -376.7,390.2 -376.9,390   -377,389.7 -377,389.7 -377.3,389.5 -378.2,389.5 -378.6,389.4 -378.7,389.2 -378.6,388.9 -378.7,388.7 -378.8,388.6 -379.1,388.5   -379.3,388.4 -379.5,388.4 -379.7,388.4 -379.9,388.6 -380.1,388.7 -380.3,388.6 -380.5,388.5 -380.7,388.4 -380.8,388.4   -381,388.5 -381,388.7 -381,388.9 -381,389.1 -381.1,389.3 -381.2,389.4 -381.3,389.5 -381.3,389.7 -381.3,390 -381.3,390   -381.4,390.3 -381.5,390.4 -381.8,390.6 -382.3,390.8 -382.4,390.8 -382.7,390.7 -383.1,390.4 -383.2,390.3 -383.3,390.4   -383.4,390.4 -383.5,390.4 -383.6,390.4 -383.7,390.3 -384,390 -384.2,389.9 -384.5,389.8 -384.7,389.8 -385,389.7 -385,389.7   -385,389.7 -385,389.7 -385.2,389.6 -385.2,389.5 -385.3,389.1 -385.4,389 -385.5,388.9 -385.5,388.8 -385.4,388.6 -385.4,388.3   -385.4,388 -385.5,387.8 -385.7,387.7 -386.8,388.7 -386.8,388.9 -386.6,389 -386.6,389.1 -386.6,389.2 -386.7,389.4 -386.7,389.5   -386.7,389.6 -386.7,389.7 -386.6,389.7 -386.6,389.7 -386.6,389.7 -386.6,389.7 -386.4,389.9 -386.4,389.9 -386.5,390.1   -386.5,390.2 -386.4,390.3 -386.3,390.4 -386.3,390.4 -386.3,390.6 -386.3,390.6 -386.7,391 -386.9,391 -387,391 -387,391.1   -387.3,391 -387.9,391.1 -388.1,391 -388.3,390.7 -388.2,390.5 -388.2,390.2 -388.2,390 -388.3,389.7 -388.8,389.4 -388.9,389.2   -389,388.9 -389,388.8 -389,388.7 -389,388.6 -389.2,388.3 -389.3,388 -389.3,387.9 -389.5,387.7 -389.8,387.6 -390.3,387.4   -390.6,387.2 -390.9,387 -391.1,386.7 -391.3,386.4 -391.4,385.8 -391.4,385.6 -391.6,385.6 -391.6,385.7 -391.6,385.8   -391.6,385.9 -391.7,386 -392,386.1 -392.1,386.1 -392.4,386.6 -392.6,386.6 -392.7,386.4 -393,386.3 -393.3,386.2 -393.5,386.2   -393.8,386.2 -394.1,386.2 -394.4,386.1 -394.6,386 -394.8,386 -395,386.1 -395.3,386.4 -395.5,386.5 -395.7,386.5 -395.8,386.4   -395.9,386.3 -396.1,386.2 -396.2,386.2 -396.6,386.4 -396.7,386.4 -396.9,386.4 -397.2,386.3 -397.4,386.3 -397.8,385.9 -398,386   -398.3,386.1 -398.6,386.1 -398.9,385.9 -399,385.8 -398.9,385.6 -398.9,385.2 -398.9,385 -399,384.3 -398.9,384.2 -398.6,384   -398.5,383.9 -398.5,383.6 -398.5,383.6 -398.4,383.5 -398.2,383.4 -398.1,383.3 -398,383.2 -398,383.1 -397.9,382.5 -398,382.4   -398.6,382.2 -399,381.9 -399.3,381.8 -399.5,381.9 -399.6,382 -399.7,382.1 -399.8,382.3 -399.9,382.4 -400,382.4 -400.1,382.4   -400.5,382.6 -400.6,382.7 -400.7,383 -400.8,383.1 -400.9,383.1 -401.1,383.1 -401.3,383 -401.4,383 -402.1,383 -402.2,383   -402.4,383 -402.6,382.8 -402.9,382.5 -403.2,382.4 -403.7,382.3 -403.9,382.2 -403.8,381.7 -404,381.6 -404.2,381.5 -404.5,381.5   -404.5,381.4 -404.7,381.2 -404.8,381.1 -405.4,381 -405.7,380.9 -405.9,380.8 -406.1,380.7 -406.4,380.7 -406.7,380.7   -406.8,380.4 -407,379.9 -407.1,379.7 -407.4,379.5 -407.6,379.2 -407.7,379.1 -407.9,379.1 -408.7,378.9 -409.3,378.6   -409.5,378.4 -409.7,378.1 -409.4,377.1 -409.5,376.9 -409.8,376.8 -410.1,376.7 -410.1,376.3 -410.2,376.2 -410.3,376.1   -410.5,375.9 -410.6,375.6 -410.5,375.4 -410.3,375.2 -410.2,375 -410.3,374.8 -410.5,374.8 -410.7,374.9 -410.8,374.8   -410.9,374.7 -411,374.4 -411.1,374.2 -411.3,374.2 -411.6,374.3 -411.8,374.3 -412,374.2 -412.1,374.1 -412.2,374 -412.4,374.1   -412.5,374.1 -412.6,374 -412.6,373.9 -412.7,373.8 -412.9,373.8 -413,373.8 -413.3,373.8 -413.7,373.9 -413.7,374 -413.8,374.1   -413.9,374.2 -414.2,374.3 -414.8,374.5 -415,374.5 -415.4,374.5 -415.7,374.5 -416,374.6 -416.2,374.8 -416.3,375 -416.4,375.2   -416.5,375.4 -416.5,375.4 -416.7,375.5 -416.8,375.5 -417.3,375.4 -417.5,375.3 -417.6,375.2 -417.9,375.2 -418.1,375.1   -418.2,375 -418.2,374.9 -418.2,374.6 -418.3,374.2 -418.4,374 -418.7,373.9 -419,373.7 -419.1,373.6 -419.2,373.3 -419.4,373.2   -419.5,373.1 -419.7,373 -419.7,372.8 -419.7,372.7 -419.8,372.6 -420.1,372.3 -420.1,372.1 -420.1,371.9 -420.1,371.7   -420.5,371.4 -421.3,371.6 -421.5,371.3 -421.5,371.2 -421.4,371.1 -421.3,371 -421.3,370.9 -421.3,370.7 -421.4,370.6   -421.7,370.3 -421.8,370.3 -422,370.2 -422.1,370.1 -422.1,370.1 -422.2,369.9 -422.2,369.9 -422.4,369.8 -422.5,369.7   -422.7,369.7 -423,369.7 -423.3,369.8 -423.4,369.8 -423.4,370 -423.5,370.1 -423.5,370.3 -423.7,370.3 -423.8,370.2 -424,369.9   -424.1,369.8 -424.8,369.2 -424.9,369.2 -425.2,369.2 -425.3,369.2 -425.4,369.2 -425.6,369 -425.7,368.9 -426,369 -426.3,369.2   -426.5,369.3 -426.7,369.1 -426.8,368.9 -426.9,368.8 -427.1,368.8 -427.2,368.7 -427.3,368.6 -427.6,368.3 -428.3,367.8   -428.4,367.6 -428.4,367.4 -428.3,367.3 -428.3,367.2 -428.5,367.1 -428.6,367.1 -428.9,367.2 -429,367.2 -429.2,367.1 -430.1,366   -430.4,365.9 -431,365.8 -431.2,365.7 -431.4,365.5 -431.6,365.3 -431.8,365.2 -432,365.1 -432.1,365.1 -432.3,365.1 -432.5,365.1   -432.6,365 -432.8,364.8 -432.9,364.7 -433.2,364.6 -433.4,364.6 -433.7,364.6 -434.2,364.3 -434.4,364.3 -434.7,364.4   -434.9,364.4 -435,364.2 -435.1,364 -435.2,363.7 -435.2,363.6 -434.9,363.1 -434.9,362.9 -435.1,362.7 -435.4,362.6 -435.6,362.5   -435.8,362.3 -435.8,361.9 -435.7,361.2 -435.7,361 -435.9,361 -436.2,360.9 -436.7,361 -436.8,361 -436.9,361 -437.1,361.1   -437.2,361.1 -437.3,361 -437.4,360.8 -437.5,360.8 -437.8,360.7 -438.2,360.7 -438.7,360.5 -439,360.6 -439.2,360.7 -439.5,360.7   -439.8,360.6 -441.3,360 -441.5,360 -441.8,360 -441.9,360.1 -441.9,360.2 -442,360.3 -442.2,360.4 -442.4,360.4 -442.5,360.4   -442.5,360.5 -442.7,361 -442.8,361.1 -443.1,361 -443.4,360.9 -443.8,360.5 -444.1,360.4 -444.3,360.5 -444.4,360.7 -444.3,360.9   -444.4,361 -444.5,361.2 -444.6,361.4 -444.6,361.8 -444.5,361.9 -444.5,362.1 -444.4,362.2 -444.5,362.4 -444.6,362.6 -444.7,363   -444.8,363.2 -444.9,363.3 -445.1,363.5 -445.3,363.5 -445.5,363.5 -445.7,363.5 -445.8,363.6 -445.8,363.7 -445.7,363.8   -445.7,363.9 -445.7,364.1 -445.8,364.2 -445.8,364.2 -445.9,364.3 -446.1,364.4 -446.3,364.5 -446.3,364.8 -446.4,365 -446.7,365   -447.3,364.8 -447.6,364.8 -447.9,364.9 -448,364.8 -448,364.8 -448.2,364.2 -448.3,364 -448.5,363.6 -448.7,363.2 -448.8,363   -449,362.8 -449.1,362.7 -449.1,362.7 -449.1,362.7 -449.1,362.7 -449.2,362.7 -450.1,362.9 -450.3,362.9 -450.4,362.7   -450.5,362.5 -450.5,362.5 -450.7,362.6 -450.9,362.9 -451.1,363 -450.9,363.3 -451.2,363.7 -451.9,364.2 -452.1,364.3   -452.5,364.8 -452.6,364.9 -453,365.2 -453,365.2 -453.3,365.5 -453.3,365.5 -453.5,365.5 -453.7,365.6 -454.2,365.7 -454.4,365.8   -454.4,365.8 -454.5,366 -454.6,366.4 -454.9,366.8 -455.5,367.5 -455.8,367.7 -455.8,367.7 -456.5,367.8 -456.5,367.8   -456.8,368.1 -457,368.4 -457,368.7 -456.9,369 -456.7,369.4 -456.6,369.7 -456.6,370 -456.8,370.2 -457.1,370.5 -457.1,370.5   -457.1,370.5 -457.3,370.6 -457.3,370.6 -457.4,370.6 -457.4,370.7 -457.4,370.8 -457.3,370.9 -457.4,370.9 -457.4,371   -457.5,371.1 -457.8,371.3 -457.8,371.3 -457.9,371.4 -458,371.5 -458.1,371.6 -458.1,371.7 -458.2,371.9 -458.2,371.9 -458.6,372   -458.6,372 -458.7,372 -458.7,372.3 -458.7,372.5 -458.4,372.9 -458.3,373.4 -458.2,373.5 -458.1,373.5 -458,373.5 -457.9,373.6   -457.9,373.8 -457.9,374.1 -458.2,374.9 -458.2,374.9 -458.3,374.9 -458.5,374.8 -458.7,374.8 -458.7,374.8 -458.7,375   -458.5,375.5 -458.5,375.7 -458.7,375.8 -458.7,375.8 -458.9,375.9 -459.2,375.9 -459.4,375.9 -459.7,376 -459.7,376 -460,376.5   -460.1,377 -460,377.5 -460,377.5 -460.2,377.7 -460.3,377.8 -460.3,377.8 -460.5,377.9 -460.5,377.9 -460.7,378 -460.9,378.2   -461,378.4 -461,378.6 -461,378.9 -460.9,379.4 -460.7,379.5 -460.4,379.6 -460,379.8 -459.6,380.3 -459.4,380.4 -459.1,380.5   -458.7,380.6 -458.5,380.7 -458.4,380.8 -458.3,380.9 -458.2,381 -458.1,381.1 -457.9,381.1 -457.8,381.2 -457.5,381.8 -457.3,382   -457.1,382.1 -456.8,382 -456.6,382 -456.4,382 -456.1,382.1 -455.6,382.6 -455.4,382.8 -455.4,382.8 -455.3,382.6 -455.4,381.8   -455.4,381.6 -455.3,381.4 -455.3,381.4 -455,381.3 -454.8,381.3 -454.5,381.3 -454.5,381.4 -454.5,381.5 -454.5,381.6   -454.4,381.7 -454.2,381.8 -454,381.9 -453.6,382 -453.4,382.1 -453.2,382.5 -453,382.6 -452.8,382.7 -452.4,382.8 -452.2,382.9   -451.8,383.3 -451.6,383.5 -451.3,383.5 -450.8,383.5 -450.7,383.6 -450.6,383.8 -450.5,383.9 -450.5,384.1 -450.2,384.3   -450.1,384.3 -449.8,384.4 -449.6,384.4 -449.4,384.3 -449.2,384.4 -449.2,384.5 -449.2,384.7 -449.1,384.8 -448.5,384.9   -447.3,385.1 -447,385.2 -446.7,385.5 -446.5,386.3 -446.3,386.6 -445.6,387.3 -445.4,387.6 -445.5,387.6 -445.6,387.7   -445.6,387.7 -445.7,387.8 -445.6,387.9 -445.4,387.9 -445.4,388.1 -445.3,388.2 -445.1,388.1 -444.9,388 -444.9,388 -444.8,387.9   -444.8,387.7 -444.7,387.6 -444.7,387.6 -444.5,387.6 -444.2,387.7 -444,387.9 -443.7,388.1 -443.6,388.3 -443.5,388.5   -443.5,388.6 -443.5,388.7 -443.3,388.9 -442.2,389.4 -441.9,389.5 -441.8,389.7 -441.8,389.7 -441.8,389.7 -441.8,389.7   -441.5,389.9 -440.9,390 -440.6,390.1 -440.4,390.3 -439.9,390.8 -439.3,391.1 -438.9,391.3 -438.6,391.5 -438.2,391.5   -438.2,391.5 -438,391.4 -437.5,390.8 -437.5,390.8 -437.1,390.7 -436.5,390.8 -436.2,390.8 -436.2,390.8 -435.9,391 -435.7,391.2   -435.5,391.3 -434.9,391.5 -433.5,392.6 -432.5,393 -431.9,393.6 -431.4,393.8 -430.3,393.7 -428.8,393.3 -428.5,393.4   -428.4,393.4 -428.2,393.7 -428.1,394.2 -428,395.1 -427.8,395.6 -427.6,395.9 -426,396 -425.7,396.1 -425.2,396.3 -424.4,396.5   -422.9,396.5 -422.4,396.7 -421.8,397.1 -421.7,397.3 -421.5,397.5 -421.4,397.7 -421.3,397.8 -421,397.9 -420.8,397.9   -420.8,397.9 -420.5,397.8 -420.3,397.6 -420.1,397.2 -420,397.1 -420,396.9 -420.1,396.7 -420.2,396.6 -420.1,396.4 -420.1,396.3   -420.1,396.3 -419.8,396.2 -418.6,396.2 -417.3,396.4 -416.4,396.6 -414.7,397.5 -414.1,397.6 -414,397.7 -414,397.7 -413.9,397.6   -413.9,397.6 -413.9,397.6 -413.7,397.5 -413.7,397.5 -413.7,397.4 -413.8,397.3 -413.8,397.2 -414.2,396.8 -414.3,396.6   -414.3,396.6 -414,396.5 -413.5,396.5 -413.2,396.4 -413,396.5 -412.5,396.6 -412.1,396.5 -412.1,396.5 -411.9,396.4 -411.2,395.7   -411.2,395.7 -411,395.6 -410.8,395.7 -410.7,395.9 -410.6,396 -410.5,396.1 -410.2,396.2 -410.1,396.3 -409.9,396.6 -409.8,396.6   -409.5,396.5 -409.3,396.7 -409.2,396.9 -408.9,397.2 -408.7,397.3 -405.1,397.9 -404.8,398.1 -404.5,398.6 -404.3,399   -404.1,399.5 -404.1,399.9 -404.2,400.4 -404.3,400.7 -404.5,401 -404.6,401.2 -404.5,401.5 -404.4,401.6 -402.9,402 -402.7,402   -402.6,401.9 -402.6,401.9 -402.4,401.8 -402.2,401.8 -402,402 -402,402 -401.8,402.2 -401.1,402.4 -400.9,402.5 -400.7,402.7   -400.6,403 -400.5,403.2 -400.2,403.3 -400.1,403.4 -399.9,403.4 -399.7,403.5 -399.7,403.7 -399.7,403.9 -399.4,403.9   -398.7,403.6 -398.4,403.6 -397.9,403.8 -397.9,404.2 -397.9,404.6 -397.5,404.9 -396.4,405.2 -396.2,405.2 -395.8,405.1   -395.7,405 -395.6,404.9 -395.6,404.9 -395.4,404.7 -395.2,404.6 -395.2,404.6 -395,404.6 -394.8,404.6 -394.5,404.6 -394.1,404.4   -393.6,404.1 -392.6,403.7 -392.4,403.8 -391.5,404.3 -391.3,404.5 -391.2,404.9 -391.3,405.8 -391.2,406.2 -391,406.4   -390.3,406.9 -390.2,406.9 -390.1,406.9 -390,406.8 -389.9,406.9 -389.9,407 -389.9,407.1 -389.8,407.2 -389.8,407.3 -389.6,407.3   -389.4,407.2 -389.3,407.1 -388.5,406.5 -388.4,406.4 -388.2,406.4 -387.9,406.3 -387.5,406.2 -387.1,406.3 -386.3,406.8   -386.2,406.8 -386.2,406.9 -385.9,406.9 -385.8,406.9 -385.8,406.9 -385.6,406.9 -385.5,407 -385.4,407 -385.4,407.1 -385.2,407.1   -385.2,407.1 -384.9,406.9 -384.4,406.8 -384.2,406.7 -383.9,406.8 -383.9,406.8 -383.9,407 -383.8,407.1 -383.7,407.1   -383.4,407.1 -383.3,407.1 -382.9,407.2 -382.2,407.6 -381.8,407.7 -381.6,407.8 -381.4,407.9 -381.2,408 -381,408.2 -381,408.2   -380.8,408.3 -380,408.6 -379.1,409.1 -378.9,409.2 -378.9,409.2 -378.8,409.1 -378.7,408.9 -378.6,408.8 -378.6,408.8   -378.4,408.8 -378,408.9 -377.9,408.9 -377.6,408.9 -377.6,408.9 -377.3,408.7 -377,408.4 -376.9,408.2 -376.9,408.2 -376.5,408   -376.2,407.9 -375.7,407.7 -375.7,407.7 -375.6,407.7 -375.5,407.6 -375.5,407.6 -375.2,407.3 -375,407.1 -375,407.1 -374.9,407.1   -374.8,407.4 -374.8,407.6 -374.7,408.2 -374.7,408.2 -374.7,408.2 -374.5,408.5 -374.3,408.9 -374.1,409.3 -373.7,409.4   -373,409.3 -372.7,409.2 -372.5,409.3 -372.5,409.5 -372.3,409.7 -372.2,409.8 -371.7,410 -371.5,410 -371.5,410 -371.4,409.9   -371.1,409.5 -371,409.3 -370.6,409.1 -370.6,409.1 -370.2,409 -369.8,409 -369.5,409 -368.6,409.5 -368.2,409.6 -367.7,409.4   -367.7,409.4 -367.4,409.2 -367.3,409.1 -367.3,409.1 -367,409 -366.8,409.1 -366.6,409.3 -366.4,409.3 -366.2,409.2 -366.2,409.2   -366.2,409 -366.1,408.8 -366.1,408.8 -365.9,408.7 -365.7,408.8 -365.5,408.9 -365.3,408.9 -365.3,408.9 -364.9,408.6   -364.9,408.6 -364.7,408.5 -364.7,408.6 -364.4,408.8 -364.3,408.8 -364.3,408.9 -364.2,409.1 -364.1,409.2 -363.9,409.4   -363.6,409.6 -363.4,409.7 -363,409.7 -363,409.7 -362.5,409.3 -362.2,408.7 -362.1,408.2 -362.1,408.2 -362.1,408 -362.1,407.9   -362,407.6 -361.8,407.1 -361.3,406.1 -361.1,405.6 -361,405.3 -361,405.1 "/></svg>