<svg xmlns="http://www.w3.org/2000/svg" xmlns:xlink="http://www.w3.org/1999/xlink" version="1.1" x="0px" y="0px" viewBox="0 0 100 100" fill="#999999" enable-background="new 0 0 100 100" xml:space="preserve"><path d="M58.8,4.7l1-0.5l0.6-0.1h2.3l2.2-0.5L64,3.1l-5.3,0.2l-0.3-0.1L58,3.5L57.9,4l0.4,0.5L58.8,4.7z M48.5,7.5l3-1.3L52.3,6  l1-0.4l0.9,0l0.3-0.2l-0.1-0.1l-0.1-0.3l-0.1-0.1l1.3-0.1l0.6-0.2l0.5-0.7l-3.2,0.6l-0.3,0.2L52.9,5l-2.9,0.6h-0.5L49,5.9l-1.2,0.4  L47.6,7l0.3,0.5H48.5z M68.6,3.5v0.1l0.1,0.2l0.4-0.5L73,2.1h0.3V1.8l-0.6-0.2l-2.2,0.2L69.9,2l-0.8,0.4l-0.6,0.5l0.2,0.5L68.6,3.5z   M78.8,0.7l0.1-0.2L79,0.4l0.1-0.1h-0.5l-0.2,0.2l-0.1,0.2l0.3,0.2L78.8,0.7z M75.9,0.5l0.8,0.3l0.1-0.1l0.1-0.1l0.1-0.1H77L75.8,0  l-0.3,0l0,0.2L75.9,0.5z M42.6,12.1l0.5-0.7l1.7-1.7l0.6-0.2l0.3-0.2h0.6V9.1l-1.1-0.2l-1.5,0.9l-1.4,1.3l-0.9,1.2l0.7,0.3  L42.6,12.1z M91.9,14.3l0.2-0.6l0.1-0.6l0-0.6l-0.1-1h-0.2l-1.6-0.4l-0.7-0.4l-0.1-0.6l-0.1-0.3V9.6l0.1-0.1l0.2-0.2V9.1h-0.1  l-0.2,0.2L89,9.4l-0.3-0.1l-0.2-0.2l-0.4,0.1l-0.9-0.5l-0.7-0.2l-0.2-0.2l-0.1-0.2l-0.1-0.1l0-0.1l-0.5-0.4l-0.1-0.1l-0.7-3  l-0.3-0.3L84.1,4l-2.2-0.4l-5.2,0.8l-3.3,1l-0.5,0.4l-0.2,0.1l-0.2-0.1l-0.4-0.3l-0.2-0.1l-4.3,0.1l-2.1,0.1L64,6.4l-0.5,0L62.7,7  l-3.5,1.4l-0.8,0.7l-1,0.2L57,9.4l-0.4,0.4l-0.3,0.5l-0.4,0.4l-0.8,0.4l-0.5,0.4l-0.8,0.9l-0.4,1.1L52.8,16l-0.4,0.9L52,17.2l-1,0.2  l-0.4,0.3l-0.3,0.4l-4.4,3.9L45,22.4l-0.9,0.1l-0.5,0.2l-0.9,0.8l-0.5,0.3l-0.9,0.1l-0.9-0.3l-0.5-0.7l0.3-1.1l-0.2-0.3l-0.2,0.2  l-1.3-0.2l-0.2,0.3l-0.2,0.7L38,23.4l0,0.7l-0.2,1.2l-0.9,2.4l-0.2,1.1l-0.1,0.5l-0.4,1.8l-0.9,6.9L34.8,39v0.3l-0.2,1l-1.3,3.9  l-2.2,4l-2.7,3.9L25.3,56l-0.7,0.5l-0.9,0.1l-1-0.2l-0.1,0.2l-0.1,0.3l0.2,0.6l0.4,1.4l0.1,0.5l-0.1,0.1L23,59.7l-0.1,0.2l-0.1,0.3  l0.1,0.2l0.1,0.1l0.1,0.1l0.5,0.8l0.2,0.3L23.6,62l-0.2,0.1l-0.2,0l-0.1,0l-0.6-0.3l-0.7-0.2l-0.4,0l-0.2,0.2l-1.4,0.4l-0.6,0.4  l0.2,1h0.2l0.2,0l0.1-0.1l0.4-0.1h0.5l0.6-0.2l0.4-0.3l0.6,0.4l0.5,0.5l0.4,0.7l0.1,1.2l0.3,0.5l1.5,0.5l0.5,0.4l0.2,0.2l-0.7,0.1  l-0.4,0.2l-0.3,0.3l-0.1,0.3v0.4l0.1,0.4l0.1,0.3l0.2,0.2l0.2,0.2l0.2,0.1l1,0l0.3,0.3l0.1,0.7l-0.5-0.4l-0.6-0.2l-2-0.1L23,70.1  l-1.2,0.6l1.7,1.6l0.5,0.3l0.3,0.1l0.7-0.1l0.3,0l0.9,0.4l1,0.2l0.6,0.4l0.5,0.6l0.2,0.8l-0.3,0.8l-0.7,0.2l-0.7,0L26.5,76l-0.4-0.2  l-1.1,0.2l-0.5-0.2l-0.3-0.4l-0.4-1.2l-0.3-0.5l-0.9-0.8l-1.1-0.4l-2.1-0.2v-0.2l0.1-0.1l0.4-0.2l0.2-0.1l-0.2-0.5l-0.3-0.4  l-0.4-0.3l-0.3-0.2l-0.5-0.1l-5.9,0.6l-2.3,1.4L10,72.2l0.1,0.6l0.2,0.4l0.7,0.6l0.3,0.4l0.3,0.6l0.3,0.5l0.4,0.2l1.2,0.3l0.5,0  l0.9-0.3l0.3,0l0.9,0.8l1.3,0.7l0.6,0.6l0.2,0.1l0.2,0l0.3-0.2l0.8-0.1l0.3-0.2l0.2-0.4l0.7-1.2l0.3-0.2l0.9,0.1l0.4,0.2l1.2,1  l0.4,0.3l0.5,0.1l2,0L27,77l0.2-0.3l0.2,0.2l0.1,0.3v0.4l0.1,0.4l0.2,0.4l0.1,0.1l0.6,0l0.2,0.1l0.5,0.3l0.2,0.1l0.2,0.1l0.9,0.1  h0.2l0.4-0.2l0-0.1l0.1-0.5l0-0.1l-0.1-0.3l-0.5-0.6l-0.1-0.1L30.4,77v-0.4l0.1-0.3l0.1-0.2l-0.3-0.3l1.2-0.7l0.7-0.3l0.4-0.2  l0.6-0.1h0.1l0.3,0.1l0.2,0.3l0,0.4v0.1l-0.2,0.4l0,0.2l0,0.2l0.1,0.1l0.3,0.2l0.1,0h0.1l0.2,0l0.5-0.1l0.7,0.2h0.1l0.3,0l0.3-0.1  l0.2-0.2l1.7-2.1l0.7-0.4l0.3,0l0.2,0.1l0.2,0.1l0.1,0.1l0.3,0.2l0.2,0.3l0.1,0.5l-0.1,0.3L40,75.8l-0.1,0.4l0,0.2l0.1,0.3l0.1,0.3  l-1-0.4l-0.2,0l-0.1,0.4l0.5,0.2l1.5,0.1l0.2,0.1l0.2,0.1l0.4,0.2l0.4,0.2l0.5-0.1l0.2-0.3l0.3-0.3l0.3-0.5l0.2-0.2l0.1-0.2l0.2-0.3  l0.1-0.2l0.1-0.2l0.1-0.2l0-0.1l0.1-0.2l0.3,0.2l0,0.1l0,0l0.7,0.4l0.2,0.3l0.3,0.5l-0.1,0.6l-0.2,0.5l0,0.3l-0.1,0.5l0.1,0.3  l0.7,0.8l0.1,0.3l0.2,0.8l0.1,0.2v0h0l0.4,0.2l0.8-0.1h0.1l0.3,0l0.4,0.5v1.2l0.4,0.1l0.8-0.2l2.6,0.1l0.5-0.2l0.9-0.6l0.1-0.1  l0.3-0.2l0.5,0.1l0.2,0.2l0.3,0.2l0.3,0.4l0.1,0.1l0.2,0.7l0.1,0.8l0.5,0.4l1.2,0.4l0.2,0.1l0.1,0.1l0.2,0.2l0.1,0.1l0.1,0.1h0.4  l0.5-0.1l0.4-0.1H60l0.4,0.2l0.5,0.6l0.3,0.2l0,0l0.3-0.1l0.3-0.1h0.1l0.3,0l0.2,0.4l0.1,0.2l-0.2,0.2L62.1,87L62,87.4l0.5,0.5  L62.4,88l-0.1,0l-0.1,0l-0.1,0.1l-0.2,0l-0.2,0l0,0.1l0,0.2l0,0.1l0.1,0.1v0l-0.2,0.5l-0.1,0.2v0l-0.2,0.2l-0.2-0.2l-0.2,0.1  l-0.1,0.2l0,0.1l0,0.2l0,0.3l0.3,0.4l-0.4,0.8l-0.9,1.4l0.5-0.1h0.2l0.2,0.1l-0.1,0.1l-0.2,0.3L60.1,94l-0.3,0.4l-0.1,0.1l-0.2,0.1  l-0.2,0.1l-0.1,0l-1.3,1.4l-0.3,0.3l0,0.5v0.2l0.1,0.1l0.3,0.4l0.5,0.3l0.1,0l0.4,0.2h0l0.3,0.1l0,0.3v0.1l-0.1,0.3L59,99.6h0  l0.2,0.1l0.2,0.1l0.2,0h0.1l0.1,0l0.1,0l0.3-0.5l0-0.1l0.2-0.2l0.1,0.1l0.1,0l0.4,0.5l0.2,0.2l1.9-0.1l0.5,0.2h0l1.6,0.1l0.2,0  l0.3-0.1l0.1-0.4l-0.1-0.2l-0.2-0.2l-0.2-0.3l-0.1-0.4l0.3,0.1l0.3-0.3l0.1-0.4l-0.1-0.3l0-0.3l0.2-0.3l0.3-0.2l0.5,0l0.2-0.3  l0.1-0.4v-0.3L67,95l0-0.2l0.1-0.2l0.1-0.1l-0.7-0.2L66,93.9l-0.2-0.2l-0.1-0.3v-0.5l0.1-0.4l0.1-0.3L66,92l-0.8,0.1l-0.6-0.2  l-0.3,0L64,92l-0.6,0.3l-0.3,0.1l0-0.9l-0.3-1l-0.1-0.8l0.6-0.3l0.3,0.2l0.3,0.3l0.3,0.3l0.4-0.1l0.3-0.3l0.4-0.9l0.3-0.3l2-1.6  l1.2-0.7l0.3-0.4l-0.5-0.4l0.5-0.4l0.2-0.1l-0.5-0.2l-1.1,0.7l-0.5-0.3L67,84.5l0.1-0.8l0.2-0.7l0.2-0.4l0.5-0.6L69,80l0.2-0.2  l0.5-0.4l0.2-0.3l0.1-0.4l0.1-0.8l0.1-0.3L70,77.2l0-0.6l0.2-0.7l0.1-0.7l-0.1-0.6L70,73.4l-0.9-1l-1.5-2l-0.1-0.4l0.1-0.5l0.2-0.8  L66.5,68L66,67.4l0.3-1L66,66.2l-0.5-0.4l-0.2-0.1l-0.6,0l-0.2-0.1l0-0.4l0.5-0.5l0-0.7l-0.3-0.7L64.2,63l0.1-0.3l0.4-0.2l0.9-0.2  l0.4-0.2l0.4-0.3l0.3-0.2l0.9-0.2l0.7,0.2l0.5,0.1l0.4,0.1l-0.3-0.5l-0.8-0.8l-0.3-0.2l0.7-0.4l0.7,0.3l0.7,0.6l0.7,0.3l0.7-0.1  l0.2,0l0.2,0.2l0.2,0.4l0.1,0.1l0.8,0.1l0.4,0.2l0.1,0.5l0.8-0.2l0.1-0.4l-0.2-0.8l1.4,0.4h0.4l0.4-0.2l1.1-0.8l2.2-0.7l2-0.1  l0.6-0.3l0.5-0.6l0.5-0.9l0.2-0.2l0.2,0l0.1-0.1l0-0.4l-0.1-0.2l-0.1-0.2l-0.5-0.6l-1.4-0.8l-0.5-0.1L80.6,55l-0.1-0.5l0.2-0.4  l0.2-0.1h0.2l0.3-0.1l0.2-0.2l0.2-0.5l0.1-0.2l0.4-0.4l0.3-0.2l1.4-0.2l0.3-0.2l0.5-1l0.4-0.4l0.9-0.4l0.4-0.4l0.5-0.8l0.2-0.3  l1-0.6l0.1-0.2l-0.2-0.3L88,46.7v-0.7l0.2-0.5l0.4-1l0.2-1.3l-0.3-0.9l-1.3-2.2l-0.1,0.1l-0.1,0.2l-0.2,0.2l-0.5,0.2l-0.6,0L85,40.7  l-1.1-0.4L82.1,40l-0.6-0.3l-0.4-0.5L81,38.7l0-0.6l-0.1-0.6l-0.3-0.6l0.4,0l1.2-0.6l-0.7-0.6l-0.2-0.2v-0.3l0.1-0.3l0-0.3l-0.2-0.4  l0.8-0.5l0.7-0.2l2.1,0l1.2,0.4l1.1-0.2l0.3,0.1l0.8,0.2l0.4-0.8l0.2-1.3l0.2-3.9l0.2-1.2l0.4-1.1l1.8-2.8l0.5-1.2l0.2-1.2l0-1.3  l-0.2-2.6l-0.1-0.3L91.6,16l-0.1-0.2l0-0.4l0.1-0.3L91.9,14.3z M63.1,38.3l-0.2,0.8l-0.4,0.7l-0.9,1.3l-0.5,0.5l-0.7,0.5l-0.7,0.4  L58.3,43l-0.7,0.5l-1,1.2L56,46.4l-0.2,0.3l-1.9,0.5l-0.9-0.1l-1-0.5l-2-1.5l-0.4-0.1l-0.9,0.1L48,45.1L47.6,45l-1.1-0.8L46.1,44  l-1-0.1l-0.4-0.1L43.4,43l0.1-0.2l0.1-0.1l0,0v-0.3l0.3,0.1l0.1,0.1l0.2,0.1v-0.3l0.3,0.2l0.2-0.4l0.2-0.6l0.3-0.3l0.2-0.1l0.2-0.2  l0.2-0.3l0.2-0.4l-0.4-0.2L45.6,40l-0.1-0.3l-0.2-0.2l0.4-0.2l0.2,0l-0.1-0.4l-0.1-0.1l0.4-0.5l-0.2-0.9l-0.7-1.6l-0.3-1l0-0.9  l0.3-0.6l0.8-0.1l0.6,0.2l0.2,0.1l0.4,0.4l0.3-0.1l0.3-0.1l1.3-0.9l0.4-0.4l0.3-0.9l0.3-0.3l0.7-0.4l-0.1-0.4L50.6,30l-0.1-0.4  l-0.1-0.2l-1.1-0.5l-0.4,0l-0.3,0.1l-0.2,0.1l-0.2,0.2l-0.3,0.2l-0.3-0.2L47.3,29l-0.2-0.1l-0.3-0.5l-0.1-2.3l-0.1-0.8l-1.1-2.2  l-0.5-0.4l0.9-0.4l0.9-0.6l3.5-3.1l1.8-1.2l0.2,0.8l0.1,0.3l0.2,0.4l0.2,0.1l0.1,0.5l0,0.5l-0.1,0.4l0.2,0.4l0.1,0.6L53.1,22  l-0.4,0.5l0.3,0.6l-0.2,0.3l-0.4,0.2L52.2,24L52.1,24L52,24.1v0.4l0.1,0.2l0.1,0.1l0.2,0.1l0.1,0.2l0.5,0.4l0.7,0.2l1.4,0.1l0.3,0.1  l0.5,0.3l0.3,0.1l0.4-0.1l0.2-0.1l0.5-0.3l0.4-0.1h0.3l1.6,0.5l0.2,0.2L59,26.4l-0.7,0.5l-0.5,0.7l-0.4,0.9l-0.2,0.9L57,30.9l0,1.4  l0.4,0.6l0.3,0.2l0.5,1l0.2,0.3l0.4,0.1l2.9-0.2l0.4,0.1l0.3,0.2l0.2,0.4l0.2,0.6l0.3,1.3l0.1,0.7L63.1,38.3z M58.8,35l-0.6-0.6  l-0.4,0.3l-1.3,0.4l-0.4,0.3l-1,1l-0.2,0l-0.4-0.1l-0.2,0.1l-0.5,1.4L53.6,38l-0.8,0.3l-1,0.9l-1.6,0.7l-0.9,0.9l-1.4,0.7l-0.6,0.6  l-0.4,0.2L47,43l0.1,0.5l0.1,0.4l0.5,0.2l1-0.1l0.4,0.1l1.5,0.6l0.7,0.4l1.3,1l0.6,0.2l1.5-0.1l0.8-0.3l0.5-0.6l0.1-0.9l-0.2-1.1  l0.6-0.3l0.3-0.1l0.4,0l0.3-0.2l0.5-0.7l0.3-0.2l0.6-0.1l1-0.5l0.6-0.1L61,41l0.6-0.6l0.5-0.7l0.4-0.7l0.3-0.9v-0.7l-0.4-1.6  L58.8,35z M16,67.6l1-0.1l0.1-0.1l0.6-0.6l0.3,0l0.2,0.2l0.1,0.2l0.1,0.1l0.9,0.4l0.4,0.3l0.1,0.4l0.2,0.5l0.5,0.3l0.8,0.3l0.4,0  l1.7-0.3l0.4-0.1l0.4-0.2l0.2-0.4l-0.1-0.6l-0.4-0.3l-0.9-0.2l-0.2-0.2l-0.1-0.2l-0.1-0.2l-0.9-1l-0.4-0.3l-0.5-0.1l-2.1-0.1  l-0.3-0.2l-0.4,0l-0.1,0l-1.8,0.3l-0.8,0.5L15.2,67l0.3,0.4L16,67.6z M26,78.1l-0.1,0.1l-0.4,0.6l-0.7-0.1l-0.1-0.1l-0.2-0.2  l-0.5-0.1l-0.2-0.1l-0.2-0.2l-0.2-0.5L23,77.4l-0.3-0.2L22.2,77l-0.5,0l-0.2,0.3L21.4,78l-0.3,0.4L19,79.2l-0.5,0.1l-0.8-0.2h-0.9  l-0.5-0.2l-0.7-0.7l-2.1-0.6l-1.4-0.9l-0.3,0L11.4,77l-3.5,1.2L8,79.1l0.1,0.5L8,80.4l0,0.8l0.2,0.6l0.1,0.3l0.5,0.6l0.4,0.2L9.4,83  L9.9,83l0.2,0l0.9-0.1l0.2,0l0-0.1l0-0.2l-0.1-0.4l0-0.1l0-0.3l0.2-0.2h0l0.3-0.1l0.4,0l0.9-0.2h0.1l0.5,0l0.5,0.1l2.7,0.9l0.4,0.3  l0.1,0.5l0,0.4l0,0.4l0.3,0.4l0.2,0.1l0,0l2.6,0l0.3-0.1l0.2-0.1l0.1-0.1l0.9-0.7l2.7-1.4l1.1-0.9l0.9-1.2l0.1-0.2l0-0.1l0.2-0.8  v-0.1l-0.5-0.3L26,78.1z M38.8,20.6l0.7-0.2l0.5-1l1-0.8l0.6-0.9l0.3-0.6l0.1-0.5h-0.4v-0.2L42,16v-0.6l-0.2-0.7l-0.3-0.5l0.1-0.2  l0-0.2l-0.1-0.2l-0.1-0.2l-0.7,0l-0.5,0.9l-0.5,1.1l-1,0.9l-0.5,0.9l-0.4,1.1l-0.1,1l0.4,0.9L38.8,20.6z"/></svg>