<svg xmlns="http://www.w3.org/2000/svg" xmlns:xlink="http://www.w3.org/1999/xlink" version="1.1" x="0px" y="0px" viewBox="3 0 94 100" fill="#999999" enable-background="new 3 0 94 100" xml:space="preserve"><path d="M3.542,90.221l-0.023,0.004l-0.018,0.041l0.008,0.043l0.093,0.027l0.02-0.006v-0.055l-0.031-0.041L3.542,90.221z   M3.528,90.412L3.46,90.389l-0.07-0.005L3.346,90.42l-0.003,0.048l0.118,0.11L3.5,90.602l0.035-0.051l0.027-0.078l0.031-0.043  l-0.016-0.014L3.528,90.412z M3.353,88.314l0.125-0.043l0.108-0.045l0.096-0.014l0.086-0.036l0.002-0.038l-0.11-0.035l-0.11,0.004  l-0.077,0.041h-0.12l-0.159,0.037l-0.026,0.068l-0.003,0.033l0.037,0.029L3.353,88.314z M4.346,90.84l-0.12,0.025l-0.103,0.074  l-0.014,0.104l0.022,0.086l-0.013,0.03l0.032,0.017l0.076-0.028l0.214-0.141l0.052-0.061l-0.04-0.063L4.346,90.84z M4.241,88.393  l0.218-0.018l0.042-0.014l0.063,0.016l0.842-0.229l0.022-0.02l-0.039-0.021l-0.046,0.004L4.962,88.13L4.673,88.23l-0.202,0.008  l-0.097,0.072l-0.177,0.02l-0.024,0.023L4.2,88.367l-0.001,0.017L4.241,88.393z M3.871,89.941l-0.034,0.01H3.804L3.67,89.986  l-0.015,0.017l-0.006,0.035l-0.04,0.032l-0.021,0.031l0.015,0.022l0.094,0.021l0.067,0.002l0.15-0.123l0.033-0.045l-0.021-0.039  L3.871,89.941z M68.143,15.481l-0.019,0.094l0.077,0.191l-0.004,0.086l-0.113,0.071l0.075,0.031l0.276,0.004l0.116-0.031  l0.017-0.077l-0.053-0.187l-0.043-0.106l-0.104-0.092l-0.121-0.04L68.143,15.481z M3.626,87.84l0.484-0.4l0.133-0.013l0.111,0.147  l-0.01,0.091l0.023,0.155l0.041,0.152l0.046,0.084l0.057,0.014l0.072-0.002l0.062-0.031L4.7,87.896l0.063,0.041l0.056,0.076  l0.016,0.043l0.173-0.019l0.136-0.07l0.088-0.122l0.031-0.171l-0.022-0.168L5.18,87.332l-0.104-0.15l-0.144-0.08l-0.071-0.01  L4.717,87.1l-0.623,0.15l-0.196-0.004l-0.091,0.018l-0.061,0.115l-0.089,0.117l-0.023,0.025l-0.09,0.054l-0.092,0.126l-0.074,0.141  l-0.04,0.104l0.164-0.041L3.626,87.84z M70.168,14.213l0.131-0.014l0.117-0.036l0.068-0.064V14l-0.058-0.081l-0.069-0.064  l-0.031-0.049L70.221,13.8l-0.197,0.089l-0.112,0.148l0.149,0.171L70.168,14.213z M75.373,17.033l0.064,0.013l0.051,0.031  l0.014,0.029l0.003,0.026l-0.006,0.024l-0.011,0.021l-0.023,0.034l-0.01,0.03l0.018,0.026l0.098,0.039l0.064,0.013l0.031,0.003  l0.051,0.002l0.049-0.003l0.049-0.01l0.05-0.018l-0.037-0.077l-0.05-0.051l-0.066-0.027l-0.087-0.009l-0.086-0.204l-0.05-0.061  l-0.213,0.053l0.039,0.084L75.373,17.033z M72.021,14.188l-0.201-0.196l0.053,0.185l0.178,0.157l0.221,0.078l0.182-0.05l0.056,0.059  l0.025,0.043l0.002,0.047L72.51,14.58l0.186-0.036l0.066-0.002l0.063,0.039l0.024,0.068l0.019,0.196l0.041,0.081l0.082-0.002  l0.114-0.055l0.103-0.026l0.045,0.083l0.004,0.098l0.027,0.093l0.059,0.058l0.109-0.01l0.071-0.058l0.152-0.261l-0.063-0.042  l-0.147-0.17l-0.008-0.031l0.008-0.037l0.001-0.03l-0.025-0.014l-0.045-0.006l-0.043-0.018l-0.041-0.024l-0.033-0.027l-0.098-0.134  v-0.091l0.045-0.085l0.026-0.117l0.04-0.062l0.07-0.08l0.039-0.069l-0.069-0.03l-0.073-0.013L73.061,13.7l-0.203-0.102l-0.111-0.092  l-0.018-0.089l0.152-0.061l-0.232-0.141l-0.032-0.047l-0.019-0.096L72.545,13l-0.066-0.047l-0.08-0.025l-0.199,0.024l-0.09,0.121  l0.029,0.156l0.154,0.128l-0.088,0.078l-0.1,0.03l-0.232-0.001l0.091,0.13l0.155,0.066l0.107,0.066l-0.066,0.135l-0.025,0.084  l0.016,0.104l0.002,0.098l-0.069,0.063L72.021,14.188z M69.449,18.649l0.098-0.068l0.08,0.014l0.17,0.13l-0.059,0.058l0.316,0.097  l0.166,0.02l0.161-0.017l0.155-0.045l0.063-0.001l0.102,0.01l0.033-0.018l0.021-0.059l-0.008-0.076l-0.059-0.157l0.008-0.077  l0.086-0.064l0.109-0.026l0.061-0.04l-0.068-0.106l-0.078-0.083l-0.043-0.022l-0.172,0.076l-0.342,0.241l-0.145,0.076l-0.082-0.039  l-0.063-0.077l-0.084-0.043l-0.393,0.007l-0.06-0.007l-0.065,0.095l-0.019,0.133l0.031,0.092L69.449,18.649z M6.342,84.207  l0.085,0.098l0.063,0.107l0.151,0.056l0.169,0.04l0.127,0.057l0.136,0.099l0.104,0.021l0.261-0.035l-0.291-0.521l-0.111-0.264  l-0.071-0.279l-0.022-0.026l-0.02-0.02L6.91,83.516l-0.001-0.037L6.44,84.008l-0.052,0.076l0.015,0.035l-0.077,0.027L6.342,84.207z   M6.671,94.361l-0.046-0.004l-0.116,0.009l0.07,0.062l0.102,0.082L6.67,94.463l0.011-0.066L6.671,94.361z M16.589,98.168  l0.093,0.021l0.086,0.009l0.086-0.037l0.021-0.052l0.048-0.197l0.038-0.074L16.9,97.816l-0.07-0.045l-0.057-0.056l-0.024-0.062  l-0.026-0.03l-0.059,0.012l-0.103,0.042l-0.101,0.006l-0.418,0.104l-0.087-0.003V97.73l0.061-0.026l0.036-0.031l0.027-0.042  l0.029-0.054l-0.304-0.095l-0.198-0.037l-0.213-0.108l-0.079-0.024l-0.17,0.063l-0.271,0.24l-0.195,0.016l0.377-0.363l0.022-0.086  l-0.078-0.15l0.146-0.053l0.438,0.013l-0.053,0.106l0.703,0.047l0.193-0.047v-0.049l-0.159-0.059l0.153-0.102l-0.094-0.097  l-0.176-0.071l-0.095-0.021l-0.046-0.105L15.9,96.521l-0.13-0.063l-0.109-0.078l-0.693-0.674L14.831,95.6l-0.148-0.086l-0.365-0.13  l-0.087,0.015l-0.108,0.076l-0.102,0.041l-0.119-0.015l-0.208-0.054l-0.236,0.006l-0.173,0.041l-0.109,0.113l-0.041,0.218  l-0.019,0.042l-0.03,0.039l-0.013,0.044l0.033,0.058l0.036,0.037l0.024,0.033l0.012,0.038l0.004,0.05l-0.03,0.059l-0.061,0.058  l-0.033,0.067l0.048,0.084l0.262,0.273l0.102,0.166l0.04,0.176l-0.018,0.107l-0.044,0.084l-0.129,0.152l-0.101,0.063H12.99  l-0.096,0.041l-0.037,0.168l0.06,0.206l0.03,0.187l-0.134,0.104l-0.105-0.007l-0.092-0.033L12.514,98.1l-0.126,0.032l-0.184,0.085  l-0.082,0.053l-0.079,0.078l-0.061,0.107l0.001,0.087l0.026,0.09l0.012,0.117l-0.039,0.097l-0.053,0.081l0.001,0.071l0.134,0.064  l-0.269,0.092l-0.159,0.086l-0.15,0.016l-0.08,0.049l-0.091,0.125l-0.095,0.188l-0.049,0.197l0.043,0.148L11.375,100l0.265-0.012  l0.262-0.045l0.142-0.053l0.11-0.109l0.138-0.102l0.098-0.002l-0.002,0.188l0.244-0.181l0.086-0.101l0.095-0.147l-0.472,0.125  L12.1,99.594l-0.141-0.104l0.227-0.057l0.399-0.219l0.123,0.063l0.05-0.188l0.003-0.028l0.059-0.024l0.129-0.022l0.162-0.103  l0.063,0.057l0.051,0.111l0.074,0.094l0.097,0.011l0.281-0.033l0.121,0.047l0.103,0.063l0.135,0.044l0.138,0.002l0.104-0.057  l0.143-0.129l0.485-0.311l0.196-0.063l0.482-0.058h0.578l-0.089-0.121l0.269,0.08l0.085-0.039l-0.049-0.189l0.042-0.056l0.171,0.007  l0.059,0.031l0.058,0.101l0.042,0.028l0.06,0.002l0.081-0.008l0.058-0.025l-0.013-0.049l-0.1-0.076l-0.351-0.162v-0.054  L16.589,98.168z M63.563,53.184l-0.207,0.021l-0.08,0.018l-0.111,0.076l-0.096,0.018l-0.098-0.021l-0.113-0.053l-0.105-0.068  L62.67,53.1l-0.072,0.021l-0.162,0.025l-0.149,0.078l-0.084-0.006l-0.084-0.02l-0.089,0.005l-0.139,0.069l-0.106,0.072l-0.115,0.035  l-0.17-0.043l-0.081,0.041l-0.219,0.047l-0.184,0.004l0.025-0.092l0.107-0.074l0.14-0.068l0.144-0.028l0.119,0.037l0.055-0.08  l0.082-0.033l0.092,0.011l0.097,0.051L62,53.041l0.206-0.047l0.407-0.001l0.109-0.017l0.055-0.043l0.041-0.052l0.063-0.049  l0.157-0.075l0.003,0.018l0.025-0.01l0.098-0.023l0.036-0.016l-0.048-0.117l-0.055-0.07l-0.164-0.135l-0.062-0.077l-0.058-0.103  l0.002-0.064l0.117,0.037l0.025-0.075l0.055-0.093l0.055-0.059l0.023,0.036v0.318l0.033,0.077H63.2l0.073-0.03l0.029-0.021  l-0.019-0.021l0.096-0.058l0.109-0.049l0.026,0.021l0.021-0.068l0.008-0.147l0.046-0.077l0.399-0.483l0.059-0.135l-0.059-0.1  l-0.109,0.031l-0.313,0.237l-0.164,0.162l-0.131,0.103l-0.149,0.041l-0.14-0.094l-0.034-0.066l-0.002-0.051l0.034-0.033l0.166-0.021  l0.039-0.027l0.011-0.056l0.002-0.092l-0.041-0.111l-0.095-0.116l-0.125-0.09l-0.117-0.027l0.029,0.144l-0.074,0.125l-0.131,0.043  l-0.131-0.101l-0.119,0.14l-0.146,0.035l-0.162-0.038l-0.165-0.083l-0.282-0.226l-0.133-0.045l-0.014,0.164l-0.12-0.045l-0.054,0.03  l0.01,0.079l0.063,0.1h-0.27l0.057,0.09l0.24,0.199l0.102,0.037l0.049-0.082l0.033-0.121l0.049-0.076l0.127,0.002l0.066,0.086  l-0.004,0.115l-0.134,0.156l0.035,0.076l0.132,0.152h-0.236l-0.101,0.088l-0.067,0.147l-0.136,0.188l-0.044-0.238l0.02-0.121  l0.082-0.122l-0.27-0.048l0.012,0.078l-0.012,0.05l-0.039,0.024l-0.066,0.007l-0.058,0.019l0.003,0.042l0.016,0.054l-0.016,0.05  l-0.097,0.065l-0.101,0.053l-0.08,0.072l-0.041,0.123l0.067,0.237l0.207,0.008l0.415-0.136l-0.053,0.105l0.041,0.026l0.031,0.017  l0.037,0.004l0.051,0.002l0.072-0.015l0.016-0.03v-0.037l0.021-0.023l0.134-0.031l0.875-0.018l-0.168,0.141l-0.226,0.049  l-0.461-0.035l0.122,0.091l0.048,0.021l-0.122,0.053l-0.188,0.045l-0.187,0.019l-0.123-0.036l-0.122-0.054l-0.162-0.004l-0.326,0.03  l0.063,0.068l0.086,0.012h0.104l0.114,0.026V53.1l-0.293,0.06l-0.819,0.364l-0.064-0.021l-0.066-0.037l-0.055-0.061l-0.025-0.089  l0.424-0.094l0.222-0.086l0.099-0.091l0.016-0.095l0.076-0.172l0.018-0.08L60.49,52.59l-0.117-0.08l-0.143-0.046l-0.121-0.001  l0.084-0.115l0.121-0.029l0.11-0.053l0.056-0.179l0.065,0.028l0.054,0.001l0.033-0.034l0.012-0.074l-0.01-0.031l-0.039-0.047  l-0.009-0.031l0.021-0.063l0.047,0.002l0.055,0.026l0.037,0.012l0.056,0.008l0.072,0.031l0.063,0.003l0.024-0.07l0.019-0.078  l0.041-0.045l0.067-0.018l0.086,0.01l-0.2-0.081l-0.271,0.011l-0.512,0.07l-0.006,0.036l-0.182,0.2l-0.033,0.122l-0.08,0.042  l-0.09-0.02l-0.066-0.063l0.074-0.056l0.065-0.072l0.051-0.09l0.025-0.102l-0.13-0.035l-0.002-0.057l0.076-0.064l0.109-0.055  l-0.189-0.154l0.119-0.078l0.221-0.023l0.121,0.013l0.108,0.085l0.246-0.006l0.25-0.064l0.132-0.092l-0.07-0.013l-0.025-0.021  L60.9,51.121l-0.049-0.045l0.074-0.059l0.079-0.024l0.082,0.003l0.088,0.025l0.035-0.108l0.074-0.056l0.046-0.056l-0.049-0.103  l0.373,0.072l0.136-0.026l-0.086-0.205l-0.063-0.04l-0.093-0.017h-0.091l-0.064,0.009l-0.381,0.158l-0.117,0.029l-0.043,0.02  l-0.008,0.023l-0.019,0.102l-0.021,0.037l-0.236,0.184l-0.029,0.03l-0.188-0.034l0.029-0.357l-0.189,0.1l-0.174,0.205l-0.039,0.033  l-0.396,0.049l-0.085,0.031l-0.073,0.043l-0.18,0.071L59.18,51.26l-0.125,0.123l-0.01,0.041l0.002,0.104l0.047,0.023l0.299-0.158  l0.099,0.021l0.061,0.057l0.007,0.078l-0.06,0.086l-0.185,0.076l-0.209,0.053l-0.11,0.086l0.108,0.186l-0.109,0.053l-0.039-0.074  l-0.038-0.023l-0.04,0.023l-0.037,0.074h-0.053l-0.012-0.15L58.698,51.8l-0.121-0.101l-0.138-0.04l-0.114,0.04l-0.136,0.091  l-0.071,0.108l0.081,0.082l-0.065,0.086l-0.065-0.004l-0.065-0.03l-0.067,0.003l-0.063,0.053l-0.124,0.186l-0.107,0.086  l-0.129,0.065l-0.271,0.089l0.028-0.058l0.023-0.069l-0.002-0.061L57.238,52.3l-0.081,0.024l-0.087,0.113L56.879,52.5l-0.482,0.359  l-0.301,0.318l-0.133,0.112l-0.27,0.123l-0.286,0.188l-0.149,0.058l-0.164,0.022l-0.361-0.004l-0.17-0.029l-0.138-0.065  l-0.054-0.113l0.029-0.059l0.135-0.047l0.043-0.05l-0.005-0.062l-0.097-0.209l-0.074-0.315l-0.061-0.1l-0.083,0.098h-0.053  l-0.021-0.088l-0.043-0.059l-0.121-0.096l-0.027-0.068l0.055-0.277l0.072,0.028l0.063,0.048l0.047,0.063l0.029,0.072l0.033-0.127  l-0.061-0.104l-0.086-0.104l-0.045-0.119l-0.015-0.119l-0.094-0.387L53.92,51.43l-0.059,0.01l-0.06-0.013l-0.071-0.034l0.195-0.119  l0.176-0.146l0.09-0.101l0.016-0.053l-0.02-0.07l-0.027-0.144l0.076-0.343l0.022-0.038l-0.084-0.116l-0.1-0.026l-0.115,0.005  l-0.129-0.017l0.093-0.08l0.01-0.063l-0.043-0.073l0.043-0.155l-0.004-0.071l-0.039-0.097l-0.107-0.12l-0.11-0.009l-0.11,0.071  l-0.102,0.12l-0.08-0.088l-0.061-0.006l-0.125,0.094l-0.012,0.036l0.017,0.102l-0.031,0.022l-0.101,0.005l-0.039,0.015l-0.188,0.113  l-0.102,0.031l-0.1-0.027l-0.666-0.404l-0.269-0.208l-0.104-0.22l-0.168,0.067l-0.052,0.039l-0.041-0.125l0.095-0.231v-0.131  l-0.037-0.036l-0.129-0.04l-0.045-0.026l-0.106-0.207l0.132,0.01l0.109-0.005L51.4,48.47l-0.07-0.161l0.115-0.077l0.07-0.146  l0.086-0.307l0.071-0.16l0.08-0.078l0.121-0.026l1.678,0.106l0.179-0.055l-0.254-0.021l-0.465-0.101l-0.503-0.049l-1.538,0.059  l-0.354,0.141l-0.3,0.29l0.099,0.031l0.11-0.014l0.111-0.048l0.1-0.075l0.025,0.028l0.09,0.078l-0.008,0.07l-0.238,0.082  l0.035,0.114l-0.049,0.036l-0.066,0.041l-0.069,0.023L50.33,48.2l-0.057,0.052l-0.045,0.072l-0.039,0.038l-0.108-0.034l0.01-0.086  l0.125-0.257l-0.288,0.088l-0.339,0.25l-0.776,0.731l-0.401,0.237l-0.032,0.029l-0.094,0.022l-0.217,0.114l-0.105,0.074  l-0.056,0.007l-0.114-0.005l-0.053,0.021L47.707,49.6l-0.023,0.052l-0.025,0.035l-0.051,0.018h-0.051l-0.053,0.005l-0.053,0.04  l-0.017,0.034l-0.014,0.082l-0.026,0.044l-0.186,0.187l-0.101,0.154l-0.054,0.046l-0.068,0.021l-0.096,0.005l-0.067,0.06  l-0.004,0.137l0.046,0.242v0.844l0.047,0.402l-0.013,0.072l-0.069,0.178l-0.019,0.094l0.069,0.857l0.044,0.096l0.151,0.219  l-0.092,0.002l-0.092,0.033l-0.072,0.037l-0.036,0.01l-0.074-0.021l-0.038,0.074l-0.024,0.188l-0.004,0.168l-0.016,0.09  l-0.104,0.151l-0.018,0.073l0.006,0.075l0.03,0.073l-0.16,0.043l-0.23,0.109l-0.205,0.133l-0.089,0.113l-0.007,0.094l-0.024,0.082  l-0.041,0.076l-0.063,0.068l-0.039,0.025l-0.022,0.012l-0.012,0.019l-0.013,0.161l-0.024,0.029l-0.036,0.006l-0.041,0.04  l-0.289,0.483l-0.109,0.131l-0.076,0.055l-0.078,0.041l-0.061,0.047l-0.055,0.182l-0.074,0.018l-0.105-0.014l-0.114,0.018  l-0.068,0.044l-0.197,0.172l-0.732,0.354l-0.386,0.123l-0.058,0.002l-0.145-0.008l-0.541,0.059l-0.465-0.053l-0.123,0.066  l0.01,0.367l0.009,0.045l0.033,0.055l0.059-0.057l0.048,0.088l-0.159,0.297l-0.075,0.25l-0.109,0.156l-0.13,0.486l-0.076,0.178  l-0.115,0.137l-0.264,0.244l-0.041,0.063l-0.078,0.191l-0.035,0.172l-0.138,0.287l-0.208,1.145l-0.164,0.351L40.046,62.1  l-0.049,0.178l0.1,0.156l0.239,0.058l0.514-0.022l0.208-0.045l0.179-0.083l-0.32,0.257l-0.866,0.006l-0.159,0.037l-0.16,0.142  l-0.556,0.844l-0.138,0.063l-0.196,0.272l-0.13,0.144l-0.124,0.063l-0.081,0.025l-0.073,0.066l-0.115,0.146l-0.061,0.101  l0.017,0.058l0.15,0.108l0.13,0.187l0.035,0.17l-0.001,0.172l0.024,0.189l0.022,0.071l0.037,0.063l0.059,0.063l0.095,0.073  l0.138,0.081l0.046,0.045l0.027,0.081l-0.369-0.22l-0.056-0.07l-0.094-0.061l-0.186-0.021l-0.133,0.049l0.066,0.142l0.142,0.199  l0.119,0.287l0.022,0.276L38.4,66.611l-0.022-0.4l-0.039-0.188l-0.266-0.412l0.094-0.117l0.192-0.082l0.147-0.127l0.011-0.18  l-0.075-0.213l-0.128-0.179l-0.15-0.073l-0.198-0.017l-0.073,0.021l-0.101,0.076l-0.664,0.848l-0.131,0.088l-0.143,0.062  l-0.277,0.304l-0.138,0.112l-0.284,0.106l-0.086,0.053l-0.1,0.085l-0.009,0.043l0.029,0.054l0.069,0.293l0.193,0.272l0.024,0.206  L36.1,67.055l-0.188-0.339l-0.214-0.264l-0.247,0.024l-0.301,0.179l-0.692,0.184l-0.312,0.144l0.666,0.211l0.301,0.168l0.204,0.258  l-0.14-0.121l-0.958-0.408l-0.206-0.021L33.987,67.2l-0.168-0.054L33.7,67.215l-0.11,0.112l-0.138,0.079l0.063,0.072l0.139,0.016  l0.064,0.07l-0.232,0.055H32.71v0.057l0.706,0.221l0.206,0.15l0.149,0.188l0.052,0.117l-0.028,0.127l-0.008,0.146l-0.011,0.062  l-0.091,0.152L33.669,68.9h-0.048l-0.053-0.16l0.012-0.318l-0.022-0.163l-0.064-0.134l-0.096-0.127l-0.143-0.08l-0.166-0.064  l-0.317-0.057l-0.338,0.105l-0.263,0.231l-0.148,0.336l0.184-0.096l0.172-0.203l0.195-0.16l0.25,0.035l-0.504,0.588l-0.091-0.018  l-0.167-0.076l-0.089-0.017l-0.123,0.016l-0.106,0.037l-0.199,0.105l-0.187,0.062l-0.079,0.048L31.22,68.9l-0.027,0.125l0.03,0.05  l0.076,0.034l0.112,0.082l0.117,0.16l0.049,0.145l-0.055,0.052l-0.195-0.116l-0.31-0.261l-0.154-0.026l-0.065,0.207l-0.1,0.121  l-1.036,0.379l-0.168,0.101l-0.162,0.146l-0.049,0.17l0.161,0.092l0.26,0.035l0.24-0.006l0.2-0.033l0.092-0.002l0.08,0.035  l-0.341,0.096l-0.148,0.021L29.621,70.5l-0.436-0.057l-0.202,0.027l-0.158,0.137l0.313,0.125l0.152,0.096l0.064,0.121l0.011,0.244  l-0.042,0.037l-0.127-0.096l-0.143-0.267l-0.105-0.101l-0.174,0.021l-0.117,0.101l-0.263,0.293l-0.125,0.061l-0.156,0.031  l-0.402,0.233L27.54,71.52l-0.313-0.05l-0.265,0.148l-0.312,0.063l-0.115,0.084l-0.052,0.162l0.046,0.154l0.104,0.145l0.119,0.127  H26.7l-0.171-0.041l-0.07-0.129l-0.028-0.164l-0.053-0.143l-0.067-0.063L26.244,71.8l-0.212,0.019l-0.074,0.02l-0.098,0.048  l-0.084,0.063l-0.035,0.061l-0.091,0.113l-0.211,0.083l-0.392,0.095l-0.562,0.278l-0.153,0.041l-0.142,0.06l-0.294,0.258  l-0.146,0.06l-0.076,0.019l-0.213,0.1l-0.058,0.041l-0.029,0.063l0.016,0.057l0.119,0.146l0.179,0.285l0.123,0.136l0.151,0.057  l0.161,0.037l0.411,0.192l0.141,0.095l-0.184,0.01l-0.428-0.217l-0.211-0.06l-0.091-0.01l-0.114-0.035l-0.099-0.06l-0.204-0.432  l-0.14,0.027l-0.495,0.191l-0.136,0.075l-0.149,0.107L22.066,74l-0.468,0.342l-0.423,0.189l-0.442,0.102l-0.369-0.041l-0.16-0.123  l-0.123-0.139l-0.132-0.053l-0.191,0.131l-0.068,0.023l-0.198-0.017l-0.107,0.045l-0.075,0.058L19.15,74.6l-0.262,0.099L18.6,74.747  l-0.48,0.022l-0.155,0.031l-0.151,0.057l0.159,0.091l0.053,0.02l-0.089,0.028l-0.092,0.042l-0.088,0.054l-0.079,0.063l-0.063,0.094  l-0.022,0.096l-0.005,0.082l-0.013,0.047l-0.256,0.238l-0.304,0.217l-0.485,0.237l-0.284,0.239L16.1,76.469l-0.363,0.088v0.053  l0.192,0.056l0.091,0.094l-0.002,0.118l-0.092,0.135l-0.074,0.028h-0.697l0.04,0.256L15,77.475l-0.282,0.14l-0.226,0.145  l-0.643,0.528l-0.183,0.189l0.063,0.09l0.045,0.113l0.051,0.227l-0.013,0.207l0.013,0.059l0.041,0.055l0.038,0.018l0.039,0.007  l0.046,0.026l0.208,0.16l0.175,0.074l0.042,0.031l0.053,0.1l0.02,0.118l-0.017,0.116l-0.056,0.09l-0.239-0.346l-0.103-0.08  L13.81,79.43l-0.344-0.226l-0.229-0.038l-0.228,0.068l-0.225,0.173l-0.054,0.032l-0.132,0.029l-0.05,0.022l-0.042,0.051  l-0.063,0.108l-0.054,0.048l-0.412,0.086l-0.123,0.073l-0.064,0.109l0.034,0.082l0.199,0.131l0.293,0.26l0.131,0.054l-0.199-0.043  l-0.146-0.056l-0.126-0.092l-0.146-0.148l-0.086-0.043l-0.083,0.031l-0.079,0.056l-0.147,0.056l0.018,0.059l0.085,0.104l0.049,0.135  l0.205,0.161l0.016,0.159l-0.061,0.137l-0.081,0.102L11.6,81.225L11.583,81.4l-0.139-0.076l-0.081-0.092l-0.02-0.113l0.037-0.143  l0.071-0.11l0.063-0.056l0.021-0.054l-0.054-0.104l-0.248-0.17l-0.281,0.024l-0.228,0.175l-0.096,0.267l0.02,0.093l0.113,0.252  l0.056,0.082l0.054,0.111l-0.001,0.123l-0.016,0.113l0.021,0.078l0.161,0.112l0.022,0.046l0.007,0.057l0.017,0.061l0.024,0.057  l0.035,0.042l0.022,0.084l-0.134,0.017l-0.289-0.021l0.052-0.146l-0.055-0.094l-0.093-0.08l-0.063-0.104l0.008-0.073l0.079-0.148  l0.02-0.073l-0.025-0.076l-0.055-0.06l-0.057-0.045l-0.023-0.035l-0.105-0.24l-0.255,0.013L9.57,81.348l0.041,0.038l0.075,0.087  l0.043,0.034l-0.186,0.007l-0.146,0.021l-0.128,0.049l-0.387,0.234l-0.13,0.108l-0.035,0.109l0.091,0.065l0.935,0.387l0.146,0.029  l-0.108,0.086l-0.174-0.067L9.414,82.42l-0.163-0.061l-0.207-0.041l-0.206-0.073l-0.199-0.044l-0.188,0.053l-0.104,0.122  l0.014,0.126l0.091,0.13l0.131,0.129l0.164,0.075l0.44,0.115l0.117,0.098l-0.472-0.037l-0.117,0.037L8.68,83.109l0.022,0.156  l-0.04,0.105l-0.09-0.066L8.56,83.216l0.012-0.103l-0.017-0.111L8.263,82.65L8.09,82.621l-0.186,0.13l-0.306,0.356l0.192,0.01  l0.161,0.101l0.283,0.261l0.28,0.168l0.043,0.047l-0.06,0.06H8.376l-0.131-0.036l-0.088-0.05l-0.304-0.302L7.667,83.27l-0.229-0.004  l-0.175,0.082l-0.055,0.131l0.022,0.348l0.033,0.087l0.143,0.086l0.048,0.155l0.069,0.154l0.017,0.104l0.135,0.055l0.63-0.046  l0.199-0.037l0.296-0.1l0.291-0.003v0.01l-0.066,0.035L8.98,84.411l-0.014,0.146l0.022,0.037l0.074,0.08l0.107,0.059l0.272-0.01  l0.125,0.027l-0.085,0.104l-0.14,0.041l-0.162-0.004l-0.144-0.035l-0.108-0.068L8.79,84.6l-0.079-0.063l-0.143-0.01l-0.79,0.166  l-0.131,0.055L7.54,84.855l0.782,0.554l0.402,0.37l0.044,0.252l-0.052-0.036l-0.102-0.038l-0.058-0.031l-0.02,0.029l-0.033,0.02  l-0.14-0.263l-0.052-0.183l-0.079-0.064l-0.097-0.046l-0.211-0.135l-0.054,0.04l-0.031,0.102l-0.054,0.1l-0.1,0.084L7.59,85.648  l-0.263,0.014l-0.07-0.033l0.083-0.072l0.199-0.109l0.073-0.103l0.014-0.075l-0.031-0.068L7.54,85.127l-0.221-0.16l-0.21,0.014  l-0.218,0.072l-0.248,0.021L6.671,85l0.05-0.059l0.063-0.049l0.071-0.037l-0.324-0.111l-0.145-0.098l-0.062-0.133L6.25,84.486  l-0.168,0.093l-0.264,0.2l-0.107,0.127l-0.044,0.098l0.024,0.086l0.101,0.09l0.138,0.07l0.306,0.109l0.143,0.086l0.095-0.182  l0.122,0.069l0.119,0.19l0.089,0.185l-0.336-0.056l-0.375-0.176l-0.378-0.111l-0.347,0.13l-0.079,0.122L5.15,86.083l-0.288,0.442  L4.86,86.645l0.096,0.143l0.063,0.031l0.136,0.009l0.089-0.007l0.167-0.033l0.088-0.008l0.427-0.17l0.64-0.09l1.032-0.387  L7.531,86.33l-0.228,0.121l-0.501,0.111l0.094,0.084l0.117,0.029l0.261-0.004l-0.168,0.112l-0.212-0.011l-0.409-0.103L6.257,86.7  l-0.391,0.146L5.658,86.88l-0.18,0.05l-0.086,0.127l-0.007,0.172l0.062,0.188l0.129,0.025l0.749-0.078l-0.121,0.072l-0.413,0.086  l-0.135,0.066l-0.093,0.083L5.42,87.896l0.179,0.043l0.726-0.148l0.557,0.047l0.12-0.013l0.332-0.093l-0.098,0.162l-0.165,0.092  l-0.375,0.117l-0.153,0.08l-0.075,0.051l-0.066,0.061l-0.087,0.049l-0.106,0.004l-0.23-0.025l-0.211,0.023l-0.414,0.109l-0.2,0.025  l-0.485,0.002L4.44,88.529l-0.192,0.113L4.19,88.586l0.058-0.053H3.714L3.21,88.586l-0.128,0.076l-0.051,0.18L3.029,89.54  l0.041,0.153L3.081,89.8L3.05,89.891l0.001,0.062l0.041,0.098l0.06,0.093l0.058,0.039l0.06-0.029l0.182-0.143l0.103-0.044  l0.737-0.153l0.116-0.084l0.028-0.078l0.21-0.24l0.047-0.034l0.144-0.073l0.01-0.043l0.025-0.055l0.035-0.053l0.032-0.034  l0.071-0.054l0.085-0.051l0.089-0.012l0.077,0.063l-0.015,0.059l-0.069,0.082l-0.424,0.363l0.022,0.051l0.12,0.042l0.148,0.028  l0.107,0.008l0.271-0.063l0.265-0.092l-0.129,0.177l-0.203,0.068l-0.469,0.078l-0.217,0.098L4.52,90.082l-0.086,0.169L4.407,90.5  l-0.123-0.055l-0.068,0.06l-0.028,0.124l0.002,0.135l0.561-0.084l0.247-0.102l0.103-0.243l0.086,0.058v0.064l-0.033,0.061  l-0.005,0.039l0.067,0.067l0.021,0.003l0.015-0.031l0.242-0.186l0.031-0.018l0.015-0.074l-0.024-0.051l-0.018-0.056l0.027-0.09  l0.116-0.101l0.181-0.071l0.34-0.089l0.471-0.2l0.169-0.017v0.049L6.61,89.775L6.257,89.98l-0.228,0.041l-0.162,0.066l-0.122,0.158  l-0.22,0.361L5.26,90.875l-0.296,0.236l-0.08,0.043l-0.22,0.068L4.62,91.271l0.035,0.074l0.23,0.219l0.439,0.225l0.519,0.064  l1.065-0.021l0.531,0.103l0.133,0.002l0.132-0.017l0.133-0.002l0.496,0.164l0.089,0.015l0.03,0.024l0.033,0.047l0.044,0.03  l0.054-0.022l0.047-0.03l0.064-0.021L8.82,92.1l0.169,0.008l0.318,0.086l0.154,0.013l0.113-0.031l0.237-0.104l0.126-0.028  l0.265,0.015l0.117-0.023l0.101-0.096l0.045-0.115l0.016-0.104l0.032-0.106l0.09-0.122l0.027-0.06l0.008-0.127l0.047-0.057  l0.063-0.016l0.887,0.068l0.114,0.021l0.366,0.166l0.156,0.037l0.315,0.021l0.117,0.071l0.001,0.155l0.193,0.224l0.398,0.368  l-0.073,0.094l-0.094,0.047l-0.106,0.03l-0.108,0.046l0.094,0.054l0.181,0.075l0.077,0.052l0.109,0.146l0.07,0.07l0.087,0.026  l0.071,0.076l0.076,0.053l0.089,0.026l0.045-0.016l0.119-0.072l0.052-0.02l0.061,0.008l0.109,0.041l0.08,0.021l0.093,0.01  l0.092-0.021l0.042-0.082l0.066-0.073l0.148-0.002l0.236,0.024l0.097-0.026l0.132,0.03l0.138,0.047l0.112,0.023l0.019-0.041  l-0.026-0.092l0.004-0.09l0.11-0.041l0.762-0.094l0.219,0.039l0.128,0.099l0.416,0.535l0.163,0.321l0.089,0.104l0.158,0.013  l0.151-0.111l0.077-0.183l-0.063-0.194l0.197-0.002l0.144,0.185l0.054,0.252l-0.072,0.206l-0.407,0.236l-0.049,0.054l-0.038-0.056  v-0.034l-0.013-0.021l-0.082-0.019l-0.084-0.004l-0.238,0.051l0.015,0.09l0.034,0.068l0.057,0.043l0.204,0.049l0.048,0.072  l0.014,0.074l0.027,0.031l0.174,0.059l0.282,0.24l0.213,0.024l-0.092-0.14l-0.236-0.211l-0.048-0.157l0.066-0.136l0.158,0.023  l0.311,0.137l0.677-0.011l0.224,0.063l0.178,0.134l-0.138,0.044l-0.224-0.029l-0.081-0.089l-0.093-0.022l-0.278-0.004l-0.109,0.026  l-0.065,0.034l-0.044,0.038l-0.099,0.134l1.339,0.096l0.416-0.096l-0.028-0.023l-0.05-0.059l-0.028-0.023l0.101-0.08l-0.046-0.06  l-0.1-0.069l-0.062-0.108l0.389,0.01l0.195,0.031l0.154,0.063l-0.104,0.039l-0.108,0.014l-0.094,0.025l-0.065,0.081l0.267,0.003  l0.796-0.109l0.227-0.059h0.107l0.044,0.088l0.012,0.077l0.195,0.487l0.091,0.093l0.143,0.015l0.253-0.006l0.216,0.051l0.266,0.093  l0.263,0.049l0.209-0.086l0.026-0.097l-0.022-0.097l0.002-0.067l0.1-0.01l0.053,0.039l0.053,0.074l0.081,0.071l0.139,0.032h0.234  l0.048-0.019l0.021-0.036l0.015-0.037l0.096-0.057l-0.006-0.174l0.071-0.055l0.111,0.021l0.02,0.09l-0.029,0.155l0.102,0.07  l0.103,0.015l0.272-0.026l0.093-0.021l0.093-0.047l0.159-0.121l0.106-0.05l0.137-0.01l0.267,0.034l0.049,0.017l0.163,0.09  l0.143-0.18l0.239,0.012l0.262,0.056l0.209-0.047l-0.042-0.035l-0.077-0.092l-0.043-0.037l0.409-0.17l0.1-0.065l0.161-0.052  l0.218,0.038l0.201,0.061l0.11,0.006l0.257-0.151l0.278-0.075l0.244-0.115l0.156-0.27l-0.625-0.021l-0.122-0.035l0.126-0.024  l0.224-0.069l0.133-0.013l0.131,0.019l0.262,0.071l0.134,0.017l0.063-0.024l0.18-0.108l0.22-0.057l0.036-0.08l-0.02-0.207  l0.105-0.406l0.269-0.26l1.075-0.533l0.146-0.119l0.134-0.141l0.167-0.145l0.194-0.086l0.409-0.117l0.164-0.076l0.175-0.118  l0.139-0.147l0.058-0.164l0.016-0.071l0.069-0.144l0.025-0.231l0.028-0.09l0.123-0.181l0.45-0.459l0.577-0.295l0.663-0.158  l1.606-0.116l0.019-0.043l-0.003-0.054l0.041-0.053l0.081-0.045l0.03-0.01l0.159,0.007l0.164-0.011l0.117-0.039l0.069-0.102  l0.025-0.427l-0.03-0.12l-0.08-0.097l-0.082,0.104l-0.088,0.037l-0.098,0.019l-0.108,0.051l-0.093,0.093l-0.117,0.178l-0.107,0.071  l-0.352,0.097l-0.236,0.146l-0.281,0.052l-0.145,0.055l0.074-0.133l0.29-0.135l0.097-0.197l0.077-0.028l0.089-0.013l0.067-0.02  l0.059-0.049l0.149-0.168l0.154-0.059l0.379-0.054l0.137-0.073l-0.004-0.104l-0.156-0.082l-0.205-0.072L35.849,88l-0.105,0.089  l-0.099-0.01l-0.104-0.05L35.424,88l-0.07-0.004l-0.032-0.018l-0.008-0.039v-0.073l0.012-0.069l0.037-0.004l0.052,0.014l0.063-0.019  l0.16-0.099l0.097-0.043l0.088-0.019l0.06-0.042l0.183-0.279l-0.176-0.02l-0.115-0.075l-0.003-0.081l0.156-0.039l0.279,0.008  l0.1-0.028l0.129-0.089l-0.07-0.149l-0.026-0.078l-0.01-0.085l0.133,0.071l0.105,0.009l0.094-0.046l0.093-0.092l-0.057-0.189  l0.162-0.122l0.215-0.104l0.109-0.143l-0.019-0.099l-0.029-0.084l0.002-0.086l0.071-0.104l0.289-0.24l0.014-0.18l-0.135-0.09  l-0.108-0.098l0.095-0.195l0.104-0.163l0.184-0.553l0.42-0.647l0.861-0.631l0.524-0.701l-0.008-0.092l-0.197-0.105l-1.945-0.52  l2.003,0.358l0.256-0.009l0.155-0.08l0.082-0.156l0.064-0.462l0.007-0.253L39.8,80.682l-0.223-0.027l0.076-0.096l0.105-0.041  l0.093-0.059l0.04-0.146l-0.011-0.135l-0.091-0.373V79.22l-0.04-0.267l-0.171-0.154l0.226-0.096l0.063-0.016l0.09-0.032l0.025-0.075  l0.002-0.087l0.018-0.071l0.223-0.193l0.105-0.112l0.043-0.146l-0.001-0.443l0.03-0.09l0.421-0.561l0.025-0.075l-0.051-0.063  l-0.155-0.07l-0.2-0.047l-0.653-0.013l0.206-0.084l0.646,0.031l0.124,0.029l0.124,0.053l0.12,0.025l0.112-0.055l0.153,0.043  l0.19-0.079l0.475-0.368l0.094-0.055l0.202-0.053l-0.061-0.068l-0.199-0.104l-0.139-0.11l-0.138-0.156L41.59,75.48l-0.042-0.168  l-0.065-0.154l-0.155-0.121l-0.177-0.109l-0.133-0.119l0.01-0.086l0.173,0.029l0.22,0.09l0.232,0.152l0.203,0.056l0.088,0.05  l0.147,0.133l0.142,0.158l0.163,0.271l0.077,0.169l0.159-0.011l0.086-0.024l0.207-0.108l0.219-0.049l0.087-0.058l0.082-0.07  l0.095-0.065l0.12-0.032l0.287-0.048l0.576-0.289l0.066-0.121l-0.09-0.79l0.076,0.087l0.017,0.087l-0.001,0.095l0.014,0.106  l0.14,0.253l0.019,0.096l0.103,0.148l0.233-0.028l1.5-0.791l0.808-0.276l0.16-0.103l0.065-0.176l-0.289-0.214l-0.242-0.293  l-0.192-0.314l-0.141-0.154l-0.169-0.063L46.265,72.6l-0.433-0.148l-0.418-0.279l-0.172-0.176l1.81,0.666l0.426,0.311l0.504,0.557  l0.11,0.066l0.091,0.016l0.647-0.075l0.083-0.031l0.094-0.093l0.021-0.04l-0.018-0.045l-0.019-0.113l0.002-0.19l0.032-0.229  l0.074-0.194l0.131-0.08l0.218-0.035l0.202-0.061l0.199-0.025l0.207,0.072l0.064,0.055l0.093,0.11l0.054,0.044l0.135,0.038  l0.246-0.026l0.099,0.018l0.213,0.104l0.06,0.06l-0.113,0.024l-0.12,0.011l-1.169,0.295l-0.209,0.022l-0.096,0.035l-0.075,0.059  L49.207,73.4l0.068,0.029l0.314-0.037l0.682-0.178l0.451-0.035l0.215-0.08l0.635-0.067l0.212-0.074l0.136-0.008l-0.148,0.146  l0.006,0.104l0.302,0.228l0.166,0.158l0.094,0.055l0.179-0.041l0.178,0.155l0.107,0.044h0.508l0.182,0.027l0.025-0.018l-0.246-0.281  l-0.082-0.207l0.009-0.213l0.112-0.209l-0.102-0.068l-0.021-0.09l0.053-0.078l0.121-0.033l0.099,0.037l0.006,0.096l-0.015,0.115  l0.042,0.1l0.09,0.103l0.01,0.06l-0.022,0.064v0.119l0.031,0.103l0.101,0.177l0.032,0.1l0.064-0.053l0.068-0.027l0.068,0.014  l0.063,0.066l0.004-0.053l0.051-0.166l0.141,0.024l0.191-0.185l0.096,0.105l0.098-0.191l0.063-0.221l0.021-0.225l-0.025-0.21  l-0.021-0.039l-0.064-0.079l-0.021-0.047l0.012-0.037l0.027-0.055l0.021-0.063l-0.008-0.063L54.491,72.1l-0.11-0.063l-0.09-0.078  L54.26,71.82l-0.093,0.039l-0.22,0.178l-0.031-0.105l-0.088-0.066l-0.117-0.034l-0.115-0.011l-0.102,0.037l-0.066,0.082  l-0.054,0.091l-0.067,0.061L53.2,72.111l-0.027-0.047l0.022-0.215l-0.014-0.129l-0.045-0.068l-0.205-0.092l-0.072,0.195  l-0.034,0.199l-0.034,0.027l-0.07-0.064l-0.074-0.109l-0.033-0.117l-0.123-0.018l-0.279-0.002l-0.289,0.055l-0.16,0.152  l-0.172-0.041l-0.217-0.027l-0.088-0.059l0.207-0.138l0.229-0.058l0.514-0.025l0.221-0.072l-0.475-0.096L51.861,71.3l-0.063-0.106  l0.037-0.053l0.092,0.014l0.098,0.088l0.016-0.123l-0.223-0.461l-0.141-0.482l-0.074-0.156l-0.36,0.197l-0.363,0.139L50.059,70.5  l-1.063-0.205l1.021,0.016l0.526-0.063l0.472-0.124l0.088-0.048l0.229-0.164l0.112-0.014l0.265,0.004l0.054-0.049l0.014-0.41  l0.031-0.195l0.055-0.189l-0.926,0.055l-1.068-0.234l1.592,0.08l0.145-0.016l0.121-0.041l0.055-0.053l0.041-0.063l0.185-0.209  l0.179-0.323l0.108-0.153l0.599-0.317L53.1,67.59l0.258-0.09l1.047-0.189l0.375-0.215l0.068-0.055l0.032-0.066l0.027-0.088  l0.044-0.076l0.322-0.123l0.219-0.023l0.085-0.021l0.339-0.154l0.07-0.053l0.031-0.059l0.02-0.105l0.05-0.041l0.07-0.025  l0.071-0.066l0.057-0.096l0.006-0.045l-0.012-0.041l0.003-0.089l-0.037-0.151l0.017-0.08l0.244-0.091l0.146-0.138l0.117-0.167  l0.086-0.271l0.603-0.963l-0.042-0.019l-0.031-0.019l-0.035-0.015l-0.056-0.002v-0.059l0.343-0.133l0.184-0.283l0.121-0.343  l0.154-0.297l0.407-0.371l0.099-0.059l0.082-0.023l0.164-0.11l0.102-0.023l0.117,0.016l0.088,0.043l0.16,0.158l0.059-0.051  l0.053-0.061l-0.055-0.072l-0.133-0.122l-0.029-0.069l0.014-0.128l0.057-0.063l0.082-0.043l0.09-0.061l0.031-0.045l0.076-0.138  l0.109,0.005l0.057-0.01l0.043-0.024l0.241-0.294l0.166-0.118l0.351-0.168l0.15-0.11l0.149-0.205l0.147-0.146l0.016-0.037  l-0.287-0.245l-0.137-0.089l-0.097-0.116l-0.034-0.228l0.022-0.074l0.056,0.015l0.055,0.069l0.024,0.093l0.015,0.135l0.047,0.074  l0.08,0.045l0.342,0.11l0.093-0.037l0.017-0.141l-0.004-0.236l0.045-0.155l0.105-0.179l0.225-0.28l1.504-1.203l0.137-0.15  l0.553-0.793l0.044-0.189l-0.146,0.043l-0.196-0.018l-0.173-0.078L63.2,56.742l-0.043-0.051l-0.164-0.426l-0.007-0.084l-0.146-0.002  l-0.184,0.1L62.4,56.475l-0.084,0.03l-0.521,0.089L61.714,56.6l-0.004-0.02l0.164-0.079l0.467-0.151l0.218-0.113l0.219-0.174  l0.099-0.149l-0.021-0.162l-0.426-0.553l-0.109-0.07l0.021,0.12l0.071,0.157l0.04,0.036l-0.038,0.156l-0.086,0.021l-0.083-0.042  l-0.029-0.03l0.026-0.049l-0.034-0.104L62.113,55.3l-0.145-0.022l0.051-0.129l-0.015-0.113L61.923,54.8l-0.009-0.146l0.035-0.096  l0.186-0.188l0.146-0.208l0.121-0.224l0.15-0.193l0.223-0.117l-0.053,0.111l0.105,0.021l0.162-0.122l0.078,0.02l-0.019,0.047  l-0.131,0.168l-0.039,0.079l0.117-0.025l0.183-0.114l0.242-0.049l0.055-0.061l0.026-0.077l0.038-0.074l0.077-0.073l0.151-0.107  l0.062-0.055l0.12-0.183l0.095-0.194l-0.317,0.188L63.563,53.184z M60.162,50.257l-0.107-0.07l-0.092-0.091l-0.117-0.085  L59.8,50.097l-0.015,0.097l0.015,0.098l0.046,0.088l0.023-0.029l0.082-0.077l0.041,0.087l-0.006,0.079l-0.051,0.061l-0.09,0.038  l-0.013,0.031l-0.002,0.025l-0.008,0.027l-0.031,0.027l0.101,0.043l0.112-0.006l0.113-0.037l0.098-0.055l0.022-0.033l0.023-0.057  l0.032-0.051l0.054-0.023l0.189-0.053l0.047-0.037l0.09-0.098l0.047-0.019l0.156,0.008l0.031-0.008l0.049-0.09l0.029-0.201  l0.022-0.08l0.034-0.042l0.111-0.106l0.044-0.02l0.036-0.024l-0.014-0.052l-0.049-0.079l0.076-0.201l0.027-0.108l0.002-0.11  L61.246,49l-0.039,0.047l-0.084,0.221l-0.072,0.087l-0.07,0.062l-0.176,0.116h0.266l-0.12,0.082l-0.244,0.06l-0.062,0.075  l-0.037-0.127l0.021-0.14l-0.006-0.116l-0.111-0.046l-0.066,0.033l-0.039,0.073l-0.03,0.106l-0.083-0.017l-0.021-0.064l-0.01-0.062  l-0.044-0.011l-0.042,0.068l-0.099,0.296l-0.019,0.113l0.021,0.128l0.063,0.102l0.084,0.08l0.097,0.062v0.048L60.162,50.257z   M5.705,88.184h0.193l0.315-0.094l0.031-0.023l-0.006-0.045L6.2,87.986l-0.47-0.032l-0.09,0.034l-0.073,0.063v0.044l0.055,0.021  l-0.035,0.028L5.705,88.184z M64.624,52.16l-0.019-0.059l-0.129-0.016l-0.103,0.033l-0.088,0.063l-0.103,0.055l-0.139,0.009  l0.051,0.086l0.078,0.052l0.094,0.01l0.099-0.041l0.006,0.143l-0.126,0.129l-0.173,0.048l-0.134-0.103l-0.398,0.344l-0.07,0.035  l-0.188-0.014L63.2,52.939l-0.026,0.012l-0.082,0.063l-0.039,0.031H63.05l-0.005,0.001h0.006l0.395,0.017l0.121-0.017l0.076-0.04  l0.193-0.131l0.105-0.041l0.139-0.005l0.143,0.011l0.141-0.008l0.113-0.057l0.053-0.09l0.048-0.232l0.062-0.102l-0.027-0.104  L64.624,52.16z M68.469,50.389l0.293-0.256l0.133-0.19l-0.017-0.041l-0.069-0.026l-0.043,0.006l-0.059,0.007l-0.042,0.021  l-0.073,0.137l-0.041,0.049l-0.238,0.188l-0.028,0.038l-0.019,0.043l0.027,0.04l0.051,0.016L68.469,50.389z M96.85,25.488  l-0.17-0.141l-0.123-0.079l-0.115-0.042l-0.098-0.015l-0.238,0.003l-0.102-0.025l-0.146-0.109l-0.1-0.025l-0.271,0.001l-0.131-0.014  l-0.129-0.04l-0.086-0.055l-0.145-0.121l-0.094-0.036v-0.054l0.106-0.083l-0.1-0.064l-0.181-0.045l-1.912-0.075l-0.305-0.051  l0.09,0.122l0.039,0.086l-0.026,0.075l-0.103,0.088l-0.146,0.051l-0.347,0.029l-0.117,0.052l-0.184,0.224l-0.104,0.087l-0.141,0.034  l-0.156,0.009l-0.775,0.178L90.49,25.51l-0.02,0.09l-0.05,0.07l-0.116,0.107l-0.089,0.137l-0.088,0.283l-0.123,0.138l-0.321,0.139  l-0.049,0.048l-0.023,0.075l-0.129,0.19l0.002,0.199l-0.033,0.069l-0.08,0.084L89.135,27.3l-0.601,0.295l-0.142,0.1l-0.187,0.092  l-0.694,0.04l-0.232,0.048l-0.086,0.005l-0.055,0.024v0.056l0.006,0.055l-0.03,0.024l-0.046,0.014l-0.035,0.026l-0.034,0.012  l-0.048-0.026l-0.084-0.116l-0.018-0.016h-0.511l-0.1-0.04l-0.064-0.058L86.1,27.801l-0.131,0.026l0.057,0.081l0.035,0.107  l-0.021,0.094l-0.101,0.041l-0.111-0.015l-0.1-0.037l-0.359-0.202l-0.047-0.049l0.086-0.021h0.455l-0.293-0.128l-0.723-0.077  l-0.425-0.215l-0.526-0.062l-0.469-0.143l-0.49-0.064l-0.313-0.121l-1.552-0.897l-0.094,0.052l-0.054-0.023l-0.032-0.05  l-0.037-0.031h-0.232l-0.096-0.033l-0.187-0.146l-0.09-0.033l-0.226-0.042l-0.469-0.182l-0.211-0.041l-0.191-0.088l-0.272-0.395  l-0.151-0.106l-0.104,0.03l0.041,0.109l0.174,0.231l0.105,0.376l-0.115,0.01l-0.123,0.03l-0.098,0.003l-0.039-0.069l0.003-0.132  l-0.011-0.095l-0.043-0.07l-0.104-0.053l-0.149-0.019l-0.052,0.062l-0.039,0.081l-0.11,0.04l-0.08-0.044l-0.064-0.083l-0.078-0.046  l-0.119,0.067l-0.076-0.114l-0.045-0.113L77.54,25.11l-0.14-0.053l-0.027,0.016l-0.029,0.039l-0.041,0.039l-0.062,0.018  l-0.138-0.005l-0.039-0.016l-0.039-0.037l-0.014-0.038l-0.035-0.174l0.012-0.027l0.029-0.042l0.021-0.047l-0.014-0.044l-0.033-0.015  l-0.08-0.013l-0.041-0.025l-0.021,0.002L76.811,24.7l-0.047-0.009l-0.053-0.058l-0.013-0.056l0.011-0.059l0.023-0.054l0.026-0.044  l-0.036-0.031l-0.07-0.086l-0.047-0.046l0.362-0.055l0.201,0.008l0.151,0.076l0.107,0.1l0.129,0.096l0.271,0.152l-0.243,0.07  l-0.08,0.035l0.13,0.098l0.118,0.016l0.115-0.015l0.118,0.008l0.095,0.039l0.276,0.173l-0.03-0.133l-0.093-0.098l-0.223-0.167  l-0.066-0.094l-0.12-0.23l-0.078-0.103l-0.106-0.09l-0.131-0.084l-0.142-0.071l-0.128-0.044l-0.313-0.04l-0.073-0.051l0.064-0.122  l0.063-0.01l0.059,0.044l0.039,0.015l0.003-0.101l-0.029-0.065l-0.108-0.068L76.92,23.49l-0.033-0.114l-0.143-0.242l-0.033-0.123  L76.682,22.7l-0.076-0.304l-0.073-0.142l-0.091-0.073l-0.266-0.1l0.105-0.088L76.27,21.86l-0.059-0.17l-0.035-0.194h0.059  l0.035,0.085l0.045,0.076l0.059,0.062l0.075,0.042l-0.037-0.102l0.01-0.226l-0.026-0.096l-0.065-0.028l-0.104-0.014l-0.076-0.026  l0.006-0.064l0.132-0.176l0.114-0.205l0.023-0.195l-0.139-0.145l-0.051,0.063l-0.088,0.082l-0.084,0.043l-0.039-0.054l0.033-0.081  l0.063-0.085l0.049-0.083l-0.017-0.077l-0.002-0.044l0.025-0.247l-0.047-0.371l-0.031-0.103l-0.033-0.062l-0.123-0.127l-0.034-0.083  l0.011-0.201l-0.029-0.085l-0.177-0.119l-0.317,0.055l-0.17-0.071l-0.103,0.105l0.062,0.244l-0.123,0.08l0.008,0.086l-0.063,0.003  l-0.094-0.049l-0.086-0.069l-0.021-0.063l0.027-0.057l0.006-0.056l-0.093-0.061l0.114-0.163l0.123-0.136l0.098-0.064l0.199-0.065  l0.102-0.054l0.151-0.227l0.038-0.038l0.218,0.023l0.08-0.026l0.044-0.103l-0.018-0.128l-0.08,0.008l-0.104,0.048l-0.088-0.012  l-0.104-0.091l-0.099-0.037l-0.108,0.007l-0.142,0.042l-0.192,0.127l-0.112,0.045l-0.097-0.037l-0.084-0.054l-0.109-0.015  l-0.098,0.027l-0.056,0.071l0.048,0.008l0.111,0.04l-0.313,0.198l-0.109-0.021l-0.055-0.225l0.024-0.079l0.049-0.076l0.027-0.081  l-0.05-0.088L74.068,17.8l-0.223,0.027l-0.09-0.031l-0.045-0.089l0.023-0.067l0.078-0.015l0.1,0.066l0.083,0.034l0.021-0.102  l-0.021-0.197l-0.06-0.204l-0.14-0.036l-0.176-0.003l-0.16-0.106l0.168-0.153l0.013-0.199l-0.089-0.196l-0.141-0.146l-0.204,0.186  l-0.079-0.009l-0.16-0.124l-0.063-0.029l-0.028-0.024l-0.017-0.024l-0.031-0.062l-0.049-0.07l-0.032-0.063l-0.049-0.039  l-0.259,0.045l-0.192-0.028h-0.156l-0.063,0.11l0.022,0.299l0.038,0.127l0.066,0.104l0.13,0.096l0.288,0.088l0.139,0.062  l0.143,0.161l0.021,0.02l0.033,0.068l0.076,0.026l0.09,0.012l0.064,0.026l0.038,0.176l-0.1,0.188l-0.058,0.207l0.176,0.234  l-0.047,0.078l0.004,0.08l0.039,0.08l0.054,0.075l0.039-0.037l0.125-0.069l0.036,0.191l-0.129,0.091l-0.391,0.089l0.049,0.016  l0.045,0.022l0.054,0.018l0.065,0.001l-0.05,0.078l-0.081,0.034l-0.098,0.018l-0.094,0.03l0.104,0.047l0.121,0.015l0.254-0.005  l-0.114,0.132l-0.17,0.001l-0.187-0.027l-0.164,0.048l0.098,0.073l0.041,0.079l0.025,0.083l0.047,0.083l0.08,0.071l0.196,0.114  l0.095,0.076l0.073,0.09l0.055,0.091l0.186,0.479l0.032,0.063l0.039,0.097l-0.009,0.409l0.023,0.112l0.135,0.235l0.018,0.098  l0.073,0.208l0.03,0.246l0.047,0.115l0.082,0.082l0.121,0.026l-0.143,0.074l-0.139-0.018l-0.102-0.092l-0.043-0.154l0.006-0.174  l-0.023-0.082l-0.063-0.035l-0.108,0.016l-0.041,0.04l-0.025,0.051l-0.061,0.051l-0.302,0.117l-0.354,0.073l-0.347-0.009  l-0.28-0.128l-0.119-0.118l-0.119-0.146l-0.091-0.167l-0.036-0.178l0.099-0.542l0.008-0.178l-0.021-0.114l-0.037-0.092l-0.057-0.076  l-0.273-0.275l-0.063-0.031L71.32,19.87l-0.168-0.113l-0.079-0.025l-0.069,0.013l-0.253,0.098l-0.04-0.011l-0.041-0.031  l-0.048-0.017l-0.183,0.102l-0.131,0.036l-0.086,0.048l-0.097,0.032l-0.119-0.026l-0.1-0.135l0.089-0.355l-0.094-0.178l-0.164-0.054  l-0.246-0.022l-0.184,0.036l0.031,0.13l0.128,0.189l-0.099,0.058l-0.198,0.007l-0.176,0.038l0.013-0.203l-0.061-0.178l-0.168-0.366  h-0.053l-0.213,0.848l-0.074,0.087l-0.053,0.009l-0.044-0.054l-0.043-0.1l-0.034-0.148l0.039-0.068l0.077-0.051l0.078-0.093  l0.024-0.234l-0.17-0.088l-0.487-0.001l-0.358-0.064l-0.121,0.016l-0.101,0.043l-0.083,0.06l-0.071,0.074l-0.065,0.088l-0.053-0.058  l-0.015,0.082l0.007,0.107l-0.01,0.094l-0.063,0.041l-0.097-0.044l-0.034-0.105l-0.009-0.332l0.003-0.044l-0.035-0.03l-0.123-0.06  l-0.041-0.062l0.075-0.061l0.111-0.059l0.069-0.056l-0.135-0.028l-0.275,0.034l-0.064-0.005v-0.053l0.128-0.114l0.123-0.068  l0.275-0.112h0.112l0.11,0.213l0.149,0.028l-0.036,0.066l-0.005,0.058l0.029,0.048l0.063,0.039l0.204-0.089l0.111,0.03l0.101,0.074  l0.168,0.039l-0.465-1.167l-0.119-0.192l-0.158-0.134l0.324,0.101l0.127,0.01l0.188-0.058l0.359-0.168l0.037-0.042l-0.084-0.055  l-0.092,0.001l-0.331,0.105l-0.214-0.012l-0.106-0.025l-0.077-0.043l-0.101-0.084l-0.036-0.022l0.004-0.159l-0.021-0.105  l-0.086-0.137l0.002-0.103l0.047-0.053l0.16-0.083l0.058-0.08l-0.06-0.057l-0.063-0.045L67.1,16.2l-0.074-0.02v-0.058l0.177-0.008  l0.019-0.132l-0.142-0.343l0.2,0.066l0.123,0.154l0.158,0.369l0.033-0.125l0.018-0.139l-0.016-0.133l-0.125-0.207l-0.107-0.32  l-0.02-0.108l0.131-0.019l0.642,0.027l0.235-0.032l-0.188-0.047l-0.217-0.024l-0.174-0.056l-0.061-0.143l0.016-0.085l0.022-0.007  l0.031,0.012l0.04-0.026l0.005,0.014l0.018,0.017l0.025,0.009l0.028-0.013l0.021-0.034l-0.017-0.015l-0.024-0.009l-0.006-0.021  l0.047-0.104l-0.006-0.044l-0.2-0.068l-0.322-0.18l-0.25-0.229l-0.435-0.545l-0.138-0.125l-0.114-0.076l-0.081-0.093l-0.037-0.184  l0.021-0.084l0.041-0.067l0.013-0.071l-0.075-0.101l-0.085-0.039h-0.196L65.96,12.72l-0.146-0.063l-0.349-0.21l-0.095-0.097  l-0.014-0.14l0.011-0.2l-0.029-0.189l-0.127-0.111l0.177-0.141l0.133-0.154l0.03-0.153l-0.127-0.136l-0.169-0.047l-0.513-0.056  L64.6,11.043l-0.059,0.085L64.5,11.225l-0.066,0.065l-0.119-0.016l-0.057-0.061l-0.021-0.095l0.012-0.103l0.04-0.078l0.026-0.132  l-0.037-0.421l0.037-0.17l0.084,0.083l0.062,0.085l0.041,0.094l0.024,0.109l-0.004,0.142l-0.025,0.063l0.018,0.016l0.125-0.003  l0.033-0.026l0.042-0.109l0.054-0.024l0.049,0.017l0.08,0.071l0.055,0.012l0.109-0.024l0.203-0.069l0.115-0.007l-0.01,0.125  l0.224,0.053l-0.055,0.144l0.174,0.096l0.147,0.129l0.158,0.082l0.213-0.046l-0.186-0.289l-0.02-0.07l0.053-0.186l-0.006-0.096  l-0.078-0.083l-0.457-0.23l0.082-0.019l0.088-0.035l0.066-0.054l0.027-0.081l-0.033-0.066l-0.08-0.03l-0.198-0.039L65.602,9.9  l0.041-0.01l-0.295-0.131l-0.129-0.088l0.082-0.04l0.141,0.005l0.349,0.047l0.119,0.054l0.103-0.263L65.943,9.29l-0.377-0.325  l-0.406-0.27l-0.037-0.093l0.309-0.036l-0.043-0.094l-0.184-0.273l-0.064-0.057l-0.021-0.014l-0.027-0.065l-0.031-0.027  l-0.033-0.002l-0.02,0.017l-0.007,0.021l0.005,0.012l-0.158-0.033l-0.158-0.015l-0.176-0.11L64.23,7.403l-0.129-0.172l0.073,0.062  l0.242,0.155l0.22,0.188l0.047,0.024l0.114-0.082l-0.237-0.237l0.075-0.109V7.183L64.46,7.191l-0.169-0.015L64.16,7.098  l-0.059-0.185l0.047-0.182l0.105-0.157l0.066-0.159L64.26,6.224l-0.24,0.162l-0.209,0.188l-0.043,0.075l0.004,0.038L63.76,6.712  l-0.088,0.042L63.671,6.73l-0.079-0.023l-0.104-0.013l-0.082,0.007l0.02,0.029l0.04,0.077L63.07,6.762l-0.188,0.009L62.775,6.86  l-0.053-0.053l0.073,0.122l0.19,0.082l0.224,0.047l0.172,0.014l0.063,0.034l0.025,0.076l-0.019,0.074L63.381,7.29L63.32,7.265  L63.27,7.216l-0.063-0.039l-0.11,0.006l0.014,0.035l0.023,0.085l0.016,0.034l-0.088-0.01l-0.082-0.026l-0.154-0.07l-0.023,0.107  l-0.055,0.125l-0.053,0.083L62.67,7.525l-0.018-0.209l-0.025-0.095l-0.039-0.068l-0.294-0.249l-0.048-0.098l0.021-0.099l0.057-0.098  l0.014-0.106l-0.092-0.121L62.168,6.43l-0.086,0.016L61.998,6.43l-0.075-0.048L61.757,6.44l-0.12-0.079l0.023-0.11l0.263-0.027  l-0.147-0.185l-0.071-0.05l0.079-0.05l0.188-0.086l0.092,0.107h0.08l0.064-0.04l0.039-0.01l0.033,0.079l0.007,0.086l0.026,0.071  L62.4,6.175l0.322-0.084l-0.06-0.194l-0.149-0.16l-0.191-0.108l-0.188-0.041L61.688,5.63l-0.244-0.031l-0.107-0.144l-0.048-0.189  l-0.122-0.124l-0.313-0.196l-0.135-0.133l-0.066-0.09l0.021-0.041l-0.225-0.014l-0.119,0.006l-0.138,0.06l-0.131,0.018l-0.056,0.041  l-0.011,0.045l0.018,0.115L60.005,5l-0.159,0.265L59.84,5.337l0.018,0.051L59.82,5.419l-0.162,0.01l-0.266-0.188L59.38,5.176  l0.074-0.068L59.629,5l0.041-0.072l0.029-0.08l0.046-0.07l0.101-0.043l-0.102-0.037l-0.053-0.011l-0.061-0.005l-0.066-0.018  l-0.03-0.042l-0.022-0.054l-0.041-0.051L59.45,4.475l0.005-0.052l-0.014-0.042l-0.075-0.018L59.309,4.38l-0.033,0.036l-0.02,0.036  L59.23,4.47l-0.236-0.001l-0.109-0.037l-0.082-0.171l-0.088-0.04l-0.107,0.011l-0.092,0.079L58.43,4.193l-0.106-0.08l-0.103,0.004  l-0.076,0.135l0.01,0.123l0.074,0.088l0.103,0.078l0.084,0.086l-0.019,0.038l-0.088,0.127l-0.145-0.16l-0.148-0.04l-0.377,0.035  l-0.172-0.026l-0.15-0.072l-0.131-0.102l-0.106-0.118L57.007,4.21L56.93,4.073l-0.037-0.147l0.053-0.125l0.074-0.026h0.324  l0.318-0.111l-0.117-0.121l-0.023-0.064l0.039-0.08l-0.088,0.013L57.238,3.51l0.05-0.125L57.3,3.314l-0.008-0.069l-0.039-0.096  l-0.049-0.054l-0.065,0.001l-0.084,0.067v0.051l0.035,0.074l0.02,0.092l-0.055,0.104l-0.181,0.092L56.68,3.604l-0.146,0.053  l-0.042,0.171l0.105,0.375l0.021,0.218l-0.101,0.096l-0.109,0.035l-0.042,0.08l-0.024,0.091l-0.063,0.07l-0.061,0.003l-0.258-0.061  l-0.086-0.004l-0.05,0.006l-0.022-0.042l0.006-0.321l0.025-0.079l0.048-0.065l0.165-0.166l0.021-0.089l-1.033-0.502L54.709,3.2  L54.68,2.923l0.162,0.106L55.221,3.4l-0.072-0.325L54.885,2.81l-0.32-0.233L54.313,2.34l-0.086-0.304l-0.078-0.454L54.033,1.2  l-0.201-0.083l0.117,0.166l0.048,0.223l-0.021,0.229l-0.086,0.182l-0.078,0.051l-0.027-0.054l0.003-0.447l-0.015-0.1L53.73,1.275  l-0.043,0.078l-0.064,0.035l-0.078-0.005L53.46,1.338l0.039-0.053l0.026-0.053l0.041-0.115L53.479,1.13l-0.061,0.047L53.381,1.25  l-0.021,0.088l-0.246-0.152l-0.076-0.07l0.07-0.032l0.052-0.046l0.028-0.062l0.008-0.078l0.129,0.065l0.057-0.048l0.026-0.171  l0.058-0.195l0.061-0.015L53.68,0.58l-0.017,0.036l-0.021,0.091l-0.017,0.036l0.11,0.038l0.056,0.092l0.031,0.092l0.036,0.042  L53.984,1l0.066-0.035l0.031-0.064l0.02-0.104l-0.015-0.416l0.06-0.155l0.225-0.118L54.25,0l-0.09,0.02l-0.077,0.077l-0.089,0.06  l-0.135,0.021l-0.883-0.063l-0.235,0.129L52.5,0.289l-0.1,0.084l-0.197-0.095L51.75,0.261l-0.176-0.078L51.447,0.11l-0.036,0.078  l0.011,0.123l0.016,0.062l-0.08,0.146l-0.053,0.057l-0.08,0.063l0.658,0.328l0.313,0.224l1.584,1.726l0.139,0.06l0.102,0.081  l0.24,0.507l0.145,0.166l0.468,0.391l0.103,0.129l0.246,0.486l0.104,0.39l-0.028,0.398L55.15,5.889l-0.252,0.288l-0.14-0.061  l-0.151-0.027L54.494,6.13l-0.018,0.151l0.058,0.104l0.31,0.268l0.182,0.202l0.107,0.077l0.135,0.034l0.145-0.027l0.222-0.107  L55.75,6.86l-0.092,0.092L55.385,7.12L55.32,7.183l0.045,0.082l0.24,0.231l0.086,0.058l0.07-0.201l0.086-0.177l0.141-0.122  l0.238-0.031L56.182,7.11l-0.064,0.081l-0.155,0.146l0.054-0.004l0.106,0.006l0.053-0.002l-0.266,0.248l-0.039,0.13l0.092,0.209  l0.667,0.761l0.063,0.051l0.072-0.012l0.024-0.065l0.028-0.576l-0.016,0.002l-0.021-0.023l-0.021-0.04l0.005-0.045l0.071-0.067  l0.099-0.036l0.051-0.051l-0.066-0.111l0.148-0.098l0.088-0.04l0.06,0.002l0.093,0.116l0.051,0.027l0.072-0.035l0.066-0.023  l0.086-0.017l0.051-0.037l-0.074-0.153L57.6,7.429l0.076,0.006l0.199,0.106l0.152,0.001l0.125-0.068l0.046-0.137l-0.062-0.125  l-0.099-0.146l-0.031-0.142l0.138-0.117l0.125,0.367l0.086,0.115l0.002-0.282l0.026-0.041l0.087,0.009l0.038,0.03l0.007,0.058v0.092  l0.088,0.021l0.283-0.071L58.76,7.282l-0.051,0.163L58.68,7.496L58.581,7.55l-0.05-0.02l-0.043-0.037l-0.074,0.002l-0.135,0.108  L58.246,7.75l-0.004,0.152l-0.044,0.134l-0.212-0.27l-0.024,0.099l0.015,0.269L57.959,8.19L57.85,8.158l-0.084-0.076l-0.074-0.088  l-0.076-0.069l-0.012,0.034l-0.043,0.078l-0.149-0.061l-0.101,0.101l-0.055,0.18l-0.018,0.175L57.18,8.561l-0.255,0.281  l-0.058,0.124l0.048,0.146l3.504,3.839l0.279,0.455l1.006,1.118l0.248,0.748l0.187,0.271l0.377-0.007l0.359-0.126l0.152-0.106  l0.064-0.162l-0.086-0.17l-0.158-0.13l-0.074-0.094l0.16-0.06l-0.07-0.098l-0.111-0.003L62.634,14.6l-0.098-0.047l-0.427-0.53  l-0.061-0.047l-0.078-0.046l-0.068-0.055l-0.067-0.149l-0.087-0.05l-0.102-0.037l-0.071-0.042l-0.06-0.083l-0.1-0.172l-0.055-0.068  l-0.061-0.144l-0.033-0.204l-0.068-0.183l-0.16-0.079l-0.053-0.081l-0.4-0.455l0.033-0.125l0.295-0.129l0.047-0.169l-0.041-0.039  l-0.076-0.054l-0.058-0.076l0.017-0.103l0.053-0.005l0.086,0.049l0.082,0.068l0.045,0.051l0.035,0.195l-0.071,0.12l-0.287,0.215  l0.241,0.143l0.096,0.091l0.09,0.232l0.223,0.189l0.051,0.118l0.007,0.301l0.052,0.143l0.122,0.06l0.104,0.037l0.133,0.086  l0.115,0.098l0.049,0.073l0.076,0.047l0.369,0.009l0.144,0.025l0.134,0.098l0.086,0.111l0.068,0.115l0.186,0.222l0.053,0.029  l0.084,0.009l0.074,0.025l0.102,0.106l0.063,0.028h0.076l0.065-0.015l0.045-0.04l0.02-0.075l0.043-0.016l0.279-0.061l-0.139-0.171  l-0.084-0.069l-0.07-0.002l-0.063,0.083L63.6,14.193l-0.058,0.015l-0.071-0.032v-0.073l0.049-0.111l-0.082-0.098l-0.076-0.046  l-0.1-0.014l-0.141-0.001L63.018,13.8v-0.168l-0.082-0.063l0.34-0.22l0.117,0.005l-0.033,0.215l0.162-0.157l0.086-0.049l0.123-0.006  l-0.07,0.151l-0.026,0.08l-0.01,0.087l0.007,0.108l0.021,0.026l0.052-0.001l0.084,0.025l0.069,0.005l0.067-0.017l0.05,0.022  l0.021,0.122l0.026,0.069l0.064,0.002l0.086-0.013l0.088,0.026l-0.039,0.03l-0.119,0.128l0.224-0.089l0.188-0.213l0.104-0.263  l-0.037-0.238l0.295,0.068l0.076,0.042l0.09,0.123l-0.021,0.07l-0.1,0.013l-0.131-0.05l-0.033,0.114l-0.01,0.068l-0.016,0.057  l-0.047,0.084l-0.182,0.191l-0.12,0.249l-0.041,0.197l-0.057-0.009l-0.132-0.098l-0.228-0.06l-0.077,0.031l0.039,0.139l0.064,0.042  l0.111,0.034l0.194,0.031l0.142-0.063l0.152-0.118l0.129-0.068l0.061,0.09l0.083-0.044l0.187-0.143l0.075-0.03l0.108-0.008  l0.108-0.027l0.103-0.048l0.082-0.071l0.029,0.051l0.012,0.012l0.02,0.007l0.045,0.036l-0.025,0.101l-0.047,0.028l-0.065,0.002  l-0.077,0.028l-0.212,0.159l-0.231,0.084l-0.099,0.053l-0.123,0.101l-0.125,0.074l-0.155,0.04l-0.33,0.019l-0.123-0.039  l-0.105-0.057l-0.084,0.018L63.73,15.11l-0.107-0.048l0.051,0.249l0.172,0.13l0.244,0.046l0.456-0.027l0.071-0.035l0.096-0.074  l0.129-0.133l0.053-0.003l0.244,0.124l0.012,0.044l-0.172,0.125l-0.03,0.089l0.063,0.086l0.094,0.085l0.062,0.083l-0.129,0.12  l-0.031,0.04l0.007,0.025l0.002,0.404l0.028,0.059l0.07-0.117l0.061,0.089L65.1,16.818l0.066,0.153l0.042-0.019l0.122-0.035  l-0.042,0.073l-0.124,0.086l-0.051,0.052l-0.034,0.116l-0.015,0.127l-0.031,0.086l-0.084-0.006l-0.082,0.156l-0.078-0.088  l-0.076-0.177l-0.076-0.108l0.002,0.053l-0.006,0.11l0.004,0.053l-0.156-0.084l-0.076-0.019l-0.09-0.007l0.041-0.081l0.01-0.074  l-0.03-0.063l-0.073-0.046l0.106-0.011l0.112-0.038l0.078-0.039l-0.008-0.018l-0.084-0.011l-0.313-0.095l0.117-0.077l0.008-0.087  l-0.074-0.071l-0.131-0.03l-0.111-0.059l-0.176-0.258l-0.154-0.116l-0.117-0.255l-0.108-0.059l-0.111,0.034l-0.075,0.083  l-0.125,0.206l-0.041-0.111l0.01-0.106l0.084-0.212l-0.1,0.011l-0.06,0.042l-0.031,0.069l-0.022,0.09l0.049,0.357l0.229,0.357  l1.07,1.089l0.402,0.591l0.146,0.348l0.171,0.731l0.314,0.886l0.09,0.137l0.154,0.065l0.183-0.051l0.168-0.12l0.106-0.136  l0.187,0.136l0.063-0.003l0.075-0.081l0.037-0.087l0.048-0.187l0.068-0.096L66.7,19.77l0.26-0.062l0.524-0.021l0.5,0.072  l-0.03,0.085l-0.077,0.078l-0.095,0.057L67.693,20l-0.088,0.095l0.014,0.173l0.113,0.077l0.199-0.191l0.069,0.114l0.056,0.149  l0.07,0.099l0.122-0.035l0.147,0.102l0.396,0.127l-0.014,0.084l0.064,0.09l0.036,0.107l-0.021,0.089l-0.108,0.036l-0.103-0.048  l-0.295-0.274l-0.19,0.015l-0.179,0.112l-0.32,0.312l0.007-0.169l-0.053-0.018L67.2,21.344l-0.116,0.046l0.139,0.052l0.391,0.059  l0.154-0.005l-0.113,0.074l-0.103,0.01l-0.229-0.036l-0.091,0.055l0.02,0.121l0.1,0.201l-0.086,0.183l-0.134-0.085l-0.112-0.194  l-0.029-0.25l-0.393-0.615l0.014-0.047l0.074-0.084l0.017-0.081l-0.078-0.065l-0.112-0.032L66.2,20.724l-0.22-0.042l-0.127,0.01  l0.055,0.215l0.328,0.5l0.049,0.166l0.027,0.068l0.184,0.279l0.08,0.246l0.313,0.597l0.115,0.142l0.172,0.118l0.109-0.044  l0.223-0.317l0.064-0.051l0.15-0.078l0.075-0.052l0.106-0.042l0.08,0.031l0.039,0.055l-0.016,0.031l-0.188,0.063l-0.104,0.149  l-0.065,0.177l-0.086,0.146l-0.086,0.046l-0.229,0.046l-0.087,0.042l-0.07,0.094l-0.001,0.083l0.083,0.356l0.447,0.859l0.498,1.525  l0.133,0.122l0.237-0.085l0.054,0.014l0.045,0.025l0.031,0.007l0.039-0.035l0.028-0.088l0.039-0.035l0.322-0.159l0.055,0.117  l-0.026,0.107l-0.083,0.087l-0.109,0.065l0.077,0.013l0.063,0.031l0.045,0.049l0.031,0.066l-0.42,0.054L68.244,26.5l-0.368,0.106  l-0.21,0.366l-0.057,0.737l0.027,0.143l0.213,0.123l0.099-0.096l0.067-0.184l0.125-0.134l0.18,0.015l0.093,0.133l-0.011,0.15  l-0.127,0.073l-0.243,0.217l-0.101,0.036l-0.076,0.01l-0.067,0.026l-0.069,0.083l-0.033,0.084l-0.027,0.125l0.01,0.113l0.075,0.049  l0.126-0.02L67.92,28.6l0.03-0.077l0.06-0.089l0.156-0.035l0.217,0.055l0.154,0.116l-0.021,0.152l0.058,0.059l0.061-0.042  l0.06-0.016h0.146l-0.141,0.165l-0.22,0.012l-0.237-0.025l-0.207,0.061l0.157,0.13L68.25,29.1l-0.158,0.063l-0.107-0.056l-0.098-0.1  l-0.119-0.07v0.111h-0.047l-0.051-0.044l-0.053-0.059l-0.04-0.076l-0.013-0.086l-0.121,0.041l-0.146,0.021l-0.145-0.01l-0.123-0.052  l-0.036,0.115l0.038,0.134l0.066,0.142l0.038,0.139l-0.01,0.163l-0.076,0.276l-0.04,0.457l-0.058,0.299l-0.101,0.273l-0.274,0.491  l-0.063,0.289l-0.02,1.341l-0.028,0.135l-0.05,0.116l-0.021,0.117l0.051,0.138l-0.118,0.027l-0.045,0.081l0.002,0.239l-0.019,0.102  l-0.072,0.185l-0.063,0.283l-0.116,0.162l-0.932,0.76l-0.341,0.201l-0.375,0.097l-1.035-0.058l-0.172,0.039l-1.984,0.973  l-0.802,0.279L60.02,37l-0.229,0.347l-0.104,0.37l-0.039,0.357l0.047,0.355l0.147,0.359l0.234,0.311l0.282,0.237l1.054,0.609  l0.448,0.118l1.324,0.163l0.42,0.103l0.387,0.17l0.318,0.259l0.451,0.555l0.148,0.142l0.826,0.604l0.186,0.094l0.199,0.038  l0.477,0.037l0.623,0.179l0.631-0.004l0.201,0.028l0.432,0.157l0.541,0.263l0.711,0.622l0.154,0.218l0.592,0.472l0.121,0.175  l0.104,0.206l0.146,0.418l0.101,0.506l0.121,0.184l0.261,0.052l0.246-0.074l0.188-0.15l0.146-0.197l0.114-0.214h0.05l-0.009,0.195  l-0.063,0.158L71.9,45.547l-0.135,0.101l-0.174,0.102l-0.097,0.041l-0.103,0.022L71.266,45.8l-0.084-0.025l-0.049,0.028  l-0.031,0.308l-0.097,0.445l-0.067,0.136l-0.012,0.066l0.008,0.115l0.023,0.118l0.051,0.121l-0.051,0.025l-0.072,0.009l-0.057,0.001  l-0.025,0.019v0.044l0.006,0.051l-0.002,0.04l-0.045,0.18l-0.027,0.437l-0.064,0.159l-0.083,0.132l-0.209,0.529l-0.364,0.62  l-0.436,0.557l-0.46,0.379l-0.07,0.118l-0.165,0.354l-0.023,0.193l-0.023,0.078l-0.057,0.095l-0.068,0.071l-0.09,0.07l-0.098,0.055  l-0.09,0.021l-0.093,0.031l-0.137,0.143l-0.091,0.031l-0.061,0.051l0.059,0.103l0.093,0.093l0.043,0.021l0.03,0.104L68.282,52  l-0.039,0.068l-0.101,0.072l-0.102-0.203l-0.079,0.004l-0.103,0.09l-0.168,0.056l-0.117,0.075l-0.19,0.331l-0.194,0.136  l-0.301,0.277l-0.129,0.087l-0.353,0.053l-0.142,0.058l-0.09,0.154l0.073,0.27l0.284,0.222l0.378,0.147l0.356,0.057l0.102-0.036  l0.096-0.069l0.09-0.053l0.082,0.021l0.086,0.05l0.084-0.015l0.072-0.05l0.053-0.062l0.049-0.178l-0.11-0.076l-0.363-0.068  l0.044-0.127l0.066-0.094l0.091-0.078l0.121-0.073l0.162-0.058l0.229-0.029l0.203,0.045l0.09,0.176l-0.037,0.195l-0.17,0.307  l-0.059,0.164l0.008,0.189l0.053,0.142l0.015,0.128l-0.101,0.148l0.017,0.064l0.104,0.08l0.173,0.096l0.123,0.021l0.086-0.01  l0.073-0.043l0.382-0.313l0.178-0.094l0.199-0.039l0.211,0.018l0.926,0.271l0.086,0.055l0.035,0.082l-0.125,0.579l0.008,0.109  l0.051,0.095l0.066,0.079l0.035,0.086l-0.041,0.115l0.123,0.078l0.071,0.241l0.122,0.053l0.596-0.044l0.127-0.037l0.254-0.22  l0.131-0.071l0.533-0.161l1.709-1.009l0.455-0.179l0.389-0.213l0.287-0.229l1.184-0.735l0.787-0.833l0.165-0.293l0.247-0.708  l0.086-0.162l0.135-0.177l0.164-0.142l0.385-0.121l0.12-0.15L79,50.227l0.271-0.518l0.179-0.222l0.3-0.582l0.052-0.071l0.056-0.033  l0.127-0.013l0.054-0.028l0.153-0.223l0.043-0.086l0.031-0.09l0.012-0.079l0.068-0.099l0.463-0.353l0.45-0.562l0.151-0.038  l0.191,0.036l0.19-0.01l0.133-0.174l0.087-0.553l0.497-0.782l-0.079,0.009l-0.072,0.033l-0.063,0.054l-0.051,0.068l0.026-0.157  l0.07-0.129l0.193-0.215l0.086-0.047l0.07,0.036l0.064,0.06l0.075,0.027l0.063-0.022l0.338-0.24l0.313-0.35l0.19-0.289l0.123-0.267  l0.022-0.036l0.099-0.118l0.016-0.036L84,44.076l-0.016-0.196l0.008-0.101l0.033-0.074l0.106-0.129l0.165-0.316l0.26-0.683  l0.104-0.151l0.039-0.022l0.12-0.039l0.031-0.017L84.87,42.3l-0.005-0.046l-0.01-0.037v-0.029l0.178-0.519l0.06-0.086l0.179-0.054  l0.099-0.046l0.082-0.06l0.036-0.06l0.08-0.192l0.14-0.153l0.026-0.106l-0.246-0.051l-0.264,0.026l-0.137-0.002l-0.102-0.05  l-0.055-0.042l-0.203-0.119l-0.127-0.053l-0.047-0.044l-0.05,0.003l-0.078,0.113l-0.021,0.095l0.014,0.166l-0.031,0.045  l-0.131-0.072l0.02-0.218l0.15-0.411l-0.047-0.723l-0.055-0.16l-0.088-0.086l-0.09-0.055l-0.066-0.07l-0.025-0.129l0.006-0.136  l0.025-0.102l0.055-0.088l0.099-0.098l0.086-0.215l0.026-0.024l0.181-0.11l0.278-0.236l0.189-0.199l0.105-0.151l0.082-0.172  l0.031-0.172l0.092-0.094l1.065-0.397l1.438-0.548l0.201-0.144l0.072,0.018l0.07,0.051l0.097,0.03l1.257,0.027l1.229,0.044  l0.117,0.035l0.236,0.128l0.081,0.031l0.101-0.121l0.146-0.008l0.111,0.062l-0.007,0.091l-0.071,0.087l-0.069,0.111l-0.06,0.127  l-0.041,0.127l-0.009,0.229l0.062,0.249l0.213,0.477l0.117-0.101l0.123-0.078l0.097-0.088l0.067-0.249l0.185-0.391l0.424-0.34  l-0.107-0.196l-0.258-0.103l-0.537-0.046l0.059-0.155l0.103-0.114l0.063-0.113l-0.068-0.153l0.057-0.13l0.021-0.304L92,35.198  l0.084-0.455l0.008-0.407l0.049-0.174l0.137-0.193l0.019-0.09l-0.065-0.085l-0.146-0.121l-0.017-0.036l-0.022-0.083l-0.004-0.041  l0.008-0.092l0.027-0.005l0.053,0.017l0.065-0.025l0.162-0.095l0.197-0.04l0.197,0.035l0.307,0.223l0.137-0.058l0.791-0.549  l0.875-0.765l0.043-0.063l-0.006-0.502l0.033-0.068l0.293-0.12l0.053-0.066l0.007-0.109l-0.045-0.083l-0.08-0.055l-0.097-0.027  l0.054-0.101l0.018-0.17l0.035-0.1l0.125-0.107l0.067-0.074l0.025-0.088l-0.082-0.103l-0.147-0.136l-0.109-0.156l0.045-0.159  l0.117-0.134l0.095-0.153l0.024-0.155l-0.195-0.328l0.076-0.121l0.156-0.095l0.127-0.103l0.043-0.203l-0.084-0.169l-0.113-0.162  l-0.062-0.182l0.025-0.083l0.059-0.076l0.132-0.132l0.086-0.124l0.217-0.487l0.111-0.17l0.278-0.155l0.107-0.192l0.158-0.361  l0.295-0.244l0.145-0.196l0.066-0.069l0.014-0.131L96.85,25.488z M77.771,34.154l-0.061,0.071L77.4,34.424l-0.349,0.305  l-0.135,0.066l-0.256,0.087l-0.095,0.06l-0.123,0.119l-0.075-0.035l-0.097-0.016L76.1,35.008l-0.132,0.021l-0.04,0.055l0.024,0.084  l0.065,0.105l-0.127,0.031l-0.324-0.031l-0.117,0.019l-0.336,0.145l0.039-0.211l0.059-0.104l0.076-0.242l0.316-0.449l0.039-0.112  l-0.019-0.171l-0.073-0.093l-0.115-0.009l-0.281,0.166l-0.076-0.057l-0.025-0.13l0.002-0.134l0.07-0.286l0.15-0.238l0.229-0.165  l0.449-0.095L76,33.125l0.02,0.101l0.031,0.032l0.074-0.052l0.079-0.076l0.052-0.04l0.182,0.03l0.024,0.08l-0.021,0.12l0.052,0.146  l0.198-0.171l0.123-0.054l0.054,0.087l0.008,0.128l0.031,0.092l0.071,0.057l0.127,0.02l0.086-0.01l0.115-0.034l0.103-0.075  l0.043-0.125l0.032-0.034l0.072,0.022l0.072,0.055l0.033,0.064l-0.028,0.181l0.003,0.032l0.051,0.082l0.053,0.125l0.031,0.135  V34.154z M10.355,98.932l-0.04,0.008l-0.032,0.031l0.005,0.04l0.014,0.048l-0.013,0.036l0.063-0.087l0.012-0.027l-0.008-0.018  L10.355,98.932z M12.588,96.229l0.089-0.061l0.083-0.131l-0.101-0.059l-0.104-0.02l-0.115,0.01l-0.089,0.053l-0.032,0.103  l0.048,0.101l0.105,0.029L12.588,96.229z M12.679,99.451l0.057-0.027l0.003-0.037l0.024-0.004l0.031-0.033l-0.034-0.067  l-0.074,0.011l-0.105-0.021l-0.042,0.049l0.031,0.035l0.042,0.025l-0.001,0.068L12.679,99.451z M19.467,95.869l-0.089,0.066  l-0.113,0.033l-0.121,0.01l0.064,0.098l0.083,0.074l0.052,0.068L19.307,96.3l0.074-0.071l0.162-0.129l0.095-0.16l-0.123-0.172  L19.467,95.869z M10.699,99.455l-0.185,0.086l-0.093,0.109l0.062,0.092l0.177-0.039l0.189-0.092l0.102-0.066l-0.075-0.104  L10.699,99.455z M13.771,93.658l0.026-0.025l0.006-0.041l-0.023-0.04l-0.034,0.021L13.65,93.58l-0.024,0.021l0.082,0.006  L13.771,93.658z M16.851,97.184l0.005-0.053l-0.061-0.055l-0.063,0.035l-0.023,0.059l0.095,0.023L16.851,97.184z"/></svg>