<svg xmlns="http://www.w3.org/2000/svg" xmlns:xlink="http://www.w3.org/1999/xlink" version="1.1" x="0px" y="0px" viewBox="0 6 100 100" fill="#e0e0e0" enable-background="new 0 6 100 88" xml:space="preserve"><path d="M44.752,78.264l-0.059-0.197l-0.072-0.118l-0.233-0.041l-0.308-0.054l-0.256-0.098l-0.235-0.053l-0.239,0.078l-0.285-0.248  l-0.066-0.295l0.007-0.34l-0.058-0.381l-0.121-0.195l-0.205-0.162l-0.255-0.119l-0.118-0.061l-0.151-0.15l-0.244,0.107l-0.855,0.008  l-0.413,0.172l-0.262,0.342l-0.333,0.785l-0.232,0.248l0.781,0.459l0.333,0.105l0.396,0.028l0.632-0.149l0.349-0.029l0.479,0.279  l0.384,1.121l0.444,0.252l0.194,0.022l0.208,0.103l0.155,0.024l0.072-0.043l0.257-0.188l0.089-0.045l0.27-0.084l0.22-0.212  l0.078-0.288l-0.153-0.31L44.752,78.264z M90.877,7.167l-0.279,0.051L90.33,7.336l-0.268,0.118l-0.445-0.007L89.172,7.44  L89.13,7.447l-0.042,0.007l-0.246-0.092l-0.146-0.1l0.009-0.054l0.007-0.054l0.24-0.114l-0.889-0.092l-0.348,0.023l-0.304,0.194  l-0.104-0.268l-0.104-0.063l-0.104-0.063l-0.131-0.05L86.839,6.67l-0.253-0.194l-0.193,0.349l-0.313,0.336L85.67,7.4l-0.475,0.054  L85.01,7.356L84.766,6.99l-0.106-0.099l-0.265-0.044l-0.205,0.022l-0.067,0.102l0,0l0.136,0.195L84.152,7.3l-0.033,0.125  L84.107,7.73l-0.198-0.178l-0.113,0.086l-0.024,0.234l0.062,0.27l-0.112-0.053L83.42,8.005l0.045,0.063L83.52,8.21l0.039,0.07  L83.27,8.364l-0.504,0.389l-0.494,0.18l-0.098,0.218L82.13,9.423l-0.087,0.246h-0.15l-0.17-0.212l-0.371-0.108l-0.447-0.021  l-0.399,0.054l-0.377,0.173L80.09,9.667l-0.04,0.111l0,0l0.191,0.579h-0.15l-0.075-0.173l-0.149-0.09l-0.104-0.014l-0.104-0.014  l-0.129,0.008l-0.127,0.008l0,0l0.043,0.312l-0.42,0.159l-1.123,0.066l0.143,0.237l0.102,0.099l0.154,0.102h0.001l-0.186,0.002  L77.93,11.06l-0.4,0.125l-0.18,0.098l-0.18,0.097l-0.245,0.215l-0.116-0.145l-0.07-0.05l-0.079-0.021l-0.146-0.059l0.101,0.189  l0.024,0.085l-0.259-0.067l-0.162-0.169l-0.161-0.17l-0.123-0.066l-0.121-0.066l-0.049,0.231l-0.052,0.23l-0.004,0.186l0.104,0.166  l-1.994,0.104l-0.172-0.021l-0.174-0.021l-0.039-0.157l-0.104-0.055l-0.34,0.011l-0.213-0.028l-0.074-0.071l-0.053-0.093  l-0.463-0.285l-0.147,0.011l-0.22,0.178l0.234,0.473l0.139,0.186l0.178,0.167v0.15l-0.141,0.085l-0.041-0.004l-0.043-0.004  l-0.095-0.048l-0.17-0.028l-0.184,0.038l-0.104,0.086l-0.08,0.096l-0.121,0.068l-0.49,0.139l-0.297,0.021l-0.244-0.098l-0.479-0.497  l-0.076-0.064l-0.078-0.064l-0.183-0.099L69.27,11.95l-0.256,0.018l-0.111,0.239l0,0l0.104,0.946L68.904,13.6l-0.413,0.211  l-0.224-0.016l-0.49-0.108l-0.307-0.027l-0.154-0.107l-0.145-0.524l-0.195-0.195l-0.268,0.381l-0.141,0.254l-0.141,0.255  l-0.371,0.445l-0.752,0.255l-0.521,0.284l-0.224,0.065l-0.31-0.091l-0.211-0.175l-0.214-0.114l-0.307,0.092l0.03-0.197l0.03-0.197  l0.076-0.143l-1.473-0.042l-0.453-0.095l-0.781-0.327l-0.385-0.041l-0.373,0.217l-0.305-0.69l-0.21-0.336l-0.411-0.271l0,0  l0.02-0.269l0,0l-0.055-0.243l-0.403-0.048h0.001l0.011-0.04l0.159-0.197l0.063-0.058l-0.297-0.477L58.32,10.71l-0.262-0.076  L57.8,10.556l-0.53,0.023l-0.603,0.107l-0.603,0.106l-0.166,0.093l-0.166,0.093l-0.924,0.868l-0.36,0.25l-0.175,0.114l-0.183,0.119  l-0.276,0.253l-0.178,0.315l-0.105,0.745l-0.063,0.121l-0.106,0.048l-0.315,0.083l0,0l0.108,0.196l0.57,0.396l0,0l-0.441,0.408  l-0.121,0.155h0.523l0,0l-0.019,0.041l-0.013,0.028l-0.119,0.271l-0.719,0.699l-0.426,0.195l-0.342-0.248l-0.322-0.344L51.359,15.6  l-0.16,0.287l-0.088,0.559l-0.039,1.019L51,17.597l-0.466,0.481l-0.024,0.127l0.047,0.308l-0.021,0.127l-0.551,0.413l0,0  l0.324,0.208l0.359,0.319l0.259,0.403l0.021,0.459l-0.234,0.333l-0.415,0.245l-0.503,0.162l-0.5,0.086h-0.764l-0.209,0.043  l-0.479,0.232l-0.188,0.047l-0.11,0.112l-0.082,0.136l-0.143,0.167l-0.057,0.148l-0.029,0.033l-0.028,0.033l-0.042,0.009  l-0.043,0.009l-0.216-0.033l-0.044,0.007l-0.043,0.008L46.72,22.31l-0.097,0.091l-0.116,0.147l-0.116,0.147l-0.193,0.317  l-0.146,0.515l-0.166,0.383l-0.223,0.39l-0.233,0.283l-0.261,0.2l-0.261,0.2l-0.345,0.193l-0.726,0.194l-0.115,0.267l-0.044,0.321  l-0.189,0.277l-0.376,0.121l-0.322,0.056l-0.066,0.012l-0.116,0.021l-0.443,0.142l-0.189,0.281l-0.197,0.198l-0.353,0.104  l-0.354,0.105l0,0l0.064,0.211l-0.06,0.02l-0.056-0.001l-0.031,0.023l0,0L41,27.623h-0.126l-0.171-0.05l-0.41,0.346l-0.257,0.117  l-0.357-0.023l-0.209-0.047l-0.098,0.109l-0.024,0.442l-0.2,0.606l-0.082,0.39l0.076,0.175l0.301,0.092l0.115,0.233l0,0  l-0.044,0.312l-0.166,0.326l-0.182,0.163l-0.052-0.02l-0.269-0.293l-0.41-0.034l-0.471,0.015l-0.446-0.151l-0.323-0.381  l-0.196-0.413l-0.236-0.35L36.319,29l-0.275,0.016l-0.183,0.074l-0.186,0.038l-0.281-0.093l-0.134-0.123l-0.438-0.562l-1.425-1.008  l-0.058-0.534l0.219-0.433l0.005-0.223l0,0l-1.542,0.224l-0.279,0.14l-0.225,0.2l-0.106,0.174l-0.077,0.195l-0.146,0.257  l-0.235,0.24l-0.245,0.124l-0.236,0.089l-0.212,0.137l-0.695,1.058l-0.661,0.692l-0.661,0.692l-0.318,0.491l-0.157,0.596  l-0.06,0.153l-0.058,0.152l-0.234,0.259l-0.303,0.144l-0.368,0.089l-1.041,0.064l-0.141-0.021l-0.19-0.06l-0.12-0.083l-0.317-0.32  l-0.295,0.041l-0.271,0.14l-0.294,0.092l-0.356-0.099l-0.668-0.357l-0.797,0.045l-1.643,0.306l-0.88-0.108l-0.422,0.036  l-0.457,0.225l-0.233,0.157l-0.095,0.081l-0.035,0.123l-0.046,0.281l-0.078,1.424l0.039,0.183l0.079,0.105l0.092,0.068l0.021,0.016  l0.145,0.106l0.077,0.131l0.015,0.322l0,0l-0.063,0.323l-0.062,0.322v0.001l0.01,0.343l0.651,2.418l-0.033,0.314l-0.257,0.557  l-0.032,0.288l0.077,0.201l0.121,0.062l0.137,0.032l0.131,0.114l0.073,0.129l0.072,0.128l0.021,0.062l0.021,0.062l0.12,0.576v0.001  l-0.043,0.309l-0.157,0.266l-0.275,0.25l-0.139,0.093l-0.15,0.101l-0.19,0.049l-0.189-0.059l-1.16-0.56l-0.347-0.029l-0.325,0.09  l-0.267,0.18l-0.969,0.813l-0.163,0.197l-0.144,0.271l-0.146,0.566l-0.035,0.054v0.001l0.038,0.116l0.151,0.324l0.037,0.052  l-0.174,1.061l0.05,0.127l0.057,0.024l0.058,0.023l0.079,0.073l-0.054,0.197l-0.052,0.053l-0.05,0.052l-0.149,0.071l-0.149,0.072  l-0.114,0.088l-0.472,0.723L14.15,46.98l-0.517,0.318l-0.421,0.2l-0.109,0.329l-0.239-0.016l-0.462-0.278l-0.299-0.032L7.502,47.79  l-0.14,0.095L6.39,48.364l-0.203,0.321l0.226,0.183l0.526,0.057l1.05-0.026v0.151l-2.074,0.124l-0.858-0.181l-0.659-0.646  l-0.024-0.127l0.042-0.305l-0.018-0.131L4.33,47.729l-0.259-0.152L3.983,47.51L3.618,47.03l-0.129-0.071l-0.51-0.428l-0.097-0.061  l-0.097-0.096l-0.229-0.068l-0.274-0.035H2.056l0.068-0.119l0.057-0.433H2.057l-0.1,0.772L1.53,46.941l-0.583,0.354l-0.567,0.49  L0,48.484l0.005,0.59l0.295,0.5L0.793,50l2.365,1.389l0.447,0.424l0.298,0.226l0.205,0.026L4.1,51.838l-0.282-0.254l-0.534-0.346  v-0.125l0.404,0.104l0.457,0.24l0.338,0.274l0.052,0.205v0.125l0.18,0.115l0.096,0.035v0.125l-0.242-0.121L4.486,52.16l-0.088-0.098  l0.261,0.526l2.217,2.515l0.063-0.101l0.156-0.19l0.057-0.109l0.108,0.35l0.093,0.209l0.168,0.172l1.259,0.957l0.249,0.103  l0.39,0.362l0.525,0.652l0.329,0.281l-0.205-0.746h0.125l0.454,0.846l0.171,0.131l0.279,0.08l0.26,0.205l0.036,0.041l0.465,0.5  l-0.439-0.084l-0.462-0.184l-0.395-0.258l-0.231-0.301l0.052,0.465l1.392,0.615l0.617,0.647l1.135,0.644l0.258,0.313l4.128,2.477  l0.502,0.428l0.201,0.306l0.708,1.896l0.761,1.295l0.385,0.473l0.086,0.105l0.495,0.379l0.231,0.233l0.1,0.281l0.065,0.299  l0.344,0.635l0.313,0.439l0.531,0.526l0.203,0.107l0.218,0.182l0.54,1.195l0.268,0.328l0.121,0.148l2.413,1.813l0.227,0.635  l0.269,0.31l0.314,0.229l1.856,0.801l0.75,0.717l0.627,0.275l0.018,0.057l0.172,0.543l0.079,0.164l0.292,0.259l0.878,0.491  l0.689,0.72l0.537,0.272l0.676,0.81l0.313,0.288l0.701,0.195l0.066,0.086l0.309,0.215l0.094,0.043l0.178,0.123l2.151,2.379  l0.368,0.539l0.189,0.728l0.158,0.356l0.284,0.154l0.392,0.062l1.005,0.411l0.486-0.776l0.368-0.791l0.567-0.754l0.673-0.276  l0.576,0.295l0.285,0.252l0.285,0.252l0.325,0.182l0.326,0.18l3.218,1.174l2.282,0.832l2.546,0.93l3.591,1.31l0.465,0.051  l0.473-0.165l3.572-2.328l0.631-0.148l0.357,0.156l0.768,0.543l0.354,0.051l0.434-0.023l0.465,0.146l1.005,0.436l0.108,0.029  l0.104,0.043l0.097,0.051l0.086,0.063l0.459,0.563l0.172,0.144l0.091,0.051l0.09,0.051l0.217,0.084l0.22,0.021l0.19-0.078  l1.086-0.697l0.085-0.051l0.085-0.051l0.192,0.096l0.046,0.15l-0.004,0.203l0.04,0.252l0.091,0.145l0.269,0.332l0.055,0.143  l0.216,0.195l0.937,0.355l0.213,0.143l0.182,0.199l0.384,0.193l0.175,0.145l0.176,0.145l0.073,0.482l-0.28,0.145l-0.082,0.058  l-0.09,0.153l0.037,0.113l0.082,0.086l0.047,0.072l0.443,0.35l0.105,0.137l0.227-0.159l0.313,0.006l0.319,0.045l0.242-0.041  l0.374,0.362l0.232,0.087l0.231-0.173h0.138l0.244,0.236l0.501-0.318l0.345,0.082l0.119-0.118l0.118-0.119l0.271-0.043l0.225,0.147  l0.092,0.344l1.215,0.947l0.137,0.063l0.188,0.028l0.099-0.02l0.099-0.018l0.28-0.193l0.137-0.045l0.55,0.107l0.075-0.045  l0.413-0.476l1.338-0.502l1.428-0.338l0.708-0.356l0.059-0.55l0,0l-0.186-0.717l-0.02-0.865l0.01-0.1l-0.023-0.103l0.147-0.102  l0.118,0.023h0.063l0.063-0.002l0.079,0.008l0.08,0.01l-0.33-0.17l-0.428-0.088l-0.293,0.043l0.075,0.215l-0.354,0.066l-0.158-0.427  l-0.146-0.393l-0.367-0.224l-0.17-0.16l-0.479-0.76l-0.197-0.502l-0.604-0.92l-0.437-1.051l-0.619-2.645v-2.041l0.104-0.347  l0.186-0.309l0.643-0.806h0.125l0.428,0.066l0.271-0.713l0.195-0.941l0.206-0.627l0.159-0.147l0.17-0.08l0.197-0.029l0.242-0.006  l0.184-0.063l0.201-0.293l0.158-0.066l0.023-0.047l0.278-0.092l0.285-0.058l0.038,0.058l0.162-0.146l0.076-0.123l0.025-0.16  l0.012-0.258l-0.049-0.711l-0.936-3.678l-0.191-0.166l-0.338,0.012l-0.178,0.08l-0.111,0.203l-0.137,0.393l0.027,0.156l0.084,0.131  l-0.021,0.092l-0.296,0.035l-0.206-0.025l-0.194-0.069L78.65,71.35l-0.174-0.39l-0.272-0.313l-0.323-0.287l-0.265-0.176l0.086-0.174  l0.169-0.184l0.195-0.146l0.176-0.059l0.113-0.076l0.375-0.475l0.074-0.057l0.105-0.035l0.113-0.06l0.105-0.125l0.023-0.137  l-0.047-0.125l-0.067-0.115l-0.034-0.11l0.041-0.148l0.18-0.371l0.041-0.18l-0.015-0.267l-0.047-0.252l-0.082-0.215l-0.118-0.156  l-0.495-0.198l-0.245-0.146l0.107-0.068l0.832,0.246l0.361-0.01l0.113-0.387l0.033-0.322l0.305-0.438l0.075-0.343l-0.059-0.266  l-0.14-0.211l-0.342-0.349h-0.148l-0.26,0.273l-0.322-0.186l-0.031-0.301l0.613-0.063l0.378,0.176l0.354,0.338l0.266,0.396  l0.104,0.344l-0.158,0.463l-0.296,0.199l-0.172,0.215l0.213,0.51l0.503,0.617l0.145,0.344l-0.084,0.416l0.15-0.057l0.137-0.08  l-0.151-0.434l-0.147-2.582l0.447-2.394l0.942-1.853l-0.087-0.153l-0.396-0.058l-0.178,0.107l-0.125,0.26l-0.319,1.033l-0.093,0.186  l-0.042-0.127l0.021-0.229l0.104-0.396l0.022-0.202l-0.106-0.31l-0.632,0.133l-0.375-0.18l-0.148-0.367l0.065-0.387l0.144-0.404  l0.078-0.432l-0.139-0.9l-0.159-0.188l-0.136-0.041L79.37,57.92l-0.242-0.049l-0.171-0.012l-0.08,0.045l-0.023-0.023l-0.002-1.049  l0.151-0.266l0.367-0.119l0.871-0.092l0.646-0.269l1.072-0.885l0.633-0.361l-0.209-0.315l-0.078-0.096l0.096-0.152l0.045-0.139  l0.011-0.343l-0.031-0.209l-0.077-0.078l-0.095-0.055l-0.085-0.14l-0.029-0.141l-0.035-0.344l0.004-0.066l-0.047-0.043l-0.442-0.231  l-0.157-0.355l-0.013-0.411l0.18-0.371l0.416-0.238l0.517-0.039l0.541,0.129l0.39,0.322l0.067,0.539l-0.063,0.141l-0.093,0.1  l-0.084,0.068l-0.035,0.043l-0.032,1.127l-0.069,0.27l-0.173,0.191v0.15l0.267,0.613l-0.17,0.907l-0.496,0.63l-0.715-0.224H81.77  l-0.041,0.069l-0.013,0.013l-0.022,0.002l-0.073,0.041l0.094,0.502l-0.036,1.319l0.442,0.388l0.13,0.276l0.075,0.318l-0.017,0.234  l-0.121,0.131l-0.416,0.289l-0.151,0.145l0.399,0.215l0.473-0.073l0.504-0.179l0.495-0.102l0.647-0.023l0.408-0.131l0.211-0.33  l0.053-0.615l-0.135-0.504l-0.564-0.772l-0.192-0.642l-0.293-0.577l-0.065-0.195v-1.176l0.678-5.319l-0.441-2.615l-0.674-3.993  l-0.112-0.248l0.149-0.126l-0.145-0.28l-0.037-0.484l0.223-2.596l0.359-1.332l0.422-1.003l0.004-0.386l0.084-0.48l-0.029-0.989  l0.477-2.301l0.776-2.542l0.485-1.872l0.279-0.642l0.404-0.56l0.96-0.654l0.142-0.247l0.104-0.333l0.724-0.855l1.676-2.628  l0.547-1.271l0.098-0.691l-0.105-0.791l-0.977-2.765l-0.168-0.962l-0.189-0.375l-0.043-0.115l-0.789-3.532l-0.178-0.174  l-0.146,0.143l0.014,0.46l-0.167-0.271l-0.212-0.199L87.52,11.61l-0.228,0.123l0.17,0.067l0.372,0.222l0.146,0.124l-0.31,0.373  l-0.306-0.096l-0.291-0.271l-0.266-0.156l-0.137-0.184l-0.219-0.828l-0.277-0.215l-0.064,0.087l-0.197,0.201l0.212-0.479  l0.892-1.114l0.398-0.359l0.236-0.146l0.326-0.119l0.289,0.067l0.125,0.404l0.055,0.406l0.217,0.522l0.016,0.379l-0.154-0.192  l-0.2-0.071l-0.229,0.029l-0.24,0.11v0.125l0.18,0.109l0.064-0.016l0.156-0.093l-0.002,0.134l-0.018,0.1l-0.038,0.092l-0.067,0.112  v-0.15l-0.172,0.197L87.898,11.2l-0.049,0.121l0.692-0.269l0.242-0.181l0.165-0.251L89,10.421l0.036-0.432l0.052-0.195l0.102-0.144  l0.26-0.244l0.052-0.094l0.071-0.278l0.183-0.342l0.246-0.289l0.258-0.123l0.149-0.229L90.6,7.626l0.243-0.237l0.298,0.341  l0.182-0.189l0.369-0.166l0.147-0.208l-0.282,0.038L90.877,7.167z M32.141,61.766l-0.22,1.506L31.79,63.68l-0.179,0.273l-0.629,0.23  l-3.059,0.084l-0.296-0.074l-0.062,0.006l-0.044-0.01l-0.065-0.086l-0.025-0.107l0.008-0.141l0.036-0.125l0.057-0.054l0.286-0.092  l0.209-0.248l0.119-0.353l0.011-0.407l-0.299-0.675l-0.574-0.229l-0.659,0.119l-0.558,0.369l-0.228,0.27l-0.192,0.18l-0.238,0.005  l-0.647-0.447l-1.794-0.731l-0.592-0.326l-0.365-0.49l-0.072-0.809l0.015-0.408l0.032-0.146l0.091-0.135l0.138-0.08l0.134,0.016  l0.101,0.096l0.041,0.171l0.153,0.19l0.372,0.135l0.453,0.06l0.398-0.035l0.469-0.313l0.302-0.461l0.349-0.418l0.613-0.185  l0.299-0.043l0.459-0.188l0.344-0.043l0.377-0.123l0.248-0.233l0.23-0.164l0.326,0.097l0.128-0.095l0.139-0.024l0.143,0.033  l0.142,0.086l0.134,1.084l-0.064,0.166l0.071,0.131l0.576,0.565l0.178,0.129l0.214,0.308l0.367,1.485l0.039,0.55l0.45-0.412  l0.528-0.592l0.559-0.363l0.54,0.276l0.132,0.392L32.141,61.766z M58.829,85.928l-0.177,0.193l-0.869,0.631l-0.643,0.023  l-0.115,0.047l-0.105,0.076l-0.521,0.221L56.2,87.166l-0.413-0.078l-0.314-0.383l-0.441-0.088l-0.336-0.023l-3.625-0.816  l-0.324-0.012l-0.335,0.063l-0.327,0.021l-0.468-0.215l-0.225-0.018l-0.436,0.021l-0.169-0.087l-0.402-0.43l-0.205-0.172  l-0.745-0.257l-0.693-0.155l-0.836-0.063l-1.781-0.627l-0.286-0.203l-0.244-0.242l-0.243-0.188L42.8,82.886l-0.31-0.133  l-0.341-0.088l-0.664-0.067l-2.464-2.421l-0.363-0.618l-0.552-2.066l-0.143-0.328l-0.622-1.047l-0.336-0.287v0.287l-0.159-0.141  l-0.102-0.162l-0.042-0.188l0.016-0.211l0.098,0.053l0.196,0.035l0.119,0.052l-0.258-1.187l-0.155-0.33l0.104-0.101l0.018-0.094  l-0.041-0.104l-0.08-0.127h-0.14l-0.016,0.248l0.028,0.209l0.127,0.381l-0.289-0.211l-0.679-0.697l-0.134-0.27l0.061-0.185  l0.142-0.2l0.161-0.162l0.322-0.168l0.002-0.229l-0.138-0.369l0.009-0.937l-0.137-0.5l-0.36-0.217l-0.228-0.197l0.176-0.354  l0.29-0.146l0.112,0.424h0.138l-0.202-0.598l-0.191-0.177l-0.369-0.063l-0.141-0.162l-0.027-0.373l0.037-0.414l0.055-0.277  l0.229-0.633l0.642-1.262l0.38-0.459l0.543,0.166l0.542-0.129l0.449-0.287l0.396-0.201l0.011,0.039l0.313,0.236l1.338,0.715  l0.474,0.168l0.163,0.111l0.063,0.223l0.092,0.119l0.212,0.033l0.23-0.029l0.154-0.063v0.14h0.125l0.466-0.322l0.644,0.484  l0.905,1.075l0.146,0.127l0.389,0.597l0.224,0.533l0.97,0.959l0.449-0.431l0.859,0.174l0.895,0.439l0.549,0.366l0.168,0.252  l0.135,0.324l0.178,0.281l0.296,0.119l0.237,0.039l0.162,0.104l0.282,0.332l0.162,0.09l0.439,0.074l0.155,0.049l0.784,1.189  l0.742,0.875l0.048,0.078l0.05,0.145l0.041,0.064l0.063,0.043l0.155,0.049l0.058,0.033l0.34,0.324l0.148,0.197l0.159,0.528  l0.234,0.234l0.508,0.381l0.801,0.971l0.459,0.283l0.666,0.947l0.168,0.096l0.13,0.021l0.118,0.033l0.135,0.141l0.066,0.158  l0.045,0.207l0.025,0.393l0.102,0.41l0.234,0.231l0.271,0.203l0.207,0.322l-0.049,0.075l-0.119,0.063l-0.069,0.099l0.11,0.178  l0.244-0.051l0.194,0.004l0.188,0.121l0.572,0.565l0.189,0.285l0.127,0.463v1.582l0.066,0.433l0.246,0.657L58.829,85.928z   M87.697,20.019l0.492,0.166l0.205,0.115l0.127,0.146h0.151l-0.103-0.151L88.3,20.049l-0.055-0.098l0.056-0.253l0.135-0.013  l0.16,0.121l0.334,0.369l0.19,0.283l0.087,0.29l-0.123,0.249v0.125l0.24,0.276l0.143,0.377l0.021,0.397l-0.129,0.338l-0.295,0.239  l-0.196-0.129l-0.195-0.287l-0.289-0.237L88.29,22.2l-0.091,0.008l-0.229-0.113l-0.097-0.263l-0.024-0.129l-0.004-0.158l0.049-0.172  l0.092-0.115l0.092-0.079l0.045-0.06l-0.009-0.35l-0.103-0.235l-0.314-0.366V20.019L87.697,20.019z M38.176,72.396l-0.146-0.158  l-0.464,0.143l-0.241,0.018l-0.194-0.159l-0.553,0.424l-0.05,0.196l0.028,0.146l0.107,0.146l0.189,0.199l-0.124,0.016l-0.287,0.109  l1.939-0.063l-0.095-0.66L38.176,72.396z M99.934,18.925l-0.178-0.165l-0.268-0.002l-0.327,0.158l-0.147,0.191l-0.072,0.231  l-0.131,0.226l-0.324,0.176l0.008,0.081l-0.023,0.048l-0.046,0.018l1.069,0.091l0.367-0.163L100,19.254L99.934,18.925z   M93.533,63.883l-0.19,0.354l0.039,0.451l0.582-0.633l0.079-0.133l-0.229-0.182L93.533,63.883z M98.415,19.89l0.009-0.002  l-0.089-0.008L98.415,19.89z"/></svg>