<svg xmlns="http://www.w3.org/2000/svg" xmlns:xlink="http://www.w3.org/1999/xlink" version="1.1" x="0px" y="0px" viewBox="-461 335 100 100" fill="#e0e0e0" style="enable-background:new -461 335 100 100;" xml:space="preserve"><path d="M-361,367.4l-0.1-0.1c-0.6-0.7-1.2-1.3-1.8-2l-0.5-0.4l-0.1-0.1l-0.1-0.1l-0.1-0.2l-0.1-0.3l0.1-0.3l0.2-0.3l0.3-0.1  c-0.1-0.1-0.1-0.2-0.2-0.3l-0.1-0.2c-0.5-0.9-1.1-1.7-1.6-2.5l-0.2-0.3l-0.1-0.1l-0.3-0.2l-0.1-0.1l0-0.1c0-1.1,0-2.2-0.1-3.3  c-0.4-2.3-0.8-4.5-1.2-6.8l0-0.1l0,0l0,0c-1.6,0.9-3.1,1.7-4.7,2.6l-0.1,0l-0.1,0c-1.3-1.1-2.5-2.3-3.8-3.4l-0.7-0.4  c-0.9-0.2-1.7-0.4-2.6-0.6c-2.3-0.6-4.6-1.1-7-1.7c-1.3,0.8-2.5,1.6-3.8,2.4c-2,1.3-4,2.6-6.1,3.9c-2,1.3-4.1,2.6-6.1,3.9  c-2.1,1.3-4.1,2.6-6.2,3.9c-2,1.3-4.1,2.6-6.1,3.8c-1.7,1.5-3.4,3-5.1,4.5c-1.8,1.6-3.5,3.2-5.3,4.8l-0.3,0.2l-0.3,0.1  c-0.9,0.2-1.7,0.3-2.6,0.5c-2.4,0.5-4.7,0.9-7.1,1.4c0,2.4,0,4.7,0,7.1c0,2.4,0,4.7,0,7.1l-0.1,0.1l-0.1,0l-0.1,0l0,0.1l0,0.1l0,0.6  l0,0.1l-0.1,0.1l0,0.1c0,0.9,0,1.7,0,2.6l0,0.2l-0.1,0.1l-0.3,0.1l-0.1,0.1l-0.1,0.1l-0.1,0.1l-0.6,1.4l0,0.2l0,0.2l0.1,0.2l0,0  c0,0,0,0,0,0c0,0,0,0,0,0l0,0l0,0l-0.4,0.4l-0.1,0.1l0,0.1l-0.1,0.6l0,0.3l-0.1,0.2l-0.2,0.2l-0.2,0.1l-0.5,0.1l-0.2,0.1l-0.5,0.5  l-0.6,0.3l-0.1,0.2l-0.1,0.7l-0.1,0l0,0c-0.9-0.1-1.7-0.3-2.6-0.4l-0.2,0l-0.1,0l0,0l0,0.1l0,0.1v0.2l0,0.1c-1.1,0-2.2,0.1-3.4,0.1  c-2.4,0.1-4.8,0.2-7.2,0.2l-0.2,0.1l-0.2,0.1c-0.6,0.6-1.3,1.2-1.9,1.7l-0.2,0.1l-0.2,0l-1,0c-0.1,0-0.2,0.1-0.4,0.1l-0.2,0l-0.1,0  l-1-0.4l-0.2,0l-0.4,0.1l-0.2,0l-0.2,0l-0.8-0.2l-0.1,0.1l0,0.2c0,0.2,0,0.3,0.1,0.5l-0.1,0.1l-0.1,0.1l-0.1,0.1l0,0.2l0.2,0.4  l0,0.2l-0.4,1.2l0,0.3l0.2,0.3l1,0.9l0.3,0.4l0,0l0,0.1l-0.1,0.1l0,0.1l0,0.2l0,0.1l-0.2,0.2l0,0.1l0,0.1l0.1,0.1l0,0l0,0l0,0l0,0.1  l0,0l-0.1,0.1v0.1l0.1,0.1l0.1,0l0.1,0.1l0,0.1l0,0.1l0.1,0.1l0.1,0.1l0.1,0.1l0,0.1l-0.1,0.1l0,0.1l0,0l0.1,0.1l0,0.1l0.1,0.1  l0.1,0.1l0.1,0.1l0.2,0.1l0.1,0.1l0.1,0.1l0.1,0l0,0.1l0,0.1l-0.1,0.1l0,0.1l0.1,0.2l0.2,0.1l0.8,0l0.1,0l0,0v0.1l0,0l0,0l0,0l0,0  l0.1,0.1l0.1,0.1l0.1,0l0.2,0l0.3,0.1l0.3,0.2l0.3,0.3l0,0.3l0.1,0.2l0.2,0.2l0.7,0.3l0.1,0l0.3,0l0.1,0l0.1,0.1l0.1,0.1l-0.2,0.1  l-0.1-0.1l-0.1-0.1l-0.1,0l0,0l0,0.1l-0.1,0.2l0,0l-0.1-0.1l-0.3-0.1l-0.5-0.2l-0.1,0l-0.1,0.3c0,0.6,0,1.1,0,1.7l0,0.1l0.1,0.1  l0.2,0.1l0.5,0l0.2,0.1c0.9,0.7,1.8,1.5,2.7,2.2l0.2,0.1l0.2,0.1c0.5,0,1,0.1,1.4,0.1l0.1,0l0.1-0.1l0.1-0.1l0.1-0.1l0.1-0.2l0-0.1  l0,0l0.1,0l0,0l0,0l0.1,0l0.1-0.1l0.1,0l0.6,0.1l0.3,0.1l0.2,0.2l0,0.1l0,0l0.1,0.1l0.1,0.1l0.1,0.1l0.1,0.1l0,0.1l0,0.1l0,0.4  l0,0.1l0.1,0.1l0,0.1l0.1,0.1l0,0v0l0,0.1v0l0,0.1l0,0.1l-0.1,0l-0.4,0l0,0l-0.1,0l0,0l0,0l0,0.1l0,0l-0.4,0.1l-0.1,0.1l0,0.2  l0.1,0.2c0.6,0.8,1.1,1.6,1.7,2.4l0.3,0.3l0-0.1l-0.1-0.1l0-0.1l0-0.1l0.1,0l0.1,0l0.1,0l0,0l0.1-0.1l0,0l0.1,0l0.1,0l0,0l0-0.1  l0-0.1l0,0l-0.1,0l-0.1,0l-0.1-0.1l0-0.1l0-0.1l-0.2-0.6l-0.1-0.4l0-0.1l0.1-0.1l0.2-0.1l0.1,0l0.1,0l0.1,0l0,0l0.1-0.1l0,0l0,0l0,0  l0,0l0-0.1l0-0.1l0,0l0.1,0l0.1,0l0,0l0,0l0,0l0,0l0,0l0.1-0.1l0,0l0.2-0.1l0,0l0.1,0l0,0l0,0l0.1-0.1l0,0l0.2,0.1l0.1,0l0.1-0.1  l0-0.1l0,0l0,0l0,0l0.1,0l0.1,0l0.1,0l0.1,0l0.1-0.1l0.1,0l0.1,0l0.1,0l0.1,0l0.1,0l0.1-0.1l0.3,0.3l0.1,0.1l0.1,0.1l0,0.1l0,0.1  l0.1,0.1l0.1,0l0.1,0l0.2,0l0.1,0l0,0l0.1,0.1l0.3,0.4l1.1,1l0,0l0.1,0.1l0,0l0,0.1l0,0.1l0,0.1l0.1,0.2l0.1,0.1l0.1,0.1l0.1,0.1  l0.1,0l0.1,0l0.1-0.1l0.1,0l0.1,0l0.1,0l0.3,0.2l0.2,0.1l0.1,0l0.1,0l0.2,0.3l0,0l0,0l0,0l0,0l0,0.1l0,0l0,0.1l0,0l0.1,0l0.1,0.1  l0,0l0.3-0.2l0.1-0.1l0-0.1l0-0.1l-0.1-0.1l-0.1-0.2l0,0l0,0l0-0.1l0-0.1l0-0.4l0-0.1l0.1-0.1l0.1-0.1l0.1-0.2l0-0.2l-0.2-0.5l0-0.3  l0.2-0.8l-0.1-1.6l0-0.1l1.4-1l0.4-0.4l1-1.6l0.2-1.5l0-1.5l0.4,0l0.2,0l0.2-0.1l1-1l0.3-0.2l0.3-0.1l2-0.5l0.2,0l0.1,0.1l0.1,0.1  l0.1,0.1l0.4,0l0.6-0.1l0.9,0l0.2,0l0.1,0l0.2-0.1l0.1-0.1l0.1-0.2l0.1-0.1l0.2-0.1l0.9-0.2l0.2,0l3.6,1.4l0.1,0l0,0l0,0l0.1,0  l0.4-0.2l0.1,0l0.5,0.1l0.4,0.2l0.9,0.8l1,1.1l0.7,1.2l0.4,0.4l0.2,0.2l0.2,0.2l0.2,0.1l0.2,0l0.5,0l0.2,0l0.1-0.1l0.3-0.3l0.4-0.5  l0.1,0l0.7,0.1h0.2l0.2-0.1l2.3-1.4l0.2-0.1l0.2,0l1.6,0.2l0.2,0.1l0.1,0.1l0.1,0.1l0.2,0.1l0.2,0.2l0.1,0l0.2,0.1l0.1,0l0.1,0.1  l0.2,0.2l0.6,0.6l0,0l0.1,0l0,0l0,0l0.1,0l0.1,0l0.2,0h0.1l0.2,0l0.2,0.1l0.3,0.2l0.1,0.1l0.2,0.3l0.1,0.1l0.2,0.1l1.7,0.5l2.1,0.2  h0.2l0.3-0.1l0.1,0l1.3,0.2l0.1,0l0,0l0.1,0l0.1-0.1l1.1-1.3l0.2-0.2l0.1-0.1l0.1,0l0,0l0,0l0-0.1l0-0.1l0-0.2l0-0.1l0.1-0.1  l1.2-0.7l0.3-0.1l3.2-0.7l0.6,0l1.1,0.1l3.1,0l1.9,0.5l0.7,0.3l0.9,0.5l0.3,0.2l0.1,0.1l0.4,0.1l0.2,0l0.1,0l0.1-0.1l0.1,0l0.3,0.1  l0.1,0l0,0l0,0l0,0l0.1,0l0,0l0,0l0,0l0.1,0l0.1,0l0,0.1l0,0l0.1,0l0.1,0l0.4,0l0.1,0l0.1,0l0.1,0l0.1,0l0-0.1l0.1-0.3l0,0l0.1,0  l0,0l0.1-0.1l0-0.1l0-0.1l-0.1,0l0-0.1l0.1-0.1l0-0.1l0.2-0.2l0,0l0,0l0,0l0,0l0,0l0,0l0-0.1l0.1,0.1l0.1,0.1l0.1,0l0.1,0l0.1,0  l0-0.1l0.1,0l0.1,0l0.1-0.1l0.2-0.2l0-0.1l0,0l0,0l0,0l0,0l0,0l0.1,0l0,0l0,0l0-0.1l0,0l0.1,0l0,0l0,0l0.1,0l0,0l0,0l0-0.1l0,0  l0.2-0.2l0.1-0.1l0-0.1l0,0l0,0l-0.1,0v0l0.1,0l0.1,0l0.1,0l0-0.1l0.2,0l0.2,0l0.6-0.3l0.2-0.1l0.2,0v0l0,0.1l0.1,0l0.1,0l0.1,0l0,0  l0,0.1l0,0l0-0.1l0,0l0.1,0l0,0.1l0,0.1l0,0.1l0.2-0.1l0.2,0l0.2-0.1l0.1-0.1l-0.1,0l0,0l0.1-0.1l0,0l0,0l0,0l0-0.1l0,0l0,0l0,0  l0-0.1l0-0.1l0.3-0.2l0.1-0.1l0-0.1l0.1,0l0.2,0l1.6,0.1c-0.2-1-0.4-2.1-0.7-3.1l0-0.2l-0.1-0.3c-0.1-0.3-0.1-0.5-0.2-0.8l0-0.4  l0.2-0.3l0.2-0.1l0.2-0.1l0.3,0l0.3,0l0.2-0.2l0-0.1l0-0.1l0-0.2l0,0l-0.1-0.1l0,0l0,0l0.1-0.1l0.2-0.2l0.1,0l0.1,0l0.1,0l0.1-0.1  l0.1-0.2l0-0.1l-0.1-0.3l0-0.1l0-0.1l0-0.1c0.2-0.3,0.3-0.7,0.5-1c1.1-1.6,2.3-3.2,3.4-4.8c0.7-0.7,1.4-1.5,2.1-2.2  c1.6-1.7,3.2-3.4,4.8-5.1l0.1-0.1l0-0.1c0.2-2.1,0.4-4.2,0.5-6.3c0.2-2.2,0.4-4.5,0.6-6.7c0.2-2.2,0.4-4.5,0.6-6.7l0.2-0.5  c0.4-0.8,0.8-1.5,1.2-2.3l0-0.1L-361,367.4z"/></svg>