<svg xmlns="http://www.w3.org/2000/svg" xmlns:xlink="http://www.w3.org/1999/xlink" version="1.1" x="0px" y="0px" viewBox="-461 335 100 100" fill="#e0e0e0" style="enable-background:new -461 335 100 100;" xml:space="preserve"><path d="M-408.1,347.3l0.1,0.1l0.2,0l0.2-0.1l0.3-0.2l0-0.1l0-0.2l0-0.2l-0.1-0.1l-0.1,0l-0.1,0l-0.2,0.1l-0.1,0.1l0,0.1l0.1,0.1  l0,0.1l-0.2,0.3L-408.1,347.3z M-409.5,426.1l-0.1-0.1l0-0.2l-0.3,0.1l-0.4,0.1l-0.3,0.2l0.1,0.2l0.1,0.1l0.4,0l0.2,0l0.2-0.1  l0.3-0.2l-0.1,0L-409.5,426.1z M-411.5,426.3l-0.1,0l-0.1,0.1l-0.1,0.1l0,0.1l0.1-0.1l0.3,0l0.1-0.1l-0.1,0L-411.5,426.3z   M-382.3,395.1l0-0.2l0-0.2l0.1-0.2l0-0.2l-0.1-0.2l-0.1,0l-0.1,0.1l-0.1,0.3l-0.2,0.4l-0.5,0.6l-0.1,0.2l-0.1,0.2l0,0.4l0,0.2  l-0.1,0.2l-0.2,0.1l-0.2,0l-0.2,0l-0.2,0.1l0,0.1l0,0.2l0,0l-0.1,0l-0.2,0.1l-0.1,0.1l-0.1,0.1l-0.1,0.1l-0.1,0.8l0,0.1l0,0.2l0,0.3  l0,0.3l0.1,0.2l0.1,0l0.1-0.1l0.1-0.1l0-0.1l0-0.1l0.1,0l0.1,0l0.1,0l0.1-0.1l0.2-0.2l0.3-0.3l0-0.1l0-0.1l0-0.1v-0.1l0.1-0.2  l0.1-0.5l0.1-0.2l0.2-0.3l0.2-0.2l0.4-0.2l0.4-0.3l0.1-0.1l0-0.1l-0.4-0.7L-382.3,395.1z M-408.7,338.3l0.1,0l0.2,0.4l0,0.2l0,0.2  l-0.1,0.3l0,1l-0.1,0.2l-0.2,0.3l0,0.2l0,0.2l0.2,0.3l0,0.1l-0.1,0.1l-0.1,0.1l-0.1,0.1l0,0.2l0,0.5l0.1,0.1l0.1,0l0.2,0l0.1,0.1  l0.1,0.2l0.1,0.1l0.2,0l0.2,0l0.4-0.1l-0.1-0.1l-0.1-0.3l0.1-0.4l0.1-0.3l0.1-0.2v0.2l0.1-0.1l0.1-0.1l0.2-0.3l0.2-0.2l0-0.3l0-0.1  l0.1-0.2l0.2-0.2l0.1-0.2l-0.2-0.3l0.1-0.1l0.1,0l0.2,0l0.1,0.1l0-0.1l0,0l0.1,0l-0.2-0.1l-0.1,0l0-0.1l-0.1-0.2l0-0.1l0.2-0.1  l0-0.2l-0.1-0.1l-0.2,0.1l0-0.2l0.1-0.1l0.3-0.1l0.3-0.2l0.1-0.1l0.1-0.1l-0.9,0l-0.2-0.1l0-0.1l0-0.1l0-0.1l-0.1-0.1l-0.1,0  l-0.1,0.1l-0.1,0.2l0-0.1l0-0.1l0-0.1l0-0.1l-0.1-0.1l0.1-0.2l0.2-0.1l0.2,0l-0.1,0l0,0.1l0,0.1l0,0.1l0.1,0l0.1-0.1l0.1,0l0,0.2  l0.1,0.1l0.1,0l0.1-0.1l0.1,0.1l0.1,0l0.1,0l0.1,0l-0.1-0.2l-0.1-0.1l-0.1-0.1l-0.1-0.1l0-0.1l0-0.1l0-0.1l0-0.1l0.1,0l0.1,0  l0.1,0.2l0.1,0l0.2-0.3l-0.1-0.2l-0.1,0l-0.1,0.1l-0.1,0l-0.1,0l-0.1-0.1l-0.2-0.2l0.1-0.1l0-0.1h0l0.2-0.1l0.3-0.3l0.2-0.1l0.2,0  l0.1,0l0-0.1l-0.1-0.3l-0.2,0.1l0,0l0,0.1l0,0l-0.1,0l-0.1,0l-0.2-0.1l-0.1-0.1l-0.1-0.1l-0.1,0l-0.1,0.1l0-0.1l0,0l0,0l0-0.1  l-0.1-0.1l0,0l-0.2,0.1l-0.1-0.3h-0.1l0,0.2l0,0.2l-0.1,0.1l-0.1,0.1l-0.1,0h-0.1l-0.1,0l0,0.1l0.1,0l0.1,0.1l0.1,0.1l0,0.1  l-0.1,0.2l-0.1,0l-0.3-0.2v0.2l-0.1,0.4l0,0.1l0.1,0l0.1-0.1l0.1-0.1l0.1-0.1l0.1,0l0.1,0l0.2,0l0.1,0l0.1,0.1l0,0.1l0,0.1l-0.1,0  l-0.3-0.1l-0.1,0l-0.3,0.2l-0.1,0l-0.1,0l-0.1,0l-0.1,0.1l0-0.2l-0.1-0.1l-0.1,0l-0.1,0l0,0.1l-0.3,0l-0.1,0.1h-0.1l0-0.2l0-0.1  l-0.1-0.2l0-0.1l0-0.1l-0.2,0.1l-0.1,0.1l-0.2,0.5l-0.6,1l-0.1,0.4l0,0.1l0.2,0L-408.7,338.3z M-373.3,376l-0.1-0.3l-0.2-0.3  l-0.3-0.1l-0.2,0l-0.1,0l0,0.1l0.1,0.2l0.1,0.1l0,0.1l-0.1,0l-0.1,0l-0.1,0l0,0l-0.1-0.1l0-0.1l0,0v0l0-0.1l0-0.1l0,0l-0.1,0l-0.1,0  l-0.1,0l-0.4-0.3l-0.3-0.1l-0.7,0.3l-0.1,0l-0.1,0l-0.1-0.1v-0.1l0.1,0l0.1,0l0.1,0l0-0.1l-0.1-0.1l-0.2-0.1l-0.2-0.2l-0.3-0.2  l-0.4-0.4l-0.1-0.2l-0.1-0.2l-0.4-0.6l-0.3-0.2l-0.2-0.1l-0.1-0.2l0-0.1l-0.3-0.9l-0.2-0.3l-0.2-0.3l-0.3-0.2l-0.5-0.3l-0.3-0.2l0,0  l0-0.1l-0.1-0.3l0-0.1l-0.6-0.6l-0.1-0.6l-0.1-0.2l-0.3-0.3l-0.1-0.2l-0.2-0.4l-0.1-0.2l-0.3-0.2l-0.6-0.5l-0.1-0.2l-0.1-0.5  l-0.1-0.1l0-0.2l-0.1-0.2l-0.2-0.3l-0.1,0.1l0,0l-0.1,0l0,0.1l0,0h-0.1l0-0.1l0,0l0,0l0-0.1l-0.1,0.1h-0.1l0-0.1l-0.1-0.1l-0.1-0.1  l-0.1,0l-0.1,0l-0.1,0l0,0l0,0l0-0.1l0,0l0,0l-0.1-0.1l-0.2-0.4l-0.1-0.1l-0.2-0.1l-0.2,0l-0.4,0l-0.2-0.1l-0.1,0l-0.1,0.2l-0.1,0.1  l-0.2,0.1l-0.4,0.1l-0.5,0l-0.4-0.1l-0.3-0.1l-0.2-0.1l-0.4-0.4l-0.2-0.1l-0.2,0l-0.6-0.3l-0.4-0.1l-0.4,0l-1.2,0.1l-0.2,0l-0.3-0.1  l-0.2-0.1l-0.1-0.1l-0.3-0.4l-0.2,0l-0.6,0l-0.2,0l-0.4-0.1l-0.6-0.2l-0.7-0.3l-1.8-0.5l-1.4-0.5l-0.3-0.2l-0.9-0.7l-1.1-1l-0.9-1.1  l-0.1-0.3l-0.1-0.2l-0.2-0.3l-1-1.3l-0.5-0.5l-0.2-0.3l-1.1-2.1l-0.1-0.4l-0.1-0.2l-0.1-0.1l-0.6-1.3l-0.2-0.9l-0.5,0.1l-0.1,0.1  l-0.1,0.6l-0.1,0.1l-0.3,0.2l-0.4,0.4l-0.2,0.1l-0.4,0l-0.1,0.1l-0.2,0.4l-0.2,0.3l-0.1,0.2l-0.1,0.1l-0.2,0.1l-0.2,0l-0.2,0  l-0.3-0.2l-0.3-0.7l-0.4-0.3l-0.1-0.2l0-0.1l0.2,0l0.1,0l0.1,0.1l0.2,0.2l-0.1-0.7l-0.1-0.3l-0.3-0.2l-0.4-0.1l-0.4,0.1l-0.3,0.2  l-0.3,0.3l-0.3,0.4l-0.1,0.3l0.1,0.8v0.2l0,0.4l0,0.2l0.2,0.4l0,0.2l-0.3,0.2l-0.1,0.4l-0.1,0.1l-0.1,0.1l0,0.2l0.1,0.4l0,0.6l0,0.2  l0.1,0.1l0.2,0.1l0.1,0.1l0,0.1l0,0.5l-0.1,0.2l-0.4,0.7l-0.1,0.2l0,0.2l0.1,0.1l0.6,0.1l0.2,0l0.5-0.2l0.3,0.1l0.2,0.4l0.1,0.4  l0.4,0.6l-0.1,0.2l-0.6,0.1l-1.1,0.5l-0.2,0l-0.3-0.2l-0.2,0l-0.2,0.1l-0.1,0l-0.3-0.1l-0.3,0l-0.3,0.1l-0.3,0.1l-0.3,0.2l-0.2,0.1  l-0.4,0.2l-0.4,0.1l0,0.2l0.1,0.2l0.2,0.1l0.3,0.2l0.2,0.2l0,0.3l0,0.8l0,0.1l-0.4,0.7l-0.1,0.2l-0.3,1.3l-0.1,0.2l-0.4,0.4l0,0  l-0.2,0.3l-0.1,0.3l-0.2,1l-0.2,0.6l-0.9,1.6l-0.3,1l0,0.3v0l0.1,1.5l-0.1,1.5l0.6,1l0.8,1.3l0.8,1.3l0.8,1.3l0.8,1.3l0.5,0.8  l0.1,0.2l0,0.2l-0.4,1.3l-0.1,0.2l-0.2,0.6l-0.3,0.9l-0.4,1.2l-0.4,1.4l-0.5,1.5l-0.5,1.6l-0.5,1.7l-0.5,1.7l-0.5,1.6l-0.5,1.5  l-0.4,1.4l-0.4,1.1l-0.3,0.9l-0.2,0.6l-0.1,0.2l-0.3,1l-1.4,0.5l-1.6,0.6l-1.6,0.6l-1.6,0.6l-1.6,0.6l-1.6,0.6l-1.6,0.6l-1.6,0.6  l-1.6,0.6l-1.6,0.6l-1.6,0.6l-1.6,0.6l-1.6,0.6l-1.6,0.6l-1.6,0.6l-1.6,0.6l-2.7,0.9l0.3,0.8l0.4,1l0.4,1l0.4,1l0.4,1l0.4,1l0.4,1  l0.8,1.9l0.4,1l0.4,1l0.4,1l0.4,1l0.4,1l0.4,1l0.4,1l0.4,1l0.3,0.7l0,0l0,0l0,0l0.1,0.1l0.4,0l0.2,0.1l0.1,0.1l0.4,0.8l0.6,1.4  l0.6,1.3l0.6,1.4l0.6,1.3l0.8-0.4l1.6-0.5l0.8-0.1l1.5,0l0.3-0.1l0.3-0.2l0.2-0.1l0.1-0.1l0.1-0.2l0.2-0.2l0.2-0.2l0.2-0.1l0.2,0  l0.2-0.1l0.2-0.1l0.2-0.1l0.2,0l0.6-0.1l0.4,0l0.2-0.1l0.1-0.1l0-0.1l0.1-0.1l0-0.1l0-0.1l0-0.1l0-0.1l0-0.1l0.1-0.1l0.4-0.2l0.2,0  h0.8l1.8-0.2l0.1,0l0.1,0l0.2-0.1l0.2,0l0.5,0.1l0.1,0l0.2-0.1l0.1,0h0.1l0.3,0.1l0.1,0l0.2,0l0.1,0l0.1,0l0.3,0.1l0.4,0.1l0.1,0.1  l0,0.2l0.1,0.2l0.1-0.1l0.3,0.2l0.1,0l0.2,0l0.1-0.1l0.1,0.1l0.2,0l0.3-0.1l0.4-0.1l0.2-0.1l0.1-0.2l0.1,0l0.1,0l0.1,0l0.2,0  l0.1-0.1l0.1-0.1l0.1-0.1l0.1,0.2h0.1l0.4-0.3l0.4-0.4l0.1-0.1l0.1-0.1l0.1-0.1l0-0.1l0.1-0.1l0.3-0.1l0.1-0.1l0,0l0.1-0.2l0-0.2  l0-0.1l0.1-0.1l0.1-0.1l0.3-0.1l0.1-0.1l0-0.1l0-0.1l-0.1,0l-0.1-0.1l0-0.1l0-0.1l0-0.1l0.4-0.5l0.1-0.2l0-0.5l-0.1-0.2l-0.2-0.2  l-0.3-0.2l-0.1-0.1l0-0.3l0-0.2l0.1-0.2l0.3-0.5l0.9-0.7l0.1-0.1l0-0.1l0.1-0.4l0-0.1l0.1-0.2l0.1-0.2l0.1-0.4l0.1-0.2l0.1,0  l0.3-0.1l0,0l0.2,0l0.1,0l0,0l0,0l0.1,0l0.2,0l1-0.2l2.5-0.1l0.3-0.1l0.6-0.2l0.2,0l0.8,0.1l0.2,0l0.3-0.1l0.2,0l1.5,0.2l0.1,0  l0-0.2l0-0.1l0.4-0.5l0.1,0l0.1,0l0.1,0l0.3-0.5l0.2-0.1l0.4-0.2l0.2-0.1l0.1-0.2l0-0.2l-0.1-0.2l0.5-1.2l0.1-0.4v-0.4l0-0.1  l0.1-0.2l0.1-0.2l0.1-0.2l0-0.1l0-0.1l-0.1-0.3l0-0.5l0.2-0.4l1-1l0.1-0.1l0.1-0.2l0.2-0.2l0.4-0.2l0.6-0.4l1.6-0.7l1.2-0.3l2.8-0.4  l2,0.1l0.1,0l0.1-0.1l0.1-0.1l0-0.1l0-0.1l0.4-0.1l0,0l0.1-0.1l0.2-0.2l0-0.1l-0.4-0.7l0-0.2l0.1-0.4l-0.1-0.2l-0.2-0.3l-0.1-0.2  l-0.2-0.5l0-0.2l0-0.2l0.2-0.5l0-0.3v-0.3l-0.1-0.3l-0.1-0.2l-0.5-0.8l-0.1-0.2l0-0.2l0.1-0.3l0-0.1l0-0.2l0-0.3l0-0.1l-0.1-0.1  l-0.1-0.1l-0.1-0.1l0-0.3l0.1-0.3l0.6-0.9l0.1-0.3l0.2-0.6l0.2-0.5l0-0.3l0-0.1l0.1-0.6l0.2-0.4l-0.1-0.2l-0.2-0.4l0-0.2l0.1-0.2  l0.1-0.1l0.1-0.1l0.1-0.2l0.1-0.2l0.2-0.1l0.2-0.1l0.4-0.2l0.2-0.1l0.1-0.2l0-0.1l-0.1-0.2l0-0.1l0-0.1l0.1-0.1l0.1-0.1l0.2-0.2  l0.2-0.1l0.2-0.1l0.2-0.1l0.1-0.1l0.1-0.1l0-0.1l-0.1-0.1l0-0.1l0.2-0.5l0.1-0.1l0.1-0.1l0.4-0.1l0.3-0.2l0.3-0.1l0.3,0l0.2,0.1  l0.1,0.2l0,0.3l-0.1,0.3l-0.1,0.2l-0.1,0.2l0.1,0.5l0,0.2l-0.1-0.1l-0.1-0.1l0-0.1l0-0.1l-0.1,0.4l0,0.2l0.2,0.1l0.2,0l0.3,0.1  l0.1,0l-0.1,0l0,0.1l0.1,0l0.2-0.1l0.1,0l0.3,0l0.1,0l0.2,0.1l0.2,0.1l0.3,0l0.2-0.1l0.1-0.3l0.1-0.1l0.1-0.1l0.1,0l0.1,0l0-0.1  l0-0.3l0.1-0.1l0-0.2l0.1-0.4l0.2-0.5l0-0.3l0.1-0.3l0.1-0.3l0.1-0.2l0.1-0.1l0.2-0.1l0.1-0.1l0.1-0.1l0.1-0.3l0.1-0.1h0.1l0.1,0.1  l0.2-0.1l0.2-0.1l0.1-0.1l0-0.2l-0.1,0.1l-0.2,0.2l-0.1,0.1l-0.1,0l-0.1-0.1l-0.1-0.1l0-0.1l0-0.1l0-0.1l0.1-0.1l0,0l0.1-0.2l0,0  l0.4-0.2l0.2-0.1l0-0.2l0.6-0.5l0.1-0.1l0-0.1l0-0.4l0-0.1l0.3-0.5l0.2-0.2l0.1-0.1l0.1-0.1l0.4-0.6l1.3-1.4l1.1-0.9l0.3-0.2  l1.4-0.6l0.1-0.1l0-0.1l0.1-0.3l0.9-1.4l0.2-0.4l0.3-0.9l0.8-1l0.2-0.4l0.1-0.2l0.4-0.2l0.1-0.2l0-0.5l0.2-0.5l0-0.2l0.1-0.2  l0.2-0.2l0.3-0.2l0.5-0.8l0.2-0.4l0.1-0.5l0.2-1.7L-373.3,376z"/></svg>