<svg xmlns="http://www.w3.org/2000/svg" xmlns:xlink="http://www.w3.org/1999/xlink" version="1.1" x="0px" y="0px" viewBox="-345 257 100 100" fill="#999999" style="enable-background:new -345 257 100 100;" xml:space="preserve"><path d="M-304.2,352.5L-304.2,352.5l0.2-0.1l0,0l-0.1-0.1l-0.3,0.1l-0.1,0l-0.1-0.1l0,0.1l0.1,0.1l0.1,0.1l0.1,0L-304.2,352.5  L-304.2,352.5z M-245,274.1l-1.7-4l-0.1,0l-0.1-0.1l-0.1-0.1l-0.1-0.2l-0.2-0.1l-0.4-0.2l-0.2-0.1l-0.1-0.2l0.1-0.6l-0.1-0.2l-0.1,0  l-0.2,0.2l-0.1,0l-0.1,0l-0.1,0l-0.1,0l-0.1,0l-0.1,0.1l0,0l-0.1,0l-0.1,0l-0.1,0l-0.2,0.2l-0.1,0l-0.1,0l-0.1,0l-0.1,0l-0.3,0.1  l-0.1,0l-0.2-0.2l-0.1-0.3l0-0.3l-0.1-0.3l-0.2-0.3l-0.2-0.1l-0.5,0l-0.2-0.1l-0.2-0.2l-0.1-0.2l0-0.3l0-0.1l0.1-0.1l0.3-0.2l0,0  l0-0.1l0-0.1l-0.1-0.1l0-0.1l0.1-0.1l0.1-0.1l0.1-0.1l0-0.1l-0.1-0.1l-0.2-0.2l0-0.1l0-0.3l0.1-0.6l-0.1-0.3l-0.6-1.2l-0.2-0.2  l-0.4-0.3l-0.4-0.3l-0.5-0.2l-0.5-0.1l-0.4,0.1l0,0.1l0,0.1l0,0.1l-0.4,0l-0.1-0.2l0-0.3l0-0.3l0-0.3l-0.1-0.2l-0.2-0.2l-0.2-0.1  l-0.7-0.2l-0.2-0.1l-0.2-0.2l-0.1-0.1l-0.1,0l-0.5,0.1l-0.2,0l-0.2,0.1l-0.1,0l-0.1,0.1l-0.1,0.1l-0.1,0.2l0,0.1l-0.1,0l0-0.1l0-0.2  l0-0.1l-0.2-0.3l-0.2-0.2l-0.5,0l-0.2-0.1l-0.1-0.1l-0.1,0l-0.2,0.1l-0.4,0.1l-0.1,0.1l0,0l0,0.1l0,0.1l0,0.1l0,0.2l-0.1,0l-0.1-0.1  l-0.1-0.2l0,0l0,0l-0.1,0l-0.1,0l-0.3,0.1l-0.2,0.1l-0.5,0.3l-0.3,0.2l-0.1,0.1l-0.4-0.1l-0.1,0l-0.1,0.1l0,0.1l0,0.3l-0.1,0.1  l-0.4,0.1l-0.2,0l-0.2-0.1l-0.2,0l-0.5-0.3l-0.2-0.1l-0.4-0.1l-0.8,0l-0.8,0.1l-0.2,0l-0.2,0l-0.4,0.1l-0.3,0l-0.3,0.1l-0.1,0  l-0.1,0l-0.2,0l-0.2,0l-0.9,0.1l-0.1,0l-0.2,0.1l-0.1,0l-0.1,0l-0.2-0.1l-0.2,0l-0.1,0.1l-0.2,0.1l-0.5,0l-0.5-0.1l-0.4,0l-0.4,0.1  l-0.3,0.2l-0.4,0.3l-0.1,0l-0.3,0l-0.3,0.1l-0.3,0l-0.5,0.1l-0.3,0.1l-0.1,0.1l0,0.1l0.1,0.1l0,0.1l-0.1,0.1l-0.4,0.1l-0.2,0.1  l-0.1,0l-0.1,0.1l0,0.1l0,0.1l0,0.1l-0.1,0.1l-0.3,0.1l-0.1,0.1l-0.1,0.1l-0.3,0.2l-0.1,0.1l-0.1,0.1l-0.1,0.1l-0.1,0l-0.4,0  l-0.1,0.1l0,0.2l0.1,0.2l0,0.1l-0.1,0.1l-0.1,0l-0.1,0l-0.1,0l-0.2-0.2l-0.4-0.2l-0.1-0.1l-0.1,0l-0.1,0.1l-0.1,0.2l-0.1,0.1l0,0.1  l-0.2,0.2l0,0.1l0.1,0.1l0,0.1l-0.1,0.1l-0.1,0l-0.1,0l-0.1,0.1l-0.5,0.5l-0.1,0.1l-0.4,0.1l0,0.1l0,0.2l0,0.1l-0.1,0l-0.2,0.1  l-0.2,0.2l0,0.1l0,0.2l0,0.1l-0.2,0.2l-0.1,0.1l0,0.1l0.1,0.1l0.2,0.1l0.1,0.1l0.2,0.2l0.2,0.1l0.2,0l0.2,0.1l0.1,0.1l0,0.2l0.1,0.1  l0.3,0.2l0.1,0.1l0.2,0.4l0,0.1l0,0.1l0,0.1v0.1l0,0.1l0,0.1l0.1,0.1l0,0l0.1,0.1l0,0.1l0,0.1l-0.1,0.1l-0.1,0.2l0.1,0.1l0.1,0.1  l0.3,0.2l0.1,0.1l0.1,0.1l0,0.1l0,0.1l0,0.1l0,0.2l0.1,0.1l0.1,0.1l0.1,0.1l0,0.1l-0.1,0.1l-0.3,0.3l-0.2,0.2l0,0.2l0.1,0.2l0.3,0.4  l0.2,0.2l0,0.1l-0.1,0.1l-0.2,0.2l-0.4,0.3l-0.2,0.2l0,0.3l0,0.1l0,0.1l0,0.1l-0.1,0v0h0v0l0,0.1l-0.1,0.2l0,0.1l-0.1,0.1l-0.8,0.3  l-0.2,0.2l-0.1,0.2l-0.1,0.3l-0.3,0.5l-0.1,0.1l-0.2,0.1l-0.4,0.4l-0.1,0.1l0,0.1l0,0.2l0,0.2l0,0.2l-0.1,0.1l-0.1,0.1l-0.3,0  l-0.1,0l-0.1,0l-0.1,0.1l0,0.2l0,0.2l0.1,0.1l0.1,0.2l0.2,0.2l0.2,0.2l0.4,0.2l0,0.2l-0.2,0.5l0,0.1l0.1,0.3l0,0.2l0,0.2l0,0.1  l-0.2,0.2l-0.1,0.1l0,0.1l0,0.1l0,0.1l-0.1,0.1l-0.3,0.1l-0.1,0l-0.1,0.1l-0.1,0.1l-0.1,0l-0.1,0l-0.2-0.1l-0.1,0l0,0.1l-0.1,0.2  l-0.4,0.1l-0.8,0l-0.8,0.1l-0.2,0l-0.5-0.1l-0.5,0l-0.1,0l-0.2-0.1l-0.3,0l-1.3-0.5l-0.2,0l-0.3,0.1l-0.2,0.1l-0.1,0.1l0,0.1l0,0.1  l0,0.1l-0.1,0.1l-0.1,0.1l0,0.1l0.2,0.2l0.1,0.1l0.1,0.3l0.1,0.1l0.1,0.2l0.1,0.1l0,0.1l0.1,0.1l0.1,0.1l0.2,0l0.3,0.1l0.3,0  l0.1,0.1l0.1,0.3l0,0.1l0,0l0.1,0l0.1,0l0,0l0,0l0,0.2l-0.1,0.5l0,0.1l0,0.1l0.1,0.1l0.1,0.1l0,0l0.2,0.1l0,0l0,0.1l0,0.1l0.3,0.4  l0.1,0.2l0,0.2l-1,0.9l-0.1,0.1l-0.1,0l-0.1,0l-0.1,0l-0.2,0.4l0,0.1l-0.1,0l-0.2,0l-0.1,0l-0.5,0.3l-0.3,0l-0.4-0.2l-0.2,0  l-0.3,0.2l-0.1,0l-0.1,0l-0.1,0l-0.1,0l-0.2,0l-0.1,0l-0.2,0l-0.2,0.1l-0.2,0.2l-0.1,0.2l0.1,0.8l-0.1,0.2l0,0l-0.2,0.1l-0.2,0.2  l-0.2,0.2l-0.1,0.1l0,0.1l0,0.1l0,0l0.1,0l0.1,0l0,0l0,0.1l0,0.1l0.1,0.2l0,0.1l-0.1,0.1l-0.3,0.5l-0.1,0.1l-0.3,0.1l-0.1,0.1  l-0.2,0.2l-0.1,0.3l0,0.3l0.1,0.3l0.2,0.4l0,0.2l0,0.2l0,0.3l0,0.3l0,0.3l0,0.2l0.1,0.7l0.2,0.6l0,0.1l0,0.1l-0.3,0.2l-0.2,0.2  l-0.7,1l-0.1,0.1l-0.1,0.1l-0.1,0.1l-0.2,0.2l-0.2,0.2l-0.2,0.1l-0.2,0l-0.2,0.1l-0.4,0.2l-0.2,0l-0.2-0.1l-0.3-0.4l-0.2-0.2l0-0.1  l0-0.3l0-0.1l-0.1,0l-0.3-0.1l-0.4-0.2l-0.2-0.1l-0.1,0l-0.1,0.1l-0.3,0.1l-0.1,0.1l0,0.1l0.1,0l0.1,0l0.4,0l0.1,0l0.1,0.1l-0.1,0.1  l-0.1,0.1l-0.1,0l-0.2,0l-0.6-0.2l-0.2,0l-0.2,0l-0.1,0l-0.1-0.1l-0.1-0.1l-0.2-0.1l-0.1-0.1l-0.2-0.1l-0.1,0l-0.1,0.1l-0.1,0.3  l-0.1,0.1l-0.2,0.2l0,0.1l0,0.2l0,0.1l-0.3,0.2l-0.1,0.1l-0.1,0.1l-0.1,0l-0.3,0l-0.2,0l-0.1,0l-0.2,0.1l-0.4,0.4l-0.3,0.2l-0.2,0.1  l-0.2,0l-0.4-0.1l-0.2,0l-0.1,0.1l0,0.1l0.1,0.1l0.1,0.1l0,0.3l0.1,0.1l0.1,0.1l0.1,0l0.5-0.1l0.2,0.1l0,0.3l-0.1,0.1l-0.1,0l-0.2,0  l-0.1,0l-0.1,0.1l-0.1,0.1l-0.4,0.3l-0.1,0l-0.3,0.1l-0.2,0.1l-0.4,0.1l-0.4,0.2l-0.1,0l-0.4,0l-0.3,0l-0.1,0l-0.1,0l-0.2-0.1  l-0.1,0l-0.1,0l-0.2,0.1l-0.1,0l-0.1,0l-0.1,0l0,0l0-0.1l0,0l0,0l0-0.1l0-0.2l0-0.1l-0.1,0l-0.4,0l-0.2,0.1l-0.4,0.2l-0.2,0.2  l-0.1,0.2l-0.2,0.1l-0.2,0l-0.1,0.1l-0.2,0.8l-0.1,0.2l-0.6,0.6l-0.1,0.1l-0.8,0.2l-0.1,0.1l-0.1,0.1l-0.6,2.3l0,0.3l0.1,0.3  l0.1,0.2l0,0.1l0,0.1l0,0.1l-0.1,0.9l0,0.4l0,0.1l-0.4,0.8l-0.1,0.3l0,0.1l0,0.1l0.2,0.2l0.3,0.3l0.2,0.1l0.1,0.1l0,0l-0.1,0l0,0  l-0.1,0.2l-0.2,0.2l-0.5,0.4l-0.5,0.2l-0.4,0.1l-0.4,0.1l-0.4,0.1l-0.4,0.1l-0.4,0.1l-0.4,0.1l-0.4,0.1l-0.4,0.1l-0.4,0.1l-0.4,0.1  l-0.4,0.1l-0.4,0.1l-0.4,0.1l-0.7,0.2l-0.4,0.1l-0.9,0.3l-0.3,0l-1-0.2l-0.8,0l-1.3,0l-1.7,0.5l-0.2,0.1l-0.1,0.2l-0.2,0.4l-0.2,0.1  l-0.7-0.3l-1.1-0.2l-1.4-0.3l-0.9,0.1l-0.3,0l-0.3,0l-0.3,0l-0.3,0l-0.3,0l-0.3,0l-0.3,0l-0.3,0l-0.3,0l-0.3,0l-0.3,0l-0.3,0l-0.3,0  l-0.3,0l-0.3,0l-0.3,0l-0.9,0.1l-0.6-0.1l-0.6-0.2l-0.5-0.2l-0.5-0.2l-0.5-0.2l-0.5-0.2l-0.5-0.2l-0.5-0.2l-0.5-0.2l-0.5-0.2  l-0.5-0.2l-0.5-0.2l-0.5-0.2l-0.5-0.2l-0.5-0.2l-0.5-0.2l-0.5-0.2l-0.5-0.2l-0.4-0.1l-0.2-0.1l0.5,0.6l0.3,0.4l0.4,0.5l0.5,0.6  l0.5,0.6l0.5,0.6l0.1,0.1l0.1,0.1l0.1,0.1l0.1,0.2l0,0.1l-0.1,0.2v0.1l0.1,0.1l0.2,0.2l0.1,0.1l0,0.1l0,0.2l0,0.1l0.1,0.1l0.1,0  l0.1,0l0.1,0l0.1,0.1l0,0.1l0,0.1l0.1,0l0.1,0l0,0.1l0,0.1l-0.1,0.1l0,0l0,0l0,0l0,0l0.1,0l0.1,0.1l0.1,0.1l0.3,0.6l0,0.1l0,0.1  l0,0.1l0.2,0.2l0.2,0.4l0.2,0.2l0.6,0.6l0.3,0.3l0.4,0.4l0.2,0.2l0.1,0.1l0.4,0.1l0.3,0.2l0.2,0.1l0.4,0l0.2,0l0.5,0.2l0.8,0.2  l0.2,0.1l0.1,0.1l0.1,0.1l0.1,0.1l0.1,0.1l0.1,0l0.1,0l0,0.1l0,0.1l0.1,0.2l0.4,0.4l0.1,0.1l1-0.2l0.1,0.1l0,0.2l-0.1,0.7l-0.1,0.8  l0.1,0.5l0.2,0.7l0,0.4l0.1,0.6l0,0.3l0.1,0.6l0,0.4l0,0.3l-0.3,0.7l0.1,0.1l0,0.1l0,0.1l0,0.1l0,0.1l-0.1,0l-0.1,0l0.3,0.2l0.1,0.1  l0,0l0.1,0l0,0l0,0l0.1,0.1l0.2,0l0.2,0l0.4-0.1l0.2,0l0.3-0.1l0.2,0l0.1,0l0.1,0l0.3-0.1l0.1,0l0.1,0l0.2,0.1l0.1,0l0.2,0.1l0.1,0  l0.1,0.1l0.1,0.1l0.2,0.5l-0.1,0l-0.1,0l-0.1,0.1l-0.1,0.1l0,0.1l-0.1,0.1l0,0.1l0,0.1l0,0.8l0.1,0.1l0.1,0.1l0.1,0.1l0,0.1  l-0.1,0.1l-0.3,0l-0.1,0.1l0,0.1l0,1l-0.1,0.3l-0.1,0.1l-0.1,0l0,0l0,0l-0.1,0l-0.1,0l-0.2,0l-0.2,0l-0.2,0l-0.6,0l-0.5,0l-0.4,0  l-0.1,0l0,0.1l-0.1,0.1l0,0l0,0l-0.1,0l-0.2,0l-0.1,0l-0.1,0l-0.1,0l-0.1,0l0,0.1l-0.1,0l-0.1,0l-1,0.1l-0.1,0l0,0l-0.1,0.1l0,0  l-0.1,0l-0.1,0l-0.1,0l-0.1,0l-0.1,0.1l-0.1,0l-0.1,0l-0.1,0l0,0.1l0,0.1l0,0l0,0l0,0l-0.1,0.1l-0.2,0.2l0,0.1l0,0.2l0.1,0.1l0,0.1  l-0.1,0.1l-0.2,0l-0.3-0.1l-0.2,0l-0.1,0.2l0,0.2l-0.1,0.1l-0.3,0l-0.1,0l-0.1,0.1l-0.2,0.1l-0.7,0.2l-0.1,0.1l-0.1,0.2l-0.1,0.2  l-0.1,0.4l0,0.4l-0.1,0.4l-0.1,0.6l-0.1,0.5l0,0.1l-0.1,0.1l-0.1,0l-0.1,0l-0.1,0l-0.1,0.2l0,0.3l0.1,0.3l0,0.2l0,0.1l-0.1,0.1  l0,0.1l0,0.1l0,0.4l0,0.6l0,0.7l0,0.6l-0.2,0.6l0.1,0l0.1,0l0.1,0l0.1,0l0.2,0l0.1,0l0.1,0l0,0l0,0l0.1,0l0,0l0.1,0.1l0,0l0,0  l0.1-0.1l0,0l0,0l0,0l0,0l0,0.1l0,0.1l-0.1,0.1l0,0.1l0,0.1l0,0l-0.1,0.1l-0.1,0.1l0,0.1l0,0.1l-0.1,0.1l0,0.1l0.1,0.1l0.1,0l0.1,0  l0.2-0.1l0.1,0l0.1,0.1l0.1,0l0.1-0.2l0.1-0.1l0-0.1l-0.1-0.1l0.1,0l0.3-0.1l0.1,0l0.5,0l0.3,0.1l0.1,0l0.1-0.1l-0.1-0.2l-0.1,0  l0-0.1l0-0.1l0-0.1l0.1-0.1l0.3-0.1l0.3-0.1l0.2,0l0.1,0l0.1,0.1l0.1,0.1l0.1,0.1l0,0.1l0,0.1l0,0.1l0,0.1l0,0l-0.1,0l-0.1,0l0,0  l0,0l0,0l0,0l0.1,0.1l0.2,0l0.2,0l0.1-0.1l-0.1,0l-0.2,0l-0.1,0l0-0.1l0-0.1l0.1-0.1l0.1-0.1l0.1-0.1l0.2-0.1l0.2,0l0.2,0l0.1-0.1  l-0.1-0.1l0-0.1l0.1-0.1l0.1,0l0.8-0.1l0.9,0l1.1,0.2l0.5,0.1l0.1,0l0.4-0.2l0.2,0l0.2,0l0.4,0.1l0.3,0.1l0.1,0l0.4-0.1l0.2,0  l0.4,0.2l0.2,0l0,0l0,0l0,0l0-0.1l0,0l0,0l0,0l-0.2-0.2l0-0.1l0-0.1l0.1,0l0.1,0l0.1-0.2l0.2-0.2l0.1-0.1l0.1-0.1l0.2-0.1l0.4-0.1  l0.4,0l0.4,0.1l0.6,0.2l0.2,0l0.2-0.1l0.1,0l0.1,0l0.2,0h0.1l0,0l0.1-0.1l-0.1-0.2l-0.1-0.1l-0.1,0l-0.1,0.1l-0.1,0l0,0l0-0.1l0,0  l-0.1,0l0.1-0.1l0.3-0.2l0.1,0.1l0.2,0l0.3-0.1l0.1,0l0.1,0l0,0l0,0.1l-0.1,0l-0.1,0h-0.1l-0.1,0l-0.1,0l0,0.1l0,0.1l0.1,0.1l0.1,0  l0,0l0,0.1l-0.1,0.1l0,0.1l0.6,0.1l0.4,0l0.1,0l0.1,0.1l0.1,0l0.3,0l0.3,0.1l0.1,0.1l0.2,0.2l0.1,0l0.1,0l0.1,0l0.1,0l0.1,0l0.1-0.1  l0.1-0.1l0.1,0l0.2,0l0.2,0.1l0.1,0.1l0.1,0.2l0,0.1l-0.2,0.3h0.1l0.2,0l0.1,0l0.3-0.1l0,0l0-0.1l-0.1,0l-0.1,0l-0.1,0l0-0.1l0-0.1  l0-0.2l0.1-0.1l0.1-0.1l0.1-0.1l0.2-0.1l0.4,0l0.2,0l0.1,0.1l0.2-0.1l0.2,0l0.4,0.1h0.4l0.1,0l0.2,0.1l0.2,0l0.2,0l0.1,0l0.1,0  l0.1,0l0-0.1l0.1-0.2l0.1-0.2l0.2-0.1l0.2,0.1l0.1-0.1l0.1-0.1l0.2,0l0.2,0l-0.1,0.1l0,0l0.1,0l0.1,0l0.1-0.1l0.1,0l0.1,0l0.9,0.2  l0.1,0l0.1,0l0.3-0.2l0.3,0l0.2-0.1l0.1,0l0.2-0.1l0.1,0l0.3,0l0.5-0.1l0.4-0.1l0.6,0l0.2,0l0.2-0.1l0.2-0.1l0.2,0l0.2-0.1l0.3,0.1  l0.5,0.2l0.2,0.1l0.1,0.1l0.1,0l0.1-0.1l-0.1-0.1l-0.3-0.2l0.2-0.2l-0.1-0.1l-0.1,0l-0.1,0l-0.1,0.1l-0.1-0.1l-0.1-0.1l-0.1-0.1  l-0.1,0l-0.1,0l-0.1,0l0-0.1l-0.1,0l-0.2,0l-0.2,0l-0.1,0l0,0l0,0l0,0l0,0l0,0l0,0l0,0l0,0l-0.1,0.1l-0.1,0.1l-0.1,0l-0.5,0.1  l-0.2,0l0-0.1l0.1-0.1l0.1-0.1l0.1,0l0,0l0.1-0.2l0.1-0.1l0.1-0.1l0.1-0.1l0.2,0l0.1,0l0,0l0,0l0.1,0l0.1,0l0.1,0l0.2,0l0.1,0  l0.1-0.1l0,0.1l0.1,0.1l0.2,0l0.2,0l0,0.1l0.2,0.2l0,0.1l0,0.1l0,0.1l0.1,0l0,0l0,0l0,0l0.1-0.1l0.1,0.2l0.1,0.2l0.1,0.1l0.1,0.1  l0,0.2l-0.1,0.1l-0.2,0l0,0.1l0.1,0.1l0.2,0.1l0.3,0.3l0.1,0.1l0.1,0l0.2,0.2l0,0.1l0,0.1l0.1,0.2l0,0.1l0,0.1l-0.1,0.2l-0.1,0.1  l0,0.1l0,0.4l-0.1,0.5l0,0.3l0.1,0.1v0l-0.2,0.1l-0.1,0.1l0,0.1l0.2,0.1l0.1,0l0.2-0.1l0.3,0l0.1,0l0.1,0.1l0.2,0l0.2-0.1l0.2,0  l0.1,0.1l0.1,0.1l0.1,0.1l0.1,0l0-0.1l0-0.1l0-0.1h0l0,0.1l0.1,0.1l0.1,0.1l0.1,0l0.3,0.2l0.1,0.1l-0.1-0.1l0-0.1l0.1,0l0.1,0l0.1,0  l0.1,0l0.1,0l0,0.1l0,0.1l0,0.1l0.1,0l0.2,0l0.1,0l0.1,0l0.1,0.1l0.1,0.1l0,0.1l-0.2,0.1l-0.2,0.1l-0.1,0.1l-0.1,0.2l0,0.2l0,0.1  l0,0l0.1,0l0.1,0l0.1,0l0.1,0l0.2,0.1l-0.1,0l-0.1,0l-0.1,0l-0.1,0l0,0.1l0,0.1l0,0.1l0.1,0.1l0.1,0l0,0l-0.1,0.1l0.1,0.1l0.1,0.1  l0.1,0.2l0,0.2l0.1-0.1l0,0l0,0l-0.1,0.3l0,0.2l0.1,0.1l0.3,0l0.1,0l0.1,0.1l-0.2,0l-0.2,0l-0.1,0.1l0,0.2l0,0l0,0.1l0,0l0.1,0.1  l0,0.1l0,0.3l0,0.1l0,0.1l0.2,0.3l0.1,0.2l0,0.2l0.1,0.1l0.2,0l0.4,0l0.2,0l0.1,0.1l0.1,0l0.1-0.1l0,0.1l-0.1,0.1l-0.2,0.1l-0.1,0  l-0.1,0.1l-0.1,0.2l0.1,0l0.3,0.1l0,0.1l0,0.1l0,0.1l0.1,0l0.1,0l0.1,0l0.1,0l-0.1,0.1l-0.1,0.1l0,0.1l-0.1,0l0,0l0,0l-0.1,0  l0.1,0.1l0.3,0.1l-0.1-0.1l0-0.1l0-0.1l0.1,0l0.1,0.1l0,0.1l0.1,0l0.1-0.1l0,0.1l0.1,0.1l0.1,0l0.1,0l0-0.1l0-0.3l0.1-0.1l0,0l0,0  l0,0l0,0v0l0,0.1l0,0.4l0,0.1l0,0.1l0,0.1l0,0.1l0,0.1l0,0l0.1,0l0.1,0l0.2,0.1l0.1,0l0.1,0l0.1-0.1l0-0.1l-0.1-0.1l-0.1-0.1  l0.3,0.2l0.2,0.1l0.2,0l0-0.1l0.1-0.4l0-0.2l0.1,0.1l0,0.2l0,0.1l0.1-0.1l0.1,0l0,0l0,0.1l0,0.1l0,0.1l0,0l0.1,0l0.1,0l0,0l0,0.1  l0.1,0l0.1,0l0.1,0l0,0l0.1,0l0.1,0l0,0l0,0.1l0,0.1l0,0.1l0,0l0.1,0l0.1-0.1l0.1-0.2l-0.1-0.2l-0.2-0.6l0.1,0l0.1,0.1l0.1,0l0,0.1  l0,0.2l0,0.2l0.1,0.1l0.1,0.1l0.1,0.1v0h-0.1l0,0l0,0.1l0,0l0,0.1l0,0l-0.1,0.1l0,0l0.1,0.1l0.1,0.1l0.1,0l0-0.2l0.2,0.2l0.1,0.1  l0.1,0l0-0.1l-0.1-0.2l0-0.1l0-0.1l0.1-0.3l0-0.1l0,0l-0.1-0.1l0,0l0-0.1l0-0.2l0.2,0.4l0.1-0.2l0,0l0.1,0l0,0l0,0l0.1,0l0,0l0,0  l0,0l0,0l0,0l0,0l0-0.1l0-0.1l0.1,0l0.1,0l0,0l0,0.1l0,0.1l0.1,0l0.1,0l0.1-0.1l0.1-0.1l0,0l0-0.1l0-0.1l0.1,0l0,0l0,0.1l0,0.1v0.1  l0.2-0.1l0.3,0l0.7,0l0.6,0l0.5,0l0-0.9l0-0.7l0-0.5l0.1-0.3l0.3,0l0.1,0.1l0,0.4l0.1,0.1l0.1-0.1l0.2-0.4l0-0.1l0-0.1l0,0l0.1,0  l0.1,0l0.1,0l0,0.1l0.1,0.2l0.1,0.1l0.1,0l0.2-0.1l0.3-0.1l0.1,0l0.1,0l0.3,0.2l0.1,0l0.2,0l0.5-0.2l1.7,0l0.2,0.1l0.5,0.5l0.3,0.1  l0.3,0l1.3,0l0.3-0.1l0.2-0.2l0.1-0.1l0.1-0.4l0.1-0.1l0.1,0l0.2,0l0.4-0.1l0.1,0l0.1,0l0.2-0.2l0.1-0.1l0.3,0l0.1,0l0.3-0.2  l0.6-0.2l0.3,0l0.1,0.2l0,0.1l-0.1,0.1l0,0l0,0.1l0.1,0.2l0,0.3l0,0.1l0.1,0.1l0.2,0.1l0.8,0.1l0.1,0l0.2-0.1l0.1,0l0.1,0l0,0  l-0.1-0.1l0-0.1l0.1-0.1l0.4-0.3l0.1,0l0.1,0l0.1,0.1l0.1,0l0.1-0.1l0-0.1l0.1-0.1l0.3-0.1l0.1-0.1l0-0.2l-0.2-0.1l-0.2,0l-0.1-0.1  l0,0l0-0.1l0-0.1l0-0.1l0-0.1l0,0l0,0l0,0l0,0l-0.1-0.1l0-0.2l0-0.2l0.1-0.2l0.4-0.2l0.1-0.1l-0.2-0.3l-0.2-0.6l-0.4-0.6l-0.2-0.4  l-0.1-0.4l-0.2-0.9l-0.1-0.2l-0.1-0.1l-0.4-0.3l-0.2-0.2l-0.1-0.1l0-0.2l0-0.2l-0.2-0.3l-0.1-0.1l0-0.2l0-0.8l0-0.6l0-0.3l-0.1-0.2  l-0.2-0.1l-0.2,0.1l-0.2,0.1l-0.2,0.1l-0.7,0l-0.3-0.1l-0.2-0.1l-0.1-0.1l-0.1-0.2l-0.1-0.4l-0.1-0.1l-0.3-0.2l-0.2-0.3l-0.2-0.3  l-0.1-0.3l0-0.1l0.1-0.4l0-0.2l0-0.1l0.3-0.6l0.1-0.3l0-0.3l0-0.3l0-0.1l0-0.1l0.1-0.1l0-0.1l0-0.3l0-0.6l0-0.3l-0.2-0.2l-0.2-0.1  l-0.2-0.1l-1.5,0.1l-0.3-0.1l-0.4-0.4l-0.3-0.2l-1-0.4l-0.2-0.2l0-0.3l0.1-0.8l0.1-0.8l0.2-0.5l0.3-0.4l0.6-0.6l0.4-0.3l0.7-0.7  l0.4-0.6l0.5-0.5l0.1-0.2l0.5-1.3l0.1-0.1l0.6-0.6l0.4-0.3l0.3-0.4l0.1-0.1l0.1,0l0.2,0l0.2-0.1l0.1,0l0.1,0l0.2,0.1l0.2,0.1  l0.2,0.1l0.2,0.2l0.2,0.1l0.1,0.1l0.1,0.1l0,0.3l0,0.1l0.2,0.4l0.2,0.3l0.3,0.2l0.4,0.1l0.5-0.1l0.7-0.3l0.8-0.4l0.5-0.2l0.5-0.1  l0.5,0l0.5,0l0.5,0l0.9-0.3l1-0.3l0.1-0.1l0-0.1l0.1-0.9l0-0.1l0.1-0.1l0.5-0.6l0.8-0.6l0.2-0.3l0.2-0.3l0.1-0.3l0.4-1.4l0.1-0.3  l0.5-0.6l0.2-0.1l0.9-0.5l0.8-0.4l0.7-0.4l0.8-0.4l0.1-0.1l0.1-0.1l0.2-0.5l0.2-0.3l0.4-0.5l0.5-0.9l0.3-0.6l0.3-0.7l0.3-1l0.3-0.9  l0.3-0.9l0.1-0.1l1.1-0.5l1.1-0.3l0.2-0.1l1-0.9l0-0.2l-0.1-0.3l-0.1-0.3l-0.1-0.2l-0.3-0.2l0,0l0-0.1l0.1-0.1l0.1-0.1l0.1,0l0,0  l0-0.1l0,0l0.1,0l0.1,0l0.1-0.1l0.3-0.4l0-0.1l0.1-0.1l0.2-0.1l0.1-0.1l0-0.2l0-0.1l0-0.1l0.1-0.1l0.1-0.1l0.1-0.1l0.1-0.1l0.1-0.1  l0.1,0l0,0l0-0.1l0-0.1l0.1-0.1l0-0.1l0-0.1l0.1-0.1l0.1-0.2l0.1-0.1l0.1-0.1l0-0.1l0-0.1l-0.1-0.1l0,0l0.1,0l0.1-0.1l0.1-0.1l0-0.1  l0-0.1l0.1-0.1l0.1,0l0.1,0l0.1,0l0.2,0l0.1,0l0-0.1l0-0.1l0.1-0.1l0.1-0.1l0.1-0.1l0.1,0l0.1,0l0.1,0l0.1-0.1l0.1-0.1l0.1-0.1  l0-0.1l0.1-0.1l0.1-0.1l0.4-0.2l-0.1-0.1l-0.1-0.1l-0.1-0.1l-0.1,0l-0.3,0l-0.1,0l-0.1-0.1l-0.1-0.1l0-0.1l0-0.1l0-0.1l0.1-0.3  l0-0.3l0-0.2l0.2-0.6l0.1-0.1l0.1-0.1l0.1-0.1l0-0.1l0-0.1l-0.2-0.3l-0.2-0.7l-0.3-0.6l-0.1-0.1l0,0l0.1-0.1l0,0l0,0l0,0l0,0l0-0.1  l0,0l0-0.1l0,0l0,0l0-0.1l0-0.2l0.1-0.1l0.1-0.1l0.5-0.4l0.1,0l0.1-0.1l0.2-0.3l0.4,0.1l0.1,0l0.1-0.2l0.1-0.3l0.1-0.2l0.3,0.1  l0.1-0.1l0.1,0l0.1,0l0.1,0l0.1,0l0-0.1l0-0.1l0-0.1l0.1,0l0.2,0l0.1,0l0-0.2l0.1,0l0.4,0.1l0.1,0l0.1,0l0.1-0.1l0.1,0l0.1,0l0.1,0  l0-0.2l0.1-0.1l0.2-0.1l0.1,0l0.1,0l0.2,0l0-0.1l0.1-0.2l0.1-0.1l0.2-0.2l0.1-0.1l0-0.2l-0.2-0.2l-0.6-0.5l-0.2-0.1l-0.4-0.1  l-0.2-0.1l-0.2-0.2l-0.2-0.1l-0.2,0l-0.3,0.1l-0.3,0l-0.4-0.2l-0.2,0l-0.2,0.1l-0.2,0l-0.2-0.1l-0.2-0.2l-0.2-0.5l0-0.1l0-0.1  l0.1-0.1l0.1-0.1l0-0.1l0-0.3l0-0.2l0-0.2l0.2-0.3l0-0.2l0-0.2l-0.1-0.1l-0.1,0l-0.1,0.1l-0.1,0.1l0,0.1l0,0.1l-0.1,0.1l-0.1,0  l-0.3,0.1l-0.1,0l-0.1-0.1l-0.2-0.2l-0.1-0.1l-0.1,0l-0.2,0.1l-0.1,0l-0.1,0l-0.1-0.1l-0.1-0.1l-0.1-0.1l0.1-0.2l0.1-0.1l0-0.2  l-0.1-0.4l0-0.4l-0.1-0.2l-0.2-0.1l-0.6-0.1l-0.2-0.1l-0.3-0.5l-0.2-0.2l-0.2-0.2l-0.2-0.2l-0.1-0.2l0-0.3l0.1-0.1l0.1-0.1l0.2-0.1  l0.1-0.1l0.1-0.1l0.1-0.1l0.1-0.1l0.2-0.5l0.1-0.6l-0.1-0.4l-0.3-0.3l-0.4-0.2l-0.3-0.3l-0.1-0.1l0-0.1l0-0.1l0-0.2l0-0.1l0-0.1  l0-0.1l0.2-0.4l0.1-0.1l0.7-0.1l0.2-0.1l0.2-0.2l0.2-0.2l0.1-0.2l0.1-0.2l-0.1-0.2l-0.2-0.1l-0.2,0l-0.2,0.1l-0.2,0l-0.3-0.1l-0.1,0  l-0.4,0.1l-0.2,0l-0.2-0.1l-0.1-0.2l-0.1-0.2l0.1-0.2l0.1-0.2l0.4-0.2l0.1-0.1l0-0.2l0-0.2l-0.1-0.1l-0.1-0.4l-0.1-0.1l-0.2,0  l-0.2,0l-0.2,0l-0.1-0.1l-0.2-0.1l-0.1-0.1l0-0.2l0-0.2l0.1-0.2l0.1,0l0.2-0.1l0.1-0.1l0-0.1l0-0.3v0l0.1-0.2l0.3-0.2l0.1-0.1l0-0.2  l-0.1-0.2l0-0.2l0.2-0.2l0.1,0l1-0.2l0.2-0.1l0.5-0.3l0.4-0.2l0.4,0l0.4,0.1l1.6,0.6l2.2,0.4l0.6,0l0.4-0.1l0.2,0l0.1,0.1l0.1,0.1  l0.1,0.1l0.2,0.2l0.3,0.1l1.6,0.4l0.3,0l0.4-0.1l0.1,0l0.3,0l0.1,0l0.1-0.1l0.4-0.4l0.4-0.3l0.2-0.1l0,0l0.1-0.1l0.1-0.2l0.1-0.1  l0.2,0l0.4,0.2l0.2,0l0.7-0.2l0.9-0.5l0.2-0.1l0.2,0l0.3,0.2l0.1,0l0.1,0l0.5-0.1l0.1,0l0.6-0.5l0.1-0.1l0-0.4l0.1-0.2l0.2-0.1  l0.2-0.1l0.2,0l0.2,0l0.2,0.1l0.1,0l0.1-0.1l0.1-0.1l0.4-0.3l0.1-0.1l0-0.2l-0.1-0.2l0-0.2L-245,274.1L-245,274.1z"/></svg>