<svg xmlns="http://www.w3.org/2000/svg" xmlns:xlink="http://www.w3.org/1999/xlink" version="1.1" x="0px" y="0px" viewBox="-461 335 100 100" fill="#999999" style="enable-background:new -461 335 100 100;" xml:space="preserve"><path d="M-367.9,358.1l0.1-0.4l0.2-0.3l0.3-0.2l0.3-0.2l-0.5-0.9l-0.2-1.4l0-1.4l0.3-0.9l-0.6-1.1l0-2.3l-0.3-0.7v-0.5h0.5v0.5h0.4  l-0.1-0.7l-0.2-0.6l-5.2-1.3l-1.5-0.4l-1.5,0l-1.7-0.5l-0.4-1.9l0-2.3l-0.6-1.8l-1.9-1.2l-1.9-0.2l-4.1,0.2l-1.2-0.4l-1.8-1.5  l-1-0.5l-1.1,0.1l-0.9,0.7l-1.6,1.9l-2,1.2l-1.9,0.9l-1.7,1.2l-1.3,2.2l-1,5.2l-0.5,1.5l-0.2,0.2l-0.8,0.3l-0.3,0.2l-0.3,1l-0.2,2.4  l-0.2,1l0.8,0.3l0.5,0.5l0.1,0.8l-0.2,1l-0.5,0.9l-2.5,2.3l-0.8,1.1l-0.1,0.7l1,2.3l0.3,1.3l0.8,7.1l0,1.4l-0.1,1.7v0.1l0,0l0,0l0,0  l0.1,0.2l0,0.3l0,0.3l-0.1,0.3l-0.3,2.2l1.3,2.9l0.8,2.5l-1.8,1l-1.7,0.6l-0.5,1.3l0.6,1.3l2.1,0.4l1,0l0.5-0.1l0.7-0.4l1.1-1.2  l0.5-0.3l0.9,0.2l3.3,1.6l4.4,1l1.1,0.7l0.5,0.9l0.1,1.3l-0.1,1.6l-0.2,0.4l-0.3,0.1l-0.3-0.2l-0.4-0.4l-4,0.9l-1.2,0.6l-1.1,0.9  l-2.2,2.3l-5.1,3.9l-1.2,1.4l-1.1,2.2l-0.3,2l0,2.1l-0.4,2.4l-2.9,4.8l-0.9,2.5l0.7,2.5l1.4,1.1l1.7,0.3l1.8-0.3l1.6-0.6l3.8-0.5  l8,0.1l3.7-1.4l7-5.8l3.7-2.1l0.5,0l-0.3-2l0.4-1.3l0.6-1.2l0.4-1.3l0-0.9l-0.4-1.8l0-0.9l0.3-0.7l1.5-2.3l1.2-3l1.4-2.6l1.9-1.9  l2.9-0.7h0.5l0,0l-1.4-4.1V389l0.7-0.9l-1.6-6l0.2-0.6l0.4-0.2l0.4-0.1l0.3-0.3l0-0.6l-0.4-0.8l-0.1-0.6l0-1l-0.1-0.8l-0.7-1.8  l-0.1-3.5l0.4-1.3l1.1-0.9l-0.7-0.9l0-0.9l1.1-1.9l-0.3-0.5v-0.4l0.3-0.3l0.5-0.3v-0.6l-0.3-0.9l1.1-4.8H-367.9z M-436.9,407.2  l-0.2,0.4l-2.3,3.3l-4.8,5l-1.3,2.3l-3,2.2l-1.3,2.3l-2.9,2.6l-0.9,1.2l-1.4,0.9l1.6,2.8l0.4,1.2l1.1,3.6v0l1-0.9l3.3-2.4l2.3-2.4  l0.2-1.3l-0.5-2.6l0-1.3l1.4-2.6l7.3-6.9l1-0.7h0l2.1-1.9l0.1-1.6l-1.2-1.5L-436.9,407.2z"/></svg>