<svg xmlns="http://www.w3.org/2000/svg" xmlns:xlink="http://www.w3.org/1999/xlink" version="1.1" x="0px" y="0px" viewBox="-461 335 100 100" fill="#999999" style="enable-background:new -461 335 100 100;" xml:space="preserve"><path d="M-447.8,353.4L-447.8,353.4l0.1-0.1l-0.1-0.1l-0.1,0l-0.1,0.1l0,0.1l0.1-0.1L-447.8,353.4z M-444.9,363.4L-444.9,363.4  l0.1,0.1l0.1,0l0.1,0l0,0l0,0l-0.1,0l-0.1-0.1L-444.9,363.4L-444.9,363.4L-444.9,363.4z M-443.2,364.3L-443.2,364.3l0.2,0.1l0.1,0  l0.1-0.1l0-0.1l-0.2-0.1l-0.2-0.1l-0.1,0l0,0l0,0.1l0,0l0,0.1L-443.2,364.3L-443.2,364.3z M-445.4,402.3L-445.4,402.3L-445.4,402.3  l0.1-0.1l0,0l-0.1,0l-0.1,0l-0.1,0l0,0.1l0.1,0.1L-445.4,402.3L-445.4,402.3z M-445.1,402.2L-445.1,402.2l-0.4,0.1l0,0.1l0.1,0.1  l0.1,0l0.1,0l0.1,0l0,0l0-0.1L-445.1,402.2L-445.1,402.2z M-425.4,374.2L-425.4,374.2l0.1-0.1l0,0l0,0l0,0l0,0l0,0l0,0l0-0.1l0-0.1  l-0.1-0.1l-0.1,0l-0.1,0.1l0,0.1l0,0.1l0.1,0.1L-425.4,374.2z M-443.9,401.4L-443.9,401.4l-0.2,0.1l-0.1,0.1l0,0.1l0.1,0.1l0.1,0  l0.1-0.1l0,0l0.1,0l0.1-0.1l0.1-0.2L-443.9,401.4L-443.9,401.4z M-440.1,363.6l0.2,0h0.1l0.1-0.1l0,0l0-0.1l-0.1-0.1l-0.1,0l-0.1,0  l0,0L-440.1,363.6L-440.1,363.6L-440.1,363.6z M-427.7,373.3L-427.7,373.3l0.3,0.2l0.1,0l0.2,0l0.2-0.1l0.2-0.2l0.1-0.1l0-0.1l0-0.1  l0-0.1l0-0.1l0-0.2l0-0.2l0-0.1l-0.2-0.3l-0.1-0.1l-0.1,0l-0.1,0.1l-0.3,0.3l-0.1,0.1l-0.1,0.3l0,0.1l0,0.1l0,0.1L-427.7,373.3z   M-418.7,377.5L-418.7,377.5l-0.1-0.1l-0.1-0.1l0-0.2l0-0.2l0-0.1l0,0l-0.2-0.1l-0.1-0.1l-0.2-0.2l-0.1,0l-0.1,0.1l-0.1,0.1  l-0.1,0.1l-0.2,0.1l-0.1,0.1l-0.1,0.2l0,0.2l0,0.1l0,0.1l0.1,0.1l0.2,0.2l0.3,0.3l0.2,0.1l0.2,0l0.2-0.1l0.1,0l0.1,0l0,0l0,0l0.1,0  l0-0.1l0-0.1l0-0.1L-418.7,377.5z M-436.2,365.3L-436.2,365.3L-436.2,365.3l0.1,0l0-0.1l-0.1,0l-0.1,0L-436.2,365.3L-436.2,365.3  L-436.2,365.3L-436.2,365.3z M-433.4,369.2L-433.4,369.2l0.2,0.1l0.1,0l0.1,0l0.1-0.1l0-0.1l0-0.1l0-0.1l-0.1-0.1l-0.1-0.1l-0.1,0  l0,0l-0.1,0.1l0,0l0,0l-0.1,0l0,0.1l0,0.1L-433.4,369.2z M-443.9,399.6L-443.9,399.6L-443.9,399.6l0,0.5l0.1,0l0-0.2L-443.9,399.6  L-443.9,399.6z M-441.6,398.1l-0.1-0.1l-0.1-0.1l-0.1,0l-0.1,0l0,0.1l0,0.1l0,0l0,0.1l0,0l0.1,0.1l0.1,0l0.1,0.1l0,0l0,0l0-0.1  L-441.6,398.1z M-442.4,395.7L-442.4,395.7l-0.1-0.1l-0.2,0l-0.1,0.1l0.1,0.2l0.1,0.2l0.2,0l0.1-0.1l0-0.1l-0.1-0.1L-442.4,395.7z   M-441.4,398.3L-441.4,398.3L-441.4,398.3l-0.2,0.1l-0.1,0.1l0,0.1l0.1,0.1l0.1,0L-441.4,398.3L-441.4,398.3L-441.4,398.3z   M-442.3,395.3l-0.1-0.1l-0.3-0.1l-0.2,0l-0.1,0.1l0.1,0.1l0.1,0.1l0.2,0.1l0.3,0l0.2,0.1l0.1,0l0-0.1L-442.3,395.3L-442.3,395.3z   M-395.9,411.9L-395.9,411.9l-0.1-0.2l0-0.2l-0.2-0.1l-0.8-0.2l-0.1-0.1l-0.1,0l-0.2,0l-0.1,0l-0.1,0l-0.1,0l-0.3,0l-0.1-0.1l0,0  l0,0l0,0l-0.1-0.2l0.1-0.3l0.2-0.2l0.2,0l0.1,0.1l0.1,0l0.3,0l0.1,0l0.3,0.1l0.1,0l0,0l0,0l0.1,0l0.3,0l0.2-0.1l0.8-0.4l0.3-0.1  l0.1-0.1l0-0.1l-0.2,0l-0.1,0l-0.2,0.2l-0.1,0l-0.4,0l-0.4,0.1l-0.2,0l-0.1,0l0-0.1l-0.2-0.1l0-0.1l0,0l0.1-0.1l0-0.1l-0.3,0l-0.1,0  l-0.1,0.1l-0.1,0l-0.2-0.1l-0.3-0.1l0,0l-0.1,0l-0.1,0l0,0l-0.1,0l-0.1,0l-0.3-0.1l-0.3-0.1l-0.1,0l-0.1-0.1l-0.1-0.1l0,0l-0.2-0.1  l-0.1-0.1l0-0.1l-0.1,0l-0.1,0l-0.1,0.1l-0.1,0l-0.1,0l0,0l-0.2-0.1l-0.1,0l-0.1,0l-0.4,0l-0.1,0l-0.1,0l-0.1-0.1l-0.1-0.1l-0.2-0.2  l-0.1,0l-0.2,0l0-0.3l-0.2-0.2l-0.5-0.4l-0.2-0.2l0-0.1l0.1-0.1l0.1-0.1l0.3-0.1l0.1-0.1l0.1,0.1l0.2,0l0.3-0.1l0.5-0.1l0.1,0  l0.4-0.2l0.1,0l0,0l0,0l0-0.1l0-0.1l0,0l-0.1,0l-0.1,0l-0.1-0.2l-0.1-0.1l-0.2,0l-0.4,0.1l-0.2,0l-0.3-0.1l-0.3,0l-0.3-0.1l-0.2,0  l-0.1,0l-0.2,0.1l-0.1,0l-0.1,0l-0.1,0l-0.1,0l-0.1,0.1l-0.1,0l-0.4-0.2l-0.1,0l-0.5,0l0,0l-0.1,0l0.1-0.1l-0.2-0.1l0,0l-0.1-0.1  l0,0l-0.1,0l0,0l0,0l-0.1-0.1l0,0l-0.2-0.1l-0.5-0.1l-0.2-0.1l-0.1-0.2l0-0.1l-0.1-0.3l0-0.1l0-0.2l0.2-0.2l0.1-0.1l0-0.1l0.1-0.2  l0-0.1l0-0.1l0.1-0.2l0.1-0.1l0.1,0l0.1,0l0.1-0.1l0.1-0.1l0-0.1l-0.1,0l-0.1,0l-0.1-0.1l0.1,0l0.1,0l0.1,0l0,0l0,0l0,0l0,0l0.1-0.1  l0-0.1l0-0.1l0-0.1l0-0.1l-0.1,0l-0.1,0h0l0-0.1l0,0l-0.1,0l-0.1,0l-0.1-0.1l-0.6,0l-0.1-0.2l-0.1,0l-0.1,0.1l-0.1,0.1l0,0l0,0l0,0  l0,0.1l0,0l0,0l0,0l-0.4,0.1l-0.2,0l-0.1-0.1l-0.1,0l-0.1,0l-0.1,0l-0.1,0l0,0.1l-0.1,0.1l-0.1,0.1l-0.1,0.1l-0.1,0l-0.1,0l-0.1,0  l-0.3,0.1l-0.1,0l-0.1,0l-0.2,0l-0.6-0.1l-0.2-0.1l-0.2-0.2l-0.1-0.3l-0.1-0.3l0,0l-0.1-0.1l0,0l0,0l0-0.1l0,0l0,0l0,0l-0.1,0  l-0.1,0l0-0.1l-0.1-0.4l0-0.5l0-0.1l-0.1-0.1l-0.1-0.1l-0.1-0.2l-0.1-0.1l-0.2-0.1l0,0l0-0.1l0-0.1l-0.1,0l0,0l-0.1,0l-0.1-0.1  l-0.1,0l-0.2,0l-0.1-0.1l-0.2-0.1l-0.1-0.1l-0.1-0.1l0-0.1l0-0.1l0-0.1l0.1-0.2l0-0.1l0-0.1l-0.2-0.4l0.1-0.2l0-0.2l0-0.2l-0.1-0.2  l-0.1-0.2l0-0.2l-0.1-0.2l-0.1-0.6l0-0.1l0.1-0.1l-0.1,0l-0.1,0l0,0l-0.2,0l-0.1,0l-0.1,0l-0.1-0.1l-0.1,0l-0.1,0l-0.1,0l-0.1-0.1  l-0.1-0.2l0,0l-0.1-0.1l-0.1,0l-0.1-0.1l-0.3-0.2l-0.1,0l-0.1,0l-0.1,0l-0.1,0.1l0,0l0,0l0,0l-0.1,0l-0.2,0l-0.1,0l-0.1,0l-0.1-0.1  l-0.1-0.1l-0.1-0.4l-0.1-0.2l-0.1-0.1l-0.2-0.1l0,0.1l0,0.1l0,0l0.1,0v0l-0.3,0l0.1-0.1l-0.1-0.1l-0.1-0.1l0-0.1l0-0.2l0-0.1  l-0.1-0.1l-0.4-0.1l-0.1-0.1l0-0.2l0-0.1l-0.1-0.1l-0.2-0.1l-0.1,0l-0.1,0l0,0l0.1-0.1l-0.1-0.1l-0.1-0.1l-0.1,0l-0.1,0l-0.1,0  l-0.1,0l-0.1,0l0-0.1l-0.1-0.2l-0.2-0.1l-0.4-0.1l0,0l0,0l0,0l0,0h0l-0.1,0.1l0,0l-0.1,0l0,0l0,0l0,0l-0.1,0l0,0l0,0l0-0.1l0,0l0,0  l0,0l0,0l0,0l0,0l0,0l0-0.1l-0.1-0.2l0-0.1l0-0.2l-0.1-0.1l0-0.1l0-0.1l0,0l0,0l0-0.1l0-0.1l0-0.3l0-0.1l-0.1-0.1l-0.1-0.1l-0.3-0.3  l0,0l0-0.1l0-0.2l0-0.1l0-0.1l-0.1-0.1l0-0.1l0-0.1l0-0.1l0-0.1l0-0.1l-0.1,0l-0.1,0.1l-0.1,0l-0.1,0l0,0l-0.1-0.1l-0.1-0.1  l-0.2-0.3l0-0.2l0-0.3l0-0.3l0-0.2l0.1-0.3l0-0.2l0.1,0l0.1,0l0.2,0l0.1,0l0.2-0.1l0.1,0l0.3,0l0.1,0l0.1,0l0.1,0l0,0.1l0,0.1l0.1,0  l1,0.1l0.1,0l0.3-0.1l0.2,0l0.4,0.1l0.1,0l0.1,0l0.1,0l0.1,0l0.1,0l0.1,0l0.1-0.1l0.1,0l1.2-0.1l0.5-0.2l0-0.5l0,0l0,0l0,0l0-0.1  l0,0l0.1-0.1l0,0l0-0.1l0-0.1l0-0.1l0.1-0.1l0-0.1l0-0.1l0,0l0-0.1l0-0.1l-0.1-0.2l0-0.2l-0.1-0.1l-0.1-0.1l0-0.1l0-0.1l0-0.1l0-0.1  l0-0.1l-0.2-0.2l-0.5-0.2l-0.2-0.2l-0.1-0.1l-0.1-0.2l-0.1-0.1l-0.1-0.1l-0.1-0.1l-0.2-0.3l-0.5-0.4l-0.2-0.1l0,0l0,0l0-0.1l0,0l0,0  l-0.1,0l0,0l-0.1-0.1l-0.1-0.1l-0.1-0.1l-0.3,0l-0.3-0.1l0,0l0,0l0,0l0,0l0,0l0,0l0,0l-0.2-0.1l-0.1,0l-0.1,0l-0.1,0.1l-0.1,0.1  l-0.1,0.1l-0.1,0l-0.1,0l-0.6-0.1l-0.1,0l0,0l-0.1-0.1l-0.1-0.1l-0.1-0.1l0,0l-0.1,0l-0.1,0.1l-0.1,0l-0.1,0l-0.1,0l-0.1,0l-0.1,0  l-0.3-0.2l-0.1-0.1l0-0.1l-0.1-0.1l-0.1,0l-0.1,0l-0.1,0l-0.1,0l-0.2,0l-0.1,0l-0.1,0l-0.1,0l0-0.1l0-0.1l-0.1,0l-0.2,0l-0.2-0.1  l-0.4-0.1l-0.8-0.7l-0.1,0l-0.2,0l0-0.1l0-0.1l0-0.1l-0.1-0.1l-0.1,0l-0.1,0l-0.1,0h0l-0.1,0l-0.1,0l-0.1,0l0,0l-0.1-0.1l-0.1,0  l-0.1,0l-0.1,0l-0.1,0l-0.1,0l-0.1,0l-0.1-0.1l-0.1,0l-0.1,0l-0.1,0l-0.1-0.1l-0.2,0l-0.1,0l0-0.1l0-0.1l-0.1,0l-0.2,0l-0.1,0  l-0.2-0.1l-0.1,0l0,0l0,0l0,0l-0.1,0l-0.1-0.1l-0.1,0l-0.1,0l-0.1-0.1l-0.1,0.1l-0.1,0l-0.1,0l-0.1,0.1l0,0l0,0l0,0l0,0.1l0,0.1l0,0  h0l-0.1-0.2l-0.2,0l-0.4,0.1l-0.2-0.1l-0.1-0.2l-0.1-0.2l0-0.2l0.1-0.2l0-0.1l0-0.1l0-0.1l0-0.1l0-0.1l0.2-0.3l0-0.1l0-0.1l0-0.3  l0-0.1l0-0.1l0-0.2l0,0l0-0.1l0-0.1l0-0.1l0-0.1l-0.1-0.1l0,0l0-0.1l-0.1-0.3l0-0.2l0-0.3l0-0.1l0.1-0.1l0-0.1l-0.1-0.1l-0.1-0.1  l-0.1-0.1l-0.2-0.1l0,0l-0.1-0.1l-0.1-0.1l-0.1-0.1l-0.7-0.8l-0.1-0.3l-0.1-0.1l0,0l0,0l-0.1,0l-0.1,0l-0.1-0.2l-0.1-0.1l-0.2-0.3  l-0.4-0.3l-0.3-0.3l-0.3-0.1l-0.3,0l-0.3,0.1l-0.3,0l-0.7-0.2l-0.2-0.1l-0.2-0.4l-0.1-0.1l0,0l0-0.2l0,0l-0.1-0.1l-0.2-0.2l-0.1-0.1  l-0.3-0.1l-0.1-0.1l0-0.1l0-0.1l0,0l0.1,0l0,0l0,0l0,0l0,0l0,0l0,0l-0.2-0.1l-0.2-0.1l-0.1-0.1l-0.2-0.2l-0.3-0.1l-0.8-0.1l-0.1,0  l-0.1,0l-0.1,0l-0.1-0.1l0-0.1v-0.6l0-0.1l-0.1-0.1l-0.1-0.1l-0.1-0.1l-0.1,0l-0.3,0l-0.1,0l-0.2-0.1l-0.3,0l-0.3,0l-0.2,0.1l0,0.1  l0,0.1l-0.1,0.1l-0.1,0.1l0,0v0l0,0l-0.1,0l-0.1,0l0,0l-0.1-0.1l-0.1,0l-0.2,0.1l-0.1,0l-0.1-0.1l-0.1,0l-0.1,0l-0.1-0.1l0.1,0  l0.1,0l0.1,0l0.1-0.1l-0.2,0l-0.1,0l-0.1,0l-0.4,0l-0.2,0l-0.2-0.1l-0.3-0.5l-0.2-0.1l-0.1,0l-0.3-0.1l-0.1-0.1l-0.2-0.4l-0.1,0  l-0.1,0l-0.2,0l-0.1,0l-0.1-0.1l-0.1-0.1l0.1-0.1l0,0l0,0l0,0l-0.1,0.1l-0.1,0l0,0l-0.2-0.1l-0.1,0l-0.1,0l-0.1,0l0,0l0,0l-0.1-0.2  l-0.4-0.4l-0.1-0.1l-0.3-0.1l-1.4-0.2l-0.1,0l-0.1,0l-0.1-0.1l-0.1,0l-0.5,0l-0.1,0l0,0l-0.1,0l-0.1,0l-0.2,0l-0.1,0l-0.5-0.1  l-0.2-0.1l-0.1,0l-0.1,0l-0.1,0l-0.2-0.1l-0.1,0l-0.1,0l-1.3-0.4l-0.8-0.2l-0.7-0.3l-0.8-0.2l-0.2-0.1l-0.1,0l-0.2,0l-0.1,0  l-0.1-0.1l-0.1-0.1l-0.2,0.1l-0.1,0l-0.2,0l0,0l0-0.1l0-0.1l0-0.1l0-0.1l0-0.1l-0.4-0.3l-0.1,0l-0.4,0l-0.2,0l-0.1,0l-0.3-0.2l0-0.1  l0-0.1l0,0l-0.2,0l-1.5-0.7l-1.3-0.5l-0.1,0l-0.1-0.1l-0.2-0.2l-0.1,0l0,0l-0.1-0.1l0,0l-0.1,0l-0.2,0l-0.1,0l0,0l0,0l-0.1,0l-0.1,0  h-0.2l-0.3-0.1l-0.3-0.1l-0.3,0l-0.2,0.1l-0.1-0.1l-0.1,0l0,0v0.2l0,2.5v0l0,1.6v0l0,5l0,1.1l0,2.8l0,2.6v8.9l0,0l0,0l0,0.1l0,0  l0,0.1v0l0,0v0l0,0l0,0l0.1,0.1l0,0v0l0,0.1l0,0h0l0,0l0,0l0,0.1v0l-0.1,0l-0.1,0l-0.1,0l-0.1,0l0,0l0.1,0l0,0l0,0.1l0,0.1l0.1,0  l0,0.1l0,0.1l0,0.1v0l-0.1,0l0,0l0,0.1l0,0.2l0,0l0,0v0l0,0l-0.1,0l-0.1,0l0,0l0,0.1l0,0.1l0,0l0,0l-0.1,0v0l-0.1,0l-0.1,0h0l0,0  l0,0.1l0,0l0.1,0l0,0.1l0,0.2l0,0.1l0,0.1l0,0l0,0l0,0.1l0,0.1l0.1,0.1l0,0.1l0,0l0,0l-0.1,0.1l0,0l0,0.1l0.1,0.1l0.1,0.1l0,0.1  l0,0.1l0.1,0.1l0.2,0l0,0.2l0.1,0.1l0.1,0l0,2.6v4.8l0,4l0,3.3l0.2,0.1l0.7,0.6l0.2,0.1l0.3,0l0.2-0.1l0.5-0.4l0.2-0.1l0.3,0  l0.2,0.1l0.2,0.1l0.3,0.2l0.1,0.1l0.1,0l0.1,0l0.1,0l0.1,0l0.1,0l0.1,0.1l0.1,0l0.1,0l0.1,0l0.1,0l0.1,0l0.2,0l0.6-0.1l0.2,0  l0.3,0.1l0.1,0l0.2,0l0.1,0l0.4-0.1l0.1,0l0.9-0.1l0.2,0l0.1,0l0.1-0.1l0.1,0l0.1,0l0.3,0.1l0.3,0.2l0.1,0l0.2,0l0.1,0l0.2,0.1  l0.2,0l0.2,0.1l0.2,0.2l0.3,0.3l0.2,0.1l0.2,0.1l0.3,0l0.4-0.2l0-0.1l0.1-0.1l0.7-0.3l0.2-0.2l0.3-0.1l0.1-0.1l0.1-0.1l0.1-0.1  l0.1-0.1l0.1,0l0.1,0l0.2-0.1l0.2-0.1l0.1-0.1l0.6-0.2l0.1,0l0,0l0,0l0,0l0,0l0,0l0.1,0l0.1,0l0.1,0l0.1,0l0,0l0.2,0l0.4,0l0.2-0.1  l0.1-0.1l0.1,0l0.2-0.1l0.1-0.1l0-0.1l0-0.2v-0.9l0-0.1l-0.1-0.1l-0.3-0.3l-0.2-0.3l-0.4-0.4l-0.9-0.7l-0.2-0.1l-0.3-0.1l-0.8-0.2  l-0.3-0.1l-0.4-0.3l-0.1,0l-0.1,0l-0.2-0.2l-0.3-0.1l-0.1,0l-0.5-0.1l-0.2,0.1l-0.4,0.3l-0.2,0.1l-0.3,0l-0.2-0.1l-0.1-0.2l-0.2-0.6  l0-0.1l-0.1-0.1l-0.2,0l-0.2,0l-0.3,0.1l-0.1,0l-0.1,0l0,0l0,0l-0.1,0l-0.1,0l-0.1,0.1l-0.1,0.1l-0.1,0l0-0.1l0-0.1l0.1-0.1l0.1,0  l0.1,0l0.1,0l0.1-0.1l0-0.1l0,0l0.1,0l0.2,0l0.4-0.1l0.3,0.1l0.1,0.2l0.2,0.7l0.1,0.1l0.1,0.1l0.1,0l0.3,0l0.1,0l0.1-0.1l0.4-0.2  l0.1,0l0.1,0l0.3-0.1l0.1-0.1l0.1,0l0,0l0.8,0.1l0.6,0.3l0.1,0l0.2,0l1.5-0.4l0.6,0l0.2-0.1l0.1,0l1.7,0l0.1,0l0.1-0.1l0-0.1l0-0.2  l-0.4-0.7l-0.1-0.3l-0.1-0.1l-0.5-0.2l-0.1-0.1l0-0.1l0-0.2l-0.1-0.1l-0.3,0l-0.1,0l-0.1,0l0,0l0-0.1l0,0l0.1,0l0.1,0l0,0l0.2,0  l0.1,0l0.1,0.1l0.1,0.1l0.1,0.2l0.1,0.1l0.1,0l0.4,0l0.4-0.1l0.2,0l0.1,0.1l0.1,0l0.2,0.1l0.1,0l0.1,0.1l0.1,0l0.1,0l0.6,0l0.1,0  l0.1-0.1l0.1-0.1l-0.2-0.3l-0.1-0.1l-0.1,0l-0.1,0l-0.1,0l0,0l0-0.1l0,0l0.4,0l0.1,0l0.1,0.1l0.1,0.1l0.1,0.1l0.1,0l0,0l0.1-0.1  l-0.1-0.3l-0.3-0.5l-0.2-0.2l-0.1-0.1l0-0.2l0-0.2l0-0.1l0-0.1l-0.5-0.9l-0.1-0.3l0,0l0,0l0,0l-0.2,0l-0.1-0.1l-0.1,0l-0.1,0  l-0.2-0.2l-0.1-0.1l0-0.1l0,0.1l0,0l0.1,0.1l0.2,0.2l0.1,0l0.1,0l0.2,0l0.1,0l0.1,0l0,0l0,0.1l0.2,0.4l0,0.1l0.1,0.1l0.2,0.1  l0.5,0.3l1.2,0.4l0.1,0.1l0.1,0l0.1,0l0.1,0l0.1,0l0.1,0l0.1,0l0.1,0.1l0.1,0l0.3-0.1l0.1-0.1l0-0.1l-0.1-0.1l-0.1-0.1l-0.1,0  l0.1-0.1l0-0.1l0-0.1l-0.2,0v0l0.1,0l0.1,0l0.1-0.1l0-0.1l0.1,0.1l0.1,0.3l0.1,0.1l0.1-0.1l0-0.2l-0.1-0.2l0-0.2l0.2,0.3l0.1,0.2  l0,0.2l0.1,0.2l0.1,0.1l0.1-0.1l0.1-0.2l0.1,0l0.1,0.1l0.1,0.1l0,0.1l0,0l0.1,0.2l0,0l0.2,0l-0.1-0.2l-0.1-0.2l-0.1-0.1l0-0.1  l-0.1-0.1l-0.1-0.1l0-0.1l0-0.2l0-0.2l0-0.1l-0.1-0.2l0-0.1l0-0.3l0-0.1h0l0.1,0.1l0.1,0.2l0.1,0.1l0,0l0,0l0,0l0,0l0,0l0,0.1l0,0  l0.1,0.1l0.2,0.1l0,0.1l0,0l0.1,0l0.1,0l0-0.1l-0.1-0.1l0-0.1l0-0.1l0.1-0.2l0-0.5l0-0.1l0.1,0.1l0,0.1l0,0.2l0,0.1l0,0l0,0l0,0.1  l0,0.1l0,0.1l0.1,0.1l0.1,0.1l0.1,0.1l0.1,0l0.2,0l0.1,0l0.1-0.1l0-0.1l0-0.1l0-0.1l0-0.1l0.2,0.1l0.1,0.1l0.1,0.1l0.2,0.2l0.1,0.2  l0.1,0.1l0.1,0l0.1,0l0.1,0l0.1-0.1l0-0.1l0.1-0.1l0-0.3l0.1-0.1l0.1,0.1l0,0.1l0,0.6l-0.1,0.1l-0.1,0.1l0,0l0.1,0.1l0.1,0l0.1,0  l0,0l0,0.1l0,0h0l0.1,0l0,0l0.1,0l0.1,0.1l0.1,0l0.1-0.1l0.2,0.2l0.1,0h0.4l0.1,0l0,0l0-0.1l0-0.1l0,0l0,0.1l0,0.1l0.1,0.1l0.1,0.1  l0.2,0l0.1,0l0,0l0-0.1l0.1-0.1l0.1,0.1l0.1,0.1l0,0.1l0.1,0.1l0.1,0l0.1,0l0.1,0l0.1,0l0.1,0l0.3,0l0.2,0.1l0.4,0.4l0.1,0.1l0.1,0  l0.2,0l0.4-0.1l0.1,0v0l0.1,0l0.1,0l0.1,0l0.1,0l0.1,0l0.1,0.1l0.1,0l0.4,0l0.1-0.1l-0.1-0.1l0.1-0.1l0.1,0l0.1,0l0.1-0.1h0  l-0.1,0.2l0,0l0,0l0,0l0,0l0,0l0,0l-0.1,0l0,0l0,0.1l0,0l0,0l0,0l0.1,0.1l0.4,0.1l0.1,0.1l0.2-0.1l0.2,0l0.4,0.1l0.4,0.2l0.2,0.1  l0.1,0l0,0.1l0,0.1l0,0l-0.1,0l0.1,0.1l0.1,0.1l0,0.1l-0.1,0.1l0.1,0.2l0.1,0.1l0.2,0l0.1,0l0.2,0.2l0.2,0.1l0.1,0.1l0.1,0.1l0,0.1  v0.2l0,0l0.1,0.1l0,0.1l0,0.3l0.1,0.2l0.6,0.8l0.2,0.1l0,0l0.3,0.2l0,0.1l0,0.1l0.1,0.1l0.3,0.4l0,0.1l0,0.1l0,0.1l0,0.1v0.1l0,0.1  l0.1,0l0.1,0l0.1,0l0,0.1l0,0l0,0l0,0l0,0l0,0.1l0.1,0l0.1,0l0.1-0.1l0,0.1l0,0.1l-0.1,0.1l-0.1,0.1l-0.1,0l0,0.1l0,0.1l0,0.1l0,0  l0,0.1l0,0.1l0,0.1l0.1,0.1l0.1,0.2l0.1,0.1l0.2,0.1l0.1,0l0.5,0.1l0.1,0.1l0,0l0.1,0l0.1,0l0.1,0l0.2,0.1l0.2,0.1l0.2,0.1l0.2,0  l0.1-0.1l0.2-0.2l0,0l0,0l0-0.1l0-0.1l0.1,0l0,0l0,0.1l0,0.1l0,0.1l0,0.1l-0.2,0.1l0,0.1l0,0l-0.2,0.1l-0.1,0l-0.1,0l0,0.1l0,0.1  l0,0l0,0l-0.1,0.1l0,0.2l0.1,0.2l0.1,0l0,0.1l0,0.1l-0.1,0l-0.1,0l0.1,0.1l0.3-0.1l0.1,0l0.1,0.1l0.1,0.1l0.1,0.3l0.1,0.1l0.2,0.3  l0.1,0.2l0.1,0.1l0.1,0.1l0.1,0l0,0l0,0l0-0.1l0-0.1l0,0l-0.1,0l0-0.1l0.1,0l0.1,0l0.1,0l0.1,0.1l0,0.1l0,0.2l0,0.1l0.1,0.1l0.2,0.1  l0.2,0.1l0.2,0l-0.1-0.1l0-0.1l0.1,0l0.1,0l0.1,0v0l0.1,0l0.1,0.1l0.1,0.1l0,0.1l0,0l0.1,0.1l0.1,0.1l0.1,0.1l0.1,0.1l0.2,0.2  l0.6,0.8l0.1,0.1l0,0.1l0,0.3l0,0.1l0.1,0.1l0.1,0.1l0.1,0.1l0.1,0.1l0,0.1l0,0.1l0.2,0.2l0.1,0.1l0.1,0l0.1,0l0.1,0l0,0l0,0l0.1,0  l0.1,0l0.1,0l0.1,0.6h0l0.3-0.3l0.2,0l0.3,0.1l0.1,0.1l0,0l0-0.1l0-0.1l0,0l0.1,0l0.1,0.1l0,0.1l-0.1,0.1l-0.1,0v0l0.2,0l0.1,0  l0.1,0l0.1,0.1l0.1,0.1l0.1,0.1l0.1,0.1l0.1,0.1l0.1,0l0.1-0.1l0.1-0.2l0.2,0.1l0.3,0l0.3-0.1l0.1-0.2l0.1,0l0,0.1l0,0l0,0l0.1,0  l0.1,0l0.1,0l0.1,0.1l0.1,0.1l0.1,0.1l0.1-0.1l0.1,0l0.1,0.1l0.1,0.1l0.1,0.1l0.4,0.2l0.1,0l0.5,0l0.1,0l0.1,0l0-0.1l0,0l0.1,0  l0.2,0h0.3l0.1,0l0,0l0,0l0.1-0.1l0.1-0.1l0-0.1l0-0.3h0l0.1,0.2l0,0.1l0,0l0.1,0l0.1,0l0,0l0-0.1l0.1,0l0.1,0.1l0,0.1l-0.1,0  l-0.1,0l-0.1,0l0,0.1l0,0l0.1,0l0,0l0,0l0,0l0.1,0.1l0,0.1l0.1,0l0.1,0l0.1,0l0.1,0l0.3,0l0.1,0l0.1,0l0.4,0.2l0.1,0l0.1,0l0.1,0  l0.1-0.1l0.1-0.1l0.1,0l0.1,0l0.1,0l0.2-0.1l0,0l0.1,0l0.1,0l0.1,0l0.1,0l0.2,0l0.1,0l0.5,0.2l0.1,0l0.1,0l0.1,0l0.1,0l0.1,0.1  l0.1-0.1l0.1-0.1l0.1,0l0.3,0.1l0,0.1l0,0.1l0,0.1l0.2,0l0.1,0l0,0l-0.1,0l0.1,0.1l0.1,0l0.1-0.1l0.1,0l0,0l0,0.1l0.1,0h0.2v0  l-0.1,0l0,0l0.1,0l0.1,0l0.1,0l0.2,0.1l0.1,0l0.2,0l0.2,0l0.2,0l0.2,0l0.1,0.1l0.1,0.1l0.4,0.1l0.2,0.1l0.1,0.1l0,0.1l0.1,0.2l0,0  l0,0l0,0l0,0.1l0,0.1l0,0.1l0,0l0,0l0.1-0.1l0-0.1l0-0.1l0,0l0,0l0-0.1l0,0l0,0l0.1,0l0.1,0l0.1,0.1l0.1,0l0.1,0l0.1,0l0.1,0l0.1,0  l-0.1,0l0,0l0,0l0,0.1l0,0l-0.1,0l-0.3,0.1l-0.3-0.1l-0.2,0l-0.1,0l0-0.1l-0.1,0l0,0l0,0l0,0.1l0.1,0l0,0l0,0.1l-0.1,0l-0.1,0  l-0.1,0.1l0.1,0l0.1,0l0.1,0l0.1,0l0,0l0,0h0l0,0l0-0.1l0.2,0.1l0.1,0.1l0,0.1h0l0,0l0.1-0.1l0,0.1l0,0l0.1,0.1l0.1,0l0.1,0l0.1-0.1  l0-0.1l0,0l0,0.1l0.1,0.1l0,0.1l-0.1,0.1l0.1,0l0.1,0l0.1,0l0,0l0,0l0.1,0.1l0.1,0l0,0l0,0l0.1,0l0,0l0.1,0.1l0.1-0.1l0.2-0.1l0.2,0  l0.1,0l0,0.1l0,0l0,0l0,0l0.2,0.1l0,0.1l0.1-0.1l0.1,0l0.1,0l0,0l0,0l0.1,0l0,0l0,0l0.3-0.2l0.1,0l0.1,0l0.1,0.2l0.1,0l0.1,0l0.1,0  l0.1,0l0-0.1l0-0.1l0,0l0,0l0,0l0.1-0.1l0.1-0.1l0,0l0.1-0.1l0.1,0l0.1,0l0.2,0l0,0l0.1,0l0.8-0.3L-395.9,411.9L-395.9,411.9z   M-418.5,359.1L-418.5,359.1L-418.5,359.1l0.1,0l0-0.1l0-0.1l0-0.1l0,0l0,0l-0.1,0l-0.1,0l-0.1,0.1v0.1L-418.5,359.1L-418.5,359.1  L-418.5,359.1L-418.5,359.1L-418.5,359.1L-418.5,359.1z M-444.2,397.4L-444.2,397.4l-0.1,0l0,0l-0.1,0l-0.1,0l-0.1,0.1l0.1,0.1  l0.2,0.1l0.1,0.1l0.3,0l0.1,0l0.1,0.1l0.3,0.2l0.1,0l0.3,0l0.1,0l0.1-0.1l0-0.1l0-0.1l-0.1-0.2l0-0.1l0-0.2l-0.1,0l-0.6-0.1l-0.4,0  L-444.2,397.4z M-398.2,404.6l0.1-0.2l0-0.1l0,0l0,0l0,0l0,0l-0.1-0.1l0,0l0-0.1l-0.1-0.1l0-0.2l-0.1-0.3l-0.1-0.2l-0.2-0.1  l-0.4-0.2l-0.2-0.1l-0.2,0l-0.2,0.1l-0.2,0.1l-0.1,0.2l-0.1,0.2l0,0.2l0,0.2l0,0.1l0.3,0.2l0,0.1l0,0.1l0,0.1l0.1,0l0.3,0.1l0.1,0  l0.1,0l0,0.1l0,0.1l0,0.1l0,0l0,0l0,0l0,0l0.2,0.1l0.2,0.1l0.2,0l0.1-0.1l0-0.1l0,0l0-0.1l-0.1,0l-0.1,0L-398.2,404.6L-398.2,404.6z   M-442.3,397.6l0-0.1l-0.1-0.1l-0.1-0.1l-0.3-0.1l-0.3,0l-0.1,0.1l0.3,0.1l0.2,0.3l0.1,0.1l0.1,0l0.1,0l0-0.1L-442.3,397.6  L-442.3,397.6z M-442.6,399.2l-0.1,0l-0.1,0l-0.6-0.5l-0.1-0.1l0-0.1l-0.1,0l-0.1,0l-0.6-0.2l-0.6-0.1l-0.1-0.1l-0.2-0.3l-0.1,0  l-0.1,0l-0.1,0l0.1,0.1l0.1,0.1l0.1,0.1l0.2,0.2l0.1,0.1l0.2,0.1l0.4,0.1l0.4,0.3l0,0.1l0,0.1l0.1,0l0.1,0l0.1,0l0.1,0.1l0.8,0.4  l0.1,0.1l0,0.1l0,0.1l0.1,0.1l0.1,0l0.1-0.1l0-0.2l-0.1-0.1L-442.6,399.2z M-444,399.5l-0.1-0.2l-0.1-0.1l-0.2,0l0,0L-444,399.5  L-444,399.5L-444,399.5L-444,399.5z M-442.4,398.2l-0.2-0.1l-0.1,0.1l-0.1,0.1l0,0.1l0,0.1l0.1,0.1l0.1,0.1l0.1,0l0.2-0.1l0-0.1  L-442.4,398.2L-442.4,398.2z M-444,397l-0.7,0.1l0,0.1l0.1,0l0.1,0l0.9,0.1l0.1-0.1l-0.1-0.1L-444,397z M-379.1,416.9L-379.1,416.9  L-379.1,416.9L-379.1,416.9L-379.1,416.9l0.1,0l0-0.1l0-0.1l0,0l0,0l0,0L-379.1,416.9L-379.1,416.9L-379.1,416.9z M-383.6,362.7  l0.3,0.4l0,0.1l0.2,0.2l0,0l0,0l0.1,0l0.1-0.1l0-0.1l0-0.2l0-0.1l0-0.1l0-0.1l0,0l0,0l0,0l-0.1,0l0,0l0-0.1l0-0.4l0,0v0l-0.1,0  l-0.3,0.1l-0.1,0l-0.1,0.1l-0.1,0l0,0l0,0.1L-383.6,362.7z M-379.3,365.1l0.2,0.1l0.1,0.1l0,0l0,0l0,0l0,0l0,0l0.1,0v0l0,0l0-0.1  l-0.1-0.1l-0.1-0.2l0,0l0,0l-0.1,0L-379.3,365.1L-379.3,365.1L-379.3,365.1z M-387.1,361.2L-387.1,361.2l-0.2-0.2l-0.1-0.1l0,0l0,0  l-0.1,0l-0.1,0.1l0,0.1h0l0.1,0.1l0.1,0l0,0l0.1,0l0,0l0,0l0,0l0.1,0.2l0.1,0.1l0,0l0.1,0.2l0.1,0.1l0,0l0,0l0.2,0l0.1-0.1l0-0.2  l0-0.2l0,0l0,0l0,0l0,0l0,0l0,0l-0.2,0L-387.1,361.2L-387.1,361.2z M-387.4,359.7h0.2l0.1,0l0,0l0,0l0,0l0,0l-0.1-0.1l0,0l0,0  l-0.1-0.1l-0.1-0.1l-0.2,0.1l-0.1,0.2v0.2l0,0L-387.4,359.7z M-378.9,364.6l0.1,0l0.1,0l0.1,0l0.1,0.1l0,0l0-0.1l0-0.1l-0.1-0.1l0,0  h-0.2l-0.1,0.1L-378.9,364.6L-378.9,364.6L-378.9,364.6L-378.9,364.6z M-387.7,360.8L-387.7,360.8l0.1,0.1l0,0l0,0l0.1,0l0.1,0  l0.1-0.1l0-0.1l0,0l0,0l0,0l-0.1,0l0-0.1l0,0l0.1,0l0-0.1l0-0.1l0-0.1l0,0l0,0l-0.1-0.1l0,0l0,0l0,0l0,0l0,0l0,0l-0.1,0l-0.2-0.1  l0,0l0,0.1l0,0.2l0,0.1l-0.1,0.2L-387.7,360.8L-387.7,360.8L-387.7,360.8z M-376.7,369.2L-376.7,369.2L-376.7,369.2l0.2,0.2l0.2-0.1  l0.1-0.2l-0.1-0.3l0,0l0-0.1l-0.1,0l-0.1,0.1l-0.1,0.1l0,0l-0.1,0.1l0,0.1l0,0L-376.7,369.2L-376.7,369.2L-376.7,369.2L-376.7,369.2  z M-368.6,365l0,0.2l0,0.2h0l0.1-0.2L-368.6,365l0-0.1l0-0.2l0,0l0,0l0,0l0.1,0.2L-368.6,365z M-418,357.8L-418,357.8L-418,357.8  l-0.1,0l0,0.1l0,0l0,0l-0.1,0.1l0,0.1l0,0l0,0l0,0l0,0.1l0,0l0.1-0.2l0.3-0.1l0.1-0.1l0-0.1l0,0l0,0L-418,357.8z M-373,371.3l0,0.1  h0l0-0.3l0-0.1l0-0.1l-0.1,0.1l0,0.1L-373,371.3z M-375.9,368.7L-375.9,368.7l0.2,0.1l0.1-0.1l0-0.1l-0.1-0.1l-0.1,0l-0.1,0  l-0.1,0.1l-0.1,0.1L-375.9,368.7L-375.9,368.7z M-372.8,371.7L-372.8,371.7L-372.8,371.7l0.1,0.1l0.2,0.1l0.1,0.2l0,0.2l-0.1,0.1  l0,0l-0.1,0l0-0.1l-0.1-0.1l0-0.1v0.2l0.1,0.2l0.2,0.1l0.1-0.2l0-0.2l-0.1-0.2l-0.1-0.1L-372.8,371.7L-372.8,371.7L-372.8,371.7  L-372.8,371.7L-372.8,371.7L-372.8,371.7z M-415.5,357.5l0.1,0.1l0.1,0l0.1,0h0.3l0.2,0l0.1-0.1l0.2-0.3l0,0v0l-0.1-0.1l-0.1-0.1  l-0.1-0.2h0l0,0h-0.1l0,0l0,0.1l-0.1,0l-0.1,0l0,0.2l-0.1,0.1l-0.2,0.1L-415.5,357.5L-415.5,357.5L-415.5,357.5L-415.5,357.5  L-415.5,357.5L-415.5,357.5z M-415.4,355.7l0.1,0l0.2-0.1l0-0.1l-0.1,0l-0.1,0l0,0l0,0L-415.4,355.7L-415.4,355.7L-415.4,355.7  L-415.4,355.7L-415.4,355.7L-415.4,355.7L-415.4,355.7z M-423.4,356.6L-423.4,356.6l0.1,0.1l0.1,0.1l0.1,0l0.1-0.2l0.1,0l0.1,0  l0.1-0.1l0.1,0.1l0,0l0,0l0.1,0l0.2,0l0.1,0l0-0.1l-0.1-0.1l0,0l0,0l-0.1,0l-0.1,0l0,0l0,0l0-0.1l0-0.1l0,0l0.2,0h0.1l0,0l0,0l0,0  l0,0l0.1,0.1l0,0l0,0l0,0l0,0l0,0l0,0l0.1,0l0,0l0,0l0,0l0,0l0,0l0,0l0.1,0l0,0l0,0l0,0.1l0,0l0,0l0,0l0.8,0.1l0.2,0l0.2,0l0.2-0.1  l0,0l0,0v0l0,0v0l0.2,0l0.3-0.1l0.1,0l0.1,0l0.2,0.1l0.1,0l0.1,0l0.1,0l0.1,0l0.1-0.1l0.2-0.3l0.1-0.1l0-0.1l0-0.2l0.1-0.1l0,0.1h0  l0,0h0l0-0.1l0-0.1l0.1,0l0.1,0l-0.1,0.1l0,0l0,0l0,0l0.2,0l0.2,0l0.2,0l0.1-0.2l0-0.2l0-0.1l-0.1,0l0,0l-0.1,0l-0.1-0.1l-0.1,0l0,0  l-0.1,0l0,0l0,0l0,0l0.1,0l0,0l0,0l0,0l0,0l0.1,0.1l0,0.1v0.2h0l-0.1,0l0,0l0,0l0,0l-0.2,0l-0.2,0l-0.1,0l-0.1,0l-0.2-0.1l0,0l0,0  l0,0l-0.2-0.1l-0.1,0l0,0l0,0l-0.2,0l-0.1,0l0-0.1l0-0.1h0l0,0l-0.1,0l-0.1,0.1l0,0.1h0l0-0.1l-0.1-0.1l-0.1-0.1l0,0l0,0l-0.1,0  l-1.1-0.1l-0.2,0.1l-0.1-0.1l-0.1,0l-0.2,0l-0.2,0.1l-0.3,0.2l-0.1,0l-0.1,0l-0.1-0.1l0,0l0,0l0,0l-0.1,0l-0.1,0l-0.1,0l-0.1,0l0,0  l0,0l-0.1-0.1l0,0l0,0l0,0l0,0l0,0l0,0l0,0l0,0l-0.1,0.2l0,0.1l-0.1,0l0,0l0,0l0,0l0,0l-0.1,0l0,0l0,0l0,0.1l0,0.1l0,0l0,0l0,0.1  l0,0.1l0.2,0.2l0,0.1l0,0.1l0,0.1l0,0l0,0l-0.2,0.1l-0.1,0l-0.1,0l-0.1,0l-0.1,0.1l0,0.1L-423.4,356.6L-423.4,356.6z M-416.6,377.3  L-416.6,377.3L-416.6,377.3L-416.6,377.3L-416.6,377.3L-416.6,377.3L-416.6,377.3l0.2,0.3l0.2-0.1l0.1-0.1l0.1-0.1l-0.1-0.1l0-0.1  l-0.1-0.1l-0.1,0l-0.1,0l-0.1,0.1L-416.6,377.3L-416.6,377.3L-416.6,377.3z M-400.6,358.4L-400.6,358.4L-400.6,358.4L-400.6,358.4  L-400.6,358.4l-0.1-0.1l0,0l0,0.1l0,0v0l0.1,0.1l0.2,0.1l0.1-0.1l0.1,0.1l0.2,0.3l0.1,0.1l0.1,0.3l0,0l0.1,0l0.1,0.1l0,0l0.2,0.2  l0.1,0l0,0l0,0l0.1,0l0,0l0.1,0l0.5,0l0.1,0l0,0l0,0l0,0l0,0l0,0l0,0l0,0l0.1-0.1l0.1-0.1l0.1,0l0,0.1l0,0.1h0l0,0l0,0l0.1,0l0.1,0  l0.2-0.1l0.1,0l0,0l0-0.1l0-0.1l0-0.1l0-0.1l0-0.1l0-0.1l0.1-0.1l0-0.1l0-0.1l0,0l0,0l0,0l-0.1,0l0.1-0.2l-0.1-0.2l-0.2-0.1l0,0l0,0  l-0.2-0.1l-0.2,0l0,0l0,0l-0.1-0.1l0,0l-0.1,0l-0.2-0.1l0,0l0,0h0l0,0l-0.1,0l-0.3-0.2l-0.1-0.1l0,0l0,0l-0.1-0.1l-0.1,0l-0.1,0.1  l-0.1,0l0,0l-0.3,0.1l-0.1,0l-0.1,0l-0.1,0l-0.1,0L-400.6,358.4L-400.6,358.4z M-414.6,378.4L-414.6,378.4l-0.1-0.1l0,0l0,0l0,0l0,0  l0,0l0,0l0,0l-0.1,0.1l-0.2,0l-0.1,0.1l0,0.1l0,0.3l0,0.2v0.1l0,0.1l0.1,0.1l0.1,0.2l0.1,0.1l0.3,0.2l0,0.1l0,0.1l0,0l0.1,0.1l0.1,0  l0.2,0l0.2,0l0.1,0l0.1,0.1l0,0.1l0,0.2l0,0.1l0-0.1l0.1,0l0.1,0l0.1,0l0,0l0-0.1l0,0l0,0l0.1,0l0-0.2l0.1-0.3l0.1-0.6l0-0.2  l-0.1-0.2l-0.3-0.2l-0.2-0.1l-0.2-0.1l-0.3,0l-0.1,0l-0.1-0.1L-414.6,378.4z M-403.5,351.7l0,0.1l0.1,0.1l0,0l0,0l0,0l0.1,0l0,0l0,0  l0,0.1l0.1,0.1l0.1,0l0,0l0,0l0.1,0l0.1,0.1l0.1,0.1l0.1,0l0,0v0l0,0l0-0.2l0,0l0,0l0.1,0l0.1,0.1l0,0l0,0l0,0l0,0l0.1,0l0.1,0  l0.2-0.1l0.1,0l-0.1-0.1l-0.1-0.2l-0.1-0.1l-0.1-0.2l0,0l0,0l0,0l0,0l0-0.1l0-0.1l0-0.1l0-0.1l-0.1-0.1l0,0l0,0l-0.4-0.2l-0.1-0.2  l0,0v0l-0.1,0l-0.2,0l0,0l-0.1,0l0,0l0,0l0,0l0,0l-0.1,0.1l-0.2,0.4v0l0,0L-403.5,351.7z M-401,353.2L-401,353.2L-401,353.2  L-401,353.2L-401,353.2L-401,353.2l0.1,0l0.1,0l0.1,0l0,0l0,0l0.1,0l0.1,0l0,0l0,0l0,0l0.1,0l0,0l0,0l0,0l0,0l0,0l-0.1,0l-0.1,0  l-0.1-0.1l0-0.1l0,0l0,0l0,0l0,0l0,0.1l0,0l0,0l-0.1,0l-0.1,0l0,0l0,0v0.1L-401,353.2L-401,353.2z M-412.9,378.2l0.2-0.1l0-0.2  l-0.1-0.2l-0.2-0.1l-0.1,0.1l0,0.2l0.1,0.2L-412.9,378.2z M-406.1,374.6L-406.1,374.6l0.2-0.2l0-0.1l-0.1-0.1l-0.3,0.1l-0.1,0l0,0.1  L-406.1,374.6L-406.1,374.6z M-403.8,373.2L-403.8,373.2L-403.8,373.2l0-0.1l0-0.1l0-0.1l0.1,0l0.1,0l0,0.1l0,0.1l0.1,0.1l0,0l0,0.1  l0,0l0.1,0l0,0l0-0.1l0-0.1l0-0.1l-0.1-0.1l-0.1-0.1l-0.1,0l-0.2,0.1l-0.2,0.1l-0.1,0.1l0.2,0.1L-403.8,373.2z M-364.3,373.7  L-364.3,373.7L-364.3,373.7L-364.3,373.7L-364.3,373.7L-364.3,373.7z M-392.8,374.8l0.1,0l0.2,0l0.1,0l0.1-0.1v-0.1l-0.1-0.1  l-0.1-0.1l-0.1,0l-0.1,0l-0.1,0.1l-0.1,0l-0.1,0.1l0,0.1l0.1,0.1L-392.8,374.8L-392.8,374.8z M-386.8,369.1L-386.8,369.1  L-386.8,369.1l-0.1,0.1v0.1l0,0.1l0.1,0l0,0l0-0.1l0,0l0-0.1l0,0l0,0L-386.8,369.1L-386.8,369.1L-386.8,369.1L-386.8,369.1z   M-395.3,361.8L-395.3,361.8l0.1-0.1l0.1,0l0.1,0l0,0v0l0,0l0.1-0.1l0.1,0l0.3,0.1h0.3l0.2,0l0.1,0l0,0.1l0,0l0,0l0.1-0.1l0.1,0  l0-0.1l0,0l0,0l-0.1,0l-0.1,0l-0.1,0l-0.1,0l0,0l-0.1-0.1l-0.1-0.1l0,0l0,0l-0.4-0.1l-0.3,0.2l-0.2,0.1l-0.1,0l-0.2,0.1  L-395.3,361.8L-395.3,361.8L-395.3,361.8L-395.3,361.8z M-384.6,370.7l-0.3,0.1h-0.1l-0.4,0l-0.1,0l-0.1-0.1l0-0.1l-0.1,0l-0.1,0  l-0.1,0l0,0l0,0l-0.1,0l-0.1-0.1l0-0.2l0-0.2l0-0.1l0-0.1l0.1,0l0,0.1l0,0.1l0,0.1l0,0l0.1,0l0,0l0.1,0l0-0.1l-0.1-0.3l-0.1-0.1  l-0.1-0.1l-0.1-0.1l-0.2,0l-0.1,0.1l0,0.1l-0.1,0.1l-0.1,0l-0.2,0l0,0l0,0l-0.1,0l-0.1,0l-0.1,0l-0.1,0l-0.1-0.1l-0.1,0l-0.1,0.1  l0.1,0.1l0.1,0.1l0.1,0.1l0,0.1l-0.2,0.3l-0.1,0.1l-0.1,0l-0.3-0.1l-0.1,0l-0.1-0.1l-0.1-0.1l0-0.2l0-0.1l-0.1-0.1l-0.2-0.1l-0.1,0  l-0.3,0l-0.1,0l-0.1,0.1l0-0.1l-0.1,0l-0.1,0l-0.1,0l-0.1,0l-0.1-0.1l-0.1,0l-0.3,0l-0.4-0.1l-0.1,0l-0.1,0.1l-0.1,0.1l0,0.1l0,0.2  l0.1,0.2l0,0.1l0,0l0,0l0,0.1l0,0.1l0,0.1l0.1,0.1l0,0.1l0,0.1l0,0.1l0,0.1l0.1,0.1l0.2,0.2l0.1,0.1l0.1,0.1l0,0.1l0,0.3l0,0.2  l0.1,0.1l0.1,0.2l0.1,0.3l0,0.5l0,0.3l0,0.1l0.1,0.1l0,0.1l0,0l0,0l0,0l0,0l0,0l0,0l0,0l0,0l0,0.2l0,0.1l0,0.1l-0.1,0.2l-0.1,0.1  l0,0l-0.1,0.1l-0.1,0l-0.3-0.2l-0.3-0.1l-0.1,0.1l-0.1,0l-0.1,0l-0.1-0.1l-0.4-0.1l-0.1-0.1h0l0,0.2l0,0.1l-0.1,0l-0.1,0l-0.1,0  l-0.1,0.1l-0.1,0.1l-0.1,0l-0.2,0.1l-0.1,0l0,0l0,0.1l0,0l0,0l-0.1,0l0,0l-0.1,0.1l-0.2,0.3l-0.1,0.1l-0.1,0.2l0,0l-0.1,0l0,0  l-0.2,0.2l-0.2,0.2l-0.2,0.2l-0.2,0.4l-0.1,0.3l0,0.1l0,0.3l0,0.1l-0.1,0.1l-0.1,0.1l-0.1,0.1l-0.1,0.1l-0.1,0l-0.1,0.1l0,0l-0.1,0  l-0.2,0l-0.1-0.1l-0.2-0.1l-0.2-0.1l-0.2,0.1l-0.1,0l-0.1,0l0,0.1l0,0.1l-0.1,0.1l-0.1,0.1l-0.2,0.1l-0.1,0l-0.2,0l-0.1,0.1l-0.1,0  l-0.1-0.1l-0.1-0.1l0-0.1l-0.1-0.1l-0.1-0.1l-0.4-0.2l-0.1,0l-0.1,0l-0.3,0.1l0,0l0,0l-0.1,0.1l-0.1,0l-0.2,0.2l-0.1,0l-0.1,0  l-0.1,0.1l-0.1,0.1l0,0.1l-0.1,0l-0.1,0l-0.1,0l-0.5,0l-0.1,0l-0.1-0.1l-0.1-0.1l-0.1-0.1l0-0.1l0-0.1l0-0.1l-0.2-0.4l-0.2-0.3  l0-0.1l0-0.1l-0.1-0.1l0,0l0.1-0.1l0.1,0l0.1,0l0,0l0-0.1l0-0.2l0-0.2l-0.1-0.1l0.1-0.1l0.1-0.2l0.1-0.1l0.3-0.1l0.1-0.1l0.1-0.1  l0-0.1l0,0l0-0.1l0-0.1l-0.1-0.1l-0.1,0l-0.1-0.1l-0.3-0.1l-0.3,0l-0.2,0.1l-0.1,0.3l0,0l0,0l0,0l0,0l0.1,0.1l0,0l0,0.1l-0.1,0.1  l0,0.1l0,0.1v0l0.1,0l0,0l0,0.1l0,0.1l0,0.1l-0.1,0.1l-0.1,0.1l-0.1,0.1l-0.1,0.1l0,0l-0.1,0.1l0,0l0,0.1l-0.1,0.1l0,0.1l0.1,0.1  l0.1,0.2l0.1,0.1l0.1,0l0.1,0l0.1,0l0,0.1l0,0.1l-0.2,0.3l-0.1,0.1l-0.2,0.1l-0.3,0.1l-0.3,0l-0.2-0.1h0l0,0.1l0,0.1l-0.1,0.1  l-0.1,0l-0.1,0l-0.1,0l-0.1,0l-0.1,0l-0.1,0l-0.1,0l-0.1-0.1l0.1-0.2l0-0.1l0-0.1l-0.1,0l0,0l0,0l0,0l0,0l0,0.1l0,0.1l0,0.1  l-0.1,0.1l-0.1,0l-0.1,0l-0.1,0l0,0.1l0,0l0,0l0,0l0,0l-0.4,0.2l-0.1,0l-0.1,0l-0.1,0.2l-0.1,0.1l0,0l-0.2-0.1l0,0.1l-0.1,0  l-0.1-0.1l0-0.1l-0.1,0.1l-0.1,0.1l-0.1,0l-0.1-0.1l-0.2,0.1l-0.8,0.1l0,0l-0.1-0.1l0,0l-0.1-0.1l0,0l0,0l0,0l-0.1,0l-0.1-0.1  l-0.5-0.2l-0.1,0l-0.1-0.1l-0.5-0.2l-0.3,0.2l-0.1,0l-0.1,0l0,0l-0.1,0.1l-0.1,0.1l0,0l0,0.1l-0.1,0l-0.3,0l-0.1,0l-0.1-0.1  l-0.1-0.1l-0.1,0l-0.1,0l-0.2,0l-0.2-0.1l-0.1,0l-0.1,0.1l-0.2,0.2l-0.2,0.1l-0.2,0l-0.2-0.1l0-0.1l0-0.1l0-0.1l-0.1,0l-0.1,0  l-0.1,0l-0.2-0.1l-0.1,0l-0.1,0l0,0l0,0l0,0l0,0l-0.2,0.1l-0.2,0.2l-0.1,0.2l-0.1,0.7l0,0.2l0.1,0.3l0.2,0.2l0,0.1l0.1,0l0.1,0  l0.1,0l0.1,0.1l0.3,0l0.1,0l0.1,0.1l0.2,0.2l0.1,0l0.1,0l0.1-0.1l0.2-0.1l0.1,0.1l0.2,0.2l0.1,0.1l0.2,0l0.1,0l0,0.1l0,0l0.1,0  l0.1,0l0,0.1l0,0.1l0,0.1l0,0.1l0,0.1l0,0l0.1-0.1l0.1,0l0.2,0l0.1,0l0,0l0,0l0,0l0.1,0l0,0l0,0l0,0.1l-0.1,0l0,0l0,0.1l0,0.1l0,0  l0.1,0l0.2,0l0.3,0.1l0.5,0.2l0.1,0l0.1,0l0.1,0l0.1-0.1l0,0.1l0,0.1l-0.1,0.1l-0.1,0.1l0.2,0l0.1,0.1l0,0.1l0,0.1l0,0.1l0,0l-0.1,0  l-0.1,0l0,0.1l0.1,0l0.1,0l0,0l0.3,0l0.1,0l0.1-0.1l0.1-0.1l0-0.1l0-0.1h0l0.1,0.1l0.1,0l0.2,0l0.1,0l0.2-0.1l0.1,0l0.1,0l0.2-0.1  l0.1,0l0.1,0l0.1,0l0.1,0.1l0.6,0.2l0.2,0.1l0.4,0.5l0.1,0.2l0.1,0.1l0,0.1l0.1,0.1l0.3,0.2l0,0.1l0.1,0l0.1,0l0.2,0l0.1,0l0.1-0.1  l0,0l0.6,0l0.2,0l0,0l0.2,0l0.1,0l0.1,0l0.1,0l0.1,0.1l0.1-0.1l0.1-0.1l0.1,0l0.1,0l0.1,0l0.1,0.1l0,0.1l0,0.1l0.1,0l0.1-0.1l0-0.1  l-0.1-0.1l0.1,0l0,0l0-0.1l0,0l0.1,0.1l0,0l0,0l0,0l0,0.1l0,0l0,0l0.1,0l0.1-0.1l0.1-0.1l0.1-0.1l0.1,0l0.1,0l0,0l0.1,0l0,0l0.1,0.1  l0.1,0l0.2,0l0.3-0.1l0.1,0l0,0l0,0l0,0l0,0l0,0l0.1,0l0.1,0l0.1,0l0.1,0l0.1,0l0.2,0l0.3-0.1l0.1-0.1l0.2-0.2l0.1,0l0.1,0l0.1-0.1  l0.2-0.2l0,0l0,0l0,0l0,0l0.1-0.1l0.1-0.1l0.1-0.1l0.1,0l0,0.1l0,0l0,0l0.1-0.1l0.1,0l0.2,0l0.2-0.1l0,0l0.1,0l0.1,0l0.1-0.2l0-0.1  l0-0.1l-0.1-0.2l0-0.1l0-0.1l0-0.1h0l0.2,0.2l0.1,0.1l0.1-0.1l0.1,0l0.5-0.1l0.4,0.1l0.2,0l0.1-0.2l0.1-0.1l0.2-0.1l0.4-0.1l0,0.1  l0,0l0.2-0.1l0,0l0-0.1l0-0.1l0.1-0.1l0.2-0.2l0.1-0.1l0.1,0l0.1,0l0.2-0.1l0.1-0.1l0.2-0.2l0.1-0.1l0-0.1l0-0.1l0-0.1l0-0.1  l0.1-0.1l0.1-0.1l0.1-0.1l0.2,0l0.2-0.1l0.1-0.1l0-0.1l-0.2-0.2l-0.1,0l-0.2,0l0,0l0-0.1l-0.1-0.1l0-0.1l0-0.1l0.1-0.1l0.1,0l0.2,0  l0.4,0l0.1,0.1l0,0.1l0,0.1l0,0.1l0.1,0l0.1,0l0.2-0.2l0.1-0.1l0.2,0l0.2,0l0.1,0l0.1,0.1l0.2,0.2l0.1,0.1l0.2,0l0.1-0.1l0.1-0.1  l0.1-0.1l0.1,0l0.2-0.1l0.2,0l0.1,0l0.3-0.3l0.1,0l0.3-0.2l0.1,0l0.1,0l0.1,0l0-0.1l0,0l0-0.1l0,0l0,0l0.2-0.4l0-0.2l-0.1-0.2l0-0.1  l-0.3-0.3l-0.1,0l-0.1,0l0,0l0-0.1l0,0l-0.3-0.3l-0.1-0.1l0-0.2l0-0.8l0-0.1l0.1-0.1l0.1,0.1l0.1,0l0.1-0.1l0.1,0l0.1,0l0.1,0  l0.3,0.1l0.1,0l0.2-0.1l0.3,0l0.1-0.1l0.1-0.2l0.1-0.1l0,0l0.1-0.2l0,0l0.1,0l0.4-0.7l0-0.3l0.1-0.4l0-0.3l-0.1-0.3l-0.2-0.4  l-0.1-0.2l0-0.2l0.3-0.7l0-0.1L-384.6,370.7L-384.6,370.7z M-383.9,369.7l0-0.1l-0.1-0.1l0,0l-0.1-0.1l-0.1,0.1l-0.1,0.1l-0.2,0.1  l0.1,0l0,0.1l0,0.1l0,0.1l0,0l0.2,0l0,0h0l0.1-0.1L-383.9,369.7z M-386.6,410.9L-386.6,410.9l0.1-0.1L-386.6,410.9L-386.6,410.9z   M-386.1,413.6L-386.1,413.6L-386.1,413.6L-386.1,413.6L-386.1,413.6L-386.1,413.6L-386.1,413.6z M-382.6,415.7L-382.6,415.7l-0.1,0  l0,0L-382.6,415.7L-382.6,415.7l-0.1-0.1l-0.1,0l0,0l0,0l0,0l0.1,0.1l0-0.1l0,0L-382.6,415.7L-382.6,415.7L-382.6,415.7  L-382.6,415.7L-382.6,415.7z M-386.3,416.6L-386.3,416.6L-386.3,416.6L-386.3,416.6z M-385,415.7L-385,415.7l-0.1,0l0,0L-385,415.7  L-385,415.7L-385,415.7L-385,415.7L-385,415.7z M-384.7,412.9L-384.7,412.9l0.1,0.1v-0.1l0,0l0-0.1l0,0l-0.1-0.1l0-0.1l0,0l-0.1,0  l-0.1,0l-0.1,0l-0.1,0.1l0,0.1l0,0.1l0,0l0.2-0.1L-384.7,412.9L-384.7,412.9z M-384.6,413.3L-384.6,413.3l-0.2,0.1l0,0l0,0l0.1,0.1  l0.1,0L-384.6,413.3L-384.6,413.3L-384.6,413.3z M-383.4,415.4L-383.4,415.4L-383.4,415.4L-383.4,415.4l-0.1,0l0,0l0,0l0,0l0,0l0,0  l-0.1,0l0,0l0,0l0,0l0,0.1l0,0L-383.4,415.4L-383.4,415.4l0,0.1L-383.4,415.4L-383.4,415.4L-383.4,415.4z M-372.1,417.3  L-372.1,417.3l0-0.1l0-0.1l-0.1,0l-0.1-0.1l-0.1,0l0,0l0-0.1l-0.1,0l-0.1,0l-0.1,0l-0.1,0l-0.1,0l-0.3,0l-0.2,0l-0.1,0l0,0.1l0,0.1  l0,0l0.1,0l0,0l0,0l0,0l0,0h0v0h0l0,0.1l0,0l0,0l-0.1,0l0,0l-0.1-0.1l-0.3,0l-0.1-0.1l0,0l0,0l0,0l0.1,0.1l0,0l-0.1,0l-0.1,0l0,0  l0,0l0.1,0l0.1,0l0.1,0l0,0l0,0.1l0.1,0l0.1,0l0.2,0.1l0.1,0l0.1-0.1l0-0.2h0l0,0.2l0.1,0l0.2-0.1l0.1,0l0.1,0l0.1,0.1l0.1,0.1  l0.1,0l0.1,0l0-0.1l0-0.1L-372.1,417.3L-372.1,417.3z M-375.5,418.7L-375.5,418.7L-375.5,418.7l-0.1-0.1l0-0.1l-0.1,0l-0.1,0l0-0.1  l0-0.1l-0.1,0l-0.8-0.2l-0.1,0l-0.1,0l-0.3-0.2l-0.4-0.2l-0.2-0.2l-0.1,0l-0.2,0l-0.1,0l-0.2-0.1l-0.1,0l-0.1,0l-0.1,0l0-0.1l-0.1,0  l-0.1,0l-0.1,0l-0.3-0.2l-0.1,0.1l0,0.1l0,0.1l0,0l0,0.1l0.1,0l0,0l0.1,0l0,0l0,0.1l0,0.1l0,0l0.1,0l0.1,0l0.1,0.1l0.1,0.1l0.1,0.1  l0.1,0l0.1,0l0.1,0l0,0.1l-0.3,0.1l0,0.1l0.2-0.1l0.1-0.1l0.1,0l0,0l0,0l0,0l0,0l0,0l0,0l0.1,0l0,0.1l0,0.1l-0.1,0.1l0,0.1l0,0.1  l0,0.1l0.1,0l0.1-0.1l0.2,0.1l0.1,0l0.1,0l0.1-0.1l0.1-0.1l0,0.1l0,0l0,0l0.1,0l0,0.1l0,0l0.1,0l0.1,0l0.1,0l0.1,0l0,0l0,0l0,0  l0.1,0l0.1,0l0.1,0l0,0l0,0l0,0.1l0,0l-0.1,0l-0.1,0l0,0.1l0.1,0l0.1,0l0.1,0l0,0l0.1-0.1l0,0h0l0,0l0,0h0.3l0.1,0l0,0l0,0l0-0.1  l0.1,0l0.1,0l0.1,0l0.1-0.1l0.1,0l0,0l0,0L-375.5,418.7l0,0.1l0,0l0,0L-375.5,418.7L-375.5,418.7L-375.5,418.7z M-379.3,416.6  L-379.3,416.6L-379.3,416.6l0.1,0l0.1,0l0,0l0.1,0l0.1,0l0-0.1l0-0.1l-0.1,0l-0.3-0.2l-0.3-0.1l-0.1-0.1l-0.1,0l-0.1,0l0,0.1  l0.1,0.1l0.2,0.1l0,0l0,0l0,0l0,0L-379.3,416.6L-379.3,416.6L-379.3,416.6z M-361,386.4l-0.2-0.3l0-0.1l0-0.1l-0.1-0.1l0-0.1l0-0.1  l0-0.1l0-0.1l-0.1-0.2l-0.1-0.2l-0.2-0.2l-0.1-0.2l-0.1-0.3l-0.1-0.1l-0.1-0.1l-0.1,0l-0.1-0.1l-0.1-0.1l-0.1-0.1l-0.1-0.2l-0.1-0.1  l-0.1,0l-0.1,0l-0.1,0l-0.1,0l-0.1-0.2l-0.2-0.2l0-0.1l-0.1,0l0,0l0,0l0,0v0l-0.1,0.1l0,0.1l0,0.1l-0.2,0l-0.1-0.1l-0.1-0.1l0-0.1  l-0.1,0l-0.1,0.1l-0.1,0l-0.1,0l0,0l-0.3-0.3l-0.2-0.5l0-0.1l-0.1-0.3l-0.1-0.1l-0.1-0.1l-0.1-0.1l0,0l0,0l-0.1,0l0,0l-0.1,0l0,0  l0,0l-0.3-0.4l-0.1,0l-0.1-0.1l-0.1,0l-0.1,0l-0.1-0.1l-0.1-0.2l-0.1-0.1l0-0.2l0-0.1l0,0l-0.1-0.1l0,0l-0.1,0l0,0l-0.1-0.1  l-0.1-0.3l-0.2-0.2l0-0.1l0-0.1l0,0l-0.1,0l0,0l0,0l0-0.1l0-0.1l0,0l0,0h-0.1l-0.1,0l0,0.1l0,0l-0.1,0v0l0-0.1l-0.1,0l-0.4,0l-0.1,0  l-0.1,0l-0.1,0.1l-0.1,0l-0.1,0l0,0.1l-0.1-0.1l-0.1-0.1l-0.1-0.1l-0.1,0l-0.1-0.2l-0.2-0.2l-0.3-0.1l-0.2,0l0,0.1l0.3,0.3l0.1,0.2  l0,0.1l0.1,0.1l0,0.1l0,0.1l0,0l-0.1,0l-0.1-0.1l0,0l0,0l0,0l0,0v0l0.1,0.1l0,0.1l-0.1,0.1l-0.1,0.6l-0.1,0.3l0,0.1l0,0l0,0.1  l0.1,0.1l0.2,0.2l0.1,0.1l0,0.1l0,0.1l0,0.1l0,0.1l0,0.1l0,0.1l0,0.1l0.1,0.1l0.2,0.2l0.1,0.1l0,0.1l0.1,0.1l0.1,0.1l0.2,0.1  l0.2,0.2l0.3,0.1l0,0.1l0,0l0.1,0.1l0.1,0.3l0,0.1l0,0l0.1,0.1l0.1,0l0.1,0.1l0.1,0.1l0.2,0.1l0.7,0.2l0.2,0.2l0.1,0.3l0,0.3l0,0.3  l-0.1,0.3l-0.1,0.2l-0.1,0l-0.1,0l-0.1,0l0.1,0.2l0.8,0.9l0.1,0.1l0.1,0.1l0.2,0.2l0.1,0.1l0.1,0l0.1,0l0.3,0.2l0.5,0.2l0.3,0.1  l0.3,0.1h0.3l0.1,0l0.1,0.1l0.1,0l0.1,0l0.1-0.1l0.2-0.2l0.2-0.1l0.2-0.2l0.2-0.1l0.2,0.2l0.2-0.4l0.1-0.1l0.1,0.1l0,0.2l-0.1,0.3  l0.1-0.1l0.1-0.1l0.1-0.2l0-0.2L-361,386.4z M-369.2,376.7l0-0.2l0-0.1l-0.1-0.1l-0.1,0l-0.1-0.1l0-0.1l0-0.1l0-0.2l0-0.2l-0.1-0.2  l-0.1-0.2l-0.2,0l-0.2,0.1l-0.2,0.2l-0.2,0.2l0,0.2l0.2-0.1l0.1,0l0,0.1l0,0.4l0,0.1l0,0l-0.1,0v0.1l0.1,0.2l0,0.2l0.3,0.7l0.1,0.5  l0.1-0.1l0-0.1l0-0.1l0.1,0l0,0.1l0.2-0.1l0.1-0.2l0-0.4L-369.2,376.7z M-380.2,415.8L-380.2,415.8l-0.1,0.1l0,0.1l0.1,0h0.1l0.1,0  l0-0.1L-380.2,415.8L-380.2,415.8z M-381.1,415.9L-381.1,415.9L-381.1,415.9L-381.1,415.9L-381.1,415.9l-0.1,0l0,0l0,0l0.1,0.1l0,0  l0,0L-381.1,415.9L-381.1,415.9z M-382.2,415.8L-382.2,415.8L-382.2,415.8l0.1,0L-382.2,415.8L-382.2,415.8z M-381.6,412.5l-0.2-0.1  l-0.1,0l-0.2-0.1l-0.2,0.1l-0.2,0.1l-0.2,0.1l-0.1,0l-0.2-0.1l-0.1,0l-0.1,0l-0.4-0.1l0,0l0,0l0,0l0,0v0l0.3,0.2l0.4,0.1l0.4,0.2  l0.2,0.1l0.1,0l0.1,0l0.1-0.1l0.1,0l0.3,0l0.1,0l0.1,0l0.1,0l0-0.1L-381.6,412.5L-381.6,412.5z M-380.5,415.8L-380.5,415.8  L-380.5,415.8l-0.2,0l-0.1,0l0,0.1l0,0.1l-0.1,0l0,0l0.1,0.1l0,0l0,0l0,0l0,0l0,0.1l0,0l0.1,0l0,0l0,0l0-0.1L-380.5,415.8l0.1,0  L-380.5,415.8L-380.5,415.8z M-380.1,372.5l0-0.1l0-0.1l0-0.1l0-0.1l-0.1-0.1l-0.1-0.1l-0.1-0.1l0,0l0-0.1l0.1-0.2l0.4-0.3l0.2-0.2  l-0.1-0.2l0-0.2l0.1-0.4l-0.1-0.1l-0.1-0.2l-0.2-0.1l-0.1,0l0,0l0-0.1l-0.1-0.1l-0.1-0.2l-0.2-0.4l-0.1-0.1l-0.1-0.1l-0.1-0.1l0,0  l-0.1-0.1l0-0.1l0-0.1l0-0.1l-0.1-0.1l0,0l0,0l-0.1,0.1l0,0l-0.1,0l-0.2,0l-0.1,0l-0.1-0.1l0-0.1l-0.1-0.1l0-0.1l0-0.1l0-0.1l0-0.1  l-0.1-0.2l0,0l0,0l-0.1,0l-0.1,0.1l-0.1,0.1l-0.1,0l-0.1,0l-0.1,0l-0.1-0.1l-0.1-0.1l-0.1-0.1l-0.1-0.1h0l0,0l-0.2,0l-0.2,0l-0.1,0  l-0.1,0l0,0l-0.1-0.1l0,0l-0.1-0.1l0,0l0,0l0-0.1l0-0.1l0-0.1l0,0l0,0l-0.1-0.1l0,0l0-0.1l0-0.1l-0.1-0.1l-0.1-0.1l-0.1-0.1v0l0,0  l-0.1,0.1l-0.1,0.1l-0.1,0l-0.1-0.1l0-0.1l-0.1-0.2l-0.1-0.1l0-0.1l0,0l0,0l0,0l0,0l0,0l0,0l-0.1,0l0,0l0-0.2l0,0l0,0l0,0l-0.1-0.1  l-0.1-0.1l-0.5-0.2l-0.2-0.1l-0.1,0l-0.1-0.1l-0.1-0.1l-0.2-0.2l-0.3-0.5l-0.2-0.2l0-0.1l0,0l-0.1,0l0,0l0,0l0-0.1l0,0l0,0l0,0l0,0  l0,0l0,0l-0.1,0l-0.1,0l0,0l-0.1-0.1l-0.1,0h0l0,0h-0.2l0,0l-0.1-0.1l0,0l-0.1-0.1l0,0l0,0l-0.1,0l0,0l0,0l-0.1,0l-0.1,0l-0.1-0.1  l-0.1,0l-0.2,0l-0.1,0l-0.1-0.1l-0.1-0.1l0-0.2l0,0l0,0l-0.2,0l-0.1-0.1l0,0l-0.1-0.1l-0.1-0.1l-0.1-0.1l-0.2-0.1l-0.3-0.2l-0.1,0  l-0.4-0.3l0,0v0l-0.1,0l-0.1,0l0,0l0,0l-0.2-0.2l-0.1-0.1l0,0l-0.1-0.1l-0.1-0.1l-0.1,0l-0.1,0l-0.1,0l-0.1,0l-0.1,0l0-0.1l0-0.1  l0,0l0,0l-0.1,0l0,0h0l0,0l-0.5,0l-0.3-0.1l-0.1-0.2l0-0.2l0,0l-0.1-0.1l-0.1-0.1l0,0l-0.4-0.2l0,0l0,0l0,0l0,0l-0.1,0l-0.1,0  l-0.1,0l0-0.1l-0.1-0.1l0,0l0,0l0,0l0,0l0,0l0,0l0,0l-0.1,0l-0.3,0l-0.1,0l-0.1-0.1l-0.2-0.2l0,0l0,0l-0.1-0.1l0,0l-0.1-0.1l0-0.1  l0,0l0,0l0,0l-0.2-0.1l-0.1-0.1l0-0.1l-0.1-0.1l0,0l0,0l-0.1-0.1l0,0v0l0,0l0,0l0,0.1l0,0l-0.1,0.3l0.1,0l0.2,0.1l0.1,0l0.1,0l0.1,0  l0.1,0l0,0.1l-0.1,0.1l0,0l0,0l0.2,0l0,0.1l-0.1,0.1l0,0l-0.1-0.1l-0.3,0.2l-0.1,0.1l-0.1-0.1l0,0l-0.1,0l0,0l0,0l-0.1,0l0,0.1  l0,0.1l0.1,0.2l0,0l0,0l0.2,0.1l0.3,0l0.5-0.1l0.1,0l0.1,0.1l0,0l0,0l0,0l0.2,0l0.1,0l0.1,0l0,0l0,0l0.1,0.1l0.1,0.1l0.1,0h0l0,0  l0.2,0l0.1,0l0.1,0l0,0l0,0l0,0l0,0l0.1,0l0,0l0,0.1l0,0l0.1,0.1l0,0l0.1,0l0,0l0,0l0,0l0,0l0,0l0.1,0h0.1l0.2,0.2l0,0.1l0,0l0,0  l0.1,0l0.1,0l0.1,0l0.1,0.1l0.1,0.1l0,0l0,0l0.3,0.1l0,0l0,0l0.1,0.1l0.2,0.1l0.3,0.1l0.1,0.1l0,0.1l0,0.1l0,0l0,0l0,0l0,0l0,0l0,0  l0,0l0,0l0,0l0,0l0,0l0.4,0.2l0.4,0.1l0.1,0.1l1.3,1.3l0,0l0,0l0.5,0.3l0.4,0.2l0,0l0,0l0.3,0.1l1,0.2l0.1,0l0,0l0.1,0l0,0l0.2,0.1  l0.1,0.1l0,0l0.1,0l0,0l0,0.1l0,0l0,0l0,0l0.1,0l0.1,0l0,0l0.1,0l0.1,0.2l0.1,0.1l0.2,0.2l0,0l0.1,0l0.1,0.1l0,0.1l0,0.2l0,0.1  l0.6,0.7l0.1,0.1l0.1,0.1l0,0.1l0,0l0,0l0.1,0l0.1,0l0,0l0,0l0,0.1l0,0.1l0,0.1l0,0l0,0l0.1,0l0,0l0,0l0,0.1l0,0l0,0l0,0.1l0,0l0,0  l0,0l0,0l0.1,0.1l0.1,0.2l0,0.1l0,0.2l0.3,0.7l0.2,0.2l0,0.1l0,0.1l-0.1,0.1l0.1,0.1l0,0.1l0,0.1l0,0.1l0.1,0.2l-0.1,0.7l0,0  l-0.1,0.3l0,0.1l0.1,0.2l0.1,0.3l0,0l0.1,0l0,0l0,0l0.1,0.1l0,0l0,0.4l0,0.1l0,0l0,0l0.2,0.1l0.1,0.1l0.1,0.1l0.1,0.1l0,0l0,0.2  l0.2,0.1l0.2,0.2l0.1,0.2l0.1,0.2l0,0l0,0l0.1-0.1l0-0.1l0.1-0.1l0.1,0l0-0.1l0.1-0.1l0.1,0l0.1-0.1l0.1-0.1l0.1-0.2l0-0.1l0,0  l0.1-0.1l0-0.1l0-0.1l0-0.2l0.1-0.1L-380.1,372.5L-380.1,372.5z M-380.9,402.8L-380.9,402.8l-0.1-0.1l0,0l0,0l0,0l0,0l0-0.1l0.1,0  l0.1,0l0.1,0l0.1,0.1l0.1,0.1l0.1,0l0.1-0.1l0.1-0.1l0-0.1l0-0.1l0-0.1l-0.1,0l-0.1,0l-0.1,0l-0.1-0.3l-0.1,0l-0.2,0l-0.1,0  l-0.2-0.1l-0.1-0.1l0-0.1l0-0.1l-0.1-0.1l-0.1,0l-0.1,0l-0.1,0l-0.1,0l-0.1,0.1l-0.1,0l-0.1,0l-0.2,0l-0.1,0l-0.2-0.1l-0.1,0l-0.2,0  l-0.3,0.1l-0.1,0l-0.3,0.2l-0.1,0v0l0.2,0l0.2,0l0.2,0l0.2,0.1l0.1,0l0,0l0,0l0,0.1l0,0l0,0l0.4,0.3l0.1,0.1l0.1,0.1l0,0.1l0,0.1  l0,0l0,0l0,0l0,0.1l0,0l0,0l0,0l0,0l0.1,0l0,0l0,0.1l0,0.1l0,0l0.1,0l0.1-0.1l0-0.1l-0.1-0.1l-0.1,0l0.1,0l0.1,0l0,0l0,0.1l0,0  l0.1,0l0.1,0l0.2,0.2l0.1,0.1l0.1,0l0.3,0l0.1,0l0.1,0l0.1-0.1l0.1,0l0.1,0.1l0.1,0L-380.9,402.8z M-392.3,413L-392.3,413  L-392.3,413L-392.3,413z M-394.8,406.7L-394.8,406.7L-394.8,406.7l0.1,0l0,0l0,0l0,0l0,0l0,0l0,0l0,0l-0.1,0l0,0l0,0l0,0  L-394.8,406.7L-394.8,406.7z M-394,405.4l-0.1,0.1l0,0.1l0.1,0.1l0.2,0.1l0,0l0,0l0,0l0,0.1l0,0l0.1-0.1l0-0.1l0,0l0,0l0,0l0,0  l0-0.1l0,0l0,0l0-0.1l0,0l0,0l0-0.1l-0.1,0l-0.1,0L-394,405.4z M-395.6,412.3L-395.6,412.3L-395.6,412.3L-395.6,412.3l0-0.1  L-395.6,412.3L-395.6,412.3L-395.6,412.3l-0.1,0v0l0-0.1l0,0l0,0l0,0l0,0l0,0l0,0l0,0l-0.1,0.1l0,0.1l0,0.1l0,0l0.1,0l0,0l0,0l0,0  l0,0l0.1,0.1h0.1l0.1,0l0,0l0,0L-395.6,412.3L-395.6,412.3z M-393.1,398.1l0-0.3l0,0l0,0l0,0l0,0l-0.3,0l-0.1,0l-0.1,0.1l-0.1,0.1  l0,0.1l0,0.1l0,0.1l-0.1,0.2l0,0.1l0.1,0.1l0.4,0l0.1,0l0.1,0.1l0.1,0.1l0,0l0,0.1l-0.1,0.3l-0.3,0.4l0,0.1l0,0l0.4,0.2l0.2,0.3  l0.1,0.1l0-0.1l0-0.1l-0.1-0.1l-0.1-0.1l-0.1-0.1l0-0.2l0.2-0.9l0-0.3l-0.2-0.2l0.1-0.1L-393.1,398.1z M-394.5,411.9L-394.5,411.9  l-0.2-0.1l-0.1,0.1l-0.1,0l-0.1,0l-0.1,0l0-0.1l-0.1,0l-0.1,0l-0.1,0l0,0.1l0,0.1l0.4,0.4l0,0l0,0l-0.1,0l-0.1,0l-0.1,0l-0.1-0.1  l-0.1-0.1l0,0l0.1,0l0,0.1l0.1,0.1l0.1,0l0.2,0l0.2,0.1l0.1,0.1l0.1,0l0-0.1l0-0.1l0-0.1l0-0.1l0-0.1l0-0.1l-0.1,0L-394.5,411.9  L-394.5,411.9z M-393.4,412.2L-393.4,412.2L-393.4,412.2L-393.4,412.2L-393.4,412.2L-393.4,412.2l-0.1-0.1l0,0l-0.1,0l-0.1,0  l-0.1-0.1l-0.1,0h-0.4l-0.1,0l-0.1,0l-0.1,0.1l0,0.1l0,0.1l0,0.1l0.1,0.2l0.1-0.1l0-0.1l0-0.1l0-0.1l0.1,0h0.3l0.1,0l0.1,0.1  l0.1,0.1l0.1,0l0-0.1l0,0l0.1-0.1l0,0l-0.2,0l0-0.1L-393.4,412.2z M-394.8,403.1L-394.8,403.1L-394.8,403.1l0.1-0.1l0,0l0,0l0,0l0,0  l0,0L-394.8,403.1L-394.8,403.1z M-395.6,403.5L-395.6,403.5l0.1,0.1l0-0.1l0.1-0.1l0,0l-0.1,0L-395.6,403.5l0.1-0.1l-0.1,0l-0.1,0  l0,0L-395.6,403.5L-395.6,403.5L-395.6,403.5z M-395.2,403.5L-395.2,403.5l-0.1,0l0,0.1l0,0L-395.2,403.5L-395.2,403.5L-395.2,403.5  z M-393.8,410.2L-393.8,410.2L-393.8,410.2L-393.8,410.2l0.1-0.1l0,0l0-0.1l-0.1-0.1l0,0l0,0l0,0l0,0l0-0.1l0,0l-0.1,0l0,0.1l0,0  L-393.8,410.2l-0.1-0.1L-393.8,410.2L-393.8,410.2L-393.8,410.2z M-394.6,403.3L-394.6,403.3L-394.6,403.3L-394.6,403.3  L-394.6,403.3l0.2,0l0,0l0,0L-394.6,403.3L-394.6,403.3L-394.6,403.3l0.1-0.1l0,0l-0.1,0L-394.6,403.3L-394.6,403.3L-394.6,403.3z   M-394.4,398.8l0.3-0.1l0-0.1l0-0.4l0-0.1l-0.1,0l-0.1,0l0,0l0,0l0,0l0,0.1l0,0.2L-394.4,398.8L-394.4,398.8z M-392,412.3  L-392,412.3L-392,412.3L-392,412.3L-392,412.3l0.1,0L-392,412.3L-392,412.3z M-388.2,409.9L-388.2,409.9L-388.2,409.9L-388.2,409.9  L-388.2,409.9z M-391.2,410.8L-391.2,410.8L-391.2,410.8L-391.2,410.8z M-389.3,413.3L-389.3,413.3L-389.3,413.3L-389.3,413.3l0.1,0  L-389.3,413.3L-389.3,413.3z M-392.6,412.1L-392.6,412.1L-392.6,412.1l0.1,0.1l0,0L-392.6,412.1L-392.6,412.1z M-388.1,410.5  L-388.1,410.5L-388.1,410.5L-388.1,410.5z M-387.8,413.6L-387.8,413.6L-387.8,413.6L-387.8,413.6z M-395.8,404.4l-0.1,0.1l-0.1,0  l-0.1,0l-0.2-0.1l-0.1-0.2l-0.1-0.1l-0.2-0.1l-0.4-0.2l-0.2,0l-0.2,0.1l-0.1,0.1l-0.1,0.2l0,0.2l0.2,0.5l0.3,0.2l0,0.1l0,0.1l0,0.1  l-0.1,0.1l-0.2,0.1l-0.2,0.2l-0.1,0.1l0,0l0.2,0l0.3,0l0.3,0l0.3,0.1l0.2,0.1l0.2,0.1l0.1,0l0.4,0l0.3,0.1l0.1,0l0-0.1l0.2,0l0.1,0  l0,0.1l0,0.1l-0.1,0.2l0,0.1l0.2-0.2l0.1-0.1l0.1,0.1l0.1,0l0.1-0.1l0-0.1v-0.1l0-0.1l-0.1,0l-0.1,0l0-0.2l-0.1,0l-0.1,0l-0.1,0  l0-0.1l0,0l0.1,0l0,0l0-0.3l0,0l-0.1,0l-0.1,0l-0.1-0.1l-0.1-0.1l0,0l0-0.1l0,0l0,0l-0.2-0.2l-0.3-0.2l-0.1,0.1l-0.1,0L-395.8,404.4  z M-392.3,412.2L-392.3,412.2L-392.3,412.2L-392.3,412.2l-0.1-0.1l0,0l0,0L-392.3,412.2L-392.3,412.2L-392.3,412.2L-392.3,412.2  l0,0.1l0.1-0.1L-392.3,412.2L-392.3,412.2z M-391.8,413.2L-391.8,413.2L-391.8,413.2L-391.8,413.2L-391.8,413.2L-391.8,413.2z   M-387.7,403.5L-387.7,403.5l-0.1,0l-0.2-0.1l0,0l-0.1,0l0,0l0.1,0l0.2,0.1L-387.7,403.5L-387.7,403.5L-387.7,403.5L-387.7,403.5  l0.1,0L-387.7,403.5L-387.7,403.5z M-391.9,408.1l0-0.1l-0.1-0.3l-0.2,0l-0.3,0.1l-0.2,0.1l-0.2,0.2l-0.1,0.1l0,0l0.1,0l0,0.1l0,0.1  l0,0.1l-0.1,0l0,0l-0.1,0l-0.1-0.1l-0.2-0.2l-0.1,0l-0.1-0.1l0-0.1l0-0.1l0.2,0l-0.1-0.1l-0.2-0.1l-0.2-0.1l-0.1-0.1l-0.4-0.5  l-0.2-0.1l-0.2-0.1l-0.2-0.1l-0.1-0.1l0-0.1l-0.1-0.1l-0.1-0.1l-0.2-0.1l0,0.1l0,0.1l0,0.1l0,0.1l0,0.1l0.1,0.1l0.1,0.1l0,0l0.1,0  l0,0l0,0l0,0l0,0l0.1,0l0.1,0l0,0.1l0,0.1l0,0l0.1,0.2l0,0l0,0.3l0,0.1l0,0l0,0l0,0l0,0.1l0.1,0.1l0.1,0l0.1-0.1l0-0.2h0l0.1,0.1  l0.1,0.1l0,0l0.1,0l0,0.1l-0.1,0.1l-0.1,0.1l-0.1,0l0,0.2l0,0.2l0,0.1l0.1,0l0.1,0l0.1,0l0.3,0l0.7,0.2l0.1,0.1l0.2,0.2l0.1,0.1  l0-0.1l0.1-0.2l0-0.1l0,0l0.2-0.4l0.1-0.3L-391.9,408.1z"/></svg>