<svg xmlns="http://www.w3.org/2000/svg" xmlns:xlink="http://www.w3.org/1999/xlink" version="1.1" x="0px" y="0px" viewBox="-461 335 100 100" fill="#999999" style="enable-background:new -461 335 100 100;" xml:space="preserve"><polygon points="-364.8,394.3 -365,394 -365.1,393.8 -365.2,393.4 -365.3,393 -365.3,392.8 -365.2,392.4 -365,392.1 -364.6,391.8   -364.3,391.6 -364.7,391.4 -365.7,390.8 -366.3,390 -366.5,389.8 -368.4,388.7 -368.7,388.6 -368.9,388.7 -369.2,389 -369.3,389.1   -370.8,389.6 -371.5,390 -371.7,390.2 -371.9,390.5 -372.1,390.6 -372.3,390.7 -372.7,390.7 -372.8,390.8 -373.2,390.9   -373.9,390.9 -374.2,391 -374.2,391 -374.6,391.2 -374.9,391.2 -375.3,391.2 -375.7,391 -375.7,391 -376.1,390.9 -376.8,390.9   -377.1,390.7 -377.4,390.4 -377.5,390.1 -377.7,387.8 -377.9,387.1 -378.4,386.5 -378.6,386.2 -378.6,385.8 -378.6,385.4   -378.7,385 -378.7,384.6 -378.4,383.9 -378.4,383.5 -378.5,383.3 -378.9,382.9 -379,382.7 -378.9,382.5 -378.7,381.9 -378.7,381.7   -378.9,380.8 -378.9,380.7 -379.3,380.5 -379.4,380.4 -379.4,380.2 -379.3,379.7 -379.4,379.5 -379.5,379.3 -379.8,379   -379.8,378.8 -379.8,378.4 -379.8,378.2 -380,377.2 -380,376.8 -379.9,376.4 -379.7,376.1 -379.6,375.7 -379.6,375.6 -379.7,375.4   -379.7,375.3 -379.7,375.2 -379.6,375 -379.6,374.9 -379.6,374.6 -379.7,374.5 -379.9,374.4 -380.1,374.3 -380.5,374.1   -380.8,373.8 -380.9,373.4 -381,373 -381.1,372 -381.2,371.7 -381.3,371.6 -381.7,371.2 -382.3,370.5 -382.4,370.7 -382.4,370.8   -382.6,370.7 -383.3,370.6 -383.5,370.5 -383.7,370.4 -383.8,370.3 -383.9,370.4 -384.1,370.4 -386,370.3 -386.2,370.3   -386.4,370.2 -386.7,369.9 -387.3,369.5 -387.7,369.2 -387.9,368.8 -388.2,368 -388.3,367.9 -388.5,367.9 -389.3,368 -389.5,368.1   -389.6,368.2 -389.7,368.3 -389.9,368.6 -389.9,368.6 -390,368.8 -390,368.9 -390.1,368.9 -390.1,368.9 -390.3,369.3 -390.4,369.4   -390.8,369.7 -390.9,369.7 -391,369.8 -391.1,369.8 -391,370.1 -391,370.1 -391.2,370.1 -391.6,369.7 -391.8,369.6 -391.8,369.6   -391.9,369.8 -392,369.9 -392.1,370 -392.1,370 -392.1,369.9 -392.2,369.9 -392.6,370 -392.6,370 -392.8,370 -392.8,370   -392.8,370.1 -392.9,370.2 -393.2,370.4 -393.3,370.5 -393.6,370.5 -393.6,370.3 -393.7,370 -393.9,369.8 -394,370.1 -394.1,370.1   -394.3,370 -394.4,370 -394.5,370 -394.5,370 -394.5,369.8 -394.7,369.9 -394.8,369.9 -395,369.8 -395.2,369.8 -395.6,369.8   -395.7,369.8 -395.8,369.9 -395.9,369.8 -395.9,369.8 -396.1,369.8 -396.2,369.7 -396.2,369.7 -396.2,369.7 -396.3,369.6   -396.6,369.5 -396.8,369.5 -396.9,369.5 -397,369.5 -397,369.6 -397.1,369.5 -397.2,369.5 -397.2,369.3 -397.3,369.3 -397.4,369.3   -397.7,369.5 -397.9,369.6 -398.4,369.4 -398.6,369.4 -398.6,369.5 -398.6,369.5 -398.7,369.6 -398.8,369.6 -399,369.5   -399.1,369.5 -399.1,369.6 -399.2,369.5 -399.6,369.3 -399.7,369.3 -399.8,369.3 -400.1,369.2 -400.2,369.2 -400.6,369.3   -400.9,369.1 -400.9,369.1 -401.1,369 -401.1,369.1 -401.2,369.1 -401.3,369.1 -401.5,369.2 -401.7,369.1 -401.9,369 -402,368.7   -402.2,368.3 -402.3,368.2 -402.4,368.2 -402.5,368.3 -402.6,368.3 -402.8,368.3 -403,368.3 -403.1,368.2 -403.3,368.3   -403.4,368.3 -403.5,368.3 -403.5,368.3 -403.5,368.3 -403.6,368.4 -403.6,368.5 -403.5,368.5 -403.7,368.6 -403.8,368.6   -403.9,368.5 -404,368.5 -404.2,368.7 -404.3,368.7 -404.3,368.7 -404.5,368.5 -404.6,368.5 -404.7,368.5 -404.9,368.5 -405,368.5   -405.4,368.4 -405.5,368.3 -405.6,368.1 -405.7,368 -405.9,367.9 -405.9,367.8 -405.9,367.6 -405.9,367.4 -405.6,366.7   -405.6,366.6 -405.5,366.5 -405.3,366 -405.2,365.9 -405.3,365.6 -405.4,365.4 -405.5,365.2 -405.5,365 -405.3,364.8 -405.3,364.5   -405.3,364.3 -405.4,364.1 -404.9,363.3 -404.9,363.2 -405,363.1 -405.2,363 -405.3,362.7 -405.4,362.5 -405.3,362.3 -405.1,362.1   -405,361.8 -405.2,361.7 -405.4,361.6 -405.5,361.4 -405.5,361.2 -405.4,360.9 -405.3,360.5 -404.5,359.4 -404.4,359.1   -404.5,358.9 -404.7,358.9 -404.8,358.8 -404.8,358.7 -404.9,358.6 -405,358.5 -405,358.4 -404.9,358.3 -404.6,358.1 -404.3,357.7   -404.2,357.2 -404.1,356.6 -404.2,356.1 -404.4,355.8 -404.4,355.6 -404.1,355.1 -404,354.9 -404,354.6 -404.2,354.4 -404.3,354.6   -404.3,354.6 -404.6,354.3 -404.8,354.1 -404.9,354.1 -404.9,354.1 -405,354.1 -405.1,354 -405.1,353.9 -405,353.7 -404.6,353.5   -404.4,353.4 -404.5,353.2 -404.6,353 -404.8,352.8 -405,352.8 -405.3,352.8 -405.4,352.7 -405.3,352.6 -405.1,352.5 -405,352.3   -404.9,352.3 -404.7,352.2 -404.5,352.2 -404.4,352.1 -404.5,352 -404.6,351.9 -404.7,351.7 -404.8,351.7 -404.9,351.6   -404.9,351.4 -405,351.4 -405.1,351.2 -405.3,351.2 -405.4,351.3 -405.5,351.7 -405.6,351.7 -405.7,351.6 -405.8,351.5   -405.8,351.4 -405.7,351.2 -405.7,351 -405.8,350.9 -405.9,350.7 -406,350.5 -405.9,350.2 -406,350.1 -406.1,349.8 -406.1,349.5   -406.1,349.2 -406.1,349 -405.9,348.7 -405.9,348.5 -406.1,348.4 -406.3,348.3 -406.5,348.2 -406.8,348 -406.9,347.8 -407,347.6   -407.1,347.3 -407.1,347 -407,346.7 -407.1,346.6 -407.2,346.5 -407.2,346.4 -407.4,346.4 -407.4,346.5 -407.5,346.6 -407.5,346.6   -407.8,346.4 -407.8,346.2 -407.8,346 -407.3,345.9 -407.4,345.8 -407.5,345.6 -407.5,345.5 -407.6,345.5 -407.7,345.5   -407.8,345.5 -407.8,345.3 -407.8,345 -407.6,344.4 -407.6,344.1 -407.6,343.6 -407.6,343.4 -407.6,343 -407.8,342.3 -407.8,342   -407.8,341.6 -407.9,341.4 -408,341.3 -408.4,341 -409.4,340.3 -410.5,339.7 -411.5,339.1 -412.5,338.4 -413.6,337.8 -414.6,337.1   -415.7,336.5 -416.7,335.9 -417.3,335.5 -417.6,335.3 -417.9,335.1 -418.1,335 -419,335 -421.1,335 -423.2,335.1 -425.3,335.1   -427.4,335.1 -428.3,335.1 -430,335.5 -433.7,336.3 -437.5,337.1 -441.2,337.9 -445,338.7 -445.2,338.8 -445.8,338.9 -446.3,338.9   -446.5,339 -447.5,339.1 -447.7,339.2 -447.8,339.3 -448,339.9 -448.3,340.8 -448.6,341.6 -448.9,342.5 -449.2,343.4 -449.4,343.7   -449.5,344 -449.7,344.3 -449.8,344.6 -450,344.9 -450.2,345.1 -450.4,345.4 -450.6,345.7 -451.1,346.4 -451.6,347.1 -452,347.9   -452.5,348.6 -453,349.3 -453.4,349.9 -453.5,350.2 -453.5,351.3 -453.5,352.3 -453.5,353.4 -453.5,355.2 -453.5,355.9   -453.9,357.1 -454.2,358.4 -454.6,359.7 -455,361.1 -455.4,362.3 -455.9,364.1 -456.3,365.4 -456.8,367 -457.1,368.1 -457.4,369.2   -457.7,369.8 -457.5,369.8 -457.5,369.9 -457.4,370 -457.3,370 -457.4,370 -457.3,370.2 -457.4,370.3 -457.4,370.4 -457.5,370.5   -457.4,370.6 -457.2,370.7 -457.1,370.8 -457,370.8 -456.7,370.8 -456.5,371 -456.3,371.4 -456.1,371.4 -455.7,371.6 -455.6,371.6   -455.5,371.8 -455.3,372 -454.5,372.5 -454.3,372.6 -453.8,372.7 -453.7,372.7 -453.6,372.8 -453.6,372.8 -453.6,372.9 -453.6,373   -453.6,373.1 -453.5,373.1 -453.4,373.1 -453.4,373.1 -453.1,373.4 -453,373.6 -453.1,373.8 -453.3,374.1 -453.2,374.2   -453.1,374.3 -452.8,374.5 -452.7,374.5 -452.6,374.5 -452.6,374.5 -452.5,374.6 -452.6,374.9 -452.6,375 -452.4,375.2   -452.5,375.5 -452.5,375.5 -452.3,375.6 -452.3,375.7 -452.2,375.8 -452.1,375.9 -451.8,376.3 -451.8,376.4 -451.8,376.5   -451.7,376.6 -451.6,376.6 -451.6,376.6 -451.5,376.7 -451.4,376.8 -451.4,376.8 -451.3,377 -451.2,377.1 -451,377.3 -450.8,377.6   -450.6,378 -450.5,378.2 -450.5,378.3 -450.5,378.6 -450.5,378.6 -450.5,378.7 -450.4,378.9 -450,379.4 -448.7,380.1 -448.6,380.2   -448.4,380.6 -448.2,380.7 -448,380.8 -447.9,380.9 -447.8,381.1 -447.7,381.2 -447.7,381.3 -447.6,381.6 -447.6,381.8   -447.5,381.9 -447.3,381.9 -447.2,382.1 -447,382.3 -446.9,382.3 -446.7,382.4 -446.2,382.4 -446.1,382.4 -445.5,383 -445.4,383.1   -445.3,383.1 -445.1,383.1 -445.1,383.2 -445.2,383.3 -445.2,383.5 -445,383.6 -444.9,383.9 -444.8,383.9 -444.6,383.9 -444.4,384   -444.2,384 -444,384.2 -443.9,384.3 -443.8,384.4 -443.6,384.4 -443.4,384.4 -442.6,384.7 -442.5,384.9 -442.5,385.1 -442.4,385.3   -442.1,385.3 -442,385.4 -441.8,385.6 -441.7,385.7 -441.6,385.7 -441.4,385.6 -441.3,385.7 -441.2,385.8 -441.1,385.9   -440.9,386.1 -440.7,386.1 -440.6,386.3 -440.5,386.5 -440.6,386.8 -440.7,387 -440.6,387.1 -440.4,387.4 -440.1,387.6   -439.9,387.8 -439.8,388 -439.7,388.2 -439.7,388.3 -439.5,388.5 -439.4,388.6 -439.1,388.9 -438.6,388.7 -438.2,388.9   -437.8,389.3 -437.5,389.4 -437.3,389.5 -436.3,389.5 -436.2,389.5 -436,389.7 -435.9,389.7 -435.4,389.7 -435.3,389.7   -435.1,389.7 -434.9,389.8 -434.8,389.9 -434.8,389.9 -434.6,390.3 -434.6,390.3 -434.2,390.4 -434,390.5 -433.6,390.7   -432.9,390.9 -432.5,390.8 -432.4,390.9 -432.3,390.9 -432.1,391.1 -432,391.2 -431.9,391.2 -431.5,391.2 -430.7,391.3   -429.8,391.3 -429.6,391.2 -429,391.1 -428.8,391 -428.6,391.1 -424.6,393.7 -424.2,394.2 -424,394.4 -423.9,394.5 -423.8,394.5   -423.5,394.6 -423.3,394.7 -423.1,394.7 -423,394.8 -422.9,394.9 -422.8,395 -422.5,395.2 -422.3,395.3 -422.2,395.3 -422.2,395.4   -422.2,395.5 -422.1,395.6 -421.9,395.7 -421.4,396.1 -421.3,396.2 -421.1,396.7 -420.9,396.9 -420.6,397 -420.4,397.2   -420.3,397.2 -420.1,397.3 -420.1,397.3 -420,397.4 -419.9,397.5 -419.4,397.7 -419.1,397.9 -418.8,398 -418.4,398.3 -418.2,398.3   -418,398.3 -417.9,398.3 -417.8,398.4 -417.6,398.6 -417.5,398.7 -417.1,398.8 -415,400.4 -414.8,400.5 -414.2,400.5 -414.1,400.5   -414,400.6 -413.9,400.6 -413.8,400.7 -413.8,400.8 -413.7,400.8 -411.3,401.3 -411,401.4 -410.9,401.6 -410.6,401.9 -409.9,402.7   -409.8,402.9 -409.8,403 -409.8,403 -409.6,403.1 -409.5,403.1 -409.4,403 -409.2,402.9 -408.9,402.6 -408.7,402.4 -408.5,402.4   -407.5,403.1 -407.4,403.3 -407.3,403.3 -406.5,403.7 -406.4,403.7 -406.1,403.6 -406,403.7 -406,403.8 -405.9,403.9 -405.8,404   -405.7,404.1 -404.8,404.1 -404.6,404.2 -404.4,404.3 -403.9,404.9 -403.8,405 -403.4,405.2 -403.3,405.3 -402.9,406.1   -402.7,406.4 -402.4,406.7 -402,407.5 -402,407.7 -401.3,408.2 -401.2,408.4 -401.1,408.5 -401.1,408.7 -401.3,409.8 -401.3,410   -401.4,410.2 -401.6,410.2 -401.7,410.3 -401.8,410.6 -401.8,410.6 -402,410.7 -402.3,410.6 -402.4,410.7 -402.4,410.9 -402.5,411   -402.6,411.1 -402.7,411.1 -402.8,411.1 -402.9,411.1 -403.2,411.2 -403.3,411.3 -403.5,411.7 -403.5,411.8 -403.4,411.9   -403.3,411.9 -403.1,412 -403.3,412.1 -403.4,412.3 -403.7,412.5 -403.9,412.5 -404,412.6 -404,412.9 -403.8,413.3 -403.9,413.5   -404.2,413.6 -404.4,413.8 -404.6,413.8 -404.7,413.9 -404.6,414 -404.4,414.1 -404.4,414.2 -404.4,414.4 -404.5,414.5   -404.9,414.8 -405,415 -404.5,415.1 -404.5,415.3 -404.6,415.5 -405.9,416.5 -406.3,416.7 -407,416.9 -407.1,417 -407.2,417.5   -407.3,417.7 -407.4,417.8 -407.4,417.8 -407.5,417.7 -407.6,417.6 -407.7,417.6 -407.7,417.8 -407.5,417.9 -407.4,418   -407.2,418.1 -407.2,418.3 -407.4,418.5 -407.6,418.6 -407.8,418.6 -407.9,418.7 -407.9,418.9 -407.9,419.3 -407.9,419.5   -407.9,419.7 -408.3,420.3 -408.4,420.5 -408.4,420.7 -408.1,420.9 -408.1,421.1 -408.3,421.2 -408.3,421.3 -408.3,421.5   -408.4,421.7 -408.4,421.9 -408.4,422.1 -408.3,422.1 -408.1,422.3 -408,422.4 -407.9,422.6 -407.9,422.7 -407.9,422.7   -408.1,422.9 -408.2,422.9 -408.2,423.1 -408.1,423.2 -408,423.3 -408,423.4 -408.1,423.5 -408.2,423.5 -408.5,423.4 -408.6,423.4   -408.6,423.4 -408.7,423.5 -408.8,423.7 -408.8,424.7 -408.8,424.8 -408.9,424.8 -409,424.8 -409.2,424.8 -409.2,425 -409.1,425.1   -409.1,425.2 -409.2,425.4 -409.4,425.3 -409.6,425.3 -409.8,425.3 -409.9,425.6 -409.8,425.8 -409.6,425.9 -409.5,426.1   -409.7,426.3 -410.2,426.3 -410.3,426.4 -410.4,426.6 -410.6,426.7 -411.1,426.8 -411.3,426.9 -411.4,427.1 -411.4,427.3   -411.2,427.4 -411.3,427.6 -411.5,427.8 -411.6,428 -411.6,428.1 -411.7,428.2 -411.7,428.4 -411.7,428.5 -411.8,428.4   -411.9,428.4 -411.9,428.3 -411.9,428.3 -411.9,428.2 -412,428.2 -412.1,428.2 -412.1,428.3 -412.2,428.4 -412.2,428.5   -412.3,428.6 -412.3,428.8 -412.3,429 -412.3,429.1 -412.9,429.2 -413.1,429.4 -413.3,429.6 -413.3,430 -413.3,430.2 -413.1,430.3   -412.8,430.5 -412.7,430.7 -412.7,431 -412.7,431.6 -412.7,431.6 -411.7,431.2 -408.7,430.9 -407.5,431.1 -407.3,431 -406.6,430.9   -406.3,430.9 -405.4,431.1 -405.1,431.3 -404.4,431.4 -403.9,431.6 -402.8,431.8 -402.7,431.8 -400.9,432.8 -400.6,432.8   -400.3,432.9 -399.2,432.7 -398.9,432.7 -398.6,432.8 -398.5,432.9 -398.3,433.1 -398.2,433.2 -397.6,433.3 -397.4,433.4   -397.2,433.7 -397,433.7 -396.9,433.8 -396.7,433.8 -396.6,433.8 -396.1,433.8 -395.8,433.7 -394.7,433.1 -394.3,432.9   -393.9,432.9 -393.5,433.1 -392.8,433.8 -392.4,434 -392,433.9 -391.4,433.5 -390.6,433.3 -389.9,433.4 -389.4,433.9 -389.2,434.3   -388.9,434.6 -388.6,434.9 -388.3,435 -387.9,434.9 -387.7,434.6 -387.5,434.2 -387.3,433.9 -387.1,433.7 -387,433.4 -386.9,433.1   -387,432.8 -386.9,432.5 -386.7,432.4 -386.4,432.3 -386.1,432.2 -385.7,431.7 -385.5,431.6 -385.2,431.4 -384.9,431.4   -384.6,431.5 -383.9,431.8 -383.6,431.8 -383.4,431.8 -383.1,431.8 -382.9,431.8 -382.6,431.9 -382.5,432.1 -382.3,432.6   -382.2,432.7 -382.1,432.8 -381.8,432.8 -381.1,433.2 -380.7,432.9 -380.3,432.4 -380,432.2 -379.7,432.1 -379.5,432 -379.3,431.8   -379.2,431.5 -379.2,431.3 -379.2,431.2 -379.2,431.1 -379.1,430.9 -379,430.8 -379.1,430.6 -379.1,430.5 -379.4,430 -379.4,429.8   -379.1,429.7 -378.9,429.6 -378.8,429.4 -378.8,429.1 -378.6,428.9 -378.4,428.9 -378.1,428.9 -377.8,428.9 -377.7,428.7   -377.7,428.1 -377.6,427.9 -377.5,427.7 -377.3,427.5 -377.1,427.3 -376.9,427.3 -376.4,427.2 -375.8,426.9 -375.6,426.9   -375.3,427 -375.1,427.1 -375,427.2 -374.5,427.2 -374.3,427.1 -374.1,427 -374,426.7 -374.2,426.2 -374.1,426 -373.4,425.3   -373.2,425.2 -372.6,425.2 -372.4,425.1 -372.3,424.9 -372.2,424.7 -372.1,424.5 -372,423.9 -371.8,423.7 -371.6,423.5   -371.4,423.4 -370.9,423.4 -370.8,423.5 -370.7,423.5 -370.7,423.6 -370.6,423.5 -370.4,423.3 -370.3,423 -370.3,422.7   -370.3,422.4 -370.3,422.2 -370.4,422 -370.4,421.9 -370.3,421.6 -370.1,421.5 -369.8,421.2 -369.5,420.8 -369.4,420.6   -369.3,420.4 -369.2,419.7 -369.2,419.6 -369.2,419.5 -369,419.2 -369,418.6 -369,418.4 -369,418.3 -368.9,418.1 -368.8,417.9   -368.7,417.8 -368.7,417.6 -368.9,417.4 -369,417.2 -368.8,416.4 -368.7,416.1 -368.9,415.7 -368.9,415.4 -369,415.2 -369,415.1   -368.9,415 -368.8,414.9 -368.5,414.9 -368.4,414.9 -368.3,414.7 -368.4,414.5 -368.4,413.9 -368.4,413.7 -368.3,413.5   -368.2,413.3 -368.1,413 -368.2,412.9 -368.5,412.6 -368.5,412.4 -368.6,412.2 -368.8,411.5 -368.8,411.2 -368.7,411.1   -368.3,411.1 -368.1,411 -368.1,410.8 -368.3,410.4 -368.3,410.1 -368.3,410.1 -368.2,409.8 -368.2,409.5 -368.3,409.3   -368.4,409.1 -368.4,408.8 -368.4,408.6 -368.4,408.4 -368.3,408 -368,407.5 -367.7,407.2 -367.5,407 -367.2,406.5 -367,405.7   -366.8,405.5 -366.4,405.2 -366.4,404.9 -366.4,404.7 -366.7,404.3 -366.8,404 -366.8,403.8 -366.7,403.6 -366.6,403.2 -366.1,401   -366,400.8 -365.7,400.3 -365.2,398.6 -365.2,398.2 -365.3,397.4 -365.3,397 -365.2,396.6 -364.8,396 -364.6,395.7 -364.5,395.3   -364.5,395 -364.7,394.6 "/></svg>