<svg xmlns="http://www.w3.org/2000/svg" xmlns:xlink="http://www.w3.org/1999/xlink" version="1.1" x="0px" y="0px" viewBox="-461 335 100 100" fill="#999999" style="enable-background:new -461 335 100 100;" xml:space="preserve"><polygon points="-376.9,402.2 -377.5,401.2 -378.1,400.2 -378.6,399.2 -379.2,398.2 -379.8,397.2 -380.3,396.2 -380.9,395.2   -381.5,394.2 -381.6,394 -381.7,394 -382.4,394 -382.6,394 -382.8,393.9 -382.9,393.8 -383,393.8 -383.2,393.8 -383.3,393.8   -383.4,393.8 -383.7,393.8 -385,394.4 -385.2,394.5 -385.5,394.6 -385.7,394.6 -386,394.5 -386.3,394.4 -386.4,394.3 -386.6,394   -386.8,393.9 -386.9,393.9 -387.4,394.3 -387.4,393.8 -387.4,393.1 -387.3,392.5 -387.3,391.8 -387.3,391.1 -387.3,390.4   -387.3,389.7 -387.3,389 -387.3,388.3 -387.3,388 -387.3,387.7 -387.3,387.7 -387.2,387.6 -387.2,387.6 -387.1,387.6 -387.1,387.6   -387,387.6 -387,387.6 -387,387.6 -387,387.5 -386.9,387.5 -386.9,387.4 -386.8,387.3 -386.8,387.2 -386.9,387.1 -386.9,387   -387.1,386.9 -387.1,386.8 -387.2,386.7 -387.2,386.5 -387.3,386.4 -387.2,386.4 -387.1,386.4 -387.1,386.4 -387,386.4   -386.9,386.4 -387,386.3 -387,386.2 -387,386.1 -386.9,386.1 -386.9,386.1 -386.9,386.1 -386.9,386.1 -386.8,386 -386.8,385.9   -386.8,385.9 -386.7,385.8 -386.7,385.7 -386.7,385.7 -387,385.7 -387.1,385.7 -387.2,385.8 -387.3,385.9 -387.5,386.1   -387.6,386.2 -387.9,386.4 -388,386.5 -388.2,386.7 -388.4,386.8 -388.6,386.9 -388.7,387 -388.9,387.2 -388.9,387.3 -389.1,387.4   -389.1,387.4 -389.2,387.5 -389.2,387.6 -389.3,387.7 -389.4,387.8 -389.7,387.9 -390.1,388 -390.2,388.1 -390.2,388.2   -390.3,388.3 -390.4,388.4 -390.6,388.5 -390.8,388.7 -390.9,388.7 -391,388.7 -391,388.7 -391.1,388.7 -391.1,388.7 -391.2,388.7   -391.2,388.7 -391.3,388.7 -391.3,388.8 -391.4,388.8 -391.6,388.8 -392.6,388.8 -393.5,388.8 -394.5,388.8 -395.7,388.8   -395.7,388.7 -395.7,388.6 -395.7,388.5 -395.7,388.4 -395.7,388.3 -395.6,388.2 -395.6,388.2 -395.6,388.1 -395.6,388   -395.6,387.9 -395.7,387.7 -396.1,387.5 -396.2,387.3 -396.1,387.1 -396.1,387 -396.1,386.9 -396.3,386.7 -396.3,386.6   -396.4,386.5 -396.3,386.3 -396.4,386.3 -396.4,386.2 -396.4,386.2 -396.5,386.2 -396.6,386.2 -396.7,386.2 -396.8,386 -396.9,386   -397,385.9 -397.3,386 -397.6,385.9 -397.7,385.9 -397.9,385.8 -398.1,385.7 -398.2,385.7 -398.3,385.7 -398.3,385.7 -398.3,385.8   -398.4,385.7 -398.4,385.7 -398.4,385.7 -399.1,385.6 -401.3,385.5 -401.1,385.4 -400.9,385.1 -400.7,384.9 -400.6,384.7   -400.6,384.7 -400.5,384.6 -400.4,384.6 -400.4,384.6 -400.3,384.5 -400.2,384.5 -400.2,384.3 -400,384.1 -399.9,384.1 -399.9,384   -399.9,383.8 -399.9,383.3 -400,383.2 -400.1,383 -400.2,382.9 -400.4,382.8 -400.5,382.7 -400.9,382.1 -401,381.9 -401,381.8   -401.1,381.7 -401.2,381.7 -401.5,381.6 -401.7,381.5 -401.8,381.4 -402,381.1 -402,381.1 -402,381 -402,380.7 -402,380.6   -402,380.5 -402.1,380.4 -402.1,380.4 -402.3,380.4 -402.3,380.4 -402.4,380.3 -402.5,380.2 -402.5,380.2 -402.9,379.9 -403,379.8   -403.1,379.7 -403.1,379.5 -403.1,379.4 -403.3,379.2 -403.4,379 -403.4,378.9 -403.3,378.7 -403.3,378.6 -403.4,378.5   -403.6,378.3 -403.6,378.2 -403.7,378 -403.9,377.9 -404.1,377.8 -404.3,377.7 -404.3,377.6 -404.4,377.3 -404.4,377.2   -404.3,377.2 -404.1,377.3 -403.9,377.2 -403.9,377 -403.9,376.8 -404.1,376.6 -404.3,376.6 -404.5,376.5 -404.6,376.4   -405.3,375.7 -405.5,375.5 -405.6,375.4 -405.3,375.3 -405.3,375.2 -405.3,375.1 -405.2,375 -405.2,374.9 -405.2,374.8   -405.4,374.5 -405.4,374.4 -405.3,374.4 -405.1,374.5 -405,374.5 -404.8,374.5 -404.6,374.3 -404.6,374.3 -404.4,374.3   -404.2,374.3 -404.1,374.3 -404,374.2 -403.9,374.1 -404,374 -404,373.9 -404.1,373.7 -404.4,373.2 -404.5,373 -404.4,372.9   -404.4,372.8 -404.2,372.3 -404.2,372 -404.2,371.9 -404.1,371.8 -403.9,371.7 -403.9,371.6 -403.8,371.5 -403.7,371.4   -403.6,371.3 -403.3,371.1 -402.9,370.9 -402.5,370.5 -402.3,370.4 -402.1,370.2 -402,370.2 -401.6,370.2 -401.4,370.1 -401.2,370   -401,369.9 -400.9,369.7 -400.8,369.4 -400.8,369.3 -400.8,369.2 -400.8,369.1 -400.9,368.8 -401,368.7 -401,368.3 -401.1,368.2   -401.3,367.9 -401.4,367.8 -401.4,367.5 -401.3,367.3 -401.2,367.1 -400.9,366.4 -400.7,366.3 -400.1,365.5 -400,365.4 -400,365.2   -399.9,364.7 -399.9,364.6 -399.9,364.4 -400,364.2 -399.9,364 -399.7,363.7 -399.7,363.6 -399.7,363.4 -399.6,363.3 -399.6,363.2   -399.5,363.2 -399.5,363.1 -399.6,362.8 -399.6,362.7 -399.6,362.6 -399.7,362.5 -399.6,362.4 -399.5,362.4 -399.4,362.4   -399.4,362.4 -399.3,362.3 -399.3,362.3 -399.3,362.2 -399.3,362.2 -399.3,362.2 -399.2,362.2 -399.2,362.2 -399,362.2   -398.9,362.1 -398.8,362 -398.7,362 -398.6,362 -398.5,362 -398.2,362 -398.2,362 -398.1,362 -398.1,361.9 -398.1,361.9   -398.1,361.8 -398,361.8 -397.9,361.7 -397.7,361.5 -397.6,361.5 -397.5,361.4 -397.4,361.4 -397.4,361.4 -397.3,361.4   -397.3,361.3 -397.3,361.3 -397.3,361.3 -397.3,361.2 -397.3,361.2 -397.3,361.2 -397.2,361.2 -397.2,361.2 -397.1,361.2   -397,361.1 -396.9,361 -396.9,360.9 -396.8,360.7 -396.8,360.6 -396.6,360.5 -396.5,360.5 -396.5,360.5 -396.5,360.4 -396.4,360.4   -396.2,360.4 -396.1,360.4 -396,360.4 -396,360.3 -395.7,360.1 -395.4,360 -395.3,359.9 -395.2,359.8 -395.1,359.6 -395.1,359.6   -395,359.6 -395,359.6 -394.9,359.6 -394.9,359.6 -394.8,359.6 -394.7,359.5 -394.6,359.5 -394.3,359.2 -394.2,359.1 -394.1,359.1   -393.7,359 -393.6,359 -393.6,359 -393.6,359 -393.6,358.9 -393.5,358.9 -393.5,358.9 -393.4,359 -393.3,359 -393.2,359   -393.1,358.9 -393.1,358.9 -393,359 -392.9,359 -392.9,359 -392.8,359 -392.8,359 -392.7,358.9 -392.6,358.9 -392.6,359   -392.4,358.9 -392.3,358.9 -392.2,358.9 -392.1,358.9 -392.1,358.9 -392.1,358.8 -392,358.7 -392,358.7 -391.9,358.7 -391.7,358.7   -391.5,358.6 -391.4,358.7 -391.3,358.7 -391.3,358.8 -391.3,358.8 -391.2,358.8 -391.2,358.7 -391.1,358.7 -391.1,358.7   -391,358.7 -391,358.7 -391,358.7 -390.9,358.6 -390.9,358.6 -391,358.5 -390.9,358.4 -390.8,358.4 -390.7,358.3 -390.6,358.4   -390.4,358.5 -390.4,358.4 -390.3,358.3 -390.2,358.3 -390.2,358.3 -390.1,358.4 -390.1,358.5 -390,358.5 -389.9,358.4   -389.9,358.3 -389.7,358.3 -389.5,358.4 -389.3,358.3 -389.3,358.2 -389.2,358.3 -389.1,358.4 -389,358.3 -389,358.2 -388.9,358.1   -388.7,357.9 -388.7,357.8 -388.7,357.7 -388.6,357.7 -388.5,357.6 -388.4,357.6 -388.4,357.5 -388.5,357.4 -388.5,357.3   -388.4,357.3 -388.1,357.2 -388.1,357.2 -387.7,357.2 -387.6,357.2 -387.6,357.2 -387.5,357 -387.5,357 -387.4,356.9 -387.3,357   -387.3,357 -387.3,357.1 -387.3,357.2 -387.1,357.4 -387,357.3 -387,357.2 -386.9,357.1 -386.9,357.1 -386.8,357.1 -386.8,357.2   -386.7,357.3 -386.7,357.3 -386.6,357.3 -386.4,357.1 -386.3,357.1 -386.2,357 -386.1,357 -386,357.1 -385.9,357.2 -385.8,357.2   -385.7,357.1 -385.7,357.1 -385.6,357.2 -385.6,357.2 -385.6,357.3 -385.6,357.6 -385.6,357.6 -385.5,357.7 -385.3,357.9   -385.2,357.9 -385.2,357.9 -385.1,358 -385.1,358 -385.1,358.1 -385,358.2 -384.9,358.1 -384.8,357.9 -384.7,357.8 -384.6,357.7   -384.5,357.7 -384.4,357.7 -384.4,357.8 -384.3,358 -384.3,358 -384.2,358.1 -384.2,358.1 -384.1,358.2 -384,358.1 -383.8,358   -383.7,357.9 -383.7,357.7 -383.7,357.6 -383.9,357.3 -383.9,357.2 -384.1,357 -384.2,356.9 -384.8,356.6 -384.9,356.5 -385,356.3   -385,356.1 -385.1,355.9 -385.2,355.7 -385.4,355.5 -385.6,355.4 -385.8,355.3 -385.9,355.3 -386,355.4 -386.3,355.6 -386.4,355.7   -386.5,355.7 -386.8,355.6 -386.9,355.6 -387.6,355.2 -387.9,355.1 -387.7,354.9 -387.3,354.2 -386.8,353.5 -386.4,352.9   -386,352.2 -385.6,351.6 -385.1,350.9 -384.7,350.3 -384.3,349.6 -384.2,349.4 -384.2,349.4 -384.2,349.4 -384.3,349.4   -384.3,349.3 -384.3,349.2 -384.4,349 -384.5,348.9 -384.6,349 -384.6,349.1 -384.6,349.1 -384.7,349.2 -384.7,349.2 -384.8,349.1   -384.8,349.1 -384.8,349 -384.8,349 -384.9,348.9 -385,348.9 -385.1,349 -385.2,348.9 -385.2,348.8 -385.3,348.6 -385.4,348.5   -385.5,348.4 -385.6,348.5 -385.7,348.5 -385.8,348.6 -385.9,348.6 -385.9,348.5 -385.9,348.5 -385.9,348.4 -385.9,348.4   -385.8,348.4 -385.8,348.4 -385.8,348.2 -385.8,348.2 -385.9,348.2 -386.1,348.2 -386.1,348.2 -386.2,348.2 -386.3,348.3   -386.4,348.2 -386.4,348.2 -386.4,348.1 -386.4,348.1 -386.5,348 -386.6,348 -386.7,347.9 -386.8,347.9 -386.9,347.9 -386.9,347.8   -387,347.7 -387.1,347.8 -387.1,347.9 -387.1,347.9 -387.1,348 -387.2,348 -387.4,348 -387.4,348 -387.4,347.9 -387.4,347.8   -387.4,347.8 -387.5,347.7 -387.6,347.6 -387.7,347.6 -387.7,347.4 -387.7,347.4 -387.7,347.3 -387.8,347.3 -387.9,347.3   -388.1,347.2 -388.3,347.1 -388.6,346.8 -388.8,346.7 -388.9,346.8 -389,346.7 -389.3,346.6 -389.4,346.6 -389.5,346.7   -389.5,346.8 -389.4,347 -389.5,347 -389.5,347 -389.6,347 -389.7,346.9 -389.8,346.9 -389.9,346.9 -390.1,347 -390.2,347.2   -390.3,347.3 -390.4,347.4 -390.5,347.4 -390.5,347.4 -390.6,347.3 -390.7,347.3 -390.7,347.4 -390.9,347.4 -391,347.4 -391,347.4   -391.4,347.6 -391.6,347.6 -391.6,347.5 -391.6,347.4 -391.5,347.4 -391.5,347.3 -391.5,347.3 -391.7,347.1 -391.8,346.9   -391.8,346.9 -391.9,347 -391.9,347.2 -392,347.3 -392.1,347.2 -392.1,347.1 -392.1,346.9 -392.1,346.8 -392.2,346.8 -392.5,346.7   -392.6,346.6 -392.7,346.6 -392.8,346.5 -393,346.5 -393.1,346.6 -393.2,346.6 -393.3,346.5 -393.3,346.3 -393.3,346.3   -393.4,346.3 -393.8,346.5 -393.8,346.5 -393.8,346.6 -394,346.9 -394.3,347.1 -394.3,347.1 -394.3,347.2 -394.4,347.3   -394.5,347.3 -394.9,347.3 -395,347.3 -395.2,347.3 -395.3,347.5 -395.6,347.8 -395.6,347.8 -396,347.7 -396,347.7 -396.2,347.7   -396.2,347.8 -396.2,347.9 -396.2,347.9 -396.3,347.9 -396.4,347.9 -396.6,348 -396.7,348 -396.8,348 -396.9,347.9 -397,347.9   -397,347.8 -397.1,347.7 -397.6,347.7 -397.7,347.6 -398,347.4 -398.1,347.4 -398.2,347.4 -398.2,347.5 -398.4,347.7 -398.5,347.8   -398.5,347.8 -398.6,347.8 -398.6,347.7 -398.6,347.6 -398.6,347.6 -398.7,347.5 -398.7,347.6 -398.8,347.6 -398.8,347.7   -398.8,347.7 -398.9,347.6 -399,347.6 -399.2,347.7 -399.3,347.7 -399.4,347.8 -399.5,347.8 -399.7,347.9 -399.7,347.9   -399.8,347.8 -399.8,347.7 -399.9,347.5 -400,347.4 -400,347.4 -400.4,347.2 -400.4,347.2 -400.5,347.4 -400.5,347.4 -400.6,347.3   -400.6,347.3 -400.9,347.2 -401,347.1 -401,347.1 -401,346.9 -401,346.9 -401.1,346.9 -401.1,346.8 -401.1,346.8 -401.2,346.7   -401.2,346.7 -401.2,346.6 -401.1,346.6 -401.1,346.5 -400.9,346.3 -400.9,346.2 -400.7,346 -400.8,345.9 -400.8,345.8   -400.8,345.7 -400.9,345.6 -401,345.4 -401,345.4 -401,345.3 -401,345.2 -401,345.1 -401,345 -401,344.9 -401.1,344.8 -401.1,344.7   -401.1,344.5 -401.1,344.4 -401.2,344.4 -401.2,344.4 -401.3,344.4 -401.4,344.2 -401.5,344.2 -401.5,344.3 -401.5,344.4   -401.7,344.3 -401.8,344.3 -401.9,344.4 -401.9,344.5 -402,344.5 -402.1,344.3 -402.2,344.3 -402.3,344.3 -402.3,344.3   -402.4,344.3 -402.4,344.3 -402.5,344.3 -402.5,344.3 -402.5,344.2 -402.5,344.2 -402.9,344 -403,343.8 -402.9,343.6 -402.9,343.4   -402.8,343.4 -402.7,343.3 -402.7,343.2 -402.8,343 -402.8,342.9 -402.8,342.8 -402.8,342.8 -402.8,342.7 -402.9,342.6 -403,342.5   -403.2,342.4 -403.2,342.4 -403.2,342.3 -403.1,342.2 -403.2,342.2 -403.2,342.1 -403.3,342.1 -403.3,342 -403.3,341.9   -403.3,341.9 -403.3,341.8 -403.3,341.8 -403.4,341.9 -403.4,341.8 -403.4,341.8 -403.5,341.8 -403.5,341.7 -403.5,341.6   -403.5,341.6 -403.7,341.5 -403.8,341.5 -403.8,341.4 -403.9,341.4 -404,341.4 -404.1,341.3 -404.2,341.2 -404.3,341.2   -404.3,341.4 -404.4,341.4 -404.5,341.4 -404.6,341.4 -404.7,341.3 -404.8,341.3 -404.9,341.2 -404.9,341.1 -405,340.9   -405.1,340.8 -405.2,340.8 -405.3,340.8 -405.4,340.8 -405.4,340.7 -405.4,340.6 -405.4,340.6 -405.4,340.6 -405.4,340.6   -405.4,340.6 -405.5,340.6 -405.5,340.7 -405.6,340.7 -405.6,340.7 -405.7,340.7 -405.7,340.6 -405.7,340.6 -405.8,340.2   -405.9,340.2 -406,340.3 -406.1,340.3 -406.5,340.2 -406.8,340.1 -406.9,340.1 -407.1,339.9 -407.1,339.7 -407.2,339.6   -407.3,339.5 -407.4,339.4 -407.3,339.4 -407.2,339.4 -407.2,339.4 -407.1,339.4 -407.1,339.3 -407.1,339.3 -407.1,339.2   -407.2,339.1 -407.1,339.1 -407.2,339 -407.3,339 -407.3,339 -407.4,339 -407.5,338.8 -407.6,338.7 -407.6,338.6 -407.5,338.6   -407.5,338.5 -407.5,338.5 -407.7,337.9 -407.7,337.9 -407.7,337.8 -407.8,337.8 -407.8,337.7 -407.9,337.7 -407.9,337.7   -407.9,337.6 -408,337.6 -408.1,337.5 -408.4,337.3 -408.5,337.2 -408.8,337 -408.9,336.7 -409,336.7 -409,336.7 -409.1,336.7   -409.1,336.7 -409.1,336.7 -409.2,336.7 -409.2,336.7 -409.3,336.7 -409.3,336.7 -409.3,336.6 -409.3,336.6 -409.4,336.6   -409.5,336.6 -409.6,336.6 -409.7,336.6 -409.8,336.5 -409.7,336.4 -409.6,336.3 -409.8,336 -409.8,335.9 -410,335.8 -410,335.8   -410.1,336 -410.2,336 -410.3,336 -410.4,336 -410.5,336 -410.7,335.9 -410.7,335.9 -410.9,335.6 -411,335.6 -411,335.6   -411.1,335.6 -411.2,335.6 -411.2,335.5 -411.4,335.2 -411.5,335.1 -411.7,335.1 -411.9,335 -412,335 -412.1,335 -412.1,335.1   -412.2,335.2 -412.2,335.2 -412.3,335.3 -412.3,335.4 -412.4,335.4 -412.5,335.5 -412.6,335.6 -412.7,335.6 -412.8,335.6   -412.8,335.6 -413,335.6 -413.1,335.6 -413.2,335.7 -413.4,335.7 -413.7,335.5 -413.8,335.5 -413.9,335.5 -414,335.5 -414.1,335.5   -414.2,335.4 -414.3,335.4 -414.3,335.4 -414.4,335.5 -414.3,335.7 -414.3,335.8 -414.2,335.8 -414.2,335.8 -414.1,335.8   -414,335.8 -414,335.9 -413.8,336 -413.8,336 -413.7,336 -413.6,336.1 -413.5,336.2 -413.3,336.8 -413.2,337 -413.1,337.2   -413,337.3 -412.9,337.3 -412.9,337.4 -412.8,337.4 -412.8,337.4 -412.8,337.4 -412.5,337.6 -412.5,337.6 -412.5,337.7   -412.5,337.7 -412.4,337.7 -412.4,337.7 -412.4,337.7 -412.3,337.8 -412.3,337.9 -412.3,338.1 -412.3,338.1 -412.3,338.2   -412.3,338.2 -412.3,338.2 -412.3,338.3 -412.4,338.3 -412.5,338.4 -412.5,338.4 -412.5,338.5 -412.5,338.6 -412.5,338.6   -412.5,338.7 -412.5,338.8 -412.5,338.9 -412.3,339.7 -412.3,339.7 -412.3,339.8 -412.3,339.9 -412.2,339.9 -412.2,340 -412.1,340   -412.1,340 -412.2,340 -412.4,340 -412.7,340.1 -412.8,340.1 -412.8,340 -412.9,340 -412.9,339.9 -413.1,339.8 -413.1,339.8   -413.2,340.1 -413.4,340.7 -413.5,341.3 -413.7,342 -413.8,342.6 -413.9,342.9 -414,343.1 -414.1,343.2 -414.4,343.5 -414.6,343.8   -414.9,344.1 -415.2,344.4 -415.4,344.7 -415.7,345 -416,345.3 -416.3,345.6 -416.5,346 -416.8,346.3 -417.1,346.5 -417.4,346.8   -417.8,347 -418.1,347.2 -418.4,347.5 -418.7,347.7 -419,348 -419.4,348.2 -419.7,348.5 -420,348.7 -420.5,348.8 -421.2,349.1   -421.8,349.3 -422.5,349.5 -423.2,349.8 -423.9,350 -424.6,350.2 -425.2,350.5 -425.9,350.7 -426.3,350.8 -426.4,350.9   -426.8,351.2 -427.3,352 -427.6,352.2 -427.7,352.3 -427.8,352.6 -427.9,352.7 -428.1,352.8 -428.2,352.9 -428.2,353 -428.1,353.1   -428,353.2 -427.9,353.3 -427.9,353.4 -428,353.5 -428.1,353.5 -428.2,353.6 -428.2,353.6 -428.3,353.7 -428.4,353.6 -428.4,353.2   -428.5,353.1 -428.6,353.1 -428.8,353 -428.9,353 -429,353 -429,353.1 -429,353.2 -429,353.3 -429,353.3 -429.1,353.6 -429.1,353.8   -429.2,354 -429.3,354.1 -429.3,354.2 -429.3,354.4 -429.3,354.5 -429.3,354.6 -429.3,354.6 -429.4,354.6 -429.4,354.6   -429.4,354.7 -429.4,354.7 -429.3,355.1 -429.4,355.2 -429.5,355.3 -429.5,355.4 -429.6,355.4 -429.6,355.4 -429.7,355.5   -429.7,355.6 -429.8,356 -429.8,356 -429.8,356.1 -429.9,356.1 -430,356.1 -430,356.1 -430.1,356.2 -430.1,356.2 -430.2,356.3   -430.2,356.6 -430.2,356.9 -430.5,357.5 -430.6,357.8 -430.6,357.9 -430.7,358 -430.8,358.1 -430.8,358.3 -430.7,358.5   -430.7,358.6 -430.5,358.7 -430.6,358.7 -430.6,358.8 -430.7,359 -430.7,359.1 -430.7,359.2 -430.7,359.3 -430.8,359.4 -431,359.5   -431.5,359.7 -431.7,359.8 -431.9,360.1 -432,360.2 -432.1,360.3 -432.1,360.5 -432,360.7 -432,360.9 -432,361 -432.1,361   -432.3,361 -432.4,361 -432.4,361.1 -432.5,361.4 -432.5,361.5 -432.7,361.6 -432.8,361.8 -432.9,361.7 -433,361.6 -433.1,361.6   -433.1,361.6 -433.2,361.6 -433.3,361.6 -433.4,361.6 -433.5,361.5 -433.6,361.5 -434,361.5 -434.1,361.5 -434.2,361.4   -434.3,361.3 -434.3,361.2 -434.4,361.2 -434.5,361.1 -434.5,361.1 -434.6,361 -434.6,360.9 -434.6,360.9 -434.7,360.8   -434.8,360.8 -434.9,360.7 -435,360.6 -435,360.5 -435.1,360.2 -435.2,359.9 -435.3,359.6 -435.3,359.5 -435.2,359.3 -435.2,359.2   -435.2,359.2 -435.3,359.1 -435.5,359.1 -435.5,359.1 -435.6,359 -435.6,359 -435.9,358.8 -436.1,358.7 -436.2,358.7 -436.4,358.8   -436.8,358.9 -437,358.9 -437.1,358.8 -437.2,358.6 -437.4,358.5 -437.5,358.4 -437.7,358.4 -437.8,358.4 -437.9,358.3   -438.1,358.3 -438.2,358.1 -438.3,358 -438.4,357.9 -438.5,357.9 -438.6,357.9 -438.7,357.8 -438.7,357.8 -438.9,357.9   -438.9,357.9 -439,357.9 -439.1,358 -439.1,358 -439.2,358.2 -439.2,358.3 -439.3,358.4 -439.7,358.7 -439.9,358.8 -440,358.9   -440,358.9 -440.1,358.9 -440.2,358.9 -440.4,358.7 -440.5,358.7 -440.6,358.5 -440.5,358.4 -439.8,357.5 -439.8,357.4 -440,357.4   -440.2,357.5 -440.4,357.5 -440.5,357.2 -440.5,357.2 -440.5,357.1 -440.5,357 -440.6,357 -440.6,356.8 -440.7,356.8 -440.7,356.7   -440.6,356.5 -440.6,356.4 -440.5,356.3 -440.4,356.3 -440.3,356.2 -440.2,356.2 -440.1,356.2 -440,356.3 -439.8,356.4   -439.7,356.4 -439.5,356.3 -439.5,356.2 -439.4,356.1 -439.3,356 -438.9,355.8 -438.8,355.7 -438.8,355.7 -438.8,355.6   -438.9,355.6 -438.9,355.6 -438.9,355.5 -438.9,355.4 -438.9,355.4 -439,355.3 -439.1,355.1 -439.1,355 -439.1,354.9 -439.1,354.9   -439.1,354.9 -439.1,354.8 -439.1,354.7 -439.1,354.7 -439.1,354.6 -439.1,354.6 -439.1,354.5 -439.1,354.4 -439.1,354.3   -439.1,354.2 -439.1,354.2 -439.1,354.1 -439.2,354.1 -439.2,354.1 -439.2,354 -439.2,354 -439.2,353.9 -439.2,353.8 -439.2,353.7   -439.2,353.7 -439.2,353.6 -439.3,353.6 -439.4,353.6 -439.4,353.4 -439.3,353.3 -439.3,353.2 -439.4,353.2 -439.6,353.1   -439.7,353.1 -439.7,353.1 -439.7,353.1 -439.8,353.2 -439.8,353.3 -439.8,353.3 -439.9,353.4 -440,353.5 -440.1,353.6   -440.2,353.6 -440.6,353.6 -440.6,353.6 -440.7,353.6 -440.7,353.6 -440.8,353.7 -440.8,353.8 -441.1,354.1 -441.2,354.3   -442.1,354.8 -442.3,354.9 -442.4,355.1 -442.5,355.3 -442.5,355.4 -442.5,355.5 -442.6,355.6 -442.7,355.7 -442.9,355.8   -443.1,356 -443.3,356.2 -443.5,356.6 -443.6,356.8 -443.7,356.8 -443.8,356.9 -443.9,356.9 -444,357 -444.1,357.2 -444.2,357.3   -444.7,357.6 -444.7,357.7 -444.8,357.8 -444.9,357.9 -444.9,358 -444.8,358.3 -444.8,358.5 -444.9,358.6 -444.9,358.7 -445,358.7   -445,358.8 -445,358.8 -445.1,358.9 -445,359 -445,359.1 -445,359.2 -445,359.3 -445,359.6 -445,359.7 -445.1,359.7 -445.1,359.8   -445.1,359.9 -445.2,359.9 -445.2,359.9 -445.2,360 -445.2,360 -445.2,360.1 -445,360.3 -444.9,360.4 -444.5,360.8 -444.4,360.9   -444.4,361 -444.3,361.1 -444.1,361.3 -443.9,361.5 -443.8,361.7 -443.8,361.9 -444,362 -444.2,362.1 -444.2,362.1 -444.3,362.2   -444.3,362.3 -444.3,362.4 -444.3,362.5 -444.3,362.5 -444.3,362.5 -444.3,362.6 -444.3,362.6 -444.4,362.7 -444.4,362.7   -444.4,362.8 -444.3,363 -444.1,363.1 -444,363.2 -443.7,363.4 -443.6,363.5 -443.1,364 -443,364.2 -442.7,364.8 -442.6,365.2   -442.6,365.7 -442.8,366.1 -443,366.3 -443.2,366.4 -443.4,366.3 -443.7,366.2 -443.7,366.1 -443.8,366 -443.8,366 -444,366.3   -444,366.3 -444.1,366.3 -444.2,366.5 -444.3,366.6 -444.3,366.9 -444.2,367.1 -444.1,367.3 -444,367.5 -443.8,367.7 -443.6,367.8   -443.4,367.9 -443.3,368 -443.2,368 -443,368.1 -442.9,368.2 -442.7,368.4 -442.5,368.5 -442.4,368.5 -442.3,368.7 -442.2,368.7   -441.8,368.9 -441.3,369.2 -440.4,369.6 -439.5,370.1 -438.6,370.5 -438.5,370.6 -437.9,371.1 -437.9,371.1 -437.9,371.2   -437.8,371.3 -437.8,371.3 -437.7,371.3 -437.7,371.5 -437.6,371.7 -437.5,371.9 -437.3,372.2 -436.9,372.4 -436.8,372.5   -436.8,372.6 -436.4,373 -436.4,373.1 -436.3,373.2 -436.3,373.4 -436.3,373.5 -436.2,373.6 -436,373.8 -435.9,374 -435.8,374.2   -435.7,374.4 -435.7,374.7 -435.7,374.7 -435.7,374.8 -435.7,374.9 -435.7,374.9 -435.6,375 -435.6,375.1 -435,375.9 -434.9,376.1   -434.9,376.2 -434.9,376.2 -434.9,376.3 -435,376.3 -435,376.4 -435,376.4 -434.9,376.5 -434.4,377.3 -434.1,377.6 -433.5,378   -433.4,378.1 -433.2,378.4 -433.1,378.4 -432.6,378.9 -432.5,379.1 -432.4,379.2 -432.4,379.4 -432.1,379.9 -432,380 -432.1,380.1   -432.2,380.2 -432.2,380.2 -432.1,380.3 -432,380.4 -431.9,380.5 -431.7,380.6 -431.5,380.8 -431.4,381 -431.2,381.2 -431.2,381.4   -431.1,381.7 -431.2,381.9 -431.3,382 -431.2,382.1 -431,382.4 -430.9,382.6 -430.8,382.7 -430.8,382.7 -430.8,382.8 -430.7,382.9   -430.7,382.9 -430.7,383.1 -430.7,383.1 -430.7,383.2 -430.8,383.2 -430.8,383.3 -430.7,383.3 -430.6,383.3 -430.6,383.6   -430.6,383.7 -430.5,383.7 -430.4,383.7 -430.3,383.8 -430.3,383.8 -430.2,383.9 -430.2,384 -430.2,384.1 -430.2,384.1   -430.3,384.2 -430.3,384.2 -430.4,384.2 -430.5,384.2 -430.5,384.3 -430.5,384.3 -430.4,384.3 -430.4,384.4 -430.3,384.4   -430.3,384.5 -430.3,384.6 -430.2,384.5 -430.2,384.4 -430.2,384.3 -430.1,384.3 -430,384.2 -429.9,384.3 -429.9,384.4   -429.9,384.5 -429.9,384.6 -429.9,384.6 -430,384.7 -430,384.7 -429.9,384.8 -429.9,384.9 -429.9,384.9 -429.9,385 -429.8,385   -429.7,385.1 -429.7,385.1 -429.6,385.1 -429.5,385.1 -429.5,385.2 -429.5,385.4 -429.5,385.5 -429.4,385.6 -429.3,385.7   -429.2,385.7 -429.3,385.8 -429.3,385.9 -429.2,386.1 -429.2,386.4 -429.1,386.7 -429,386.9 -428.5,387.5 -428.4,387.7   -428.4,387.8 -428.5,387.9 -428.5,388 -428.5,388.1 -428.4,388.3 -428.4,388.4 -428.4,388.4 -428.4,388.4 -428.4,388.4   -428.4,388.5 -428.4,388.5 -428.4,388.5 -428.4,388.5 -428.3,388.6 -428.3,388.6 -428.3,388.6 -428.2,388.7 -428.2,388.8   -428.2,388.9 -428.1,389.1 -428,389.2 -428.1,389.3 -428.1,389.3 -428.1,389.3 -428.1,389.4 -428.1,389.5 -428.1,389.5 -428,389.6   -427.9,389.7 -427.8,389.8 -427.7,390.1 -427.6,390.1 -427.5,390.3 -427.5,390.3 -427.5,390.5 -427.5,390.5 -427.2,390.7   -427.2,390.8 -427.2,390.8 -427.2,391 -427.2,391 -427,391.2 -427,391.3 -427,391.4 -426.9,391.5 -426.8,391.6 -426.3,392.4   -426.3,392.4 -426.2,392.5 -426.1,392.6 -426.1,392.7 -426,392.8 -426,392.8 -426,392.8 -425.9,392.9 -425.8,393.2 -425.7,393.3   -425.6,393.4 -425.6,393.5 -425.4,393.7 -425.4,393.8 -425.4,393.9 -425.3,394 -425.3,394.1 -425.3,394.1 -425.4,394.2   -425.4,394.3 -425.3,394.3 -425.3,394.4 -425.2,394.5 -425.2,394.6 -425.2,394.6 -425.1,394.9 -425.1,395 -425,395.2 -425,395.3   -425,395.4 -425.1,395.4 -425.2,395.4 -425.3,395.5 -425.3,395.6 -425.3,395.7 -425.2,395.8 -425.1,395.9 -425,396 -424.1,396.4   -424,396.6 -423.7,396.7 -423.6,396.7 -423.6,396.8 -423.5,396.9 -423.5,396.9 -423.4,396.9 -423.4,397 -423.3,397.1 -423.2,397.2   -423.2,397.3 -423.2,397.3 -423.2,397.4 -423.2,397.4 -423.1,397.5 -423.1,397.6 -423,397.6 -422.9,397.7 -422.8,397.8   -422.8,397.9 -422.7,398 -422.7,398.2 -422.7,398.3 -422.8,398.4 -422.7,398.5 -422.7,398.7 -422.7,398.9 -422.6,399 -422.6,399   -422.5,399.2 -422.5,399.3 -422.5,399.7 -422.5,399.8 -422.5,399.9 -422.6,400 -422.6,400.1 -422.4,400.1 -422.2,400.2 -422,400.3   -421.9,400.5 -421.9,400.6 -421.9,400.6 -421.9,400.7 -421.9,400.8 -421.9,400.8 -421.8,400.9 -421.8,400.9 -421.7,400.9   -421.4,401.1 -421,401.3 -420.8,401.6 -420.7,401.8 -420.6,402 -420.6,402.2 -420.7,402.4 -420.6,402.4 -420.5,402.5 -420.4,402.6   -420.4,402.6 -420.4,402.7 -420.2,403 -420,403 -420,403.1 -420,403.2 -420,403.3 -419.9,403.4 -419.7,403.8 -419.6,404   -419.2,404.3 -419.2,404.3 -419.1,404.4 -419.1,404.7 -419,405.1 -418.9,405.3 -418.9,405.5 -418.9,405.6 -418.3,406.2 -418,406.6   -417.9,406.7 -417.8,406.7 -417.8,406.8 -417.6,407.1 -417.3,407.6 -417.3,407.8 -417.3,408.2 -417.4,408.6 -417.4,408.8   -417.5,409 -417.5,409.1 -417.6,409.2 -417.6,409.4 -417.7,409.6 -417.7,409.8 -417.7,409.9 -417.8,409.9 -417.9,409.8   -417.9,409.8 -417.9,409.7 -417.9,409.6 -417.9,409.6 -418,409.6 -418.1,409.6 -418.1,409.6 -418.1,409.6 -418.2,409.6   -418.3,409.7 -418.4,409.9 -418.4,410 -418.4,410.1 -418.4,410.2 -418.3,410.2 -418.2,410.2 -418.1,410.2 -418,410.2 -418,410.2   -418,410.1 -418,410.1 -417.9,410.1 -417.9,410.2 -417.9,410.2 -417.9,410.2 -417.9,410.3 -417.8,410.7 -417.8,410.7 -417.8,410.8   -417.8,410.9 -417.8,410.9 -417.8,410.9 -417.8,411 -417.8,411 -417.8,411.1 -417.9,411.2 -417.9,411.2 -417.9,411.2 -417.9,411.6   -417.8,411.7 -417.7,411.7 -417.7,411.5 -417.5,411.6 -417.4,411.6 -417.3,411.7 -417.3,411.8 -417.3,411.9 -417.2,411.9   -417.1,412 -417,412.1 -417,412.2 -417,412.3 -416.9,412.4 -416.9,412.4 -416.9,412.4 -417,412.5 -417.1,412.5 -417,412.7   -417,412.7 -416.9,412.8 -416.8,412.8 -416.7,412.8 -416.7,412.9 -416.6,413 -416.5,413.1 -416.3,413.2 -416.2,413.3 -416.2,413.4   -416.3,413.5 -416.3,413.6 -416.3,413.6 -416.2,413.6 -416.2,413.7 -416.1,413.8 -416,413.9 -416,414 -416,414.2 -415.9,414.3   -415.8,414.4 -415.6,414.5 -415.6,414.5 -415.5,414.6 -415.5,414.6 -415.5,414.7 -415.4,414.7 -415.4,414.8 -415.3,414.8   -415.3,414.8 -415.2,414.8 -415.2,414.9 -415.2,414.9 -415.1,414.9 -415,415 -414.7,415.2 -414.6,415.3 -414.5,415.3 -414.3,415.4   -413.9,415.6 -413.6,415.8 -413.6,415.8 -413.6,416 -413.6,416.1 -413.5,416.1 -413.4,416.2 -413.3,416.3 -413.3,416.4 -413,416.8   -413,416.9 -412.9,417 -412.8,417.1 -412.6,417.1 -412.5,417.2 -412.2,417.4 -412.2,417.5 -412.1,417.5 -412.1,417.6 -412.1,417.6   -412.2,417.7 -412.3,417.7 -412.2,417.8 -412,417.9 -411.8,418 -411.8,418.1 -411.9,418.2 -411.9,418.2 -412,418.2 -412,418.3   -411.9,418.3 -411.8,418.3 -411.8,418.4 -411.8,418.4 -411.7,418.5 -411.6,418.5 -411.5,418.5 -411.4,418.6 -411.2,418.8   -411.2,418.8 -411.1,418.8 -411.1,418.8 -411,418.8 -410.9,418.8 -410.8,418.9 -409.9,419.4 -409.5,419.6 -409.4,419.7   -409.2,419.8 -408.2,420.2 -408.1,420.3 -408.1,420.3 -408,420.4 -408,420.4 -408,420.5 -407.9,420.5 -407.9,420.6 -407.9,420.7   -407.9,420.7 -407.5,420.9 -407.4,421 -407.3,421 -407.1,421 -406.9,421 -406.8,421.1 -406.8,421.2 -406.7,421.2 -406.4,421.3   -406.4,421.3 -405.8,421.5 -405.7,421.6 -405.7,421.6 -405.7,421.7 -405.7,421.8 -405.7,421.9 -405.7,421.9 -405.6,421.9   -405.1,422.2 -404.8,422.5 -404.6,422.6 -404.2,422.8 -404.1,422.9 -404,422.9 -404,423 -403.9,423 -403.9,423.1 -403.6,423.1   -403.3,423.1 -402.7,423.4 -402.4,423.5 -402.1,423.6 -401.9,423.7 -401.9,423.7 -401.8,423.7 -401.7,424 -401.7,424 -401.6,424   -401.5,424 -401.4,424.1 -401.3,424.1 -401.1,424.1 -401,424.1 -400.8,424.3 -400.6,424.4 -400.5,424.5 -399.5,424.9 -398.9,425.3   -398.7,425.4 -397.9,425.5 -397.6,425.7 -397.3,425.7 -397.3,425.7 -397.2,425.8 -397.1,425.8 -397.1,425.8 -397,425.9 -397,425.9   -396.9,426 -396.9,426 -396.8,426 -396.8,426 -396.6,426.1 -396.3,426.4 -396.3,426.5 -396.3,426.7 -396.3,426.8 -396.1,426.8   -395.9,426.9 -395.8,427 -395.7,427.1 -395.7,427.1 -395.4,427.2 -395.4,427.3 -395.3,427.4 -395.4,427.5 -395.3,427.5   -395.3,427.6 -394.9,427.6 -394.8,427.6 -394.7,427.7 -394.4,427.8 -394.3,428 -394,428.3 -393.9,428.4 -393.7,428.5 -392.8,428.7   -392.7,428.7 -392.6,428.8 -392.5,428.9 -392.5,428.9 -392.4,429 -392.2,429 -392.1,429 -392,429.1 -391.9,429.3 -391.9,429.3   -391.7,429.4 -391.5,429.6 -391.5,429.6 -391.5,429.7 -391.4,429.7 -391.4,429.9 -391.4,430.1 -391.3,430.2 -391.3,430.8   -391.2,430.9 -391.2,431 -391.3,431.1 -391.3,431.2 -391.4,431.3 -391.4,431.3 -391.3,431.3 -391.2,431.3 -391,431.3 -390.9,431.4   -390.7,431.5 -390.5,431.7 -390.4,431.7 -390.2,431.9 -390.2,432 -390,432 -389.8,432.3 -389.6,432.3 -389.3,432.4 -389.2,432.5   -389,432.7 -388.9,432.7 -388.8,432.8 -388.8,432.9 -388.7,433.1 -388.6,433.1 -388.4,433.2 -388.4,433.3 -388,433.6 -388,433.6   -388,433.6 -387.9,433.6 -387.9,433.6 -387.9,433.7 -387.8,433.7 -387.4,434.1 -387.3,434.2 -387.1,434.3 -386.9,434.3   -386.8,434.3 -386.5,434.7 -386.2,434.9 -386.1,435 -385.9,434.9 -385.6,434.9 -385,434.9 -384.8,434.9 -384.6,434.9 -384.2,434.6   -384.1,434.6 -383.9,434.6 -383.8,434.5 -383.7,434.5 -383.5,434.2 -383.3,434 -383.2,433.9 -383,433.7 -382.7,433 -382.7,432.8   -382.7,432.7 -382.8,432.6 -382.9,432.4 -382.9,432.3 -382.9,432.2 -383,431.9 -383.1,431.7 -383.1,431.6 -383.1,431.3   -382.9,431.1 -382.7,431.1 -382.4,431.2 -382.2,431.1 -381.9,430.9 -381.2,430.3 -381.2,430.3 -381.2,429.9 -381.3,429.7   -381.3,429.5 -381.4,429.4 -381.5,429.3 -381.7,429.1 -381.8,429.1 -382.1,429 -382,428.9 -381.9,428.6 -381.9,428.5 -381.8,428.5   -381.7,428.4 -381.7,428.4 -381.4,428.2 -381.2,428.1 -381.1,428 -380.9,428 -380.8,427.9 -380.7,427.8 -380.7,427.7 -380.7,427.7   -380.7,427.6 -380.7,427.6 -380.7,427.6 -380.7,427.5 -380.5,427.4 -380.4,427.3 -380.3,427 -379.7,426.4 -379.6,426.3 -379.5,426   -379.5,425.9 -379.4,425.8 -379.2,425.8 -379.1,425.8 -378.8,425.6 -378.7,425.6 -378.6,425.5 -378.5,425.4 -378.7,425.2   -378.7,425.1 -378.7,424.9 -378.7,424.6 -378.7,424.5 -378.6,424.4 -378.5,424.2 -378.3,424.1 -377.7,423.9 -377.6,423.7   -377.6,423.5 -377.8,423.4 -378.1,423.3 -378.3,423.1 -378.4,423 -378.5,423.1 -378.7,423 -378.8,423 -378.8,423 -378.9,423.1   -379,423.1 -379.1,423.1 -379.3,423.1 -379.4,423 -379.5,422.9 -379.7,422.7 -379.8,422.4 -380,421.8 -380.3,421.2 -380.5,420.6   -380.7,420.1 -380.8,419.9 -380.8,419.7 -380.8,419.6 -380.4,419 -380.4,418.9 -380.4,418.8 -380.3,418.7 -380.3,418.6   -380.2,418.6 -380.1,418.5 -380,418.5 -380,418.5 -380.1,418.3 -380.1,418.2 -380,418.1 -379.9,418 -379.7,417.9 -379.6,417.7   -379.5,417.7 -379.4,417.7 -379.3,417.7 -379.3,417.6 -379.4,417.4 -379.6,417.2 -379.6,417.2 -380,416.9 -380.1,416.8   -380.4,416.3 -380.5,416.3 -380.6,416.2 -380.6,416.1 -380.6,416 -380.5,415.7 -380.5,415.7 -380.5,415.3 -380.5,415.2   -380.4,415.1 -380.3,415 -380,414.9 -379.9,414.9 -379.9,414.7 -379.8,414 -379.8,413.9 -379.7,413.9 -379.5,413.9 -379.4,413.9   -379.4,413.8 -379.4,413.6 -379.4,413.5 -379.3,413.5 -379.3,413.4 -379.2,413.4 -379,413.2 -378.9,413.1 -378.5,412.9   -378.4,412.8 -378.5,412.7 -378.5,412.6 -378.6,412.5 -378.6,412.3 -378.6,412.2 -378.5,412.1 -378.4,412 -378.2,411.9   -377.9,411.9 -377.8,411.8 -377.8,411.6 -377.9,411.2 -378,411 -378,410.9 -378,410.9 -378.3,410.7 -378.4,410.6 -378.4,410.4   -378.4,410.2 -378.5,410 -378.5,409.9 -378.6,409.6 -378.6,409.6 -378.6,409.5 -378.6,409.4 -378.6,409.4 -378.6,409.3 -378.9,409   -379,408.9 -379,408.7 -378.9,408.7 -378.7,408.8 -378.7,408.8 -378.6,408.7 -378.6,408.6 -378.6,408.6 -378.6,408.5 -378.6,408.4   -378.5,408.3 -378.4,408.2 -378.4,408.1 -378.3,408 -378.4,407.8 -378.3,406.8 -378.4,406.3 -378.4,406.1 -378.3,405.5   -378.4,404.8 -378.4,404.6 -378.4,404.5 -378.2,404.3 -378.2,404.2 -378.1,404.1 -378,404.1 -377.9,404 -377.8,403.8 -377.7,403.8   -377.3,403.7 -377.2,403.6 -377.1,403.4 -377.2,403.3 -377.3,403.2 -377.4,403.2 -377.4,403.1 -377.3,403 -377.3,403 -377.1,402.9   -377,402.8 -376.9,402.7 -376.9,402.6 -376.9,402.5 -376.8,402.5 -376.8,402.5 "/></svg>