<svg xmlns="http://www.w3.org/2000/svg" xmlns:xlink="http://www.w3.org/1999/xlink" version="1.1" x="0px" y="0px" viewBox="-461 335 100 100" fill="#999999" style="enable-background:new -461 335 100 100;" xml:space="preserve"><path d="M-404.3,376.4L-404.3,376.4L-404.3,376.4l0.1,0l0,0l0,0l0,0l0,0l0,0l0,0l0,0l0,0l0,0l0,0l0,0l0-0.1l0-0.1l0,0l0,0l0,0l0,0  l0,0l0,0.1l0,0l0,0l0,0l0,0l0,0l0,0L-404.3,376.4L-404.3,376.4L-404.3,376.4L-404.3,376.4L-404.3,376.4L-404.3,376.4z M-402,378.4  L-402,378.4l0,0.1L-402,378.4L-402,378.4L-402,378.4l0.1,0v0L-402,378.4L-402,378.4l0-0.1l-0.1,0L-402,378.4L-402,378.4z   M-396.9,388.5l-0.1-0.1l-0.1,0v0.1l0,0.1l0.1,0.1l0.1,0.1l0.1-0.1l0-0.2L-396.9,388.5z M-398.8,382.9L-398.8,382.9L-398.8,382.9  l-0.1-0.1l-0.1-0.1l-0.1,0l-0.1,0l0,0.1l0.2,0.2l0.1,0.1L-398.8,382.9L-398.8,382.9L-398.8,382.9z M-399,379.4L-399,379.4  L-399,379.4L-399,379.4l0,0.1l0,0l0,0l0,0l0,0l0,0l0,0.1l0,0l0,0l0-0.1l0-0.1l0-0.1l0-0.1l0-0.1l0,0l0,0l0,0l-0.1,0l0,0l0,0.1  L-399,379.4L-399,379.4L-399,379.4z M-398.3,383.2L-398.3,383.2L-398.3,383.2L-398.3,383.2l-0.1-0.1l-0.2-0.1l-0.1,0l-0.1,0l0,0  l0.1,0.1l0,0.1l0,0.1l0,0.1l0,0.1l0.1,0.1l0,0l0.1,0.1l0.1,0l0.1-0.1l0,0l0-0.1l0-0.1l0-0.1L-398.3,383.2z M-410.3,345l0.1,0.1  l0.1,0.1l0.1,0l0.1,0l0.1-0.1l0-0.2l0-0.1l0,0l0,0l0,0l0,0l0,0l-0.1,0.1l0,0l-0.1,0l-0.1,0l-0.1,0l0,0l0,0l0,0.1L-410.3,345  L-410.3,345z M-409.1,351.2l0,0.2l0.2-0.1l0,0l0-0.1l0-0.1l0-0.1l0,0l0,0l0,0l0,0l0,0l0,0l0,0l0,0l0,0.1l0,0L-409.1,351.2  L-409.1,351.2z M-410.7,349.2l0,0.1l0,0.1l0.1,0.1l0.1,0l0.1-0.1l0-0.1l0.1-0.1l0.2-0.2l0.1-0.1l0.1-0.2l0.2-0.1l0-0.1l0-0.1  l-0.1-0.1l0,0l0-0.1l0,0l-0.1,0l0,0l-0.1,0l0,0l0,0l0,0l0,0l0,0l-0.1,0.1l-0.1,0.1l0,0l0,0l0,0.1l0,0.1l-0.1,0.1l0.1,0.1l-0.1,0.1  L-410.7,349.2z M-410.1,339.9l0.1,0l0.1-0.1l0-0.1l0,0l0,0l0-0.1l0,0l0.1-0.1l0.2-0.1l0-0.1l0-0.1l0,0l0,0l-0.1,0l-0.1,0l-0.1,0.1  l-0.1,0.1l0,0.1l-0.2,0.4l0,0.1l0,0.1L-410.1,339.9z M-398.4,383.4L-398.4,383.4L-398.4,383.4l0,0.1l0,0.1l0.1,0.1l0.4,0.2l0.1,0  l0.1,0l0,0l0.1,0l0,0l0.1,0l0-0.1l0-0.1l0,0l0.1,0l0,0l0.1,0l0,0l0,0l-0.1,0l-0.2,0l0,0v0.1l-0.1-0.1l0,0l0,0l-0.1-0.1l0,0.1l-0.1,0  l-0.1-0.1L-398.4,383.4z M-410.1,335.3L-410.1,335.3L-410.1,335.3L-410.1,335.3z M-410,335L-410,335L-410,335L-410,335L-410,335z   M-395.4,391.7L-395.4,391.7v0.1l0,0l0.1,0l0.1,0l0,0l0-0.1l0-0.1l0,0l0,0l-0.1,0L-395.4,391.7L-395.4,391.7z M-395.3,398.9  l-0.2,0.2l0,0.2l0.3,0.1l0.3-0.1l0.1-0.1l-0.1-0.2l-0.2-0.1H-395.3z M-395.3,391.3L-395.3,391.3l-0.1,0l0,0.1l0,0.1l0.1,0l0,0l0,0  l0,0l0-0.1L-395.3,391.3L-395.3,391.3z M-410.6,339.9l-0.1,0l0,0l0,0l0,0.1l0.1,0.3l0.1,0l0,0l0.1-0.1l0-0.1l-0.1-0.1L-410.6,339.9z   M-395.8,393.1L-395.8,393.1l0.2,0.2l0,0.1l0,0.1l0.2,0.4l0.1,0.1l0.2,0.2l0,0l0,0l0,0l0,0l0,0l0,0l0-0.1l0.1,0l0.2,0l0.4,0l0.1,0  l0-0.1l0.1-0.2l0-0.1l-0.1-0.1l0-0.1l-0.1-0.3l-0.1-0.2l-0.1-0.1l-0.1-0.1l-0.1,0l-0.1,0l-0.2,0l-0.2,0l-0.1,0l-0.3,0.1  L-395.8,393.1z M-397.6,381.2L-397.6,381.2l0.1,0.2l0,0.1l0.1,0l0.1,0l0.2,0.1l0.3,0.3l0.1,0l0.1,0l0.1-0.1l0-0.1l0-0.1l0.1-0.1  l0.1,0l0.1,0l0.1,0l0.1,0l0.1,0.1l0.1,0.1l0.1,0.1l0-0.1l0.1-0.4l0-0.1l0,0l0.1,0l0.1,0l0.1,0l0-0.1l-0.1-0.2l0-0.1l0-0.1l0-0.2  l0-0.1l0-0.1h0.1l0.1,0l0-0.1l0-0.1l0-0.1l-0.1,0l0.1-0.1l0.1-0.1v0l-0.4-0.3l-0.2-0.1l-0.1,0.2h0l0,0l0,0l0,0l0,0l-0.1-0.1l-0.1,0  l-0.1,0l0-0.2l0-0.2l-0.1-0.1l-0.1-0.1l-0.1-0.1l0,0l0,0l0,0l-0.1,0l-0.1,0.1l-0.1,0l-0.1-0.1l0,0.1l0,0.1v0.1l0.1,0.1l0,0.1l0,0.1  l-0.1,0l0,0v0.1l0,0.1l0.1,0.2l0,0.1l-0.1,0.1l0,0.1l0,0.4l0,0.2l-0.1,0.2l-0.1,0.2l-0.2,0.1l-0.2,0.1l-0.1,0.1L-397.6,381.2  L-397.6,381.2z M-394.7,398.4l-0.2,0.3l0,0.1l0.1,0l0.1-0.1l0-0.1l0,0l0,0l0,0l0,0l0-0.1l0-0.1l-0.1,0L-394.7,398.4z M-394.3,402.4  L-394.3,402.4L-394.3,402.4l-0.1,0l0,0l-0.1,0.1l-0.1,0l0,0l0,0l0,0l0,0l0,0l0,0l0,0.1l0,0.1l0,0.1l0,0.1l0.1,0l0.1,0l0.1-0.1l0.1,0  l0.1,0l0,0l0-0.1l0-0.1L-394.3,402.4z M-395.7,387.6L-395.7,387.6L-395.7,387.6L-395.7,387.6L-395.7,387.6l0.1,0.1l0,0l0-0.1l0-0.1  l0-0.1l-0.1,0l-0.1,0L-395.7,387.6L-395.7,387.6L-395.7,387.6L-395.7,387.6z M-395.6,387.1L-395.6,387.1L-395.6,387.1l-0.1-0.1l0,0  l0,0l0,0l0,0l0,0.1l0,0l0.1,0.1l0,0l0,0l0,0l0,0L-395.6,387.1L-395.6,387.1L-395.6,387.1L-395.6,387.1L-395.6,387.1z M-395.9,379.4  L-395.9,379.4l0.1,0l0,0v0l-0.1-0.2l0,0l0,0l0,0h-0.1l0,0.1L-395.9,379.4L-395.9,379.4z M-393,393.3L-393,393.3l-0.1-0.1l0,0l0,0  l0,0l0,0l-0.2-0.1l-0.1-0.1l0,0h0l-0.1,0.1v0.1l0,0.1l0,0.1l0,0.1l0,0.1l0.1,0l0.1,0l0.1,0.1l0.1,0.1l0,0.1l0,0l0,0l0.1,0.2l0.1-0.1  l0,0l0,0.1l0,0l0.1,0.2l0,0l0-0.1l0-0.1l0-0.1l0-0.1l0-0.1l-0.1,0l-0.1,0l0,0l0-0.1L-393,393.3L-393,393.3z M-392.6,393.2  L-392.6,393.2L-392.6,393.2L-392.6,393.2l-0.1-0.1l0,0l0,0l0,0l-0.1,0l0,0l0,0l0,0l0,0l0,0l0,0.1l0,0.1l0.1,0.1l0,0l0,0l0,0.1l0,0.1  l0,0l0,0l0,0l0,0l0,0l0.1,0l0,0l0,0l0-0.1L-392.6,393.2L-392.6,393.2z M-391.1,402.7L-391.1,402.7l0.2,0.2l0.2,0.1l0.2,0.4l0.1,0.2  l0,0l0,0l0,0l0,0l0.1,0l0,0l0,0l0.1,0l0,0l-0.1-0.2l0-0.1l-0.1-0.1l-0.1-0.1l-0.1-0.1l-0.1-0.4l-0.1-0.1l-0.1-0.1l-0.2-0.1l-0.1-0.1  l-0.1,0l-0.1,0l-0.1,0.1l0,0.1L-391.1,402.7z M-400.2,379.5L-400.2,379.5l0,0.1l0,0l0,0l0,0l0,0l0,0l0.3-0.2l0-0.1l0-0.1l0,0l0,0  l0-0.1l-0.1,0l0,0l0,0l0,0l0,0l0,0l0,0.1l0,0l0,0l0,0l0,0l0,0l0,0l0,0l0,0l0,0l0,0l0,0l0,0l0,0l0,0l0,0l0,0l0,0l0,0L-400.2,379.5  L-400.2,379.5L-400.2,379.5z M-420.6,392.6L-420.6,392.6L-420.6,392.6L-420.6,392.6L-420.6,392.6l-0.1,0l0-0.1l0,0l0,0l0,0.1l0,0  l0,0l0.1,0L-420.6,392.6L-420.6,392.6l0.1,0.1l0,0l0,0l0,0l0-0.1l0,0l0,0l0,0l0,0L-420.6,392.6L-420.6,392.6L-420.6,392.6  L-420.6,392.6z M-420.6,394.6L-420.6,394.6L-420.6,394.6l0.1,0L-420.6,394.6l0.1-0.1l-0.1,0L-420.6,394.6L-420.6,394.6L-420.6,394.6  z M-421.1,427.2L-421.1,427.2l0,0.1l0.1,0.1l0,0l0-0.1L-421.1,427.2L-421.1,427.2L-421.1,427.2L-421.1,427.2L-421.1,427.2z   M-420.2,430.8L-420.2,430.8L-420.2,430.8L-420.2,430.8l0,0.1l0,0l0,0h0l0.1,0.1L-420.2,430.8L-420.2,430.8L-420.2,430.8z   M-419.9,391.5L-419.9,391.5L-419.9,391.5l-0.1-0.1l-0.1,0l-0.3,0.1l-0.1,0l0.2,0.4l0.1,0.3l0.1,0.1l0.1,0l0,0l-0.1-0.1l0-0.1l0-0.1  l0-0.2l0,0l0,0l0,0l0,0l0,0l0.1,0l0,0L-419.9,391.5z M-420,429.2L-420,429.2L-420,429.2L-420,429.2L-420,429.2L-420,429.2  L-420,429.2L-420,429.2L-420,429.2z M-422,427.8L-422,427.8L-422,427.8L-422,427.8z M-422,427.8L-422,427.8L-422,427.8L-422,427.8  L-422,427.8L-422,427.8L-422,427.8L-422,427.8L-422,427.8L-422,427.8z M-421,394.9L-421,394.9L-421,394.9l-0.2,0l0,0l0,0L-421,394.9  L-421,394.9L-421,394.9l-0.1,0.1l0.1,0L-421,394.9L-421,394.9L-421,394.9z M-421.8,427.9L-421.8,427.9L-421.8,427.9l0-0.1l0,0  l-0.1,0l0,0l0,0l0,0l0.1,0l0,0v0l0,0L-421.8,427.9L-421.8,427.9L-421.8,427.9z M-419.7,430.7L-419.7,430.7L-419.7,430.7  L-419.7,430.7l-0.1,0l0,0l0,0l0,0.1l0,0l0.1,0V430.7l0.1,0.1L-419.7,430.7L-419.7,430.7L-419.7,430.7z M-421.1,392.5L-421.1,392.5  L-421.1,392.5l-0.1-0.1l-0.1,0v0l-0.1,0l0,0v0l0.1-0.1l0-0.1l0-0.1l0.2,0l0,0l-0.1,0l-0.1,0l-0.2-0.1l0,0l-0.1,0l0,0l0.1,0l0,0l0,0  l-0.1,0l-0.3,0l-0.1,0l0-0.1l-0.2-0.1l-0.1-0.1l-0.1,0l-0.1,0.1l0,0l0,0l0,0l0,0l0,0l0,0l0,0l0,0l0,0l-0.1,0l0,0l0,0l0,0l0.1,0.3  l0,0.1l0.1,0.1l0.2,0.1l0.1,0.1l0,0l0,0l0,0l0.1,0l0.1,0.2l0,0.1l0.1,0.1l0.1,0l0.1-0.1l0-0.1l0,0l0,0l0,0l0,0.1l0,0.1l-0.1,0.1  l-0.1,0.1l0,0l0,0l0,0.1h0l0,0l0,0l-0.1-0.1l0,0.2l0,0.2l0.1,0.1l0.1-0.1l0.2,0l0.2-0.2l0.1-0.2l-0.1-0.1l0,0L-421.1,392.5z   M-421.6,427.8L-421.6,427.8L-421.6,427.8L-421.6,427.8L-421.6,427.8l-0.1,0l0,0l0,0l-0.1,0l0-0.1l0,0l0,0l0,0.1l0,0.1l0,0l0,0l0,0  L-421.6,427.8L-421.6,427.8L-421.6,427.8L-421.6,427.8L-421.6,427.8L-421.6,427.8z M-421.9,364.9L-421.9,364.9l-0.1,0.2l0,0.1l0.1,0  l0.1,0.2l0.1,0.1l0,0l0.1,0.1l0.1,0l0-0.1l0-0.1l0-0.1l0-0.3l-0.1-0.1l0,0l0,0l0,0l-0.1,0l0,0l0,0l0,0L-421.9,364.9L-421.9,364.9z   M-413.9,349.3l0.1,0l0.5,0l0.1,0l0.1-0.1l0.1-0.1l-0.1,0l-0.1,0l0,0l0,0l-0.1-0.1l-0.1,0l-0.2,0l-0.2,0l-0.3,0.1l-0.1,0l0,0  L-413.9,349.3L-413.9,349.3z M-414.4,348l0.2,0.2l0.1-0.2l0-0.2l-0.1-0.2l-0.1-0.3l0,0l0,0l-0.1,0l0,0.1l-0.1,0.3l0,0.2L-414.4,348  L-414.4,348z M-413.3,346.4L-413.3,346.4L-413.3,346.4l0.1,0.1l0,0l0,0l0.2,0.1l0,0l0.2,0.1l0.1,0l0,0l0,0l0,0l0,0l0.1,0l0,0l0,0  l0,0l0,0l0,0l0,0l0,0l-0.1-0.1l0,0l0,0l0,0v-0.3l-0.1-0.1l-0.1,0l-0.1,0l-0.1,0l-0.1,0l-0.3-0.1l-0.1,0.1l-0.1,0l-0.1,0l0,0l0.2,0.2  L-413.3,346.4z M-412.6,345.7L-412.6,345.7L-412.6,345.7L-412.6,345.7l0-0.2L-412.6,345.7L-412.6,345.7L-412.6,345.7z M-410.9,340.1  L-410.9,340.1L-410.9,340.1L-410.9,340.1l0.1-0.1l0-0.1L-410.9,340.1L-410.9,340.1z M-410.7,337.7l0.1-0.1l0.1-0.2l0.1-0.2l0-0.1  l0-0.1l0-0.1l0-0.1l-0.1-0.1l-0.1,0l-0.1,0l-0.1,0.1l-0.1,0.2l-0.1,0.2l-0.1,0.2l0,0.2l0.1,0.1L-410.7,337.7z M-420.3,380.2  l-0.1-0.1l-0.1,0l-0.1,0l0-0.1l-0.1-0.1l-0.1-0.1l-0.1,0l-0.1,0l0,0l0,0l0,0.1l0,0.1l0.1,0.1l0.1,0.1l0.2,0.1l0.1,0.1l0,0l0.1,0  l0.1,0l0.1,0l0.1,0l0,0.1l0,0.1l0,0l0.1,0l0.1,0l0,0.1l0,0.1l0,0.1l0,0l0.1-0.1l0-0.1l0,0l0,0l-0.1,0l0-0.1l0-0.1l0.1,0l0-0.1  L-420.3,380.2L-420.3,380.2z M-419.7,380.2L-419.7,380.2L-419.7,380.2L-419.7,380.2l-0.1-0.1l-0.1,0l-0.1,0l0,0.1l0,0l-0.1,0l0,0  l0,0l0,0l0,0l0,0.1l0.1,0l0.1,0.1l0.1,0L-419.7,380.2L-419.7,380.2L-419.7,380.2L-419.7,380.2z M-422.1,364.5L-422.1,364.5  L-422.1,364.5l0.1,0.1l0.1,0l0.1,0l0,0l0-0.1l0-0.1l-0.1-0.2l0,0l-0.1,0l-0.1,0l0,0.1L-422.1,364.5L-422.1,364.5z M-419.8,381.1  L-419.8,381.1l0.3,0.2l0.1,0l0,0l0,0l0.1,0l0,0l0.1,0l0-0.1l0-0.1l0,0l0,0l-0.1,0l-0.1,0l0,0L-419.8,381.1L-419.8,381.1z   M-421.4,379.9L-421.4,379.9l0.1,0l-0.1-0.1l-0.1,0l0,0l0,0L-421.4,379.9L-421.4,379.9L-421.4,379.9z M-423.2,394.6L-423.2,394.6  l0.1,0.1l0.1,0.1l0,0.1l0,0l0.1,0l0-0.1l0-0.1l0.1,0l0.1,0l0.1,0l0,0.1l0,0.1l0,0.1l0.1,0.1l0.1-0.2l0.1-0.2l0-0.2l-0.1-0.2l-0.1,0  l-0.1,0l-0.1,0l-0.1,0l0.1,0l0,0.1l0,0.1l0,0.1l0-0.1l0,0l0,0l0,0.1l-0.1,0l-0.1-0.1l0-0.1l0,0.2l0,0.1l-0.1,0l-0.1-0.1l-0.1-0.1  l-0.1-0.1l-0.1,0.1l0.1,0L-423.2,394.6z M-422.4,390.1L-422.4,390.1L-422.4,390.1l0,0.1L-422.4,390.1L-422.4,390.1l0.1-0.1l0.1-0.1  l0.1,0.1l0,0.1l0,0.1l0,0.1l0.1,0.1l0,0.1l0,0.1v0.1l0,0.1l0.2,0.2l0.1,0.2l0.1,0.1l0.1,0.1l0.1,0l0.3,0l0.1,0l0.1,0.2h0l0,0l0,0h0  l0,0l0-0.1l0-0.1l0-0.1l0-0.1l0,0l0.1,0l0.1,0l0.1,0l0,0.1l0.1,0l0.1,0l0.1,0.1l0.1,0l0.1,0l0.1,0l0.1,0l0.1,0l0.1,0l0,0l0,0l0.1,0  l0.1,0l0.1,0l0-0.1l0-0.1l0,0l0,0v0l0,0l0,0l0,0.1l0,0l0,0l0-0.1l0.1-0.1l0.1,0l0,0l0-0.1l0-0.1l-0.1-0.1l-0.2-0.2l0,0l0,0l0,0l0,0  l0-0.1l-0.1,0l-0.1,0l0-0.1l0-0.2l0-0.1l0-0.1l-0.1-0.1l0,0l0,0.6l-0.1,0l-0.1,0l0,0l0,0.1l-0.2-0.1l-0.3-0.2l-0.1,0l0-0.1l0,0l0,0  l0.1,0l-0.1,0l-0.1,0l0,0l0,0l-0.1-0.2l-0.2-0.1l-0.1-0.1l-0.1,0l-0.2,0l-0.1,0l0-0.1l0-0.1l0-0.1l-0.1,0l-0.1,0l0,0.1l0,0.2l0,0  l0.1,0l0.1,0l-0.1,0.1l-0.1,0l-0.1,0l0,0.1l0,0.1l0,0.1L-422.4,390.1L-422.4,390.1z M-391.7,387.3L-391.7,387.3L-391.7,387.3l0,0.1  l0,0l0,0l0,0.1l0.1,0l0.1,0l0,0l0,0l0,0l0,0l0-0.1l0-0.1l-0.1-0.2l0,0l-0.1,0l0,0l0,0l0,0l0,0L-391.7,387.3L-391.7,387.3  L-391.7,387.3L-391.7,387.3z M-394.8,404.8L-394.8,404.8l0.2,0l0.1,0l0.1,0l0-0.1l0.1-0.3l-0.3-0.2l-0.1-0.1l0.1-0.1l0.1,0l0-0.1  l-0.1-0.1l-0.1-0.1l0.1-0.1l0-0.1v-0.1l0-0.1l0.1,0.1l0-0.1l0-0.1l0-0.1l-0.1-0.1l-0.2-0.1l-0.1-0.1l-0.1,0l-0.2,0l-0.1,0l-0.3-0.2  l-0.1,0l-0.1-0.1l0-0.1l0-0.1l-0.1,0l-0.1,0.1l-0.1,0.1l0-0.2l-0.1-0.1l-0.4,0.1h-0.2l-0.2,0l-0.1,0l0,0l-0.1,0.1l0,0l-0.1,0l0,0  l0,0.1l0,0.1l0,0l-0.2,0l-0.1,0.1l0,0.1l0,0.1l-0.1,0.2l-0.2,0.1l-0.3,0.1l-0.2,0.1l0,0l0,0.1l0,0l-0.1,0l-0.1,0l0,0l0,0.1l0,0.1  l-0.2,0.2l-0.1,0.1l-0.1,0.2l0,0.1l0,0.1l0,0.1l0.1,0l0.1,0l0.1,0l0.1,0.1l0,0.1l0,0.1l0,0.1l0.1,0.1l0.1,0.1l0.3,0.1l0.8,0.1  l0.9-0.1l0.2,0l0.2,0l0.3-0.1l0.3-0.1l0.2-0.1l0-0.1l0-0.1l0-0.1l0-0.1l0-0.1l0.1,0l0.1,0l0.1,0l0.2-0.2l0,0l0.1,0l0,0L-394.8,404.8  L-394.8,404.8z M-399.1,401.9L-399.1,401.9l0.2-0.1l0.2,0l0.1,0l0.1-0.2l0.1-0.1l0.3-0.2l0.1,0l0-0.2l0-0.1l0,0l0,0l0,0l0,0.1  l0.1-0.1l0-0.1l-0.1-0.1l0-0.1l0.2-0.4l0-0.1l0-0.5l0,0l0,0l0,0l0,0l0,0l0,0l0,0l0-0.2l-0.2-0.5l0-0.2l0-0.1l0.1-0.2l0-0.1l0-0.1  l0.1-0.1l0-0.1l0-0.1l-0.1-0.1l0-0.1l0-0.2l0-0.1l-0.1-0.4l0-0.1l-0.1,0l-0.1,0l-0.1,0l0,0l0,0l0,0l-0.1,0l0.1-0.1l0.2-0.2l0-0.1  l0-0.2l0-0.1l0.1-0.2l0-0.2l0,0l-0.2,0l-0.2,0.1l-0.3,0.4l-0.1,0.1l0,0.1l0,0.1l0,0.1l0.1,0.3l-0.1,0l0,0l0,0h0l0,0.1l-0.1,0.1  l-0.1,0.1l0,0.1l0.1,0.2l0,0.1l-0.1,0.2l-0.4,1.1l-0.1,0.2l-0.2,0.3l-0.1,0.1l-0.1,0.1l-0.1,0.2l-0.1,0.2l-0.1,0.1l0,0.1l0,0.2  l0,0.1l0,0l0,0l0,0l0,0.1l-0.5,0.7l-0.1,0.1l-0.1,0.1l-0.1,0.4l-0.3,0.4l-0.1,0.3l-0.1,0.1l-0.2,0.2l-0.2,0.2l-0.1,0.1l0,0.2l0,0.1  l0,0.1l0,0l0,0l0,0l0,0l-0.1,0l0,0l0,0.2l0,0l0.1,0.1l0,0l0,0.1l0,0.1l-0.2,0.6l-0.3,1.7l0,0.1l0,0.3l0,0.1l0.1,0l0.1-0.1l0.1-0.1  l0.3-0.4l0.1-0.1l0.1-0.1l0,0l0.1-0.1l0.1-0.1l0.1-0.1l0.1-0.3l0-0.2l0.5-1.3l0,0l0.1,0l0.1,0l0,0l0-0.1l0.1-0.3V403l0,0l0-0.1l0,0  l0,0l0,0l0.1,0l0,0l0.1-0.1l0-0.1l0-0.1l0-0.1l0-0.1l0.3-0.3L-399.1,401.9z M-399.7,408L-399.7,408l0.1-0.2l-0.1,0l0,0l-0.1-0.2  l-0.1-0.1l-0.1,0l-0.1,0l-0.1,0l0,0.1l0,0.1l0,0l0,0l-0.2,0.1l-0.1,0.1l-0.1,0l-0.1-0.1l-0.2,0.1l0,0.1l0.1,0.1l0.5,0.3l0.1,0l0.1,0  l0.1,0l0.1,0l0,0l0-0.1l0,0l0,0l0,0l0,0l0.2,0l0.1,0l0,0l0.1-0.1l0,0l0,0l-0.1,0l0,0l-0.1-0.1l0,0L-399.7,408L-399.7,408z   M-393.1,408.1l-0.1-0.1l-0.1,0l-0.1,0l-0.1-0.1l-0.1-0.1l-0.2-0.1l-0.2,0l-0.2,0.1l-0.1,0.2l0.1,0.2l0.2,0.1l0.4,0.2l0,0l0.1,0l0,0  l0,0.1l0,0l0.1,0l0.1,0l0.1-0.1l0-0.1l0-0.1l0-0.2L-393.1,408.1z M-391.2,402l0.2,0.1l0-0.1l0-0.2l0-0.2l0-0.1l0.1,0l0.4,0.2l0.2,0  l0.1-0.1l0-0.1l0-0.1l0-0.2l0-0.1l0-0.1l-0.1-0.1h0l0,0.1l-0.1-0.1l-0.1-0.1l0-0.1l0-0.1l0-0.2l0-0.1l-0.1-0.1l0-0.1l0.1-0.3l0-0.1  l-0.1,0l0-0.1l-0.2-0.3l0-0.2l0,0l0,0l-0.1,0l-0.4-0.2l-0.1-0.1l0-0.3l0-0.3l0.2-0.7l0-0.3l-0.1-0.6l0-0.2l0-0.1l-0.1-0.1l0-0.1l0,0  l0.1-0.1l0-0.1l0-0.1l0-0.2h0l0,0.1l0,0l0,0l0-0.1l0,0l-0.1,0l-0.1,0l0,0l0,0l0,0l0,0l0,0l0-0.1l0,0l0,0l0-0.1l0-0.1l0.1-0.1l0-0.1  l0-0.1l0-0.1l0,0l-0.1-0.1l-0.1,0l-0.1,0l-0.2,0l0,0l0,0l0,0l0,0l0,0l0,0.1l0,0l-0.1,0l-0.1-0.1l-0.1,0l-0.1,0.1l-0.2,0.3l-0.3,0.3  l-0.2,0.1l-0.2,0.1l-0.3,0l-0.2-0.1l-0.1-0.2l-0.1-0.4l-0.1-0.1l-0.2-0.1l-0.1,0l0,0.1l0,0.3l-0.2-0.4l-0.1-0.1l-0.4-0.3l-0.2-0.2  l-0.1,0l0,0l-0.1,0.1l0,0l0,0.1l0.1,0.4l0.1,0.1l0,0.1l0,0.1l0.1,0.1l0,0l-0.1,0l0,0l0.1,0l0.1,0l0,0.1l-0.1,0.1l0,0.1l0,0.1  l0.1,0.1l0.1,0.1l0.1,0v0.6l0,0.4l0,0.1l0,0l0,0l-0.1,0.1l0,0.1l0,0.1l0,0.1l0,0.1l0.1,0.1l0.1,0l0,0.1l0,0.1l0,0.1l-0.1,0.1l0,0.1  l0,0.1l0,0l0.1,0l0.1,0l0.1,0l0,0l0,0.2l0,0l0.1,0l0,0l0.2,0.2l0,0l0.1,0l0.1-0.1l0.1-0.1l0.1-0.1l0-0.1l-0.1-0.1l0-0.1l0.1-0.1  l0.1,0l0.1,0l0.1,0l0.1,0l0,0.1l0,0l0.2,0.2l0.2,0.2l0.1,0.1l0,0.1l0,0l0.2,0.2l0,0.1l0.1,0.6l0,0.3l0,0.1l-0.2,0.4l0,0.1l0,0.3l0,0  l-0.1,0.1l0,0.1l0,0l0,0.3l0,0.2l0,0.1l0.1,0.1l0.1,0.1l0.1,0.1l0,0.2l0,0.1l0,0.2l-0.1,0.2l0,0.2l0.1,0.2l0.1,0.1l0.1,0l0.3,0  l0.1,0l0.1,0.1l0,0.1l0.1,0.1l0.1,0l0.1,0l0.1,0l0,0.1l0,0l0.3,0.2l0.1,0l0.1-0.1l0-0.1l-0.1-0.3l0-0.3l-0.1-0.4l0-0.8l-0.1-0.2  l0.1-0.1l0.1,0l0.1,0l0.1,0.1l0,0.2l0,0l0,0l0.1,0.1l0,0.2l0.1,0.2L-391.2,402z M-391.5,403.8L-391.5,403.8l0-0.1l0-0.1l0,0l0-0.1  l0-0.1l0-0.1h-0.1l0,0.1l0,0l0,0.1l0,0.1L-391.5,403.8L-391.5,403.8z M-395.4,387.8L-395.4,387.8L-395.4,387.8L-395.4,387.8  l-0.2,0.1l-0.1,0l0,0l-0.3-0.2l0,0l-0.1,0l-0.1,0.1l0,0.1l0,0.1l0,0.1l0.4,0.9l0.3,1l0.1,0.2l0.1,0.1l0,0l0,0l0,0l0.1,0.1l0.3,0.3  l0.3,0.2l0.2,0.1l0.2,0l0.2,0.1l0.2,0.1l0.3,0.3l0,0.1l0,0.1l0,0.2l0.1,0l0,0l0,0l0,0.1l-0.1,0.1l0.1,0.1l0.1,0l0.1-0.1l0.1,0  l0.1,0.1l0,0.1l0,0l0,0l0,0l0,0l-0.1,0.2l0,0l0.1,0l0,0l0,0v0l0.2,0.1l0.4,0.5l0.2,0.1l0.1,0l0.2-0.1l0.1,0l0.1,0l0.1,0.1l0.1,0.1  l0,0.1l-0.1-0.1l0,0l-0.1,0.1l-0.1,0.1l0,0.1l0,0.1l0,0.1l0,0.1l0,0.1l-0.1,0.1l-0.1,0.1l-0.1,0h-0.3l0.1,0.1l0,0l-0.1,0l-0.1,0  l-0.1,0l0,0.1l-0.1,0.1l-0.1,0l0,0.1l0.1,0.1l0.1,0.1l0.1,0l0.1,0l0.1,0l0.1-0.2l0,0.1l0.1,0.1l0.1,0.1l0.1,0.1l0,0l0.1,0l0,0  l0.1,0.1l0,0l0,0l0,0l0,0l0,0l0,0.5l0.1,0.2l0.2,0l0.3,0l0.3,0l0.2,0.1l0.2,0.2l0.1,0.3l0,0.3l0,0.1l0,0.1l0,0l0.1,0l0,0l0,0  l0.1-0.1l0-0.1l0,0l0.2-0.1l0.1,0l0,0l0,0l0.2,0l0.1,0l0.1,0.1l0.1-0.1l0.1,0l0,0.1l0,0.1l0.1,0l0.1-0.1l0.1-0.1l0.1,0l0.1,0.1  l0.2,0.1l0-0.1l0-0.2l0,0l0.1,0l0,0l0,0l0.1,0l0,0.1l0,0.1l0,0.1l0.1,0l0.1,0l0.2-0.1l0,0l0.1,0l0.1,0.1l0,0l0.1,0l0,0l0,0l0,0.1  l0,0l0,0l0,0l0.1,0.2l0.1,0l0.1,0.1l0.1,0l0.1-0.2l-0.1-0.2l-0.2-0.2l-0.1-0.2l0-0.2l-0.1-0.1l-0.1-0.1l-0.3-0.2l-0.1,0l0,0.1  l0.1,0.1l-0.2,0.1l-0.2,0l-0.1-0.1v-0.2l0.1-0.1l0.4-0.3l0-0.1l0-0.1l0-0.2l0,0l-0.1-0.1l-0.1-0.1l0,0l-0.1,0l-0.1-0.1l-0.1,0l0,0  l0-0.1l0-0.1l-0.1,0l0,0l0,0l0,0l0.1-0.1l0-0.1l0-0.1l-0.1-0.2l0-0.1l0-0.1v-0.1l0,0l0,0l0,0l0,0l0-0.1l0-0.1l0-0.1l0-0.1l-0.1,0  l0.1-0.1l0.1,0l0.1,0l0-0.2l-0.1-0.2l-0.1-0.1l-0.1,0l-0.1,0l0-0.1l0.1-0.1l0.2,0.1l0,0l0-0.1l0-0.1l-0.2-0.1l0,0l0-0.1l0-0.2  l-0.1-0.2l0,0l0-0.1l0-0.1l0-0.1l0.1-0.1l0.1-0.1l0-0.1l0.2-0.2l0-0.1l-0.1-0.1l-0.1-0.1l-0.1,0l0,0l0,0l0,0l-0.2,0l-0.1,0l0-0.1  l0-0.1l0.1,0l0.2,0l0,0l0,0l0,0l-0.1,0l0.1,0l0.1,0l0,0l0.1,0l0-0.1l-0.1-0.2l-0.1-0.2l0-0.1l-0.1,0l-0.2-0.2l-0.1-0.1l-0.2,0  l-0.1,0l0-0.1l-0.1,0.1l-0.1,0l-0.1,0l0,0l0,0v0l0-0.1l-0.1,0l-0.2,0.1l0-0.1l0,0l0,0l-0.1-0.1l0-0.1l0.1-0.1l0.1-0.1l-0.1-0.1  l0-0.1l-0.1-0.2l-0.1-0.1l-0.1-0.1l-0.1-0.1l0-0.1l-0.1-0.1l-0.3-0.2l-0.1-0.1l0,0l-0.1,0l-0.1,0l-0.1,0l-0.2-0.1l-0.1,0l0,0.1l0,0  l-0.1,0l-0.1,0l0,0l-0.1,0l0,0l0,0l0,0l0,0l-0.1-0.1l-0.1-0.1l-0.1,0l0-0.1l-0.1,0l-0.1,0.1l-0.1,0l-0.1,0l-0.1-0.1l-0.1-0.1l-0.1,0  v0l0,0.1l0.1,0.1l0,0.1l-0.1,0.1l-0.1,0l-0.1,0l-1.1,0.1l-0.5,0l-0.1,0l-0.1,0l0,0l0,0l0,0l0,0l0,0l-0.1,0l0,0l-0.4,0l-0.1,0l0,0  l0,0l0,0l0,0l-0.1,0l0,0l0,0l0-0.1l0,0L-395.4,387.8L-395.4,387.8z M-408.9,387.4L-408.9,387.4l0.1,0l0-0.1l-0.1-0.1l-0.2-0.1  l-0.1,0.1l-0.2,0.1l-0.3,0.1l-0.1,0.1l0,0.1l0,0.4v0.2l0,0.2l-0.1,0.2l-0.2,0.1l-0.1,0.1l-0.1,0.2l0,0.2l0.1,0l0.2,0.2l0.1,0l0.1,0  l0.1,0l0,0.1l0,0.1l-0.1,0.1l-0.1,0l-0.1-0.1l0,0.3l0,0.1l0.2,0l0,0.1l0,0.1l0.1,0.1h0v-0.3l0,0l0.1-0.1l0,0l0.1,0.1l0-0.1l-0.1-0.1  l-0.1-0.1l0-0.1l0-0.1l0.2-0.4l0.1-0.4l0-0.4l0.1-0.4l0-0.2V387.4L-408.9,387.4L-408.9,387.4z M-410.2,391.3L-410.2,391.3  L-410.2,391.3L-410.2,391.3l-0.1,0L-410.2,391.3l0,0.2l0,0h0l0,0l0,0l0,0l0,0l0,0l0,0l0,0l0,0l0,0l0,0L-410.2,391.3L-410.2,391.3  L-410.2,391.3z M-410,391L-410,391l0-0.1l0-0.1l-0.1-0.1l-0.1,0l-0.1,0l0,0l0,0.1l0,0.1l0.1,0.1L-410,391L-410,391z M-407,405.5  l0.2,0.4l0,0.1l0.1,0l0.1,0.1l0.1,0.3l0.1,0.1l0.1,0.1l0.1,0.1l0.1,0l0.1,0l0.1,0l0,0l0,0.1l0,0l0.1,0l0.1,0l0.3,0.1l0.1,0l0.4,0  l0.1,0l0.1,0.1l0.1,0.1l0.1,0.1l0,0.1l0,0.4l0.2,0.6l0.1,0.2l0.2,0.2l0.3,0.1l0.1,0l0.1-0.1l0.1,0l0.1-0.1l0.1,0h0.2l0.1,0l0.4-0.3  l0.1-0.1l0-0.1l0.3-0.5l0.1-0.3l0.1-0.3l0-0.2l-0.1-0.1l-0.1-0.1l-0.1-0.1l-0.1-0.3l-0.1-0.1l-0.1-0.1l-0.1-0.1l0-0.1l0-0.1  l-0.1-0.1l-0.2,0l-0.1-0.1l0.1-0.1l0.1-0.1l0.1,0.1l0-0.2l-0.2-0.2l0-0.2l0,0l0.1,0l0,0l0-0.1l0-0.1l0-0.1l-0.1-1l0-0.1l0.1-0.1  l0.2-0.2l0.1-0.3l0,0l0,0l0,0l0.1-0.1l0.3-0.4l0-0.1l0-0.1l0-0.1l0-0.1l0.2-0.4l0-0.1l0-0.4l0-0.1l0.2-0.4l0.1-0.1l0.5-0.5l0.1-0.1  l0.2-0.8l0.1-0.2l0.2-0.2l0.1-0.1l0-0.3l0,0l0,0l0,0l0,0l0,0l-0.1-0.1l0-0.1l0-0.2l-0.1-0.1l-0.1,0l-0.2-0.1l-0.1,0l-0.1,0l-0.1,0  l-0.1,0l0,0.1l0,0l-0.1,0l0-0.1l0-0.1l0,0l-0.1,0l-0.1,0l-0.2,0.1l-0.1,0l-0.1,0l-0.1-0.1l-0.1,0l0,0l-0.1,0l0,0l0,0l0,0l0,0l-0.3,0  l-0.3,0.1l-0.5,0.3l-0.1,0l-0.1,0l-0.3,0l0,0l-0.2,0.2l0,0.1l0,0.1l0,0l0,0.1l0,0l0.1,0.1l0,0l0,0.4l0,0.1l-0.2,0.4l0,0.1l-0.1,0.3  l-0.2,0.2l0,0.1l-0.1,0l-0.1,0l-0.1,0.1l-0.1,0.1l0,0.3l0.2,0.5l0.1,0.3l-0.1,0.7l0,0.3l0.1,0.3l0,0.1l0,0.1l-0.2,0.2l-0.1,0.1  l-0.1-0.1l-0.2,0.1l-0.3,0.3l-0.1,0.1l-0.3,0.1l-0.1,0.1l-0.1,0l-0.4-0.1l-0.1,0l-0.3,0.1l-0.1,0l-0.1,0.1l-0.1,0.3l-0.2,0.4  l-0.1,0.1v0l0.1,0.2l0,0.2l0,0.2l0,0.2l0,0l0.1,0l0,0l0,0.1l0,0.2l0,0.1l0,0l0.1,0l0,0l0.1,0.1l0,0.1L-407,405.5L-407,405.5z   M-410.8,383.1l0.2,0.2l0.1,0.2l0.1,0l0.1,0l0.1,0l0.1,0l0.2,0.2l0.1,0l0.1,0l0.1,0.1l0.1,0.1l0.1,0l0.2-0.2l0.1-0.1l-0.1-0.1  l0.1-0.2l0.3-0.4l0.1-0.2l0-0.1l-0.1-0.1l0-0.1l0-0.1l0,0l0.1,0l0,0l0,0l0-0.1l-0.1-0.1l-0.1,0l-0.1,0.1l0,0l-0.1,0l0,0l0.1-0.1  l0-0.1l-0.1,0l-0.1,0l0-0.1l0-0.1l-0.1-0.1l-0.1-0.1l-0.1,0.1l-0.1,0l-0.1,0l-0.1-0.1l0,0l-0.1,0.1l0,0l-0.1-0.2l-0.1-0.1l-0.1,0  l0,0l0,0.2l0,0.1l-0.2,0.3l0,0.1l0,0.1l0,0.3l0,0.1l0,0L-410.8,383.1L-410.8,383.1z M-409.9,399.7l-0.2,0.4l0,0.3l0.1,0.2l0.2,0  l0.2-0.1l0.1-0.1l0.4-0.6l0.2-0.1l0.1,0l0.1,0l0.1,0l0.1,0l0.2-0.2l0.1,0l0.1,0l0.1,0l0.1,0l0.1,0l0.1-0.1l0.1,0l0.1,0l0.2,0l0,0  l0.1-0.1l0,0l0.5-0.1l0.6,0l0.3-0.1l0-0.1l0.1,0l0,0l0,0l0,0l0-0.1l0,0l0.1-0.1l0.1,0l0.1,0l0.1,0l0.1-0.1l0,0l0,0l0.1,0.1l0.1,0  l0.1,0l0.1-0.1l0.2-0.2l0.1-0.2l0-0.2l-0.1-0.2l0-0.2l0.1-0.1l0.1-0.1l0.2-0.1l0.1-0.1v0.1l0.1-0.1l0,0l0.1,0l0,0l0,0l0.1,0l0,0  l0-0.1l0,0l0.1,0l0,0l0,0.1l0,0.1l0.1-0.1l0,0l0-0.1l0.1-0.1l0.1-0.1l0.1-0.1l0.1-0.3l0.1,0l0.1,0l0.1,0.1l0-0.1l0.1-0.1l0-0.1  l0-0.1l0,0l0,0l0-0.1l0-0.2l0-0.1l0-0.1l0,0l0-0.2l0,0l0,0l0,0l0,0l0.1,0l0,0v0l0.1-0.1l0-0.1l0-0.2l0-0.1l0-0.1l0-0.1l0-0.1l-0.1,0  l0,0l0.1-0.1l-0.1,0l-0.1,0l0,0l0-0.1l0,0l0.1,0l0.1,0l0,0l0-0.1l0-0.4h0l-0.1,0.2l-0.1,0.1l-0.2,0.1l-0.3,0.1l-0.2,0.2l-0.2,0  l-0.2,0.1l-0.2,0.1l-0.2,0.1l-0.1-0.1l0-0.1l0.1-0.1l0.3-0.2l-0.3-0.1l-0.1,0l-0.1,0l0-0.1l0-0.1l0-0.1l-0.1-0.1l-0.2,0l-0.2,0  l-0.2,0l0,0l0,0l0,0l0,0.1l-0.1,0.1l0,0l0,0l0,0l0.1,0.1l-0.1,0l0,0l-0.1-0.1l-0.1-0.1l0,0l0,0.1l0,0l0,0.1v0.1l-0.1,0l-0.1,0.1l0,0  l-0.1-0.1l0-0.1l0-0.1l0-0.1l-0.1-0.1l-0.4-0.1l-0.3-0.3l-0.1,0l-0.1,0l-0.1-0.1l-0.2-0.4l-0.1,0l-0.2,0l-0.1,0l-0.1-0.1l-0.2-0.1  l-0.2-0.1l-0.7-0.1l-0.1-0.1l-0.1-0.1l-0.1-0.1l-0.1-0.2l-0.1,0l-0.2-0.1l0,0l0,0l0,0l0,0l0,0l0,0l0,0l0,0l-0.1,0.1l0,0l-0.1,0l0,0  l0,0.1l0,0.1l0,0.1l0,0.1l0,0.1l0,0.1l0,0l-0.1,0.1l-0.1,0.1l0,0.1l0.1,0l0.1,0l0.2,0l0.1,0l0.1,0l0.2,0.1l0.2,0l0.2,0l0.1,0.1  l0.1,0.2l0,0.2l-0.1,1l0,0l0,0l0,0l0,0.7l0,0.1l-0.1,0.1l-0.1,0.1l0,0.1l0,0.1l0,0.1v1l0,0.3l-0.4,0.7l-0.1,0.3l0,0.2l-0.1,0.2  l0,0.1l0,0.1l0.2,0.2l0,0.1l0,0.4v0.1L-409.9,399.7z M-388.9,403.9L-388.9,403.9l0.1,0.1l0,0.1h0l0.1,0l-0.1,0l-0.1-0.1l0-0.1  L-388.9,403.9L-388.9,403.9L-388.9,403.9l0-0.1l0,0v0l0,0l0,0l0,0l0,0.1l0,0L-388.9,403.9L-388.9,403.9L-388.9,403.9z M-387.4,398.8  l-0.1-0.1l-0.1-0.3l-0.1-0.1l-0.1,0.1l0,0.2l0,0.2l0.1,0.1l0.2,0.1l0.1,0l0.1,0.1l0,0l0.1,0l0.1,0l0.1,0l0.1,0l0-0.1l-0.1-0.1  l-0.1,0L-387.4,398.8L-387.4,398.8z M-386.5,405.5l0.1,0.1v0l0,0l-0.1,0v0l0.1,0l0.1,0l0,0l0,0.1l0,0l0.1,0l0.1,0l0-0.1l0-0.1l0-0.1  l0.1-0.2l0-0.1l-0.1-0.1l-0.1-0.1l0-0.1l0-0.1l0-0.1l0,0l-0.1,0l0-0.1l0,0l0,0l-0.1,0.1l0,0.1l0,0.1l0.1,0.1l0,0l0,0.1v0.1l0,0.1  l0,0l0,0l0,0L-386.5,405.5L-386.5,405.5L-386.5,405.5L-386.5,405.5z M-388,403.9L-388,403.9l0.2,0.1l0.1,0l0-0.1l0-0.1l-0.1-0.1  l-0.1-0.1l-0.1-0.1l0.1-0.1l0-0.2l0,0l0,0l0-0.1l0-0.1l0-0.1l0-0.1l0-0.1l-0.1-0.1l0-0.1l0-0.1l0-0.2l-0.1,0l-0.1,0l0-0.1l0.1,0l0,0  l0.1-0.1l0-0.1l-0.1-0.1l0-0.1l0-0.1l0,0l0.1,0l0,0l0-0.1l0-0.2l0.1-0.4l0-0.2l-0.1-0.2l-0.1-0.1l0,0l-0.1,0l0,0l0,0.1l0,0.1l0,0.2  l0,0.1l0,0l-0.1,0l0,0l0-0.1l0,0l0,0l0,0l0,0l0,0l0,0l0,0v0.1l0,0l-0.1,0l-0.1,0l0,0.1l0,0.1l0,0.1l0,0l0,0l0,0l0,0l-0.1,0.1l0,0.1  l0,0.1l0,0.1l0,0l0,0l0,0l0,0l0,0.1l0,0.1l-0.1,0.1l-0.1,0l0,0.1l0,0.2l0,0l0.1,0l0,0.1v0.1l0,0.1l0.1,0l0.1,0l0-0.1l0,0l0.1,0  l0.1,0l0,0l0-0.1h0l0,0.1l0.1,0.1l0,0l0,0.1l0,0l0,0l0,0l-0.1,0.1l0,0.1l0.1,0.1l0.1,0v0l0,0l0,0l0,0l0.1,0l0,0l-0.1,0l0.1,0.1  l0.2,0l0.1,0l0,0.1L-388,403.9L-388,403.9z M-387.5,404.5L-387.5,404.5L-387.5,404.5l-0.1,0l0-0.1l0,0l-0.1,0l0,0l0,0l0,0l0,0l0,0  l0,0.1l0,0.1l0,0l0.1,0l0,0l0,0l0,0l0,0l0-0.1L-387.5,404.5L-387.5,404.5z M-395,387.8l0.1,0.1l0.1-0.1l0,0L-395,387.8L-395,387.8  L-395,387.8l0-0.1l-0.1,0l0,0.1L-395,387.8L-395,387.8z M-396.5,402L-396.5,402L-396.5,402l-0.1,0h0l-0.1,0l0,0.1l0,0l0,0v0l0,0  l0.1,0L-396.5,402l0.1,0h0l0,0l0,0l0,0l-0.1,0L-396.5,402L-396.5,402L-396.5,402z M-386.3,398.7L-386.3,398.7L-386.3,398.7  L-386.3,398.7l-0.1-0.1L-386.3,398.7L-386.3,398.7L-386.3,398.7z M-421.9,431.6L-421.9,431.6L-421.9,431.6L-421.9,431.6  L-421.9,431.6z M-391.9,387.7L-391.9,387.7L-391.9,387.7l0.1,0.1l0,0l0.1,0l0.1,0l0,0l0,0l0-0.1l0,0l-0.1,0l-0.1-0.1l0,0l0-0.1  l0-0.1l-0.1-0.1l-0.1,0l0,0.1L-391.9,387.7z M-388,404.9L-388,404.9L-388,404.9L-388,404.9L-388,404.9L-388,404.9L-388,404.9l-0.1,0  l0,0l0,0l-0.1,0v0.1l0,0l0,0l0.1,0l0,0l0,0l0,0l0,0l0,0l0,0.1l0,0.1v0l0.1,0.1l0,0l0,0l0,0l0-0.1l0,0l0-0.1l0,0L-388,404.9  L-388,404.9L-388,404.9L-388,404.9z M-388.2,397.3L-388.2,397.3l0.2,0l0-0.1l-0.2-0.1l-0.1,0L-388.2,397.3L-388.2,397.3  L-388.2,397.3z M-389,400.6L-389,400.6l-0.1-0.1l-0.1,0l0,0l0,0l0,0l0,0l0,0l0,0l0,0.1l0,0l0.1,0L-389,400.6L-389,400.6L-389,400.6z   M-409.4,385.6L-409.4,385.6l0.1,0.1l0.1,0l0-0.1l0-0.1l0-0.1l0,0l-0.2,0l-0.1,0l0,0l0,0l0,0l0,0l0,0l0,0L-409.4,385.6L-409.4,385.6  L-409.4,385.6z M-386.1,404.2L-386.1,404.2L-386.1,404.2L-386.1,404.2L-386.1,404.2l0.1,0.1l0,0l0.1,0.2l0.1,0.1l0.1,0.1l0-0.1h0.1  l0.2,0.1l0.2,0l0.1,0l0.1,0l0.1-0.1l0.1-0.1l0-0.1l0-0.1l0-0.1l-0.1-0.1l-0.1,0l-0.1,0l-0.1,0l0-0.1l0.1-0.1l0-0.1v-0.1l-0.1-0.3  l-0.3-0.6l-0.1,0l-0.1,0.1l0,0.1l0,0.1l0,0.1l0,0.1l0,0.1l-0.4,0.6l0,0.1l0.1,0.1l0.1,0l0.1,0l-0.1,0.1L-386.1,404.2L-386.1,404.2  L-386.1,404.2L-386.1,404.2L-386.1,404.2z M-397.3,389.6l0.1-0.2l-0.1,0l0,0.1l0,0L-397.3,389.6L-397.3,389.6L-397.3,389.6z   M-397.6,401.8L-397.6,401.8L-397.6,401.8l0-0.1l0,0l0,0l0,0l0-0.1l0,0l-0.1,0l0,0l0,0l0,0l0,0l0,0l0,0l0,0l0,0l0,0l-0.1,0l0,0l0,0  l0-0.1l0.1,0L-397.6,401.8L-397.6,401.8L-397.6,401.8z M-399.3,405.9L-399.3,405.9l0.2,0l0.1,0l0.2-0.2l0.1-0.1l0-0.1l0-0.1  l-0.1-0.1l-0.1,0l-0.2,0.1l-0.1,0.1l-0.1,0.1l0,0l-0.1,0l-0.1,0l0,0l0.1,0L-399.3,405.9z M-405.4,399.4l0-0.3l-0.2-0.2l-0.1,0  l-0.2-0.1l-0.1,0.1l-0.1,0.1l-0.1,0.1l-0.1,0.2l-0.1,0l-0.1,0l-0.1,0l-0.1,0.1l-0.1,0.2l-0.1,0.1l0,0.1l0,0.1l0,0.1l0.1,0l0,0.1  l-0.1,0l0,0l0,0.1l0,0l-0.1,0l-0.1,0l-0.1,0l0,0.1l0.1,0.1l0,0l0,0l0.1,0l0,0l0,0l0,0.1l0,0l0,0.1l0,0.1l0,0l0.1,0l0.1-0.1l0,0l0,0  l0.1-0.1l0.1,0l-0.1,0.2l0.2-0.1l0.2-0.2l0.1-0.2l0.2-0.5L-405.4,399.4z M-405.7,400.6L-405.7,400.6L-405.7,400.6l0.1,0l0.1,0l0,0  l0,0l0,0l0,0l0,0l-0.1-0.1l-0.1,0.1L-405.7,400.6L-405.7,400.6L-405.7,400.6z M-403.1,392.2L-403.1,392.2l0.1-0.1l0,0l-0.1,0  L-403.1,392.2z M-396.6,384l-0.1-0.1l-0.1-0.1l-0.2-0.1l-0.1,0l-0.1,0l-0.2,0.1l-0.1,0l0,0l0.2,0.1l0.1,0l0.1,0l0.1,0l0.1,0l0.2,0  l0.1,0L-396.6,384z M-396.2,399.6L-396.2,399.6l0.6-0.1l0.1-0.1l0-0.2l0-0.1l0-0.1l-0.1-0.1l-0.1,0l-0.1,0l-0.1,0l0,0.1l0,0.1l0,0.1  l0,0.1l0,0.1L-396.2,399.6L-396.2,399.6z M-396.3,388.5L-396.3,388.5l-0.1-0.1l0,0l0,0.1l0.1,0.2l0.1,0.2l0.1,0l0-0.1l0-0.1l0-0.1  L-396.3,388.5z M-396,392.3L-396,392.3l-0.1,0.1l0,0.1l0.1,0.1l0.1,0l0.1,0l0.1,0l0.1-0.1l0-0.1l-0.1-0.1L-396,392.3L-396,392.3z   M-402.1,386.3l0-0.3l0-0.1l0-0.1l0-0.1l-0.1-0.1l-0.1,0l-0.2,0l-0.1-0.1l-0.1-0.1l-0.1-0.2l0,0l0-0.1l-0.1-0.1l0-0.1l0,0l-0.1-0.1  l-0.1-0.2l-0.1-0.1l-0.1-0.1l-0.1-0.1l-0.1-0.1l-0.1,0l-0.1,0l0,0.1l-0.1,0l-0.1,0l-0.1,0.1l0,0.1l0,0.3l0.1,0.2l0.4,0.1l0.1,0.1  l0,0l0,0.1l0,0l0,0l0,0l0.1,0.1l0,0l0,0.1l0.4,0.4l0.1,0.1l0.2,0l0.1,0.1L-402.1,386.3l0.3,0.6l0.2,0.1l-0.1-0.3L-402.1,386.3z   M-396.9,390.8L-396.9,390.8l-0.1,0.1l0,0.1l0.1,0l0.1,0l0.1-0.1l0.1,0l0.1,0l0-0.1l-0.1,0L-396.9,390.8L-396.9,390.8z   M-395.9,391.5L-395.9,391.5l-0.1,0h0l-0.1,0.1l0,0l0,0l-0.1,0l0,0l0,0l0,0l0,0l0,0.1l0,0l0,0l0.1,0l0.1,0l0-0.1l0.1-0.1  L-395.9,391.5L-395.9,391.5L-395.9,391.5z M-408.1,387.5L-408.1,387.5l-0.1,0.2l0,0l0,0l0,0l0,0l0,0l0,0l0,0l0,0.1l0,0.1l0.1,0.1  l0.1,0.1l0.2-0.2l0-0.2l-0.1-0.2L-408.1,387.5L-408.1,387.5L-408.1,387.5z M-409.6,386.4L-409.6,386.4L-409.6,386.4L-409.6,386.4  l0.1,0.1l0.1,0l0.1,0l0.1-0.1l0-0.1v-0.1l0,0l0,0l-0.1,0l-0.1,0L-409.6,386.4L-409.6,386.4z M-407.1,388.8l0.1,0l0.1,0l0.1,0  l0.1,0.1l0.1,0.2l0.1,0l0.1,0l0.1,0l0.1,0.1l0,0l0.1,0l0.1-0.1l0.1-0.1l0.1-0.1l0.1-0.4l0-0.1l-0.1-0.1l0-0.1l0-0.1l0-0.1l0,0  l-0.1,0l-0.2,0l-0.7,0l-0.2,0.1l-0.1,0.1l0,0.2L-407.1,388.8L-407.1,388.8z M-404.6,384.3L-404.6,384.3L-404.6,384.3l0.1,0l0,0l0,0  L-404.6,384.3l0-0.1l-0.1,0L-404.6,384.3L-404.6,384.3z M-409.1,382L-409.1,382l0.1,0.1l0-0.1L-409.1,382L-409.1,382L-409.1,382  L-409.1,382L-409.1,382L-409.1,382L-409.1,382z M-408.7,382L-408.7,382L-408.7,382L-408.7,382z M-399.6,387.5L-399.6,387.5  L-399.6,387.5l-0.3-0.2l-0.1-0.1l-0.1-0.1l-0.1,0l0,0.1l0,0.1l0,0.1l-0.1,0h0l0,0.1l0,0.1l0.9,1.3l0.2,0.2l0,0.1l0,0.1l0,0.1l0,0  l0,0l0,0l0-0.1l0-0.1l0-0.1l0-0.1l0,0l0,0l-0.1-0.3l-0.1-0.2l0-0.1l0-0.1l-0.1-0.1l0-0.1l0-0.1l0-0.1L-399.6,387.5L-399.6,387.5  L-399.6,387.5L-399.6,387.5L-399.6,387.5z M-402.9,395.6L-402.9,395.6L-402.9,395.6L-402.9,395.6L-402.9,395.6L-402.9,395.6  L-402.9,395.6l0.1,0l0-0.1l0,0l0,0l0,0l0,0l0,0l0,0l0,0l0,0l0,0l0,0l0-0.1h0l0,0l0,0l0,0l0,0.1l0,0L-402.9,395.6L-402.9,395.6z   M-399.9,391.8L-399.9,391.8L-399.9,391.8L-399.9,391.8l0,0.1l0.1,0.1L-399.9,391.8L-399.9,391.8L-399.9,391.8L-399.9,391.8z   M-400.4,388.5L-400.4,388.5l-0.1-0.1h-0.2l-0.1,0l-0.1-0.1l-0.2-0.2l-0.1,0l-0.1,0l-0.1,0l0,0l0,0l0,0.1l0,0.1l0,0l0,0l0,0.1l0,0  l0,0l-0.1,0l0,0l-0.1,0.1l-0.1,0l0-0.1l0-0.1l0.1-0.1l0.1-0.1l0,0l-0.1-0.2l0-0.1l0.1,0l0,0l0,0l-0.1,0l-0.1,0l0,0l-0.1,0l-0.1,0  l-0.2,0l-0.1,0l-0.1,0l-0.1,0l0,0l0,0.1l0.1,0.7l0.1,0.1l0.1,0l0,0l0,0.1l0,0.1l-0.1,0.3l0,0.2l0,0.1l-0.2,0.2l0,0l0,0l0,0.2l0,0  l0.1,0l0.1,0l0.2,0l0,0.1l0,0.1l-0.1,0l-0.1,0.1l0.1,0.1l0,0.1l0,0l-0.1,0l-0.1,0l0,0.1l0,0.1l-0.1,0l0,0.1l0,0.2l0,0.1l0,0.1l0,0.1  l0,0.1v0.1l0,0.1l0,0l-0.1,0l-0.1,0.1l0,0.1l0,0.1l0,0.1l0.1,0.1l0.1-0.1l0.5-0.5l0.3-0.4l0-0.1l0,0l0.1,0l0.1,0l0.1-0.1l0-0.1  l0.1-0.2l0.2-0.3l0.1-0.1l0.1,0l0.1,0l0.1,0l0.1,0l0,0l0.2,0.1l0,0l0.1,0.1l0.2,0.2l0.1,0.1l0.1,0.2l0.1,0l0.1,0l0.1,0l-0.1,0l0,0.1  l0,0.1l0.2,0.1l0.1,0.1l0.1,0.1l0.1,0.1h0l0,0l0-0.1l0.1,0.2l-0.1,0l-0.1,0l0,0.1l0,0.1l0.1,0.1l0.1,0.1l0.1,0.1l0.1-0.1l0.2,0.1  l0.1,0l0.1,0l0.1,0.2l0.1,0.1l0.2,0.1l0.1,0.1l0.2,0.1l0.2,0.2l0.1,0.1l0.1,0.2l0.1,0.1l0.1,0l0-0.1l0-0.1l0-0.1l0-0.1l0-0.1l0-0.2  V392l0-0.1l-0.1-0.3l-0.1-0.2l0-0.1l0.1-0.1l-0.1-0.1l0,0l0-0.1l0.1,0.1l0.1,0.2l0.1,0.1l0-0.1l-0.1-0.1l-0.3-0.3l0-0.1l-0.1-0.2  l0-0.1l0,0l-0.1,0l0,0l-0.3-0.5l-0.1-0.1v0l0-0.1l-0.1,0l-0.1,0l-0.1,0l-0.2-0.2l-0.1-0.1l0,0.1l0,0.3l-0.2-0.2l-0.4-0.6l0-0.1  l-0.1,0l-0.1,0l0,0l-0.1,0l-0.1,0l0,0l0-0.1l-0.1,0l-0.2,0.1l0-0.1l0-0.1l0,0l0.1,0v0l-0.1-0.1l-0.1-0.1L-400.4,388.5L-400.4,388.5z   M-402.4,394.1L-402.4,394.1L-402.4,394.1L-402.4,394.1L-402.4,394.1L-402.4,394.1l-0.1,0l0,0.1l0,0l-0.1,0l0,0l0,0l0,0l0,0l0,0  l0.1,0l0.1,0l0-0.1l0,0l0,0L-402.4,394.1z M-401.9,393.8L-401.9,393.8L-401.9,393.8l0.1-0.1l0,0l0,0l0-0.1l0,0l0,0h-0.1l-0.1,0  L-401.9,393.8L-401.9,393.8L-401.9,393.8L-401.9,393.8z M-398.5,395.1l0,0.1l0,0.1l0,0.1l0.1,0l0-0.1l0,0L-398.5,395.1L-398.5,395.1  L-398.5,395.1z M-399.1,396l-0.2-0.5l0-0.1l-0.1,0l-0.1,0.1l-0.1,0.1l0,0.1l0,0.1l0,0.1l0.1,0.4l0.1,0.1l0,0l0.4,0l0,0l0-0.1  l-0.1-0.1L-399.1,396z M-405.4,383L-405.4,383l-0.1,0.1l0,0.1l0,0V383L-405.4,383L-405.4,383z M-417,424.4L-417,424.4l0,0.1l0,0  L-417,424.4L-417,424.4L-417,424.4L-417,424.4z M-416.7,394.6L-416.7,394.6L-416.7,394.6L-416.7,394.6L-416.7,394.6l0,0.2l0,0  L-416.7,394.6L-416.7,394.6L-416.7,394.6z M-416.9,429.6L-416.9,429.6l-0.2,0l0,0l0,0.1l-0.1,0.1l0,0.1l0.1,0.1l0.1,0l0,0l0,0  l0.1-0.1l0.1,0l0-0.1v0l0,0L-416.9,429.6L-416.9,429.6z M-416.5,425.2L-416.5,425.2L-416.5,425.2l0.1-0.1l-0.1-0.1l0,0l0,0v0l0,0  l0,0l0,0l0,0l0,0l0,0l0,0v0l0,0l0,0l0,0l0,0l0,0h0l0,0L-416.5,425.2L-416.5,425.2L-416.5,425.2L-416.5,425.2L-416.5,425.2  L-416.5,425.2L-416.5,425.2l-0.1,0L-416.5,425.2L-416.5,425.2z M-416.5,429L-416.5,429l0.1-0.1l0-0.1l-0.1-0.1l-0.1,0l-0.1,0  l-0.2,0.1l-0.1,0.1l0,0.1l0.1,0l0.1,0l0.1,0L-416.5,429z M-415.9,396.4L-415.9,396.4l0.1-0.1l0-0.1l0,0l0,0l-0.2,0.1l0,0l0,0  L-415.9,396.4L-415.9,396.4z M-416.2,428.5l-0.1,0.1l0,0.2l0.1,0.1l0.1-0.1l0-0.1L-416.2,428.5L-416.2,428.5z M-413.3,427l-0.1,0  l-0.3,0l-0.1,0l-0.3-0.1l-0.1,0.1l-0.1,0.1l-0.1,0l-0.1-0.1l-0.1-0.3l-0.1-0.1l-0.1,0l-0.1-0.1l-0.1,0l-0.1,0l-0.1,0l-0.2,0l-0.1,0  l-0.1,0l-0.1,0.2l-0.1,0l-0.1,0l-0.2,0.1l-0.2,0.1l-0.1,0.1l-0.1,0.1l0,0.1l0,0.1l0.1,0.1l0,0l0.1,0l0,0l0,0l0,0l0,0l0,0l0.1,0  l0.1,0l0.1-0.1l0.2-0.1l0.1,0l0.2,0l0,0l0.1,0.1l0,0l0,0l0,0l0.1-0.1l0.5-0.2l0.2,0l0.1,0.2l0,0.1l0,0.1l0,0.1l0,0.1l0.1,0l0.1,0  l0.1,0l0.1,0l0.2-0.2l0.1,0l0,0l0.2,0l0,0l0-0.1l0-0.1l0,0l0.1,0l0.1,0l0.1-0.1l0-0.1L-413.3,427z M-416.3,429.7l-0.1-0.1l-0.1,0  l-0.1,0l-0.1,0l-0.1,0.1l0,0.1l0,0.1l0.1,0.1l0.1,0.1l0,0l0.2,0.1l0.1,0l0.1-0.1l0-0.1L-416.3,429.7z M-414.4,428.1L-414.4,428.1  l-0.1-0.1l-0.1,0l-0.1,0l-0.1,0l-0.1,0.1l0,0.1l0,0.1l0.1,0.1l0.1,0l0.2-0.1l0.2,0l0,0l0-0.1L-414.4,428.1L-414.4,428.1z   M-412.6,392.1l-0.2-0.1l-0.1,0l-0.1,0l-0.1,0l-0.1,0.1l0,0.1l0,0l0,0l0,0l0,0l0,0l0,0l0.1,0l0.1,0l0.1,0l0.1-0.1L-412.6,392.1  L-412.6,392.1z M-415.4,428.9l-0.1,0.1l0,0l0,0l0,0l0.1,0l0.1,0l0,0l0,0l0,0l0,0L-415.4,428.9l0.1,0L-415.4,428.9L-415.4,428.9z   M-415.9,397.4L-415.9,397.4L-415.9,397.4l0-0.1l-0.1,0.1L-415.9,397.4L-415.9,397.4z M-413.2,426.8L-413.2,426.8l-0.1,0l-0.1,0.1  l0,0.1l0,0.1l0,0h0.2l0,0l0-0.1L-413.2,426.8L-413.2,426.8z M-417.3,430.1L-417.3,430.1L-417.3,430.1L-417.3,430.1L-417.3,430.1  L-417.3,430.1L-417.3,430.1L-417.3,430.1l0,0.1l0,0.1l0,0l0,0l0,0L-417.3,430.1L-417.3,430.1z M-416.6,381.2l0.2,0.1l0.2,0l0.1,0  l0.1-0.1l0-0.1l-0.1,0l-0.1,0l-0.2,0L-416.6,381.2l0-0.1l-0.1-0.1l0,0l0,0L-416.6,381.2L-416.6,381.2z M-416.1,426L-416.1,426  L-416.1,426L-416.1,426L-416.1,426l-0.1,0l-0.1,0l0,0.1l0,0l0,0l0,0l0,0l0,0l0,0l0,0l0,0l0,0L-416.1,426L-416.1,426L-416.1,426  L-416.1,426L-416.1,426z M-417,385.5l0.1,0.2l0,0.3l0,0.1l0,0l0,0l0,0l0,0.1l0.1,0.2l0,0.1l0,0.1l0,0.1l0,0.1l0,0.1l0.1,0l0.1,0  l0.1,0.1l0.1,0.1l0.1,0.2l0.2,0.2l0.1,0.1l0,0.1l0,0.1l-0.1,0.2l0,0.1l0.1,0.1l0.1,0l0.2,0.4l0,0l0,0l0.2,0.1l0.1,0.1l0.1,0.1  l0.1,0.1l0.1,0.1v-0.1l0,0l0.1,0.1l0,0l0,0.1l0,0l0,0l0,0l-0.1,0l-0.1,0l-0.1-0.1l0-0.1l0,0.2l0,0.2l0.1,0.1l0.1,0.1h0.4l0.1,0  l0.1,0.1l0.1,0l0.2-0.3l0.1-0.1l0.1,0l0.1,0l0.1-0.1l0.1,0l0.1,0.1l0.2,0.1v-0.1l0,0l0,0l-0.1,0l0-0.1l0-0.1l0-0.1l0,0l0-0.1l0.1,0  l0.2,0.1v0l-0.1-0.1l-0.1-0.2l0-0.2l0.1-0.1l0-0.1l0,0l0,0l0,0l0,0l0,0l0,0l0,0l0-0.1l0-0.1l0,0l0,0l0,0l0.1-0.1l0.1-0.1l0.2-0.3  l0,0l0,0l0,0l0-0.2l0,0l-0.1-0.1l0-0.1l0-0.1l0-0.1l0,0l-0.2-0.2l-0.1-0.1l0-0.4l0-0.2h0l0-0.1l0.1-0.2l0-0.1l-0.1-0.4l0-0.1l0-0.1  l0.1-0.1l0.2-0.1l0.1-0.1l0-0.1l-0.1-0.1l-0.1-0.1l-0.1,0l-0.1,0l-0.1,0l-0.1,0l-0.1,0l-0.1,0l0-0.1l0-0.1l0-0.1l0-0.1l0-0.1  l-0.1-0.1l-0.1-0.1l-0.1,0l-0.1-0.1l-0.3-0.4l-0.7-0.6l-0.1-0.2h0l0,0.1l-0.1,0l-0.1,0l-0.1,0l0,0l0,0l0,0l0,0l0,0.1l0,0h0l0-0.2  l-0.1-0.1l-0.4,0l-0.1-0.1l-0.1-0.2l-0.1-0.1l-0.1,0l-0.1-0.1l-0.1-0.1l0-0.1l0.1,0l0,0l0,0l0-0.1l0,0l0,0l0,0l0,0l-0.1,0l0,0.1l0,0  l-0.1,0l-0.1-0.1l-0.2,0.1l-0.5,0.1l-0.2,0.1l-0.1,0l-0.1,0l-0.1-0.1l-0.1,0l-0.1,0.1l-0.1-0.1l-0.1,0l-0.2,0l-0.1,0l-0.1,0  l-0.1-0.1l-0.1,0l-0.1,0l-0.1,0l-0.4,0l-0.4-0.1l-0.1,0l-0.1,0l-0.1,0.1l-0.1,0.1l-0.1,0.1l0,0.1l0,0.1l0,0.1l0.1,0.1l0.1,0.1l0.1,0  l0.1,0l0.1-0.1l0,0l0,0l0,0l0,0l0,0l0.1,0l0,0l0.1,0l0,0.1l0,0.4l0.1,0.2l0.1,0.2l0.2,0.1l-0.1,0.1l0.1,0l0.2,0l0.1,0l0.1,0.1  l0.3,0.1l0.1,0.2l0.2,0.4l0.3,0.4l0.1,0.2L-417,385.5z M-418.1,376.8L-418.1,376.8l0.1,0l0,0L-418.1,376.8L-418.1,376.8  L-418.1,376.8l-0.1,0l0,0.1l0,0L-418.1,376.8L-418.1,376.8z M-413.5,390.9L-413.5,390.9l0.1,0.2l0.1,0.1l0.1,0l0.1-0.1l0-0.1l0-0.1  l0-0.1l-0.2-0.3l-0.1,0l0,0l0,0l0,0.1l0,0l0,0l0,0.1L-413.5,390.9L-413.5,390.9z M-412.3,391.5L-412.3,391.5l-0.1-0.1l0,0l-0.1,0  l0,0.1l0,0.1l-0.1,0.2l0,0l0,0l0,0l0.1,0l0.1,0l0-0.1l0-0.1L-412.3,391.5L-412.3,391.5z M-415.8,426L-415.8,426l0-0.1l-0.1,0l0,0  l0,0l0,0.1l0,0.1L-415.8,426L-415.8,426L-415.8,426L-415.8,426L-415.8,426L-415.8,426L-415.8,426L-415.8,426L-415.8,426L-415.8,426  L-415.8,426L-415.8,426l-0.1,0l0,0l0,0l0,0l0,0L-415.8,426L-415.8,426L-415.8,426L-415.8,426L-415.8,426L-415.8,426z M-415,390.2  L-415,390.2l0.1,0l0,0l0-0.1l-0.1-0.1l0,0l0,0l0,0l0-0.2l-0.1-0.1l-0.2-0.1l-0.1,0.2l0.1,0.2l0.1,0.1l0.1,0.1l0,0.1l0,0.1  L-415,390.2L-415,390.2z M-416.3,426.3L-416.3,426.3l0.1-0.1l0,0l0,0l0,0v0l0,0l0,0l0,0l0,0L-416.3,426.3L-416.3,426.3L-416.3,426.3  L-416.3,426.3L-416.3,426.3L-416.3,426.3L-416.3,426.3L-416.3,426.3L-416.3,426.3L-416.3,426.3z M-415.6,390L-415.6,390L-415.6,390  L-415.6,390L-415.6,390L-415.6,390L-415.6,390l0.2,0l0-0.1l0,0l0-0.1l-0.1,0V390L-415.6,390L-415.6,390L-415.6,390L-415.6,390  L-415.6,390z M-414.1,405.4L-414.1,405.4L-414.1,405.4L-414.1,405.4L-414.1,405.4l-0.1,0.1l-0.1,0l0,0l-0.1,0.1l0,0l0.1,0l0.1-0.1  L-414.1,405.4L-414.1,405.4L-414.1,405.4L-414.1,405.4L-414.1,405.4z M-415.1,397.8L-415.1,397.8L-415.1,397.8l-0.2,0l-0.2,0.1l0,0  l0,0.2l0.1,0.1l0.2,0l0.1,0l0-0.1l0.1-0.2V397.8z M-415.1,382L-415.1,382l0-0.2l0-0.1l0,0l-0.1,0l-0.1,0l0,0l0,0l0,0L-415.1,382  L-415.1,382z M-409.7,425.3L-409.7,425.3L-409.7,425.3L-409.7,425.3l-0.1-0.1l0,0l0,0l-0.1,0l0,0l0,0l0,0l0.1,0h0l0,0l0,0l0,0l0,0  L-409.7,425.3L-409.7,425.3L-409.7,425.3L-409.7,425.3z M-410.2,426.8l-0.2,0.1l-0.2,0l-0.1-0.1l-0.3-0.2l-0.1,0l0,0.1l0.1,0.1  l0.3,0.2l0.1,0l0.3-0.1L-410.2,426.8L-410.2,426.8L-410.2,426.8L-410.2,426.8z M-409.8,422.6L-409.8,422.6L-409.8,422.6l-0.2,0l0,0  l-0.1,0.1l0,0.1l0,0l0.1,0l0,0L-409.8,422.6L-409.8,422.6L-409.8,422.6L-409.8,422.6z M-408,423.3L-408,423.3l-0.2-0.1l-0.1,0l0,0  l0,0l0,0l-0.1,0l-0.3,0l-0.1,0l0-0.1l0-0.1l0,0l-0.1,0l-0.1,0l-0.1,0l0,0l-0.1-0.1l-0.1,0l-0.1,0l-0.2,0l-0.1,0l-0.1,0l-0.1,0.1  l-0.2,0.1l-0.1,0.1l0,0l-0.6,0l-0.1,0l-0.1,0.1l0,0.2l0,0.2l0.1,0l0.1,0l0.1,0.1l0,0.1l0,0.3l0.4,0.3l0,0l0,0.1l0,0.1l0,0l0.2,0h0.3  l0.1,0l0.4-0.1l0.1,0l0.1,0l0.1,0l0.1-0.1l0-0.3l0-0.1l0-0.1l0.1-0.1l0.1-0.1l0.1-0.1l0.3,0l0.1,0l0.1-0.1l0-0.1L-408,423.3z   M-421.8,409.9L-421.8,409.9L-421.8,409.9L-421.8,409.9z M-411.4,385.5L-411.4,385.5l-0.1,0l-0.1,0l0,0.1l0,0.1l0,0l0,0l0,0.1l0,0  l0,0l0,0l0,0l0,0l0,0l0,0l0,0l0,0l0,0l0-0.1L-411.4,385.5L-411.4,385.5z M-412.4,426.9L-412.4,426.9L-412.4,426.9L-412.4,426.9  L-412.4,426.9l0-0.1l-0.1,0l-0.1,0.1l0,0.1l0,0.1l0,0l0,0l0.1,0L-412.4,426.9L-412.4,426.9L-412.4,426.9L-412.4,426.9z   M-411.5,426.8L-411.5,426.8L-411.5,426.8l-0.1,0l0,0l0,0l0,0L-411.5,426.8L-411.5,426.8l-0.2-0.1l0,0l0,0.1l0,0h0l0,0l0,0l0,0  l0,0.1l0,0l0,0l0,0l0,0l0,0l0.1,0l0.2,0l0-0.1l0.1-0.1L-411.5,426.8L-411.5,426.8L-411.5,426.8z M-382.4,419.5l-0.2-0.1l0,0l0.1-0.1  l0-0.3l0-0.1l-0.1-0.1l0,0l0-0.1l0,0l0.1,0l0.1,0l0.1-0.1l0-0.1l0-0.1l0-0.3l-0.1-0.3l0-0.1l0-0.3l0-0.1l0-0.1l-0.1,0l-0.3,0  l-0.1-0.1l-0.1-0.2l0-0.1l0,0l-0.2-0.1l-0.1-0.1l-0.1-0.1l0-0.2l0-0.2l0.1-0.1l0.2-0.2l0.1-0.1l-0.1-0.2l0-0.2l0.1-0.2l0.1-0.1  l-0.1-0.1l0-0.1l0-0.1l0-0.5l0-0.1l-0.2,0.2l-0.2,0.1l-0.1,0.1l-0.1,0l-0.1-0.1l0-0.1l0-0.1l0.2-0.2l0.1-0.2l-0.1-0.1l-0.1,0l0,0  l-0.1-0.2l0,0l0,0l0,0l0.1,0l0,0l0.1-0.2l0-0.1l0-0.1l-0.1,0l0,0l0-0.1l0-0.1l0.1,0l0.2,0l0,0l0,0l0,0l0-0.1l0-0.1l-0.1-0.1l0-0.1  l0,0l0,0h0l0,0l0,0l0,0l-0.4-0.1l-0.1-0.1l-0.1,0.1l-0.1,0l-0.1,0l-0.1,0l0,0l0,0l0.1,0.1l-0.1,0h-0.1l-0.1,0l-0.2,0l-0.1,0  l-0.1-0.1l-0.1-0.3l-0.1-0.1l0-0.1l0.1-0.1l0.2-0.1l0.1-0.1l0.1,0l0.1,0l0.1,0l0.1,0l0,0v0l0,0l0,0v0l-0.1-0.1l0-0.1v-0.1l0,0  l0.2-0.2l0.1,0l0.1-0.1l0.1-0.1l0-0.1l0,0l0,0l0,0l-0.1,0l0-0.1l0-0.1l-0.1-0.2l0-0.1l-0.1-0.1l-0.4-0.4l0-0.1l-0.1-0.1l0,0l-0.1,0  l-0.1,0l-0.1,0l0-0.1l0-0.3v-0.2l0-0.3l0-0.1l0.1-0.2l0-0.1l0-0.1l-0.1,0l-0.1,0.1l-0.2,0.2l-0.2,0.1l-0.1,0.1l-0.1,0l-0.1,0l0,0  l-0.3-0.3l-0.1-0.2l0-0.2l0-0.2l-0.2,0.1l-0.1,0l-0.1,0l-0.1,0l-0.1,0l0-0.1l0-0.1l0.1-0.1l0.2,0l0.1,0l0,0l0,0l0-0.1v-0.1h0l0,0  l-0.1,0.1l0-0.1l-0.1-0.1l0-0.1l0-0.1l-0.1,0h-0.1l-0.1,0l-0.2-0.2l-0.1-0.1l-0.3,0l-0.1,0l-0.1,0l-0.1-0.1l-0.1,0l-0.1,0l-0.1,0  l0-0.1l0,0l-0.1,0l0,0l0,0l0,0l0,0l-0.1,0l-0.2-0.1l-0.1-0.1l-0.1-0.1l0-0.2l-0.1-0.2l0-0.2l0-0.1l-0.1,0l-0.2-0.1l-0.2-0.1  l-0.1-0.1l-0.1-0.1l-0.1-0.1l0,0.1l-0.3,0.5l0,0.1l0,0.1l0,0.1l0.2,0.8l0,0.1l0,0.1l0.1,0.3l0,0.1v0.2l0,0l0,0l0,0l0,0.2l0.1,0.2  l0,0.2l0.1,0.1l0,0.1l0,0.1l0,0.1l0,0.1l0,0.1l0,0.1l0,0.1l0,0.1l0,0.6l0,0.2l0,0.1l-0.1,0.1l-0.3,0.2l-0.1,0l-0.1,0l-0.3-0.1  l-0.4,0l-0.1,0l-0.1-0.1l-0.2-0.2l-0.1-0.1l-0.1-0.1l-0.1,0l-0.1,0l0,0l0,0l0,0.1l0,0.1l-0.1,0.1l0,0.1l0,0.1l0,0l0,0l0,0l0,0.1  l0,0.5l-0.1,0.1l-0.1,0.1l-0.1,0l-0.1,0.1l-0.1,0l-0.1-0.1l-0.1-0.2l-0.1-0.1l-0.1-0.2l0,0l-0.5-0.3l-0.1,0l0-0.1l-0.1-0.1l-0.1-0.1  l-0.1,0l-0.1,0l-0.1,0l-0.1,0l-0.1,0l-0.1,0l-0.1,0l-0.1,0.1l0,0.1l-0.1,0.1l0,0.1l0,0.3v0.5l0,0.3l0,0.1l0,0.1l-0.1,0.1l-0.1,0.1  l-0.1,0.1l0,0.1l0,0.1l0.1,0.2l0,0.1l0,0.1l-0.1,0.1l0,0l0,0.1l0,0.2l0,0l0,0l0,0l0,0l0,0l-0.1,0l0,0l-0.1,0.1l0,0l-0.2-0.1l-0.1,0  l-0.1,0.1l0,0.2h0v-0.1l0-0.1l0-0.1l0.1-0.1l-0.3,0l-0.1,0l-0.1,0l-0.2-0.2l-0.1-0.1l-0.1,0l0,0l0,0l-0.1,0l0,0l0-0.1l0-0.1l0-0.1  l-0.2,0l-0.2,0.1l-0.2,0.2l-0.2,0.2l-0.1,0.2l-0.1,0.2l0,0.1l0,0.2l0,0.1l-0.1,0.1l0,0l0,0l0,0l0,0l0,0.1l0,0l0,0.1l0,0.1l0,0.1  l0,0.1l0,0.1l0,0.1l0,0.1l-0.1,0.1l-0.1,0.2l-0.1,0.1l-0.2,0.1l-0.3,0l-0.7,0l-0.2,0l-0.2,0.1l-0.1,0.1l-0.1,0.2l-0.1,0.1l-0.1,0  l-0.1,0l-0.8,0.6l-0.2,0.1l0,0l-0.1,0l-0.1,0l0,0l0-0.1l0-0.1l0-0.1l0-0.2l0.1-0.1l0.3,0l0.1-0.1l0.6-0.6l0.1-0.1l0-0.1l-0.1-0.3  l0-0.7l-0.1-0.3l-0.1-0.3l-0.1-0.2l-0.2-0.3l0-0.1l0,0l-0.1-0.2h0l0-0.1l0,0l0,0h0l0-0.1l0-0.1l-0.1,0l-0.5-0.1l0-0.1l-0.1,0l-0.1,0  l0.1,0.1l-0.1,0.1l0,0.1l0,0.1l0,0.1l0,0.1l-0.1,0.1l-0.1-0.1l0,0l0,0l-0.1,0l0,0l-0.1,0l0-0.1l0-0.3l-0.1,0l-0.1,0l-0.1,0l-0.1-0.1  l-0.1-0.1l0,0l0,0l-0.1,0l-0.1,0l0,0l0,0.1l0,0.1l0.2,0.2l0,0.1l-0.1,0l-0.1,0.1l0,0l0,0l0,0l0,0l0,0l-0.1,0l0,0.1l-0.1,0.3l0,0  l-0.1,0.1l-0.1,0.1l-0.1,0.1l-0.3,0l-0.1,0l0,0l-0.1-0.1l0,0l-0.1,0l-0.2,0.1l-0.5,0.1l-0.1,0l-0.1,0.1l-0.1,0.1l-0.1,0.1l0,0.1  l0,0.1l-0.1,0.2l0,0.1l0,0.1l0,0.1l0,0.1l0,0.1l0,0l0,0l0,0l0,0l-0.1,0.1l0,0v0l0,0.1l0,0l0.2,0.1l0.1,0.1l-0.1,0.1l-0.3,0.3  l-0.1,0.1l-0.1,0l-0.1,0l-0.1,0l-0.1,0l-0.1,0.1l-0.6,0.1l-0.1,0l-0.1,0l-0.1-0.1l0-0.1l0-0.1l-0.1,0.1l-0.1,0.2l-0.1,0l-0.2,0.1  l-0.5,0.1l-0.1,0l0,0l0,0l0,0l0,0.1l-0.1-0.1l-0.1,0l-0.5,0.2l-0.2,0.1l-0.2,0l-0.2,0.1l-0.1,0.1l-0.1,0.1l-0.1,0.3l-0.5,0.6  l-0.1,0.3l-0.1,0.2l0,0.1l0.1,0.1l0,0.1l0,0.3l-0.1,0.2l0,0.1l0.2,0.1l-0.1,0.1l-0.1,0.1l-0.1,0.1l-0.1,0.1l-0.1,0.1l0,0.1l0,0.1  l0,0.1l-0.1,0.1l0,0.1l0,0.1l0,0.2l-0.1,0.3l0,0.2l0.1,0.1l0.1,0l0,0l0,0.1l0,0l0,0l-0.2,0.1l-0.4,0.4l-0.2,0.5l0,0.5l0.2,0.5  l0.1,0.1l0.5,0.2l0.3,0.1l0.1,0l0.1,0l0,0l0.1-0.1l0.1-0.1l0.1-0.1l0.2-0.5l0.2-0.3l0-0.1l0-0.3l0.1-0.5l0.1-0.3l0.1-0.2l0.1,0  l0.1,0l0.1,0l0.1,0l0.1-0.2l0.1-0.1l0-0.1l-0.1-0.1l-0.1-0.1l0-0.1l0.1-0.1l0.3-0.2l0.1-0.1l0-0.1l0.1-0.1l0.1-0.1l0.1,0l0,0l0,0.2  l0.1,0l0.1-0.1l0.1-0.1l0-0.1l0-0.1l-0.1,0l-0.1,0l-0.1,0l0-0.1l0.1-0.1l0.2-0.3l0.2-0.2l0.5-0.4l0.1-0.1l0.1,0l0.1-0.1l0.1,0h0.3  l0.1,0l0.1,0.1l0,0l0.2,0l0.1,0l0.1,0.1l0,0.1l0,0.1l0,0.1l0,0.1l0,0.1l0,0.4l0,0.1l0.1,0.1l0,0.1l0,0.1l-0.1-0.1l-0.1,0l0,0.1  l0,0.1l0,0l0,0l0,0l0,0l0,0l0,0l0,0l0,0l0,0l0,0l0,0l0,0.1l0.1,0l0.1,0l0.1,0l0.1,0l0.1-0.1l0,0l0-0.1l0-0.1l0-0.1l0.1-0.1l0.1-0.1  l0.1,0l0.1,0.1l0.1,0.2l0,0.1l0.1,0l0,0l0.1,0l0,0l0,0l0.1,0l0-0.1l0-0.2l0-0.1l0-0.1l0.1-0.1l0-0.1v-0.1l0,0l0,0l0,0l0,0l0.1-0.1  l0,0l0-0.1l0-0.1l0-0.1l0-0.1l0.2-0.2l0.1-0.2l0.1-0.1l0.1,0l0,0.1l0,0.2l0,0.1l0.1,0.1l0.1,0l0.1,0.1l0,0.1l-0.1,0.1l-0.1,0l-0.1,0  l-0.1,0l0,0.1l0,0.1l0.1,0.1l0.2,0.2l0.1,0l0.1,0l0.1,0l0-0.1l0-0.1l0.1-0.1l0.1,0l0.1,0l0,0l0,0.1v0.1l0,0l0.1,0.1l0.1,0.1l0.2,0.2  l0.1,0.1l0.2,0.1l0.2,0.1l0.1,0l0.1,0l0.1-0.1l0-0.1l0-0.1l0-0.1l-0.1-0.1l-0.1-0.1l-0.1-0.1l0-0.1l-0.1-0.1l-0.1-0.1l-0.1-0.1  l0.1-0.1l0.1,0l0.1,0.1l0,0l0-0.1l0-0.1l0,0l0.1,0l0.2,0l0.1,0l0.1,0l0.1-0.1l0-0.1l0.1-0.3l-0.1-0.2l-0.2-0.2l0-0.2l0.1-0.1  l0.1-0.1l0.1-0.1l0.1,0l0.4,0l0.1,0l0.3,0.1l0.1,0l0.1,0l0.1,0.1l0.3,0.4l0.1,0.1l0.1,0l0.3,0l0.1,0l0.1,0l0,0l0.3,0.1l0.3,0.2l0,0  l0.3,0.2l0.2,0.2l0.3,0.6l0.1,0.1l0.1,0l0.1,0.1l0.1,0l0.2,0l0.1,0l0.1,0.1l-0.1,0.2l0,0.1l0,0.2l0,0.2l0,0.1l0,0.1l-0.1,0.1  l-0.1,0.2l-0.1,0.1l-0.2,0.2l-0.2,0.1l-0.1,0.1l-0.1,0l-0.1,0.1l-0.2,0.6l-0.1,0.3l0,0.6l0,0l0,0.1l0,0.1l0,0.1l0,0.1l0,0l0,0l0,0  l0,0l0,0l0,0l0.1-0.1l0,0l0.1,0.1l0,0.1l0,0.3l0.1,0.4l0,0.1v0.5l0,0l0,0l-0.1,0l0,0l0,0.1l0,0.1l0,0.1l0.1,0.3l0.1,0.2l0.2,0.2  l0.4,0.4l0.1,0.1l0.1,0.2l0.1,0.1l0.2,0.1l0.1,0.1l1,0.5l0.8,0.5l0.1,0l0,0l0,0l0,0.1l0,0l0.1,0l0.2,0.1l0,0l0.4,0.2l0.1,0.1l0.1,0  l0.1,0h0.1l0.3,0.1l0.2,0l0.6,0.3l0.1,0l0.2-0.1l0.3,0.1l0.1,0l0.1-0.1l0.3-1l0.1-0.1l0-0.1l0-0.2l0-0.1l0.1,0l0.1,0l0.1,0.1l0.2,0  l0.1,0l0.1,0.1l0,0.1l0.1,0.2l0,0.1l0,0.2l-0.1,0.2l-0.2,0.3l-0.1,0.2l0,0.1l0,0.1l0,0.1l-0.1,0.1l0,0.1l0.1,0.1l0,0l0.1,0l0.1,0  l0,0.1l0,0.1l0,0.1l0,0l0,0l0.1,0l0.1,0l0.1,0.1l0,0.1l0,0.1l0,0.5l0,0.1l0.1,0l0.3,0l0.1,0l0.1,0l0.1-0.1l0.1-0.1l0.4-0.6l0.6-0.8  l0.4-0.5l0.1-0.3l0-0.2l0,0l0-0.1l0-0.1l0-0.1l0.1-0.1l0-0.1l0-0.1l0-0.1l-0.3-0.8l-0.1-0.1l0,0l0-0.1l0-0.1l0-0.1l0,0l-0.1-0.1  l-0.2-0.4l0-0.1l0-0.2l0-0.1l-0.1-0.1l-0.1,0l-0.1,0.1l-0.2-0.2l-0.3-0.3l-0.2-0.1l0,0.2l-0.1,0l-0.1,0l0-0.1l0-0.1l-0.1-0.2l0-0.1  l0-0.3l0.1-0.3l0.1-0.3l0.1-0.2l0.3-0.3l0.1-0.1l0-0.1l0-0.3l0.1-0.2l0.2-0.1l0.2,0l0.2-0.1l0.2-0.2l0-0.1l0-0.1l0.1-0.1l0-0.1  l0-0.1l0-0.4l0-0.1l0.1-0.1l0.1-0.1l0.3-0.2l0.4-0.3l0.1,0l0.1,0l0,0.1v0.1l0,0.1l0,0.2l0.2,0.6l0,0.2l0,0.1l0.1,0.1l0.4,0.3  l0.1,0.1l0,0.1l-0.1,0.3l0,0.1l0.2,0.3l0.1,0.1l0.2,0l0.1,0l0,0.1v0.2l0,0.1l0.1,0.2l0,0.1l-0.1,0.4l0,0.1l0.1,0.7l0,0.1l0.1,0.1  l0.1,0.3l0,0.1l0,0.1v0.1l0,0.1l0.2,0.1l0,0.1l0,0.3l0,0.1l0.1,0l0-0.1l0-0.5l0.1-0.5l0-0.9l0.1-0.5l0.1-0.2l0-0.1l-0.1-0.1  l-0.1-0.1l-0.1-0.1l-0.1-0.2l-0.1-0.1l-0.1-0.1l0-0.1l0.1,0.1l0,0h0l0-0.2l0.1-0.1l0.2,0.1l0.2,0.2l0.1,0.4l0.1,0.2l0.2,0.1l0,0  l0-0.1l0-0.1l0-0.1l-0.1-0.1l-0.2-0.1l0-0.1l0-0.2l0-0.2l0.1-0.2l0.2-0.1l0.2,0.1l0.2,0l0.2,0l0.1-0.1l0-0.2l0-0.2l0.1-0.1l0.2-0.2  l0-0.1l0.1-0.3l0-0.1l0,0l0.1,0l0,0l0,0l0-0.1l0.1-0.2L-382.4,419.5L-382.4,419.5z M-404,418.8L-404,418.8l-0.2-0.2l-0.1-0.1l-0.1,0  l-0.1,0l0,0.1l0,0.1l0,0.1l-0.1,0l-0.1-0.1l-0.1-0.1l-0.1,0l-0.1,0.1l-0.1,0.2l0,0.2l0,0.2l0,0.1l0,0.1l0.1,0l0.1,0l0,0l0-0.1l0,0  l0,0l0.1,0l0.1,0l0.1,0l0.2-0.1l0,0l0,0l0,0l0,0l0,0l0-0.1l0-0.1l0,0L-404,418.8z M-387.7,421.3L-387.7,421.3l-0.1,0l0,0l0,0l0,0  l0,0l0,0.1l0,0.1l0,0.1l0.1,0.1l0.1,0l0-0.1v-0.1l0-0.1L-387.7,421.3z M-389,430.1L-389,430.1L-389,430.1l-0.1-0.1l0,0.1l0,0l0,0  l0,0l0,0l0,0.1l0,0l0,0l0,0l0,0l-0.1,0v0l0,0l0,0l0,0l0,0l0,0l0,0l0,0l0,0l0,0l0,0.1l0,0l0.1,0l0.1-0.2l0-0.1L-389,430.1L-389,430.1  z M-389.4,430.4L-389.4,430.4l-0.2,0l-0.1,0.1l-0.1,0.1l-0.1,0l0,0l0.1,0l0,0.1l0.1,0l0.1,0l0.1,0l0.1,0l0,0l0-0.1l0-0.2  L-389.4,430.4L-389.4,430.4z M-387.3,421.3l0-0.1l0-0.8l0-0.1l-0.1-0.1l-0.1-0.1l-0.1-0.1l0-0.1l0,0l0,0l-0.1,0l0,0.1l0,0.3l0,0.1  l0,0l0,0.1l0,0.1l0,0.1l0,0.1l0,0l0,0l0.1,0.1l0,0l0,0l0,0.2l0,0.1l0.1,0.2l0,0.3l0,0.1l0.1,0.1l0.1,0l0-0.1l0-0.1l0-0.1  L-387.3,421.3L-387.3,421.3z M-411.5,379.5L-411.5,379.5l0.1-0.1l0-0.1l0.1,0l0.2,0.1l0.1,0l0.1,0.1l0.1,0.1l0.1,0.1l0.2,0.1l0.1,0  l0.1,0l0.1,0.1l0.1,0l0.1,0l0.1,0l0.1,0l0.2,0.2l0,0l0.1,0l0.1,0l0.1,0.1l0.1,0l0-0.1l0.2,0.1l0.2,0.2l0.3,0.5l0,0.1l0,0.1l0,0.1  l0,0l0.1,0.1l0.2,0l0.1,0l0,0.1l0.4,0l0.1,0.1l0,0.1l0.2,0.1l0,0.1l0.1,0.1l0,0l0,0.1l0,0l0.6,0.8l0.1,0.3l0,0.1l-0.1,0.2l0,0.1  l0.4,0.3l0.1,0.1l0.1,0l0.1-0.1l0.1-0.1l0.1-0.1l0,0l0.1,0l0.1,0l0,0l0,0l0-0.1l0-0.1l0,0l0,0l0,0l0-0.1v-0.2l0-0.2l-0.1-0.2  l-0.1-0.1l-0.1-0.1l-0.3-0.3l-0.2-0.2l0-0.1l0.3,0.2l0.1,0.1l0-0.1l-0.1-0.1l-0.4-0.3l-0.2-0.2l-0.1-0.1l0-0.2l0-0.3l0-0.1l0.1,0  l-0.1-0.2l0-0.1l0-0.1l0-0.1l-0.1-0.1l-0.3-0.4l0,0l-0.1,0l-0.1-0.1l0-0.1l0-0.1l0.1,0.1l0.1,0l0.3,0l0.1-0.2l0,0l0,0l0.1,0.1l0,0.1  l0.1,0l0,0.1l0,0.1l0,0l0.1,0l0.1,0l0.1,0l0.2,0.2l0,0l0,0l0,0l0,0l0.1,0.1l0.1,0l0.1,0l0.1-0.1l0.1,0l0.2,0l0.1,0l0.1,0.1l0,0.1  l-0.1,0l0,0l0,0v0l0.2,0.1l0.1,0.1l0.3,0.3l-0.3,0.2l0.1,0.1l0.2,0.2l0.1,0l0.1,0l0.4,0.3l0.1,0.1l0.1,0l0.1,0l0.1,0.1l0.1,0l0.2,0  l0.3,0.2l0.2,0l0.1,0.1l0.1,0.2l0.1,0.2l0,0.2l0.2,0.2l0,0.1l0,0.1l0,0.1l0.1,0.1l0.2,0.2l0.1,0.1l0,0.2l-0.2,0.5l0.1,0.2l-0.1,0.1  l0,0.1l0,0.1l0,0.1l0.1,0l0.1,0l0.2-0.1l0.1,0l0.1,0l0.1,0l0.1,0l0.1,0l0.1,0.2l0.1,0.1l0.1,0.1l0.1,0l0,0l0,0l0.1,0l0.1,0.1  l0.1,0.1l0.2,0.2l0,0l0.1,0l0.1,0l0.1,0l0,0l0,0l0-0.1l0,0l0-0.1l0,0l0.1,0l0.1,0l0,0l0,0l-0.1,0.1l-0.1,0.1l0.1,0.1l0-0.1l0,0l0,0  l0,0l0.2,0l0.1,0l0,0l-0.1,0l-0.1,0l0.1,0.1l0,0.1l0,0l0,0l0,0l0.1,0l0.1-0.1l0,0l0,0l0.1,0.1l0,0l0,0l0.1,0l0.1,0l0.1-0.1l0.1-0.2  l0-0.1l0-0.1l0-0.1l0.1-0.1l0.1,0l0.2,0.1l0.1,0l0.3,0l0.1,0l0,0.2l0,0.1l-0.1,0.1l-0.1,0.1l-0.1,0l0,0l-0.1,0l-0.1,0l-0.1,0l0,0.1  l0,0.1l0,0l-0.1,0l-0.1,0l0,0l0,0l-0.1,0l0,0l-0.1-0.1l-0.1,0l-0.1,0.1l-0.1,0.1l-0.1,0l-0.2,0l0.1,0.1l0.1,0l0.1,0.1l0,0.2l0,0.1  l0,0.1l0,0.1l0.1,0.2l0,0.1l0,0.1l0.1,0.1l0.1,0.1l0,0l0,0l0,0l0,0.1l0.2,0.3l0.1,0.1l0.2,0.1l0.2,0l0.1,0l0.1,0l0.1-0.1l0.1,0  l-0.1-0.1l0,0l0.1-0.1l0,0l0-0.1l0-0.1l0-0.1l0.2-0.1l0-0.1l0.1-0.7v-0.1l-0.1-0.4l-0.1-0.1l0-0.1l0-0.1l0.1-0.2l0.1-0.2l0-0.1  l0.1-0.1l0.1,0l0-0.1l0-0.1l0-0.1l-0.1,0l-0.1-0.1l-0.1,0l-0.1,0l0,0.1l-0.1,0.3l-0.1,0.1l-0.1,0l-0.3-0.2l0-0.1l-0.1-0.1l-0.1-0.1  l-0.1,0l-0.2-0.1l0,0l0-0.1l0,0l0,0l-0.1,0l-0.1,0l-0.1-0.1l-0.1,0l-0.1,0l0,0l0,0.1l0,0.1l-0.2,0.3l0,0l-0.1,0.1l-0.1,0l-0.1,0l0,0  l-0.1-0.1l0-0.1l0,0l0,0v0l0.1,0l0-0.1l-0.1-0.2l0-0.1l0-0.1l0-0.1l0-0.1l0-0.2l0.1,0l0.4,0l0-0.1l-0.1-0.1l-0.1,0l0,0.1l-0.1-0.3  l-0.1-0.1l-0.1-0.1l-0.1,0l-0.1-0.1l-0.1-0.1l0-0.2l0,0l0-0.1l0,0l-0.1-0.1l0,0l-0.1-0.3l-0.1-0.1l-0.4-0.2l0,0l-0.2-0.3l-0.1,0  l-0.1,0l0,0l0-0.1l0-0.1l0,0l0,0l0,0l0,0l0,0l0-0.1l0.2-0.5l0.1-0.1l0.1,0l0.1,0l0.1,0.1l0.1,0l0.1,0l0.1,0l0.1,0l0.3,0l0.2,0.1  l0.1,0l0.1-0.1l0.1-0.1l0.1-0.1l0.1-0.1l0.2,0l0.1,0l0.1,0l0-0.1l0,0h0l0,0l0,0l0.1,0.1l0-0.1l0-0.1l-0.1-0.1l-0.1-0.2l0,0l-0.1,0  l-0.1,0l-0.1,0l0,0l0,0l0,0l-0.4-0.2l-0.2-0.2l-0.2-0.2l-0.1-0.2l-0.2,0.3l-0.4-0.1l-0.4-0.2l-0.3,0l0-0.1l-0.1-0.1l-0.1,0l-0.1,0  l0,0.1l0,0.1l0,0.1l0,0.1h0v-0.1l0-0.1l0-0.1l0-0.1l0-0.1l-0.1-0.2l0-0.1l0,0l0,0l-0.1,0l0.1-0.1l0,0l-0.1,0l-0.1,0l-0.1,0.1l0,0  l0-0.1l0-0.1l0.1,0l-0.1-0.2l0-0.1l-0.1,0l0,0l0,0.1l0,0l0,0l-0.2,0l0.1,0.1l0,0v0l-0.2-0.1l-0.1,0l-0.1,0l0.1,0.2l0,0.1l-0.1,0  l0.1,0.1l-0.1,0l-0.1,0l-0.1,0l0,0.1l0.1,0.1l0.3,0.2l0.1,0l0.1,0l0.1,0l0.1-0.2l0.1-0.1l0,0.1l0,0.1l0,0.1l0,0l0,0l-0.2,0.1l0,0.1  l0.1,0.1l0.1,0.2l0,0.1l0,0l0,0l0,0l0,0.1l-0.2,0.2l-0.1,0l-0.2,0.1l-0.1,0l-0.3,0l-0.1,0l-0.1,0.1h0l-0.1-0.1l-0.1-0.1l-0.1-0.1  l0-0.2l0.1-0.3l0-0.1l0,0l0,0l0,0l0-0.1l0,0l0-0.2l0-0.3l0-0.1l0,0l-0.1-0.1l-0.1-0.1l0-0.1l0-0.1l0-0.1l0-0.1l0-0.1l-0.1-0.1  l-0.1,0l-0.1,0l-0.1-0.1l-0.2-0.2l-0.1-0.1l-0.1-0.2l0,0l0,0l-0.1,0l0,0l0,0l0,0l0,0l-0.2-0.2l-0.1-0.1l-0.2,0l-0.1,0l0,0l-0.1-0.1  l0,0l0,0l0,0l-0.1,0l0,0l0,0l0,0l-0.1,0.1l-0.1,0l-0.1-0.1l0-0.1l0,0l-0.1-0.1l-0.1,0.1l0,0.1l0.1,0.2l-0.1,0l-0.2,0l0,0.1l-0.1,0  l-0.1-0.1l0-0.1l-0.1,0.1l-0.1,0l0-0.1l0-0.1l-0.2,0l-0.3-0.1l-0.1,0l0.1,0.1l0,0l-0.1-0.1l-0.1,0l-0.1,0l-0.1,0.1l-0.1,0.1l-0.1,0  l-0.1,0l0,0.1l0,0.1l-0.1,0l0-0.1l0,0.1l-0.1,0.2l0,0l0.1,0.1l0,0.1l-0.1,0l-0.1,0l0,0l0,0l0,0l0,0.1h0l0-0.1l0,0l0,0l0,0.1l0,0  l0.1,0.1l0,0l0,0.1l-0.1,0.1l-0.1,0.1l-0.1,0v-0.2l0-0.1l0-0.1l0,0l0,0l0,0l0,0l0,0l0,0l0,0l0-0.1l0-0.1l0-0.1l0-0.1l0-0.1l0-0.1  l0-0.1l-0.1,0l0,0.1l0,0.1l0,0.1l-0.1,0l-0.2,0.1l-0.1,0.1l0,0.1h0l0-0.1l0,0l-0.1,0l0,0.2l0.1,0.2l0.1,0.1l0.2,0.1l0.1,0.1l0.2,0.3  l0.1,0v0l-0.1,0l0,0l0,0.1l0,0.1l0,0l-0.5-0.1l-0.1,0l0.2,0.2l0.1,0.1l0,0.2l-0.9-0.2l-0.9-0.3l-0.1-0.1l-0.4-0.4l-0.4-0.3l-0.2-0.3  l-0.1-0.1v0l0.1-0.1l0.1-0.1l0-0.1l0-0.1l0-0.1l-0.1-0.1l0,0l0-0.2l0-0.1l-0.1-0.1l-0.2-0.2l-0.1-0.1l0-0.1l-0.1-0.2l0-0.2l-0.2-0.7  l0-0.1V375l0-0.1l0.1-0.1l0.1,0l0.1,0l0.2,0l0.1,0l0-0.1l-0.1-0.1l-0.4-0.3l0-0.1l0-0.1l-0.2-0.3l0,0l0.1,0l0,0l-0.1-0.1l-0.1-0.2  l-0.1-0.2l0-0.2l0-0.1l-0.2-0.3l-0.1-0.1l0-0.1l-0.1-0.6l0-0.1l-0.1-0.1l-0.1-0.1l-0.2-0.1l-0.1-0.2l-0.1-0.3l0-0.3l0-0.2l0,0l0.1,0  l0.1,0l0.2-0.3l0.1-0.1l0-0.1l0.1-0.4l0-0.1l0.3-0.3l0.1-0.1l0-0.1l0-0.1l0.1-0.1l0.2-0.1l-0.1,0l-0.1,0l-0.1,0l0.2-0.3l0-0.1  l-0.1-0.1l-0.1,0l-0.1,0l-0.1-0.1l0-0.1l-0.1-0.2l0-0.1l0-0.3l0-0.1l0.1-0.1l0.1-0.1l0.3-0.2l0.2-0.3l0-0.1l0.4-0.3l0.1,0l0.1,0l0,0  l0.1,0l0.1,0l0.2,0l0.1-0.1l0.1-0.1l0.1-0.1l0.2-0.1l0.2,0l0.1,0l0.3-0.2l0.2-0.1l0.1-0.1l0-0.1l0-0.1l0-0.1l0.1-0.1l0.1-0.1l0.2,0  l0,0.1l0,0.1l-0.2,0.1l-0.1,0.1l0,0.1l0,0.1l-0.3,0.2l0,0.1l0,0.1l-0.1,0.1l-0.1,0.2l0,0l0.1-0.1l0.3-0.2l0.1-0.1v0l0,0l0,0l0,0l0,0  l0,0l0,0l0.2-0.2l0.2-0.2l0.2-0.2l0,0l0.1,0l0,0l0,0l0-0.1l0,0l0.1-0.3l0-0.1l-0.1,0.1l-0.1,0.1l0-0.2l0.2-0.4l0-0.2h0l0,0l0,0.1  l-0.1-0.2l0-0.1l0-0.1l0.1-0.1l0,0l0-0.1l0-0.1l0-0.1l0.1-0.1l0.2-0.2l0.1-0.1l0.1-0.3l0.1-0.1l0-0.1l0.1-0.3l0-0.2l0.3-0.5l0.2-0.4  l0.1-0.2l0-0.1l0.1-0.5l0.1-0.1l0,0l0,0l0-0.1l0-0.1l0-0.1l0.1-0.1l0-0.1v-0.1l-0.1-0.1l-0.1-0.1l-0.1,0l-0.1,0.1l-0.1,0l0,0l0,0  l0,0l-0.1-0.1l-0.1-0.1l0-0.1l0-0.1l0.1-0.2l0-0.1l0-0.1l-0.1-0.2l0-0.1l0-0.1l0.1,0l0.1,0.1l0-0.2l-0.1-0.2l-0.1-0.1l0,0.1  l-0.1-0.1l-0.1-0.2l-0.1,0l-0.1,0l-0.2,0.1l-0.1,0l0,0l-0.1-0.1l-0.1,0l0,0l0,0l0,0l-0.1,0l0-0.1l0-0.1l0-0.1l0-0.2l-0.1-0.2  l-0.1-0.1l-0.1-0.1l0-0.2l-0.2-0.5l0-0.2l0-0.5l0-0.1l-0.1-0.1l0,0l0,0l0-0.1l0-0.1l0-0.1l0-0.1l0.3-1.2l0-0.1l0-0.2v-0.2l0-0.1l0,0  l0-0.1l0-0.1l0-0.1l0,0l0.2-0.2l0.2-0.1l0.1-0.1l0.2-0.2l0.1-0.2l0.1-0.3l0-0.3l0-0.3l-0.1-0.2l-0.1,0l-0.2-0.1l-0.1-0.1l0-0.1  l0-0.2l0-0.1l-0.1,0l-0.1,0l-0.3,0l0,0.1l-0.1,0.4l0,0.2l0,0.1l-0.1,0l-0.1,0.1l-0.2,0.4l-0.3,0.2l-0.1,0l-0.3,0l-0.1,0l-0.3-0.1  l-1.1-0.4l-0.1-0.1l-0.1,0l-0.1,0.1v0.1l0.1,0.1v0l-0.1-0.1l-0.1-0.2l-0.1-0.2l-0.3-0.1l0,0l0-0.1l0,0l0,0l-0.1,0l0,0l-0.4-0.3  l-0.2-0.1l-0.1-0.1l-0.1-0.1l-0.6-0.3l-0.2-0.1l-0.3-0.1l0,0l0-0.1l0,0l-0.1,0l-0.1,0l-0.1,0l0,0l-0.1,0l-0.1,0l-0.1,0.1l-0.1,0  l-0.1,0l-0.1,0l-0.1,0l-0.1,0l-0.2,0.1l0,0l0,0.1l-0.1,0.1l-0.1,0l-0.1,0l-0.1-0.1l-0.2-0.3l-0.1-0.1l-0.1,0l-0.1,0l-0.1,0.1  l-0.1,0.1l0,0.1l0,0.1l0,0.1l-0.1,0.1l-0.1,0l-0.3,0.1l-0.1,0l-0.3-0.1l-0.1,0l-0.1,0.1l-0.1,0.1l-0.1,0.1l0,0.1l0.1,0.2l0.1,0.2  l0,0.3l0,0.2l-0.1,0.2l-0.2,0.3l0,0.1l0,0l0,0l0,0l0,0l0,0l0,0l0,0l0,0l-0.3,0.7l0,0.1l0,0.1l0,0.1l0,0.1l0,0.1l0,0.1l-0.1,0.3  l-0.1,0.2l0,0.1l0,0.3l0,0.1l0,0.1l-0.1,0.2l0,0.1l0,0.1l0.1,0.1l0,0.1l0,0.1l0,0.1l-0.1,0.1l-0.1,0l-0.1,0l-0.1,0.1l-0.1,0.8l0,0.1  l0.1,0.1l0.3,0.1l0,0.1l0.2,0.5l0.1,0.2l0,0.1l0,0.1l0,0.1l0,0.1l-0.1,0.1l0,0l0,0.4l-0.1,0.3l0,0.1l0,0.1l0.1,0.1l0,0l0.1,1.1  l0,0.2l0,0.1l-0.5,0.7l-0.1,0.1l0,0l0,0l0,0.1l0,0.1l0,0.1l0,0.1l0,0.1l0,0.1l0,0.1l-0.1,0.2l0,0.1l0,0.1l0,0.1v0l-0.1,0l0,0l0,0v0  l-0.1,0.1l0,0.1l0.1,0.1l0.1,0.1l0,0.3l0.1,0.2l0.1,1l0,0l0,0l0,0.1v-0.1l0.2,0.2l0.1,0.1l0,0.1v0.2l0,0.1l-0.1,0.1l0,0.1l-0.1,0.1  l-0.2,0.2l0,0.1l0,0l0.1,0l0.1,0l0,0l0,0.1l-0.1,0l-0.1,0l0,0l-0.1,0.1l-0.1,0.1l-0.1,0.1l0-0.2l-0.1-0.1l-0.2,0l-0.1,0l-0.1,0.1  l-0.1,0l-0.1,0l-0.3-0.1l-0.1-0.1l-0.1-0.1l0-0.1l-0.1-0.4l0,0l0,0l-0.1-0.1l-0.1,0l-0.1,0l-0.1,0l-0.1,0l-0.2-0.2l0-0.1l-0.1,0  l-0.3-0.1l-0.1-0.1l0.1-0.6v-0.1l-0.1-0.1l-0.1,0l-0.1,0l-0.1,0l0,0l-0.1,0.1l0,0l-0.1,0l0,0l-0.1,0.1l-0.1,0.1l-0.1,0.1l0,0.3  l-0.1,0.4l0,0.1l0,0.2l0,0.1l0.1,0.1l0,0.1l0,0.1l-0.1,0.3l0,0.1l0,0.7l0.1,0.2l0.1-0.1l0,0l0.1,0l0.1-0.1l0.1-0.1l0.2,0l0.1,0.1  l0.1,0.1l0.1,0.2l0,0.1l0,0.1l0,0.1l0,0.1l0,0.3l0,0.1l-0.1,0l0.1,0.2l0.1,0.1l0.1,0.1l0,0.2l0,0.1l-0.1,0.2l0,0.1l0,0.1l0.1,0.2  l0-0.1l0,0l0,0l0,0.1l0,0.1l0,0l0,0l0,0l0,0l0,0l0,0.1l-0.1,0.1l-0.1,0l-0.1-0.1l0,0.1l0,0l0,0.1l0,0l-0.1,0.1l0,0.1l0.1,0.1  l0.3,0.3l0.1,0.1l0.1,0.2l0.1,0.2l0,0l0,0.1l0,0.1l0,0.1l0,0l0.1,0.1l0.2,0.9l0,0.2l0,0.6l0,0.2l0.1,0.5l0.1,0l0,0l0,0l0,0l0,0l0,0  l0.1,0.1l0.2,0.1l0,0.1l0,0l0.1,0l0.1,0l0.1,0l0.1-0.1l0.1-0.2l0-0.2l0-0.1l0.1-0.1l0.1,0l0.1,0.1l0.1,0l0.1,0l0,0l0,0l0,0.1l0,0  l0,0l0.1,0l0,0.1l0,0l0,0l0,0l0,0.1l-0.1,0l0,0.1l0,0.1l0.1,0.1l0,0l-0.1,0l-0.1,0.1l0.1,0.2l0.2,0.3h0l0,0.1l0,0l0.1,0l0.1,0  l0.2,0.2l0.1,0.1l0,0.2l0,0.4l0,0.2l0.1,0.1l0,0l0.3,0.1l0,0l0,0l0,0l0.1,0l0,0l0,0l0,0l0.1,0l0,0l0,0l0.1,0l0.2,0l0.1-0.2l0.1-0.2  l0-0.3l-0.1-0.4l0-0.1l0-0.1l0-0.1l-0.2-0.3l0-0.1l0.1-0.4l0-0.3l0-0.1l0.1,0.1l0-0.3l0-0.1l0.1,0l0,0.1l-0.1,0.4l0,0l0,0l0,0  l0.1-0.1l0,0l0-0.1l0-0.2l0,0.1l0,0.1l0,0.2l0,0.1l0.1,0.1l0.1,0l0.1,0l0.4,0.1l0.6,0l0.1,0l0,0l0,0l0,0l0.3,0.1l0,0l0,0.1l0.2,0.2  l0,0.1l0,0.2l0.1,0.1l0.1,0.2l0,0.1l0,0.1l-0.1,0.1l-0.2,0.1l-0.1,0.1l0,0l-0.1,0l-0.1,0l0,0l-0.5,0.5l-0.1,0.2l0,0l-0.1,0.1l0,0  l0,0.1l-0.1,0.1l-0.1,0.1l-0.1,0l-0.2,0l-0.1,0l0,0.1l-0.1,0.1l-0.1,0.1l-0.1,0.1l0.1,0.1v0l-0.1,0l0,0l-0.1,0l0.1,0.1l0.1,0.1  l0,0.1l-0.1,0v0l0.2,0l0.1,0.1l0,0.2l0,0.4l0,0.1l0.1,0l0,0l0,0.1l-0.1,0.1l-0.1,0l0.1,0.2l0,0.5l0,0.2l0.1,0.2l0.1,0.1l0-0.1l0-0.1  l-0.1-0.1l0-0.1l0.1-0.1l0.2,0l0.1,0l-0.1-0.1l-0.1-0.1l0-0.1l0-0.1l0.1,0l0.1,0l0.2,0.1l0.5,0.1l0.1,0l0.1,0.1l0,0.1l0,0.1l0,0.1  l0,0.1l0,0.1l0,0.1l0,0l0.1,0.1v0.1l0,0.1l0,0l-0.1,0l0,0l0,0.1l0,0.1l0,0l0,0l0,0.1l0,0.1l0,0l0.1,0l0.5-0.5l0.1,0l0.1,0l0.1,0  l0.1,0.1l0,0l0.1,0.2l0,0.1l0,0.1l0,0.1l0,0.1l0,0l0,0l0,0.1l0.1,0l0.1,0l0.1,0l0.1,0l0.1,0l0.2,0l0.1,0l0.1,0l0,0l0.1,0l0.1,0  l0.1,0l0.2,0.1l0,0l0.1,0.1l0.1,0l0.1-0.1l0.3-0.3l0.1-0.1l0.1,0l0.2,0.1l0,0l0.2-0.2l-0.1,0l0,0l-0.1,0l0-0.2l0-0.4l0.3-0.3l0.1,0  l0,0l0.1,0l0,0l0,0l0.1-0.1l0.2-0.1l0.1-0.1l0,0l0.1,0l0.1,0l0.1-0.1l0,0L-411.5,379.5L-411.5,379.5z M-410.3,374.9l0,0.2l0,0.1  l0.1,0.1l0.1,0l0.1-0.1l0.1-0.1l0.1-0.3l0-0.1l-0.1-0.4l0-0.2l-0.1-0.1l-0.1,0l0-0.1l0-0.1l0-0.2l0,0l0,0l0.2-0.1l0.1,0l0-0.1l0-0.1  l-0.1,0l0,0l0-0.1l0.1-0.1l0.1,0l0.1,0l0.1,0.2l0-0.1l-0.1-0.1l-0.1-0.1l-0.1,0l0-0.1l0-0.1l-0.1,0l-0.1,0l-0.1-0.1l-0.2,0l-0.1,0  l0,0.1l-0.1,0.1l-0.1,0l-0.2-0.1l-0.1,0.1l0,0.1l0,0.4l0,0l0.1,0l0.1,0l0,0.1l0.1,0.2l0,0.1l0,0.2l0,0.1l0.1,0l0.1,0.1l0.1,0.3  l0,0.2l-0.1,0L-410.3,374.9z M-407.4,374.6L-407.4,374.6l-0.2,0.1l-0.1,0l-0.1,0.1l0,0.1l0.2,0l0.1,0l0.1,0l0.1-0.1l0-0.1  L-407.4,374.6L-407.4,374.6z M-408,352L-408,352L-408,352L-408,352z M-412.2,427.2L-412.2,427.2L-412.2,427.2l-0.2,0.1l0,0.1l0.1,0  l0.1-0.1l0-0.1L-412.2,427.2L-412.2,427.2L-412.2,427.2z M-412.1,423.1l0,0.1l-0.1,0.1l0,0l0,0.1l0.1,0.1l0,0.1l0,0.1l0,0l0,0l0-0.1  v-0.4L-412.1,423.1L-412.1,423.1z M-410.1,378.1l0.1,0.1l0.1,0.1l0.1,0l0.2,0.2l0.4,0.3l0.2,0.2l0.1,0.1l0.1,0l0-0.1l-0.1-0.1  l-0.1-0.1l-0.3-0.2l-0.8-0.7l0-0.1l0,0l0,0l-0.1,0l-0.1,0l0,0l0,0.1l0,0.1L-410.1,378.1z M-408.3,374.6L-408.3,374.6L-408.3,374.6  l0.1-0.2l-0.1-0.1l-0.1-0.1l-0.1,0l-0.1,0l-0.1,0l0-0.1l0-0.1l0,0l0,0h-0.2l-0.1,0l-0.1,0l0,0l0-0.1l-0.1,0.1l0,0l-0.1,0l0,0l0,0.1  l0,0.1l0,0l0.1,0l0.2,0L-408.3,374.6z M-410.8,426L-410.8,426l-0.1,0.1l0,0.1l0,0l0,0l0,0l0,0l0.1-0.1L-410.8,426L-410.8,426z   M-410.8,426.3L-410.8,426.3l0.1,0l0,0l0,0l0,0l0,0l0,0l0,0L-410.8,426.3L-410.8,426.3L-410.8,426.3z M-409.5,376.4L-409.5,376.4  L-409.5,376.4L-409.5,376.4l0,0.1l0,0.1l0,0l0-0.1l0,0L-409.5,376.4L-409.5,376.4L-409.5,376.4z M-410.8,377.2l-0.1,0.1l0,0l0,0.1  l0,0.1l0,0l0,0.1l0,0l0,0l0,0l0,0l0.1-0.1l0,0L-410.8,377.2L-410.8,377.2z M-409.4,374L-409.4,374l0-0.1l-0.1-0.1l-0.1,0l0,0l0,0  l0,0l0.1,0.1v0l0,0l0,0l0,0l0,0L-409.4,374z M-411,379.8L-411,379.8L-411,379.8l0.1-0.1l0-0.1l0,0l0-0.1l0-0.1l-0.1-0.1l-0.1,0l0,0  l0,0.1l0,0l0,0l0,0l0,0.1l0,0.1l0,0l0.1-0.1L-411,379.8L-411,379.8z M-438.3,414.1l-0.1,0l-0.1,0l0,0.1l0.1,0.1l0.1,0l0.1,0  L-438.3,414.1L-438.3,414.1z M-437.9,413.2L-437.9,413.2l-0.1,0L-437.9,413.2L-437.9,413.2l-0.1-0.1l-0.3,0.3l0,0.1l0.1,0.2l0.1,0  l0.2-0.1l0.1-0.1L-437.9,413.2L-437.9,413.2L-437.9,413.2z M-438.8,413.7L-438.8,413.7l-0.1,0l0,0.1l0,0l0.1,0l0.1,0l0-0.1  L-438.8,413.7L-438.8,413.7z M-437.3,413.5v-0.2l-0.2-0.1l0,0h0l0,0l0,0l-0.1,0l-0.1,0h-0.1l-0.1,0l0,0.1l0,0.2l0,0.1l0,0.1l0,0.2  l0.1,0.1l0.2-0.1l0.1,0l0.1,0l0.1-0.1l0-0.1l-0.1-0.2L-437.3,413.5z M-426.8,399.8L-426.8,399.8L-426.8,399.8L-426.8,399.8l0,0.1  l0,0l0,0l0,0l0,0l0,0l0,0l0,0l0.1-0.1l0,0l0,0l0.1,0l0.1,0l0,0l0,0l0,0l0,0l0,0l0,0l0,0l0,0l0,0l0,0l0,0l0,0l0,0l0,0l0,0l0,0l0,0  l0,0l-0.1,0.1L-426.8,399.8L-426.8,399.8L-426.8,399.8L-426.8,399.8L-426.8,399.8L-426.8,399.8z M-438.9,415L-438.9,415l0-0.2  l-0.1-0.1h-0.1l-0.3,0l0,0l0,0.1l0,0.1l-0.1,0l0,0l0-0.1l0-0.1l-0.1,0l0,0.8l0,0l0.1,0.3l0.1,0.2l0,0.1l0,0.1l0.1,0l0.1,0l0,0  l-0.1-0.1l0.1,0l0.1-0.1l0.1-0.1l0-0.1l0,0l0,0l0,0l0,0l0,0l0,0l0,0l0-0.1l0,0l0-0.1l0,0l0-0.1l-0.1-0.2l0-0.1l0,0l0.1,0l0,0  L-438.9,415L-438.9,415z M-439.3,414.6L-439.3,414.6l0.1,0.1l0.1-0.1l0.1,0l0.1,0l0.1,0l0,0l-0.1-0.2l-0.1-0.1l-0.1,0l-0.2,0.2  L-439.3,414.6L-439.3,414.6z M-430.8,407.9l0-0.1l0,0l0,0l0,0l0,0.1l0,0.1l0,0l0,0.1v0L-430.8,407.9L-430.8,407.9z M-430.4,420.8  L-430.4,420.8l-0.2,0l-0.1,0l-0.1,0l-0.1,0l-0.1,0l-0.1,0l0,0.1l0,0.1l0,0.1l0.1,0l0.2,0l0.2,0l0.1,0l0.1,0l-0.1-0.1l0-0.1l0.1,0  l0,0L-430.4,420.8L-430.4,420.8z M-425.1,434.2L-425.1,434.2L-425.1,434.2L-425.1,434.2l-0.1,0.1l0,0l0,0l0,0l0,0l0,0l0,0l0,0l0,0.1  l0,0.1l0,0l0,0l0,0l0,0l0,0.1l0,0l0,0l0,0L-425.1,434.2L-425.1,434.2L-425.1,434.2z M-433,425.6L-433,425.6L-433,425.6L-433,425.6  L-433,425.6z M-433.1,425.4L-433.1,425.4L-433.1,425.4L-433.1,425.4L-433.1,425.4z M-433.4,425.2L-433.4,425.2L-433.4,425.2  L-433.4,425.2L-433.4,425.2L-433.4,425.2z M-423.6,395.5L-423.6,395.5L-423.6,395.5l0.1,0l0,0l0,0l0,0l0-0.1l0,0l0-0.1l0,0l0,0l0,0  l0,0l-0.1,0l0,0L-423.6,395.5L-423.6,395.5L-423.6,395.5z M-421.8,409.8L-421.8,409.8L-421.8,409.8L-421.8,409.8L-421.8,409.8  L-421.8,409.8L-421.8,409.8L-421.8,409.8z M-421.8,409.9L-421.8,409.9L-421.8,409.9L-421.8,409.9L-421.8,409.9z M-422.6,391.5  L-422.6,391.5l0,0.1L-422.6,391.5L-422.6,391.5L-422.6,391.5L-422.6,391.5l0.1-0.1l0,0l0,0l0.1,0l0,0l-0.1,0L-422.6,391.5  L-422.6,391.5z M-426,397.4L-426,397.4L-426,397.4L-426,397.4L-426,397.4l0.1,0.1l0,0l0.1-0.1l0,0l0,0l0,0l0,0l0,0l0,0l0,0v0l0,0  l0,0l-0.1,0l0,0l0,0l0,0l0,0l-0.1,0l0,0l0,0l0,0l0,0l0,0l0,0L-426,397.4L-426,397.4L-426,397.4z M-421.7,427.5L-421.7,427.5  L-421.7,427.5L-421.7,427.5L-421.7,427.5L-421.7,427.5l0.1-0.1l0,0l0-0.1l-0.1,0L-421.7,427.5L-421.7,427.5L-421.7,427.5  L-421.7,427.5L-421.7,427.5z M-421.7,400L-421.7,400l0-0.1v0l0.1-0.1l-0.1-0.1l-0.2-0.1l-0.1-0.1l-0.2-0.1l-0.2-0.1l-0.2-0.1l-0.1,0  l0,0l0,0l-0.1,0.1l-0.1,0.2l-0.1,0.1l-0.2,0.2l0,0l0,0l0.1,0l0.1,0l0,0.3l0,0.1l0,0.1l0.1,0.1l0.1,0l0.1,0l0.1,0l0.1,0l0.1,0l0,0  l0-0.1l0.1,0l0.1,0l0,0l0-0.1l0-0.1l0-0.1l0-0.1l0.1,0l0.1,0.2l0,0l0,0l0,0l0,0L-421.7,400L-421.7,400z M-421.8,409.9L-421.8,409.9  L-421.8,409.9L-421.8,409.9L-421.8,409.9L-421.8,409.9L-421.8,409.9L-421.8,409.9L-421.8,409.9z M-423.9,396.7l-0.2-0.1l0,0.1l0,0.2  l0,0l0.1,0l0.1,0.1l0,0.1l0.1,0l0,0l0,0l0,0h0l0-0.1l0-0.1l0-0.1L-423.9,396.7L-423.9,396.7z M-424.2,396.4L-424.2,396.4l0.1,0  l0.1-0.1l0.1-0.1l0-0.1l0-0.1l-0.1-0.1l-0.1,0l0,0l0,0l0,0l-0.1,0l0,0l0,0.1L-424.2,396.4L-424.2,396.4z M-425.5,395.9L-425.5,395.9  L-425.5,395.9l0.1,0.1l0,0l0,0l0-0.1l0,0l0,0l0-0.1l0,0l0,0l0,0L-425.5,395.9l0.1-0.2l0,0l0,0l0,0l0,0L-425.5,395.9L-425.5,395.9  L-425.5,395.9L-425.5,395.9L-425.5,395.9L-425.5,395.9z M-423.4,396.5L-423.4,396.5L-423.4,396.5L-423.4,396.5L-423.4,396.5l-0.1,0  l0,0l0,0l0,0l0,0l0,0l0,0L-423.4,396.5l-0.1,0.1v0l0,0l0,0l0,0l0,0l0.1,0l0,0l0,0l0,0L-423.4,396.5L-423.4,396.5L-423.4,396.5  L-423.4,396.5z M-424.6,434l0-0.1l0-0.1l0,0l0,0l0,0l0-0.1l-0.1,0l-0.1,0l-0.1,0l0.1,0.2l0.1,0.2l0,0.4l0,0.3v0.4l0.1-0.1l0.2-0.4  l0-0.1l0-0.1l0-0.1l0-0.1L-424.6,434z M-423.5,396.8L-423.5,396.8L-423.5,396.8L-423.5,396.8L-423.5,396.8l-0.1,0.1l0,0.1l0,0  l0.1-0.1l0,0l0,0L-423.5,396.8L-423.5,396.8L-423.5,396.8z M-418.7,431.9L-418.7,431.9L-418.7,431.9L-418.7,431.9L-418.7,431.9  l-0.1,0.1l0.1,0l0,0h0L-418.7,431.9L-418.7,431.9L-418.7,431.9L-418.7,431.9L-418.7,431.9z M-417.4,424.6L-417.4,424.6l0-0.1l0,0  l0,0l0,0l0,0l-0.1,0l-0.1,0l-0.1,0.1l0,0.1l0.1,0l0.1,0l0,0L-417.4,424.6L-417.4,424.6L-417.4,424.6L-417.4,424.6z M-418.1,425.5  l0.1-0.4l0-0.1l0-0.1l0-0.1l0-0.1l0,0l-0.1,0l-0.1,0l0,0.1l0,0.1l-0.1,0.1l0,0l0,0.1l0,0.1l0,0.1l0,0l-0.1,0l-0.1,0l0,0l0,0.1l0.1,0  l0.2,0l0.1,0l0.1,0L-418.1,425.5L-418.1,425.5z M-418.4,426.2L-418.4,426.2l0,0.2l0,0l0,0l0.1-0.1l0,0L-418.4,426.2L-418.4,426.2z   M-418.9,426L-418.9,426L-418.9,426l-0.1,0l0,0l0,0l0,0l0,0l0,0l0,0l0,0l0,0l0,0l0,0l0,0l0,0l0,0l0,0l0,0L-418.9,426L-418.9,426  L-418.9,426L-418.9,426L-418.9,426L-418.9,426L-418.9,426L-418.9,426L-418.9,426L-418.9,426L-418.9,426L-418.9,426L-418.9,426l0,0.1  l0,0l0,0l0,0l0,0l0,0l0,0l0-0.1l0,0L-418.9,426L-418.9,426z M-419.3,430.6L-419.3,430.6L-419.3,430.6L-419.3,430.6L-419.3,430.6  L-419.3,430.6L-419.3,430.6z M-419.2,428.3L-419.2,428.3L-419.2,428.3L-419.2,428.3L-419.2,428.3L-419.2,428.3L-419.2,428.3  L-419.2,428.3L-419.2,428.3L-419.2,428.3L-419.2,428.3L-419.2,428.3L-419.2,428.3L-419.2,428.3L-419.2,428.3l-0.1-0.1L-419.2,428.3  L-419.2,428.3l0,0.1L-419.2,428.3L-419.2,428.3L-419.2,428.3L-419.2,428.3z M-417.7,425.4L-417.7,425.4L-417.7,425.4L-417.7,425.4  L-417.7,425.4l0-0.1L-417.7,425.4l0-0.1l0,0l0,0l0,0L-417.7,425.4L-417.7,425.4L-417.7,425.4L-417.7,425.4L-417.7,425.4  L-417.7,425.4l-0.1-0.1l0,0.1l0,0l0,0h0l0,0l0,0l0,0.1l0.1,0.1l0,0l0,0l0.1,0L-417.7,425.4L-417.7,425.4z M-417.6,431.7  L-417.6,431.7l-0.1-0.1l0,0L-417.6,431.7L-417.6,431.7L-417.6,431.7L-417.6,431.7L-417.6,431.7L-417.6,431.7z M-417.5,395.3  L-417.5,395.3l-0.1,0.1l0,0l0,0L-417.5,395.3l-0.1,0.1l0,0l0,0l0,0l0,0l0,0l0,0L-417.5,395.3L-417.5,395.3L-417.5,395.3z   M-419.5,431.4L-419.5,431.4L-419.5,431.4v0.1l0,0L-419.5,431.4L-419.5,431.4L-419.5,431.4L-419.5,431.4z M-418.1,431.7  L-418.1,431.7L-418.1,431.7L-418.1,431.7L-418.1,431.7L-418.1,431.7L-418.1,431.7L-418.1,431.7L-418.1,431.7L-418.1,431.7  L-418.1,431.7L-418.1,431.7L-418.1,431.7L-418.1,431.7L-418.1,431.7z M-418.1,430.3L-418.1,430.3l0-0.2L-418.1,430.3L-418.1,430.3z   M-418.1,430.6L-418.1,430.6L-418.1,430.6l0.1,0v0l-0.1-0.1l0,0l0,0l0,0l0,0h0L-418.1,430.6L-418.1,430.6L-418.1,430.6L-418.1,430.6  L-418.1,430.6L-418.1,430.6L-418.1,430.6L-418.1,430.6l-0.1-0.1l0,0L-418.1,430.6L-418.1,430.6L-418.1,430.6z M-420.4,432.7  L-420.4,432.7l-0.1,0.1l0,0l0,0l0,0l0.1,0l0,0l0,0L-420.4,432.7l0.1,0.1L-420.4,432.7L-420.4,432.7z M-421.5,432.9L-421.5,432.9  L-421.5,432.9L-421.5,432.9L-421.5,432.9L-421.5,432.9l-0.1,0L-421.5,432.9l-0.1,0.1l0,0l0,0l0,0l0,0l0,0v0l0,0l0,0l0,0l0,0l0,0l0,0  l0,0l0,0l0-0.1l0-0.1l0,0l0,0l0,0L-421.5,432.9L-421.5,432.9L-421.5,432.9z M-422.8,432.6L-422.8,432.6L-422.8,432.6L-422.8,432.6  l0.1-0.1l0-0.1l0-0.1l0-0.1l0,0l-0.1,0.1l-0.1,0.1l-0.1,0.2l0,0.1l0,0l0.1,0L-422.8,432.6L-422.8,432.6L-422.8,432.6L-422.8,432.6z   M-422.6,434l-0.1,0l0,0.1l0.1,0l0.1,0l0,0l0-0.1L-422.6,434z M-422.6,433.8L-422.6,433.8L-422.6,433.8l0.1-0.1l0-0.1l-0.1-0.1  l0-0.1l-0.1,0l-0.1,0l0,0.1l0,0.2L-422.6,433.8L-422.6,433.8z M-423.2,397.1L-423.2,397.1L-423.2,397.1L-423.2,397.1l0,0.1h0  L-423.2,397.1L-423.2,397.1L-423.2,397.1z M-423.5,399.9l-0.1-0.1l0-0.2l-0.1-0.1l0,0l0,0l0,0l0,0l0,0l0,0l0,0l0.1,0l-0.1-0.1  l-0.1,0l-0.1,0l-0.1,0l-0.1,0l0-0.1l0-0.1l0-0.1v-0.2l0-0.2l0-0.1l0-0.1l0-0.1l-0.1-0.1l0,0l0,0l-0.1,0l0,0l0,0l0,0l-0.1,0l-0.1,0  l0,0l0-0.1l0-0.1l-0.1-0.1l0-0.1l0-0.1l0-0.1l0-0.1l0-0.1l0-0.1l0-0.1l0-0.1l0.1-0.2l0,0l0.1,0l0.1,0.1l0.1,0l0,0l-0.1-0.3l-0.1-0.1  l-0.1-0.1l-0.1-0.1l0-0.1l0.1-0.2l0.1-0.2l0-0.2l0-0.2l-0.1-0.2l0,0l0,0l0,0l-0.1,0l0-0.1l0-0.1l0-0.1l0,0v-0.1l0-0.1l0-0.1l0-0.1  l-0.1,0l0,0.1l0,0.1l0,0.2l0,0.1l0,0.1l-0.1,0.1l0,0l0,0l0,0l0,0l0,0l0,0l0,0l0,0l0,0.1l0,0.3l0,0.1l0,0.1l-0.1,0.1l-0.1,0.1l-0.1,0  l0,0.1l0,0.1l0.1,0.1l0,0l0.1,0l0,0.1l-0.1,0.2l0,0.2l0,0.1l-0.1,0l-0.1,0l-0.1,0l-0.1,0l-0.1-0.1l-0.1-0.1l-0.1-0.1l-0.1,0.1l0,0.2  l0.1,0.2l0,0.1l-0.1,0l-0.1,0l0,0l0-0.1h0v0l0,0.1l0,0.3l0,0.1l0.1,0l0.1,0l0.1,0l0,0l-0.1,0.1l0,0.1l0,0.1l0.1,0.1l0.1,0l0.1,0  l0.1,0l0.1,0.1l0.1,0.1l0,0.1l0,0l0,0.1l0,0.1l0,0l0.1,0.2l0,0l0,0.1l0,0.1l-0.1,0l-0.1,0l0,0l0,0l0-0.1l0-0.1l0,0l0,0.1l0,0l0,0  l0-0.1l-0.1-0.1l-0.1,0l-0.1-0.1l0-0.1h0v0h0l-0.1-0.1l-0.1,0l0-0.1l0-0.1l-0.1,0l-0.1,0l-0.1,0l0-0.1h0.1l-0.1-0.2l0,0l0,0l0-0.1h0  l0,0h0l0,0l0,0l0,0.1l0,0h0l0-0.1l-0.1,0l-0.1,0.1l0.1,0.1l-0.1,0.1l0,0l0.1,0l0.1,0.1l0,0l-0.2,0.2l0.1,0l0.1,0l0.1,0.1l0,0.1  l0,0.2l0,0.1l0.1,0.1l0,0l0.1-0.1l0,0l0,0l0,0l0,0l0,0l0.1,0.1l0,0.1l-0.2,0.8l-0.1,0.1l-0.1,0.1l-0.1,0.1l-0.1,0l0,0.1l0,0.1  l0.1,0.1l0.1,0.1l-0.1,0.1l-0.2,0.1l-0.1,0.1l0,0l-0.1,0l0,0l0,0l-0.1,0.1l-0.2,0.2l-0.1,0.1l0,0l-0.1-0.4l0-0.1l0,0l0,0l0-0.1  l-0.1,0l-0.1,0l0,0l0,0.1l0,0l0.1,0l0,0.1l-0.1,0l0,0v0.1l0,0.1l-0.1,0l-0.1,0l-0.1,0l-0.1,0l-0.1,0l-0.1,0.1l-0.1,0.1l0,0.1l0,0.1  l0.1,0l0.1,0l0.1,0l0.1,0l0,0.1l-0.1,0.1l0,0.1l-0.1,0l-0.1,0l-0.1,0l-0.1,0.1l0,0l0,0l0,0l0,0l0,0.1l0,0.1l0,0.1l-0.1,0.1l-0.1,0.1  l-0.1,0l-0.2,0l-0.1,0l-0.1,0.1l-0.1,0l-0.1,0l0,0l0,0.1l0,0.1l0,0.1l0.1,0.2l0,0l0,0l0,0.1l0,0l0,0l0,0l0,0l-0.1,0.1l-0.1,0  l-0.1-0.1l0,0l0.1,0v-0.1l0-0.2l0,0.1l-0.2,0.4l0,0.1l-0.3,0.1l-0.1,0.1l0.1,0.1l-0.1,0.1l-0.2,0.3l0,0.1l0,0.1l0,0.1l-0.1,0.1  l-0.3,0.3l-0.1,0.2l0,0.1l-0.5,0.3l-0.1,0.1l0,0l0,0l0,0l0,0.1l0,0l0,0l0,0l-0.1,0.1l-0.1,0l-0.1,0l-0.1,0.1l0,0.1l0,0.1l0,0.1l0,0  l0,0l0,0l0,0l-0.2,0.1l-0.1,0.2l-0.4,0.2l-0.1,0.3l-0.1,0.1l-0.1,0.1l-0.1,0.1l0,0.1l0,0.1l0,0.1l0,0l-0.4,0.3l-0.1,0.1l-0.1,0.2  l-0.1,0.1l-0.1,0.1l-0.1,0l0,0l0-0.1l0-0.1l-0.1,0.1l-0.1,0l-0.2,0l-0.1,0.1l-0.1,0.3l-0.1,0.1l-0.1,0l-0.2,0.1l-0.1,0.1l0,0.1l0,0  l0,0l0,0l0,0l-0.1,0.2l0,0.1l-0.1,0.1l-0.1,0l-0.1,0l-0.1,0l0,0l0-0.1l0,0l-0.1,0.1l-0.1,0l-0.1,0l0,0.1l0,0.1l-0.1,0.2l-0.5,0.4  l-0.1,0.2l-0.4,0.6l-0.1,0.1l-0.1,0.1l-0.2,0.1l-0.1,0.1l-0.1,0.2h0.1l-0.1,0.1l-0.1,0.1l-0.1,0.1l-0.1,0l-0.1,0.1l0,0.1l0,0.1  l-0.1,0l0,0.1l0,0l-0.1,0.2l-0.1,0.1l0,0.1l-0.1,0l0,0l0,0l0,0.1l0,0.1l0,0.1l0,0.1l0,0l0,0l0,0.1l0,0.1l-0.1,0.1l0,0.1l0,0.2l0,0  l0.1-0.2l0.2-0.1l0.1-0.1l0-0.1l0.2-0.1l0,0l0-0.1l0,0l0.2-0.1l0.2-0.1l0.6-0.2l0.1,0l0,0.1l0,0l0.1,0l0.1,0l0-0.1l0-0.1l0.2-0.2  l0-0.1l0-0.3l0-0.1l0.1-0.1l0.3,0l0.1,0l0.1,0l0.1,0l0.1,0l0.1,0l0.1,0l0.1-0.1l0.4-0.4l0.4-0.3l0.5-0.3l0.1-0.1l0.3-0.4l0.1-0.3  l0.1-0.1l0-0.1l0,0l0,0l0,0l0,0l0,0l0-0.1l0,0l0.1-0.2l0-0.2l0,0l0.2-0.1l0,0l0.1,0l0.4,0l0.1,0l0.1-0.1l0.1,0h0.2l0.1,0l0.1-0.1  l0.1-0.2l0.3-0.3l0.1-0.1l0.1,0l0.2-0.1l0,0l0.2-0.3l0.1-0.1l0-0.1l0-0.1l0.2-0.2l0.5-0.7l0,0l0.1,0l0,0l0,0l0-0.1l0.1-0.1l0.1-0.1  l0-0.1l0-0.1l0.2,0l0-0.1l-0.1-0.1l-0.2,0l0-0.1l0-0.1l0,0l-0.1,0l0-0.1l0-0.1l0-0.1l0.1,0l0.1,0l0,0l0,0.1l0,0.1l0.1,0.1l0.1,0  l0.1,0l0-0.3l-0.1-0.2l-0.1-0.3l0-0.2l0-0.2l0.1-0.1l0.1-0.1l0.1,0l0.2-0.1l0.2-0.1l0.2,0l0.3,0l0.1,0l0.1,0l0.1,0l0.1-0.1l0.1,0  l0.1,0l0.1,0l0.1,0l0.1,0l0.1-0.1l0.1,0l0.3-0.1l0.2-0.1l0.1-0.2l0.1-0.6l0.1-0.3l0.2-0.2l0.4-0.4l0.1-0.1l0.1,0l0.1,0l0.2-0.1  l0.1,0l0.1,0l0.1,0l0.1,0h0.2l0.1,0l0.1,0l0.1-0.1l0.3-0.2l0,0l0.1-0.2l0.1,0l0.1,0l0,0l0.1-0.1l-0.1-0.1L-423.5,399.9z M-419.6,432  L-419.6,432L-419.6,432L-419.6,432l-0.1,0.1l0,0l0,0l0,0l0,0l0,0l0,0L-419.6,432L-419.6,432L-419.6,432z M-419.6,431.6L-419.6,431.6  L-419.6,431.6l0,0.1l0,0l0,0l0,0.1l0,0l0,0l0,0l0,0l0,0l0,0l0,0l0,0l0,0l0,0l0,0l0,0L-419.6,431.6L-419.6,431.6l0.1,0L-419.6,431.6  L-419.6,431.6z M-423.4,428.3L-423.4,428.3L-423.4,428.3L-423.4,428.3L-423.4,428.3L-423.4,428.3z M-419.5,431.7L-419.5,431.7  L-419.5,431.7L-419.5,431.7z M-419.7,432.2L-419.7,432.2L-419.7,432.2L-419.7,432.2l-0.2,0.1l-0.1,0l0,0l0,0.1l0,0l0.1,0l0.1,0l0,0  L-419.7,432.2L-419.7,432.2L-419.7,432.2L-419.7,432.2z M-420.1,431.4L-420.1,431.4L-420.1,431.4l-0.1,0l0,0l0,0V431l0-0.1l0,0  l-0.1,0l-0.1,0l-0.1,0.1l-0.1,0.1l-0.1,0l-0.1,0.1l-0.2,0.1l0,0l0,0.1l0,0l-0.1,0l0,0l0,0l-0.1,0l-0.1,0.1l0,0l-0.1,0l-0.1,0.1  l-0.2,0l0,0l-0.1,0.1l-0.2,0.1l0,0l0,0l-0.2,0.1l-0.2,0.1l0,0l-0.1,0l0,0.1l0,0.2l0,0.1l0.1,0.1h0l0.1,0l0.1,0h0.2l0.1,0l0.1-0.1  l0,0l0.1,0l0.1,0l0.1,0l0.1-0.1l0-0.2l0,0l0,0l0.1,0l0,0l0.1-0.1l0-0.1l0,0l0.1,0l0.1,0l0.1,0l0.1,0l0.1,0l0-0.1l0-0.2l0.1-0.1  l0,0.1l0,0.1l0,0.1l0,0l0.1,0l0,0l0,0l0,0l0,0l0,0l0,0l0,0.1l0,0.2l0,0.1l0,0.1l0.1,0l0.1,0l0.1-0.1l0-0.1l0-0.2L-420.1,431.4  L-420.1,431.4z M-420,431.9L-420,431.9l0.1,0l0.1-0.1l0,0l0,0l0,0l0-0.1l0,0l0,0l0,0l0,0l0,0l0,0l0,0l0,0l0,0l0.1,0l0,0l0,0  l-0.1-0.1l0,0l0,0.1l0,0.1l0,0.1l-0.1,0.1l0,0l0,0l0,0l0,0l0,0l0,0l0,0l0,0L-420,431.9L-420,431.9L-420,431.9z"/></svg>