<svg xmlns="http://www.w3.org/2000/svg" xmlns:xlink="http://www.w3.org/1999/xlink" version="1.1" x="0px" y="0px" viewBox="-345 257 100 100" fill='#e0e0e0' style="enable-background:new -345 257 100 100;" xml:space="preserve"><path vector-effect="none" d="M-290.2,266.3l0.2,0.2l0.5,0.2l2.8,0.2l3.9,0.2l5.8,0.3l3.6,0.2l4.3,0.2l5.6,0.3l2.3,0.1l1.9,0.1  l0.7-0.2l0.2-0.2l0.3-0.5l0.2-0.1l0.2,0l0.6,0.3l0.1,0l0.2,0l0.1,0l0.1,0.1l0.1,0.1l0,0.1l0.1,0.1l0.1,0.1l0.3,0l0.1,0.1l0,0.2  l-0.1,0.2v0.2l0.2,0.3h0.2l0.2-0.1l0.2,0l0.2,0.1l0.6,0.5l0.4,0.2l0.8,0.3l0.4,0.3l0.1,0.2l0.2,0.4l0.1,0.1l0.1,0.1l0.2,0.1l0.1,0.1  l0.2,0.2l0.1,0.3l0.1,0.4l0.1,0.4l0.2,0.8v0.4l-0.2,0.3l-0.1,0.1l0,0.1l-0.1,0.1v0.2l0,0.2l0.1,0.1l0.1,0.1l0.1,0.1l0,0.1v0.1l0,0.1  l0,0.5l0.1,0.4l0.1,0.4l0.1,0.4l0.1,0.9l0.1,0.4l0.2,0.4l0,0l0,0l0,1l0.2,1.2l0.8,2.6l0.5,1l0.2,0.5l0.4,1.6l0.2,0.5l0.2,0.2  l0.1,0.2l0.1,0.2l0.1,0.3l0.2,0.2l0.2,0.1l0.1,0.2l0,0.4l-0.1,0.2l-0.1,0.2l-0.1,0.2l0,0.3l0.1,0.3l0.3,0.4l0.1,0.2l0,0.1l0,0.2v0.1  l0.1,0.5v0.1l0,0.1l-0.1,0.2l0,0.1l0,0.2l0,0.1l0,0.1l0,0.1l0.1,2.5l-0.1,0.7l-0.4,0.5l-1.3,0.9l-1.7,0.5l-0.9,0.5l-0.9,0.7  l-1.2,1.9l-0.4,0.5l-0.2,0.3l-0.5,1h0l0.2,0.1l0.1,0.2l0,0.2l-0.1,0.3l0.2,0.2l0.7,0.2l0.2-0.1l0.1,0.1l0.6,0.2l0.2,0v0.1l-0.1,0.2  l0,0l0.1,0l0.1,0l0.1,0.1l0.1,0l0.1-0.2l0,0.1l0.1,0.1l0.1,0.1l0.2-0.2l0,0.1l0,0.2l0,0.1l0.3,0.6l0.2,0.1l0.5,0l0.2,0.1l0.1,0.1  l0,0.1l0.1,0.1l0.1,0l0.1,0.1l0,0.2l0,0.2l0.1,0.2l0.1,0.6l0.1,0.3l-0.2,0.1l-0.1,0.2l-0.2,0.5l-0.1,0.3v0.5l-0.1,0.2l0,0h0l0,0v0.1  l-0.1,0.1l0,0.4l-0.1,0.1l0.2,0.3l0.2,0.2l-0.1,0.4l-0.2,0.2l-0.2,0.1l-0.2,0.2l0,0.1l0,0.2l-0.1,0.4l0,0.1l0.1,0.1l0,0.1l-0.1,0.1  l0,0.1l0,0.1l0.1,0.1l0.1,0.1l-0.1,0.2l-0.1,0l-0.1,0v0.1l0.1,0.1l0,0.2l-0.1,0.4l0,0.2l0.1,0.2l0.2,0.4h-0.1h-0.1l0.1,0.3l0.2,0.1  l0.1,0.1l0,0.2l0,0.1l0.1,0.2l0.2,0.1l0.2,0.1l0.1,0.1l-0.2,0.3l0,0.1l0.4,0.6l0.1,0.2l-0.1,0.1l-0.1,0.1l0,0.2l0.1,0.2l-0.2,0.1  l-0.2,0.2l-0.1,0.2l0,0.2l0.1,0.3l0.2,0.1h0.2l0.2,0.1l0.6,1.2l0.2,0.3l0.5,0.3l0.5,0.5l0.1,0.2l-0.2,0.1l0,0.2l0.2,0.3l0.3,0.4  l0.1,0.2l0.1,0.7v0.1l0,0.1l0.1,0.1l0.1,0l0.1,0.1l0.1,0.2l0,0.1l0,0.1l0.1,0.2l0.2,0.3l0.7,0.6l0.8,0.5l0.1,0.2l-0.1,0.3l-0.3,0.1  h-0.3l-0.2,0.1l-0.3-0.2l-0.3,0l-0.2,0.2l-0.1,0.3l0,0.3l0.2,0.2l0.2,0.1l0.3,0v0.1l-0.1,0.3l0.1,0.2l0.3,0.2l0.3,0.1l-0.1,0.4  l0.1,0.3l0.2,0.6l-0.2,0.4l0.1,0.7l0.1,0.2l0.1,0.1l0,0l-0.1,0.2l-0.2,0.2l-0.6,0.3l0,0.2l0,0.3l0,0.2l0,0.2l-0.2,0.5l-0.5,0.2  l-1.8,0l-0.3,0.1l-0.2,0.1l-0.1,0.1l-0.1,0.2l-0.1,0.4l-0.1,0.2l-0.8,0.9l-0.3,0.2l0,0l0,0l0,0l-0.5,0.4l-0.5,0.4l-2.3,2.5l-0.3,0.5  l-0.4,0.3l-0.4,0.4l-1.1,1.6l-0.4,0.4l-0.1,0.1l-0.1,0.3l0,0.1l-0.1,0.1l-0.2,0.1l-0.1,0.1l-0.1,0.1l-0.6,1.1l-0.2,0.2l-0.1,0  l-0.2,0l-0.1,0.1l-0.1,0.1l-0.2,0.5l-0.8,1l-0.3,0.6l0.2,0.6l0.1,0.2l0.1,0.7l0,0.2l0,0.1l0.1,0.2l0.2,0.2l0.1,0.1l0,0.2l0.1,1.4  l0,0.2l-0.2,0.5l-0.1,0.5l-0.2,0.3l-0.1,0.2l0.1,0.1l0,0l0.1-0.2l0.2,0.1h0l0,0l0.3,0.2l0.3,0.4l0.2,0.1l0.5,0.3l0.1,0.1v0.1  l-0.1,0.3l0,0.2l0,0.1l0.2,0.3l0,0.1l-0.1,0.2l-0.2-0.1l-0.2-0.2l-0.2-0.1l-0.1,0l-0.2-0.3l-0.1-0.1l-0.1,0l-0.2,0.1l-0.4,0l-0.2,0  l-0.2,0l-0.3-0.2l-0.4-0.4l-0.2-0.1l-0.2,0.2l-0.4-0.2l-0.8,0l-0.4-0.1l-0.5-0.5l-0.2-0.1l-0.6,0l-0.5-0.1l0-0.1l0-0.1l0-0.1v-0.1  l-0.1-0.1l-0.1,0l-0.2,0h-0.1l-0.1,0l-0.3-0.2l-0.7-0.1l-0.3-0.2l-0.1-0.5l-0.1-0.5l-0.3-0.5l-0.4-0.3l-0.5-0.3l-0.4-0.3l-0.2-0.1  l-0.2,0l-0.2,0.2l-0.1,0.2l-0.1,0.1l-0.2-0.1l-0.3-0.5l-0.2-0.2l-0.1,0l-0.2,0l-0.1,0l-0.1-0.1l-0.2-0.2l-0.1-0.1l-0.2,0l-0.7,0.1  l-0.3,0.1l-0.2,0l-0.4,0.1h-0.2l-1-0.3l-0.6-0.3l-0.1,0l-0.2,0.1l-0.3,0.5l-0.2,0.2l-0.2,0l-0.2-0.1l-0.1-0.1l-0.2-0.1l-0.2,0  l-0.4,0.1l-0.2,0.1l-0.2,0.2l0.1,0.1l0.2,0.1l0.1,0.2l-0.1,0.1l-0.2,0h-0.2l-0.2,0l-0.2,0.2l-0.3,0.5l-0.2,0.2l-0.2,0.1l-0.2,0  l-0.2-0.1l-0.2-0.2l-0.2-0.1l-0.2,0l-0.2,0l-0.2,0l-0.2-0.1l-0.9-1.1l-0.2,0l-0.4,0.1l-0.2,0h-0.1l-0.1,0.1l-0.2,0.2l-0.1,0.1  l-0.2,0.1l-0.2,0l-0.8-0.4l-0.2,0v0.3l-0.5,0l-0.4-0.2h-0.1l-0.1,0.1l0,0.1l0,0.1l-0.1,0.2l-0.1,0.2l-0.1,0.1l-0.8,0.1l-0.2,0.1  l-0.2,0.3l-0.1,0.1l-0.2,0l0,0l-0.1,0.1l-0.2,0.4l-0.1,0.2l-0.1,0.2l-0.1,0.1l-0.1,0.5l-0.1,0.4l-0.2,0.2l-0.3-0.2l-0.5-0.5  l-0.3-0.1l-0.3,0l-0.2,0.1l-0.3,0.4l-0.2,0.1l-0.5,0l-0.3-0.1l-0.1-0.2l0-0.2l0.4-0.6l0.1,0l0.1,0l0.1,0l0-0.1l0-0.1l-0.1-0.1l0,0  l-0.1-0.1l0-0.1v-0.1l0.1-0.1l0-0.1l-0.1-0.7l-0.1-0.3l-0.1-0.3l-0.1-0.1l-0.3,0.1l-0.2,0l-0.2,0l-0.6-0.2l0-0.2l0-0.2l0-0.1l0-0.1  h-0.4l-0.2-0.1l-0.2-0.1l0-0.1l-0.2-0.5l-0.2-0.8l-0.1-0.3l-0.2-0.1l-0.1-0.1l-0.2-0.3l-0.1-0.1l-0.1,0l0,0.1l-0.9,1l-0.1,0.1  l-0.1,0.1l-0.1,0h-0.3l-0.2,0l-0.2,0.1l-0.2,0.1l-0.1,0.2l-0.2,0.5l0,0l0,0l0,0.1l0,0.1l0,0h-0.1h0l-0.1,0.3l0,0.2l-0.1,0.1  l-0.3,0.1l-0.2,0.1l-0.1,0l-0.1,0l-0.2-0.1l-0.1,0l-0.2,0l-0.4,0.2l-0.3,0l-0.2,0l0-0.2l0-0.5l0-0.2l-0.1-0.2l0-0.2l0.1-0.2  l-0.3-0.2l-1-0.1l0-0.2l0-0.3l-0.1-0.7l-0.1-0.1l-0.1-0.3l-0.1-0.2l-0.1-0.5l0-0.1l-0.2-0.1l-0.2,0l-0.2,0.1l-0.2,0l-0.1-0.1  l-0.2-0.2l-0.1-0.1l-0.1,0l-0.3,0l-0.1-0.1l-0.1-0.1l-0.1-0.5l-0.2-0.5l-0.2-0.5v-0.4l0.3-0.3l-0.3-0.1l0-0.2l0-0.2l-0.1-0.3  l-0.2-0.1l-0.4,0.3h-0.2l-0.7-0.4l-0.4-0.1l-0.4,0.1h0l0,0l0,0l0,0l-0.3,0.2l-0.1,0l-0.2-0.2l-0.1-0.1l-0.1-0.2l0-0.1l-0.1-0.1  l-0.2,0l-0.1,0l-0.3-0.3l-0.2-0.1l-0.6-0.1l-0.1-0.2l0.1-0.3l-0.6-0.4l-0.3-0.1l0.1,0.4l0,0l0.1,0h0.1l0.1,0.1l0,0.1l0,0.1l-0.3,0.1  l-0.4,0l-0.2,0.1l-0.3,0.3l-0.4,0.1l-0.4-0.1l-0.7-0.6l-0.1-0.1l-0.1-0.2l-0.1-0.2l-0.1-0.2l-0.1-0.1l-0.1-0.1l0-0.1l0-0.1l0.1-0.1  v0v0v0v0l-0.1,0l-0.3-0.1l-0.1,0l-0.1,0l-0.1,0l-0.1,0l-0.2-0.1l-0.5-0.6l0-0.1l0.1-0.2l0.1-0.1l0.5,0l0.3-0.1l0.4-0.3l0.2-0.2  l0.1-0.2l-0.2-0.3l-0.1-0.1l0-0.1l0-0.2l0.1-0.3l0,0v0v0l0,0l-0.2-0.3l-0.1-0.1l-0.2-0.1l-0.1,0l0,0.1l0,0.1l-0.3,0.4l-0.2,0.1  l-0.2,0.1l-0.9-0.2l-0.5,0l-0.3,0.4l-0.1,0l0,0l-0.1,0l-0.1,0l-0.1-0.3l-0.2-0.2l-0.2,0l-0.1,0.3l-0.1-0.1l-0.1-0.2l0-0.2l0-0.2  l-0.1,0l0,0l0,0l0-0.1l0.2-0.1l-0.2-0.1l-0.5,0l-0.2-0.1l-0.4-0.2l-0.1-0.1l-0.1-0.1l-0.1-0.2l0-0.2l0,0l-0.1,0l-0.3,0.1h-0.1  l-0.1-0.1l-0.2-0.2l-0.1-0.1l-1-0.3l-0.2,0l-0.4-0.3l-0.2,0l-0.3,0.2v0.2l0.3,0.5l0.1,0.3l0.1,0.3l0.1,0.3l0.2,0.2l0.2,0.1l0.2,0.2  l0.1,0.3l0,0.4l0.1,0.2l0,0.2l-0.1,0.1l-0.1,0l-0.1-0.2l0-0.1l-0.1,0h-0.1l0,0v0.2l0,0.1h-0.1l-0.2-0.1h-0.1l-0.1,0.1l-0.2,0.2  l-0.1,0.1l-0.2,0.1l-0.2,0l-0.2,0l-0.2,0.2l-0.2,0.3l-0.1,0.2l-0.1,0.2l-0.2,0.2l-0.3,0.4l-0.4,0l-0.4-0.2l-0.3-0.3l-0.2-0.2  l-0.1-0.2l-0.1-0.5l-0.1-0.3l-0.3-0.3l-0.1-0.2l-0.1-0.2l-0.3-0.5l-0.1-0.2l-0.2-0.2l-0.4-0.2l-0.2-0.2l0-0.1l0-0.1l0-0.2l-0.1-0.2  l-0.1,0h-0.5l-0.1,0l-0.1,0.1l-0.1,0l-0.1-0.1l-0.1-0.1l-0.1-0.4l-0.3-0.1l-0.1-0.3l0.1-0.3l0.2,0.1l0-0.1l0-0.2h0.1l0.1-0.1l0.1,0  l0.2-0.1l0.2-0.1l0.2-0.1l0.1-0.2l0.2-0.1l0.3,0.1l0.2,0l0.1-0.1l0.2-0.2l0.1-0.2l0,0v-0.1l0-0.1l0-0.1l0-0.1l0,0v-0.1l0-0.1  l0.3-0.1l-0.1-0.3l-0.9-0.9l-0.3-0.2l-0.3-0.1l-0.4,0l-0.1,0l-0.1,0.2l-0.1,0.2l-0.1,0.1l-0.2,0l-0.2-0.1l-0.3-0.2l-0.4,0l-0.6,0.6  l-0.4,0.1l0,0v0v-0.1l0,0l0.1-0.1l0-0.2l0-0.2l-0.1-0.2l-0.1-0.3l-0.1-0.1l-0.2,0l-0.6,0.2h-0.3l-0.1,0l-0.5-0.9l0-0.1l0-0.1l-0.3,0  l-0.8,0.2l-0.1,0l-0.1-0.1l-0.1-0.2l-0.1-0.1l-2-0.7l-0.4,0l-0.1,0.1l-0.1,0.2l-0.1,0.1l-0.1-0.1l-0.1-0.1l0-0.2l0-0.2v-0.2  l-0.1-0.3l-0.2-0.1l-0.2-0.1l-0.2-0.2l-0.1-0.2l-0.1-0.3l-0.1-0.3l0-0.2l0.1-0.3l0.1-0.2l0-0.2l-0.2-0.3l-0.3-0.1l-0.6,0l-0.1-0.2  l0-0.2l-0.1-0.1l-0.1,0.1l-0.1,0.2l0,0l0,0.2l-0.1,0l-0.1-0.1l-0.1-0.1l-0.1-0.2l-0.5-0.1l-0.2-0.2l0,0.1l-0.1,0.1l-0.2,0.1l-0.1,0  l-0.1,0l0,0l0,0l0,0l0,0.2l0.2,0.1l0.2,0.2l0,0.5l0,0.1l-0.1,0.1l0,0l0,0.1v0.1l0,0l0,0.6l0,0.1l-1.1-0.1l-0.4,0.1l-0.2,0v-0.3  l0.1-0.2l0.4-0.4l0.5-1.2l0.5-1.1l0-0.2v-0.3l0-0.1l0-0.1l0.1-0.1l0.1-0.1l0-0.2l0-0.4l0.1-0.4l0.1-0.4l0.2-0.3l0,0l0,0l0.1-0.5  l-0.1-0.3l-0.2-0.3l-0.2-0.3l0-0.1l0-0.3v0l-0.1-1.1l0.1-0.2l-0.1-0.2l-0.2-0.2l-0.2-0.1l-0.2-0.1l-0.5-0.1l-0.2-0.1l0,0l-0.2-0.2  l-0.7-0.2l-0.2-0.2l0-0.3l0.1-0.3l0.2-0.3l0.1-0.3l0-0.4l-0.1-0.4l-0.1-0.3l-0.5-0.4l-0.2-0.3l-0.1-0.4l0-0.4l-0.1-0.2l-0.2-0.1  l-0.2-0.3l0-0.3l0.1-0.3l0.6-0.6l0.2-0.2l0.2-0.3l0.1-0.3l0-1l0-0.2l0.2-0.4l0-0.2l0-0.1l0-0.1l0.1-0.1l0.2-0.2l-0.7-0.5l-0.1-0.2  l0.1-0.4l0.1-0.3l0-0.2l-0.2-0.2V304l0.2-0.3v-0.3l-0.2-0.3l-0.3-0.1l-0.3-0.1l-0.3-0.2l-0.2-0.3l0.1-0.3l-0.2-0.5l-0.2-0.7  l-0.1-0.7l0.5-0.5l0.2-0.4l0.2-0.4l-0.1-0.2l-0.2-0.2l0.1-0.4l0.3-0.6l-0.3-0.3l-0.6-0.7l-0.6-0.2l-0.3-0.4l-0.2-0.1l-0.1-0.1  l-0.3-0.7l-0.2-0.2l-1.1-0.8l-0.3-0.2l-0.3-0.4l-0.2-0.1l-0.2,0l-0.2-0.1l-0.2-0.1l-0.1-0.2l0.3-0.3l0.1-0.2l0.1-0.3l0-0.2l-0.1-0.6  l-0.1-0.2v-0.1l0.5-0.4l0.6-0.3l0.6-0.5l0.3-0.3l0.1-0.3l0-0.1l0.3-0.9l0-0.2l-0.1-0.2l0-0.3l0-0.2l0.1-0.2l0.1-0.2l0.1-0.1l0.1-0.1  l0.3-0.5l-0.1-0.1l0-0.1l-0.2-0.1l-0.1-0.1l0-0.2v-0.3l0-0.1l-0.3-1.3l-0.1-0.9l-0.2-0.4l-0.1-0.4l-0.2-0.4l-0.1-0.3l0-0.4l0-0.6  l0-0.2l-0.2-0.7l-0.2-0.3l0-0.3l0-0.5l0.1,0l0.2-0.1l0.1-0.1l0-0.1l-0.2-0.1l0.1-0.1l0-0.1l0-0.1l-0.1-0.1l0-0.1l0.1,0.1l0.1,0.1  l0.1,0.1l0.1,0.3l0.1,0.1l0.3,0.1l0.2,0.2l0.1,0.1l0.4,0.1l0.5,0.2l0.2,0.1l0.2,0.2l0.3,0.6l0.1,0.1l0,0l0-0.3l0.1-0.1l0.1-0.1  l0.1-0.1v-0.1V280l0-0.1l-0.1,0l-0.3,0l-0.1-0.1l-0.3-0.8l0.1-0.4l0.3-0.7l0.1,0.1l0.1,0l0.1-0.1h0.2l-0.1-0.4l0-0.3l0.1-0.3l0-0.3  h-0.1l0,0.2l-0.1,0.1l-0.2,0.2l0.1,0.1l-0.1,0l-0.1,0l0-0.1l-0.1-0.1l0.1-0.1l0.1-0.1l0.1-0.1l-0.1-0.3l-0.2-0.1l-1.1-0.1l-0.2-0.2  l0.1-0.3l0,0l0,0v0l0-0.1l-0.1,0.2l-0.1,0l-0.1-0.1l-0.1,0l-0.1,0l-0.1,0.1l-0.1,0.1l-0.1,0.1l0.3,0.1l0.2,0.1l0.1,0.1l-0.1,0.2  l-0.1,0.2l-0.1,0.1l-0.1-0.1l-0.3,0.2l-0.1,0l-0.1,0v0.1l0.1,0.1l0,0l-0.1,0l-0.1,0l-0.2-0.1l-0.1,0l-0.2-0.1l-0.5-0.7l-0.2-0.1h0  l-0.1-0.3l-0.2-0.2l0.1,0l0.1-0.1l0.2-0.5l0.2,0.1l0.1,0.1l0.3,0.1l1,0.1l0.4-0.1l0.4-0.2l0.7-0.5l2.6-1.2l2.3-0.6l2.8-1.2l1.8-0.5  l2-0.5l1.9-0.9l1.6-0.2l1.1-0.4l-0.1,0.1l-0.5,0.2l0.2,0.2l0.9-0.2v-0.1h-0.1v-0.1h0.5v-0.1l0,0h0l0,0l0-0.3l-0.2,0l-0.5,0.2  l0.3-0.2l0.4-0.3l0.6-0.7l-0.1,0.2l-0.2,0.2l-0.1,0.1l0.1,0l0.2,0l0.2-0.1l0.1-0.2l0.4-0.2l0.1-0.1l-0.1-0.3h-0.2l-0.1,0.1l-0.2,0.2  l0.4-0.7l1.2-1.5v0.1l-0.1,0.2l0.1,0l0.2-0.1l0.1-0.1l0.1-0.2l-0.1-0.1l-0.1,0.1l-0.2,0.1l0.2-0.4l0.4-0.4l0.7-0.4l2.1-0.3l0.8-0.3  l0.4-0.1l0.4-0.1l1-1.1l3-1.4l3.8-0.7l1.7-0.6l2.7-0.3h1.6l0.2,0.1l0.4,0.3l0.1,0.1l0.2,0.1l3.4,2l0.6,0.8l0.1,0.2l0.1,0.3l0,0.2  l-0.2,0.1l0-0.1l0-0.1l-0.1-0.1l-0.2-0.1l-0.1-0.3l-0.2-0.2l-0.5-0.8l-0.1,0l-0.4-0.1l-0.1,0l-0.1-0.2l-0.3-0.1l-0.6-0.4l-0.6-0.3  l-0.1-0.1l-0.3-0.3l-0.1,0l-0.1,0l-0.1,0.1l-0.1,0.5l0,0.1v0.2l0,0.1l0.2,0.1l0,0.1l0.1,0.2l0.1,0.3v0.1l0,0.1v0.1l0.1,0.1l-0.1,0.3  l0.1,0.1l0.2,0l0.2-0.2l-0.1,0.3l0.1,0.2l0.1,0.2l0.3,0.8l0.1,0.2l0,0.4l0,0.7l0.1,0.6l0.1,0.3l0.2,0l0.3,0.2l0.2,0l0.1,0l0.2,0.1  l0.1,0.1l0.1,0.2l0.2,0.2l1.7,0.5l0.4,0l0.3-0.2l0.1,0.1l0.1,0.1l0.3,0.1l3.8-0.6l0.8-0.4l0.4-0.1l0.3-0.1l0.6-0.6L-290.2,266.3"/></svg>