<svg xmlns="http://www.w3.org/2000/svg" xmlns:xlink="http://www.w3.org/1999/xlink" version="1.1" x="0px" y="0px" viewBox="-461 335 100 100" fill="#e0e0e0" style="enable-background:new -461 335 100 100;" xml:space="preserve"><path d="M-411.8,435L-411.8,435l0.1-0.1l-0.1-0.1V435z M-411.5,434.6L-411.5,434.6L-411.5,434.6L-411.5,434.6L-411.5,434.6l-0.1-0.1  h-0.1l0,0.1l0.1,0l0.1,0.1l0.2-0.1L-411.5,434.6L-411.5,434.6z M-386.4,346.5l-0.2-0.3l-0.6-0.7l-0.7-0.4l-0.7-0.3l-1.2-0.2h-0.2  l-0.1,0.1l-0.1,0.1l-0.2,0.1l-0.2,0.1l-0.2,0l-0.4-0.1l-0.2-0.3l-0.1-0.4l0-0.4l-0.1-0.2l-0.1-0.2l0-0.2l0.1-0.2l0.1-0.2l0.1-0.2  l0.4-1.6l0.2-0.4l-0.4-0.1l-0.3,0l-0.1-0.1l0.1-0.9l-0.1-0.3l-0.2-0.2l-0.4-0.2l-0.2,0.4l-0.5,0.2l-1.1,0l-0.4-0.1l-0.5-0.8  l-0.5-0.1l-0.1,0.6l-0.4,0.2l-0.9,0.1l-0.4-0.1l-0.4-0.3l-0.3-0.2l-0.4,0.3l-0.5,0.2l-0.5-0.2l-0.5-0.4l-0.5-0.3l-0.2,0l-0.3,0.2  l-0.2,0.2l-0.1,0.1l0,0.3l0.1,0.7l0,0.3l-0.3,0.5l-0.5,0.3l-1.1,0.4l-0.3,0l-0.5,0l-0.2,0l-0.2,0.1l-0.4,0.4l-0.2,0.2l-0.1-0.3  l-0.2-0.3l-0.2-0.3l-0.2-0.1l-0.2,0l-0.2-0.1h-0.1l-0.1,0.1l0,0.1l0,0.1l-0.1,0.2l-0.2,0.2l-0.3,0.1l-0.3,0l-0.3,0l-0.2-0.1l0-0.2  l0.2-0.6l-0.8,0l-0.3-0.1l-0.4-0.3l-0.2-0.1l-0.4,0.2l-0.9,0.2l-0.4,0l-0.2,0.1l-0.1,0.1l-0.1,0.1l-0.1,0.1h-0.5l-0.1-0.6l0-0.5  l-0.3,0.1l-0.1,0.2l-0.1,0.3l-0.1,0.3h-0.3l-0.2,0l-0.2,0.1l-0.2,0.2l-0.1,0.2l-0.5,0.5l-0.7,0.2l-1.3-0.1l0.1-0.5l0-0.3l-0.1-0.2  l-0.5-0.2l-0.2-0.4l0-0.4l0.1-0.4l0.6-0.9l0.4-0.4l0.4-0.3l0.2-0.2l0.2-0.2l0-0.4l-0.1-0.3l-0.2-0.2l-0.3-0.1l-0.3,0l-0.3,0.1  l-0.2,0.1l-0.2-0.1l-0.1-0.3l0-0.9l-0.1-0.3l-0.1-0.2l-0.5,0.3l-0.3,0.1l-0.3,0l-0.1,0l-0.1,0.1l-0.4,0.4l-0.2,0.1l-2.3,0.4  l-0.3,0.1l-0.5,0.4l-0.3,0.1l-0.5,0l-0.3,0.1l-0.3,0.2l-0.1,0.2l-0.1,0.4l-0.1,0.2l-0.3,0.2l-0.4,0.1l-0.3,0.2l-0.1,0.1l-0.2,0.7  l-0.5,0.6l-1.1,0.9l-0.1,0.2l-0.1,0.2l-0.1,0.7l-0.1,0.2l-0.1,0.2l-0.1,0.1l-0.1,0.2l0.2,0.5l0.3,0.8l0.4,0.1l0.2,0l0.3,0l1.7-0.5  l-0.2,0.2l-0.2,0.2l-0.3,0.1l-0.9,0.2l-0.3,0.1l-0.2,0.2l0,0.5l0.2,0.4l0.2,0.4l0.1,0.3l0.1,0.5l0.3,0.7l0.1,0.3h-0.1l-0.1-0.1l0,0  l0,0l-0.1-0.1v0.2l0.2,0.3l0.1,0.5l0,1.5l0,0.2l0.1,0.3l0.2,0.4l0.1,0.2l-0.1,0.2l0.2,0l0.1,0.2v0.6l0.1,0.2l0.1,0.2l0,0.2l-0.1,0.3  l0.3,0.6l0.2,0.7l0.3,0.5l0.6,0.1v0.1l-0.3,0.3l0,0.7l0.2,1.3v0.7l-1.4,6.7l0.2-0.2l0.2-0.4l0.2-0.5l0.1-0.3l0-0.5l0.1-0.6l0.2-0.5  l0.2-0.4l0.1,0.3l0.1-0.1l0.1-0.3l0-0.3l0.2,0.4l-0.6,0.8l0.1,0.5l0.1,0.2l0.3,0.1h0.1l0.1,0l0.3-0.1l0.4-0.2l0.2,0l-0.2,0.2  l-0.2,0.2l-0.3,0.1l-0.3,0l-0.3,0.1l0,0.2l0.1,0.2l0.2,0.2l-0.2,0.3l-0.1,0.1l-0.2,0.1l-0.1-0.1l-0.1-0.1l-0.1-0.1l-0.1,0.1l0,0.1  l0,0.1l0.1,0.1l0,0.1v0.1h-0.1l-0.2-0.1l-0.2,0.2l-0.3,0.5v-0.5l-0.1,0.1l0,0.1l-0.4,0.8l-0.1,0.8l-0.2,1.6l-1,3.9l-0.5,0.9  l-0.2,0.5l0,0.4l0.2,0.3l0.3,0.2l0.7,0.1l0.3,0.1l0.2,0.2l0.2,0.2v0.1l-0.6,0l-0.2-0.1l-0.2-0.3l-0.2,0.3l-1.9,5.5l-1.6,3.6  l-0.1,0.4l0,0.4l0,0.3l0,0.2l-0.1,0.3l-0.3,0.7l-0.1,0.2l-0.2,0.2l-0.2,0.2l-0.2,0.1l-0.2,0.2l-0.5,0.7l-0.2,0.2v0.2l0.2,0.1  l0.2,0.2l0.1,0.2l-0.2,0.2l-0.2,0l-0.1-0.2l-0.1-0.2l-0.3-0.1l-0.3,0.1l-0.7,0.8l-1.1,0.1l-0.2,0.1l0.1,0.2l0.5,0.6l0.2,0.4l0.1,0.8  l-0.1,0.7l-0.2,0.7l-0.2,0.6l-0.3,0.6l-0.1,0.3l-0.3,1.6l-0.1,0.3l0.2,0.7l-0.1,0.8l-0.6,1.9l-0.1,0.4l-0.2,0.2l-0.1,0.2v0.4  l0.2,0.8l-0.1,0.3v0.4l0.3,0.1l0.6-0.1l0.4,0.1l0.7,0.3l0.4,0.1l0.4-0.2l0.2,0l1.1,0l1.2-0.3l0.2-0.1l0.2-0.2l0.1-0.4l0.1-0.7  l0.1-0.3l0.1-0.3l0.2-0.2l0.4-0.5l0.8-1.7l0.7-1l0.3-0.5l0.2-0.2l1.3-0.1l1.1-0.8l-0.1,0.3l-0.2,0.2l-0.5,0.4l-0.3,0.1l-0.6,0.1  l-0.3,0.1l-0.5,0.4l-0.4,0.6l-0.6,1.4l0.1,0.4l0.1,0.5l0.2,0.3l0.3,0l-0.1,0.3l0.1,0.4l0.2,0.4l0.2,0.2v0.1l-0.1,0l-0.1,0.1l-0.1,0  l-0.1-0.1l-0.2,0.1l-0.7,0.3l-0.3,0.3l-0.2,0.2l-0.1,0.3l0.1,0.3v0.1l-0.2,0l-0.5,0.1l-0.2,0.1l0.1,0.4h-0.1l-0.2-0.2l-0.8-0.6  l-0.4,0.2l-1.3,0.2v0.1l0.5,0.6l0.5,0.8l0.3,0.9l0.1,1l-0.1,0.2l-0.3,0.8l-0.1,0.2l-0.1,0.1l0,0.1v0.1l0.1,0.1h0.1l0.2-0.1l0.1,0  l0.1,0l0.3-0.2l1.8-0.4l1.7-0.9l0.5-0.1l0.6,0.2l0.5,0.3l0.3,0.1l0.4,0l0.1-0.2v-0.3l-0.1-0.3l-0.3-0.1v-0.1l0.3-0.1l0.3-0.6l0.2,0  l-0.1,0.2l0,0.3l0.2,0.2l0.2,0.1v0.1l-0.1,0.1l-0.1,0.2l0,0.2l0,0.3l0.1,0.3l0.1,0.2l1.1,0.5l0.4,0.1l0.5,0l-0.8,0.2l-1.5-0.4  l-0.6,0l0-0.2l-0.3-0.2l-0.7-0.2l-0.5-0.5l-0.3-0.1l-0.2,0.2l0.4,0.2l0.5,0.5l0.5,0.6l0.2,0.5l0.5,2.5l0.1,1.7l-0.1,0.3l-0.1,0.3  l-0.2,0.8l-0.1,0.5l-0.6,1.8l-0.1,0.1l-0.1,0.1l-0.1,0.1l-0.1,0.2l0.6,0.4l0.3,0.3l0.3,0.3l0.1,0.4l0,0.5l-0.1,2.1l0.1,0.3l0.4,0.1  l0.3-0.2l0.2-0.1v0.1l-0.1,0.5l-0.4-0.1l-0.2,0.3l-0.1,0.5l-0.1,0.5l-0.2,0.8l0,0.2l0.1,0.3l0,0.2l0.1,1.8l-0.1,0.9l-0.3,0.6  l-0.3,0.4l-0.2,0.4l-0.1,0.5l-0.1,1.1l-0.1,0.4l-0.2,0.4l-0.3,0.2l0.1,0.6l-0.2,0.5l-0.3,0.4l-0.5,1.1l-0.1,0.1l-0.1,0.3l-0.1,0.5  l0.2-0.1l0.2,0.1l0.2,0.2l0.2,0.1l0.2-0.1l0.3-0.2l0.1-0.1l0.1-0.1l0.4-0.4l0.2-0.1l0.2,0l0.5,0.1l0.2,0l0.2-0.1l0.4-0.2l0.2-0.1  h0.9l0.5-0.5l0.2-0.1l0.2-0.1l0.7-0.1l0.6,0.1l1.1,0.5l1.8,0.1l0.2,0l0.5,0.2h2.2l0.6,0.2l1.1,0.6l0.5,0.4l0.3,0.5l0-0.2l-0.1-0.1  l-0.1-0.2l0.1,0.1l0.2,0.1l0.2,0l0.1-0.2l0.3,0.1l0.9,0l0.3,0.1l0.2,0.1h0.2l0.5-0.4l2.3-1.5l0.1-0.2l0.9-0.6l0.2-0.1l0.6-0.4  l0.3-0.1l0.3,0l0.3,0l0.3,0.1l0.2,0.2l0.1-0.1v-0.1l-0.1,0l0-0.1l0-0.1l0-0.1l-0.2-0.8l-0.1-0.4l0.1-0.3l-0.2-0.6l-0.1-1.5l-0.3-0.6  l0-0.2l0-0.4l-0.1-0.4l-0.1-0.3l-0.1-0.1l-0.3-0.2l-0.1-0.1l-0.1-0.2l0-0.1l0-0.1l-0.1-0.3h-0.1l0,0V424l0.1-0.1l0.1-0.2l0-0.1  l0-0.1l0-0.1l0-0.1l0.1-0.1l0.4-0.4l0.1-0.2l0.1-0.3l0.1-0.9l0.2-0.6l0.3-0.4l1.4-1.1l0.4-0.7l0.2-0.6l0.3-0.9l0.1-0.3v-0.2l0-0.2  v-0.1l0.1-0.1l0.5-0.1l0.2-0.1l0.2,0l0.2,0.1l0.2,0l0.2-0.1l0.2-0.1l0.1-0.1l0.1-0.2l0.2-0.4l0.1-0.1l0.3,0l0.8,0.3l0.4,0l0.1-0.5  l0.1-0.3l0.1-0.6l0.3-0.6l0.2-0.6l0.1-0.3l0.2-0.5l-0.2-0.2l-0.4,0l-0.4,0.1h0l-0.1,0l-0.2,0.3l-0.4,0.2l-0.4,0.1h-0.2l-0.4-0.3  l-0.6-1.5l-0.1-0.1l-0.3-0.2l-0.1-0.1l-0.1-0.1l-0.1-0.2l-0.1-0.1l-1.6-2l-0.4-0.3l-0.2-0.1l0.2-0.2l0.1-0.2l0-0.2l-0.2-0.2l0.1-0.2  l0.3-1l0.6-0.9l0.1-0.3l0-0.2l-0.1-0.1l-0.1-0.1l-0.1-0.1l0-0.2v-0.2l0-0.4l0.1-0.7l0.1-0.1l0.1-0.2l0-0.1l0.9-0.7l0.2-0.1l0.2-0.2  l0.2-0.2l0.1-0.2l0.1-0.1l0.7-0.1l0.2-0.1l0.2-0.2l0.2-0.1l0.1-0.1l0-0.3l0.1-0.3l-0.2-0.4l0.3-0.3l0.3-0.5l0.5-1l0.2-0.2l0.1-0.2  l0-0.2l-0.2-0.1l0.1-0.3l-0.1-0.4l-0.2-0.3l-0.2-0.2l-0.3-0.2l-0.4-0.1l-0.4,0l-0.4,0.2l-0.2,0.1l-0.2,0l-0.2-0.1l-0.1-0.1l0-0.2  l0.2-0.4l0-0.2l-0.2-0.4l-0.4-0.2l-0.4-0.1l-0.4-0.2l-0.2-0.3l-0.1-0.4l0-0.4l0.2-0.4l-0.7-0.9l-0.3-0.2l-0.1-0.2l-0.1-0.4v-0.4  l0.1-0.3l0.1-0.3l0.1-0.4V388l-0.1-0.2l-0.6-0.2l-0.3-0.2l-0.2-0.2l-0.2-0.4l-0.1-0.2l-0.5-0.3l-0.2-0.2l-0.4-0.6l-0.3-0.2l-0.5-1.4  l-0.1-0.3l3.2,0.1l0.2-0.1l0.2-0.1l0.3-0.1l0.6,0l0.3-0.1l0.3,0.2l0.5,0l2.2-0.3l0.2-0.1l0.2-0.4l0-0.1l0-0.1v-0.2l0.1-0.2l0.2-0.3  l0.1-0.2l0-0.2l-0.1-0.2l0-0.2l0.1-0.3l0.1-0.1l0.3-0.2l0.2-0.1l0.4-0.6l0.1-0.2l0-0.3l0-0.2v-0.1l-0.1-0.2v-0.1l0-0.1l0.2-0.1  l0-0.1l0.1-0.5l0.1-0.2l0-0.2l0.1-0.2l0.3-0.4l-0.6-1.1l-0.3-0.4l-0.2-0.3l-0.2-0.2l-0.2-0.1l-0.4-0.1l-0.2-0.1l-0.2-0.3l-0.1-0.7  l-0.1-0.3l0.1-0.2l0.1-0.5l0.1-0.2l0.3-0.1l0.6-0.4l0.3,0l0.3,0l0.3,0l0.3-0.2l0-0.1l0-0.3l0.1-0.1l0.1-0.1l0.6-0.5l0.1-0.1l0.3-0.5  l-0.5-0.5l-0.3-0.6l-0.1-0.6l0.3-0.7l0.4-0.5l0-0.2l-0.1-0.3l-0.1-0.3l-0.2-0.2l-0.1-0.2l0-0.3l0.1-0.3l0.3-0.6l0.1-0.4v-0.2l0-0.3  l-0.1-0.7l-0.2-0.6l0-0.3v-0.4l0-0.2l0-0.1l0-0.1l-0.1-0.2l0-0.1l0-0.5l0.2-0.1l0.1-0.2l-0.1-0.3l-0.2-0.1l-0.2-0.1l-0.1-0.2  l-0.1-0.4l-0.3-0.8l-0.2-0.4l-0.5-0.5l-0.2-0.2l0-0.2l0.2-0.3l0.1-0.4l0.3-0.1l0.9,0.1l0.4,0l0.2-0.2l0.6-0.9l0.1-0.4l0-0.5l0.1-0.1  l0.2-0.2l0.5-0.5l0.1-0.1l0.1-0.3l0.5-0.8l0.2-0.2l0.3-0.1l1,0l0.1-0.1l0.9-0.4l0.5-0.4l0.5-0.5l0.5-0.8l0.1,0l0.2,0l0.1,0l0-0.1  l0-0.2v-0.1h0l0.2-0.2l0.2-0.1l0.5,0v-0.2l0.6-0.9v-0.1l0-0.1l0-0.2l0.1-0.2l0.4-0.4l0.7-1.1L-386.4,346.5z M-435.7,388.9l0.2-0.2  l-0.1,0L-435.7,388.9z M-425.5,375.1h0.2l0.3-0.2l-0.5-0.2l-0.2-0.1l-0.1,0l-0.1,0l0.1,0.1l0,0.1L-425.5,375.1z M-428.3,399.5  l0.2-0.1l0-0.2l-0.1-0.1l-0.1-0.1l-0.1,0.1l-0.1,0.3L-428.3,399.5z M-428.5,398.6l0,0.3l0.1-0.1l0.1-0.4l-0.1-0.1L-428.5,398.6z   M-428.6,399.7l0.1-0.3l0-0.1l-0.1,0.1l0,0l-0.1,0.1l-0.2,0.2l-0.2,0.3l-0.1,0.3l0.1,0l0.3-0.3L-428.6,399.7z M-425.7,406.6l-0.1,0  l0,0.1v0.1l0.1,0.1V406.6L-425.7,406.6z"/></svg>