<svg xmlns="http://www.w3.org/2000/svg" xmlns:xlink="http://www.w3.org/1999/xlink" version="1.1" x="0px" y="0px" viewBox="-461 335 100 100" fill="#999999" style="enable-background:new -461 335 100 100;" xml:space="preserve"><path vector-effect="none" d="M-409.2,430.8l-3.9,3.2l-2.9,1l-3.2,0l-3.4-0.5l-2.9-1.2l-2.7-3.1l-4.1-6.8l1.1-0.1l1.5-1.3l0.4-1.6  l-0.5-5.9l-0.5-1.6l-2.4-4.5l-0.2-0.9l0.6-1.7l0.1-1.2l-0.1-1.1l-0.3-0.5l-1.5-0.9l-0.4-2.1l-0.1-2.3l-0.5-1.5l0.4-1.1l-0.1-1.3  l-0.2-1.4l-0.1-1.4l0.4-3.4l0-1.3l-0.8-4.7l0.7-2.7l0.1-1.2l-0.7-0.8l1.5-2l1.2,1.3l1.2,2.1l1.5,0.3l-0.9-2.5l-0.2-1.1l-0.1-1.1  l0.1-0.7l0.2-0.7l0-0.8l-0.3-0.8l-0.5-0.3l-1.3-0.2l-0.7-0.3l0.6-0.8l0.8-0.2l0.8-0.1l0.8-0.4l0.2-0.3l0.4-1l0.2-0.2l0.4,0.1  l0.3,0.6l0.4,0.1l0.3,0.5l-0.1,1.1l-0.4,1.7v1.3l0,0.5l0.5,1.2l0.3,0.3l0.4,0.3l0.6-0.2l0.1-0.2l-0.1-0.3l0.2-1.5l0-1.5l0.3-0.7  l0.6-0.7l0.4,0.2l0.4,0.4l0.8,0l0.4-0.4l0.8-1.8l0.4-0.8l-1.6,0.6l-1.5,0.3l-1.2-0.5l-0.8-1.7l-0.1-0.9l0.4-3l0.2-0.3l0.5-0.5  l0.1-0.3l0-0.3l-0.3-0.4l-0.1-0.3v-1.9l0.8,0.2l0.3-0.5l0.2-0.7l0.5-0.3l0.4,0.2l0.3,0.6l0.2,0.7l0,0.7l0.8-0.5l0.5-0.9l0.2-1  l-0.3-1.1l-0.4,0.4l-0.8-0.9l0.1-1.3l1.5-3.6l0.2-1.2l0.2-2.9l0.5,0.3l0.2,0.2l0.2,0.3h0.4l1.3-3.8l1.1-1.6l1.6-0.7l0.9-0.2l2.4-1  l0.5-0.3l0.3-1l1.3-1.4l0.3-0.9l1,0.4l1.2-0.4l2.1-1.3l4.5,2.4l0.9,1l0.1,1.2l-0.1,1.6l0,1.4l0.6,0.6l1.1,0.4l0.3,1l0.1,1.3l0.3,1.2  l0.9,0.8l1.2,0.2l2.5-0.2l1.4,0.1l1.2,0.4l1,0.5l0.9,0.7l0.8,0.8l0.6,1l0.4,1.1l1,6.8l0,0.9l-0.2,0.7l-0.4,0.3l-0.3-0.2l-0.3-0.9  l-0.5-0.2l-0.4,0.3l-0.4,0.6l-0.2,0.7l0.1,0.6l0.5,0.5l0.5-0.1l0.4-0.4l0.2-0.5l0.9,1.4l-0.8,1.5l-1.1,0.4l-0.2-1.6l-0.8,0.2l-2,1  l0.8,0.3l0.9,0.5l0.7,0.6l0.3,0.6l-0.2,1.4l-0.8,0.5l-1,0.2l-0.8,0.4l-0.4-0.3l-0.4-0.1l0.1,3.3l-0.1,1l-0.3,0.5l-0.5,0.6l-0.3,0.6  l0.1,0.6l2.1,3.6l0.4,0.9l0.1,0.9l-0.4,6l0.1,1.4l0.3,0.7l0.7,0.3l3.3,0.5l0.5,0.5l0.5,1.3l0.4,2.2l0.1,5.2l-0.6,6.4l0.3,0.7  l-0.5,0.5l-0.9,3.8l-0.7,1.2l-2,2.2l-0.6,1.5l-0.5,0.2l-0.5,0.2l-0.4,0.2l-0.3,0.6l-1.6,6l-0.3,0.7l-0.7,0.5l-0.3,1.2l-0.4,2.6  l-0.8,1l-2.3,1.4l-0.5,0.5l-0.3,1.4l-0.7,1l-0.8,0.8l-0.5,0.9l-0.6-0.9l0.2-0.9l0.5-1l0.3-1.3l-0.4-0.7l-1-0.1l-2,0.2l-0.1-1.1  l-0.4,0l-0.6,0.4l-0.8,0.3l-1,0.1l-0.9,0.4l-0.5,0.7L-409.2,430.8"/></svg>