<svg xmlns="http://www.w3.org/2000/svg" xmlns:xlink="http://www.w3.org/1999/xlink" version="1.1" x="0px" y="0px" viewBox="0 0 100 100" fill="#e0e0e0" enable-background="new 0 0 100 100" xml:space="preserve"><path stroke="#e0e0e0" stroke-miterlimit="10" d="M30.85,17.367c0.292-0.012,0.417,0.253,0.657,0.339  c0.223,0.079,0.377,0.026,0.566-0.076c0.468-0.252,0.537-0.916,0.745-1.366c0.035-0.077,0.125-0.282,0.204-0.319  c0.146-0.069,0.129,0.002,0.205,0.091c0.148,0.176,0.215,0.221,0.459,0.209c0.217-0.011,0.363-0.071,0.494,0.157  c0.114,0.2,0.082,0.42,0.197,0.601c0.168,0.262,0.52,0.422,0.793,0.529c0.342,0.134,0.623,0.312,0.982,0.382  c-0.004-0.303,0.044-0.451,0.336-0.567c0.229-0.091,0.178,0.045,0.385,0.152c0.121,0.063,0.221,0.027,0.353,0.002  c0.108-0.022,0.198-0.059,0.317-0.042c0.137,0.02,0.174,0.097,0.303,0.149c0.168,0.068,0.383,0.036,0.563,0.045  c0.258,0.014,0.52,0.025,0.734,0.167c0.234,0.156,0.315,0.455,0.606,0.513c0.116,0.022,0.241,0.02,0.36,0.019  c0.139-0.001,0.178-0.055,0.285-0.077c0.254-0.055,0.572-0.016,0.834-0.018c0.369-0.002,0.44,0.217,0.684,0.446  c0.172,0.162,0.402,0.173,0.631,0.162c0.313-0.016,0.631,0.058,0.943,0.01c0.168-0.026,0.254-0.103,0.395-0.175  c0.163-0.083,0.367-0.122,0.541-0.182c0.107-0.037,0.197-0.062,0.252-0.165c0.078-0.144-0.025-0.161,0.17-0.224  c0.396-0.128,0.863-0.004,1.268-0.004c0.568,0,0.73,0.627,0.953,1.056c0.141,0.275,0.283,0.494,0.582,0.614  c0.127,0.051,0.273,0.055,0.395,0.136c0.098,0.065,0.15,0.171,0.223,0.261c0.143,0.175,0.339,0.283,0.489,0.45  c0.181,0.202,0.349,0.425,0.582,0.57c0.276,0.173,1.055,0.18,1.349,0.04c0.211-0.101,0.377-0.259,0.587-0.362  c0.267-0.131,0.384-0.187,0.53-0.434c0.142-0.238,0.418-0.37,0.537-0.605c0.109-0.216,0.073-0.561,0.238-0.745  c0.151-0.169,0.538-0.208,0.743-0.298c0.302-0.131,0.622-0.259,0.949-0.284c0.652-0.05,1.306-0.077,1.952-0.153  c0.488-0.058,0.981-0.02,1.461-0.096c0.249-0.04,0.478-0.164,0.733-0.188c0.271-0.026,0.452-0.052,0.705-0.147  c0.208-0.078,0.428-0.066,0.645-0.076c0.203-0.008,0.328-0.073,0.513-0.121c0.404-0.104,0.823,0.093,1.193-0.178  c0.373-0.272,0.548-0.809,0.734-1.206c0.091-0.194,0.195-0.365,0.313-0.541c0.163-0.243,0.157-0.597,0.326-0.821  c0.227-0.3,0.624-0.096,0.917-0.2c0.314-0.111,0.527-0.411,0.842-0.521c0.36-0.126,0.802-0.124,1.176-0.156  c0.336-0.028,0.736-0.117,1.078-0.054c0.392,0.072,0.419,0.445,0.723,0.633c0.351,0.217,0.82,0.25,1.102,0.56  c0.176,0.194,0.257,0.464,0.426,0.664c0.087,0.104,0.203,0.162,0.275,0.278c0.099,0.159,0.129,0.338,0.243,0.5  c0.082,0.116,0.159,0.227,0.268,0.315c0.111,0.091,0.235,0.139,0.305,0.266c0.098,0.177,0.125,0.413,0.215,0.6  c0.077,0.163,0.178,0.304,0.264,0.462c0.174,0.323,0.208,0.681,0.279,1.032c0.1,0.483,0.229,0.965,0.502,1.382  c0.102,0.157,0.322,0.228,0.379,0.391c0.056,0.157-0.037,0.341-0.214,0.339c-0.043,0.22,0.28,0.59,0.395,0.781  c0.165,0.273,0.308,0.613,0.509,0.858c0.18,0.219,0.48,0.333,0.615,0.57c0.151,0.27,0.118,0.708,0.366,0.909  c0.179,0.145,0.476,0.065,0.675,0.21c0.227,0.165,0.226,0.435,0.226,0.702c0,0.389,0.086,0.67,0.224,1.038  c0.133,0.356,0.399,0.43,0.702,0.606c0.215,0.125,0.357,0.27,0.595,0.359c0.172,0.064,0.308,0.125,0.337,0.325  c0.027,0.182-0.068,0.371-0.044,0.557c0.03,0.234,0.246,0.346,0.327,0.574c0.064,0.181,0.151,0.323,0.284,0.464  c0.147,0.156,0.247,0.37,0.398,0.514c0.199,0.189,0.513,0.267,0.726,0.443c0.177,0.147,0.275,0.366,0.455,0.514  c0.189,0.156,0.445,0.228,0.646,0.374c0.408,0.296,0.223,0.92,0.314,1.344c0.077,0.352,0.235,0.711,0.34,1.046  c0.104,0.33,0.173,0.702,0.316,1.034c0.138,0.318,0.267,0.626,0.366,0.956c0.102,0.335,0.26,0.677,0.34,1.016  c0.075,0.319-0.051,0.657-0.091,0.976c-0.074,0.596,0.304,1.098,0.187,1.714c-0.077,0.407-0.391,0.768-0.527,1.151  c-0.158,0.445-0.546,0.753-0.595,1.21c-0.062,0.588-0.206,1.169-0.201,1.763c0.003,0.346,0.05,0.685,0.034,1.034  c-0.019,0.398-0.073,0.781-0.095,1.179c-0.009,0.141-0.045,0.315-0.014,0.456c0.044,0.195,0.202,0.374,0.263,0.564  c0.131,0.412,0.25,0.84,0.285,1.268c0.022,0.271,0.029,0.54,0.058,0.812c0.027,0.28,0.127,0.572,0.113,0.862  c-0.018,0.367-0.521,0.482-0.603,0.811c-0.055,0.212,0.117,0.276,0.244,0.402c0.206,0.202,0.282,0.469,0.282,0.751  c0,0.386,0.143,0.468,0.421,0.678c0.309,0.233,0.332,0.477,0.451,0.818c0.104,0.301,0.264,0.573,0.477,0.811  c0.271,0.304,0.488,0.542,0.856,0.733c0.335,0.175,0.673,0.325,1.023,0.469c0.411,0.169,0.86,0.231,1.3,0.278  c0.363,0.038,0.696,0.096,1.049-0.032c0.302-0.108,0.226-0.283-0.015-0.413c-0.262-0.141-0.164-0.283,0.064-0.34  c0.392-0.097,0.069-0.198,0.155-0.479c0.094-0.306,0.495,0.017,0.645,0.138c0.143,0.114,0.614,0.539,0.814,0.438  c0.157-0.079,0.035-0.555,0.276-0.704c0.226-0.141,0.529-0.091,0.764-0.221c0.247-0.139,0.491-0.294,0.748-0.41  c0.246-0.111,0.54-0.154,0.769-0.299c0.202-0.127,0.294-0.208,0.541-0.246c0.073-0.012,0.192-0.012,0.256-0.051  c0.086-0.051,0.13-0.163,0.214-0.216c0.229-0.145,0.453-0.006,0.68,0.041c0.202,0.041,0.424-0.015,0.624,0.037  c0.228,0.058,0.445,0.225,0.651,0.352c0.271,0.165,0.578,0.301,0.781,0.553c0.179,0.222,0.385,0.591,0.484,0.855  c0.057,0.146,0.075,0.28,0.076,0.438c0.002,0.289,0.008,0.582-0.002,0.87c-0.497,0.083,0.051,0.601,0.102,0.859  c0.073,0.372-0.138,0.694-0.176,1.052c-0.021,0.194-0.095,0.349-0.133,0.531c-0.039,0.184-0.017,0.375-0.052,0.559  c-0.044,0.233-0.15,0.451-0.2,0.684c-0.036,0.173-0.04,0.355-0.081,0.525c-0.09,0.388-0.46,0.704-0.811,0.861  c-0.557,0.25-1.228,0.218-1.824,0.243c-0.609,0.026-1.316,0.023-1.887,0.241c-0.443,0.169-0.724,0.694-1.04,1.027  c-0.029-0.567,0.556-0.695,0.817-1.117c0.127-0.204,0.17-0.55-0.1-0.608c-0.33-0.07-0.464,0.188-0.572-0.244  c-0.066-0.264-0.126-0.627,0.04-0.859c0.142-0.199,0.472-0.409,0.344-0.701c-0.132-0.303-0.744-0.235-1.009-0.205  c-0.329,0.038-0.947,0.243-1.171,0.513c-0.237,0.286,0.006,0.813,0.152,1.098c0.177,0.347,0.674,0.781,0.547,1.216  c-0.155,0.536-0.767,0.147-1.088,0.45c-0.239,0.227-0.216,0.716-0.199,1.027c0.511,0.02,0.938-0.196,1.436-0.243  c0.07,0.287-0.789,0.444-1.01,0.54c-0.203,0.089-0.318,0.205-0.409,0.405c-0.152,0.331-0.062,0.784-0.073,1.14  c0.279-0.246,0.554-0.466,0.855-0.68c0.204-0.143,0.444-0.294,0.589-0.499c0.087,0.245-0.167,0.604-0.255,0.848  c-0.061,0.17-0.122,0.33-0.22,0.488c-0.201,0.325-0.469,0.602-0.71,0.9c-0.284,0.354-0.618,0.666-0.966,0.958  c-0.196,0.163-0.251,0.202-0.507,0.184c-0.213-0.016-0.437-0.046-0.646,0.005c0.001,0.273,0.438,0.198,0.538,0.396  c0.119,0.231-0.236,0.351-0.377,0.426c-0.6,0.315-0.401,0.793-0.017,1.188c0.212,0.215,0.408,0.418,0.421,0.729  c0.009,0.23-0.124,0.429-0.113,0.665c0.009,0.211,0.023,0.309-0.099,0.492c-0.053,0.078-0.117,0.141-0.149,0.228  c-0.031,0.083,0.01,0.154-0.045,0.233c0.216,0.045,0.542,0.057,0.649,0.307c0.099,0.23-0.143,0.492-0.248,0.676  c-0.202,0.348-0.112,0.799-0.236,1.175c-0.104,0.32-0.461,0.444-0.498,0.798c-0.029,0.292,0.053,0.551-0.195,0.774  c-0.255,0.23-0.76,0.145-1.068,0.114c-0.393-0.039-0.796-0.078-1.183-0.142c-0.188-0.03-0.357-0.142-0.535-0.203  c-0.158-0.054-0.326-0.083-0.489-0.14c-0.281-0.099-0.568-0.242-0.841-0.375c-0.242-0.119-0.529-0.218-0.759-0.347  c-0.184-0.104-0.441-0.427-0.487-0.625c-0.063-0.266,0.031-0.522-0.065-0.787c-0.051-0.139-0.12-0.269-0.186-0.402  c-0.056-0.114-0.119-0.452-0.241-0.496c-0.229-0.083-0.545,0.454-0.716,0.532c-0.232,0.107-0.628,0.042-0.886,0.08  c-0.084,0.012-0.278,0.051-0.345-0.012c-0.094-0.088-0.064-0.425-0.084-0.542c-0.035-0.217-0.131-0.495-0.379-0.57  c-0.304-0.092-0.395,0.398-0.641,0.477c-0.282,0.091-0.733-0.001-1.035-0.001c-0.129,0-0.271,0.021-0.389-0.035  c-0.105-0.049-0.16-0.177-0.25-0.242c-0.071-0.054-0.172-0.062-0.241-0.107c-0.11-0.071-0.142-0.169-0.233-0.252  c-0.183-0.164-0.423-0.114-0.583-0.3c-0.121-0.141-0.098-0.413-0.229-0.53c-0.153-0.138-0.507-0.028-0.695-0.047  c-0.245-0.023-0.491-0.063-0.721-0.151c-0.479-0.185-0.989-0.129-1.504-0.129c-0.295,0-0.524,0.112-0.802,0.189  c-0.298,0.084-0.554,0.19-0.827,0.337c-0.514,0.275-1.059,0.464-1.633,0.592c-0.65,0.144-1.286,0.203-1.957,0.282  c-0.668,0.078-1.226,0.17-1.848,0.434c-0.32,0.136-0.51,0.227-0.77,0.455c-0.251,0.221-0.547,0.398-0.792,0.619  c-0.286,0.259-0.647,0.529-0.869,0.848c-0.077,0.11-0.095,0.247-0.185,0.349c-0.1,0.112-0.26,0.142-0.378,0.228  c-0.209,0.154-0.355,0.354-0.501,0.564c-0.256,0.375-0.584,0.566-1.012,0.699c-0.49,0.153-0.946,0.371-1.436,0.513  c-0.398,0.117-0.791,0.257-1.205,0.341c-0.287,0.059-0.578,0.055-0.881,0.055c-0.125,0-0.271,0.022-0.395,0  c-0.22-0.038-0.319-0.226-0.501-0.343c-0.328-0.212-0.753-0.123-1.118-0.169c-0.309-0.038-0.708-0.013-0.994-0.161  c-0.363-0.188-0.565-0.468-1-0.483c-0.367-0.013-0.714,0.146-1.068,0.204s-0.674,0.266-1.038,0.272  c-0.165,0.004-0.219-0.055-0.361-0.131c-0.186-0.099-0.402-0.088-0.605-0.116c-0.459-0.063-0.816-0.321-1.291-0.322  c-0.602-0.002-1.008,0.393-1.531,0.641c-0.313,0.148-0.699,0.141-1.046,0.119c-0.21-0.015-0.374-0.089-0.565-0.152  c-0.258-0.086-0.529-0.119-0.775-0.231c-0.348-0.157-0.612-0.42-0.999-0.471c-0.295-0.04-0.595-0.063-0.88-0.11  c-0.188-0.032-0.471-0.11-0.611-0.246c-0.134-0.13-0.133-0.241-0.338-0.301c-0.3-0.086-0.633-0.044-0.94-0.044  c-0.38,0-0.747,0.107-1.091-0.08c-0.4-0.217-0.645-0.395-1.109-0.413c-0.61-0.026-1.229,0.087-1.84,0.113  c-0.755,0.033-1.533,0.314-2.266,0.035c-0.506-0.193-1.141-0.293-1.139-0.942c0.002-0.354,0.137-0.572,0.39-0.824  c0.251-0.251,0.525-0.331,0.808-0.498c0.106-0.063,0.184-0.149,0.262-0.248c0.121-0.155,0.141-0.163-0.002-0.313  c-0.237-0.251-0.485-0.457-0.777-0.618c-0.424-0.232-0.781-0.395-1.139-0.707c-0.203-0.176-0.383-0.4-0.588-0.553  c-0.186-0.138-0.43-0.186-0.543-0.411c-0.043-0.085-0.074-0.177-0.09-0.271c-0.014-0.087,0.035-0.249,0.006-0.32  c-0.057-0.14-0.402-0.3-0.545-0.351c-0.131-0.049-0.275,0.015-0.403-0.022c-0.304-0.089-0.493-0.542-0.601-0.821  c-0.142-0.37-0.266-0.745-0.404-1.11c-0.059-0.156-0.268-0.458-0.07-0.602c0.18-0.132,0.491-0.023,0.688-0.188  c0.191-0.16,0.114-0.399,0.396-0.446c0.2-0.032,0.487,0,0.693,0.021c0.171,0.017,0.396,0.132,0.573,0.095  c0.307-0.065,0.302-0.559,0.209-0.797c-0.109-0.278-0.447-0.377-0.682-0.496c-0.319-0.163-0.687-0.184-0.986-0.369  c-0.317-0.195-0.564-0.499-0.885-0.688c-0.317-0.188-0.691,0.064-0.938,0.28c-0.176,0.154-0.457,0.295-0.554,0.491  c-0.104,0.211-0.13,0.485-0.245,0.702c-0.118,0.222-0.268,0.431-0.391,0.652c-0.168,0.304-0.566,0.641-0.894,0.779  c-0.369,0.156-0.538-0.14-0.649-0.455c-0.131-0.363-0.367-0.589-0.549-0.913c-0.127-0.224-0.172-0.433-0.43-0.553  c-0.244-0.114-0.522-0.094-0.783-0.128c-0.393-0.053-0.752-0.171-1.165-0.171c-0.333,0-1.156,0.112-1.387-0.189  c-0.104-0.138-0.044-0.397-0.087-0.574c-0.062-0.245-0.213-0.445-0.4-0.623c-0.225-0.214-0.301-0.355-0.625-0.376  c-0.303-0.02-0.605,0.027-0.908,0.041c-0.089,0.004-0.251,0.05-0.342,0.015c-0.191-0.071-0.15-0.396-0.152-0.603  c-0.004-0.305,0.125-0.386,0.396-0.495c0.311-0.125,0.636-0.157,0.969-0.173c0.213-0.012,0.525-0.106,0.493-0.379  c-0.031-0.264-0.416-0.487-0.639-0.55c-0.265-0.075-0.629-0.19-0.823-0.403c-0.09-0.099-0.219-0.422-0.151-0.565  c0.058-0.123,0.29-0.098,0.399-0.149c0.18-0.087,0.29-0.305,0.375-0.479c0.088-0.181,0.148-0.427,0.289-0.581  c0.188-0.205,0.519-0.383,0.398-0.736c-0.049-0.143-0.15-0.126-0.285-0.197c-0.327-0.174-0.502-0.434-0.873-0.55  c-0.334-0.105-0.691-0.107-1.038-0.133c-0.229-0.017-0.515-0.015-0.653-0.224c-0.137-0.204-0.227-0.47-0.359-0.688  c-0.144-0.232-0.355-0.176-0.607-0.129c-0.37,0.07-0.439-0.039-0.742-0.232c-0.267-0.173-0.512-0.355-0.707-0.607  c-0.174-0.226-0.397-0.396-0.576-0.616c-0.172-0.212-0.212-0.418-0.457-0.56c-0.114-0.065-0.221-0.123-0.347-0.167  c-0.097-0.033-0.321-0.058-0.388-0.136c-0.19-0.225,0.146-0.319,0.262-0.446c0.393-0.433-0.568-0.686-0.38-1.201  c0.101-0.273,0.231-0.458,0.284-0.752c0.049-0.274,0.11-0.565,0.133-0.844c0.014-0.154,0.042-0.414,0-0.564  c-0.095-0.333-0.494-0.055-0.682,0.068c-0.203,0.134-0.342,0.31-0.477,0.054c-0.098-0.188-0.137-0.412-0.25-0.602  c-0.221-0.372-0.537-0.625-0.834-0.928c-0.189-0.192-0.184-0.337-0.453-0.452c-0.092-0.039-0.102,0.037-0.166-0.071  c-0.029-0.051-0.002-0.11-0.034-0.16c-0.026-0.039-0.138-0.082-0.178-0.112c-0.132-0.097-0.239-0.222-0.368-0.321  c-0.161-0.124-0.315-0.17-0.484-0.256c-0.272-0.14-0.52-0.21-0.584-0.547c-0.072-0.372-0.069-0.623-0.377-0.917  c-0.215-0.205-0.411-0.249-0.364-0.591c0.229-0.105,0.348-0.089,0.528-0.298c0.148-0.171,0.304-0.266,0.551-0.218  c0.214,0.042,0.426,0.114,0.641,0.152c0.104,0.018,0.236,0.057,0.341,0.039c0.173-0.029,0.185-0.157,0.298-0.28  c0.238-0.261,0.492,0.064,0.713,0.224c0.223,0.162,0.504,0.252,0.791,0.227c0.289-0.026,0.559-0.29,0.667-0.542  c0.075-0.175,0.112-0.36,0.187-0.538c0.041-0.101,0.144-0.176,0.18-0.282c0.041-0.117-0.041-0.337,0.027-0.443  c0.098-0.156,0.432-0.092,0.594-0.092c0.416,0,0.916,0.079,1.309,0.213c0.313,0.107,0.808,0.305,1.084,0.078  c0.155-0.128,0.29-0.278,0.451-0.4c0.246-0.184,0.313-0.563,0.402-0.852c0.056-0.181,0.041-0.496,0.132-0.649  c0.194-0.331,1.159,0.077,1.003-0.628c-0.079-0.351-0.456-0.492-0.502-0.835c-0.045-0.331,0.125-0.5,0.338-0.705  c0.278-0.271,0.145-0.596,0.313-0.898c0.169-0.306,0.544-0.162,0.802-0.25c0.239-0.082,0.335-0.259,0.312-0.509  c-0.016-0.16-0.086-0.181,0.052-0.254c0.098-0.052,0.3,0.013,0.416,0c0.138-0.015,0.185,0.005,0.254-0.14  c0.048-0.099,0.114-0.459,0.048-0.576c-0.107-0.184-0.439-0.204-0.324-0.525c0.027-0.08,0.133-0.192,0.174-0.27  c0.07-0.128,0.113-0.266,0.207-0.38c0.215-0.268,0.598-0.183,0.799-0.407c0.188-0.209-0.049-0.546-0.021-0.797  c0.029-0.274,0.27-0.231,0.43-0.42c0.312-0.368,0.027-0.699,0.076-1.092c0.041-0.338,0.422-0.405,0.596-0.643  c0.178-0.242,0.373-0.585,0.514-0.856c0.129-0.247,0.248-0.542,0.464-0.73c0.302-0.263,0.431-0.4,0.493-0.804  c0.036-0.235,0.007-0.472,0.037-0.708c0.035-0.273,0.207-0.753,0.464-0.906c0.347-0.207,0.757-0.08,0.904-0.547  c0.081-0.254,0.06-0.591-0.027-0.837c-0.08-0.227-0.161-0.424-0.016-0.645c0.075-0.113,0.205-0.146,0.289-0.242  c0.093-0.104,0.06-0.151,0.117-0.273c0.091-0.192,0.304-0.234,0.474-0.337c0.212-0.127,0.293-0.317,0.504-0.449  c0.328-0.207,0.135-0.404,0.215-0.717c0.084-0.323,0.503-0.438,0.68-0.708c0.156-0.24,0.113-0.517,0.442-0.587  c0.28-0.06,0.81,0.268,1.001,0.087c0.086-0.081,0.049-0.361,0.086-0.473c0.033-0.096,0.104-0.233,0.195-0.293  c0.278-0.181,0.596,0.088,0.842,0.21c0.195,0.097,0.451,0.174,0.674,0.169c0.209-0.005,0.34-0.13,0.52-0.231  c0.148-0.083,0.323-0.13,0.413-0.292c0.021-0.037,0.034-0.175,0.05-0.192c0.217-0.238,0.514,0.115,0.465-0.406  c-0.01-0.094-0.102-0.365-0.043-0.457c0.137-0.211,0.607-0.055,0.78-0.162c0.263-0.164,0.062-0.621,0.412-0.804  c0.153-0.079,0.325-0.059,0.391-0.262C30.975,17.759,30.802,17.564,30.85,17.367z"/></svg>