<svg xmlns="http://www.w3.org/2000/svg" xmlns:xlink="http://www.w3.org/1999/xlink" version="1.1" x="0px" y="0px" viewBox="-461 335 100 100" fill="#e0e0e0" style="enable-background:new -461 335 100 100;" xml:space="preserve"><polygon points="-361,391.8 -361.4,390.4 -361.9,389.7 -362.7,389 -363.6,388.5 -364.5,388.7 -363.9,385.9 -364,384.6 -365.5,384.3   -365.2,383.9 -364.9,383.6 -364.1,383 -364.5,382.1 -364.2,381.4 -363.7,380.6 -363.4,379.8 -363.8,377.8 -364,377.3 -363.4,376   -363.6,375.5 -364,374.9 -364.1,374.6 -364.1,374.1 -363.5,370.2 -363.4,369 -363.8,367.9 -365,368.4 -365.7,367.8 -366.2,366.7   -366.7,364.9 -366.9,364.5 -367.5,363.9 -368.3,362.8 -368.6,362.2 -368.4,361.9 -368.2,361.3 -368.1,360 -368.4,358.8   -369.4,358.2 -370.3,358 -373.6,356.8 -374,356.6 -374.8,355.9 -375.3,355.5 -376.7,354.9 -377.4,354.4 -377.6,353.7 -377.6,353.3   -377.4,353 -377.3,352.8 -377.3,352.6 -377.4,352.2 -377.8,351.6 -378.1,350.6 -379,349.2 -379.3,348.4 -379.5,347.2 -379.7,346.9   -380.3,346.4 -380.5,346.5 -380.9,346.7 -381.3,346.7 -381.7,346.4 -381.8,346.1 -381.6,345.9 -381.5,345.6 -381.3,345.3   -381.5,344.6 -382.2,344.1 -382.4,343.6 -382.2,343.1 -381.9,342.5 -381.5,342.1 -381.5,342.1 -382.8,341.7 -383.5,341.8   -384.1,342.1 -384.9,342.3 -385.7,342.2 -386.5,341.9 -387.4,341.8 -388.1,342.1 -388.5,342.8 -388.8,344.8 -389.1,345.5   -389.4,345.8 -390.2,346.2 -390.6,346.4 -390.7,346.7 -390.8,347.4 -390.9,347.8 -391.4,348.6 -392.1,349.5 -394.3,351.5 -395,352   -395.4,352.1 -395.8,352.1 -396.2,352.2 -396.6,352.4 -396.9,353.1 -397.2,355 -397.5,355.7 -398,356.2 -400,357 -401.7,357.9   -402.4,358.6 -402.8,359.6 -403.3,359.7 -406.7,361.6 -407.8,362 -408.8,362.1 -409.8,361.8 -410.6,361 -411.1,360 -411.2,358   -411.4,357 -412.8,355 -413.3,354.7 -413.8,354.6 -414.2,354.7 -414.7,355 -415.1,355.5 -415.4,356.5 -415.8,356.8 -416.2,356.6   -417.2,356 -417.8,355.9 -419,356.1 -419.8,356.5 -420.6,357.1 -421.6,357.6 -422.5,357.9 -423.5,357.9 -425.5,357.8 -427.4,358.5   -429.4,359.9 -431.1,361.7 -432.2,363.4 -432.3,363.5 -432.4,363.6 -432.6,363.6 -436.3,363.8 -437.1,364.1 -437.7,364.8   -439,367.6 -439.5,368.2 -441.9,370.2 -442.5,371.1 -443.1,372.2 -441.8,372.6 -441.4,372.9 -441.3,373.2 -441.4,373.5   -441.7,373.8 -441.7,374.1 -441.6,374.2 -441,374.4 -440.7,374.6 -440.6,375.1 -440.5,375.8 -440.6,376.4 -441.1,377 -440.3,377.9   -440.2,380.4 -439.8,381.3 -440.4,382.3 -439.9,383.3 -438.7,384.5 -438.6,384.1 -438.3,384.5 -438.1,385.1 -438.1,385.3   -437.6,386.4 -437.3,386.6 -436.7,386.3 -436.9,387.2 -436.6,388.1 -436.2,388.8 -436,389.5 -436.2,390.3 -436.4,390.3   -436.7,389.9 -436.7,389.7 -437.2,390 -437.5,390.3 -437.9,390.6 -438.4,390.7 -438.2,391.2 -438.1,391.7 -438.2,392.3   -438.4,392.7 -439,391.7 -439.3,391.3 -439.8,391.4 -440.1,391.8 -440.3,392.6 -440.4,394 -440.7,394 -441,393.6 -441,393   -440.7,391.7 -441.4,392.1 -441.7,392.7 -441.8,394.2 -441.5,394.5 -441,394.8 -440.6,395.3 -440.4,396.1 -441.5,395 -442.9,395.1   -443.8,396 -443.4,397.4 -444.4,397.3 -444.9,397.8 -445.1,398.8 -444.8,399.8 -444.5,399.6 -444.1,399.4 -444.3,400.1   -444.8,400.3 -445.5,400.2 -446.2,399.8 -448.2,403.8 -448.1,403.2 -447.9,402.4 -447.8,401.8 -448.2,401.8 -448.4,402.4   -448.6,402.8 -449.2,403.5 -449.2,403.2 -449.4,403.1 -449.7,403.1 -449.9,403.1 -450,403.4 -450,404 -450.1,404.3 -450.5,405.1   -450.8,405.9 -451.1,406.6 -451.9,407.1 -451.3,406.2 -450.9,405.1 -451.4,404.4 -451.4,403.2 -451.7,402.1 -452.6,401.8 -453,402   -453.3,402.5 -453.9,404.8 -454.1,405.1 -454.3,405.2 -454.4,405.3 -454.6,405.5 -455.6,406.1 -457.7,407 -458.6,407.8   -459.2,409.1 -459.5,410.4 -460.2,411.1 -460.1,411.2 -460,411.8 -460.8,412.5 -461,413.2 -460.8,413.8 -460.4,414.1 -459.8,414.4   -459.3,414.9 -459,416 -459.3,419.8 -459,420.1 -457.1,421.3 -456.4,421.6 -455,421.7 -454,422.2 -453.2,423.1 -452.4,418.2   -451.3,417.1 -448.4,416.9 -447.6,417 -444.6,418.3 -443.5,418.7 -441.4,418.9 -440.4,419.2 -439.5,419.7 -438.9,420.1   -438.8,420.3 -438.9,420.9 -438.7,421.6 -437.6,422.6 -437.3,423.2 -437.5,423.8 -438.1,424.6 -438.3,425.1 -438.2,425.7   -437.7,426.7 -437.7,427.3 -437.2,428.3 -436,428.2 -433.9,427.2 -433,427.1 -430.3,427.6 -429.1,428.3 -428.2,428 -427.3,427.4   -426.2,427.2 -425.7,427.3 -425.3,427.1 -424.9,426.9 -423.5,426.4 -423.1,426.4 -420.5,427.2 -419.6,427.4 -418.5,427.2 -418,427   -417.8,426.5 -417.7,425.5 -417.3,425 -416.7,425 -415.6,425.3 -414.4,425.4 -413.4,425.2 -412.5,424.7 -411.5,423.6 -410.8,422.7   -410.2,421.7 -409.8,420.7 -409.5,419.6 -409.2,414 -408.2,410.3 -408.5,406.5 -408.2,404 -408.2,403.6 -408.1,403.3 -407.6,403.3   -407.2,403.5 -405.9,404.6 -405.5,404.7 -405.1,404.6 -404.6,404.7 -404.1,404.9 -403.5,405.3 -401.9,407.1 -401.1,407.8   -400.1,408.5 -399,408.9 -397.9,408.9 -397,408.3 -394.8,405.5 -394.7,405.2 -394.7,404.7 -394.5,404.4 -393.9,404.5 -392.4,405.2   -391.8,405.3 -391,405.3 -390,405.1 -389.1,404.8 -388.4,404.5 -387.8,403.9 -387.3,403.3 -386.9,402.9 -386.1,402.6 -385.8,402.7   -384.3,403.1 -384.1,403.1 -383.9,403.3 -383.6,404 -383.3,404.4 -380.7,406.6 -379,407.3 -377.4,407.4 -376.5,406.8 -375.4,407   -374.3,407.3 -373.3,407.2 -372.8,406.8 -372.1,405.4 -371.5,405 -370.9,404.9 -370.3,405.1 -367.7,406.4 -367.3,406.4   -366.9,406.3 -366.5,406.1 -365.8,406 -365.1,405.5 -364.3,405.2 -363.6,404.7 -363.1,403.8 -362.9,402.8 -363.1,399.4   -362.7,397.3 "/></svg>