<svg xmlns="http://www.w3.org/2000/svg" xmlns:xlink="http://www.w3.org/1999/xlink" version="1.1" x="0px" y="0px" viewBox="0 0 100 100" fill="#e0e0e0" enable-background="new 0 0 100 100" xml:space="preserve"><path d="M22.668,24.456c0.715,0.747,1.046-0.14,1.546-0.373c1.08-0.505,2.325-0.499,3.39-1.02c0.567-0.278,0.791-0.808,1.256-1.07  c0.642-0.363,1.154-0.196,1.812-0.414c0.984-0.326,2.116-1.082,2.938-1.647c1.983-1.365,3.03-3.856,4.962-5.289  c0.805-0.597,2.684-1.558,3.653-1.17c1.074,0.43,2.081,1.595,2.839,2.365c2.031,2.066,4.85,3.085,7.344,4.063  c1.156,0.453,2.422,0.438,3.719,0.266c1.219-0.162,2.177-1.383,3.545-0.755c0.61,0.28,0.788,0.83,1.584,1.043  c0.674,0.181,1.485,0.1,2.176,0.249c1.319,0.286,2.517,0.574,3.876,0.774c1.301,0.191,2.424,0.882,3.741,1.132  c1.181,0.225,2.479-0.204,3.734-0.255c1.145-0.047,2.132-0.643,3.219-0.953c1.047-0.299,1.072-0.719,2.047-1.156  c2.238-1.005,4.368,0.451,5.284,2.528c0.852,1.93,1.237,3.631-0.3,5.285c-1.615,1.737-3.743,0.101-5.836,0.402  c-0.598,1.702,1.187,2.187,1.227,3.676c0.022,0.836-1.265,2.936-1.641,3.719c-0.625,1.304-0.861,1.256-0.031,2.578  c0.593,0.944,0.952,1.832,2.078,1.703c0.625-0.071,1.198-0.304,1.785-0.499c0.725-0.241,1.361-0.12,2.106-0.259  c1.54-0.286,1.821-1.224,2.967,0.158c0.397,0.48,0.416,0.769,0.899,1.168c0.457,0.377,1.34,0.554,1.837,0.995  c1.016,0.901,0.961,1.53-0.653,1.467c0.152,1.132,1.734,2.184,1.918,3.464c0.203,1.423-0.548,2.435-1.259,3.473  c-1.064,1.555-1.784,2.113-3.667,1.726c-1.031-0.212-1.457-0.582-2.207,0.31c-0.446,0.53-0.556,1.396-0.458,2.079  c1.287,0.502,1.6,1.673,1.525,2.96c-0.101,1.737-1.04,2.276-2.321,3.289c-2.443,1.932-3.225,4.107-4.421,6.794  c-0.509,1.144-0.798,2.101-0.868,3.361c-0.023,0.43-0.135,1.223,0.023,1.62c0.295,0.739,0.962,0.756,0.879,1.705  c-0.104,1.195-1.492,2.142-2.447,2.602c-1.012,0.488-1.892,0.99-2.835,1.561c-2.696,1.631-5.27-0.709-7.938,0.667  c-1.003,0.517-2.082,1.044-3.048,1.513c-1.705,0.828-3.613,0.8-5.143,1.974c-1.161,0.89-1.495,1.919-2.838,2.58  c-1.398,0.688-3.002,0.958-4.515,1.228c-2.56,0.458-5.331,0.548-7.984,0.545c-2.104-0.002-4.104,0.01-6.101-0.645  c-1.903-0.625-3.476-0.903-5.521-0.903c-1.863,0-3.381-0.406-5.166-0.645c-1.001-0.134-4.079-0.193-3.386-1.798  c-0.551-0.693-1.345-0.914-2.147-0.633c0.175,0.313,0.32,0.665,0.708,0.896c-1.077,0.186-3.006-1.542-4.068-2.08  c-1.066-0.539-2.1-1.053-3.086-1.583c-0.651-0.351-1.611-0.481-2.211-0.955c-0.587-0.465-0.8-1.267-1.281-1.818  c-0.334-0.383-1.335-0.774-1.536-1.149c-0.202-0.375-0.013-1.378-0.013-1.809c0-2.676,0.259-5.218,0.259-7.877  c0-2.68-0.51-5.301,0.555-7.765c0.442-1.026,0.936-2.184,1.47-3.217c0.56-1.082,1.62-1.844,2.131-2.871  c1.211-2.434,2.036-4.866,2.036-7.682c0-2.22,0.185-6.084,1.935-7.649c0.968-0.865,2.339-0.876,3.267-1.809  c0.945-0.952,1.163-2.274,1.019-3.604c-0.138-1.27-0.664-1.695-1.229-2.828c-0.226-0.454-1.073-3.001-0.971-3.291  c0.374-1.055,1.231-1.295,1.953-0.953c1.064,0.504,1.25-1.75,1.953-1.188C23.066,23.025,22.339,24.113,22.668,24.456z"/></svg>