<svg xmlns="http://www.w3.org/2000/svg" xmlns:xlink="http://www.w3.org/1999/xlink" version="1.1" x="0px" y="0px" viewBox="0 0 100 100" fill="#999999" style="enable-background:new 0 0 100 100;" xml:space="preserve"><path d="M93,83.2c0-0.2,0.2-0.3,0.3-0.4c0.4-0.5,0.3-1,0.3-1.7c0-0.2,0-0.5,0-0.7c-0.1-0.6-0.2-1.1-0.3-1.8c0-0.4-0.1-0.8-0.1-1.2  c0-0.1,0-0.3-0.1-0.4c0-0.1-0.1-0.2-0.2-0.3c-0.2-0.4-0.2-1-0.2-1.6c-0.1-0.6-0.1-1.2,0-2c0-0.1,0-0.2,0-0.3  c-0.1-0.2-0.2-0.3-0.3-0.4c-0.2-0.3,0-0.7,0-1.1c0-0.1,0-0.1,0-0.2L92.3,71c-0.3-0.3-0.6-0.6-0.9-0.7c-0.3-0.2-0.6-0.3-0.7-0.7  c-0.1-0.3-0.2-0.7-0.5-0.8c-0.1,0-0.1,0-0.2-0.1c-0.2-0.1-0.2-0.3-0.2-0.5c-0.1-0.5-0.6-1-1.1-1.1c-0.4-0.1-0.8,0-1.2,0  c-0.8-0.1-1.5-0.8-1.9-1.7c-0.1-0.3-0.3-0.5-0.5-0.8c-0.1-0.1-0.3-0.2-0.4-0.3c-0.3-0.2-0.7-0.4-1-0.5c-0.4-0.1-0.8,0-1.1,0.2  c-0.1,0.1-0.2,0.2-0.4,0.3c-0.1,0.1-0.3,0.1-0.5,0c-0.1-0.1-0.1-0.2-0.2-0.2c-0.2-0.2-0.4-0.3-0.7-0.3c-0.3,0-0.5,0.1-0.7,0.2  c-0.4,0.2-0.9,0.1-1.3,0.3c-0.2,0.1-0.4,0.3-0.6,0.4c-0.4,0.1-0.7-0.1-1.1-0.2c-0.3-0.2-0.7-0.3-1.1-0.2c-0.2,0.1-0.4,0.3-0.6,0.4  c-0.1,0-0.1,0-0.2,0.1c0,0-0.1,0.1-0.1,0.2c0,0.3,0.2,0.6,0.1,1c-0.1,0.3-0.3,0.6-0.5,0.8c-0.1,0.1-0.2,0.2-0.3,0.3  c-0.2,0.2-0.2,0.5-0.4,0.7c-0.2,0.2-0.5,0.2-0.6,0.4l-0.1,0.1c0,0.1,0,0.1,0.1,0.1c0.2,0.3,0.2,0.6,0.1,0.9c0,0.3-0.3,0.5-0.5,0.7  c-0.1,0.1-0.2,0.3-0.3,0.4c-0.1,0.1-0.3,0.2-0.4,0.3c-0.2,0.3-0.4,0.6-0.5,0.9c-0.2,0.8-0.6,1.7-0.9,2.5c-0.1,0.2-0.2,0.4-0.2,0.6  c0,0.3,0.1,0.6,0.1,0.9c0.1,0.8-0.2,1.7-0.3,2.5c0,0.5,0,0.9,0,1.5c0,0.8,0,1.6-0.1,2.4c0,0.4-0.2,0.8-0.2,1.2c0,0.3,0,0.6-0.2,0.8  c-0.1,0.1-0.2,0.2-0.2,0.3c-0.1,0.2-0.1,0.3-0.1,0.5c0,0.4,0.1,0.8,0.3,1c0.1,0.1,0.2,0.1,0.3,0.2c0.3,0.3,0.3,0.9,0.6,1.3  c0.1,0.2,0.2,0.3,0.4,0.4c0.2,0.3,0.5,0.6,0.7,0.9c0.2,0.3,0.4,0.7,0.5,1c0,0.3-0.1,0.5,0.1,0.8c0.2,0.3,0.6,0.5,0.9,0.7  c0.5,0.4,0.7,1,1.1,1.5c0.4,0.5,1,0.9,1.1,1.6c1.1,0.1,2.2,0.7,3.4,0.3c0.2-0.1,0.4-0.2,0.6-0.2c0.1,0,0.2,0.1,0.3,0.1  c0.2,0,0.4-0.1,0.5-0.2c0.7-0.5,1.5-1.3,2.3-1.3c0.2,0,0.4,0.1,0.6-0.1c0.1,0,0.1-0.1,0.2-0.2c0.4-0.4,1-0.2,1.6-0.2  c0.8,0,1.7-0.4,2.5-0.8c0.8-0.3,1.8-0.5,2.5-0.1c0.1,0.1,0.2,0.1,0.4,0.1c0.1,0,0.2-0.1,0.2-0.2c0.5-0.5,0.9-1,1.5-1.6  c0.1-0.1,0.2-0.2,0.2-0.4c0-0.1,0-0.2,0-0.4c0-0.5-0.1-0.9,0-1.5c0.1-0.9,0.7-1.2,1-2c0.1-0.3,0.1-0.5,0.2-0.8  c0.2-0.5,0.5-0.9,0.3-1.5C93.3,83.9,92.9,83.7,93,83.2z"/><path d="M71.6,54.4c0-0.2,0-0.5,0-0.7c-0.1-0.6-0.7-0.8-0.8-1.5c0-0.1,0-0.2,0-0.2c-0.1-0.2-0.3-0.3-0.5-0.4c-0.2,0-0.4,0-0.6,0  c-0.6,0-1.1-0.4-1.2-1c-0.2,0-0.4,0.2-0.4,0.4c0,0.2,0,0.4,0,0.7c0,0.1,0,0.1-0.1,0.1c0,0-0.1,0.1-0.2,0.1c-0.4,0.1-0.8,0.1-1.1-0.1  c-0.7-0.5-0.1-1.2-0.6-1.8c-0.2-0.2-0.3-0.3-0.5-0.3c-0.1,0-0.1,0-0.2,0s-0.1-0.1-0.1-0.1c-0.2-0.3-0.4-0.5-0.6-0.8  c0-0.1-0.1-0.1-0.2-0.2c-0.1,0-0.2,0-0.2,0c-0.4,0-0.8,0-1.1-0.3c-0.1-0.1-0.2-0.3-0.4-0.4c-0.1-0.1-0.2-0.1-0.3-0.2  C62,47.5,62.1,47,62,46.8c-0.2-0.2-0.5-0.2-0.8-0.3c-0.3-0.1-0.6-0.3-0.6-0.6c0-0.2,0-0.3-0.1-0.4c-0.1-0.1-0.3,0-0.4-0.1  c-0.3-0.1-0.7-0.4-1-0.6c-0.7-0.4-1.2-1-1.9-1.7C57,43,57,42.9,56.9,42.8c0-0.1,0-0.2,0-0.3c0-0.1-0.1-0.2-0.3-0.2s-0.2,0-0.3,0  c-0.2,0-0.4,0-0.6-0.1c-0.3-0.2-0.3-0.4-0.2-0.7c0.1-0.6,0.2-1.2,0.1-1.8c0-0.2,0-0.4-0.2-0.6C55.2,39,55,39,54.9,38.9  c-0.1-0.1-0.3-0.2-0.3-0.3c0-0.1,0.1-0.2,0.2-0.3c0.2-0.2,0.3-0.6,0.3-0.9l-0.6-0.2c-0.2-0.1-0.4-0.3-0.6-0.4  c-0.4-0.3-0.6-0.6-0.7-1c0.1-0.6,0.1-1,0-1.5c-0.2-0.7-0.8-1.2-1.3-1.8c-0.3-0.3-0.5-0.6-0.8-0.9c-0.2-0.2-0.3-0.4-0.4-0.6  c-0.1-0.2-0.1-0.4-0.1-0.6c-0.1-0.5-0.4-1-0.7-1.5c-0.5-0.7-0.9-1.7-1.6-2.3c-0.7-0.6-1.3-1.3-2.1-2c-0.3-0.3-0.6-0.6-0.8-0.9  c-0.6-1-0.6-2.5-1.6-3.2c-0.4-0.3-0.8-0.3-1.2-0.6c-0.4-0.3-0.6-0.7-0.8-1.1c-0.1-0.3-0.2-0.8-0.7-0.9c-0.1,0-0.3,0-0.4,0  c-0.2,0-0.4-0.3-0.5-0.5c-0.1-0.2-0.1-0.5,0-0.7c-0.6,0.1-1.3-0.2-1.8-0.6c-1.2-0.3-2.3-0.9-3.1-1.9c-0.3-0.3-0.5-0.7-0.8-1  c-1-1-2.7-1.5-3.6-2.7c-0.1-0.2-0.2-0.4-0.4-0.5c-0.4-0.5-1.1-0.5-1.8-0.7c-0.9-0.3-1.7-0.8-2.4-1.6c-0.5,0.2-1,0.4-1.7,0.5  c-0.2,0-0.3,0.1-0.5,0c-0.6-0.1-0.8-0.6-1.1-1c-0.3-0.5-0.8-0.8-0.9-1.5c0-0.1-0.1-0.2-0.1-0.3c-0.1,0-0.4,0-0.6,0.1  c-0.7,0.2-1.5-0.4-2.2-0.2c-0.2,0.1-0.3,0.2-0.5,0.3c-0.4,0.3-0.8,0.7-1.2,1c-0.4,0.3-1,0.4-1.6,0.3c-0.3,0-0.6-0.2-0.8-0.2  c-0.3-0.1-0.6-0.1-0.8,0.1c-0.1,0.1-0.2,0.2-0.3,0.3C13.5,7,13.4,7,13.3,7.1c-0.6,0.3-1.1,0.6-1.8,1c-0.4,0.2-0.9,0.3-1.3,0.5  C9.8,8.9,9.7,9.4,9.6,9.9c-0.1,0.4-0.4,1-0.8,1c-0.2,0.6-0.5,1.5-1,1.9c-0.4,0.3-1,0.3-0.9,1.1c0.1,0.9,0.1,1.9,0,2.7  c0,0.3,0,0.6-0.1,0.9c0,0.3-0.3,0.6-0.3,0.9S6.7,18.9,7,19c0.4,0.1,0.8,0.3,1.2,0.5c1.1,0.6,1.8,1.8,2.4,2.8  c0.2,0.3,0.3,0.6,0.4,0.9c0,0.2,0,0.4,0.1,0.6c0.2,0.6,0.8,1,1.3,1.3s1,0.7,1.3,1.2c0.3,0.4,0.5,1.1,1,1.5c0.4,0.3,0.9,0.6,1.3,0.8  c0.8,0.5,1.8,0.7,2.6,1c1.3,0.5,2.5,1.1,3.6,2c0.5,0.4,1,0.8,1.7,1.1c0.2,0.1,0.5,0.2,0.7,0.4c0.3,0.3,0.3,0.8,0.2,1.2  c0.7,0.7,1.5,1.7,2,2.6c0.8,0,1.7,0.2,2.4,0.6c0.4,0.2,0.8,0.5,0.8,1c0,0.1,0,0.2,0,0.3c0.1,0.1,0.3,0.1,0.4,0  c0.6-0.2,1.2,0.4,1.9,0.5c0.6,0.1,1.3-0.2,1.8,0.2c0.1,0.1,0.2,0.3,0.4,0.3c0.1,0,0.2-0.1,0.3-0.1c0.8-0.4,1.8-0.4,2.7-0.3  c0.2,0,0.4,0,0.5,0.1c0.1,0.1,0.2,0.2,0.3,0.3c0.4,0.4,1.1,0.1,1.7,0.1c0.1,0,0.1,0,0.2,0c0.1,0.1,0.1,0.3,0.1,0.4  c0.1,0.3,0.6,0.3,0.8,0.1c0.3-0.2,0.4-0.5,0.7-0.6c0.3-0.2,0.8-0.2,1.2-0.2c1.2,0,2.8-0.9,3.9-0.2c0.1,0.1,0.3,0.2,0.4,0.3  c0.2,0.2,0.2,0.5,0.3,0.7c0.4,0.8,1,1.7,2.1,1.9c0.5,0.1,1.1,0,1.7,0.2c0.2,0.1,0.4,0.2,0.6,0.3c0.2,0.1,0.4,0,0.7,0  c0.6,0,1.1,0.4,1.7,0.8c1.1,0.8,2.3,1.7,3.6,2.2c0.4,0.2,0.7,0.3,1,0.6c0.2,0.2,0.4,0.3,0.5,0.5c0.6,0.7,1.1,1.5,1.6,2.3  c0.4,0.7,0.4,1.8,0.6,2.7c0,0.1,0,0.3,0,0.4c-0.1,0.3-0.4,0.4-0.5,0.7c-0.1,0.4,0.3,0.8,0.3,1.3c0,0.5-0.5,1-0.3,1.6  c-0.5,0.4-1.5,0.3-1.7,0.9c-0.1,0.4,0.1,0.8,0.5,1c0.3,0.2,0.7,0.3,1,0.6c-0.1,0.9,0,2,0.1,2.9c0,0.1,0,0.3,0.1,0.4  c0.1,0.1,0.2,0.1,0.4,0.1c0.6,0,1.5,0,1.7-0.6c0.3-0.7-0.4-1.5-0.3-2.3c0.2-0.9,1.5-1.2,2-0.4c0.2,0.3,0.4,0.6,0.6,0.9  c0.1,0.1,0.2,0.2,0.3,0.1c0,0,0-0.1,0.1-0.1c0.2-0.4,0.3-0.8,0.5-1.1c0.1-0.2,0.2-0.5,0.4-0.6c0.4-0.4,1.1-0.5,1.7-0.4  c0.1,0.6,0.5,0.7,1,0.6c0.3-0.1,0.5-0.3,0.5-0.6c0-0.2-0.1-0.4-0.2-0.5c-0.1-0.2-0.3-0.4-0.3-0.6c-0.1-0.2,0-0.5,0.2-0.7  c0.1-0.1,0.3-0.1,0.5-0.1c0.2,0,0.4-0.1,0.6-0.2c0,0,0.1,0,0.1-0.1v-0.1C71.8,55,71.6,54.7,71.6,54.4z M66.1,55.3  c-0.2,0.2-0.7,0.1-0.9,0c-0.2-0.2-0.2-0.5-0.5-0.7c-0.2-0.2-0.6-0.3-0.7-0.6c0-0.1,0-0.2,0-0.4S64,53.2,64,53c0.3,0,0.6-0.1,0.9-0.1  c0.2,0,0.5-0.1,0.7,0.1c0.3,0.2,0.4,0.6,0.4,0.9C66.2,54.2,66.3,55.1,66.1,55.3z"/></svg>