<svg xmlns="http://www.w3.org/2000/svg" xmlns:xlink="http://www.w3.org/1999/xlink" xmlns:a="http://ns.adobe.com/AdobeSVGViewerExtensions/3.0/" version="1.1" x="0px" y="0px" viewBox="-27.562 -5.359 100 100" enable-background="new -27.562 -5.359 100 100" xml:space="preserve"><path fill="#e0e0e0" d="M29.107,0.203c-0.3,0.659-2.107,4.834-3.716,3.36c-0.938,0.266,0.292,1.22,0.359,1.313  s2.547,1.234,2.662,3.59c-0.006-0.12-0.324-0.187-0.454-0.151c-0.063,0.79-0.266,0.933-0.609,0.431  c-0.593-0.9,0.971-0.197,0.417-1.088s-3.174,2.159-3.105,2.117c-0.322,0.202-0.82-0.962-1.375,0.098  c-0.834,1.586,0.472,3.06,0.034,5.997c-0.407,2.734-7.084,4.313-7.051,3.405c-0.101,1.438,2.034,1.417,1.989,1.29  c0.682,1.869-0.112-0.135,0.898,0.414c-0.56,1.741-3.015,0.708-3.261,0.587c0.071,1.046-1.597,0.841-1.799,2.279  c-0.179,1.269,0.984,3.254,0.949,3.608c-0.26,1.983-2.523,0.032-3.546,0.205c-0.256,2.917,0.847,3.244,1.081,4.441  c0.174-0.566-3.449,2.521-3.883,3.526c-0.483,1.12-4.146,4.172-4.117,4.287c0.346,0.427-1.943,6.145-2.397,7.287  c-0.587,1.476-3.811,7.33-1.139,7.907c3.414,0.737,3.217,1.628,2.677,4.727c-2.794,2.574,1.364,1.802-0.516,4.624  c-0.862,1.298-2.294,5.846-0.188,6.745c2.483,1.085,3.598,4.177,5.489,5.966c1.757,1.663,3.883,1.612,5.44,2.56  c0.666-0.301,3.993-0.532,4.396,0.235c2.049,3.975,4.988,3.145,8.618,5.509c0.066,0.04,0.134,0.08,0.143,0.089  c-0.054,0.036-0.079,0.086-0.076,0.147c0.041,0,0.09-0.022,0.107-0.049c1.135,1.396-0.406,0.992-0.836,2.376  c-0.061,0.226-0.005,0.425,0.169,0.596c3.403,1.971,3.499-0.026,2.326-2.541c-0.384-0.825,5.022-7.926,4.668-8.28  c-0.264-0.264-1.496-0.045-1.45-0.614c0.03-0.434,1.915-1.621,2.149-1.526c-0.046-0.02,1.73,1.512,1.993,1.848  s0.443-1.344,1.562-0.962c0.058,0.024,0.501-3.7,0.512-3.711c0.455-0.523,0.713,0.246,1.295,0.138s1.161-0.354,0.472-1.103  s-0.253-3.318-0.228-3.912s2.306-2.529,2.363-3.207s-1.84,0.049-2.083-0.228c-0.087-0.213-0.09-0.417-0.009-0.614  c-1.254-0.409-0.171-0.336,0.038-0.423c0.105-0.044-1.165-0.965-1.079-0.85c0.916,0.299,1.833,0.299,2.75,0  c0.241-0.444-1.34-1.062-1.354-1.154c0.012,0.075,1.642-0.881,1.546-0.879c1.509,0-0.209-0.467-0.12-0.721  c0.128-0.294,0.332-0.465,0.613-0.513c-0.105-0.268-0.289-1.868-0.359-1.872c-0.26-0.022,1.122-0.952,0.858-1.06  c-0.064-0.023-1.723,0.147-1.558-0.605c-0.027,0.123,3.224-0.969,2.332-1.134c-0.256-0.061-1.724,0.379-1.7,0.4  c-1.336-1.229,1.597-2.04,0.869-2.013s-6.873-4.617-0.714-1.846c-0.516-0.163,0.586-0.741,0.116-1.344  c0.082-0.339,0.325-0.498,0.729-0.477c0.33,0-0.742-3.378-0.85-2.575c0.155-0.934-0.289-0.306-0.587-0.837  c0.28-0.389-0.415-1.059-0.721-1.17c0.187,0.071,1.043-0.678,0.943-0.828c1.219-0.984-2.749-3.037,1.117-3.782  c-0.075-0.54,0.904-0.854,0.875-0.948c-0.983-0.145,0.548-8.195,0.886-9.144c-0.208,0.502-0.645-3.304-0.542-3.088  c-1.292-2.332-1.69-6.282-2.848-7.92c0.146-0.103,0.143-0.5,0.156-0.507c0.913-0.561-1.505-0.673-1.55-1.147  c0.32-0.258,0.666-0.476,1.037-0.654c-0.489-0.061-0.985-0.637-1.152-0.932s1.943-0.582,1.812-0.582  c-0.722-1.119,0.355-1.593,0.849-2.104c0.783-0.737-5.282-3.979-4.649-3.217c0.046-0.082,0.033-0.146-0.039-0.191  c-0.558,0.339-1.063,1.029-1.611,1.357c-0.002,0.069,0.018-1.442-0.021-1.335c0.51-0.053,0.872-1.917,0.787-2.096  s-0.926-0.06-0.828-0.601c0.219,0.022,0.373-0.085,0.463-0.32c-0.009-0.12-0.036-0.151-0.129-0.16  c-1.135-0.169-2.893,0.267-3.551-1.451c-0.694-1.779,3.41,0.403,1.944-2.772c0.85-1.436-2.626-1.295-2.581-1.104  C32.629-0.284,29.32,0.754,29.579,0c-0.028,0.062-0.432,0.02-0.467,0.122C28.929,0.525,29.143,0.1,29.107,0.203z"/></svg>