<svg xmlns:dc="http://purl.org/dc/elements/1.1/" xmlns:cc="http://creativecommons.org/ns#" xmlns:rdf="http://www.w3.org/1999/02/22-rdf-syntax-ns#" xmlns:svg="http://www.w3.org/2000/svg" xmlns="http://www.w3.org/2000/svg" xmlns:sodipodi="http://sodipodi.sourceforge.net/DTD/sodipodi-0.dtd" xmlns:inkscape="http://www.inkscape.org/namespaces/inkscape" viewBox="0 0 100 100" version="1.1" x="0px" y="0px"><g transform="translate(0,-952.36216)"><path style="color:#000000;font-style:normal;font-variant:normal;font-weight:normal;font-stretch:normal;font-size:medium;line-height:normal;font-family:sans-serif;text-indent:0;text-align:start;text-decoration:none;text-decoration-line:none;text-decoration-style:solid;text-decoration-color:#000000;letter-spacing:normal;word-spacing:normal;text-transform:none;direction:ltr;block-progression:tb;writing-mode:lr-tb;baseline-shift:baseline;text-anchor:start;white-space:normal;clip-rule:nonzero;display:inline;overflow:visible;visibility:visible;opacity:1;isolation:auto;mix-blend-mode:normal;color-interpolation:sRGB;color-interpolation-filters:linearRGB;solid-color:#000000;solid-opacity:1;fill:#999999;fill-opacity:1;fill-rule:evenodd;stroke:none;stroke-width:8;stroke-linecap:round;stroke-linejoin:round;stroke-miterlimit:4;stroke-dasharray:none;stroke-dashoffset:0;stroke-opacity:1;color-rendering:auto;image-rendering:auto;shape-rendering:auto;text-rendering:auto;enable-background:accumulate" d="M 81.498047 5 A 0.73535309 0.73535309 0 0 0 81.023438 5.1601562 L 78.064453 7.5273438 A 0.73535309 0.73535309 0 0 0 77.826172 7.8691406 L 77.361328 9.2617188 L 73.964844 10.111328 A 0.73535309 0.73535309 0 0 0 73.599609 10.330078 L 71.416016 12.732422 L 69.792969 12.935547 A 0.73535309 0.73535309 0 0 0 69.466797 13.058594 L 67.773438 14.222656 L 64.582031 14.113281 A 0.73535309 0.73535309 0 0 0 64.228516 14.189453 L 62.466797 15.070312 L 60.839844 15.179688 A 0.73535309 0.73535309 0 0 0 60.439453 15.332031 L 57.863281 17.322266 L 46.177734 24.640625 A 0.73535309 0.73535309 0 0 0 46.001953 24.792969 L 43.238281 28.107422 L 41.580078 28.396484 A 0.73535309 0.73535309 0 0 0 41.125 28.669922 L 34.988281 36.582031 L 27.638672 36.505859 L 27.017578 35.822266 A 0.73535309 0.73535309 0 0 0 26.4375 35.583984 L 24.763672 35.667969 A 0.73535309 0.73535309 0 0 0 24.191406 35.990234 L 21.753906 39.607422 L 19.578125 40.150391 L 14.691406 38.228516 A 0.73535309 0.73535309 0 0 0 13.6875 38.941406 L 13.746094 40.357422 L 13.144531 40.958984 A 0.73535309 0.73535309 0 0 0 12.951172 41.65625 L 13.755859 44.876953 L 13.640625 51.169922 A 0.73535309 0.73535309 0 0 0 13.960938 51.791016 L 18.529297 54.912109 L 18.613281 55.753906 A 0.73535309 0.73535309 0 0 0 19.017578 56.339844 L 19.363281 56.511719 L 19.560547 58.591797 A 0.73535309 0.73535309 0 0 0 20.148438 59.242188 L 20.642578 59.341797 L 20.511719 60.185547 A 0.73535309 0.73535309 0 0 0 20.507812 60.220703 L 20.292969 62.271484 L 16.859375 66.964844 A 0.73535309 0.73535309 0 0 0 16.730469 67.259766 L 16.019531 70.927734 A 0.73535309 0.73535309 0 0 0 16.041016 71.287109 L 18.896484 80.427734 L 16.716797 83.806641 A 0.73535309 0.73535309 0 0 0 16.621094 84.027344 L 16.265625 85.447266 A 0.73535309 0.73535309 0 0 0 16.65625 86.287109 L 21.746094 88.771484 A 0.73535309 0.73535309 0 0 0 22.164062 88.839844 L 26.662109 88.248047 A 0.73535309 0.73535309 0 0 0 27.183594 87.917969 L 28.267578 86.242188 L 29.962891 86.242188 L 30.583984 86.775391 A 0.73535309 0.73535309 0 0 0 30.830078 86.914062 L 32.251953 87.388672 A 0.73535309 0.73535309 0 0 0 32.826172 87.341797 L 35.074219 86.158203 A 0.73535309 0.73535309 0 0 0 35.291016 85.986328 L 36.591797 84.46875 L 38.421875 83.751953 L 38.533203 84.082031 A 0.73535309 0.73535309 0 0 0 38.748047 84.40625 L 41.992188 87.216797 L 41.816406 88.353516 A 0.73535309 0.73535309 0 0 0 41.861328 88.738281 L 42.271484 89.767578 L 42.166016 91.375 A 0.73535309 0.73535309 0 0 0 42.552734 92.074219 L 47.878906 94.914062 A 0.73535309 0.73535309 0 0 0 48.652344 94.863281 L 49.966797 93.923828 L 51.712891 94.699219 A 0.73535309 0.73535309 0 0 0 52.744141 94.095703 L 52.835938 93.089844 L 54.033203 92.064453 L 55.146484 92.15625 A 0.73535309 0.73535309 0 0 0 55.367188 92.142578 L 57.414062 91.6875 L 68.099609 91.804688 A 0.73535309 0.73535309 0 0 0 68.822266 91.248047 L 69.863281 87.082031 L 70.878906 85.275391 A 0.73535309 0.73535309 0 0 0 70.939453 85.140625 L 71.964844 81.947266 L 73.427734 80.035156 A 0.73535309 0.73535309 0 0 0 73.423828 79.136719 L 72.716797 78.230469 L 71.953125 72.439453 L 73.1875 70.689453 L 74.980469 68.580078 L 77.519531 68.367188 A 0.73535309 0.73535309 0 0 0 78.027344 68.099609 L 79.091797 66.798828 A 0.73535309 0.73535309 0 0 0 79.25 66.447266 L 79.826172 62.755859 L 81.681641 58.611328 L 82.246094 58.369141 A 0.73535309 0.73535309 0 0 0 82.626953 57.992188 L 83.439453 56.164062 L 85.373047 55.554688 A 0.73535309 0.73535309 0 0 0 85.833984 55.125 L 87.017578 52.167969 A 0.73535309 0.73535309 0 0 0 87.070312 51.894531 L 87.070312 48.697266 A 0.73535309 0.73535309 0 0 0 87.050781 48.53125 L 85.867188 43.443359 A 0.73535309 0.73535309 0 0 0 85.765625 43.205078 L 81.259766 36.333984 L 82.853516 33.041016 A 0.73535309 0.73535309 0 0 0 82.875 32.447266 L 82.195312 30.75 L 81.394531 25.644531 L 81.837891 25.644531 A 0.73535309 0.73535309 0 0 0 82.328125 25.457031 L 84.576172 23.445312 A 0.73535309 0.73535309 0 0 0 84.810547 22.767578 L 83.572266 15.792969 L 85.005859 14.263672 L 86.544922 13.494141 A 0.73535309 0.73535309 0 0 0 86.949219 12.765625 L 86.357422 6.6113281 A 0.73535309 0.73535309 0 0 0 85.533203 5.953125 L 84.751953 6.0507812 L 81.714844 5.0371094 A 0.73535309 0.73535309 0 0 0 81.498047 5.0019531 L 81.498047 5 z " transform="translate(0,952.36216)"/></g></svg>