<svg xmlns="http://www.w3.org/2000/svg" xmlns:xlink="http://www.w3.org/1999/xlink" version="1.1" x="0px" y="0px" viewBox="-461 335 100 100" fill="#e0e0e0" style="enable-background:new -461 335 100 100;" xml:space="preserve"><path d="M-424,416.1l-1.2-1.7l-1.4-1.5l-1.3-0.9l-2.4-0.2l-1.9,1.2l-1.9,1.6l-2.2,0.7l-0.4,0.3l-2.1,2.1l-0.2,0.4l-0.1,0.3l-0.3,0.5  l-1.1,1.4l-0.2,0.4v1.2l-0.1,0.5l-0.3,0.5l0.4,0.6l2.1,6.8l0.2,0.2l0.3,0.2l0.3,0.3l0.2,0.6v0.4l-0.4,1.1l-0.1,0.1l0.4,1.1l0.6,0.5  l0.6-0.2l0.4-1.1l0.8,1l0.6-0.8l0.6-2.1h2.3l0.1-0.4l1-1.1l0.4-0.2l0.6-0.1l0.4-0.3l-0.4-1.1l0.4-0.3l0.5-0.1l0.4-0.2l1.7-2.8  l0.8-0.9l1.5-1.4l0.5-0.7l0.5-1.1l0.3-1.1v-1l-0.3-1.6L-424,416.1z M-382.2,338.2l-0.9-0.2l0.4-0.6l0.7-0.4l0.7-0.3l0.4-0.3  l-0.2-0.8l-0.6-0.3l-1.7-0.2l-1.1-0.3l-1.1,0.4l-0.8,0.9l-0.4,1.1v1l-0.2,0.7l-0.5,0.5l-1,0.4l-0.5-0.1v1.1l0.2,1.9l0.7,0.4l0.9,0.1  l0.8,0.3l0.5,1l0.4-0.3l0.4-0.2l0.1,0.2l0.2,0.4l0.2,0.3l0.1-0.6v-0.5l0.2-0.4l0.7-0.1l0.4-0.3l0.3-0.6l0.3-1.1l-0.1-1.3l0.3-0.6  l0.9-0.2l0.5-0.2l-0.4-0.5L-382.2,338.2z"/></svg>