<svg xmlns="http://www.w3.org/2000/svg" xmlns:xlink="http://www.w3.org/1999/xlink" version="1.1" x="0px" y="0px" viewBox="-345 257 100 100" fill="#999999" style="enable-background:new -345 257 100 100;" xml:space="preserve"><path d="M-338.9,293.4L-338.9,293.4L-338.9,293.4l-0.1-0.1l0-0.1l0,0l0,0.1v0.1L-338.9,293.4L-338.9,293.4L-338.9,293.4  L-338.9,293.4z M-332.7,304.5L-332.7,304.5L-332.7,304.5l-0.1,0v0.1l0,0h0l0,0l0,0l0.1,0l0-0.1L-332.7,304.5L-332.7,304.5z   M-310.9,344.9L-310.9,344.9l-0.1,0l-0.1,0.1l0,0l0,0l0,0l0,0.1l0,0l0.1,0l0.1,0l0,0l0,0l0.1-0.1v0L-310.9,344.9L-310.9,344.9z   M-335.2,300L-335.2,300l0.1-0.1l0,0L-335.2,300l-0.1,0.2l0,0.2l0,0.1l0,0l0,0.1l0.1,0l0.1,0.1l0.1,0l0,0l0,0l0,0l-0.1,0l0,0l0,0  l0,0l0-0.1l0-0.1l0,0l0,0l0,0l-0.1-0.1l0-0.1L-335.2,300L-335.2,300z M-333.5,301.4L-333.5,301.4L-333.5,301.4L-333.5,301.4l0-0.1  l0,0l0,0l0,0v0.1l0,0l0,0.1l0,0.1l0,0l0.1,0.1l0,0l0-0.1L-333.5,301.4L-333.5,301.4L-333.5,301.4L-333.5,301.4L-333.5,301.4  L-333.5,301.4z M-334.1,301.8L-334.1,301.8L-334.1,301.8l0.1,0l0,0l0,0.1l0,0l0,0l0.1,0l0.1,0.1l0,0l0,0l0,0l0,0l0,0l-0.2-0.1  l-0.1-0.1L-334.1,301.8L-334.1,301.8l0-0.2l0,0l-0.2-0.2l-0.1,0l-0.1,0l0,0.1l0,0l0,0l0,0l0,0l0.1,0l0.1,0l0,0.1l0,0l0,0l0,0l0.1,0  l0,0l0,0.1L-334.1,301.8L-334.1,301.8L-334.1,301.8L-334.1,301.8z M-333.8,301.6L-333.8,301.6L-333.8,301.6l0.1-0.1l-0.1-0.1l-0.1,0  l-0.1,0l0,0.1L-333.8,301.6L-333.8,301.6z M-333,302.2l0-0.2l0,0l0,0l0,0l0-0.1l-0.1,0l-0.1,0h-0.1l0,0.1l0,0.1l0,0l0.1,0h0l0,0.1  l0,0l0.1,0l0,0l0,0l0,0.1l0.1,0.1l0,0L-333,302.2L-333,302.2L-333,302.2L-333,302.2L-333,302.2L-333,302.2L-333,302.2z   M-274.2,292.3L-274.2,292.3l0.1-0.1l0.1,0l0,0l0,0l0.1,0l0,0l0,0l0,0l0,0l-0.1,0v0l0,0l0,0l0,0l0,0l0,0l0.1-0.1l0.1,0l0.1,0l0.1,0  l0.1,0l0.1,0l0.1,0l0.1,0l-0.5-0.1l-0.1,0l-0.1,0l0,0l-0.1,0l-0.1,0l-0.1,0.1L-274.2,292.3L-274.2,292.3L-274.2,292.3z   M-308.7,346.5L-308.7,346.5l0-0.1l0-0.1l0-0.1l-0.1-0.1l0.1,0l-0.2-0.1l-0.1,0l0-0.1l0,0l-0.1-0.2l0-0.1l0-0.1l-0.1,0l-0.1,0l0,0  l0,0.1l-0.1,0.1l0,0.1l0.1,0.1l0,0l0,0l0,0l0,0l0,0l0,0l0,0l0,0l-0.2,0l-0.1,0l-0.1,0l0,0l0,0l-0.1,0l-0.1,0l-0.1,0l-0.1-0.1  l-0.1-0.1l0,0l0,0l-0.1-0.1l0-0.1l0,0l-0.1-0.1l0,0l-0.1-0.1l-0.3-0.2l-0.1,0l0,0.1l0,0.1l0,0.1l0,0.1l0,0l0,0.1l0,0l0,0.1l0,0l0,0  l0,0l0.1,0.1l0.1,0.1l0.1,0.1l0.2,0.1l0.1,0.1l0.1,0l0.1,0l0.1-0.1l0.1,0l0.2,0l0.1,0l0,0.1l0.1,0.1l0,0.1l-0.1,0l0.1,0.1l0.2,0.1  l0.1,0l0.1-0.1l0-0.1L-308.7,346.5z M-309.9,345L-309.9,345l-0.1,0.1l-0.1,0l-0.1,0l-0.1,0l0,0.1l0.1,0.2l0.1,0.1l0.1,0.1l0.1,0l0,0  l0,0.1l0,0l0,0l0,0l0,0l0,0l0.1,0.1l0,0l0-0.1l0-0.1l0-0.1l-0.1,0l-0.1,0l0-0.1l0.1-0.1l0.1,0l-0.1-0.1l0-0.1l0-0.1l0-0.1l0-0.2  l-0.1-0.1l-0.1,0l-0.2,0l0,0l0,0l0,0l0,0l0.1,0l0.1,0l0.1,0l0.1,0.1L-309.9,345L-309.9,345L-309.9,345z M-344.6,288.8L-344.6,288.8  L-344.6,288.8L-344.6,288.8L-344.6,288.8l-0.1-0.1l-0.1,0l-0.1,0l0,0l0-0.1l0.1,0l0.1,0l0,0l0,0l-0.1,0l0,0l0,0l0,0l0,0l0,0l0,0l0,0  l0,0l0,0.1l0,0.1l0.1,0.1l0.1,0.1l0.2,0l0.2,0v0L-344.6,288.8L-344.6,288.8z M-334.6,301.4L-334.6,301.4l-0.1-0.1l0,0l0,0l0,0l0,0  l0,0l0,0l0,0l0,0l0,0l0,0l-0.1,0l-0.1,0l-0.1-0.1l0,0l0,0l0,0l0,0h0l0,0l0,0l0,0l0.1-0.1l0-0.1l0,0l0,0l-0.1,0.1l-0.1,0.1l0,0.1  l0,0.1l0.1,0.1l0.1,0.1l0,0l0-0.1l0.1,0l0.4,0.2l0.1,0l0,0L-334.6,301.4L-334.6,301.4L-334.6,301.4z M-333.4,302.2L-333.4,302.2  l-0.1,0.1l-0.1,0l0-0.1l0-0.1l0.1,0l0,0l0,0l-0.1,0l-0.1,0l-0.2-0.1l-0.1,0l0,0l-0.1-0.1l0,0l0,0l0,0l0.1,0.1l0,0.1l0,0l0,0l0,0v0  l0,0l0,0l0.2,0.2l0.1,0.1l0.1,0.1l0.1,0.1l0.1-0.1l0-0.1L-333.4,302.2L-333.4,302.2L-333.4,302.2L-333.4,302.2L-333.4,302.2z   M-245,319.8l0-0.1l-0.3-0.4l-0.4-0.6l-0.4-0.6l-0.4-0.6l-0.4-0.6l-0.3-0.5l-0.3,0.4l-0.1,0l-0.6-0.1l-0.7-0.1l-0.7-0.1l-0.7-0.1  l-0.7-0.1l-0.7-0.1l-0.7-0.1l-0.7-0.1l-0.7-0.1l-0.7-0.1l-0.7-0.1l-0.7-0.1l-0.7-0.1l-0.7-0.1l-0.7-0.1l-0.7-0.1l-0.7-0.1l-0.8-0.1  l-0.1,0l-0.1-0.1l-0.3-0.3l-0.2-0.3l-0.2-0.3l-0.2-0.3l-0.2-0.3l-0.2-0.3l-0.2-0.3l-0.2-0.3l-0.2-0.3l-0.2-0.3l-0.2-0.3l-0.2-0.3  l-0.2-0.3l-0.2-0.3l-0.2-0.3l-0.2-0.3l-0.2-0.3l-0.3-0.3l-0.1-0.1l0-0.1l0-0.3l0-0.1l0-0.2l-0.2-0.1l-0.1-0.2l-0.1-0.1l-0.3-0.1  l-0.1,0l0,0l0,0l-0.1,0l-0.1,0l-0.3,0l0,0l0-0.1l0-0.1l0,0l0,0l0.1,0l0,0l0,0l0,0l0,0l0-0.1l0-0.1l0,0l0,0l0.1-0.1l0,0l0-0.1  l0.3-0.2l0,0l0-0.1l0,0l0.1-0.1h0l0-0.1l0.1,0l0.1,0l0.1,0v0l-0.1,0h-0.1l-0.1,0l0-0.1l0-0.1l-0.1,0l-0.1,0l0,0l0,0.1l0,0.1l-0.1,0  l-0.1,0.1l-0.1,0.2l-0.1,0l-0.1,0l0,0l0-0.2l0,0l0,0l0-0.1l0,0l0,0l0,0l0,0l0,0l-0.1,0l0,0l0-0.1l0,0l-0.2,0l0,0l-0.3,0.3l-0.2,0.1  l-0.3,0l-0.3,0l-0.2-0.1l-0.2-0.3l-0.3-0.6l-0.1,0.1l-0.1,0l-0.1,0l-0.1-0.1l0-0.1l0-0.1l0-0.3l0-0.2l-0.1-0.1l-0.1-0.1l-0.1-0.3  l-0.1-0.1l-0.1-0.1l-0.1-0.2l-0.1-0.1l0,0.1l0-0.1l0-0.1l0-0.2l0-0.2l0-0.1l-0.1-0.1l0-0.1l0,0l0,0l0-0.1l0-0.1l0-0.1l0-0.1l0-0.1  l-0.1-0.1l-0.1-0.1l-0.1-0.1l0,0l-0.1-0.2l0,0l-0.2,0l-0.1,0l0-0.1l0,0l0,0l0,0l0-0.1l0,0l-0.1,0l0,0l0,0.1l0,0.1l0,0.1l-0.1-0.1  l-0.5-0.7l-0.2-0.4h0l0,0l0,0.1l0-0.1l-0.1-0.1l0-0.1l0-0.1l0.1,0l0.1,0.1l0.1,0.1l0.1,0l0.1,0l0.1,0l0,0l0.1,0.2h0l0-0.2l-0.1-0.2  l-0.3-0.3l-0.1-0.2l-0.1-0.3l-0.1-0.2l0.1-0.1v0l-0.1-0.1l0-0.1l0-0.1l-0.1,0l0,0l0,0l0,0l0,0l0,0l0,0l0,0l0,0l-0.1-0.1l0,0l0,0  l0,0.1l0,0.1l-0.1,0l-0.1,0l0-0.1l0-0.1l0-0.1l0-0.1l0,0l0,0l0,0l0,0l0-0.1l0-0.1l0,0l0,0l0-0.1l0-0.1l0.1,0l0,0l0.1-0.2l0.1,0  l0.1,0l0.1,0.1l0,0.1l0,0l0,0l0,0.1l0,0h0l0,0l0,0l0,0l0,0l0,0.1l0,0.1l0,0.1l0,0.1l0.1,0.1l0-0.1l0-0.2l0-0.2l0-0.1l0-0.1l0,0l0,0  l0,0.1l0.1-0.1l0-0.1l0-0.1l0-0.6l0-0.2l-0.1-0.2l-0.1-0.1l-0.4-0.1l-0.1-0.1l-0.1-0.1l-0.1-0.1l-0.1-0.4l0-0.1l0-0.3l0,0l0-0.1  l0-0.1l0-0.1l0-0.1l0-0.1l0-0.1l0-0.1l0,0l0,0.2l0,0.1l0.1,0l0.3,0l0.1,0.1l0.2,0.2l0-0.1l-0.1-0.1l-0.3-0.2l-0.1-0.1l-0.2-0.3  l-0.1-0.1l-0.1-0.1l-0.1,0l-0.1,0l-0.1,0l-0.2-0.1l-0.3-0.1l0,0l-0.1-0.1l0,0l-0.1-0.1l0,0l-0.1-0.2l-0.3-0.4l-0.1-0.1l-0.1,0l0,0  l0-0.1l0-0.1l0-0.1l0-0.1l0-0.1l-0.1,0.1l0,0l0,0l0,0l0,0l-0.1,0l-0.1,0.1l0,0.1l0.1,0.1l-0.1,0l-0.1-0.1l-0.1,0l-0.1,0l0,0l0-0.1  l0,0l0,0l0,0l0,0l-0.1,0.1l0,0l0,0l0-0.1l-0.1,0l0-0.1l0.1,0l0.1,0l0,0l0,0l0-0.1l0-0.1l0-0.1l0-0.1l0,0l-0.1-0.1l-0.1,0l0,0.1  l0,0.1l-0.1,0l-0.1,0l0,0l0-0.1l-0.1,0l0-0.1l0-0.2l0-0.1l0-0.1l0-0.1l0-0.1l-0.1-0.1l-0.1,0l-0.1,0l0,0l-0.1,0l-0.1,0l-0.1,0l0-0.1  l0-0.1l0-0.1l0,0l0,0l0,0l0-0.1l0,0l0,0l0,0l0,0l0,0l0,0v0l-0.1,0.1l0,0l0,0l0,0l-0.1,0l0,0l0,0l0,0l-0.1,0l-0.1,0l0,0l0.2-0.1h0.1  l0,0.1h0l0.1-0.1l0.3,0l0.1-0.1h0l0,0.1l0,0l0,0l0.1,0l0,0l0-0.1l0,0l0,0l0,0l0,0l0,0l-0.1-0.2l-0.1-0.1l-0.1,0l-0.1,0l-0.1,0  l-0.1,0l0,0l-0.1,0l0,0l-0.2,0l-0.1,0l-0.1,0l0,0.1l0,0l-0.1,0l-0.1,0l0.1-0.1l0-0.1l-0.2-0.1l-0.2-0.2l-0.1,0l-0.1,0l-0.1,0l-0.1,0  l0,0l0,0l0,0l0,0l0,0l-0.1,0l0-0.1l0-0.1l0.1-0.1l0-0.1h0l0,0.1l-0.1,0.1l-0.1,0l-0.1,0l0-0.1l0,0l0.1,0.1l0,0l0-0.1l0.1,0l0,0l0,0  l0,0l0,0l0,0l0-0.1l0,0.1l0,0.1l0,0l-0.1,0l0-0.1l0-0.1l0-0.1l0,0.1l0,0l0,0l0-0.1V290l0,0l0,0.1l0,0l-0.1,0l0,0l0,0l0,0l0-0.1  l0.1-0.4l0-0.1l0,0l0,0.1l0,0.1l-0.1,0.2l0.1-0.1l0.1-0.2l0.1-0.1l0,0.1l0,0l0,0l0,0.1l0,0.1l0,0l0,0.1l0.1,0l0.1-0.1l0-0.1l0,0l0,0  l0-0.1l0-0.1l0-0.1l0-0.1l-0.2-0.2l-0.1-0.2l0,0l-0.1,0l-0.1-0.1l-0.1-0.1l0-0.1l0-0.1l0,0l0.1,0l0,0l0,0l0,0l0,0l0,0l0,0l0,0  l-0.1,0l-0.1-0.1l0,0l-0.2,0l-0.1,0l-0.2-0.1l-0.1,0l0,0l0-0.1l0-0.1l-0.1-0.2l0-0.1l0-0.1l0-0.1l0-0.1l0.1-0.1l0-0.1l-0.4-0.4  l-0.1-0.1l0-0.1l0-0.1l0-0.1l0.1-0.1l0,0l-0.1,0l0,0.1l-0.1,0l-0.1,0l-0.1,0l0,0l0,0l0,0l0.1,0l0-0.1l0-0.2l0-0.2l0,0l-0.1-0.1  l-0.1,0l-0.1-0.1l-0.8,0l-0.8,0l-0.8,0l-0.8,0l-0.3,0l0-0.1l-0.1-0.1l-0.1-0.1l-0.1-0.1l-0.1-0.1l-0.1-0.2l0-0.2l0-0.3l0-0.1  l-0.3-0.7l-0.3-0.5h0l-0.3,0l-0.5-0.1l-0.5-0.1l-0.5-0.1l-0.5-0.1l-0.5-0.1l-0.5-0.1l-0.5-0.1l-0.5-0.1l-0.2,0l-0.2,0l-0.2,0l-0.2,0  l-0.5,0l-0.4,0l-0.4,0l-0.4,0l-0.4,0l-0.5,0l-0.5,0l-0.5,0l-0.5,0l-0.5,0l-0.5,0l-0.5,0l-0.5,0l-0.4,0l-0.4,0l-0.4,0l-0.4,0l-0.4,0  l0,0l0,0l0,0l0,0l-0.4-0.3l-0.4-0.4l-0.5-0.4l-0.5-0.4l-0.4-0.4l-0.5-0.4l-0.5-0.4l-0.5-0.4l-0.5-0.4l-0.5-0.4l-0.5-0.4l-0.5-0.4  l-0.5-0.4l-0.4-0.3l-0.4-0.3l-0.4-0.3l-0.4-0.3l-0.5-0.4l0,0l-0.4-0.4l-0.4-0.4l-0.4-0.4l-0.4-0.4l-0.4-0.3l-0.4-0.3l-0.4-0.3  l-0.4-0.3l-0.3-0.3l-0.4-0.2l-0.4-0.2l-0.4-0.2l-0.4-0.2l-0.4-0.2l-0.4-0.2l-0.4-0.2l-0.4-0.2l-0.4-0.2l-0.4-0.2l-0.4-0.2l-0.8-0.5  l-0.4-0.2l-0.4-0.2l-0.4-0.2l-0.4-0.2l-0.5-0.3l-0.3-0.2l-0.3-0.1l-1.6-0.3h0l-0.4-0.1l-0.9-0.2l-0.9-0.2l-0.9-0.2l-0.9-0.2l-0.1,0  l0,0l-0.1,0.1l-0.6,0.5l-0.2,0.1l-0.5,0.2l-1.1,0.3l-1.1,0.3l-1.1,0.3l-1.1,0.3l-1.2,0.4l-1.2,0.4l-1.2,0.3l-1.2,0.3l0.6,0.7  l0.6,0.7l0.6,0.7l0.6,0.7l0,0l0,0l0,0l0,0l0.5,0.6l0.5,0.6l0.5,0.6l0.5,0.6l0.2,0.3l0,0l0,0l0,0l0,0l-0.3,0.2l-0.6,0.3l-0.5,0.3  l-0.1,0.1l-0.1,0.1l-0.1,0.3l-0.2,0.4l-0.2,0.4l-0.2,0.5l-0.1,0.1l-0.6,0.1l-0.6,0.1l-0.7,0.1l-0.7,0.1l-0.4,0.1l-0.4,0.1l-0.1,0.1  l-0.1,0.1l-0.3,0.4l-0.2,0.4l-0.3,0.5l-0.3,0.5l-0.4,0.3l-0.5,0.5l-0.5,0.4l-0.5,0.4l-0.1,0l-0.1,0l-0.5-0.1l-0.5-0.1l-0.8-0.1  l-0.7-0.1l-0.7-0.1l-0.7-0.1l-0.6-0.1l-0.5-0.1l0,0.1l0,0.1l0,0.1l0,0l0,0l0,0l0,0l-0.1,0l0,0.1l0,0.1l0,0.1l-0.1,0.1l0,0l0,0.1l0,0  l-0.1,0.1l0,0.1l-0.1,0.5l0,0.1l-0.1,0.1v0.1l0.1,0.1l0,0.2l-0.1,0.2l-0.1,0.1v0l0.1,0l0,0.1l-0.1,0.2v0l0,0.1l0,0.1l-0.1,0.1h0v0  l-0.1,0.1l-0.1,0.2l0,0.2l0.1,0.9l0,0.1l0,0l0,0.1l0,0.1l0,0.2l-0.1,0.1l-0.1,0.3l-0.1,0.2l-0.1,0.2l-0.1,0.1l0,0l0,0l0,0l0,0.1l0,0  l0,0l0,0l0,0l0,0.2l0,0v0l-0.1,0l0,0l0,0l0,0v0h0l0,0.1l0,0l0,0l0,0l0,0l0,0l0,0v0l0,0l0,0l0,0l0,0l0,0l0,0l0,0l0,0l0,0l0,0l0,0  l-0.1,0.1l0,0l0,0.1l0.1,0l0,0l0,0.1l0,0.1l0,0.1l0,0l0,0l0,0l0,0l0,0l0.1,0l0,0l0-0.1l0-0.1l0,0l0,0l0,0l0,0l0,0v0l-0.1-0.1v0l0,0  l0.1,0l0,0l0,0l0-0.1l0,0l0.1,0l0,0l0,0l0,0l0,0l0,0.1l0,0l0,0l0,0l0,0l0,0l0,0l0,0l0,0h0v0h0l0,0l0,0v0l0,0l0,0l0,0l0,0l0-0.1l0,0  l0.1,0l0.1,0l0,0v0l0,0l0,0l0,0l0,0l0,0l0,0l0,0l0,0l0,0l0-0.1l0,0l0.1,0v0h0v0l0.1,0l0,0l0,0l0,0l0,0l0,0l0,0l0,0v0h0v0l0,0h0l0,0  l0.1-0.1l0.1,0l0.1,0l0.1,0h0v0h0l0,0l0,0l0,0l0.1,0l0,0l0.1,0l0.1,0l0.1,0l0,0l0,0l0,0l0,0h0l0.1,0l0,0l0.2,0.2l0.1,0.1l0,0l0.1,0  l0,0l0,0l0,0l0,0h0v0h0l0,0l0.1,0l0,0l0,0.1l0,0l0,0l-0.1,0.1l-0.1,0l-0.1,0.1l0.1,0.1h0v0l0.2,0.2l0.1,0l0,0.1l0.1,0.1l0.2,0.3  l0,0.1l0,0.2l0,0.1l0,0.1l0,0l0,0l0.1,0l0,0l0.1,0.1l0.1,0.3l0.1,0.1l0.2,0.2l0,0.1l0,0.1l0,0.2l0,0.1l0.1,0.1l0.2,0.3l0.1,0.1  l0.1,0.2l0.1,0.1l0.1,0.1l0.2,0.2l0.4,0.5l0.1,0.2l0,0.1l0,0l0,0.1l0,0l0,0.1l0,0l0.1,0.3l0.4,0.5l0.3,0.3l0.1,0.2l0.1,0.1l0.1,0  l0.1,0.3l0.1,0.2l0.1,0.2l0.1,0.1l0.3,0.2l0.2,0.3l0.4,0.7l0.3,0.9l0.2,0.3l0.1,0.2l0.3,0.7l0.1,0.1l0.2,0.1l0.2,0l0.2,0l0.2,0.1  l0.1,0.1l0,0.1l0,0.1l0,0.1l-0.1,0.1l-0.1,0.1l0,0.1l0,0.1l0.1,0.1l0,0l0.1,0l0,0l0,0.1l0,0l0,0l0.1,0.1l0,0l0.1,0l0.1,0.1l0.1,0  l0.1,0l0-0.1l0-0.1l0-0.1l0.1,0l0.1,0.1l0.2,0.3l0.1,0l0.1,0.1l0.1,0l0,0.1l0.1,0.2l0,0.1l0,0l0,0.1l0,0l0,0l0.1,0l0,0l0.1,0.2  l0,0.1l0.2,0.2l0.1,0.1l-0.1,0.1l0,0.1l0.1,0.1l0,0l0,0l0,0.1l0,0.1l0.1,0.1l0.1,0.1l0.1,0.1l0.1,0.1l0,0l0,0.1l0,0l0.1,0l0.1,0.1  l0.1,0.1l0.1,0.1l0,0.1l0,0.1l0,0.1l0,0.3l0,0.1l0.1,0.2l0,0.1l-0.1,0.2l0,0.3l-0.1,0.1l-0.1,0l-0.1,0l-0.1,0l-0.1,0l0.1,0.2  l0.1,0.1l0.1,0.1l0,0l0.1-0.1l0,0l0,0l0,0.1l0,0.1l0,0l0,0.1l0.1,0.2l0.3,0.3l0.7,1.2l0,0l0,0l0,0l0,0.1l0,0l0,0l0.1,0.1l0.1,0.2  l0.1,0.1l0.1,0.1l0.1,0l0.1,0l0.3,0.1l0.1,0l0-0.1l0-0.1l0.1-0.1l0.1,0l0.1,0l0.1,0l0.1,0.1l0.1,0l0.1,0l0,0l0,0.1l0.2,0.2l0.1,0.1  l0.2,0l0.1,0l0.1,0l0,0l0-0.1l0-0.1l0,0l0,0l0,0l0,0l0,0l0,0.1l0,0.1l0,0.1l0,0.1l0,0l0,0l0,0l0,0l-0.1,0.1l-0.1,0l0.2,0.2l0.2,0.2  l0.1,0.1l0.1,0l0,0l0.1,0l0,0l0,0l0.2,0.2l0.1,0l0,0l0.1,0.2l0.1,0.1l0.1,0.1l0.1,0l0.1,0l0.1,0l0.1,0.1l0.1,0.1l0.1,0.1l0,0l0.1,0  l0,0l0,0l0.1,0.1l0,0l0,0l0,0.1l0,0l0.1,0l0.1,0l0,0l0.1,0.1l0,0.1l0,0.1l0,0.1l0.2,0.3l0.1,0.5l0.1,0.2l0.2,0v0l-0.1,0l0,0l0-0.1h0  l0,0l0.1,0l0,0l0,0.1l0,0.1l0.1,0.1l0,0.1l0,0.1l0,0.1l0,0.1l0,0l0,0l0,0l0,0.1l0,0.2l0,0.1l0.1,0.1l0,0l0,0.1l0,0.1l0,0l0,0.1l0,0  l0,0.1l0,0.1l0.1,0.1l0.1,0.1l0.1,0l0,0l0,0l0,0l0,0l0.1-0.1l0.1,0.1l0,0.1l0,0.1l0,0l0.1,0.2l0,0.1l0,0.1l0,0.1l-0.1,0.1l0.1,0.2  l0.1,0.1l0.1,0l0.1,0l0.1,0l0.1,0l0,0.1l0,0.1l0,0.1l0,0l0,0l0,0l0.1,0.2l0.1,0.1l0,0.1l0,0l0,0l-0.1,0l-0.1,0l-0.2-0.3l-0.1,0  l0.1,0.1l0.2,0.3l0.3,0.4l0.1,0.1l0,0l0-0.1l0-0.1l0-0.1l0-0.1l0,0l-0.1-0.1l0,0l0,0l0.1,0.1l0.2,0.3l0,0l-0.1,0.1l0,0.1l0,0.1  l0.1,0.2l0.1,0.3l0.1,0.2l0,0.1l0,0.6l0,0.2l0.1,0.2l0-0.1l0-0.1l0,0l0.1,0l0,0l0,0.1v0.1l0,0l-0.1,0.1l-0.1,0.1l0,0.1l0,0l0,0  l0,0.2l-0.2,0.2l0,0.1v0.2l0,0.1l0,0.1l0,0.1l0,0.1l0.1-0.2h0l0,0.1l0,0.2l0,0.1l0,0l-0.1,0l0,0l0,0.1v0.1l0,0.1l0,0.1l0,0.7l0,0  l0,0.1l0,0.1l-0.1,0l0,0l-0.1-0.2l0-0.1l-0.1-0.1l-0.2,0l0.1,0.1l0,0.2l0.1,0.1l0.2,0.1l0,0l0,0l0,0l0.1,0l0,0l0,0l0,0.1l0,0l0,0  l0,0l0,0l0,0l0,0v0l0,0l0.1,0l0,0l0,0l0-0.1l0,0.1l0,0.1l0,0.1l0,0l-0.1,0l0,0.1l0.1,0.1l0,0.1l0,0.2l0,0.1l0.1,0.1l0,0l0,0.1l0,0.1  l0,0l0.1-0.1l0.1,0.2l0,0.1l-0.1,0v0l0.1,0.1l0,0.1l0,0.2l-0.1,0.1l-0.4,0.3l0.1,0.2l0.1,0l0.2,0.3l0,0.1l0,0l0,0.1l0,0l0,0.1l0,0.1  l0,0.1l0.1,0.1l0.2,0.1l0,0l0,0l0,0.1l0,0l0.1,0l0,0l0,0.1l0,0.1l0,0.1l0.1,0.2l0,0l0,0l0,0l0,0l0,0l0,0l0,0l0,0l0,0.1l0,0l0,0l0,0  l0,0l0,0.1l0.1,0.1l0.1,0.1l0.1,0.1l0-0.1l0,0l0.1,0.1l0,0l0,0l0,0l0,0l0,0l0,0l0,0.1l-0.1,0l0,0l0,0l0,0l0,0l0,0l0,0l0,0l0,0.1  l0.1,0.1l0.1,0.1l0.1,0l0,0l0,0l0,0l0,0l0.1,0l0.2,0.1l-0.1,0.1l0,0.1l0.2,0.2l0,0.1l0,0.1l0,0.1l0.1,0.1l0.1,0l0.1,0l0,0l0,0l0,0  l0,0v0l0.1,0.1l0.3,0.5l0.1,0.1l0.3,0.2l0.1,0.1l0.1,0.2l0.1,0l0.1,0l0.1,0l0.1,0.1l0.5,0.3l0.1,0l0,0l0,0l0,0l0,0l0,0l0,0l0,0  l0-0.1l0.1,0l0.2,0.1l0.1,0l0,0l0.1,0l0.1,0l0.1,0l0.1,0l0.2,0.1l0,0l0,0l0,0l0.1,0.1l0,0.1l0,0l0.1,0l0.1,0l0.1,0.1l0,0.1l0.2,0.2  l0.2,0.2l0.1,0.1l0.1,0l0,0l0.1,0l0,0l0.1,0.2l0,0l0,0l0,0.1l0,0l0.2,0.1l0.1,0.1l0.1,0.1l0,0.1l-0.1,0.1l0,0l0,0l0.1,0.1l0.2,0.3  l0.1,0l0,0l0,0.1l0.1,0.1l0.1,0.1l-0.1-0.1l0,0l0.1,0l0.2,0l0.1,0.1l0.2,0.3l0,0.1l0,0.2l0,0.2l-0.1-0.1l-0.1,0v0l0.1,0.1l0.2,0.2  l0.1,0.1l0.4,0.1l0,0.1l0,0l0,0.1l0,0.1l0,0l0,0l0,0l0,0.1l0,0.1l0,0.1l0,0.1l0,0l0,0.1l0,0.1l0,0.1l0,0l0.1,0.1l0.1,0l0.1,0.1  l0,0.1l0,0l0.1,0l0,0l0,0.1l0,0.1l0,0l0,0.1l0,0.1l0,0l0.1,0.1l0,0.1l0.1,0.1l0.2,0.1l0.1,0l0.1,0.1l0,0.1l-0.1,0.1l0,0.1l0,0.1l0,0  l0,0l0,0.1l0,0.1l0,0.1l0,0.1l0,0l0.1,0.1l0,0l0,0.2l0.2,0l0,0l0.1,0.1l0,0l0,0.1l0,0l0,0l0,0l0,0.1l-0.1,0.3l0,0.1l0,0.1l0,0.1  l0.1,0.1l0.1,0.1l0.1,0.3l0,0l0,0l0.1,0l0.1,0l0,0l0.1-0.1l0,0l0,0l0,0l0,0l0.1,0l0,0.1l0,0.1l0,0.1l0,0l0.2,0.1l0,0l0,0l0,0l0,0  l0,0l0,0l0,0l0,0l0,0.3l0,0l0,0l0,0.2l0,0.1l0,0.1l0,0.1l0,0.1l0,0.1l0.1,0l0.1,0l0,0l0,0.1l0,0l0,0l0,0l0,0l0.1,0l0.1,0l0,0l0,0.1  l0,0l0,0l0,0l0,0l0.1,0l0.1,0l0,0.1l0,0l0,0l0,0l0,0.1l0,0.1l0.1,0.1l0,0.1l0.1,0.1l0.2,0.2l0,0l0,0l0,0l0,0l0.1,0l0,0l0,0.1l0,0.1  l0,0.1l0.2,0.3l0.1,0.1l0.1,0.1l0.1,0.1l0,0.1l0.1,0l0.2,0.1l0.1,0l0.3,0.3l0,0l0.1,0.2l0,0h0l0,0l0,0l0,0l0.2,0.2l0,0l0,0.1l0,0  l0.1,0l0,0l0,0l0,0.1l0.1,0.1l0.1,0.1l0,0l0,0l0,0l0.5,0.4l0,0.1l0,0l0,0l0,0l0,0l0,0l0,0l0,0.1l0,0.1l0,0.2l0,0.1l0,0.1l0.1,0.7  l0.1,0.2l0,0.1l0,0.3l0,0.1l0.1-0.1l0-0.3l0.1-0.1l-0.1-0.1l0-0.1l0-0.1l0.2,0.1l0,0l0,0.1l0,0.2l0,0.1l0.1,0.1l0,0.1l0.1,0.1l0.1,0  l0.1,0l0.1,0l0,0l0,0.1l0,0l0,0l0,0.1v0.2l0,0.1l-0.1,0.2l0.2,0.2l0.1,0l0,0l0.2,0.1l0,0l0.1,0.1l0.1,0.1l0,0l0.1,0.1l0,0l-0.1,0  l0,0.1l0,0.1l0.1,0.1l0,0l0.1,0l0,0.1l-0.1,0.2l0,0.2l0,0.1l0.1,0.1l0.2,0.3l0,0.1l-0.1,0.2l0,0.1l0,0.2l0,0l0.2-0.1l0.2-0.1  l0.1-0.1l0-0.1l0-0.1l0-0.1l0-0.1l0.1,0l0.2,0l0.1,0l0.2-0.1l0.1-0.1l0.1-0.1l0.1-0.3l0-0.1l0-0.1l0-0.1l0.1,0l0.1,0l0.2,0.1l0.1,0  l0-0.1l0-0.1l0-0.1l0-0.1l0.1-0.1l0,0l0,0l0,0l0-0.1l0-0.1l0-0.1l0,0l-0.2,0l-0.1,0l-0.1-0.2l-0.1-0.2l0-0.1l0-0.1l0.1-0.2l0-0.1  l0-0.1l0-0.1l0-0.1l0-0.1l0-0.1l0.1-0.2l0-0.1l0-0.1l0-0.1l0.1-0.1l0.1-0.1l0.1,0l0.1-0.1l0-0.1l0-0.1l-0.1-0.1l-0.3-0.1l0,0  l0.2-0.3l0.4-0.4l0.4-0.3l0.1,0l0.1,0l0.1,0l0.2,0l0.1,0l0.3,0.1l0.2,0.1l0.3,0.4l0.2,0.2l0.1,0h0.1l0.2,0l0.2,0l0.1,0l0.1,0l0,0  v0.1l0,0.1l0,0l0,0l0,0l0.1,0l0.1,0l0.1-0.1l0.1-0.1l0.1-0.1l0.1-0.1l0.1,0l0.2,0.1l0.1,0l0.1,0l0.1-0.1l0.1-0.1l0.1,0l0.1,0  l0.2,0.1l0.1,0l0.4-0.1l0.5,0l0.3,0l0.3,0.1l0.1,0l0.3-0.1l0.1,0l1,0l0.7,0l0.8,0l0.3,0.1l0.8,0.4l0.2,0.1l1,0.1l1.2,0.1l0.9,0.1  l1.1,0.1l0.8-0.1l1.1-0.1l0.2,0.1l0.3,0.4l0.3,0.5l0.4,0.6l0.1,0l0.7,0l0.2,0l0.1-0.1l0.6-0.3l0.5-0.3l0.1-0.2l0.3-0.9l0.2-0.6  l0.1-0.2l0.5-0.6l0.7-0.9l0.7-0.9l0.4-0.5l0.4-0.5l0.1-0.1l0.6-0.3l0.8-0.4l0.9-0.5l0.8-0.4l0.7-0.3l0.2-0.1l0.4-0.2l0.6-0.1  l0.8-0.1l0.8-0.1l0.8-0.1l0.8-0.1l0.8-0.1l0.8-0.1l0.8-0.1l0.8-0.1l0.8-0.1l0.8-0.1l0.8-0.1l0.8-0.1l0.8-0.1l0.8-0.1l0.8-0.1  l0.8-0.1l0.7-0.1l1.3-0.5l0.8-0.3l0.8-0.3l0.8-0.3l0.8-0.3l0.8-0.3l0.8-0.3l0.8-0.3l0.8-0.3l0.8-0.3l0.8-0.3l0.8-0.3l0.8-0.3  l0.8-0.3l0.8-0.3l0.8-0.3l0.7-0.3l0.2-0.5l0-0.1l0.1-0.3l0.1-0.4l0.2-0.6l0.2-0.7l0.2-0.7l0.2-0.8l0.5-1.7l0.2-0.8l0.2-0.8l0.2-0.7  l0.2-0.6l0.1-0.4l0.1-0.3l0-0.1l0.2-0.6L-245,319.8z"/></svg>