<svg xmlns="http://www.w3.org/2000/svg" xmlns:xlink="http://www.w3.org/1999/xlink" version="1.1" x="0px" y="0px" viewBox="-461 335 100 100" fill="#999999" style="enable-background:new -461 335 100 100;" xml:space="preserve"><polygon points="-361.2,418.4 -361.2,418.5 -361.4,418.7 -361.4,418.5 -361.5,418.3 -361.5,418.1 -361.6,417.9 -361.8,417.9   -361.9,418.1 -361.8,418.2 -362,418.1 -362.2,417.8 -362.3,417.7 -362.5,417.6 -362.3,417.5 -362,417.4 -362,417.2 -362,417.1   -362,417 -362,416.8 -362,416.3 -362,416.1 -362,415.9 -362.2,415.8 -362.3,415.8 -362.4,415.7 -362.4,415.5 -362.3,415.4   -362.1,415.3 -362,414.8 -361.8,414.8 -361.5,414.7 -361.4,414.5 -361.4,414.4 -361.6,414.1 -361.6,414 -361.5,413.9 -361.4,413.7   -361.5,413.5 -361.5,413.3 -361.6,413.2 -361.6,413.1 -361.7,413 -361.7,413 -361.7,413 -361.8,412.9 -361.9,412.9 -361.9,412.8   -361.8,412.7 -361.8,412.6 -361.8,412.6 -361.8,412.3 -361.8,412.1 -361.7,412 -361.6,411.8 -361.6,411.7 -361.7,411.6   -361.8,411.5 -361.8,411.4 -361.7,411.4 -361.6,411.4 -361.5,411.5 -361.4,411.5 -361.3,411.3 -361.2,411.3 -361.1,411.2   -361.1,410.8 -361.2,410.6 -361.3,410.4 -361.4,410.3 -361.4,410.5 -361.5,410.7 -361.7,410.8 -362,410.8 -361.9,410.6   -361.9,410.3 -361.9,410.1 -361.8,410.1 -361.8,410 -361.7,409.9 -361.9,409.9 -361.9,409.8 -362,409.7 -362.1,409.5 -362.3,409.2   -362.3,409.1 -362.2,409 -362.2,408.8 -362.3,408.8 -362.6,408.7 -362.8,408.6 -363,408.4 -363.2,408.3 -363.5,408.2 -363.6,408   -363.6,407.4 -363.8,407.2 -364,407 -364.1,406.8 -364.2,406.5 -364.1,406.3 -363.9,406 -363.9,405.8 -363.9,405.7 -364.3,405.3   -364.7,404.8 -364.8,404.5 -364.8,404.1 -364.9,404.2 -365.1,404.2 -365.3,404.2 -365.4,404 -365.3,403.8 -365.4,403.7   -365.8,403.7 -366.1,403.8 -366.3,403.8 -366.5,403.6 -366.6,403.5 -366.7,403.4 -366.9,403.3 -367.2,403.5 -367.3,403.7   -367.4,404.1 -367.5,404.4 -368.1,404.9 -368.2,405 -368.3,405 -368.5,404.8 -368.6,404.7 -368.7,404.4 -368.7,404.3 -368.9,404.2   -369.3,404 -369.4,403.9 -369.5,403.7 -369.2,402.9 -369.2,402.6 -369.3,402.4 -369.5,402.3 -369.6,402.3 -369.8,402.2   -369.9,402.1 -370,401.9 -370.1,401.7 -371.1,401.1 -371.4,400.7 -371.7,400.2 -371.9,399.6 -372.2,398.9 -372.5,398.6   -372.7,398.4 -371.3,397.6 -370.8,397.1 -370.5,396.3 -370.4,395.6 -370.4,395.3 -370.5,395 -370.8,394.7 -371.1,394.4   -371.4,394.2 -371.5,393.7 -371.5,393 -371.1,391.8 -371,391.1 -371.1,390.7 -371.7,389.3 -371.8,389.1 -372.1,388.9 -372.7,388.7   -372.9,388.5 -373,388.3 -373.2,388.1 -372.9,388 -372.9,387.8 -373,387.6 -374.5,387 -374.7,387 -374.7,386.2 -374.7,385.9   -374.9,385.2 -374.9,384.8 -374.8,384.5 -374.5,384.4 -374.4,384.3 -374.4,384.1 -374.4,383.9 -374.3,383.7 -374.2,383.5   -373.9,383.2 -373.8,383.1 -373.8,382.8 -373.9,382.7 -374.1,382.7 -374.2,382.6 -374.2,382.4 -374.2,382.3 -374.1,382.1   -374,381.9 -374.2,381.9 -374.5,381.9 -374.7,381.8 -374.8,381.6 -374.9,381.3 -375.3,381.1 -375.4,380.6 -376.3,379.9   -377.3,379.4 -377.6,379.1 -378.2,378.5 -378.4,378.4 -378.4,378.2 -378.8,376.8 -378.8,376.7 -379,376.5 -379.2,376.4   -379.5,376.3 -379.7,376.2 -380,376 -380.9,375.5 -381.1,375.2 -381.2,375.1 -381.4,375 -381.6,375.1 -382.1,375.2 -382.3,375.3   -382.7,375.1 -383.4,374.5 -383.8,374.4 -383.8,374.3 -383.8,374.2 -383.8,374 -383.8,373.6 -383.8,373.5 -383.8,373.3   -383.9,373.2 -384,373.1 -384.2,373.1 -384.4,373.1 -384.7,373.2 -384.9,373.2 -385,373.1 -385.2,373 -385.5,372.6 -385.6,372.4   -385.5,372.3 -384.9,372.3 -384.6,372.3 -384.6,372.1 -384.7,371.8 -384.9,371.6 -385.8,370.9 -386,370.7 -386.2,370.4   -386.2,370.2 -386.2,369.6 -386.3,369.5 -386.3,369.4 -386.5,369.1 -386.5,369 -386.6,368.6 -386.7,368.4 -386.8,368.3 -387,368.2   -387.3,368.2 -387.5,368.3 -387.7,368.5 -388,368.7 -388.2,368.7 -388.7,368.6 -388.7,368.6 -388.7,368.6 -388.7,368.6   -388.8,368.5 -388.9,368.3 -388.9,368.2 -388.9,368.1 -388.8,367.4 -388.8,367.2 -389,367 -389.1,366.8 -389.3,366.7 -389.7,366.6   -389.8,366.6 -390.1,366.4 -390.2,366.3 -390.5,366.3 -391,366.4 -391.2,366.4 -391.4,366 -391.4,365.8 -391.4,365.7 -391.3,365.5   -391.1,365.2 -391,365 -391.1,364.9 -391.1,364.8 -391.3,364.5 -391.4,364.4 -391.5,364.3 -391.8,364.1 -391.9,364 -392,363.9   -392,363.8 -392,363.6 -391.9,363.5 -391.9,363.4 -391.9,363 -392,362.8 -392.1,362.5 -392.4,362.1 -392.5,362.1 -392.5,361.9   -392.5,361.8 -392.4,361.5 -392.4,361.4 -392.5,361.2 -392.6,361.1 -393,360.8 -393.1,360.6 -393.2,360.5 -393.3,360.3   -393.6,359.7 -393.6,359.6 -393.6,359.3 -393.7,359.2 -393.8,359.1 -394.2,358.8 -394.3,358.7 -394.4,358.4 -394.5,358.4   -394.7,358.3 -395.3,358.6 -395.5,358.5 -395.5,358.2 -395.2,357.7 -395.2,357.5 -395.3,357.4 -395.4,357.4 -395.5,357.5   -395.7,357.6 -396.6,357.7 -397.1,358 -397.2,358 -397.3,358 -397.6,358 -397.7,358 -398.1,358.3 -398.2,358.3 -398.3,358.3   -398.4,358.2 -398.5,358.2 -398.5,358.1 -398.6,358.1 -398.6,358.1 -398.7,358 -398.7,358 -398.7,358 -398.8,357.9 -399,357.8   -399,357.8 -399.1,357.6 -398.9,357.1 -398.9,356.9 -399,356.9 -399.2,356.9 -399.3,356.9 -399.5,357 -399.6,357.1 -399.9,357.5   -400,357.7 -400.3,357.9 -400.5,358 -400.6,358.1 -400.8,358.1 -400.9,358 -401.1,357.9 -401.2,357.8 -401.3,357.7 -401.4,357.5   -401.5,357.1 -401.6,356.9 -401.7,356.8 -402,356.6 -402.1,356.5 -402.7,356.4 -403,356.2 -403.1,355.9 -403,355.6 -403,355.5   -403.1,355.3 -403.2,355.1 -403.2,355 -403.2,354.9 -403.1,354.6 -403.1,354.5 -403.2,354.4 -403.4,354.3 -403.7,354.2   -403.8,354.1 -404.1,353.7 -404.2,353.6 -404.8,353.3 -405.7,352.5 -406.3,351.8 -406.7,351.5 -406.8,351.4 -407.1,351.1   -407.2,351 -407.4,351 -407.8,350.9 -407.9,350.9 -408,350.7 -408,350.4 -408.1,350.3 -408.3,350.2 -408.9,350.3 -409,350.2   -409.1,350.1 -409,349.8 -409,349.6 -409,349.4 -409.2,349.4 -410.2,348.9 -410.5,349 -410.7,349 -411.1,349.3 -411.2,349.4   -411.4,349.4 -411.6,349.4 -411.8,349.4 -412.4,349.3 -412.6,349.3 -413.3,349.5 -413.5,349.5 -413.6,349.5 -414.1,349.2   -414.2,349.2 -414.4,349.2 -414.9,349.4 -415.1,349.4 -417.9,349.2 -418.4,349.3 -418.7,349.2 -418.9,349 -419,348.8 -419.2,348.5   -419.4,348.4 -419.8,348.6 -419.9,348.7 -420,348.9 -420.1,349.1 -420.1,349.2 -420.2,349.3 -420.3,349.4 -420.4,349.4   -420.5,349.4 -420.7,349.4 -420.8,349.2 -421,349 -421.1,348.9 -421.3,348.8 -421.6,348.9 -421.7,349 -421.7,349.3 -421.6,349.5   -421.4,349.7 -421.3,349.8 -421.3,350 -421.4,350.1 -421.5,350.1 -421.9,350.3 -423.6,350.5 -423.9,350.5 -424.6,350.4   -425.2,350.4 -425.4,350.5 -426.1,350.8 -426.3,350.8 -426.6,350.8 -426.8,350.8 -426.9,350.6 -427,350.4 -427.1,350.3   -427.4,350.3 -427.6,350.4 -427.8,350.6 -428.2,351.1 -428.3,351.3 -428.5,351.4 -428.8,351.4 -429.5,351.3 -429.7,351.3   -429.9,351.4 -430.3,351.7 -430.5,351.9 -430.7,352 -431,352 -431.2,351.9 -431.6,351.7 -431.8,351.7 -432.3,351.7 -433,351.4   -433.3,351.4 -433.7,351.5 -433.8,351.5 -434.4,351.3 -434.6,351.4 -435.3,351.7 -435.4,351.7 -435.5,351.7 -435.7,351.6   -435.8,351.6 -436,351.6 -436.1,351.6 -436.2,351.7 -436.6,351.8 -436.9,351.7 -437.3,351.6 -437.5,351.3 -437.7,351 -437.9,350.9   -438,350.8 -438.2,350.7 -438.4,350.8 -438.6,350.9 -439.1,351.2 -439.2,351.3 -439.4,351.3 -439.6,351.3 -440.1,351.2   -440.5,351.3 -440.9,351.5 -441.2,351.8 -441.4,352.1 -441.5,352.4 -441.6,353.1 -442.3,355.9 -442.3,356.1 -442.4,356.3   -442.7,356.5 -443.3,356.6 -443.5,356.8 -443.6,357.1 -443.7,358.3 -444,359 -444.2,359.7 -444.3,359.9 -444.3,361.7 -444.5,362.6   -444.9,363.3 -444.8,363.5 -444.7,363.7 -444.8,363.9 -446.9,367.4 -448.1,368.9 -450.3,372.9 -451.4,374.2 -452,374.9 -454.5,378   -455.1,378.5 -457.5,379.5 -458.3,380.2 -461,380.9 -460.7,381.1 -459.7,382.5 -459.4,382.6 -459.4,382.5 -459.3,382.5   -459.2,382.2 -459.3,382.2 -459.4,382.1 -459.4,382 -459.2,381.9 -459.1,381.7 -459.3,381.6 -459.4,381.5 -459.1,381.2   -458.7,381.2 -458.2,381.2 -457.7,381.2 -457.6,381.3 -456.9,381.7 -456.6,381.8 -456.3,381.8 -455.9,382 -455.7,382.2   -455.2,382.6 -454.5,383.5 -454.1,384.7 -453.5,385.5 -453.4,385.7 -453.3,385.9 -452.1,386.5 -451.6,387 -451.4,387.3   -451.3,387.6 -451.3,387.8 -451.4,388.1 -451.4,388.2 -451.4,388.5 -451.3,388.5 -451.2,388.6 -451.1,388.6 -450.8,389   -450.7,389.2 -450.5,389.4 -450.4,390.3 -450.3,390.6 -450.2,390.7 -449.7,390.8 -449.5,390.9 -449.4,391.1 -449.1,391.7   -448.8,392.5 -448.7,393 -448.6,396.2 -448.5,396.2 -448.6,394.6 -448.5,394.1 -448.5,394 -448.1,393.6 -448.1,393.5 -448,393.2   -448,393.1 -447.7,392.8 -447.7,392.6 -447.9,392.4 -447.8,392.3 -447.6,392.3 -447.3,392.3 -447.1,392.2 -446.9,391.9   -446.6,391.8 -447.1,392.3 -447.4,392.4 -447.4,392.5 -447.8,393.2 -447.4,393.2 -447,393.4 -446.7,393.4 -446.3,393.3   -446.2,393.2 -445.9,392.8 -445.8,392.6 -445.6,392.5 -445.3,392.4 -445.1,392.3 -444.9,392.1 -444.5,391.4 -444.5,391.3   -444.4,391.1 -444.4,391 -444.3,390.9 -444.1,391 -443.9,391 -443.7,391 -443.5,390.9 -443.7,390.8 -443.8,390.5 -443.7,390.3   -443.4,390.1 -443.4,390.5 -443,390.7 -442,390.7 -442.1,390.8 -442.4,390.9 -442.5,391 -442.6,391.1 -442.8,391 -442.9,390.9   -443,390.8 -443.2,390.9 -443.5,391.2 -444,391.3 -444.2,391.6 -444.6,392.1 -444.9,392.3 -445.6,392.8 -445.5,392.9 -445.3,393   -445.1,392.9 -444.9,392.9 -445.1,393 -445.3,393.1 -445.4,393.3 -445.4,393.7 -445.8,393.5 -446,393.7 -446.2,393.9 -446.4,394.1   -446.4,393.9 -446.6,393.8 -446.8,393.7 -447.3,393.6 -447.5,393.7 -447.7,393.7 -448,394 -448.1,394.1 -448.2,394.3 -448.2,394.6   -448.1,395.1 -448.1,395.4 -448,395.6 -448.1,395.8 -448.1,396.2 -448,396.5 -447.8,396.6 -447.7,396.7 -447.6,396.9 -447.6,397.1   -447.6,397.2 -447.4,397.3 -447.3,397.2 -447.1,396.9 -447,396.8 -446.8,396.7 -446.8,396.6 -446.7,396.5 -446.6,396.3   -446.6,396.2 -446.4,396.1 -446.1,396 -445.8,395.9 -445.5,395.8 -445.3,395.6 -445.2,395.6 -445,395.7 -444.8,395.4 -444.6,395   -444.5,394.3 -444.3,394 -444,393.4 -444,393.7 -444.3,395.3 -444.4,395.5 -444.2,395.6 -444.1,395.9 -444.1,396.4 -444,396.7   -444.2,396.8 -444.4,396.6 -444.5,396.3 -444.5,395.9 -445.1,396.1 -445,396.3 -445,396.4 -445.1,396.3 -445.3,396.2 -445.4,396.2   -445.5,396.4 -446.1,397.1 -446.2,397.3 -446.3,397.5 -446.3,397.9 -446.4,398.5 -446.4,398.8 -446.1,399.1 -445.8,399.2   -445.5,399.1 -445.2,398.9 -445.1,398.6 -444.9,398.6 -444.7,398.4 -444.6,398 -444.6,397.8 -444.3,397.8 -444.3,398 -444.4,398.3   -444.6,398.5 -444.6,398.5 -444.4,398.6 -444.3,398.7 -444.7,399 -445.1,399.2 -445.4,399.5 -445.4,399.9 -445.3,400.1   -445.2,400.3 -444.2,400.4 -443.2,400.4 -442.1,400.4 -441.1,400.4 -440.1,400.4 -439.1,400.4 -438.1,400.4 -437.1,400.4   -436.1,400.4 -435.1,400.4 -434.1,400.4 -433.1,400.4 -432.1,400.4 -431.1,400.4 -430,400.4 -429,400.4 -428.2,400.4 -428,400.3   -428,399.7 -427.9,399.3 -427.8,399 -427.6,398.6 -427.4,398.3 -426.9,397.8 -426.2,397.3 -425.5,397 -424.8,397.1 -424.6,397.3   -424.3,397.7 -424.2,397.8 -423.8,397.7 -422.6,396.9 -421.4,396.5 -421.1,396.5 -420.1,396.9 -418.5,396.9 -417.9,397.1   -417.3,397.6 -417.1,397.9 -416.9,398.2 -416.6,399.3 -416.5,399.4 -415.8,399.8 -415.6,399.9 -415.4,399.8 -414.4,399.2   -413.8,399.1 -413.1,399.1 -412.4,399.5 -412.1,399.7 -411.9,400 -411.7,400.3 -411.5,401 -411.4,401.2 -411.2,401.4 -409.9,402.4   -409.5,402.5 -409.2,402.6 -408.9,402.5 -408,402.2 -407.1,401.6 -406.8,401.5 -405.8,401.3 -405.1,400.9 -404.8,400.8   -404.6,400.8 -404.3,400.8 -404.1,400.8 -403.9,400.7 -403.6,400.5 -403.4,400.5 -403.1,400.5 -402.6,400.7 -402.3,400.9   -402,401.1 -401.9,401.2 -401.8,401.6 -401.7,401.7 -401.6,401.8 -401.2,402 -401,402.2 -400.6,403 -400.7,403.8 -401.2,404.5   -402,404.9 -403.2,405 -403.8,405.1 -404.5,405.2 -405.2,405.4 -405.5,405.4 -405.7,405.5 -406.5,406.1 -406.9,406.3 -407.3,406.3   -408.2,406.1 -409.1,406.2 -409.6,406.2 -410,406.1 -410.6,405.7 -410.8,405.6 -410.9,405.5 -411,405.3 -411.2,405.1 -411.4,405.1   -412,405.1 -412.2,405 -412.4,404.9 -413,404.3 -413.2,404.2 -413.7,404.4 -414.3,404.4 -414.9,404.4 -415.5,404.1 -415.9,403.7   -416.2,403.3 -416.4,403.2 -416.8,403.1 -417.1,403 -417.6,402.7 -417.8,402.6 -418.5,402.5 -419,402.4 -420.1,401.9 -420.1,401.9   -420.1,401.9 -420.1,401.9 -420.9,401.3 -421.6,400.6 -422.1,400.3 -422.4,400.4 -423.1,401.2 -423.4,401.5 -423.4,402.6   -423.5,403 -423.9,403.5 -424.3,403.8 -424.9,404 -425.4,404.1 -426,404.1 -427.8,403.7 -428.3,403.7 -428.6,403.8 -429,404   -429.5,404.2 -429.8,404.2 -430.9,404.1 -431.1,404.1 -431.8,404.3 -432.9,404.4 -433.1,404.6 -433.2,404.8 -433.2,406.2   -433.2,407.4 -433.4,407.5 -434,407.5 -435.4,407.5 -437.6,407.4 -441.2,407.4 -443.6,407.4 -446.3,407.4 -447,407.4 -447.6,407.5   -447.8,407.9 -447.9,408 -448.1,408.3 -448.2,408.4 -448.3,408.6 -448.3,409 -448.2,409.1 -448.2,409.4 -448.2,409.9 -448.4,410.5   -448.4,410.9 -448.4,411.1 -448.3,411.5 -448.3,411.7 -448.4,411.9 -449,412.8 -449.1,413 -449.1,413.2 -449.1,413.4 -449,413.5   -448.8,413.4 -448.8,413.2 -448.6,413.2 -448.6,413.5 -448.6,413.7 -449,414.2 -448.9,414.4 -448.9,414.5 -448.9,414.7 -449,414.8   -448.8,414.8 -448.6,414.7 -448.3,414.3 -448,414.2 -447.6,414.3 -447.4,414.4 -447.4,414.7 -448,414.5 -448.4,414.8 -448.7,415.4   -448.8,416 -448.7,416.6 -448.6,417 -448.3,417.2 -447.8,417 -447.1,416.4 -446.6,416.2 -446.5,415.9 -446.6,415.3 -446.6,415   -446.6,414.7 -446.4,414.6 -446.1,414.3 -446,414.2 -445.9,414.2 -445.9,414 -445.8,413.9 -445.7,413.4 -445.6,414 -445.9,414.4   -446.2,414.7 -446.4,415.2 -446.4,415.4 -446.4,415.6 -446.2,415.7 -446,415.7 -445.8,415.6 -445.6,415.5 -445.5,415.3   -445.3,415.2 -445.2,415.5 -444.6,416 -444.4,416.3 -444.3,416.3 -444.2,414.9 -444.1,415.1 -444,415.3 -443.9,415.5 -443.6,415.5   -443.6,415.6 -443.8,415.6 -444,415.7 -444.1,415.9 -444.1,416.1 -444,416.2 -443.9,416.3 -443.7,416.3 -443.6,416.3 -443.5,416.6   -443.3,416.8 -442.7,417.1 -442.1,417.3 -441.9,417.2 -441.8,417 -441.7,416.8 -441.7,416.7 -441.5,416.7 -441.3,416.5   -441.1,416.5 -440.6,416.6 -440.4,416.6 -440.2,416.6 -439.9,416.4 -439.8,416.4 -439.1,416.4 -438.7,416.5 -438.6,416.5   -438.5,416.5 -438.1,416.2 -438,416.2 -437.3,416.1 -436.8,415.8 -436.8,415.2 -436.7,415.1 -436.5,414.8 -436.5,414.7   -436.5,414.6 -436.4,414.6 -436.3,414.8 -436.3,415.1 -436.2,415.2 -436.1,415.2 -436.1,415.3 -435.9,415.7 -435.8,415.8   -435.7,415.9 -435.6,415.9 -435.3,415.9 -435.3,416 -435.3,416.1 -435.3,416.2 -435.3,416.3 -434.9,416.6 -434.6,416.7   -434.5,416.7 -434.3,416.7 -434,416.5 -433.8,416.5 -433.6,416.6 -433.5,416.7 -433.4,416.8 -433.3,416.8 -433.1,416.8   -432.3,416.3 -431.1,416.5 -430.6,416.7 -430.7,417.2 -430.6,417.3 -430.4,417.4 -430.2,417.4 -430,417.2 -429.2,416.5   -429.1,416.3 -428.7,416 -428.6,415.9 -428.6,415.8 -428.6,415.5 -428.7,415.3 -428.8,414.7 -428.8,413.7 -428.7,413.5   -428.5,413.4 -428.3,413.3 -428.1,413.3 -427.8,413.3 -427.4,413 -427.2,412.9 -426.9,412.9 -426.7,413 -426.4,413 -426.2,412.8   -426.2,413.2 -426.4,413.4 -426.7,413.3 -427.1,413 -427.1,413.2 -427.2,413.3 -427.4,413.5 -427.6,413.5 -427.8,413.6   -428.1,413.5 -428.3,413.6 -428.5,413.7 -428.6,414.1 -428.6,414.6 -428.4,415.1 -428.3,415.5 -428.4,415.6 -428.3,415.7   -428.1,415.8 -428,415.9 -428.1,416.1 -428.2,416.2 -428.4,416.3 -428.6,416.4 -429.1,417.1 -429.4,417.4 -430.1,417.7   -430.3,417.7 -430.5,417.7 -430.6,417.7 -430.7,417.6 -430.9,417.5 -430.9,417.4 -431,417.1 -431.2,417 -431.3,416.9 -431.3,417   -431.4,417 -431.7,416.8 -431.8,416.8 -431.9,416.9 -432,417 -432.3,416.8 -432.5,417 -432.7,417.2 -432.9,417.3 -433.3,417.4   -433.5,417.4 -433.5,417.4 -433.7,417.1 -433.8,417.1 -434.9,417.1 -435.1,417 -435.2,416.9 -435.9,416.3 -436.2,416.2   -436.5,416.2 -436.8,416.3 -437,416.4 -437.2,416.5 -437.6,416.5 -437.9,416.6 -439.2,417.1 -439.3,417 -439.4,416.7 -439.5,416.6   -439.7,416.7 -440.1,416.9 -440.4,416.9 -440.7,416.7 -441.1,416.7 -441.4,416.9 -441.8,417.4 -442.1,417.5 -442.4,417.5   -442.9,417.2 -443.4,417.1 -443.9,416.8 -444.3,416.7 -444.5,416.8 -444.7,417 -444.7,417.3 -444.9,417.1 -445.2,416.5   -445.5,416.2 -446.1,416.6 -446.2,416.8 -446.3,416.9 -446.4,417 -446.5,417.2 -447.1,417.5 -447.6,417.5 -447.9,417.5 -448.7,418   -448.9,418.1 -448.9,418.3 -449.1,418.4 -449.1,418.6 -449.1,419.3 -449,419.5 -448.9,419.7 -448.5,420.1 -448.2,420.2   -448.1,420.4 -448.1,420.7 -448,420.9 -447.9,421.1 -447.5,420.9 -446.9,420.7 -444.7,420.9 -444.4,420.9 -443.6,420.6   -442.8,420.6 -442.3,420.4 -441,419.7 -439.8,419.1 -439.7,419.1 -439.5,419.1 -439.2,419.3 -439,419.3 -438.9,419.3 -438.9,419.2   -438.8,419.2 -437.5,418.9 -437,419 -435.9,419.3 -435.6,419.4 -434.3,419.3 -431.4,419.5 -430.8,419.4 -426.7,417.4 -425.8,416.8   -424.8,416.3 -423.9,415.6 -423.5,415.5 -423,415.4 -422.2,415.4 -416.4,415.4 -410.7,415.4 -404.9,415.5 -399.2,415.5   -393.9,415.7 -393.1,415.9 -393.1,415.9 -392.9,416 -392.8,416 -392.7,416 -392.7,416 -392.7,416 -392.6,415.9 -392.1,415.8   -392,415.8 -391.8,415.9 -391.6,416 -391.5,416 -391.3,416 -391.1,415.9 -390.9,415.9 -390.9,415.9 -390.7,416.1 -390.6,416.1   -390.6,416.1 -390.4,416.1 -390.2,416.1 -390.1,416.1 -390,416.1 -389.9,416.2 -389.7,416 -389.4,416.1 -389.1,416.1 -388.8,416.1   -388.6,416.1 -388.4,416.3 -388.3,416.6 -388.3,417 -388.4,417.3 -388.6,417.8 -388.7,418.1 -388.6,418.4 -388.4,418.7   -388.2,418.8 -387.9,418.8 -387.6,418.8 -387.3,418.9 -387,418.9 -386.8,418.7 -386.8,418.4 -386.5,417.8 -385.9,417.8   -385.3,418.1 -384.9,418.4 -384.9,418.5 -384.9,418.6 -384.9,418.8 -384.7,418.9 -384.6,419 -384.1,419 -383.8,419.1 -383.8,419.3   -383.7,419.4 -383.3,419.5 -382.3,419.4 -381.9,419.4 -381.6,419.6 -381.4,419.8 -380.9,420.3 -380.8,420.5 -380.8,420.6   -380.7,420.6 -380.5,420.6 -380.4,420.6 -379.9,420.3 -379.6,420.2 -379.3,420.2 -379,420.2 -378.7,420.3 -378,420.5 -377.7,420.7   -377.2,421.4 -377,421.6 -374.2,420.8 -373.6,420.5 -373.1,420 -372.8,419.9 -372.4,419.9 -371.4,420.2 -371.1,420.2 -370.9,420.2   -370.2,419.9 -370.1,419.7 -370,419.7 -369.9,419.7 -369.8,419.7 -369.8,419.7 -368.8,420.1 -368.5,420.2 -367.2,420.3   -366.6,420.2 -365.3,419.7 -364.6,419.6 -363.2,419.5 -362.7,419.5 -361.6,419.9 -361.2,419.9 -361.1,419.5 -361,419.1 -361,418.7   "/></svg>