<svg xmlns="http://www.w3.org/2000/svg" xmlns:xlink="http://www.w3.org/1999/xlink" version="1.1" x="0px" y="0px" viewBox="-461 335 100 100" fill='#e0e0e0' style="enable-background:new -461 335 100 100;" xml:space="preserve"><polygon points="-376.6,404.4 -376.7,404.3 -376.9,404.3 -377.6,404.1 -377.7,404.1 -378,403.9 -378,403.8 -378.2,403.7   -378.4,403.4 -378.6,403.1 -379,402.8 -379,402.7 -379.1,402.5 -379.2,402.4 -379.2,401.9 -379.3,401.8 -379.3,401.8 -379.4,401.6   -379.5,401.5 -380.7,400.3 -380.9,400.1 -381.2,400 -381.4,399.9 -381.7,400 -381.7,399.9 -381.8,399.9 -382,399.8 -382,399.8   -382,399.7 -382.2,399.4 -382.3,399.3 -382.5,399.2 -382.8,399.2 -383,399.2 -383,399.2 -383.1,399.1 -383.2,399 -383.4,398.8   -383.5,398.6 -383.9,398.4 -384,398.4 -384.3,398.1 -384.4,397.7 -384.7,396.6 -384.8,396.4 -384.9,396.2 -384.9,396.1   -384.9,396.1 -384.9,396 -384.9,396 -384.9,395.9 -384.9,395.8 -384.9,395.7 -384.9,395.6 -384.9,395.6 -384.9,395.5 -385,395.4   -384.9,395.3 -384.9,395.3 -385,395 -385,394.4 -385,394.4 -385.1,394.1 -385.2,394.1 -385.3,394 -385.6,393.9 -385.8,393.7   -385.9,393.7 -386.1,393.5 -386.2,393.4 -386.2,393.3 -386.3,393 -386.4,392.9 -386.4,392.7 -386.5,392.4 -386.5,392.2   -386.4,391.8 -386.5,391.6 -386.9,391.1 -387.1,390.5 -387,390.2 -387,390 -386.9,389.9 -386.8,389.5 -386.6,388.8 -386.6,388.6   -386.6,388.1 -386.6,388.1 -386.6,388 -386.4,387.7 -386.3,387.6 -386.3,387.6 -386.3,387.2 -386.3,386.5 -386.3,386.4   -386.3,386.2 -386.1,385.9 -386.1,385.9 -385.7,385.8 -385.5,385.7 -384.9,385.6 -384.5,385.6 -384.4,385.5 -384.4,385.4   -384.3,385.1 -384.2,385 -384,384.7 -383.7,384.6 -383.4,384.6 -383.2,384.6 -383.1,384.6 -383,384.5 -382.8,384.2 -382.8,384.1   -382.9,383.7 -383,383.6 -383,383.3 -383,383.3 -383,383.1 -382.8,382.4 -382.8,382.4 -382.8,382.4 -382.8,382.3 -382.9,382.2   -382.8,382.1 -382.8,382 -382.8,382 -382.7,382 -382.5,381.7 -382.3,381.4 -382.3,381.3 -382.2,381.2 -382.1,381.1 -381.8,381   -381.4,380.8 -381.4,380.8 -381.5,380.5 -381.5,380 -381.4,379.3 -381.6,379 -381.7,379 -381.9,378.9 -382.3,378.8 -382.6,378.8   -383.1,378.6 -383.2,378.5 -383.8,378 -384.2,377.4 -384.5,376.7 -384.5,376.7 -384.5,376.6 -384.5,376.5 -384.5,376.2 -384.5,376   -384.6,375.9 -384.6,375.8 -384.9,375.5 -385,375.4 -385,375 -384.9,374.7 -384.9,374.5 -384.8,374.4 -384.7,374.4 -384.6,374.3   -384.3,374.3 -384,374.3 -383.8,374.2 -383.7,374.1 -383.6,374 -383.6,373.7 -383.6,373.5 -383.5,373.2 -383.2,372.9 -382.9,372.8   -382.6,372.8 -382.4,372.9 -382.2,373 -381.9,373.1 -381.6,373.4 -381.2,373.5 -380.9,373.4 -380.5,373.3 -380.4,373.1   -380.2,372.9 -380.2,372.7 -380.1,372.5 -380.8,371.8 -381,371.6 -381.2,371.4 -382.5,371.3 -382.8,371.1 -383.1,371 -383.5,370.6   -383.7,370.5 -384.8,369.2 -384.8,369.2 -385,369.1 -385.2,369 -385.4,369 -385.8,369 -385.9,369.1 -385.9,369.1 -386.5,369.8   -386.8,370 -387.2,370.1 -387.5,370.1 -387.8,370.3 -387.9,370.7 -388.8,372.3 -389.8,374.1 -390,374.3 -390.3,374.4 -390.4,374.4   -390.5,374.4 -390.8,374.4 -391.2,374.2 -391.5,374 -391.6,373.3 -391.7,373.3 -391.8,373.1 -392,373 -392.1,372.9 -392.2,372.9   -392.2,372.8 -392.3,372.7 -392.3,372.4 -392.4,372.1 -392.5,371.8 -392.8,371 -393,370.8 -393.5,370.7 -394.2,370.3 -395,369.9   -395.1,369.9 -395.3,369.9 -395.6,369.9 -396.2,370.2 -396.3,370.2 -397,370.4 -397.8,370.4 -398.6,370.1 -398.6,370.1   -399.2,369.5 -399.4,369 -399.5,368.6 -399.6,368.2 -399.9,368 -400,367.9 -400.2,367.9 -401.3,368 -402.7,367.8 -403,367.7   -403.2,367.2 -403.2,367.1 -403.3,367 -403.5,366.8 -403.6,366.8 -403.7,366.8 -403.7,366.8 -403.9,366.7 -403.8,366.4   -403.7,366.3 -403.6,366.2 -403.5,366 -403.4,366 -403,365.8 -402,365.9 -401.6,365.8 -400.9,365.6 -400.7,365.4 -400.7,365.4   -400.6,365 -400.8,364.6 -400.8,364.6 -401,364.4 -401.6,364.1 -401.8,364 -402,364 -402.3,363.9 -402.8,363.8 -403.2,363.6   -403.2,363.4 -403.1,363.3 -403.2,363.2 -403.5,363.1 -403.7,363.1 -403.7,363.1 -403.7,362.9 -403.6,362.6 -403.6,362.6   -403.5,362.4 -403.4,362.4 -403.4,362.4 -403.2,362.3 -402.9,362.3 -402.8,362.3 -402.6,362.1 -402.5,362 -402.5,361.8   -402.4,361.5 -402.4,361.4 -402.2,361.2 -402.2,361.1 -402.2,360.6 -402.1,360.4 -402,360.4 -401.9,360.2 -401.8,360.1   -401.5,360.1 -401.4,360 -401.3,359.7 -401.4,359.4 -401.9,358.7 -402.4,358.3 -402.6,358.2 -402.8,358.1 -404,357.7 -404.6,357.5   -404.8,357.5 -405.3,357.5 -405.6,357.4 -406,357.1 -406.2,357 -406.4,356.6 -406.9,356 -407,355.8 -407.3,355.6 -407.4,355.7   -407.7,356 -407.9,356 -408.1,356 -408.1,355.9 -408.2,355.9 -408.4,355.7 -408.5,355.6 -409.9,354.9 -409.9,354.9 -410.2,354.7   -410.8,353.9 -411.9,352.9 -412.1,352.6 -412.4,352.1 -412.7,351.8 -412.9,351.7 -413.1,351.6 -413.2,351.6 -413.5,351.4   -413.6,351.1 -413.2,350.8 -413.1,350.6 -413,350.6 -412.9,350.2 -413,350.1 -413.1,349.7 -413.4,349.2 -413.6,348.8 -413.7,348.6   -413.7,348.4 -413.6,348.2 -413.6,347.8 -413.4,347.4 -413.3,347.2 -413.3,347.2 -413.3,346.9 -413.3,346.5 -413.3,345.6   -413.3,345.4 -413.3,345.4 -413.2,345.2 -413.2,344.9 -413.3,344.8 -413.3,344.7 -413.5,344.6 -413.7,344.7 -413.8,344.8   -413.9,344.9 -414,345.2 -414.2,345.3 -414.4,345.4 -414.6,345.3 -414.7,345.3 -414.8,345.2 -414.8,345.2 -415,344.9 -415.4,344.4   -415.5,344.1 -415.6,343.9 -415.6,343.9 -415.6,343.8 -415.6,343.4 -415.7,343.2 -415.8,343.1 -415.8,343.1 -415.8,343.1   -416.1,342.9 -416.2,342.8 -416.7,341.8 -416.8,341.7 -417,341.5 -417.3,341.4 -417.4,341.4 -417.9,341.3 -418.2,341.2   -418.3,341.2 -419.1,340.4 -419.4,340.2 -420.1,339.9 -420.3,339.8 -420.4,339.7 -420.5,339.6 -420.6,339.3 -421,338.2 -421.1,338   -421.2,337.8 -421.3,337.7 -422.2,336.5 -423.1,335.8 -423.4,335.6 -423.8,335.9 -424,335.9 -424,335.8 -424.1,335.8 -424.2,335.6   -424.3,335.5 -424.3,335.5 -424.6,335.4 -424.6,335.4 -424.8,335.4 -424.9,335.5 -425.2,335.6 -425.5,335.7 -425.7,335.7   -426.4,335.3 -427.4,335.2 -427.6,335.2 -428.1,335.3 -429.7,336 -430,336 -430.6,335.6 -431.4,335.1 -431.7,335 -431.8,335   -432.1,335 -433,335.2 -433.4,335.2 -433.6,335.2 -433.7,335.2 -433.8,335.3 -434.1,335.4 -434.3,335.5 -434.5,335.6 -434.6,335.7   -434.8,335.9 -434.7,336.1 -434.7,336.1 -434.7,336.2 -434.6,336.3 -434.6,336.5 -434.8,336.7 -435,336.8 -435.1,336.9   -435.1,336.9 -435.2,337 -435.2,337.1 -435.4,337.3 -435.6,337.5 -435.8,337.6 -436,337.6 -436.2,337.7 -436.2,337.7 -436.3,337.9   -436.4,338.1 -436.6,338.3 -436.9,338.4 -437.5,338.4 -437.6,338.5 -437.8,338.5 -437.9,338.6 -438.1,338.7 -438.3,339   -438.3,339.1 -438.3,339.3 -438.5,339.5 -438.5,339.6 -439,339.6 -440.4,339.5 -440.7,339.3 -440.8,339.3 -440.9,339.1 -441,338.8   -441.4,338.7 -441.8,338.9 -442,339.3 -442.1,340 -442.4,340.1 -442.6,340.1 -442.8,340.1 -443.2,340.3 -443.2,340.4 -443.2,340.5   -443.2,340.6 -443.1,340.7 -443.1,340.8 -443.1,340.9 -443.1,340.9 -443.1,340.9 -443.1,340.9 -443.2,341 -443.4,340.9   -443.5,340.8 -444.4,340.8 -444.5,340.8 -444.5,340.9 -444.4,341.1 -444.7,341.3 -444.8,341.4 -444.9,341.6 -445,341.6 -445,341.7   -444.7,341.9 -444.5,342.1 -444.5,342.2 -444.4,342.3 -444.6,342.5 -444.8,342.5 -445.3,342.5 -445.3,342.8 -445.3,343.2   -445.4,343.3 -445.4,343.4 -445.4,343.4 -445.4,343.5 -445.5,343.5 -445.4,343.7 -445.1,343.9 -445.1,344.1 -445,344.1   -444.9,344.3 -444.5,344.7 -444.4,345.1 -444.4,345.8 -444.4,345.8 -444.2,346.1 -444,346.3 -444,346.3 -443.7,346.5 -443.5,346.7   -443.5,346.7 -443.4,347 -443.5,347.2 -443.9,347.7 -443.9,347.9 -444,347.9 -444.1,348 -444.2,348.1 -444.3,348.2 -444.4,348.6   -444.4,348.8 -444.4,349.1 -444.5,349.2 -444.5,349.3 -444.3,349.4 -444.1,349.7 -444,349.9 -443.9,350.1 -443.5,350.1   -443.5,350.1 -443.3,349.9 -443.2,349.7 -442.8,349.6 -442.7,349.5 -442.7,349.5 -442.6,349.4 -442.5,349.4 -442.4,349.6   -442.3,349.7 -442.3,349.8 -442.2,349.8 -442.2,349.8 -442.2,349.9 -442.1,350 -442,350.1 -441.9,350.1 -441.7,350.2 -441.5,350.2   -441.5,350.3 -441.3,350.4 -441.1,350.7 -441.6,351.2 -442.2,351.1 -442.7,351 -442.9,351.6 -442.9,351.9 -442.8,352 -442.7,352.2   -442.4,352.5 -442.2,352.8 -442.3,352.9 -442.4,353 -442.6,353.1 -443.3,353.5 -443.1,353.8 -443,353.9 -442.8,354.2 -442.5,354.4   -442.2,354.5 -441.6,354.5 -441.5,354.5 -441.4,354.5 -441.4,354.8 -441.3,355 -441.3,355.2 -441.3,355.3 -440.8,355.8   -440.2,356.1 -439.6,356.3 -436.9,357 -436.7,357.3 -436.6,357.4 -436.3,357.6 -436.1,358 -436.1,358.1 -436.2,358.6 -436.4,358.8   -437.9,358.9 -437.9,358.9 -437.9,358.8 -438.1,358.6 -438.1,358.6 -438.2,358.6 -438.3,358.6 -438.3,358.7 -438.3,358.8   -438.4,358.8 -438.4,358.9 -438.4,358.9 -438.8,359 -439.2,359 -439.5,359 -439.8,358.8 -440,358.7 -440.2,358.4 -440.3,358.2   -440.5,358.1 -440.8,358.2 -440.9,358.2 -440.8,358.5 -440.6,358.8 -440.5,359 -440.6,359.4 -441,359.4 -441.6,359.4 -441.9,359.3   -441.9,359.4 -442.1,359.6 -442.1,359.8 -442,360 -441.9,360 -441.8,360.1 -441.7,360.2 -441.7,360.3 -441.6,360.5 -441.6,360.6   -441.5,360.8 -441.5,360.9 -441.4,361.3 -441.3,362 -441.2,362.3 -441.3,362.5 -441.4,362.8 -441.4,363.1 -441.4,363.3   -441.4,363.3 -441.2,363.5 -440.9,363.4 -440.7,363.5 -440.7,363.9 -440.7,363.9 -440.8,364 -441,364.1 -441.1,364.2 -441.1,364.2   -441.4,364.7 -441.5,364.9 -441.7,365 -441.8,365 -442,364.9 -442.3,364.6 -442.5,364.5 -443,364.8 -442.9,365.2 -442.7,365.7   -442.6,365.9 -442.1,365.7 -441.7,365.7 -441.5,365.6 -440,364.5 -439.8,364.5 -439.7,364.6 -439.6,364.8 -439.5,364.9   -439.3,364.9 -439,364.8 -438.9,364.7 -438.1,364.9 -438,364.9 -437.9,364.8 -437.7,364.8 -437.4,365.1 -437.2,365.2 -437,365.2   -437,365.2 -437,365.2 -437,365.2 -436.9,365.3 -436.8,365.4 -436.7,365.6 -436.7,365.8 -436.7,366 -436.7,366.1 -436.8,366.1   -436.9,366.2 -437.5,369 -437.6,369.5 -437.8,369.7 -438.1,370 -438.3,370.2 -438.4,370.4 -438.6,371.1 -439.4,372.4 -439.5,372.5   -439.7,372.6 -439.8,372.7 -439.8,372.9 -439.7,373.2 -439.8,373.4 -439.9,373.6 -440,373.8 -440.1,373.9 -440.7,374 -440.7,374.4   -440.5,375.5 -440.5,376.1 -440.7,376.4 -440.9,376.7 -441.1,377.2 -441.1,377.7 -440.9,378.1 -440.6,378.9 -440.3,379.3   -439.9,379.4 -439.2,379.6 -438.9,379.8 -438.7,379.8 -438.5,379.8 -438,379.7 -437.8,379.7 -437.5,380 -437.2,380.4 -437,380.9   -437,381.4 -436.8,381.7 -436.5,382 -435.8,382.5 -435.6,382.7 -435.5,382.8 -435.4,382.7 -435.2,382.6 -435.1,382.6 -435,382.7   -434.9,383.1 -434.8,383.3 -434.6,383.5 -434.2,384.1 -433.6,384.4 -433.4,384.8 -433.2,384.9 -433.2,384.8 -433.1,384.7   -432.9,384.6 -432.7,384.8 -432.6,385.3 -432.7,385.6 -433,386 -433.7,386.5 -434.1,386.6 -434.5,386.6 -435.4,386.5 -436.3,386.6   -436.6,386.7 -436.8,386.7 -437,386.6 -437.5,386.2 -437.9,385.9 -438.1,385.8 -438.3,385.8 -438.7,385.9 -438.8,386 -438.9,386.2   -438.9,386.4 -438.8,386.7 -438.9,386.9 -439.1,387.1 -438.9,387.2 -438.3,387.6 -437.8,388.3 -436.9,389.7 -435.2,391.6   -434.9,392.3 -434.5,393.6 -434.5,394.2 -434.9,394.6 -434.9,394.9 -435,395.2 -435,395.6 -434.9,395.8 -434.8,395.9 -434.7,396   -434.8,396.1 -434.9,396.2 -435.5,395.9 -435.7,395.9 -435.9,396.5 -436.1,396.6 -436.2,396.4 -436.3,396.1 -436.6,395.6   -436.8,395.2 -437.1,395.1 -437.3,395.1 -437.7,395.4 -437.9,395.6 -438,395.6 -438.5,395.5 -438.6,395.6 -438.9,395.9 -439,396.5   -439.2,396.9 -439.6,396.9 -439.9,397.4 -439.9,398 -439.8,398.4 -439.7,398.6 -439.4,398.8 -439.2,399 -436.9,400.1 -436.6,400.3   -435.9,401.3 -435.8,401.4 -435,402.3 -434.8,402.6 -434.5,403.3 -434.3,403.5 -434,403.8 -433.7,404.1 -433.5,404.3 -433.2,404.7   -433,404.9 -432.9,405 -432.6,405.2 -432.3,405.2 -431.8,405.4 -431.5,405.4 -431.4,405.4 -431.2,405.4 -431.2,405.3 -431.1,405.2   -431,405.2 -430.5,406.1 -430.2,406.5 -430.1,406.6 -429.8,406.8 -429.5,406.9 -428.9,407 -428.3,406.9 -428.2,406.8 -427.8,406.4   -427.6,406.3 -427.4,406.4 -427.3,406.6 -427.2,406.8 -427,407 -426.9,407.2 -425.9,407.9 -424.3,409.5 -423.9,409.6 -423.1,409.7   -423,409.7 -422.5,409.9 -421.9,410.4 -421.6,410.6 -420.7,411 -420.6,411.1 -420.3,411.4 -420.3,412 -420.4,412.8 -420.5,412.8   -421.8,413.1 -422.5,413.3 -422.6,413.4 -422.7,413.7 -422.8,413.9 -422.7,414.1 -422.8,414.3 -423.2,414.8 -423.7,414.6   -424.4,414.2 -425,414.1 -425.1,414.2 -425.6,414.6 -425.8,414.8 -425.8,415.3 -425.6,415.6 -424.7,416.5 -424.5,416.8   -424.5,416.8 -424.7,417.4 -424.9,417.8 -425,418 -425,418.3 -425,418.6 -425,418.9 -425.2,419.2 -424.8,419.6 -424,420.1   -423.7,420.4 -423.3,421.6 -423.2,421.7 -422.9,421.9 -422.8,422.1 -422.8,422.2 -423,422.5 -423,422.7 -422.9,422.8 -422.6,423.1   -422.5,423.2 -422.5,423.4 -422.5,423.7 -422.5,423.8 -422.3,424.2 -422.2,424.4 -422,424.4 -420.9,424.4 -420.6,424.4   -418.5,425.9 -418.1,426.4 -417.8,426.8 -417.2,428.2 -417,428.7 -417,429.1 -417,429.8 -416.9,430.3 -416.3,431.6 -416.3,432.1   -416.2,432.4 -416.2,432.7 -416.3,433.1 -416.5,433.2 -416.6,433.3 -416.7,433.5 -416.8,433.7 -416.8,433.9 -416.7,434.2   -416.7,434.3 -416.3,434.7 -416.1,434.9 -415.9,434.8 -415.7,434.7 -415.6,434.4 -415.4,434.3 -415.3,434.4 -415,434.9 -414.8,435   -414.5,434.9 -414.1,434.5 -413.9,434 -413.7,433.6 -413.6,433.1 -413.8,432.2 -413.8,431.7 -413.6,430.6 -413.4,430.1   -413.1,429.7 -412.7,429.4 -409.5,428.3 -409.1,428.1 -408.3,427.4 -407.9,427.1 -407.8,427.1 -407.7,427.2 -407.5,427.3   -406.8,427.8 -406.2,428.4 -406,428.8 -405.8,429.1 -405.6,429.3 -404.8,429.5 -404.6,429.5 -404.6,429.2 -404.6,428.8   -404.6,428.6 -404.6,428.5 -404.7,428.3 -404.7,428.2 -403.7,426.6 -403.5,426.5 -403.2,426.5 -402.6,426.7 -402.4,426.7   -402.4,426.5 -402.5,426.3 -402.6,426.1 -402.3,426 -402.1,426.1 -401.9,426.2 -401.8,426.3 -401.5,426 -401.3,426.2 -400.9,426.2   -400.2,426 -400.2,426 -400.2,425.9 -400,425.9 -399.9,425.9 -399.4,425.9 -399.1,425.9 -398.9,426 -398.5,426.1 -398.2,426.1   -398.2,426 -398,425.9 -397.9,425.8 -397.7,425.6 -397.4,425.5 -395.9,424.5 -395.6,424.4 -395.6,424.4 -394.9,424.4 -394.8,424.4   -394.8,424.4 -394.6,424.3 -394.2,423.9 -394,423.8 -393.9,423.9 -393.8,423.9 -392.9,424.3 -392.7,424.4 -392.4,424.6   -391.9,424.6 -391.8,424.6 -391.7,424.6 -391.3,424.5 -390.4,424.1 -389,423.5 -388.8,423.4 -388.5,423.1 -388.4,423.1   -388.4,423.1 -388.4,423.1 -388.3,423.2 -388.3,423.5 -388.3,423.6 -388.3,423.7 -388,424 -387.9,424.1 -387.8,424.2 -387.5,424.3   -387.2,424.3 -387.1,424.3 -386.8,424.2 -386.2,424.2 -385.8,424.1 -385.8,424 -385.6,423.7 -385.4,422.9 -385.1,422.6   -385.1,422.6 -384.9,422.5 -384.7,422.4 -384.6,422.4 -384.4,422.3 -384.3,421.9 -384,421.1 -384,420.6 -384,420.4 -384,420.3   -384.1,420.2 -384.2,420 -384.4,419.7 -384.9,419.4 -385.7,418.5 -385.8,418.5 -385.8,418.1 -385.8,418.1 -385.7,417.9   -385.5,416.9 -385.4,416.4 -385.6,416.1 -385.4,415.8 -385.1,415.2 -384.9,415 -384.9,414.9 -384.9,414.8 -384.9,414.7 -385,414.6   -385.1,414.5 -385.4,414.2 -385.8,413.2 -385.8,413.2 -385.8,413.2 -385.8,413.1 -385.6,412.8 -385.5,412.7 -385.1,412.4   -384.9,412.3 -384.7,411.9 -384.6,411.8 -384.5,411.8 -384.3,411.8 -384,411.8 -384,411.8 -383.9,411.8 -383.8,411.7 -383.7,411.6   -383.5,411.5 -383.1,411.4 -382.7,411.5 -381.8,411.8 -381.4,411.7 -381.3,411.6 -381,411.5 -380.8,411.4 -380.7,411.3   -380.6,411.2 -380.6,411.1 -380.5,410.9 -380.3,410 -380.2,409.8 -380.2,409.7 -380.1,409.5 -380,409.3 -379.8,409.2 -379.4,409.1   -379.1,409 -378.9,408.7 -378.2,408 -378.1,407.9 -378,407.5 -378,407.5 -378,407.4 -377.9,407.3 -377.8,407.2 -377.5,407   -377.5,407 -377.4,407 -377.1,406.6 -377,406.4 -376.7,405.7 -376.5,404.9 "/></svg>