<svg xmlns:dc="http://purl.org/dc/elements/1.1/" xmlns:cc="http://creativecommons.org/ns#" xmlns:rdf="http://www.w3.org/1999/02/22-rdf-syntax-ns#" xmlns:svg="http://www.w3.org/2000/svg" xmlns="http://www.w3.org/2000/svg" xmlns:sodipodi="http://sodipodi.sourceforge.net/DTD/sodipodi-0.dtd" xmlns:inkscape="http://www.inkscape.org/namespaces/inkscape" viewBox="0 0 100 100" version="1.1" x="0px" y="0px"><g transform="translate(0,-952.36216)"><path style="color:#000000;font-style:normal;font-variant:normal;font-weight:normal;font-stretch:normal;font-size:medium;line-height:normal;font-family:sans-serif;text-indent:0;text-align:start;text-decoration:none;text-decoration-line:none;text-decoration-style:solid;text-decoration-color:#000000;letter-spacing:normal;word-spacing:normal;text-transform:none;direction:ltr;block-progression:tb;writing-mode:lr-tb;baseline-shift:baseline;text-anchor:start;white-space:normal;clip-rule:nonzero;display:inline;overflow:visible;visibility:visible;opacity:1;isolation:auto;mix-blend-mode:normal;color-interpolation:sRGB;color-interpolation-filters:linearRGB;solid-color:#000000;solid-opacity:1;fill:#e0e0e0;fill-opacity:1;fill-rule:evenodd;stroke:none;stroke-width:8;stroke-linecap:round;stroke-linejoin:round;stroke-miterlimit:4;stroke-dasharray:none;stroke-dashoffset:0;stroke-opacity:1;color-rendering:auto;image-rendering:auto;shape-rendering:auto;text-rendering:auto;enable-background:accumulate" d="M 40.101562 51.179688 A 0.79679524 0.79679524 0 0 0 39.873047 51.212891 L 36.525391 52.216797 A 0.79679524 0.79679524 0 0 0 35.96875 52.849609 L 34.916016 59.162109 L 30.955078 58.878906 A 0.79679524 0.79679524 0 0 0 30.21875 59.257812 L 28.496094 62.076172 L 27.027344 62.810547 A 0.79679524 0.79679524 0 0 0 26.988281 64.214844 L 29.095703 65.417969 L 29.828125 67.175781 A 0.79679524 0.79679524 0 0 0 30.384766 67.644531 L 36.595703 69.078125 L 40.101562 74.498047 A 0.79679524 0.79679524 0 0 0 40.560547 74.833984 L 41.685547 75.140625 L 41.328125 76.919922 A 0.79679524 0.79679524 0 0 0 41.363281 77.355469 L 42.078125 79.259766 L 40.853516 79.667969 A 0.79679524 0.79679524 0 0 0 40.314453 80.335938 L 40.146484 81.841797 A 0.79679524 0.79679524 0 0 0 40.40625 82.523438 L 43.482422 85.275391 L 44.587891 87.328125 A 0.79679524 0.79679524 0 0 0 44.757812 87.542969 L 47.9375 90.388672 A 0.79679524 0.79679524 0 0 0 48.736328 90.544922 L 51.080078 89.708984 A 0.79679524 0.79679524 0 0 0 51.513672 88.583984 L 48.958984 83.791016 L 50.261719 74.509766 A 0.79679524 0.79679524 0 0 0 50.263672 74.306641 L 49.59375 68.617188 A 0.79679524 0.79679524 0 0 0 49.238281 68.042969 L 42.240234 63.486328 L 41.085938 60.888672 L 41.394531 58.259766 A 0.79679524 0.79679524 0 0 0 41.332031 57.84375 L 40.847656 56.753906 L 42.255859 54.78125 A 0.79679524 0.79679524 0 0 0 42.277344 53.888672 L 40.771484 51.544922 A 0.79679524 0.79679524 0 0 0 40.101562 51.179688 z " transform="translate(0,952.36216)"/><path style="color:#000000;font-style:normal;font-variant:normal;font-weight:normal;font-stretch:normal;font-size:medium;line-height:normal;font-family:sans-serif;text-indent:0;text-align:start;text-decoration:none;text-decoration-line:none;text-decoration-style:solid;text-decoration-color:#000000;letter-spacing:normal;word-spacing:normal;text-transform:none;direction:ltr;block-progression:tb;writing-mode:lr-tb;baseline-shift:baseline;text-anchor:start;white-space:normal;clip-rule:nonzero;display:inline;overflow:visible;visibility:visible;opacity:1;isolation:auto;mix-blend-mode:normal;color-interpolation:sRGB;color-interpolation-filters:linearRGB;solid-color:#000000;solid-opacity:1;fill:#e0e0e0;fill-opacity:1;fill-rule:evenodd;stroke:none;stroke-width:8;stroke-linecap:round;stroke-linejoin:round;stroke-miterlimit:4;stroke-dasharray:none;stroke-dashoffset:0;stroke-opacity:1;color-rendering:auto;image-rendering:auto;shape-rendering:auto;text-rendering:auto;enable-background:accumulate" d="M 7.4882812 35.449219 A 0.79679524 0.79679524 0 0 0 6.7734375 35.859375 L 5.0996094 38.871094 A 0.79679524 0.79679524 0 0 0 5.1191406 39.677734 L 7.2597656 43.136719 L 8.40625 45.919922 A 0.79679524 0.79679524 0 0 0 9.609375 46.263672 L 12.623047 44.087891 A 0.79679524 0.79679524 0 0 0 12.912109 43.693359 L 13.748047 41.183594 A 0.79679524 0.79679524 0 0 0 13.71875 40.605469 L 12.212891 37.257812 A 0.79679524 0.79679524 0 0 0 11.738281 36.828125 L 7.7226562 35.490234 A 0.79679524 0.79679524 0 0 0 7.4882812 35.449219 z " transform="translate(0,952.36216)"/><path style="color:#000000;font-style:normal;font-variant:normal;font-weight:normal;font-stretch:normal;font-size:medium;line-height:normal;font-family:sans-serif;text-indent:0;text-align:start;text-decoration:none;text-decoration-line:none;text-decoration-style:solid;text-decoration-color:#000000;letter-spacing:normal;word-spacing:normal;text-transform:none;direction:ltr;block-progression:tb;writing-mode:lr-tb;baseline-shift:baseline;text-anchor:start;white-space:normal;clip-rule:nonzero;display:inline;overflow:visible;visibility:visible;opacity:1;isolation:auto;mix-blend-mode:normal;color-interpolation:sRGB;color-interpolation-filters:linearRGB;solid-color:#000000;solid-opacity:1;fill:#e0e0e0;fill-opacity:1;fill-rule:evenodd;stroke:none;stroke-width:8;stroke-linecap:round;stroke-linejoin:round;stroke-miterlimit:4;stroke-dasharray:none;stroke-dashoffset:0;stroke-opacity:1;color-rendering:auto;image-rendering:auto;shape-rendering:auto;text-rendering:auto;enable-background:accumulate" d="M 90.021484 17.099609 A 0.79679524 0.79679524 0 0 0 89.5 17.277344 L 88.554688 18.046875 A 0.79679524 0.79679524 0 0 0 88.267578 18.78125 L 88.505859 20.396484 L 88.019531 20.882812 A 0.79679524 0.79679524 0 0 0 87.787109 21.447266 L 87.787109 22.570312 A 0.79679524 0.79679524 0 0 0 88.208984 23.273438 L 91.109375 24.8125 A 0.79679524 0.79679524 0 0 0 92.025391 24.691406 L 94.748047 22.146484 A 0.79679524 0.79679524 0 0 0 94.689453 20.933594 L 92.564453 19.298828 L 92.050781 17.916016 A 0.79679524 0.79679524 0 0 0 91.480469 17.416016 L 90.179688 17.119141 A 0.79679524 0.79679524 0 0 0 90.021484 17.099609 z " transform="translate(0,952.36216)"/><path style="color:#000000;font-style:normal;font-variant:normal;font-weight:normal;font-stretch:normal;font-size:medium;line-height:normal;font-family:sans-serif;text-indent:0;text-align:start;text-decoration:none;text-decoration-line:none;text-decoration-style:solid;text-decoration-color:#000000;letter-spacing:normal;word-spacing:normal;text-transform:none;direction:ltr;block-progression:tb;writing-mode:lr-tb;baseline-shift:baseline;text-anchor:start;white-space:normal;clip-rule:nonzero;display:inline;overflow:visible;visibility:visible;opacity:1;isolation:auto;mix-blend-mode:normal;color-interpolation:sRGB;color-interpolation-filters:linearRGB;solid-color:#000000;solid-opacity:1;fill:#e0e0e0;fill-opacity:1;fill-rule:evenodd;stroke:none;stroke-width:8;stroke-linecap:round;stroke-linejoin:round;stroke-miterlimit:4;stroke-dasharray:none;stroke-dashoffset:0;stroke-opacity:1;color-rendering:auto;image-rendering:auto;shape-rendering:auto;text-rendering:auto;enable-background:accumulate" d="M 71.011719 9.4082031 A 0.79679524 0.79679524 0 0 0 70.607422 9.5195312 L 68.595703 10.701172 A 0.79679524 0.79679524 0 0 0 68.259766 11.685547 L 69.443359 14.642578 A 0.79679524 0.79679524 0 0 0 69.619141 14.910156 L 71.275391 16.566406 A 0.79679524 0.79679524 0 0 0 71.613281 16.767578 L 74.126953 17.511719 L 73.894531 18.822266 A 0.79679524 0.79679524 0 0 0 74.445312 19.722656 L 77.513672 20.667969 L 80.34375 21.611328 A 0.79679524 0.79679524 0 0 0 81.037109 21.517578 L 82.103516 20.808594 A 0.79679524 0.79679524 0 0 0 82.333984 19.716797 L 81.628906 18.611328 L 81.628906 17.871094 L 82.492188 17.738281 A 0.79679524 0.79679524 0 0 0 82.623047 17.705078 L 83.332031 17.46875 A 0.79679524 0.79679524 0 0 0 83.853516 16.519531 L 83.617188 15.574219 A 0.79679524 0.79679524 0 0 0 83.005859 14.986328 L 80.476562 14.458984 L 79 12.351562 A 0.79679524 0.79679524 0 0 0 78.503906 12.027344 L 76.728516 11.671875 A 0.79679524 0.79679524 0 0 0 76.009766 11.890625 L 75.673828 12.226562 L 73.511719 9.6894531 A 0.79679524 0.79679524 0 0 0 72.904297 9.4082031 L 71.011719 9.4082031 z " transform="translate(0,952.36216)"/></g></svg>