<svg xmlns="http://www.w3.org/2000/svg" xmlns:xlink="http://www.w3.org/1999/xlink" version="1.1" x="0px" y="0px" viewBox="0 0 100 100" fill="#e0e0e0" style="enable-background:new 0 0 100 100;" xml:space="preserve"><path d="M94.3,50.1c-0.2-0.4-0.2-0.5-0.1-0.9c-0.7,0.2-1.1-0.6-1.7-0.6c-0.4,0-0.6,0.4-1,0.5c-0.3,0.1-0.5,0-0.8-0.1  c-0.3,0.2-0.4,0.8-0.6,1.1c-0.3,0.4-0.6,0.9-0.9,1.3c-0.4,0.7-2.8,3-3.4,3c-0.5,0-0.5-0.3-0.9-0.6c-0.4-0.3-0.8-0.3-1.2-0.3  c-0.9-0.1-1.6,0.2-2,1.1c-0.1,0.2-0.1,0.7-0.3,0.8c-0.5,0.2-0.4-0.7-0.3-1c0.1-1.2,0.7-1.6,1.5-2.3c0.9-0.8,0-2,0.6-2.9  c0-0.3,0.1-0.2,0.2-0.3c0.1,0.1,0.2,0.1,0.3,0c0-0.1,0-0.2-0.1-0.3c0.1-0.7,0-0.9,0.4-1.3c0.3-0.3,0.5-0.4,0.7-0.8  c0.3-0.5,0.2-0.6,0.7-0.9c0.4-0.2,0.6-0.4,1-0.5c0.7-0.1,0.7-0.2,1.2-0.6c0.3-0.2,0.4-0.1,0.6-0.5c0.1-0.2,0.1-0.6,0-0.8  c-0.1-0.4-0.5-0.8-0.9-0.8l-0.1-0.1v-0.2c-0.2-0.3-1.3-2.1-1.8-2.3c-0.6-0.4-0.5-0.2-0.5-0.9c0-0.5-0.3-1-0.3-1.5  c0-0.6,0.1-1.1,0-1.7c-0.2-0.9,0.1-1.4,0.4-2.3c0.2-0.6,0.5-1.2-0.1-1.6C84.5,32,84,32,83.6,32c-0.5,0-0.9-0.1-1.4-0.1  c-0.6,0-1.6,0.3-1.9-0.4c-0.1-0.3,0.2-1,0.3-1.3c0.1-0.4,0.1-0.8,0.2-1.3c0.2-0.9,1.4-0.7,1.6-1.6c0.1-0.4-0.2-0.9,0-1.3  c0.1-0.4,0.5-0.6,0.3-1c-0.1-0.3-1.6-1.3-1.9-1.6c-0.3-0.2-0.5-0.6-0.8-0.8c-0.2-0.1-0.5-0.2-0.7-0.2c-0.2,0-0.6,0.3-0.7,0.2  c-0.2,0-0.4-0.3-0.4-0.5c0-0.1,0.3-0.1,0.4-0.2c0.2-0.5,0.1-0.5-0.4-0.8c-0.3-0.1-0.5-0.2-0.7-0.4c-0.3-0.5,0.1-1.3,0-1.8  c-0.1-0.5-0.7-0.9-0.9-1.4c-0.2-0.6-0.4-0.8-0.8-1.2c-0.4-0.3-0.4-0.7-0.6-1.1c-0.1-0.1-0.1-0.2-0.2-0.3c0.2,0.4-0.7-0.6-0.3-0.3  c-0.3-0.2-0.5-0.1-0.8-0.4c-0.3-0.3-0.3-0.9-0.5-1.3c-0.2-0.5-0.4-0.9-0.7-1.3c-0.8-1-1.8-2.1-2.9-2.7C69.6,9,69,9,68.6,8.6  c-0.4-0.5-0.3-1.2-0.4-1.8c-0.1-0.7-0.3-1-0.6-1.6c-0.4,0-0.9,0.2-1-0.3H46.8v0.2c-0.1,0.3-0.2,0.6-0.2,0.9c0,0.3,0.2,0.6,0.3,0.9  l-0.1,0.1c0,0-6.7,1.6-7,1.6c-0.2-0.1-2.3-0.9-2.4-1.1C37.2,7.4,37.2,7,37,6.8h-0.1l-6.5,1.5c-0.3,0.5-1.1,0.4-1.6,0.7  c0,0.3,0,0.5,0,0.8C29,9.8,29,9.8,29.1,9.9c0.1,0.2,0.1,0.4,0,0.5c-0.3,0.2-0.4,1.1-0.6,1.4c0,0.2,0.3,0.5,0.2,0.8h-0.1h-0.2h-0.1  c0,0.3,0.2,0.6,0,0.8h-0.2L28,13.2h-0.1c-0.4,0.3-0.6,0.3-0.8,0.8c-0.1,0.3,0.1,0.7-0.4,0.7c-0.6,0.3,0.2,1.6-0.4,1.9  c-0.5-0.1-0.5-0.3-0.8,0.1c-0.1,0.2-0.2,0.5-0.2,0.7c-0.1,0.4-0.1,0.5-0.4,0.8c-0.1,0-0.2,0.1-0.2,0.1c-0.3,0.1-0.3,0.2-0.1,0.5  c0,0.5,0,0.5-0.1,0.9c-0.1,0.3-0.3,0.6-0.4,0.9C24,20.7,23.9,22,23.6,22c-0.4-0.2-0.5,0.3-0.6,0.6h-0.2l-0.4-0.2  c-0.5,0-0.9,0.2-0.9,0.7c0,0.3,0.3,0.4,0.1,0.7c-0.7,0.4-1,0.3-1.3,1.1c-0.2,0.5-0.4,0.6-0.9,0.9c-0.2-0.2-0.4-0.2-0.6,0  c-0.1,0-0.2,0.1-0.3,0.1c-0.2,0-0.3-0.3-0.6-0.2c-0.4,0-0.6,0.5-1,0.5V26c-0.3-0.3-0.7-0.6-1.1-0.3c-0.3,0.3-0.2,0.8-0.4,1.1  c-0.1,0.3-0.3,0.6-0.2,1s0.4,0.5,0.6,0.8l-0.1,0.1c-0.4,0.1-0.6,0-1,0.4c-0.3,0.4-0.4,0.9-0.6,1.3c-0.3,0.6-0.6,0.8-1.1,1.1  c-0.6,0.3-1.1,0.8-1.7,1.1c-1.5,0.7-1.9-1.3-3.1-1c-0.5,0.1-1.2,0.3-1.7,0.5c-0.2,0.4-1,0.8-1,1.2c0.3,0.7,0,1.2,0.2,1.9  c0.1,0.3,0.3,0.6,0.7,0.5c0.1-0.1,0.2-0.3,0.2-0.4C7,35.4,7,35.6,7.3,35.6v-0.2c0-0.1,0.1-0.2,0.3-0.2c0,0.8,1.2,1.8,1.9,1.5  c0.6-0.2,2.5-1.4,2.8-0.3c-0.6,0-1.3-0.1-1.8,0.3c-0.2,0.2-0.3,0.4-0.5,0.6c-0.2,0.2-0.3,0.1-0.4,0.3c0.1,0.1,0.4,0.1,0.5,0.2  c0.1,0.1,0.3,0.4,0.3,0.4c0.4,0.3,1,0.1,1.5,0.1c0.6,0.1,0.9,0,1.5-0.1c0.6-0.1,0.9,0,1.4,0.4c-3-0.1-3.4,0.5-5.3,0.2l-0.1,0.1  c-0.5-0.1-0.5-0.6-1-0.5c-0.4,0.1-0.8,0.7-0.9,1.1c-0.4,1,0.1,2.1,0.2,3.1c0-0.1-0.1-0.1-0.1-0.2c-0.6,1.3,0.6,2.8,1.1,3.9  c0.1,0.7,0.3,1.3,0.7,1.8c0.6,0.8,0.9,0.4,1.1-0.4c0.2-0.1,0.2-0.3,0.2-0.5c0.2,0,0.3-0.1,0.4-0.1c0.2-0.3,0.4-0.3,0.4-0.7  c-0.1-0.5-0.9-0.8-0.9-1l0.1-0.1v-0.1l-0.1-0.1c-0.3-0.1-0.7,0-0.9-0.3c-0.1-0.2-0.1-0.6,0.1-0.7c0,0.3,0,0.4,0.1,0.5  c0.5,0,0.7,0,1,0.4c0.1,0.2,0.1,0.3,0.3,0.4c0.1,0.1,0.6,0.2,0.7,0.2c0.8-0.1,0.5-1,0.8-1.4c0.2,0.3,0.6,0.3,0.7,0.6  c-0.4,0.2-0.5,0.7-0.8,1c-0.3,0.2-0.7,0.2-0.9,0.5c0.7,1,1.4,0,2.2-0.2l0.1,0.1l0.1,0.1c0.7-0.5,1.6,0.2,2.3-0.3  c0.8-0.6,0.9-1.8,1.7-2.3c0.1,0.5-1.1,2.8-1.6,2.9h-0.2v0.1c0.3,0.3,0.7,0.4,1.1,0.4c0.2,0,0.9-0.3,0.9,0.1c-0.5-0.1-0.6,0.4-1,0.5  c-0.3,0.1-0.8-0.1-1.2-0.1c-0.5,0-1.3-0.5-1.7,0c0,0-0.6-0.2-0.4-0.1c-0.2,0.4-0.3,0.7-0.4,1.1c-0.7-0.3-0.6,0.5-1.1,0.7  c-0.6,0.3-1.7,0.6-1.8,1.4c-0.2,0.9,1.7,1,2.2,1c0,0.3-0.5,0.3-0.4,0.6c0,0.2,0.4,0.2,0.5,0.3c0.1,0.1,0.4,0.1,0.3,0.3  c-0.1,0.6-1.1-0.1-1.2-0.3c-0.1-0.2-0.2-0.4-0.4-0.5c-0.1-0.1-0.4-0.1-0.5-0.1c-0.3-0.2-0.6-0.4-0.9-0.6c-0.4-0.3-0.6-0.7-0.9-1.1  c-0.2-0.2-0.6-0.8-0.8-0.9S8,49.5,7.9,49.5c-0.3,0-0.8,0.2-1-0.2c-0.3,0-0.5,0.3-0.7-0.1c-0.2-0.1-0.3-0.1-0.4,0  c0.1,0.2,1,2,0.3,1.7c0,0.2-0.2,0.4-0.2,0.5L6,51.2h0.2c0.5,0.3,0.5,1,0.8,1.3c0.2,0.2,0.5,0.3,0.6,0.6c0.1,0.2,0.1,0.4,0.3,0.6h0.2  h0.1l0.1,0.1l0.3,0.1c0.4,0.6,0.4,1.3,1,1.7c-0.2,0.5,0.1,1,0.1,1.5c0.1,0.1,0.1,0.1,0.2,0.2c0,0.2-0.1,0.4-0.2,0.6  c-0.1,0.3-0.2,0.6-0.2,0.9c0.2-0.2,0.2-0.2,0.2-0.1c0.4-0.4,0.7-0.7,1.1-0.9c0.4,0.1,0.4-0.2,0.7-0.4c0.3-0.1,0.4,0,0.6-0.2  c0.5-0.3,0.6-0.6,1.3-0.4c0.2-0.1,0.4-0.2,0.6-0.2c0.1,0,0.2,0.1,0.3,0.1c0.2-0.1,0.3-0.2,0.4-0.3c0.2-0.1,0.3-0.4,0.5-0.1  c-0.3,0.6-0.5,1.3-0.2,1.9c0.3,0.5,0.9,0.5,1.2,1c0.3,0.4,0.2,1.2,0.8,1.5c0.3,0.1,0.9-0.2,1,0.1c-0.9,0.9-1,1.9-0.6,3  c0.2,0.6,0.3,1,0.8,1.3c0.5,0.3,1.1,0.5,1.4,1c-0.6-0.1-1.2-0.5-1.9-0.5c-0.6,0-1.1,0.3-1.6,0.6c-0.6,0.3-0.6,0.2-0.2,0.6  c0.2,0.2,0.3,0.4,0.5,0.6c0.3,0.2,0.4,0.1,0.7,0.2c0.4,0.2,0.4,0.5,0.6,0.9c0.3,0.5,0.7,0.8,1.2,1.1c0.5,0.2,0.7,0.3,1.2,0  c0.4-0.3,0.6-0.8,1.3-0.5c-0.2,0.3-0.6,0.2-0.8,0.5c-0.3,0.4-0.1,0.9,0.2,1.3s0.6,0.5,1,0.7c0.4,0.2,0.7,0.7,1.1,0.6  c0.2,0.1,0.1,0.4,0.4,0.5c0.2,0.1,0.4-0.1,0.6-0.1c0.4,0,1.2,0.6,1.5,0.4c0.1,0,0.2-0.1,0.3-0.2c0.7,0.2,0.6,0.7,1.5,0.2  c0.6-0.3,1.3-0.8,1.7-1.3c0.3-0.4,0.5-0.9,0.8-1.3c0.1-0.1,0.2-0.3,0.4-0.3c0.2,0,0.6,0.4,0.5,0.6c-0.1,0-0.1,0-0.2,0  c-0.6,0.2,0.1,1.4-0.4,1.3c-0.1-0.1-0.3-0.3-0.4-0.4c-0.2,0.3-0.5,1-1,1c-0.6,0.6-0.8,1.9,0,2.4c0.1-0.2,0-0.2,0.1-0.5  c0.5,0.2,0.8-0.4,1-0.3c0.1,0.3,0,0.9-0.3,1c0.6,0.4,0.4,1.1,0.8,1.6c0.4,0.4,1.1,0.4,1.6,0.4c0.7,0,1.4-0.2,2-0.4  c0.4-0.1,1.3-0.1,1.5-0.3c0.2-0.1,0.7-0.2,0.9-0.4c0.1-0.1,0.2-0.4,0.3-0.5c0.1-0.1,0.5,0,0.8,0c0.1,0.1,0.1,0.1,0.2,0.2  c0.4-0.2,1.3-0.2,1,0.4c-0.3,0.6-1.1,0.2-1.6,0.6c0.1,0.2,0.2,0.3,0.2,0.4c-0.8,0-1.2-0.1-1.8,0.4c-0.5,0.4-0.5,0.2-1-0.1  c-0.5-0.2-1.3,0.3-2,0.2c-0.8,0-1.3,0-1.9,0.6c-0.5,0.5-1.7,1.8-0.6,2.1c0.6,0.2,1.3,0,1.9,0.4c0.2,0.1,0.4,0.4,0.6,0.6  c0.3,0.2,0.6,0.1,0.8,0.5c-0.9,0.2-1.6-0.8-2.5-0.8c-0.4,0-1.8,0.3-1.6,0.8c1.7,0.6,3.4,1.1,5,1.7c1.3,0.5,2.9,1,4,1.7  c2.2,1.2,4.7,1.7,7,2.5c2.3,0.8,4.5,1.7,6.5,3.1c1.1,0.9,2.8,1.4,3.1,2.9h0.1c0.2-0.4,0.5-0.1,0.9-0.1c0.2,0,0.3-0.2,0.6-0.1  c0.3,0.3-0.3,0.5-0.5,0.5c0.5,0.3,0.8,0.7,1.3,0.9c0.5,0.2,1,0.3,1.5,0.5c0.2,0.1,0.5,0.1,0.7,0.1c0.3-0.1,0.2-0.3,0.5-0.4  c0.2-0.1,0.9,0.3,0.9-0.3c-0.2-0.1-0.3-0.2-0.3-0.4c0.4-0.1,0.2-0.4,0.5-0.7c0.4-0.4,0.9-0.5,1.1-1.1c0.2-0.4-0.1-1.1,0.1-1.4  c0.2-0.4,0.8-0.2,1.1-0.5c0.4-0.4,0-0.8-0.2-1.1c-0.1-0.1-0.3-0.3-0.2-0.5c0-0.3,0.2-0.2,0.4-0.3c0.4-0.3,0.5-0.6,0.7-1.1  c0.5-1,1.6-1.4,2.6-1.7c0.4-0.1,1-0.2,1.3-0.5c0.1-0.2,0.1-0.3,0.2-0.5c0.1-0.3,0.2-0.4,0.4-0.6c0.9-0.9,1.3-2.1,2.4-2.8  c0.6-0.3,1-0.4,1.4-0.9c0.4-0.5,0.9-0.6,1.4-0.9c0.4-0.2,1.9-2.3,2.4-1.5c0.5-0.1,1.4-0.7,1.8-1c0.3-0.2,0.7-0.6,0.9-0.9  c0.2-0.2,0.2-0.5,0.4-0.8c0.5,0.1,0.8-1,1.1-1.3c0.5-0.6,0.9-1.2,1.4-1.9c1.3-1.8,3.6-2.1,3.6-2.1l0-7.7c0.9-0.1,1.3-0.5,1.6-1.3  c0.3-0.7,0.7-1.3,1.4-1.7c0.8-0.4,1.5-0.1,2.3-0.1c1.1,0,3.2-0.3,3.5-1.8c0.1-0.6-0.3-1-0.5-1.5c-0.3-0.8,0.1-1.1,0.5-1.8  c0.4-0.8,0-1.7,0.3-2.5C93.8,51.4,94.3,50.8,94.3,50.1C94.1,49.8,94.3,50.8,94.3,50.1z"/></svg>