<svg xmlns="http://www.w3.org/2000/svg" xmlns:xlink="http://www.w3.org/1999/xlink" version="1.1" x="0px" y="0px" viewBox="-345 257 100 100" fill="#e0e0e0" style="enable-background:new -345 257 100 100;" xml:space="preserve"><path d="M-324,327.9L-324,327.9l-0.1-0.1l-0.1,0l0,0l0,0l0.1,0l0,0.1l0,0.1l0.1,0l0.1,0l0-0.1L-324,327.9L-324,327.9z M-327.8,322.5  l0-0.2l-0.1-0.2l0-0.1l0-0.1l0-0.1l0-0.1l0-0.1l0-0.1l0-0.1l0-0.1l0-0.1l0-0.1l0-0.1l0-0.1l0-0.1l-0.1-0.4l-0.1-0.1l-0.1-0.1l0-0.1  l-0.1-0.1l0,0l0,0.1l-0.2,0.4l-0.2,0.4l-0.2,0.5l-0.2,0.4l-0.1,0.2l0,0.2l0,0.1v0.2l0,0.2l0,0.1l0,0.1l-0.1,0.1l-0.1,0.1l-0.1,0.1  l-0.1,0.1l0,0l0-0.1l0-0.1l-0.1-0.1l0,0l-0.1,0.1l0,0l0,0l0,0l0,0l0,0l0,0l0,0l0,0l0,0l0,0l0,0l0,0l0,0l0,0.1l0,0l0,0l0,0l0,0l0,0.1  l0,0l0,0l0,0.1l0,0l0,0v0l0,0.1l0.1,0.2l0.1,0.2l0.1,0.3l0,0l0,0.2l-0.2,0.2l-0.1,0.3l-0.2,0.1l-0.1,0.1l-0.3,0.5l-0.3,0.3l-0.1,0  l-0.1,0l-0.1-0.2l0-0.2l0-0.1l-0.1,0l0,0.2l0,0l0.1,0.2l0.2,0.1l0.2,0l0.2-0.1l1.4-1.5l0,0l0.5-0.4v0l0.1-0.1l0.4-0.4l0.2-0.2l0-0.1  l0-0.1l0,0h0l0,0v0l0,0l0,0l0,0l-0.1,0.1l-0.1,0.1l-0.1,0.1l-0.1,0.1l-0.1,0.1l0,0l0,0l0,0l0,0l-0.1,0l-0.1,0l-0.1,0l-0.1,0l-0.1,0  l-0.1,0l0,0l0-0.1v-0.1l0-0.1v-0.1l0-0.2l0-0.1l0-0.1l0-0.1l0-0.2l0.1-0.1l0.2-0.1l0.1-0.1l0.3-0.1l0.2-0.1l0.2-0.1l0.2-0.1l0.2-0.1  l0.1-0.1l0-0.1L-327.8,322.5z M-321.5,330.9L-321.5,330.9l0.2,0l0,0l0.1,0l0.1,0h0.1l0.1,0l0.1,0l0.1,0l0.1,0h0.2l0.2,0l0.1,0l0,0  l0.1,0l0.1,0l0.1,0.1l0.1,0l0.3-0.1l0.1,0l0.1,0l0.3,0l0.2-0.1l0.1-0.2l0.1,0l0.1,0l0.1,0.1l0.2,0.1l0.1-0.1l-0.1-0.2l-0.1,0l0-0.1  l-0.1,0l-0.1-0.1l-0.2,0l-0.1-0.1l-0.1-0.1l-0.1-0.1l-0.1-0.1l-0.1-0.1l-0.1,0l-0.1-0.1l-0.1,0l-0.1-0.1l0-0.1l0-0.1l0.2-0.2  l0.1-0.1l0-0.1l0-0.1l-0.1-0.1l-0.1,0.1l0,0.1h0l-0.1,0l-0.1,0l-0.1,0l-0.1,0l-0.1,0l-0.1,0l-0.1-0.1l-0.1-0.1l-0.1-0.1l0-0.2l0,0  h-0.1l-0.1,0l-0.2,0l-0.1,0l0,0l-0.1,0l0,0l0,0l-0.1,0l-0.1,0l0,0l0,0l-0.1,0.1l-0.1,0l-0.1,0l-0.1-0.1l-0.1,0.1h-0.1l-0.1,0l-0.1,0  l-0.1,0l-0.1,0l-0.1,0l-0.1,0l-0.1,0l-0.1,0.1l0,0l-0.1,0l0,0.1l-0.1,0.1l-0.1,0l0,0.1l-0.1,0.1l-0.1,0.1l-0.1,0.1l-0.1,0.1  l-0.1,0.1l-0.1,0.1l-0.1,0l-0.1,0.1l-0.1,0.1l-0.1,0l-0.1,0.1l-0.1,0.1l0,0.1l0,0.1l0,0.1l0.1,0l0.1,0l0.1,0l0.1,0l0.1,0l0.2,0  l0.1,0l0.1,0l0.1,0l0.1,0l0.1,0l0.1,0l0.2,0h0.1l0,0.1l0.2,0l0.1,0l0.1,0L-321.5,330.9z M-331.5,324.4c0,0,0-0.1,0-0.1  c0,0,0-0.2,0-0.2c0,0,0.1-0.7,0.1-0.7s-0.1,0-0.1,0.1c0,0,0,0.2,0,0.2c0,0,0,0.2-0.1,0.3c0,0.1,0,0.4,0,0.5  C-331.6,324.5-331.5,324.5-331.5,324.4C-331.4,324.5-331.4,324.5-331.5,324.4C-331.4,324.5-331.4,324.5-331.5,324.4z M-334.8,310.9  L-334.8,310.9l-0.1,0.1l-0.1,0.1l-0.1,0.1c0,0-0.1,0.1-0.1,0.1s0,0,0,0s0.1,0,0.1-0.1c0,0,0.1-0.1,0.1-0.1c0,0,0.1-0.1,0.1-0.1  l0.1-0.1L-334.8,310.9L-334.8,310.9L-334.8,310.9z M-319.3,334L-319.3,334l0.2,0.1l0.1,0l0.1,0l0.1,0h0.1l0.1-0.1l0-0.1l0-0.1v-0.1  l0-0.1l0-0.1l0-0.1l-0.1,0l-0.1,0l-0.2,0l-0.1,0l0,0.1l-0.1,0.1l-0.1,0.1l0,0l0,0v-0.1l-0.1,0l-0.1,0l-0.1,0h-0.1l-0.1,0l-0.1,0  l-0.1,0l-0.1,0l-0.1,0.1l-0.1,0l-0.1,0.1v0.4l0,0.2l0,0l0,0.1l-0.1,0l0,0l-0.1,0h-0.1l-0.1,0l-0.1,0l-0.1,0l0,0l0,0l0,0l0,0l0,0  l-0.1,0l-0.2,0l0,0l0,0.1l0,0l0.1,0l0,0l0,0.1l0,0v0.1l0,0.1l0,0.1l0,0.1l0,0.1v0.1l0.1,0.1l0,0.2l0,0l0,0.1l0,0l0.1,0.1l0.1,0l0,0  l0-0.1l0,0v-0.1l0-0.1l0.1-0.1l0.1,0l0.1,0l0.1,0l0.1-0.1l0-0.1l0-0.1l0.2,0v-0.1l0-0.1l0.1,0h0.2l0.1,0l0.1,0.1l0.1,0l0.1,0l0.1,0  l0,0l0.1,0l0.1,0l0-0.1l0-0.1l-0.1-0.1v-0.1l0,0l0.1-0.1v-0.1l0-0.1l0-0.1l0,0L-319.3,334L-319.3,334L-319.3,334L-319.3,334z   M-315.1,326.1l-0.1,0l-0.1,0l-0.1,0h0v0l0,0l0,0.1l0.1,0l0.1,0.1l0,0.1l0,0.1l-0.1,0.1l0.1,0.1l0.1,0.1l0.2,0l0-0.2l0-0.1l0.1-0.2  l0-0.1L-315.1,326.1z M-314.7,324.3L-314.7,324.3l-0.1-0.2l-0.1-0.1l-0.1-0.1l-0.1-0.1l-0.1,0l-0.1,0l-0.1,0l-0.1,0l-0.1,0l-0.1,0  h-0.2l-0.1,0h0l-0.1,0l-0.1,0l0,0h-0.1l0,0l-0.1,0l-0.1,0.1l-0.1,0l-0.1,0l-0.1,0.1l-0.1,0l0,0l-0.1,0l-0.1,0l0,0.1l0,0.1l0,0.1  l0,0.1l0,0.1l0.1,0l0.1,0l0.1,0.1l0.1,0l0.1,0l0.1,0.1l0.2,0l0.3,0l0,0l0.1,0l0.1,0l0.1,0l0.1,0l0,0l0.1-0.1l0.1-0.1l0.1,0l0.1,0  l0,0l0.1,0l0.1,0l0.1,0l0.1,0l0.1,0l0,0l0,0L-314.7,324.3L-314.7,324.3z M-316.7,336.7L-316.7,336.7l-0.1,0h-0.1l0,0l-0.1,0l-0.1,0  l0,0l0,0h-0.1l0,0l-0.1,0l0,0l0,0l0,0h0l0,0h-0.1l0,0l-0.1,0l0,0l0,0l-0.1,0h-0.1l0,0l0,0l-0.1,0l0,0l-0.1,0h-0.3l-0.1,0l-0.1,0  l0-0.1l-0.1-0.1h-0.1l-0.1,0l-0.1,0l0,0l-0.1,0l0,0l-0.1,0.1l-0.1,0l0,0l-0.1,0l-0.1,0l0,0l0,0.1l0,0.1l-0.1,0l-0.1,0v0l0,0.1l0.1,0  l0.1,0l0.1,0l0.1,0l0,0l0,0l0,0v0.1l0,0l0,0.1l0,0.1l0.1,0.1l0,0.1l0,0.1l0,0.1l0,0.1l0.1,0.1l0,0.1l0,0.1l0,0.1l0,0.1l0.1,0.1  l0.1,0l0,0l0,0l0.1,0.1l0.1,0.1l0.1,0l0.1,0h0.1l0,0l0,0l0.1,0l0,0l0.1,0l0.1,0.1l0.1,0l0.1,0l0.1,0l0.1,0h0.1l0.1,0l0,0l0,0l0.1,0  l0.1,0v0l0-0.1l0-0.1l0-0.1l0-0.1l0,0l0-0.1l0-0.1l0-0.1l0,0l0,0l0,0v0l0-0.1l0-0.2l0-0.1l0,0l0,0l0,0l0,0l0.1,0l0,0l0,0l0,0l0,0  l0,0l0,0l0,0l0.1,0l0-0.1l0,0L-316.7,336.7L-316.7,336.7z M-314.7,325.9L-314.7,325.9L-314.7,325.9L-314.7,325.9z M-290,284.8  l0.2,0.1l0.4,0.2l0.4,0.3l0.3,0.4l0.3,0.2l0.3,0.2l0.4,0.1l0.4,0.1l0.2-0.3l0.4-0.6l0.5-0.8l0-0.1l-0.4-0.2l-0.4-0.2l-0.5-0.3  l-0.5-0.3l-0.5-0.1l-0.5,0.1l-0.4,0.2l-0.2,0.1l-0.4,0.2l-0.2,0.2v0.2l0.1,0.1L-290,284.8z M-272.5,290L-272.5,290l-0.1-0.2l0-0.2  l-0.1-0.2l-0.1,0l-0.1-0.1l-0.1,0l-0.1-0.1l-0.1,0l-0.1,0l-0.1-0.1l-0.1-0.1l-0.1-0.1l0-0.1l0-0.1l-0.1-0.1l0-0.1l0,0l-0.1-0.1  l-0.1,0l-0.1,0l-0.1,0l0,0l-0.1,0v0.1l0.1,0.1l0.1,0.1l0.1,0.1l0.1,0.1l0.1,0.1l0.1,0.1l0.1,0l0.1,0.1l0.1,0.1l0.1,0.1l0.1,0.1  l0.1,0.1l0.1,0.1l0.1,0.1l0.1,0.1l0.2,0.2l0.1,0.1h0.2v-0.1l0-0.1L-272.5,290z M-280.4,287l0.1,0.1l0.1,0.1l0.1,0l0,0.1l0.1,0.1  l0.2,0l0.1,0.1l0.1,0.1l0,0.1l0,0.1l0.1,0.1l0.1,0.1l0.1,0.2l0.1,0.2l0.2,0.1l0.1,0.1l0.2,0.1l0.2,0.1l0,0.1l0,0.1l-0.1,0.1  l-0.1,0.1v0.1l0.1,0l0.1,0l0-0.1l0.1-0.1l0.1-0.1h0.1l0.1,0.1l0.1,0.1l0.1,0.1l0.2,0.2l0.2,0.2l0.1,0.1h0.1l0.1,0l0-0.1l-0.1-0.1  l-0.1-0.2l-0.1-0.2l-0.1-0.1l-0.1-0.1l-0.1-0.2l-0.1-0.1l-0.1-0.1l-0.1-0.1l-0.1-0.1l-0.1-0.1l-0.1-0.1l-0.1-0.1l-0.1-0.2l-0.2-0.2  l-0.2-0.2l-0.2-0.1l-0.3-0.1l-0.2-0.1l0-0.1l-0.1-0.2l-0.1-0.1l-0.1-0.1l-0.2-0.1l-0.1,0L-280.4,287L-280.4,287z M-265.5,289.3  L-265.5,289.3l0.1,0.1l0.1-0.1l0.1-0.1l0.1-0.1l0-0.1l-0.1,0h-0.1l-0.1,0l-0.1,0h0l0,0l0,0L-265.5,289.3L-265.5,289.3z   M-278.1,285.7l0.1,0.1l0,0.1l0.1,0.1l0.2,0.1l0.2,0.2l0.1,0.1l0.1,0l0.1,0l0.2-0.1l0.2,0.1l0,0.1l0,0.2l0.1,0.1l0.1,0.1l0.1,0  l0.2,0l0.1,0.1l0.1,0l0.1-0.1l0.2,0.1l0.1,0.1l0.1,0l0.2,0.1l0,0l0,0l0.1,0.2l0.2,0.1l0.2,0.1l0.3,0.1l0.1,0.1l0.2,0l0.1,0l0.1,0.1  l0.1,0l0,0l0.1,0.1l0.1,0l0,0.1l0.1,0.1l0.1,0.2l0.1,0.2l0.1,0.2l0.3,0l0.1-0.1l0-0.2l-0.1-0.2l0-0.1l0-0.1l0.1-0.1l0.1,0l0.2,0.1  l0.1,0.1l-0.1,0l-0.1-0.1l-0.1,0l-0.1,0l0,0.1l0.1,0.1l0,0.1l0,0.2l0.2,0.1l0.2,0.2l0,0.1l0.1,0.1l0.1,0.2l0.1,0.2l0.1,0l0-0.1  l0-0.1l0,0l0,0.1l0,0.1h0.1l0.1-0.1l0.1-0.1l0.1-0.2l0.1-0.1l0.2-0.1l0.1,0l0,0l0-0.1l0-0.2l0-0.1l0.1,0l0,0.2l0,0.1l-0.1,0.1  l-0.1,0.1l-0.1,0l-0.1-0.1l0,0l-0.1,0.1l-0.1,0.1l0,0.1l0.1,0.2l0,0l-0.1-0.1l-0.1-0.2l0,0l-0.1,0.2l-0.1,0.2l0.1,0.1l0.1,0l0.1,0  l0.3,0l0.3,0l0.2-0.1l0.2-0.1l0.1,0l0.2-0.1l0.1-0.1l0.3,0l0.2,0l0.2-0.1l0-0.2l0.3,0l0.1,0.1l0.3-0.1l0.1-0.1l0.2-0.1l0.1-0.1  l0-0.2l-0.1-0.1l-0.2-0.1l0-0.1l0.1,0l0.1,0l0.1,0.1l0.3,0l0.1-0.1l0-0.2l0-0.1v-0.1l0.1-0.1l0.1,0.1l0.1,0.1l0.1,0l0.1-0.1l0.1-0.1  l0-0.1l0-0.1l0-0.1l0,0l0,0.1l0.1,0.1l0.1,0l0,0l0,0l0.2,0.1l0.3,0.2l0.1-0.1l0.2,0l0,0.1l0.1,0.1l0.2-0.1l0.1-0.1l0.1-0.1h0.1  l0.2,0l0.1,0l0.2-0.1l0.2,0l0.3,0l0-0.1l-0.1-0.1l-0.1,0h-0.1l-0.1-0.1l0-0.3l0.3-0.3v-0.1l-0.1-0.1l0.1-0.1l0-0.2l-0.2-0.2  l-0.2-0.1l0-0.1l-0.2-0.2l-0.1,0l-0.2,0l-0.1,0.1l-0.3-0.1h-0.2l-0.1,0.1h0l-0.1-0.1l-0.3,0.1l-0.1-0.1l-0.2,0l-0.2,0l-0.2,0.1  l-0.2-0.1l-0.2-0.1l-0.1-0.1h-0.2l-0.2,0.2l-0.1-0.1l0-0.1l-0.3-0.1l-0.3-0.1l-0.2,0l-0.1,0.1l-0.4,0.1l-0.2,0.1l-0.1,0l-0.2,0.1  l-0.1-0.1l-0.2,0.1l-0.1,0.1l-0.2,0.1l-0.2-0.1l-0.1,0l-0.2,0.1l-0.2,0h-0.1l-0.2-0.1l-0.2,0.1l-0.1,0l-0.1-0.1l-0.1-0.1l-0.2,0  l-0.1,0.1l-0.1-0.1l-0.2,0l-0.3-0.2l-0.2-0.1l-0.1-0.3l-0.1-0.2l-0.1-0.1l-0.2-0.2l-0.2-0.1l-0.2,0l-0.3,0l-0.3-0.1l-0.2-0.2l-0.4,0  l-0.2-0.2l-0.3-0.1l-0.6-0.2l-0.2-0.1l-0.2,0.1l-0.1,0.3l-0.3,0l-0.2,0.2l-0.1,0.2l-0.5,0.1l-0.1,0.1v0.2l0.1,0.1L-278.1,285.7z   M-259.6,287.5l0.1,0.1l0.2,0.1h0.3l0.2,0.1l0.1,0.1l0.3-0.1l0.3,0l0.1-0.1l0.1-0.1l0.1-0.2l0.2-0.1l0.2,0l0.2,0l0.2-0.1l0-0.1  l-0.1-0.2l-0.1-0.2l-0.1-0.2l-0.2-0.3l-0.2-0.1l-0.2-0.1l-0.2-0.1l-0.2,0l-0.1-0.2l0-0.2l-0.1-0.1l-0.1,0.2l0,0.2l-0.1,0.2l-0.1,0.1  l-0.2,0.1l-0.1,0.1l-0.1,0.2l0,0.2l-0.1,0.2l-0.1,0.1l-0.1,0.1l-0.1,0.1l0.1,0.2L-259.6,287.5z M-314.6,326l-0.1-0.1l0,0v0l0,0  L-314.6,326l0,0.1l0.1,0.1l0,0.1l0,0.2l0,0l0,0l0.1,0v-0.2l0.1-0.1l-0.1-0.1L-314.6,326z M-292.4,280l0.1,0.2l0.2,0.1l0.1,0.2l0,0.1  l0.1,0.1l0,0.1l0,0.1l0,0.1l0,0.1l0.2,0.2l0.2,0.1l0.1,0l0,0.2l0,0.1l0.1,0.1l0.1,0.1l0.1,0.1l0,0.1l0.1,0.1l0.2,0l0.1,0l0.1-0.1  l0-0.2l0-0.1l-0.1-0.2l0-0.1l-0.1-0.2l0,0l-0.1,0l-0.1-0.1l-0.1-0.1l-0.1-0.1l-0.1-0.1l-0.1,0l-0.1-0.1l0-0.1l0-0.1l-0.1-0.1  l-0.1-0.1l-0.1-0.1l-0.1-0.1l-0.1-0.1l-0.1-0.1l-0.2-0.1l-0.1,0L-292.4,280L-292.4,280z M-320.5,279.9L-320.5,279.9L-320.5,279.9  L-320.5,279.9z M-287.2,286.5l0.2,0.1l0.2,0l0.1,0l0.2,0l0.4,0.3l0.1,0l0.3,0l0.9,0.1l0.4,0l0.3-0.2l0.1-0.4l0-0.2l-0.1-0.2  l-0.2-0.2l-0.6-0.3l-0.3-0.2l-0.4-0.3l-0.4-0.2L-287.2,286.5L-287.2,286.5z M-320.5,280L-320.5,280l0.2,0.1l0.2-0.1l0.2-0.1l0.2-0.1  l0.1-0.1l0-0.1l-0.1-0.1l-0.1,0l-0.2,0l-0.2,0l-0.1,0l-0.1,0.1l-0.1,0.2L-320.5,280L-320.5,280z M-291.6,326.8L-291.6,326.8  l-0.1-0.2l-0.1-0.1l-0.2,0l-0.2,0l-0.1-0.1l-0.2,0l-0.1,0.1l0,0.1l0.1,0l0.1,0.1l0.1,0.1l0.1,0.1l0.1,0.1l0.1,0.1l0.2,0.1l0.1,0  l0,0.1l0.1,0.1l0.1-0.1l0-0.1L-291.6,326.8z M-318.7,302.6L-318.7,302.6l-0.1-0.1l-0.1-0.1l0-0.1h-0.1l-0.1,0l0,0l0,0l-0.1,0  l-0.1,0.1l-0.1,0.1l0,0l0,0.1l0,0.2l0,0.1v0l0,0.1l0.1,0.1l0.2,0l0-0.1l-0.1-0.1l0,0l0.1,0l0.1,0.1l0,0l0.2-0.1l0-0.1l0,0l0.1,0l0,0  l0,0l0,0.1l0,0.1l0.3,0.1l0.1,0l0-0.1l-0.1-0.1l-0.1-0.1l-0.1-0.2V302.6L-318.7,302.6z M-319.2,303.8l0.1,0l0.1,0l0.1,0l0.1,0  l0.1,0.1l0.1,0.1l0.1,0l0.1,0l0-0.1l0-0.1l0-0.1l0-0.2l-0.1-0.2l-0.1-0.1l-0.2-0.1l-0.1,0l-0.1,0l-0.1,0.1l-0.1,0.1l0,0.1l0,0.1  l0,0.1v0.1L-319.2,303.8L-319.2,303.8z M-255,299l-0.5-0.4l-0.5-0.4l-0.2,0l-0.4-0.3l-0.7-0.4l-0.6-0.2l-0.4-0.1l-0.4-0.1l-0.2,0.1  l-0.4,0l-0.3-0.1l-0.4-0.3l0-0.2l0.1-0.1l-0.2-0.1l-0.4,0l-0.1,0.2l-0.1,0.2l-0.5,0l-0.6-0.2l0-0.1l0-0.1l0.1-0.2l0.1-0.2l0.1-0.2  l0.3,0l0-0.2h-0.2l-0.1,0l-0.1,0l-0.1-0.2l-0.1-0.3l-0.1-0.1l-0.2-0.3l0,0l0-0.2l0-0.1l0,0l0-0.1l0-0.1l-0.1-0.1l-0.1-0.1l0-0.1  l0-0.2l0-0.1l-0.1-0.2l-0.1-0.1l-0.1-0.1l0-0.2l-0.1-0.1l-0.1-0.1l-0.1-0.1l-0.1-0.1l0-0.1l0-0.1l-0.1,0l0,0l-0.1-0.1l0,0l-0.2,0  l-0.1,0l-0.2-0.1l-0.1,0l-0.1-0.1l-0.2-0.1l-0.3-0.1l-0.1-0.1l-0.2-0.1l-0.2-0.1l-0.1-0.1l-0.1-0.1l-0.1-0.1l-0.2,0l-0.1,0l-0.1,0.1  l0,0.1l0,0l0.1,0l0.1,0l0.1,0l0,0l0,0.1l0,0l0,0.1l0.1,0l0.1,0l0.1,0l0.1,0l0.1,0l0,0l0,0l0.1,0l0,0l0,0l0,0l0.1,0l0.2,0l0.1,0.1  l0,0.1l0,0.1l0,0.1l0,0.1l0.1,0.1l0.1,0l0,0l0,0l0,0l-0.1,0l-0.1-0.1l0-0.1l0-0.1l0-0.1l-0.1,0l-0.1-0.1l-0.1,0l-0.1,0l0,0l0,0  l-0.1,0l-0.1-0.1l-0.1,0l-0.1-0.1l0-0.1l-0.1,0l-0.1,0l-0.1,0l-0.1,0l-0.1,0l-0.1-0.1l-0.1,0l-0.1,0l0,0l0,0l-0.1,0l-0.1,0l-0.1,0  l-0.1,0l-0.1,0l-0.1,0l-0.1,0l-0.1,0l-0.1,0l0,0l0,0l-0.1,0l0,0l0,0l0,0l-0.1,0l-0.1,0l-0.1,0l-0.1,0l-0.1,0l-0.1,0l0,0l0,0l-0.1,0  l-0.1,0l-0.1,0l0,0l-0.1,0l-0.1,0.1l-0.1,0.1l0,0v0l0,0l0,0l0,0l0,0l0,0v0l0,0l0,0l-0.1,0l-0.1,0l0,0l0,0l0.1,0l0,0l0,0l0,0l0.1,0  l0,0l0.1,0l0,0l0,0.1l0,0.1l0,0l0.1,0l0.1,0l0.1,0l0.1,0l0,0l-0.1,0l-0.1,0l-0.1,0l-0.1,0h0l-0.1,0l0,0l0,0l0,0l0,0l-0.1,0l0,0h0  l-0.1,0l-0.1,0l0,0l0,0l0,0l0,0l0,0l0,0l-0.1,0.1l0,0l0,0l0-0.1l-0.1,0l0,0.1l-0.2,0.1l0,0l0,0l-0.1-0.1l0,0l0.1,0.1l0,0l0,0  l-0.1,0.1l0,0l0,0l-0.1,0l0,0l0,0l0.1,0l0,0l0,0l-0.1,0.1l0,0l0,0l0,0l0,0l0,0l0,0l0.1,0.1l0,0l-0.1,0l-0.1,0l0,0l0,0l0,0l0,0l0-0.1  l0-0.1l0-0.1l0-0.1l-0.1,0l0,0l0,0l0,0.1l0,0.1l0,0l-0.1,0l-0.1,0l0,0.1l0.1,0l0.1,0l0.1,0l0,0l0,0l0,0l0,0.1l0,0l0,0l0,0l0,0.1  l0.1,0.1l0,0.1l0,0.1l0,0.1l0,0l0,0l0,0l0,0l0,0l0,0l0,0l0,0l0,0l-0.1,0.1l-0.1,0.1l-0.1,0.1l0,0.1l0,0.1l0,0.2l0,0.1l-0.1,0l0,0  l0,0l0-0.2l0-0.3l0-0.1l0.1-0.1l0.1-0.2l0-0.2l0-0.1l0,0l-0.1,0l0,0l-0.1,0l-0.1,0l-0.1,0l-0.1,0l-0.1,0l-0.1,0l-0.1,0l-0.1,0  l-0.1,0l0,0l0,0l-0.1,0l0,0l0,0l-0.1,0l-0.1,0l0,0l0,0l-0.1,0l0,0l0,0l-0.1,0l-0.2,0l-0.1,0l-0.1,0l-0.1,0l-0.1,0l0,0l0,0l-0.1,0  l-0.1,0l-0.1,0.1l-0.1,0.1l0,0.1l-0.1,0.1l0,0l0,0l-0.1,0l0.1-0.2l0-0.1l-0.1,0l-0.2,0l-0.2-0.1l-0.2-0.1l-0.2,0l-0.1,0l0,0l0,0  l-0.2-0.1l-0.2-0.1l-0.3-0.1l-0.2-0.1l-0.1-0.1l0,0l0,0l-0.1-0.1l-0.1-0.1l-0.2-0.1l-0.2-0.1l-0.2-0.1l-0.2-0.1l0,0l-0.1-0.1  l-0.2-0.1l-0.1-0.1l0-0.2l0-0.2l-0.1-0.1l-0.2-0.2l-0.1-0.2l0,0l-0.1-0.2l-0.1-0.2l-0.1-0.3l-0.2-0.1l-0.2-0.1l-0.3-0.1l-0.1,0  l-0.4,0.2l-0.6,0.3l-0.2,0.1l0,0l-0.1,0.1l0,0.1l-0.3,0.2l-0.1,0.1l-0.1,0.1l0.1,0.2l0.2,0.1l0.1,0.1v0.1l0,0v0l0-0.1l-0.1-0.2  l-0.1-0.1l-0.2-0.2l-0.2,0.2l-0.2,0.2l-0.2,0.4l-0.1,0.4l-0.2,0.3l-0.2,0.1l-0.3,0.1l0,0l0,0l-0.2,0l-0.3,0l-0.4,0l-0.3,0.1  l-0.2,0.1l0,0.2l0,0.3l0,0.2l0,0.1l-0.1,0l-0.1,0l-0.1,0.1l-0.1,0.2v0h0.2l0.1,0l0,0l0,0l0.3,0h0.1l0.1,0.2l0.2,0l0,0.1l0,0.1l0,0.1  l-0.1,0l0,0l0,0l-0.1-0.2l-0.1-0.1l-0.1-0.1l-0.1,0l-0.1,0.1l0,0.1l-0.1,0.1l-0.1,0.2l-0.1,0.1l-0.1,0.1l0,0.1l-0.1,0.1l-0.2,0.2  l-0.1,0.2l-0.1,0.2l-0.1,0.3l0,0.2l0,0.1l0,0.1l-0.1,0l-0.2,0.1l-0.2,0.2l-0.2,0.1l-0.1,0.1l-0.1,0.1l0,0.1l0,0l0,0l0,0l0,0l0-0.1  l0.1-0.2l0.2-0.1l0.2-0.2l0.2-0.2l0.1-0.2l0-0.2l0.1-0.2l0.1-0.2l0.2-0.3l0.1-0.2l0.1-0.2l0.1-0.1l0.1-0.1l0.1-0.1l0-0.1l-0.1-0.1  l-0.1,0l-0.2,0l-0.1,0l0,0l0,0l-0.1,0l0-0.1l0-0.1l-0.1-0.1l0-0.1l0.1-0.1l0,0l-0.2,0l-0.4,0.1l-0.3,0l-0.2,0v0l0,0l0-0.1l0.4-0.1  l0.9-0.1l0,0l0.2-0.2l0-0.2l0-0.2l-0.1-0.2l-0.2-0.1l0-0.2l0.1-0.1l0.1,0l0,0l0,0l0.1,0.1l0.1,0l0.1,0l0.1-0.1l0.1,0l0.1-0.1l0,0  l0,0l0.1,0l0.1,0.1l0.1,0l0.1,0h0.1l0.2,0.1l0.3,0.1l0.2,0l0.2,0l0.2-0.1l0.1-0.2l0.1-0.3l0.1-0.3l0.1-0.2l0.2-0.2l0.2-0.2l0.1-0.2  l0-0.1l0.2-0.3l0-0.2l0-0.3l0-0.1l0.1-0.1l0.1-0.1l0.1,0l0-0.1l0-0.1l0.1,0V290l-0.1,0l-0.1-0.1l-0.1,0l-0.1-0.1l0-0.1l-0.1-0.1  l-0.1,0h-0.1v0h0l0,0l-0.2-0.3l-0.2-0.2l-0.1-0.2l-0.1-0.1l-0.1-0.1l-0.1-0.2l0-0.1l0-0.1l-0.1-0.1l-0.1-0.2l-0.1-0.2l-0.1-0.3  l0-0.2l0.1-0.1l0,0l-0.1-0.1l0-0.1l0.1-0.1l0-0.2l0-0.1l-0.1-0.1l-0.1-0.1l0,0l0.1-0.1l0-0.1l0.1-0.1l0-0.1l-0.1,0l-0.1,0l-0.1,0  l-0.1,0l-0.1,0.1l-0.1,0.1l0,0l0,0l0,0l-0.1-0.1l-0.1,0l-0.1,0l-0.1,0.1l-0.1,0.1l0,0.1v0.1l-0.3,0h-0.5l-0.3,0.1l-0.3,0.1l-0.2,0.2  l-0.2,0.3l-0.1,0.3l-0.2,0.5l-0.2,0.4l-0.2,0.2l-0.1,0.1l0,0.1l0.1,0.1l0,0.1l-0.1,0.2l-0.1,0.1l-0.1,0.2l0,0.1l-0.1,0.1l-0.1,0v0  l0,0.1l0,0.1l0,0l0,0l0,0l-0.1-0.1l-0.1-0.1l-0.2,0l0,0l0,0l-0.1,0l-0.1,0l-0.1,0l-0.1,0l-0.1,0l0,0l0,0l-0.1,0l0,0.1l0,0l0.1,0  l0,0.1l0,0l-0.1,0l0,0.1l0.1,0h0.1l0,0.1l-0.1,0l0,0.1v0.6l-0.1,0l0,0l0,0l0,0.2l0,0.1l0.1,0l0.1,0l-0.1,0.1l0,0l0,0l-0.1,0l-0.1,0  l0,0l0.1,0.1l0,0.1h-0.1l0,0.1l0,0l0,0l-0.1,0l-0.1-0.1l-0.2,0.1l-0.1,0.1h-0.1l0,0l-0.2,0.1l-0.1,0.1l0,0.1l0,0.2l-0.1,0.1  l-0.1,0.1l0,0l0,0l0,0l0.1-0.1l0.1-0.2v0l0-0.1v-0.2l0.1-0.1l0.1-0.1l0.1,0l0-0.1l0.1-0.1l0.2-0.2l0.1-0.3l0-0.2l0-0.1v-0.2l0.1-0.1  l0.2-0.1l0.1-0.1l0-0.1l0-0.1l0-0.1l0-0.1l0.1-0.1l0.1,0l0.1-0.1l0-0.1l0.1-0.1l0.1-0.1l0.2-0.1l0.1-0.1l0.1,0l0.1,0l0.2-0.2  l0.1-0.1l0.1-0.2l0.3-0.3l0.1-0.1l0.1-0.2v-0.2l0-0.1l-0.1,0l-0.2,0l-0.3,0l-0.3,0l-0.3-0.1l-0.2-0.1l-0.2-0.1l-0.2-0.1l-0.2-0.1  l-0.1-0.1l-0.2,0h-0.2l-0.2,0l0,0l0,0.1l0,0.1l0,0.1l-0.1,0l0,0l0,0l-0.1-0.1l-0.1-0.1l-0.1-0.1l-0.1-0.1l0-0.1l-0.1,0.1l0,0l0,0  l-0.1-0.1l-0.2-0.1l-0.3-0.3l-0.1-0.1l0-0.1l0-0.2l-0.1-0.1h-0.1l-0.1,0.3l-0.1,0.2h-0.1l0-0.2l0.1-0.2l0-0.2l-0.2-0.2l-0.3-0.1  l-0.2,0l-0.3,0h-0.1l-0.1,0l-0.1,0l-0.2,0l-0.2,0l-0.2,0.1l-0.1,0.1l-0.1,0.1l0,0.1l-1.2-0.6l0-0.1l0-0.1l0-0.1l0-0.1l0,0l0.1-0.2  l0.1,0l0,0l0.1,0l0,0l0-0.1h0l0.1,0l0-0.2l0-0.1l-0.1,0l0-0.1l0.2,0l0-0.1h0.1l0-0.1l0.1,0l0.1-0.1l0-0.2l0.1-0.3l-0.1-0.1l0-0.1  l-0.2-0.3l-0.1-0.2l-0.1-0.1l0-0.1l-0.1,0l-0.1,0l-0.1,0l0-0.1l0-0.1l-0.1-0.1l-0.1-0.1l-0.1-0.1l-0.1,0l-0.1,0l-0.1,0l-0.1,0  l-0.1,0l0,0.1l-0.1,0v0.1l-0.1,0.1l0,0.1l-0.1,0l0,0.1l-0.1,0h-0.1l-0.1,0.1l-0.1,0l-0.1,0.1l0,0l0,0l-0.1,0l0,0l0.1-0.1l0.1-0.1  l0.1-0.1l0.1-0.1l0.1-0.1l0.1-0.1l0.1-0.1l0.1-0.1l0.1,0l0-0.1l0.1-0.1l0-0.1l-0.1-0.2l-0.1-0.2l-0.1-0.3l-0.1-0.2l-0.2-0.1l-0.1,0  l-0.2,0l-0.3,0.1l-0.2,0.1l0,0l0,0l-0.1,0l-0.1,0l0,0l0,0l-0.1,0l-0.1,0l-0.1,0l0,0l0,0l-0.1,0l-0.1,0l0,0.1l0.1,0.1l0.1,0.2l0,0.1  l0,0l0,0l-0.1-0.1l-0.1-0.1l-0.1,0l-0.1-0.1l0-0.2v-0.3l0-0.7l0-0.1l0.1,0v0l0,0l0.1,0.6l0,0.1l0,0l0.1,0.2l0.1,0l0.1,0h0.1l0.1,0  l0.1-0.2l0.2-0.1l0.1-0.1l0.1,0l0.1,0l0-0.1l0-0.2l-0.1-0.1l0,0l-0.1-0.2l-0.2-0.1l0-0.1l-0.1-0.1l-0.4-0.1l-0.2-0.1l-0.3-0.2  l-0.1-0.1l-0.4-0.4l-0.2,0l-0.2,0l0,0l0,0l-0.1,0l0-0.3l-0.2-0.2l-0.1-0.1l-0.3-0.1l-0.4-0.1l-0.5,0.9l0,0l0,0l-0.1-0.1l-0.1-0.1  l0.4-0.9l-1.4-0.8l-0.4,0.6l-0.3,0.4l0,0l0,0l-0.2-0.1l0.1-0.3l-0.1-0.1l-0.1,0l-0.1,0l0,0l0,0l-0.1,0l0-0.1l-0.1,0l-0.1,0l-0.2,0.1  l-0.1,0.1l-0.1,0.1l-0.1,0.1l-0.1,0.1l-0.3,0.1l0,0l0,0l0-0.1l0.3-0.3l0.2-0.2l0.1-0.1l0.1,0l0.1,0l0.2,0l0.1-0.1l0,0l0-0.1l0,0  l-0.1,0l-0.1-0.1l-0.2-0.1l-0.1,0l-0.1,0l-0.1,0l-0.2-0.1l-0.2,0l-0.2,0l-0.2,0l0,0l0,0l-0.2,0l-0.1,0.1l-0.2,0l-0.1,0l0,0l0,0  l-0.1,0l-0.1,0l0,0l0,0l-0.1,0l-0.2,0l-0.2,0l-0.2,0h-0.1l-0.2,0.1l-0.1,0l-0.2,0l-0.1,0l-0.2,0.1l-0.1,0l-0.1,0l-0.1,0.1l0,0.1  l-0.1,0.1l-0.1,0.1l0,0l0,0l-0.2,0h-0.1l-0.1,0.1l-0.1,0.1l-0.1,0.2l-0.2,0.1l-0.2,0.1l-0.1,0.1l-0.2,0.1l-0.1,0.1l-0.2,0.1l-0.1,0  l-0.2,0.1l-0.2,0.1l-0.2,0.2l-0.1,0.1l-0.2,0.1l-0.1,0.1l-0.1,0l-0.1,0l-0.1,0.1l-0.2,0.1l0,0l-0.1,0l-0.1,0.1l-0.1,0.1l-0.1,0.1  l0,0.1l-0.1,0.1l-0.2,0.1l0,0.1l-0.1,0.1l0,0.1l-0.1,0l-0.2,0.1l-0.2,0.1l-0.2,0.1l-0.1,0.1l-0.1,0.1v0.1l-0.1,0l0,0.1h-0.1l-0.1,0  h-0.1l-0.2,0.1l-0.1,0l0,0h0l-0.1,0l-0.1,0.1l-0.1,0l-0.1,0.1l-0.1,0l-0.1,0.1l-0.1,0.1l-0.1,0.1l-0.1,0.1l-0.1,0.1l-0.1,0.1  l-0.1,0.1l0,0.1l-0.1,0l0,0.1l0,0l0,0l0,0l0,0v0.1l0.1,0l0,0.1l0,0.1l0,0l0,0l0,0l-0.1,0l-0.1,0l0-0.1l0,0l-0.1,0l-0.1,0.1l-0.1,0  l0,0.1l0,0l0,0l-0.1,0l-0.1,0.1l-0.1,0l0,0.1l0,0l0,0.2l-0.1,0l0,0.1l-0.1,0.1v0.3l-0.1,0.1l-0.1,0.1l-0.1,0l-0.1,0.1l0,0l0,0l0-0.1  l-0.1-0.1l-0.1,0l-0.2,0l0,0l0,0l-0.2,0l-0.5,0h-0.3l-0.2,0l-0.2,0.1l-0.2,0l0,0.1l0,0.1l0,0.2l0,0l0,0l-0.1-0.2l0-0.1l-0.1-0.1  l-0.1,0l-0.1,0l-0.1,0l0,0l0,0l-0.1,0h-0.1l-0.1,0l0,0l0,0l-0.1-0.1l-0.1-0.1l-0.2-0.2l-0.2-0.1l-0.1-0.1l-0.2-0.1l-0.4,0l-0.1,0.3  l0.1,0.2l0.1,0.3l0.1,0.1l0,0.2l0.4,0.4l0.1,0.3l0.1,0.2l0.1,0.4l-0.1,0.2l-0.1,0.2l-0.2,0.2l-0.1,0.2l-0.1,0.3l-0.2,0.2l-0.2,0.3  l-0.2,0.2l-0.2,0.2l-0.1,0.1l0,0.2l0,0.1l-0.1,0.1l-0.1,0l-0.1,0.1l-0.1,0.1l-0.1,0l-0.1,0.1l-0.1,0.1l0,0l0,0l-0.1,0l-0.1,0  l-0.1,0.2l0,0.1l-0.1,0l-0.1,0l0,0l-0.1,0l0,0l-0.1,0l-0.1,0l-0.1,0l-0.1,0l0,0.2l-0.1,0l0,0.1l-0.1,0l0,0l0,0l-0.1-0.1l-0.1,0l0,0  l-0.1,0v0.1l0,0v0l-0.1,0l-0.2,0.1l-0.1,0l0,0.3l0,0.1h0.1l0.1,0l0,0.1l0,0.1l-0.1,0.1l0,0.1l0,0.1l0.1,0l0.1,0.1l0.1,0l0.1,0.1  l0.1,0.1l0.1,0.1l0.2,0.2l0.1,0l0.1,0.1l0.1,0.1l0.2,0l0.1,0.1l0.1,0l0,0.1l0,0l0,0.1v0.1l0.1,0.1l0.1,0.1l0.1,0.2l0.1,0.1l0,0.1  v0.1l0,0.1l0.1,0.1l0,0l0,0l-0.1,0.1l-0.1,0.1l-0.1,0.1l0,0.2l0,0.2l-0.1,0.1l0,0.1l-0.1,0.1v0.2l0,0v0.2l0,0v0l0,0l0-0.2l0-0.1  l0-0.1l0,0v-0.1l0-0.1l0.1-0.1l0-0.2l-0.1-0.1l0-0.3l0,0l0-0.1l0-0.1l-0.1,0l-0.1-0.1l0-0.1l0-0.1v-0.1l0-0.1l-0.1,0l0-0.1l-0.1,0  l0-0.1l0-0.1l0-0.1l-0.1-0.1l0-0.1l-0.1-0.1h-0.1l0,0l0-0.1l-0.1-0.1l-0.1,0l0,0l0,0l0,0l0-0.1l0-0.1l-0.1,0l-0.1,0l-0.1,0.1l0,0  l0,0.1l-0.1,0.1l0,0.2v0.2l0,0.2l0,0.1l0,0.1l0,0.2l-0.1,0.1l-0.1,0.1l-0.1,0l0,0.2l-0.2,0l-0.1,0l0,0.1l-0.1,0l-0.1,0l0,0l-0.1,0.1  l-0.1,0l-0.1,0.1l-0.1,0.1l-0.2,0.1l0,0l0,0l-0.1,0l-0.1,0.1l-0.1,0l0,0l0,0l-0.1-0.1l-0.1,0l0-0.2h0.1l0.1,0.1h0.1l0-0.1l0.1,0  l0.1,0l0-0.1l0-0.1l0-0.1l0.2,0l0.2-0.1l0.1-0.1l0.1-0.1l0.1-0.3v-0.1l-0.1,0.1l-0.1,0l-0.2,0l0,0l0,0l-0.2,0l-0.1-0.1l0.2,0l0,0  l0.1,0l0.1-0.1l0-0.1l0.1-0.1l0.1-0.1l0-0.2l-0.1-0.1l-0.2,0l0,0l0.2-0.1v-0.1l-0.1-0.1l0-0.1l0.2-0.1l0.1-0.1l0-0.4l-0.1-0.3l0-0.1  l-0.1-0.1l-0.1,0l-0.2,0.1l0,0.1l-0.1,0.1l0,0l0,0l0-0.2l0-0.2l-0.1-0.1l-0.1,0l-0.2,0.1h-0.1l-0.1-0.1l-0.1,0l-0.1,0.1l-0.1,0.1  l0,0l0,0l-0.2,0l-0.1,0l0,0l0,0l-0.1,0l0-0.1l0-0.1v-0.3l-0.1,0v-0.2l0.1-0.1l0,0l-0.1-0.1l-0.1-0.1h-0.1l-0.1,0.1l-0.2,0.1  l-0.1,0.1l-0.2,0.1v0.1l-0.1,0l-0.1,0.2l-0.1,0l-0.1,0.1v0l0,0v-0.1h-0.1l-0.1-0.1l0,0l0,0l0.1,0l0.1,0l0.1,0l0.1-0.2l0.1-0.1l0,0  l0,0l0.1,0l0.1-0.1h0.1l0.1-0.1l0.1-0.1l0.1-0.1l0.1-0.1l0.1-0.1h0.1l0.1,0l0.1,0.1l0.1,0.1l0.2,0.2l0.2,0.2l0.1,0.1l0.1,0l0.2,0  l0.1,0l0,0l0,0l0.1,0h0.2l0.6,0l0-0.2l0.1-0.1l0,0l0,0l0.1,0l0.1,0.1l0-0.1l0-0.1l0-0.1l0.1-0.1l0.1-0.1l0.1,0l0.1-0.1l0.1,0l0,0  l0.1-0.1l0.2-0.2l0.1,0l0.1-0.1l0.2-0.2l0.2-0.2l0.1-0.2l0-0.2l0-0.1v-0.1l0.1-0.1l0,0l0,0l0.1,0.1h0l0.1-0.1l0.1-0.1l0,0l0,0l0.1,0  h0.1l0.1,0l0-0.1l0.1-0.1h0.1l0.1-0.1l-0.1-0.1v-0.1l0.1-0.1l0,0l0,0l0.1,0l0.1,0.1l0.1-0.3l-0.1-0.1l-0.3-0.1l-0.1,0.1l-0.1,0l0,0  l0,0l-0.1-0.1l0-0.2l0-0.2l0.1-0.2l0-0.2l-0.1-0.1l-0.2-0.1l0-0.1l0.1,0l0.2-0.1l0-0.1l-0.2-0.1l0.1-0.1l0-0.1l0-0.1l-0.1-0.1  l-0.2-0.1l-0.1-0.1l0.1-0.2v-0.2l0-0.4l0.1-0.1l0.2-0.1l0-0.1l-0.1-0.2l-0.1-0.1l-0.2-0.1l-0.1-0.1l-0.1-0.1l-0.1-0.1l0,0l-0.1-0.1  l-0.1-0.1l-0.1-0.1l-0.1-0.1l-0.1-0.1l-0.1-0.1l0,0l0,0l0-0.2l-0.1,0l-0.1,0l-0.1,0.2l-0.1,0.2l-0.1,0.2v0.2l0,0l0,0l0,0.3l0,0.2  l-0.1,0.1l-0.1,0l0,0l0,0l0-0.1l0.1-0.1l0-0.1l-0.1-0.1l-0.1,0l-0.1,0l-0.1,0.1l-0.1,0.1l-0.1,0.2l0,0.1l-0.1,0.1l-0.2,0.1l-0.1,0.1  l-0.1,0.1l-0.1,0l0,0l0,0l-0.1-0.1h-0.2l-0.1,0.1l0,0.1l0.2,0l0.1,0.1l0.1,0.1l0,0.2l-0.1,0.2l-0.1,0.1l0,0l0,0l0-0.1l0-0.1l0.1-0.2  l-0.1-0.1l-0.1-0.1l0-0.1l0.1-0.1l0.1,0l0.2,0l0.3-0.1l0.2-0.1l0.2-0.2l0-0.2l0.1-0.2l0.2-0.1l0.2-0.1l0,0l0.1-0.1l0-0.1l0.1,0  l0-0.1l0.1-0.1l0.1-0.1l0.2-0.4l-0.1-0.1l-0.1,0l-0.1,0.1l-0.2,0.1l-0.2,0.1l-0.2,0.1l0,0l0,0l-0.2,0l-0.1,0l0-0.1l0.1-0.2l0-0.2  l-0.1-0.1l-0.2,0l-0.1,0l-0.2,0.1l-0.2,0l-0.2,0.1l-0.3,0l-0.3,0.1l-0.2,0l-0.2,0.1l-0.2,0.1l-0.2,0.2l-0.2,0.2l-0.2,0.2l-0.3,0.1  l-0.1,0l-0.6,0.4v0.2l-0.1,0l0,0l0,0l0,0l-0.1,0.1l0,0l-0.1,0.1l-0.1,0.2l-0.2,0.1l-0.1,0.1l-0.1,0.1l-0.1,0.1l-0.1,0.1l-0.2,0.1  l-0.2,0.2l-0.2,0.2l-0.2,0.2l-0.3,0.2l-0.2,0.1l-0.4,0.1l-0.1,0.1l-0.2,0h-0.1l-0.1-0.1l-0.2,0l-0.1,0.1l-0.2,0.1l-0.2,0.2l0,0.3  l-0.1,0l0,0l0,0l-0.1-0.1l-0.1,0l-0.3,0l-0.2,0.2l-0.1,0.1l-0.1,0.1l-0.2,0.1l-0.3,0l0,0l0,0l-0.1,0l-0.1,0l-0.1,0l-0.2,0.1  l-0.1,0.2l0,0.2l0,0.1l-0.2,0.1h0l-0.2,0l-0.1,0.1l0,0.1l0,0l0,0.2l0,0.1l0,0.1l0.2,0.3l0.2,0l0,0.2l0,0l0,0l-0.1-0.1l-0.1,0  l-0.2,0.1l0,0.1l0.1,0l0.1,0l-0.1,0.1l-0.1,0.1l-0.1,0.1l-0.1,0.2l0,0.2l0.1,0.1l0,0.1l0,0l0.1,0.1l-0.1,0.1l-0.1,0l0,0l0,0l-0.1,0  l-0.1,0.1l0,0l-0.1,0.1l0,0.1l0,0.1l0,0.1l0,0.1l0,0.1l-0.1,0l-0.1,0.1l-0.1,0.1l-0.1,0.1v0.1l0,0.1l-0.1,0.1l0,0l0,0l0,0l0-0.1  l0-0.1l-0.1-0.1l-0.1,0l-0.1,0l-0.1,0l-0.1,0.1l-0.1,0.1l0,0.1l0,0.1l0,0.1l-0.1,0.1l-0.1,0.1l0,0l0,0l-0.1,0l-0.1,0.1l0,0.2  l0.1,0.1l0,0.1l0,0.1l0,0.1l0,0.1l0,0.1l-0.1,0.2l0,0l-0.1,0.1l0,0.1l0,0.1l0,0.1l0,0.1l0.1,0.1l0,0.1l0,0.1l0,0.1l0,0.1l0,0.1  l0,0.1l0,0l0,0l0.1,0.1l0,0.2l-0.1,0.1l0,0.1l-0.1,0l-0.1,0.1l0,0.1l0,0.1l0,0.2l0,0l0,0l0,0.1l-0.1,0.1l-0.1,0.1l0,0.1l0,0.1l0,0  l0,0.1l0,0.1l-0.1,0.1l-0.1,0.1l-0.1,0l0,0l-0.1,0.1l-0.1,0.2l0,0.1l0.1,0.1l-0.1,0.3l-0.1,0.3l-0.1,0.1l-0.1,0.2l-0.1,0.2l0,0.1  l-0.1,0.2l-0.2,0.2l-0.1,0.1l0,0.1l0.1,0.2l-0.1,0l0,0l0,0l-0.1-0.1l-0.2-0.1l-0.1,0l0,0.1l0.2,0.1l-0.1,0.1l-0.3,0.1l-0.1,0.1  l0,0.2l0.1,0.1l0,0l-0.1,0.2l-0.7,1.2l0,0.1l-0.1,0.1l-0.1,0.2l-0.1,0.1l0,0.1l-0.1,0.1l0,0.1l0,0.1l-0.1,0.1l-0.1,0.1l-0.1,0.1  l-0.1,0.1l-0.2,0.2l-0.1,0.1l0,0.1l-0.1,0.2l0,0.1l-0.1,0.2l-0.1,0.2l-0.1,0.2l-0.1,0.2l0,0.1h0l0-0.1l0-0.1l-0.1-0.1l-0.1,0l-0.1,0  l-0.1,0.1l-0.2,0.1l-0.1,0.2l-0.1,0.2l0,0.2l0.1,0.2l0.2,0.2l0.1,0l0.2-0.1l0,0l0,0l-0.1,0.3l-0.1,0.2l-0.1,0.1l-0.2,0.2l0,0.1  l0,0.1l0.1,0.1l-0.1,0.3l-0.1,0.3l0,0.2l-0.1,0.2l-0.2,0.2l-1,2.9l-1.2,3.4l-0.7,1.6l-0.1,0.2l-0.1,0.3l0.2,0.4l0.3,0.6l0.2,0.4  l0.1,0.2l0,0l0.1,0.2l0,0.2l-0.1,0l-0.3,0.3l0,0l0.3-0.3l0,0l-0.3,0.3l-0.1,0.7l-0.1,0.3l-0.2,0.5l0,0.1c0,0,0,0,0,0  c0,0-0.1,0-0.1,0c0,0-0.3-0.1-0.3-0.1l0,0l0.1,0l0-0.1h-0.1l0,0.1l-0.1,0l-0.1,0l-0.1,0l-0.1,0l0,0l0,0c0,0,0,0,0,0.1  c0,0,0.1,0.1,0.1,0.1c0,0,0.1,0,0.1,0c0,0,0.1,0,0.1,0c0,0,0,0.2,0,0.3c0,0.1,0,0.2,0.1,0.2c0,0,0.1,0,0.1,0c0,0,0.1,0,0.1,0  s0.1,0.1,0.1,0.1c0,0,0,0.2,0,0.3c0,0.2,0,0.3,0,0.3l0,0.1l-0.1,0.1h-0.5l0-0.2l-0.1,0l0,0.2l-0.2,0l0-0.1l-0.5,0l-0.1-0.1l-0.1,0.1  l0,0.1l-0.5,1.2c0,0,0,0.1,0,0.1c0,0,0,0.1,0.1,0.1c0,0,0.1,0,0.1,0l0,0l0,0l0-0.1l0.1-0.1l0-0.1l0-0.1h0.1l0-0.1h-0.1l0-0.2  l0.2-0.2l0.1-0.4h0.7c0,0,0.2,0.1,0.2,0.1c0.1,0,0.4,0,0.5,0c0.1,0,0.2,0,0.3,0c0,0,0.2,0.1,0.2,0.3c0,0,0,0,0,0.1  c0,0.3,0,0.3,0,0.3l0,0.4c0,0,0,0.1,0,0.1c0,0.1-0.1,0.3-0.2,0.4c-0.2,0.1-0.2,0.1-0.2,0.1s-0.1,0-0.2,0.1c0,0,0,0.1,0,0.1  c0,0.2,0,0.3,0,0.3l0,0.1h-0.1l-0.2,0.2l-0.3,0l0,0l0,0l0,0.4c0,0,0,0.1,0,0.1c0,0-0.1,0.1-0.2,0.1c-0.1,0-0.2,0-0.2,0.1  c0,0,0,0.1,0,0.1c0,0,0,0.1,0,0.2c0,0,0,0.1,0,0.2c0,0.2,0,0.5,0,0.5s0,0.1,0,0.1c0,0,0.1,0,0.2,0c0.1,0,0.1,0,0.1-0.1  c0,0,0-0.1,0.1-0.1c0,0,0.1,0,0.1,0c0,0,0-0.1,0-0.1c0,0,0.2-0.1,0.3,0c0.1,0,0.5,0.3,0.5,0.4l0.1,0l0.3,0.5c0,0,0,0.1,0,0.2  c0,0.1-0.2,0.3-0.3,0.3c0,0-0.2,0.1-0.2,0.1l-0.2,0.1l-0.2,0l-0.3,0l-0.2,0.1l-0.1,0l-0.1,0c0,0,0-0.1,0-0.1c0,0-0.1,0-0.1,0.1  c0,0,0,0.4,0,0.5c0,0.1,0,0.2,0,0.2c0,0,0.1,0,0.1,0c0,0,0-0.1,0-0.1l-0.1,0l0-0.1c0,0,0,0,0.1-0.1c0,0,0.4-0.1,0.4-0.1l0.2,0l0.2,0  l0.2,0l0.1,0.1c0,0,0,0.1,0,0.1c0,0,0.1,0.2,0.1,0.2c0,0.1,0.3,0.6,0.3,0.6c0,0.1,0,0.2,0,0.2c0,0-0.1,0.2-0.2,0.2  c-0.1,0-1.4,0.5-1.4,0.5s-0.2,0-0.2,0.2c-0.1,0.2,0,0.1-0.1,0.2c0,0.1,0,1,0,1s0,0.1-0.1,0.2c0,0,0,0,0,0c-0.1,0-0.2,0-0.3,0  c-0.1,0-0.3-0.2-0.3-0.5c0-0.3,0-0.4,0-0.4l0,0l0-0.1l-0.2-0.1v0.6c0,0,0,0.3,0.3,0.5c0.2,0.2,0.3,0.2,0.6,0.3c0,0,0,0,0,0  c0.4,0.1,3.1,0.8,3.1,0.8l0-0.1l0-0.1c0,0-2.8-0.7-2.8-0.8c0,0-0.1,0-0.1-0.2c0-0.2,0.1-0.4,0.1-0.4l0.1-0.1l0.9,0.1l0.1-0.2l0-0.4  l0.3-0.5l0.3-0.1l0.1-0.2c0-0.1-0.2-0.6-0.2-0.7c0-0.1-0.1-0.2-0.2-0.3c0-0.1,0-0.1,0-0.2s-0.1-0.1-0.1-0.1c0,0,0,0,0-0.1  c0-0.1,0.1-0.1,0.1-0.2c0.1,0,0.3,0,0.4,0c0.1,0,0.2-0.1,0.3-0.2s0-0.3,0-0.3s-1.2-2.6-1.3-2.6c0-0.1,0-0.3,0-0.4  c0-0.1,0.1-0.2,0.1-0.2l2.7-1.3c0,0,0.1-0.1,0.1-0.2s0,0,0,0l-0.1,0.1c0,0-1.4,0.7-1.5,0.7s0,0-0.1,0c0,0,0-0.1,0-0.1  s0.1-0.6,0.1-0.7c0,0,0.1-0.1,0.1-0.1l3.4-1.6c0,0,0,0,0.1,0c0.1,0,0.1,0,0.1,0l-0.1,0.8l-1.1,0.5l-0.2,0l0,0.1l0.3,0l1.2-0.5  l0.1-2.2l-0.2-0.1l-0.1-0.2l-0.1,0l-0.2-0.1l0.1-0.3l0.3,0l0.1,0l0.2,0l0,0l0,0.1l0.1,0l0-0.1v0l0.7,0.1l0.1,0h0.1l0.2,0l0.2-0.1  l0.1-0.1l0,0l0.3-0.3l0,0l0,0l0-0.1l0-0.1l0-0.1l0-0.1l0,0l0-0.4l-0.4-0.7l-0.5-1l-0.5-0.9l0-0.1l0,0l0,0l0,0l0-0.1l0-0.1l0-0.1l0,0  l0,0l0,0l0-0.1l0-0.1l0,0l0-0.1l0-0.1l0-0.1l0-0.1l0,0l-0.1,0l0,0l0-0.1l0,0l0,0l0-0.1l0,0l0-0.1l0,0l0,0l0,0l0-0.1l0-0.1l0,0l0-0.1  l-0.1-0.1l0,0l0,0l0-0.1l-0.1-0.1l0,0l0,0l0-0.1l0,0l0-0.1l0-0.1l-0.1-0.1l-0.1-0.1l-0.1-0.1l-0.1-0.1l-0.2-0.2l0.2-0.4l0.4-0.5  l0.1-0.1l0,0l0,0l0.3,0.3l-0.2,0.3l0.4,0.4l0.3-0.3l0,0l0,0l0.1,0.1l0.2,0.1l0.1,0.1l0.1,0l0.1,0l0.1-0.1l0.2-0.2l0.2-0.2l0.2-0.2  l0.2-0.2l0.1-0.1l0,0l0,0l0,0l0,0l0.1,0.1l0,0l-0.1-0.1l0.1-0.1l0,0l0.1-0.1l0,0l0.1,0l0,0l0,0l0,0l0.1,0l0,0l0,0l0,0l0,0l0,0l0,0  l0.1-0.1l0,0l0,0l0.1,0.1l-0.1,0.1l0,0l0,0l0,0l0,0l0,0l0,0l0.1,0l0,0l0,0l0.1,0.1l0,0l0,0.1l-0.1,0.1l-0.4,0.4l0,0.1l-0.1,0.1  l-0.1,0.1l-0.1,0.1l0,0.1l-0.1,0.1l0,0l-0.1,0l-0.1,0.1l-0.1,0.1l0,0.1l0,0.1l0.1,0.1l0.1,0.1l0.2,0.2l0,0.1l0.1,0.1l0.2,0.2  l0.2-0.2v0l0.2-0.2l0.2-0.2l0.1-0.1l0,0l0-0.1l0.1-0.1l0.1-0.1l0-0.1l0.1,0l0,0l0,0l0.1,0l0.1-0.1l0.1-0.1l0-0.1l0.1,0l0,0l0,0  l0.1,0l0,0.1l0,0.1l0.1,0.1l-0.1,0.1l-0.1,0l-0.2,0.2l-0.1,0l-0.1,0.1l-0.1,0.1l0,0.1l0,0l-0.1,0.1l-0.1,0l0,0l0,0l-0.1-0.1l0,0  l0.1,0.1l0,0.1l0,0.1l-0.1,0.1l-0.1,0.1l-0.1,0.2l0,0.1l-0.2,0.2l-0.2,0.2l0.2,0.2l0.5-0.4l0,0l0,0l0.1,0.1l-0.5,0.4l0.1,0.1l0,0  l0.4-0.3l0,0l0,0l0.2,0.2l0.1,0.1l0.1,0.1l0.1,0l0,0l0,0l0.1,0l0.2,0.2l-0.5,0.4l0,0l0.2-0.2l0,0l0,0l0.1,0.1l0.3-0.3l0,0l0,0  l0.2,0.2l-0.1,0.1v0l0,0.1l0.4,0.2l0.2,0.1l0.2,0.1l0.1,0.1l0,0.1l0.1,0l0,0l0,0l0,0l0.1,0l0,0l-0.1,0l0,0l0,0l0,0l0.1,0.1l0,0  l0.1,0l0,0l0,0l0,0l0,0l0,0l0,0l0,0.1l0,0.1l0,0l-0.4,0.2l-0.1,0.1l-0.1,0l-0.1,0l0,0l0,0v0l0,0l0,0l0,0l0,0l0,0l0,0l0.1,0l0.1,0  l0,0l0.2-0.1l0.4-0.2l0,0l0,0l0,0l-0.1,0.1l0.1,0.1l0,0l0,0l0.1,0.2l0.2-0.2l0.1-0.1l0.1-0.1l0.1-0.1l0.2-0.2l0.1-0.1l0.1-0.1  l0.1-0.1l0.1-0.1l0.1-0.2l0.1-0.1l0.1-0.1l0-0.1l-0.1-0.1l-0.1-0.1l-0.1-0.1l-0.1-0.2l-0.1-0.1l0,0l0,0l0,0l0,0l0,0l0,0l0,0l0,0  l-0.1-0.1l0,0l0,0l0,0l0,0l0,0l0,0l0,0l-0.1-0.1l0,0l0,0l0-0.1l0,0l0,0h0l-0.1-0.1l-0.1-0.1l0,0l0,0l0,0l0-0.1l0,0l-0.1,0v0l0,0v0  h0.1l0,0l0,0l0-0.1l0,0h0v0l0,0l0,0l0-0.1l0,0l0-0.1l0,0l0,0v0h0l0-0.1l0-0.1v0l0,0l0.1,0l0,0l0.1,0l0,0l0,0l0,0l0,0l0-0.1l0,0l0,0  l0,0l0,0l0,0l0,0v0l0,0l0,0l0.1,0l0-0.1l0-0.1l0,0l0,0l0,0l0.1,0l0.1,0l0.2,0l0.1,0l0.1,0l0.1,0l0.1,0v0l0,0l0,0.2l0,0l0,0.1l0,0  l0,0l0,0.1l0,0.1l0,0.1v0.1l0,0.1l0,0.1l0,0.1l0,0l0,0.1l0,0l0.1,0.1l0,0l0.1,0.1l0.1,0.1l0,0l0,0l0,0l0,0l0,0l0,0l0,0l0,0l0,0  l0.1,0.1l0.1,0.1l0,0l0,0l0,0l0,0l0,0l0.1,0.1l0,0l0,0l0,0.1l0.1,0.1l0.1,0.1l0,0l0,0l0,0l0,0l0,0l0,0l0,0l0,0l0,0l0.1-0.1l0.1-0.1  l0,0l0,0l0,0l0,0l0,0l0,0.1l0.1,0l0.1,0l0,0l0,0l0.1-0.1l0.1,0l0,0l0,0l0,0l0,0l0,0v0l0-0.1l0-0.1l0-0.1l0-0.1l0-0.1l0-0.1l0,0  l0-0.1l0-0.1l0-0.1l0,0l0-0.1l0,0l0,0l0-0.1l0,0l0,0l0,0l0-0.1l0,0l0-0.1l0-0.1l0-0.1l0-0.1l0-0.1l0,0l0-0.1l0-0.1l0,0l0,0l-0.1,0  l0,0l0,0l0,0l0,0v-0.1l0,0l0,0l0,0l0,0l0,0l0,0l0,0l0,0l0,0l0,0l0,0l0.1,0l0-0.1l0,0l0,0l0,0l0,0l0,0.1l0.2,0.1l0,0.1l0,0.1l0,0l0,0  l0,0l0,0l0,0h0l0,0l0,0l0,0l0,0l0,0l0,0l0,0l0,0l0,0.1l0,0l0,0l0,0l0,0.1l0,0l0,0l0,0l0,0l0,0l0,0l0,0l0,0l0,0l0,0l0,0l0,0l0,0l0,0  l0,0l0,0l0,0l0,0.1l0,0l0,0.1l0,0l0,0l0,0v0.1l0,0l0,0.1l0,0l0,0l0,0l0,0l0,0l0,0l0,0.1l0,0.1l0,0l0,0l0,0l0,0l0,0l0,0l0,0l0,0l0,0  l0,0l0,0l0,0l0,0l0,0l0.1,0l0.2,0l0.2,0l0.2,0l0.1,0l0,0l0,0h0l0.1,0h0.1l0,0l0,0l0,0l0.1,0l0.1,0l0,0h0.1l0.1,0l0.1,0l0.1,0l0.1,0  l0.1,0l0.2,0l0.1,0l0,0l0-0.1l0-0.1l0-0.1v0l0-0.1l0-0.6l0,0l-0.1,0l0.1,0l0,0l0-0.1v0l0,0v0l0.1,0l0.1-0.1l0.2-0.1h0.2l0.2-0.1  l0.1-0.1l0.1,0l0,0l0,0l0,0.1l-0.1,0.1l0,0.1l0.1,0l0,0l-0.1,0l0,0l0.1,0.1l0.1,0.1l0.1,0.1l0.1,0.1l0.1,0l0-0.1l0,0l0,0l0,0l0,0.1  l0,0.1l0.2,0.1l0.1,0h0l0.2,0l0,0.4l1.2,0l0-1.2h0.2l0.1-0.1l0,0l0.2-0.1l0,0l0,0l0.1,0.1l0,0.1v0l0,0.8v0.9l0,0.4l0,0l0,0.1l0,0  l0,0.3v0.5l0,0.2l-0.2,0h-0.1l-0.1-0.1l-0.1,0l0-0.1l0,0l0,0l0,0l0,0l0,0l0,0l0,0l0,0l-0.1,0l0,0l0,0l0,0l0,0l0,0l0,0l0,0l0,0l0,0  l0,0l0,0l0,0l0,0l0,0l0,0l0,0l0,0l0,0l0,0l0,0l0,0l0,0l0,0l0,0l0,0l0,0l0,0l-0.1,0l0,0l0,0l-0.1,0l-0.1,0.1l0,0l0,0v0l0,0l0,0l0,0  l0,0l0,0l0,0l0,0l0.1,0.1l0,0l0,0l0,0l0,0l0,0l0.1,0l0.1,0l0,0l0,0.1l0,0.1l0,0l0,0.1l0,0.1l0,0.1l0,0l0,0l0,0l0,0l0,0l0,0l0,0l0,0  l0,0l0,0h0l0,0l0,0l0,0l0,0l0,0.1l0,0.1l0,0l0,0l0,0l0,0v0.1l0,0.1l0,0.1l0.1,0.1l0,0.1l0,0.1l0.1,0.1l0.1,0l0,0l0.1,0l0,0l0,0l0,0  l0,0l0,0l0,0l0,0l0,0l0,0l0,0l0,0l0,0l0.1,0.1l0,0l0,0l0,0v0l0,0l0,0l0,0l0,0l0,0.1l-0.1,0.1l-0.1,0l-0.1,0.1l-0.1,0.1l-0.1,0.1l0,0  l0,0l0,0l0,0v0l0,0h0l0,0l0,0l0,0l0,0l-0.1,0l0,0l0,0l0,0l-0.1,0l-0.1-0.1l0-0.1l-0.1,0l-0.1,0l0-0.1l-0.1,0l0,0l-0.1-0.1l0-0.1  l0-0.1l0-0.1l0-0.1l0-0.1l0-0.1l0-0.1l0-0.1l0-0.1l0-0.1l-0.1-0.1l-0.1-0.1l-0.1-0.1l0-0.1l0-0.1l-0.1-0.1l-0.1,0l-0.1-0.1l0,0l0,0  l0,0l0,0l-0.1,0.1l0,0v0l-0.1,0l-0.1,0.1l-0.1,0l-0.1,0l0,0.1l-0.1,0l-0.1,0l-0.1,0l-0.1,0.1l0,0l0,0.1l0.1,0.1l0,0.1l0,0l-0.2,0.2  l0,0.1l0.1,0.1l-0.1,0.1l-0.1,0.1l0,0.1l-0.1,0.1l-0.1,0l0,0.3l0,0l-0.1,0.1l0,0l0,0l0,0l0,0l-0.1-0.1l-0.2-0.2l0-0.1l0.1,0l0,0  l-0.1-0.1l0,0l-0.1,0l-0.1,0l0,0l-0.1,0.1l-0.1,0.1l0,0.1l0,0.1l-0.1,0l-0.2,0.3l-0.2,0.2l0,0l0,0l0,0l-0.2-0.2l-0.1-0.1l-0.2-0.2  l-0.4-0.3l0.3-0.2l0.1-0.1l0.3-0.2l0.3-0.3l0.1-0.1l0.1-0.1l0.3-0.3l0-0.2l0-0.2l0-0.1l0.1-0.1l0.5-0.5l0.3-0.3l0,0l0,0l-0.1,0  l-0.1,0h-0.1l-0.1,0l-0.2,0h-0.1l-0.1,0h0l-0.1,0l-0.1,0l-0.2,0l-0.1,0l-0.1,0h-0.1l-0.1,0l-0.1,0l-0.1,0l0,0l0,0l-0.1,0l-0.1,0  l-0.1,0l-0.1,0l-0.1,0l-0.1,0l0,0l-0.1,0.1l-0.1,0l-0.1,0l-0.1,0.1l-0.1,0.1l-0.1,0l-0.1,0.1l-0.2,0.1l-0.2,0.1l-0.1,0.1l-0.2,0.1  l-0.1,0.1l-0.1,0l-0.1,0.1l-0.1,0.1l-0.1,0.1l-0.1,0.1l-0.1,0l-0.1,0l0,0l-0.1,0.1l-0.1,0.1l-0.1,0l-0.3,0.2l-0.1,0.1l-0.1,0.1  l-0.1,0.1l-0.1,0.1l-0.1,0.1l-0.1,0.1l-0.2,0.1l-0.1,0.1l-0.2,0.1l-0.1,0.1l-0.2,0.2l-0.4,0.3l-0.2,0.1l-0.1,0.1l-0.2,0.1l-0.1,0.1  l-0.2,0.1l-0.2,0.1l-0.1,0.1l-0.1,0l0,0l0,0l0,0l0,0l0,0v0l0,0.1l0,0.1l0,0.1l0,0.1l0,0.1l0,0.1l0,0l-0.1,0l0,0l0,0l0,0.1l0,0.1  l0,0.1l0,0.1l0,0l0,0.1l0,0.1l0,0.1l0,0.1l0,0.1l0,0l0,0.1l0.1,0l0,0.1l0,0l0,0l0,0.1l0,0.1l0,0.1l0,0.1l0.1,0.1l0.1,0l0,0l0,0  l0.1,0l0.1,0l0.1,0l0,0l0.1,0l0.1,0l0,0l0,0.1l0,0.1l0,0.1l0,0.1l0,0.1l0,0.1l0,0l0,0l0,0l0,0l0,0l-0.1,0l0,0.1l0,0l0,0l0,0l0,0l0,0  l0,0l0,0l0.1,0l0,0l0.1,0l0.1,0.1l0.1,0.1l0,0.1l0,0.1l0.1,0.1l0.1,0.1l0,0l0,0.1l0,0.1l0,0l0,0.1l0,0.1l0,0l0,0l0.1,0.1l0.1,0.1  l0.1,0.1l0,0.1l0,0.1l0,0.1l0,0l0,0.1l0,0l0,0.1l0,0.1l0,0.1l0,0.1l0,0l0.1,0l0,0.1l0,0.1l0,0.1l0,0l0,0l0,0l0,0l0.1,0.1l0.1,0l0,0  l0,0l0.1,0l0.1,0l0.1,0l0.1,0l0.1,0.1l0.1,0.1l0,0l0,0l0.1,0l0,0l0,0l0.1,0l0.1,0l0.1,0l0.1,0l0.1,0l0.1,0l0.1,0l0,0l0.1,0l0.1,0  l0,0l0,0l0.2,0l0.1,0l0.1,0l0,0l0,0l0,0l0.1,0l0,0l-0.1,0l0,0l0,0l0,0l0,0l0,0l0,0l0,0.1l0,0l0.1,0l0-0.1l0,0l0,0l0,0l0,0l0,0.1l0,0  l0,0l0-0.1l0,0l0-0.1l0-0.1l0,0v0l0,0l0-0.1l0-0.1l0,0l0,0l0.1-0.1l0,0l0-0.1l0-0.1l0,0l0,0l0-0.1l0,0l0,0l0,0l0-0.1l0-0.1l0,0  l0-0.1l0,0l0-0.1l0-0.1l0.1,0l0.1,0l0,0l0,0l0,0l0,0l0.1,0l0,0l0-0.1l0-0.1l0,0l0-0.1l0-0.1l0-0.1l0.1-0.1l0-0.1l0-0.1l0-0.1  l0.1-0.1l0.1-0.2l0.1-0.1l0-0.1l0.1-0.1l0.1-0.1l0,0l0,0l0,0l0,0l0-0.1l-0.1,0l-0.1-0.1l-0.2-0.2l-0.4-0.3l-0.1-0.1l0.6-0.6l0.4-0.4  l0.1-0.1l0,0l0,0l0.1,0.1l0.1,0l0,0v0l0.1,0l0,0l0,0l0,0l0,0l0,0l0.1,0l0.1,0.1l0.1,0.1l0.1,0.1l0,0h0l0.1-0.2l0,0l0,0l0,0l0.1,0  l0.1,0l0,0l-0.1,0.1l0,0l0.1,0h0.1l0.2,0l0.2,0l0.1,0l0-0.1l0-0.1l0,0v0l0.1,0v0l0,0l0,0l0.1,0l0,0.1l0,0.1l0,0.2l0,0.2v0.1l0,0.1  l0,0.1l0,0l0,0l0,0l0,0l0,0l0.1,0l0,0l0,0.1l0.1,0.2l0.1,0.4l0.1,0.2l0.1,0.3l0.1,0.2l0.1,0.3l0.1,0.1l0,0l0.2-0.1l0.2-0.1l0.2-0.1  l0.1-0.1l0.1,0l0.2-0.1l0.2-0.1l0.2-0.1l0.2-0.1l0.2-0.1l0.1,0l0.1,0l0.1,0l0.1,0l0.1,0l0,0l0.1,0l0.1,0l0.2-0.1l0.2-0.1l0.1,0  l0.1,0l0.2-0.1l0.1-0.1l0.2-0.1l0.2-0.1l0,0l0-0.1l0,0l0,0l0-0.1l0,0l0,0l-0.1,0l0,0l-0.1,0l-0.1-0.1l-0.2-0.1l-0.3-0.2l-0.2-0.1  l-0.4-0.2l-0.2-0.1l-0.3-0.2l0-0.1l0-0.1l0-0.1l0-0.1l0,0l0,0l0-0.1l0.1-0.1l0.1-0.1l0,0l0,0l0.1,0l0.1,0l0.1,0l0.1,0l0.1,0.1l0,0  l0,0l0,0l0-0.1l0.1-0.2l0.1-0.2l0,0l0,0l0.1,0l0,0.1l0,0.1l0,0l0,0l0,0.1l0,0.1l0,0.1l0,0l0,0l0.1,0l0.1,0l0.1,0.1l0.1,0.1l0.1,0.1  l0.2,0.1l0.1,0.1l0.1,0.1l0.1,0.1l0.2,0.1l0.1,0.1l0.1,0.1l0.1,0l0.1,0.1l0,0l0,0l0,0l0.1,0.1l0.1,0l0.1,0l0.1,0l0.1,0l0,0l0,0l0,0  l0,0l0,0l0.1,0l0,0l0.1,0l0,0l0,0l0,0l0.1-0.1l0.1-0.1l0,0l0,0l0.1-0.1l0.1-0.1l0.1-0.1l0,0l0,0l0,0l0,0l0,0l0,0l0,0l0-0.1l0,0l0,0  l0.1,0l0,0l0,0l0,0l0,0l0,0l0,0l0-0.1v0l0-0.1l0-0.1l0,0l0,0l0-0.1l-0.1,0l0,0l-0.1,0l-0.1,0l0,0l-0.1,0l0,0l-0.1,0l-0.1,0l0,0l0,0  l-0.1,0l-0.1,0l-0.1,0l0,0l0,0l0,0l0,0l-0.1,0l0,0l0,0l0,0l-0.1,0l-0.1,0l-0.1-0.1l-0.1-0.1l-0.2-0.1l-0.2-0.1l-0.2-0.1l-0.2-0.1  l-0.1,0l-0.1-0.1l-0.1-0.1l-0.1-0.1l-0.1,0l0,0l0-0.1l0-0.1l0,0l0,0l0,0l0,0l0,0l0.1,0.1l0,0l0,0l0.1,0.1l0.1,0.1l0.2,0.1l0.2,0.1  l0.2,0.1l0.1,0l0.1,0.1l0.2,0.1l0.1,0.1l0.2,0.1l0.1,0l0.1,0h0l0.1,0l0.1,0l0,0l0,0l0,0l0,0l0,0l0.1-0.1l0.1-0.1l0,0l0,0l0,0l0,0  l0,0l0,0l0,0l0,0l0,0l0,0l0,0l0,0l0.1,0l0.1,0l0.1,0l0,0l0,0l0,0l0,0l0,0l0,0l0,0l0.1,0l0.1,0l0.1,0l0,0l0,0l0,0l0.1,0l0,0l0,0  l0.1,0l0,0l0,0l0,0l0,0l0,0.1l0,0l0,0l0,0l0,0l0,0l0.1,0l0.1,0l0.1,0l0,0l0.1,0l0,0l0,0l0.1,0l0.1,0l0,0l0,0l0.1,0l0.1,0l0.1,0l0,0  l0,0l0.1,0l0.1,0l0.1,0l0,0l0.1,0l0.1-0.1l0.1-0.1l0,0l0,0l0.1-0.1l0-0.1l-0.1-0.1l-0.1-0.1l-0.1-0.1l-0.1-0.1l-0.1-0.1l-0.1-0.1  l-0.1-0.1l-0.2-0.1l-0.2-0.1l-0.2-0.1l-0.1,0l0,0l-0.1,0l0,0l0,0l0,0l0,0l0,0l-0.1,0l-0.1,0l-0.1-0.1l-0.1-0.1l-0.1-0.1l-0.1-0.1  l-0.1-0.1l0-0.1l0,0l0,0l0,0l0,0l0,0l-0.1,0l-0.1-0.1l-0.1-0.1l-0.1-0.1l0,0l0-0.1l0,0l-0.1,0l-0.1-0.1l-0.1-0.1l0,0l0,0l0,0l0,0  l0-0.1l0-0.1l0-0.1l0-0.1l0-0.1l0-0.1l0-0.1l0-0.1l-0.1-0.1l-0.2-0.2l-0.1-0.1l-0.1,0l-0.1,0l-0.1-0.1l-0.1-0.1l-0.1,0l-0.1-0.1  l-0.1,0l-0.1,0l-0.1,0l-0.1,0.1l-0.2,0.1l-0.1,0v0l0,0l0,0l0.2-0.2l0,0l0,0h-0.1l-0.1,0l-0.1,0h-0.1l0,0l0,0.1v0.1l0,0.1l0,0l0,0  l-0.1,0l-0.2,0l-0.2,0l-0.2-0.1l-0.2,0l-0.1,0l0,0l-0.2,0l0,0l0,0l0,0l0-0.1l0-0.1l0-0.4v-0.3l0-0.1l0,0l0-0.1l0,0l0-0.3l0-0.2  l0.1,0l0,0l0,0l0,0l0,0l0,0l0,0l0,0l0,0l0,0l0.1,0l0,0l0,0l0,0l0.1,0l0.1,0l0,0h0l0.4,0l0.5,0l0.3,0l0.1,0l0.2,0v0l-0.3,0v0l0.1-0.1  l0,0l0,0l0,0l0,0l0-0.1l0,0l-0.1-0.1l-0.1-0.1l-0.3-0.2l-0.2-0.2l-0.2-0.1l-0.2-0.1l0,0l0,0l0,0l0,0l0,0l0,0l0,0l0,0l0,0l-0.1,0  l-0.1,0l-0.1,0l0,0l0,0l-0.1,0l-0.1-0.1l0-0.1l0-0.1l0,0l0-0.1l-0.2-0.2l0.1-0.1h0.3l0.1,0.1l0.3,0.1h0.2l0,0l0.1,0.1l0.2,0.1  l0.3,0.2l0.1,0.1l0,0l0.2,0.2l0.1,0l0.3,0.2l0.3,0.2l0.2,0.1l0.3,0.1l0.5,0.2l0.1-0.1l0.1-0.1l0,0l-0.1-0.3l-0.2-0.5l-0.1,0l-0.1,0  l-0.1,0l-0.1,0l-0.1,0l-0.1,0l-0.1,0.1l-0.1,0.1l0,0l0,0l0,0l0.1-0.1l-0.1-0.1l-0.1-0.1l0,0l0-0.1l0.1-0.1l0.2-0.3l0.1-0.3l0.1,0  l0-0.1l0.1-0.2l0,0l0-0.2l0-0.1l0-0.1l0.1-0.1l0.1-0.3l0.1-0.2l0.1-0.1l0-0.1l0-0.1l-0.1-0.1l0,0l-0.1,0l-0.1,0l-0.1-0.1l-0.1-0.1  l-0.2-0.1l0,0l0,0l0.1,0l0.2,0.1l0.2,0.1l0.2,0.1l0.1,0.1l0.1,0l0.1,0l0-0.1l0.1-0.1l0.1-0.2l0.1-0.2l0.2-0.1l0-0.1l0-0.1l0.1-0.1  l0-0.1l0-0.1l0.1-0.1l0-0.2l0-0.1l-0.1-0.2l0-0.1l0-0.2l-0.2,0l-0.2,0.1l-0.1,0l-0.1-0.1l-0.1,0l-0.1,0l-0.1-0.1l0-0.1l0-0.2  l0.1-0.3l0.1-0.2l0.1-0.3l0-0.2l0-0.1l0-0.1l0-0.1l-0.1-0.1l-0.1-0.1l0-0.1l0-0.1l0,0l0-0.1l0-0.1l-0.1-0.1l-0.1,0l-0.1,0l0,0l0-0.1  l0,0l-0.1,0h-0.1l-0.1,0l-0.1,0l-0.1-0.1l-0.1-0.1l-0.1-0.1l-0.1,0l0,0l0,0l0.1,0l0-0.1l0.1-0.1l0,0l0,0l0.1,0l0.1,0l0.1,0l0.1,0  l0.2,0l0.1,0l0.1,0.1l0.2,0.1l0.1,0l0.1,0l0.2-0.1l0-0.1l0,0l0,0l0,0l0.1,0.1h0.1l0.1,0l0.1,0.1l0,0.1l0,0.2l0,0.1l0.1,0.1l0.2,0.1  l0,0.2l0.1,0.1l0.1,0.1l0.1,0.1v0.2l0,0.1l0.1,0.1l0.1,0.2l0,0.2l0,0.2l0,0.1l0,0h0l-0.1,0l0,0l0,0l-0.1,0l-0.1-0.1l-0.2-0.2l-0.1,0  l0-0.1l0,0l-0.1,0.1l0,0.1l-0.1,0.1l0,0l-0.1,0.1l-0.2,0.3v0.1l0,0.1l0.2,0l0.4,0l0.2,0.1l0.1,0l0.2-0.1l0,0l0,0.1l0,0.1l0,0.2  l0.1,0.1l0.1,0.2l0.1,0.1l0,0.1l0,0.1l-0.1,0.1l0,0.1l0,0.1l0,0.1l0,0.1l0,0.1l0,0.1l0,0.2l-0.1,0.2l0,0.1l0,0l0,0l-0.1,0.1  l-0.1,0.1l-0.1,0.3l-0.1,0.1l-0.1,0.2l-0.1,0.1l-0.1,0.1l-0.1,0.2l0,0.2l0,0.1l0,0l0,0.1l0,0.2l0,0.1l0,0.1l0.1,0.1l0,0.1l0,0.2  l0.1,0.1l0.1,0l0.2,0l0.2,0l0.2,0l0.2,0l-0.1,0.3l-0.3-0.1h-0.4l0,0.1l0,0l0,0l0,0.1l0,0l0,0.1l0,0.1l0,0.1l0,0.1l0,0l0,0l0,0.1l0,0  l0,0l0,0l0,0l0.1,0l0.1,0l0.1,0l0,0l0.1,0l0.1,0h0.1l0.1,0l0.1,0l0.1,0l0.1,0l0.1,0l0.1,0l0.1,0l0.1,0.1l0.1,0l0.1,0l0.1,0l0.1,0  l0.1,0l0.2,0l0.1,0l0.1,0l0,0l0.5-0.5l0,0l0,0l0,0.1l0-0.1l0,0l-0.1,0.2h0l0,0l0-0.1l0,0h0l0,0l0,0l0,0.1l0,0l0,0l0,0l0,0l0,0l0,0.1  l0,0.1l0,0l0.1,0l0.1,0l0.1,0l0,0l0,0l0,0l0,0l0,0l0,0v0l0,0l0,0l0,0v0l0,0l0,0l0.1-0.1l0.1,0l0.1,0l0,0l0,0l0.1,0l0.1,0l0,0l0,0  l0,0l0.1,0l0.1,0l0,0l0.1,0l0.1,0h0.1l0.1,0l0.1,0l0.1,0l0.1,0l0,0l0.1,0l0.1,0l0.1,0l0.1,0l0.1,0l0.1,0l0,0.1l0,0.1l0,0l0,0l0,0  l0-0.1l0,0l-0.1,0l0,0l0,0l0,0l0,0l0,0l0,0l0,0l0,0l0,0l0,0l0.1,0l0,0l0,0l0,0l0,0l-0.1,0l0,0l0-0.1l0,0l0,0l-0.1-0.1l0-0.1  l-0.1-0.3l0-0.1l0-0.1l-0.1-0.3l-0.1-0.1l-0.1,0l-0.1-0.1l0-0.1l0-0.1l0.1-0.1l0-0.1l0-0.1l-0.1-0.1l-0.1,0l-0.1-0.1l-0.1-0.1  l-0.1-0.1l-0.2,0l-0.2,0l-0.2,0.1l-0.2,0.1l-0.2,0l-0.1,0l-0.1,0l-0.1-0.1l0-0.1l0.1-0.1l0.1,0l0.1-0.1l0.1-0.1l0-0.1l0.1-0.1l0,0  l0-0.1l0-0.1l0,0l0-0.1l0-0.1l0-0.1l0-0.1l0-0.1l0-0.1l0.1-0.2l0.2-0.3l0.1-0.1l0-0.1l0.1-0.1l0,0l0.1,0l-0.1,0.1l0,0l-0.2,0.4  l-0.1,0.3l0,0.2l0,0.2l0,0.1l0,0.1l0.1,0.1l0.1,0.1l0.1,0.1l0.1,0l0.1,0h0.1l0.1,0l0.1,0l0.1,0l0.1,0l0.1,0l0.1,0l0,0l0,0l0.1,0.1  l0.1,0l0.1,0l0,0.1l0,0l0.1,0.1l0.1,0.1l0,0.1l0.1,0.1l0,0.1l0,0.1l0,0.1l0,0l0,0l0,0.1l0,0.1l0,0l0.1,0.1l0,0.1v0l0,0.1l0,0.1l0,0  l0.1,0l0,0.1l0,0.1l-0.1,0l0,0l0,0l0.1,0.1l0,0.1l0.1,0.1l0.1,0.1l0.1,0.1l0.1,0l0.1,0l0.1,0.1l0.1,0.1l0.1,0.1l0.1,0.1l0.2,0.2  l0.1,0.1l0.1,0.1l0,0.1l0,0.1l-0.1,0.1l-0.1,0.1l0,0.1l-0.1,0.1l0,0l-0.2,0.3l2.4,1.4l-0.7,1.1l-2.6-1.6l-0.7,0.1l-0.6,1l4.3,2.6  l1.6-2.7l0.5,0.3l-0.1,0.1l-0.4-0.2l-0.1,0.1l3.2,1.9l0.1-0.3l0.1-0.1l0.2,0.1l-0.2,0.3l0,0.1l0.2-0.3l0,0v0l-0.1,0.1l0.1,0.1l0.1,0  l0,0l0.1-0.2l0.1,0l0.1,0.1l0,0.1l-0.1,0.1l0,0l0.1,0.1l0.1,0l0.1,0l0,0.1l0.1,0l0.1,0.1l0.1,0.1l0.2,0.1l-0.1,0.1l0.1,0.1l0.1,0.1  l0.2,0.2l0.4,0.3l0,0l0,0l0-0.1l0-0.1l0.2-0.2l0-0.1l0.1-0.1l-0.1-0.1l-0.1-0.1l-0.4-0.4l-0.1-0.1l-0.1-0.1l0-0.2l0-0.3l0.1,0l0,0.2  l0,0.1l0,0.1l0.1,0.2l0.1,0.1l0.2,0.1l0.2,0.1l0.1,0l0,0.1h0l0.1,0.1l0.1,0.1l0.1,0.1l0.1,0l0.1,0h0.1l0.1-0.1l0-0.1l0.1-0.1l0-0.1  l0.1,0l0,0l0,0l0,0l0.1,0.1l0.1,0l0.1,0l0.1,0l0.2-0.1l0,0l-0.1,0.1l0,0l0.1-0.1l0,0l-0.1,0.1l0,0l0.1,0l0,0l0,0.1l0.3,0.3l0.1,0  l0-0.1l0,0l0.1,0.1l0.4,0l0,0l0,0l0.2,0v0.1l0,0v0.2l-0.3,0l0,0.1l0.4,0l0-0.2l0.8,0l0,0.6l0.1,0l0,0.1l0.1,0.2l0.2,0.2l0.2,0.1  l0.2,0.1l0.2,0l0.1,0.1l0.1,0.1h0.3l0.1-0.3l0.1,0l0,0.1l0.1,0.1l0,0l-0.1,0v0.1l1,0.3V320l0.7-0.3l0,0.1l0.6-0.3l-1.2-1.1l-0.1-0.1  l-1.2,0l-1.2,0.7l-0.2-0.1l0-0.4l1.7-0.9l1.5,0l1.4,1.3l0.2-0.2l-0.5-0.6l0.3-0.3l1.1,1.2l0.2-0.1l-0.3-0.3l0.1-0.1l0.1,0l0-0.1  l0-0.1l0-1.8l0.1,0l0-0.1l-0.3-0.1l0-0.1l0.1-0.1l0.3,0.1l0.2,0.1l0.2,0.1l0.3,0.1l-0.1,0.2l0.1,0.1l0.1,0.1l0.1,0l0.2,0.1l0.2,0.1  l0.2,0l0.2-0.1l0.3-0.1l0.5-0.4l0.7-0.5l0.6-0.4l0.1-0.1l0-0.1l0-0.1l-0.1-0.2l-0.1-0.2l-0.1-0.2l-0.1-0.1l-0.1-0.1l-0.2-0.1  l-0.3-0.2l-0.2-0.1l-0.3-0.1l-0.4-0.1l-0.4-0.1l-0.2-0.1l-0.1,0l-0.1,0.1v0.1l0,0l0.1,0.1l-0.7,1.1l-0.3-0.2l0,0l0,0l0-0.1l0-0.1  l-0.2,0l-0.1,0.1l0,0l0-0.1l0.1,0l0-0.1l-0.1,0l0,0.1l-0.1,0l0-0.1h0l0-0.1h0.1v0l-0.1,0l-0.1,0l0-0.1l0.1-0.1v-0.1l0-0.1l-0.1-0.1  h-0.1l-0.2,0.1l-0.1,0.1l-0.1,0.1l-0.2,0l-0.1-0.1l-0.1-0.2v-0.2l0-0.1l-0.1-0.1l-0.2-0.1l-0.1-0.1l-0.2,0l-0.1,0.1l-0.2,0.1v-0.1  l0.1-0.1l0.3,0h0.1l0.2,0.1l0.1,0l0.1,0.1l0.1,0.2l0.2,0.2l0.1,0.1l0.1,0l0.1-0.1l0.2-0.3l0.1,0l0.7,0v0l-0.2-0.3l0-0.1l0.3,0.3  l0,0.1l0.4,0.1l0.7,0l0.1-0.1l0.1-0.2l0-0.4l0,0l-0.1-0.4l-0.1-0.5l0-0.2l0-0.3l0.1-0.3l0.3-0.2l0.2-0.2l0.1-0.1l0,0l-0.1,0l0,0  l0-0.1l0.1-0.1l0.1,0l0-0.1l0,0l-0.1,0l-0.1-0.1l-0.1-0.1l0-0.1l-0.1-0.1l-0.1-0.1l-0.2-0.2l0-0.1l0,0l-0.1,0l0.1-0.1l0.1,0.1l0,0.2  l0.1,0.1l0.1,0l0.1,0.1l0.1,0l0-0.1l0.1-0.1l0-0.1h0.1l0.1-0.1l0.1-0.1v-0.3l0-0.1l0-0.2l-0.1-0.2l-0.1-0.1l-0.1-0.1l0-0.1l0.1-0.2  l0.1-0.2l0-0.1l0.1,0.1l0.1-0.1l0,0.1l-0.2,0.2l0,0.2l-0.1,0.1l0,0.2l0.2,0.2l0.1,0.2l0,0.1l0,0.2l0.1,0.1l0,0.2l-0.1,0.2l-0.1,0  l-0.1,0l-0.1,0.1l0.1,0.3h0.3l0.2,0l0.1,0.4l0,0.1l0,0.1l0,0.1l0.1,0l0.2,0.2l0.2,0.1l0.2,0.1l0.1,0l0,0l0.2,0l0.3-0.1l0.4-0.3  l0.3-0.3l0.1,0.1l0.1,0.1l-0.3,0.3l-0.3,0.3l-0.2,0.2l-0.4,0.1l-0.3,0l-0.3-0.1l-0.2,0l-0.1-0.2h-0.2l0,0.1l0.1,0l0,0l-0.2,0.1  l-0.6,0l-0.1-0.1l-0.1,0l0,0l-0.1,0.1l0,0.2l0,0.3l0.1,0.2l0.1,0.2l0.1,0.5l0.2,0.3l0.2,0.4l0.2,0.3l0.2,0.3l0.3,0.3l0.4,0.4  l0.1,0.1l0,0l0.1-0.1l0.2-0.2l0.3-0.2l0.3-0.1l0.1,0l0.2-0.3l0.6-0.4l0.2,0l0.3-0.3l0.4-0.3l0.2,0l0.1-0.1l0.4-0.4l0.2-0.1l0.2,0  l0.2-0.1l0.2-0.1l0.1,0l0.2-0.1l0.1,0l0.1,0l0.5-0.1l0.5-0.1l0.6-0.2l0.8-0.2l0.6-0.1l0.2-0.2l0.3-0.1l0.1,0.1l0.1-0.1l0.2-0.1  l0.2,0l0.1-0.1l0.4-0.1l0.2-0.1l0.2,0l0.3-0.1l0.1,0l0.1,0l0.1,0l0.2-0.1l0.1,0l0.1,0l0.1,0l0,0l0.1,0l0.3-0.1l0.1,0l0.1,0l0.1-0.1  l0.3-0.1l0-0.1l-0.1,0l0-0.1l0.1-0.1l0.2-0.1l0.2,0l0.1,0.1l0,0.2l-0.1,0.1l-0.2,0l0,0.1l0.2,0l0.1,0l0.1,0l0.3-0.1l0.2-0.1l0.1,0  l0.1-0.1l0.3-0.1l0.1,0l0.3-0.1l0.2-0.1l0.2-0.1l0.2,0l0.2,0l0.4-0.1l0.2-0.1l0.3,0l0.2-0.1l0.1,0l0.2-0.1l0.2,0l0.2,0l0.1-0.1  l0.1,0.1l0.1,0l0-0.1l0.1-0.1l0.2,0l0.1,0.1l0.1,0l0.2-0.2l0.1,0l0,0l0.3-0.1l0.1-0.1h0.1l0.1-0.1l0-0.1l0,0l0.1,0l0.2,0l0,0  l-0.6-1.3l-1.3-1.1l-0.3-0.6l0.1,0l0.3,0.6l1.3,1.1l0.7,1.4l0.1,0l0.5-0.2l0.3,0.1l0.3-0.1l0.6,0l0.1,0.1l0.1,0l0.1,0l0.2-0.1  l0.1,0.1l0.1-0.1l0-1.8l0.1-0.1l0.1,1.8l0,0l0,0.1l0.1,0.1l0.5-0.2l0.5-0.1l0.3,0l0.2,0.1l0.1,0.4l0,0.1l0,0.2l0,0.3l1.4-0.4  l1.5,0.5l0.4,0.2l0.3,0l0.5-0.2l0.4-0.3l0.5-0.3l0.3-0.2l0.6-0.1l1.9-0.1l0.1,0.1l0,1l0.9,0l0-0.1l-0.8,0l-0.1-1.8l0.2,0l0.6,0  l0.5,0l0,0.9l0.8,0l0.1-0.3l-0.1-0.1l0-1.5l-1.3,0l-1.8,0.1l0.7-1.5l0.3-0.8l0.2,0.1l0.3,0.2l0.4,0.2l0.3,0.1l0.2,0.1l0.1-0.1  l-0.1-0.1l-0.2-0.2l-0.2-0.2l-0.2-0.2l-0.3-0.2l-0.3-0.1l0-0.2l0.1,0l0.3-0.5l0.3-0.6l0.2-0.5l0.1-0.3l0.2,0.1l0.2,0.1l0.2,0h0.1  l0-0.1l-0.1-0.1l-0.3-0.1l-0.2-0.1l0.3-0.3l0.1,0l0.5,0.2l0.3,0.1l0.2,0.1l0.1,0.1l0.1-0.1l0.1-0.2l0.1-0.2l-0.2-0.1l-0.3-0.2  l-0.2-0.1l-0.3-0.1l-0.2-0.1l-0.1,0l0.1-0.4l0.2-0.4l0.2-0.3l0.1-0.1l0.2,0.1l0.3,0.1l0.3,0.2l0.3,0.1l0.5,0.4l0.2,0.1l0-0.1  l-0.4-0.3L-255,299z M-326.1,310.9l0.2,0h0.5l0.1,0l0-0.2l0-0.1l0-0.2l0-0.2l0,0l-0.1,0l-0.1,0l-0.2-0.1l-0.1-0.1l-0.1-0.1l-0.1-0.1  l-0.1-0.1l0,0l-0.1,0l0,0l-0.1-0.1l-0.1,0l-0.1,0l-0.1,0l0,0l-0.1,0l0,0l0,0.2l0,0.1l0,0.1l0.1,0l0.1,0l0,0v0l-0.1,0l-0.1,0l-0.1,0  l0,0l0,0.3l0,0.4l0,0.2l0,0.1l0,0.1L-326.1,310.9z M-313.3,325.3L-313.3,325.3l0.1-0.2l0.1-0.2l0-0.2l0-0.1l0-0.1l-0.1-0.3l-0.1-0.1  l-0.1-0.1l0,0l-0.1,0.1l-0.1,0.1l-0.1,0.2l-0.1,0l0,0l0-0.1l-0.1,0.1l0,0l0,0.1l0,0.1l0,0.1l0,0.1l0,0.1l-0.1,0.2l0,0.1l0.1,0l0.1,0  l0.1,0.1l0.1,0.1l0.1,0.1l0.1,0.1l0,0.1l0.1,0.1l0.1,0l0.1,0l0-0.1L-313.3,325.3L-313.3,325.3z M-292.2,327.2L-292.2,327.2l-0.1-0.1  l-0.1-0.2l-0.1-0.1l-0.2-0.2l-0.1-0.1v-0.1l0,0l-0.1,0l-0.1,0l-0.1-0.1l-0.1-0.1l-0.1-0.1l0-0.1l-0.1,0l-0.1,0l-0.1,0l-0.1,0l-0.1,0  l-0.1,0l0,0.1l0.1,0.1l0.1,0.1l0,0.1l0,0.1l0,0.1l0,0.2l0,0.1v0.1l0.1,0.1l0.1,0.1l0.1,0l0.1,0.1l0.2,0.1l0.2,0.1l0.1,0.1l0,0.1  l0.1,0.1l0.1,0.1l0.1,0.1l0,0.1l0,0l0.1,0l0.1-0.1l0-0.1l-0.1,0h-0.1l-0.1-0.1l0-0.1l0.1-0.1l0.1-0.1L-292.2,327.2l0,0.2l0.1,0  L-292.2,327.2L-292.2,327.2z M-336.9,309.2L-336.9,309.2l-0.1,0.2l0,0.1l0.1-0.1l0.1-0.1l0.1-0.1l0.1,0l0.1,0l0,0l0-0.1l-0.1-0.1  l-0.1,0l-0.1,0.1l0,0.1l0,0L-336.9,309.2z M-335.8,309.8L-335.8,309.8l-0.1,0l-0.1,0.1l0,0.1v0l0,0l0.1,0l0.1,0l0.1-0.1  L-335.8,309.8L-335.8,309.8L-335.8,309.8z M-245.4,287.3l-0.2-0.3v-0.2l-0.2-0.2l-0.2-0.3l-0.1-0.1l-0.3-0.3h-0.1l-0.2-0.2l-0.2-0.2  l-0.4-0.4l-0.1,0l-0.2-0.2l-0.2-0.2l-0.3-0.2h-0.2l-0.2-0.1l-0.3-0.1l-0.5-0.2l-0.3-0.2l-0.4-0.2l-0.2,0h-0.2l-0.3-0.2l-0.2,0  l-0.4,0.1l-0.1,0.3l-0.1,0.1l-0.5,0.2l-0.1,0l-0.3,0l-0.2-0.2l-0.6,0l-0.2-0.2l0-0.1l-0.4-0.2l-0.1,0.2l0.1,0.3l-0.1,0.2l-0.3,0.2  l-0.4,0.3l-0.1,0.2l-0.2,0.1l-0.2,0.1l-0.2-0.1l-0.6,0.1l-0.1,0l-0.2,0l-0.1-0.2l-0.2,0l-0.3,0.3l0,0.2l0.1,0.1l0,0.2l0.1,0.3  l0.1,0.3l0.2,0.5l0.2,0.3l0,0.2l-0.1,0.1l0,0.3l-0.2,0.3l-0.2,0.4l-0.1,0.3l0.1,0.2l0,0.1l0.2,0.2l0.4,0.3l0.3,0.2l0.2,0.1l0.1,0.1  l0.2,0.2l0.3,0.2l0.1,0.4l0.2,0.5l0.3,0.1l0.2,0l0.2,0.1l0.1,0.1l0.1,0l0.2,0l0.2,0.1l0.1,0l0.1,0.1l0.2,0l0.1,0l0.1-0.1l0.1,0  l0.1-0.1l0,0l0.1,0l0.1-0.1l0.1,0l0.1,0l0.1,0l0.2,0l0.1-0.1l0.2-0.1h0.2l0.2,0l0.2,0.1h0.2l0.2,0l0.2-0.1l0.2-0.1l0.1,0l0,0.1  l-0.1,0.1l-0.2,0.1l-0.2,0.1l-0.2,0h-0.2l-0.2-0.1l-0.2,0l-0.2,0l-0.2,0.1l-0.1,0.1l-0.2,0.1l0,0l-0.1,0l-0.1,0l-0.1,0.1l-0.1,0  l-0.1,0.1l-0.1,0l-0.1,0.1l-0.1,0l-0.2,0l-0.1-0.1l-0.1,0l-0.2,0h-0.2l-0.1,0l-0.1-0.1l-0.2-0.1l-0.3,0l0.2,0.2l0.1,0.1l0.1,0.2  l0.2,0.2l0.2,0.2l0.1,0.3l0.1,0.1l0.1,0.1l0.1,0.2l0.1,0.2l0.2,0.3l0.2,0l0.1,0.2l0,0.2l0.2,0.1l0,0.1l0,0.1l0,0.8l0.2,0.1l0.1,0  l0.2,0.1l0.2,0l0.2-0.1l0.2-0.1l0.2-0.1l0.2-0.1l0.2-0.1l0.3-0.1l0.8-0.4l0.5-0.2l0.4-0.2l0.3-0.1l0.2-0.1l0.3-0.1l0.4-0.1l0.4-0.2  l0.8-0.4l0-0.1l0.1-0.6l0.1-0.3v-0.2l0.2-0.2l-0.1-0.3l0.1-0.1V291l0-0.2l0.1-0.2l0-0.2l0.1,0l0.1-0.2l0-0.1l0.1-0.2l0-0.2l0.1-0.3  l0-0.2l0.1-0.1l-0.1-0.2l0-0.1l0,0l-0.1,0l-0.1,0.1l-0.2,0.1l-0.2,0l-0.2,0l-0.1,0l-0.1,0.1l-0.1,0l-0.1,0l-0.1,0l-0.1,0l-0.2,0  l-0.1,0.1l-0.1,0l-0.1,0.1h-0.1l-0.1,0.1l-0.2,0l-0.1,0.1l-0.2,0.2l-0.1,0.1l-0.2,0l-0.2,0l0,0h-0.2l-0.3,0l-0.1,0l-0.1,0.1l0-0.1  l0,0v-0.1l0.1-0.1l0.1,0l0.3,0h0.2l0-0.1l0.2,0l0.2,0l0.1-0.1l0.2-0.2l0.1-0.1l0.2,0l0.1-0.1l0.1,0l0.1-0.1l0.1,0l0.1-0.1l0.2,0  l0.1,0l0.1,0l0.1,0l0.1,0l0.1-0.1l0.1,0l0.2,0l0.2,0l0.2-0.1l0.1-0.1l0.1-0.1l0.1,0l0,0l0.2-0.2l0.3-0.3v-0.3L-245.4,287.3z   M-336.3,309.6L-336.3,309.6L-336.3,309.6l0-0.2l0-0.1l0,0l0,0l-0.1,0l-0.1,0l-0.1-0.1l-0.1,0l-0.1,0l0,0.1l0,0.1l0,0.1  c0,0,0,0,0,0.1c0,0-0.1,0.1-0.1,0.1l0,0l0.1,0l0.1,0.1l0.1,0l0,0l0.1-0.1l0-0.1L-336.3,309.6L-336.3,309.6z M-293.9,325.6l0.2,0  l0-0.1l0.1-0.1l0.1-0.1l0.1-0.1l0.2,0l0.1,0l0.1,0.1l0.1,0.1l0.1,0l0.1,0l0.1-0.2l0.1-0.1l0-0.1l0-0.1l-0.1,0l-0.1,0l0,0.1l0,0.1  l-0.1,0.1l-0.2,0l-0.1,0l-0.1,0l-0.2,0l-0.1,0l-0.1,0.1l-0.1,0.1l-0.2,0l-0.2,0l0,0l0,0.1l0,0l0.1,0.1L-293.9,325.6z M-308.5,330  v-0.1l0-0.2l-0.1-0.3l-0.2-0.2l-0.6,0l-0.4,0l-0.1,0l-0.1,0.1l-0.2,0.1l-0.2,0.1l-0.2,0.1l-0.2,0.1l-0.2,0l-0.2,0l-0.2-0.1l-0.1,0  l0,0l0,0l-0.1-0.1l-0.1,0l-0.3-0.2l-0.2-0.2l-0.3,0.1v0.1l-0.1,0l-0.1-0.2l0-0.7l-0.2-0.1l-0.2-0.6l-0.1-0.2l-0.1,0.1l0,0.6l0,0.1  l0.1,0.4l-0.2,0.5l-0.1,0.3l0,0.6l0.1,0.2l0,0.4l0.2,0.2l0.2,0l0.1-0.2l0.3-0.1l0-0.2l0-0.1l0.1,0.2l0,0.3l-0.1,0.3l-0.2,0.2  l-0.4,0.5l0,0.1v0.1l0,0.1l0.1,0.1l0.1,0.1l0.1,0.1l0.2,0.1l0.1,0.1l0.1,0.1l0.1,0.1l0.3,0.3l0.1,0.1l0.2,0.1l0.1,0.1l0.2,0l0.1,0  l0.1,0l0.2-0.1l0.2-0.1l0.2-0.1l0.1-0.1l0.1-0.1l0.1-0.1l0.1-0.1l0.1-0.1l0-0.2l0-0.3l0-0.2V332l0.2-0.1l0.2-0.1l0.2-0.1l0.1-0.1  l0.2-0.1l0.1-0.1l0.1-0.1l0.1-0.2l0-0.1l0-0.1l0-0.2l0-0.2l0-0.3L-308.5,330z M-304.1,331.1l-0.1-0.1l-0.1-0.1l-0.1-0.1l-0.1-0.1  l-0.1-0.1l-0.1-0.1l-0.1-0.1l0-0.1l-0.1-0.1l-0.1-0.1l-0.1-0.1l-0.1-0.1l-0.1-0.1l-0.1,0l-0.1,0l-0.1,0l0-0.1l0-0.1l0-0.1l-0.1-0.1  l-0.1-0.1l-0.1-0.1l-0.1-0.1l-0.1,0l0,0.1l0,0.1l0,0.2l0,0.1l0,0.1l0,0.1l0,0.1l0,0l0,0.1l0,0.1l0,0.1l0,0.1l0,0.1l0.1,0.1l0,0.1  l0,0.1l0.1,0l0,0.1l0.1,0l0.1,0.1l0.1,0l0,0l0.1,0l0.1,0l0.1,0.1l0.1,0l0.1,0l0,0l0.1,0.1l0.1,0.1l0.1,0.1l0.1,0l0.1,0.1l0.1,0  l0.1,0l0.1,0l0.1,0l0.1,0l0,0l0-0.1v-0.1L-304.1,331.1L-304.1,331.1z M-307.4,328l-0.1,0.1l0,0.1l0,0.1l0.1,0.1h0.2l0.1-0.1l0-0.1  L-307.4,328L-307.4,328z M-293.8,328.5L-293.8,328.5l-0.1-0.2l0-0.1l0.1-0.1l0.1-0.1l0-0.1l-0.1,0l0,0l0-0.1l0-0.2l0-0.1l0.1,0  l0.1,0l0.1,0l0-0.1l-0.1-0.1l-0.1-0.1l0,0.1l-0.1,0.1l-0.1,0l-0.1-0.1l-0.1,0l0-0.1l0-0.1l0-0.1l-0.1,0l0,0.1l0,0l-0.1,0l-0.1-0.1  l-0.1,0l-0.1-0.1l0-0.1l0.1,0l0-0.1l-0.1,0l-0.1,0l-0.1,0.1l-0.1,0l-0.1,0.1l-0.1,0l-0.1,0.1v0.1l0,0.1l0.1,0.1l0.1,0.1l0.1,0.1  l0.1,0.1l0.1,0.1l0.1,0.1l0.1,0.1l0.1,0.1l0.1,0.1l0.2,0.2l0.1,0.1l0,0.1l0.1,0.1l0.1,0.1l0.1,0l0.1,0.1l0,0.1l0,0.1l0.1,0l0.1-0.1  L-293.8,328.5L-293.8,328.5z M-312.9,323.9l0,0.1l0,0.1l0,0.1l0,0l0,0.2l0,0.1v0.1l0,0.1l0.1,0.1l0,0l0.1,0l0.1,0l0.1,0l0,0l0,0  l0.2,0.1l0,0.1l0.1,0l0.1,0h0.1l0.1,0l0.2,0l0.1,0l0.1,0l0.1,0l0.1,0l0.1,0l0.1,0l0.1,0l0.1,0l0.1,0l0.1,0l0.1,0h0.1l0.1,0.1l0.1,0  l0,0l0,0.1l0,0l0,0l0,0l0,0l0,0.1l0,0.1l0,0l0,0.1l0,0.1l0,0.1l0,0.2l0,0.1l0,0l0,0l0.1,0h0.1l0.1,0l0.1,0h0.2l0.3,0l0.1,0l0.1,0h0  l0.1,0l0.1,0l0.1,0l0,0l0-0.1l-0.1-0.1l0-0.1l0-0.1l-0.1-0.1l0-0.1l0-0.1l0,0l-0.2,0l0.1-0.1l0,0l0,0l0,0l0-0.1l0,0l0-0.1l-0.1-0.1  l-0.1-0.1l0,0l-0.1,0l0,0l-0.1-0.1l-0.1,0l0-0.1l-0.1,0l0,0l-0.1-0.1l0-0.1l0,0l-0.1-0.1l0,0l0,0l-0.1-0.1l-0.1-0.1l-0.1,0.1  l-0.2-0.1l0-0.1l-0.1-0.1l-0.1-0.1l0,0l-0.1-0.1l-0.1,0l-0.1-0.1l-0.1-0.1l-0.1,0l-0.1-0.1l-0.1-0.1l-0.1,0l-0.1,0l-0.1-0.1l0,0l0,0  l-0.1-0.1l-0.1,0l-0.1,0l-0.1-0.1l-0.1-0.1l-0.2,0l-0.1,0l-0.3,0.1l-0.2,0l0,0.1l0,0.1l0,0.1l0,0.2l0,0.2L-312.9,323.9z   M-313.1,325.8l0,0.1l0,0.1l0,0.1l0.1,0l0.1,0l0.1,0l0.3,0l0.1,0l0.2,0l0.1,0l0.1,0l0.2,0l0.1,0l0.1,0l0.1,0h0.1l0.1,0l0.1,0l0.1,0  l0.1-0.1l0.1-0.1l0.1-0.1l0,0l0-0.1l0,0l0.1-0.1l-0.2-0.1l-0.1-0.1l-0.1-0.1l-0.1-0.1l-0.2-0.1l-0.1-0.1l-0.1,0l-0.2,0l-0.1,0.1  l-0.1,0h-0.2l-0.1-0.1l-0.1,0l-0.1,0l-0.2,0l0,0l-0.1,0.1l-0.1,0.1l0,0.1l-0.1,0.1L-313.1,325.8z M-296.3,325.3L-296.3,325.3  l-0.2-0.2l-0.1-0.1l0-0.1l0-0.1l-0.1-0.1l-0.1-0.1l0,0l0,0l0,0l0,0.1l0,0l0,0.1l0,0.1l0,0.1l0,0.1l0.1,0l0.1,0.1l0,0.1l0,0.1l0,0  l0,0.1l0,0.1l0.1,0.1l0.1,0l0.1,0l0-0.1L-296.3,325.3L-296.3,325.3z M-295.3,322.1l0.1-0.2l0.1-0.1l0.2-0.3l0.1-0.2l0.1-0.2l0.1-0.1  l0.1-0.2l0-0.1l-0.1-0.1l-0.2-0.1l-0.1-0.1l-0.1,0l-0.1,0.1l-0.1,0.1l-0.4,0l-0.1,0l0,0.2l-0.1,0.2l-0.1,0.1l-0.1,0l0-0.1l0.1,0l0,0  l0-0.1l0.1-0.2l0-0.1l0-0.1l-0.2,0l-0.2,0l-0.2-0.1l-0.2,0l-0.2,0.1l-0.2,0l-0.3,0l-0.2-0.1l-0.2-0.2l-0.1-0.1l-0.4,0l-0.4,0l-0.2,0  l-0.2,0l-0.2-0.1l-0.2-0.2l-0.1-0.1l-0.1-0.1l-0.1,0l-0.1,0l-0.1-0.1l-0.1,0l-0.1-0.1l-0.1-0.1l-0.2,0l-0.1-0.1l-0.1-0.1l-0.1-0.1  l-0.1,0l-0.1,0.2l-0.1,0.1l-0.1,0l-0.2,0l-0.2-0.1l-0.1,0l-0.2,0l-0.3,0l-0.3-0.1l-0.2-0.1l-0.2,0l-0.2,0.1l0,0.1l0.1,0.1l0.1,0.1  l0.1,0.1l0,0.1l0.1,0.1l0.1,0.1l0,0l0-0.1l0.1-0.1l0.1,0l0.1,0l0.2,0.1l0.2,0.1l0.1,0.1l0.1,0.1l0.1,0.1l0.1,0.1l0.2,0.2l0.1,0  l0.1,0.1l0.1,0.1l0.1,0.1l0,0.1l0,0l-0.1,0l0,0l0,0l0.1,0l0.1,0l0.1,0.1l0.1,0.1l0.1,0l0.1,0l0,0v0h-0.1l-0.1-0.1l0,0l0-0.1l0.1,0  l0.1,0l0.1,0l0.1,0.1l0.1,0.1l0.1,0.1l0.1,0.1l0.1,0l0.1,0.1l0.1,0.1l0.1,0.1l0,0.1l-0.1,0.1l-0.1,0l-0.1,0l-0.1,0l0.1,0.1l0.1,0.1  l0.1,0.1l0.2,0.2l0.1,0.1l0.1,0.1l0.1,0l0,0l-0.1-0.1l0-0.1l0-0.1l0,0l0.1,0l0.1,0.1l0.1,0.1l0.1,0.1l0.1,0.1l0.2,0.2l0,0.2  l-0.1,0.1v0l0.1,0l0,0l0.1,0.1l0.1,0.1l0.1,0l0.1,0l0.1,0.1l0.1,0l0.1,0l0.1,0l0.1-0.1l0.1-0.1l0.2,0h0.2l0.1-0.1l0.1,0v0.1l0,0.1v0  l0.1,0l0.1-0.1l0.2-0.1l0.1-0.1l0.1-0.1l0.1-0.1l0-0.1l0,0l-0.1,0l0,0l0-0.1l0-0.2l0-0.2l0-0.2l0-0.3l0-0.1l0.1-0.1l0.1-0.2l0,0  l0.2,0.2l0,0.1l-0.1,0.1v0.2l0.1,0.1l0,0.1l0,0.1l0,0.2l0,0.2l0.1-0.1l0.1-0.1l0.2-0.2L-295.3,322.1z M-297.1,328.3L-297.1,328.3  l-0.1,0l0,0L-297.1,328.3l0,0.1l0,0.1l-0.1,0.1l0,0.1l0,0.1l-0.1,0l0,0l0,0.1l0,0.1l0.1,0l0-0.1l0-0.1l0-0.1l0.1-0.1l0.1-0.1v0  L-297.1,328.3L-297.1,328.3z M-297.6,328.2L-297.6,328.2L-297.6,328.2l-0.1,0l0-0.1l0-0.1l0.1,0l0,0l-0.1-0.1h-0.1v0l0,0l0,0l0,0  l-0.1,0l0,0.1l0,0l0.1,0l0,0l0.1,0.1l0,0L-297.6,328.2L-297.6,328.2L-297.6,328.2L-297.6,328.2z"/></svg>