<svg xmlns="http://www.w3.org/2000/svg" xmlns:xlink="http://www.w3.org/1999/xlink" version="1.1" x="0px" y="0px" viewBox="-461 335 100 100" fill="#e0e0e0" style="enable-background:new -461 335 100 100;" xml:space="preserve"><polygon points="-363,374.3 -363.6,374.1 -364.5,373.2 -364.9,373.1 -365.9,373.1 -366.7,372.9 -366.8,372.7 -366.8,372.6   -366.8,372.4 -366.8,372.2 -367,372 -367.2,372 -367.6,372 -367.7,372 -367.9,371.9 -368.5,371.6 -369.8,371.3 -370.3,371   -370.4,370.1 -370.6,369.2 -371.1,368.3 -371.7,367.7 -372.7,367.3 -373.3,366.7 -373.7,366.5 -374,366.6 -374.3,366.8   -374.6,367.1 -374.7,367.3 -375,367 -375.6,366.1 -375.9,365.8 -376.1,365.8 -376.3,365.8 -376.5,365.8 -376.6,365.7 -377,365.4   -377.1,365.3 -377.5,365.2 -378.7,365.3 -379.3,365.6 -379.6,365.5 -380.2,365.6 -380.5,365.6 -382.2,365.1 -383.2,364.6   -383.5,364.5 -383.8,364.7 -384.3,365.6 -384.6,365.8 -385,365.9 -385.3,365.7 -385.5,365.5 -385.8,365.2 -386.1,365.2   -386.8,365.4 -387,365.5 -387.4,365.9 -387.2,366.1 -386.8,366.4 -386.5,366.8 -386.7,367 -387,367.1 -387.4,367.1 -387.7,367.1   -388,367.5 -388.6,368.3 -389,368.7 -389.4,368.8 -389.7,368.8 -390,368.6 -390.3,368.2 -390.6,368 -390.9,368 -391.2,368   -391.6,367.9 -391.9,367.7 -393.5,365.9 -393.7,365.8 -394.4,365.9 -394.8,365.9 -394.9,365.9 -395.1,366 -395.4,366.3   -395.6,366.5 -396,366.7 -396.4,366.6 -397.9,365.8 -398.1,365.9 -398.1,366.4 -399,366.4 -399.8,366.2 -400,366.2 -400.1,366.3   -400.2,366.4 -400.3,366.7 -400.3,367.1 -400.5,367.4 -400.6,367.5 -401.9,367.7 -402.2,367.8 -402.6,368.3 -402.7,368.4   -403.1,368.4 -403.2,368.4 -403.3,368.5 -403.6,369.2 -403.7,369.5 -403.9,369.8 -404.1,370.1 -404.2,371 -404.4,371.7 -404.7,372   -405.3,371.7 -406.2,370.8 -406.7,370.6 -407.2,370.7 -407.5,370.9 -408.1,371.5 -408.5,371.6 -409.3,371.6 -409.8,371.4   -410,371.1 -409.9,370.8 -409.3,369.7 -409.2,369.6 -409.1,369.6 -409,369.5 -408.9,369.4 -408.9,369.3 -409.1,369.1 -409.1,369   -409.3,368.9 -409.4,368.8 -409.4,368.7 -409.3,368.5 -409.3,368.4 -409.4,367.1 -409.5,366.6 -409.6,366.1 -409.8,366   -410.4,366.2 -410.7,366.3 -411.1,366.2 -412.1,365.9 -412,365.5 -412,365.1 -412,365 -411.9,364.8 -412.6,364.8 -413,364.7   -413.3,364.5 -413.4,364.3 -413.7,363.4 -414,362.1 -414.2,361.5 -414.7,361.2 -414.8,361.1 -415.1,360.6 -415.3,360.5   -415.4,360.5 -415.5,360.6 -417,362.3 -417.2,362.4 -417.4,362.5 -417.6,362.5 -418.1,362.5 -418.4,362.6 -418.7,362.7 -419,363   -419.2,363.4 -419.5,364.3 -419.5,364.3 -419.4,364.4 -419.4,364.5 -419.4,364.7 -419.5,364.7 -419.8,364.7 -419.9,365.3   -420,365.6 -420.1,365.8 -420.6,366 -421.1,366.1 -421.3,366.1 -421.4,366 -421.8,365.8 -421.9,365.7 -422.3,365.8 -423,366.2   -423.4,366.2 -423.8,366.2 -423.9,365.9 -423.8,365 -423.9,364.6 -423.9,364.2 -424,363.8 -423.8,363.4 -424.3,363.1 -426.1,362.9   -426.8,362.9 -427.1,363 -427.8,363.7 -428.3,363.7 -428.8,363.6 -429.4,363.3 -429.5,363.3 -429.6,363.3 -430.1,363.6   -430.9,363.4 -431.3,363.7 -431.4,363.9 -431.4,364.4 -431.5,364.6 -431.6,364.8 -432.2,365.1 -432.9,366 -433.3,366.3   -433.9,366.2 -433.9,367.5 -435,368.3 -437.3,369.2 -437.8,369.7 -438.2,370.4 -438.6,371.2 -438.8,372.1 -438.9,372.8   -438.8,374.2 -438.9,374.8 -439.3,375.4 -439.8,375.9 -440.4,376.1 -441.4,376.1 -441.8,376.1 -442.3,376.3 -442.5,376.8   -442.6,377.2 -442.8,378 -442.9,378.4 -443.2,378.7 -443.6,378.7 -444,378.6 -444.4,378.7 -444.7,378.9 -445.3,380 -445.6,380.2   -448.9,381.5 -449.6,381.4 -450.1,380.9 -450.3,380.7 -450.8,380.9 -451.4,381.3 -451.7,381.4 -453.7,380.4 -454.6,380.1   -455.4,380.3 -456.3,381 -456.5,381.2 -456.6,381.7 -456.8,382.1 -457.4,382.6 -457.9,383.3 -458.8,385.9 -458.9,386.2   -459.2,386.6 -459.3,387.1 -459.1,388.3 -459.2,388.8 -459.5,389.1 -459.8,389.3 -459.9,389.6 -460,389.9 -460.5,390.6   -460.7,390.9 -460.7,391.3 -460.9,392.7 -460.9,392.9 -461,393 -461,393.1 -461,393.4 -460.9,393.5 -460.8,393.6 -460.4,393.7   -460.3,393.7 -460.2,393.9 -460,394.1 -459.9,394.3 -459.9,394.4 -460,394.6 -460,394.7 -459.9,394.7 -459.9,394.8 -459.8,394.9   -459.8,395.1 -459.7,395.2 -459.7,395.4 -459.5,395.5 -459.4,395.5 -459.2,395.7 -459.1,395.8 -459,395.8 -459,396 -459,396.3   -459,396.4 -458.8,397.3 -458.7,397.8 -458.7,398.4 -458.5,398.8 -458.1,399.3 -457.8,399.5 -457.6,399.5 -457.4,399.6 -457,400.3   -456.8,400.5 -457,400.7 -457.1,401 -457.2,401.5 -457.1,401.5 -456.9,401.7 -457,402.1 -456.6,402.3 -456,402.5 -455.6,402.9   -455,402.5 -454.3,402.7 -453.4,402.9 -452.3,403.1 -451.7,403.5 -449.9,405.9 -449.8,406.1 -449.6,406.2 -449.1,406.3 -449,406.4   -448.4,407.2 -448.2,407.5 -448,407.5 -447.8,407.4 -447.6,407.4 -447.3,407.5 -447,407.8 -446.6,408.1 -446.5,408.3 -446.3,408.5   -445.2,409.1 -443.7,409.5 -438.7,409.2 -436.5,409.4 -435.9,409.4 -434.5,408.8 -430.9,408.4 -430.1,408.5 -429.5,408.8   -429,408.9 -428.5,408.8 -428,408.6 -427.5,407.9 -427.2,407.7 -426.8,407.6 -426.3,407.4 -427,406.9 -427.5,406.4 -427.6,405.9   -427.6,405.4 -427.4,404.3 -427.5,404 -427.6,403.9 -427.6,403.8 -427.4,403.5 -427.2,403.4 -426.9,403.4 -426.7,403.2   -426.3,402.3 -426,402 -423.4,401.4 -423.2,401.3 -422.4,401.4 -421.4,401.2 -419.2,401.5 -419,401.4 -417.9,400.8 -415.6,400.8   -414.6,400.1 -414.6,400 -414.6,399.7 -414.6,399.6 -414.6,399.5 -414.4,399.1 -414.3,398.1 -414.1,397.7 -413.8,397.5   -412.1,397.1 -412,397.1 -411.8,397.2 -411.6,397.3 -411.2,397.8 -411,397.9 -410.2,397.7 -409.8,397.8 -409.4,398.2 -409.4,398.5   -409.5,398.7 -409.5,398.9 -409.4,399.1 -409.2,399.2 -408.6,398.9 -408.2,399.1 -407.5,399.7 -407.1,399.8 -406.7,399.7   -405.9,398.9 -405.5,398.7 -404.8,398.4 -404.1,398 -403.8,397.8 -403.6,397.7 -403.5,397.5 -403.4,397 -403.3,396.8 -403.1,396.6   -402.9,396.5 -402.8,396.6 -402.5,396.6 -402.2,396.5 -401.6,396 -401.4,395.9 -401.1,396.1 -400.9,396.3 -400.7,396.4   -400.3,396.2 -399.8,395.7 -399.3,395 -399,394.3 -398.3,392.2 -398.1,391.8 -397.8,391.4 -397.2,390.8 -397,390.5 -397,390.4   -397,390.1 -397,389.6 -397,389.4 -397,389.2 -396.5,389 -395.4,389 -391.7,388.1 -391.4,388.1 -391.2,388.2 -390.6,388.7   -390.4,388.8 -389.8,388.8 -388.9,389.4 -388.3,389.5 -387.8,389.5 -387.3,389.6 -386.8,389.8 -386.5,390.1 -386,390.2   -384.7,389.6 -384.1,389.4 -383.8,389.6 -383.6,389.8 -383.4,389.8 -383.1,389.7 -382.9,389.4 -382.8,389.1 -382.6,388.9   -382.3,388.7 -382,388.6 -381.4,388.6 -380.5,388.3 -380.3,388.4 -379.7,388.7 -379.4,388.8 -379.2,389 -379.1,389.2 -378.9,389.7   -378.8,389.9 -378.6,390 -377.9,390 -377.6,390.1 -377.5,390.4 -377.3,391.5 -377.1,391.7 -376.1,393.3 -375.7,393.7 -375.2,394.1   -374.7,394.3 -374.2,394.2 -373.3,393.8 -372.5,393.7 -372,393.3 -371.7,393.2 -370.8,393.2 -370.5,393.1 -370.2,393.1   -369.1,393.2 -368.8,393.1 -368.5,392.8 -368.1,392.4 -368.1,390.5 -367.9,390.1 -367.9,389.6 -368.1,388.6 -368.1,388   -367.8,387.6 -366.7,386.7 -366.6,386.5 -366.4,386.1 -366.2,385.9 -366,385.7 -365.6,385.6 -365.3,385.5 -365.1,385.1   -364.8,384.6 -364.7,384 -364.7,383.5 -364.7,383.1 -364.5,382.9 -364.4,382.8 -364.2,382.6 -364.1,382.3 -364.1,382.1   -364.1,381.2 -364.1,381 -364.1,380.8 -364,380.4 -363.8,380.2 -363.4,379.8 -363.3,379.6 -363.2,379.5 -363.2,379.1 -363.2,379   -363,378.5 -362.6,377.4 -362.3,377.1 -361.6,377 -361.4,376.8 -361.4,376.3 -361.3,375.7 -361.1,375.1 -361,374.7 -361.6,374.4 "/></svg>