<svg xmlns="http://www.w3.org/2000/svg" xmlns:xlink="http://www.w3.org/1999/xlink" version="1.1" x="0px" y="0px" viewBox="-461 335 100 100" fill="#e0e0e0" style="enable-background:new -461 335 100 100;" xml:space="preserve"><polygon points="-361.3,366.9 -362.4,366 -363.5,364.1 -364.6,363.4 -365.2,363 -365.5,362.4 -365.2,361.9 -364.6,361.7   -364.1,361.2 -364.3,360.3 -364.8,360 -365.4,360 -365.9,359.8 -365.9,359 -366.3,359.1 -366.6,358.7 -366.9,358.2 -367.2,357.8   -367.7,356.5 -367.7,356.3 -367.6,355.8 -367.2,355.1 -367,354.6 -366.8,354 -366.7,353.6 -366.9,353.4 -367.4,353.3 -367.7,353.2   -368.3,352.4 -368.6,352.2 -373,352.6 -374.3,352.3 -376.2,353.4 -377.7,353.8 -377.9,353.9 -378.2,354.2 -378.1,354.3 -378,354.4   -378,354.8 -378.2,356.2 -378.2,357 -378.2,357.8 -377.8,358.9 -377.1,359.3 -376.8,360.1 -376.7,361.1 -377.3,360.4 -377.7,360.1   -378.9,359.9 -381.1,358.8 -382,358.6 -382.8,358.7 -385,359.6 -385.8,359.6 -388.3,359.3 -388.8,358.9 -388.8,359.7 -388.8,360.3   -389,360.7 -389.4,360.9 -389.8,361 -390.2,360.9 -390.9,360.9 -391.6,361.1 -392.1,361.5 -392.4,362.1 -392.5,362.6 -392.7,363   -393.3,363.5 -394.3,363.7 -395,363.2 -395.7,362.6 -396.6,362.3 -402.4,362.5 -407,362.1 -408.8,362.7 -410,364.3 -410.6,363.4   -411,363.4 -412.2,364.1 -412.9,364.2 -413.3,364.1 -413.7,364.3 -414.2,365 -414.6,365.8 -415.1,367.2 -415.7,368.6 -415.9,368.7   -416.6,369.1 -417.4,369.2 -417.7,369 -418.2,369.3 -418.4,369.5 -418.5,369.8 -418.9,370.3 -419.1,370.8 -419.6,370.7   -419.7,370.8 -420.4,371.5 -420.7,371.7 -421,371.7 -421.7,371.8 -422,371.9 -422.5,372.6 -422.8,373.4 -423,374.2 -423.6,374.4   -424,374 -424.4,373.2 -424.8,372.6 -425.9,372.9 -426.4,372.8 -427.4,372.3 -427.6,372.1 -427.7,371.9 -427.8,371.7 -428.1,371.6   -429.2,371.9 -435.9,371.7 -436.3,371.5 -438.1,370 -438.6,369.7 -439.1,369.6 -439.7,369.6 -440.8,369.8 -441.3,369.7   -444.2,368.3 -445.1,368.2 -447.2,368.5 -447.7,368.5 -449.8,368 -450.2,368 -450.2,368.3 -450.3,368.7 -450.4,368.9 -450.6,369.2   -450.6,370.3 -451,371.1 -451.6,371.4 -452.4,371.3 -453.5,371.5 -454.3,372.2 -454.9,373.2 -455.7,374 -457.2,374.8 -457.9,375.3   -458.3,375.5 -458.8,375.6 -459.1,376 -459.6,376.9 -460.2,377.9 -461,378.4 -460.8,378.9 -460.6,379.4 -460.4,380.6 -459.9,381.1   -459.8,381.8 -459.5,382.2 -458.6,382.1 -459.1,381.3 -458.6,381.4 -457.7,381.5 -457.2,381.7 -456.3,381.9 -455.7,382.4   -454.8,383.3 -454,383.4 -453.1,383.4 -452.3,383.5 -452.1,384.4 -453,386 -456.5,388.7 -457.3,389.7 -457,389.9 -456.9,390.2   -457,390.5 -457.3,390.9 -457.4,391 -457.9,391.4 -457.5,391.9 -457.3,392 -457.3,392.1 -457.3,392.1 -457.3,392.2 -456.4,393.2   -455.4,393.1 -454.4,392.6 -453.3,392.4 -452.8,393.2 -453.2,395 -454.5,397.9 -454.6,399.4 -454.1,400.4 -453.2,400.9 -452.1,401   -451.6,401.1 -450,402.3 -447.9,403.3 -445.3,407.6 -445,407.9 -444.5,408.2 -444.3,408.2 -444.2,408.3 -444.5,408.9 -445.7,410.5   -447.2,410.7 -448.4,410 -450,410.1 -449.5,410.7 -449,411.2 -448.7,411.7 -448.7,412 -453.9,412.7 -454.5,412.6 -454.4,413   -454.2,413.2 -454,413.4 -453.7,413.5 -453.7,413.8 -453.9,414.2 -453.8,414.6 -453.9,414.8 -452.6,416.2 -448.5,416 -447,417   -446.5,417.4 -446.1,417.5 -444.3,417.8 -444,417.5 -443.7,417.1 -443.2,416.7 -441.8,416 -441.4,415.5 -442,414.7 -442,414.2   -441.9,413.9 -441.7,413.7 -440.3,414 -439.9,414.2 -439.4,414.7 -438.6,415.2 -437.8,415.5 -437,415.6 -436.1,415.4 -434.6,414.7   -433.8,414.4 -433.1,414.6 -431.8,415.3 -430.4,415.6 -428.9,415.4 -427.7,414.7 -427.1,414.2 -425.9,413.2 -425.4,412.5   -425.3,411.9 -425.1,410.7 -424.9,410.1 -424.6,409.6 -423.8,408.7 -423.5,408.2 -423.1,407.3 -422.9,407 -422.4,406.8 -422,407   -421.9,407.7 -422,408.5 -421.9,409.1 -421.6,409.7 -421.2,410.1 -420.2,411 -419.9,411.1 -419.7,411.2 -419.5,411.4 -419.5,411.8   -419.6,412.6 -419.6,412.8 -419,413.3 -416,414.6 -415.5,415.9 -414.2,416.2 -412.9,415.7 -412.3,414.6 -412.2,413.7 -411.6,413.7   -410.9,414.2 -410.3,414.7 -409.6,414.8 -409.2,414.9 -408.9,415.2 -407.3,415.2 -404.7,417.5 -403.3,417.7 -400.2,416.5   -399.2,416.5 -398.8,416.4 -398.5,416.2 -398,415.4 -397.7,415.1 -399.2,414 -399.7,413.3 -399.9,412.3 -400.1,411.1 -400.3,410.6   -400.6,410.1 -400.6,409.7 -400.2,409.5 -400,409.3 -399.9,409 -399.7,408.7 -398.8,408.4 -398.4,408.2 -397.9,408 -397.3,408   -397.5,407.6 -398,406.8 -398.5,406.1 -398.6,406 -398.7,406 -399.1,406.2 -399.3,406.3 -399.3,406.5 -399.4,406.6 -399.8,406.4   -400.1,406.2 -400.3,406 -400.6,405.4 -400.9,405 -401.2,404.9 -401.2,404.7 -401,404.2 -400.8,403.9 -399.5,403.2 -395.5,401.9   -395.1,401.5 -395.1,401.1 -395.3,400.6 -395.1,400.2 -394.7,400 -394.4,400.1 -394,400.2 -393.7,400.3 -393.3,400.1 -392.8,399.7   -392.4,399.5 -390.4,399.9 -389.2,399.9 -388.7,399.8 -388,399.4 -387.7,398.9 -387.7,398.3 -388.1,397.4 -388.2,396.8   -388.1,396.3 -387.8,395.7 -387.7,395.2 -387.6,394.4 -387.7,392.1 -387.5,391.1 -387.1,390.6 -387,390.1 -387.4,389.4   -387.8,389.1 -388.7,388.8 -389.1,388.5 -390,387.6 -390.4,386.6 -390.4,385.4 -390,384.1 -389.4,383 -388.8,382.3 -388.2,381.9   -385.3,382.1 -384.7,381.7 -384.1,380.6 -383.7,380.3 -383.2,380.1 -382.7,379.9 -381.1,379.9 -379,378.8 -378,378.6 -377.5,378.4   -376.8,378.1 -376.1,377.7 -375.7,377.2 -375.5,376.6 -375.5,376 -375.5,375.3 -375.5,374.5 -374.4,374.7 -374,374.6 -373.7,374.4   -373.5,374 -373.2,373.8 -372.8,373.7 -372.5,373.8 -371.7,374.6 -371.3,374.8 -370.8,375 -370.5,375 -369.3,374.7 -368.6,374.7   -368.5,374.5 -368.5,374 -368.7,373.8 -369.2,373.4 -369.4,373.2 -369.4,372.8 -369.4,372.1 -369.4,371.7 -369.8,370.4   -369.9,369.8 -369.9,369.1 -369,368.1 -368,367.7 -367.5,367.4 -366.9,367.2 -366.4,366.7 -366.2,367 -366,366.7 -365.6,367   -365.2,367 -364.8,367 -364.5,367 -364.2,367.2 -363.7,367.8 -363.4,367.9 -363.1,368 -362.4,367.9 -362.1,367.9 -361.8,368.1   -361,368.7 "/></svg>