<svg xmlns="http://www.w3.org/2000/svg" xmlns:xlink="http://www.w3.org/1999/xlink" version="1.1" x="0px" y="0px" viewBox="-461 335 100 100" fill="#e0e0e0" style="enable-background:new -461 335 100 100;" xml:space="preserve"><path d="M-431,339.1L-431,339.1l0.1-0.1l-0.1-0.1l-0.1,0l0,0.1L-431,339.1L-431,339.1z M-431.8,338.9l0.1-0.1l0,0l0-0.1l0-0.2l0-0.1  l0-0.1l0,0l0,0l0,0.2l0,0.1l0,0l0,0.1L-431.8,338.9L-431.8,338.9L-431.8,338.9L-431.8,338.9z M-372.9,346.3l-0.1-0.1l-0.1-0.1  l-0.2,0l-0.1,0l-0.1,0l-0.1,0.1l-0.1,0l-0.1,0l0,0l-0.3-0.1l-0.1,0l-0.1-0.1l0,0l-0.1,0l-0.1,0l-0.1-0.1l-0.1-0.1l0.1,0.2l0,0.1  l0,0.2l0,0.2l0,0l0.1,0l0.1,0l0,0.1l0,0.1l-0.1,0l-0.1,0l-0.1,0l-1.1,0.2l-0.1,0l-0.1-0.1l0.1-0.1l0.1-0.1l0.1,0l0.2,0l0.1,0  l0.1-0.1l0-0.1l0-0.3l0-0.1l0.2-0.1l0.2,0l0-0.1l-0.2-0.6l-0.1-1.3l-0.1-1l0-0.2l0-0.2l0.1-0.1l0.1-0.1l0.2-0.4l0-0.1l-0.1-0.2  l-0.2-0.1l-0.2-0.1l-0.1-0.3l0-0.3l0-0.5l0-0.1l0.2-0.5l0-0.2l0-0.2l0-0.1l0-0.1l0-0.1l0,0l0.2-0.2l0.2-0.4l0.1-0.1l0.2-0.2l0.1-0.1  l0-0.1l0.1-0.5l0-0.2l0.2-0.3l0-0.2l-0.1-0.1l-0.1-0.1l-0.2,0l-0.2,0l-0.1,0l-0.2-0.1l-0.1,0h-0.6l-0.1,0l-0.4-0.3l-1.4-0.5l-0.1,0  l-0.1,0.1l-0.3,0.1l-0.3,0.1l-0.2,0l0,0l-0.1,0l0,0l0,0l0,0l0,0l-0.2,0.1l-0.1,0l-0.1,0l-0.1,0.1l-0.2,0.2l-0.1,0.1l0,0.2l0,0.2  l0,0.2l0,0.2l-0.1,0.1l-0.2,0.2l-0.2,0.3l-0.1,0.1l-0.3,0.1l-0.6,0.5l-0.1,0.1l-0.3,0.1l-0.1,0l-0.1,0l-0.1,0l-0.3,0l-0.1,0  l-0.1,0.1l-0.4,0.2l-0.1,0l-0.7,0l0,0l0,0l-0.1,0l-0.1,0l-0.1,0l-0.1,0.1l0,0l-0.1,0l-0.1,0.1l-0.1,0l-0.2,0.2l-0.3,0l-0.6-0.1  l-0.2,0l-0.1,0l-0.1,0l-0.1,0.1l0,0l-0.3,0l-0.2,0l-0.1,0l-0.1,0.1l-0.2,0.3l-0.1,0.1l-0.1,0l-0.4,0.2l-0.1,0l-0.1,0l-0.5,0l-0.1,0  l-0.1,0l-0.1,0l-0.1,0.1l-0.1,0.2l-0.3,0.1l-1,0.2l-1,0.2l-0.3,0l-0.1,0l-0.1,0l-0.1,0l-0.6-0.2l-0.3-0.2l-0.3-0.1l-0.5-0.1l-0.1,0  l-0.4,0.1l-0.5,0l-0.1,0l-0.2,0.1l-0.3,0.1l-0.5,0.1l-0.2,0l-0.1,0l-0.1,0.1l0,0l0,0.1l0,0.1l0,0.1l-0.1,0l-0.2,0l-0.1,0l-0.1,0  h-0.1l-0.1,0l0,0.1l0,0.1l-0.1,0.1l-0.2,0.2l-0.1,0.1l-0.2,0.1l-1.3,0.1l-0.4-0.1l-0.9,0l-0.4,0.2l-0.2-0.1l-1.1-0.6l-0.2,0  l-0.4,0.1l-0.2,0l-0.1,0l-0.1,0.1l-0.8,0.4l-0.2,0.1l-0.1,0.1l-0.3,0.1l-0.1,0.1l-0.3,0.3l-0.4,0.3l-0.5,0.4l-0.7,0.2l0,0l-0.1,0  l-0.1,0l0,0l-0.1,0.1l0,0l-0.3,0.1l-0.3,0.2l-0.6,0.3l-0.3,0.2l-0.1,0l-0.1,0l-0.3,0l-0.2,0.1l-0.2,0l-0.2,0.1l-0.1,0.1l-0.3,0.1  l-0.3,0l-0.3,0l-0.3-0.1l-0.2-0.2l-0.3-0.3l-0.2-0.1l-0.2,0l-0.5,0.1l-0.3,0l-0.3-0.1l-0.1,0l-0.3-0.1l-0.3,0l-0.7-0.3h-0.1l0,0.1  l-0.1,0l-0.1-0.1l0-0.1l-0.1-0.1l-0.1-0.1l-0.1,0l-0.1,0l-0.1,0l-0.1,0l-0.1,0.2l-0.1,0l-0.1,0l-0.1,0.1l-0.1,0.1l-0.1,0.1l-0.1,0  l-0.6,0.2l-0.1,0.1l-0.2,0.3l-0.2,0.1l-0.2,0.1l-0.3,0.1l-0.3,0.1l-0.1,0l-0.1,0l-0.1,0l-0.1,0l-0.1,0.1l-0.5,0.5l-0.7,0.4l-0.2,0.1  l-0.1,0l-0.8,0.5h-0.1l0,0.1l-0.2,0.1l-0.5,0l-0.2,0l-0.5-0.2l-0.3-0.1h-0.2l-0.3,0l-0.3,0.1l-0.2,0.1l-0.2,0.1l-0.3,0l-0.6-0.1  h-0.1l-0.5,0.1l-0.1,0l-0.1,0l-0.1-0.1l-0.3-0.1l-0.2-0.1l-0.9-0.8l-0.4-0.2l-0.5-0.5l-0.8-0.5l-0.7-0.6l-0.5-0.7l-0.7-0.7l-0.3-0.6  l-0.2-0.3l-0.1-0.2l-0.1-0.1l0-0.1l0,0l-0.1,0l-0.1,0l0,0l-0.2-0.2l-0.1-0.2l-0.1-0.2l0.1-0.7l0-0.1l-0.1,0l-0.1,0.1l0,0.1l-0.1-0.1  l-0.2-0.2l-0.1,0l-0.1,0l-0.2-0.2l-0.1,0l-0.1-0.1l-0.2-0.3l-0.1-0.1l0,0.3l-0.2,0l-0.1-0.1l-0.1-0.1l-2.3,3.6l-0.1,0.2l-0.1,0.3  l-0.1,0.1l-0.1,0.1l-0.3,0.1l-0.1,0.1l-0.1,0.1l0,0.1l0,0.1l-0.1,0.1l-0.3,0.2l-0.1,0.1l-0.1,0.2l-0.1,0.3l-0.1,0.1l-0.1,0.1  l-0.1,0.1l-0.1,0l-0.1,0.1l0,0.2l0.1,0.3l0.2,0.3l0.4,0.4l0.1,0.1l0.1,0.2l0.1,0.7l0.1,0.5l0.2,0.5l0.2,0.2l0.7,0.5l0.2,0.2l0.1,0.2  l0.1,0.2l0.1,0.2l0.1,0.3l0.2,0.2l0.3,0.1l0.3,0.1l0.3,0.1l0.1,0.2l0.2,1.2l0.1,0.3l0.2,0.2l0.2,0l0.1,0l0.1,0.1l0.1,0.2l0,0.1  l0.1,0.1l0.1,0.1l0.1,0.1l0.2,0.3l0,0.1l0,0.2l0,0.1l0.1,0.1l0.4,0.2l0.6,0.3l0.1,0l0.2-0.1l0.1,0l0.1,0.1l0.6,0.5l0.6,0.6l0.9,0.8  l0.5,0.5l0.3,0.2l0.6,0.2l0.6,0.2l0.6,0.2l0.6,0.2l0.6,0.2l0.6,0.2l0.6,0.2l0.6,0.2l0.6,0.2l0.6,0.2l0.6,0.2l0.6,0.2l0.6,0.2  l0.6,0.2l0.6,0.2l0.6,0.2l0.6,0.2l1.2,0.4l0.6,0.2l0.6,0.2l0.6,0.2l0.6,0.2l0.6,0.2l0.6,0.2l0.6,0.2l0.6,0.2l0.6,0.2l0.6,0.2  l0.6,0.2l0.6,0.2l0.6,0.2l0.6,0.2l0.5,0.2l0.4,0.2h7.3l-0.4,0.3l-0.4,0.3l-0.4,0.3l-0.4,0.3l-0.4,0.3l-0.4,0.3l-0.4,0.3l-0.4,0.3  l-0.4,0.3l-0.4,0.3l-0.4,0.3l-0.4,0.3l-0.4,0.3l-0.4,0.3l-0.4,0.3l-0.4,0.3l-0.4,0.3l-0.4,0.3l-0.4,0.3l-0.4,0.3l-0.4,0.3l-0.4,0.3  l-0.4,0.3l-0.4,0.3l-0.4,0.3l-0.4,0.3l-0.4,0.3l-0.4,0.3l-0.1,0.1l-0.3,0.3l-0.3,0.3l-0.1,0.1l-0.5,0.5l-0.4,0.5l-0.4,0.5l-0.4,0.5  l-0.4,0.5l-0.4,0.5l-0.4,0.5l-0.4,0.5l-0.4,0.5l-0.8,0.9l-0.8,0.9l-0.8,0.9l-0.8,0.9l-0.8,0.9l-0.8,0.9l-0.8,0.9l-0.8,0.9l-0.4,0.5  l-0.6,0.6l-0.2,0.1l-0.4,0l-0.4,0l-0.4,0l-0.4,0l-0.4,0l-0.4,0l-0.4,0l-0.4,0l-0.4,0l-0.4,0l-0.4,0l-0.4,0l-0.4,0l-0.4,0l-0.4,0  l-0.4,0l-0.4,0l-0.4,0l-0.3,0.1l-0.6,0.2l-0.2,0l-0.7,0.2l-0.6,0.1l-0.8,0.2l-0.5,0.2l-0.8,0.4l-0.8,0.4l-0.8,0.4l-0.6,0.5l-0.5,0.4  l-0.1,0.1l0,0.1l-0.1,0.2l-0.1,0.5l-0.1,0.2l-0.2,0.3l-0.3,0.2l-0.3,0.1l-0.5,0.1l-1.1,0.2l-1.1,0.2l-0.9,0.1l-0.6,0l-0.6,0  l-0.2,0.1l-0.3,0.1l-0.4,0.3l-0.5,0.3l-0.1,0.1l0,0.1l0,0.2l0,0.1l-0.1,0.1l-0.1,0.1l-0.6,0.9l-0.6,0.9l-0.6,0.9l-0.6,0.9l-0.4,0.5  l-0.4,0.5l-0.4,0.5l-0.4,0.5l-0.6,0.6l-0.6,0.6l-0.6,0.6l-0.6,0.6l-0.2,0.2l-0.1,0.2l0,0.4l0,0.9l0,1v18.2l0,0.6l0,0.5l0,0.5l0,0.8  l0,0.8l0,0.8l0,0.8l0,0.5l0,0.5l0,0.6l0.2,0.2l0.2,0.2l0.2,0.2l0.2,0.2l0.4,0.5l0.4,0.5l0.4,0.5l0.3,0.4l0.4,0.5l0.4,0.5l0.4,0.5  l0.4,0.5l0.3,0.4l0.1,0.2l0,0.1l0,0.6l0.2-0.2h0l0.1-0.1l0.3-0.4l0.2-0.1l0.1-0.1l0.3-0.5l0.1-0.2l0.2-0.2l0.8-1.2l0-0.1l0-0.1  l-0.1-0.3l0-0.1h0l0,0.2l0.2,0.1l0.2,0l0.1-0.2l-0.1,0l-0.1,0l-0.1,0l0-0.1l0-0.1l0.3-0.3l0-0.1l0-0.1l0-0.1l0-0.1l0.2-0.2l0-0.1  l0-0.1l0.1-0.1l0-0.1l0-0.1l-0.1,0l0,0l0-0.1l0-0.1l0-0.1l0-0.1l0-0.1l0-0.1l0-0.1l0-0.1h0l0,0.1l0,0.3l0,0.3l0,0.1l0.1,0l0.2-0.2  l0-0.1l0-0.1l0.1-0.2l0.1-0.1l0.1-0.1l0-0.1l0.1-0.2l0-0.1l-0.1,0l0.1-0.1l0.1,0l0.2,0l0.1,0l0.1-0.1l0.1-0.1l0.2-0.2l0.3-0.5l0,0  l0.1,0l0,0v-0.1l0-0.1l0.7-0.9l0.2-0.2l0.1-0.1l0-0.1l0.1-0.1l0.4-0.3l0,0l0,0l0,0l0,0l0,0l0.1-0.1l-0.1-0.1l0-0.1l0.3-0.4l0.1,0  l0.2,0l0,0l0-0.1l0-0.1l0.2-0.3l0.5-0.5l0.5-0.4l0.4-0.3l0.9-1l1.5-1.6l1.4-1.4l1.3-1.5l1.4-1.3l0.3-0.3l0.1,0l0.1-0.1l0.3-0.5  l0.3-0.2l0.8-0.4l0.3-0.4l0.1-0.1l0.2,0l0.1-0.1l0.5-0.5l0.1-0.1l0,0l0.1,0l0,0l0-0.1l0-0.1l0-0.1l0.1-0.1l0.3-0.2l0.2-0.1l0.8-0.8  l1.6-1.2l0.9-0.6l1-0.7l0.1,0l0.1-0.1l1.2-0.8l1.4-0.7l0.1,0l0.2,0l3.5-2l0.8-0.5l1.5-0.9l0.1-0.1l0.1-0.2l0.3-0.2l0.1-0.1l0.1-0.2  l0.1-0.1l0.7-0.7l0.3-0.1l0.1-0.1l0.1-0.1l0.1-0.1l0.1-0.1l0.1,0l0,0l0-0.1l0-0.1l0-0.1l0.5-0.3l0.5-0.5l1-0.8l0.5-0.6l1-0.9  l1.3-1.5l1.4-1.5l0.9-1l1.1-1.1l0.6-0.9l2.7-2.9l0.8-1.1l1.1-2.2l0.9-1.2l0.9-0.9l0.7-1.2l0.5-0.5l0.2-0.3l0.4-0.8l1.1-1.7l1.4-2.3  l0.3-0.6l0.1-0.6l0-0.2l-0.1-0.3l0-0.2l0-0.2l0.9-1.9l0.4-1l0.3-0.5l0.5-1.1l1.1-1.6l0.5-0.5l1.2-2l0-0.1l0-0.3l0.1-0.1l0.2-0.2  l0.2-0.3l0-0.1l0-0.2l0-0.2l-0.1-0.1l0-0.1l0.1-0.5l0.1-0.3l0.1-0.2l0.6-0.7l0.9-0.6l0.2-0.2l0.2-0.3l0.2-0.6l0.1-0.2l0.5-0.7  l0.1-0.1l0.1-0.1l0.1-0.1l0.1,0l0.1-0.1l0.1-0.1l0.1-0.3l0-0.1l0-0.4l0.1-0.2l0.3-0.4l0.1-0.3l0.1-0.6l0.1-0.3l0.1-0.2l0.2-0.2  l0.2-0.2l0.8-0.6l0.2-0.3l0.1-0.3l0-0.2l-0.1-0.5l0-0.1l0.2-0.4l0.1-0.1l0.1-0.1l0.3-0.1l0.1-0.1l0.5-0.7l0.1-0.1l0-0.1l0-0.2  l-0.2-0.5l-0.1-0.4l0-0.2l0.1-0.2l0.1-0.4l0-0.1l0-0.1l0-0.2l0.1-0.1l0.1-0.3l0.1-0.4l0-0.1l0.1-0.2l0-0.1l0.1-0.5l0.1-0.1l0-0.1  l0-0.1l-0.1-0.2l0-0.3l0.1-0.6l0-0.3l-0.1-0.6l0.1-0.1l0.8-0.4l0.6-0.2l1.1-0.1l0.1,0l0,0.1l0,0.1l0,0l0.3,0.1l0.1,0l0,0l0.1,0  l0.1,0l0.1,0l0,0l0,0l0,0h0l0,0l0-0.1l0,0l0-0.1l0.1-0.3l0-0.1L-372.9,346.3z"/></svg>