<svg xmlns="http://www.w3.org/2000/svg" xmlns:xlink="http://www.w3.org/1999/xlink" version="1.1" x="0px" y="0px" viewBox="-345 257 100 100" fill="#e0e0e0" style="enable-background:new -345 257 100 100;" xml:space="preserve"><path d="M-340.7,268.7l-0.2-0.2l-0.4-0.2l-0.8,0.3l-0.4-0.1l-0.2,0.7l0.5,0.4l0.6,0.1l0.3-0.2l-0.1-0.1l-0.2,0l-0.1-0.1l0-0.2l0.1,0  l0.4,0l0.3,0.2l0.2-0.1L-340.7,268.7z M-247.6,276.7l-0.2,0l-0.4,0.1l-0.5,0.1l-0.3,0.2l-0.1,0.3l0.1,0.4l0.2,0.3l0.4,0.2l0.4,0.1  l0.3-0.1l0.2-0.4l0.2-0.5l0-0.5L-247.6,276.7z M-307.2,351.3L-307.2,351.3l-0.1-0.1l-0.1,0l0,0l-0.1,0.3v0.1l0.1,0.1l0.2,0l0.1-0.1  l0-0.2L-307.2,351.3z M-307.5,352L-307.5,352l-0.2,0.2l-0.1-0.2l-0.1-0.5l-0.2-0.2l-0.7-0.3l-0.2-0.2l-0.3-0.2h-0.3l-0.7,0.1l-1.2,0  l-0.2,0l-0.6,0.4l-1.5,0.3l-2.4,0.8l-0.5,0.3l-0.3,0.2l-0.9,0.9l-0.5,0.3l-0.2,0.2l-0.3,0.4l-0.3,0.7l0.2,0.6l0.4,0.5l0.8,0.7  l0.2,0.1l0.2,0l0.6-0.5l0.3-0.1l3.2,0l1-0.3l0.6-0.1l2-0.7l0.3-0.2l0.1-0.1l0.4,0l0.2-0.1l0.1-0.1l0.3-0.5l0.4-0.5l0.2-0.3l0.1-0.3  l0-0.1l0.1-0.2l0-0.1v-0.1l-0.1-0.2l0-0.1l0.1-0.1l0.1,0l0.1-0.1L-307.5,352L-307.5,352z M-340.5,272.3l-0.2,0l0,0.1v0l-0.1,0.1  l-0.1,0.2l0.1-0.1l0.1-0.1l0.1,0l0.1,0l0.1,0l0-0.1l-0.1-0.1L-340.5,272.3z M-318.2,273.5l0.1,0l-0.1-0.1l-0.2,0l-0.1,0  L-318.2,273.5L-318.2,273.5z M-319.7,274.2L-319.7,274.2l0.1-0.1l-0.2-0.1l-0.1,0l0,0.1L-319.7,274.2z M-326.1,275.5l0,0.2l0.1,0  l0.1-0.1l0-0.1L-326.1,275.5z M-314.7,278.2l0.1-0.1l0-0.1l0.1-0.1l0-0.3l-0.3,0l-0.1,0l0,0.2l0.1,0.1L-314.7,278.2L-314.7,278.2z   M-312,282.7l-0.1-0.1l-0.1,0.1l0.1,0.2l0.2,0.1L-312,282.7z M-320.3,283.9h0.2l0-0.1l0-0.1v-0.1l0-0.1l-0.1,0l0,0l-0.1-0.1l-0.2,0  l0,0.1l0,0.2L-320.3,283.9z M-317.8,283.9h0.1l0.1,0.1l0.1,0.1l-0.1-0.1l-0.1-0.1l0-0.2l-0.1-0.1l-0.1,0.1l-0.1,0l0.1,0.2  L-317.8,283.9z M-316,285.1L-316,285.1l0.2,0.1l-0.1-0.3l-0.1,0V285.1z M-320.6,285.3l-0.1,0.1l0.1,0.1h0.1l0,0l0.1-0.5l-0.3,0.1  l-0.1,0.1l0.1,0L-320.6,285.3z M-322.5,285.8L-322.5,285.8l0.1,0l0-0.1l0-0.1l0.1,0h0.1v-0.1l-0.2-0.1l0,0l0,0.1l0,0.1l-0.1,0.1  l0,0.1L-322.5,285.8L-322.5,285.8z M-321.9,286.6l0.1,0.1l0.2,0l0.1-0.1h0l-0.1,0.1l-0.1,0L-321.9,286.6l0.1-0.2l-0.1-0.1h-0.1  L-321.9,286.6L-321.9,286.6z M-320.7,293.2L-320.7,293.2l0.1,0l0-0.1l0-0.2l0-0.1l-0.1,0l-0.1,0.2l-0.1,0l-0.2,0.1l-0.1,0.1l0.1,0.1  L-320.7,293.2z M-316.2,299.5l-0.1-0.1l0-0.2l-0.1,0l-0.1,0.2l-0.1,0.1l-0.1,0.2l0,0l0.1-0.1l0.1,0.1l0,0L-316.2,299.5L-316.2,299.5  z M-320.3,301.6l-0.1-0.1l-0.2,0l-0.1,0l0,0.1l-0.1,0l-0.1,0.1l0.2,0L-320.3,301.6z M-322,303.8L-322,303.8l0.1-0.2l0.1,0l0.1,0.1  l-0.1-0.2l-0.2-0.1l-0.1,0.1l0,0.1L-322,303.8z M-316.1,308.7l0.2-0.1l0-0.1l-0.1,0l-0.1,0l0,0l0,0h0l0,0.1L-316.1,308.7z   M-314.7,309.3l0.2,0l0,0l0,0l0.1-0.1l-0.1,0l-0.1-0.1l-0.1,0l-0.1-0.1l-0.2,0l0,0.1l0,0.1l0,0.1v0.1l0.1,0.1l0-0.1L-314.7,309.3  l-0.1-0.2l0,0.1L-314.7,309.3L-314.7,309.3z M-312,309.6l-0.1-0.2l-0.2,0.1l0,0.2l0.1,0.1l0.2-0.1L-312,309.6z M-321.6,317.7  L-321.6,317.7l0.1,0.1l0,0.1l0,0l-0.1,0l-0.1,0l0,0l0,0.1l0.1,0.1l0,0.1l0.2-0.1l0.1,0l0,0l0.1-0.1l0-0.1l0-0.1l-0.1,0l0-0.1  l-0.1-0.1L-321.6,317.7L-321.6,317.7z M-319.6,319.3l0.1-0.1l0.1,0l0-0.1l0-0.2l-0.1-0.1l-0.1-0.1l0,0.1l0,0.1l-0.1,0.1v0.1l0,0.1  L-319.6,319.3L-319.6,319.3z M-321.4,322.8L-321.4,322.8l0.1-0.3l-0.1-0.1l-0.1,0l-0.1,0l0,0.2l0.1,0.1L-321.4,322.8z M-317.7,324.3  L-317.7,324.3l-0.2-0.2l-0.1,0l-0.1,0l0.1,0.1l0,0.2l0,0.1l-0.1,0.1h0.1l0.1,0.1l0.1-0.1l0.1,0l0-0.1l0-0.2L-317.7,324.3z   M-318.4,324.5L-318.4,324.5l-0.2,0.1l-0.1,0.2l0,0.1l0.1,0.1l0.1,0l0-0.2l0-0.1l0-0.1L-318.4,324.5L-318.4,324.5z M-317.4,325  l-0.1-0.1l-0.1-0.1l-0.1,0v0.1l-0.1,0l-0.1,0l0.1,0.1l0.1,0.2l0,0.1l0.1,0.2l0.2,0.1l0.1-0.1l-0.1-0.2L-317.4,325z M-299.9,328.3  L-299.9,328.3l0.1,0l0-0.1l0.1-0.1l0.1,0l0-0.1l0-0.1l-0.1,0.1l-0.1,0l-0.1,0l0,0.1l0,0.1V328.3L-299.9,328.3z M-316.8,328.4  l0.1-0.1l-0.1-0.1l0-0.1l-0.1,0l-0.1,0.1l-0.1,0.1l0.1,0.4l0.1,0l0-0.1l0,0L-316.8,328.4L-316.8,328.4z M-333.7,329.5L-333.7,329.5  L-333.7,329.5l-0.1,0.2l-0.2,0.3l0,0l-0.1,0l0,0l0,0.1l0,0.1l0.1,0.1l0-0.1l0.1-0.1l0.1,0l0-0.1l0.1,0l0.1-0.1l0.1-0.2l0-0.1l0-0.2  L-333.7,329.5z M-320.3,329.7l0.1,0.1l0.1-0.1v-0.2l-0.2,0.1L-320.3,329.7z M-331.4,330.2l0.1,0.2l0.1-0.1l0.1-0.1l-0.1-0.1  L-331.4,330.2z M-329.7,330.6L-329.7,330.6L-329.7,330.6l-0.2,0.1l0,0.1l0.1,0.1l0.1,0.1l0.1-0.1l0.1-0.1l0-0.1L-329.7,330.6  L-329.7,330.6z M-322.2,331l0-0.1l-0.1,0h-0.1l-0.1,0.1l-0.1,0l0.1,0.2l0.1,0l0.1,0l0.1,0.1l0.1,0.1v-0.2L-322.2,331L-322.2,331z   M-298.3,331.2l-0.1,0.1l-0.1,0.1l-0.1,0l-0.1-0.1l-0.1,0.1l0,0.1l0.1,0l0.1-0.1l0,0.1l0.1,0.1l0.1,0l0-0.1l0-0.1l0.1,0l0.1,0v-0.1  l-0.1-0.1L-298.3,331.2z M-305,331.5l-0.1-0.1l0,0l-0.1,0l0,0l0.1,0.2l0.1,0L-305,331.5z M-300.5,332L-300.5,332L-300.5,332  L-300.5,332z M-300.5,332.1L-300.5,332.1L-300.5,332.1L-300.5,332.1z M-300.5,332.1L-300.5,332.1l-0.1,0.1L-300.5,332.1z   M-304.7,333.3l0.1-0.1l0-0.2l-0.1,0l0,0.2l-0.1,0l0-0.1l-0.1,0l0,0.1h-0.1l0,0.1l0.1,0l0.1,0.1L-304.7,333.3z M-315.6,334.1  L-315.6,334.1l0.1,0.1l0-0.2L-315.6,334.1z M-315.5,334.3L-315.5,334.3L-315.5,334.3L-315.5,334.3L-315.5,334.3z M-332.4,334.4  L-332.4,334.4L-332.4,334.4l-0.2,0.1l0,0.1l0,0.1L-332.4,334.4L-332.4,334.4z M-332.2,335.3L-332.2,335.3l-0.2-0.1l-0.1,0l0,0.1  l0.1,0.2l0.1-0.1l0.1,0l0.1,0l0.1,0l-0.1,0L-332.2,335.3z M-314.5,336.4l0-0.1l-0.1,0l-0.1,0l0,0.1L-314.5,336.4L-314.5,336.4  L-314.5,336.4z M-300.8,337.3l0,0.1L-300.8,337.3l0.1,0.1l0,0l0,0l0-0.2l-0.2,0L-300.8,337.3z M-301.1,337.2l-0.1,0.1l0-0.1l0,0.5  l0.2-0.2l0-0.1l0.1,0L-301.1,337.2L-301.1,337.2z M-313.4,337.4l-0.1,0v0.2l0.1,0l0.1,0l0.1,0l0.1-0.1l-0.1-0.1L-313.4,337.4z   M-298.7,337.6l0.1,0.1l0.1,0v-0.1l-0.1,0L-298.7,337.6z M-322.9,337.8l-0.1,0l-0.1,0.1l-0.1,0.2l0,0.1l0,0l0.1,0.1l0.1,0.1l0,0  l0-0.1l0,0l0,0l0.1,0L-322.9,337.8l-0.1,0.2l0,0.1l0,0L-322.9,337.8z M-320.8,337.9L-320.8,337.9l-0.1,0l-0.1,0.1l0,0.1l-0.1,0.1  l0,0.1l-0.1-0.1l-0.1,0h-0.1l-0.1,0.1l0.1,0l0.1,0l0.1,0.1l0.1-0.2l0.1,0.1l0.1,0l0.1-0.2l0-0.1l0.1,0l-0.1-0.1L-320.8,337.9z   M-312.5,338.2L-312.5,338.2l0.2-0.1l0.1,0l-0.1-0.2l-0.1-0.1l-0.1,0l0,0l0,0l0,0.1l-0.1,0.1l0.1,0.2L-312.5,338.2z M-322.6,338.1  L-322.6,338.1l-0.2,0l0,0.1l-0.1,0l0,0.1v0.1l0,0l0.1,0l0,0l0.1,0l0.2-0.2L-322.6,338.1L-322.6,338.1z M-310.3,339.1l0.1,0.2l0-0.1  l0.1-0.1l0-0.1v-0.1l0-0.1l-0.1-0.2l-0.2,0.2l0,0.1L-310.3,339.1L-310.3,339.1z M-312.9,340.7L-312.9,340.7l0.2,0l0.1,0.1l0,0l0-0.1  l-0.1-0.2l-0.1,0l0,0l0,0.1L-312.9,340.7L-312.9,340.7z M-307.9,343l0.3-0.1l-0.1-0.3l-0.1,0l-0.1,0.1L-307.9,343L-307.9,343z   M-316.8,343.4l-0.1,0l-0.2,0l0.1,0.1l0.1,0.2l0.1,0.1l0.1,0l0-0.1l0-0.1h0.1l0,0l0,0l0-0.1l0-0.1L-316.8,343.4z M-283,323.1  l-0.1-0.1l-0.2,0l0.1,0.1l0.2,0.2L-283,323.1z M-283.4,324.8l-0.3,0.2l0.1,0.1l-0.1,0.2l0,0.2l0,0.2l0.1,0l0.1-0.1l0-0.1l-0.1,0  l0.1,0v-0.1l-0.1-0.1l0.1-0.2L-283.4,324.8z M-289.6,327.2l0.1,0.2h0l0.1,0l0-0.1l0-0.1L-289.6,327.2z M-286.8,328.8L-286.8,328.8  l-0.2-0.2l-0.1,0l0,0.1l0.1,0.2l0.1,0l0.1,0L-286.8,328.8L-286.8,328.8L-286.8,328.8z M-288.5,329.6l-0.2,0l-0.1,0l-0.1,0.1l0.1,0.2  l0.1,0.1l0.2,0l0,0.1h0l0.1-0.1l0-0.1L-288.5,329.6z M-287.9,330.3L-287.9,330.3l0.2,0l0.1-0.1l-0.1,0l-0.1,0l-0.1,0l-0.1,0.1  l-0.1,0l-0.1,0.1l-0.1-0.1l0,0.1l0.1,0L-287.9,330.3z M-285.9,330.8l-0.2-0.2l-0.2-0.2l0,0.1l0.1,0.1l0.1,0l0,0.1l-0.1,0l0,0.1  l0.1,0.2l0.2,0L-285.9,330.8l0.1,0.2l0.1-0.1l-0.1-0.1L-285.9,330.8z M-282.8,330.7l-0.1,0.2l-0.1,0.1l0,0.1l0.1,0l0.1-0.1l0.1-0.1  L-282.8,330.7L-282.8,330.7L-282.8,330.7z M-301.6,341.8L-301.6,341.8l-0.1-0.1l0-0.1l0-0.1l-0.1,0.1l-0.1,0l-0.1,0l0,0.1l0.1,0.2  l0.1,0.1l0.2,0.1h0l0,0L-301.6,341.8L-301.6,341.8L-301.6,341.8z M-319.1,274.4h0.1l0.2,0.2l0.1,0l0-0.1l-0.1-0.2l-0.1-0.2l-0.6,0.2  l0.1,0.1L-319.1,274.4z M-317.9,274.7l-0.4,0v0.1l0.2,0.2l0.2,0.2l0.1,0l-0.1-0.1l0,0L-317.9,274.7L-317.9,274.7z M-315.9,277  L-315.9,277l-0.5-0.1l-0.2-0.2l-0.2-0.1h-0.1l0,0l0.1,0.2l0.1,0.3l0.1,0.1l0.1,0l0.5,0L-315.9,277z M-314.7,276.9l-0.1,0l-0.1,0.1  l0,0.1l-0.1,0.1l-0.1,0.1l0.1,0.1l0.4,0.1l0.1,0l0-0.1l0-0.3L-314.7,276.9z M-315.6,279.7l0.1,0.4h0.2l0.2-0.1l0-0.1v-0.1l-0.1-0.1  l-0.1-0.1l-0.2-0.2l-0.1-0.1l-0.1,0l-0.1,0.2L-315.6,279.7L-315.6,279.7z M-316.7,282.2l-0.1,0l-0.6-0.2l-0.1,0l0,0.1l0,0.1l0.2,0.2  h0.1l0.1,0.1l0.1,0.1l0.2,0l0.1-0.2L-316.7,282.2L-316.7,282.2z M-315.3,286.2L-315.3,286.2l0.3,0l0-0.1l0-0.2l-0.4-0.1l0,0.1l0,0.1  L-315.3,286.2z M-315,299L-315,299l-0.1-0.3l-0.1-0.1l-0.1,0l-0.2,0l0,0.1l-0.1,0l-0.1-0.1l-0.1,0h-0.1l0,0.1l0.1,0.1l1,0.3l0.1-0.1  l0-0.1L-315,299z M-319.9,323.9L-319.9,323.9l-0.1,0.1l0,0.1l0,0l-0.1,0l-0.1,0l0,0.1l0.1,0.1l0.1,0l0.1,0l0.4,0l0.1,0l0.1,0l0,0.1  l-0.2,0.1l0,0.4l-0.1,0.2l0,0.1l0,0l0,0l0.2,0l0,0l0-0.1l0-0.1l0.3-0.1l0.2-0.2l0-0.3l0-0.1l-0.1-0.1l-0.1-0.1l0-0.1l0-0.1l0,0  l-0.1,0l0,0l0,0l-0.1,0l-0.1,0l-0.1,0L-319.9,323.9L-319.9,323.9z M-282.2,324.6l0,0.1l0,0.1l0.1-0.1l0.1,0l0.1,0.1l0,0.1l0.2-0.2  l0-0.2l0-0.2l0-0.2l0-0.2l-0.1,0l-0.1,0.1l-0.1,0l-0.1,0v0.1l-0.1,0.1l-0.1,0.1l0,0.1l0,0l0,0.1L-282.2,324.6z M-295.5,326.2  L-295.5,326.2l-0.2,0l-0.2,0l-0.2,0.1l-0.1,0.1l0,0.1l0.1,0.1l0.1,0l0.2,0l0.3-0.4L-295.5,326.2L-295.5,326.2z M-288.5,327.3  l0.2-0.2l0.2,0l0-0.1l-0.6-0.1l-0.2,0.1l-0.1,0.1l0.3,0.4L-288.5,327.3z M-284.4,328.6L-284.4,328.6L-284.4,328.6l0.3,0.1l0.2-0.1  l0.1-0.2l-0.1-0.2l-0.1,0l-0.1-0.1l-0.1-0.4l-0.1,0l0,0v-0.1l-0.1,0l-0.1,0.1v0.1l0,0.1l0,0.1l0,0.1l-0.1-0.1l0-0.1l0,0l0,0.3  l0.1,0.2L-284.4,328.6L-284.4,328.6L-284.4,328.6z M-283.4,328.7l-0.3-0.1l-0.1,0.1l0.1,0.1L-283.4,328.7l0.1,0.2l0.1,0l0.1,0v-0.1  l-0.1-0.1L-283.4,328.7z M-284.1,328.9l-0.3,0.1l-0.1,0.1l0.2,0.1l0.1,0h0.3l0,0l-0.2-0.2L-284.1,328.9z M-319.8,331.3L-319.8,331.3  l0.2-0.1l0.1,0h0.1l0,0l0-0.1l0.1,0l0.1,0h0.1l0.1-0.1l0.3-0.1l0-0.1l-0.2,0l0-0.2l-0.2-0.2l-0.2,0.2l0-0.1l0.1-0.1l0-0.1l-0.1,0  l-0.1,0l-0.3,0.2l-0.1,0.1l-0.1,0l-0.1,0.1l0.1,0.1l0.1,0.1L-319.8,331.3L-319.8,331.3z M-287.3,331L-287.3,331l-0.1-0.1l-0.5-0.3  l-0.1,0l-0.1,0.1l0,0.1l0,0.1l0,0.1l0.1,0l0.1,0l0.1,0.1l0,0.1l0,0.1l0,0.1l0.1,0l0.1-0.1l0.2-0.1l0.1,0l0.1,0l0.1,0l0.1,0l0.1-0.2  l0-0.1l0,0L-287.3,331z M-323.9,331.1h-0.1l-0.3,0.2l-0.2,0l-0.1-0.1l-0.1,0l0,0l0.3,0.2v0.1l-0.1,0v0.1l0.1,0l0.1-0.1h0.1l0.2-0.1  l0.1-0.1l0-0.1l0-0.2L-323.9,331.1z M-296.2,332L-296.2,332l-0.2,0l0,0l0-0.1l-0.1-0.1l-0.1,0l-0.2,0.1l-0.1,0.1l-0.1,0.2l0,0.1  l0.1,0l0.2,0.2l0.2,0l0.1,0l0.1-0.1l0.1-0.2l0.1,0.1l0,0.1l0.1,0l0.1-0.1l-0.1-0.1L-296.2,332z M-299.6,333.8l0.3-0.1l0.1,0l0.1-0.1  l0-0.1l0-0.1l0-0.1l-0.5-0.1l-0.1-0.1l0.1,0l0.1,0l0-0.1l0-0.1l-0.1-0.1l0,0l0.1,0l0.1-0.1l-0.1-0.1l-0.2,0l-0.1,0.1l0,0.1l0,0.1  l0,0l-0.1,0v0l0.2,0.1l0,0.1l0,0.1l0.1,0.1l0,0.1l-0.1,0l-0.1,0.1l0,0.1l0.1,0.1l0.1,0.1L-299.6,333.8z M-294.2,333.4l-0.1,0  l-0.1,0.1l-0.1,0.1l0-0.2l-0.1-0.3l-0.2-0.3l-0.1-0.1l-0.1-0.1l-0.1,0l0,0l0,0l-0.1-0.1l-0.3,0l-0.2,0.1l-0.1,0.2l0.1,0.1l0,0  l0.1,0.1l0.1,0.1l0.1,0.2l0.1,0l0,0.1l0.1,0.2l0.5,0.2l0.1,0l0.2-0.1v0.2l0,0l0.1-0.1l0,0l0,0l0.1,0l0.1-0.1l0-0.1l0-0.1  L-294.2,333.4L-294.2,333.4z M-320.9,333.5l-0.1,0l0,0.1l-0.1,0.1l-0.1,0.1l0,0l0.1,0.1l0,0.2l0.1,0l0.1-0.1l0.2-0.1l0-0.1l0,0  l-0.1,0l0,0L-320.9,333.5L-320.9,333.5z M-294.5,334.2L-294.5,334.2l-0.1,0l0,0.1l0,0.1l0,0.1l-0.1,0.2l0.1,0l0,0l-0.1,0.1l0.1,0.1  l0.2,0.1l0,0l0-0.1l0,0l0-0.1l0-0.1l0.1-0.4L-294.5,334.2z M-305.8,334.8l0.1,0.3l0.1,0.1l0-0.1l0,0l0,0v-0.1l0.1-0.1l-0.2-0.4  l-0.1-0.1l-0.1,0l-0.2-0.1l-0.2,0l-0.1,0.1l0.2,0.6l0.1,0.1h0.1L-305.8,334.8L-305.8,334.8L-305.8,334.8L-305.8,334.8z   M-302.6,335.4l-0.1-0.1l0-0.1l-0.1-0.1l0,0l-0.1-0.1l-0.1,0l0,0l0,0.1l0,0.1l0.1,0l0.1,0l0,0.1l0,0.1v0.1l0.1,0.1l0.2,0.1l0.1,0  l0,0v0L-302.6,335.4L-302.6,335.4z M-307.4,335.2l0-0.1l0,0l-0.1,0.2l-0.1,0.1l-0.1,0l-0.1,0l-0.1-0.1l-0.1,0l0,0l-0.3,0l-0.1-0.1  l-0.1,0v0.1l0.1,0.1l0,0.2l0,0.3l0,0.1l0-0.1l0.1-0.1l0.1-0.1l0,0.1l0,0.2l0,0.1l0,0.1l0.1,0.1l0.1,0.1h0.1l0,0l0.1,0l0.1-0.1  l0.1-0.1h0.1l0.1-0.1l-0.1-0.2l0.1-0.1L-307.4,335.2z M-320.9,336.7L-320.9,336.7L-320.9,336.7l0-0.1l-0.3-0.2l-0.3,0l-0.1,0  l-0.1,0.1l-0.2-0.1l-0.1,0l0,0l0,0v0.1l0,0.1l0.2,0l0.3,0L-320.9,336.7z M-306.6,336.4L-306.6,336.4l-0.5,0l-0.2,0.1l0,0.1l0,0.2  l0.1,0.1l0.1,0l0,0.1l0.1,0l0.1,0l0.1,0l0.3-0.2l0.1-0.1l0-0.1L-306.6,336.4z M-302.7,338.5L-302.7,338.5l0.1-0.1l0,0l0-0.2l0-0.1  l0-0.1l-0.1,0l-0.1,0l-0.1,0.1l-0.1,0.1l-0.2,0.1l-0.1,0.4l0.3-0.1l0.3,0.1l0.1,0L-302.7,338.5L-302.7,338.5z M-318.2,272.7l0.2-0.1  l0.1-0.1l0.6,0.1l0.3,0l0.3-0.2l0.1-0.3l-0.1-0.2l-0.3,0l-0.3,0l-0.3-0.2l-0.2-0.1l-0.2,0.1l-0.2,0.2l-0.2,0.5l0,0.1l0.1,0.2  L-318.2,272.7z M-316,294.8l0-0.1l-0.2-0.1l-0.3,0.1l-0.2,0.4l0,0.7l0,0.7l0.2,0.5l0.2-0.2l0.1,0.1l-0.3,0.4l0,0.3l0.2,0.1l0.4-0.2  v0.2l0,0.2l-0.1,0.1l-0.1,0.1l0.2,0l0.7,0l0.1,0.1l-0.1-0.3l-0.2-0.3l-0.4-0.5l0.1-0.1l0.2-0.1l0.1-0.1l-0.2-0.1l-0.1,0v-0.1h0.3  l-0.2-0.1l-0.4-0.1l-0.2-0.1v-0.1l0.1,0l0.1,0l0.1-0.1l0.1-0.1l0-0.2l-0.4-0.7l0-0.1l0-0.1L-316,294.8z M-316.6,273.6l-0.1-0.1  l0-0.1l0-0.3l0-0.1l0-0.1l-0.1,0l-0.1,0l-0.1,0.1l-0.1,0.1l0,0.1l-0.1,0.4l-0.1,0.1l-0.1,0.1l1,0.8l0.3,0l0.2-0.2l0-0.2l-0.1-0.2  l-0.2-0.1l-0.2-0.2L-316.6,273.6z M-313.1,277.3L-313.1,277.3l-0.2-0.1l-0.2,0h-0.1l-0.1,0l-0.1,0l-0.1,0l-0.1,0l-0.1,0.1l0,0.1  l-0.2,0.8l-0.1,0.3l-0.2,0.1l0.2-0.1l0.7-0.4l0.1,0l0.1,0l0.1,0l0-0.1l0-0.1l0.1-0.1l0.1-0.1l0.1,0l0-0.1L-313.1,277.3z M-320,321.8  l-0.1,0.2l-0.1,0.1l-0.2,0.1l-0.2,0.1l-0.1,0.1l-0.1,0.2l-0.1,0.6l0.1,0l0,0l0,0l0.1,0l0.1,0l0.4,0.1l0.1,0l0.1-0.1l0.1-0.2l0.2-0.2  l0.2-0.1l-0.2-0.3l-0.1-0.2l0-0.2l0.1-0.2l0.5-0.3l-0.2-0.1l-0.3,0.1L-320,321.8z M-323.1,329.4l0.2,0l0.2-0.1l0.1-0.2l0.1-0.2  l0-0.3l0.1,0l0.2,0h0.2l0.1-0.2l0.1,0l0.2,0l0.1,0v-0.4l0-0.1l-0.1-0.1l-0.1,0l-0.1,0l-0.5,0.2l-0.3,0.1l-0.2-0.1l-0.2,0.1l-0.2,0.1  l-0.1,0.2l0,0.2l0,0.2l0.1,0.2L-323.1,329.4z M-302.9,334.4l0-0.3l-0.2-0.3l-0.2-0.1l-0.2,0l-0.5,0.1l-0.5,0.1l-0.2,0.1l-0.2,0.2  l0.1,0.1l0.1,0.1l0,0.1l-0.1,0.1v0.1l0.4,0.2l0.2,0.1l0.2,0l0.6-0.1l0.3-0.1L-302.9,334.4z M-295,330.5l-0.3,0.2l-0.1,0.1l-0.1,0.3  l0.1,0.2l0.5,0.5l0.2,0.1l0.2,0l0.2-0.1l0.1-0.3l0-0.3l0-0.3l-0.1-0.5l-0.1-0.3l-0.1-0.2l-0.2,0l0.2-0.2l0.1-0.2l0-0.2l-0.2-0.1  l-0.2,0l-0.2,0.1l0,0.1l0.2,0.2l-0.1,0.5L-295,330.5z M-319.7,323.5L-319.7,323.5l0.1,0l0,0.1l0.1,0l0.1,0l0.1,0l0.1,0.2l0.1,0  l0.1,0l0.1-0.1l0-0.2l0-0.1l0-0.1l-0.1-0.1l-0.1,0l-0.2,0l-0.1-0.1l-0.1,0l-0.1,0.1l0,0.1l0.1,0l0.1,0l0,0L-319.7,323.5  L-319.7,323.5z M-301.8,342.2L-301.8,342.2l-0.3-0.4l0-0.2l0.1-0.2l0-0.1l0,0l0,0l-0.1,0l-0.1,0l0,0l0,0.1l0,0.1l0,0.1l0,0.1l0,0.1  l0.1,0l0,0.1l0.1,0.1l0,0.1L-301.8,342.2l0.1,0.2l0-0.1l0-0.1L-301.8,342.2z M-318,325.8L-318,325.8l0.1-0.2l0-0.1l-0.1,0h-0.3  l-0.1,0.1l0,0.2l0.1,0.2l0.2,0L-318,325.8z M-341.1,271l-0.1,0l-0.1,0.1l-0.2,0.2l-0.3,0.2l0,0.2l0.1,0.2l0,0.1l0,0v0l0,0l0.1-0.1  l0.1,0l0.1,0l0.1-0.1l0.1-0.2l0-0.2l0.1-0.2l0-0.1L-341.1,271z M-326.3,274.2l-0.2,0l-0.1,0l0,0.2l0.1,0.2l0,0.1l0.1,0l0.1-0.1  l0-0.2L-326.3,274.2z M-315.6,278.8L-315.6,278.8l0.1,0.1l0.2,0.1l0.1-0.1v-0.2l-0.1-0.2l-0.2-0.1l-0.1,0l-0.1,0.1l-0.1,0l-0.3-0.1  l-0.1,0.1l0.1,0.2l0,0.1l0.1,0.1l0.1,0l0.2-0.1L-315.6,278.8z M-313.6,283.2L-313.6,283.2l0.3,0l0.8-0.6l0.1-0.2l0-0.2l0-0.1  l-0.1-0.1l-0.3-0.1l-0.2-0.1l-0.1-0.2l0-0.2l0,0l-0.2,0.2l-0.2-0.1l0,0l0.1,0.1l0.1,0.2l0.1,0.3l0,0.2l-0.2,0.2l0.1,0.1l0,0.1  L-313.6,283.2z M-314.8,282.7l0.2,0l0.1-0.2l0-0.1l0.1-0.1l0.2-0.1l0.1-0.1l-0.1-0.2l-0.2-0.1l-0.3,0l-0.3,0.1l-0.1,0.2l0,0.3l0,0.2  l0.1,0.1l0.1,0L-314.8,282.7z M-317.9,313.6l0,0.1l0.1,0.1l0.1,0l0,0l0.1-0.1l0.2-0.2l0.3-0.2l0.1-0.1l0-0.1l-0.1-0.1l-0.1,0.1  l-0.1,0.1l-0.2,0l-0.1,0l0,0.1l-0.1,0l-0.1,0l-0.1,0.1l-0.1,0l0,0l0.1,0l0,0l-0.2,0.1L-317.9,313.6z M-279,323.1l-0.2,0l-0.2,0.1  l0,0.1l0.1,0.1l0.1,0.1l0,0.1l0,0.1l0.1,0.1l0.1,0.3l0,0.1l0.1,0l0.1-0.1l0.1-0.4l0-0.5l-0.1-0.2L-279,323.1z M-290.4,327.1  l-0.1-0.1l-0.1-0.3l0-0.2l-0.1,0l-0.1-0.1l0-0.1l-0.1,0l-0.2,0.3l-0.1,0.2l-0.1-0.1l0-0.2l0.1-0.2l0.1-0.3l-0.1-0.2l-0.2,0.1  l-0.1,0.2l-0.1,0.3l-0.2,0.3l-0.1,0.3l0.1,0.3l0.2,0.1l0.2,0l0.4-0.1l0.7,0.2l0.2,0L-290.4,327.1L-290.4,327.1z M-320.5,326.9  l-0.2,0.1l0,0.1l0.1,0.2l0.1,0.2l0.2,0.3l0,0.1l0,0.1l0.1,0l0.2-0.1l0.1-0.2l0-0.2l0.1-0.1h0.2l0.1-0.1l0-0.2l-0.1-0.3l0.2-0.1  l0-0.1l-0.1-0.1l-0.1,0l-0.1,0l-0.2,0l-0.1,0.1l0,0.2l0,0.1l-0.1,0l-0.1-0.1L-320.5,326.9z M-319.2,328.1L-319.2,328.1l-0.1-0.2  l-0.1-0.1l-0.1,0.1l-0.2,0.1l-0.4,0.1l-0.1,0.1l0.2,0.1l0.2,0.1l0.2,0.2l0.2,0.1l0.2,0l0.1-0.1l0-0.2L-319.2,328.1L-319.2,328.1z   M-319.9,329.4L-319.9,329.4l0.1-0.1l0.2,0l0.1,0.2l0.2,0.2l0.2,0l0.1-0.2v-0.2l-0.1-0.2l0-0.1l0-0.1l-0.1-0.1l-0.1-0.1l-0.1,0  l-0.2,0l-0.1-0.1l-0.1-0.1l-0.1-0.1l-0.2,0l-0.2,0l-0.1,0.1h-0.1l-0.1,0l0.1,0.2l0.3,0.3l0.1,0.2l0,0.2l0.1,0.1L-319.9,329.4z   M-329.9,329.9l-0.2,0l-0.1,0l-0.1-0.1l-0.1,0l-0.1,0l-0.1,0.1l-0.1,0.2l-0.1,0.2l-0.1,0.2l0,0.2l0.1,0.3l0.1,0.1l0.1-0.1l0.1-0.1  l0.1-0.2l0-0.1l0.2-0.3l0-0.1l0.1-0.1L-329.9,329.9L-329.9,329.9z M-321.3,331l-0.1,0.2l-0.1,0.4l0.1,0.6l0.1,0.1l0.1-0.1l0.2,0  l0.1,0l0-0.2l-0.1-0.3l-0.2-0.2L-321.3,331z M-320.1,331.8L-320.1,331.8l-0.1-0.1l0-0.2l-0.2-0.1l-0.1-0.1l-0.2-0.1l-0.1,0.1  l0.1,0.3l0.1,0.2l0.1,0.2l-0.1,0.2l-0.2,0.1h-0.2l-0.2,0l-0.1,0.1l0.3,0.1l0,0.1l-0.1,0.1l-0.1,0.1l-0.1,0l-0.1,0l0.1,0.1l0.2,0.1  l0.2,0l0.3-0.2l0.1-0.1l0.1-0.1l0.1-0.1l0-0.2l0.1-0.2L-320.1,331.8z M-298.5,334.6v-0.1l-0.1-0.2l-0.3-0.4l-0.1,0l-0.1,0.1l-0.1,0  l0-0.1l-0.2,0l-0.1-0.1l-0.1-0.1l-0.1,0l0,0.1l0,0.1l-0.1,0.1l0.1,0.1l0.2,0.1l0,0.1l0.1,0.1l0.1,0l0.1,0.1l0,0.2l0.1,0l0.2-0.1  l0.3-0.2L-298.5,334.6z M-310.5,336.5l-0.1-0.1l0-0.1l0-0.3l-0.1-0.4l-0.2-0.2l-0.2-0.1l-0.2-0.1l-0.3,0l-0.1,0l-0.2,0.1l-0.1,0.2  l-0.1,0.2l0,0.2l0,0.2l0,0.2l0.1,0.1l0.2,0.1l0.2,0.1l0.2,0l0.1,0l0,0.1l-0.1,0.1v0.1l0.3,0.1l0.2,0.1l0.1,0.1l0.1,0l0-0.1l0.1,0  l0.1,0.1l0.1,0.1l0.1,0l0.1,0l0.1,0l-0.1-0.2l0-0.1l-0.3-0.3L-310.5,336.5z M-320.4,336.9l-0.1,0l-0.2,0l-0.5-0.1l-0.1,0.1l0,0.1  l-0.1,0.1l0,0.1l0.1,0.2l0.3,0.1l0.1,0l0-0.1h0l0.1,0.1l0.1,0l0.1-0.1l0.1,0l0.1-0.1l0-0.1L-320.4,336.9z M-313.1,338.3l-0.1,0l0,0  l0.1,0.1l0,0.1l0,0l-0.1,0l0,0l0,0l0,0.1l0,0.1l-0.1,0.2l0,0.1l0.1,0l0.1,0l0,0.1l0.1,0.1l0.2,0.1l0.1-0.1l-0.1-0.1l0.1,0l0.2,0  l0.1-0.2l0.1-0.1l0-0.2l-0.1-0.1l-0.1-0.1l-0.2-0.1l-0.3-0.1L-313.1,338.3z M-307.8,339.4l0-0.2l-0.1-0.1l-0.1-0.1l-0.2-0.2  l-0.3-0.1l-0.2,0.1l-0.1,0.1l-0.1,0.1l0,0.2l-0.1,0.2l0.1,0.3l0.1,0l0.1-0.1l0.1,0l0.1,0.1l0.2,0.1l0.2,0l0.2-0.1L-307.8,339.4  L-307.8,339.4z M-313.9,339.4l-0.1,0.3l0,0.3l0.2,0.2l0.3,0l0.2-0.1l0.2-0.1l0.2-0.1l0.1-0.1l0.1-0.1h0.1l0.1,0.1l0.1,0l0-0.1l0.1,0  l0.1,0.1l0-0.1l-0.1-0.2l-0.1-0.1l-0.1,0l-0.2,0l-0.1,0l-0.1,0l-0.3-0.2h-0.2L-313.9,339.4z M-335,341l-0.1-0.2l-0.2-0.1l-0.1,0.1  l-0.1,0.2l0,0.1l0.2,0.1l0.3,0.3l0.1,0l0,0l0.1,0l0-0.1l0-0.1L-335,341z M-316.6,326.3l0.1,0l0-0.1l-0.2-0.2l-0.3-0.1l-0.3-0.1  l-0.2,0.1l0.1,0.2l0.1,0.2v0.1l-0.1,0.1l-0.2,0.1l0,0.1l0,0l-0.1,0.1l-0.3,0.1l-0.2,0l-0.1,0.1l0.1,0.1l0.2,0.1l0.2,0l0.2-0.1  l0.4-0.1l0.1,0l0.4,0.2l0,0.1l-0.1,0.1l-0.1,0.1l0.2,0.1l0.3-0.3l0-0.4l-0.3-0.1h-0.2l-0.1,0l0-0.1l0-0.1l0-0.1L-316.6,326.3z   M-309,334.7l-0.1-0.1l-0.2,0l-0.3,0.1l-0.3,0.2l-0.2,0.3l-0.1,0.2l-0.1,0.1l-0.1,0.1l0.1,0.1h0.1l0.1,0.1l0,0.2v0.2l0.1,0.1  l0.1-0.1l0-0.2l0.1-0.2l0.4-0.2l0.1-0.1l0.1,0l0.3,0.1l0.1,0l0-0.1l-0.1-0.1l-0.1-0.1l-0.1-0.1l0,0l0.1-0.1L-309,334.7z   M-308.8,336.2L-308.8,336.2l-0.2,0l-0.1-0.1l-0.2,0l-0.2,0.2l-0.2,0.1l-0.1-0.1l-0.1,0l-0.1,0l-0.1,0l-0.1,0l-0.2,0l0,0.1l0.3,0.1  l0.1,0l0.1,0h0.1l0.2-0.1l0.2,0l0.1,0l0.1,0.1l0,0.1l0.1,0.1l0.1,0l0.1-0.1l0.1-0.1l0.1,0l0.1,0l0.1-0.1l0-0.1l0-0.1l0.1-0.1l0-0.1  l-0.1-0.1l-0.2,0L-308.8,336.2L-308.8,336.2z M-312.1,339.9l0,0.2l0.1,0l0.1,0.1l0,0.1l0.1,0l0.1,0l0.1-0.1V340l0-0.1l0.1,0l0-0.1  l-0.1-0.1l-0.1,0l-0.2-0.2l0-0.1l0.1-0.1l0-0.2l-0.3-0.1h-0.1l0,0.1l-0.1,0.1l0,0.1l0.1,0.1l0,0.2L-312.1,339.9z M-318.3,322.7  l0.1,0l0.1-0.1l0-0.1l-0.1,0h-0.1l0-0.1l-0.1,0l-0.1,0.1l-0.1,0l-0.1-0.1l-0.2-0.1l-0.2,0.1l-0.1,0.1l0.2,0.4l0.1,0.1l0.1,0l0.1,0.1  l0.1,0l0.1,0l0.1,0.1l0.4,0.1l0.1,0l0,0.1v0.2l0.1,0.1l0.1,0.1l0.2,0l0,0.1l0.1,0l0.1-0.2l0-0.1l-0.1-0.1l0-0.2l-0.1-0.1l-0.2,0  l-0.1-0.1l-0.2-0.2L-318.3,322.7L-318.3,322.7z M-288,327.9l0.1,0l0-0.1l0-0.1l0.1,0h0.2l0.1-0.1l-0.1-0.1l-0.2-0.2l-0.2,0l-0.2,0.2  l-0.1,0.2l0,0.1l0.1,0.1L-288,327.9L-288,327.9z M-305.2,336.2l-0.1-0.1l0-0.1l-0.1-0.1l-0.1,0l-0.2,0.1l-0.1-0.1l-0.1-0.2l-0.1-0.1  l-0.1-0.1l0,0l0,0.1l-0.1,0.1l-0.1,0.2l-0.1,0.1l-0.1,0l0,0l0,0l0.1,0l0.3,0l0.1,0.1l0,0.1l0,0.1l0.3,0.1l0.1,0.1l-0.1,0.1l-0.1,0.1  l0,0.2l0.2-0.1l0.3-0.2l0.1-0.1l-0.1-0.1l0,0l0.1,0l0.2,0l0.1,0.1l0.1,0L-305.2,336.2L-305.2,336.2z M-316.1,273.5l0.5,1l0.1,0.1  l0.1,0.1l0,0.1l-0.1,0.2l-0.1,0.1l-0.5,0.1l0.3,0.4l0.3,0.1l0.8,0l0.1,0l0.1-0.1l0.1,0l0.1,0.1l0.2,0.2l0.1,0l0.1,0l0.2-0.1l0.2-0.4  l0.2-0.1l0-0.1l-0.1-0.2l-0.1-0.1l0-0.2l0-0.7l0-0.1l-0.1-0.3l0-0.1l0-0.1l0.1-0.3l0-0.2l-0.1-0.3l-0.2-0.2l-0.5-0.2l-0.2-0.2  l-0.2-0.3l-0.2-0.2l-0.3,0.1l-0.4,0.4l-0.1,0.1l-0.1,0.2l0,0.9l-0.1,0.2L-316.1,273.5z M-321.3,325.9l-0.2,0.2l-0.3,0.4l-0.1,0.1  v0.1h0.2l0.5-0.1l0.1,0l0.1,0.1l0.1,0l0.2-0.1l0.2-0.1l0.1-0.2l0-0.3l0-0.3l-0.1-0.2l-0.2-0.1l-0.1,0l-0.1,0.2l-0.1,0.1h-0.1l-0.1,0  L-321.3,325.9z M-321.7,330l0-0.1l0-0.1l0-0.1l-0.2-0.2l-0.1-0.2l-0.1,0l-0.1,0.1l-0.3,0.4l-0.4,0.2l-0.1,0.1l0.1,0.3l0.1,0l0.2,0.1  l0.2,0.1l0,0.1l0.2,0l0.1,0l0.1-0.1l0.2-0.3L-321.7,330z M-318.5,336l1.4-0.8l0.1-0.3v-0.1l0.1,0.1l0.3,0.2l0,0.1l0.1-0.1l0.1-0.2  l0.3-0.6l0.1-0.3l0-0.3l0-0.2l-0.4-0.7l0-0.2l-0.3,0.2l-0.1,0l-0.1-0.1l-0.1-0.1l0-0.1l0-0.1l-0.2-0.1l-0.2-0.2l-0.2-0.1l-0.2,0  l-0.1,0.2l0.4,0.3l0.1,0.2l-0.1,0.3l-0.2,0.1l-0.2,0l-0.2-0.2l0,0.3l-0.1,0.1l-0.1,0l-0.2,0.1l-0.1,0.1l-0.1,0.1l-0.1,0.4l-0.4,0  l-0.4,0.5l-0.2,0.6l0.3,0.4v-0.4l0.4,0.3l0.1,0.1l0,0.1l-0.1,0.1l-0.1,0.1l0,0.2l0.2,0l0.6-0.1L-318.5,336z M-290.5,327.6l-0.5-0.1  l-0.4,0.1l-0.4,0.1l-0.3,0l-0.2-0.3l-0.3-0.1l-0.1-0.1l-0.1-0.2l-0.1-0.3l-0.1-0.1l0.3-0.4l0.1-0.2l0-0.2l-0.1-0.2l-0.2-0.2  l-0.2-0.1l-0.2,0.1l-0.2,0.2l-0.1,0.1l-0.1,0.4l-0.1,0.1l-0.1,0l-0.1,0.1l-0.2,0.3l0,0.3l0,0.3l0.4,1.4l0,0.2l0,0.2l0,0.1l0.1,0.2  l0.1,0.1l0.2,0.1h0.2l0.1-0.2l0-0.4l0.1-0.3l0.2-0.1l0.3,0.1l0.2,0.7l0.1,0.4l0.2,0l0.3-0.1l0.2,0.1l0.2,0.1l0.2,0l0.1-0.2l-0.1-0.4  l0.1-0.1l0.1-0.1l0-0.2l0-0.4l0-0.2l0.1-0.2l0-0.2l-0.1-0.2L-290.5,327.6z M-280.2,326.3l-0.1,0.1l-0.3,0.1l0.2-0.6l0.1-0.2l0-0.2  l-0.1-0.2l-0.1-0.2l-0.1-0.2l0-0.1l0.1-0.7v-0.2l-0.1-0.2l-0.3-0.1l-0.2,0.2l-0.1,0.3l0.2,0.3l-1.1,0.6l-0.2,0l0,0.3l0.1,0.3  l0.2,0.3l0.3,0.2v0.1l-0.3,0l-0.2-0.1l-0.2-0.1l-0.3-0.1h-0.2l-0.6,0.1l-0.2,0.1l-0.2,0.2l-0.2,0.2l-0.1,0.2l0,0.4l0.2,0.3l0.2,0.2  l0.2,0.3l0.2-0.2l0.5-0.2l0.2-0.2l0.2,0.1l-0.1,0.3l0,0.3l-0.1,0.2l-0.4,0.1l-0.1,0.1l0,0.2l0.1,0.2l0.1,0.1l0.5-0.2l-0.1,0.3l0,0.2  l0.1,0.2l0.2,0.1l-0.5,0.4l0.3,0l1.1-0.3l0.2-0.2l-0.1-0.1l-0.3-0.1l-0.2-0.1l0.1-0.2l0.3-0.3l0-0.1l0-0.3l0.2,0.1l0.3,0.1l0.3,0.1  l0.1,0l0-0.3l-0.2-0.4l-0.1-0.2l0.2,0.1l0.1-0.1l0.1-0.2l0-0.2L-280.2,326.3L-280.2,326.3z M-320.2,282.8L-320.2,282.8L-320.2,282.8  l0.2,0.3l0.2,0.1l0.2,0l0.1-0.1l0.2-0.2l0.1-0.1l-0.1-0.1l-0.4-0.2l-0.1-0.1l-0.1-0.2l-0.1-0.1l-0.1,0.2l-0.1,0.3l0,0.3l0,0.1l0.1,0  L-320.2,282.8z M-267.7,304.8l-0.1-0.3l-0.1-0.1l-0.3,0.2l-1,1l-0.2,0.1l-0.4,0l-0.3-0.1l-0.3-0.3l-0.1-0.4l0.1-0.4l0.1-0.1l0.1-0.1  l0.2-0.1l0.1-0.2l0.1-0.3l-0.1-0.1l-0.1-0.1l-0.1-0.5l-0.1-0.6l-0.1-0.1l-0.1-0.1l-0.1-0.2l-0.1-0.3l0.1-2.3l0.1-0.4l0.2-0.3  l0.5-0.6l0.1-0.4l0.1-1.6l-0.1-0.8l-0.2-0.8l-0.1-0.8l0.3-0.8l0.3-0.7l0.2-0.7l0-0.8l-0.5-1.6l-0.1-0.8l-0.1-1.7l-0.1-0.6l0-0.2  l0.1-0.2l0.1-0.2l0.1-0.2l-0.1-0.2l-0.8-1.1l-0.3-0.8l-0.2-1.4l-0.2-0.7l-0.7-0.8l-0.1-0.3l-0.1-0.3l-0.1-0.3l-0.4-0.5l-0.7-1.3  l-0.2-0.2l-0.2-0.1l-0.2-0.3l-0.4-1.4l-0.2-0.3l-0.5-0.3l-0.1-0.4v-0.5l0-0.4l-0.8-0.9l-0.2-0.1l-1.2-1.3l-1-1.4l-2.5-3.6l-0.2-0.6  l-0.5-0.7l-0.2-0.3l-1-2.8l-1.3-2.6l-0.4-0.9l-0.1-0.6l-0.7-1.4l0,0l-0.9,0.5l0.1,0.6l0,0.2l-0.1,0.8l-0.3,0.8l-0.4,0.7l-0.4,0.6  l-0.9,1l-1.1,0.7l-1.2,0.4l-1.2,0.1l-1.5-0.1l-1.1,0.2l-0.5-0.1l-0.4-0.4l0-0.1l-2.5,0.2l-1,0.3l-0.6,0.1l-1.4-0.4l-1.9,0.1l-0.4,0  l-0.8,0.1l-0.9,0.4l-0.9,0.5l-0.7,0.6l-0.1,0.2l-0.5,1.3l-0.4,0.5l-0.6,0.5l-0.2,0.2l-1.3,2l-0.8,0.6l-0.4,0.2l0.1,1.2l-0.5,0.9  l0,0.2l0.1,0.3l0.1,0.3l-0.1,0.4l-0.3,0.7l0.9,0.6l0.3,0.3l-0.4,0l-0.6-0.2l-0.5-0.4v-0.4l0.1-0.3l0-0.4l0-0.4l-0.1-0.2l-0.2-0.1  l-0.2,0l-0.2,0.1l-0.3,0.1l-0.8-0.3l-0.2,0l-0.1,0.3l0.2,1.6l0.2,0.6l0.3,0.4l0.4-0.1l0,0.1l0,0l0,0l0,0.1l0.6,0.2l0.3,0.6l0.1,0.8  l0.3,0.6l-0.3,0.1l-0.3,0l-0.2,0l-0.1,0.2l0.4,0.7l0.2,0.5l0.1,0.1l0.4,0.1l0.6,0.2l0.2,0.1l0,0.4l-0.4,0.3l-0.2,0.2l0.7,0.1  l0.1,0.1l0.2,0.4l0.2,0.1l0.2,0l0.7-0.2l0,0.1l0,0.2l0,0.1l0.1,0l0.1,0.1l0.1,0.1l0.1,0.2l-0.3,0l-0.2-0.1l-0.2,0l-0.2,0.4l-0.1,0.4  l-0.1,0.2l-0.2,0.1l-0.1-0.1l-0.1-0.2l0-0.2l0-0.2l-0.2,0.1l-0.2-0.1l-0.2-0.1l-0.2-0.1l-0.3,0.1l-0.2,0l-0.1-0.1l-0.1,0.1l0,0  l-0.1,0l0.1,0.2l0.1,0.2l0.1,0.2l0.1,0.1l0.4-0.1l0,0.1l-0.2,0.2l-0.2,0.1l-0.2,0.1l-0.2,0.1l-0.1,0.2l0,0.3l0.1,0l0.4-0.1l-0.2,0.3  l-0.1,0.2v0.2l0.1,0.1l0.2,0l0.2-0.1l0.1-0.1l0.5-0.6l0.3-0.2l0.4-0.2l0,0.2l0.1,0.1l0.1,0.1l0.2,0l0.3-0.3l0.2-0.1l0.1,0.1l0,0.3  l-0.1,0.1l-0.4,0.1l-0.4,0.2l-0.2,0.1l-0.2,0l-0.1,0.1l-0.2,0.8h0.3l-0.1,0.2l-0.3,0.2l-0.1,0.2l0.7,0.2l0.3-0.1l0.2-0.4l0,0.3  l0.1,0.1l0.1-0.1l0.1-0.3l0-0.3l0.1-0.3l0.1-0.2l0.2,0.1l-0.1,0.5l0.2,0.4l0.2,0.3l0.1,0.4l-0.1-0.1l-0.1-0.1l-0.2,0l-0.2,0l0.1,0.1  l0.1,0v0.1h-1l0.3,0.6l0.5,0.5l0.6,0.4l0.5,0.1l0.4-0.1l0.1-0.1l0-0.6l0.1-0.2l0.9-0.2l0,0.2l-0.1,0.1l-0.1,0l-0.2,0.1l-0.1,0  l-0.1,0l-0.1,0.1l0,0l0.1,0.1l0,0.1l-0.1,0.5l-0.2,0.2l-0.2,0.1l-0.5,0.4l-0.7,0.3l-0.3,0l-0.3,0.1l0.2,0.3l0.5,0.6l-0.3,0l-0.3-0.1  l0.1,0.5l-0.1,0.3l-0.1,0.2l-0.1,0.4l-0.1-0.1l-0.1-0.1l-0.1-0.1l0-0.2l0.2-0.1l0-0.2l-0.1-0.6l-0.1-0.2l0-0.2l0-0.1l0.1-0.3l0-0.1  l0-0.5l-0.1-0.3l-0.1-0.2l-0.2,0l-0.3,0.4l-0.2,0.1l0.2-0.8l0-0.4l-0.3-0.3l-0.3,0l-0.5,0.4l-0.1-0.1l-0.1-0.2l-0.2-0.3l0-0.1l0-0.1  l-0.1,0.2l-0.1,0.4l-0.1,0.1l-0.2,0.2l-0.1,0.1l-0.1,0.2l0,0.2l-0.1,0.1l-0.2,0.1l0-0.3l0-0.2l-0.2-0.3l0-0.1l0-0.1l0-0.1l-0.1-0.1  l-0.1-0.1l-0.2-0.1l-0.1-0.1l-0.3-0.5l-0.3-0.4l-0.2-0.2l-0.2-0.1l-0.3,0l0.3,0.3l0.2,0.7l0.3,0.1l0.2,0.1l0.1,0.1l0,0.1l-0.1,0.1  h-0.2l-0.2-0.1l-0.1-0.1l-0.2-0.3l-0.2-0.1l-0.1,0l-0.1,0.2l0.1,0.1l0.9,1l0.1,0.2l0.1,0.4l0.1,0.1v0.1l-0.2,0l-0.1-0.1l-0.1-0.2  l-0.1-0.2l-0.3-0.3l-0.2-0.1l-0.1,0.1l-0.1,0.4l-0.3,0.9l-0.1,0.5l0,0.1l-0.1-0.1l-0.1-0.2l0-0.2v-0.8l0-0.1l0.1-0.2l0-0.1l0-0.1  l-0.1-0.1l0-0.1l-0.1-0.2l-0.1,0l-0.2,0.1l-0.1,0.1l-0.1-0.3l0.1-0.2l0.1-0.2l0.1-0.2l-0.1-0.2l-0.3-0.1l-0.6,0v0.1l0.1,0.1  l-0.1,0.1l-0.1,0l-0.1-0.1l-0.1-0.1l-0.2,0l-0.2,0.1l-0.1,0.1l0.3,0l0.2,0.1l0.1,0.2l-0.1,0.3l-0.2-0.2l-0.1,0.1l0,0.2l0.1,0.2  l0.2,0.1h0.4l0.1,0l0.1,0.3l-0.1,0.4l-0.2,0.3l-0.4,0.1v0.1l0.3,0.1l0.1,0v0.1l-0.3,0.1l-0.2,0.1l-0.1,0.1l-0.1,0.2l-0.1-0.1  l-0.3-0.3l-0.2,0.2l0.1,0.4l0.3,0.7l-0.4-0.3l-0.2,0l-0.2,0.2l-0.1,0.1l-0.1-0.1l0-0.2l0-0.2l0.1,0l0.3-0.2l0.1-0.1l0-0.1l-0.1-0.3  v-0.2l0.1-0.2l0.1-0.2l0.1-0.2l-0.2-0.5l-0.1-0.4l0-0.4l0-0.3l-0.3,0.1l-0.1,0.5l0,0.6l0,0.4l-0.1,0.2l-0.1,0.1l-0.4,0l-0.2,0l0-0.1  l0.1-0.5l-0.4,0.1l-0.3,0.2l0,0.3l0.4,0.3l-0.3,0.4l0,0.2l0.3,0.1l0.4,0l-0.1,0.2l-0.2,0l-0.4-0.1l0.2,0.3l0.2,0.2l-0.1,0l-0.1,0  l-0.1,0l-0.1,0.1l-0.1-0.2l-0.1-0.1l-0.1-0.2l0-0.2l-0.1,0.2l-0.1,0.2l-0.4,0.5l0,0.1l0,0.5l0,0.5l0.1,0.1l0.2-0.2l0.1-0.2l0-0.5  l0.1-0.2l0.2,0.2l0.2,0.1l0.2,0.1l0.2,0.3v0.3l-0.2,0.1h-0.6l-0.1,0.1l0,0.2l0.1,0.2l0,0.1l0.2,0.1l0.2,0l0.2-0.1l0.2,0l0.3-0.1  l0.4-0.5l0.3-0.2l0.1,0.5l-0.1,0.4l0.4,0.7l-0.2,0.5l0.1,0.1l0,0.1l0,0.1v0.1l0.1-0.2l0.2-0.2l0.2-0.1l0.2,0l-0.3-0.3l0-0.2l0.2-0.1  l-0.1-0.3l-0.3-0.4l-0.1-0.3l0.3,0l0.1-0.2l0-0.3l0.1-0.2l0.2,0l0.2,0.2l0.1,0.3l0.2,0.2l-0.1,0.2l-0.2,1l0.2-0.1l0.1-0.1l0.1-0.1  l0.1,0.1l0.2-0.3l0.4-0.7l0-0.2l-0.1-0.1l0-0.1l0.1-0.1l0.2-0.1l0.2-0.2l0.1-0.1l0,0.2l0.1,0.1l0.2,0.2l-0.3,0.2l0.1,0.3l0.5,0.5  l-0.1,0l-0.3,0.2l0.2,0.1l0.1,0.1l0,0.2l0,0.6l0,0.1l-0.4-0.1l-0.3,0.1l-0.1,0.2l0,0.3l0.1,0.3l0.1,0.3l0.1,0.1l0.1,0h0.3l0,0.1  l-0.1,0.2l-0.3,0.4l0,0.2l0.1,0.3l0.1,0.3l0.1,0.2l0.2,0l0.3-0.5l0.2-0.1h0.9l-0.3,0.1l-0.8,0.6l-0.4,0.2l-0.1,0.2l0.1,0.3h-0.2v0.1  l0.1,0.1l0.2,0.2l0.1,0.1h0.5l0.2,0.1l0.1,0.2l-0.1,0.2l-0.7,0.2l-0.2,0.2l0.2,0.1l0.6,0.2l0.2,0.2l-0.2,0.1l-0.2,0.4l-0.3,0.9  l0.1,0.1l0.1,0.1l0.1,0l0.1-0.1l0.1,0l0.2,0.1l0.1,0.1l0.2,0.4l-0.4-0.1l-0.5,0.1l-0.4,0.3l-0.3,0.4l0.1,0.1l0,0l0.1,0l0.2-0.2  l0.4-0.1l0.4,0l0.3,0.1l0.4,0.6l0.1,0.1l0.2,0.1l0.1,0.1l-0.2,0.2l0.1,0.2l0.2,0.3l0.1,0.2l0.1,0.2l0,0.2l0.1,0.1l0.2,0.1l0.3-0.1  l0.3-0.1l0.3-0.1l0.3-0.2l0.3-0.2l1.2-0.4l0,0.3l-0.3,0.2l-0.7,0.3l-0.6,0.4l-0.3,0.2l-0.3-0.1l-0.3,0.1l-0.7,0.2l-0.3,0l-0.2,0.1  l-0.1,0.3l-0.1,0.4l0,0.3l0.1,0.3l0.6-0.2l0.7,0.4l0.4,0l1.1-0.5l0.1,0l0.2,0.1l0.2,0.1l0.1,0.1l-0.1,0.1l-0.2,0l-0.1,0.1l0,0.1  l-0.1,0.2l-0.1,0.1l-0.2,0l-0.8-0.1l-0.1,0l-0.1,0.1l-0.1,0.2l0,0.2l0.1,0.1l0.3,0.1l0.4,0.1l0.3,0.2l0.2,0.2l0,0.2l0,0.2l0,0.2  l-0.1,0.1l-0.2-0.3l-0.2-0.1l-0.6,0.1l-0.3,0.1l-0.1,0.2l0,0.3l-0.1,0.3l-0.5-0.3l-0.4,0.1l-1.6,1.3l-0.5,0.3l-0.2,0.2l0,0.2  l-0.1,0.6l0.5,0.2l2.3-0.2l0.2,0.1l0.1,0.3l0.2,0.7l-0.2-0.1l-0.3-0.3l-0.2-0.1l-0.2,0.1l-0.3,0.4l-0.3,0.1l-0.5,0l-0.4,0.1  l-0.4,0.2l-0.4,0.3l-0.6,0.8l-0.3,0.5l-0.1,0.4l0.1,0.2l0.5,0.6l0,0.1l-0.1,0l-0.3-0.1l-0.2-0.3l-0.1-0.1l-0.3,0.5l-0.1,0.3l0,0.3  l0,0.1l0.1,0.1l0,0.1l0,0.1l-0.1,0.1l-0.1,0.1l-0.1,0.1l-0.1,0.2l0.1,0l0.1,0l0,0l0.1,0l-0.3,0.1l-0.3,0l-0.3,0.1l-0.2,0.2h0.4  l0.2,0l0.2-0.1l0,0.2l0.1,0.1l0.2,0.1l0,0.2l-0.1,0.1l-0.1,0.1l0,0.1l0.1,0.3l0.5,0.6l0.1,0.4l0.1,0.1l0.1,0.1l0.3,0.1l0.1,0.1  l0,0.3l0,0.3l-0.4,0.9l-0.2-0.2l-0.1-0.2l0-0.2l0.1-0.2l-0.1-0.1l-0.3,0l-0.1-0.1l-0.2-0.1l-0.1-0.1l0-0.1l-0.1-0.2l-0.1,0l-0.1,0  l-0.1,0l0-0.1l0-0.1l0.1-0.2l0-0.3l0-0.2l-0.1-0.2l-0.1,0.4l-0.1,0.2l-0.2,0.1l-0.1-0.3l-0.3-0.1l-0.3,0l-0.2,0.2l0.1,0.3l0.4,0.5  l-0.1,0.2l0.2,0.3l0.2,0l0.1-0.2l-0.1-0.4l0.3,0.1l0.3,0.2l0.4,0.6l0.1,0.4l-0.4,0.4l0,0.4l-0.4-0.1l-0.2,0l-0.2,0.1l0.1,0.2  l0.1,0.1l0.1,0.1l0.1,0.1l-0.1,0l-0.1,0.1l0.2,0.1l0.3,0.1l0.3,0l0.2-0.2l0-0.2l-0.1-0.2l0-0.2l0.2-0.1l0.1,0l0.1-0.1l0.1-0.1l0.2,0  l0.4,0.1l-0.1,0.2l-0.3,0.2l-0.2,0.2l0,0.3l0.1,0.4l0.2,0.3l0.2,0.1l-0.2,0.2l-0.1,0.1l0,0.3l0,0.1l0,0.1l-0.1,0.1l-0.1,0.2  l-0.3,0.3l-0.1,0.2l0,0.2l0.2,0.1l0.3-0.1l0.2,0.1l0-0.3l0.1-0.1l0.4,0.1l0.2-0.1l0.1-0.1l0.1-0.1l0.2,0.1l-0.1,0.1l-0.1,0.2  l-0.1,0.1l0.1,0.1v0l0.3,0l0.2-0.2l0.2-0.6l0.2-0.4l0,0l0-0.2l-0.1-0.3l0-0.2l0.2-0.2l0.2-0.1l0.2,0.1l0.1,0.3l0,0.2l-0.1,0.1  l-0.1,0.1l-0.1,0.1v0.2l0,0.1l0,0.1l-0.1,0.2l0.8-0.1l0.3,0.1l0.2,0.3l-0.2,0l-0.1,0l-0.2,0.1l0.1,0.2l-0.4,0l-0.7-0.2l-0.4,0.1  l-0.2,0.2l0,0.3l0.1,0.3l-0.1,0l0,0l0,0l-0.1,0l-0.2,0l-1.3-0.2l-0.2,0l-0.2,0l-0.2,0.1l-0.1,0.2v0.3l0.1,0.2l0.5-0.3l0.4,0l0.4,0.1  l0.4,0.1l0.3,0.1l0.5,0.6l0.3,0.2l-0.1,0.1l0.5,0.4l0.3,0.2l0.3,0l-0.4,0.2l-0.4-0.1l-0.4-0.2l-0.3-0.1v0.1l0.2,0.2l0,0.1l-0.2,0  l-0.4-0.3l-0.5-0.3l-0.2,0l0,0v-0.1l0-0.1l0-0.1l0-0.1l0-0.1l0-0.1l-0.1-0.1l0,0l-0.6-0.2l-0.1,0l0.2,0.1l-0.2,0.3l-0.1,0.2l0,0.2  l0.2-0.1l0.1,0.1l0.2,0.4l0.3,0.2l0,0.2l0,0.1l0.1,0l0.2,0l-0.1,0.3l-0.2,0l-0.3-0.2l-0.7-0.1l-0.2-0.1l-0.3-0.9l0-0.2l0-0.2l0-0.2  l0.1-0.2l-0.5-0.7l-0.1-0.2l-0.1-0.1l-0.1,0l-0.1,0l-0.1,0.1l0,0.1l0,0.2l0,0.1l-0.2,0.4l-0.1,0.6l0,0.5l0.3,0.2l0.4,0.2l0.1,0.2  l-0.1,0.1h-0.2l-0.1-0.1l-0.1,0.1l-0.1,0l0,0.1l0.1,0.2l0,0l0.3,0.3l0.1,0l0.1,0l0.1-0.1l0-0.1l0-0.1l0.1,0.1l0.1,0.1v0.1l0.4,0.2  l0.1,0.2l0,0.3l0.2-0.1l0.2,0l0.3,0l0.1,0h0.1l0.1,0l0-0.2l0.1-0.1l0.1-0.1h0.1l0.2,0.1h0.1l0.1-0.1l0.1-0.2l0.1,0l0.2,0.1l0,0.2  l-0.1,0.2l-0.2,0.2l0.1,0l0.1,0.1l0.1,0.1l0.1,0.1l-0.4,0l-0.4,0.1l-0.3,0.2l-0.1,0.4l0.2-0.1l0,0.1l-0.1,0.2l0,0.2l0,0l0,0.1l0,0.1  l0.2,0l0.2,0l0.1,0l0.1,0.1l0.1,0.2l0,0.2l-0.2,0.4l-0.1,0l-0.1,0l0,0l0,0.3l0,0.1l-0.1,0.1v0.1l0.4,0l0.2,0l0.1,0.1l0,0.2l-0.1,0.4  l0,0.2l0.2,0l0.7-0.2l0.4,0.1v-0.2l0-0.2l0.4-1.2l0.1-0.1l0.2-0.1l0.4-0.1l0.1-0.1l0.1-0.2v-0.1l0-0.1l0.2,0l0.1,0l0.1,0.1l0.1,0  l0,0l0-0.1l0-0.1l0,0l-0.2-0.1l0.2-0.2l0.6-0.3l-0.3-0.4l-0.1-0.2l0.5-0.2v-0.1l-0.1-0.2l-0.1-0.3l0-0.2l0.1-0.2l0.2-0.2l0.2,0  l0.2,0.1l0.1,0.2l0,0.3l-0.1,0.2l0.1,0.4l-0.1,0.9l0.1,0.4l0.1,0.1l0.6,0.2l0.4,0.3l0.2,0.1l-0.1-0.2l0-0.2l0.1-0.2l0.1-0.2l0.4,0.2  l0.1-0.1l0-0.8l0.8-0.8l-0.1-0.2l0.1-0.2l0.1-0.2l0.1-0.1l0-0.2l0-0.2l0-0.2l0.1-0.1l0.2-0.1l0.2-0.1l0.3-0.2l0.6-0.3l0.1-0.1  l0.3-0.4l0.2-0.1l0.2-0.1l0.4,0.1l0.2,0l0.2-0.1l0.2-0.3l0.3-0.8l0.2-0.3l0.4,0.6l0.3,0.2l0.3-0.1l0.3-0.2l0.1,0.1l0.1,0.3l0.2,0.3  l-0.1,0.2l-0.2,0.4l-0.1,0.1l-0.2,0.1l-0.2-0.1l-0.1-0.2l-0.1-0.2l0.1-0.2l0-0.1l-0.1-0.1l-0.2-0.1l-0.4,0.5l-0.1,0.1l0,0.3l0.1,0.1  l0.1,0.1l0.1,0.2v0.5l-0.2,0.3l-0.4,0.1l-0.4,0l0.2-0.5l0.1-0.3l0-0.3l-0.2,0.1l-0.1,0.1l-0.2,0.4l-0.3,0.4l-0.1,0.1l-0.3,0.2  l-0.1,0.2l0,0.3l0.1,0.3l0.2,0.1l0.2,0l0.3,0.1l0-0.1l-0.1-0.2l0.6-0.3l0.2,0l0.6,0.6l0.6,0.9l0.3,0.4l0.3,0l-0.2-0.2l0.2-0.2  l0.4-0.1l0.3,0l0.1-0.2l0.6-1.1l-0.2,0l-0.8,0l-0.1,0l-0.1-0.2l-0.2-0.4l0-0.1l0.1-0.1l0.2-0.1l0.2-0.1l0.2,0l0.2,0.1l0.7,0.4l0.2,0  l0.3,0l0.3,0l0.2-0.2l0-0.4l-0.3-0.2l-0.6-0.2l0.1,0h0.3l0.2,0l-0.3-0.5l-0.5-0.3l-0.4-0.4l-0.2-0.7l0,0l0.1,0l0-0.1l-0.1-0.2  l-0.1-0.1l-0.3,0.1l-0.1-0.1l0.1-0.3l0.3-0.2l0.6-0.2v-0.1l-0.3-0.1l-0.4-0.2l-0.2-0.2l0.2-0.1l0.7,0l0.3,0l0.5-0.2l0.1,0l0,0  l0.1-0.1l0.3-0.7l0.1,0l0-0.1l0.1,0l0.1,0.1l0,0.1l0,0.1l-0.1,0.2l0,0.1l0,0.2l0.2,0.5l0,0.1l0,0.1v0.1l0.1,0.1l0.1,0h0.1l0.1,0  l0.2,0.5l0.1,0.2l0.1,0.3l-0.1,0.4l-0.2,0.4l-0.1,0.4l0.1,0.4l0.2,0.3l0.3,0.1l0.4,0l0.2,0.3l0.1,0.1l0.1-0.1l-0.1-0.8l-0.1-0.3  l-0.1-0.2l0.1,0l0,0l0,0l0.1,0.1l0.3-0.6l0.3,0.1l0.4,0.2l0.2-0.1l0,0.1l-0.1,0.1l0,0l0.1,0.1l0.1,0.1l0.2-0.1l-0.1-0.1l-0.1,0  l0-0.1l0.1,0v0l-0.1,0l0,0l0.3-0.1l0.1-0.2l0.2-0.9l0.2-0.5l0-0.3l0-0.4l-0.3,0.2l-0.3,0l-0.3-0.1l-0.3,0l-0.5,0.4l-0.2,0.1  l-0.2-0.1l-0.2-0.2l-0.2-0.1l-0.3-0.4l-0.2-0.4l-0.1-0.3l0-0.3l0.1-0.4l0.2-0.2l0.2,0.1l0.3,0.6l0.2,0.2l0.3-0.1l0.6-0.5l0.1-0.2  l0.1-0.1l0.1-0.3l0-0.1l0-0.2l0-0.1l0.2,0.1l0.1,0.2l0,0.1l0.1,0.1l0.2,0l0.6,0l0.3,0.1l0.2,0.2l0.1-0.1l0.1,0l0.1,0l0.2,0.1l0.4,0  l0.3-0.3l0.2-0.5l0-0.6l0.2,0.1l0.1,0.2l0.2,0.4l0.4-0.2l0.4,0l0.2-0.1l-0.3-0.7l0.4,0l0.2-0.2l0.2-0.3l0.2-0.3l0,0.2l-0.1,0.2  l-0.1,0.1l0,0.1l0,0.2l0,1.4l0,0.1l0,0.1l0,0.1l0.1,0.1l0.1,0.1l0.3,0l0.2,0.1l0.2,0l0.1,0l0,0.1v0.3l0,0.1l0.3,0.2l0.7,0l0.3,0.1  l0-0.3l0-0.3l0.1-0.2l0.1-0.1l0.3,0l0.2,0.1l0.3,0.4l0.4,0l0.2-0.5l0.2-0.2l0.3,0.7l-0.3,0.1l-0.2,0.1l0,0.1l0.2,0.3l0.2,0.1  l0.9,0.1l-0.1,0.1l-0.1,0l-0.1,0l0.2,0.4l0.4-0.2l0.4-0.5l0.2-0.4l-0.2-0.2l0,0.2l-0.1,0.1l-0.1,0l-0.1-0.1l0.1-0.8l0-0.4l0-0.1  l0-0.1l-0.1-0.2l-0.1-0.1l-0.1-0.1l0.1-0.2l0.2,0.1l0.3,0l0.3-0.1l0.2-0.1l0.1-0.2l0-0.2l-0.1-0.2l-0.1-0.3l-0.3,0l-1.5,0.8V324  l0.2-0.2l0-0.2l0.1-0.2l0.6-0.2l0.5-0.3l0.3-0.1l-0.2-0.2l0-0.1l0.1-0.1l0.5-0.1l0.2,0l0.8,0.3l0.1,0.1l0.1,0.1l0,0.1l0,0.1l0,0.1  l0.2,0h0.3l0.1,0l0.1-0.1l-0.1,0l-0.2-0.1l-0.1,0l0.1-0.2l0-0.2l-0.2-0.3l-0.1-0.2l-0.1-0.2l-0.1-0.5l-0.2-0.4v-0.2l0.2-0.3l0.2-0.2  l0.1,0.1l0.2,0.5l-0.1,0.1l0.1,0.4l-0.1,0.3l0.3-0.1l0.2,0.2l0.2,0.3l0.2,0.2l0-0.3l0.1-0.2l0.1-0.1l0.1,0.1v0.8l0.2-0.2l0.2,0  l0.2,0.1l0.3,0.1l0.5-0.2l0.2,0.1l-0.1,0.3l0.6-0.2l0.5-0.1l0.3-0.1l0.2-0.1l0.1-0.1V322l0.2,0.5l0.3-0.1l0.3-0.4l0.3-0.2l-0.1,0.3  v0.2l0.1,0.4l0,0.3l-0.1,0.2l0,0.2l0.1,0.3l0.1-0.2l0,0l0.2,0.1l0-0.3l0.1-0.2l0.1-0.1l0.1,0.2h0.1l0.1-0.3l0.2-0.4l0.2-0.3l0.2,0  l0.3,0.2l0.3,0.1l0.2-0.1l0.2-0.3l-0.1-0.1l-0.1-0.1l-0.1-0.1l0.1-0.2l0.2-0.1l0.2,0l0.2,0l0.2,0l0.3-0.1l0.3-0.2l0.4-0.5l0.3-0.7  v-0.1l-0.1-0.1l0-0.1l0.1-0.1l0.2-0.2l0-0.1l0.1-0.4l0.2-0.3l0.6-0.4l0.4-0.5l0.2-0.3l-0.1-0.1l-0.1-0.1l0.1-0.2l0.2-0.3l0-0.2  l-0.2-0.5l0-0.1l0.1-0.1l0.2,0l0.2-0.1l0.1-0.2l0-0.3l-0.1-0.2l-0.1-0.1l-0.2-0.1l0.1-0.4l0.2,0.1l0.2,0.3l0.1,0.4l0.1,0.3l0.2-0.1  l0.2-0.3l0.2-0.3l0.2-0.8l0.1-0.4l0-0.4l0-0.2l-0.1-0.3l0-0.2l0-0.2l0.3-0.5l0.2-1.3l0.3-0.6l0.3-1.2l0.1-1.3l0-0.2l0.6-1.3l0-0.4  l-0.1-0.4L-267.7,304.8z"/></svg>