<svg xmlns="http://www.w3.org/2000/svg" xmlns:xlink="http://www.w3.org/1999/xlink" version="1.1" x="0px" y="0px" viewBox="0 6 101 100" fill="#999999" enable-background="new 0 6 101 89" xml:space="preserve"><path vector-effect="none" d="M90.229,8.326L90.17,8.442l0.27,0.836l0.314,0.976l0.313,0.977l0.252,0.78l0.418,1.303l0.037,0.2  l-0.127,1.504l0.035,0.274l0.114,0.233l0.584,0.63l0.121,0.238l0.235,0.828l0.246,0.58l0.086,0.14l0.115,0.107l0.393,0.29  l0.072,0.085l0.031,0.105l0.047,1.159l0.037,0.281l0.561,1.213l0.152,0.512l0.033,0.513l-0.051,0.459l0.006,0.926l0.006,1.125  l0.006,0.797l0.004,1.065l0.011,1.452l-0.104,0.329l-0.023,0.171l-0.01,0.219l0.024,0.21l0.062,0.138l0.039,0.139l0.055,0.422v0.145  l-0.023,0.09l-0.043,0.042l-0.058,0.036l-0.078,0.075l-0.049,0.081L94.023,30.8l-0.037,0.187l0.025,0.202l0.239,0.774L93.9,32.137  l-0.174,0.042l-0.175-0.054l-0.635-0.408l-0.56-0.364l-0.645-0.415l-0.646-0.417l-0.153-0.052l-0.181,0.002l-0.209,0.056  l-0.172,0.086l-0.615,0.547L89.2,31.64l-0.077,0.14l-0.096,0.354l-0.326,0.784l-0.412,0.738l-0.443,0.557l-0.564,0.713l-0.131,0.507  l0.009,0.72l0.008,0.938l0.062,0.464l0.041,0.159l0.106-0.006l0.103-0.02l0.103-0.058l0.093-0.08l0.07-0.086l0.136,0.402  l0.082,0.122l0.174,0.185l0.064,0.099l0.034,0.136l-0.006,0.169l-0.063,0.267l0.026,0.169l0.134,0.235l0.627,0.567l0.29,0.439  l0.094,0.092l0.094,0.062l0.747,0.258l0.468,0.162l0.625,0.214l0.408,0.084l0.674,0.009l0.887,0.012l0.586,0.009l0.546,0.006  l-0.005-0.09l-0.018-0.077l-0.029-0.074l-0.043-0.072l-0.034-0.102l-0.017-0.502l-0.015-0.551l0.104-0.625l0.096-0.557l0.104-0.599  L94.5,37.709l0.408,0.002l0.1,0.02l0.146,0.15l0.1,0.043l0.18,0.039l0.31-0.036l0.177,0.006l0.441,0.073l0.345,0.056l0.712-0.019  l0.787-0.023l0.854-0.026l0.945-0.026l-0.077,0.275l-0.092,0.888l-0.112,0.432l-0.014,0.149l-0.034,0.142l-0.214,0.303l-0.02,0.059  l-0.024,0.198l-0.013,0.058l-0.057,0.105l-0.027,0.178l-0.637,1.806l-0.422,2.005l-0.011,0.152l-0.011,0.071l-0.057,0.162  l-0.02,0.072v0.084l0.034,0.129l0.007,0.072l-0.29,1.709l-0.039,0.127l-0.513,0.805l-0.033,0.109l-0.023,0.157l-0.068,0.146  l-0.104,0.104l-0.136,0.042l0.021,0.064l0.021,0.021l0.03-0.013l0.052-0.025l0.049,0.238l-0.065,0.254l-0.103,0.25l-0.051,0.225  l-0.078,0.121l-0.526,0.541l-0.078,0.063l-0.196,0.097l-0.077,0.054l-0.059,0.076l-0.113,0.197l-0.082,0.104l-0.668,0.574  l-0.168-0.138l-0.239,0.038l-0.14,0.146l0.136,0.188l0.047-0.062l0.082-0.067l0.097-0.054l0.103-0.012l-0.113,0.225l-0.239,0.197  l-0.755,0.401l-0.219,0.047l-0.233-0.009l-0.271-0.055l0.008,0.06l0.012,0.041L93.2,52.32l0.041,0.021v0.041L93.055,52.5  l-1.187,1.357l-0.286,0.258l-0.098,0.045l-0.036,0.027l-0.015,0.043l-0.023,0.123l-0.023,0.022l-0.08,0.056l-0.231,0.329  l-0.089,0.075l-0.207,0.132l-0.082,0.073l-0.03,0.066l-0.032,0.147L90.561,55.3l-0.051,0.046L90.465,55.4l-0.051,0.125l-0.801,1.101  l-0.801,1.603l-0.063,0.276l0.064,0.271l-0.246-0.002l-0.058,0.058l-0.03,0.183l0.094-0.05l0.205-0.067l0.08-0.078v0.054  l-0.014,0.05l-0.021,0.049l-0.052,0.088l-0.155,0.189l-0.632,0.578l-0.18,0.222l-0.295,0.515l-0.342,0.799l-0.879,1.56l-0.125,0.283  l-0.023,0.106l-0.047,0.103l-0.289,0.312l-1.035,1.928L84.6,65.898L84.503,66l-0.088,0.041l-0.083,0.07l-0.191,0.416l-1.008,1.347  l-0.172,0.121l-0.195,0.426l-0.322,0.38l-0.889,0.846L81.448,69.7l-0.374,0.106l-0.141,0.064l-0.119,0.097l-0.051,0.124  l-0.373,0.461l-0.135,0.059l-0.055,0.039l-0.041,0.135l-0.043,0.057l-0.049,0.041l-0.033,0.016L79.9,70.934l-0.108,0.09  l-0.194,0.215l-0.1,0.058l-0.239,0.088l-0.155,0.114l-0.056,0.011l-0.056,0.007l-0.066,0.021l-0.027,0.001l-0.068-0.008  l-0.028,0.007l-0.036,0.047l0.01,0.037l0.021,0.032l0.006,0.029l-0.12,0.267l-0.179,0.102l-0.034,0.042l-0.023,0.178l-0.063,0.092  L78.18,72.51l-0.195,0.217l-0.096,0.137l-0.041,0.113l-0.016,0.068l-0.107,0.195l-0.066,0.039l-0.018,0.011l-0.013,0.03  l-0.019,0.086l-0.014,0.025l-0.402,0.185l-0.057,0.089l-0.025,0.118l-0.063,0.134l-0.167,0.26l-0.749,0.809l-0.625,0.861  l-0.326,0.202l-0.052,0.07l-0.817,0.758l-0.14,0.204l-0.054,0.047l-0.1,0.049l-0.057,0.044l-0.225,0.233l-0.106,0.15l-0.046,0.135  l-0.04,0.085l-0.677,0.528l-0.155,0.086l-0.198,0.166l-0.098,0.051l-0.02,0.113l-0.143,0.112l-0.301,0.163l-0.284,0.209l-0.183,0.1  l-0.338,0.099l-0.152,0.147l-0.118,0.198l-0.048,0.215l-0.057,0.155l-0.129,0.148l-0.625,0.521l-0.186,0.067l-0.053,0.056  l-0.08,0.118l-0.084,0.05l-0.012,0.024l0.002,0.039l-0.004,0.041l-0.025,0.037l-0.29,0.133l-0.118,0.136l-0.068,0.03l-0.119,0.021  l-0.299,0.111l-0.104,0.063l-0.545,0.579l-0.202,0.169l-0.432,0.163l-0.069,0.062l-0.028,0.011l-0.142,0.21l-0.045,0.025  l-0.045,0.017l-0.056-0.007l-0.063-0.035l-0.045,0.186l-0.146,0.159l-0.33,0.265l-0.146,0.088h-0.026l-0.025-0.017l-0.021-0.021  l-0.012-0.008l-0.021,0.022l-0.023,0.075l-0.649,0.449l-0.058,0.07l-0.463,0.224l-0.094,0.077l-0.047,0.051l-0.021,0.049  l-0.013,0.057l-0.032,0.055l-0.048,0.049l-0.057,0.017l-0.125,0.021l-0.527,0.286l-0.118,0.029l-0.146,0.012l-0.138,0.043  l-0.342,0.3l-0.122,0.032l-0.294,0.035l-0.203,0.123l-0.584,0.252l-0.073,0.01l-0.047,0.031l-0.041,0.137l-0.038,0.029l-0.132,0.021  L61.168,86.5l-0.238,0.064l-0.253,0.013L60.161,86.5L60,86.506l-0.116,0.055l-0.106,0.02l-0.143-0.063l-0.23-0.134l-0.811-0.164  l-0.836-0.045l-0.535,0.08l-0.498,0.159l-0.453,0.223l-0.194,0.153l-0.158,0.199l-0.116,0.237l-0.099,0.409l-0.019,0.173  l0.028,0.078l0.118,0.059l0.027,0.064l0.027,0.047l0.178,0.131l0.112,0.183l0.052,0.065l-0.008,0.058l-0.012,0.022l-0.021,0.023  l-0.19-0.061l-0.134,0.043l-0.12,0.076l-0.158,0.041l-0.19-0.022l-0.322-0.101l-0.176-0.031l-0.303,0.039h-0.15l-0.166-0.097  l-0.217-0.038l-0.205-0.154l-0.225-0.09l-0.515-0.138l-0.56-0.013l-0.545,0.076l-0.357,0.104l-0.146,0.079l-0.095,0.111l0.086,0.3  l-0.066,0.146l-0.104,0.129l-0.063,0.049l-0.289,0.264l-0.042,0.112l0.026,0.088l0.057,0.05l0.058,0.034l0.024,0.052l-0.021,0.064  l-0.103,0.082l-0.041,0.056h-0.043l-0.075-0.108l-0.129-0.046l-0.417-0.012l-0.335-0.09l-0.14-0.021l-0.385,0.073l-0.116-0.009  l-0.524-0.141l-0.265-0.14l-0.216-0.19l-0.115-0.047l-0.741-0.09l-0.108-0.06l-0.084-0.062l-0.393-0.166l-1.088-0.103l-0.133-0.03  l-0.262-0.099l-0.65-0.065l-1.078-0.255l-0.289,0.013l-0.979,0.227l-0.131,0.061l-0.118,0.077l-0.097,0.101l-0.06,0.16l0.043,0.146  l0.107,0.101l0.138,0.021v0.052l-2.103-0.199l-0.035-0.051l-0.036-0.209l-0.015-0.047l-0.183-0.014l-0.076-0.031l-0.051-0.055  l0.021,0.109l0.045,0.045l0.058,0.021l0.063,0.05l0.061,0.104L40,88.871l-0.041,0.045l-0.037-0.037l-0.086-0.025l-0.169-0.016  l-0.078,0.016l-0.058,0.028L39.468,88.9l-0.095-0.008l-0.486-0.153l-0.196-0.122l-0.077-0.024l-0.069-0.047l-0.049-0.106  l-0.013-0.069l0.004-0.052l0.041-0.027l0.092,0.002l-0.094-0.081l-0.136-0.043l-0.269-0.03l0.056,0.109l0.082,0.109l0.096,0.086  l0.099,0.046l-0.112,0.038l-0.148-0.029l-0.686-0.241l-0.122-0.018l-0.159,0.005l-0.121,0.023l-0.096,0.047l-0.316,0.261  l-0.247,0.131l-0.272,0.063l-0.57-0.064l-0.256,0.006l-0.523,0.129l-0.122,0.059l-0.099,0.076l-0.179,0.197l-0.078,0.152  l0.028,0.117l0.088,0.088l0.107,0.063l-0.081,0.072l-0.123,0.042l-0.791,0.12l-0.226,0.1l-0.155,0.167l-0.017,0.12l0.03,0.24  l-0.056,0.082l-0.123,0.213l-0.036,0.028l-0.359,0.211l-0.249,0.095l-0.258,0.051l-0.264,0.019L31.22,91.02l-0.228-0.142  l-0.136-0.032l-0.132,0.024l-0.254,0.104l-0.212,0.043l-0.043,0.041l-0.028,0.047l-0.033,0.045l-0.041,0.033l-0.403,0.178  L29.447,91.4l-0.264-0.021l-1-0.374l-0.243-0.056l-0.591-0.055l-0.29,0.034l-0.245,0.12h0.045l-0.348,0.1L26.4,91.203l0.163,0.027  l0.147,0.111l0.073,0.152l-0.052,0.154l-0.114,0.045L25.542,91.5l-0.854,0.118l-0.254,0.118l-0.21,0.166l-0.333,0.453l-0.114,0.11  l-0.116,0.048l-0.086,0.018l-0.042,0.05l-0.035,0.063l-0.063,0.068l-0.052,0.028l-0.198,0.077l-0.099,0.067l-0.11,0.104l-0.09,0.121  l-0.037,0.129l-0.066-0.023l-0.147,0.041l-0.249,0.108l-0.452,0.329l-0.169,0.232l0.082,0.198v0.045l-0.099,0.027L21.59,94.3  l-0.099,0.023l-0.097-0.015l-0.095-0.037l-0.088-0.047l-0.382-0.289l-0.088-0.09l-0.107-0.059l-0.977,0.029l-0.088,0.021  l-0.103,0.104l-0.082,0.027l-0.067-0.017l-0.041-0.045l-0.026-0.048l-0.028-0.039l-0.308-0.188l-0.464-0.468l-0.311-0.182  l-0.095-0.073l-0.097-0.117l-0.114-0.088l-0.144-0.021l-0.146,0.041l-0.116,0.094l-0.054-0.037L17.32,92.77l-0.052,0.014  l-0.054,0.035l0.024-0.08l0.361-0.502l0.032-0.079l-0.032-0.202l-0.095-0.232l-0.125-0.221l-0.12-0.152l-0.084-0.063l-0.077-0.021  l-0.426,0.088l-0.374-0.024l-0.082-0.022l-0.083-0.084l-0.11-0.205l-0.097-0.068v-0.051l0.157-0.026l0.071-0.108l0.041-0.152  l0.064-0.166l-0.105,0.063l-0.144,0.24l-0.064,0.054L15.48,90.77l-0.08,0.008l-0.174,0.063l-0.591,0.101l-0.129,0.084l-0.026,0.062  L14.422,91.1l-0.069-0.015l-0.056-0.037l-0.058-0.09l0.009-0.069l0.049-0.09l-0.041-0.242l-0.004-0.059l0.021-0.082l0.028-0.033  l0.034-0.029l0.045-0.062l0.05-0.144l-0.009-0.106l-0.086-0.249l-0.009-0.152l0.054-0.065l0.083-0.062l0.078-0.127l-0.254-0.389  l-0.099-0.057l-0.361-0.088l-0.57-0.057l-0.561,0.027l-0.09,0.039l-0.05,0.037l-0.22,0.091l-0.105,0.077l-0.052,0.054l-0.056,0.073  l-0.09,0.094l-0.026,0.053L12,89.441l0.014,0.076l0.031,0.037l0.041,0.033l0.039,0.047l0.084,0.307l0.009,0.072l0.004,0.066  l-0.056,0.484l0.026,0.15l0.103,0.082l-0.114,0.032l-0.15-0.079l-0.144-0.134l-0.093-0.12l-0.148-0.292l-0.02-0.086l0.006-0.048  l0.028-0.101l0.009-0.058l-0.013-0.028l-0.026-0.017l-0.027-0.014l-0.018-0.016l-0.06-0.193l-0.047-0.078L11.3,89.505l-0.054-0.069  l-0.015-0.096l0.017-0.101l0.045-0.06l0.055-0.021l0.05-0.036l0.021-0.109l0.002-0.102l0.013-0.078l0.023-0.07l0.043-0.078  L11.412,88.7l-0.036,0.014l-0.045,0.027l-0.086-0.138l-0.011-0.104l0.052-0.097l0.09-0.11l0.086-0.135l0.064-0.263l0.058-0.154  l0.199-0.159l0.234,0.004l0.195-0.028l0.082-0.271l-0.026-0.14l-0.116-0.189l-0.028-0.096l-0.015-0.144l-0.162-0.646l-0.159-0.319  l-0.034-0.144L11.7,85.584l-0.281-0.342l-0.103-0.067l-0.047-0.042l-0.021-0.064v-0.301l-0.015-0.15l-0.042-0.125l-0.15-0.246  l-0.174-0.189l-0.658-0.459l0.059-0.121l-0.035-0.146l-0.153-0.281L10,82.854l-0.147-0.199l-0.019-0.077l-0.058-0.095l-0.279-0.27  l-0.104-0.058l-0.126-0.05l-0.084-0.119l-0.069-0.131l-0.071-0.099l0.157-0.08l0.09-0.021l0.063,0.025l0.049,0.082l0.033,0.079  l0.041,0.068l0.07,0.048l-0.027,0.076l0.045,0.063L9.73,82.23l0.114,0.158l0.08,0.084L10,82.504l0.094-0.059l-0.023-0.08  L9.938,82.23L9.906,82.17l-0.01-0.122l-0.02-0.05L9.85,81.98l-0.069-0.006L9.75,81.96l-0.133-0.136l-0.049-0.071l-0.021-0.071  l0.02-0.311l-0.02-0.107L9.46,81.121L9.314,81.05L9.14,81.035l-0.183,0.029l0.054,0.113l0.032,0.04L8.97,81.234l-0.064,0.031  l-0.119,0.096l-0.066-0.074l-0.037-0.078l-0.016-0.066l-0.003-0.05l-0.021-0.062l-0.043-0.065L8.58,80.885l0.043-0.111l-0.03-0.056  L8.52,80.509l-0.04-0.161l-0.005-0.059l0.022-0.061l0.061-0.078l0.036-0.088L8.56,79.977l-0.142-0.186l-0.032-0.02l-0.024-0.028  l0.004-0.063l0.026-0.009l0.043,0.013l0.043,0.002l0.017-0.03l0.02-0.021l0.095-0.082l0.035-0.019l0.049-0.01l0.011-0.025  l0.002-0.039l0.021-0.049l0.005-0.057L8.726,79.13l0.019-0.091l0.084-0.066l0.146-0.058l0.146-0.037l0.09,0.011l-0.045,0.055  l0.071,0.105l0.309,0.286l0.262,0.104l0.232-0.062l0.205-0.157l0.735-0.744l0.142-0.281l0.088-0.258l0.142-0.586l0.023-0.283  l-0.028-0.502l-0.036-0.113l-0.073-0.161l0.035-0.115l0.146-0.192l0.028-0.289l-0.237-0.938l-0.069-0.763l-0.107-0.311l-0.037-0.154  l0.016-0.313l-0.009-0.147l-0.068-0.146l-0.075-0.102l-0.069-0.12l-0.039-0.095l-0.004-0.064l0.006-0.057l-0.006-0.077l-0.129-0.496  l-0.102-0.239l-0.148-0.24l-0.284-0.363l-0.045-0.102l-0.013-0.053L9.75,70.511l-0.29-0.308l-0.045-0.11l-0.041-0.131l-0.093-0.106  l-0.199-0.179l-0.237-0.372l-0.174-0.136l-0.06-0.175l-0.073-0.337l-0.075-0.089l-0.25-0.198L8.16,68.296l-0.033-0.092l-0.33-0.544  l-0.03-0.021l-0.063-0.174l-0.021-0.046l-0.08-0.122L7.475,66.98l-0.063-0.121l-0.424-0.6l-0.339-0.677l-0.03-0.103l-0.052-0.258  l-0.073-0.246l-0.359-0.492L5.972,64.18l0.023-0.264l-0.15-0.175l-0.341-0.628L5.449,62.95l-0.112-0.138L4.946,62.13l-0.028-0.069  l-0.02-0.181l-0.051-0.225l-0.023-0.058l-0.015-0.186l-0.321-0.561L4.407,60.62l-0.023-0.272l-0.14-0.562l-0.382-0.896l-0.039-0.238  l-0.015-0.034L3.78,58.582l-0.028-0.048L3.738,58.46l-0.003-0.071l-0.164-0.576h0.038l-0.029-0.09l0.002-0.188l-0.011-0.1  l-0.148-0.401l0.002-0.075l-0.08-0.064l-0.043-0.149L3.276,56.48l-0.178-0.496l-0.045-0.078l-0.226-0.689l-0.026-0.043l-0.118-0.13  l-0.026-0.067l-0.018-0.033L2.53,54.811l-0.129-0.42l-0.036-0.063L2.302,54.26l-0.026-0.058l0.004-0.161l-0.021-0.064L2.201,53.87  l-0.049-0.161l-0.023-0.161l0.029-0.112l-0.092-0.158l-0.39-0.342l-0.055-0.088L1.528,52.58l-0.047-0.096L1.206,52.1l-0.411-0.353  L0.731,51.6l-0.063-0.246l-0.032-0.244l0.017-0.145l-0.026-0.044L0.576,50.8l-0.009-0.052l-0.023-0.036l-0.052-0.01l-0.056-0.004  l-0.039-0.017l-0.128-0.291l-0.102-0.08l-0.155-0.166l-0.01-0.037l0.062-0.043l0.039-0.103l0.013-0.108l-0.011-0.069l0.109-0.054  l0.159-0.106l0.167-0.088l0.233-0.074l0.461-0.458l0.063-0.025l0.053,0.035l0.028,0.077l0.017,0.089l0.026,0.063l0.101,0.011  l0.123-0.104l0.107-0.148l0.069-0.116l0.015-0.116l0.009-0.158l0.032-0.137l0.088-0.06l0.064-0.056l-0.043-0.127l-0.129-0.197  L1.814,47.93l-0.026-0.143l0.028-0.122l0.108-0.054l0.054,0.024l0.06,0.046l0.06,0.021l0.058-0.045L2.17,47.57l-0.035-0.08  L2.09,47.421l-0.02-0.05l0.026-0.064l0.033-0.024l0.131,0.001l0.093-0.023L2.35,47.21l-0.107-0.138l-0.018-0.034l0.013-0.043  l0.037-0.028l0.025,0.01l0.026,0.021l0.101-0.004l0.03,0.024l0.028,0.006l0.044-0.069l0.045-0.546l0.021-0.02L2.7,46.271l0.036-0.03  l0.047,0.012l0.063,0.076l0.06,0.01l0.073-0.026l0.088-0.094l0.07-0.019L3.3,46.241l0.202-0.151l0.069-0.035l0.121-0.029h0.062  l0.069,0.029l0.084,0.103l0.07,0.139l0.08,0.127l0.118,0.054l0.153,0.047l0.056,0.119l-0.002,0.154l-0.015,0.156l0.029,0.32  l0.129,0.162l0.194,0.037l0.387-0.093l0.157-0.009l0.069,0.033l0.025,0.076l0.008,0.086l0.024,0.067l0.054,0.086l0.017,0.069  l0.006,0.07l0.025,0.084l0.042,0.07l0.096,0.129l0.032,0.078l0.013,0.147l-0.014,0.19L5.608,48.72l-0.097,0.071l-0.103,0.025  l-0.105,0.068l-0.079,0.092L5.2,49.077l0.049,0.125l0.166,0.215l0.034,0.157l0.047,0.115l0.224,0.084l0.067,0.15l-0.039,0.271  l-0.076,0.287l0.011,0.207l0.228,0.037l0.269-0.064l0.251-0.03l0.125-0.03l0.116-0.054l0.103-0.024l0.092,0.064L6.9,50.732  l-0.005,0.17l0.028,0.141l0.131,0.061l0.195,0.057l0.078-0.005l0.06-0.027l0.12-0.084l0.066-0.03l0.195-0.017l1.017,0.226  l0.219,0.094l0.207,0.131l0.37,0.309l0.234,0.121l0.512,0.182l0.114,0.002l0.217-0.078l0.535-0.076l0.135,0.011l0.256,0.095  l0.149,0.025l0.118-0.051l0.047-0.029l0.067-0.021l0.121-0.019l0.032-0.011l0.054-0.035l0.034-0.006l0.026,0.015l0.075,0.071  l0.028,0.013l0.131-0.041l0.219-0.122l1.167-0.172l1.272,0.186l0.101,0.097l0.155,0.241l0.062,0.074l0.043,0.016l0.216,0.027  l0.066,0.023l0.027,0.027l0.104,0.136l0.234-0.013l0.251-0.084l0.349-0.186l0.049-0.05l0.067-0.11l0.037-0.027l0.2-0.014  l0.073-0.046l0.002-0.084l-0.229-0.392l-0.039-0.15l0.021-0.145l0.105-0.202l0.069-0.09l0.078-0.066l0.088-0.008l0.146,0.12  l0.064,0.011l0.088-0.04l0.495-0.126l0.125-0.058l0.105-0.086l0.064-0.1l0.174-0.555l0.039-0.061l0.059-0.023l0.039-0.023  l0.052-0.125l0.032-0.057l0.054-0.066l0.036-0.057l0.039-0.047l0.062-0.044l0.054-0.017l0.613-0.045l0.103-0.057l0.121-0.095  l0.139-0.05l0.294-0.02l0.177-0.051l0.273-0.248l0.161-0.09l0.067-0.01l0.198,0.026l0.062-0.006l0.19-0.048l0.01-0.204V48.27v-0.385  v-0.387v-0.387v-0.383l-0.002-0.386v-0.385v-0.385v-0.384v-0.384V44.42v-0.385v-0.383V43.27v-0.385v-0.382V42.12v-0.383v-0.382  v-0.383v-0.38l-0.002-0.383v-0.382v-0.381v-0.38v-0.383v-0.381v-0.38v-0.38v-0.381v-0.378v-0.38v-0.381l-0.002-0.379v-0.38v-0.378  v-0.379v-0.38v-0.377V33.37v-0.38v-0.376v-0.378v-0.378V31.48v-0.376v-0.378V30.35v-0.376v-0.376V29.22v-0.378v-0.375l-0.001-0.376  v-0.376v-0.374v-0.376v-0.376v-0.374V25.84v-0.376V25.09v-0.375v-0.374v-0.374l-0.002-0.083l0.029,0.109l0.04,0.044l0.107,0.082  l0.113,0.183l0.316,0.249l0.164,0.186l0.066,0.044l0.058,0.018l0.126,0.009l0.063,0.016l0.464,0.285l0.787,0.649l0.064,0.086  l0.192,0.413l0.163,0.26l0.066,0.144l-0.009,0.099l-0.053,0.113l0.058,0.089l0.112,0.069l0.119,0.047l0.01,0.174l0.014,0.043  l0.036,0.041l0.112,0.057l0.039,0.041l0.013,0.062l-0.021,0.041l-0.028,0.039v0.049l0.025,0.048l0.064,0.085l0.024,0.054  l0.041,0.208l0.039,0.074l0.101,0.066l0.178,0.08l0.035,0.062l0.019,0.131l0.093-0.013l-0.004,0.058l-0.033,0.082l0.004,0.068  l0.06,0.028l0.056-0.024l0.051-0.033l0.056-0.001l0.08,0.068l-0.181,0.114l-0.039,0.104l-0.012,0.19l0.272,0.243l0.049,0.176  l-0.036,0.066l-0.133,0.082l-0.035,0.048l0.02,0.072l0.062,0.024l0.07,0.011l0.048,0.041l0.004,0.076l-0.052,0.144v0.069l0.05,0.069  l0.155,0.079l0.064,0.052l0.059,0.118l0.129,0.447l-0.064,0.129l-0.004,0.063L26,31.055l0.06-0.032l0.035,0.004l0.069,0.078v0.025  l0.165,0.4l0.052,0.584l-0.013,0.484l0.021,0.127l0.229,0.404l-0.021,0.105l-0.265,0.372l-0.111,0.26l-0.141,0.241l-0.352,0.445  L25.55,34.89l-0.085,0.107l-0.179,0.133l-0.028,0.083l-0.078,0.363l-0.02,0.196l0.02,0.172l0.037,0.084l0.098,0.142l0.03,0.097  l-0.011,0.157l-0.133,0.46l0.002,0.202l0.032,0.251l0.063,0.245l0.083,0.187l0.039,0.052l0.035,0.036l0.093,0.063l0.06,0.076  l0.062,0.215l0.03,0.069l0.017-0.019l0.129-0.095l0.394-0.182l0.284-0.2l0.157-0.083l0.34-0.043l0.26,0.108l0.245,0.154l0.804,0.18  l0.189-0.006l0.529-0.152h0.088l0.169,0.021l0.086-0.004l0.512-0.138l0.277-0.01l0.14,0.025l0.298,0.136l0.521,0.015l0.361,0.097  l0.129,0.002l0.138-0.054l0.346-0.236l0.112-0.107l0.067-0.12l0.026-0.125l-0.007-0.131l-0.053-0.303l0.006-0.105l0.073-0.073  l0.164-0.058l0.191-0.034l0.591-0.004l0.384-0.092l0.357-0.219l0.308-0.31l0.23-0.357l0.195-0.537l0.118-0.243l0.246-0.251  l0.064-0.134l0.054-0.04l0.279-0.05l0.095-0.032l0.148-0.078l0.315-0.307l0.207-0.308l0.133-0.11l0.193-0.036l0.277,0.06  l0.104-0.043l0.114-0.176l0.101-0.234l0.069-0.09l0.118-0.084l0.075-0.078l0.253-0.388l0.004-0.08l-0.021-0.067l-0.004-0.06  l0.066-0.054l0.173-0.064l0.06-0.043l0.053-0.086l0.03-0.112l0.017-0.158l-0.002-0.151l-0.032-0.086l-0.078-0.12l0.064-0.111  l0.123-0.108l0.092-0.101l0.067-0.114l-0.009-0.042l-0.039-0.097l-0.043-0.066l-0.035-0.013l-0.024-0.021l-0.004-0.095l0.037-0.146  l0.08-0.138l0.273-0.32l0.034-0.064l0.017-0.07l0.013-0.095l-0.011-0.073L38.6,29.786l0.007-0.054l0.082-0.064l0.056-0.064  l-0.028-0.071l-0.058-0.071l-0.037-0.067l0.004-0.055l0.017-0.056l0.047-0.104l0.123-0.415l0.041-0.067l0.155-0.063l0.066-0.079  l0.097-0.26l0.049-0.082l0.053-0.059l0.063-0.041l0.084-0.039l0.071-0.043l0.023-0.052l0.016-0.058l0.032-0.061l0.239-0.24  l0.145-0.078l0.144,0.021l0.041,0.054l0.026,0.069l0.039,0.034l0.075-0.043l0.057-0.047l0.458-0.217l0.29-0.086l0.302-0.022  l0.333,0.063l0.278,0.107l0.094,0.021l0.11-0.009l0.199-0.073l0.078-0.015l0.088,0.026l0.054,0.056l0.092,0.142l0.08,0.087  l0.063,0.043l0.178,0.083l0.153,0.095l0.642,0.505l0.047,0.066l0.076,0.077l0.341,0.106l0.057,0.051l0.062,0.14l0.041,0.06  l0.058,0.035l0.123,0.041l0.054,0.033l0.23,0.305l0.277,0.2l0.09,0.133l0.116,0.071l0.316-0.078l0.069,0.013l0.062,0.039  l0.064,0.054l0.007,0.054l-0.034,0.058l0.01,0.032l0.129-0.019l0.632-0.172l0.321-0.002l0.268,0.154l0.422,0.501l0.256,0.189  l0.308,0.052l0.167-0.043l0.123-0.052l0.121-0.015l0.731,0.271l0.322,0.221l0.215,0.047l0.445-0.049l0.198,0.045l0.171,0.045  l0.183-0.022l0.363-0.096l0.12-0.052l0.363-0.277l0.276-0.133l0.232-0.034l0.236,0.039l0.277,0.085l0.256,0.045l1.271-0.131  l0.437-0.219l0.785-0.615l0.133-0.404l0.332-0.802l0.194-0.871l0.531-1.195l0.135-0.445l0.187-0.325l0.011-0.248l0.175-0.408  l0.064-0.215l0.005-0.269l-0.064-0.487l0.013-0.164l0.033-0.031l0.045-0.008l0.203-0.069l0.312,0.011l0.092-0.048l0.199-0.146  l1.614-0.507l0.285-0.038l0.113,0.01l0.115,0.026l0.109,0.011l0.141,0.021l0.396-0.409l0.045-0.078l0.178-0.472l0.152-0.2  l0.166-0.138l0.396-0.258l0.368-0.385l0.055-0.099l0.129-0.071l0.537-0.174l0.128-0.073l0.097-0.086l0.064-0.115l0.117-0.583  l0.011-0.296l0.429-1.761l0.023-0.178l-0.04-0.133l0.172-0.317l-0.028-0.118l0.032-0.123l0.118-0.21l0.105-0.273l0.061-0.047  l0.064,0.026l0.03,0.082l0.048,0.071l0.104,0.005l0.093-0.068l-0.002-0.094l-0.038-0.117l-0.012-0.131l0.044,0.019l0.041,0.026  l0.02-0.06l0.033-0.041l0.112-0.079H64.7l0.05-0.08L64.807,16l0.065-0.009l0.075,0.047l0.027-0.08l-0.033-0.041l-0.051-0.045  l-0.025-0.08l0.025-0.053l0.063-0.01l0.067,0.028l0.051,0.06l0.025-0.045l0.047-0.054l0.017-0.041l0.042,0.054l0.05,0.023  l0.054-0.001l0.061-0.027L65.279,15.6l0.068-0.078l0.228-0.071l0.233-0.116l0.104-0.08l0.103-0.097l0.143-0.227l0.088-0.073  l0.068,0.205l0.063-0.037l0.059-0.075l0.018-0.039l0.074-0.036l0.09-0.033l0.046,0.013l-0.045,0.097l0.087,0.045l0.061-0.041  l0.049-0.076l0.06-0.064l0.079-0.032l0.254-0.009l0.131-0.039l0.123-0.081l0.09-0.119l0.034-0.148l-0.011-0.043l-0.018-0.055  l-0.01-0.042l0.016-0.017l0.021-0.01l0.021-0.031l0.013-0.036l0.007-0.037l0.025-0.101l0.113-0.127l0.055-0.184l0.068,0.002  l0.086,0.043l0.084,0.025l0.07-0.025l0.241-0.198l0.167,0.184l0.082,0.039l0.088-0.043l0.035-0.063l0.09-0.253l0.009-0.002  l0.047-0.036l0.007-0.011l0.029-0.011l-0.013-0.026l-0.025-0.03l-0.013-0.02l-0.012-0.03l-0.027-0.047l-0.018-0.049l0.016-0.052  l0.064,0.011l0.131,0.008l0.097-0.034l-0.039-0.12l0.229-0.061l0.256-0.105l0.209-0.148l0.1-0.185l-0.05-0.277l-0.005-0.15  l0.07-0.067l0.119-0.017l0.127-0.049l0.115-0.059l0.082-0.053l0.096-0.099l0.074-0.133l0.025-0.146l-0.053-0.14l0.013-0.07  l0.112-0.054l0.141-0.041l0.09-0.039l0.025-0.039l0.033-0.101l0.024-0.039l0.05-0.026l0.063-0.015l0.063-0.024l0.054-0.051  l0.047-0.084v-0.053l-0.018-0.05l-0.013-0.083l0.013-0.083l0.03-0.063l0.19-0.242l0.06-0.037l0.063-0.02l0.147-0.015l0.062-0.035  l0.222-0.26l0.09-0.08l0.226-0.125L72.5,9.488l0.502-0.034l0.383,0.099l0.1-0.03l0.129-0.111l0.107-0.02l0.12,0.018h0.164  l0.213-0.071l0.439-0.249l0.265-0.083l0.135-0.021l0.121-0.034l0.088-0.069L75.3,8.755l0.06-0.086l0.14-0.007l0.263,0.031  l0.108-0.084l0.142-0.262l0.059-0.056L76.1,8.214l-0.048-0.459l0.144-0.184l0.117-0.122l0.092-0.057v-0.03l0.125-0.172l0.054-0.023  l0.737-0.041l0.109-0.043l0.098-0.086l0.117-0.08l0.16-0.02l0.332,0.071l0.176,0.018l0.112-0.04l0.041,0.026l0.038,0.01l0.092,0.003  l0.131-0.069l0.222-0.125l0.127-0.028l0.305,0.073l0.151,0.016l0.066-0.065l0.051-0.107l0.115-0.028l0.207,0.021l0.227-0.102  l0.121-0.021l0.113,0.08l0.07-0.028l0.412-0.021l0.123,0.036l0.355,0.235l0.205,0.044l0.149,0.08l0.22,0.019l0.088,0.025  l0.168,0.104l0.062,0.024l0.128,0.03l0.063,0.03l0.116,0.125l0.009,0.03l0.017,0.021l0.18,0.022l0.088,0.037l0.175,0.126  l0.146,0.076l0.107,0.008l0.27-0.039l0.15,0.013l0.113,0.035l0.092,0.055l0.086,0.075l0.189,0.137l0.208,0.049l0.226-0.006  l0.248-0.043l0.117-0.04l0.229-0.105l0.115-0.032l0.117-0.003l0.394,0.046l0.176-0.003L86.1,7.808l0.092,0.065l0.043,0.015  l0.091-0.028l0.163-0.118l0.119-0.036l0.679-0.054l0.198-0.082l0.178,0.05l0.367,0.039l0.662,0.157l0.207,0.092l0.105,0.022  l0.104-0.024l0.203-0.097l0.09-0.016l0.066,0.042l0.122,0.15l0.044,0.032l0.042,0.013l0.097,0.063l0.049,0.019l0.05-0.006  l0.099-0.042l0.061,0.002l0.061,0.049L90.229,8.326 M74.823,50.663l-0.091-0.075l-0.269-0.008l-0.065-0.098L74.354,50.2  l-0.037-0.136l-0.055-0.115l-0.08-0.098l-0.115-0.084l-0.09,0.01l-0.347,0.234l-0.123,0.03L72.66,50.1l-0.124,0.053l-0.118,0.117  l-0.166,0.285l-0.115,0.107l-0.123,0.047l-0.142,0.018l-0.142-0.016l-0.121-0.053l-0.406,0.041l-0.057-0.021l-0.06,0.086  l-0.083,0.102l-0.167,0.248l-0.021,0.037l-0.269,0.289l-0.229,0.308l-0.025,0.054v0.055l-0.007,0.039l-0.054,0.019h-0.166  l-0.068-0.036l-0.059-0.074l-0.07-0.066l-0.116-0.012l-0.088,0.051l-0.049,0.092l-0.037,0.109l-0.06,0.104l-0.16,0.072l-0.694-0.047  l0.046,0.117l-0.064,0.055l-0.098,0.031L68.5,52.365l-0.002,0.096l-0.005,0.057l-0.017,0.035l-0.012,0.023l-0.007,0.021  l-0.002,0.049l-0.009,0.03l-0.025-0.002l-0.027-0.012l-0.023,0.01l-0.118,0.169l-0.073,0.082l-0.076,0.032l-0.098,0.028l0.028,0.063  l0.075,0.076l0.053,0.068l-0.038,0.01l-0.056,0.027l-0.03,0.012l-0.041-0.049l-0.041,0.049l0.028,0.167l-0.139,0.258l-0.349,0.428  l-0.043,0.023l-0.062,0.024l-0.063,0.035l-0.041,0.063l-0.002,0.065l0.036,0.162l0.011,0.08L67.271,54.6l-0.297,0.098l-0.103,0.063  l-0.021,0.056l-0.011,0.162l-0.015,0.063l-0.061,0.079l-0.057,0.032l-0.057,0.018l-0.055,0.045l-0.015,0.051l0.022,0.038  l0.037,0.044l0.019,0.055l-0.011,0.089l-0.022,0.041l-0.04,0.03l-0.254,0.275l-0.066,0.11l-0.026,0.125L66.21,56.1l-0.146-0.006  l-0.03,0.025l-0.013,0.08l-0.028,0.072l-0.041,0.063l-0.044,0.046l-0.196,0.115l-0.13,0.055l-0.172,0.035l-0.107,0.06l-0.063,0.023  l-0.18,0.02l-0.172,0.067l-0.031,0.022l-0.197,0.207l-0.027,0.021l-0.05-0.021l-0.015-0.043l-0.021-0.037l-0.062,0.003l-0.031,0.028  l-0.047,0.112l-0.041,0.054l-0.059-0.084h-0.064l-0.046,0.064l-0.001,0.113l-0.075,0.173l0.05,0.022l0.086,0.071l0.081,0.045  l0.08,0.071l0.179,0.27l0.051,0.104l0,0l0,0l0.67,1.597l0.117,0.136l0.293,0.248l0.088,0.142l0.082,0.331l0.041,0.1l0.074,0.115  l0.057,0.023l0.074-0.02h0.137l0.092,0.025l0.059,0.047l-0.004,0.07l-0.093,0.092l-0.134,0.33l0.013,0.201l0.136,0.377l-0.011,0.109  l0.067,0.009l0.124,0.037l0.063,0.008l0.043-0.006l0.129-0.055h0.099l0.043,0.048l0.046,0.172l0.064,0.105l0.097,0.078l0.221,0.104  l0.044,0.146l0.158,0.157l0.146,0.21l0.02,0.063l0.005,0.063l0.011,0.063l0.035,0.06l0.372,0.283l0.329,0.374l0.184,0.115  l0.213,0.067l0.256,0.033l0.061-0.011l0.116-0.058l0.054-0.01l0.071,0.025l0.051,0.039l0.047,0.049l0.06,0.046l0.119,0.062  l0.129,0.041l0.72,0.063l0.147,0.063v-0.137l-0.016-0.113l-0.004-0.114l0.033-0.144l0.041-0.063l0.05-0.036l0.055-0.027l0.048-0.043  l0.049-0.063l0.02-0.042l0.104-0.329l0.008-0.056l-0.02-0.071l-0.07-0.122l-0.01-0.059l0.049-0.084l0.518-0.406l0.08-0.094  l0.042-0.152l-0.017-0.162l-0.072-0.063l-0.088-0.041l-0.065-0.094l0.013-0.133l0.094-0.104l0.129-0.078l0.111-0.045l0.178-0.025  l0.059-0.025l0.043-0.043l0.075-0.109l0.056-0.043l0.098-0.096l0.154-0.295l0.12-0.104l0.146-0.022l0.295,0.043l0.149-0.055  l0.267-0.156l0.099-0.023l0.101,0.012l0.297,0.113l0.205,0.002l0.547-0.208l0.402-0.086l0.393-0.161l0.709-0.467l0.719-0.444  l0.072-0.033l0.16-0.047l0.071-0.037l0.038-0.058l-0.015-0.069L77.13,58.87l-0.013-0.097l0.003-0.063l-0.017-0.051l-0.076-0.06  l-0.09-0.127l0.004-0.164l0.035-0.187l0.01-0.177l0.113-0.206l0.076-0.198l0.1-0.174l0.177-0.139l0.468-0.147l0.07-0.086V56.88  l0.008-0.108l0.1-0.067l-0.086-0.109l-0.044-0.165l0.003-0.179l0.045-0.146l0.129-0.131l0.17-0.076l0.184-0.057l0.159-0.07  l0.071-0.052l0.049-0.063l0.029-0.077l-0.005-0.102l0.011-0.107l0.111-0.161l0.024-0.103l-0.021-0.039l-0.08-0.08l-0.027-0.043  l-0.006-0.051l0.004-0.105l-0.004-0.043l-0.063-0.148l-0.17-0.231l-0.066-0.243l-0.048-0.117l-0.081-0.096l-0.098-0.07l-0.068-0.084  l-0.029-0.4l-0.186-0.076l-0.242-0.008l-0.203-0.059l-0.5-0.531l-0.211-0.096l-0.138-0.036l-0.08-0.056l-0.034-0.088l-0.002-0.137  l-0.056-0.067l-0.13-0.062L76.264,52.1l-0.087,0.006l-0.335-0.345l-0.246-0.429l-0.076-0.096l-0.086-0.073l-0.093-0.056  l-0.103-0.039l-0.188-0.034L75,50.996L74.823,50.663"/></svg>