<svg xmlns="http://www.w3.org/2000/svg" xmlns:xlink="http://www.w3.org/1999/xlink" version="1.1" x="0px" y="0px" viewBox="-461 335 100 100" fill="#e0e0e0" style="enable-background:new -461 335 100 100;" xml:space="preserve"><polygon points="-361.1,406.2 -361.4,405.9 -362.1,405.5 -362.5,405.2 -362.6,405.1 -362.7,404.5 -362.8,404.3 -363.6,403.3   -363.6,403.1 -363.7,403 -363.6,402.9 -363.6,402.8 -363.6,402.6 -363.6,402.5 -363.8,402.4 -363.8,402.3 -363.8,402.2   -363.8,402.1 -363.7,401.9 -363.8,401.3 -363.9,401.1 -364,400.9 -364.2,400.8 -364.3,400.6 -364.5,400.2 -364.8,399.6   -364.9,399.4 -364.9,398.9 -364.9,398.7 -365.3,398.1 -365.4,397.9 -365.4,397.4 -365.6,396.9 -365.7,396.5 -365.8,396.1   -365.9,396.1 -366,396 -366,395.8 -366.1,395.7 -366.7,395.3 -366.8,395.2 -367,395.2 -367.4,395.2 -367.6,395.2 -367.7,395.1   -367.7,394.7 -367.8,394.7 -367.8,394.6 -367.8,394.5 -367.8,394.5 -367.7,394.5 -367.7,394.5 -367.7,394.3 -367.7,394.1   -367.8,394 -367.9,393.9 -368.4,393.5 -369.7,393.2 -369.7,393.1 -369.8,393.1 -369.9,393.1 -369.9,392.9 -370,392.8 -370.3,392.6   -370.4,392.5 -370.5,392.4 -370.5,392.4 -370.6,392.3 -370.6,392.1 -370.6,391.7 -370.7,391.5 -370.8,391.4 -370.9,391.3   -371,391.4 -371.2,391.4 -371.4,391.3 -371.6,391 -372,390.7 -372.1,390.6 -372.1,390.6 -372.1,389.7 -372.2,389.4 -372.3,389.2   -373.4,388.1 -373.7,387.9 -373.8,387.9 -374,387.9 -374.1,387.8 -374.5,387.5 -374.8,387.1 -374.9,387 -375,386.9 -375.3,386.8   -375.5,386.7 -375.6,386.7 -376.2,386.7 -376.4,386.7 -376.5,386.6 -376.6,386.4 -376.7,386.4 -376.8,386.3 -377,386.3   -377.1,386.2 -377.2,386.1 -377.4,386.2 -377.8,386.2 -377.9,386.3 -378.1,386.4 -378.2,386.4 -378.7,386.3 -378.9,386.1 -379,386   -379.2,385.9 -379.3,385.8 -379.5,385.8 -379.8,385.7 -379.9,385.7 -380.2,385.7 -380.2,385.8 -380.3,385.8 -380.4,385.8   -380.6,385.7 -380.8,385.7 -380.9,385.7 -380.9,385.6 -381,385.5 -381,385.5 -381.1,385.4 -381.2,385.2 -381.4,384.6 -381.4,384.5   -381.3,384.4 -381.3,384.3 -381.2,384.3 -381.2,384.2 -381.1,384 -381.1,383.9 -381,383.8 -380.5,383.2 -380.4,383.2 -380.4,383.1   -380.3,383 -380.3,383 -380,382.9 -379.9,382.8 -379.8,382.7 -379.7,382.6 -379.7,382.4 -379.7,382.4 -379.8,382.3 -379.9,382.3   -379.8,382.1 -379.8,382 -379.8,382 -379.7,381.9 -379.6,381.8 -379.6,381.8 -379.5,381.7 -379.5,381.6 -379.6,381.6 -379.7,381.5   -379.8,381.4 -379.8,381.3 -379.9,381.3 -379.9,381.1 -379.9,381.1 -379.8,380.9 -379.8,380.8 -379.8,380.8 -379.9,380.7   -379.9,380.7 -379.9,380.6 -379.9,380.6 -379.9,380.5 -379.9,380.4 -379.8,380.3 -379.8,380.2 -379.7,380.2 -379.5,380.2   -379.5,380.1 -379.5,380 -379.5,380 -379.2,379.8 -379.1,379.8 -378.1,380 -378,379.9 -377.9,379.9 -377.8,379.8 -377.8,379.8   -377.7,379.8 -377,379.8 -377,379.7 -377,379.7 -377,379.6 -376.8,379.6 -376.7,379.7 -376.5,379.8 -376.4,379.9 -376.2,379.8   -376.1,379.8 -376,379.7 -375.8,379.7 -375.5,380 -375.3,380.3 -375.1,380.5 -374.7,380.6 -374.6,380.6 -374.6,380.6 -374.2,380.2   -374.1,380.2 -374,380.1 -373.8,380.1 -373.5,380 -373,380 -372.8,380 -372.6,379.9 -371.8,379.1 -371.6,378.9 -371.5,378.7   -371.4,378.2 -371.8,370.8 -373.3,370.8 -373.3,370.8 -373.3,370.7 -373.4,370.7 -373.4,370.6 -373.4,370.4 -373.5,370   -373.4,369.3 -373.2,368.5 -372.7,367.3 -372.6,367.2 -372.6,367.2 -372.6,367.1 -372.7,366.9 -372.7,366.7 -372.8,366.4   -372.7,365.8 -372.7,365.7 -372.7,365.4 -372.7,365.3 -373.1,364.3 -373.3,364.1 -377.1,360.9 -377.9,360.1 -377.9,360 -378,359.9   -380,359.2 -380.1,359.1 -380.1,359 -380,358.9 -379.8,358.5 -379.8,358.4 -379.7,358.2 -380.6,351.5 -380.6,351.3 -380.6,351.2   -380.5,351.2 -380.4,351 -380.3,350.9 -380.2,350.6 -380.2,350.5 -380,349.3 -380.1,348.3 -379.5,346.5 -379.5,345.8 -383.8,345.7   -383.8,345.7 -383.8,345.8 -383.8,345.9 -383.8,345.9 -383.8,346 -383.8,346.2 -383.8,346.4 -383.8,346.5 -383.8,346.9   -383.6,347.2 -383.6,347.3 -383.6,347.4 -383.6,347.7 -389.6,347.7 -387.2,350.3 -387.2,350.4 -387.2,350.5 -387.1,350.6   -387.1,351.6 -387.2,353 -387.2,354 -387.1,354.6 -386.4,355.8 -386.5,356 -386.6,356.3 -390.8,359.9 -391,360.1 -391.5,361.6   -392.1,362.4 -392.4,362.7 -393.3,363.9 -397.2,367.7 -397.8,368 -399.7,368.1 -400.8,368.1 -400.9,368.1 -401,368.2 -401.2,368.3   -401.3,368.4 -401.4,368.3 -401.5,368.2 -403.9,366.1 -408.2,363.4 -408.6,363.6 -410.9,364.8 -411.4,365.1 -411.7,365.3   -411.7,366.6 -412.1,367.3 -412.9,368 -415,368.5 -416.1,368.8 -417.2,369.4 -417.3,369.6 -418,370.1 -418.6,370.7 -418.8,371   -418.8,371.4 -418.7,371.7 -418.6,371.9 -425.8,371.9 -426.2,371.4 -427.2,369.5 -427.2,369.5 -427.4,369.6 -428.3,369.6   -429.4,369.4 -429.5,369.4 -429.7,369.5 -429.7,369.5 -430.4,369.4 -431.7,369.4 -432.1,369.3 -434.5,369.4 -437.9,370.6   -438,370.6 -438.5,370.5 -438.8,370.4 -439.2,370.2 -442.5,366.2 -443.2,366 -443.4,365.8 -443.5,365.7 -444,364.8 -444.1,364.7   -444.1,364.7 -444.1,364.7 -444.2,364.6 -444.4,364.6 -444.5,364.5 -444.9,364.3 -444.9,364.3 -445,364.2 -445,364.2 -445,364.1   -445.1,362.7 -445.1,362.7 -445.1,362.6 -445.2,362.5 -445.6,362.1 -445.6,362 -445.7,362 -446.1,362.1 -446.3,362.2 -446.4,362.3   -446.4,362.3 -446.8,362.3 -446.8,362.3 -447,362.3 -447.2,362.3 -447.5,362.3 -447.5,362.3 -447.9,362.4 -448.6,362.7   -448.6,362.7 -448.7,362.7 -448.8,362.7 -449.2,362.7 -449.3,362.7 -449.4,362.7 -449.5,362.8 -449.6,362.8 -449.7,362.9   -449.8,362.9 -449.9,362.9 -450,362.9 -450,362.9 -450.2,363 -450.2,363 -450.3,363 -450.4,363 -450.4,363 -450.5,363 -450.6,363   -450.6,363 -450.7,363 -450.7,363 -450.8,363 -450.9,362.9 -451,362.9 -451,362.9 -451.1,362.9 -451.2,363 -451.2,363 -451.3,363   -451.4,363 -451.6,363.1 -451.7,363.1 -451.9,363.1 -452,363.1 -452.2,363.1 -452.3,363.2 -452.4,363.2 -452.4,363.2 -452.5,363.4   -453,364.3 -453,364.4 -453,364.5 -453,364.6 -453,364.6 -452.9,364.8 -452.9,364.9 -452.9,365 -452.9,365 -452.9,365.1 -453,365.3   -453.2,365.8 -453.3,366 -453.3,366.1 -453.4,366.2 -453.5,366.4 -453.8,366.7 -453.9,366.8 -454.2,367 -454.5,367.3 -454.6,367.3   -454.7,367.4 -454.8,367.4 -454.8,367.4 -454.9,367.4 -454.9,367.4 -454.9,367.5 -455,367.7 -455,370.1 -455,370.2 -455,370.4   -455.6,371 -455.9,371.2 -455.9,371.3 -456,371.5 -456.2,373.2 -456.2,373.3 -456.2,373.4 -457,374.7 -457.1,374.9 -457.1,374.9   -457.1,375.9 -457.1,376 -457.2,376 -457.7,376.2 -458.5,376.2 -458.7,376.3 -459.7,376.9 -459.9,377 -460.4,377.4 -460.5,377.5   -460.5,377.6 -460.6,377.7 -460.5,377.7 -460.1,377.7 -460,377.7 -460,377.9 -460.2,378.1 -460.2,378.2 -460.1,378.4 -459.9,378.6   -459.8,378.7 -459.9,378.8 -460.3,379 -460.4,379.1 -460.9,379.9 -461,380.2 -461,380.5 -460.9,380.8 -460.7,381 -460.5,381.2   -460.2,381.3 -460.1,381.4 -459.8,381.5 -459.6,381.5 -459.4,381.5 -459.4,381.5 -459.3,381.5 -459.2,381.7 -459.1,381.7   -458.5,381.5 -458.2,381.4 -458,381.6 -458,381.7 -457.9,381.8 -457.9,381.8 -457.8,381.8 -457.5,382 -457.2,382 -456.6,381.9   -456.1,382 -455.9,382 -455.7,382 -455.4,382.2 -454.9,382.3 -454.6,382.4 -453.9,383.1 -453.8,383.2 -453.7,383.6 -453.6,383.8   -453.5,383.9 -453.5,384 -453.4,384 -453.4,384.1 -453.3,384.1 -452.9,384.6 -452.6,384.8 -452.3,384.9 -452.2,384.9 -451.9,384.9   -451.8,384.9 -451.6,384.9 -451.5,384.9 -451.5,385 -451.4,385 -451.2,385.1 -451.1,385.2 -451,385.4 -450.9,385.6 -450.7,385.9   -450.7,386 -450.7,386.2 -450.7,386.6 -450.7,386.7 -450.6,386.8 -450.6,387 -450.7,387.1 -450.9,387.3 -451.4,387.5 -451.6,387.7   -451.6,387.8 -451.6,387.9 -451.4,388.4 -450.9,388.7 -450.8,388.7 -450.7,388.8 -450.6,388.9 -450.6,389 -450.5,389 -450.3,389.1   -450.3,389.1 -450.2,389.3 -450.2,389.5 -450.1,389.6 -450,389.8 -449.9,389.9 -449.4,390.1 -449,390.4 -448.8,390.5 -448.6,390.4   -448.5,390.5 -448.4,390.5 -447.9,390.9 -447.8,391 -447.3,391.1 -447.1,391.2 -446.9,391.4 -446.8,391.4 -446.6,391.4   -446.5,391.4 -446.4,391.6 -446.3,391.6 -446.1,391.6 -446,391.7 -446,391.8 -445.9,391.9 -445.8,392 -445.4,392 -445.2,392.1   -445.2,392.2 -445.2,392.3 -445.1,392.4 -444.9,392.6 -444.8,392.6 -444.6,392.6 -444.5,392.7 -444.5,392.7 -444.4,392.8   -444.4,392.8 -444.3,392.9 -443.9,392.9 -443.9,393.1 -443.8,393.6 -443.7,393.8 -443.7,393.8 -443.6,393.8 -443.6,393.8   -443.5,393.8 -443.5,393.8 -443.5,393.9 -443.5,393.9 -443.5,394 -443.5,394.1 -443.5,394.2 -443.4,394.3 -443.3,394.4   -443.1,394.5 -443,394.6 -442.8,394.6 -442.5,395 -442.2,395.2 -442,395.4 -441.7,395.5 -441.2,395.7 -440.8,396 -440.7,396.3   -440.8,396.4 -441,396.7 -441.1,396.8 -441.2,397 -441.4,397.4 -441.5,397.5 -441.6,397.5 -441.7,397.6 -441.7,397.7 -441.6,397.7   -441.5,397.9 -441.6,398 -441.6,398.2 -441.6,398.4 -441.5,398.5 -441.3,398.5 -441.1,398.6 -441,398.8 -440.8,399 -440.7,399.1   -440.6,399.2 -440.2,399.2 -440.1,399.3 -440.1,399.6 -440.1,399.8 -440,399.8 -439.8,399.8 -439.7,399.9 -439.6,400 -439.6,400.2   -439.6,400.3 -439.7,400.3 -439.8,400.5 -439.9,400.5 -440,400.6 -440.2,400.7 -440.3,400.8 -440.4,401 -440.4,401.1 -440.3,401.2   -440.2,401.2 -439.8,400.9 -439.7,401 -439.6,401.1 -439.5,401.3 -439.4,401.5 -439.3,401.6 -438.7,401.8 -438.5,401.8   -437.8,401.8 -437.2,402 -437,402.1 -436.9,402.2 -436.9,402.6 -436.8,402.8 -436.6,402.9 -436.4,402.9 -436.2,402.8 -436.1,402.8   -436,403 -435.9,403.2 -435.7,403.2 -435.4,403.1 -435.3,403.2 -435.1,403.5 -435,403.6 -434.9,403.7 -434.9,403.8 -434.8,403.8   -434.6,403.7 -434.5,403.7 -434.2,403.9 -434.1,403.9 -434,404.1 -434,404.2 -434,404.2 -433.8,404.3 -433.6,404.4 -433.5,404.5   -433.5,404.6 -433.4,404.7 -433.4,404.8 -433.4,404.9 -433.4,404.9 -433.2,405 -433.2,405.1 -433.2,405.1 -433.2,405.3   -433.3,405.4 -433.3,405.5 -433.2,405.6 -433.2,405.6 -433.1,405.5 -433.1,405.5 -433.1,405.5 -433,405.5 -433,405.5 -432.9,405.6   -432.8,405.6 -432.9,405.8 -432.8,405.9 -433.2,406.9 -433.2,407 -433.2,407.1 -433.1,407.3 -433.1,407.8 -433,407.9 -432.8,408.5   -432.7,408.7 -432.5,409 -432,409.3 -431.7,409.5 -431.6,409.9 -431.4,410 -431.3,410.1 -431.2,410.2 -431.2,410.3 -431.3,410.7   -431.2,410.7 -431.2,410.8 -431.1,410.8 -431,410.8 -430.8,411 -430.7,411.1 -430.6,411.2 -430.6,411.4 -430.6,411.5 -430.4,411.6   -430.3,411.7 -430.2,411.7 -429.4,411.8 -429.3,411.9 -429.2,412.1 -429.1,412.5 -429,412.6 -428.9,412.7 -428.8,412.7   -428.7,412.7 -428.6,412.6 -428.5,412.7 -428.4,412.8 -428.4,412.9 -428.3,413 -428.3,413.2 -428.4,413.7 -428.4,414.1   -428.3,414.3 -428.2,414.4 -428.2,414.4 -428.1,414.4 -428,414.5 -427.9,414.5 -427.8,414.6 -427.7,414.7 -427.6,414.8   -427.5,414.8 -427.2,414.8 -427.2,414.8 -427,414.8 -427,414.8 -427,414.8 -427,414.7 -426.9,414.7 -427,414.7 -426.9,414.7   -426.8,414.6 -426.8,414.7 -426.7,414.8 -426.6,414.8 -426.5,414.8 -426.1,414.8 -426.1,414.9 -426.1,415.1 -426.1,415.3   -426.1,415.4 -426.1,415.4 -426.1,415.5 -426,415.6 -425.8,416 -425.7,416 -425.5,415.8 -425.4,415.8 -425.4,415.8 -425.3,415.8   -425.2,415.9 -425.2,416 -425,416.3 -424.8,416.5 -424.6,416.6 -424.3,416.7 -423.9,416.6 -423.5,416.6 -423.2,416.8 -423.1,417   -423.1,417.1 -423,417.2 -422.8,417.3 -422.6,417.3 -422.4,417.1 -422.2,417 -421.9,416.5 -421.8,416.4 -421.6,416.4 -421.5,416.4   -421.4,416.4 -421.3,416.4 -421.2,416.4 -421.1,416.3 -421.1,416.2 -421.1,416.1 -421,416 -420.6,416 -420.5,415.9 -420.3,415.7   -420,415 -419.9,415 -419.7,415 -419.6,414.9 -419.5,414.8 -419.4,414.8 -419.4,414.8 -419.3,414.8 -419.2,415 -419.2,415.2   -419.1,415.4 -418.9,415.5 -418.8,415.5 -418.8,415.5 -418.5,415.4 -418.1,415.5 -417.9,415.4 -417.4,415.3 -417.3,415.3   -417.3,415.4 -416.9,415.7 -416.8,415.7 -416.7,415.8 -416.7,415.8 -416.4,416 -416.3,416.1 -415.7,416.6 -415.5,416.7   -415.3,416.7 -415.2,416.5 -415.2,416.4 -415.1,416.3 -414.8,416.3 -414.7,416.3 -414.5,416.3 -414.4,416.1 -414.3,415.8   -414.2,415.7 -413.7,415.3 -413.6,415.2 -413.6,415 -413.5,414.8 -413.4,414.7 -413.3,414.5 -413.3,414.4 -413.3,414.3   -413.2,414.2 -413.2,413.9 -413.1,413.8 -413,413.7 -412.8,413.8 -412.8,413.8 -412.7,413.9 -412.6,413.9 -412.5,413.8   -412.4,413.8 -412.4,413.9 -412.3,413.9 -412.1,414 -411.8,414 -411.7,414 -411.3,414.2 -411.2,414.3 -411,414.5 -410.8,414.6   -410.8,414.6 -410.6,414.5 -410.5,414.5 -410.3,414.7 -410.2,414.7 -410.1,414.8 -410.1,414.9 -410.2,415 -410.3,415.1   -410.3,415.1 -410.2,415.3 -410.2,415.4 -410.2,415.5 -410.3,415.7 -410.3,416.1 -410.2,416.4 -409.9,416.6 -409.5,416.6   -409.3,416.7 -409.1,416.8 -408.9,417 -408.8,417.2 -408.8,417.2 -408.9,417.3 -409,417.4 -408.9,417.5 -408.9,417.6 -408.8,417.6   -408.7,417.6 -408.6,417.7 -408.4,417.8 -408.2,418 -408,418.4 -407.9,418.5 -407.8,418.6 -407.4,418.7 -407.2,418.8 -407.1,419   -407,419.2 -406.9,419.4 -406.7,419.7 -406.7,419.8 -406.6,419.9 -406.6,420 -406.6,420 -406.6,420.1 -406.4,420.2 -405.8,420.2   -405.2,420.4 -404.9,420.6 -404.5,420.8 -404.2,420.9 -404.1,420.9 -403.9,420.9 -403.8,420.9 -403.7,420.9 -403.6,420.9   -403.6,420.9 -403.5,421 -403.4,421.2 -403.2,422.5 -403.2,422.6 -403.3,423 -403.3,423.1 -403.4,423.1 -403.4,423.2 -403.3,423.3   -403.2,423.3 -403.1,423.3 -403,423.3 -402.8,423.3 -402.6,423.1 -402.4,423 -402.3,423 -402,423 -401.9,422.9 -401.7,422.7   -401.6,422.6 -401.4,422.8 -401.4,422.8 -401.4,422.8 -401.3,423.2 -401.3,423.3 -401.2,423.4 -400.9,423.5 -400.8,423.6   -400.8,424.1 -400.7,424.3 -400.7,424.1 -400.5,423.8 -399.9,422.9 -399.9,422.8 -399.8,422.7 -399.8,422.6 -399.7,422.5   -399.6,422.5 -399.4,422.5 -399.3,422.5 -399.2,422.4 -398.9,422.2 -398.9,422.2 -398.7,422.1 -398.6,422.1 -398,421.7   -397.8,421.6 -397.4,421.6 -397,421.6 -396.7,421.8 -395.9,422.2 -394.8,422.8 -394.6,422.8 -394.5,422.7 -394.4,422.6   -394.2,422.5 -393.3,422.4 -393.1,422.3 -393.1,422.2 -392.3,421.4 -392.3,421.4 -392.3,421.4 -392.1,421.5 -391.8,421.7   -391.2,422.4 -391.1,422.6 -391,422.8 -391,423.2 -391,423.3 -390.8,423.4 -390.1,423.4 -390,423.5 -389.8,423.8 -389.6,423.9   -389.5,424 -388.9,424.1 -388.8,424.1 -388.8,424 -388.7,423.8 -388.7,423.7 -388.8,423.4 -388.7,423.3 -388.6,423.1 -387,422.1   -386.6,422 -385,421.9 -383.5,421.8 -382.8,421.6 -382.1,421.2 -381.5,420.8 -381.4,420.8 -381.2,420.8 -380.1,421.8 -379.9,421.9   -379.6,421.9 -378.8,421.9 -377.3,422 -377,422 -376.6,421.8 -375.9,421.1 -375.1,420.2 -374.1,419.2 -373.3,418.5 -372.6,417.8   -371.7,416.9 -370.8,416 -369.9,415.1 -369,414.2 -368.5,413.7 -368,413.2 -367.5,412.7 -367,412.2 -366.5,411.8 -366,411.3   -365.5,410.8 -365,410.3 -364.5,409.8 -364,409.3 -363.5,408.8 -363,408.3 -362.5,407.9 -362,407.4 -361.5,406.9 -361,406.4 "/></svg>