<svg xmlns="http://www.w3.org/2000/svg" xmlns:xlink="http://www.w3.org/1999/xlink" version="1.1" x="0px" y="0px" viewBox="-461 335 100 100" fill="#999999" style="enable-background:new -461 335 100 100;" xml:space="preserve"><path d="M-430,349.1l0.1-0.1l0.2-0.2l0-0.2l-0.1-0.1l-0.2-0.1l-0.2,0.2l-0.2,0.1L-430,349.1z M-433.3,341.8l0.2,0l0.1-0.1l0.1-0.5  l-0.1-0.4l-0.3-0.2l-0.2,0l0,0.1l0.1,0.3l-0.1,0.1l-0.2,0l-0.2-0.2l-0.2-0.5l-0.1-0.1l-0.1,0.1l0,1l0.2,0.2L-433.3,341.8z   M-385.3,389.3l0,0.3l0.1,0.3l0.2,0.5l0,0.3l0.9,1.2l0.1,0.2l0.3,0.2l0.1,0.6l-0.1,1.7l0,0.3l0.2,0.2l0.4,0.3l0.4-0.3l0-0.5  l-0.4-2.2l-0.9-1.4l-0.3-0.8l-0.2-0.3l-0.3-0.7l-0.3-0.3l0.1,0.3l0,0.2L-385.3,389.3z M-437.1,353.7l-0.1,0.2l0.1,0.2l0.3,0.1  l0.6,0.1l0.6,0.2l1,0.5l1.1,0.9l0.3,0.1l0.2,0.2l0.3,0.3l0.4,0.3l0.6,0.1l-0.2-0.4l-1.2-1.3l0.4,0.1l0.7,0.4l0.4,0.1l-0.9-0.8  l-1-0.6l-1.1-0.4l-1-0.3h-1.1L-437.1,353.7z M-432.5,340.1l0.4,0.3l0.3,0l0.5-0.3l0.2,0l0.3,0.2l0.4,0.1l0.3,0l0.2-0.2l-0.1-0.2  l-0.3-0.2l-0.4-0.2l-0.3-0.2l-0.1-0.2l0-0.4l-0.1-0.1l-0.5,0l-0.1,0l-0.2-0.2l-0.1-0.3l0-0.3l0-0.4l0.1-0.3l0.1-0.3l0-0.2l-0.3-0.1  l-0.6,0.1l-0.2,0.5l-0.1,0.6l-0.3,0.4l0.6,1.2L-432.5,340.1z M-381.1,406.4l-0.3-0.9l-0.1-0.4l0.1-6l-0.6-2.2l-0.4-0.6l-0.1-0.5  l-0.1-0.2l-0.2-0.2l-0.1-0.1l0,0.1l0.1,0.2v0.2l-0.2,0.2l-0.1,0.3l-0.1,0.4l0,0.4h-0.2l0-0.4l-0.2-1h-0.2l-0.2,0.3l-0.2,0l0-0.2  l0.3-0.2l-0.2-0.2l-0.1-0.1l-0.1-0.1l-0.1-0.2l-0.1-0.2l0.1-0.2l0.2-0.1l0.1-0.2l0-0.1l-0.1-0.2l0-0.1l0.2-0.6l0-0.1l-0.5-1.2  l-0.1-0.2l-0.6-0.4l-0.3-0.1l0.1,0.4l-0.2,0.2l-0.1-0.2l0-0.2l0-0.1l0.1-0.2l-0.3-0.5l-0.3-0.3l-0.7-0.6l0-0.3l-0.2-0.2l-0.3-0.1  l-0.3-0.1l-0.2,0.3l-0.3,0.1l-0.3,0l-0.3-0.1l0.2-0.6l0.3-0.3l0.4,0l0.4,0.2l0.3,0.3l0.6,0.8l0.3,0.2l0.6-0.2l-0.1-0.5l-0.4-0.6  l-1.1-1.1l-0.3-0.4l-0.2-0.5h-0.2l-0.5,0.1l-0.5-0.6l-0.3-0.9l0.2-0.6l0.1-0.1l0.1-0.1l0.1,0l-0.2-0.3l-0.5-0.4l-0.2-0.3l0-0.3  l0.1-0.2l0.1-0.2l-0.1-0.3l-0.1,0.1l-0.3,0.1l-0.1,0.1l0-0.1l0-0.1l-0.1-0.1l-0.1-0.1l0.1-0.1l-0.1-0.2l-0.1,0.1l-0.2,0.1l-0.1,0.1  l-0.3-0.7l-0.2-0.3l-0.3-0.3l-0.2-0.4l-0.2-0.9l-0.2-0.4h-0.2l-0.2,0.6l-0.4,0l-0.4-0.3l-0.2-0.5l0-0.1l-0.2-0.1l-0.1-0.1l0-0.2  v-0.1l0-0.1l0,0l0-0.3l0-0.8h0.2l0.4,1.1l0.3,1.2l0.5-0.6l-0.2-1.2l-0.6-2.1l-0.1-0.4l-0.2-0.8l-0.2-1l-0.3-0.1h-0.3l-0.3-0.2  l-0.1-0.3l-0.1-0.9l0-0.2l0.3,0.1l0.3,0.7l0.3,0.2l0-0.7l-0.4-1.3l-0.2-1l-0.2-0.4l-0.3-0.3l-0.3-0.2l-0.3,0l-0.3,0.1l-0.7,0.3  l0.3,0.6l-0.4,0.3l-1.2,0l-0.6-0.2l-0.4-0.4l-0.3-0.5l-0.4-0.4l-0.5,0.4l-0.4,0.1l-0.1-0.2l0.3-0.4l0.4-0.2l0.4,0.1l0.4,0.3l0.4,0.3  l0.2-0.4l-0.1-0.3l-0.2-0.2l-0.1-0.3l0.2-0.4l0.3,0l0.2,0.3l-0.1,0.4l0.6-0.1l-0.1-0.6l-0.6-1.2l-0.1,0.1l-0.4,0.1l0.2-0.3l0.3-0.1  l0.2-0.2l0-0.5l-0.2-0.4l-0.7-0.8l0.1-0.2l-0.2-0.1l-0.1,0l-0.1,0.1l-0.1,0.2l-0.4-1.3l-0.3-0.7l-0.6-0.3l-0.3-0.3l-0.5-1.3  l-0.4-0.3l-0.5-0.1l-0.3-0.3l-0.8-1.4l-0.9-1.1l-0.2,0.4l-0.3,0.5l-0.3,0.3l-0.4,0l-0.4-0.3l0.2-0.3l0.3-0.3l-0.3-0.2l0-0.5  l-0.9-0.9l-0.3-0.4l0.4,0.2l0.7,0.2l0.3,0.2l0.3,0.4l0.1,0.1l0.2-0.1l0.1-0.2l0-0.2l-0.1-0.1l-0.5-0.3l-0.5-0.7l-0.4-0.8l-0.1-0.6  l-0.1,0.1l-0.1,0l-0.1,0.1l-0.1,0.1h-0.2l-0.1-0.6l-0.4-0.2l-0.4-0.1l-0.2-0.1l0.1-0.4l0.3,0l0.7,0.3l-1.2-2.4l-0.3-0.8l-0.2-0.1  l-0.4,0.1l-0.1,0.2l0.1,0.3l0.2,0.3l-0.5-0.3l-1.3-1.2l-0.1-0.3l0.2-0.1l0.5,0.1l0.2,0.1l0.3,0.3l0.2,0.1l0.3-0.2l-0.3-0.4l-0.6-0.5  l-0.3-0.4l-0.2-0.3l-7.1-5.7l-1-0.6l-0.5-0.4l-3.4-3.9l-0.2-0.4l-0.2-0.8l-0.4-0.2l-0.5-0.1l-1.1,0.1l-0.7,0.1l-0.5,0.2l0,0.4  l0.4,0.3l1.5,0.3l0.9,0.5l1.8,2.1l2.2,1.8l0.9,0.5v0.2l-1.9-0.9l-0.8-0.5l-3-3.2l-0.3-0.2l-0.2,0l-0.3,0.1l-0.3,0l-0.1-0.2l-0.1-0.1  l-0.6-0.2l-0.2,0l-0.2-0.1l-0.1-0.2l0-0.5l-0.1-0.3l-0.4,0l-1,0.1l-2-0.2l-0.5,0.2l-1,0.9l-0.6,0.3l0.2,0.3l0.4,0.5l0.2,0.3l0.1,0.3  l0,0.3l0.1,0.2l0.3,0.2l0-0.2l0.2,0.1l0.3,0.2l0.6,0.2l1,0.8l1.2,0.7l0.6,0.3l0.6,0.1l-0.3-0.3l-0.5-0.4l-0.3-0.3l0.6,0.2l1,0.8  l0.5,0.3l0.2,0.1l0.2,0.1l0.2-0.1l0.2-0.3l-0.2-0.3l-0.3-0.2l-0.2-0.2l-0.1-0.6l0.3,0l0.5,0.3l1.6,0.7l0.8,0.5l1.8,1.6l0.2,0.1  l0.8,0l0.1,0l0.3,0.2l0.1-0.1l0.1-0.1l0.2-0.1l0.5,0l0.2,0l0.2,0.1l0.5,0.3l0.2,0.1l0.5,0.1l0.6,0.3l1.7,1.2l-1.2-0.2l-1.6-0.7  l-1.4-0.4l-0.6-0.1l-2.3,0.9l-1.3,0.3l-0.5-0.4l0.2-0.2l-0.1-0.2l-0.1-0.2l0.3-0.2l-0.1-0.3l-0.6-0.5l-0.4-0.2l-1.5-0.4l-1.5-0.9  l-0.8-0.3l-0.8,0l0.4,0.5l1.9,1.1l0.5,0.4l0.4,0.4l0.3,0.4l0.2,0.4l-0.3,0l-0.2,0.1l-0.2,0.1l-0.2,0.1l-0.6,0.7l-0.2,0.1l-0.5,0.1  l-0.6,0.2l-0.6,0.3l-0.3,0.3l0,0.3l0.1,0.6l0.2,0.6l0.3,0.3l0.7,0.4l0.3,0.1l0,0.1l-0.1,0.2v1.5l-0.3,1l-0.8,2.1l-0.2,0.9l-0.3,0.6  l-0.2,0.6l-0.3,0.3l-0.8,0.4l-1.5,1.3l-0.2,0.1l-0.3,0.1l-0.2,0.1l0.1,0.3l0.1,0.2l0.1,0.3l0.1,0.6l0,1.8l0,0.3l0.6,1.6l-0.2,2.5  l-0.2,0.5l-0.1,0.2l-0.1,0.1l-0.3,0.9l-0.3,0.4l-0.4,0.3l-0.3,0.3l-0.1,0.5v1.1l-0.1,0.4l-0.1,0.2l-0.2,0.1l-0.2,0.3l-0.2,2.5  l-0.2,1.1l-0.1,0.5l-0.1,0.3l-0.3,0.4l-0.1,0.2l0,0.3l0,0.1l0.1,0.1l0.1,0.2l0,0.2l0,0.5l0,0.3l0.1,0.2l0.1,0.2l0.1,0.2l0,0.3  l-0.9,1.6l0.1,0.3l0.3,0.2l0.3,0.4l0.3,0.5l0.1,0.5l-0.6,0.4l-1.2-0.1l-0.8-0.6l0.5-1.1l-0.6-0.7l0-0.8l0.4-1.4l0-0.2l0-0.6l0-0.3  l0.1-0.1l0.1,0l0.1-0.1l0.3-0.5l0.3-0.7l-0.3,0l-0.2-0.1l-0.2-0.2l-0.1-0.3l0.5-0.9l0.4-0.9l-0.8,1.2l-0.1,0.3l-0.1,0.5l-0.3,0.6  l-0.4,0.5l-0.4,0.3l0.1,0.5l0.1,1.5l-0.1,0.5l-0.1-0.1v0l0,0l-0.1,0l0,0.8l0.6,2.9l0.4,1l0.3,1.3l0.3,0.6l0.7,3.2l0,0.9l0.1,0.5  l0.2,0.4l0.1,0.4l-0.1,0.5l-0.1,0.5l0,0.4l-0.2-0.1l-0.1,0l-0.1,0.1l0.2,0.3l1.3,9.1l-0.1,0.2l-0.1,0.2l0,0.2l0.1,0.2l0.2,0.1  l0.3,0.1l0.1,0.1l0.1,0.3l0.1,0.3l0,0.8l0,0l-0.1,0l-0.1,0.1l0,0.2h-0.2l-0.1-0.2l-0.2-0.9l-0.1-0.2l-0.1-0.2l-0.1-0.2l0-0.4  l-0.2,0.6l1.2,4.3l0,0.3l-0.1,0.3l-0.3,0.7v1.8l0.4,2.1l2.7,7l0.2,1.4l-0.1,0l-0.1,0l-0.1,0l0,0.1l0.1,0.1l0.1,0.1l0.1,0.1l0.1,0  l0.4,1.6l0.5,0.8l0.2,1.2l0.2,0.4l0,0.1l0,0.4l0,0.2l1.2,2.5l0.3,0.4l0.1,0.1l0,0.2l0,0.1l0.1,0.1l0.2,0.1l2.1,2.2l0.5,0.4l0.2-0.2  l0.4,0.2l0.6,0.4l0.8,0.2l1.3,0.5l0.1,0.1l0.2,0.2l0.1,0.1l0.1,0l0.1-0.1l0.1-0.1l0.1,0l0.2,0.1l0.1,0.1l0.1,0.1l0.1,0.1l0.9,0.1  l0.4,0l0.4-0.3l0.2,0.3l0.1,0.3l0.2,0.2l0.4,0.1l1.5-0.2l0.4,0.1l0.4,0.2l0.4,0.2l0.4-0.1l0.6-0.5l0.3-0.2l0.3-0.1l0.4-0.1l1,0.1  l0.5-0.5l2-1.5l0.7-0.3l0.7,0.1l0.4-0.5l0.6-0.2l1.4-0.3l1.3-0.4l2.7-0.6l0.6-0.2l0.6-0.3l0.3-0.1l0.2-0.1l0.1-0.2l0.1-0.4l0.1-0.2  l0.2-0.1l0.2,0.1l0,0.4l3.1-1.1l1-0.5l4.8-3.7l0.7-0.3l0.5-0.1l1.5-1l0.8-0.8l2.4-3.8l0.3-0.7l-0.2-0.6l0.7-1.1l0.1-0.4l0.1-0.3  l0.4-0.7l0.1-0.5l0-0.6l0.1-0.4l1.2-4.1l0.1-1L-381.1,406.4z M-431.6,357.6l-0.1-0.2l-0.1,0.4L-431.6,357.6z M-436.3,343.4l-0.3-0.6  l-0.1-0.1l-0.5,0l-0.4-0.1l-0.1-0.3l-0.2-0.2l-0.2,0l-0.1,0.3v1l0.3,0.3l0.6,0.2l0.6,0L-436.3,343.4z M-438.6,354.3l-0.3,0.2l0.3,0  l0.1-0.1h0.5l-0.1-0.1L-438.6,354.3z M-441,353.9l0,0.2l0,0L-441,353.9L-441,353.9z"/></svg>