<svg xmlns="http://www.w3.org/2000/svg" xmlns:xlink="http://www.w3.org/1999/xlink" version="1.1" x="0px" y="0px" viewBox="-461 335 100 100" fill="#e0e0e0" style="enable-background:new -461 335 100 100;" xml:space="preserve"><path d="M-414.4,416.3l-0.9,0.1l-1.1,0.7l-0.1,1.2l0.2,1.1l-0.7,0.8l-1.4,0.3l-0.3,0.4l1.1,0.4l1.3-0.1l0.7-0.7l0.4-1.1l0.7-0.7  l0.7-0.9l-0.2-1.2L-414.4,416.3z M-423.9,427.3l0.1,0.4l-0.5-0.1l-0.1,0.5l-0.5,0.8l0.2,0.6l0.3,0.6l0.4-0.7l0.7-0.5l0.5-0.9  l-0.5-0.4L-423.9,427.3z M-429.5,432.1l-0.9-0.2l-0.9,0.4l-0.2,0.3l0.3,0.4l-0.1,0.5l-0.5,0.7l0.5,0.7l1.6,0.1l1.3-0.3l0.7-0.5  l-0.3-1.1L-429.5,432.1z M-399.6,377.4l-0.1-0.5l-0.2-0.5l-1.4,1.2l-3.4,2.2l-1,1l0.4,0.7l0.8,0.9v1l-2.8,0.6l-1.8-0.6v0.9l1.4,0  l1.2,0.3l1,0.6l0.6,0.9l0.9-0.9h-0.9l2-1.4l2.2-3.8l1.8-1.7l-0.5-0.4L-399.6,377.4z M-392.2,388.1l0.2,0.7l0.8-0.6l-0.3-0.9  L-392.2,388.1z M-391.5,338.5l-0.8-1.8l-0.5-0.8l-0.9-0.3l-3.1-0.5l-1.3,0l-1.5,0.4l-1.6,1l-1.6,2.9l-0.9,3.6l-1.4,2.8l-3.3,0.5  l0.6,1.3l0.3,0.5l-1.7,3.4l-0.3,4.3l1,3.7l7.6,5.3l3.1,1.5l2.2-1.7l3.6-5.1l1.7-7.6l0.1-7.7L-391.5,338.5z M-393.1,389.2l0.1-0.3  l-0.1-0.5l-0.7,0.5l0.1,0.7l0.4,1.5l1-0.4l-0.3-0.9L-393.1,389.2z M-398.7,399.4l0.1,1.6l0.4-0.1l0.5-0.7l1.1-2.5l-1-0.2  L-398.7,399.4z"/></svg>