<svg xmlns="http://www.w3.org/2000/svg" xmlns:xlink="http://www.w3.org/1999/xlink" version="1.1" x="0px" y="0px" viewBox="-461 335 100 100" fill="#e0e0e0" style="enable-background:new -461 335 100 100;" xml:space="preserve"><polygon points="-362.1,392.2 -362.4,391.8 -362.6,391.7 -362.9,391.8 -363.1,391.9 -363.4,391.9 -363.4,391.8 -364,390.9   -364.5,389.2 -364.7,388.9 -365.2,388.2 -365.5,388 -366.3,387.8 -366.6,387.7 -366.7,387.6 -366.9,387.3 -367.2,386.8   -367.3,386.5 -367.4,386.5 -367.5,386.3 -368,386.1 -368.6,385 -368.7,384.8 -369.1,384.6 -369.2,384.3 -369.5,383.5 -369.7,383.3   -370.5,382.5 -370.7,382.1 -370.7,381.6 -370.6,381.2 -370.3,380.4 -370.2,380 -370.3,379.5 -370.6,379.3 -371.4,379.1   -371.7,378.9 -372,378.6 -372.1,378.1 -371.8,377.7 -371.6,377.3 -371.7,376.7 -371.9,375.6 -372.6,374.1 -373,371.5 -373,370.9   -372.5,370 -372.4,369.6 -372.4,368.7 -372.4,368.4 -372.7,367.6 -372.7,367 -372.7,366.5 -372.7,366.1 -373,365.7 -373.2,365.6   -373.4,365.5 -373.6,365.4 -373.7,365 -373.7,362.1 -373.9,361.7 -373.9,361.5 -373.8,361.3 -373.1,360.8 -373,360.7 -373,360.3   -373.2,359.4 -373.1,359 -373,358.6 -372.5,357.9 -371.2,356.4 -371.1,356.2 -371.1,356 -371,355.8 -370.6,355.6 -370.5,355.4   -370.2,354.5 -369.7,353.7 -368.7,352.7 -366.8,351.3 -366.3,350.8 -366.2,350.8 -366.3,350.8 -365.3,349.2 -365.1,348.8   -365,348.5 -364.8,348.3 -364.4,347.9 -363.9,347.4 -363.6,346.9 -363.4,345.9 -363.4,344 -363.1,343.1 -362.8,342.4 -362.1,341.5   -362,341.4 -362.1,341 -362.7,339.9 -362.7,339.7 -362.8,339.5 -362.8,339.4 -363,339.3 -363.2,339.3 -363.8,339.3 -364,339.2   -364.2,339.2 -366.2,338.3 -368.7,337.9 -370.7,337.3 -373.8,337 -379.6,335.9 -380.4,335.6 -380.8,335.5 -386.6,335.3 -387,335.1   -387.4,335 -388,335.1 -389,335.5 -389.8,335.6 -390,335.7 -390.2,336 -390.1,336.1 -389.9,336.3 -389.8,336.6 -389.7,336.8   -389.3,337.1 -388.8,337.3 -387.4,337.7 -387,337.9 -386.6,338.2 -384.6,338.3 -384.2,338.2 -384.1,338 -383.9,337.9 -383.6,338   -383.4,338.1 -383.2,338.2 -383,338.4 -382.9,338.6 -383.4,338.3 -383.6,338.2 -383.8,338.1 -384.1,338.2 -384.3,338.3   -384.4,338.5 -384.6,338.6 -384.8,338.7 -385,338.8 -385.2,338.7 -385.8,338.4 -386,338.4 -386.2,338.6 -386.5,338.6 -387,338.5   -387.8,338.1 -388.3,338 -388.5,338.2 -388.7,338.7 -388.9,339.2 -389.4,339.5 -388.9,338.5 -388.9,338 -389.6,337.8 -390.1,337.5   -390.2,337.4 -390.3,337.3 -390.6,337.3 -391,337.5 -391.4,337.5 -391.6,337.5 -391.8,337.5 -392.1,337.3 -392.6,336.9   -392.7,336.8 -393.2,336.8 -393.6,336.7 -394.5,336.3 -395.3,336.1 -401.6,335.5 -402.6,335.5 -403.8,335.8 -406,336 -406.4,336.1   -406.6,336.2 -406.8,336.2 -407,336.4 -407,336.6 -407.1,336.7 -408.4,337.6 -408.5,337.7 -408.5,338 -408.4,338.2 -408.3,338.3   -408.1,338.3 -408,338.5 -407.9,338.8 -408,340 -407.6,340.9 -407.5,341.4 -407.5,342.2 -407.5,342.5 -407.7,342.9 -407.8,342.9   -407.8,340.8 -408,340.5 -408.3,340.3 -409.1,340.1 -410.9,339.4 -411.2,339.4 -411.6,339.5 -412.2,339.3 -413.3,338.8   -414.9,338.5 -415.8,338 -416.3,337.8 -419.7,337 -423.3,336.3 -424.6,336.6 -425.2,336.5 -426.6,335.9 -433.2,335.2 -433.8,335.2   -434,335.2 -434.2,335.3 -434.4,335.4 -434.7,335.8 -434.8,335.8 -434.9,335.9 -435,336 -435.2,336.1 -435.7,336.2 -435.9,336.3   -436.1,336.6 -436.2,336.8 -436.5,338.3 -436.7,338.9 -437.1,339.5 -437.4,340.1 -437.6,340.9 -437.7,343.2 -438.3,345.8   -438.5,346.1 -438.7,346.4 -439,346.7 -439.8,347 -440,347.2 -440.3,347.5 -440.6,348 -440.6,348.4 -440.7,348.9 -440.8,349.5   -441,349.9 -442.2,351 -442.4,351.3 -442.5,351.6 -442.4,351.8 -442.1,351.8 -441.8,351.6 -441.6,351.7 -441.4,351.7 -441.3,351.8   -441.3,353.4 -441.3,353.6 -441.1,353.8 -440.9,353.8 -440.7,353.8 -440.6,353.7 -440.5,353.5 -440.7,353.2 -440.9,353   -440.8,352.8 -440.6,352.7 -440.3,352.6 -440.1,352.7 -440,352.9 -439.8,353.3 -439,354.3 -438.8,354.8 -438.9,355.1 -439.2,355.4   -439.6,355.6 -440,355.8 -440.1,355.3 -440.3,355 -440.6,354.9 -441.1,354.9 -441.3,355.1 -441.5,355.4 -441.6,356.1 -442,356.9   -442.1,357.2 -442.1,357.5 -442,357.7 -441.1,358.5 -441.4,358.7 -441.6,358.7 -441.8,358.6 -442,358.5 -442.3,358.6 -442.5,358.7   -442.7,358.8 -443,358.9 -443.6,359 -445.5,359.2 -445.9,359.4 -446.2,359.4 -446.3,359.3 -446.7,358.9 -446.8,358.9 -447.5,358.9   -448,359 -449.1,359.4 -450,359 -450.9,359 -451.7,359.4 -452.4,360 -452.7,360.7 -453,360.9 -453.6,361 -453.9,360.9 -454.1,360.8   -454.4,360.8 -454.7,360.8 -454.9,361 -455.3,361.8 -455.7,362.2 -456.1,362.7 -456.5,363.2 -456.6,364.1 -456.5,364.4   -456.1,364.6 -455.7,364.9 -455.3,365.8 -454.7,366.7 -454.5,367.1 -454.5,367.5 -454.7,368 -455.2,368.6 -455.5,369.8   -455.9,370.5 -456.4,371.5 -456.6,372.3 -456.8,372.6 -457.1,373 -457.3,373.3 -457.4,373.8 -457.3,374.1 -457.2,374.5   -457.1,374.9 -457.2,375.5 -457.3,376 -457.6,376.4 -459.7,378.5 -460,379 -460.1,379.5 -459.8,380.6 -459.5,382.6 -459.2,383.4   -458.6,384.2 -457.1,385.4 -456.7,385.9 -455.4,387.6 -454.9,388.7 -454.8,389.2 -454.8,390.3 -454.6,390.8 -454.4,391.2   -453.9,391.5 -452.8,392 -451.8,392.6 -451.8,392.7 -451.6,393.1 -451.5,393.5 -451.4,393.6 -451.4,393.7 -451.3,393.8   -451.2,393.8 -450.9,393.9 -450.9,393.9 -450.8,394 -450.3,394.3 -449.9,394.7 -449.9,395.1 -450.3,395.8 -450.3,396 -450.2,396.3   -450.2,396.5 -450.4,396.9 -450.4,397.1 -450.3,397.4 -450.2,397.6 -450.1,397.7 -450,397.8 -449.8,397.9 -449.1,398.1 -448,398.7   -447.7,398.8 -447.5,398.8 -447.3,398.3 -447,398.3 -446.7,398.5 -446.5,398.6 -446.3,398.6 -446.1,398.7 -446,398.8 -445.9,398.9   -445.8,399 -445.7,398.9 -445.5,398.7 -445.4,398.6 -444.7,398.5 -444.6,398.2 -444.6,397.8 -443.8,398.1 -443.2,398.3   -442.6,398.2 -441.8,397.6 -441.2,398.9 -441.1,399.2 -441.2,400 -441.2,400.2 -441.4,400.5 -441.4,400.7 -441.2,400.9   -441.1,401.2 -441.2,401.4 -441.3,401.9 -441.3,402.2 -441.3,402.5 -441,403 -441.1,403.3 -441.2,403.5 -441.3,403.7 -441,403.9   -440.8,403.9 -440.5,403.8 -440.3,403.7 -440.1,403.5 -440.1,403.6 -440.1,403.6 -440.1,403.6 -440,403.7 -440.4,404.4   -440.1,404.8 -439.7,405.2 -439.5,405.8 -439.5,405.9 -439.4,406.2 -439.3,406.4 -439.4,406.5 -439.8,406.5 -439.8,406.6   -439.8,406.9 -439.7,407.1 -439.7,407.3 -439.8,407.5 -440,407.8 -439.7,408 -438.9,408.1 -438.8,408.4 -439.1,408.7 -439.4,409   -439.7,409.3 -439.3,410.5 -439.3,410.8 -439,410.9 -439,411.1 -438.9,411.3 -438.6,411.4 -438.4,411.4 -437.9,411.1 -437.6,411.1   -437.4,411.2 -437.8,412.1 -437.7,412.6 -437.6,412.5 -436.8,412.4 -436.5,412.5 -436.6,412.8 -436.8,413.1 -436.9,413.3   -436.7,413.6 -436.1,414.3 -435.9,414.7 -435.7,415.6 -435.5,415.8 -435,415.5 -434.9,415.8 -434.9,416.1 -435.1,416.4 -435,416.8   -434.9,417 -434.3,417.7 -434.3,417.9 -434.4,418.7 -434.2,418.9 -433.9,418.8 -433.4,418.5 -433.2,418.7 -433.2,419 -433.4,419.2   -433.4,419.4 -433.3,419.8 -433.2,420 -432.8,420.4 -432.7,420.6 -432.8,420.8 -432.9,421.2 -432.7,421.6 -431.9,422.4   -431.6,422.9 -431.6,423.7 -431.5,424 -431.3,424.1 -430.7,424.2 -430.5,424.3 -430.2,424.8 -430,425.8 -429.8,426.3 -429.6,427   -427.3,430.3 -426.6,430.6 -424.3,430.6 -423.4,431.1 -423.2,431.3 -423.1,431.4 -422.9,431.6 -422.3,431.7 -422.1,431.9   -422,432.1 -421.9,432.4 -420.7,432.9 -420.3,432.9 -419.9,432.9 -419.2,432.7 -418.7,432.8 -418.2,433 -417.4,433.5 -416.9,433.7   -416.5,433.8 -415.4,433.7 -413.8,434.1 -412.3,434.7 -410.8,435 -409.2,434.5 -408.4,433.7 -408.3,432.9 -408.4,431.9   -408.5,430.9 -408.4,430.6 -408.3,430.3 -408.3,430.1 -408.4,429.8 -408.5,429.6 -409.4,428.8 -410.2,427.7 -410.4,427.5   -411.1,427.1 -411.4,426.6 -411.6,425.7 -412.1,425.2 -412.5,425.1 -413.6,425.1 -413.9,424.9 -413.8,424.4 -413.5,423.7   -413.1,423 -412.8,422.7 -412.5,422.6 -412.3,422.7 -412.1,422.8 -411.8,422.8 -411.5,422.7 -411.3,422.5 -410.6,421.5   -410.5,421.1 -410.5,420 -410.2,419 -410.1,418.6 -409.9,418.4 -409.6,418.3 -409,418.4 -408.5,418.7 -407.2,419.8 -406.8,419.9   -405.1,420.4 -404.9,420.5 -404.7,420.7 -404.4,421.2 -404.2,421.4 -403.7,421.5 -401.8,421.1 -400.9,420.6 -400.4,420.6   -399.9,420.7 -398.5,420.6 -397.7,420.6 -396.7,420.7 -395.9,420.7 -395.2,420.4 -395,420.1 -394.9,419.6 -394.8,419.2   -394.4,418.8 -394,418.6 -393.5,418.6 -393.2,418.7 -392.9,419.1 -392.3,419.1 -390.4,417.6 -389.6,417.6 -389.5,417.8   -389.5,418.2 -389.4,418.4 -389.2,418.5 -389,418.4 -388.1,418 -387.2,417.2 -386.7,416.9 -385.7,416.5 -385.3,416.5 -385.1,416.7   -385.3,417 -385.8,417.5 -385.8,417.8 -385.7,418 -383.4,420.3 -382.4,420.6 -381.3,420.3 -380.5,419.9 -380.1,419.9 -379.5,420.1   -379.2,420.2 -379.1,420.4 -379.1,420.8 -379.1,421 -379,421.2 -378.9,421.4 -379,421.5 -379.1,421.6 -379.2,421.6 -379.3,421.6   -379.4,422 -379.2,422.6 -379.2,422.8 -379.2,423.1 -379.1,423.2 -378.9,423.4 -378.4,423.5 -377.9,423.5 -377.4,423.4 -377,423.2   -376.6,422.8 -376.3,422.7 -375.5,422.9 -375,422.9 -374.7,422.7 -374.1,421 -373.8,420.9 -373.6,420.8 -373,420.8 -372.7,420.7   -372.4,420.6 -371.2,419.4 -370.8,418.9 -369.9,416.5 -369.1,414.8 -367.3,412.4 -367.1,412.1 -366.7,411 -366.6,410.8   -366.3,410.6 -366.6,410.3 -366.7,410.2 -366.8,410 -366.8,409.8 -366.7,409.5 -366.3,409 -366.3,408.9 -366.1,408.2 -366.1,407.8   -366.2,407.8 -366.5,407.5 -366.6,407.1 -366.4,407 -366.3,406.8 -366.3,406.5 -366.4,405.9 -366.5,405.9 -366.7,405.7   -366.8,405.7 -366.7,405.6 -366.6,405.5 -366.5,405.4 -366.4,405.3 -366.4,404.8 -366.4,404.3 -366.7,404 -367.3,404 -366.8,402.8   -366.4,402.3 -365.6,401.2 -364.9,400.3 -364.1,399.7 -363.9,399.3 -363.7,398.8 -363.6,398.4 -363.5,398.1 -362.7,397.1   -362.3,396.2 -362.3,394.4 -362.1,393.4 -361.9,392.8 -361.9,392.5 "/></svg>