<svg xmlns="http://www.w3.org/2000/svg" xmlns:xlink="http://www.w3.org/1999/xlink" version="1.1" x="0px" y="0px" viewBox="-461 335 100 100" fill="#999999" style="enable-background:new -461 335 100 100;" xml:space="preserve"><path d="M-413.1,416.2L-413.1,416.2L-413.1,416.2L-413.1,416.2L-413.1,416.2L-413.1,416.2L-413.1,416.2L-413.1,416.2L-413.1,416.2  L-413.1,416.2L-413.1,416.2z M-412.9,417.2L-412.9,417.2L-412.9,417.2L-412.9,417.2L-412.9,417.2L-412.9,417.2L-412.9,417.2  L-412.9,417.2L-412.9,417.2L-412.9,417.2L-412.9,417.2L-412.9,417.2L-412.9,417.2L-412.9,417.2L-412.9,417.2L-412.9,417.2z   M-413.3,417.2L-413.3,417.2l0,0.1L-413.3,417.2L-413.3,417.2L-413.3,417.2L-413.3,417.2L-413.3,417.2L-413.3,417.2z M-413.2,417.6  L-413.2,417.6L-413.2,417.6L-413.2,417.6L-413.2,417.6L-413.2,417.6L-413.2,417.6L-413.2,417.6l-0.1,0.1l0,0l0,0l0,0l0,0  L-413.2,417.6L-413.2,417.6L-413.2,417.6L-413.2,417.6L-413.2,417.6z M-430.5,421L-430.5,421L-430.5,421L-430.5,421L-430.5,421  L-430.5,421L-430.5,421l-0.1,0l0,0l0,0l0,0l0,0l0,0L-430.5,421L-430.5,421L-430.5,421l0,0.1l0,0L-430.5,421L-430.5,421L-430.5,421z   M-414,421.9L-414,421.9L-414,421.9L-414,421.9L-414,421.9L-414,421.9L-414,421.9L-414,421.9L-414,421.9z M-413.7,423.5  L-413.7,423.5L-413.7,423.5L-413.7,423.5L-413.7,423.5L-413.7,423.5z M-414.4,424.4L-414.4,424.4L-414.4,424.4L-414.4,424.4  L-414.4,424.4L-414.4,424.4l0.1,0l0.1,0l0,0l0,0l-0.1,0L-414.4,424.4L-414.4,424.4l0-0.1L-414.4,424.4L-414.4,424.4L-414.4,424.4  L-414.4,424.4z M-418.4,430.2L-418.4,430.2L-418.4,430.2L-418.4,430.2L-418.4,430.2z M-419.8,430.4L-419.8,430.4L-419.8,430.4  L-419.8,430.4L-419.8,430.4L-419.8,430.4L-419.8,430.4L-419.8,430.4L-419.8,430.4z M-417,430.9L-417,430.9L-417,430.9L-417,430.9  L-417,430.9L-417,430.9L-417,430.9L-417,430.9L-417,430.9L-417,430.9L-417,430.9L-417,430.9L-417,430.9L-417,430.9L-417,430.9z   M-420.2,431L-420.2,431L-420.2,431l0,0.1h0L-420.2,431L-420.2,431L-420.2,431z M-399.6,378.8L-399.6,378.8L-399.6,378.8  L-399.6,378.8L-399.6,378.8L-399.6,378.8L-399.6,378.8z M-400.6,378.9L-400.6,378.9L-400.6,378.9L-400.6,378.9L-400.6,378.9  L-400.6,378.9L-400.6,378.9L-400.6,378.9z M-401,379L-401,379l0,0.1h0l0,0L-401,379L-401,379L-401,379L-401,379z M-401.1,379.3  L-401.1,379.3L-401.1,379.3L-401.1,379.3L-401.1,379.3L-401.1,379.3l0,0.1L-401.1,379.3L-401.1,379.3L-401.1,379.3z M-402,380  L-402,380L-402,380L-402,380L-402,380L-402,380L-402,380z M-403.3,380.7L-403.3,380.7L-403.3,380.7L-403.3,380.7L-403.3,380.7l0,0.1  l0,0.1l0-0.1L-403.3,380.7L-403.3,380.7z M-403.3,381.3L-403.3,381.3L-403.3,381.3L-403.3,381.3L-403.3,381.3L-403.3,381.3z   M-404.6,381.5L-404.6,381.5L-404.6,381.5L-404.6,381.5L-404.6,381.5l0,0.1L-404.6,381.5l0,0.1l0,0l0.1,0l0-0.1L-404.6,381.5  L-404.6,381.5z M-404.9,381.5L-404.9,381.5L-404.9,381.5L-404.9,381.5L-404.9,381.5L-404.9,381.5L-404.9,381.5L-404.9,381.5z   M-405.7,382.9L-405.7,382.9L-405.7,382.9L-405.7,382.9L-405.7,382.9L-405.7,382.9L-405.7,382.9z M-406.7,383.5L-406.7,383.5  L-406.7,383.5L-406.7,383.5L-406.7,383.5L-406.7,383.5L-406.7,383.5L-406.7,383.5z M-406.9,383.8L-406.9,383.8L-406.9,383.8l0.1-0.1  L-406.9,383.8L-406.9,383.8z M-393.7,363.1L-393.7,363.1l0,0.1l0,0L-393.7,363.1L-393.7,363.1z M-393.8,363.1L-393.8,363.1  L-393.8,363.1l0.1,0.1l0,0L-393.8,363.1L-393.8,363.1z M-389.2,363.2L-389.2,363.2L-389.2,363.2L-389.2,363.2L-389.2,363.2  L-389.2,363.2L-389.2,363.2L-389.2,363.2L-389.2,363.2L-389.2,363.2z M-389.1,363.3L-389.1,363.3L-389.1,363.3l0-0.1l0,0  L-389.1,363.3z M-391.3,363.3L-391.3,363.3L-391.3,363.3L-391.3,363.3L-391.3,363.3L-391.3,363.3L-391.3,363.3L-391.3,363.3  L-391.3,363.3L-391.3,363.3L-391.3,363.3z M-392.2,363.2L-392.2,363.2L-392.2,363.2L-392.2,363.2l0,0.1l0,0L-392.2,363.2  L-392.2,363.2L-392.2,363.2z M-389.7,363.3L-389.7,363.3L-389.7,363.3L-389.7,363.3L-389.7,363.3L-389.7,363.3L-389.7,363.3z   M-391.7,363.6L-391.7,363.6L-391.7,363.6L-391.7,363.6L-391.7,363.6z M-390,363.6L-390,363.6L-390,363.6L-390,363.6L-390,363.6  L-390,363.6z M-392.2,363.6L-392.2,363.6L-392.2,363.6L-392.2,363.6L-392.2,363.6L-392.2,363.6l0-0.1l0,0L-392.2,363.6L-392.2,363.6  L-392.2,363.6L-392.2,363.6L-392.2,363.6L-392.2,363.6L-392.2,363.6l-0.1-0.1l0,0L-392.2,363.6L-392.2,363.6L-392.2,363.6  L-392.2,363.6L-392.2,363.6L-392.2,363.6z M-391.5,363.5L-391.5,363.5L-391.5,363.5L-391.5,363.5L-391.5,363.5l0,0.1l0,0l0,0l0,0  L-391.5,363.5L-391.5,363.5L-391.5,363.5z M-389.4,363.6L-389.4,363.6L-389.4,363.6L-389.4,363.6L-389.4,363.6L-389.4,363.6  L-389.4,363.6z M-391.1,363.8L-391.1,363.8L-391.1,363.8L-391.1,363.8L-391.1,363.8l0,0.1l0,0L-391.1,363.8L-391.1,363.8z   M-392.4,363.7L-392.4,363.7L-392.4,363.7L-392.4,363.7L-392.4,363.7L-392.4,363.7z M-392.3,363.8L-392.3,363.8L-392.3,363.8  L-392.3,363.8L-392.3,363.8L-392.3,363.8z M-389,364L-389,364L-389,364l-0.1,0l0,0L-389,364L-389,364L-389,364L-389,364L-389,364  L-389,364L-389,364L-389,364L-389,364z M-389.2,364L-389.2,364L-389.2,364L-389.2,364l-0.1-0.1L-389.2,364L-389.2,364L-389.2,364  L-389.2,364z M-393.3,364.2L-393.3,364.2L-393.3,364.2L-393.3,364.2L-393.3,364.2L-393.3,364.2L-393.3,364.2L-393.3,364.2  L-393.3,364.2L-393.3,364.2z M-393.9,364.2L-393.9,364.2L-393.9,364.2L-393.9,364.2L-393.9,364.2L-393.9,364.2l0,0.1L-393.9,364.2  L-393.9,364.2L-393.9,364.2z M-389.2,364.2L-389.2,364.2L-389.2,364.2L-389.2,364.2l0.1,0.1l0,0L-389.2,364.2L-389.2,364.2  L-389.2,364.2z M-392.9,364.2L-392.9,364.2L-392.9,364.2L-392.9,364.2L-392.9,364.2L-392.9,364.2L-392.9,364.2L-392.9,364.2  L-392.9,364.2L-392.9,364.2L-392.9,364.2L-392.9,364.2L-392.9,364.2L-392.9,364.2z M-389.1,364.2L-389.1,364.2L-389.1,364.2  L-389.1,364.2L-389.1,364.2z M-390.2,364.3L-390.2,364.3L-390.2,364.3L-390.2,364.3L-390.2,364.3l0,0.1l0,0l0,0l0,0L-390.2,364.3  L-390.2,364.3z M-393.6,364.4L-393.6,364.4L-393.6,364.4l0-0.1l0,0l0,0l0,0l0,0l0,0L-393.6,364.4L-393.6,364.4L-393.6,364.4z   M-389.7,364.4L-389.7,364.4L-389.7,364.4L-389.7,364.4L-389.7,364.4z M-391.1,364.4L-391.1,364.4L-391.1,364.4L-391.1,364.4  L-391.1,364.4z M-389.5,364.4L-389.5,364.4L-389.5,364.4L-389.5,364.4L-389.5,364.4z M-393,364.4L-393,364.4L-393,364.4L-393,364.4  L-393,364.4L-393,364.4L-393,364.4L-393,364.4L-393,364.4l0,0.1L-393,364.4L-393,364.4L-393,364.4z M-390.2,364.5L-390.2,364.5  L-390.2,364.5l-0.1-0.1l0,0l0,0l0,0.1L-390.2,364.5L-390.2,364.5L-390.2,364.5L-390.2,364.5L-390.2,364.5L-390.2,364.5L-390.2,364.5  z M-393.6,364.6L-393.6,364.6L-393.6,364.6L-393.6,364.6L-393.6,364.6z M-389.5,364.8L-389.5,364.8L-389.5,364.8L-389.5,364.8  L-389.5,364.8L-389.5,364.8L-389.5,364.8L-389.5,364.8L-389.5,364.8z M-388.9,364.7L-388.9,364.7L-388.9,364.7L-388.9,364.7  L-388.9,364.7L-388.9,364.7z M-390.2,364.8L-390.2,364.8L-390.2,364.8L-390.2,364.8L-390.2,364.8z M-391.1,365.4L-391.1,365.4  L-391.1,365.4L-391.1,365.4L-391.1,365.4L-391.1,365.4L-391.1,365.4L-391.1,365.4L-391.1,365.4L-391.1,365.4z M-394.9,363.3  L-394.9,363.3L-394.9,363.3L-394.9,363.3L-394.9,363.3L-394.9,363.3L-394.9,363.3L-394.9,363.3L-394.9,363.3L-394.9,363.3  L-394.9,363.3z M-394.7,363.5L-394.7,363.5L-394.7,363.5L-394.7,363.5L-394.7,363.5z M-394.3,363.8L-394.3,363.8L-394.3,363.8  L-394.3,363.8L-394.3,363.8z M-394.4,363.8L-394.4,363.8L-394.4,363.8L-394.4,363.8L-394.4,363.8L-394.4,363.8L-394.4,363.8  L-394.4,363.8z M-394.8,364.2L-394.8,364.2L-394.8,364.2L-394.8,364.2L-394.8,364.2L-394.8,364.2L-394.8,364.2L-394.8,364.2  L-394.8,364.2L-394.8,364.2z M-394.9,364.4L-394.9,364.4L-394.9,364.4L-394.9,364.4L-394.9,364.4L-394.9,364.4z M-394.6,364.5  L-394.6,364.5L-394.6,364.5l0,0.1L-394.6,364.5z M-395,364.8L-395,364.8L-395,364.8L-395,364.8L-395,364.8L-395,364.8L-395,364.8  L-395,364.8L-395,364.8z M-394.8,365.4L-394.8,365.4L-394.8,365.4L-394.8,365.4L-394.8,365.4L-394.8,365.4L-394.8,365.4z   M-396.2,365.7L-396.2,365.7L-396.2,365.7L-396.2,365.7L-396.2,365.7L-396.2,365.7L-396.2,365.7l-0.1-0.1l0,0l0,0l0,0l0,0  L-396.2,365.7L-396.2,365.7L-396.2,365.7L-396.2,365.7L-396.2,365.7L-396.2,365.7L-396.2,365.7L-396.2,365.7z M-396.1,365.7  L-396.1,365.7L-396.1,365.7L-396.1,365.7L-396.1,365.7L-396.1,365.7z M-394.1,365.8L-394.1,365.8L-394.1,365.8L-394.1,365.8  L-394.1,365.8L-394.1,365.8z M-394.2,366L-394.2,366L-394.2,366L-394.2,366L-394.2,366L-394.2,366L-394.2,366L-394.2,366L-394.2,366  z M-396.9,366.6L-396.9,366.6L-396.9,366.6L-396.9,366.6L-396.9,366.6l-0.1-0.1L-396.9,366.6L-396.9,366.6L-396.9,366.6z   M-396.6,366.9L-396.6,366.9L-396.6,366.9L-396.6,366.9l-0.1,0l0,0L-396.6,366.9L-396.6,366.9L-396.6,366.9L-396.6,366.9  L-396.6,366.9L-396.6,366.9L-396.6,366.9L-396.6,366.9L-396.6,366.9z M-395,367.1L-395,367.1L-395,367.1L-395,367.1L-395,367.1  L-395,367.1L-395,367.1L-395,367.1z M-396.4,367.5L-396.4,367.5L-396.4,367.5L-396.4,367.5L-396.4,367.5L-396.4,367.5L-396.4,367.5z   M-396.7,368L-396.7,368L-396.7,368l0.1,0.1l0,0L-396.7,368L-396.7,368z M-396.5,368.1L-396.5,368.1L-396.5,368.1L-396.5,368.1  L-396.5,368.1L-396.5,368.1L-396.5,368.1z M-397.4,368.4L-397.4,368.4L-397.4,368.4L-397.4,368.4l0,0.1l0,0l0.1,0l0,0l0,0  L-397.4,368.4L-397.4,368.4z M-397.2,368.5L-397.2,368.5L-397.2,368.5L-397.2,368.5l0,0.1l0,0L-397.2,368.5L-397.2,368.5  L-397.2,368.5L-397.2,368.5z M-397.7,368.9L-397.7,368.9L-397.7,368.9L-397.7,368.9L-397.7,368.9L-397.7,368.9l0.1,0l0-0.1l-0.1-0.1  L-397.7,368.9L-397.7,368.9L-397.7,368.9L-397.7,368.9z M-397.9,372.8L-397.9,372.8L-397.9,372.8L-397.9,372.8L-397.9,372.8  L-397.9,372.8L-397.9,372.8z M-399.2,375.9L-399.2,375.9L-399.2,375.9L-399.2,375.9L-399.2,375.9z M-404.9,407.9L-404.9,407.9  L-404.9,407.9L-404.9,407.9z M-405.8,408L-405.8,408L-405.8,408L-405.8,408L-405.8,408z M-405.8,408.1L-405.8,408.1L-405.8,408.1  L-405.8,408.1L-405.8,408.1L-405.8,408.1L-405.8,408.1L-405.8,408.1L-405.8,408.1L-405.8,408.1L-405.8,408.1z M-406.2,408.2  L-406.2,408.2L-406.2,408.2L-406.2,408.2L-406.2,408.2L-406.2,408.2L-406.2,408.2L-406.2,408.2L-406.2,408.2L-406.2,408.2  L-406.2,408.2L-406.2,408.2L-406.2,408.2z M-405.5,408.5L-405.5,408.5L-405.5,408.5L-405.5,408.5L-405.5,408.5z M-405.8,409.2  L-405.8,409.2L-405.8,409.2L-405.8,409.2L-405.8,409.2L-405.8,409.2L-405.8,409.2L-405.8,409.2z M-405.6,409.6L-405.6,409.6  L-405.6,409.6L-405.6,409.6L-405.6,409.6L-405.6,409.6L-405.6,409.6L-405.6,409.6L-405.6,409.6L-405.6,409.6z M-404.6,409.6  L-404.6,409.6L-404.6,409.6L-404.6,409.6L-404.6,409.6L-404.6,409.6z M-407.7,411L-407.7,411L-407.7,411L-407.7,411L-407.7,411  L-407.7,411L-407.7,411L-407.7,411z M-408.3,411L-408.3,411L-408.3,411L-408.3,411L-408.3,411L-408.3,411z M-407.7,411.6  L-407.7,411.6L-407.7,411.6L-407.7,411.6L-407.7,411.6L-407.7,411.6L-407.7,411.6z M-407.1,411.8L-407.1,411.8L-407.1,411.8  L-407.1,411.8L-407.1,411.8L-407.1,411.8L-407.1,411.8L-407.1,411.8L-407.1,411.8L-407.1,411.8L-407.1,411.8L-407.1,411.8  L-407.1,411.8L-407.1,411.8L-407.1,411.8z M-407.6,412L-407.6,412L-407.6,412L-407.6,412L-407.6,412l0.1-0.1l0-0.1l-0.1,0l0,0l0,0  L-407.6,412L-407.6,412L-407.6,412L-407.6,412z M-409.1,412.2L-409.1,412.2L-409.1,412.2L-409.1,412.2L-409.1,412.2L-409.1,412.2  L-409.1,412.2L-409.1,412.2l0-0.1l0,0L-409.1,412.2L-409.1,412.2L-409.1,412.2L-409.1,412.2z M-410.6,413.4L-410.6,413.4  L-410.6,413.4L-410.6,413.4L-410.6,413.4L-410.6,413.4L-410.6,413.4L-410.6,413.4l0,0.1L-410.6,413.4L-410.6,413.4L-410.6,413.4z   M-410.1,413.9L-410.1,413.9L-410.1,413.9l0,0.2l0,0l0,0l0,0L-410.1,413.9L-410.1,413.9L-410.1,413.9z M-394.6,363.2L-394.6,363.2  L-394.6,363.2L-394.6,363.2L-394.6,363.2l-0.1-0.1l0,0L-394.6,363.2L-394.6,363.2L-394.6,363.2L-394.6,363.2L-394.6,363.2z   M-394.2,363.4L-394.2,363.4L-394.2,363.4L-394.2,363.4l0-0.1l0,0L-394.2,363.4L-394.2,363.4L-394.2,363.4L-394.2,363.4  L-394.2,363.4L-394.2,363.4L-394.2,363.4L-394.2,363.4z M-392.1,363.6L-392.1,363.6L-392.1,363.6L-392.1,363.6L-392.1,363.6  L-392.1,363.6l0-0.1L-392.1,363.6L-392.1,363.6L-392.1,363.6L-392.1,363.6z M-392,363.8L-392,363.8l-0.1-0.1l0,0l0,0l0,0l0,0l0,0  l0,0l0,0l0,0l0,0l0,0l0,0l0,0l0,0l0,0l0,0l0,0l0,0l0,0l0,0l0,0l0,0l0,0l0,0l0,0L-392,363.8L-392,363.8l-0.1,0l0,0L-392,363.8  L-392,363.8L-392,363.8L-392,363.8L-392,363.8L-392,363.8L-392,363.8L-392,363.8L-392,363.8L-392,363.8L-392,363.8z M-391.2,363.8  L-391.2,363.8L-391.2,363.8l0-0.1l0,0l0,0l0,0L-391.2,363.8L-391.2,363.8L-391.2,363.8L-391.2,363.8L-391.2,363.8L-391.2,363.8  L-391.2,363.8l0,0.1l0,0l0,0l0,0L-391.2,363.8L-391.2,363.8L-391.2,363.8z M-394.9,364L-394.9,364L-394.9,364L-394.9,364L-394.9,364  l0.1-0.1l0,0l0,0l0,0L-394.9,364L-394.9,364L-394.9,364L-394.9,364z M-389.6,364.1L-389.6,364.1L-389.6,364.1l-0.1,0l0,0l0,0l0,0  l0,0l0,0l0,0L-389.6,364.1l0,0.1L-389.6,364.1L-389.6,364.1L-389.6,364.1L-389.6,364.1z M-394.3,364.4L-394.3,364.4L-394.3,364.4  L-394.3,364.4l0.1,0l0,0l0,0l0,0l0-0.1l0-0.1l0,0l0,0l0,0l0,0l0,0l0,0l0,0L-394.3,364.4L-394.3,364.4L-394.3,364.4z M-392.6,364.2  L-392.6,364.2L-392.6,364.2L-392.6,364.2L-392.6,364.2L-392.6,364.2L-392.6,364.2l-0.1,0l0,0L-392.6,364.2L-392.6,364.2l0,0.1l0,0  L-392.6,364.2L-392.6,364.2L-392.6,364.2L-392.6,364.2z M-394.2,364.5L-394.2,364.5L-394.2,364.5L-394.2,364.5L-394.2,364.5l0.1,0.1  l0,0L-394.2,364.5L-394.2,364.5L-394.2,364.5z M-394.8,364.7L-394.8,364.7L-394.8,364.7L-394.8,364.7L-394.8,364.7L-394.8,364.7  L-394.8,364.7L-394.8,364.7L-394.8,364.7L-394.8,364.7L-394.8,364.7L-394.8,364.7L-394.8,364.7z M-390.4,364.9L-390.4,364.9l0-0.1h0  L-390.4,364.9L-390.4,364.9L-390.4,364.9L-390.4,364.9L-390.4,364.9L-390.4,364.9L-390.4,364.9l-0.1,0.1l0,0l0,0l0,0l0,0h0l0,0l0,0  l0,0l0,0l0,0l0,0l0,0v-0.1L-390.4,364.9L-390.4,364.9z M-393.6,365.2L-393.6,365.2L-393.6,365.2L-393.6,365.2L-393.6,365.2l0.1-0.1  l0,0l0,0l0,0L-393.6,365.2L-393.6,365.2L-393.6,365.2z M-394,365.2L-394,365.2l-0.1-0.1l0,0l0,0l0,0l0,0L-394,365.2L-394,365.2  L-394,365.2L-394,365.2z M-393.6,365.3L-393.6,365.3L-393.6,365.3l-0.1-0.1l0,0l0,0.1L-393.6,365.3L-393.6,365.3L-393.6,365.3  L-393.6,365.3l0,0.1l0,0l0,0l0,0l0,0l0,0l0,0l0,0l0,0l0,0L-393.6,365.3L-393.6,365.3L-393.6,365.3z M-395,365.6L-395,365.6l0-0.1  l0,0l0,0l-0.1,0l0,0l0,0l0,0.1L-395,365.6L-395,365.6L-395,365.6L-395,365.6z M-393.9,365.4L-393.9,365.4L-393.9,365.4L-393.9,365.4  L-393.9,365.4L-393.9,365.4z M-395.9,365.7L-395.9,365.7L-395.9,365.7L-395.9,365.7L-395.9,365.7l0-0.1l0,0l0,0L-395.9,365.7  L-395.9,365.7L-395.9,365.7L-395.9,365.7L-395.9,365.7L-395.9,365.7L-395.9,365.7L-395.9,365.7L-395.9,365.7L-395.9,365.7z   M-394.4,365.7L-394.4,365.7L-394.4,365.7L-394.4,365.7L-394.4,365.7l-0.1-0.1l0,0l0,0h0l0,0l0,0.1l0,0.1l0,0l0,0l0,0l0,0l0,0l0,0  l0,0l0.1,0l0.1,0l0,0L-394.4,365.7L-394.4,365.7z M-393.9,365.7L-393.9,365.7L-393.9,365.7l-0.1-0.1l0,0l0,0.1L-393.9,365.7  L-393.9,365.7L-393.9,365.7z M-393.8,365.7L-393.8,365.7L-393.8,365.7L-393.8,365.7l-0.1,0.1l0,0l0,0l0,0l0,0l0,0l0,0l0,0l0,0l0,0  l0,0L-393.8,365.7L-393.8,365.7L-393.8,365.7L-393.8,365.7z M-395.9,366.1L-395.9,366.1L-395.9,366.1L-395.9,366.1l0,0.1l0,0l0,0  l0,0L-395.9,366.1L-395.9,366.1L-395.9,366.1L-395.9,366.1L-395.9,366.1z M-396.1,366.4L-396.1,366.4L-396.1,366.4L-396.1,366.4  L-396.1,366.4l0,0.1l0,0L-396.1,366.4L-396.1,366.4L-396.1,366.4L-396.1,366.4L-396.1,366.4z M-394.5,366.4L-394.5,366.4  L-394.5,366.4L-394.5,366.4L-394.5,366.4L-394.5,366.4L-394.5,366.4l0,0.1l0,0l0,0L-394.5,366.4L-394.5,366.4L-394.5,366.4  L-394.5,366.4L-394.5,366.4z M-397.1,366.8L-397.1,366.8L-397.1,366.8L-397.1,366.8l0.2,0.1l0,0l0-0.1l0,0l0,0l0,0l0,0l-0.1-0.1  l-0.1,0l0,0l0,0l-0.1,0l0,0l0,0l0,0l0,0l0,0l0,0l0,0l0,0l0,0l0,0l0,0l0,0l0,0l0,0l0,0l0,0l0-0.1l0,0l0,0l0,0l0,0l0,0L-397.1,366.8  L-397.1,366.8L-397.1,366.8z M-396.2,366.5L-396.2,366.5L-396.2,366.5L-396.2,366.5l-0.1-0.1l0,0.1l0,0.1l0.1,0.1l0.1,0l0,0  L-396.2,366.5L-396.2,366.5z M-394.9,366.6L-394.9,366.6L-394.9,366.6l-0.1-0.1l0-0.1l0,0l0,0L-394.9,366.6L-394.9,366.6  L-394.9,366.6L-394.9,366.6l0,0.1l0,0l0,0L-394.9,366.6L-394.9,366.6L-394.9,366.6L-394.9,366.6z M-394.8,366.6L-394.8,366.6  L-394.8,366.6L-394.8,366.6L-394.8,366.6L-394.8,366.6L-394.8,366.6L-394.8,366.6z M-394.7,366.7L-394.7,366.7L-394.7,366.7  L-394.7,366.7L-394.7,366.7L-394.7,366.7L-394.7,366.7L-394.7,366.7L-394.7,366.7L-394.7,366.7z M-397,367L-397,367L-397,367  L-397,367L-397,367l0,0.1l0.1,0l0.1,0l0-0.1L-397,367L-397,367z M-396.8,367.6L-396.8,367.6L-396.8,367.6l-0.1-0.1l0,0l0,0l0,0l0,0  l0,0l0,0l0,0l0,0.1l0.1,0.1l0.1,0l0,0l0,0L-396.8,367.6L-396.8,367.6L-396.8,367.6l0,0.1l0,0L-396.8,367.6L-396.8,367.6  L-396.8,367.6z M-396.8,368L-396.8,368L-396.8,368L-396.8,368l0-0.1l0,0l0,0l0,0l0,0l0,0l0,0l0,0l0,0l0,0l0,0l0,0l0,0l0,0.1l0.1,0.1  L-396.8,368L-396.8,368L-396.8,368L-396.8,368l0,0.1L-396.8,368L-396.8,368L-396.8,368z M-398.6,370.4L-398.6,370.4L-398.6,370.4  l-0.1,0l0,0.1l0,0.1l0,0.1l0,0.1l0,0l0,0l0,0L-398.6,370.4L-398.6,370.4L-398.6,370.4z M-399.1,372.1l0.2,0.1l0,0l0,0l0,0l0-0.1l0,0  l0,0l0,0L-399.1,372.1L-399.1,372.1L-399.1,372.1l0-0.1l0,0l0,0l0,0l0,0l0,0l0,0l0,0L-399.1,372.1L-399.1,372.1L-399.1,372.1z   M-400.4,380.3L-400.4,380.3L-400.4,380.3l0,0.1L-400.4,380.3L-400.4,380.3L-400.4,380.3l-0.1,0.1l0,0l0,0l0,0l0,0L-400.4,380.3  L-400.4,380.3L-400.4,380.3L-400.4,380.3L-400.4,380.3L-400.4,380.3z M-407.4,383.9L-407.4,383.9L-407.4,383.9l0-0.1l0,0l0,0l0,0  L-407.4,383.9L-407.4,383.9L-407.4,383.9z M-406.9,383.8l-0.1,0l0,0l0,0l0,0L-406.9,383.8L-406.9,383.8L-406.9,383.8z M-407.1,383.9  L-407.1,383.9L-407.1,383.9L-407.1,383.9L-407.1,383.9z M-407.2,384.2L-407.2,384.2L-407.2,384.2l0,0.1l0,0.1l0,0v-0.1L-407.2,384.2  L-407.2,384.2L-407.2,384.2z M-407.6,384.5L-407.6,384.5L-407.6,384.5l0-0.1l0,0l0,0l0,0L-407.6,384.5L-407.6,384.5L-407.6,384.5z   M-408,384.7L-408,384.7L-408,384.7L-408,384.7L-408,384.7l0.2,0l0,0l0-0.1l0-0.1l0,0l0,0l0,0l0,0l0,0l-0.1,0.1l0,0.1L-408,384.7  L-408,384.7L-408,384.7L-408,384.7L-408,384.7z M-407.4,384.9L-407.4,384.9l0-0.1l0-0.1l0,0l-0.1,0.1l0,0l0,0.2l0,0L-407.4,384.9  L-407.4,384.9z M-410,385.6L-410,385.6L-410,385.6L-410,385.6L-410,385.6L-410,385.6L-410,385.6L-410,385.6L-410,385.6z   M-408.6,386.1L-408.6,386.1L-408.6,386.1L-408.6,386.1L-408.6,386.1z M-409.6,386.6L-409.6,386.6l0-0.1l0,0l-0.1,0l0,0l0,0.1  l0.1,0.1L-409.6,386.6L-409.6,386.6L-409.6,386.6L-409.6,386.6z M-408.9,386.5L-408.9,386.5l-0.1,0.1l0,0.1l0,0L-408.9,386.5  L-408.9,386.5L-408.9,386.5L-408.9,386.5L-408.9,386.5z M-409.4,387.3l-0.2,0l0,0l0,0l0,0l0.3,0.1l0-0.1L-409.4,387.3L-409.4,387.3  L-409.4,387.3L-409.4,387.3L-409.4,387.3z M-410,388.5L-410,388.5L-410,388.5L-410,388.5z M-410.6,390.5L-410.6,390.5l-0.1,0.1  l0,0.1l0,0.1l0,0l0,0l0,0l0,0l0.1-0.1l0,0l0,0l0,0L-410.6,390.5L-410.6,390.5z M-411.2,392.4L-411.2,392.4L-411.2,392.4l-0.1-0.1  l0,0l0,0L-411.2,392.4L-411.2,392.4L-411.2,392.4L-411.2,392.4z M-411.4,392.4L-411.4,392.4L-411.4,392.4L-411.4,392.4L-411.4,392.4  L-411.4,392.4L-411.4,392.4L-411.4,392.4z M-411.2,394.1L-411.2,394.1L-411.2,394.1L-411.2,394.1L-411.2,394.1L-411.2,394.1l0-0.1  L-411.2,394.1L-411.2,394.1L-411.2,394.1L-411.2,394.1z M-412,395.1L-412,395.1L-412,395.1l-0.1,0l0,0l0,0l0,0l0,0l0,0h0L-412,395.1  L-412,395.1L-412,395.1L-412,395.1L-412,395.1z M-411.6,395.2l-0.2,0l-0.1,0l0,0.1l0,0l0,0l0,0l0,0l0,0l0,0l0,0l0,0l0,0l0,0l0.2,0  l0,0L-411.6,395.2L-411.6,395.2L-411.6,395.2z M-412,398.1L-412,398.1L-412,398.1L-412,398.1L-412,398.1l0.1-0.1l0,0l0,0l0,0l0,0  l0,0L-412,398.1L-412,398.1L-412,398.1z M-412.1,398.9L-412.1,398.9L-412.1,398.9L-412.1,398.9L-412.1,398.9l0-0.1l0,0l0,0l0,0l0,0  l0,0l0,0L-412.1,398.9L-412.1,398.9L-412.1,398.9L-412.1,398.9L-412.1,398.9L-412.1,398.9z M-412,400.5L-412,400.5L-412,400.5  L-412,400.5L-412,400.5l0.1,0.1l0.1,0l0,0l0,0l-0.1,0l0,0L-412,400.5L-412,400.5L-412,400.5L-412,400.5L-412,400.5z M-408.3,402.4  L-408.3,402.4L-408.3,402.4L-408.3,402.4l0-0.1l0,0l0,0l0,0l0,0l0,0l0,0L-408.3,402.4L-408.3,402.4z M-407.5,404.1L-407.5,404.1  L-407.5,404.1l-0.1-0.1l0,0l0,0l0,0H-407.5L-407.5,404.1L-407.5,404.1L-407.5,404.1L-407.5,404.1z M-407.8,404.5L-407.8,404.5  l-0.1-0.1l-0.1,0l0.1,0.1l0.1,0.1l0,0L-407.8,404.5L-407.8,404.5L-407.8,404.5L-407.8,404.5L-407.8,404.5z M-407.7,404.4  L-407.7,404.4L-407.7,404.4L-407.7,404.4L-407.7,404.4L-407.7,404.4L-407.7,404.4L-407.7,404.4l0,0.1l0,0l0,0l0,0l0,0l0,0l0.1,0l0,0  l0,0L-407.7,404.4L-407.7,404.4z M-405.8,406.8L-405.8,406.8L-405.8,406.8l-0.1,0.1l0,0.1l0,0l0,0l0,0l0,0l0,0l0.1-0.1l0,0  L-405.8,406.8L-405.8,406.8L-405.8,406.8z M-406,407.3L-406,407.3L-406,407.3L-406,407.3L-406,407.3L-406,407.3L-406,407.3  L-406,407.3L-406,407.3L-406,407.3z M-405.7,407.4L-405.7,407.4L-405.7,407.4L-405.7,407.4L-405.7,407.4L-405.7,407.4L-405.7,407.4  l0.1,0l0,0l0,0L-405.7,407.4L-405.7,407.4L-405.7,407.4L-405.7,407.4L-405.7,407.4z M-405.8,407.5L-405.8,407.5l-0.1,0l0,0v0l0,0  L-405.8,407.5L-405.8,407.5L-405.8,407.5L-405.8,407.5L-405.8,407.5z M-406.7,408L-406.7,408l-0.1,0l0,0l0,0l0,0L-406.7,408l0,0.1h0  L-406.7,408L-406.7,408L-406.7,408L-406.7,408L-406.7,408L-406.7,408L-406.7,408L-406.7,408L-406.7,408z M-405.6,408.1L-405.6,408.1  L-405.6,408.1L-405.6,408.1L-405.6,408.1L-405.6,408.1L-405.6,408.1L-405.6,408.1L-405.6,408.1L-405.6,408.1L-405.6,408.1  L-405.6,408.1z M-405.8,408.7L-405.8,408.7L-405.8,408.7L-405.8,408.7l0.1-0.1l0,0l0,0l0,0l0,0l0,0L-405.8,408.7L-405.8,408.7z   M-406.2,408.7L-406.2,408.7l0.1,0.1l0,0l0.1-0.1l0,0l0,0l0,0l0,0L-406.2,408.7L-406.2,408.7z M-407.2,409.4L-407.2,409.4  L-407.2,409.4L-407.2,409.4L-407.2,409.4L-407.2,409.4l0.3,0l0,0l0,0l0,0l-0.1,0l0,0l0,0l0,0l0,0l0,0L-407.2,409.4L-407.2,409.4z   M-407.2,409.5L-407.2,409.5L-407.2,409.5L-407.2,409.5L-407.2,409.5l-0.1,0l0,0l-0.1,0l-0.1,0.1l0,0.1l0,0l0.1,0l0,0l0,0l0,0l0.1,0  L-407.2,409.5L-407.2,409.5L-407.2,409.5L-407.2,409.5L-407.2,409.5L-407.2,409.5z M-408.6,409.7L-408.6,409.7l0.1-0.1l0,0l-0.1-0.1  l0,0l0,0l0,0L-408.6,409.7L-408.6,409.7L-408.6,409.7L-408.6,409.7L-408.6,409.7z M-406.2,409.7L-406.2,409.7L-406.2,409.7  L-406.2,409.7L-406.2,409.7z M-408.3,409.8L-408.3,409.8L-408.3,409.8L-408.3,409.8L-408.3,409.8L-408.3,409.8l-0.1-0.1  L-408.3,409.8L-408.3,409.8l0.1,0.1l0,0L-408.3,409.8L-408.3,409.8L-408.3,409.8z M-406.4,409.8L-406.4,409.8L-406.4,409.8  L-406.4,409.8L-406.4,409.8l0-0.1L-406.4,409.8L-406.4,409.8L-406.4,409.8L-406.4,409.8L-406.4,409.8L-406.4,409.8L-406.4,409.8  L-406.4,409.8z M-406.6,410.2L-406.6,410.2L-406.6,410.2L-406.6,410.2L-406.6,410.2L-406.6,410.2L-406.6,410.2L-406.6,410.2l-0.1,0  l0,0l0,0.1l0,0l0,0l0,0l0,0l0.1,0L-406.6,410.2L-406.6,410.2L-406.6,410.2L-406.6,410.2L-406.6,410.2z M-406.7,410.5L-406.7,410.5  L-406.7,410.5L-406.7,410.5L-406.7,410.5L-406.7,410.5L-406.7,410.5L-406.7,410.5z M-406.6,410.7L-406.6,410.7L-406.6,410.7  L-406.6,410.7L-406.6,410.7l0-0.1l0,0l0,0l0,0L-406.6,410.7L-406.6,410.7L-406.6,410.7z M-407.5,411.3L-407.5,411.3L-407.5,411.3  l0.1-0.1l0,0l0,0l0,0L-407.5,411.3L-407.5,411.3z M-407.8,412.1L-407.8,412.1L-407.8,412.1L-407.8,412.1L-407.8,412.1L-407.8,412.1  L-407.8,412.1L-407.8,412.1l-0.1,0.1l0,0.1l0,0l0,0l0-0.1L-407.8,412.1L-407.8,412.1L-407.8,412.1z M-409.6,412.7l-0.1,0.2l0,0l0,0  l0,0l0,0l0,0l0,0l0-0.1l0,0l0,0L-409.6,412.7L-409.6,412.7L-409.6,412.7L-409.6,412.7L-409.6,412.7L-409.6,412.7L-409.6,412.7  L-409.6,412.7L-409.6,412.7z M-408.9,412.8L-408.9,412.8L-408.9,412.8L-408.9,412.8L-408.9,412.8l-0.1,0l0,0l0,0v0l0,0.1l0,0l0,0  l0,0l0,0l0,0l0,0l0,0L-408.9,412.8L-408.9,412.8z M-432.8,413.2L-432.8,413.2L-432.8,413.2L-432.8,413.2L-432.8,413.2L-432.8,413.2  l0-0.1l0,0l0,0l0,0l0,0l0-0.1l0,0l0,0l0,0l0,0l0,0l0,0l0,0l0,0l0,0l0,0l0,0l0,0l0,0l0,0l0,0l0,0.1l0,0l0,0l0,0l0,0l0,0l0,0l0,0l0,0  l0,0L-432.8,413.2L-432.8,413.2L-432.8,413.2L-432.8,413.2L-432.8,413.2l0,0.1l0,0L-432.8,413.2L-432.8,413.2L-432.8,413.2  L-432.8,413.2z M-410.1,413.6L-410.1,413.6l0-0.2l0,0l0,0l0,0l0-0.1l0.1-0.1l0,0l0,0l0,0l0,0l0,0l0,0l0,0l0,0l0,0.1l0,0.1l0,0l0,0  l0,0l0,0l0,0.1l0,0.1l0,0.1l-0.1,0l0,0l0,0l0.1,0l0,0l0,0l0,0l0,0l0,0L-410.1,413.6L-410.1,413.6L-410.1,413.6L-410.1,413.6z   M-409.3,413.4L-409.3,413.4L-409.3,413.4L-409.3,413.4L-409.3,413.4l0.1-0.1l0-0.1l0,0l0,0l0,0l-0.1,0.1L-409.3,413.4L-409.3,413.4  L-409.3,413.4L-409.3,413.4L-409.3,413.4L-409.3,413.4z M-410.8,413.6l-0.2-0.2l0,0l0,0l0,0.1L-410.8,413.6L-410.8,413.6l0.1,0.1  l0,0l0,0L-410.8,413.6z M-411.4,414L-411.4,414L-411.4,414L-411.4,414L-411.4,414L-411.4,414L-411.4,414l-0.1,0l0,0l0,0l0,0l0,0l0,0  l0,0l0,0l0,0l0,0l0,0l0,0l0,0l0,0l0,0l0-0.1l0,0l0.1,0L-411.4,414L-411.4,414z M-411.4,414.2L-411.4,414.2L-411.4,414.2l0,0.1l0,0  l0.1,0L-411.4,414.2L-411.4,414.2z M-413.2,415.6L-413.2,415.6L-413.2,415.6l-0.1-0.1l0,0h0l0,0l0,0l0,0.1L-413.2,415.6  L-413.2,415.6L-413.2,415.6L-413.2,415.6L-413.2,415.6z M-413.1,415.8L-413.1,415.8L-413.1,415.8L-413.1,415.8L-413.1,415.8  L-413.1,415.8L-413.1,415.8l0-0.1l0,0L-413.1,415.8L-413.1,415.8L-413.1,415.8z M-413.6,418.2L-413.6,418.2L-413.6,418.2  L-413.6,418.2l-0.1,0l0,0.1L-413.6,418.2l0,0.1l0.1,0L-413.6,418.2L-413.6,418.2L-413.6,418.2L-413.6,418.2L-413.6,418.2  L-413.6,418.2L-413.6,418.2L-413.6,418.2L-413.6,418.2L-413.6,418.2z M-431,419.7L-431,419.7L-431,419.7L-431,419.7L-431,419.7  l0.1-0.1l0,0l0,0l0,0l-0.1,0l-0.1,0l0,0.1l0,0l0,0l0.1,0l0,0l0,0L-431,419.7l-0.2,0l0,0l0,0l0,0l0,0l0,0v0l0,0l0,0l0.1,0l0,0l0,0  l0,0l0,0l0,0l0,0l0,0L-431,419.7L-431,419.7L-431,419.7L-431,419.7z M-414,419.9L-414,419.9L-414,419.9L-414,419.9L-414,419.9  L-414,419.9l0.1,0.1l0,0l0,0l0,0l0,0l0.1,0l0,0l0,0l0,0l0,0l0,0l0,0l0,0l0,0v0l0,0v0l0,0l-0.1,0L-414,419.9L-414,419.9L-414,419.9  L-414,419.9L-414,419.9L-414,419.9z M-414.1,420L-414.1,420L-414.1,420l0.1,0.1l0,0l0.1,0l0,0l0,0l0,0l0,0l0,0l0,0l0,0l0,0  L-414.1,420L-414.1,420z M-430.8,420.8L-430.8,420.8L-430.8,420.8L-430.8,420.8L-430.8,420.8L-430.8,420.8L-430.8,420.8l0-0.1l0,0  l0-0.1l-0.1,0l0,0.1l0,0l0,0l0,0l0,0L-430.8,420.8L-430.8,420.8l-0.1-0.1l0,0l0,0l0,0l0,0l0,0l0,0l0,0L-430.8,420.8L-430.8,420.8  L-430.8,420.8L-430.8,420.8L-430.8,420.8L-430.8,420.8L-430.8,420.8z M-414,421.2L-414,421.2L-414,421.2l0,0.1l-0.1,0l0,0l0,0l0,0  l0,0l0,0l0,0l0,0l0,0l0,0l0,0l0,0l0,0l0,0l0,0l0,0l0,0l0.1-0.2l0-0.1L-414,421.2L-414,421.2L-414,421.2z M-414.5,424L-414.5,424  L-414.5,424L-414.5,424L-414.5,424l-0.1,0.1l0,0l0,0l0,0l0.1-0.1L-414.5,424L-414.5,424L-414.5,424L-414.5,424z M-417.1,430.3  L-417.1,430.3L-417.1,430.3L-417.1,430.3L-417.1,430.3l-0.1-0.1l0,0l0,0l0,0l0.1,0.1l0,0l0,0l0,0L-417.1,430.3L-417.1,430.3  L-417.1,430.3L-417.1,430.3L-417.1,430.3z M-417.5,430.3L-417.5,430.3L-417.5,430.3L-417.5,430.3L-417.5,430.3L-417.5,430.3  l-0.1,0.1l0,0l0,0l0,0l0.1,0l0,0l0,0L-417.5,430.3L-417.5,430.3L-417.5,430.3L-417.5,430.3z M-417.9,430.3L-417.9,430.3  L-417.9,430.3L-417.9,430.3l-0.1,0.1l0,0l0,0l0.1,0l0,0l0-0.1L-417.9,430.3L-417.9,430.3z M-418.1,430.4L-418.1,430.4L-418.1,430.4  l-0.1,0.1l0,0l0,0l0,0l0,0l0,0l0,0l0,0l0,0l0,0L-418.1,430.4L-418.1,430.4L-418.1,430.4L-418.1,430.4z M-427.4,431.6L-427.4,431.6  L-427.4,431.6l-0.1,0l0.1,0.1l0,0L-427.4,431.6L-427.4,431.6L-427.4,431.6z M-405.6,416.6l0.1,0.1l0.1,0l0.1-0.1l-0.1-0.1l-0.2,0  l-0.1-0.1h-0.1L-405.6,416.6z M-408.2,410.8l0.1,0l0.2,0.2l0.1,0l0.1-0.1l-0.2,0l0,0l0-0.1l0.1,0.1l0.1,0l0.2,0l-0.3-0.2l-0.2-0.1  l-0.4,0l0.2,0.1l0.1,0l0,0L-408.2,410.8L-408.2,410.8z M-399.9,379.1l-0.1-0.1l-0.1,0l-0.1,0.2l0,0l0,0l0,0l0,0.1l0,0.1  L-399.9,379.1z M-408.3,403.3l0,0.1l0.2,0.1l0.2,0.2l0.1,0.1l0,0l0-0.1l0,0l0,0l0,0l0,0l0-0.1l0-0.1l0-0.1l-0.1,0.1l0,0l0-0.1l0-0.1  l-0.1-0.3l0-0.1l0,0l0.1,0.1l0.1,0l0-0.1l-0.1-0.1l0-0.1l0,0l0,0l0,0v0l0,0l0-0.1l0,0l-0.1,0l0,0l0,0.1l0,0.1l0,0.1l0,0.3  L-408.3,403.3z M-393.6,363.7l0-0.1l-0.1-0.2l0,0l0,0.1l0,0.1l0,0.1l0,0l0,0l0,0l0.1,0l0.1,0l0-0.1L-393.6,363.7z M-390.3,363.9  L-390.3,363.9L-390.3,363.9l0-0.1l0,0l0-0.1l0-0.1l0,0l0,0l0,0l0,0.1l0,0l0,0l0,0l0,0l0,0l0,0l0,0l0,0l0,0l0,0.1l0,0l0,0l0-0.1l0,0  l0,0.2l0.1,0.1l0.1,0.1L-390.3,363.9z M-393,364.2L-393,364.2l0-0.1l0,0L-393,364.2l0.1-0.1l0-0.1l0-0.1l-0.1,0l0,0l0,0l0-0.1  l-0.1-0.1l-0.1,0l-0.1,0l0,0.1l0.1,0.2l0.1,0.1L-393,364.2l0,0.1L-393,364.2z M-394.4,364.8L-394.4,364.8l0.1,0.1l0.1-0.1l0-0.1  L-394.4,364.8L-394.4,364.8L-394.4,364.8z M-394.5,365L-394.5,365l0,0.1l0.1,0.1l0,0l0,0l0,0l0,0l0,0l0,0l0-0.1l0-0.1l0,0l0.1,0  l0-0.1l-0.1,0l-0.2,0.1l-0.1,0L-394.5,365L-394.5,365L-394.5,365z M-395.3,365.8L-395.3,365.8l0-0.1l0,0l0,0l0-0.1l0,0l0,0l0,0  l0,0.1l0,0.1l0,0l0,0l0-0.1l-0.1-0.1l0-0.1l0,0l0,0l0,0l-0.3-0.2l0,0l0,0l0,0l0,0.1l0.1,0.2L-395.3,365.8L-395.3,365.8L-395.3,365.8  L-395.3,365.8z M-394.2,365.5L-394.2,365.5L-394.2,365.5l-0.1-0.1l0,0l0,0l-0.1,0l0,0.1l0,0.1L-394.2,365.5L-394.2,365.5  L-394.2,365.5z M-395.5,366.1L-395.5,366.1l-0.1-0.1l0,0l0,0l0,0l-0.1-0.1h-0.1l0,0v0.1l0,0l0,0.1l0,0.1l0,0L-395.5,366.1l-0.1,0.1  l0,0l0,0l0,0L-395.5,366.1L-395.5,366.1z M-395,366.2L-395,366.2l0.1-0.1l0,0l-0.1,0l-0.1,0l-0.1,0.1l-0.1,0.1l0,0l0,0l0,0l0,0  l0,0.1l0,0.1l0,0L-395,366.2L-395,366.2z M-399.9,379.2L-399.9,379.2L-399.9,379.2l-0.1,0.1l0,0.1l-0.1,0.4l0,0.1l0.1-0.1l0,0l0,0  l0,0l0-0.1l0-0.1l0-0.1l0-0.1l0-0.1L-399.9,379.2L-399.9,379.2L-399.9,379.2L-399.9,379.2L-399.9,379.2L-399.9,379.2L-399.9,379.2  L-399.9,379.2L-399.9,379.2z M-400.1,379.8l-0.1,0.2l0,0.1l0.1,0l0-0.1l0-0.1V379.8L-400.1,379.8L-400.1,379.8z M-409.2,387  L-409.2,387L-409.2,387L-409.2,387l0.1-0.1l0-0.1l0-0.1l0,0l-0.1,0l-0.1,0l0,0l0,0l-0.1,0l-0.1,0l0,0.1l0,0.1l0,0.1l0,0.1l0.1,0.2  l0.2,0l0.2-0.1l0,0L-409.2,387L-409.2,387L-409.2,387L-409.2,387z M-407.2,404.6L-407.2,404.6L-407.2,404.6L-407.2,404.6l0,0.2  l0,0.1l0,0l0,0l0.1,0l0.1,0l0.1,0l0,0l0-0.1l0,0l0,0l0,0l0,0l0,0l0,0l0,0l0,0l0,0l0,0L-407.2,404.6l0-0.1l-0.1,0l0,0L-407.2,404.6  L-407.2,404.6L-407.2,404.6z M-406.3,407L-406.3,407l0-0.2l0,0l0,0l0,0l0,0l0,0.1l-0.1,0.3l0,0.1l0,0.1l0.1,0l0,0l0,0l0,0l0,0l0,0  l0.1,0l0.1,0l0,0l0,0l0,0l0,0l0,0l0,0l0,0L-406.3,407L-406.3,407z M-406.9,408.5L-406.9,408.5l-0.1,0.1l-0.1,0l0,0l0,0l0,0l0.1,0  l0,0l0,0l0,0L-406.9,408.5L-406.9,408.5l0.1,0l0,0l0.2-0.2l0.1-0.1l0-0.1l-0.2,0.2L-406.9,408.5L-406.9,408.5z M-406.3,408.4  L-406.3,408.4L-406.3,408.4L-406.3,408.4l-0.1-0.2l0,0l0,0l-0.2,0.3l0,0.1l0,0.1l0.1,0l0,0l0,0l0-0.1l0-0.2l0,0L-406.3,408.4  L-406.3,408.4L-406.3,408.4L-406.3,408.4L-406.3,408.4z M-407.6,409.3L-407.6,409.3L-407.6,409.3l0.1-0.1l0,0l0.1-0.1l0.2-0.1l0,0  l-0.2,0l0,0l0,0l0,0l0,0l-0.1,0l-0.1,0l-0.1,0l-0.1,0l0,0.1l-0.1,0.1l0,0.1l0,0.1l0,0l0,0l0,0l0,0l0,0l0,0l0,0l0,0l0,0l0,0l0,0l0,0  l0,0l0-0.1l0,0l0,0l0,0l0,0.1l0,0l0,0l0,0.1l0,0.1l0,0.1l0,0.1l0,0.1l0,0l0,0l0,0l0,0l0,0l0-0.2l0,0.1l0,0l0,0l0-0.1L-407.6,409.3  L-407.6,409.3L-407.6,409.3L-407.6,409.3L-407.6,409.3L-407.6,409.3z M-406.5,409.6L-406.5,409.6L-406.5,409.6L-406.5,409.6  L-406.5,409.6l-0.2,0l0,0.1l0,0.1l0.1,0l0.1-0.1L-406.5,409.6z M-406.8,409.9L-406.8,409.9L-406.8,409.9L-406.8,409.9L-406.8,409.9  L-406.8,409.9L-406.8,409.9L-406.8,409.9z M-406.5,410L-406.5,410L-406.5,410l0-0.1l0,0l0,0l0,0l0,0l0,0l0,0L-406.5,410L-406.5,410  L-406.5,410z M-408.9,410.1L-408.9,410.1L-408.9,410.1l-0.4-0.2l-0.1,0l0,0l0,0l0,0.1l0,0.1l0.1,0.1l0.1,0.1l0.1,0l0.1,0  L-408.9,410.1L-408.9,410.1L-408.9,410.1L-408.9,410.1L-408.9,410.1z M-407.5,410.1L-407.5,410.1L-407.5,410.1l0.1,0.2l0,0.1l0,0  l0,0l0,0l0,0l0,0l0,0l0.1-0.1l0-0.1l0-0.1l0-0.1l0,0l0,0l0,0l-0.1-0.1l0,0l0,0l0,0l0,0l-0.1,0L-407.5,410.1L-407.5,410.1  L-407.5,410.1z M-407,410.7L-407,410.7L-407,410.7l0.1-0.1l0,0l0,0l0,0l0,0l-0.1,0l-0.1,0.1l0,0.1l0,0.1l0,0l0,0l0,0l0,0l0,0l0,0  l0,0l0,0l0,0L-407,410.7L-407,410.7z M-407.2,411.1L-407.2,411.1l-0.1,0l0,0l0,0.1l0,0.1l0,0.1l0,0L-407.2,411.1L-407.2,411.1  L-407.2,411.1z M-408.5,412.2L-408.5,412.2L-408.5,412.2l0,0.1l0,0l0,0l0,0l0,0h0l0,0l0,0l0,0l0,0l0,0l0,0l0,0l0,0l0,0l0.1,0  l0.1-0.2l0,0l0,0l0,0l0,0l0-0.1l0-0.1l0,0l-0.1,0l-0.1,0.1l-0.1,0.1l-0.1,0.1l0,0l0,0l0,0l0,0l0,0l0,0l0,0L-408.5,412.2  L-408.5,412.2L-408.5,412.2L-408.5,412.2z M-410.9,412.5l0,0.1l0,0.1l0,0l0,0l0,0.1l0,0.1l0,0.1l0,0l0,0l0.1,0.1l0,0l0-0.1l0,0l0,0  l0,0l0,0l0-0.1l0-0.1l0-0.1l0-0.1l0-0.1l0-0.1l0-0.1l0-0.1l0-0.1l0-0.1l0,0l0,0l0,0l0,0l0,0l0,0l0,0.1l0,0.2l0,0.1l0,0L-410.9,412.5  L-410.9,412.5z M-409.3,412.6L-409.3,412.6l0.1,0.1l0,0l0-0.1l0-0.1l0-0.1l0-0.1l0,0l0,0l0,0l0,0l0,0l0,0l0,0l0-0.1l0,0l0,0l0,0l0,0  l0.1-0.1l0,0l-0.1,0l-0.1,0l-0.1,0l-0.1,0l0,0l0,0.1l0,0l0,0L-409.3,412.6l-0.1-0.1l0,0l0,0.1l0,0l0,0l0,0L-409.3,412.6  L-409.3,412.6L-409.3,412.6L-409.3,412.6z M-408.6,412.7L-408.6,412.7L-408.6,412.7L-408.6,412.7l-0.1,0l-0.1,0.1l-0.1,0.1l-0.1,0.1  l0,0.1l0,0l0,0l0,0l0.1-0.1l0.1,0l0.1,0l0.1,0l0,0l-0.1,0l0,0l0,0l0,0l0,0L-408.6,412.7l0.1,0l0.1-0.1l0-0.1l0,0L-408.6,412.7  L-408.6,412.7z M-413.6,416.6L-413.6,416.6L-413.6,416.6l0.1,0.2l0.1,0l0.1,0l0.1,0l0,0l0,0l0,0l0,0l0,0l0,0l0,0l-0.1,0l-0.1,0  l-0.1-0.1L-413.6,416.6L-413.6,416.6L-413.6,416.6l0.1-0.1l0,0l-0.1-0.1l0,0l0,0l0-0.1l0,0l0,0l0,0l0,0l0,0l0,0l0,0l0,0l-0.1,0  l0,0.1l0,0.1L-413.6,416.6L-413.6,416.6L-413.6,416.6z M-413.5,416.9L-413.5,416.9l0,0.1l0,0.1l0,0l0,0l0-0.1l0-0.1l0,0  L-413.5,416.9L-413.5,416.9z M-417.3,430.4L-417.3,430.4L-417.3,430.4l-0.1,0l0,0l0,0l0,0.1l0,0.1l0.1,0.1l0,0l0,0l0,0l0,0l0-0.1  L-417.3,430.4L-417.3,430.4L-417.3,430.4L-417.3,430.4L-417.3,430.4L-417.3,430.4L-417.3,430.4z M-431.2,419.2L-431.2,419.2  L-431.2,419.2L-431.2,419.2l0.1,0l0,0l0,0l0.1,0l0,0l0-0.1l0-0.2l0-0.1l0.1-0.1l0.1,0l0,0.1l0,0l0,0l0,0l0,0l0-0.2l0,0l0,0l0-0.1  l-0.1,0l-0.1,0l-0.1,0.1l-0.1,0h-0.3l-0.1,0l-0.1,0l0,0.1l0,0.1l0.1,0h0.1l0.1,0l0,0l-0.1,0l0,0l0,0.1l0,0.1l0,0.1l0,0.1l0,0.1l0,0  L-431.2,419.2L-431.2,419.2z M-431.3,418.3L-431.3,418.3L-431.3,418.3l0.1-0.1l0.1-0.1l0.1,0l0.1,0l0.1,0.1l0.1-0.1l0.2,0.1l0.2-0.1  l0.1,0l0.1,0l0-0.1l0-0.3l0-0.1l0-0.1l-0.1-0.1l-0.1,0l-0.1-0.1l0-0.1l-0.1,0l-0.1,0l-0.1,0l0,0l0,0.1l0,0l0,0.1l0,0.1l0,0.1l-0.1,0  l-0.1,0l-0.1,0l0,0l-0.1,0.1l-0.1,0l-0.3,0.3l-0.1,0.1l0,0.1l0,0.1l0.1,0.1l0,0l0,0.2h0v-0.2L-431.3,418.3L-431.3,418.3  L-431.3,418.3z M-405.3,419l-0.1,0l-0.1,0l0,0l0-0.1l-0.1,0l-0.1,0l-0.1,0l0,0l-0.1,0.1l-0.1,0l-0.1,0l0,0.1l0,0.1l0,0.1l0,0.1  l-0.1,0.1l0,0l0,0.1l0.1,0.2l0,0.1l0,0l0,0l0.1,0l0,0l0.1-0.2l0-0.1l0,0l0,0l0,0l0.1-0.1l0.1-0.1l0.1-0.1l0.1,0l0.2,0.1l0-0.1l0,0  l0,0l0,0l0,0L-405.3,419L-405.3,419z M-406.1,419.7L-406.1,419.7L-406.1,419.7l-0.1-0.1l0-0.1l0-0.1l0,0l0,0l-0.1,0l-0.1,0l-0.1,0  l0,0.1l-0.1,0l-0.1-0.1l0.1-0.1v0l-0.2,0l0,0l0,0l0,0.1l0,0l0,0.1l-0.1,0.1l-0.1,0.1l0,0.2l-0.1-0.1l0,0l0-0.1l0,0l0,0l0,0l0,0l0,0  l0,0l0,0l0,0l0-0.1l0-0.1l-0.1,0l-0.1,0l-0.1,0l-0.1,0.1l-0.1,0.1l0,0.1l0,0.1l0,0.1l0,0l0,0l-0.1,0l-0.1,0l0,0l-0.2,0.1l-0.1,0.1  l-0.5,0.8l-0.5,0.6l-0.1,0.2l-0.1,0.2l0,0.1l0,0.1l0,0.1l0,0.1l0,0l0,0.1l0,0l0,0.1l0,0l0,0l0,0l0,0l0,0.1l0,0.1l0,0.1l0,0.1  l-0.1,0.1l0,0.1l0,0.1l0.2,0.2l0.1,0.5l0.1,0.1l0,0l0,0.1l0,0l0,0l0,0.1l0,0.1l0,0.1v0l0.1,0l0.1-0.1l0.1-0.1l0.1-0.1l0,0.1l0,0.2  l0,0.1l0,0l-0.1,0l0,0.1l0,0.1l0,0.1l0,0.1l-0.2,0.4l0.1,0.1l0.1,0l0.3-0.2l0,0l0-0.1l0-0.1l0.1-0.1l0,0v0h0.2l-0.1,0l-0.1,0l0-0.1  l0-0.3l0-0.1l0.2-0.1l0.1-0.1h-0.2l0.1-0.1l0.1-0.1l0.4-0.2l0.1,0v0h0v0l0.1-0.1l0.3-0.1l0,0l0.1-0.1l0-0.2l0,0l-0.1,0l0,0l0-0.1  l0-0.1l0.1-0.1l0.1-0.1l0.1-0.1l0.1-0.1l0.1,0l0,0l0-0.1l0,0l0,0l0,0l0,0h0.1l0.1,0l0-0.1l0-0.1l0-0.1l0,0l0,0l-0.1,0l0,0l0,0l0,0  l0,0l-0.1,0l-0.1-0.1l0-0.1l0,0l-0.1,0l0,0l0-0.1l0-0.1l0-0.1l0-0.1l0-0.1l0-0.1l0-0.1l0-0.1l0-0.1l0-0.1l-0.1,0l0,0l0-0.1l0,0l0,0  l0-0.1l0.1-0.2l0-0.2l0-0.1l0-0.1l0,0l0,0l0,0l0.1,0.1l0,0l0.1,0l0.1,0l0-0.1v-0.1l0-0.1l0,0l0-0.1l0,0l0,0l0,0.1l0-0.2l0.1-0.1  l0.2,0l0-0.1L-406.1,419.7z M-412.6,423L-412.6,423L-412.6,423L-412.6,423L-412.6,423l-0.1-0.1l0,0h0L-412.6,423l-0.1-0.1l0,0l0-0.1  l0,0l-0.1,0l-0.1,0.1l-0.1,0.2l-0.1,0.1l0,0.1l0,0.4l0,0.1l0,0.1l-0.1,0l0,0l0,0.1l-0.1,0.5l-0.1,0.4l-0.2,0.3l-0.2,0.4l-0.1,0.2  l0,0.1l-0.1,0l-0.1,0l-0.1,0l-0.1,0.1l-0.6,1.4l0,0.1l0,0l-0.1,0.1l-0.1,0.2l0,0.1l0,0.5l0,0.1l0,0.1l0,0.1l0,0.1l0,0.3l0,0.1l0,0.1  l0,0.2l0,0.1l0,0.1l0,0.1l0.1,0.1l0.1,0l0.1-0.1l0.1-0.1l0.2-0.4l0-0.1l0-0.1l0-0.1l0-0.1l0-0.1l0,0l0-0.1l0-0.1l0-0.1l0-0.1l0-0.1  l0-0.1l0-0.1l0,0l0-0.1l0,0l0,0l0,0l0,0l0-0.1l0-0.1l0,0l0,0l0,0l0-0.1l0-0.1l0-0.1l0-0.1l0.2-0.6l0-0.1l0-0.1l0-0.1l0-0.1l0-0.1  l0,0l0.2-0.1l0,0l0-0.1l0.1-0.3l0-0.1l0.1-0.1l0-0.1l0-0.1l0-0.1l0.1-0.2l0.1-0.1l0.1-0.1l0,0l0,0l0,0l0-0.1l0.1-0.1l0.1,0l0.1-0.1  l0-0.2l0-0.1l0.1-0.3l0-0.1l0-0.1l0-0.1l0,0l0,0l0,0l0,0l0-0.1l0.1-0.2l0-0.1l-0.1-0.2l0.1-0.2L-412.6,423L-412.6,423L-412.6,423  L-412.6,423z M-389.6,363.2l0.2,0l0.1,0l0,0l0,0l0,0l0,0l0.2,0.1l0.1,0l0.1-0.1l0-0.2l-0.1-0.2l-0.1-0.3l-0.1-0.2l-0.1-0.2l0-0.2  l0-0.1l-0.1-0.4l0-0.1l0-0.1l-0.1-0.1l0-0.1l0-0.1l-0.2-0.6l-0.1-0.1l-0.3-0.1l-0.1-0.1l-0.1-0.1l-0.1-0.4l0-0.2l0-0.2l0-0.1l0-0.1  l0-0.1l0-0.1l0-0.1l0-0.2l0-0.1l0-0.1l-0.1-0.2l0-0.1l0-0.2l0.1-0.1l0.1-0.1l0.1,0v-0.1l0.1-0.1l0.1-0.1l0.1-0.1l0-0.1l0.2-0.1  l0.1-0.1l0-0.1l0-0.1l0-0.2l0-0.1l0-0.1l0-0.2l0-0.2l0-0.2l0-0.3l0-0.1l0.1-0.2l0-0.2l0.1,0l0.1,0l0,0l0-0.1l0-0.1l-0.1-0.4  l-0.1-0.2l-0.1-0.1l-0.1-0.2l-0.2-0.4l-0.1-0.1l-0.1,0l-0.1-0.1l-0.1-0.1l-0.1-0.3l0-0.1l0-0.1l0-0.1l0-0.1l0-0.1l0-0.1l0,0  l-0.1-0.2l-0.1-0.1l-0.1-0.1l0-0.2l0-0.1l0-0.1l0-0.1l0-0.1l-0.1,0l0-0.1l0-0.2l0-0.1l0.1-0.1l0.4-0.2l0.1-0.1l0.1-0.3l-0.1-0.1  l0-0.2l0-0.2l0-0.2l0-0.1l-0.1,0l-0.2,0l-0.2-0.2l-0.1,0l-0.1,0.1l-0.1,0l-0.1-0.1l0-0.2l0-0.2l0.1-0.2l0.1-0.2l0-0.1l0.1-0.1  l0.1-0.1l0.1-0.1l0-0.2l0-0.1l-0.1-0.2l0-0.1l0-0.3l0-0.1l0-0.1l0-0.5l0-0.2l0-0.2l0-0.2l0.1-0.2l0.1-0.1l0.2-0.1l0.1-0.1l0.1-0.2  l0-0.2l-0.1-0.1l-0.2-0.1l-0.3-0.4l-0.1-0.1l-0.2-0.2l0-0.1l0-0.1l-0.1-0.5l0-0.1l0-0.1l-0.1,0l-0.3,0.2l-0.1,0l0,0l0,0l0,0l0-0.1  l0,0l0-0.1l0-0.2l0-0.1l0-0.1l0-0.2l-0.1-0.2l-0.2-0.2l0-0.1l0-0.1l0-0.1l0-0.1l0-0.1l-0.5-0.3l-0.1-0.1l-0.1-0.3l-0.1-0.1l-0.2,0.1  l-0.1-0.1l-0.1-0.2l-0.1-0.1l-0.1,0l-0.1,0l-0.1,0l-0.1-0.1l-0.1,0l-0.2-0.1l-0.3,0l0,0l0-0.1l0,0l-0.2-0.1l-0.8,0l-0.1-0.1l0,0  l0-0.1l0-0.1l0,0l0,0l0-0.1l0-0.1l-0.1-0.1l0-0.1l-0.1-0.2l-0.6-0.2l-0.1-0.3l-0.2-0.1l-0.3-0.3l-0.3-0.1l-0.1-0.1l0-0.1l-0.1-0.3  l0-0.1l0-0.1l-0.1,0l-0.2,0l0,0l0,0l0-0.1l0,0l0-0.1l-0.2-0.4l-0.2-0.2l-0.3-0.3l-0.6-0.2l-0.1-0.1l0-0.2l0.1-0.1l0.1-0.1l0-0.2  l-0.1-0.1l-0.2-0.1l-0.2-0.2l-0.4-0.1l-0.2-0.2l-1.7,0.1l0.8,1l0,0.2l0,0.8l0,0.2l0,0.2l-0.3,1l-0.3,0.5l-0.6,0.6l0.9,0.6l-0.8,1  l-0.1,0.1l-0.1,0l-1.5-0.7l-1.5-0.7l-1.1,0.1l-0.2-0.1l-0.5-0.6l-0.2-0.1l-0.9,0.3l0,0.1l0,0.1l-0.1,0.8l0,0.3l0.2,1.8l-0.1,0.4  l-0.6,1.3l-0.1,0.2l-0.1,0.2l-0.1,0l-1.9-1.2l-0.1,0.1l-0.3,0.5l-1.4,1.2l-0.1,0.1l-0.1,0.2l-0.5,2l-0.1,0.2l-0.3,0.6l-0.2,0.2  l-0.2,0.1l-0.6,0.1l-0.1,0.1l-0.2,0.6l1,1.9l0,0.2l-0.1,1.1l-0.1,0.1l-0.1,0.1l-0.2,0.1l-0.6,0.6l-0.3,0.4l-1.2,2.4l-0.8,0.9l0,0.2  l0.2,1l0,0.3l0,0.2l0,0.1l-1.4,1l-1.7,0.2l0.3,2.3l0,0.3l0,0.2l-0.2,0.5l0,0.1l-0.2,1.9l0,0.4l0,0.4l0,0.4l-0.1,0.2l-0.3,0.3  l-0.1,0.1l0,0.2l-0.1,0.7l-0.1,0.3l-0.5,0.7l0,0l-1.8,3.2l1,0.7l0.1,0.1l0.3,0.1l0.1,0.1l0.1,0.2l0.2,1.8l0,0.1l0,0.1l-0.6,1.1  l-0.1,0.1h-0.1l-2.4-0.6l-0.8,0.2l-0.8,0.5l-0.2,0.3l-0.7,1.1l-0.6,1.2l-0.4,0.4l0.2,0.8l0,0.2l-0.1,0.1l-0.7,1.2l0.8,2.1l-0.4,0.6  l0,0.1l0,0.2l0.2,1.1l0,0.2l-0.1,0.2l-0.1,0.4l0,0.2l0,0.1l0.7,1.8l0.1,0.4l0,0.4l-0.5,3.6l0,0.1l0.4,0.4l0.2,0.1l0.3,0.4l0.1,0.1  l0.1,0l0.2,0l0.1,0l0.1,0.1l0.9,1.2l0,0.1l0,0.1l-0.1,0.7l0,0.2l-0.1,0.2l-0.2,0.4l0,0.1l0,0.1l-0.1,0.5l0,0.1l-0.1,0l-0.4-0.1  l-0.2,0l-0.8,0.2l-0.1,0.1l0,0.1l0.1,0.3l0.1,0.2l0.1,0.5l0.1,0.2l0.1,0.3l0.4,0.7l0.4,1l0,0.2l0,0.2l0,0.2l0,0.2l-0.1,0.1l-0.1,0.1  l-0.2,0.2l0,0.1l0,0.1l0,0.2l0.1,0.4l0,0.2l0,0.3l-0.1,0.2l-0.1,0.2l-0.5,0.6l-0.5,0.4l-0.1,0l-0.5-0.1l-0.2,0.1l-0.1,0.1l0,0.2  l0,0.1l0.1,0.2l0,0.1l0,0.1l0,0.3v0.1l0,0.1l-0.1,0.2l-0.1,0.1l-0.5,0.2l-0.1,0.1l0,0.2l0,0.1l0.4,1.3l0.1,0.4l0,0.1v0.1l0,0.1  l-0.1,0.1l0,0.1l-0.1,0.4l0,0.3l0,0.2l-0.1,0.3l0,0.1l0,0.2l-0.1,0.3l-0.2,0.2l-0.2,0.1l-0.2,0l-0.1-0.1l0-0.4l-0.1-0.2h0l-0.1-0.1  l-0.1-0.1l-0.1-0.1l0-0.1l0-0.2l-0.1-0.1l-0.3,0.1l-0.1,0.1l-0.2,0.3l0,0.1l0,0.1l0,0.1l0.1,0l0.1,0l-0.2,0.1l-0.1,0.1l0,0.1l0,0.1  l0.1,0.1l0.2,0.1l0,0l0,0l0,0l0,0.1l0,0.1l0,0.2l0,0.1l0,0l0,0l0,0l0,0.2l0,0.1l0,0.1l0,0.1l0,0.1l0,0.1l-0.1,0l0,0.1l0,0.1l0,0.1  l0.1,0l0,0l0,0.1l0,0.1l0.1,0.2l0,0.1v0.1l0,0.1l0,0.1l0,0l0,0l0,0l0,0.1h0.1l0,0.1l0,0l0,0l0,0l0,0l0,0.2l0,0l0,0l0,0l0,0l0,0  l0,0.1l0,0l0,0l0.1,0.1l-0.1,0.1l-0.1,0l0,0.1l0,0.1l-0.1,0l0,0l0,0.1l0.1,0.1l0,0.1l0,0.1l0,0l0,0l0,0l0.1-0.2l0.1,0l0.1,0l0.1,0  l0,0l0-0.1l0,0l0,0l0.1,0l0.1-0.2l0-0.1l0,0.1l0,0.1l-0.1,0.1l-0.1,0.3l0,0.1l0,0l0.1,0l0,0l0-0.1l0-0.1l0-0.1l0.1,0l0,0.2l0.1,0.1  l0,0l-0.1,0l0,0l0,0l0,0.1l0,0.1l0,0l0.1-0.1l0.1,0v0l0,0l0,0.1l0,0.1l0,0.1l0.2-0.2l0.1-0.1l0.1-0.2l0.1-0.2l0-0.2l0-0.2l0-0.2h0  l0,0.1l0.1,0.2l0,0.1l0.1-0.1l0.1-0.1l0.1,0l0.1,0.1l-0.1,0.1l-0.1,0l0,0.1l0,0l-0.2,0.2l-0.1,0.1l-0.1,0.2l-0.1,0.2l0,0.1l0,0.1  l0.1,0l0-0.1l0,0l0,0l0,0l0.1,0l0,0l0,0l0.1-0.1l0,0l0,0l0.2-0.2l0.1,0l0,0l0-0.1l0.1,0l0.2,0l0.1-0.1l0.1,0l0,0.1l-0.2,0.1  l-0.1,0.1l0,0.2l0,0.1l0,0l0,0.1l0,0.2l0,0.1l0,0l0.1,0l0,0.1l0,0l0,0l0,0l0,0l0,0l0,0.4l0,0.1l-0.1,0l0,0l0,0l0,0l0,0l0,0.1l0,0.1  l0,0.1l0,0.1l0,0.1l0,0.2l-0.1,0.3l0,0.1l0.1,0.1l0,0.1l0,0l0,0v0h0v0l-0.2,0.1l0,0.1l0,0.1l0,0l0,0l-0.1,0.1l0.1,0l0.1,0.1l0.1,0.1  l0.1,0.1l0.1,0l0.1,0l0.1,0l0,0l0,0l-0.3,0.3l0,0.1l0,0.1l0,0l0.1,0l0,0l0-0.1l0.1,0l0.2,0.1l0.1,0l0.1,0l0.1,0l0.1,0l0,0.1l-0.2,0  l0,0.1l0,0.1l0,0.1l0,0.1l0,0.1l0,0.1l0,0l0,0l0-0.1l0,0l0,0l0,0l0,0.2l0,0.3l0,0.1l0,0l0.1,0.1l0,0l0,0l0.1,0l0.1,0.1l-0.1,0l0,0  l0,0.1l0,0.1l0,0.1l0,0.1l0,0.1l0,0.1l0,0l0,0l0,0l0,0l0,0.2h0.1l0.1,0l0,0.1l0-0.1l0-0.4l0.1-0.1l0,0l0,0l0,0l0,0l0,0l0.1,0.2  l0,0.1l0,0.1l-0.1,0h0.2l-0.1,0.1l-0.1,0.1l0,0.1l0.1,0.1l0,0l0.1,0l0,0l0,0l0,0l0,0l0,0l0,0l0,0l0,0.1l0,0.1l0,0v0l0,0l-0.1,0l0,0  l0,0l0,0v0l0.1,0l0.1,0l0,0l0,0l0,0h-0.1l0.1,0.1l0.1,0l0.1,0l0.1,0l0,0l0,0.1l-0.1,0.1l0,0l0.1,0l0,0l0,0.1l0,0.1l0,0l0.1,0.2  l0,0.1l-0.1,0.1l0.1,0.1l0,0l0,0.1l0.1,0.1l0.1,0.1l0.1,0.1l0,0l0,0l0,0l0,0l0,0.1l0,0l0,0l0,0.1l0,0l0,0.1l0,0.1l0.1,0.1l0.1,0  l0.1,0.1l0.1,0l0,0l0.1,0.1l0,0l0.1,0l0,0l0,0v0l0,0l0,0l0.2,0.2l0,0.1l0,0.1l0.1,0.2l0.1,0.1l0.1,0.1l0,0.1l0,0.1l0,0.1l0.2,0.2  l0,0l0.1,0l0.1,0l0.1-0.1l0.1,0l0.1,0l0,0.1l0.1,0.3l0.1,0.3l0,0.1l0,0.1l0,0.1l-0.1,0.1l0,0.1l-0.2,0.1l-0.4-0.1l-0.2,0.1l-0.1,0.2  l0.1,0.1l0.3,0.2l0.1,0.3l0.1,0.1l0.2,0.1l0,0.1l0,0.1l0,0.1l-0.1,0l-0.1,0l-0.1,0l0,0l0,0l0,0l0,0l-0.1-0.1l0,0l0,0l0-0.1l0,0  l-0.7-0.3l0,0.1l0.1,0.1l0,0.1l0.1,0.2l0,0.1l0,0.2l0,0.1l0.1,0.3l0,0l0.3,0.4l0,0.1l0,0.1l0,0.1l0.1,0l0.1,0.1l0,0.1l0,0.1l0,0.1  l0,0l0,0l0,0l0,0l0,0l0,0.1l0,0l0,0.1l0.1,0.1l0.1,0.1l0.1,0.1l0,0.3l0,0.1l0,0l0,0l0,0l0,0.1l0.1,0l0.1,0l0,0.1l0.1,0l0.1,0l0,0.1  l0,0l0,0.1l0,0.1l0,0.1l0,0.1l0,0.1l0,0.1l-0.2,0.2l-0.1,0.1l0,0.2l0,0.2l0.2,0.3l0,0.2l0,0l0,0l0,0l0,0.1l0,0.1l-0.1,0l-0.1,0  l-0.1,0l0,0l0,0l0,0h0l-0.1,0.2l0,0.1l0,0l0.1,0l0.1,0l0,0l0,0l0,0l0,0l0,0l0,0l0.1,0l0.1,0l0,0l0.1,0.1l0,0l0,0l0.1,0l0.2,0  l0.6,0.2l0.1,0l0.2,0l0.1,0l0.3-0.2l0.1,0l0.1,0l0.1,0l0-0.1l0-0.1l0,0l0.1,0l0.4,0l0.2,0l0,0l0,0l0.1-0.1l0,0l0.1,0l0.1,0l0.3,0.2  l0.1,0l0.1,0l0.2,0l0.1,0l0.1,0l0.1-0.1l0.2-0.3l0,0l0.1,0l0.2-0.2l0-0.1l0-0.1l0-0.1l-0.1-0.2l-0.1-0.1l0,0l0-0.1l0-0.1l0-0.1  l0-0.1l0-0.1l-0.1-0.1l-0.1-0.1l0-0.1l0-0.1l0-0.2l0-0.2l0.1-0.2l0.1-0.2l0.1-0.1l0-0.1l0-0.1l0-0.1l0.1-0.1l0.1,0l0.1-0.1l0.1-0.2  l0.1-0.2l0.1-0.1l0.1,0l0,0l0.1-0.1l0,0l0,0l0,0l0,0l0.1-0.1l0,0.1l0,0.1l0,0l0,0l0,0.1l0,0l0,0l0.1,0l0,0l0,0l0,0l0,0l0,0h0.1  l0,0.1l0,0l0,0l0,0l0,0l0,0l0,0l0-0.1l0-0.1l-0.1-0.1l0,0l0-0.1l0,0l0,0l0,0l0-0.1l0-0.1l0-0.1l0.1-0.1l0.1,0l0.2,0l0.1,0l0.1,0.1  l0.1,0l0.1,0l0-0.1l0.1,0l0.1,0l0.1,0l0.1-0.1l0.1,0l0.2,0.1l0,0l0-0.1l0,0l0,0l0.1,0l0,0l0,0l0,0.1l0,0h0.1l0,0l0,0l0,0l0,0  l0.1,0.1l0.1,0l0.1-0.1l0.1-0.1l0.1,0.2l0,0.1l0,0l-0.1,0l0,0l0,0l0.1,0l0,0l0,0l0-0.1l0.1-0.1l0,0l0,0l0.1,0l0,0l0,0l0,0l0.1,0.1  l0,0l0-0.1l0,0l0.1-0.1l0.1-0.1l0,0l0,0l0,0.1l0,0.1l0,0l0.1,0.1l0.1-0.1l0.1-0.1l0.1-0.1l0,0l0,0.1l0,0l0,0l0,0l0,0l0,0l0.1,0.1  l0.1,0l0.2-0.1l0.1,0.1l0,0.1l-0.1,0.2l0.1,0.1l0.1,0.1l0.1,0l0.1-0.1l0.2-0.4l0.1-0.1l0.1-0.1l0.1-0.1l0-0.1l0-0.1l0,0l0,0l0,0  l0.2-1l0.1-0.2l0.2-0.3l0-0.1l0-0.1l0.1,0l0-0.1l0-0.1l0-0.1l0-0.1l0,0l0,0l0.1-0.2l0,0l0,0l0,0l0,0l0,0l0.1,0.1l0.1,0l0.1,0l0,0  l0-0.1l0-0.1l0-0.2l0-0.1l0-0.1l0,0l0.1,0l0.1-0.1l0.1,0l0.1,0l0.1,0l0,0l0,0l0-0.1l0,0l0,0l0,0l0,0l0,0l0,0l0-0.1l0-0.1l0.1-0.3  l0-0.1v-0.1l0-0.2l0,0l0.1-0.2l0-0.1l0,0l0,0l0-0.1l0-0.1l0-0.1l0-0.1l0.1,0v0l0,0l0,0l0,0l0,0l0,0l0.1,0l0.1,0l0,0l0,0l0,0l0,0l0,0  l0,0l0,0l0,0l0,0l0,0l0,0l0,0l0,0l0,0l0,0l0.1,0l0,0l0-0.1l0-0.1l0-0.1l0.1,0l-0.1-0.1l0,0l0,0l0,0l0,0l0,0l-0.1-0.2l-0.1-0.1l0-0.2  l0-0.1l0.1-0.1l-0.1-0.2l0.1-0.1l0.3-0.2l-0.1-0.1l0,0l0,0l0-0.1l-0.1-0.1l0-0.1l0.1,0l0.2,0l0-0.1l0,0l0.1,0l0.1,0l-0.1,0l0,0  l0-0.1l0-0.1l0,0l0,0l0,0l0-0.1l0.1,0l0-0.1l-0.1-0.2l-0.1-0.3l-0.1,0l-0.3,0v0h0.1v0l-0.1,0v0l0,0l0-0.1l0,0l0,0l0-0.1l0,0l0,0l0,0  l0,0l0,0.1v0.1l0,0.1l0,0l0,0l0.1-0.1l0,0l0,0l0,0l0,0l0-0.1l0,0l0,0l0,0l0-0.1l0.1,0l0,0l0-0.1l0-0.1l0,0l-0.1-0.1l0-0.1l0.1,0.1  l0.1,0l0.2,0v0h0v0h0.1l0-0.1l0-0.1l-0.1,0l-0.1,0l0,0l0-0.1l-0.1-0.1l0,0l0,0l0,0l0-0.1l0-0.1l-0.1-0.2l-0.2-0.1l-0.1-0.1l0-0.1  l0-0.1l0.4,0.3l0.3,0.4l0,0.1l0.2,0.1l0.1,0l0,0l-0.1-0.1l-0.7-0.8v0l0.1,0l0,0l0,0l0-0.1l0.1,0.1l0.1,0l0.1,0.1l0,0l0-0.1l0-0.1  l0-0.1l0,0l0-0.1l0,0l-0.2-0.1l-0.1-0.1l0,0l0,0l0-0.1l0,0l0,0l0.4,0.5l0,0l0,0l0,0l0,0l0,0.1l0,0.1v0.1l0,0.1l0.1,0l0.1,0l0,0  l0-0.1l0,0l0.1,0.2l0,0l0.1,0l0.1,0l0-0.1l0-0.1l-0.1-0.1l0-0.1l0.1,0.1l0.1,0l0-0.1l-0.1-0.1l0,0l0-0.1l0-0.1l0,0l0,0l0,0l0-0.1  l0-0.1l0,0l0,0l-0.1-0.2l0-0.1l0-0.1l0,0l0.1,0.2l0.1,0l0-0.1l0,0l0.1-0.1l0,0l0,0l0,0l0-0.1l0-0.1l-0.1,0l-0.1,0l-0.1-0.1l0,0l0,0  l0,0l0-0.1l0.1,0l-0.1-0.1l-0.1-0.2l-0.1-0.1l0,0l0,0l0,0l0-0.1l-0.1-0.1l0-0.1l0.1,0.1l0.2,0.2l0.2,0.1l0.1-0.2l0,0l0,0l0,0l0,0  l0,0l0,0l0,0l0-0.1l0-0.1l0-0.1l0-0.1l0,0l0,0l0,0l-0.2-0.2l-0.1,0v0l0.1,0l0,0l0,0l0,0l0,0l0,0l0,0l0.1,0l0,0l0-0.1l-0.1,0l-0.2,0  l0,0.1l0,0l0,0l0,0l0,0l0,0l0-0.1l-0.1-0.1l-0.1-0.1l-0.1-0.1l0.5,0.1l0-0.1l0,0l0,0l0,0l0,0l-0.1,0l0,0l0-0.1l0-0.1l0-0.1l0-0.1  l0-0.1l0,0l-0.1,0l-0.7-0.4l-0.1,0l0.1-0.1l0.3,0.1l0.2,0.1l0.4,0.1l0,0l0,0l0,0l0,0l0-0.1l0,0l0.1,0l0.1,0l0.1-0.1l0-0.1l0.1,0  l0.2,0l0.1,0l-0.2-0.2l-0.1,0l0,0l0-0.1v0h-0.1v0l0,0l0,0l-0.1,0l-0.1-0.1l0-0.1l0-0.1l0,0l-0.1,0l0,0l0,0.1l0,0l-0.1-0.1l-0.1,0  l0,0l-0.1-0.1l-0.1,0l-0.4,0l0,0l-0.2-0.1l0,0l0,0.1l0,0.1l0,0.1l0,0.1l0,0l0,0l0,0l0-0.1l0-0.1l0,0l0,0l-0.1-0.1l0,0l0,0l0,0.1  l-0.1,0.1l-0.2-0.1l-0.1,0l0-0.1l0,0l0,0l0,0v0l0.1,0l0.1,0l0.1,0l0-0.1l0-0.1l0,0l0,0v0l2.3,0.3l0.3-0.1l0.1,0l-0.1-0.1l-0.1-0.1  l-0.2,0l0.1-0.1l0.1,0l0.2,0.1l0.1,0l0-0.1l0-0.1l0.1-0.1v0l-0.1,0l-0.1,0l-0.1,0l0,0l0,0l0-0.1l0-0.1l0,0l-0.1,0l0,0l0.1,0l0.1-0.1  l0,0l0,0l0.1,0.1l0,0l0.1,0l0.4,0v-0.1l0.1,0l0.2,0l0.1-0.1l0-0.1l-0.1-0.2l0.4,0.1l0.1-0.1l-0.1-0.1l0,0l0,0l0,0l0-0.1l0-0.2l0-0.1  l-0.1,0v0l0.1,0.1l0.3,0.2l0.1,0l0,0l0,0h0.1v0l-0.1-0.1l0-0.1l0-0.1l0.1,0l0.1,0l0.1,0l0.1-0.1l0-0.1l0,0l0,0l0-0.1v0l0,0l0,0l0,0  l0,0l0,0l0,0l0,0l0,0l0-0.1l0-0.1l0-0.1l-0.1-0.1l0-0.1l0-0.1l0-0.1l0.1,0l0.1-0.1l0-0.1l0-0.1l0-0.2l0,0l0,0.1l0,0.1l0,0.1l0,0.1  l-0.1,0.1l0,0.1l0.1,0.2l0,0l0,0l0-0.1l0-0.2l0-0.1l0-0.1l0,0l0,0l0,0.1l0,0.2l0,0l0,0.1l0,0.2l0,0.2l0,0.1v0l0,0.1l0,0.1l0,0.1  l0.1,0.1l0,0l0,0.1l0,0.1l0,0l0,0l0,0l0-0.1l-0.1-0.1l0-0.1l0-0.1l0,0l0.1,0.1l0,0l0.1,0l0,0l0,0l0,0l0,0l0,0l0,0.1l0,0.1l0,0.1  l0,0.1l0,0l0-0.2l0-0.1l0-0.1l0,0l0.1,0l0.1,0l0-0.1l0-0.1l0-0.1l0,0l0-0.1l0.1-0.2l0.1-0.1l0.1-0.1l-0.1-0.1l0,0l0,0l0.1,0l0,0  l0-0.1l0,0l0.2,0l0,0l0.1-0.2l0,0l0,0l0.1,0l0,0l0-0.1l0,0l0.1,0l0.1,0v0l0,0l0,0l0,0l0,0l-0.1,0.1l0,0l0.1,0l0.3-0.2l0-0.1l0,0l0,0  l0,0l0.1-0.1l0.1-0.1l0.1,0l0.1,0l0,0l0,0l0-0.1l0-0.1l0-0.1l0,0l-0.1,0v0l0,0l0,0l0,0l0,0l-0.1,0l0-0.1l0-0.1l0,0l0,0l-0.1,0  l-0.1,0l0-0.1l0.1,0l0.3,0.3l0-0.1l-0.1-0.1l-0.1-0.1l-0.1,0l-0.2-0.1l0-0.1l0,0l0.1,0v0l0-0.1l0-0.1l0,0l0,0l0.1-0.1l0.1,0l0.1,0  l0.1,0l0,0l0,0.1l0,0l0.1,0l0.3,0l0,0l0.1,0l0,0l0.1,0l0.1,0l0.1,0l0.1,0l0.2,0l0.1,0l0-0.1l0-0.1l-0.1-0.1l-0.1,0l-0.1,0l0.1,0  l0.1,0l0.1,0l0-0.1l-0.2-0.1l0,0l0-0.1l0,0l-0.1-0.1l-0.1,0l-0.2,0l0,0.1l0.1,0.1l0.1,0.1h-0.2l0,0.1l0.1,0.2l0,0.1l0,0l-0.1,0l0,0  l0,0l0,0l-0.2-0.1l-0.2,0l-0.2,0.1l-0.1,0.3h0l0-0.1l0,0l-0.1,0l-0.5,0l-0.1-0.1l-0.1,0l-0.2,0.2l0,0.1l0,0l0,0.1l0,0l0,0l0,0.1l0,0  l0,0.1l0,0.1l0,0l0,0l0-0.2l-0.1-0.1l-0.3,0v0l0.1,0l0,0.1l-0.1,0l-0.1,0l-0.1,0l0.1,0l0,0l0,0l-0.1,0l0,0l0,0l0-0.1l-0.2-0.1  l-0.1,0l-0.1,0.1l0.1,0l0,0.1l0,0.2l0,0l0-0.1l0-0.2l0,0l0,0l-0.1-0.1l-0.1-0.2l-0.1-0.1l-0.3-0.1l0,0.3l0,0.1l0.1,0.1v0l-0.6,0v0  l0.1,0l0.1,0l0,0l0,0l-0.1-0.2l0.2-0.1l0-0.1l0-0.1l-0.1,0l-0.2,0l-0.3-0.1l-0.2,0l-0.2,0.1l0,0l0-0.1l0,0l-0.2-0.2l0,0l0-0.1l0-0.1  l0,0l0-0.1l0,0l0,0l-0.1-0.1l-0.1-0.1l-0.1,0l0,0.1h-0.3l0,0l-0.1,0l0,0l0,0l0,0l0,0l0.1,0l0.4,0.3l0,0l0.1,0l0,0l0,0l0,0l0,0l0,0  h-0.2l0,0l-0.1-0.2l-0.2-0.2l-0.1-0.1l-0.1-0.1l-0.1,0l-0.1,0.1l-0.1,0l-0.1,0l-0.1-0.1l-0.1,0l0,0l0,0.1l0,0l0,0l-0.1,0l0,0l-1,0.1  l-0.1,0l-0.1-0.1l-0.1-0.1l-0.1-0.2l0.3,0.1h0.4v-0.1h-0.1v0l0.1-0.1l0.1,0l0,0.1l0,0.1l0.1,0.1l0.1,0l0.1,0l0-0.1l0,0l0,0l0,0  l0.1-0.1l0,0l0,0l0.2,0.1l0.1,0l0.1-0.1l-0.2-0.1l0.1,0l0.1,0l0.1,0l0-0.1l0-0.1l-0.1-0.1l0-0.1l0.1,0l0,0l0,0l0,0l0.1,0.1l0.1,0.1  l0,0l0,0.1l0,0.1l0.1,0.1l0.1,0l0.1,0l0.1,0l0,0l0,0l0-0.1l0,0l0,0l0,0l0-0.1l0-0.1l0,0l0.2,0l0,0l0,0l0,0l0,0l0,0l0,0l0,0l0,0  l0.1,0.2l0,0l0.4,0l0-0.1l-0.1-0.1l0-0.1l0.1,0l0,0l0.1-0.1l0,0l0,0.1l0,0.1l0,0.1l0,0l0,0l0,0l0.1,0.1l0.1,0l0.2,0l0,0.1l0,0.1  l0.4,0.3l0.1,0l0-0.1l0-0.1l0,0l0,0l0.1,0.2l0,0l0-0.1l0-0.1l-0.1-0.2l0-0.1l0-0.1l-0.1-0.1l0-0.1l-0.1-0.1l0-0.1l0,0l0,0l0,0l0-0.1  l0-0.1l0,0.1l0,0.1l0,0.1l0.1,0l0,0l0.1,0.2l0.2,0.2l0,0l0,0l0.1-0.1l0,0l0.1,0l0,0.1l0,0.1l-0.1,0.1l0,0l0,0l0,0l0,0l0,0l0,0l0,0  l0-0.1l0,0l0.1,0l0.2,0l0.1,0l0,0.1l0.1,0.2l0.1,0.1l0.1,0l0-0.1l0-0.1l0-0.1l0.1-0.3l0-0.1l-0.1-0.2l0-0.1l0,0l0,0l-0.1,0l-0.3-0.2  l-0.1-0.1l0-0.1l0-0.1l0.2-0.1l0,0l0,0l0,0l0-0.1l-0.1-0.1l-0.2,0l0,0l0,0l0,0.1l-0.1,0l0,0l0,0.1l0,0.2l0,0.1l0,0.1l0,0.1l0,0.2  l0,0.2l0,0.1l-0.1-0.1l-0.1-0.3l-0.1-0.1l0-0.1l0,0l-0.1,0l0-0.1l0-0.1l0-0.1l0.1-0.1l0-0.1l0,0l-0.3,0l-0.1,0l-0.1-0.1h0.5l0.1,0  l0.1-0.1l0.1-0.1l0-0.2l0,0.1l0,0l0.1,0.1l0,0.1l0.1,0.1l0.1,0.1l0.1,0.1l-0.1,0l0,0.1l0,0.1l0,0.1l0,0.1l0,0.1l-0.1,0l-0.1,0  l0.1,0.1l0.1,0.1l0.1,0l0.1,0l0.1,0.1l0,0l0-0.1l0-0.1l0-0.1l0-0.1l0.1-0.1l0,0.1l0,0.1l0,0.1l0,0.1l0,0.2l0,0.1l0.1,0.1l0,0l0.1,0  l0,0l0,0l0,0l0,0v0l0,0l0,0l0,0l0,0.1l0,0l0,0.1l0,0.1l-0.1,0l-0.1,0.1l-0.1,0.1l0,0.2l-0.1,0.3l0.1,0.2l0.2,0.2l0.2,0.1l0.1,0  l0.2-0.1l0.4,0.1l0.1,0l-0.5-0.4l0,0l0.1,0.1l0,0l0,0l0.1-0.1l0,0l0-0.1v-0.1l0,0l0,0l0-0.1l0,0l0,0l0,0.1l0,0l0,0l0.1-0.1l0,0l0,0  l0,0.1l0,0.1l0,0l0,0l0,0l0,0l0.1,0.1l0.2,0.1l0.2,0l0.1-0.1l-0.1,0l-0.1,0l-0.1-0.1l0-0.1l-0.1-0.1l-0.1,0l0,0l0.1,0l0,0l-0.1-0.1  v0l0.3,0l0.1,0l0.1-0.1l0.1-0.2l0.1-0.1l0.2-0.1l0.2-0.2l0.1-0.1l0.1-0.1l0,0l0,0l0-0.1l-0.1-0.1l0,0l0,0l0,0l0,0l0,0l0-0.1l0-0.1  l0-0.1h-0.2l0,0l0,0l0,0l0-0.1l0,0l0.1,0l0-0.1l0.1-0.1l0.2-0.1l0.1-0.1l0.1-0.1l0-0.1l0,0l0,0.1l0,0.1l0.1,0l0.1,0l0.2-0.1l0.1-0.1  l0.1-0.1l0-0.1l-0.1-0.1l-0.8,0l-0.1,0.1h-0.1l0-0.1l0.1-0.1l0.1,0l0.1,0l0.1,0l0.1-0.1l0.2-0.3l0-0.1l0-0.1l-0.1-0.2l0-0.1l0.1,0.1  l0.1,0.1l0.2,0.4l0,0l0.1,0l0-0.1l0-0.3l0-0.1l-0.1,0l-0.1,0l0,0l0,0.1l0,0l0,0l0,0l-0.1-0.1l0,0l0-0.1l0,0l0,0l-0.1,0l-0.1,0  l-0.1,0l-0.1-0.1l-0.1-0.3l-0.1-0.5l0-0.1l0-0.1l0-0.1l0,0l0,0l-0.1,0.1l0,0.2l0,0.2l0.1,0.2l0.1,0.2l0-0.1l-0.1-0.2l0-0.1l0-0.2  l0-0.1l0-0.1l-0.1,0l-0.1-0.1l-0.1,0l-0.1,0l-0.1,0l0,0.1l0,0.1l0,0.1l0,0.1h0l0-0.1l-0.1-0.3l0-0.1l0-0.2l0,0l0,0.1l0,0l0,0h-0.1  l0,0l-0.1-0.1l-0.2-0.1l-0.1-0.1l0-0.2l0.1,0.1l0,0l0.1,0l-0.1-0.2l-0.2-0.2l-0.1-0.2l0-0.2l0.2,0.3l0.1,0.1l0.5,0.2l0.1-0.1  l-0.1-0.1l-0.5-0.2l0,0l0,0l0,0l0,0v0l-0.1-0.1l0,0l0,0l0-0.1l0-0.1l0,0l-0.1,0l-0.2,0l-0.1-0.1l0,0l-0.1,0l-0.1,0l-0.1,0.1l-0.1,0  l0,0l0,0l0-0.1v-0.1l0-0.1l0.1-0.1l0.1,0l-0.3-0.1l-0.1-0.1l-0.1-0.2l0,0l0-0.1l0,0l-0.1-0.1l-0.2-0.2l-0.1-0.1l-0.1,0v0l0,0l0,0  l0-0.1l0-0.1l-0.1-0.2l-0.1-0.1l-0.1,0l-0.3,0.1l-0.2,0.1l-0.1,0.2l0,0.2v0.1l-0.2,0l-0.1-0.1l0-0.1l0-0.1l0-0.2l0-0.1l0,0l0.1-0.1  l0-0.1l0-0.1l-0.1-0.1l0-0.1l-0.1-0.1l-0.1,0l-0.4,0.1l-0.1,0l-0.1,0.1l-0.1,0l-0.1,0l-0.1,0v0l0.1-0.1l-0.2-0.2l-0.1,0l-0.1-0.1  l-0.1,0l0,0l-0.1,0l0,0l0,0l0,0l0,0l0.1,0l0.1-0.1l0.1-0.1l0.1-0.1l0,0l0-0.1l0,0l-0.1,0l-0.1,0l0-0.1l0-0.1l0-0.1l0-0.1l0,0l0,0  l0,0l0-0.1l0,0l0,0l0,0l0,0l-0.1-0.4l0,0l0,0l-0.1,0l0,0l0-0.1l0,0l0-0.1l0,0l-0.1,0l-0.1-0.1l0,0l0-0.1l0-0.2l0.1-0.1l0.2-0.1  l0-0.1l-0.1,0l-0.2,0l0,0l0.1-0.1l0,0l0,0l0,0l0-0.1l0-0.1l0-0.1l0,0l0,0l0,0l0,0l0,0l0,0l-0.1,0l0,0l0.1,0l0-0.1l0-0.1l-0.1-0.1  l0.1-0.1l0-0.1l0-0.2l-0.1-0.1l0.1-0.1l0.1,0l0.1-0.1l0-0.2l-0.1-0.1l-0.1-0.1l-0.1-0.1l-0.1,0v0l0.1,0l0.1,0l0.2,0.2l0.1,0l0.1,0  l-0.1,0l-0.1,0l-0.1-0.1l0-0.1l0.2,0.1l0.1,0l0.1,0l-0.2-0.2l0-0.1l-0.1-0.1l-0.1-0.1l-0.1-0.2l0,0l0-0.1l0.1-0.1l0-0.1l0,0l0,0.1  l0,0.1l0,0l0,0l0,0l0,0l0,0l0-0.1l0,0l0,0l0,0l0,0l0,0h0l0,0l0,0l0-0.1l0-0.1l0-0.1l0,0l0,0l0-0.1l0,0l-0.1-0.1v0h0.1v-0.1l0,0  l-0.1,0l-0.1-0.1l-0.1,0l0,0l0,0l0.3,0v0l-0.3-0.1l-0.1-0.1l0.2,0l0.1-0.1l0-0.1l-0.1,0l-0.1,0v0l0.2,0l0.1,0l0.1,0.1l0.1,0l0.1,0  l-0.1-0.1l-0.4-0.1l0.1-0.1l0.2,0.1l0.1,0l-0.1,0l0,0v0l0.1,0l0.1,0l0.1-0.1l0-0.1l-0.2-0.1l-0.1,0l-0.1,0l0-0.1l0.3,0l0.1,0  l0.1,0.1l0,0.1l0,0.1l0.1,0l0-0.1l0-0.1l0-0.1l0.1,0.1l0.1,0.1l0.1,0.3l0,0.1l0,0l0.1,0l0.1,0l0,0l0-0.1l0-0.1l0-0.1l0-0.1l0-0.1  l0-0.1l0-0.1l-0.1-0.1l-0.1,0l-0.1,0l-0.2,0l0,0l0-0.1l0-0.1l0-0.1l0-0.1l-0.1,0v-0.1l0,0l0,0l0,0l0-0.1l-0.2,0.1l0,0l0,0l0,0l0,0  l0,0l0-0.1l0,0l0,0l0,0l0,0v-0.1l0-0.1l0,0l0,0l0,0l0,0l0-0.1l0-0.1l0-0.1l0-0.1l0-0.1l0-0.1l0,0l0.1,0l0-0.1l0-0.1l0-0.1l0,0l0.2,0  l0,0l0-0.1l0-0.1l0,0l0.1-0.2l0-0.1l-0.1,0l0.1-0.1l0-0.1l0-0.1l0-0.1l0-0.1l0.1-0.1l0-0.1l0-0.1l0-0.1l0-0.1l0-0.1l0-0.1l0.1-0.1  l0.1,0l0.1,0l-0.1,0.2l0,0l0.1,0l0.3-0.2l-0.1-0.1l-0.1-0.1l-0.1,0l-0.1,0l-0.3-0.2l0,0l0,0l0,0v0l0,0l0-0.1l0-0.1l0-0.1l-0.1-0.1  l0,0l-0.1,0l0,0l0-0.1l0-0.1l0-0.1l0-0.1l0-0.1l0-0.1l0,0l0,0l0,0l0,0l0,0l0,0l0-0.1l0-0.1l0,0l-0.1-0.3l0-0.1l0-0.1l0.1,0l0.1,0  l0.1,0l0-0.2l0.1,0l0,0l0.1,0.2l0.1,0.3l0,0l0.1,0.1l0,0l0,0l0.4,0l0-0.1l-0.1,0l-0.1,0l0-0.1l0-0.1l0.1-0.1l0.1-0.1h0.2l0,0  l0.1,0.1l0,0l0.1,0l0.1-0.1l0.1-0.2l0-0.1l0.1,0l0,0l0-0.1l0-0.1l0-0.1l0-0.2l0-0.1l0,0l0,0l0,0l0,0l0,0.2l0,0.1l0,0l0.2-0.2l0.1,0  l0,0l0,0l0-0.1l0-0.1l-0.5-0.2l-0.1-0.1h0.2l0,0l0.1,0.1l0,0l0,0l0,0l0,0l0-0.1l0,0l0-0.1l0-0.1l0-0.1l-0.1-0.2l0-0.1l0-0.1l0,0  l0-0.1l0,0l-0.1-0.1v-0.1l0.1-0.1l0-0.2l-0.1-0.2l-0.1-0.1l-0.1-0.2l-0.4-0.4l0.1,0l0.1,0l0.1,0.1l0.1,0l0.1,0l0.1-0.1l0.1,0l0,0.1  l0,0l0,0l0,0l0,0l0,0.1l0.1,0.3l0,0.1l0.1,0l0.1,0l0,0l0,0.1l0,0l0,0.1l0,0l0,0l0,0.1l0,0l0,0.3l0,0.1l0,0l0.1,0l0.1,0l0,0l0-0.1  l0.1-0.1l0.1-0.1l0.1,0l0,0l0,0l0,0l0,0l0,0.1l0.1,0l0.1,0.1l-0.1,0.1l-0.3,0l-0.1,0.1l0.1,0l0.1,0l0.1,0.1l0,0l0,0.1l0.1,0l0.1,0  l0.1-0.1l0-0.1l0-0.1l0-0.1l0,0l0,0l0,0l0,0.1l0,0l0,0l0,0l0-0.1l0,0l0.1,0l0.1-0.1l0.1-0.2l-0.1,0l-0.1,0.1l-0.1,0l0-0.1l0-0.1  l0-0.1l0,0v0h0.2l0-0.1l0,0l0.1,0l0.1,0.1l0.1,0.1l0,0l0,0l0,0l0,0l0.1,0l0.1,0l0,0l0.1,0l0,0l0,0l0,0l0.1,0l0,0l0,0l0-0.1l0-0.1  l-0.2-0.1l-0.1-0.1l0.2,0.1l0.1,0l0-0.2l0-0.1l-0.1,0l-0.1,0l-0.1,0l-0.2-0.1l0-0.1l0,0l0.2,0.1l0.1,0l0.1,0l0-0.1h0l0,0.1l0,0l0,0  l0-0.1l-0.1-0.1l-0.1,0l-0.9,0l-0.1-0.1l0.2-0.1l0.1-0.1l0-0.1l0,0l0,0l0,0l0,0l0,0l0,0l0,0.1l0,0l0.2,0l0-0.1l-0.1-0.1l-0.1-0.1  l0.1,0l0.1,0l0.1,0l0,0l0.1,0.2l0,0l0,0l0-0.2l0,0l0,0l0.1-0.1h-0.1l0.1-0.1l0-0.1l0-0.1l0-0.1l0.1-0.1l0.1,0l0.1,0.1l0.1,0l0.1,0  l0-0.1l0-0.1l0-0.1l0-0.1l-0.1-0.1l-0.1,0l-0.1,0v-0.1l0.2,0l0.5,0.2l0-0.1l-0.1-0.2l0-0.1l0-0.1l0-0.1l0,0l0.1,0l0.3,0.1v0.1  l-0.2,0l-0.1,0l0,0.1l0,0.1l0,0.1l0,0l0.1-0.1l0,0l0-0.1l0.2,0l0.1,0l0.1-0.1l-0.5-0.2l-0.1-0.1l0.1,0l0.1,0l0.1,0l0.2,0.1l0,0  l0-0.1l0,0l0.1,0l0.1,0.1l0,0l0.1,0l0,0.1l0,0.1l0,0.1l0.1,0.1l0,0l0,0l0.1,0.1l0,0l0.1,0l0,0l0-0.1l0-0.1l0,0l0,0l0,0l0-0.1l-0.1,0  l-0.1,0l-0.1-0.1l0.1-0.2l0.1,0.2l0.1,0l0.1-0.1h-0.1l0-0.1l0.1-0.2l0,0l0-0.1l0,0l0.1-0.1l0.2-0.1l0.1-0.1l0,0.1l0,0l0-0.1l0-0.1  v-0.2l0-0.1l0-0.1l0-0.1l0-0.3l0-0.1l0-0.1l0.1,0l0.1,0.1l0.1,0.1l0.1,0l-0.1-0.2l0-0.1l0.1,0l0.3,0.4l0.1,0.1l0.1,0l0,0l0-0.1  l0-0.1l-0.1-0.2l0-0.1l0,0l0.1,0l0,0l0.1-0.1l-0.1-0.1l-0.1,0l0-0.1l0-0.2l-0.1,0l0,0l0,0l0.1-0.1l0.1,0l0.1,0.1l0.1,0.1l0,0.1  l0.2,0.1l0.1,0.1l0,0l0,0l0,0.1l0,0l0.1,0.1l0,0.1l0,0.1l0,0.1l0.2,0.1l0,0l0.1-0.1l0-0.1l0,0l0.1,0l0,0l0-0.2l-0.1-0.2l0-0.1  l0.1-0.1l0.1-0.1l0.1-0.1l0.1-0.2l0,0l0.1-0.1l0-0.1l0,0l0.3,0.1l-0.1-0.2l0-0.1l0-0.1l0-0.1l0.1,0l0.1,0l0.1,0l0,0l0,0l0,0.1l0,0  l0,0l0,0l0,0l0.2,0l0.1,0l0-0.2l0-0.2l0.1-0.2l0.1-0.1l0,0.1l0,0.1l0,0.1l0,0.1l0,0.1l0,0.1l0.1,0.1l0,0l0-0.2l0-0.5l0-0.1l0,0  l0,0.1l0,0.1l0,0.1l0,0.1l0,0.1l0,0.1l0.1,0l0,0l0-0.1l0-0.1l0-0.1l0,0l0-0.2l0-0.1l0,0l0,0l0-0.1l0.1,0l0.1-0.1l0.2-0.4l0,0  l0.1,0.1l0,0.1l0,0.1l0,0.1l0,0l0,0l0-0.1l0-0.1l0.2-0.2l0.1,0l0,0l0.1,0.2l0,0l0-0.1l0.1-0.2l-0.1,0l-0.1,0l0,0l0-0.1l0,0l0.1,0  l0.2-0.2l0-0.1l0.1-0.2l0.1-0.3l0.1-0.1l0.1,0l0,0l0,0l0,0l0,0l0,0l0-0.1l0-0.2l0,0l0,0l0,0l0,0l0,0l0,0l0,0l0,0l0-0.1l0,0l0,0  l0.1-0.3l0-0.1l0-0.1l0.1-0.1l0.3-0.3l0.1-0.2l0,0l0,0l0.1,0l0,0l0.4-0.7l0,0l0,0l0,0l0.1,0l0.1-0.1l0.1,0l0,0l0,0l0,0l0,0l0-0.1  l0-0.1l0-0.1l0-0.1l0.1,0.1l0.1,0.1l0.1,0.1l0.1-0.1l0.1-0.1l0.1-0.1l0.2-0.3l0-0.1l0.1-0.1l0-0.1l0,0h0l0,0l0-0.1l0-0.1l0-0.1l0,0  h0l0,0.1l-0.1,0l-0.1,0l0,0l0,0.1l0,0l-0.1,0l0,0l0-0.1l0-0.1l0-0.1l0-0.1l0,0l0,0l-0.1,0l0,0l0,0l0,0l-0.1-0.1l0,0l0,0l0,0l0,0l0,0  l0,0l0,0.1l0,0.1l0.1-0.1l0.2-0.1l0,0l0.1,0.2l0,0l0,0l0,0l0-0.1l-0.1,0l-0.1,0l0-0.1l0-0.1v-0.2l0,0l0,0l0,0l0,0.2l-0.1-0.1  l-0.1-0.1l-0.1-0.1l-0.1,0l0,0l0,0.1l0,0.1l0,0l0,0l0,0l0,0l0,0l0-0.1l0,0l0,0l0-0.1l0,0l0,0l0,0l-0.1,0l-0.1,0l0-0.1l0-0.1l0.1,0  l-0.1-0.1l-0.1,0l-0.1,0l-0.1,0l-0.1-0.1l0-0.1l0-0.1l0-0.1l0.1,0l0.1,0.1l0.1,0.1l0.1,0.1l0.1,0l0.2,0.2l0.1,0v0l0-0.1l0-0.1l0,0  l0.1,0V372l-0.2-0.1l-0.1-0.1l-0.1-0.1l0.1,0l0.2,0l0,0l0-0.1l-0.1-0.1l-0.2-0.1l-0.2,0.1l-0.1,0l-0.1,0l-0.1-0.1l0,0l0-0.1l-0.1,0  l0,0l0-0.1l0-0.1l0-0.1l0.1,0l0.1,0l0,0.1l0,0.1l0,0.1l0.1,0l0.1,0l0.1,0l0.1,0l0-0.1l0.1-0.1l0.1-0.1l0-0.2l0,0l0,0l0-0.1l0-0.1  l0-0.1l0-0.1l0,0l0-0.1l0,0l0.4,0l0.1-0.1l0-0.1l0-0.1l0-0.1l0.1-0.1l0,0l0,0l0,0v0l0,0l0.1,0l0,0l0,0l0.1-0.1l0,0l-0.1-0.1l0-0.1  l0-0.1l0.3,0l0.1-0.1l-0.1-0.1l-0.1,0l0,0l0.1-0.2l0-0.1l0-0.1l0-0.1l0.2,0l0.1-0.1l0-0.2l-0.2-0.5l-0.2-0.2l-0.2-0.4l-0.1-0.1  l-0.4-0.1l0-0.1l0.1,0l0-0.1l0,0l0,0l0,0l0.1,0l0.1,0.1l0.1,0.2l0.1,0.1l0.1,0l0.1,0l0.1,0.1l0,0.1l0,0.1l0.1,0.2l0,0.1l0.1,0.1  l0.2,0l0.2-0.1l0.1-0.1l0-0.1l0-0.1l-0.1-0.1l-0.1-0.1l-0.1-0.1l-0.1,0l0,0.1l-0.1,0l-0.1,0l-0.1-0.1l-0.1-0.1l-0.1-0.1l-0.1-0.1  l-0.1,0l0.1-0.1l0,0l0,0l0,0l0.1-0.1l0.1,0l0.2,0v0l0,0l-0.1-0.1v0l0.1-0.1l0.1,0l0.1,0.1l0.1,0l0.2,0l0-0.1l0.1,0l0.3,0.1l0.1,0  l0.1-0.1l0.1-0.1l0,0.1l0.1,0l0.1,0l0-0.1l0-0.1l0-0.1l0-0.1l0-0.1l0.1,0.2l0.1,0.1l0.1,0l0,0l0-0.1l0-0.1l0-0.1l-0.1-0.1l-0.2-0.3  l-0.1,0l0,0l0.1,0.1l-0.1,0l-0.1-0.1l-0.2-0.3l0.1,0l0.5,0.2l0.1-0.1l0,0l0,0l0,0l0,0l0-0.1l0,0l0,0l0,0l0.1,0l0.2,0l0.1-0.1l-0.1,0  l0,0l-0.1-0.1l-0.1-0.1l0,0l-0.2-0.1l-0.3-0.3l-0.4-0.2l-0.2-0.2l-0.1-0.3l0,0.1l0.1,0.1l0,0.1l0.1,0.2l0,0l0.1,0l0.2,0.1l0.1,0.1  l0.1,0l0.1,0.1l0.1,0.1l0.3,0.1l0.3,0.3l0.1,0l0-0.1l0-0.1l0,0l0.1,0.1l0.1,0l0.1,0l0.1,0.1l0.1,0.1l0.1,0.1l0.1-0.1l0-0.2l0-0.1  l0,0l-0.1,0l-0.1-0.1l0-0.1l0-0.1l0.1-0.1l0-0.1l-0.2-0.1l0-0.1l0-0.1l-0.1-0.1l-0.1,0l0,0.1l0,0.1l0.1,0.1l0,0.1l-0.1,0.2l-0.1,0  l-0.2-0.1l0.2,0l0.1,0l0-0.2l0-0.1l0,0l0-0.1l0-0.1l0-0.1l0,0l0.1-0.1l0.1,0l0.1,0.1l0,0.2l0,0l0,0l0,0l0,0l0-0.2l-0.1-0.1l-0.1-0.1  l-0.2-0.1l-0.1,0l-0.1-0.1l-0.1-0.1l0.1,0l0.1,0.1l0.1,0.1l0.1-0.2l0-0.1l-0.1-0.2l0-0.1l0.1,0l0,0l0-0.1l-0.1-0.2l0.1-0.1l0-0.2  l0.1,0l0.2,0.1l0,0.1l0,0l0.1,0.1l0,0.1l0,0.1l0,0l0,0.1l0,0.1l0,0.1l0,0l0.1-0.1l0,0l0.2,0l0.1,0.1l0,0.2l0.1,0l0-0.1l0-0.1l0-0.1  l0-0.1l0-0.1l0-0.1l0-0.1l0-0.2l0-0.1l0-0.1l-0.1-0.1l0-0.1l0.1,0l0.1,0l0.4,0.3l0.1,0.1l0.1,0.3l0.1,0.1l0.1,0l0.1,0l0,0l0.1,0.1  l0,0l0.2,0.1l0.2,0l0,0l0.1,0.2l0,0.2l0.1,0l0.1-0.1l0-0.2l0.1-0.1l0,0l0.2-0.1l0.1,0l-0.1-0.1l-0.1-0.1l0-0.1l0-0.1l0-0.1l0.1,0  l0.1,0l0.1,0.2l0.1,0.1l0.1,0l0-0.1l0-0.1l0-0.1l0.1,0l0,0.1l0,0.1l0,0.1l0.1,0.1l0.1,0l0,0l0,0l0-0.1l0-0.1l0-0.1l0,0l0,0l0-0.1  l0,0l0,0l0,0l0-0.1l0,0l0,0l0,0l0,0l0,0.1l0.1,0l0.3,0l0,0l0,0l0,0l0,0l0-0.1l0.1-0.2l0.1,0l0.2,0l0.1,0.1l0,0.1l0,0.1l0.1,0l0.2,0  l0,0l0,0l0,0.1l0,0.1l0,0l0,0l0.1,0l0,0l0,0l0,0l0,0L-389.6,363.2L-389.6,363.2L-389.6,363.2z"/></svg>