<svg xmlns="http://www.w3.org/2000/svg" xmlns:xlink="http://www.w3.org/1999/xlink" version="1.1" x="0px" y="0px" viewBox="-345 257 100 100" fill="#e0e0e0" style="enable-background:new -345 257 100 100;" xml:space="preserve"><polygon points="-245.2,313.3 -245.6,312.9 -246.6,312.8 -247,312.4 -247.2,311.8 -247.1,311.5 -246.8,311.2 -246.6,310.8   -246.6,310.4 -246.6,310 -246.5,309.7 -246.1,309.5 -245.8,309.1 -245.9,308.6 -246.1,308.2 -246.1,307.7 -245.6,307.1   -245.5,306.9 -245.4,306.6 -245.3,305.6 -245.3,304.9 -245.1,303.8 -245.2,303.2 -245.4,303 -246.1,302.4 -246.6,301.7   -246.8,301.4 -246.8,301.4 -246.9,301.3 -247.1,301.3 -247.2,301.3 -247.8,301.7 -248.4,302.3 -248.8,303.1 -248.8,303.7   -249.3,303.7 -249.8,303.6 -250.1,303.7 -250.5,304.2 -250.6,304.6 -250.6,304.9 -250.7,305.2 -250.9,305.5 -251.8,306   -252.4,306.1 -252.9,306.1 -253.8,305.8 -254.3,305.5 -255.2,304.7 -257.6,304 -258.1,303.5 -258.4,303.1 -258.4,302.8   -258.4,302.5 -258.3,301.7 -258.2,301.4 -258.2,301.2 -258.3,301.1 -258.4,301.1 -258.5,301 -258.5,300.7 -262.7,299.4 -263,299.3   -264.2,299.4 -264.6,299.3 -265.1,299.5 -266.4,299.3 -266.9,299.1 -267,298.8 -266.7,298.5 -266.4,298.1 -266.2,297.7 -266.2,297   -266.3,296.5 -266.6,296 -266.8,295.5 -266.7,294.4 -266.3,293.3 -266,292.6 -265.2,291.4 -264.5,290.5 -264.4,290.3 -264.3,289.7   -264.2,289.4 -263.3,288.4 -263.1,287.9 -263.1,286.5 -263.7,285.9 -264.5,285.5 -265.2,284.6 -265.4,283.8 -265.4,283.8   -271.5,280 -272.3,279.8 -273.1,279.8 -273.4,279.3 -274.7,279.3 -277.1,279 -277.6,279.2 -277.9,279.6 -278.7,279.9 -279.6,279.9   -280.1,279.8 -280.8,279.3 -281.1,279 -281.1,278.8 -280.7,278.7 -281.3,278.1 -282,277.7 -282.6,277.7 -282.8,278.3 -282.6,278.5   -283.8,278.5 -283.8,278.3 -283.9,278.1 -284.1,277.9 -284.1,277.6 -284.1,277.4 -283.8,276.9 -283.7,276.8 -283.9,276.5   -284.1,276.4 -284.3,276.5 -284.6,276.4 -284.7,276.2 -284.9,275.8 -285.1,275.5 -285.4,275.4 -285.6,275.6 -285.7,276.3   -286,276.5 -286.2,276.3 -286.3,275.9 -286.3,275.5 -286.3,275.2 -286.7,275.1 -287.3,275 -287.6,275.2 -287.4,275.7 -287.8,275.9   -289,276.2 -289.2,276.1 -289.4,276.3 -289.7,276.7 -289.8,276.9 -290,277.6 -290.2,277.8 -290.8,278.1 -291,278.4 -291,278.6   -290.9,278.9 -290.9,279.1 -291,279.5 -290.6,279.6 -290.5,279.6 -290,280.1 -289.5,280.3 -289.1,280.3 -288.8,280.1 -288.5,279.9   -288.2,279.8 -287.1,279.6 -286.8,279.6 -286.4,279.8 -286.2,279.8 -286.3,280.6 -286.5,280.5 -286.5,280.3 -286.5,280.2   -286.6,280.2 -286.7,280.3 -286.8,280.4 -286.9,280.5 -286.8,280.7 -286.8,280.8 -286.8,280.9 -286.8,281.1 -286.8,281.4   -286.8,281.6 -286.9,281.9 -287.2,282 -287.5,281.7 -287.8,281.2 -288.1,280.9 -288.8,281 -289.4,281.4 -289.7,282 -289.7,282.1   -290.4,282.3 -291.8,282.3 -292.7,282 -292.9,281.9 -293,281.6 -293.2,281.3 -293.3,281.1 -293.5,281.1 -294.1,280.9 -294.5,280.9   -295.7,281.1 -295.8,281.2 -295.9,281.4 -296.1,281.5 -296.5,281.6 -297,281.9 -297.1,282 -297.3,282.2 -297.4,282.4 -297.5,282.6   -297.7,282.7 -298.7,282.9 -301.6,282.9 -301.7,282.8 -301.7,282.5 -301.8,282.2 -301.9,282 -303.4,281.9 -303.7,281.8   -304.1,282.4 -304.4,282.8 -304.8,283.1 -306.7,283.5 -307.2,283.4 -308.3,282.8 -307.7,282.8 -307.5,282.6 -307.2,281.7   -307.7,281.8 -308.8,282.1 -308.9,282.2 -309.6,282.4 -310.2,282.7 -311.1,283.5 -311.1,283.5 -310.7,283.8 -310.6,283.8   -310.6,284.2 -310.7,284.3 -310.9,284.4 -311.1,284.4 -311.3,284.4 -311.3,284.5 -311.2,284.7 -311.1,284.9 -311.1,285 -311.1,285   -311.1,285.1 -311.1,285.2 -311.5,285.5 -311.8,285.5 -312.1,285.3 -312.4,285.2 -312.7,285.2 -312.6,285.4 -312.5,285.6   -312.5,285.7 -312.4,285.9 -312.3,286 -312.4,286.4 -312.8,286.9 -313.4,287.2 -315,287.1 -315.6,287.2 -316.4,287.6 -316.6,287.6   -316.7,287.6 -316.8,287.4 -316.9,287.3 -317,287.2 -317.6,287 -318.1,286.8 -318.2,286.2 -317.8,285.3 -318.4,285.4 -318.7,285.3   -319,285.1 -319.5,285 -320.6,285.2 -321.2,285.1 -321.4,285 -321.6,284.9 -321.8,285 -322,285.1 -322.4,285.3 -322.4,285.6   -322.1,286.1 -322,286.5 -322.2,286.7 -322.5,287 -322.9,287.2 -323.5,287.4 -323.5,288 -324.1,288.3 -324.4,288.7 -324.7,289.3   -324.8,289.7 -322.2,289.4 -321.7,289.2 -321.4,289.5 -321.1,289.8 -320.8,290.1 -321,290.5 -321.2,290.6 -321.5,290.7   -321.7,290.8 -322,291.2 -322.1,291.3 -322.3,291.3 -322.7,291.7 -322.9,292.4 -322.8,293.2 -324.3,294.3 -325,295 -325.4,295.7   -326.8,297 -327.5,297.3 -327.5,297.8 -327.8,298 -327.9,298 -327.9,298.2 -328.5,298.4 -328.7,298.6 -329,299.2 -328.7,299.8   -329.2,300.5 -330.7,301.6 -333.1,302.4 -334.2,303 -334.5,304.1 -334.4,304.4 -334.1,305 -334.1,305.3 -334.1,305.8 -334.2,306.1   -334.4,306.4 -334.7,307.4 -334.8,307.6 -334.7,307.8 -334.6,307.9 -334.4,308.1 -334.4,308.6 -334.5,308.9 -334.7,309.2   -335,309.4 -335.7,309.8 -336.3,310.4 -336.5,310.6 -338.1,311.5 -341.1,314.2 -341.4,314.6 -341.3,315 -340.8,315.6 -341.6,316.6   -342.3,318 -342.6,318.2 -342.7,318.4 -342.7,318.6 -342.6,318.7 -342.6,318.9 -342.5,319 -342.5,319.2 -342.5,319.4 -342.5,319.6   -342.8,319.9 -341.6,320.6 -341.3,321 -341,321.5 -341,321.8 -341.7,323.4 -341.8,323.7 -341.9,324.6 -341.9,324.9 -341.9,325.2   -342,325.4 -342.5,325.6 -342.6,325.6 -342.8,325.6 -342.9,325.5 -343,325.5 -343,325.5 -343,325.5 -344.4,326.2 -344.9,326.5   -345,326.9 -344.8,327.3 -344.4,327.8 -344.4,328.1 -344.6,328.4 -344.9,329.1 -344.4,328.8 -343.4,328.6 -342.4,328.5   -341.6,328.9 -340.9,328.5 -339.8,327.2 -338.3,326.2 -337.8,325.6 -337.9,324.9 -338,324.8 -338.4,325 -338.6,324.9 -338.7,324.7   -338.9,324.2 -339,324.1 -339.2,323.5 -339.3,323.2 -339.1,322.8 -338.7,322.1 -338,321.3 -337.3,320.7 -336.6,320.5 -335.9,320.4   -335.2,320.2 -333.3,319 -331.9,318.7 -330.4,318.7 -327.1,319.6 -326.8,319.7 -326.6,320.1 -326.5,320.7 -326.7,321.2   -327.2,321.9 -327.4,322.3 -326.9,323 -326.2,323.8 -325.7,324.7 -326.4,326.2 -326.8,327.4 -327,328.5 -326.8,329 -325.1,329.4   -324.7,329.7 -324.8,329.9 -324.9,330.2 -325.1,330.4 -325.2,330.6 -325.1,330.5 -325.1,330.9 -325.1,331.2 -325.1,331.2   -325.1,331.5 -325.1,331.6 -325.1,331.7 -324.9,331.8 -324.7,331.9 -324.6,331.7 -324.4,331.6 -324.2,331.5 -323.7,331.7   -322.2,333.4 -322.1,333.5 -322,333.8 -321.8,334.5 -321.6,335.1 -321.5,335.4 -321.3,335.7 -320.4,336.8 -319.8,337.1   -319.2,337.2 -318.4,337.2 -317.8,337.1 -316.4,336.5 -315.8,336.1 -315.5,336 -313.8,336.2 -313.1,336 -311.8,335 -311.1,334.7   -310.7,334.7 -310.4,334.3 -310.2,334 -309.8,333.8 -307.6,334.3 -307.2,334.5 -306.9,334.9 -306.5,335.5 -306.4,335.5   -306.2,335.6 -306,335.6 -305.8,335.5 -305.6,335.5 -304.5,335.9 -303.9,335.9 -303.5,336 -303.4,336 -303.1,335.8 -303.1,335.7   -303.1,335.6 -303,335.2 -302.5,334.3 -301.9,333.9 -300.4,333.5 -300.1,333.4 -300,333.3 -299.7,332.9 -299.7,332.9 -299.5,332.4   -299.4,332.3 -299.3,331.4 -299.3,331.1 -299.3,330.7 -299.1,330.4 -298.9,330.2 -298.4,330.2 -298.2,330.1 -297.2,329.2   -296.7,328.2 -296.8,327 -297.5,325.8 -298,325.3 -298.1,325.2 -298,324.9 -297.7,324.6 -297.3,324.2 -296.8,324 -295.9,323.7   -295.4,323.4 -294.3,322 -293.7,321.7 -293.4,321.5 -293.2,321.2 -293.1,320.9 -293.1,320.6 -293.2,320.5 -293.3,320.3   -293.1,319.9 -292.7,319.4 -292.1,319.1 -290.8,318.8 -290.2,319 -289.9,319.4 -289.8,320.1 -289.8,321.1 -289.9,322 -290.2,323.7   -290.3,324.5 -290.2,325.3 -290,325.8 -289.6,326.1 -289,326.3 -288.4,326.7 -287.7,327.3 -286.3,329.4 -286.1,329.5 -285.7,329.6   -284.7,330.2 -284.3,330.2 -284.1,330.2 -283.8,329.9 -283.6,329.8 -283.4,329.9 -283.3,330.2 -283.1,330.3 -282.8,330.3   -282.1,330.3 -281.7,330.4 -281.2,331.2 -281.5,331.9 -282.1,332.7 -282.5,333.6 -282.6,333.7 -282.6,333.8 -282.3,333.8   -281.9,334 -280.7,334.6 -280.5,334.8 -280.4,335 -280.1,335.5 -279.8,336.2 -279.6,336.6 -279.5,337 -279.4,337.5 -279.5,337.9   -279.6,338.3 -279.7,338.8 -278.8,338.5 -278.1,338.8 -277.5,339 -276.7,338.1 -276.2,337 -276.1,336.5 -276.4,336 -276.6,335.8   -277,335.7 -277.3,335.6 -277.5,335.3 -277.7,334.7 -277.9,334.5 -277.9,334.4 -278,334.3 -277.9,334.2 -277.9,334.2 -277.2,333.5   -277.6,332.4 -277.5,332 -276.9,331.6 -276.4,331.4 -276.2,331.3 -276,331 -275.9,330.6 -276,329.9 -275.9,329.5 -275.5,328.9   -273.9,327.8 -273.7,327.5 -273.6,327.1 -273.5,326.8 -273.2,326.6 -273,326.5 -272.7,326.2 -272.5,325.9 -272.2,324.8   -271.5,323.4 -271.4,322.7 -271.4,322.3 -271.7,321.2 -271.7,320.7 -271.7,320.3 -271.7,320 -272,319.8 -272.2,319.3 -272.1,318.6   -271.7,317.8 -271.3,317.4 -270.2,317.3 -269.7,317.4 -269.7,317.8 -269.1,318.3 -269,318.4 -268.7,318.3 -268.6,318.1   -268.6,317.9 -268.4,317.7 -268,317.4 -267.9,317.4 -267.8,317.6 -267.7,320.6 -267.7,321.1 -267.7,321.3 -267.5,321.5 -267,321.7   -266.8,321.9 -266.4,323 -266.1,323.4 -265.6,323.8 -265.1,323.9 -262.6,324 -262.1,323.8 -261.8,323.3 -261.8,323.1 -261.8,322.7   -261.8,322.4 -261.5,322.1 -261.3,322.1 -260.8,322.4 -260.5,322.5 -260,322.3 -258.5,321.6 -257.6,321.4 -257.1,321.4   -256.7,321.6 -256.1,321.9 -256,322.4 -256,323.1 -255.8,323.8 -255.5,324.2 -254.6,325 -254.4,325.5 -254.4,326.3 -253.7,326.3   -252.7,325.9 -252.1,325.5 -251.8,324.9 -252.1,324.3 -253,323.4 -253.2,323.1 -253.3,322.8 -253.3,322.5 -253.2,322.1 -253,321.7   -252.6,321.3 -252.4,321.1 -252.2,320.4 -252.4,320.1 -252.8,319.9 -253.8,319.7 -254.4,319.5 -254.8,319 -254.4,318.4   -254.6,318.2 -254.7,318.1 -254.7,317.8 -254.7,317.5 -254.6,317.2 -254.6,316.5 -254.6,316.2 -254.4,316 -253.9,315.5   -253.8,315.2 -253.5,314.2 -253.4,314 -253.2,313.8 -251.1,313.2 -250.5,313.2 -250.2,313.5 -250.1,313.9 -250.2,314.5   -250.1,314.9 -249.2,315.2 -249.1,315.4 -248.9,315.5 -248.8,315.7 -248.5,315.8 -248.3,315.8 -247.5,315.8 -245.9,316.2   -245.5,316.1 -245.2,315.6 -245,314.8 -245,314 "/></svg>