<svg xmlns="http://www.w3.org/2000/svg" xmlns:xlink="http://www.w3.org/1999/xlink" version="1.1" x="0px" y="0px" viewBox="0 4 100 100" fill="#999999" enable-background="new 0 4 100 92" xml:space="preserve"><polygon points="99.91,8.752 99.796,8.562 99.7,8.339 99.689,7.808 99.659,7.542 99.541,7.43 99.371,7.19 99.641,6.141   99.541,5.901 99.439,5.847 98.928,5.436 98.861,5.334 98.785,5.15 98.721,5.049 98.627,5.021 98.527,5.103 98.434,5.206   98.348,5.248 97.891,5.026 97.686,4.991 97.67,4.911 97.695,4.724 97.677,4.506 97.506,4.3 97.232,4.52 97.016,4.649 96.26,5.647   95.127,6.712 94.471,7.106 86.512,8.984 82.327,9.184 82.002,9.096 81.331,8.821 77.745,8.101 74.927,8.517 74.184,8.803   72.172,9.916 71.482,10.117 71.139,10.137 70.813,10.203 70.491,10.326 70.189,10.514 67.129,12.566 66.564,12.829 66.002,12.934   65.462,13.118 63.967,14.015 60.743,15.225 52.842,16.734 52.034,16.768 49.724,15.99 48.938,16.046 48.608,16.145 46.165,16.262   45.106,16.126 44.192,15.647 42.166,13.514 41.425,13.103 38.567,12.242 37.581,12.117 37.067,12.171 36.059,12.562 34.329,13.662   33.911,13.776 31.5,14.882 29.011,15.412 28.099,15.815 25.885,17.239 25.259,17.235 22.816,16.784 22.481,16.812 21.526,17.059   21.245,17.021 20.998,16.947 20.75,16.927 20.467,17.054 20.234,17.29 20.118,17.466 19.979,17.506 19.682,17.342 19.398,17.09   19.342,16.875 19.473,16.276 19.457,15.888 19.34,15.647 18.881,15.223 18.649,15.007 18.366,14.842 18.067,14.725 17.779,14.656   16.83,14.596 14.048,13.63 13.907,13.61 13.768,13.619 13.819,14.076 13.648,14.438 13.404,14.769 13.218,15.136 13.152,15.55   13.14,15.91 13.088,16.276 12.91,16.714 12.707,17.502 12.717,18.33 12.647,19.135 12.198,19.852 12.135,20.131 12.173,20.438   12.457,21.449 12.536,21.589 12.643,21.683 12.881,21.789 12.954,21.842 13.026,21.966 13.067,22.093 13.086,22.233 13.081,22.397   12.984,22.677 12.899,22.845 12.832,22.849 12.984,22.998 13.479,23.05 13.726,23.146 13.899,23.35 14.047,23.635 14.152,23.941   14.207,24.204 14.221,24.622 14.134,24.776 13.07,24.979 12.783,24.974 11.645,24.798 11.367,24.84 11.197,24.899 11.144,25.019   11.123,25.15 11.052,25.257 10.925,25.315 10.842,25.315 10.752,25.288 10.34,25.231 10.134,25.162 9.945,25.027 9.756,24.803   9.582,24.978 9.799,25.23 9.778,25.391 9.655,25.515 9.568,25.654 9.54,25.926 9.494,28.604 9.531,29.13 9.211,29.236 8.619,29.005   8.321,29.125 8.321,29.126 8.318,29.129 8.318,29.13 8.193,29.781 7.954,29.839 7.592,29.736 7.109,29.911 6.777,30.448   6.687,31.752 6.52,32.297 6.231,32.349 5.357,31.713 4.913,31.506 4.441,31.491 4.209,31.436 4.034,31.285 4.001,31.064   4.046,30.823 4.041,30.585 3.853,30.371 3.561,30.417 3.257,30.527 2.959,30.588 2.825,30.541 2.434,31.13 2.369,31.485   2.216,31.762 1.856,31.846 1.129,31.801 1.328,32.064 1.532,32.468 1.692,32.903 1.755,33.256 1.758,33.688 1.729,33.785   1.15,34.902 0.799,35.019 0.718,35.153 0.749,35.382 0.884,35.633 0.915,35.841 0.826,36.169 0.601,36.434 0.303,36.623 0,36.73   0,36.846 0.204,36.73 0.297,36.73 0.262,36.835 0.23,37.017 0.204,37.107 0.731,37.391 0.82,37.485 0.81,37.706 0.731,37.957   0.709,38.164 0.869,38.25 0.952,38.201 1.184,38.114 1.429,38.077 1.54,38.181 1.604,38.361 1.755,38.474 2.063,38.625   2.788,39.605 2.938,39.755 2.904,40.018 3.017,41.207 3.089,41.52 2.883,42.135 3.454,43.291 3.592,43.783 3.275,44.101   2.565,45.188 2.475,45.408 2.475,46.28 2.527,46.49 2.614,46.734 2.66,47.002 2.584,47.28 2.464,47.4 2.377,47.533 2.258,47.79   2.303,47.921 2.337,47.948 2.333,47.959 2.258,48.04 2.258,48.163 2.347,48.28 2.374,48.407 2.347,48.534 2.258,48.65 2.249,48.738   2.155,48.787 2.639,50.09 2.723,50.473 2.78,50.654 3.046,51.107 3.089,51.221 3.089,51.966 3.123,52.127 3.27,52.396 3.365,52.881   3.641,53.445 3.704,53.785 3.889,53.773 4.021,53.811 4.131,53.861 4.395,54.075 4.72,54.17 5.063,54.18 5.461,54.123 6.492,54.197   6.558,54.177 6.738,54.068 6.83,54.046 6.905,54.078 7.083,54.211 7.175,54.243 8.082,54.191 8.23,54.124 8.368,53.977   8.425,53.809 8.432,53.452 8.481,53.313 8.794,53.095 9.017,53.241 9.371,53.885 9.675,54.156 10.03,54.277 10.402,54.271   10.767,54.152 10.707,54.727 10.6,54.813 10.439,54.682 10.217,54.617 9.996,54.755 9.965,54.973 9.983,55.241 9.915,55.525   9.62,55.758 9.21,55.979 8.958,56.247 9.15,56.609 9.19,56.623 9.232,56.625 9.275,56.623 9.314,56.609 9.606,56.521 10.047,56.501   10.459,56.534 10.665,56.605 10.665,56.609 10.761,56.913 10.91,57.146 11.111,57.316 11.367,57.427 11.584,57.695 11.693,57.77   11.805,57.73 12.043,57.9 12.125,58.063 12.112,58.262 12.06,58.561 12.02,58.686 11.966,58.771 11.917,58.864 11.904,59.014   11.945,59.158 12.02,59.299 12.345,59.755 12.504,59.93 12.612,59.977 12.722,59.967 12.819,59.991 12.897,60.132 12.866,60.368   12.722,60.566 12.607,60.801 12.68,61.141 12.776,61.402 13.141,61.762 13.23,61.956 12.805,62.424 12.457,63.007 11.785,63.582   11.492,63.953 11.405,64.209 11.375,64.421 11.292,64.588 11.048,64.711 10.841,64.721 10.518,64.602 10.345,64.586 10.027,64.747   9.528,65.381 8.93,65.905 8.693,66.195 8.486,66.52 8.165,67.17 8.192,67.234 8.288,67.408 8.383,67.518 8.825,67.861 9.416,67.962   9.676,68.121 9.705,68.492 9.523,68.73 9.234,68.777 8.667,68.643 7.895,68.264 7.634,68.213 7.406,68.299 7.196,68.469   6.954,68.614 6.64,68.622 6.52,68.546 6.328,68.305 6.229,68.248 5.689,68.577 5.429,68.688 5.148,68.764 4.907,68.863   4.759,69.059 4.557,69.441 4.061,69.865 3.853,70.175 3.762,70.38 3.486,70.632 3.374,70.792 3.353,70.943 3.396,71.27   3.356,71.441 3.285,71.512 3.089,71.586 3.028,71.646 2.972,72.031 3.169,72.155 3.502,72.216 3.853,72.414 4.068,72.473   4.345,72.611 4.596,72.798 4.728,73 4.68,73.333 4.448,73.605 4.14,73.811 3.853,73.939 3.501,73.938 3.146,74.051 2.976,74.289   3.18,74.652 2.94,75.227 2.475,75.619 2.196,75.783 2.195,75.785 2.18,75.798 2.242,76.064 2.186,76.232 2.068,76.359 1.82,76.525   1.669,76.736 1.598,76.988 1.598,77.213 1.669,77.436 1.796,77.742 1.832,77.896 1.82,78.064 1.751,78.217 1.646,78.302   1.527,78.344 1.435,78.413 1.446,78.482 1.527,78.494 1.682,78.494 1.82,78.494 1.915,78.555 1.951,78.623 1.961,78.691   2.068,79.236 2.138,79.459 2.268,79.643 2.491,79.934 2.406,80.114 2.384,80.199 2.419,80.296 2.468,80.338 2.502,80.338   2.595,80.27 2.737,80.338 2.829,80.533 2.817,81.021 2.525,81.273 2.549,81.355 2.618,81.412 2.688,81.412 2.701,81.551   2.173,81.579 2.114,82.039 2.303,83.611 2.618,83.736 3.006,84.084 2.829,84.434 2.502,84.766 2.056,85.631 1.896,86.129   1.832,86.395 1.845,86.505 1.785,86.671 1.376,87.297 1.259,87.38 1,87.52 0.684,87.977 0.683,87.984 0.688,87.98 0.767,87.996   0.831,88.044 0.831,88.046 0.828,88.047 0.828,88.049 0.967,88.225 2.582,88.6 2.726,88.684 2.985,88.947 3.06,88.973 3.254,88.969   3.312,89 3.335,89.119 3.313,89.232 3.266,89.307 3.21,89.298 3.348,89.468 3.479,89.592 3.636,89.646 3.853,89.607 4.205,89.634   4.274,89.837 4.229,90.139 4.239,90.473 4.382,90.77 5.059,91.797 5.143,92.003 5.146,92.08 5.199,92.094 5.597,92.105 6.151,92.03   6.247,92.041 6.403,92.102 6.492,92.117 6.566,92.082 6.738,91.927 6.816,91.902 6.979,91.992 7.468,92.482 8.438,93.15 9.758,94.4   9.98,94.525 10.277,94.616 11.123,94.702 11.367,94.854 13.973,95.171 14.514,95.582 14.774,95.43 15.102,95.439 16.062,95.691   16.272,95.7 16.466,95.633 18.881,93.982 21.182,92.484 21.185,92.484 21.185,92.482 22.848,91.422 25.42,89.773 27.999,88.128   30.574,86.479 33.148,84.825 35.063,83.596 37.681,81.954 42.169,79.132 45.852,76.852 47.514,75.857 49.176,74.865 50.837,73.869   52.5,72.874 54.163,71.881 55.824,70.885 57.486,69.889 59.146,68.893 60.811,67.895 62.475,66.896 64.134,65.896 65.795,64.896   67.458,63.896 69.12,62.896 70.781,61.895 72.443,60.893 74.648,59.561 78.339,58.57 78.779,58.284 79.121,57.8 79.661,56.609   79.661,56.605 82.241,51.622 82.371,51.173 82.404,50.693 82.277,47.507 82.18,44.067 82.327,42.953 82.954,40.688 83.087,38.897   83.225,38.345 83.227,38.345 83.229,38.345 83.229,38.342 84.443,36.515 84.684,35.958 84.766,35.381 84.7,32.847 84.629,32.241   84.467,31.648 83.305,29.125 83.305,29.123 83.303,29.124 82.917,28.223 82.857,27.902 82.857,27.593 83.341,22.939 83.464,22.44   84.791,19.854 84.791,19.852 84.793,19.851 84.793,19.849 85.094,19.436 85.536,19.23 86.512,19.067 91.174,18.077 91.585,17.882   91.982,17.544 94.009,15.385 97.014,12.174 98.564,10.514 98.566,10.514 98.566,10.514 98.566,10.512 99.529,9.597 100,9.234   99.997,8.962 "/></svg>