<svg xmlns="http://www.w3.org/2000/svg" xmlns:xlink="http://www.w3.org/1999/xlink" version="1.1" x="0px" y="0px" viewBox="-345 257 100 100" fill="#999999" style="enable-background:new -345 257 100 100;" xml:space="preserve"><path d="M-308.2,327l0.1-0.1l-0.1-0.1L-308.2,327z M-311.7,325.8L-311.7,325.8L-311.7,325.8L-311.7,325.8L-311.7,325.8L-311.7,325.8  L-311.7,325.8l0-0.1L-311.7,325.8z M-312,325.7L-312,325.7L-312,325.7L-312,325.7L-312,325.7L-312,325.7L-312,325.7L-312,325.7  L-312,325.7L-312,325.7L-312,325.7z M-288.1,257.5L-288.1,257.5l0.1,0l0,0l0.1-0.2l0.1-0.1l0,0l0.1,0l0,0l0.1,0l-0.1-0.1l-0.1-0.1  l-0.2-0.1l-0.2,0.1l-0.1,0l0,0.1L-288.1,257.5L-288.1,257.5z M-299.4,266.3l0.2,0.3l0.2-0.2l0.1-0.1l-0.2-0.1L-299.4,266.3z   M-298.3,266.6l-0.2,0l-0.2,0.4l0.2-0.1l0.1-0.1L-298.3,266.6l0.1-0.1L-298.3,266.6L-298.3,266.6z M-255.6,274l0,0.2l0.2-0.1  L-255.6,274z M-306.4,316.5l0.1,0.2l0,0l0-0.1l0.2-0.2l0.2-0.1l0-0.1l-0.2-0.1l0,0l0-0.1l0,0.1l-0.1,0.2l-0.1,0.1L-306.4,316.5  L-306.4,316.5z M-304.9,327.1L-304.9,327.1L-304.9,327.1l-0.1,0.1l0,0.1l0,0.1h0l0.1-0.2l0.1-0.1l0,0l0-0.1H-304.9z M-305.9,327.2  L-305.9,327.2L-305.9,327.2L-305.9,327.2L-305.9,327.2z M-307.7,321.9l-0.2,0.1v0h0l-0.1,0l0,0l-0.1-0.1l0,0l0,0l0,0.1l0.1,0l0,0  l0.2-0.1l0.1-0.1h0.1l0,0l0,0l0.2-0.1h0L-307.7,321.9z M-312,323.8L-312,323.8L-312,323.8L-312,323.8l-0.1,0l-0.1,0.2l0.1,0l0,0  l0.2,0l0-0.1L-312,323.8l0.1,0L-312,323.8z M-308.7,288.8l0.1-0.2l0-0.2l-0.1,0l-0.2,0.1l-0.1,0.2l0.1,0.1L-308.7,288.8z   M-305.1,327.1L-305.1,327.1L-305.1,327.1L-305.1,327.1L-305.1,327.1L-305.1,327.1L-305.1,327.1L-305.1,327.1L-305.1,327.1  L-305.1,327.1z M-305.9,327.3L-305.9,327.3L-305.9,327.3l-0.1-0.1l-0.1,0l0,0l0,0l0.1,0.1v0l0,0h0.1L-305.9,327.3L-305.9,327.3  L-305.9,327.3z M-258.1,291.7l-0.2,0l0,0l0,0l0,0l0,0l-0.2,0.1l-0.1,0l0.1,0.2l0,0l0.1,0.1l0.3,0l0.1-0.2l-0.1,0L-258.1,291.7z   M-290.3,347.2L-290.3,347.2L-290.3,347.2L-290.3,347.2l-0.1-0.1h-0.2l-0.2,0.3v0l-0.1,0.2l0.1,0.2v0l0.2-0.2l0.1-0.1l0,0l0.2-0.1  l0,0l0,0L-290.3,347.2z M-295.4,323.1L-295.4,323.1l0.1,0.2l0-0.1l0,0l0,0L-295.4,323.1z M-295.1,323.6L-295.1,323.6L-295.1,323.6  l-0.1,0.1L-295.1,323.6l0,0.1L-295.1,323.6z M-299,262.2l0-0.2l-0.2,0l-0.2,0.2l-0.2-0.1l-0.2,0l0,0.4l0,0.2l0.3,0l0.4-0.2  L-299,262.2z M-298.3,260.5l-0.4,0.1l-0.3,0.2l-0.1,0.2l0.1,0.2l0.1,0.1l0.2-0.1l0.2-0.2l0.3,0l0.2-0.2l-0.1-0.3L-298.3,260.5z   M-308.1,324.5l0-0.1l0-0.2l-0.1-0.1l0,0l-0.2-0.3l-0.1,0l-0.2,0.4l0.1,0.2l0.1,0l0.1,0l0,0.3l-0.1,0.2l0.1,0.1l0.2,0l0.1,0l0-0.1  v-0.1l0.1-0.1l0-0.1L-308.1,324.5L-308.1,324.5z M-296.2,327l0.1-0.6l-0.1,0l0,0.8l0,0L-296.2,327z M-296.4,327.9L-296.4,327.9  l-0.3,0.8l0.3-0.6L-296.4,327.9z M-309.7,328l-0.3,0.1l-0.1,0.1l0.1,0.4l0.1,0.1l0.1-0.1l0.1-0.2l0.1-0.1l0-0.1l0-0.2L-309.7,328z   M-296.9,329.2L-296.9,329.2l-0.3,1l0,0l0.2-0.5l0-0.1L-296.9,329.2L-296.9,329.2z M-297.2,331.4L-297.2,331.4l-0.1-0.1l0,0.1  l0.1,0.3l0.2,0.2l0-0.1l0-0.1l-0.2-0.2L-297.2,331.4z M-265.3,356L-265.3,356l0.1,0l-0.1-0.1L-265.3,356z M-333.5,299.3l-0.3,0.4  l0,0.2l0.4,0l0.3-0.3l-0.1-0.3L-333.5,299.3z M-309.8,327.7l-0.1-0.2l-0.2,0l-0.1,0.1l0,0.2l0.2,0.2l0.2,0.1L-309.8,327.7z   M-332.2,298.6l0.1-0.1l0.1-0.2l0-0.2l-0.2-0.1l-0.4,0l-0.1,0l-0.1,0.1l0.1,0.1L-332.2,298.6z M-333.8,300.6h-0.2l-0.2,0l-0.1,0.1  l-0.4,0.8l0.2,0.1l0.4-0.1l0.1-0.1l0-0.1l0.1-0.1l0.1,0l0.1-0.2v-0.2l-0.1-0.1L-333.8,300.6z M-307.8,324.6L-307.8,324.6l-0.1,0.1  l0,0.1l0,0l0.2-0.1l0.1,0l0.1,0l0-0.1l-0.1-0.1L-307.8,324.6z M-297.3,321.6l0.2-0.4l0,0l0,0l0-0.1l-0.4,0.6l-0.2,0.5l0.1,0.9  l0.1,0.1l-0.1-0.6L-297.3,321.6z M-295.2,324.3L-295.2,324.3l0-0.3l0,0V324.3z M-295.5,324.8l0-0.1l-0.1,0l-0.2,0.3l0,0.1l0.1-0.1  L-295.5,324.8z M-295.8,326l0.1-0.2l0.1-0.1l0-0.1l0,0l-0.1,0.1l-0.1,0.2l-0.2,0.2l0,0.1L-295.8,326z M-267.3,341L-267.3,341l0-0.2  l0-0.1l0.1-0.1l0.1-0.3l-0.1-0.2l-0.1,0l-0.8,0l0,0.1l0.1,0.3l0.2,0.4l0.2,0.1l0,0l0.1,0L-267.3,341L-267.3,341z M-266,353.9  l-0.1-0.2l0-0.2l0.1-0.2l0-0.1v-0.1h-1.5l0.1,0.2l0.1,0.2v0.2l-0.1,0.2l0.3,0.3l0.5,0.4l0.6,0.2l0.4-0.1l0-0.2l-0.2-0.2L-266,353.9z   M-305.1,319.5l-0.1,0.2l-0.2,0l-0.2,0l-0.3,0.1l0-0.1l0.1-0.4l-0.4,0.1l-0.6,0.4l-0.2,0h-0.1l0,0.3l0,0.3l0.1-0.1l0,0v0l0-0.1  l0.1,0.2l0.1,0.1l0.1,0.1l0.2,0.1l-0.3,0.2l-0.3,0.1l-0.3-0.1l-0.2-0.2l-0.1,0.2l0.4,0.4l0.4,0.1l0.4-0.1l0.4-0.2l0.1-0.1l0.1-0.3  l0.1-0.1l0.1-0.1l0.2,0l0.3-0.2l0.2,0l0.2,0.1l0.1,0.2l0.1-0.2l-0.1-0.3L-305.1,319.5z M-306.7,318.7l0.1,0.3l0.1,0.1l0.2,0l0.1-0.2  l-0.1-0.3l0.2-0.2l-0.1-0.2l-0.3-0.2l-0.2-0.1l-0.4,0.3l0.3,0.3L-306.7,318.7z M-308.6,320.3l0.2,0l0-0.1l-0.1-0.2v-0.2l0.2-0.7  l0.1-0.3l0.2-0.1l-0.3-0.3l-0.2,0.2l-0.2,0.8l0,0.4l0,0.2l-0.2,0.1l-0.2,0l-0.1,0.1l-0.1,0.1l0,0.2h0.3l0.1-0.1l0.1,0l0.1,0  L-308.6,320.3z M-330.4,299.1l-0.4,0l-0.2,0.2l-0.6,1.1l-0.2,0.1l-0.8-0.3l-0.4-0.1l-0.1,0.1l0,0.2l0.1,0.3l0.1,0.3l0,0.2l0,0.2  l-0.1,0.1l-0.2,0.2l0,0.1l0.1,0.2l0.2,0.1l0.2,0l0.2,0l0.3-0.1l0.2-0.2l0.3-0.2l0.4-0.1l0.4,0.1l0.5,0.3l0.2,0l0.3-0.2l0.2-0.4  l0.2-0.8l-0.5-0.8L-330.4,299.1z M-257.4,288l-0.3-0.1l-0.3,0l-0.5,0.1l-0.2-0.1l-0.2-0.3l-0.2-0.7l0-0.4l0-0.2l0.1-0.3l-0.2-0.2  l-3.6-0.9l-0.3-0.1l-0.1-0.1l-0.1-0.1l-0.3-0.2l-0.1-0.1v-0.2l0.1-0.1l0.1-0.1v-0.1l-0.2-0.1l-0.2,0l-0.2,0.1l-0.1,0l-0.3-0.6  l-0.8-1.1l-0.3-0.3l-0.8-0.1l-0.9,0.2l-0.7,0.4l-0.5,0.5l-0.2,0.4l-0.2,0.4l-0.1,0.1l-0.1,0.1l-0.1,0.1l-0.1,0.2l0.2,0.1l0.4,0.4  l0.3,0.4l-0.3,0.1l-0.1-0.1l-0.1-0.2l-0.2-0.2l-0.3-0.1h-0.2l-0.2,0l-0.2,0.1l-0.5,0.4l-0.4,0.1l-2.4,0.4l-0.7,0.2l-0.4,0.2  l-0.3,0.2l-0.3,0.2l-1.4,0.5l-0.6,0.5l-0.5,0.6l-0.8,1.4l-0.2,0.5l-0.1,0.2l0,0.1l-0.2,0.1l-0.2,0.2l-0.2,0.2l-0.1,0.2l-0.1,0.3  l-0.1,0.2l-0.1,0.2l-0.1,0.2l0.1,0.2l0.1,0.1v0.1l-0.1,0.1l-0.2,0.2l-0.4,0.9l-0.1,0.4l-0.3,0.1l-0.1,0.1l-0.1,0.4l-0.3,0.3  l-0.2,0.3l0.1,0.4l-0.6-0.1l-0.4,0.1l-0.4,0.3l-0.3,0.3l-0.1,0.2l-0.1,0.2l-0.1,0.2l-0.5,0.1l-0.1,0.2l-0.1,0.5l-0.4,0.8l-0.2,0.4  l-0.1,0.5l-0.1,0.3l-1.6,1.8l-0.2,0.4l-0.2,0.8l-0.7,1.2l-0.2,1l-0.2,0.5l-0.3,0.2l0,0.3l-0.9,1.1l-0.2,0.2l-0.1,0.2l0,0.8l-0.1,0.2  l-0.4,0.3l-0.1,0.2l0,0.2l-0.1,0.1l-0.2,0.1l-0.2,0.1l-0.2,0.2l-0.2,0.4l-0.4,1.2l-0.3,0.6l-0.2,0.6l-0.2,0.2l-0.5,0.5l-0.1,0.2  l-0.1,0.5l-0.1,0.2l-0.4,0.3l-0.1,0.1l-0.1,0.2l-0.5,0.6l-0.1,0.2l-0.2,0.7l-0.4,0.7l-0.4,0.6l-0.3,0.7l-0.1,1l0,0.4l0.2,0.9  l0.1,0.8l0.2,0.3l0.1,0.2l-0.1,0.2l-0.1,0.2l0,0.1l0.2,0.1v0.1l-0.1,0.3l0.3,0.6l-0.3,1.1l-0.1,0.1l-0.1,0l-0.1,0.1v0.3l0.2-0.1  l0.2,0l0.1,0.1l0.1,0.2l-0.1,0l-0.2,0.2l-0.2,0.3l0,0.1l-0.2,0.1l-0.1,0.1l-0.3,0.7l0,0.2l-0.1,0.1l-0.2,0.2l-0.1,0.3l0.1,0.2  l0.1,0.2l0.1,0.3l-0.1,0.2l-0.2,0.1l-0.2,0.1l-0.1,0.3l0.2,0.2l0.3,0.3l0.1,0.2h-0.6v0.2l0.7,0.2l0.1,0.1l-0.1,0.2l-0.2,0.1l-0.3,0  l-0.2,0.1l-0.1,0.2l-0.1,0.3l0.1,0.3l0.2,0.2l0.2-0.1l0.1-0.2l0.2-0.2l0.3,0.1l0.1,0.2l0,0.5l0.1,0.2h0.3l0.1-0.2l0.1-0.3l0.1-0.2  l0.5,0.1l0.1,0.4l-0.2,0.5l-0.4,0.3l0.3,0.3l0.1,0.3l0.2,1.5l0.1,0.2l0.2,0.4l0.1,0.2l0.1,0.1l0.1,0.1l0.1,0.1l0,0.2l-0.1,0.3v0.2  l0.1,0.3l0.4,0.8l0.4,0.6l0.2,0.4l0.1,0.4l-0.1,0.3l-0.2,0.4l0.1,0.4l0.3,0.3l0.7,0.7l0.4,0.5l0.3,0.6l0.1,0.6l-1-1.2l0.9,1.3l1,0.8  h0.2l0.1-0.1l0.1,0l0.2,0.1l0.2,0.1l0.4,0.3l0.4,0.2l0.8,0.4l0.3,0.2l0.1,0.1l0.1,0.3l0.1,0.1l0.1,0l0.2,0.1l0.6,0.5l0.2,0.2  l0.3,0.8l0.4,0.5l0.1,0.2l1.5,4l0,0.2l-0.2,0.3l0,0.2v0.8l0,0.3v0.2l0,0.2l0.4,0.7l-0.1,0.5l0,0.2l0.3,0.2l0.3,0.1l0.2-0.2l0-0.5  l0.6,0.2l0.6,0.3l0.5,0.4l0.4,0.5l0-0.4l-0.1-0.7l0-0.6l0.3-0.3l0.3-0.2l0.2-0.5l0.1-0.6l-0.1-5.1l0.1-1.3l0.1-0.4l0.7-1.3l0.4-1.3  l0.2-1l0.3-0.5l0.6-0.8l0.2-0.4l0.4-1l0.2-0.2l0.2-0.1l0.8-0.9l1.3-0.8l0.4-0.4l0.4-0.5l0.2-0.3l0.1-0.2l0-0.2l-0.1-0.5l0-0.2  l0.2-0.3l1.1-0.9l0.1-0.2l0.8-1.1l0.2-0.5l0.2-1l0.4-0.7l0.1-0.4l0.1-0.2l0.2-0.2l0.4-0.3l0.2-0.2l0.4-0.8l0.1-0.7l0-0.8l0.1-0.9  l0.2-0.5l0.2-0.4l0.5-0.7l0.2-0.4l1.2-7l0.4-0.8l0.6-3.1l0.5-1.3l0.3-1.3l0-0.5l0.1-0.3l0.3-0.4l0.1-0.3l0-0.2l-0.1-0.1l-0.1-0.1  l-0.1-0.2l-0.1-0.4l0-0.4l0.1-0.3l0.6-0.8l0.2-0.9l0.2-0.5l0.2-0.2l0.5-0.4l0.1-0.1l-0.1-0.2l0.1-0.2l0.4-0.3l0.5-0.7l0.4-0.4  l0.1-0.2v-0.1l-0.1-0.1l-0.1-0.1l-0.1-0.1l-0.1-0.1l0-0.1l0.1-0.1l0.1-0.1l0-0.5l0.1-0.2l0.1-0.2l0.1-0.2l0-0.5l0-0.2l0.5-0.6  l0.5-0.3l0.2-0.2l0-0.2l-0.1-0.2l-0.1-0.2l0-0.2l0.5-0.3l0.1-0.4l-0.1-0.5l-0.2-0.4l0.1-0.1l0.2-0.1l0.2,0l0.2,0v-0.1l-0.6-0.1  l-0.5-0.3l-0.3-0.5l0-0.6l0.1-0.3l0-0.3l-0.3-1.2l0-0.6l0-0.6l0.1-0.6l0.2-0.5l0.2-0.4l1.5-1.8l0.4-0.4l1.6-0.8l-0.2-0.2L-257.4,288  z"/></svg>