<svg xmlns="http://www.w3.org/2000/svg" xmlns:xlink="http://www.w3.org/1999/xlink" version="1.1" x="0px" y="0px" viewBox="-461 335 100 100" fill="#999999" style="enable-background:new -461 335 100 100;" xml:space="preserve"><path d="M-368.2,376.2l0.3,0l0.1,0.1l0.1,0l0.1-0.1l0.1,0v0.1l-0.1,0.1l0,0.1l0,0l0.1,0l0.1-0.1l0.1-0.1l0-0.1l0-0.1l0,0l0-0.1  l0.1-0.1h0.1l0,0.2l0.1,0.1l0.1,0l0-0.1v-0.2l0-0.1l0,0l0.1-0.1l0.3-0.8l0.1-0.1l-0.1-0.1l0.1-0.1l0-0.5l0.1-0.4l0-0.2l-0.1,0l0,0  l0,0.1l0,0.1l-0.1,0l0,0l-0.1-0.3l0-0.2l0.1-0.2l0-0.2l0-0.2l0.1-0.1l0.2-0.1l0.1-0.2l-0.1-0.3l0-0.2v-0.2l-0.1-0.1l0,0.1l0,0.2  l-0.1,0.2l-0.1,0.2l0-0.1l0-0.1l0-0.1l-0.1,0.1l0,0.1l0,0.1l0,0.1l-0.1,0.1l0,0l0-0.1l0-0.1l-0.1-0.1l-0.4-0.2l0,0l-0.2-0.1l0,0  l-0.1,0l0,0.1l0,0.1l-0.1,0l0,0l0-0.1l0-0.1l-0.1,0l0,0l0,0l0,0l0,0l0,0.1l-0.1,0.3l0,0.1l0.1,0.1l0.1,0.1l0.1,0.1l0,0.1l-0.2-0.1  l-0.1,0l0,0.1l0.1,0.2l0.1-0.1l0,0.1l-0.1,0.1l0,0.1l0.3,0.1l0.1,0l0.1,0.1l0,0.1l0,0l-0.1-0.1l-0.1,0l0,0.1l0,0.1l0,0.1l0,0.1l0,0  l0,0.1l0.1-0.1l0.1,0l0.1,0l0.1,0.1l0,0.1l0,0.2l0.1-0.1l0.1,0l0,0.2l-0.1,0.2l0.1,0.1l-0.2,0l-0.3,0l-0.1,0l-0.1,0l-0.1,0l-0.1,0  l-0.1,0l0.1,0.1l0.1,0.1l0.1,0l0.1-0.1l0.4,0.3l0.2,0.1l0.2-0.1l-0.1,0.2l-0.1,0l-0.2-0.1l-0.1,0l-0.2,0.1l-0.1,0l0.1,0.1l0.1,0.1  l0.1,0l0.1,0l-0.1,0.1l-0.2,0l-0.2,0l-0.1,0l0.1,0.1l0.2,0.2l0.1,0.1l-0.3-0.1l-0.1,0l0.1,0.1l-0.1,0.1l0,0.1l0,0.3l0.1,0.1  L-368.2,376.2z M-368.5,399.7l0.2,0.1l0.2,0l0.2,0l0.4-0.1l0.1-0.1l0.1-0.2l0.1-0.2l0.3-0.1l0.3,0.1h0.1l0-0.1l0-0.1l0.1-0.1l0-0.1  l0.1-0.2l0-0.1v-0.1l0-0.1l0.1-0.2l0.3-0.6l0.1-0.6l0-0.3l-0.1-0.2l0,0.1l-0.1,0.2l0,0l-0.1,0.1l-0.1,0.1l-0.1,0.1l-0.1,0.2  l-0.1,0.1l-0.2,0.1l-0.2,0.1l-0.1,0.1l-0.1,0v0.1l0.2,0l0.1,0l0,0.1l-0.2,0l-0.3,0.1l-0.2,0h-0.2l-0.1,0l-0.1,0.1l-0.1,0.2l0.1,0.1  l-0.1,0.2l-0.4,0.4l-0.1,0l-0.1,0l-0.1,0l0,0.1l0,0l0,0.1l0,0.1v0l-0.1,0l-0.2,0l-0.1,0l0.1,0.1L-368.5,399.7z M-361.1,421.8  l0.1-0.1l-0.1-0.2l-0.1-0.1l0-0.1l0-0.1l-0.1,0l-0.1,0l-0.1,0l0,0.1l0,0.1l0.2,0l0.1,0.1l0,0.2l-0.3,0.1l0,0l-0.3-0.1l0,0l-0.1-0.1  l-0.3-0.7l-0.1-0.1l-0.1-0.1l-0.2-0.1l-0.1-0.1l0-0.1l0-0.1l-0.1-0.1l-0.1,0l-0.3,0.4l0.5,0.2l0.2,0l-0.1,0l-0.1,0l-0.1,0l-0.1,0  l0,0.1l0,0l0,0.1v0.1l-0.1-0.1l-0.2-0.2l-0.1-0.1l-0.1,0l-0.1,0l0,0.1l0,0.1l0,0.1l-0.1,0l-0.2-0.1l0,0l0,0l0,0l0-0.1l0-0.1l0.1,0  l0.1,0l0-0.1l-0.1-0.2l0-0.1l0.1-0.1l0-0.1l0-0.1l0,0l0,0l-0.4-0.1l-0.2,0l-0.3-0.1l-0.1,0l-0.2,0l-0.1,0l0,0.1l0.1,0.2l0,0.1l0,0.2  l0,0.2l-0.1,0.1l-0.1-0.3l0-0.5l-0.6-0.9l-0.2-0.2l-0.1,0l-0.1,0l-0.1,0l-0.2-0.2l-0.3,0l-0.1-0.1l-0.2,0l-0.4,0.5l-0.2,0l0.1-0.1  l0.1-0.1l0.1-0.1l0-0.2l-0.1-0.2l0-0.1l0.3-0.1l0.3-0.1l0.1-0.1l0-0.1l-0.3-0.2l-0.1-0.1l0.3,0l0.2-0.1l0.1-0.2l-0.1-0.3l-0.1-0.1  l-0.1-0.1l-0.2-0.1l-0.1-0.1l-0.1-0.2l0-0.1l-0.1,0l-0.4,0l-0.1,0l0-0.1l0.2-0.1l0.2-0.1l0.1-0.1l-0.1-0.2l0-0.2l-0.1-0.1l-0.1-0.1  l0-0.1l0-0.1l0-0.1l0.1-0.1l0-0.1l-0.1-0.1l-0.1-0.1l-0.1-0.5l-0.1-0.2l-0.2-0.2l-0.1-0.1l0-0.1l0-0.1l0-0.1l-0.1,0l0,0l0,0  l-0.1-0.1l-0.1,0l0,0l0,0.1l-0.2,0l-0.1,0l-0.1,0l0-0.2l0-0.1l0-0.1l0.1-0.1l0.1,0l0.1,0l0.1,0l0.1-0.1l0.1-0.2l0-0.1l0-0.3l0-0.1  l0-0.2v-0.1l0-0.1l-0.1-0.1l-0.1-0.1l0-0.1l0.1-0.3l0-0.3l-0.2-0.3l-0.4-0.5l-0.1-0.1l-0.1,0l-0.1,0.1l-0.2,0.1l-0.2,0.1l-0.1,0  l0-0.1v-0.1l-0.1-0.1l0-0.1l0-0.1l0.1-0.1l0-0.1l0-0.1l0,0l0,0l0,0l0,0l0-0.1l0,0l0-0.2l0,0l-0.1-0.1l0,0l0-0.2l0.1-0.2v-0.1l-0.2,0  l-0.2,0l-0.1-0.1l0-0.1l0.1-0.2l-0.6,0.1l-0.1-0.1l0.2-0.3l0,0l0.1,0l0.1,0l0.2,0l0.1,0.1l0.2,0.2l0.2,0.2l0,0l0.1,0.1l0.1,0l0.1,0  l0.1,0l-0.1-0.1l-0.3-0.2l-0.1-0.1l-0.1-0.3l-0.1-0.1l-0.1-0.1l-0.1,0l-0.1-0.1l-0.1-0.2l0-0.2l0-0.1l-0.1-0.1l-0.2,0l-0.1,0l0-0.1  l0-0.1l-0.1-0.1l-0.3-0.1l0.1-0.2l0-0.8l0-0.2l-0.1-0.2l-0.1-0.2l-0.3-0.3l0-0.3l0.1-0.5l0-0.3l0-0.3l-0.1-0.2l-0.1-0.2l0.1-0.1  l0.1-0.1l0-0.1l-0.1-0.1l0.1,0l0.1,0.1l0.2,0.2l0.1-0.2v-0.1l0.1,0.1l0-0.2l0-0.3l-0.1-0.1l0.1,0l0,0l0,0l0.1,0l0.1-0.3l0.3-0.8  l0.3-0.5l0.1-0.3l0-0.3l0,0l-0.1,0.1l0-0.2l0-0.4l-0.1-0.3l0-0.1l0.1-0.3l0.1-0.2l0-0.1l-0.3-0.2l-0.2-0.1l-0.2,0l-0.3,0l0.1-0.1  l0-0.1l-0.1-0.1l-0.1-0.1l-0.1,0.3l-0.1,0.3l-0.2,0.2l-0.3,0.1l0.4-0.5l0-0.2l-0.1-0.3l0-0.1l0.1-0.1l0-0.2l-0.1-0.3l0-0.2l0-0.2  l0.2-1l0.1-0.3l0.2-0.2l0.1-0.2l0.1-0.2l0-0.1v-0.2l-0.1-0.1l-0.1-0.1l-0.1-0.1l0.1,0l0.1,0l0.1,0l0.1-0.1l0-0.1l0-0.1l0-0.1l0.1,0  l0.1,0l0.1,0l0.1-0.1l0.1-0.1l0-0.1l0-0.1l0.1-0.2l0.1-0.1l0.4-0.3l0,0.2l0.1,0.1l0.1,0l0.1-0.1l0.1-0.1l0.1-0.3l0.1-0.1l0.1,0  l0-0.2l-0.1-0.6l0-0.1l0,0l0-0.1l0-0.1l0-0.1l-0.4-0.6l-0.1-0.3l-0.2-0.2l0-0.1l-0.1-0.1l-0.3,0l-0.1,0l-0.1-0.1l-0.3,0l-0.1,0  l-0.3-0.2l-0.1-0.1l-0.2,0l0,0.1l0,0.1l0,0.2l-0.2-0.2l0-0.3l0-0.4l0-0.3l-0.2,0.2l-0.2-0.1l-0.1-0.3l-0.1-0.2l0-0.1l0-0.1l-0.1-0.1  l-0.1-0.1l-0.2-0.1l-0.1-0.1l-0.1-0.2l-0.1-0.1l-0.2-0.2l-0.3-0.4l-0.5-0.5l-0.2-0.1l-0.3-0.1l0.2,0.1l0.1,0.1l0.1,0l0,0.1l-0.1,0  l-0.1,0l-0.1-0.1l-0.3,0l-0.1,0l0,0l0-0.1l0-0.1l-0.1,0l-0.1,0l0,0l-0.1,0l-0.1-0.1l-0.1-0.1l0-0.1l0-0.1l0-0.1l-0.1-0.1l-0.1-0.1  l-0.1-0.1l-0.1-0.2l0-0.5l-0.1-0.2l0.1-0.1l0.1-0.2l0-0.2l0-0.3l0-0.1l-0.1-0.1l-0.2-0.1l-0.1-0.1l0-0.1l-0.1-0.4l0-0.1l-0.1-0.1  l0-0.1l0-0.2l0.1-0.2l0.1-0.2l0.1-0.3l0-0.1l0.1-0.1l0.1-0.1l0-0.1l0-0.6l0-0.2l0.1-0.2l0.2-0.3l0.2-0.3l0.1-0.1l0.1-0.2l0-0.4  l0.1-0.2l-0.1-0.1l0.3-0.2l0.3-0.5l0.3-0.5l0.1-0.4l0-0.1l-0.1-0.1l-0.1,0l0-0.1l0-0.1l0.1-0.1l0.1-0.1l0.1-0.1l0.2-0.2l0.1-0.2  l0.4-1.2l-0.1-0.1l-0.1,0.2l-0.1,0.1l-0.1-0.1l0-0.1l0.3-0.4l0.2-0.4l0.1-0.1l0.4-0.3l0-0.1l0-0.1l-0.1-0.2l0-0.1l-0.3,0.1l-0.1,0  l0-0.1l0.1-0.2l0,0l0.1,0l0.1,0l0.1,0l0-0.1l0-0.5l0-0.1l-0.2-0.2l0.2,0l0.1-0.2l0.2-0.5l0.1,0.2l0,0.2l-0.1,0.2l0,0.2l0.1,0.1  l0.1-0.1l0.3-0.5l0.1-0.1l0-0.2l0-0.2l0-0.2l-0.1-0.1l-0.1,0l-0.2-0.1l0.2-0.1l0.2-0.2l0.1-0.3l-0.1-0.3l-0.2,0l-0.1-0.1l-0.8-0.6  l-0.8-0.6l-0.8-0.6l-0.8-0.6l-0.8-0.6l-0.8-0.6l-0.8-0.6l-0.8-0.6l-0.8-0.6l-0.8-0.6l-0.8-0.6l-0.8-0.6l-0.8-0.6l-0.8-0.6l-0.8-0.6  l-0.8-0.6l-0.5-0.4l-0.1-0.2l-0.1-0.2l-0.2-0.6l-0.1-0.1l-0.1-0.1l-0.2-0.1l-0.2-0.1l-0.2,0l-0.4,0l0-0.1l0.1-0.2l0-0.2l0-0.1  l-0.2,0l-0.1-0.1l0-0.1l0-0.1l0-0.1l0-0.1l0.1-0.1l0.2-0.2l0.2-0.1l0.2,0l0-0.2l0-0.1l0.1-0.1l0.2,0l-0.2-1.2l-0.2-1l-0.1-0.2  l-0.8-0.4l-2-1.1l-2-1.1l-2-1.1l-2-1.1l-2-1.1l-2-1.1l-1.6-0.9l-0.8-0.5l-1.5-0.8l-2-1.1l-2-1.1l-2-1.1l-2-1.1l-2-1.1l-2-1.1l-2-1.1  l-2-1.1l-0.5-0.3l-29.9-0.5l-0.1-0.1l-0.3-0.1l-0.3,0.2l-0.3,0.1l-0.1,0.1l-0.3,0.3l-0.1,0.1l-0.2-0.1l-0.2,0l-0.5,0l-0.2,0l-0.1,0  l-0.1,0l0-0.1l-0.1,0l-0.1,0l-0.1,0.1l0,0l-0.1,0.1l-0.1,0.1l0,0.1l0,0.1l0.1,0.1l0,0.1l0,0.1l0,0.1l0,0.1l0,0.1l0.1,0.1l0.1,0  l0.1,0l0,0l0.1,0.1l0,0.1l0,0.2l0.1,0.1l0.2,0.3l0.1,0.2l0.1,0.1l0,0.1l0,0l0,0l0,0.1l0,0.1l0,0.1l0.1,0.1l0.3,0.1l0.1,0.1l0.1,0.1  l0.1,0.1l0.6,0.2l0.2,0l0.2,0.1l0.1,0.2l0,0.2l0,0.1l0,0.1l0.1,0.1l0.2,0.2l0.1,0.1l0,0.1l0.1,0.3l0.1,0.2l0.1,0.1l0.2-0.1l0.1,0.2  l0,0.2l-0.1,0.7l0,0.1l0,0l0.1,0.1l0,0.1l-0.1,0.3l0,0.1l0.1,0.4l-0.1,0.2l-0.1,0.1l-0.1,0.1l0.1,0.2l-0.2,0.1l-0.1,0.1l0,0.1l0.3,0  l0,0.2l-0.1,0.5l0.2,0l0.2,0.1l0.1,0.1l0.1,0.1l0.1,0.3l-0.3,1l-0.1,0.4l0,0.6l0,0.2l-0.1,0.2l-0.1,0.1l-0.2,0.1l-0.1,0.1l-0.1,0  l-0.1,0l-0.1,0l-0.1,0l-0.5-0.2l-0.1,0l-0.1,0l-0.1,0.1l-0.1,0.2l-0.1,0.1l-0.2,0l-0.2-0.1l-0.2,0l-0.2,0.1l-0.3,0.4l-0.1,0.2  l-0.4,0.8l-0.1,0.3l0,0.1l-0.1,0.1l-0.2,0.2l-0.1,0.1l0,0.2l0.1,0.1l0.2,0l0.2-0.1l0.3-0.2l0.2-0.1l-0.1,0.2l-0.5,0.6l-0.1,0.1  l0,0.1l0,0.2l-0.2,0.3l-0.1,0.2l0,0.2l0.2,0.3l0.1,0.1l0.2,0l0,0.1l0.1,0.1l0.1,0.1l0,0.1l0,0l0.2-0.3l0.1-0.1l0.1,0l0.1,0l0.6,0.4  l0.1,0.1l0,0l0,0.1l0,0.1l0,0l0.1,0l0.1,0l0.1,0l0.1,0l0.1,0l0.2,0.1l0.1,0l0.2,0l0.4-0.1l0.2,0l-0.1,0.2l-0.3,0.3l-0.1,0.1l0,0.1  l0.2,0.2l0.1,0.1v0l0,0.1l0,0.1l0,0.1l0.1,0.1l0,0.1l0,0.1l0,0.1l-0.1,0.2l-0.1,0.2l0,0.1l0,0.2l0,0.1l-0.1,0.2l-0.2,0.2l-0.3,0  l-0.2-0.1l0,0.1l-0.1,0.1l-0.1,0.1l-0.1,0l-0.3,0.1l-0.2,0.1l-0.2,0.2l-0.2,0.2l0.3,0.2l0,0.2l-0.2,0.2l-0.4,0.2l-0.1,0.1l-0.1,0.1  l-0.1,0l-0.2,0.1l0,0l0,0.1l0,0l-0.2,0l0,0l0,0l-0.2,0l0,0l0,0.1l0,0l-0.3,0.2l0,0.1l0,0.2l0,0.2l-0.1,0.2l-0.4,0.6l-0.1,0.2l0,0.2  l0,0.2l0.1,0.1l0,0.1l0,0.2l-0.4-0.1l-0.2,0.1l-0.4,0.6l-0.5,0.5l-0.1,0.2l-0.2,0.7l-0.2,0.4l-0.2,0.4l-0.3,0.3l-0.6,0.5l-0.1,0.1  l-0.2,0.6l-0.1,0.1l-0.2,0.1l-0.1,0.1l-0.3,0.2l-0.3,0.3l-0.5,0.2l-0.1,0l-0.2,0l-0.1,0l-0.1,0l-0.2,0.1l0,0l0,0.1l0,0.1l-0.2,0.1  l-0.1,0.1l0,0.1l0,0.1l0,0.1l-0.1,0.1l0,0l-0.4,0l-0.3-0.1l0,0.5l-0.4,2.3l0,0.7l0,0.1l0,0.1l0.1,0.1l0.1,0.1l0,0.1l-0.3,0.2v0.1  l0.2,0.1l0.3,0l0.1,0l0.1,0.1l0.1,0.1l0,0.1l0.1,0.1l0.1,0l0.2,0.1l0.2,0.1l0.1,0.1l0.1,0.2l0,0l0,0l0.1,0l0,0v0.1l0,0.1l0,0.1  l0.1,0.2l0.2,0.3l0.1,0.2l0.1,0.2l0,0.2l0,0.1l0,0.1l0,0l0,0.1l0,0h0l0,0l0,0v0.1l0,0l0.1,0l0,0l0,0.1l0,0.1l0,0.1l-0.1,0.1  l-0.1,0.1l0.1,0.2l0,0.1l-0.1,0l0,0l0,0l-0.1,0l0,0.1l0,0.2l0,0.2l-0.1,0.2l-0.1,0.2l-0.1,0.2l-0.1,0.2l0,0.2l0.1,0.3l0.2,0.3  l0.4,0.4l0.2,0.2l1,2.2l0.1,0.4l0,0.2l-0.1,0.3l0,0.2l-0.2,0l-0.2,0.1l-0.6,0.6l-0.1,0l-0.1,0l-0.2-0.1l-0.1,0l-0.2,0.1l-0.2,0.2  l-0.2,0.2l-0.1,0.2l0,0.6l0.1,0.6l0,0.2l-0.1,0.2l0,0.1l0,0.1l0.1,0.1l0.2,0.1l0.1,0.1l0.1,0.2l0.8,1l0.4,0.4l0.3,0.2l0.1,0.1l0,0.2  l0.7-0.4l0.4-0.1l0.4,0l0.2,0.1l0.2,0.1l0.1,0.1l0.1,0.2l0.1,0.2l0.9,0.9l0.2,0.1l0.2,0l0.1,0.1l0.2,0.5l0.3,0.4l0,0.1l0.1,0.2  l0.2,0.4l0.6,0.7l0.2,0.1l0.1,0.1l0.5,0.3l0.1,0.2v0.4l0,0l-0.1,0.1l0,0.1l0,0.2l0,0.2l0,0.2l-0.1,0.1h-0.3l-0.1,0l0-0.1l-0.1,0  l-0.1,0.1l0.1,0.1l0.1,0.1l0.1,0.2l0,0.2l0,0.1l0,0.1l0,0.1l0.1,0l0,0l0.1,0.3l0.4,0.8l0.1,0.4l0,0.2l-0.1,0.4l0,0.1l0.1,0.1l0,0.2  l-0.2,0.3l0.4,0.6l0,0.1l0.2,0.1l0.1,0.1l0,0.2l0.1,0.1l0.1,0.1l0.3,0.1l0.1,0.1l0.1,0.1l0.1,0.2l0.1,0.1l0.1,0.1l0.5,1.4l0.2,0.2  l0.1,0.1l0.1,0.3l0.1,0.1l0.2,0.2l0.1,0.1l0.2,0.3l0,0.1l0,0.4l0.1,0.2l0.1,0.2l0,0l0.1-0.1l0.1,0.1l0.1,0.2l0,0.2l0,0.2l0-0.1l0,0  h-0.1l0,0.1l0,0.1l0.1,0.1l0,0.2l0,0.1l0,0l0,0l0,0.1l0,0l0,0l0,0.1l0,0.2l0.1,0.1l0.1,0l0.1,0.1l0.1,0.1l0.1,0.3l0.1,0.1l0,0l0,0h0  l0,0l0.2,0.3l0.6,0.3l0.2,0.3l-0.1,0.6l0,0.3l0.2,0.2l0.1,0l0,0.1l0,0.3l0,0l0.1-0.1h0.2l0.1,0.1l0.2,0.2l0.1,0.1l0.1,0l0.1,0l0.1,0  l0.5-0.2l0.1,0l0.1,0l0,0l0,0l0.1,0l0,0.1l0,0.2l0,0.1l0.1,0.1l0.1,0l0.1,0l0.1,0l0.1,0.1l0.2,0.2l0.1,0.1l0.4,0.1l0.2,0.2l0.1,0.2  v0.3l0.1,0.4l0.2,0.3l0.9,0.7l0.2,0.1h0.2l0.2-0.1l0.3-0.2l0.2,0l1.4,0.4l-0.2,0.4l0,0.5l0.2,0.4l0.4,0.1l0.2-0.1l0.1-0.1l0.1-0.1  l0.2,0l0.3,0.2l0.1,0l0.1,0l0.2,0l0.1,0l0.2,0.1l0.3,0.3l0.2,0.1l0.2,0.1l0.2,0l1.2,0l0.4,0.1l0.3,0.2l0.1,0.1l0.2,0.4l0.1,0.2  l0.1,0.1l0.3,0l0.8,0.2l0.7,0.1l0.1,0.1l0.1,0.1l0,0.1l0,0.1l0.1,0.1l0.1,0l0.2,0l0.1,0l0.4,0.3l0.7,0.3l0.1,0.1l0.1-0.2l0.2-0.1  l0.2,0l0.2,0.1l0.5,0.5l0.6,0.4l0.1,0l0.2,0.1l0.3,0.1l0,0l0.1,0l0.1-0.1l0.1,0h0.1l0.2,0.1l0.1,0l0.1,0l0.1-0.1l0.1,0l0.2,0.1  l0.5,0.4l0.2,0.2l0.2,0.3l0.1,0.2l0.1,0.1l0.2,0.1l0.4,0l0.3-0.1l0.2-0.1l0.2-0.1l0.3,0l0.3,0.1l0.2,0l0.2,0l0.2-0.1l0.3-0.1  l0.3,0.2l0.2,0.2l0.2,0.2l0.2,0.1l0.3,0.2l0.2,0.2l0.1,0.2l0.1,0.1l0.1-0.2v-0.1l0.1-0.1l0.1-0.1l0-0.1l0-0.2l0.1-0.3l0-0.2  l-0.2-0.4l0.1-0.2l0.2-0.2l0.1-0.1l0.1-0.1l0,0l0,0l0.3,0.1l0.3,0.2l0.1,0.1l0.1,0.1l0.3,0.4l0.1,0l0.2,0.2l0.3,0.1l0.9,0.9l0.3,0.1  l0.1,0.1l0,0.2l0,0.2l0.1,0.1l0.2,0.2l0,0l0.2,0.2l0,0l0.9,1.1l0.1,0.2l0.3,0.4l0.1,0.3l0,0.1l0,0.1l-0.1,0.2l0,0.1l0.1,0.3l0.3,0.7  l0.1,0.5l0.1,0.2l0,0.1l0,0.1l-0.2,1l0,0.2l0.2,0.3l0,0.2l0,0.1l-0.1,0.2l0,0.1l0,0.1l0,0.1l0.1,0.1l0.1,0.1l0.1,0l0.1,0l0.1,0  l0,0.1l0,0.2l0,0.1l0.2,0.2l0.1,0.2l0,0.2l-0.1,0.2l0.1,0.1l0,0l0,0.1l0.1,0l0.1,0.1l0,0.1l-0.1,0.1l-0.1,0.1l0,0.2l-0.1,0.6v0.4  l0,0.1l-0.2,0.4l-0.3,0.3l0,0.2l0,0.2l0.1,0.4l0,0.2l0.1,0.2l0.4,0.4l0,0.1l0,0.1l0,0.1l0.2,0l0.1,0l0.1,0.1l0,0.1l0,0.2l0.1,0.2  l0.1,0.1l0.1,0.1v0.1l-0.1,0l-0.1,0.1l-0.1,0l0.2,0.4l0.1,0.1l0,0l0,0l0.1-0.1l0.1,0l0,0l0,0l0.1,0l0.4,0.1l0.2,0.1l0.2,0.2l0.1,0.2  l0,0.1l0.2,0.1l0.1,0.3l0.1,0.1l0.1,0.1l0,0.1l0,0.1l0,0.1l0,0.1l0,0.1v0.5l0,0.1l3.8,0l0.4,0l0,0.1l0.1,0.1l0.1,0l0.2,0l0,0l0.1,0  l0,0l0.1,0l0,0l0,0l0.1,0.1l0,0.1l0,0.1l0,0.1l0.1,0l0-0.2l0.1,0l0.1,0.1l0.2,0l0.2-0.1l0,0l0.5-0.1l0.1-0.1l0.1-0.2l0.1-0.1  l0.1-0.1l0.1-0.1l-0.1-0.2l0.2-0.1l0.5-0.1l0.2-0.1l0.3-0.4l0.1-0.1l0.4,0.1l0.3,0.1l0.1,0l0.3,0l0.1,0.1l0.2,0.2l-0.1,0.2l0.1,0.2  l0.2,0.1l0.2-0.1l0.1,0l0.2,0.1l0.3,0.2l0.1,0l0.2,0.1l0.1,0l0.1,0.1l0.1,0.1l0.1,0l0.1,0l0.1,0.1l0,0.2l0,0.2l0.1,0.2l-0.1,0.1  l0,0.2l0.1,0.2l0.1,0.1l0.4-0.1l0.1,0l0.1,0.1l0.1,0l0.1,0l0.3-0.1l0.3,0l0.1,0l0,0l0,0h1.1l0.1,0l0.1,0.2l0.1,0l0.1,0l0.2,0.1  l0.2,0l0.6-0.1l0.1,0l0.2,0l0.1,0l0.1-0.1l0.1-0.1l0.3-0.1l0.1-0.1l0.1-0.1l0.3-0.4l0.4-0.5l0.2-0.1l0.1,0l0.2,0l0.2,0.1l0.1,0  l0.9-0.1l0.1,0l0.1-0.1l0.1-0.1l0.1,0.3l0.2,0.3l0.3,0.3l0.3,0.2l0.8,0.2l0.4,0l0.3,0l0.1,0l0.1,0l0.1,0l0.1,0l0.1,0.1l0.2,0.2  l0.1,0l0.5,0.1h0.2l0.2,0l0.1,0l0.1-0.1l0.1-0.1l0.1-0.1l0.1-0.1l0.1-0.1l0.2,0l0.3-0.2l0.2,0l0.3,0l0.2,0l0.2-0.1l0.4-0.3l0.7-0.3  l0.2-0.1l0.1-0.1l0.1-0.1l0-0.1l-0.1-0.1l0-0.1l0-0.2l0.2-0.4l0-0.2l0.1-0.1l0.1-0.4l0-0.1l0.1-0.1l0.6-0.3l0.2,0l0.4,0l0.1,0  l0.1-0.1l0.5-0.1l0.3,0v0l0,0l0,0l0.1,0l0,0l0,0.1l0,0l0.1,0l0.2,0.1l0.1,0l0.1,0l0.2-0.1l0.1,0l0.4,0.1l0.3,0.2l0.5,0.5l0.3,0.2  l0.7,0.2l0.3,0.2l0.2-0.3l0.9-0.6l0.2-0.3l0.2-0.1l0.3-0.1l0.2-0.1l0.1,0l0.1,0l0.2,0l0.1,0l0.2-0.1l0.4-0.3l0.1-0.1l0.2,0l0.2-0.1  l0.2-0.2l0.3-0.1l1.2,0l0.3-0.1l0.3-0.1l0.2,0l0.4,0.2l0.2,0.1l0.2,0l0.2-0.1l0.2-0.1l1.8-1.4l0.1-0.1l0.2-0.1l0.7-0.1l1.5-0.3  l0.2-0.1l0.9-0.6l0.9-0.4l0.2-0.1l1.2-0.9l0.3-0.1l0.1-0.1l0.2-0.2l0.5-0.5l0.3-0.3l0.6-0.2l0.3-0.2l0.3-0.3l0.2-0.3l0-0.1l0-0.1  l-0.1-0.1l0-0.1l0-0.1l0.1-0.3l-0.1,0l-0.1,0l-0.1,0l0.1-0.1L-361.1,421.8z M-372.4,380.6L-372.4,380.6l-0.1-0.1l0,0.1l0,0.1l0,0.1  l0,0.1l0,0.5l0.2,0.6l0.1,0.5l-0.3,0.4l0.1,0.2l0.1,0.4l0.1,0.1l0.5,0.5l0,0l0,0l0.1,0.1l0.1,0l0,0l0,0l0,0l-0.1-0.1l0-0.2l0-0.1  l0.1,0.1l0-0.1l0,0l0,0l-0.1,0v-0.1l0.1-0.1l0.2,0.1l0.3,0.4l0.2,0.3l0.1,0.1l0,0.2l0.3,0.1l0-0.1l0-0.2l-0.1-0.1l-0.1-0.1v-0.1  l0.2-0.1l0,0.1l0.2,0.8l0.1,0.2l0.1,0.2l0.1,0.1l0.3,0.1l0.3-0.1l0.2-0.3l0-0.4l-0.3-0.4l0-0.1l-0.2-1.3l-0.1-0.3l-0.2-0.2l0,0.2  l0,0.3v0.2l-0.2,0l0,0l0,0l0,0l0,0l0-0.1l-0.1,0l-0.1,0.1l0,0.1l-0.1-0.1l-0.1-0.1l-0.1-0.1l-0.1,0.1l0-0.1l0-0.1l0.1-0.1l-0.1-0.1  l0-0.1l0-0.1l0-0.1l0-0.1l0-0.1l0-0.1l0-0.1l-0.2,0l-0.1,0l-0.1-0.4l-0.2-0.3l0-0.1l0-0.1l-0.1-0.3l0-0.1l0-0.1l0.1-0.4l-0.1-0.3  l-0.3-0.5l-0.1-0.3l-0.2,0.2l-0.1,0.7l-0.1,0.3l-0.2,0.2l-0.3,0.3L-372.4,380.6L-372.4,380.6z"/></svg>