<svg xmlns="http://www.w3.org/2000/svg" xmlns:xlink="http://www.w3.org/1999/xlink" version="1.1" x="0px" y="0px" viewBox="22 0 56 100" fill="#e0e0e0" enable-background="new 22 0 56 100" xml:space="preserve"><path d="M45.302,52.919l-0.058,0.003l-0.034,0.026l-0.026,0.057l-0.027-0.041l-0.016,0.047l0.074,0.122l0.02,0.066l0.01,0.042  l0.079-0.046l0.034-0.076l0.063-0.047l-0.017-0.049l-0.006-0.104H45.302z M56.497,58.887l-0.069-0.056l-0.031,0.014L56.41,58.9  l-0.092,0.053l-0.021,0.004l-0.034-0.012l-0.027,0.039v0.035l0.02,0.014l0.014-0.018l0.092-0.017l0.052,0.021l0.044,0.047  l0.048,0.045l0.007,0.027l0.014,0.02l0.021-0.059l-0.021-0.063l0.104-0.041l0.027,0.003l0.009-0.022l0.01-0.082l-0.047-0.004  L56.497,58.887z M38.9,70.587l0.016,0.063l0.029,0.012l0.027-0.016l0.016,0.063l0.013-0.023l0.043-0.019l0.019-0.026l0.027-0.035  l0.016-0.028l0.014-0.045l0.016-0.015l0.021-0.01l0.003-0.023l-0.017-0.027l0.008-0.037l-0.012-0.01l-0.029-0.016l0.012-0.045  l-0.023-0.033l-0.008-0.018l0.003-0.018l-0.034-0.029l-0.025,0.029l-0.086-0.023l-0.016,0.088l0.01,0.033l0.027,0.023l0.006,0.035  l-0.035,0.105L38.9,70.587z M29.797,72.234l-0.018-0.004l-0.012,0.026l-0.004,0.06l0.016,0.084l0.037,0.039l0.051-0.008l0.045,0.067  l0.029-0.188l0.029,0.018l0.023-0.043l0.002-0.055l-0.023-0.076l0.055-0.131l-0.045,0.007l-0.035-0.013l-0.067-0.07l-0.024,0.054  l-0.02,0.006l-0.034,0.043l0.015,0.031l0.021,0.044l-0.011,0.086L29.797,72.234z M37.563,90.409l-0.057-0.075l-0.055-0.052  l-0.024-0.005l-0.014-0.021l-0.065-0.028l-0.056-0.008L37.23,90.17l-0.058,0.012l0.019,0.058l0.047,0.063l0.045,0.065l0.09,0.018  l0.152,0.059L37.563,90.409z M39.15,92.706l-0.08,0.053l-0.021,0.109l0.066,0.032l0.103-0.021l-0.032-0.105L39.15,92.706z   M24.56,79.988l-0.022-0.021l-0.048,0.038l-0.04,0.017l0.025,0.098l0.1,0.164l-0.021-0.182L24.56,79.988z M29.375,86.916H29.33  l-0.018,0.012l-0.033,0.038l-0.014,0.13H29.3l0.054-0.054l0.025-0.039l0.029-0.041l-0.01-0.062L29.375,86.916z M28.936,76.204  l0.063-0.127l-0.026-0.06h-0.055l-0.229,0.369l-0.037,0.036l-0.006,0.14l0.03,0.049l0.075-0.053l0.089-0.105l0.019-0.033  l-0.019-0.035l-0.006-0.037l0.021-0.054L28.936,76.204z M33.438,85.436l-0.049,0.01l-0.027-0.004l-0.01-0.049l-0.082-0.059  l-0.094-0.018l-0.025,0.013l-0.019,0.001l-0.028,0.027L33.082,85.4l0.004,0.025l0.023,0.014l0.025,0.009l0.27,0.335l0.035-0.023  l-0.008-0.066l-0.027-0.049v-0.039l0.019-0.022l0.03-0.015l0.02-0.024l0.004-0.076l-0.008-0.021L33.438,85.436z M35.618,93.893  l-0.038-0.027l-0.01-0.018l-0.002-0.02l-0.161-0.043l-0.065-0.004l-0.037,0.053l0.084,0.329l0.065,0.048l0.079-0.016l0.047-0.021  l0.046-0.073l0.017-0.078l-0.002-0.099L35.618,93.893z M34.189,86.544l-0.246-0.039l-0.148,0.077l0.166,0.271l0.036,0.021  l0.045,0.021l0.038,0.025l0.018,0.041l0.019,0.03l0.045,0.03l0.06,0.018l0.057-0.014l0.043-0.07l0.023-0.122V86.71l-0.021-0.087  L34.189,86.544z M29.557,72.708l-0.08,0.089l-0.033,0.098l0.088,0.145l0.121-0.182l0.01-0.09l-0.04-0.143v-0.041L29.557,72.708z   M31.1,83.129l-0.023-0.027l-0.055-0.016l-0.055,0.104l-0.093,0.097l-0.063,0.098l0.03,0.109l-0.146,0.037l-0.029,0.038l0.063,0.084  l0.054,0.031L31,83.762l0.004-0.084l0.107-0.455l-0.004-0.054L31.1,83.129z M36.266,89.271l-0.09-0.063l-0.132-0.063l-0.05,0.155  l0.002,0.334l0.033,0.052l0.072-0.076l0.098-0.158l0.056-0.038l0.07-0.026l0.082-0.007l0.089,0.007l-0.053-0.076L36.266,89.271z   M26.035,74.938l-0.073-0.057l-0.042,0.003l-0.047,0.023l-0.039,0.036l-0.017,0.05l0.031,0.053l0.209,0.163l0.029-0.072l-0.01-0.102  L26.035,74.938z M37.991,73.663l0.024-0.052L38,73.605l-0.012-0.012l-0.012-0.01l-0.021-0.004l0.01,0.066l0.01,0.027L37.991,73.663z   M37.998,74.323l0.145-0.056l-0.031-0.14L37.91,74.28L37.998,74.323z M26.214,74.627l-0.156-0.038l-0.121,0.076l-0.024,0.13  l0.135,0.112l-0.001-0.104l0.048-0.008l0.064,0.023l0.052-0.002l0.023-0.041l0.013-0.055l-0.004-0.055L26.214,74.627z M28.559,78.27  l0.014,0.138l0.057,0.128l0.059,0.009l0.154-0.381l0.086-0.155l0.025-0.134l-0.077-0.128L28.807,77.7l-0.062-0.034l-0.121-0.023  l-0.058,0.106l0.023,0.203l-0.001,0.178L28.559,78.27z M34.068,87.423l-0.066-0.243v-0.236l-0.066-0.039l-0.203-0.192h-0.045  l-0.017,0.021l-0.008,0.009l-0.009,0.004l-0.018,0.015l0.043,0.094l0.014,0.109l-0.008,0.229l0.021,0.063l0.171,0.385l0.132,0.157  l0.15,0.085l0.115-0.08l-0.104-0.158L34.068,87.423z M28.491,77.404l0.091,0.08l0.131,0.008l0.133-0.038l0.1-0.05l-0.049-0.04  l0.14-0.142l-0.002-0.146L29,76.952l-0.063-0.106l-0.082-0.082l-0.088-0.074l-0.059-0.021l-0.083,0.012l-0.065,0.027l-0.018,0.025  v0.043l-0.056,0.539L28.491,77.404z M30.878,83.938l-0.103-0.105l-0.308-0.174l0.001,0.004l-0.027-0.064l-0.021-0.031l-0.029-0.024  l-0.002,0.106l0.02,0.123l0.037,0.115l0.087,0.139l0.008,0.052l0.024,0.037l0.074,0.014l0.055,0.021l0.035,0.049l0.019,0.06  l0.005,0.058l-0.018,0.071L30.695,84.4H30.65l-0.03,0.045l-0.002,0.057l0.03,0.098l0.021,0.158l0.043,0.133l0.072,0.094l0.101,0.01  l0.055-0.146l-0.01-0.721L30.878,83.938z M35.079,93.76l-0.218,0.014h0.05l-0.118,0.024l-0.064,0.078l-0.063,0.06l-0.119-0.026  l0.104,0.102l0.138,0.037l0.147-0.022l0.197-0.135l0.068-0.024l0.018-0.032l-0.082-0.061L35.079,93.76z M39.682,74.579l0.026,0.245  l0.04,0.128l0.063-0.022l0.312-0.031l0.054,0.006l0.051-0.002l0.045-0.021l0.019-0.044l0.006-0.053l0.015-0.044l0.191-0.089  l0.051-0.174l0.021-0.213l0.055-0.188l0.069-0.073l-0.03-0.09L40.6,73.846l-0.035-0.011l-0.053,0.128l-0.123,0.021L40,73.886  l-0.168-0.013l-0.15,0.021l-0.068,0.076l0.033,0.115l0.057,0.123l0.01,0.124l-0.1,0.117L39.682,74.579z M40.093,73.012l0.362,0.149  l0.162,0.093l0.076,0.057l-0.072-0.514l-0.079-0.22l-0.21-0.134L40.27,72.43l-0.119,0.01l-0.064-0.006l-0.066-0.031l-0.027,0.066  l-0.085,0.137l-0.001,0.045l0.128,0.145l0.022,0.075l-0.037,0.078L40.093,73.012z M37.991,93.127l-0.155-0.337l-0.043,0.039  l-0.025,0.122l-0.011,0.119l-0.019,0.065l-0.04,0.029l-0.046,0.021l-0.033,0.041l-0.003,0.043l0.015,0.119l-0.012,0.066  l-0.067,0.092l-0.071,0.077l-0.02,0.09l0.186,0.238l0.123,0.249l0.078,0.113l0.051-0.031l0.025-0.027l0.012-0.041l0.002-0.06  l0.022-0.052l0.052-0.017l0.061-0.009l0.046-0.034l0.022-0.073l0.008-0.092l-0.008-0.102L37.991,93.127z M56.045,57.609  l-0.068-0.125l-0.047-0.045v-0.043l-0.086-0.06l-0.057-0.091l-0.079-0.173l-0.071-0.093l-0.082-0.08l-0.211-0.151l-0.115,0.005  l-0.18-0.047l-0.109-0.004l0.045,0.027l0.035,0.028l0.028,0.037l0.027,0.048h-0.093l0.188,0.438l0.063,0.066l-0.002,0.416  l-0.023,0.092v0.041l0.061,0.017l0.045,0.019l0.037,0.023l0.041,0.034l-0.029-0.069l-0.02-0.023v-0.041l0.254,0.082l0.084,0.011  l0.094-0.023l0.011-0.06l-0.013-0.076l0.021-0.078l0.21,0.209l0.109,0.068l0.091-0.04l0.012-0.11l-0.071-0.111L56.045,57.609z   M57.307,60.084l-0.016-0.242l-0.107-0.171l-0.168,0.013l0.036-0.086l0.007-0.078l-0.016-0.076l-0.027-0.073l-0.06-0.032  l-0.036,0.051l-0.131,0.484l0.006,0.064l0.064,0.149l0.02,0.063l0.004,0.082l-0.012,0.037l-0.029,0.032l-0.053,0.072l0.213,0.063  l0.063,0.027l0.035,0.042l0.053,0.108l0.043,0.037h0.046l-0.024-0.172l0.018-0.063l0.057-0.089h-0.094v-0.045L57.307,60.084z   M29.752,84.902l-0.023,0.029l-0.041,0.028l-0.021,0.032L29.604,84.9l-0.049-0.121l-0.027-0.127l0.005-0.115l0.026-0.057  l0.039-0.029l0.041-0.021l0.028-0.027l0.009-0.053l-0.014-0.119l0.005-0.055l0.087-0.148l0.044-0.105l0.004-0.109l-0.046-0.09  L29.693,83.7l-0.064,0.034l-0.049,0.078l-0.107-0.086l-0.104-0.104l-0.088-0.054l-0.069,0.064H29.17l-0.052-0.313l-0.037-0.094  l-0.06-0.059l-0.063-0.041L28.9,83.109l-0.047,0.021l-0.043-0.032l-0.021-0.011l-0.03-0.004l0.05,0.267l0.008,0.145l-0.012,0.138  l-0.021,0.067l-0.05,0.105l-0.018,0.047l-0.005,0.043l0.011,0.235l0.028,0.13l0.007,0.073l-0.025,0.063l-0.049,0.063l-0.027,0.068  l0.037,0.076l0.017,0.057l-0.043,0.049l-0.06,0.055l-0.029,0.065l0.023,0.012l0.119,0.035l0.037,0.024l0.025,0.09l-0.035,0.046  l-0.053,0.021l-0.027,0.021l0.009,0.074l0.026,0.057l0.029,0.048l0.024,0.048l0.034,0.426l0.035,0.096l0.113,0.064l0.093-0.021  l0.062-0.102l0.022-0.164l0.053-0.145l0.121,0.004l0.235,0.113l-0.019-0.233l0.029-0.095l0.212-0.066l0.053-0.078l-0.002-0.102  L29.752,84.902z M77.313,32.863l-0.187-0.27l-0.292-0.189l-0.285-0.096l-0.146-0.019l-0.27,0.022l-0.095-0.014l-0.08-0.046  l-0.084-0.084l-0.072-0.108L75.54,31.5l-0.077-0.255l0.012-0.24l0.157-0.178l0.138-0.056l0.072-0.04l0.038-0.05l-0.013-0.054  l-0.051-0.035l-0.063-0.025l-0.77-0.195l-0.27-0.012l-0.068-0.011l-1.041-0.373l-0.141-0.107l-0.104-0.139l-0.063-0.162  l-0.024-0.179l0.006-0.305l-0.022-0.147l-0.071-0.131l-0.052-0.046l-0.187-0.104l-0.053-0.038l-0.127-0.138l-0.055-0.044  l-0.176-0.101l-0.063-0.054l-0.041-0.063l-0.029-0.07l-0.063-0.213l-0.054-0.123l-0.07-0.113l-0.088-0.106L72.02,27.5l-0.371-0.201  l-0.115-0.098l-0.07-0.12l-0.033-0.14l-0.007-0.154l0.03-0.293l0.07-0.287l0.092-0.255l0.01-0.074l-0.004-0.075l-0.143-0.566  l-0.004-0.078l0.014-0.082l0.045-0.156l0.012-0.078l-0.004-0.083l-0.021-0.074l-0.065-0.143l-0.022-0.075L71.37,23.84l0.032-0.152  l0.426-1.008l0.029-0.153l0.025-0.317l-0.014-0.41l0.023-0.336l-0.004-0.083L71.868,21.3l-0.155-0.349l-0.023-0.037l-0.049-0.043  l-0.113-0.063l-0.051-0.038l-0.047-0.057l-0.103-0.197l-0.13-0.195l-0.079-0.082l-0.313-0.198l-0.123-0.044l-1.022-0.536  l-0.192-0.176l-0.195-0.233l-0.029-0.054L69.2,18.86l-0.019-0.043l-0.025-0.044l-0.096-0.118l-0.149-0.299l-0.101-0.129  l-0.429-0.259l-0.062-0.054l-0.053-0.064l-0.041-0.073l-0.061-0.209l-0.292-0.646l-0.084-0.117l-0.411-0.373l-0.089-0.107  l-0.075-0.133l-0.279-0.696l-0.33-0.578l-0.121-0.134L66.323,14.7l-0.159-0.017l-0.146,0.038l-0.127,0.084l-0.106,0.125  l-0.028,0.042L65.734,15l-0.031,0.019l-0.049,0.008l-0.106-0.022l-0.058-0.067l-0.045-0.089l-0.066-0.08l-0.1-0.066l-0.104-0.055  l-0.111-0.039l-0.113-0.02l-0.383-0.021l-0.09-0.023l-0.377-0.172l-0.057-0.036l-0.057-0.052l-0.094-0.067l-0.386-0.104l-0.17-0.016  l-0.167-0.042l-0.059-0.005l-0.094,0.016l-0.031,0.002l-0.121-0.023l-0.361-0.111h-0.066l-0.526,0.109l-0.16,0.069l-0.144,0.106  l-0.11,0.139l-0.065,0.168l-0.002,0.045l0.01,0.027l0.019,0.026l0.015,0.038l0.057,0.023l0.275,0.19l0.039,0.057l-0.007,0.063  l-0.06,0.052l-0.086,0.029l-0.241,0.042l-0.144,0.053l-0.197,0.032l-0.057,0.02l-0.057,0.035l-0.071,0.088l-0.043,0.107l-0.036,0.23  l-0.045,0.147l-0.078,0.103l-0.108,0.069l-0.14,0.049l0.012-0.015l0.014-0.03l-0.084,0.045l-0.059,0.063l-0.032,0.092l-0.011,0.126  l0.056,0.403l-0.032,0.067l-0.064,0.045l-0.06,0.098l-0.075,0.099l-0.115,0.045l-0.109-0.029l-0.204-0.133l-0.118-0.03l-0.107,0.022  l-0.565,0.254l-0.098,0.057l-0.04,0.074L58.4,17.513l-0.241,0.223l-0.101,0.06l-0.233,0.057L57.73,17.91l-0.035,0.105l0.037,0.126  l0.063,0.099v0.051l-0.146-0.02l-0.338-0.166l-0.095-0.026l0.002-0.063l0.11-0.449l-0.083-0.275l-0.212-0.107l-0.564-0.003  l-0.24-0.045l-0.22-0.114l-0.179-0.15l-0.124-0.156l-0.197,0.012l-0.196-0.1l-0.33-0.293l-0.154-0.208L54.777,16.1l-0.024-0.023  l-0.198-0.142l-0.063-0.118l-0.024-0.115l-0.043-0.099l-0.121-0.068l-0.494-0.025l-0.048,0.037l-1.103,1.182l-0.135,0.044  l-0.256-0.146l-0.259-0.071l-0.062-0.077h-0.041l-0.109,0.104l-0.054,0.126l-0.058,0.293l-0.162,0.453l-0.021,0.138l-0.613,0.119  l-0.107,0.07l-0.059,0.131l-0.07,0.077l-0.149-0.095V18l-0.017,0.09l-0.03,0.075l-0.043,0.06l-0.197,0.073l0.146,0.12l-0.131,0.09  l-0.223,0.095l-0.13,0.135l-0.026,0.054l-0.031,0.051l-0.024,0.056l-0.014,0.015l-0.062-0.131l-0.012-0.044l-0.009-0.03  l-0.017-0.006L49.66,18.71l-0.029,0.023l-0.088,0.084l-0.1,0.009l-0.1-0.01l-0.092,0.03l-0.04,0.06l0.043,0.021l0.068,0.004  l0.034,0.011l-0.006,0.043l-0.011,0.019l-0.118,0.149l-0.041,0.017l-0.05-0.004l-0.083,0.028l-0.729,0.598l-0.12,0.162l-0.134,0.257  l-0.041,0.056l-0.078,0.03l-0.088,0.016l-0.068,0.04l-0.016,0.103l0,0l-0.113,0.16l-0.035,0.036l-0.063,0.038l-0.022,0.003  l-0.028-0.019l-0.188-0.078l-0.197-0.116l-0.111-0.024l-0.091-0.116l-0.108-0.097l-0.12-0.079L46.57,20.1l-0.523-0.099l-0.105-0.082  l-0.002-0.151l0.09-0.146l0.223-0.259l0.139-0.312l0.045-0.177l-0.014-0.14l-0.015-0.069l0.014-0.057l0.042-0.045l0.063-0.033  l0.007-0.015l0.001-0.016l-0.001-0.014l-0.007-0.015l-0.043-0.049l-0.018-0.045l0.012-0.043l0.049-0.037l0.136-0.059l0.036-0.088  l-0.021-0.235l0.023-0.14l0.05-0.071l0.208-0.115l0.174-0.151l0.104-0.168l0.086-0.18l0.115-0.186l0.086-0.069l0.213-0.132  l0.05-0.09l-0.021-0.097L47.65,16.26l-0.022-0.133l0.026-0.124l0.098-0.259l0.016-0.109l-0.022-0.061l-0.043-0.034l-0.048-0.027  l-0.038-0.04l-0.054-0.139l-0.021-0.047l-0.004-0.243l0.015-0.071l0.035-0.05l0.112-0.124l0.021-0.045l-0.066-0.093l-0.416-0.193  l-0.206-0.194l-0.093-0.125l-0.045-0.119l0.035-0.139l0.191-0.198l0.048-0.133l0.013-0.069l0.026-0.032l0.424-0.234l0.089-0.086  l0.023-0.076l-0.008-0.154l0.02-0.068l0.045-0.045l0.116-0.042l0.058-0.03l0.185-0.175l0.085-0.113l0.035-0.105l-0.035-0.109  l-0.155-0.155l-0.036-0.126l0.022-0.112l0.099-0.224l0.03-0.118l-0.035-0.414l0.011-0.134l0.053-0.125l0.16-0.186l0.066-0.103  l0.063-0.227l0.047-0.101l0.279-0.271L48.79,9.72l-0.177-0.201l-0.287-0.255l-0.078-0.085l-0.043-0.107l-0.016-0.164L48.21,8.5  l-0.134-0.581l-0.002-0.043l0.011-0.035l0.002-0.039l-0.022-0.059l-0.039-0.027l-0.11-0.023L47.87,7.66l-0.04-0.206l0.036-0.284  l0.1-0.248l0.147-0.094l0.152-0.041l0.088-0.154l0.035-0.197l-0.015-0.17L48.35,6.175l-0.031-0.07L48.266,6.05l-0.088-0.049  l-0.111-0.03l-0.07,0.019l-0.061,0.043l-0.076,0.041L47.7,6.118L47.516,6.14l-0.189-0.015l-0.184-0.068l-0.289-0.18L46.71,5.824  l-0.187-0.021l-0.584,0.008L45.9,5.804l-0.034,0.005l-0.063,0.04L45.777,5.88l-0.08,0.14L45.43,6.34l-0.303,0.285l-0.063,0.091  l-0.049-0.018l-0.05-0.069l-0.059-0.067l-0.097-0.054l-0.537-0.207L44.102,6.31l-0.14,0.104l-0.128,0.211l-0.113,0.007l-0.188-0.056  l-0.19-0.083L43.225,6.42l-0.08-0.084l-0.021-0.103V6.12l-0.022-0.115l-0.054-0.091l-0.134-0.168l-0.055-0.087l-0.039-0.12  l-0.016-0.228l-0.022-0.109l-0.044-0.081l-0.11-0.142l-0.03-0.096l0.028-0.127l0.245-0.324l0.07-0.194l0.047-0.063l0.052-0.034  l0.128-0.054l0.057-0.038l0.064-0.107l0.025-0.113l0.031-0.242l0.17-0.445l0,0l0.164-0.496l0.049-0.279l-0.014-0.359L43.7,1.939  l-0.029,0.008L43.636,2.04l-0.049,0.026l-0.108-0.039l-0.107-0.066l-0.051-0.06L43.3,1.861l-0.11-0.049l-0.051-0.034l-0.025-0.04  L43.08,1.641l-0.032-0.055l-0.169-0.225L42.5,0.532l-0.132-0.147l-0.25-0.068l-0.239,0.056l-0.197,0.133l-0.13,0.167l-0.075,0.252  l-0.014,0.013l-0.036,0.005l-0.147,0.054L41.26,1.01l-0.062,0.056l0.005,0.273L41.102,1.44h-0.117l-0.119-0.063l-0.09-0.108  l-0.037-0.137l0.013-0.242l-0.289-0.185L40.41,0.628l-0.032-0.066l-0.044-0.059l-0.087-0.054l-0.097-0.02L40.074,0.43l-0.071-0.025  l-0.076-0.097l-0.063-0.054L39.84,0.189l-0.016-0.067L39.782,0.06l-0.068-0.054L39.682,0L39.65,0.016l-0.359,0.053l-0.146,0.05  l-0.119,0.079L38.95,0.305l-0.089,0.253l-0.059,0.114l-0.111,0.104l-0.115,0.04l-0.268-0.001l-0.137,0.024l-0.246,0.104L37.8,0.967  l-0.063-0.015l-0.1-0.069l-0.061-0.025l-0.068-0.005L37.387,0.87l-0.063-0.004l-0.508-0.167l-0.321-0.224L36.402,0.44l-0.129,0.047  l0.061,0.117l0.243,0.256l0.057,0.129l0.074,0.407l0.215,0.232l0.046,0.112l-0.033,0.176l-0.067,0.12l-0.073,0.048l-0.078,0.04  l-0.086,0.092L36.411,2.4l-0.793,0.247l-0.169,0.026l-0.135-0.068l-0.256-0.213l-0.115-0.054L34.672,2.26l-0.128-0.013l-0.271,0.041  l-0.291,0.115l-0.244,0.183l-0.129,0.238l-0.072,0.479l0.008,0.069l0.038,0.127l0.005,0.064L33.57,3.597l-0.03,0.037l-0.031,0.049  l-0.014,0.071l0.021,0.168l0.032,0.131l0.009,0.132l-0.053,0.174l-0.087,0.15l-0.092,0.079L33.07,4.689l-0.236,0.174L32.73,4.884  l-0.127-0.193l-0.082-0.075L32.43,4.551L32.23,4.46l-0.387,0.299l-0.126,0.044l-0.586,0.086L31.018,4.94l-0.056,0.054L30.85,5.139  l-0.051,0.034L30.65,5.201L30.52,5.253l-0.067,0.061l-0.011,0.048L30.415,5.37l-0.113-0.053L30.234,5.26l-0.051-0.064l-0.058-0.041  l-0.094,0.01l-0.23,0.122l-0.298,0.01l-0.311-0.03l-0.266,0.005l-0.294,0.141l-0.166,0.036l-0.121-0.086L28.33,5.29l0.009-0.143  l-0.031-0.068L28.26,5.052l-0.224-0.07l-0.263-0.24l-0.138-0.077l-0.167,0.028l-0.086-0.029l-0.081-0.115l-0.099-0.096l-0.14,0.032  L27.02,4.579l-0.088,0.456l0.007,0.127l0.055,0.252l-0.002,0.124l-0.034,0.088l-0.055,0.02l-0.064-0.002l-0.071,0.022L26.71,5.718  l-0.097,0.115l-0.054,0.049l-0.41,0.205l-0.246,0.036l-0.058,0.086l-0.006,0.127l0.014,0.139l0.021,0.088l0.025,0.034l0.005,0.039  l-0.045,0.102l-0.056,0.074l-0.22,0.194l-0.219,0.301l0.004,0.05l0.049,0.134l0.011,0.069l0.042,0.167l0.092,0.131l0.061,0.119  L25.57,8.113L25.508,8.14l-0.075-0.007l-0.062,0.011l-0.026,0.074l0.037,0.063l0.176,0.144l0.059,0.064l0.049,0.131l0.017,0.125  l-0.028,0.543l-0.044,0.1l-0.094,0.106l-0.41,0.315L25.034,9.94l-0.043,0.266l-0.047,0.108l-0.094,0.101l-0.139,0.1l-0.067,0.067  l0.026,0.083l0.148,0.147l0.159,0.12l0.07,0.073l0.027,0.088l-0.025,0.181l0.006,0.057l0.081,0.258l0.021,0.123l0.004,0.153  l0.032,0.259l0.075,0.275l0.047,0.28l-0.053,0.279l-0.04,0.079l-0.019,0.013l-0.032-0.009l-0.314,0.088l-0.35-0.01l-0.128,0.042  l-0.458,0.305l-0.257,0.123l-0.309-0.008l-0.163,0.029l-0.069-0.009l-0.072-0.046l-0.029-0.048l-0.019-0.058l-0.135-0.213  l-0.058-0.039l-0.189-0.023l0.04,0.078l0.143,0.133l0.074,0.131l0.027,0.102l0.152,0.317l0.168,0.262l0.022,0.152l0.002,0.158  l0.038,0.171l0.092,0.153l0.132,0.133l0.143,0.107l0.134,0.078l0.061-0.05l0.029-0.054l0.123-0.331l0.012-0.016l0.075-0.018  l0.335,0.136l0.086,0.049l0.041,0.104l-0.004,0.127l-0.05,0.106l-0.099,0.044l-0.019,0.065l0.073,0.144l0.339,0.472l0.025,0.045  l0.007,0.041v0.059l0.015,0.081l0.062,0.126l0.016,0.076l-0.008,0.041l-0.028,0.065l-0.007,0.035l0.01,0.06l0.023,0.005l0.029-0.008  l0.028,0.018l0.09,0.043l0.014,0.028l0.021,0.084l0.096,0.233l0.028,0.035l0.021,0.037l0.029,0.081l0.016,0.08l-0.021,0.037  l-0.021,0.02l-0.182,0.121l-0.187,0.328l-0.041,0.103l0.09,0.327l-0.152,0.021l0.052,0.095l0.083,0.069l0.066,0.081l0.03,0.093  l0.037,0.079l0.16,0.135l0.057,0.071l0.013,0.07l0.001,0.079l0.009,0.088l0.041,0.096l0.063,0.085l1.088,1.014l0.098,0.064  l0.156,0.074l0.069,0.043l0.059,0.066l0.029,0.103l0.146,0.229l0.068,0.196l0.046,0.095l0.087,0.093l0.09,0.047l0.096,0.032  l0.079,0.05l0.039,0.098l-0.004,0.084l-0.023,0.145l0.014,0.09l0.053,0.066l0.564,0.538l0.103,0.059l0.127,0.103l0.232,0.337  l0.15,0.104l-0.054,0.061l-0.031,0.078l0.015,0.06l0.172,0.001l0.007,0.053l-0.035,0.062l-0.024,0.023l0.088,0.156l0.091,0.087  l0.114,0.035l0.324,0.008l0.133,0.038l0.119,0.076l0.12,0.12l0.068,0.104l0.112,0.224l0.071,0.091l0.039,0.091l0.002,0.113  l0.023,0.102l0.104,0.048l0.062,0.042l0.043,0.094l0.057,0.196l-0.082-0.061l-0.075-0.021l-0.054,0.033l-0.017,0.097l0.028,0.083  l0.061,0.035l0.063,0.026l0.049,0.056l-0.021,0.075l-0.08,0.085l-0.106,0.068l-0.097,0.027l-0.079,0.113L29.9,25.63l0.013,0.122  l0.196,0.152l0.033,0.077l0.045,0.187l0.092,0.131l0.229,0.158l0.097,0.126l0.027,0.069l0.014,0.063l-0.004,0.063l-0.021,0.072  l0.001,0.074l0.041,0.071l0.402,0.536l0.055,0.124l-0.01,0.072l-0.066,0.143l0.008,0.074l0.086,0.199l0.098,0.491l0.041,0.103  l0.125,0.09l0.105-0.078l0.197-0.296l0.398-0.316l0.088-0.162l0.056-0.282l0.055-0.109l0.138-0.115l0.025,0.233l0.123,0.12  l0.153,0.1l0.112,0.167l0.006,0.125l-0.064,0.298l-0.031,0.31l-0.033,0.107l-0.186,0.217l-0.082,0.125l-0.042,0.134l-0.014,0.146  l0.005,0.158l-0.03,0.061l-0.155,0.171l-0.059,0.042l-0.102,0.014l-0.047-0.03l-0.037-0.048l-0.078-0.036L31.5,29.83l-0.116,0.006  l-0.138,0.066l-0.055,0.113l-0.041,0.137l-0.094,0.134l-0.072,0.062l-0.049,0.028l-0.058,0.007l-0.086,0.001l-0.065-0.021  l-0.082-0.036l-0.076-0.01l-0.061,0.055l0.021,0.09l0.177,0.255l0.045,0.136l-0.021,0.122l-0.08,0.266l0.004,0.164l0.05,0.285  l-0.017,0.125L30.482,32.5l-0.018,0.159l0.036,0.363l-0.015,0.389l0.154,1.014l0.014,0.343l-0.062,0.318l-0.173,0.199l-0.02-0.147  l-0.1-0.107l-0.135-0.077l-0.135-0.059l-0.127,0.066L29.8,35.003l-0.237,0.051l-0.043,0.029l-0.004,0.056l0.026,0.114l-0.009,0.061  l-0.036,0.038l-0.058,0.033l-0.008,0.008l-0.017,0.024l-0.017,0.034l-0.01,0.035l0.018,0.018l0.039,0.023l0.041,0.031l0.018,0.039  V35.7l-0.018,0.046l-0.045,0.013l-0.1-0.038l-0.227-0.138l-0.119-0.046l-0.15-0.024l-0.08,0.018l-0.232,0.333l-0.097,0.097  l-0.115,0.054l-0.253-0.012l0.005,0.08l0.084,0.201l-0.032,0.125l-0.137,0.237l-0.03,0.132l0.051,0.161l0.203,0.212l0.036,0.148  l-0.021,0.069l-0.036,0.059l-0.028,0.064l-0.002,0.089l0.026,0.071l0.131,0.233l0.045,0.149l-0.009,0.244l0.012,0.143l0.02,0.035  l0.071,0.059l0.021,0.043l-0.003,0.033l-0.021,0.1l0.052,0.131l0.357,0.569l0.797,0.77l0.086,0.134l0.059,0.146l0.035,0.164  l0.049,0.095l0.08,0.031l0.088,0.047l0.457,0.939l0.301,0.38l0.055,0.054l0.086,0.058l0.047,0.019l0.102,0.023l0.049,0.022  l0.043,0.042l0.084,0.111l0.046,0.034l0.101,0.003l0.077-0.026l0.063,0.01l0.158,0.314l0.149,0.158l0.782,0.592l0.142,0.063  l0.158,0.047l0.114,0.074l0.066,0.109l0.016,0.153l0.035,0.124l0.211,0.254l0.08,0.128l0.066,0.148l0.061,0.079l0.207,0.155  l0.029,0.04l0.033,0.101l0.025,0.041l0.035,0.019l0.092,0.025l0.029,0.021l0.034,0.057l0.015,0.044l-0.002,0.052l-0.017,0.081  l0.002,0.117l0.075,0.322l0.051,0.108l0.215,0.207l0.073,0.116l0.002,0.176l-0.021,0.154l0.017,0.566l0.235,1.044l0.007,0.13  l-0.034,0.336l0.021,0.13v0.064l-0.027,0.07l-0.038,0.057l-0.026,0.063l0.004,0.091l0.084,0.252l0.025,0.139l-0.02,0.115  l-0.096,0.086l-0.261,0.029l-0.126,0.048l-0.08,0.112l0.001,0.132l0.021,0.149l-0.019,0.17l-0.057,0.159l-0.037,0.15l0.032,0.135  l0.146,0.114l0.113,0.069l0.123,0.108l0.09,0.13l0.017,0.131l-0.027,0.076l-0.033,0.061l-0.025,0.063l-0.006,0.087l0.014,0.062  l0.088,0.205l0.021,0.207l0.021,0.066l0.054,0.072l0.131,0.126l0.052,0.078l0.022,0.138l-0.009,0.129l0.007,0.12l0.067,0.115  l0.061,0.028l0.15,0.025l0.068,0.044l0.029,0.062l0.015,0.136l0.022,0.054l0.063,0.038l0.154,0.044l0.05,0.051l0.042,0.07  l0.064,0.066l0.072,0.06l0.325,0.181l0.063,0.094l0.025,0.164v0.143l-0.021,0.148l-0.024,0.072l-0.072,0.145L36.049,54.6  l0.027,0.139l0.15,0.27l0.043,0.146l0.019,0.373l0.022,0.13l0.035,0.081l0.102,0.123l0.046,0.072l0.019,0.072l-0.017,0.123  l0.005,0.07l0.025,0.07l0.07,0.133l0.023,0.066l-0.012,0.092l-0.055,0.062l-0.063,0.052L36.46,56.74l0.022,0.119l0.093,0.022  l0.372-0.123l0.066-0.001l0.059,0.025l0.027,0.06l-0.017,0.063l-0.026,0.068l-0.012,0.076l-0.104,0.315l-0.022,0.187l0.104,0.098  l0.125,0.039l0.09,0.082l0.048,0.114l-0.009,0.136l-0.103,0.271l-0.021,0.139l0.048,0.148l0.082,0.102l0.118,0.104l0.127,0.081  l0.111,0.032l0.014,0.063l-0.096,0.444l-0.057,0.158l-0.425,0.569L37,60.199l-0.273,0.017l-0.151,0.03l-0.108,0.066l-0.061,0.111  l-0.01,0.155l0.014,0.271l-0.023,0.112l-0.063,0.132l-0.081,0.112l-0.188,0.19l-0.063,0.106l-0.037,0.165l-0.011,0.117l-0.041,0.111  l-0.25,0.271l-0.069,0.104l-0.101,0.269l-0.08,0.149l-0.213,0.256l-0.086,0.147l-0.199,0.599l-0.045,0.056l-0.141,0.047  l-0.064,0.037l-0.049,0.063l-0.063,0.137L34.5,64.098l-0.123,0.096l-0.264,0.138l-0.107,0.108L33.979,64.5l-0.06,0.202l-0.058,0.081  l-0.064-0.002l-0.068-0.036l-0.076-0.022l-0.084-0.013l-0.032-0.019L33.51,64.7l-0.061,0.063l-0.038,0.06l-0.026,0.069l-0.016,0.071  l-0.004,0.069l0.015,0.081l0.054,0.137v0.099l-0.024,0.133l-0.027,0.055l-0.05,0.054l-0.031,0.007L33.064,65.7l-0.072-0.003  l-0.057-0.027l-0.062-0.015l-0.088,0.04l-0.058,0.062l-0.054,0.138l-0.047,0.059l-0.049,0.015l-0.142,0.011l-0.063,0.019  l-0.126,0.112l-0.292,0.386l-0.066,0.151l-0.058,0.287l0.022,0.084l0.127,0.109l0.043,0.072l0.094,0.419l-0.006,0.133l-0.092,0.255  l-0.067,0.34l-0.121,0.405l-0.01,0.144l-0.101,0.248l-0.024,0.131l-0.013,0.138l-0.031,0.157l-0.051,0.148l-0.151,0.289  l-0.183,0.512l-0.095,0.105l-0.293,0.505l-0.026,0.087v0.043l0.071,0.094l0.015-0.039l0.072-0.009l0.064,0.027L31.063,71.4  l-0.059,0.031l-0.146-0.002l-0.053,0.035l-0.054,0.083l-0.067,0.063l-0.012,0.035l0.047,0.028l0.049,0.013l0.023,0.025l-0.029,0.07  l-0.1,0.072l0.039,0.043l-0.059,0.028l-0.051,0.001l-0.042-0.023l-0.03-0.047l-0.08,0.072l-0.104,0.122l-0.054,0.116l0.117,0.075  l0.027,0.051l0.035,0.047l0.059,0.013l0.063-0.039l0.108-0.137l0.055-0.049l-0.055,0.12l-0.059,0.099l-0.068,0.078l-0.094,0.066  l-0.062,0.02l-0.054,0.002l-0.051,0.014l-0.057,0.057l0.006,0.023l0.002,0.149l-0.008,0.054h0.041l0.008-0.029l0.008-0.021  l0.03-0.046L30.4,72.75l0.058,0.016h0.135l0.044,0.03l-0.029,0.063l-0.053,0.057l-0.029,0.007l-0.033,0.114l-0.081,0.018  l-0.104-0.043l-0.1-0.063l-0.045,0.041l0.085,0.054l0.043,0.072L30.27,73.17l-0.107,0.006l0.117,0.157l0.018,0.049l-0.015,0.03  l-0.062,0.078l-0.015,0.025l-0.067-0.004l-0.123,0.092l-0.055,0.111l0.135,0.055l0.014,0.019l0.025,0.088l0.026,0.029l0.053,0.006  l0.127-0.017l0.05,0.011l0.019,0.064l-0.074,0.083l-0.218,0.17l-0.196-0.138l-0.094,0.187l-0.115,0.588l-0.136,0.234l-0.053,0.12  l-0.09,0.414l-0.047,0.123l-0.08,0.108l-0.021,0.089l-0.06,0.11l0.002,0.105l0.121,0.063l-0.099,0.108l-0.053,0.049l-0.056,0.021  l-0.082-0.026l-0.031-0.038l0.006,0.135l0.035,0.166l0.086,0.146l0.193,0.255l0.073,0.21l-0.106,0.053l-0.155,0.008l-0.082,0.071  l0.019,0.173l0.065,0.053l0.125-0.032l0.196-0.08l-0.154,0.168l-0.063,0.092l0.017,0.084l0.022,0.063h-0.082l-0.1-0.025  l-0.023-0.018l-0.054,0.031l-0.084,0.16l-0.128,0.178l-0.063,0.263L28.63,78.72l-0.032,0.148l-0.024,0.409l-0.015,0.046  l-0.022,0.042l-0.05,0.05l-0.056,0.034l-0.049,0.035l-0.025,0.063l0.018,0.089l0.105,0.263l0.013,0.146l-0.017,0.067L28.4,80.314  l-0.004,0.033l0.004,0.107l-0.01,0.027l-0.02,0.027l-0.018,0.032l0.003,0.044l0.066,0.084l0.095,0.063l0.058,0.082l-0.038,0.133  l-0.16-0.172l-0.047-0.084l-0.018-0.127l-0.022-0.062l-0.045,0.052l-0.033,0.118l0.01,0.142l0.281,0.849l0.134,0.622l0.061,0.097  l0.039,0.097l0.002,0.283l0.025,0.098l0.035,0.041l0.043,0.025l0.053,0.016l0.073,0.006l0.076,0.021l0.026,0.047l0.021,0.049  l0.17,0.067l0.121,0.226l0.104,0.096l0.07-0.083l0.02-0.04l0.005-0.063h0.042l0.087,0.105l0.14-0.178l0.111-0.271l-0.003-0.178  l-0.04-0.1l0.002-0.129l-0.025-0.108l-0.203-0.082l0.041-0.071l0.113-0.053l0.139,0.016v-0.086h0.045l0.043,0.065l0.045,0.007  l0.033-0.044l0.014-0.078h0.045l0.064,0.08l0.104-0.034l0.104-0.083l0.068-0.073l0.104-0.053l0.115-0.007l0.092-0.039l0.029-0.147  l0.112,0.045l0.144,0.028l0.086,0.042L31.18,81.93l-0.107,0.079l-0.035,0.056l-0.027,0.353l0.014,0.078h0.045V82.45h0.045  l0.07,0.021l0.189-0.121l0.126-0.037l0.046,0.067l0.021,0.479h0.041l0.096-0.187l0.111,0.261l0.022,0.104v0.113l-0.022,0.211  l0.022,0.091l-0.017,0.323l0.017,0.127l0.032,0.056l0.086,0.086l0.018,0.06l0.014,0.097h0.035l0.086-0.074l0.022-0.035l0.019-0.057  l0.037-0.024l0.082,0.049l0.032,0.057l0.046,0.146l0.031,0.052l0.094,0.025l0.096-0.038l0.098-0.055l0.102-0.028l0.022-0.023  l0.05-0.117l0.039-0.038l0.085-0.021l0.026,0.018L33,84.083l0.038,0.069l0.052,0.045l0.105,0.058l0.047,0.058l0.021,0.058  l-0.002,0.036l-0.013,0.042l-0.007,0.065l0.049,0.133l0.107,0.062l0.105,0.03l0.048,0.049l0.103,0.17l0.033,0.038l0.084,0.013  l0.063-0.025l0.128-0.127l0.004,0.112l-0.042,0.197l-0.011,0.123l-0.041,0.08L33.6,85.582l0.086,0.174l0.037,0.438l0.15,0.158  l0.232,0.045l0.138-0.09l0.063-0.182l0.017-0.227h0.04l0.047,0.149l0.104,0.093l0.129,0.071l0.131,0.097l0.09,0.127l0.056,0.039  l0.104,0.017l0.088,0.041l0.08,0.094l0.043,0.092l-0.027,0.043l-0.075,0.019l0.021,0.044l0.064,0.044l0.059,0.029l0.057-0.008  l0.059-0.029l0.047,0.01l0.047,0.3l0.05,0.165l0.01,0.146l-0.089,0.14l0.051,0.017l0.145-0.002l0.031,0.01l0.014,0.075l0.064,0.108  l0.016,0.044l0.022,0.301l-0.012,0.157l-0.062,0.107l0.192,0.312l0.082,0.103l0.094,0.058l0.188,0.032l0.033,0.02L36.35,89  l0.09,0.055l0.1,0.043l0.068,0.021l0.115-0.038l0.025-0.095l-0.027-0.233l0.021-0.103l0.045-0.133l0.069-0.095l0.088,0.011  l0.024,0.09l-0.03,0.283l0.025,0.104l0.163,0.062l0.128-0.135l0.188-0.355h0.041l-0.034,0.222l-0.085,0.237L37.24,89.13L37.1,89.208  l-0.035,0.146l0.117,0.311l0.172,0.271l0.129,0.035h0.051l0.02,0.094l0.047-0.002l0.109-0.092l0.229-0.132l-0.002,0.233l0.037,0.08  l0.1,0.048l0.078-0.034l0.125-0.068l0.111-0.035l0.051,0.071l-0.186,0.248l-0.021,0.044l-0.074,0.042l-0.066,0.104l-0.105,0.221  l0.045,0.087l-0.025,0.136l-0.008,0.127l0.102,0.056l0.07,0.028l0.039,0.062l0.006,0.063l-0.023,0.027l-0.096,0.001l-0.035,0.015  l-0.029,0.119l-0.002,0.268l0.164,0.15l0.572,0.215l0.033,0.026l0.047,0.062l0.055,0.171l0.047,0.087l0.059-0.006l0.118-0.041  l0.104,0.091l0.158,0.248l0.172,0.13l0.071,0.084l0.031,0.122l0.028,0.063l0.063,0.008l0.063-0.002l0.027,0.021l0.012,0.072  l0.059,0.112l0.018,0.065l-0.013,0.031l-0.062,0.08l-0.014,0.049l0.021,0.03l0.049-0.012l0.085-0.045l0.046,0.029l0.025,0.066  l0.019,0.076l0.022,0.059l0.188,0.216l0.223,0.187l0.063-0.146l0.05-0.055l0.087-0.021l0.066,0.045l-0.01,0.106l-0.08,0.213  l0.119,0.035l0.078,0.109l0.049,0.137l0.052-0.104l0.059-0.145l0.026-0.166l-0.002-0.057l-0.021-0.115l0.006-0.058l0.045-0.069  l0.058-0.049l0.04-0.058l-0.014-0.095l-0.053-0.153l-0.008-0.11l0.044-0.269l0.009-0.149l0.02-0.076l0.042-0.055l0.094-0.029  l0.062,0.037l0.047,0.058l0.057,0.03l0.1,0.002v-0.013l0.102-0.063l0.061-0.005l0.075,0.006l0.07,0.025l0.045,0.049l0.245,0.739  l0.074,0.124l0.129,0.114l0.255,0.122l0.147,0.046l0.11,0.007l0.17-0.02l0.099,0.023l0.211,0.151l0.121,0.056l0.401,0.116  l0.226,0.101l0.119,0.029l0.117-0.017l0.426-0.304h0.112l0.01,0.041l-0.002,0.146l0.019,0.054l0.056,0.042l0.062,0.008h0.068  l0.075,0.01l0.151,0.09l0.062,0.127l0.019,0.313l0.016,0.076l0.029,0.072l0.078,0.134l0.014,0.054l-0.014,0.061L45.535,95.6  l-0.014,0.061l0.006,0.189l0.016,0.056l0.057,0.099l0.027-0.005l0.036-0.043l0.081-0.026l0.088,0.012l0.275,0.068l0.123-0.031  l0.174-0.187l0.125-0.026l0.214,0.174l0.108,0.037l0.303-0.065l0.085,0.028l0.044,0.084l0.018,0.137l-0.013,0.158l-0.06,0.058  l-0.088,0.039l-0.089,0.11l-0.006,0.151l0.104,0.099l0.123,0.094l0.047,0.129l-0.034,0.258l-0.011,0.375l-0.047,0.217l-0.011,0.123  l-0.05,0.122l-0.12,0.044l-0.14,0.028L46.8,98.234l-0.271,0.547l-0.043,0.074l-0.018,0.076l0.014,0.075l0.084,0.132l0.078,0.153  l0.045,0.054l0.064,0.023l0.125-0.004l0.064,0.012l0.148,0.102l0.125,0.142l0.102,0.166l0.074,0.165L47.5,100l0.184-0.059  l0.31-0.185l0.103-0.098l0.084-0.115l0.057-0.135l0.02-0.146l0.082-0.301l0.202-0.105l0.26-0.045l0.255-0.123l0.23-0.146  l0.938-0.364l0.154-0.033l0.141,0.03l0.104,0.142l0.03,0.074l0.037,0.051l0.049,0.033l0.078,0.01l0.063,0.027l0.002,0.053  l-0.021,0.066l-0.004,0.059l0.129,0.302l0.104,0.114l0.137,0.025l0.065-0.033l0.119-0.106l0.08-0.023l0.087,0.025l0.052,0.065  l0.042,0.08l0.059,0.071l0.14,0.073l0.108-0.012l0.076-0.082l0.055-0.141l0.033-0.039l0.192-0.117l0.041-0.059l0.021-0.061  l0.033-0.057l0.073-0.046l0.216-0.187l0.041-0.254l0.004-0.28l0.1-0.271l0.162-0.197l0.488-0.377l0.176-0.174l0.074-0.209  l-0.031-0.516l0.043-0.348l-0.349-0.25l-0.735-0.7l-0.66-0.413l-0.241-0.239l-0.683-1.043l-0.674-1.144l-0.059-0.064l-0.229-0.125  l-0.182-0.074l-0.049-0.041l-0.109-0.037l-0.127-0.028l-0.101-0.013l-0.116-0.027l-0.217-0.124l-0.264-0.103l-0.17-0.137  l-0.176-0.076l-0.209,0.107l0.434,0.177l0.193,0.138l-0.041,0.139l-0.027-0.012l-0.185-0.002l-0.014,0.014l-0.048-0.027  l-0.098-0.088l-0.015-0.018l-0.135,0.02l-0.296,0.159l-0.239,0.046l-1.087,0.038l-0.234-0.093l-0.47-0.312l-0.271-0.223  l-0.095-0.054l-0.098-0.02l-0.162,0.02h-0.101l-0.17-0.051l-0.127-0.105l-1.017-1.385l-0.088-0.176l-0.036,0.088l-0.023,0.174  l-0.053,0.08l-0.271,0.229l-0.052,0.019l-0.08-0.008l-0.164-0.035l-0.113,0.021l-0.034-0.032l0.011-0.121l-0.149,0.043l-0.13-0.039  l-0.092-0.104l-0.031-0.152l-0.069-0.054l-0.046-0.055l-0.021-0.073l0.02-0.039l0.045-0.034l0.057-0.021l0.057-0.016l-0.039-0.07  l-0.061-0.032l-0.066-0.023l-0.059-0.052l-0.025-0.063l-0.012-0.08l-0.004-0.154l-0.058-0.143l-0.136-0.045l-0.163-0.002  l-0.144-0.02l-0.16-0.128l-0.119-0.208L41.6,87.828l-0.018-0.031l-0.031-0.042l-0.14-0.118l-0.019-0.021l-0.072-0.047l-0.041-0.112  l-0.045-0.244l-0.116-0.315l-0.077-0.557l0.012-0.128l0.077-0.092l0.356-0.315l0.135-0.025l0.129-0.047l0.126-0.022l0.126,0.048  l0.12,0.2l0.091,0.331l0.042,0.35l-0.022,0.256l-0.092,0.123l-0.226,0.139l-0.044,0.128v0.079l0.005,0.053l0.021,0.044l0.041,0.046  l0.07,0.038l0.041-0.034l0.049-0.113l0.196-0.16l0.194-0.043l0.166,0.08l0.121,0.209l0.027,0.459l0.078,0.213l0.116,0.723  l-0.006,0.148l-0.089,0.176l0.056,0.033l0.255,0.023l0.053,0.033l0.036,0.046l0.316,0.249l0.155,0.093l0.108,0.001l0.058-0.113  l-0.026-0.121l-0.071-0.114l-0.488-0.567L43,87.818l-0.479-2.305l-0.426-1.939l-0.209-1.315l-0.337-0.87l-0.077-0.141l-0.185-0.207  l-0.198-0.146l-0.128,0.057l0.222,0.087l0.068,0.231l0.014,0.269l0.061,0.19l-0.085,0.053l-0.104,0.022l-0.09-0.019L41.014,81.7  l-0.031-0.019l-0.146-0.062l-0.05-0.03l-0.039-0.058l-0.042-0.134l-0.108-0.158l-0.144-0.287l-0.027-0.113l-0.059-0.099  l-0.373-0.224l-0.113-0.175l-0.054-0.211l-0.131-1.292l-0.086-0.206l0.031-0.104l-0.076-0.509v-0.162l0.017-0.047l0.03-0.049  l0.029-0.033l0.015-0.008l-0.013-0.072l-0.063-0.11l-0.015-0.067v-0.316l-0.021-0.104l-0.05-0.079l-0.061-0.076l-0.054-0.086  l-0.032-0.129l-0.004-0.502l-0.054,0.047l-0.121-0.209l-0.044-0.106l0.012-0.074l-0.008-0.063l-0.251-0.109l-0.079-0.076  l-0.037,0.028l-0.072,0.036l-0.033,0.031l-0.191-0.076l-0.087-0.006l-0.037,0.057l-0.044-0.01l-0.249-0.016l-0.003,0.012  l-0.109,0.078l-0.205,0.051l-0.047,0.021l-0.069,0.046l-0.089,0.046l-0.109,0.021l-0.299-0.055l-0.082,0.01l-0.094,0.08  l-0.049,0.108l-0.031,0.117l-0.051,0.103l-0.18,0.127L36.43,76.43l-0.218-0.003l-0.216,0.023l-0.182-0.175l-0.322-0.022  l-0.309-0.065l-0.138-0.305l-0.026-0.275l0.035-0.108l0.127-0.138l0.061-0.045l0.165-0.09l0.016-0.029l-0.008-0.031l0.004-0.023  l0.056-0.011l0.047,0.004l0.029,0.009h0.033l0.053-0.013l-0.386-0.496l-0.276-0.509l-0.022-0.109l-0.015-0.15L34.9,73.764  l-0.201-0.304l-0.057-0.146l-0.037-0.151l-0.035-0.261l-0.092-0.268l-0.021-0.139l0.008-0.143l0.016-0.063l0.021-0.065l0.027-0.037  l0.082-0.064l0.025-0.038l0.002-0.049l-0.018-0.028L34.6,71.986l-0.01-0.019v-0.528l-0.045-0.293l0.021-0.084l0.092-0.068  l0.021-0.078l-0.033-0.118L34.578,70.7l-0.064-0.12l-0.012-0.186l0.055-0.166l0.178-0.293l0.037-0.158l0.06-0.096l0.267-0.025  l0.086-0.133l-0.123,0.033l-0.076-0.02l-0.121-0.146l-0.245-0.223l-0.069-0.102l-0.047-0.289l0.002-0.074l0.061-0.071l0.07-0.014  l0.088-0.009l0.102-0.047l0.085,0.041l0.069,0.045l0.047,0.061l0.023,0.086l0.146-0.084l0.049-0.007l0.095-0.001l0.044-0.047  l0.029-0.109l0.008-0.122l-0.011-0.085l-0.074-0.078l-0.204-0.135l-0.042-0.088l0.022-0.104l0.053-0.076l0.063-0.072l0.049-0.089  L35.206,67.7l-0.06-0.015l-0.041-0.029l-0.017-0.049l0.027-0.09l0.069-0.031l0.08-0.012l0.072-0.029l0.064-0.112l0.054-0.319  l0.041-0.136l0.071-0.106l0.092-0.106l0.107-0.081l0.116-0.031l0.089-0.009l0.014-0.026l-0.02-0.048L35.951,66.4l0.023-0.06  l0.396-0.601l0.029-0.121v-0.273l0.023-0.063l0.057-0.031l0.063-0.016l0.096-0.01l0.123,0.006l0.012,0.027l0.049,0.047l0.055,0.004  l0.025-0.102l-0.025-0.141l-0.102-0.278l-0.014-0.155l0.028-0.119l0.092-0.226l0.021-0.134l-0.021-0.119l-0.097-0.241l-0.021-0.144  l0.014-0.123l0.033-0.104l0.045-0.09l0.047-0.072l0.088-0.093l0.117-0.078l0.104-0.003l0.049,0.132l0.11-0.105V62.99l-0.11-0.278  l-0.021-0.139l0.021-0.388l0.028-0.065l0.127-0.136l0.028-0.071l0.018-0.062l0.17-0.377l0.042-0.135l0.026-0.142l0.011-0.158  l0.028-0.119l0.127-0.187l0.029-0.104l0.031-0.073l0.536-0.885l0.188-0.184l0.242-0.028l-0.041-0.077l0.006-0.063l0.021-0.049  l0.015-0.041l-0.05-0.254l0.003-0.074l0.016-0.049l0.048-0.028l0.094-0.011l0.021-0.037l-0.09-0.235l0.053-0.31l0.16-0.293  l0.658-0.696l0.146-0.24l0.026-0.06l0.041-0.24l0.043-0.064l0.105-0.082L40.2,56.52l0.03-0.082l-0.002-0.063L40.21,56.32  l-0.021-0.139l-0.03-0.07l-0.05-0.061l-0.065-0.062l-0.06-0.074l-0.008-0.063l0.146-0.496l0.058-0.1l-0.009-0.097l-0.198-0.479  l-0.024-0.148l0.024-0.426l-0.02-0.139l-0.112-0.435l-0.004-0.285l0.031-0.284l0.062-0.275l0.088-0.264l0.237-0.381l0.037-0.1  l0.09-0.484l0.065-0.217l0.047-0.096l0.218-0.295l0.06-0.105l0.017-0.118l-0.108-0.261l-0.068-0.254l-0.004-0.06l-0.021-0.067  l-0.047-0.05l-0.047-0.037l-0.021-0.032l-0.384-0.321l-0.207-0.276l-0.043-0.224l0.015-0.118l0.097-0.051l0.106-0.028l0.082-0.075  l0.051-0.104l0.012-0.118l-0.094-0.041l0.135,0.036l0.063-0.104l0.051-0.14l0.096-0.069l0.105-0.029l0.289-0.129l0.246-0.052  l0.572-0.224l0.105-0.058l0.076-0.079l0.066-0.128l0.1,0.078l0.313,0.156l0.127-0.053l0.162-0.013l0.322,0.015l0.832-0.146  l0.129-0.059l0.056-0.096l-0.007-0.284l0.024-0.109l0.072-0.136l0.008,0.106l-0.016,0.094L44,47.165l-0.014,0.063l0.019,0.051  l0.119,0.047l0.261,0.185l0.198,0.074l0.462,0.063l0.143,0.059l0.28,0.034l0.331,0.099l0.165,0.022h0.406l0.084-0.021l0.067-0.05  l0.067-0.063l0.078-0.055v0.046l-0.115,0.205l-0.05,0.146l0.096,0.132l0.014,0.146L46.6,48.503l-0.025,0.095l-0.106,0.07  l-0.12,0.027l-0.097,0.043l-0.056,0.151l-0.03,0.032l-0.031,0.043l-0.015,0.071l0.02,0.045l0.09,0.146l0.03,0.064l0.071,0.241  l0.005,0.13l-0.054,0.114l-0.141,0.196l-0.107,0.196l-0.139,0.184l0.027,0.07l0.063,0.029l0.063,0.02l0.027,0.042l0.037,0.117  l0.076,0.096l0.067,0.109l0.003,0.16l-0.033,0.068l-0.063,0.067l-0.07,0.033l-0.058-0.032l-0.02,0.057l-0.015,0.123l-0.017,0.051  l-0.053,0.055l-0.057,0.035l-0.049,0.039l-0.022,0.063l0.025,0.09l0.249,0.355l0.046,0.087l0.035,0.095l0.01,0.104l-0.028,0.114  l-0.052,0.076l-0.06,0.061l-0.045,0.074h-0.041l-0.117-0.059l-0.088,0.126l-0.113,0.3l0.123,0.043l0.056,0.002l-0.022,0.039  l-0.045,0.104l-0.021,0.039h0.137l-0.012,0.053l-0.021,0.038l-0.026,0.029l-0.032,0.021l0.084-0.015l0.063-0.022l0.058-0.004  l0.071,0.041l0.119-0.066l0.113,0.064l0.039,0.111l-0.096,0.072v0.043l0.318,0.143v-0.162l0.021-0.113l0.073-0.068l0.287-0.053  l0.229-0.129l0.141-0.029l1.062,0.138l0.492,0.121l0.458,0.205l0.165,0.106l0.071-0.008l0.029-0.125l0.063-0.063l0.148-0.051  l0.289-0.045l0.196,0.049l0.108-0.004l0.072,0.007l0.03-0.005l0.011-0.029l-0.005-0.046l0.011-0.044l0.049-0.02l0.272,0.021  l0.134-0.013l0.114-0.059l0.056-0.084l0.051-0.105l0.068-0.092l0.12-0.039l0.406,0.015l0.108,0.03l0.17,0.09l0.145,0.102  l0.123,0.123l0.107,0.15l0.035,0.07l0.021,0.057l0.024,0.052l0.056,0.051l0.056,0.011l0.057-0.01l0.043,0.023l0.025,0.113  l-0.137-0.043l0.047,0.096l0.096,0.098l0.224,0.17L52.945,54.1l-0.088-0.289l0.021-0.037l0.06-0.043l0.012-0.041l0.014-0.03  l0.029,0.032l0.029,0.068l0.014,0.07v0.292l0.085-0.028l0.12,0.012l0.111,0.039l0.09,0.097l0.229,0.344l0.002-0.192l0.014-0.09  l0.033-0.084l-0.142-0.004l-0.076-0.07l-0.062-0.092l-0.086-0.063v-0.051l0.084-0.026l0.28-0.015l-0.142,0.136l0.029,0.056  l0.336-0.008l-0.034,0.014l-0.033,0.019l-0.065,0.061l0.049,0.037l0.049,0.006l0.043-0.026l0.035-0.065h0.05l-0.046,0.097  L53.9,54.29l-0.043,0.056l0.086,0.061l-0.047-0.014l-0.037-0.006l-0.027-0.019l-0.023-0.056l-0.041,0.141l0.102,0.158l0.148,0.16  l0.106,0.142l-0.011,0.063l0.082,0.059l0.197,0.107l0.406,0.416l0.239,0.117l0.058-0.134l-0.068-0.207l-0.133-0.103l0.033-0.073  l-0.005-0.066l-0.03-0.065l-0.043-0.072l-0.142,0.096h-0.04l0.032-0.07l0.006-0.063l-0.024-0.056l-0.063-0.039l0.03-0.016  l0.108-0.031l0.04,0.086l0.094,0.01l0.104-0.037l0.078-0.059l-0.038,0.074l-0.006,0.082l0.016,0.084l0.028,0.082h0.044l0.098-0.182  l0.042-0.053H55.3L55.221,55l-0.039,0.143l-0.018,0.297l0.054,0.158l0.121,0.012l0.136-0.078l0.096-0.114l-0.019-0.043l-0.026-0.039  l-0.039-0.032l-0.053-0.022l0.086-0.071l0.098,0.059l0.05,0.137l-0.051,0.156l-0.104,0.108l-0.141,0.108l-0.164,0.057l-0.178-0.045  l0.014,0.121l0.12,0.201l0.046,0.136l-0.007,0.03l-0.017,0.043l-0.004,0.053l0.026,0.059l0.036,0.024l0.146,0.065h0.041l0.077-0.115  l0.095,0.013l0.104,0.063l0.71,0.248l0.202,0.104l0.184,0.134l0.121,0.152l0.006,0.054l-0.007,0.146l0.022,0.029l0.063,0.02  l0.069,0.031h0.055l0.024-0.073l-0.013-0.048l-0.082-0.157l-0.095-0.623l0.031-0.124l0.077-0.044l0.104-0.022l0.107-0.062v0.046  l-0.008,0.07l0.242,0.189l0.08,0.109l-0.154-0.016l0.013,0.063l0.776,0.75l0.113,0.19l0.067,0.298v0.435l0.042,0.068l0.277,0.229  l0.447,0.594l0.088,0.188l0.014,0.157l-0.018,0.347l0.049,0.137l0.099-0.153l-0.022-0.382l-0.076-0.268l-0.188-0.281l-0.276-0.392  l-0.304-0.582l-0.065-0.333l-0.105-0.232l-0.132-0.158l-0.338-0.521l-0.052-0.267l0.15-1.099l0.033-0.127l0.07-0.127l0.17-0.148  l0.057-0.096l-0.02-0.131l-0.075-0.088l-0.214-0.113l-0.09-0.098l-0.018-0.052l-0.011-0.112l-0.024-0.056l-0.047-0.044l-0.164-0.098  l-0.503-0.508l-0.196-0.145L56.6,53.368l-0.104-0.077l-0.047-0.107l-0.018-0.144l0.01-0.142l0.029-0.105l0.084-0.072l0.067-0.214  l0.007-0.063l-0.016-0.084l-0.024-0.045l-0.032-0.041l-0.039-0.069l-0.041-0.14l-0.027-0.258l-0.033-0.156l-0.041-0.074L56.357,51.5  l0.01-0.068l0.074-0.082l0.009-0.023L56.441,51.3l-0.058-0.053l-0.012-0.029l0.011-0.026l0.035-0.022l0.048-0.024l0.034-0.027  l0.021-0.035l0.002-0.041l-0.111-0.066l-0.066-0.09l-0.104-0.212l-0.301-0.351l-0.129-0.228l-0.355-0.933l-0.008-0.474l0.044-0.41  l-0.028-0.51l0.006-0.098l-0.006-0.054l-0.025-0.062l-0.07-0.114l-0.01-0.071l0.125-0.159l0.258-0.028l0.533,0.045l0.402-0.034  l0.127-0.045l0.312-0.18l0.12-0.033l-0.232-0.152l-0.143-0.139l0.01-0.143l0.211-0.163l0.663-0.324L57.9,45.88l0.026-0.063  l0.011-0.14l0.016-0.068l0.031-0.057l0.117-0.146l0.055-0.118l0.113-0.368l0.121-0.216l0.161-0.162l0.38-0.297l0.1-0.112  l0.021-0.087l-0.002-0.101l0.021-0.155l0.047-0.105l0.137-0.196l0.049-0.109l0.016-0.133l0.002-0.119l0.029-0.109l0.104-0.104  l0.111-0.053l0.242-0.07l0.113-0.065l0.527-0.454l0.219-0.117l0.133-0.044l0.398-0.06l0.494-0.152l0.447,0.001l0.143-0.018  l0.113-0.052l0.185-0.133l0.096-0.027l0.024,0.016l0.033,0.034l0.053,0.031l0.068,0.009l0.049-0.02l0.248-0.173l0.256-0.13  l0.109-0.019l0.119,0.04l0.09,0.058l0.094,0.021l0.139-0.069l0.039-0.054l0.011-0.055l0.021-0.049l0.063-0.037l0.066-0.005  l0.066,0.019l0.053,0.036l0.041,0.043l0.017,0.069l-0.015,0.16l0.021,0.063l0.05,0.018l0.227,0.016l0.387,0.098l0.125,0.015  l0.087-0.008l0.054-0.013l0.058-0.001l0.095,0.031l0.071,0.043l0.065,0.051l0.073,0.043l0.099,0.02l0.115-0.015l0.034-0.039  l0.019-0.054l0.061-0.057l0.357-0.018l0.181,0.149l0.228-0.051l0.25-0.123l0.241-0.065l0.039,0.021l0.033,0.04l0.047,0.035  l0.082,0.002l0.051-0.024l0.163-0.179l0.012-0.036l0.014-0.02l0.058,0.002l-0.021,0.024l0.006,0.061l0.037,0.062l0.08,0.029  l0.119-0.033l0.086-0.069l0.1-0.054l0.156,0.014l0.357,0.146l0.751,0.109l0.046,0.019l0.043,0.012l0.063-0.001l0.035-0.021  l0.043-0.037l0.054-0.038l0.069-0.019l0.119,0.023l0.104,0.047l0.106,0.021l0.133-0.055l0.072-0.082l0.063-0.104l0.073-0.097  l0.104-0.061l0.105-0.002l0.164,0.07l0.111-0.005l0.043-0.034l0.064-0.107l0.055-0.023l0.055,0.026l0.033,0.121l0.045,0.036  l0.1-0.021l0.197-0.156l0.092-0.047l0.107,0.012l0.09,0.055l0.088,0.069l0.107,0.055l0.047,0.003l0.125-0.02l0.06,0.002l0.053,0.021  l0.104,0.07l0.055,0.026l0.375,0.068l0.124,0.038l0.03,0.082l0.002,0.092l-0.03,0.307l0.012,0.058l0.21,0.387l0.115,0.132  l0.145,0.069l0.356-0.11l0.204-0.339l0.148-0.337l0.193-0.104l0.092,0.003l0.346-0.081l0.121-0.048l0.045-0.053l0.08-0.144  l0.047-0.039l0.064,0.006l0.116,0.08l0.084,0.005l0.037-0.03l0.125-0.123l0.054-0.042l0.075-0.025l0.176-0.032l0.068-0.034  l0.026-0.048l0.057-0.156l0.033-0.065l0.043-0.051l0.152-0.14l0.211-0.278l0.08-0.183l0.018-0.2l-0.096-0.448l0.01-0.207  l0.053-0.312l-0.023-0.065l-0.072-0.121l-0.01-0.152l0.031-0.154l0.051-0.124l0.031-0.021l0.09-0.021l0.03-0.026l-0.003-0.035  l-0.047-0.096l-0.008-0.103l0.014-0.041l0.027-0.007l0.103,0.005l0.035-0.015l0.052-0.15l-0.109-0.215l0.063-0.13l0.263-0.166  l0.063-0.09l-0.176-0.034h-0.002v-0.001l-0.084-0.063l-0.193-0.275l-0.008-0.028l0.003-0.075l-0.017-0.033l-0.027-0.007  l-0.088,0.016l-0.032-0.009l-0.162-0.166l-0.146-0.028l-0.055-0.112v-0.153l0.025-0.146l0.046-0.138l0.056-0.094l0.27-0.283  l0.183-0.148l0.19-0.122l0.025-0.012l0.004-0.183l-0.021-0.146l-0.021-0.029l-0.127,0.025l-0.13,0.003l-0.133-0.025l-0.104-0.066  l-0.037-0.124l0.058-0.15l0.132-0.087l0.309-0.098l0.232-0.148l0.105-0.104l0.039-0.122l0.011-0.288l0.028-0.148l0.164-0.422  l0.064-0.35L77.313,32.863z"/></svg>