<svg xmlns="http://www.w3.org/2000/svg" xmlns:xlink="http://www.w3.org/1999/xlink" version="1.1" x="0px" y="0px" viewBox="0 0 100 100" fill="#999999" style="enable-background:new 0 0 100 100;" xml:space="preserve"><path d="M29.4,53.4c0.2,0.3,0,0.5-0.1,0.7c-0.1,0.1-0.3,0.3-0.3,0.4c0,0.1,0.1,0.1,0.1,0.2c0,0.4-0.2,0.7,0.1,1  c0.2,0.2,0.2,0.3,0.4,0.4c0.1,0,0.3,0.1,0.4,0.1c0.4,0.2,0.6,0.2,0.9,0c0.3-0.1,0.5-0.4,0.7-0.6c0.5-0.4,1.1-0.2,1.6-0.7  c0.2-0.3,0.2-1.1,0.6-1.2c0.3,0,0.5,0.6,0.7,0.8c0.2,0.1,0.5,0.2,0.8,0.4c0.4,0.3,0.4,0.3,0.5,0.7c0.1,0.4,0,0.8-0.1,1.3  c-0.1,0.5-0.3,1-0.3,1.5c0.1,0.8,0.3,1-0.5,0.9c-0.5,0-0.6,0.1-1,0.4c0,0-0.6,0.5-0.6,0.5c-0.4,0-0.7-0.9-1.2-0.9  c-0.4-0.1-1-0.1-1.4,0.1c-0.2,0.1-0.1,0-0.3,0.2c-0.1,0.2-0.2,0.6-0.3,0.9c-0.1,0.6,0.2,1.4,0.5,1.9c0.1,0.2,0,0.2,0.1,0.3  c0,0,0.5,0.3,0.5,0.3c0.4,0.2,0.7,0.3,0.8,0.7c0.1,0.4,0,0.6,0.2,1c0.1,0.2,0.5,0.4,0.6,0.6c0.1,0.3-0.1,0.8,0,1.2  c0,0.3,0.2,0.6,0.3,1c0.5-0.3,0.7-0.8,1.4-1c0.6-0.2,1.3,0.1,1.9-0.2c0.9-0.4,1.1-1.6,2-2.1c0.5-0.3,0.8-0.7,1.3-1.1  c0.4-0.3,0.9-0.6,1.4-0.8c0.6-0.3,1.1-0.4,1.7-0.5c0.7-0.1,1.2-0.5,1.9-0.7c0.7-0.2,1.1-0.3,1.6-0.8c0.6-0.6,1-0.5,1.8-0.3  c0.7,0.2,1,0.2,1.6-0.2c0.5-0.4,1-0.4,1.5-0.7c0.2-0.1,0.4-0.3,0.7-0.4c0.4-0.1,0.5,0.1,0.9,0.1c0.3,0,0.7-0.4,0.9-0.5  c0.3-0.1,0.6-0.2,1-0.1c0.7,0.1,1.3,0.2,2-0.1c0.6-0.3,1-0.8,1.6-1.1c1.1-0.5,1.9-1.2,2.9-1.9c1.1-0.8,2.5-1.1,3.9-0.9  c0.6,0.1,1,0.1,1.6-0.1c0.6-0.2,1.3-0.4,1.9-0.5c0.6-0.1,1.1-0.1,1.7-0.2c0.8-0.1,1.1-0.4,1.6-1.1c0.7-1,0.9-2.2,2.1-2.9  c0.3-0.2,0.5-0.1,0.8-0.1c0.4-0.1,0.4-0.1,0.6-0.4c0.5-0.5,0.8-0.5,1.4-0.6c0.6-0.1,1.1-0.1,1.7-0.3c0.8-0.2,1.2,0.1,2,0.1  c0.7,0,1.2-0.5,1.7-0.9c0.4-0.3,0.9-0.6,1.3-0.8c0.7-0.4,1-0.4,1.8-0.5c0.7-0.1,0.9-0.5,1.3-1c0.9-0.9,1.8-1.7,2.7-2.4  c0.4-0.3,0.8-0.6,1.2-0.9c0.4-0.3,0.6-0.8,0.9-1.1c0.3-0.2,0.4-0.2,0.7-0.3c0.4-0.1,0.4-0.2,0.6-0.5c0.4-0.4,1.2-0.8,0.9-1.5  c-0.2-0.5-0.9-0.6-1.4-0.7c-0.3-0.1-0.5-0.1-0.8-0.3c-0.3-0.2-0.3-0.7-0.5-0.9c-0.5-0.4-0.9,0.2-1.3,0.4c-0.6,0.3-1.4,0.4-2,0.3  c-1-0.1-1.9-1.2-2.9-1.4c-1.1-0.2-1.9,1.1-2.8,1.7c-0.5,0.3-1.1,0.4-1.6,0.6c-0.5,0.2-0.9,0.6-1.4,0.7c-0.7,0.1-0.9-0.5-1.6-0.1  c-0.4,0.2-0.8,0.5-1.3,0.7c-0.6,0.3-1.2,0.4-1.8,0.7c-0.5,0.3-1.1,0.6-1.6,0.3c-0.4-0.2-0.6-0.7-1.1-0.9c-0.6-0.2-1-0.1-1.5-0.4  c-0.6-0.3-0.8-0.2-1.4-0.2c-0.2,0-0.5-0.1-0.7-0.1c-0.2,0.1-0.3,0.3-0.5,0.4c-0.3,0.2-0.6,0.2-0.9,0.4c-0.4,0.2-0.5,0.5-0.9,0.6  c-0.3,0.1-0.5,0.1-0.7,0.2c-0.3,0.2-0.4,0.4-0.8,0.4c-0.6,0-1.2,0-1.8,0.1c-0.7,0.1-1.4,0.5-2.1,0.6c-1.3,0.2-2.3-0.7-3.6-1  c-1.4-0.3-2.6-0.3-3.9,0.3c-0.6,0.3-1.2,0.3-1.8,0.6c-0.7,0.3-1.4,0.3-2.1,0.3c-0.3,0-0.7-0.2-1-0.1c-0.3,0.1-0.4,0.5-0.6,0.6  c-0.5,0.2-1.2-0.3-1.8-0.2c-0.5,0.1-0.9,0.6-1.4,0.8c-0.6,0.3-1.2,0-1.8,0c-1.2,0-2.4,0.6-3.5,1c-0.6,0.2-1.3-0.1-1.9,0.2  c-0.4,0.1-0.7,0.3-1,0.4c-0.4,0.1-0.7,0.1-1,0.3c-1,0.6-1.3,2.6-1.3,3.7c0,0.8-0.2,1.1-1,1.3c-0.6,0.2-0.8,0.4-1.2,1  C30.5,51.7,30.2,52.7,29.4,53.4"/><path d="M10.7,65.4c0.2,0.3,0.3,0.6,0.4,0.9c0,0.1-0.1,0.2,0,0.3c0,0.1,0.2,0.2,0.3,0.4c0.1,0.3-0.3,1.3-0.1,1.4  c0.2,0.1,0.3-0.1,0.4-0.2c0.1,0,0.3,0,0.4,0c0.1,0,0.3-0.2,0.4-0.2c0.2,0,0.5,0,0.6-0.1c0.2-0.2,0-0.2,0.1-0.4  c0.1-0.3,0.3-0.2,0.2-0.7c-0.1-0.4-0.2-0.3,0.1-0.8c0.1-0.2,0.3-0.4,0.4-0.6c0.1-0.5-0.3-0.7,0.1-1c0,0,0.2,0.1,0.3,0  c0.1-0.1,0.2-0.2,0.2-0.3c0.1-0.1,0.1-0.2,0.4-0.3c0.1,0,0.4,0,0.5-0.1c0.2-0.2,0.1-0.5,0.3-0.7c0.1-0.2,0.4,0,0.4-0.4  c0-0.3-0.3-0.5-0.2-0.9c0.1-0.3,0.3-0.3,0.3-0.7c0-0.1,0-0.4,0-0.5c0-0.2,0.2-0.2,0.2-0.4c0.1-0.2,0.2-0.4,0-0.6  c-0.2-0.1-0.9,0.1-1.1,0.1c-0.5,0-0.6,0.1-1,0.3c-0.8,0.5-1.7,0.3-2.6,0.6c-0.8,0.2-1.5,0.5-2.3,0.8c-0.3,0.1-0.8,0.2-1.1,0.4  c-0.2,0.2-0.3,0.6-0.6,0.8c-0.5,0.5-1.5,0.6-2.1,0.9c-0.2,0.1-0.7,0.2-0.9,0.3c-0.3,0.2-0.1,0.1,0.2,0.4c0.3,0.3,0.5,0.6,0.8,0.9  c0.3,0.4,0.3,0.4,0.7,0.6c0.1,0.1,0.3-0.1,0.4,0C7,66,7.1,66.2,7.2,66.3c0.1,0,0.4,0,0.4-0.1c0.4-0.2,0.3-0.4,0.5-0.7  C8.4,65.3,8.7,65.2,9,65C9.8,64.5,9.9,65,10.7,65.4"/><path d="M47.4,31.3c0.2-0.2,0.8-0.3,1-0.1c0.2,0.3-0.2,1-0.3,1.3c-0.2,0.4-0.4,0.7-0.6,1.1c-0.2,0.5-0.2,1.1-0.4,1.6  c-0.1,0.4-0.3,0.9-0.8,0.8c-0.2,0-0.3-0.2-0.4-0.3c-0.2,0-0.4,0.1-0.6,0c-0.2-0.1-0.9-0.7-0.9-0.8c-0.1-0.3,0.5-1,0.7-1.2  c0.2-0.2,0.4-0.2,0.6-0.3c0.3-0.2,0.4-0.4,0.7-0.7C46.7,32.3,47,31.8,47.4,31.3"/><path d="M94.3,39.4c-0.6,0-0.4-0.8,0.1-0.8C94.8,38.7,94.8,39.4,94.3,39.4"/></svg>