<svg xmlns="http://www.w3.org/2000/svg" xmlns:xlink="http://www.w3.org/1999/xlink" version="1.1" x="0px" y="0px" viewBox="-461 335 100 100" fill="#e0e0e0" style="enable-background:new -461 335 100 100;" xml:space="preserve"><polygon points="-392.1,430.1 -392.5,428.6 -393,427.8 -393.2,427.6 -393.6,427.4 -393.7,427.3 -393.8,427.1 -393.7,426.7   -393.8,426.5 -393.9,426.3 -394.2,426.1 -394.3,425.9 -394.3,425.7 -394.4,425.7 -394.6,425.7 -394.8,425.7 -395,425.6   -395.1,425.4 -395.3,425.3 -395.4,425.1 -395.5,424.9 -395.5,424.7 -395.4,424.6 -395.4,424.4 -395.6,424 -395.9,423.8 -396,423.6   -395.9,423.1 -395.4,422.5 -395.3,422.2 -395.4,421.8 -395.6,421.4 -395.7,421 -395.7,420.7 -395.6,419.8 -395.6,419.6   -395.8,419.4 -396.1,419.1 -396.3,418.8 -396.7,417.4 -395.2,417.4 -394.8,417.3 -394.9,414.4 -394.9,411.5 -394.9,408.6   -394.9,404.5 -394.9,400.6 -394.9,397.5 -394.9,394.3 -394.8,392.1 -395.1,390.4 -395.2,390.2 -395.3,390.1 -395.3,390.1   -395.2,389.6 -395.2,389.2 -395.2,389.1 -394.6,388 -394.5,387.6 -394.6,387.4 -395.1,386.8 -395.2,386.6 -395.2,386.3   -395.2,383.1 -395.3,381.2 -395.3,379.1 -395.3,376.6 -395.4,376 -395.6,375.6 -396,374.9 -397.2,373.6 -398.8,371.9 -399.3,371.2   -399.6,370.4 -399.7,368.4 -399.9,367.8 -400.3,368 -400.6,367.7 -400.8,367.2 -400.8,366.8 -400.7,366.5 -400.4,366 -400.3,365.7   -400.2,365.5 -400.3,365.1 -400.2,364.9 -400.2,364.7 -400.3,363.8 -400.4,362.2 -400.4,360 -400.4,358.4 -400.7,357.7   -402.8,356.4 -405.6,354.5 -408.4,352.6 -410.3,351.3 -411.8,350.3 -411.9,350 -412,349.6 -411.7,347.5 -411.4,346.4 -411.4,345.6   -411.5,343.8 -411.2,343.2 -410.2,342.1 -409.9,341.8 -409.9,341.6 -409.8,341.1 -409.8,340.9 -409.5,340.3 -409.5,340.1   -409.7,339.7 -409.7,339.5 -409.7,339.1 -409.2,337.8 -411.7,337.9 -413.6,337.9 -414.9,338.2 -417.3,339 -417.1,338.2   -417.4,338.1 -417.3,338 -417.3,337.9 -417.3,337.9 -417.3,337.8 -417.3,337.7 -417.3,337.7 -417.4,337.6 -421.3,336.8   -425.8,335.9 -428.2,335.4 -430.3,335 -430.1,335.3 -429.8,335.6 -429.4,335.9 -429,336 -428.6,335.9 -428,335.7 -427.6,335.7   -426.9,336 -426.7,336.4 -426.6,337.1 -426.6,337.8 -426.7,338 -426.8,338.2 -427,338.3 -427.2,338.4 -427.3,338.6 -427.7,340.6   -427.7,340.8 -427.6,341.2 -427.6,341.4 -427.8,341.6 -428.2,341.9 -428.5,342.2 -428.6,342.6 -428.7,343.4 -428.9,344.2   -428.9,344.6 -428.7,345 -428.5,345.2 -428.3,345.3 -428.1,345.3 -427.6,345.4 -427.5,345.5 -427.4,345.6 -427.2,345.7   -426.6,345.9 -426.4,346 -426.2,346.2 -426,346.7 -425.8,346.9 -424.8,347.5 -424.5,347.9 -423.5,349.7 -423.4,349.8 -423.3,349.8   -423.2,349.7 -423.1,349.5 -423.1,349.5 -422.5,349.7 -422.4,349.7 -422.1,349.7 -421.9,349.6 -421.8,349.5 -421.6,349.6   -421.4,349.8 -421.4,350 -421.4,350.2 -421.5,350.4 -421.2,350.7 -420.9,351 -420.7,351.3 -420.9,351.7 -420.6,351.7 -419.7,351.6   -419.5,351.7 -419.1,352 -419.6,352.4 -419.7,352.7 -419.8,353 -419.9,353.3 -419.9,354 -420,355.4 -419.8,355.9 -419.5,356   -419.3,356.1 -419.2,356.2 -419.1,356.6 -419.2,357 -419.4,357.1 -419.7,357 -420.1,357.1 -419.9,357.3 -420,357.4 -420,357.5   -420.1,357.7 -420,357.9 -419.8,358.3 -419.7,358.7 -419.7,358.9 -419.8,359 -420.1,359.3 -420.2,359.6 -420.3,359.9 -420.2,360.7   -420.2,360.9 -420.6,362.4 -420.6,362.8 -420.5,363 -420.3,363.2 -420.2,363.4 -420.1,363.7 -420.1,364 -420.1,364.4 -420.3,364.6   -420.7,364.7 -421,364.5 -421.5,363.9 -421.8,364.5 -421.8,365.1 -421.5,365.5 -420.9,365.6 -420.1,365.4 -419.7,365.4   -419.5,365.8 -419.6,366.1 -420,366.2 -420.3,366.2 -420.6,366 -421,366.2 -421.4,366.2 -422.4,366.1 -422.5,366.2 -422.6,366.8   -422.6,366.9 -422.5,367 -422.4,367.1 -422.2,367.3 -422,367.3 -421.5,367.3 -421.2,367.3 -421,367.5 -421.1,367.7 -421.3,367.9   -421.6,368 -422.5,368.1 -422.5,368.4 -422.3,368.8 -422.5,369 -422.4,369.2 -422,369.3 -421.7,369.2 -420.8,368.9 -420.6,368.8   -420.5,368.6 -420.5,368.2 -420.4,368 -420.1,367.9 -419.6,367.8 -418.8,367.8 -418.5,367.8 -417.4,368.2 -417.3,368.4   -417.3,368.6 -417.3,368.8 -417.4,369 -417.4,369 -417.4,369.1 -417.4,369.1 -416.8,369.3 -416.5,369.6 -416.3,370.1 -416.5,371.1   -416.6,371.7 -416.6,371.9 -416.8,372.1 -417.1,372.2 -417.2,372.4 -417.2,372.8 -417,373.5 -417,373.8 -417.2,374.3 -417.7,374.7   -417.8,374.8 -417.8,375.2 -417.9,375.8 -418.2,376.4 -418.4,377 -418.2,377.6 -418.2,377.6 -417.2,379.3 -417,380.2 -417.4,380.9   -417.5,381.1 -417.5,381.4 -417.6,381.7 -417.8,381.8 -418.1,381.7 -418.3,381.7 -418.5,381.6 -418.7,381.7 -418.6,381.8   -418.7,382.1 -418.9,382.4 -419.1,381.9 -419.4,381.8 -419.6,381.9 -419.7,382.1 -419.6,383 -419,384.3 -418.2,385.4 -417.4,385.9   -417.1,386.3 -416.6,386.7 -416.1,387.1 -414.8,387.7 -414.4,388.5 -414.2,389.2 -413.4,389.8 -413.4,390 -413.4,390.3   -413.3,390.6 -413.4,390.8 -413.4,390.8 -413.3,390.9 -413,391 -413,391 -412.9,391.5 -413,391.8 -413.4,392 -414.2,392.4   -414.6,392.6 -415.2,393.2 -415.4,393.3 -415.5,393.3 -415.6,393.4 -415.7,393.6 -415.6,393.8 -415.4,394 -415.3,394.2   -415.2,394.4 -415.4,394.7 -415.5,394.8 -415.6,395 -415.5,395.4 -415.4,396.4 -415.2,397.1 -415.2,397.5 -415.3,398.2 -415,399.6   -415.1,400.8 -414.9,402 -414.9,403 -414.9,403.4 -415.4,403.3 -415.7,403.7 -415.8,404.3 -415.7,404.8 -415.9,405.1 -416.1,405.2   -416.4,405.3 -416.7,405.4 -416.9,405.6 -417,405.8 -417.1,406.1 -417.2,407.2 -417.1,408.2 -416.8,409.1 -416.1,409.6   -415.8,409.7 -415.4,409.6 -414.7,409.4 -414.5,409.5 -414.2,410.8 -414.2,411.2 -414.5,412 -414.7,412.9 -415.2,414.1   -415.2,414.9 -415.1,415.7 -415.2,416.6 -415.5,417.3 -415.8,417.4 -416.6,417.6 -416.9,417.7 -417.2,417.7 -417,418.1   -416.4,418.5 -416.2,418.9 -416.2,419.2 -416.6,419.9 -416.8,420.4 -416.7,420.5 -416.5,420.7 -416.3,420.8 -415.7,421.9   -415.6,422.1 -415.2,422.1 -414.9,422.3 -414.6,422.6 -414.4,422.9 -414.4,423.2 -414.6,424.2 -414.5,424.7 -414.2,424.9   -413.9,425.1 -413.8,425.4 -413.6,425.4 -413,425.4 -412.8,425.4 -412.6,425.7 -412.6,425.9 -412.7,426.1 -412.9,426.3   -412.9,426.8 -412.8,427.3 -412.5,427.8 -412.2,428.3 -411.8,428.7 -410.8,429.2 -410.3,429.5 -409.7,430.3 -409.4,430.5   -409,430.6 -407.5,430.6 -407,432.1 -406.7,432.6 -406.6,432.7 -406.4,432.8 -406.3,432.8 -406.1,433 -405.8,433.4 -405.6,433.7   -405.4,433.8 -403.7,434 -403.5,434.3 -403.5,435 -403.4,435 -403.3,435 -401.8,434.3 -398.7,433.4 -395,432.8 -395.1,432.3   -394.7,432.1 -392.2,431.5 -391.7,431.5 "/></svg>