<svg xmlns="http://www.w3.org/2000/svg" xmlns:xlink="http://www.w3.org/1999/xlink" version="1.1" x="0px" y="0px" viewBox="-461 335 100 100" fill="#e0e0e0" style="enable-background:new -461 335 100 100;" xml:space="preserve"><path d="M-444.2,386.5l0.2-0.1l0.1-0.2l0.5-0.3l0-0.5l0.1-0.3l-0.1-0.3l-0.5,0l-0.5,0.2l-0.5,1.2l0.2,0.1L-444.2,386.5z M-449,386.9  l0.6,0l0.2-0.2l-0.4-0.3l-0.1-0.2l0.2-0.2l0.2-0.1l0.2,0l0.5,0.3l0.1-0.2l-0.6-0.7l-0.7-0.1l-0.3,0.3l-0.1,0.3l-0.1,0.9l0,0.3  L-449,386.9z M-400.6,375.4l-1.3,0.5l-4.1,0.5l-1.8,1.4l-8.2,0l-3.8-0.5l-1.2,0.1l-0.5,0.4l-1.3,1.6l-0.6,0.5l-0.1,0l-1.4,0  l-0.2,0.2l-0.3,0.3l-0.4,0.3l-0.6,0.2l0.5-0.5l-0.2-0.3l-0.2-0.2l-0.1-0.2l0-0.4h-0.4l0,0.7l0,0.2h-0.5l-0.4-0.9l-0.4,0.3l-0.5,0.7  l-0.9,0.4l-2.1,0l-3.3,0.8l-2.9-0.2l-1,0.4l-3.7,2.5l0.4,0.8l0.4,0.4l0.4,0.1l3.6,0.2l1.5,0.3l3.5,1.6l2.8,1.9l-0.5,0.5l1.7,2.2  l0.7,2.6v2.8l-0.5,2.7l-0.9,2.2l-0.4,1.4l0.2,1l0.3,0.5l0.4,1.4l0.1,0.6l-0.1,0.2l-0.2,0l-0.2,0.1l0,0.4l0.2,0.3l0.6,0.5l0.1,0.4  l0.2,1.3l0.4,1.2l0.2,1.2l-0.3,1.4l-0.5,0.9l-0.9,1l-0.9,0.8l-0.8,0.3l-3.8,0.1l-3.7-0.6l-1.1,0l-0.9,0.5l0.1,2.2l-2.2,1.9l-3,1.5  l-5.5,1.6l-1.2,0.6l-1.1,0.8l-0.7,1.1l-0.5,0.5l-2.3,0.4l-0.8,0.2l-0.3,0.3l-2.3,1.2l-0.7,1l1.5,1l1.2,0l1.5-0.5l1.4-0.8l1-0.8  l1.3-0.6l1.7-0.2h6.2l1.5,0.2l1.3,0.4l0.8,0.5l0.6,0.5l0.7,0.4l1,0.1l0.7-0.1l1.4-0.3l0.8-0.1l2-0.8l0.7-0.2l2.9,0.5l6.1-0.5  l5.6,0.5l4.5-0.9l1.6-0.1l4.4,0.7l1.7-0.2l3.2-0.8l1.6-0.6l1.3-0.8l1.3-1.1l1.6-1l1.7-0.5l1.5,0.3l-0.5-3.6l0-4.2l0.9-3.7l2.1-2.2  l-2.6-1.9l-1.3-1.9l-0.5-0.9l-0.4-1l-1-5.3l0-2l2.1-1.8l-0.3-2.1l-1.4-4.4l-0.1-2.1l0.4-2.1l0.8-1.4l1.3,0.2l3.7-4.6l3-5.3l-3-0.6  L-400.6,375.4z M-361.1,338.5l-0.5-0.6l-0.8,0.6l-1.4,1.6l-0.5,0.1l-1.1-0.7l-0.9,0.2l-0.8,0.5l-2,0.4l-2.3,0.9l-0.9,0.5l-0.7,0.5  l-1.3,1.3l-6,3.9l-0.7,0.9l-0.4,0.9l-0.9,0.4l-1,0.2l-0.6,0.3l-0.2,1.1l0.6,0.7l1,0.2l1.1-0.5l0.5,1.2l1.2-0.5l1.9-1.7l1.3-0.3  l4.3-2.2l0.7,0l0.9,0.2l0.9,0l0.8-0.5l0.5-0.4l1.7-1l0.3-0.1l1.1-1.4l0.1-0.3l0.7,0l0.7,0.2l0.6-0.1l0.4-1.1h0.4l0.8,0.2l0.5-1.6  l0.2-2.2L-361.1,338.5z"/></svg>