<svg xmlns="http://www.w3.org/2000/svg" xmlns:xlink="http://www.w3.org/1999/xlink" version="1.1" x="0px" y="0px" viewBox="-461 335 100 100" fill="#e0e0e0" style="enable-background:new -461 335 100 100;" xml:space="preserve"><path d="M-417.8,335.4l0.1-0.1l0.1,0l0.1,0l0-0.2l0-0.1V335l0,0l0,0l-0.1,0.1l-0.2,0.1l-0.1,0.1l-0.1,0.1l0.2,0.1L-417.8,335.4z   M-396.4,341L-396.4,341L-396.4,341l0.2,0h0.1l-0.1-0.2l-0.1-0.1l0-0.1l-0.1,0l0,0l-0.1,0l0,0.1L-396.4,341L-396.4,341z   M-392.7,374.8l-0.1,0.2l0,0.2l0.1,0.1l0.2-0.1l0.3-0.3l1.3-0.7l0.1-0.1l-0.1-0.1l-0.1-0.1l-0.1-0.1l0-0.2l0.1-0.1l0-0.1l0.2,0  l-0.1-0.1l-0.2-0.1l-0.3-0.1l-0.1,0l-0.3,0.4l0,0.2l0,0.2l-0.1,0.1l-0.2,0.1l-0.1,0l-0.1,0l-0.1,0l-0.1,0l0,0l-0.1,0.3L-392.7,374.8  z M-387.8,404.8l-0.3-0.5l-0.8-0.8l-0.2-0.5l0-0.7l0.2-1.4l-0.1-1.4l0.2-0.9l0-0.8l0-0.2l0.3-1.3l0-0.6l-0.1,0l-0.6-0.3l-1-0.7  l0.2,0.2l0.2,0.2l0.1,0.1l0.2,0.1l0.2,0.2l0.1,0.2l-0.2,0.1h-0.5l-1-0.4l-0.5-0.1l-0.5,0.1h-0.2l-0.1-0.1l-0.1-0.3l-0.2-0.2  l-0.2-0.2l-0.1-0.2l0.1-0.4l0.5,0.1l1.1,0.4l0.1,0l0,0l0.1-0.1l-0.3-0.1l-0.6-0.3l-0.3-0.1l-0.3-0.1l-0.2-0.3l-0.2-0.2l-0.3,0l0-2  l0-0.3l0-0.1l-0.4-0.6l-0.2-0.2l-0.2-0.1l-0.5-0.2l-0.2-0.1h-0.1l-0.1,0.2l-0.1,0.1l-0.1,0l-0.1-0.1l-0.3,0.3l0,0.1l0.2,0.2l0.1,0.2  l-0.1,0.3l-0.2,0.2l-0.2,0.1l-0.4,0.1l-0.9,0.5l-0.5,0.1l-0.2-0.1l-0.2-0.2l-0.3-0.5l-0.1-0.2l0.1-0.2l0.1-0.2l0.2-0.1l0.1-0.1  l0.1-1.4l-0.1-0.2l-0.2-0.2l-1.9,0.9l-0.5,0l-0.5-0.1l-0.9-0.4l-0.4-0.3l-1.6-1.6l-0.2-0.1l-0.1-0.1l-1-1.5l-0.3-0.5l-0.1-0.5l0-0.3  l-0.2-0.5l0-0.3l0-0.6l0-0.3l-0.1-0.2l0.1,0l0.1-0.1l0.1,0l0.1-0.3l0.6-1.1l0.3-0.4l0.2-0.2l0.5-0.2l0.2-0.2l0.5-0.2l0.1,0l0.1-0.1  l0.2-0.3l0-0.1l0.1-0.1l0.1,0l0.1,0l0.1,0.1l0.1,0l0.2-0.1l1-1l0.4-0.2l1-0.3l0.1-0.1l0.1-0.1l0.1-0.1l0-0.1l0-0.2l0-0.1l0.2-0.1  l0.1-0.1l0.1-0.2l0-0.1l0-0.1l0.1-0.1l0.8-0.3l0.2-0.1l0.2-0.2l0.1-0.3l0.1-0.6l0.1-0.2l0.2-0.2l0.4-0.3l0.2-0.2l0.1-0.1h0.1l0.1,0  l0-0.2l0-0.2l0-0.1l0.1-0.1l0.1-0.1l0.3-0.5l0.1-0.3l0-0.2l-0.1-0.1l0.1-0.3l0.3-0.5l0.4-0.4l0.3-0.4l0.1-0.5l0-0.6l0.1-0.3l0.2-0.2  l0.5-0.4l0.3-0.5l0.2-0.2l0.3,0v-0.1l-0.2,0l-0.2-0.1l-0.2-0.2l-0.6-0.6l-0.2-0.4l-0.1-0.5l0-0.3l0.1-0.5l0.1-0.5l0.2-0.5l0.1-0.2  l-0.2-0.1l-0.2-0.2l-0.1-0.3l0-0.3l0.1-0.3l0.1-0.3l0-0.3l-0.2-0.2l-0.5-0.2l-1-0.2l-0.5-0.2l-0.1-0.2l-0.2-0.4l-0.1-0.3l0.2-0.1  l0,0l-0.1-0.1l-0.1-0.1l-0.1,0l-0.8,0.1l-0.2,0l-0.2-0.1l-0.8-0.8l-0.2-0.2l-0.3-0.9l-0.1-0.1l-0.2-0.1l-0.2-0.2l-0.3-0.4l0-0.1  l-0.1-0.3l0-0.1l-0.1-0.1l-0.2-0.2l-0.1-0.3l-0.1-0.3l-0.1-1.3l0.1-0.6l0.1-0.6l0.2-0.6l0.2-0.5l0.3-0.4l0.3-0.3l1.7-0.9l1-0.3  l0.3-0.3l0.6-1.5l0.9-1.4l0.3-0.7l0.1-0.2l0.7-0.7l0.7-0.5l0.1-0.2l0,0l0.1-0.2l0-0.2l-0.1-0.1l-0.1,0l-0.1-0.1l-0.1-0.1l-0.1-0.1  l0-0.1l0-0.3l0-0.1l-0.1-0.1l-0.2-0.3l0-0.1l0-0.1l-0.1-0.2l0-0.2l0-0.2l0.1-0.2l0-0.1l-0.1-0.3l-0.2-0.1l-0.2,0l-0.4,0.3l-0.6,0.1  l-0.2,0.1l-0.1,0.1l0,0.1l0,0.1l0,0.2l-0.1,0.1l-0.7,0.5l0,0.1l0,0.1l-0.1,0.1l-0.1,0l-0.1,0l-0.7,0.7l-0.4,0.2l-0.5,0.1l-0.5,0  l-0.2,0.1l-0.2,0.2l-0.2,0.5l-0.1,0.3l0,0.2l-0.2,0.3l-0.4,0.3l-0.5,0.2l-0.4,0.1l-0.5-0.1l-0.4-0.3l-0.3-0.4l-0.2-0.5l-0.2,0.3  l-0.1,0.1l-0.1-0.1l-0.4,0l-0.2-0.1l0.1-0.2l0.2-0.3l0.1-0.1l0.4-0.1l0.2,0l0.1,0.1l-0.1,0.2l0.1,0.1l0.2,0l0.1-0.1l0.1-0.3l0.3-0.3  l0.1-0.2l-0.4-0.5l-0.1-0.1l-0.4-0.2l-0.5-0.5l-0.4-0.7l-0.1-0.7l0.5-0.5l0.1,0.2l0.1-0.2l0-0.1l-0.2-0.3l-0.2,0.1l-0.3,0l-0.3-0.1  l-0.1-0.2l0.2-0.2l0.4-0.1l0.3,0l0.1,0.2l0.2-0.1l0.2-0.1l0.4-0.1l-0.2-0.2l-0.8-0.3l-0.4-0.3l-0.8-0.1l-0.2-0.3l-0.1,0l-0.6,0.3  l-0.2,0l-1.1-0.2l-0.2,0l0,0l0,0.1l-0.1,0.1l-0.1,0l-0.3,0.2v0.1h0.1l0.2-0.1l0.1,0l0.7,0.3l0,0.2l-0.1,0.3l-0.1,0.2l-0.3,0.2  l-0.2,0l-0.5-0.1l-0.1,0l-0.1-0.2l-0.1,0l-0.1-0.1l-0.2-0.4l0-0.1l0.2-0.4l0.4-0.2l0.4-0.3l0-0.6l0-0.1l0,0l-1,0l-0.1,0l-0.1-0.1  l-0.1-0.1l-0.1,0l-0.3,0.1l-0.5,0l-0.2,0l-0.2,0.1l-0.4,0.3l-0.2,0l-0.2-0.1l-0.2,0.2l-0.2,0.2l-0.3,0.1l-0.3,0.1l-0.1,0.1l-0.1,0  l-0.1-0.1l-0.2-0.1l-0.2,0.1l-0.3,0.3l-0.4,0.2l-1.5,0l-0.2,0.1l-0.2,0.4l-0.1,0.1l-1.3,0.5l-0.1,0.1l-0.3,0.3l-0.1,0.1l-0.1,0.1  l-0.4,0.7l-0.4,0.4l-0.3,0.2l-0.4,0.2l-0.5,0.4l-0.3,0.1h-1l-0.3,0.1c-0.3,0.1-0.7,0.3-1,0.4l0,0.4l0,0.2l0,0.1l0.4,0.6l0,0.2  l-0.2,0.1l-0.8,0.3l-0.4,0.1l-0.4,0l-0.4,0.1l-0.4,0.2l-0.1,0.2l0.4,0.2l0.2,0.3l-0.1,0.5l-0.3,0.5l-0.3,0.3l-1.4,0.8l-0.7,0.3  l-0.3,0.2l-0.3,0.3l0,0.5l0.5,0.2l1,0.1l0.2,0.1l0.2,0.1l0.2,0.1l0.1,0.3l0,0.3l0,0.6l0,0.3l-0.5,1.5l-0.1,0.6l0.1,0.3l0.1,0.3  l0,0.3l-0.1,0.3l-0.1,0.2l-0.2,1l0,0.8l-0.3,1l-0.1,1.1l0,0.6l0.1,0.5l0.6,0.9l0.2,0.5l0.2,1.6l0,0.4l-0.4,1l-0.1,0.5l0,0.5l0.1,0.6  l0.3,0.5l0.4,0.2l0.5,0.2l0.4,0.3l-0.1,0.3l-0.7,1.1l-0.5,0.6l-0.2,0.5l-0.2,1l-0.3,0.7l-0.1,0.5l0,0.5l0.2,1.4l0,0.2l-0.1,0.1  l-0.4,0.4l-0.1,0.2l0,0.2l0.3,0.5l-0.1,0.2l-0.4,0.3l-0.1,0.1l-0.1,0.2l0,0.1l-0.1,0.1l-0.3,0.2l-0.6,0.5l-1.1,0.5l-0.5,0.3l-1,0.4  l-0.4,0.3l-0.2,0.5l-0.4,1.6l-0.1,0.2l-0.1,0.2l-0.2,0.1l-0.7,0.1l-0.4,0.2l-0.3,0.3l-0.3,0.4l-0.7,0.7l-0.2,0.4l0,1l-0.2,1.4  l0.1,0.5l0.2,0.8l0.1,0.2l0.3,0.6l0.1,0.7l0.1,0.3c0.5,0.9,1.1,1.9,1.6,2.8l0.2,0.5l0,1.9l0.2,0.6l0.3,0.3l0.4,0.1l0.5,0.1l0.4,0.1  l1.3,0.9l0.2,0.1l0.2,0.1l0.2,0l0.2-0.1l0.3,0.2c0.7,1.2,1.5,2.3,2.2,3.5l0.2,0.4c0.1,1.1,0.2,2.2,0.3,3.3l0.1,0.4l0.3,0.4l1.4,0.9  c2,1.5,4.1,2.9,6.1,4.4l0.2,0.2l0.1,0.2c0.5,2.4,1.1,4.8,1.6,7.2c0.5,2.4,1.1,4.9,1.6,7.3c0.5,2.5,1.1,5,1.7,7.5  c0.2,0.8,0.4,1.6,0.5,2.4l2.5-1.3l0.3-0.1l0.8-0.1l0.3-0.2l1.4-1.8l1.2-1.9l1-1.2l0.7-1.5l0.2-0.5l0-0.4l-0.3-0.9l-0.1-0.5l0.1-0.5  l0-0.3l-0.4-0.8l-0.3-1.4l-0.8-2.3l0-0.2l0.1-0.9l0.2-0.3l0.7-0.8l0.8-1.4l0.6-0.5l1.3,0l0.6-0.3l0.2-0.1l0.2-0.2l0.1-0.2l0.2-0.5  l0.5-0.4l0.1-0.5l0.1-1.1l0.3-0.3l0.2,0l0.2,0.1l0.2,0.1l0.2-0.1l0.4-0.3l0.4-0.2l0.4-0.4l0.5-1.1l0.3-0.3l6.5-3.1l0.8-0.5l0.4-0.4  l0.2-0.4L-387.8,404.8z M-394.7,388.7L-394.7,388.7l0.2-0.4l0.1-0.1l0.1-0.1l0.2-0.1l0.8-0.7l-0.1-0.2l-0.2-0.1l-0.2-0.1l-0.2-0.1  l-0.4-0.3l-0.3-0.4l-0.4,0.2l-0.5,0l-0.9-0.2l-0.4,0.2l-0.1,0.4l0,1.1l-0.1,0.5l0,0.3l0.1,0.2l0.2,0l0.2-0.1l0.3-0.2l0.2,0l0.2,0.1  l0.2,0.2l0.1,0.3l0,0.2l0,0.2l0,0.2l0.1,0.1l0-0.2l0.1-0.2l0.5-0.6l0.2-0.2l0.2-0.1l0,0.1L-394.7,388.7z M-393.1,375.5l0.1-0.2  l-1.3,0l-0.2,0.1l-0.1,0.2l0.1,0.1l0.5,0.2l0.1,0.1l0.1,0L-393.1,375.5L-393.1,375.5z"/></svg>