<svg xmlns="http://www.w3.org/2000/svg" xmlns:xlink="http://www.w3.org/1999/xlink" version="1.1" x="0px" y="0px" viewBox="0 0 100 100" fill="#999999" enable-background="new 0 0 100 100" xml:space="preserve"><path d="M3.5,54.1L3.5,54.1L3.5,54.1L3.5,54.1l0.1,0l0,0l0-0.1l0,0l0-0.1l-0.1,0l0,0l-0.1,0L3.5,54.1L3.5,54.1z M7.9,59.7L7.9,59.7  l-0.1-0.1l0,0l0,0l-0.1,0L7.9,59.7L7.9,59.7L7.9,59.7L7.9,59.7L7.9,59.7L7.9,59.7L7.9,59.7L7.9,59.7z M9.3,63.5L9.3,63.5l0.1,0.1  l0,0l0,0l0,0l0,0l0,0l0,0l0,0l0,0l-0.1,0l0,0l-0.1,0L9.3,63.5L9.3,63.5L9.3,63.5L9.3,63.5L9.3,63.5L9.3,63.5z M17,65.5L17,65.5  L17,65.5L17,65.5l0,0.2l0,0L17,65.5L17,65.5L17,65.5L17,65.5L17,65.5L17,65.5z M19.7,68.5L19.7,68.5L19.7,68.5L19.7,68.5L19.7,68.5z   M19.2,68.5L19.2,68.5L19.2,68.5L19.2,68.5L19.2,68.5L19.2,68.5z M22,68.7L22,68.7l-0.1,0.1l0,0l0,0l0,0l0,0L22,68.7L22,68.7  L22,68.7L22,68.7L22,68.7L22,68.7l0.1,0l0,0l0,0l0,0L22,68.7L22,68.7z M20,68.8L20,68.8L20,68.8L20,68.8L20,68.8L20,68.8L20,68.8  L20,68.8L20,68.8z M21.3,69L21.3,69l-0.1,0.1h0L21.3,69L21.3,69L21.3,69L21.3,69L21.3,69z M20.9,69L20.9,69L20.9,69L20.9,69z   M18.1,37.6L18.1,37.6L18.1,37.6l0-0.1l-0.1,0L18.1,37.6L18.1,37.6L18.1,37.6L18.1,37.6L18.1,37.6L18.1,37.6l0,0.1L18.1,37.6  L18.1,37.6z M20.6,68.9L20.6,68.9L20.6,68.9l0-0.1l0,0l0,0l-0.1,0.1l0,0l0,0.1l0,0l0,0h0l0.1,0l0,0l0,0l0,0L20.6,68.9L20.6,68.9  L20.6,68.9L20.6,68.9z M14.9,40L14.9,40l0.1-0.3l0,0l0,0l0,0l0,0l-0.1,0l0,0.1L14.9,40L14.9,40z M5.4,53.5l0,0.2l0,0l0.1,0.1l0,0  l0,0l0.1,0l0-0.1l0,0l-0.1-0.1l0-0.2l0-0.1l-0.1-0.1l0,0l0,0l0,0.1L5.4,53.5L5.4,53.5z M12.8,66L12.8,66L12.8,66L12.8,66L12.8,66z   M42.4,68.8L42.4,68.8L42.4,68.8L42.4,68.8z M2.2,44.8l0-0.2l0-0.1l-0.1,0l0,0l0,0h0l0,0l-0.2,0l-0.1,0l0,0.1l0,0.1l0.1,0.1l0.2,0.1  l0.2,0.1l0.1,0L2.2,44.8z M10.3,40.1L10.3,40.1L10.2,40l0,0.1l0,0.1l-0.1,0l0,0.1l0.1,0.1l0.1,0l0.1,0l0.1,0l0.1,0l0-0.1l0,0l0,0  l-0.1,0L10.3,40.1L10.3,40.1z M10.5,39.3l0.2,0l0.1-0.1l0-0.1L10.7,39l-0.2,0l-0.1,0l-0.1-0.1h-0.1L10,39L9.9,39l0-0.1l0,0l0,0l0,0  l0,0.1l0,0.1l0,0l0,0.1l0.1,0.1l0.1,0l0.1,0l0.1,0.1l0.1,0L10.5,39.3L10.5,39.3z M1.8,42.5v-0.1h0l-0.1,0.1l-0.1,0l-0.1,0l0-0.1  l0-0.1l0-0.1l0-0.1l0-0.1v0l-0.1,0l0,0l0-0.1l0,0l-0.1,0l-0.1,0L0.9,42L0.5,42l-0.2,0.1l-0.2,0.2L0,42.6v0l0.2,0.1l0,0l0.1,0l0.1,0  l0.1,0L1,42.7l0.2-0.1l0.4-0.1l0.1,0L1.8,42.5z M99.6,61.2L99.6,61.2L99.5,61l0-0.1l-0.2,0l0-0.1l-0.1-0.2L99,60.6l-0.2,0l-0.1,0  l0-0.1l0.1-0.2l0-0.1v0l0-0.1l0-0.2l0-0.2l0-0.1l0-0.1l-0.1-0.1l-0.1-0.1l0-0.2l0-0.1l0.2-0.1l0.1-0.1l0-0.1l-0.2-0.2l-0.1-0.1  l-0.1-0.1l-0.1,0l-0.1,0l-0.1,0l-0.1,0l0-0.1l0,0l0-0.1l0,0l0,0l0,0l0,0l0,0L97.8,58l0-0.1l0-0.1l0-0.1l-0.1,0l-0.2-0.1l-0.1,0  l-0.3,0l-0.2,0l-0.1-0.1l0-0.1l0.1-0.1l0-0.1l0-0.1l0-0.1l0-0.1l0-0.1l0-0.1v0l0-0.1l0.1-0.1l0-0.1l0-0.1l0-0.1l0.1-0.1l0.1,0l0,0  l0-0.1l0-0.1l0,0l0.1,0l0-0.1l0-0.1l0-0.1l0-0.1l0-0.3l0.1-0.2l0.2-0.1l0.1-0.2l0-0.1l0-0.1l-0.1-0.1L98,54.3l-0.1,0l-0.1,0  l-0.2,0.1l-0.3,0l-0.1,0l0,0l0-0.1l0-0.1l0-0.1l0-0.2v-0.1l0.1-0.3l0-0.1l0-0.3l0-0.3v-0.1l0-0.1l0,0l0,0l-0.1,0l-0.1,0l0,0l0,0l0,0  l0-0.1l0-0.1l0-0.1l0-0.1l0.1-0.5l0-0.2l-0.3-0.1L96.9,51l-0.1-0.1l0-0.1l0-0.1l0-0.1l0-0.1l0-0.1l0,0l0,0l0,0l0-0.1l0,0l0,0v0  l0.1-0.1l0.1-0.1l0-0.1l0-0.3l0-0.1l0.1-0.2l0-0.2l-0.2-0.1L96.3,49l-0.1-0.1l0-0.1l0-0.1l0-0.1l-0.1-0.1l0-0.1l0-0.1l0,0l0,0  l-0.1-0.1l0-0.1l0-0.1l-0.1-0.2l0-0.1l0.1-0.1l0.1-0.1l0.1,0l0.1,0l0.1,0l0.1,0l0.3-0.1l0.1,0l0.4,0.2l0.1,0l0.1,0l0.3-0.1l0.1-0.1  l0.1-0.1l0-0.1l0-0.1l0-0.2v0l0.1-0.1l0-0.1l0-0.1l0-0.1l0-0.1l0-0.1l0.2-0.3l0-0.1l0-0.1l0-0.2l0-0.1l0.6-0.5l0.1,0l0.1,0.1  l0.1,0.2l0.1,0.1l0.3,0.1l0.1,0.1l0.4,0.3l-0.1-0.1l-0.1-0.3l0-0.1l-0.1-0.1l-0.3-0.4l0-0.1l0,0l0,0l-0.1,0l0,0l-0.1-0.1L99,44.6  l-0.1,0l0,0l0-0.1l0-0.1l-0.1-0.1l0,0l0-0.1l0-0.1l-0.1-0.1l-0.1-0.2l-0.3-0.3l-0.7-0.4l-0.2-0.1h-0.2l-0.3,0.1l-0.1,0l-0.1,0  l-0.1,0l0,0l-0.1-0.1l-0.1,0l-0.1,0L96,43.4l-0.1,0l-0.6-0.1L94.8,43l-0.5-0.1L94,42.7L94,42.5l0.1-0.1l0.2-0.1l0.1-0.1l0-0.1  L94.1,42l-0.1-0.1l0.1-0.1l-0.1-0.2l-0.2-0.3l-0.1-0.1l-0.1-0.1l0-0.1l0-0.1l0.1-0.3v0l-0.2-0.2l-0.1-0.1l0-0.1l0.2-0.2l0.1-0.1  l0.1,0l0,0l0,0l0,0l0,0l0,0l0,0l0,0l0-0.2l0.1-0.1l0.2-0.3l0-0.2l0,0l0.1-0.2l0-0.1l0-0.5l0-0.1l0-0.1l-0.2-0.3L94,37.6l0-0.2l0-0.1  l0-0.1l-0.1-0.1l-0.2-0.2l-0.2-0.2l-0.2-0.1l-0.2,0L93,36.5l-0.1-0.2l0-0.2l0-0.2l0.1-0.2l-0.1-0.2l-0.1-0.1l-0.1-0.1l-0.2,0l-0.2,0  l-0.5,0.1l-0.1-0.1l-0.1-0.3l-0.1-0.1l-0.1,0l-0.1,0l-0.1,0l0.3-0.1l0.1-0.1l0.1-0.1l0,0l-0.2,0l-0.2-0.1L91,34.2L90.6,34l-0.1-0.1  l-0.2-0.3l0,0l0,0l0,0l0,0l0,0L90,33.4l0,0l0-0.1l0-0.1l0,0l-0.1,0l-0.1,0.1l-0.1,0l-0.1-0.1l-0.1-0.1l0-0.1l0.1-0.1l0-0.1l0-0.1  l0-0.1l0-0.1l0-0.1l-0.1,0l-0.7-0.1l-0.3,0l-0.1,0l-0.1,0.1l-0.1,0.1l0,0.3l-0.1,0.1L88,33.3l-0.2,0.2l-0.1,0.1l-0.1,0l-0.9-0.4  l-0.3,0l-0.1,0l-0.1-0.1l-0.1,0l-0.1,0l-0.2,0l-0.1,0l-0.1,0l-0.1,0l-0.1,0l-0.2,0.1l-0.4-0.1l-0.2,0.1l-0.1,0.1l-0.2,0.2l-0.2,0.2  l0,0l-0.1,0l-0.2-0.2l-0.1,0l-0.2,0l-0.1,0l0,0l0-0.1l0-0.1l0,0l0,0l-0.1,0.1l-0.2,0l-0.1,0l-0.6-0.2l-0.1,0.1l-0.3,0.3l-0.1,0  l0,0.2l-0.1,0.1l-0.1,0.1L82.2,34l-0.1,0l-0.2,0l-0.1,0l-0.1,0.1l-0.1,0l-0.5,0.4l-0.1,0l-0.1,0l-0.1,0l-0.1,0.1l-0.2,0.2L80.3,35  l-0.1,0.1l-0.1,0l-0.1,0l-0.1,0l-0.2,0.1l-0.1,0l-0.2-0.1l-0.1,0l-0.1,0l-0.4,0.3l-0.3,0.4l-0.1,0l-0.1,0l-0.2,0l-0.1,0L78,36.2  l-0.2,0.1l-0.1,0l-0.2,0l-0.2-0.1l-0.9,0.6l-0.2,0.1L76.1,37l-0.2,0.1l-0.1,0l-0.2,0.1l-0.1,0l-0.2,0L75.2,37l-0.3-0.3l-0.1,0  l-0.3,0.1l-0.1,0.1l-0.1,0l-0.1,0l-0.3-0.2l0,0l-0.1,0l-0.1,0l-0.1-0.1l-0.1,0l-0.1,0.1l-0.1,0l-0.2,0l-0.2-0.1l-0.3-0.3L72.3,36  l-0.1-0.1l-0.3-0.1l-0.1,0l0,0l0,0l0,0l-0.3,0.2l-0.1,0l-0.1,0l-0.1,0.1l-0.1,0l-0.1,0l-0.2-0.1l-0.1,0l-0.2,0l-0.1,0l-0.1,0.1l0,0  l-0.4,0.1l-0.6,0l-0.1,0l-0.1,0.1L69,36.5l-0.4,0.1l-0.1,0l0,0l0,0l-0.1,0.1l-0.1,0l-0.1,0l0,0l0,0l-0.1,0l-0.1,0L68,37l0,0  l-0.1-0.1l0,0l-0.1,0l-0.2,0.1l-0.1,0l-0.2,0.2l-0.1,0.1l-0.4,0l-0.1,0l-0.1,0l-0.2-0.1l-0.2,0.1l-0.1,0L65.9,37l-0.1,0L65.6,37  l-0.1,0l-0.2-0.1L65,36.9l-0.6-0.2l-0.2,0l-0.2,0.1l-0.1-0.2l-0.1-0.1l-0.1-0.1l-0.3-0.1l-0.1-0.1l0-0.4l-0.1,0l0,0l-0.1,0.1l-0.1,0  l-0.1-0.1l0-0.1l-0.1,0.1l-0.1,0.1l-0.1,0.1L62.5,36l-0.1,0.2l0,0.1l0,0l-0.1,0l0,0l-0.1,0l-0.2,0l-0.1,0l-0.1-0.1l0,0l-0.2-0.1  L61.4,36l-0.1-0.1l-0.1,0l-0.1,0l-0.1,0l-0.1,0l-0.1-0.1l-0.2-0.1l-0.7,0l-0.1,0l-0.2-0.1l-0.1,0l-0.1,0l0-0.1l0-0.3l-0.1-0.2  l-0.2-0.1l-0.8-0.4L58,34.1h-0.4l-0.1,0l-0.1,0l-0.1,0l-0.1,0.1l0,0l0,0.1l0,0l0,0L57,34.4l0,0.1l0,0.1l-0.3,0.2l-0.2,0.1l-0.1,0  l-0.1,0l0,0l-0.1,0l-0.1,0l0,0L56,34.7l0,0l-0.1,0l-0.1,0l0,0l0-0.1l0-0.1l0-0.1l0,0l-0.1,0l-0.3-0.1l-0.1-0.1l-0.2-0.3l-0.1-0.1  l-0.2-0.3l-0.1-0.1l0-0.1l0-0.2l0,0l0-0.1l0-0.1v-0.3l-0.1-0.2l-0.4-0.5h0v0.1l-0.3-0.3l0,0l-0.1,0l-0.1,0.1l-0.1,0.1l0,0.2l0,0.2h0  l0-0.1l0.1-0.2l0-0.1l0.1,0l0,0l0,0l0,0v0l-0.1,0l-0.2,0.2l-0.1,0l-0.1,0L52.6,32l-0.3,0.1l-0.2,0.1l-0.1,0l-0.2,0l-0.2,0l-0.2-0.1  L51.1,32L51,31.9l-0.1-0.1l-0.2,0l-0.3-0.1l-0.1-0.1l-0.2-0.2l-0.2-0.1l-0.1-0.1l-0.1-0.1l0-0.1h0.1v0l-0.3-0.2l-0.2-0.2l-0.1-0.3  l0-0.1l0-0.1l0-0.2l0-0.2l0-0.1l0.1-0.1l0.1,0l0.3,0v0l-0.1-0.1l0,0l-0.1,0l-0.1,0l-0.1,0.1l-0.1,0l-0.2,0l-0.1-0.1L49,29.3v0l0-0.1  l0,0l-0.1-0.1l0-0.1l0,0l0,0l0,0l0,0l-0.1,0l-0.2,0l-0.1,0l0,0.2l-0.1,0.2l-0.2,0.2L48,29.7l-0.2,0.2l-0.1,0L47.4,30l-0.3,0l-0.7,0  l-0.2-0.1l-0.1-0.1l-0.1,0l-0.2,0L45.3,30l-1.7-0.2l-0.7,0.1l-0.1-0.1l-0.1,0l-1.1-0.1l-0.3-0.1l-0.1,0h-0.6l-0.4-0.1l-0.2,0  L39.2,30l-0.8,0.3l-0.2,0.2l-0.2,0.1l-0.4,0.1l-0.1,0l-0.1,0.1l-0.2,0l-0.1,0l-0.1,0l-0.1,0l-0.3,0.1l-0.1,0l-0.1-0.1l-0.1,0  l-0.1,0.1L36.1,31l-0.1,0L36,31l-0.1,0l-0.1,0l-0.4,0.2l-0.1,0.1l-0.1,0.1l-0.1,0l0,0l0-0.1l0,0l0,0l0,0l0,0l-0.1,0l0,0l0,0l-0.3,0  l-0.2,0.1l-0.1,0.2l0,0L34,32.2l-0.1,0.2l-0.1,0.1l-0.5,0.2l-0.1,0l-0.2,0.2l-0.6,0.3l-1.1,0.7l-0.8,0.3l-0.1,0l0,0l-0.1,0.1l0,0  l-0.2,0l-0.1,0l-0.1,0.1l0,0.1l0.1,0.1l0,0l0,0.1l0,0.1l0,0.1l0,0.1l0,0.1l0,0.1l-0.1,0.1l-0.3,0.3l-0.2,0.1l-0.2,0.1l0,0l0,0l0,0  l0,0l0,0l-0.1,0l0,0l-0.2,0l-0.1,0l-0.1,0l-0.1,0l-0.1,0L28.4,36l-1.3,0L26.6,36l-0.1-0.1l-0.2-0.2l-1.7-0.4l-0.2-0.1l-0.2,0  l-0.1-0.1l-0.1,0L24,35.3L24,35.3l0,0l0,0.1l0,0.1l0,0l-0.1,0l-0.1,0.1l-0.1,0l-0.1,0l-1.3,0l-1.4-0.2l-1-0.2l-1-0.2l-0.1,0L18.5,35  h0l-0.2,0l-0.2,0.1l-0.2,0.2l-0.1,0.2l0.1,0.1l0,0.1l-0.1,0.1l-0.1,0.3l-0.1,0.1l-0.1,0.1l-0.1,0.1l0,0.1l0,0.1l0,0.1l0.1,0l0,0v0  l0,0l0,0l0.3,0.2L18,37l0.1,0.1l0.1,0.1l0.3,0.1l0.1,0.1l0.1,0l0.1,0.1l0.1,0.1l0.1,0.1l0,0l0,0l0,0l0,0l0,0l-0.1,0l0,0.1l0,0l0,0  l0,0v0l0.1,0l0.1,0l0,0l0,0l0,0l0.1,0l0,0l0,0l0,0.1l0,0l0,0l0,0l0,0l0.1,0l0,0.1l0,0.1l0,0.1l0.1,0l0.1,0l0.1-0.1l0.1,0l1.2-0.1  l0.1,0l0.2,0.1l0.1,0l0,0l0.1,0.1l0.1,0l0.1,0l0,0l0,0l0,0l0.4-0.1l0.2,0l0.1,0.2l-0.1,0.1l-0.1,0L22,38.5l-0.6,0l-1,0.2l-0.1,0  l0-0.1l-0.1-0.1l-0.1,0l-0.1,0l-0.1,0l-0.1,0l0,0l0,0.1l0,0.1l-0.1,0l-0.1,0l0,0l-0.1,0l0,0l0-0.1l0,0l0,0l-0.1,0.1l-0.2,0.1  l-0.2,0.1l-1.5,0.1l-0.1,0l-0.2,0.2l-0.2,0.1l-0.4,0.1l-0.2,0.1l-0.1,0.2l0.3,0.1l0.5,0.3l0.3,0.1l0.1,0l0.1-0.1l0,0h0.3l0.1,0  l0.1,0.1l0.1,0.1l0.1,0.1l-0.1,0l-0.1,0l-0.1,0l-0.1,0l0,0.1l0,0.2l0,0.1L17.7,41l-0.1,0l-0.4,0l-0.1,0l-0.1,0l-0.1-0.1l-0.1,0  l-0.1,0l-0.2,0l-0.2-0.1l-0.1,0l-0.1,0l-0.1,0.1l-0.3,0l0,0l-0.1,0.1l0,0l0,0l0,0l0,0l0,0l-0.2-0.1l-0.2-0.1l-0.2,0l-0.2,0.1l0-0.1  l0,0l0,0l0.1,0l-0.5,0l-0.3,0l-1.2,0.1l-0.4,0.2l-0.4,0l-0.2-0.1l0-0.2l0.1-0.1l0.5-0.2l0.1-0.2l-0.1-0.1L12,40l-0.9-0.1l0,0l0,0  l0,0l0,0l0,0L11,39.8l-0.1,0.1l0,0l0,0l-0.1,0L10.7,40l-0.1,0l-0.1,0v0l0,0.1l0.2,0.2l0,0h0l0,0l0,0l0,0.1l0,0l0,0l0,0.1l0,0l0,0  l0,0l0,0.1l0,0.1h0l0.1,0l0.3,0.1l0.1,0l-0.1,0.1l-0.3,0.1l-0.1,0.2l-0.1,0l-0.2,0l-0.1,0l-0.1,0.1l-0.1,0l-0.1-0.1l-0.1,0l-0.1,0  l-0.2,0.1l-0.1,0l-0.1,0l-0.4-0.1L9,41.1l-0.3-0.2l-0.2-0.2l0,0l0,0l0,0l0,0h0l0.1-0.1l-0.1-0.2l-0.1-0.1l-0.1-0.1l-0.1,0l-0.2,0.1  l-0.1,0l-0.2,0l-0.2,0l-0.2,0l-0.2,0.1l-0.1,0.2l-0.1,0.1l-0.1,0l-0.3,0l-0.1-0.1l-0.1,0l-0.2,0l-0.5,0l-0.2,0l-0.1,0.1l-0.6,0.7  l-0.1,0.1l-0.1,0l0,0l0,0l-0.2,0.3L4.4,42l-0.2,0l-0.1,0.1l-0.1,0l-0.1,0l0,0l0,0l0,0.1l0,0.1l0,0.1l0,0.1l0,0.1l0,0l0,0l-0.1,0l0,0  l0,0l0,0l0,0l0,0l0,0.1l0,0.1l0,0.1l-0.2,0.2l-0.1,0l-0.2,0.1l-0.1,0.1l-0.3-0.1l0,0l-0.1,0.2l0,0.1l0,0.1l0,0.1l0,0.1l0,0.1l0,0.1  l0,0l-0.1,0.3l0,0.1l0.1,0l0,0.1l0,0.2V45l0,0l0,0l0,0l0,0.1l0,0.1l0.1,0.2l0,0.1l0,0.4l0,0.2l-0.2,0.2l-0.1,0.3l-0.1,0.4l0,0.1  l0.2,0.1l0.2,0L3,47l0.1,0l0,0l0,0l0,0l0-0.1l0.1,0l0.1,0l0.1,0l0.3,0h0.1l0,0l0.2-0.1l0.1,0L4,46.7l0.1,0L6,46.4l0.1,0.1l0.1,0  l0.1-0.1l0.1-0.1l0.2,0l0.1,0.1l0,0.1l0,0.1l-0.1,0.3l0,0.1l0,0l0,0L6.3,47l-0.1,0.1l0.1,0.1l-0.1,0.1l-0.1,0l-0.2,0l0,0.1l0,0l0,0  v0l0,0l0,0l-0.6,0.4l-0.1,0.1l-0.1,0l-0.1,0l0,0.1l0,0.1l0,0l0,0l0,0l-0.1,0v0l0.1,0l0,0l0,0l-0.1,0l0,0.1l0,0.1l-0.1,0.1l0.1,0  l0.1,0l0.3,0l0.1,0l0,0.1l0,0.1l0,0.1l0,0.1L5.7,49L5.8,49L6,49.1l0.1,0.1l0.1,0.2l0.1,0.2l0,0.1l-0.1,0.1l-0.1,0l-0.1,0.1L6,50  l-0.1,0.1l0.1,0l0,0v0l-0.1,0.1l0,0.2l0,0.2l0.1,0.1l0.1,0l0.1,0.1l0.1,0l0.1,0l0.2-0.1l0.1-0.1l0.1,0.1l0,0l0,0l0.1,0l0,0l0.1,0.1  l0,0l0.1,0l0.1,0l0.1,0l0.1-0.1l0.1,0.1l0,0.1l-0.1,0.2l0.1,0l0,0.1l-0.1,0.1l-0.1-0.1l0,0.1l-0.1,0.1l-0.1,0l-0.1,0l0.1,0.2  l-0.1,0.1l-0.1,0l0-0.1l-0.2,0.1l0,0l0.1,0.2l0-0.1l0,0.1l0,0.1l0,0l0,0.1l0,0l0,0l0,0l-0.1,0l0,0.1l-0.1,0l-0.1,0l-0.1-0.1l-0.1,0  l-0.1,0l0,0l0,0l0,0l0,0l-0.2,0.1L5.6,52l-0.1,0.1l0,0.1l0,0.1l0.1,0.2l-0.1,0l0,0l0,0l0,0l0.1,0.1l0.1,0l0.1,0l0,0l0,0.1l0,0l0.1,0  l0.1,0l0.1,0l0,0l0,0.1l0.1,0l0.1,0l0,0l0.1,0.1l0,0.1l0,0.2l0,0.1l0.1,0l0.1,0.1l0.1,0.1l0.1,0.1v0l-0.1,0l-0.1-0.1l-0.1-0.1  L6,53.2l0.1,0.1l0.1,0.1l0.1,0l0.1,0l0.1,0l0.2,0.3l0.1,0.1l0,0.1l0,0l0.1-0.1l0.3-0.1l0.1,0l0.1,0.1l0,0l0.2,0l0.1,0l0,0l0,0l0,0  l0.1,0v0L7.7,54l-0.1,0.1l-0.1,0.1l-0.1-0.1l0,0l0,0l-0.1,0l-0.1,0l0,0l-0.1,0l0,0L7,54.2l0,0l-0.1,0l-0.3,0.1l-0.4,0l-0.1,0l-0.1,0  l-0.1,0l0-0.1l0,0l-0.1,0l0,0l-0.1-0.3L5.6,54L5.5,54h0v0l-0.1,0l-0.1,0.1l-0.1,0.1l0,0.1l0,0.3l0.1,0.1l0,0.1l0,0.1l-0.1,0  l-0.1-0.1l-0.1-0.3L5,54.3l0-0.1L5,54.1l-0.1,0l0-0.1l0-0.1l0-0.1l-0.1,0l0.1,0l0.1,0l0.1,0l0,0l0,0l0,0l0,0l0-0.1l0-0.1l0-0.1  l0-0.1l0-0.1l0,0l0,0l0,0l-0.1-0.2l-0.1-0.2l0-0.1l-0.1-0.1l-0.2-0.2l-0.1-0.1l-0.1-0.1l-0.1,0l-0.1,0l-0.1,0l-0.1,0.1l-0.1,0  l-0.1,0l0,0.1l0,0.1l0,0.1L3.6,53l0,0l0,0l0.1,0.2l0,0.1l0,0l0.2,0.2l0,0.1l0,0.1l0,0.1l0,0l0.1,0l0,0l0-0.1l0,0l0.1,0l0.1,0.1  l0.1,0l0.1,0.1l0.1,0l-0.1,0.2l0,0l-0.1-0.1L4.1,54v0l0.1,0.1l0,0.1l0,0.1l-0.1,0.1l0,0L4,54.6l-0.1,0l-0.1,0l0,0l-0.1-0.1v0l0,0.1  l0,0l-0.1,0l-0.1,0l0,0l0,0l0,0l0,0l0,0l0,0l0,0l0,0l0-0.1l0-0.1l0-0.1l0-0.1l0,0l0,0l0,0l0,0.1l-0.1-0.1l0,0.1l0,0.1l0.1,0.1v0  l-0.1,0l0,0.1l-0.1,0.1L3,54.9L3,55l0,0l0.3,0.1l0,0l0.2,0.1l0.1,0l0.1,0l0-0.2h0l0,0.1l0,0.1l0,0.1l0,0.1l0.1,0.1l0,0h0l0,0l0-0.1  l0.1,0.1l0.1,0.1l0.1,0.1l0.1,0l0,0.1l0,0.1l0,0.1L4.6,56L4.7,56l0.1,0l0-0.1l0,0.1l0.1,0.2l0,0l0.1,0l0-0.1L5,56l0-0.1h0l0,0l0,0  l0,0l0.1-0.4l0.1,0l0.3,0l0.1,0l0.1,0l0.1,0l0.1,0.1l0,0.2l0,0.1l0.1,0l0,0.1l0.1,0.1L6.1,56l0,0.1l0,0.1l0,0.1l0,0.1l0.1,0.2l0,0  l0,0l0,0l0,0l0,0l0,0l0.1,0l0.2,0l0.1,0l0.3,0.1l0.2,0l0,0l0,0.1l0,0l0,0l0,0l0,0l0.1,0l0,0l0,0l0,0l0.1,0.1l0.2,0h0.2l0.1,0  l0.1,0.2l0,0.1l-0.1,0.1l0,0.1l0,0.1l0,0.1l0,0.1l0,0l-0.1,0.1l0,0l0,0.1l0,0.1l0,0.1l0,0.1l0,0.1l0,0.1l0,0.1l0,0.1l-0.1,0.2  l-0.1,0l-0.4,0.2l-0.1,0l-0.4,0l-0.1,0L7,59l0.2,0.1l0.5,0.1L8,59.5l0.1,0l0,0.1l0,0.1l0,0.1l-0.1-0.1l0,0.1l0,0l0,0l0,0l0,0.1  l0,0.1l0,0.1l0,0.1l0-0.1l0,0l0,0l0,0l0.1,0l0,0.3l0,0.1v0l0,0l-0.1,0l0,0.1l0,0.1L8,61L8,61.1l0,0l0,0l0,0l0,0l0,0l0,0l0,0l0,0h0  l0,0l0,0.1l0.1-0.1l0.1,0l0.3,0l0,0L8.7,61v0l0.1,0l0.1-0.1l0-0.1l0-0.1l0.1,0l0.1,0l0.1,0l0.1,0.1l-0.1,0.1L9.1,61l0,0.1l0,0.1  l0.1,0.1l0.1,0l0.1-0.1l0-0.2h0l0.1,0.1l0,0.1l0,0.1l0,0.1l-0.1,0.1l0,0.1l0,0.1l0,0l0.1,0l0-0.1l0,0h0.1l0.1,0.1l0,0.1l-0.1,0.1  l0.1,0l0.1,0l0.1-0.1l0-0.1l0-0.1l0.1,0l0.1,0l0,0l0,0l0,0l0,0l0,0l0.1,0l0,0l0,0.1l0,0l0,0l-0.1,0l0,0l0,0.1l0,0l0.1,0l-0.1,0.1  l0,0l-0.1,0l0.1-0.1l-0.1,0l-0.2,0.1v0l0.1,0l0,0.1l0,0.2l0,0l0,0l0.1,0v0l-0.1,0l-0.1,0l-0.1,0l0,0l-0.1,0l-0.1,0.1l-0.1,0l-0.1,0  l-0.1-0.1l0,0l0,0l0,0l0,0l-0.1,0l0,0l0,0l0,0l-0.1,0l0,0l0,0l0-0.1l0,0l0,0l0,0l0,0l0,0l0,0l0,0.1l0,0.1h0l0-0.1l0-0.1l0,0l-0.1,0  l0,0.1l0,0.1l0,0.1l0,0l-0.1,0l-0.2-0.1l-0.1,0.1l0,0l0,0l0,0l0,0l0,0l0,0l0,0l0,0l-0.1,0.1l-0.1,0.1l-0.1,0l0,0L8.2,63l0,0.1l0,0.1  l0,0.1l0,0.1l0,0.1l0.1,0.1l0.1,0l0,0.1l0,0h0l0,0l0,0l0-0.1l0.1,0l0.1-0.1l0-0.1l0-0.1v0l0.1,0l0.1,0l0,0l0,0l0,0l0,0l0,0l0,0l0,0  l0,0l0,0l0,0l0,0l0,0l0,0L9,63.3l0-0.1h0l0,0l0,0l0.1-0.1l0.1,0l0,0l0.1,0.1l0.1,0l0.1,0l0.2,0l0.1,0l0.1,0l0.1,0.1l0-0.2l0.1,0  l0.1,0.1l0.1,0.1l0.1-0.1l0.2-0.1l0.2,0l0.1,0.1l0.1,0l0.1,0l0.1,0l0,0l0-0.1l0,0h0l0.1,0l0.4-0.1l0.1,0l0.2,0l0.1,0l0.1,0l0.1-0.1  l0.1,0l0.6,0.1l0.1,0.1v-0.1l0-0.1l0.1,0l0.3,0l0.7-0.1l0.1,0l0,0l0,0l0,0l-0.2,0l-0.3,0.1l0,0.1l0,0l-0.1,0l-0.1-0.1l0,0.1l0,0.1  h0.1v0l0,0l-0.1,0.2l0,0l0,0l0,0l0,0v0l0,0l0,0l0,0l0,0l0,0l0,0l0,0l0,0l0-0.1l0,0h0l0,0l-0.1-0.1l-0.1,0h0l0,0l0,0l0,0l0,0l0,0  l-0.1,0l-0.1,0v0h0.1v0l0,0l-0.1,0l0,0l0,0l0,0l0,0l0,0l0,0l-0.1,0l0,0.1l0,0.1l0.1,0.1v0l-0.1,0l0,0l0,0l0,0l0,0l0,0l0,0l0,0  l0.1,0.1l0,0.1l0,0l0,0l0,0l0.1,0l0.1,0l0,0l0,0.1l-0.1,0.1l0,0l0,0.1l-0.1-0.1l-0.1,0l-0.2,0l-0.1,0l-0.1,0l-0.1,0l0,0l-0.1,0  l-0.5,0l-0.1,0L11,64.8l-0.1,0l-0.1,0l-0.1,0l-0.1,0l-0.1,0l-0.2-0.1l-0.1,0l0,0.1l0,0.1l0,0.1l-0.1,0l-0.2,0L9.5,65l-0.1,0l0,0  l-0.1,0l-0.1,0.1l0,0.1l0,0.1l-0.1,0l-0.1,0l-0.1,0l-0.1,0v0l0,0l0,0v0l0,0l0,0h0l0,0l0,0l0.1,0l0.1,0l0,0l0,0.1l0.1,0l0.1,0l0.1,0  l0,0l0.1,0.1l0,0l0,0l0,0l0,0l0.4-0.1l0,0.1l0.1,0l0.1,0l0.1,0l0.1,0l0.1,0l0.2,0.1l0-0.1l0.1-0.2l0-0.1v0l0.1,0l0.1-0.1l0.1,0  l0.1,0l0.1,0l0.1,0l0.1,0v0l0.1,0l0.1,0l0.1,0.1l0.1,0.1h0l0-0.1l0,0l0,0l0,0l0,0l0,0l0,0l0,0.1l0.1,0l0.1-0.1l0,0l0,0.1h0l0.1,0  l0.2-0.1l0.1-0.1l0,0.1l0,0l0.1-0.1l0.1-0.1l0,0l0.1,0l0.1,0l0,0.1l0,0.1l0,0.1l-0.1-0.1l0,0l0,0l0,0L12.7,65l0,0l0,0l0,0l0.1,0l0,0  l0,0.1l-0.1,0.1l-0.1,0l0-0.1l-0.1,0l-0.2,0l0,0l0,0l0,0l0,0l0,0l-0.1,0l0,0l-0.2,0l0,0l0,0.1l0.1,0h0.1l0,0l0,0l0.1,0l0.1,0l0,0  l0-0.1l0,0l0.1,0l0.1,0.1l0,0.1l0,0.1l-0.1,0.1v0l0,0l0.1-0.1l0.1,0.1l-0.1,0.1l-0.1,0.1l-0.1,0.1l-0.1,0H12l0,0l0,0l0,0l0,0l0,0  l0,0l0.1,0.1l0.1,0l0.1,0l0.1-0.1l0,0.1l0,0l0.1,0l0.1,0l0,0l0,0l0,0l0,0l0,0l0,0l0,0l0.1,0l0.1-0.1l0.1-0.2l0.1-0.1l0.1-0.1  l0.1-0.1l0.3-0.1l0,0l0,0l0,0l0,0l0,0l0,0l0,0l0,0l0,0l0-0.1l0.1,0l0.1,0l0.1,0l0-0.1l-0.2-0.2l0-0.1l-0.1-0.1l0-0.1l0-0.1l0.1-0.1  l0.1,0l0.1,0l0.1,0.1l0.1,0v0l-0.1,0l-0.1,0l0,0.1l0,0.1l0.1,0l0.1,0l0,0l0-0.1h0l0.1,0l0.3,0.1l0.1,0l0.1-0.1l0-0.1l0.1-0.1  l-0.1-0.1l0,0l0,0l0,0l0,0l0,0l0,0l0.1,0l0.2,0l0.1,0l0-0.1l0-0.1l0,0l0,0l0,0.1l0,0l0,0l0,0l0,0l0,0l0,0l0,0l0,0.1l0,0.1l0.1,0h0.1  v0l-0.1,0l0.1,0l0.1,0l0.1,0l0.1,0l0-0.2l0.1-0.1l0.2,0l0.1,0.1l0,0.1l0,0l0,0l0,0l0,0l0-0.1h0l0,0v0l0,0l0,0l0,0h0l0,0l0,0l0.1,0.1  l0,0.1l0,0.1l0,0.1l0.1,0.2l0,0l0.1-0.1l0.1,0l0.1,0l0,0.1h0l0.2-0.1l0.2,0l0.2,0.1l0,0.2l0.1,0l0.1,0l0.1,0l0.1,0v0l-0.1,0l0,0  l0,0.1l0.1,0.1l0.1,0l0.1,0l0.1,0l0-0.1l0.1-0.1l0.1-0.1l0-0.1l-0.1-0.1l0,0.1l0,0.1l0,0l0,0.1h0l0,0l-0.1-0.1l0,0l0,0l0,0l0-0.1  l0.1,0l0,0l0-0.1l0-0.1l0,0l0,0l0.1,0v0h0v0l0.1-0.1l0.1-0.1l0.1-0.1l0,0.1l0.1,0.1l0.4,0.2l0.3,0.2l0,0l0,0.1l0,0.1l0,0.1l0,0.1  l-0.1,0l0,0l0-0.1v0l-0.1,0l-0.1,0.1l-0.1,0.1l-0.1-0.1l0,0.1l0,0.1l0,0l0.1,0.1l0,0.1l0,0.1l-0.1,0l0.1,0l0.3-0.1l0.1,0.1h0l0.1,0  l0,0.1l0,0.2v0l0,0l0,0l-0.1,0.1v0l0.1,0l0.1,0.1l0,0.1l0,0.1l0,0h0l0,0l0,0l-0.1,0l-0.1,0l0,0l0,0.1H18l0,0l0.1,0l0,0h0.1v0l0,0  l0,0l0,0.1l0.1,0l0.1,0.1l0.3,0.1l0.1,0.1l0,0.1l0.3,0.3l0,0l0,0l0,0.1l0,0l0,0l0,0l0,0l0,0l0,0l0,0l0,0l0.1,0l0,0l0,0l0,0l0,0  l0,0.2l0,0.1l0.1-0.1l0.3,0.2l0.1,0l0.4,0l0.1,0.1l-0.1,0l-0.1,0l-0.1,0l0,0v0l0.3,0l0,0l0,0.1l0,0l-0.1,0l0.1,0.1l0.2,0.1l0,0.1  L21,69l0,0l0.1,0l0,0l0,0l0,0l0.1,0l0.1,0l0.1,0l0.1,0.1l0,0l0,0l0.1,0l0,0l0,0l0,0l0,0v0l0.1,0l0.1,0l0.1-0.1l0.1-0.1h-0.1v0l0.1,0  l0.1,0l0,0l0,0h0l0,0l0.1,0l0.2,0l0.1,0l0.1-0.1l0,0l0,0l0.1,0l0.1,0l0.1,0l0.1,0l0.1,0l0.4-0.2v0h-0.1l0.1,0l0.1,0l0,0l0,0l0.2,0  l0,0l0,0l0.1,0l0-0.1l0-0.1l0,0.1l0,0h0l0-0.1l0-0.1l0-0.1l0.4-0.1l0.1,0l0.6,0.3l0.1,0l0.1,0.1l0,0.1l0,0.3l0.1-0.1l0.1-0.1  l0.1-0.1l0.1-0.1l0.1-0.1l0.1-0.1l0,0l0,0l0,0l0,0h0l0.1-0.1l0.1-0.1l0.1-0.1l-0.1,0l0-0.1l-0.1,0l-0.1-0.1l0-0.1l0.1-0.1l0-0.1  l0.1-0.2l0.1-0.2l0.1-0.1l0.2-0.1l0-0.1l0.1-0.2l0-0.1l0,0l0-0.1l0-0.1l0-0.1l0-0.1l0-0.1l0-0.1l0-0.1l0-0.1v0l-0.1-0.1l0-0.1l0-0.2  v-0.2l0-0.1l0.1-0.1l0.1-0.2l0.1-0.1l0.3-0.2l0.2,0.2l0.1,0.1l0.1,0l0.9,0l2.1,0.3l0.2,0.1l0,0.2l0.2,0l1,0.4l0.1,0.1l0.1,0.1  l0.4,0.2l0.1,0l0.1,0l0.1,0.1l0.1,0.1l0.2,0.1l0,0l0.1,0l0.1,0l0.1,0l0.1,0.1l0,0.1l0.1,0l0.2,0l0,0l0,0l0,0l0.1,0l0.1,0l0,0l0,0  l0.3,0.3l0.1,0l0.1,0.1l0.1,0.2l0,0l0.1,0l0,0l0.1,0.1l0.1,0.1l0,0l0,0.1l0.1,0.2l0.3,0.3l0.1,0.2l0,0.1l0,0.2l0,0l0.1,0.1l0,0l0,0  l0.2,0.3l0.1,0l0.1,0l0.1,0l0,0.1l0.1,0.1l0.4,0.2l0.1,0l0.2,0l0.3,0.2l0.2,0.1l0.5,0.1l0.2,0l0.3-0.2l0-0.1l0.1,0l0.3-0.2l0.1,0  l0.3,0.1l0.2,0l0.1,0l0,0l0,0h0l0.1,0l0.1-0.1l0-0.1L39,69l0.1,0l0.1,0l0.1,0.1l0.1,0l0.1,0l0.2,0l0.2,0l0.1,0l0.1-0.1l0.1,0  l0.2,0.1l0.1,0l0.2-0.1l0.1,0l0.1,0l0.2,0.1l0.1,0v0l-0.1,0l0.1,0l0.1-0.1l0.1-0.2l0.1-0.1l0.1,0l0.1,0l0,0l0,0.1l0.1,0.2l0,0l0,0  l0-0.2l0-0.1l0.2-0.2l0,0l0.2-0.1l0.1,0l0.1,0l0.1-0.1l0.1-0.1l0,0l0,0l0,0l0.1,0l0.1-0.1l0.1-0.2l0.1-0.1l0.1,0l0.1,0l0.1,0  l0.1,0.1l0.1,0.2l0,0.2l0,0.1v0l0.1,0l0,0l0-0.1l0-0.1l0-0.1l0.1-0.1l0,0l0,0l0,0l0.1-0.1l0.1-0.1l0.2,0l0.1-0.1l0-0.2l0-0.2l0-0.2  l0.2-0.1l0.2-0.2l0.1-0.1l0,0l0-0.1l0-0.1l0.4-0.6l0.2-0.1l0.6-0.4l0.5-0.4l0.2-0.1l0,0l0.1-0.1l0,0l0.2-0.1l0.1,0l0.2,0l0.3-0.2  l0.2-0.1l0.2,0.1l0,0l0.4,0.2l0.2,0.2l0.1,0l0,0.1l0,0l0.1,0l0.1,0l0.1,0l0.1,0l0.1,0l0.2,0.1l0.1,0.1l1.3,0.8l0.1,0l0.1,0l0.1,0.1  l0.1,0l0,0l0.1-0.1l0.1,0l0,0l0,0l0,0l0.1-0.1l0,0l0.2,0l0.2,0.1L51.4,66l0,0l-0.1,0l0-0.1l0,0l0.1,0l0.1,0l0.2,0.2l0.1,0l0.2,0l0,0  L52,66l0.1,0l0,0l0-0.1l0-0.1l0-0.1l0-0.1l0-0.1l0-0.1l0.2-0.2l-0.1,0l-0.1,0L52,65.6l-0.1,0l0-0.1l0.1-0.1l0.1-0.1l0.3-0.1l-0.1,0  l-0.1,0l-0.1,0l-0.1,0l0,0l0-0.1l0,0l-0.1,0l0,0l0,0l0,0l0,0l0,0l0,0l0,0l0,0l0,0.1l-0.1,0l-0.1,0.1l0-0.1l0-0.1l0.1-0.1l0.1-0.1  l0,0l0,0l0,0l0,0l0.1,0l0.1-0.1l0.1-0.1l0.2-0.1l0.4,0l0.2,0l0.1-0.1l0.2-0.2l0.1,0l0.1,0l0.1-0.1l0.3-0.4l0.2-0.2l0.2-0.1l0.2,0.1  l0.2,0.1l0.2,0.2l0.3,0.4l0.1,0.1l0,0.1l0,0.4l0,0l0,0.1l0,0.1l0,0.1l0,0.1l0,0.1L55,65.9L55,66L54.9,66l-0.1,0l-0.6,0.4l-0.1,0  l0,0.1l-0.2,0.3l0,0l-0.2,0.1l0,0l0,0l-0.1,0l0,0.1l0,0.1l0,0l-0.1,0l0,0l-0.1,0.2l0,0l-0.1,0l-0.1,0l-0.1,0l0,0.1l-0.1,0.2l0,0.1  l0.1,0.1l0.1,0.1l0.1,0.1l0.1,0.1l0.1,0.2l0.1,0.1l0.1,0.1l0.4,0.6l0.1,0.4l0,0.1l-0.1,0l-0.2,0.4l-0.1,0.1l0,0l0.1,0l0.1,0l0.1,0  l0.1,0.1l0,0.1l0,0.1l0,0.1l0.1,0.1l0.1,0l0.2,0l0.2,0.1l0.3,0.2l0.1,0l0.1-0.2l0-0.5l0.1-0.2l0.2-0.1l0.1,0l0.1,0l0-0.2v0h0l0.1,0  l0.2,0.1l0.1,0l0-0.2l0-0.9l0-0.1l0,0l0,0l0-0.1l-0.1-0.1l0.1-0.1l0.1,0.1l0.1,0l0.1,0l0.1,0l0,0h0l0,0l0,0l0,0l0,0l0.1,0l0.1,0  l0.4,0.1l0.1,0l0.4-0.1l0-0.1l0-0.1l0-0.1l0-0.1l-0.1-0.1l-0.1-0.1l-0.1,0l-0.2,0L57,67.7l0,0l0-0.1l0-0.1l0-0.1l0,0l0,0l0,0l0,0  l-0.1,0l0,0l0,0l-0.1-0.4l0-0.1l0-0.1l0.2-0.2l0-0.3l0-0.3l0.1-0.3l0.1-0.2l0-0.1l0-0.1l0-0.1l0.1-0.1l0.1-0.1l0.1-0.1l0-0.2l0,0  l0,0l1,0.3l0.3,0l0.1,0l0.1,0L59,65l0.1,0.1l0.2,0.1l0,0.1l0,0.1l0,0.2l0,0.1l0.1,0.1l0.1,0.1l0,0l0-0.1l0.1-0.1l0.1,0l0.1,0l0.1,0  l0.1,0l0.3-0.1l0.1,0l0.8,0.2l0.2,0l0.8-0.5l0.3-0.1l0.9-0.2l0.8-0.4l0.1,0l0.6-0.4l0.4-0.1l0.2,0l0.3,0l1,0.3l0.3,0.1l0.7,0.7  l0.3,0.2l0.4,0l0.8,0l0.1,0l0.3,0l0.8,0.3l0.3,0l2.7-0.5l1.1-0.4l0.5-0.3l0.2-0.1l0.2,0l0.2-0.1l1.1-0.7l0.1-0.1l0.1,0l0.1,0l0.1,0  l0.2-0.1l0.7-0.4l0.3-0.1l1-0.1l1.2,0.3l0.2,0.1l0.1,0l1.5-0.1l2.8-0.7l0.2-0.1l0.4-0.4l0.3-0.3l0.1,0l0.1-0.1l0.1,0.1l0,0.1l0,0.1  l0,0l0.1,0l0.2,0.1l0,0l0,0l0,0l0,0l0,0l0,0.1l0,0l0.2,0.1l0,0l0,0.1l-0.1,0.4l0.1,0.1l0,0l0,0.1l0,0.2l0.2,0l0.3-0.1l0.4-0.1l0.1,0  l0,0l0.1-0.2l0.7-1l0-0.1l0,0l0,0l0-0.1l0,0l0.3-0.1l0,0l0.1,0l0,0l0,0.1l0,0l0.4,0.1l0.2,0l0.2-0.1l0.1-0.1l0.2-0.1L91,61l0.2,0  l0.1,0l0.7,0.4l0,0l0,0l0,0l0,0l0,0l0.1,0l0.1,0l0.2,0.2l0.2,0.1l0.2,0.2l0.1,0l0.1,0l0.1,0l0.1,0l0.1,0l0,0l0.1,0.1l0.1,0.1l0.1,0  l0.5,0l0.1,0l0.1,0l0.1,0l0.1,0.1l0,0l0.1,0l0.1-0.1l0.3,0l0.2-0.2l0.2-0.2l0.2-0.2l0.2,0l0.3,0l0.5,0.2l0.1,0.1l0.1,0.1l0.1,0.1  l0,0.2l0,0.1l0,0.1l0,0.1l0,0.1l-0.1,0l-0.1,0l-0.1,0l-0.1,0.1l0,0.1l0,0.1l0,0.1l0.2,0.5l0,0.1l0,0l0.2,0.1l0.1,0l0,0l0-0.1h0  l0.1-0.1l0-0.1l0-0.1L98,63l0.1-0.1l0.1-0.1l0.1-0.2l0.2-0.2l0.2-0.1l0.2-0.1l0.1,0l0.5,0.1l0.1,0.1l0.1,0.1l0-0.1l0-0.1l0-0.1  l0-0.1l0-0.1l0.1-0.1l0.1,0l0.1-0.1l0-0.2l-0.1-0.1L99.6,61.2z M2.1,38.7l0,0.2l0,0.1l0,0.1l0,0.1l0,0.1l0.1,0l0.1,0l1,0l0.3-0.1  l0.1,0l0.1,0.1l0.1,0l0.1,0l0.1,0l0.1,0l0.1,0l0.1,0.1l0.4-0.2l0.1,0h0.4l0.1,0L5.5,39l0.4-0.1l0,0.1l0.2,0.3L6,39.5l-0.1,0.1  l-0.2,0.1l-0.1-0.1l-0.1,0.1l-0.1,0.2l-0.1,0.1l-0.1,0l-0.2,0l-0.1,0L4.7,40l-0.2,0.1l-0.2,0.2L4,40.5l-0.2,0.2l-0.3,0.2L3.4,41  l-0.1,0l-0.3,0.1L3,41.1l0,0l-0.1,0.1l0,0.1l0,0l0.1,0l0,0l0,0l-0.1,0l0.2,0.1l0.1,0.1l0,0.2l-0.1,0.2l-0.2,0.3l0,0.1l0,0.1  l-0.1,0.1l-0.1,0.1l0,0l0,0.1l0,0.1l0,0l0.1,0L3,43L3,43l0.2-0.1l0.2-0.1l0.1-0.1l0.2-0.2l-0.1-0.1l-0.1-0.1l0-0.1L3.6,42l0.1,0  L3.9,42L4,41.9l0.1-0.1l0.1-0.2l0,0l0,0l0.1-0.1l0.1-0.1l0.2,0l0,0l0.3-0.3L5,41l0-0.1l0-0.1l0-0.1l0.2-0.1l0.1-0.1l0-0.2l0.1,0  l0.1,0l0.2-0.1l0.1-0.1L6,40L6.1,40l0.1-0.1l0.3-0.2l0.2-0.1l0.2,0l0.1,0l0.2-0.2l0.1-0.1l0.1,0l0.2,0l0.1-0.1l0.1,0l0.1,0l0,0L8,39  l0,0l0.5-0.3l0.2-0.4l0.5-0.5l0.1-0.2L9.4,37l0.1-0.2l0.2-0.1l1.1-0.2l0.2,0l0.2,0.1l0.1,0.1l0.1,0.1l0.1,0.1l0.4,0.1l0.1,0l0-0.1  l0-0.1l0.1-0.2l0.1-0.1l0.1-0.1l0.1,0l0.1,0l0.3-0.1l0.1,0l0,0l0.3-0.1l0.1,0.1l0.1,0l0.2,0l0,0l0.1,0.1l0,0h0.2l0.2,0l0.4,0.1  l0.2,0l0.1,0.1l0.3,0.3l0.2,0l0.1-0.1l0-0.1l0-0.1l0-0.1l0-0.1L15,36.1l0-0.1l0.1,0l0.1,0.1l0.1,0.1l0,0.2l0,0l0,0l0.1,0.1l0,0.2  l0.2,0.1l0.6-0.1l0.1,0l0.1,0.1l0,0l0.1,0l0.1,0l0.1,0l0,0l0,0l0,0l0.1,0l0.2,0l0.1-0.1l0.1,0l0,0l0-0.1l0,0l0,0l0,0l0.1,0l0,0l0,0  l0,0l0,0l0,0l0,0l0,0l0-0.1l0,0l0.1,0l0,0l0.1-0.1l0-0.1l0-0.1l0-0.1l0,0l0,0l0,0l0,0l0,0l0,0l0-0.1l0-0.1l0,0l0.1,0l0.1-0.1  l0.1-0.1l0.1-0.1l0-0.2l-0.1-0.1l-0.1-0.1l-0.1,0l0,0l0,0.1l0,0l0,0l0,0l0,0l0,0L17,34.8L15.3,34l-1.1-0.5L13.4,33l-0.3-0.3L13,32.6  l-0.1-0.1l-0.1-0.1l-0.1-0.1l-0.1-0.1l0-0.1l0,0l0,0l0,0l0,0l0,0l0,0l0,0l0-0.1l0-0.1l-0.1-0.1l-0.1-0.1l-0.1-0.3l-0.1-0.1L12.1,31  l-0.1-0.1l0-0.2l0-0.2l0-0.1l0.1,0l0.1,0l0.1,0l0.1,0l0,0l0,0l0-0.1l0,0l0,0l0-0.1l-0.1-0.3l-0.2,0l-0.1,0l-0.3,0l-0.1,0l-0.1-0.1  l-0.1,0l0,0l-0.1,0l0,0l0,0l0,0l0,0l0,0.1l0,0.1l0,0.1l0.1,0l0,0l-0.1,0l-0.1,0L11,30l-0.3-0.2l-0.2,0L10.2,30l0,0.1l0,0h0l0,0  l0,0.1l-0.1,0l-0.1,0l0,0l0,0l0,0l0,0l0,0l0,0l0,0l0.1,0l-0.1,0l-0.1,0l-0.1-0.2l-0.1-0.1l-0.4-0.2l-0.1-0.1l-0.1-0.1l-0.2-0.3  l-0.1-0.1L8.4,29l-0.2,0l-0.1,0L8,29l-0.1,0.2l0,0l0,0l0,0l-0.1,0l-0.1,0l-0.1,0l-0.1-0.1l-0.1-0.1l-0.1,0l-0.1,0l-0.1,0.1L7,29.4  l-0.1,0.1l-0.1,0l0,0.1l0,0.1l-0.1,0.1l0,0l-0.1,0l-0.1,0l-0.1,0.1l0,0l0,0l-0.1,0l-0.1,0l-0.1,0.1l0,0l-0.1,0l-0.1-0.1l0,0l-0.1,0  l-0.1,0.1l-0.1,0l-0.1,0L5,29.9l-0.1,0l-0.1,0.1l-0.2,0.2l0,0l0,0l0,0l0,0l0.1,0l0,0l0,0l0,0.1l0,0l0,0.1l0,0.1l0,0.1l-0.1,0.1  L4.3,31l-0.5,0l-0.2,0.2l-0.1,0.2l0,0.2l0,0.1l0.1,0.1l0.1,0l0.1,0l0.1,0.1l0.2,0.1l0.1,0l0.1,0l0,0.1l0,0.1l0.3,0.2l0.2,0.1  l0.1,0.1l0.1-0.1l0,0.1l0,0.1l0,0l0,0l0,0.1l0,0.2l0,0.1L4.9,33l0,0.1l0,0.3l0.1,0.3l0,0.1l0,0.1l0,0.1l0,0.1l-0.1,0.1l-0.1,0  l-0.1,0l-0.1-0.1l-0.1-0.1l-0.3,0.3l-0.1,0l0,0l0,0l0,0L4,34.7l-0.1,0.1l-0.1,0l-0.3,0l-0.1,0.1L3.5,35l-0.1,0.2l0,0.1l0,0.1  l0.1,0.1l-0.1,0.2v0.1l0.1,0l0,0L3.4,36l0,0.1l0.1,0.2l0,0.1l0.1,0.1l0,0.1l0,0.1l0,0l-0.1,0l0,0l0,0l0,0.1l0.1,0.1l0.1,0l0,0  l-0.1,0.1L3.5,37l-0.1,0.1l-0.1,0.1l0,0l0,0l0,0l-0.1,0l0,0l0,0l0,0l0,0h0l0,0.1l0,0.1l0,0h0l0,0l0-0.1l0,0.1l0,0l0,0l0,0l0,0l0,0  l0,0l0,0l-0.1,0l0,0l0,0l0,0.1l-0.3,0.2L2.5,38l0,0.2l-0.1,0.1l-0.2,0.1l-0.2,0l0,0l0,0L2,38.5L2.1,38.7z"/></svg>