<svg xmlns="http://www.w3.org/2000/svg" xmlns:xlink="http://www.w3.org/1999/xlink" version="1.1" x="0px" y="0px" viewBox="-461 335 100 100" fill="#e0e0e0" style="enable-background:new -461 335 100 100;" xml:space="preserve"><path d="M-432.5,364.6l-0.5,0.9l0.1,0.6l0.5-0.2l0.4-0.4v-0.6l-0.2-0.4L-432.5,364.6z M-418.3,365.9l-0.6-4.6l0.2-1.2l-0.2-0.6  l-0.9-0.3l-0.6-0.1l-1-0.4l-0.4-0.1h-4.3l-0.7,0.2l-0.6,0.3l-0.5,0.5l-0.3,0.6l0.8,0.5l0,0.7l-0.1,0.8l0.3,0.7l0.7,0.4l0.8,0.2  l0.7-0.2l0.3-0.6l1.8-2l1.2-0.7l0.6,1.4l-0.3,1l-1.1,1.8l-0.1,1l0.5,0.8l0.8,0.7l0.9,0.5l0.6,0.2l1,0.5l1.1,0.9l1.3,0.3l1.5-1.2  l-2.3-0.2L-418.3,365.9z M-437,369.2l-0.6,0.8l-1,1l-1,0.3l-1.4,0.2l-1.4,0l-1-0.4l-4.6-4.3l-1.7-0.8l0,1.3l-0.8,2.5l0.2,1l0.4-0.4  l1.6-1.2l-0.3,1l-0.9,1.7l-0.3,1l-0.3-0.1h-0.1l0-0.1l-0.1-0.3l-0.1,0.5l-0.1,0.3l0,0.4l0.2,0.5l1-0.3l0.6-0.6l0.2-0.8l-0.2-1.1  l2.6,1.2l0.5,0.4l0.1,0.8l-0.5,0.2l-0.7-0.3l-0.5-0.7h-0.5l0.8,2l1.3-0.2l2.9-2.4v1.1l1.1-0.3l1.9,0.3l1.1-0.6l-0.2-0.3l-0.2-0.1  l-0.3-0.1l-0.3-0.1l2.1-1.1l0.1,0.5l0.4,1.2l0.6-0.8l2-1.9V370l-1.6-0.9L-437,369.2z M-459.5,380.2l-0.2,1.7l-0.5,1.4l-0.8,0.8v0.5  l2.2-1.2l1.4-2.8v-2.3l-2,0.3L-459.5,380.2z M-434.7,366.8l-0.6,0.5l0.6,0.1l0.6-0.5l-0.2-0.3L-434.7,366.8z M-401.1,371.2l-0.6-1.8  l0.8,1l0.7,1.3l0.8,1.1l1.3,0.4l-1.8-3.9l-0.8-1l-1-0.5l-1,0.1l-2.1,0.4l-4.5-0.6l-0.7,0.1l-0.7,0.2l-0.7,0l-1.2-0.9l-0.6-0.2  l-0.6-0.1l-0.6,0l0.2,2.9l0.3,0.9l0.7,1.3l0.6,0.5l1.8-0.2l4.6-0.6l1.9,0.6l1.1,2.2h0.5l0.1-0.3l0.4-0.8l1.3,1.9l0.7,0.5l1-0.2  l-0.5-1.5L-401.1,371.2z M-387,377.1l-1.5-0.6l-1.8-0.5l-1.3-0.5l-2.5-1.6l-0.2,0.5l-0.3,0.2l-0.3,0.1l-0.3,0.2l1.3,1.5l3.3,1.4  l1.6,1l1.7,2.4l1,1l0.9-0.2l0.6-2l-0.7-1.6L-387,377.1z M-398.4,409.2l-0.5,1.2l0.5,0.7l0.5-1.2l0-1.1L-398.4,409.2z M-361.1,395  l-0.6-1.2l-0.6,1.5l-0.4,1.8l-0.1,1.8l0.5,1.5l0.8-1.2l0.3-2L-361.1,395z M-367,407.4l-0.3,0.7l-0.4,1.5l0.4,0.3l0.9-1l0.6-0.9  l-0.6-0.5L-367,407.4z M-402.4,410.7l-0.8,0.6l0.2,0.1l1.3-0.7l0.3-0.6l-0.5,0.2L-402.4,410.7z M-388.4,389.4l-0.2,0l-0.5,1.4l0,1.9  l-0.5,0.4l-0.9-0.1l-0.9,0.6l0.2,1.3l1.2,0.8l1.2-0.4l0.6-1.1l-0.1-1.8l0.1-2.6L-388.4,389.4z"/></svg>