<svg xmlns="http://www.w3.org/2000/svg" xmlns:xlink="http://www.w3.org/1999/xlink" version="1.1" x="0px" y="0px" viewBox="0 0 100 100" fill="#e0e0e0" enable-background="new 0 0 100 100" xml:space="preserve"><path d="M43.2,73.1L43.2,73.1l-0.3,0.3l-0.1,0.1l-0.1,0l-0.1,0l-0.1,0l0,0.1l0,0.1l-0.1,0.1l-0.3,0.2l0.4-0.2l0.6-0.4l1.3-1.2  l-0.4,0.2L43.2,73.1z M60.6,70.4L60.6,70.4l-0.3-0.1l-0.1-0.1l-0.1-0.1l-0.1,0l-0.2,0.1l-0.2-0.1l-0.2,0l-0.4,0.1l-0.8-0.1l0-0.1h0  l0,0l2.3,0.4L60.6,70.4z M55.1,69.2L54.4,69l-1.8-0.4l-0.2-0.1l-0.1-0.2l-0.1-0.2l-0.1-0.3l-0.1,0v0.1l0,0.2l0,0.1l0.2,0.2l0.2,0.2  l0.9,0.3l2,0.4l0.2,0.1l0.1,0l-0.1-0.1L55.1,69.2z M99.9,43.1l-0.3-0.3l-0.2-0.3l-0.1-0.3l0-0.3l0.1-0.3l0.1-0.1l0.2-0.1l0.1-0.1  l0-0.2L99.8,41l-0.5-0.1h-0.1l-0.1,0l-0.3,0.3l-0.1,0.1l-0.2,0.1l-0.2,0l-0.2,0l-0.1,0l-0.3-0.3L97.4,41L97.2,41L97,40.8l-0.1-0.3  l-0.1-0.4L96.7,40l-0.1-0.1l-0.3,0l-0.1,0L96,39.7l-0.2,0l-0.2,0.1l-0.2,0l-0.2,0L95,39.7l-0.1-0.2l-0.3-0.8l-0.1-0.1l-0.2,0.1  l-0.1,0.1L94,39.1l-0.1,0.1l-0.1,0l-0.5,0l-0.1-0.1L93,38.9l-0.2-0.2l-0.6-0.2l-0.3-0.2l0,0l0-0.1l0-0.1l0-0.2v0l0,0l-0.1,0l0,0l0,0  l-0.3,0L90.8,38l-0.2-0.1l-0.1-0.1l-0.1,0l-0.2,0l-0.1,0L90,37.6l-0.2-0.5L89.7,37l-0.1,0l-0.2,0l-0.4,0L89,37L89,37.3l0,0.4l0,0.4  l-0.3,0.2l-0.1,0l-0.1-0.1l-0.1,0l-0.1,0L88,38.4l0,0v-0.1l-0.1-0.2l0,0l-0.2-0.3l-0.2-0.2l-0.2-0.2l-0.2-0.1L86.7,37l-0.2-0.1  L86,36l-0.2-0.2l0-0.1l0-0.1l0-0.1l0.1-0.2l0-0.4l-0.2-0.2l-0.5-0.2l-0.1-0.2L85,34.1l-0.1-0.2l-0.1-0.1l-0.6,0.1L84.1,34l-0.3,0.3  l-0.2,0.1l-0.8,0.2l-0.4-0.1l-0.4,0l-0.4,0.1l-0.9,0.5l-0.1,0.1l0,0.1l-0.1,0.2l0,0.1l-0.1,0.1l-0.1,0l-0.1,0l-0.1,0l-0.1-0.1l0-0.1  l0-0.1l0-0.2l0,0l0,0l-0.1-0.1l0,0l-0.2,0L79.4,35l-0.1,0l-0.1-0.1l-0.1,0h-0.1l0,0L78.9,35l-0.1,0.1l-0.1,0.1l-0.1,0l-0.1-0.1  l-0.6-0.9l-0.2-0.1l0-0.2l-0.2-0.1l-1-0.1L76,33.9l-0.1,0L75.8,34l-0.1,0.2l-0.1,0.1l0,0h-0.1l0,0l-0.1,0.1l-0.1,0.1l-0.1,0.1  l-0.1,0l-0.1,0l-0.1,0l-0.1-0.1l-0.1-0.1l-0.1-0.1l0-0.1l0-0.2l0-0.2l-0.1-0.1l-0.1-0.1l-0.1,0l-0.1,0l-0.2-0.1l-0.1-0.2l-0.3-1.1  l0-0.1l0.1-0.1l0.4-0.2l-0.1-0.2l0-0.2l0-0.2l0-0.2l0-0.1l-0.1-0.1l-0.1-0.1l-0.1-0.1l0-0.1l0-0.1l0-0.1l0-0.1l-0.1-0.2l0-0.1l0-0.1  l0-0.1l0-0.1l-0.1-0.1l-0.1,0l-0.1,0l0-0.1l0-0.1V29l0-0.1l0.3-0.1l0.1-0.1l0-0.2l0-0.1l-0.1-0.1l-0.1,0l-0.2,0l-0.4,0.1l-0.2,0  l-0.2-0.2l-0.1-0.3l-0.1-0.8l0-0.1L71.8,27l-0.1,0l-0.1,0l-0.1,0l-0.1,0L71.3,27l-0.1,0l-0.1,0l-0.3,0.2l-0.5,0.2L70,27.4l-0.4,0  l-0.1,0l-0.1-0.1l-0.1-0.1l0-0.1l0-0.1l-0.1-0.1l-0.2,0l-0.4,0.1l-0.2-0.1l-0.4-0.1l-0.2,0l-0.2,0l-0.2,0.2l-0.1,0l-0.1,0l-0.4-0.2  l0.3-0.2l0.2-0.2l0.1-0.3l0-0.3l-0.1,0.1h-0.1l-0.1,0l-0.1,0L67,25.5l-0.1-0.1l-0.1-0.1l0-0.1l0,0l0.1,0l0-0.1l0-0.1l0-0.1l0-0.1  l0-0.1l0-0.1l0-0.2l0-0.1l0-0.2l0-0.2L67,24l-0.2-0.3l0-0.1l0-0.1l0-0.2l0-0.1l-0.1,0l-0.2-0.1l-0.1-0.1l0.1-0.2l0.2-0.1l0.9-0.2  l0.3,0l0.1,0l0.2-0.3l0-0.4L68,21.6l-0.2-0.2l-0.1-0.1l-0.2-0.2L67.4,21h-0.1l-0.1,0l-0.1,0v0l0-0.1l0,0l0,0l-0.1,0l0,0l-0.2-0.3  l-0.1-0.1h-0.3v-0.1l0-0.1l0-0.2l-0.1-0.2l-0.1-0.2l0-0.2l0-0.3l0-0.2v0l0.1-0.2v-0.1l0-0.1l0-0.1l-0.1-0.1L66,18.3l-0.1-0.1  l-0.4-0.2l-0.1-0.1l-0.1-0.3l-0.1-0.1L65,17.2l-0.1-0.1L64.8,17l0-0.1l-0.1-0.1l-0.1,0l-0.3,0l-0.3,0L63.6,17l-0.4,0.4l-0.1,0  L63,17.2l0-0.3l-0.1-0.2l-0.1,0l-0.1,0.1l-0.1,0.1l-0.1,0l-0.1,0l-0.2-0.1l-0.1,0h-0.4l-0.5-0.1l-0.1,0l-0.1,0.1l-0.1,0.2L61,17  l-0.1,0l-0.1,0l-0.1,0.1l0,0l0,0l-0.1,0l0,0l-0.1,0l-0.6,0.5l-0.1,0.1l-0.1,0l-0.2-0.1l-0.1,0h-0.2l-0.3,0.1h-0.2l-1.1-0.6l-0.3,0.1  L56.9,17l-0.2,0l-0.1,0.3l0,0.1l0.1,0.2l0,0.1l0,0.1l-0.1,0.1l-0.1,0L56.6,18l0,0.2l-0.1,0.5L56.3,19L56,19.2l-0.8,0.4l-0.1,0  l-0.3-0.1l-0.2,0l-0.3,0.1l-0.1,0l-0.1-0.1l0-0.1v-0.2l0-0.1L54,19.1l-0.2,0l-0.3,0l-0.6,0l-1-0.2h-0.5l-0.4,0.2l-0.1,0.1l-0.1,0.2  l-0.1,0.2l-0.1,0.1l-0.1,0l-0.3-0.2L50,19.3l-0.2,0l-0.8,0l-0.1,0l-0.1,0.1l0,0.2l0,0l0,0l0,0l0,0l0.2,0l0.1,0.1l0,0.1l-0.1,0l0,0  l0,0l0,0l0,0l0,0.1l0,0.1v0.1l0,0.1l-0.1,0.1l-0.1,0.1l-0.1,0l-0.2,0.1v0l0,0.1l0,0v0.1l-0.1,0.1l0,0.1l0,0l-0.2,0l0,0l0,0.1V21  l0,0.1l-0.1,0.1l0,0.1l0,0.1l0,0l0,0l-0.1,0.2l0,0.1l0,0v0l0,0.1l0,0.1l-0.1,0.1L47.2,22l-0.1,0.1l0.1,0.1l0,0v0.1l-0.1,0.1l0,0.1  l0,0.1l0,0.1l-0.1,0l-0.2,0l-0.1,0l0,0.1L46.8,23l0,0.1l0,0l0,0.1l0,0l0,0l0,0.1l-0.1,0l-0.2,0.1v0.1l0.1,0.1l0,0v0.1l0,0l0,0l0,0  l0,0v0.1l0.1,0.1l0.2,0.1l0.1,0l0,0.1l0,0l0,0l0.1,0l0.1,0.1l0,0.1l0,0.1l0,0.1l0,0.1l0,0l0.1,0v0.1l-0.1,0l-0.1,0l0,0.1l0,0.1  l0,0.1l0,0H47l0.1,0l0,0.1l0.1,0.3l0,0l0,0.1l0,0l-0.1,0l0,0.3L47,26l-0.2,0.1l0,0.1l-0.1,0.2l0,0l0,0.2l0,0.1l-0.1,0l0-0.1  l-0.1-0.1l-0.1,0l-0.1,0l-0.1,0l-0.1,0l-0.1-0.2L46,26.3l-0.1,0h-0.2l-0.1,0l-0.1-0.1l-0.2-0.2l0-0.1l0,0l0-0.2l0-0.1v-0.1l0-0.1  l0-0.1l-0.1,0l-0.1-0.1l-0.3-0.1L45,25l-0.2-0.3l-0.2-0.1l-0.2,0l-0.8,0l-0.1,0l-0.3,0.2h-0.1l-0.1-0.1l-0.1,0l-0.1,0L42.8,25  L42.8,25l-0.1,0L42.2,25l-0.1-0.1l0-0.1L42,24.6l-0.1-0.1l-0.1,0l-0.1,0l-0.1,0l-0.1,0.1l-0.1,0.1l-0.1,0.1l-0.1,0l-0.1,0l-0.1,0  l-0.1,0.1l-0.1,0.2l-0.1,0.1h-0.1l-0.2-0.1l-0.1,0L40,25.6l-0.1,0l-0.1-0.1l-0.1-0.2l0-0.2L39.6,25l-0.1-0.1l-0.1-0.1l0-0.1l0-0.2  l0-0.2l-0.1-0.1l-0.2-0.3L39,23.5l-0.1-0.1l-0.1-0.1l-0.2-0.1l-0.1,0l-0.1,0l-0.1,0.1l-0.1,0.3L38,23.8l-0.1,0.1h-0.3l-0.2,0  L37.2,24L37,24.1l-0.2,0.2l-0.1,0.2l0,0.1l0,0.3l0,0.1l-0.1,0.1l-0.1-0.1l0-0.2l0-0.1l-0.1,0l-0.1,0l-0.1,0l-0.1,0l-0.1-0.1l0-0.1  L36,24.2l0-0.2l0-0.1l-0.1-0.1l-0.5-0.1h-0.2l-0.1,0L34.7,24l-0.1,0.1l-0.1,0l-0.1,0l0-0.1l-0.1-0.2l0-0.1l-0.1-0.1l-0.2-0.1  L34,23.5l0-0.1l0-0.1v-0.1l0-0.1l-0.1-0.1l-0.1,0l-0.1,0.1l-0.1,0.1l-0.1,0.2l-0.2,0.3l-0.1,0.1l-0.1,0h-0.5l-0.1,0l-0.1-0.1  l-0.3-0.4l-0.1-0.1l-0.1,0l-0.1,0.1l-0.1,0.1l0,0.2V24l0,0.1l0,0.1l0,0.1l0,0.1l-0.3,0.3l-0.1,0.1l-0.1,0l-0.1,0l-0.1-0.1l-0.1-0.1  l0-0.1l0.2-0.4l0-0.2l-0.1-0.2l-0.1,0l-0.3,0l-0.6-0.2l-0.2,0l-0.1,0.1l-0.2,0.2l-0.1,0.1l-0.1,0l-0.3-0.1l-0.2,0.1l-0.1,0l-0.1-0.1  l0-0.2l0.1-0.2l0-0.2l-0.2,0l-0.1,0l-0.1,0L28.1,23l0-0.2v-0.2l0-0.2l0-0.1l-0.1-0.1l-0.2,0l-0.5,0l-0.6,0.2l-0.4-0.1l-1.1-0.5  l-1.2,0l-0.1,0l-0.1-0.1l0-0.1l0-0.1v-0.1l-0.1,0l-1.3-0.1l-0.2-0.1l-0.4-0.3l-0.2,0l-0.4,0l-1.2-0.2l-0.5,0.1l-1.8,0l-0.9-0.3  l-0.3,0l-0.3,0.1l-0.5,0.3L14.4,21l-0.1,0l-0.3-0.1L12.5,21l-0.1,0l-0.1,0.1l-0.2,0.3L12,21.7l-0.1,0.6l-0.2,0.2l-0.6,0.4l-0.8,0.7  l-0.2,0l-0.2-0.1l-0.2-0.2l-0.2-0.1l-0.1,0L9,23.1H8.9l-0.5,0.1l-0.1,0l-0.1,0.1l-0.1,0.1l0,0.1l0,0.1l0.2,0.4l0,0.1l0,0.1l0,0l0,0  l0,0.1l0,0.1l0.1,0.1l0.1,0l0.1,0.1l-0.1,0.2l0,0.1l0.2,0.3l0,0.1l-0.1,0l0,0.1l0,0.1l0,0.1l-0.1,0l-0.1,0.1l-0.1,0.1l0,0.1l0,0.2  l0.1,0h0.1l0.1,0.1L9,26.9l0.1,0.2l0.3,0.2l0.3,0.3l0.1,0.1l-0.1,0l0,0.1L9.7,28l0.1,0.2l0,0.1l0.1,0.4v0.1l0,0.1l0,0l0.1,0l0.1,0  l0.1,0.1l0,0.1l0,0.1l0,0.1l0.1,0.1l0.4,0.3l0.5,0.3l0.1,0.1l-0.1,0.2l-0.2,0h-0.2l-0.1,0l-0.1-0.1l-0.2,0l-0.1,0.1l-0.1,0.2l0,0.2  l0.1,0.1l0.1,0.1l0.2,0V31l-0.1,0.2l0.1,0.1l0.2,0.1l0.1,0l0,0.2l0,0.2l0.1,0.3l-0.1,0.2l0.1,0.4l0,0.1l0,0l0,0L10.9,33l-0.1,0.1  l-0.4,0.2l0,0.1l0,0.2l0,0.1l0,0.1l-0.1,0.3L10,34.2l-1,0l-0.2,0.1l-0.1,0l-0.1,0.1l-0.1,0.1l-0.1,0.2l-0.1,0.1L8,35.3l-0.2,0.1  l-0.3,0.2l-0.3,0.2L6,37.3l-0.2,0.3l-0.2,0.2l-0.2,0.2l-0.6,0.9l-0.2,0.2l0,0.1l0,0.2l0,0.1l0,0l-0.1,0l0,0l-0.1,0.1l-0.3,0.6  l-0.1,0.1l-0.1,0l-0.1,0l-0.1,0.1l0,0.1l-0.1,0.3L3,41.3l-0.1,0.3l0.1,0.3L3,42l0,0.4l0,0.1l0,0l0.1,0.1l0.1,0.1l0,0.1l0,0.1  l0.1,0.8l0,0.1l-0.1,0.3l-0.1,0.3l-0.1,0.2l0,0.1l0,0l0,0l0.1-0.1l0.1,0.1h0l0,0l0.2,0.1l0.2,0.2l0.1,0.1L4,45.3L4,45.4v0.1l0,0.2  l0,0.1l0,0.1L4.1,46l0,0L4,46.1l-0.1,0L3.8,46l-0.1,0l-0.1,0l-0.1-0.1l-0.1-0.1l-0.1,0l-0.1,0l-0.2,0l-0.1,0l-0.1,0l-0.1-0.1  l-0.2-0.2l-0.1,0l-0.1,0.1l0,0.1l0,0.2l0,0.2v0.1l-0.1,0.1l-0.2,0l-0.1,0.1l-0.1,0.4l-0.1,0.1l0,0V47l0,0l0,0.1l-0.1,0.1l-0.1,0.1  l0,0.1v0.1l0,0.1l0,0.3l0,0.1l0,0.1l0,0.1l0,0l0,0.1l0,0.1l0,0.2l0,0.2L1,48.8l-0.1,0.1l-0.1,0l-0.1,0l-0.1,0l0,0.1l-0.1,0.1l0,0.1  l-0.4,0.3L0,49.7l0,0.2l0.1,0.3l0,0.1L0,50.5l0,0.6l0.1,0h0L0.2,51L0.4,51l0.2,0l0.2,0.1l-0.1,0.3v0.1l0.2,0l0,0l0,0.1v0.1l0,0.1  l0,0.1L1,52l0.3,0.4l0,0l0,0l0,0l0,0l0,0h0l0.1,0l0.1,0l0.1,0l0.1-0.1h0l0,0l0,0L2.3,53l0.1,0.2l0.1,0.3l0.1,0.2l0,0h0l0.1,0h0.4  l0.1,0l0.1-0.1l0.1,0l0.1,0.1l0,0l0.2,0.1l0.2,0.2l0.1,0.1L4,54l0,0.2l0,0.1l0,0.1l0,0.1l-0.1,0.1l0,0.1l0.2,0.2l0.1,0l0.1-0.1  l0-0.1l-0.1-0.2l0-0.1l0.1,0l0.1,0l0.1,0.1l0.1,0.1l0.1,0l0.1,0l0.2-0.2l0.1-0.1l0.1-0.4l0.1-0.2l0.1-0.1l0.1,0l0.4,0.1l0.1,0.1  l0.2,0.3l0.3,0.2l0.1,0.1l0,0l0,0h0l0,0h0l0.4,0.2l0.1,0l0,0l0,0l0,0l0-0.1l0.1,0l0.1,0l0.2,0l0.1,0l0.4,0l0.2,0.1l0.1,0l0.4,0  l0.1,0l0.3,0.3l0,0.1h0.1l0.6-0.2l0.2,0l0.1,0.1l0.3,0.1l0.1,0l0.2,0.2l0.1,0l0,0l0.3,0.1l0.1,0l0.4-0.2l0.3,0l0.2-0.2l0.1-0.1h0.1  l0.3,0.1l0.3,0l0.1,0l0.3,0.2l0.1,0.1l0.1,0.1l0,0.1l0,0.1l0,0.1l0.1,0.1l0.2,0.1l0.4,0.2l0.1,0.1l0.1,0.1l0.2,0.3l0.1,0.2l0.1,0.1  l0.7-0.1l0.3-0.2l0.2-0.2l0.5-0.9l0.2-0.2l2.7-0.3l0.4-0.1l0.3,0l0.2-0.1l0.1,0l0.3,0l0.4-0.1l0.5,0l0.3-0.1l0.1-0.1l0.1-0.3  l0.1-0.1l0.1-0.1l0.1-0.1l0.1-0.2l0.1-0.3l0.1-0.3l0-0.2l0-0.3l0,0l0.1,0l0.1,0l0.2-0.1l0.1,0l0.3,0l0.1,0l0.7-0.2l0.2-0.1l0-0.1  l0-0.1L25,52l0.2-0.1l0-0.1l0-0.1l0.1,0l0.1,0.1l0.1,0.1l0.1,0.1l0.1,0l0.1,0l0.1-0.1l0-0.1v-0.2l0-0.2l0-0.1l0-0.1l0.1-0.1h0l0.1,0  h0l0,0l0-0.1l0,0l0.1,0l0.2,0.1l0.2,0.2l0.2,0.1l0.2,0l0.1-0.1l0,0l0,0l0.1,0l0.1,0l0,0l0,0l0,0l0,0v-0.1l0-0.1l0-0.1l0.1,0l0.1,0  l0.1,0.1l0.6,0.2l0.2,0l0.2-0.1l0.3-0.4l0.2-0.1l0.1,0l0.2,0.1l0.1,0l0.1,0l0.3-0.3l0.1-0.2H30l0.1,0l0.1-0.1l0.1,0l0,0.2l0.1,0.1  l0.7,0l0.2,0.1l0.4,0.3l0.1,0.1l0.2,0.3l0,0l0.1,0.2l0.2,0.1l0.5,0.1l0.1,0.1l0.1,0.1l0,0.1L33,52.4l0.1,0.1l0.1,0l0.1,0l0.2-0.1  l0.1,0l0,0.1l0,0.2l0.1,0.1l0.1,0l0.1,0l0.1-0.1l0.1-0.1l0.1-0.1l0.3,0l0.1,0l0.1,0.1l0,0.2l0,0.2l-0.1,0.1l-0.1,0l-0.1,0.1l0,0.1  l0,0.1l0.1,0.1l0.1,0l0.1-0.1l0-0.1l0.1-0.1l0.1,0l0.1,0.1l0.1,0.1l0,0.1l-0.1,0.1l0.2,0.3l0.1,0.1l0.1,0.1l0.1,0l0-0.1v-0.1l0-0.2  l0.1-0.3l0.1-0.1l0.2,0l0.5,0.2l0.4,0l0.2,0l0.2,0.1l0,0.1l0,0.1l0,0.1l0,0.1l0.1,0.2l0,0.2l0,0l0,0.1l0.1,0.1l0.1,0.3l0.2,0.2  l0.2,0.2L38,55l0.2,0l0.2-0.3l0.2-0.1h0.1l0.1,0l0.1,0.1l0.1,0.1l0,0.1l0,0.3l0,0.1l0.1,0.1l0.2,0.1l0.1,0l0,0.1l-0.1,0.1l-0.1,0.1  l-0.1,0.1l0,0.1v0.1l0.1,0.1l0.2,0.1l0.1,0.1l0,0.1l-0.1,0.1l-0.2,0.2l0,0.3l0,0.3l-0.1,0.3L39,57.9l-0.1,0.2l-0.1,0.2l0.1,0.3  l0,0.1l0.1,0.2l0,0.1l0.1,0.1l0,0l0.1-0.1l0.1,0l0.1,0l0.1,0.2l0.2,0.1l0,0.1l0,0.1l0,0.1l0.1,0l0.1,0l0.1,0l0.1,0.1l0,0.1V60l0,0.1  l0.1,0.1l0.1,0.1l0.1,0l0.1,0l0.1,0l0.1-0.1l0.1-0.1l0-0.1l0.1-0.1l0.1,0l0.1,0l0.1,0l0.1,0.1l0.1,0.1l0,0.2l0,0.2l-0.1,0.1  l-0.1,0.1l0,0.2l0.1,0.4l0,0.2l-0.1,0.1l-0.1,0l-0.2,0l0,0v0.1l0,0l0.2,0.3l0,0l0.1,0l0-0.1l0.1-0.1l0.1,0l0.1,0l0.1,0.1l0,0.1  l0,0.1l0,0.1l-0.1,0.1l-0.1,0.1l0,0.3l0,0.1l0,0.1l0,0.1l0,0l0.1,0l0,0l0.1,0.1l0,0l0.1,0l0.2,0l0.1,0l0.1,0.1l0.1,0.2l0.1,0.1  l0.2,0l0.2,0l0.2,0l0.2,0.1l0,0.1l0,0.1l0,0l0,0l0,0l0.1,0l0.1,0l0,0.1v0.2l0,0.1l0,0.1l0.1,0.1l0,0.1l0,0.1l0,0.5l0,0.1l0,0.1  l0,0.1v0.1l0,0.1l0.1,0.2l0,0.1l-0.1,0.2l-0.1,0l-0.1,0l0,0.2l0.1,0.1l0.2,0.1l0,0l0,0.1l0,0l0,0l0.1,0h0l0,0l0,0l0.1,0.1l0,0.1  l0.3,0.2l0.1,0.1l0.1,0l0.1,0l0.1,0l0.1,0l-0.1,0.2l-0.1,0.1l-0.2,0l-0.7,0l-0.1,0l-0.1,0.1l-0.2,0.2l-0.1,0l-0.1-0.1l0-0.1v-0.2  l0-0.1l0-0.1l-0.1-0.2L42.2,67l-0.1-0.1v0.2L42,67.2l-0.1,0h-0.2l0,0l0,0.2l0,0.1l-0.1,0.1l-0.1,0l-0.1,0l-0.1,0l-0.1-0.1l-0.1-0.2  l-0.1-0.1l-0.1,0l-0.2,0l-0.1,0l0-0.1l0-0.1l0-0.1l0-0.1l0-0.1l0-0.1l0-0.1l0,0l-0.1,0l-0.1,0.1l-0.1,0.1l-0.2,0.4h-0.1L40,67.2  l-0.1-0.3l-0.1,0L39.7,67l0,0.1l0,0.2v0.1l0,0.1l0,0l0,0l-0.1,0l-0.2,0.2l-0.1,0.1l-0.1-0.1v-0.1l0-0.1l0-0.1l0-0.1l0-0.1l0-0.7  l0-0.2l-0.1-0.1H39l-0.5,0.3l-0.3,0.1L37.8,67l-0.1,0.2l0,0.2l0,0.3l0.1,0.4l0,0.1l0,0.1l0,0.1v0.1l0.1,0.1l0.3,0.3l0,0.2l-0.1,0.2  L38,69.6l-0.2,0.2l0,0.1l0,0.2l0.1,0.3l0,0.2l-0.1,0.1l-1,0.3L36.7,71l-0.1,0.1v0.1l0.1,0.3l0,0.1l0,0.2l0,0.1L36.6,72l-0.1,0.1  l-0.2,0l0,0v0l0,0.1l0,0.1l0,0.1l-0.1,0.1l-0.4,0l-0.1,0.1l0,0.1l0,0.1l-0.2,0L35.4,73l-0.1,0.1l-0.1,0.2l0,0.1l0,0.1l0.1,0l0.1,0.1  l0,0.1l0,0.1l0,0.1l0.1,0.1l-0.1,0.1l0,0l0,0.1v0l0,0l0,0.3l0,0.1l-0.1,0.1l-0.4,0l-0.4-0.1l-0.4,0l-0.3,0.2l0,0.1l0,0.1l0,0.1  l0.1,0.1l0.1,0l0.2,0.1l0.1,0.1l0,0.2l0.2,0.4l0.1,0.2l0.1,0.1l0.1,0l0.2,0.1l0.5,0.1l0.5,0.2l0.7,0.2l0.2,0l0.2,0l0.1,0l0.1-0.1  l-0.2-0.1l0,0l0-0.1l0-0.1l0-0.1l0.2-0.1l0-0.1l0-0.1l0.1,0l0.1,0l0.1,0.1l0.1,0l0.1,0l0.1,0.1l0.1,0.1l0.1,0l0-0.1l0-0.2l0-0.1l0,0  l0,0l0.1,0l0.1,0l0.3-0.2l0.2-0.1l0.1,0l0.1-0.1l0,0l0.1,0l0,0l0-0.1l0-0.1l0.1-0.1l0.1-0.1l0.1,0l0.1,0h0.1l0,0l0,0l0,0l0,0l0,0  l0.1,0l0.1,0l0.1,0l0.4,0l0.8,0.3l0.3,0.2l0.1,0l0.1,0.1l0.1,0.3l0,0.3l-0.1,0.2l0,0l0,0.1l0,0.1l0,0.1l0.1,0l0.1,0l0.1,0l0.1-0.1  l0,0l0,0l0-0.1l0-0.1l0.1-0.2l0-0.1l0-0.1l0-0.1l0-0.1l0-0.3l0-0.2l0-0.1l-0.1-0.1l0.1,0l0.1-0.1l0-0.2l0-0.1l-0.1-0.1l0,0.1l0,0.1  l0,0.1l0-0.1l0,0l0,0l0,0v0l0,0l0,0l0,0v-0.2l-0.1,0l0,0.1l0,0.1l0,0.1l-0.1,0l-0.1,0l0-0.1l-0.1-0.2v-0.1l0.1,0l0,0l0-0.1l0-0.1  l0.1,0l0.1-0.1l0.2-0.3L42,74l-0.1,0.1l-0.1,0.1l-0.1,0l-0.1,0l-0.1,0l-0.1-0.1l0-0.4l0-0.4l0-0.3l0.2-0.1l0-0.1l0-0.1l0-0.1l0-0.1  l0-0.1l0.1-0.1l0-0.1l0,0l-0.1-0.1l0-0.1l0-0.1l0,0l0,0l0,0.1l0,0l0.1,0.1l0,0l0,0l0,0l0,0.1l0,0l0,0.1l0,0.1l0,0.4l0,0.1l0.1,0.1  l0.1,0.2l0.1,0.2l0,0.2l0.1-0.1l0.2-0.1l0.1,0l0-0.1v0l0,0l0,0l0.1,0.1l0.1,0l0.1-0.1l0.1,0l0,0l0-0.1l-0.1-0.1l-0.1-0.1l-0.1,0  l0-0.1l0-0.2l0.1-0.1l0.2,0H43l0,0l0,0l0,0l0,0l0,0l0,0l0,0l0,0l0.1,0.1l0,0.1l0,0.1l0-0.2l0-0.1l0-0.1l0-0.1l0-0.1l0-0.1l0,0l0,0  l0,0.1v0.1l0.1,0.1l0.1,0.1l0-0.2l0-0.2l0-0.2l0.1-0.1l0.1,0.1l0.3,0.2l0,0l0,0l0,0l0,0l0,0l0,0l0,0v0l0-0.1l0,0l0-0.2l0-0.1l0-0.1  l0-0.1l0,0l0,0.4l0,0.1l0.4-0.3l0.3-0.3l0.6-0.8l0.7-0.7l0-0.1l0.1-0.3l0-0.1l0.1,0l0.1-0.1l0.1-0.2l0.4-0.6l0.2-0.3l0-0.1v-0.1  l0-0.1l-0.1-0.1l0,0l0.1-0.1l0.3,0l0.1-0.1l0.2-0.3l0,0l0-0.2l0,0l0,0l0,0l0,0l0,0l0,0h0l0-0.2l-0.1-0.2l0-0.1l0-0.1l0.2-0.2  l0.1-0.1h0.1l0.2,0.1l0.1,0l0.3-0.2l0.1,0l0.1,0l0,0l0.1-0.1l0,0l0.1,0l0.2-0.1l0.3,0l0.3-0.1h0.2l0.4,0.1l0.1,0.1l0-0.1l0.1,0  l0.2,0l0.1,0l0.1-0.1l0.2-0.1l0.1,0l0.1-0.1l0.2-0.3l0.1-0.1l0,0l0.1-0.2l0-0.1l0-0.1l-0.2-0.1l0,0l0,0l0-0.1l0,0l-0.1-0.2l0.1,0  l0.1,0.1l0.1,0.2l0.1,0.1l0.1,0l0.1,0l0,0l0,0l0.1-0.2l0,0l0,0l0.1,0l0,0l0-0.1l0-0.1l0,0l0.1,0.1l-0.3,0.4l-0.1,0.1v0.1l-0.1,0.2  L52,65.3l-0.1,0.1l0,0.1l0,0l0.1,0l0.1,0l0,0l0.1,0.1l0,0l0.1,0l0.1-0.1l0-0.1l0.1,0l0.3,0l0.5,0.2l0.2,0l0.2,0l0.1,0l0.1-0.1l0,0  l0-0.1l0,0l0-0.1l0-0.1l0-0.4l0-0.1L54,64.4v-0.2l0.1-0.2l0.1-0.1l0.1,0l0.1-0.1l0.1-0.2l0-0.2l0-0.2l-0.1,0.1l-0.1,0l-0.1,0l0-0.1  l0-0.1l0.1-0.1l0.2-0.2l-0.2,0l-0.3,0l-0.2-0.1l0-0.4l0-0.1L54,62l0-0.1L54,61.8l0,0l0,0l0,0l-0.1,0l0,0l0-0.5L53.7,61L53.4,61  l-0.1-0.1l-0.1-0.1l0-0.1l0,0l0.1-0.1l0,0l0.1,0l0,0.1l0,0.2l0,0.1l0.3,0.2l0.1,0.1l0,0.1v0.1l0,0.2l0,0.1l0.1,0l0.1,0l0.1,0.1  l0.1,0.2l0,0.2L54,62.4l0.1,0.1l0.1,0l0.2,0l0.2,0l0,0.1l0,0.1l-0.2,0.3l0,0.1l0.1,0.1l0.3,0l0.1,0.1l0,0.1l0,0.2l-0.1,0.3L54.5,64  l-0.1,0.3l0,0.3l0.1,0.1l0.1,0.1l0,0.1l0,0.2l0,0.1l0.1,0.2l0.1,0.1l0.1,0.1l0.1,0l0.3,0.1l0.1,0.1l0.1,0.3l0.1,0.1l0.1-0.2l0.1,0  l0.1,0l0.1,0l0.1,0l0.1-0.1l0.1,0l0,0l0.1,0.1l0.4,0.2l0.4-0.1l0.7-0.4l0.1,0l0.2-0.1l0.1-0.1l0.1-0.1l-0.1,0.1l-0.1,0.1l-0.1,0.1  L58,65.8l-0.1,0.1l-0.3,0L57.6,66l-0.4,0.3L57,66.5l0.1,0.1L57,66.8l-0.2,0.1l-0.2,0l-0.2-0.1L56,66.7l-0.6-0.1h-0.1l-0.3,0.1  l-0.5-0.1H54l-0.1,0l-0.3-0.2l-0.2-0.1l-1,0.1l-0.1,0l-0.1-0.2L52,65.9l0.1,0.2l0.6,0.7l0.1,0l0,0l0.1,0.3l0-0.3l0-0.1l0-0.1l0,0  l0.1-0.1l0.1,0l0.1,0l0.1,0l0.8,0.3l0.2,0l0.2,0l0.1,0l0.3,0.3l0,0.1l0,0H55l-0.1,0l-0.3,0.3l0,0l-0.4,0.1l-0.3-0.1l-0.1,0l-0.1,0  L53.5,68l-0.1,0.1l0,0.1l0.1,0.1l0.1,0.1l0.1,0l0.3,0l0,0l0-0.1l0-0.1l0-0.1l0.5,0.4l0.3,0.1l0.2-0.1l0.2,0.1l0.2,0.3l0.1,0l0.1,0  l0.3,0.1l0.1,0l0.1,0l0.2-0.1l0,0.1l0,0l-0.1,0.1l0,0l0,0.1l0,0.1l0,0l0,0.1l0,0l0,0l0.1,0l0.1,0.1l1.1,0.3l0.2,0l0,0l0.1-0.1l0.1,0  l0.1,0l0.7-0.1l0.2-0.1l0.1,0l0.1,0l0.3,0.1l0,0l0.1,0l0,0l0,0l0,0h0.1l0.6-0.1l0.1-0.1l0-0.2l0.3,0.2l0.1,0.1l0.1,0H61l0.1,0l0,0  l0.2-0.1l0.1-0.2l0.1-0.2l0.1-0.1l-0.1,0.6l0,0.1l0,0.1l0.4-0.1l0.1,0l0,0.1L62,69.8l-0.1,0.1l0,0h0l0,0l0,0l0.1-0.2l0.1,0l0.1,0.1  l0.2,0.2l0,0H63l0.1,0h0.1l-0.1-0.2l0.1-0.1l0.1,0l0.1,0v-0.1l-0.1-0.1l0-0.1l0.1-0.1l0.1-0.1l0.1,0l0.1,0.1l0.2,0.3l0,0.1l0,0.1  l-0.1,0.1l0,0.1l0.1,0.3l0,0.1l0,0.1l0,0.1l0,0.1l0.1,0l0,0l0,0.1L63.7,71l0.1,0l0,0l0,0l0.1,0l0.1,0l0.3,0.1l0.1,0.1l0.1,0.1  l-0.1,0.1l-0.2,0l-0.1,0l-0.1,0l0,0.1l0,0.2l0,0.1l-0.1,0l-0.1,0l0,0l0,0l0,0l-0.1,0l-0.1,0l-0.1,0l-0.1,0l-0.1,0.1l-0.1,0.2l-0.1,0  l-0.1,0l-0.1,0L63,71.8l0,0l-0.1,0L62.6,72l-0.1,0l-0.2,0.2l0,0l-0.2,0.1l-0.4,0.3l-0.2,0l-0.2-0.1l-0.1-0.1l0,0l0,0l0,0.1l0,0  l0.1,0l0,0l0,0.1l-0.1,0.1l-1.3,0.6l-0.4,0.3l-0.2,0.2l0,0.1l0,0l0,0.1l0,0.1l0,0.1l0,0.1l-0.1,0l-0.1,0l-0.1,0l-0.1,0l-0.1,0l0,0  l0,0.1l0,0.1l-0.1,0.1l-0.1,0l-0.1,0l-0.1,0l-0.1,0L57.7,75l-0.2,0.2l-0.1,0.2l0,0.1l0.2,0.4l0.1,0l0.2,0.1l0.1,0h0.4l0.1,0l0.2-0.2  l0.1-0.1l0.1,0l0.8,0.1l0.2,0.1l0.2,0.1l0.4,0.3l0,0l0.1,0l0,0l0.1,0.1l0,0.1l0.1,0.1l0.2,0.2l0.1,0.1l0.3,0.1l0.1,0.1l0,0.1  l0.1,0.1l0.1,0l0.2-0.1l0.2-0.1l0.2,0l0.1,0l0.3,0.3l0.4,0.2l0.1,0.2l0.1,0.3l0,0.2l0,0.1l0.1,0.2l0,0l0,0.1l0.1,0.3v0.2l0,0.2  l0,0.1l-0.1,0.1l-0.2,0.1l-0.1,0.1l0,0.1l0,0.2l0,0l0,0l0,0l0,0.1l0,0.1l0,0.2l0.1,0.2l0,0.1l0,0.1l0,0.1l-0.1,0.1l0,0.1l0,0.1l0,0  l0.2,0l0.1,0l-0.1,0l-0.3,0l-0.1,0l0,0l-0.1,0l-0.1,0l0,0l-0.1,0.1l0,0l-0.2,0l0,0l0,0.1l0,0.1l0.6,0.4l0.1,0.1l0.1,0.1l0.1,0l0.1,0  l0.1,0l0.1,0.1l0.2,0.2l0,0.1l0,0.1l0.1,0.1l0.4,0.2l0.1,0l0.4,0l0.1,0l0.1,0H65l0.3,0.1l0.1,0l0.1,0l0.6-0.3l0.1,0l0.1,0l0.2-0.1  l0.1-0.1l0.1-0.1l0-0.1l0.1-0.1l0.3-0.1l0.1-0.1l0.1-0.2l0,0v0l0,0l0,0l0.1,0h0.1l0.1,0l0,0l0.1-0.1l0.2-0.6l0.2-0.3l0.1-0.1l0-0.1  l0.2-0.3h0l0,0v0l0,0l0.1-0.1l0.2-0.1l0.4-0.1l0.2-0.1l0.4-0.3l0.2-0.1l0.4,0.1l0.1,0l0.1-0.1l0.2,0l0.1,0l0,0l0,0l0,0l0.1,0l0.1,0  l0.2,0l0.1,0l0.1,0.1l0,0.1l0.1,0.1l0.2,0l0.2-0.2l0.1-0.3l0.1-0.3l0.1,0l0.2-0.1l0.1-0.1l0.1-0.3l0.1-0.1l0.1,0.1l0,0l0.1,0l0,0  l0.3,0.2l0-0.2l0-0.1l0.1-0.1l0.1,0l0.2,0l0.1,0v0l-0.2-0.1l0,0l0-0.1l0-0.1l0-0.1l0-0.1l0-0.1l0.3-0.2l0.2-0.1l0.2,0h0.2l0.2,0  l0.4,0.2l0.4,0.2l0.1,0.1l0.2,0.2l0,0.1l0,0.2l0.1,0.1l0.4-0.1l0.4,0l0.1-0.1l0.1-0.2l0.1-0.1l0.2,0.1v-0.1l0.3,0.2l0.5,0.1l0.1,0  l0,0l0-0.1l0,0l0.1,0l0.1,0l0.5,0l0.4-0.1l0.1-0.1l0-0.1l-0.1-0.1l-0.2-0.2l0-0.2v-0.2l0-0.5l0-0.2l0.1-0.2l0.1-0.1l0,0l0.1,0l0,0  l0-0.1l0,0l0,0l0-0.1l0-0.2l0.1-0.1l0.1,0l0.1,0l0.2,0.1l0.1,0h0.1l0.2,0l0-0.1l0-0.2l-0.1-0.3l-0.1-0.1l-0.1,0l-0.1,0L80,75.3  l-0.1,0l-0.1-0.1l-0.1-0.2l-0.1,0l-0.3,0.1l-0.1,0L79,75l-0.1,0l-0.1,0l0,0l0,0h-0.1l0-0.1l0-0.1l-0.1,0l-0.1,0.1l-0.1,0.1l-0.6,0  l-0.1,0l-0.1,0.1l-0.2,0.1l0,0l-0.1,0.2l-0.2,0.2l-0.2,0l-0.2-0.1l-0.4-0.3l-0.1-0.1l0-0.1l0-0.1l0-0.1l0-0.1l-0.1,0l-0.1,0.1  L75.9,75l0,0.1l0,0.1l0,0l-0.1,0.1l0,0l-0.1,0l0,0l0,0.1l0,0.1l-0.2,0.2L75.3,76l-1,0.3l-0.2,0l-0.8-0.6l-1.6-2.4l-0.5-0.9l-0.3-0.8  l-0.1-0.1l-0.1-0.1l0-0.1l-0.2-1l0-0.1l0-0.1l0-0.5l0-0.1l0-0.1l0-0.1l0-0.1l0.1-0.1l0,0l0.2-0.1l0-0.1l0-0.1l0-0.1l0.1,0l0,0l0,0.1  l0,0l0.1,0h0.1l0.5-0.1l0.2-0.2l0.2-0.2l0.3-0.5l0.2-0.2l0-0.1l0-0.1l0-0.1l0-0.1l0-0.1L72.5,67l-0.1-0.1l0-0.2l0.1-0.2l0,0.1  l0.1,0.1l0.1,0.1l0.1,0.1l0.1,0.1l0,0l0.1,0l0.1,0l0,0l-0.1,0.3l0,0.2l0,0.2L73,68l0.1,0l0.1-0.1l0.1-0.1l0,0.2l-0.1,0.1L73,68.3  l-0.2,0.3l-0.1,0.1l-0.1,0.1l-0.2,0.3l-0.3,0.2l-0.6,0.2l0,0.1l0,0l-0.2,0.1l-0.2,0.2l0,0.1l0.1,0l0.2-0.1l0.1-0.1l0.2,0l0.1-0.1  l0.2-0.1l0.1-0.1l0.1-0.2l0.3-0.6l0.1-0.1l0.5-0.9l0.1-0.1l0.2-0.1l0.1-0.1l0.2-0.2l0.1-0.1l0.1-0.1l0.7-0.3l0.2-0.2l0.4-0.5  l0.2-0.1l0.3-0.2l0.4-0.2l0.1,0l0.8-0.1l0.4,0.1l0.2,0H78l0.1,0l0,0l0,0l0,0.1l0,0l0.1,0v0l0,0l0,0l0,0.1l0,0l0,0l0.1,0l0.1,0l0,0  v0.1h0l0-0.2l0.1-0.2L79,65l0.2-0.1l0.2-0.1l0.3-0.1l0.2-0.1h0.4l0,0l0-0.1l0.1-0.1l0.1,0l0.2,0l0.1,0l0.1-0.1l0.1,0.1l0.2,0.1  l0.1,0l0.2,0.2l0,0V65l-0.1,0.3l-0.1,0.2l-0.1,0h0v0.1l0.1,0l0.1-0.1l0.1-0.2l0-0.2l0.1-0.2l0.1-0.2l0.1-0.2l0-0.2l0.2,0l0.3-0.3  l0.2-0.1l0.1,0l0.2-0.2l0.1,0l0.1,0l0.6-0.3l0.3-0.2l0.1,0l0.2,0l0.2,0.1l0.1,0.2l0,0.2l0.1-0.1l0.1-0.1l0.1-0.3l0.6-0.8l0.3-0.4  l0.2-0.1l0.7,0.1l0.2,0l0.6-0.2l0.5,0.1l0.1,0l0.1,0l0.2,0.1l0,0l0.1-0.1l0,0l0,0l0.2,0.1l0.1,0.1v0.1l-0.1,0.3l0.2-0.1l0.3-0.4  l0.1-0.1l-0.1-0.2l0-0.3l0-0.2l0.1-0.2l0.1-0.1l0.1-0.1l0.1-0.1l0.1-0.1l0-0.2l0-0.1l-0.1,0l-0.1,0l-0.2,0l-0.1,0l-0.1-0.1l0-0.1  l0.1-0.1l0.2-0.2l0.1-0.3l0-0.2l0-0.6l0.1-0.3l0.1-0.3l0.1-0.2l0.2-0.1l1.2-0.2l0.1-0.1l0.1-0.1l0.2-0.2l0.1-0.1l0.1,0l0.2,0.1  l0.1,0l0.1-0.1l0-0.3l0.1-0.4l0.1-0.3l0.2-0.2l0.3-0.1l0.9,0l0.3,0.2l0.1,0l0.1,0l0.2-0.1l0.8,0l0.1,0l0.2,0.1l0.1,0l0.1,0l0.2-0.1  l0.1,0l0.2,0l0.3-0.1l0.2,0l0.6,0.1l0.2,0l0.1-0.1l0.1-0.2l0-0.2l0-0.1l0-0.1v-0.1l0-0.1L98,55l0-0.1l0-0.1l0-0.1l-0.1-0.2l-0.1-0.1  l0,0l0,0l0-0.1l0.1,0l0.3-0.1l0,0l0,0l0-0.1l-0.1-0.3l0-0.2l0.1-0.2l0.3-0.5l0.1-0.1l0.3-0.2l0.1-0.1l0.1-0.2l0-0.2L99,52l-0.1,0  l-0.3,0.1l-0.1,0l-0.4-0.2l0.4-0.3l0.1-0.1l0.1-0.1l-0.1-0.1l0-0.1l-0.1-0.2l-0.2-0.4l-0.1,0l-0.1-0.1l0-0.1l0,0l0,0l0.1,0l0-0.1  l0,0l0,0l0,0l0-0.1l0-0.2l-0.1-0.1l-0.1-0.1l-0.7-0.1l-0.1,0l-0.2,0l0.1-0.2l0.3-1.1l0-0.1l0.1-0.1l0-0.1l0-0.1l0-0.1l0.1-0.1  l0.1-0.1l0.1,0l0.6,0.2l0.2,0l0.2-0.2l0.1-0.1l0.1-0.2l0-0.2L99.3,47l-0.1,0l-0.1,0.1L99,47.2l-0.1,0.1l-0.1,0l-0.1-0.1l-0.1,0  l-0.1,0l-0.2,0L97.9,47L97.8,47l-0.1-0.1l0-0.1l-0.1-0.2l-0.1-0.1l-0.1-0.1l-0.1-0.1l0-0.4l0.1-0.1l0.3,0l0.5-0.2h0.2l0.2,0l0.1,0  l0.1,0l0-0.1l0-0.3l0-0.1l0.1-0.2l0.2-0.1l0.3-0.2l0.1-0.1l0.2-0.3l0.1-0.1l0.1-0.1l0-0.1l0-0.3l0.1-0.3l0-0.2L99.9,43.1z"/></svg>