<svg xmlns="http://www.w3.org/2000/svg" xmlns:xlink="http://www.w3.org/1999/xlink" version="1.1" x="0px" y="0px" viewBox="-345 257 100 100" fill="#e0e0e0" style="enable-background:new -345 257 100 100;" xml:space="preserve"><path d="M-317.8,289.3l0.1,0.1l0-0.4l-0.2-0.2l0,0.4L-317.8,289.3z M-273.7,293.2L-273.7,293.2L-273.7,293.2L-273.7,293.2z   M-271,288l0.1,0.1l0,0l0,0h0v0l0,0l0,0L-271,288L-271,288l0-0.1l0-0.1l0.2,0.4l-0.2-0.4l0.3-0.8l0,0l0,0l0,0l0-0.1l0,0l0,0l0,0v0h0  l0,0l0,0l0,0l0,0l0,0.1l0,0.1l0,0l0,0l0,0l0,0l0,0l0,0l0,0.1l0,0.1l0,0.1l0,0.1l0,0.1l0,0.1l0,0.1l0,0.1l0,0.1L-271,288z   M-271,287.7L-271,287.7l0-0.1l0-0.1l0-0.1l0,0L-271,287.7L-271,287.7z M-271.4,290.1L-271.4,290.1L-271.4,290.1l0.1,0.1h0v0l0,0  L-271.4,290.1L-271.4,290.1L-271.4,290.1L-271.4,290.1L-271.4,290.1l0-0.2l0.2-0.3l0.2-0.1l0,0v0l0.1-0.1l0.2,0l0,0l0.1,0l0,0l0,0  l0,0v0h0l0,0l0,0l-0.1,0l0,0l0,0l-0.1,0h-0.1l-0.1,0l0,0l-0.1,0l-0.1,0l-0.1,0.1l0,0l0,0l-0.1,0.1l0,0.1l0,0.1l0,0.1l0,0.1  L-271.4,290.1L-271.4,290.1z M-270.8,290.3L-270.8,290.3L-270.8,290.3L-270.8,290.3L-270.8,290.3l-0.4-0.1h0l0,0l0,0l0,0v0l0,0l0,0  l0,0l0.1,0l0.1,0h0.1L-270.8,290.3L-270.8,290.3L-270.8,290.3L-270.8,290.3L-270.8,290.3L-270.8,290.3L-270.8,290.3L-270.8,290.3  L-270.8,290.3L-270.8,290.3L-270.8,290.3z M-270.8,290.3L-270.8,290.3L-270.8,290.3L-270.8,290.3z M-269.7,287.8L-269.7,287.8  L-269.7,287.8L-269.7,287.8l0-0.1l0-0.1l0,0l0,0l0.1-0.1l0,0l0,0l0,0l0,0l0,0l0,0l0,0v0h0l0,0l0,0l-0.1,0.1l0,0l0,0l0,0  L-269.7,287.8L-269.7,287.8L-269.7,287.8L-269.7,287.8L-269.7,287.8L-269.7,287.8L-269.7,287.8L-269.7,287.8L-269.7,287.8  L-269.7,287.8L-269.7,287.8L-269.7,287.8z M-269.7,287.7L-269.7,287.7L-269.7,287.7L-269.7,287.7z M-269.5,287.3L-269.5,287.3  L-269.5,287.3L-269.5,287.3L-269.5,287.3L-269.5,287.3L-269.5,287.3L-269.5,287.3L-269.5,287.3L-269.5,287.3L-269.5,287.3  L-269.5,287.3L-269.5,287.3L-269.5,287.3l-0.1,0l0,0l0,0h0l0,0l0,0v0h0l0,0l0,0l0,0h0l0,0l0,0h0l0,0l0,0l0,0l0,0l0,0h0v0.1l0,0v0h0  l0,0h0l0,0v0l0,0v-0.1L-269.5,287.3L-269.5,287.3L-269.5,287.3L-269.5,287.3L-269.5,287.3L-269.5,287.3L-269.5,287.3z M-269.7,287.2  L-269.7,287.2L-269.7,287.2L-269.7,287.2L-269.7,287.2L-269.7,287.2L-269.7,287.2L-269.7,287.2L-269.7,287.2L-269.7,287.2  L-269.7,287.2L-269.7,287.2L-269.7,287.2L-269.7,287.2L-269.7,287.2L-269.7,287.2l0.2,0h0l0,0l0,0l0,0l0,0v0l0,0l0,0l0,0l0,0h0l0,0  l0,0l0,0L-269.7,287.2L-269.7,287.2L-269.7,287.2L-269.7,287.2L-269.7,287.2L-269.7,287.2L-269.7,287.2z M-270.2,288.4L-270.2,288.4  L-270.2,288.4L-270.2,288.4L-270.2,288.4L-270.2,288.4l0.1-0.1l0,0l0,0v0h0v0L-270.2,288.4l-0.1,0l0,0l-0.1,0h0l-0.1,0l0,0l0,0h0  l-0.3-0.2l0.2,0.2l0,0l-0.1,0l0,0l0,0l0-0.1l0,0l0,0l0,0l0,0l0,0l0,0.1l0,0l0,0l0.1,0l0,0l0,0h0l0,0l0.1,0H-270.2L-270.2,288.4z   M-270.3,288.4L-270.3,288.4L-270.3,288.4L-270.3,288.4z M-270.1,288.3L-270.1,288.3L-270.1,288.3L-270.1,288.3l0.1-0.1l0.1,0l0,0  l0,0l0,0l0,0l0,0l0,0l0,0h0l0,0l0,0l0,0l0,0l0,0l0,0l0,0l-0.1,0L-270.1,288.3L-270.1,288.3L-270.1,288.3L-270.1,288.3L-270.1,288.3  L-270.1,288.3z M-270.4,290L-270.4,290L-270.4,290L-270.4,290L-270.4,290L-270.4,290L-270.4,290L-270.4,290L-270.4,290L-270.4,290  L-270.4,290L-270.4,290L-270.4,290L-270.4,290L-270.4,290l-0.1,0.1L-270.4,290L-270.4,290L-270.4,290L-270.4,290L-270.4,290  L-270.4,290L-270.4,290L-270.4,290L-270.4,290L-270.4,290L-270.4,290L-270.4,290L-270.4,290L-270.4,290L-270.4,290z M-270.7,290.3  L-270.7,290.3L-270.7,290.3L-270.7,290.3l-0.1,0.1l0,0v0l0,0l0,0l0,0v0h0v0l0,0L-270.7,290.3L-270.7,290.3L-270.7,290.3  L-270.7,290.3L-270.7,290.3L-270.7,290.3L-270.7,290.3L-270.7,290.3z M-270.3,287.3L-270.3,287.3L-270.3,287.3L-270.3,287.3  L-270.3,287.3L-270.3,287.3L-270.3,287.3L-270.3,287.3L-270.3,287.3L-270.3,287.3L-270.3,287.3L-270.3,287.3L-270.3,287.3  L-270.3,287.3L-270.3,287.3L-270.3,287.3L-270.3,287.3L-270.3,287.3L-270.3,287.3L-270.3,287.3z M-270.3,287.2L-270.3,287.2  L-270.3,287.2L-270.3,287.2L-270.3,287.2L-270.3,287.2L-270.3,287.2L-270.3,287.2L-270.3,287.2L-270.3,287.2L-270.3,287.2  L-270.3,287.2z M-269.7,287.3L-269.7,287.3L-269.7,287.3L-269.7,287.3L-269.7,287.3L-269.7,287.3L-269.7,287.3L-269.7,287.3  L-269.7,287.3L-269.7,287.3L-269.7,287.3L-269.7,287.3L-269.7,287.3L-269.7,287.3L-269.7,287.3L-269.7,287.3L-269.7,287.3  L-269.7,287.3L-269.7,287.3z M-270.5,287.4L-270.5,287.4L-270.5,287.4L-270.5,287.4L-270.5,287.4L-270.5,287.4L-270.5,287.4  L-270.5,287.4L-270.5,287.4L-270.5,287.4L-270.5,287.4L-270.5,287.4L-270.5,287.4L-270.5,287.4z M-270.6,287.3L-270.6,287.3  L-270.6,287.3L-270.6,287.3L-270.6,287.3L-270.6,287.3L-270.6,287.3L-270.6,287.3L-270.6,287.3L-270.6,287.3L-270.6,287.3  L-270.6,287.3L-270.6,287.3L-270.6,287.3L-270.6,287.3L-270.6,287.3L-270.6,287.3z M-269.6,287.6L-269.6,287.6L-269.6,287.6  L-269.6,287.6L-269.6,287.6L-269.6,287.6L-269.6,287.6L-269.6,287.6L-269.6,287.6L-269.6,287.6L-269.6,287.6L-269.6,287.6  L-269.6,287.6z M-270,287.7L-270,287.7L-270,287.7L-270,287.7L-270,287.7L-270,287.7L-270,287.7L-270,287.7L-270,287.7L-270,287.7  L-270,287.7L-270,287.7L-270,287.7L-270,287.7z M-269.9,287.4L-269.9,287.4L-269.9,287.4L-269.9,287.4L-269.9,287.4L-269.9,287.4  L-269.9,287.4L-269.9,287.4L-269.9,287.4L-269.9,287.4L-269.9,287.4L-269.9,287.4L-269.9,287.4L-269.9,287.4L-269.9,287.4  L-269.9,287.4L-269.9,287.4z M-270.1,287.6L-270.1,287.6L-270.1,287.6L-270.1,287.6L-270.1,287.6L-270.1,287.6L-270.1,287.6  L-270.1,287.6L-270.1,287.6L-270.1,287.6L-270.1,287.6L-270.1,287.6L-270.1,287.6z M-269.8,287.7L-269.8,287.7L-269.8,287.7  L-269.8,287.7L-269.8,287.7L-269.8,287.7L-269.8,287.7L-269.8,287.7L-269.8,287.7L-269.8,287.7L-269.8,287.7L-269.8,287.7  L-269.8,287.7L-269.8,287.7z M-270.3,287.9L-270.3,287.9L-270.3,287.9L-270.3,287.9L-270.3,287.9L-270.3,287.9L-270.3,287.9  L-270.3,287.9L-270.3,287.9z M-270.5,287.4L-270.5,287.4L-270.5,287.4L-270.5,287.4L-270.5,287.4L-270.5,287.4L-270.5,287.4  L-270.5,287.4L-270.5,287.4z M-270.2,287.4L-270.2,287.4L-270.2,287.4L-270.2,287.4L-270.2,287.4L-270.2,287.4L-270.2,287.4  L-270.2,287.4L-270.2,287.4L-270.2,287.4L-270.2,287.4L-270.2,287.4L-270.2,287.4z M-270.6,288L-270.6,288L-270.6,288L-270.6,288  L-270.6,288L-270.6,288L-270.6,288L-270.6,288L-270.6,288L-270.6,288L-270.6,288L-270.6,288z M-269.9,287.3L-269.9,287.3  L-269.9,287.3L-269.9,287.3L-269.9,287.3L-269.9,287.3L-269.9,287.3L-269.9,287.3z M-270.5,287.9L-270.5,287.9L-270.5,287.9  L-270.5,287.9L-270.5,287.9L-270.5,287.9L-270.5,287.9L-270.5,287.9L-270.5,287.9L-270.5,287.9L-270.5,287.9L-270.5,287.9  L-270.5,287.9z M-270.4,287.3L-270.4,287.3L-270.4,287.3L-270.4,287.3L-270.4,287.3L-270.4,287.3L-270.4,287.3L-270.4,287.3  L-270.4,287.3L-270.4,287.3z M-270.7,287.7L-270.7,287.7L-270.7,287.7L-270.7,287.7L-270.7,287.7L-270.7,287.7L-270.7,287.7  L-270.7,287.7L-270.7,287.7L-270.7,287.7z M-270.2,287.3L-270.2,287.3L-270.2,287.3L-270.2,287.3L-270.2,287.3L-270.2,287.3  L-270.2,287.3L-270.2,287.3L-270.2,287.3z M-270.1,287.3L-270.1,287.3L-270.1,287.3L-270.1,287.3L-270.1,287.3L-270.1,287.3  L-270.1,287.3L-270.1,287.3L-270.1,287.3L-270.1,287.3z M-270.2,287.9L-270.2,287.9L-270.2,287.9L-270.2,287.9L-270.2,287.9  L-270.2,287.9L-270.2,287.9L-270.2,287.9L-270.2,287.9L-270.2,287.9z M-269.8,287.6L-269.8,287.6L-269.8,287.6L-269.8,287.6  L-269.8,287.6L-269.8,287.6L-269.8,287.6L-269.8,287.6z M-270.2,287.5L-270.2,287.5L-270.2,287.5L-270.2,287.5L-270.2,287.5  L-270.2,287.5L-270.2,287.5L-270.2,287.5z M-270.4,287.5L-270.4,287.5L-270.4,287.5L-270.4,287.5L-270.4,287.5L-270.4,287.5  L-270.4,287.5L-270.4,287.5z M-270.2,287.6L-270.2,287.6L-270.2,287.6L-270.2,287.6L-270.2,287.6L-270.2,287.6L-270.2,287.6z   M-270.1,287.9L-270.1,287.9L-270.1,287.9L-270.1,287.9L-270.1,287.9L-270.1,287.9L-270.1,287.9L-270.1,287.9L-270.1,287.9  L-270.1,287.9z M-270.3,288L-270.3,288L-270.3,288L-270.3,288L-270.3,288L-270.3,288L-270.3,288L-270.3,288L-270.3,288L-270.3,288z   M-270.6,287.7L-270.6,287.7L-270.6,287.7L-270.6,287.7L-270.6,287.7L-270.6,287.7L-270.6,287.7L-270.6,287.7L-270.6,287.7  L-270.6,287.7L-270.6,287.7L-270.6,287.7z M-270.5,287.9L-270.5,287.9L-270.5,287.9L-270.5,287.9L-270.5,287.9L-270.5,287.9  L-270.5,287.9L-270.5,287.9L-270.5,287.9L-270.5,287.9L-270.5,287.9L-270.5,287.9L-270.5,287.9L-270.5,287.9L-270.5,287.9  L-270.5,287.9L-270.5,287.9z M-270,287.3L-270,287.3L-270,287.3L-270,287.3L-270,287.3L-270,287.3L-270,287.3L-270,287.3z   M-270.5,287.6L-270.5,287.6L-270.5,287.6L-270.5,287.6L-270.5,287.6L-270.5,287.6L-270.5,287.6L-270.5,287.6L-270.5,287.6z   M-270.7,287.8L-270.7,287.8L-270.7,287.8L-270.7,287.8L-270.7,287.8L-270.7,287.8L-270.7,287.8L-270.7,287.8L-270.7,287.8z   M-269.9,287.2L-269.9,287.2L-269.9,287.2L-269.9,287.2L-269.9,287.2L-269.9,287.2L-269.9,287.2L-269.9,287.2L-269.9,287.2  L-269.9,287.2z M-270.2,287.6L-270.2,287.6L-270.2,287.6L-270.2,287.6L-270.2,287.6L-270.2,287.6L-270.2,287.6L-270.2,287.6  L-270.2,287.6z M-270.2,287.2L-270.2,287.2L-270.2,287.2L-270.2,287.2L-270.2,287.2L-270.2,287.2L-270.2,287.2L-270.2,287.2z   M-270,287.6L-270,287.6L-270,287.6L-270,287.6L-270,287.6L-270,287.6L-270,287.6L-270,287.6L-270,287.6z M-270.3,287.3  L-270.3,287.3L-270.3,287.3L-270.3,287.3L-270.3,287.3L-270.3,287.3L-270.3,287.3L-270.3,287.3L-270.3,287.3L-270.3,287.3z   M-270.6,287.9L-270.6,287.9L-270.6,287.9L-270.6,287.9L-270.6,287.9L-270.6,287.9L-270.6,287.9L-270.6,287.9z M-270.8,287.3  L-270.8,287.3L-270.8,287.3L-270.8,287.3L-270.8,287.3L-270.8,287.3L-270.8,287.3L-270.8,287.3L-270.8,287.3L-270.8,287.3  L-270.8,287.3L-270.8,287.3L-270.8,287.3z M-269.8,287.2L-269.8,287.2L-269.8,287.2L-269.8,287.2L-269.8,287.2L-269.8,287.2  L-269.8,287.2L-269.8,287.2L-269.8,287.2z M-270.7,287.6L-270.7,287.6L-270.7,287.6L-270.7,287.6L-270.7,287.6L-270.7,287.6  L-270.7,287.6L-270.7,287.6L-270.7,287.6z M-270.7,287.5L-270.7,287.5L-270.7,287.5L-270.7,287.5L-270.7,287.5L-270.7,287.5  L-270.7,287.5L-270.7,287.5z M-270.2,287.7L-270.2,287.7L-270.2,287.7L-270.2,287.7L-270.2,287.7L-270.2,287.7L-270.2,287.7  L-270.2,287.7L-270.2,287.7L-270.2,287.7z M-270.2,287.8L-270.2,287.8L-270.2,287.8L-270.2,287.8L-270.2,287.8L-270.2,287.8  L-270.2,287.8L-270.2,287.8z M-270.7,287.8L-270.7,287.8L-270.7,287.8L-270.7,287.8L-270.7,287.8L-270.7,287.8L-270.7,287.8  L-270.7,287.8L-270.7,287.8z M-270.1,287.1L-270.1,287.1L-270.1,287.1L-270.1,287.1L-270.1,287.1L-270.1,287.1L-270.1,287.1  L-270.1,287.1L-270.1,287.1L-270.1,287.1L-270.1,287.1L-270.1,287.1z M-270.7,288L-270.7,288L-270.7,288L-270.7,288L-270.7,288  L-270.7,288L-270.7,288L-270.7,288L-270.7,288z M-270.1,287.8L-270.1,287.8L-270.1,287.8L-270.1,287.8L-270.1,287.8L-270.1,287.8  L-270.1,287.8L-270.1,287.8L-270.1,287.8z M-270.2,287.9L-270.2,287.9L-270.2,287.9L-270.2,287.9L-270.2,287.9L-270.2,287.9  L-270.2,287.9L-270.2,287.9L-270.2,287.9z M-270.1,287.2L-270.1,287.2L-270.1,287.2L-270.1,287.2L-270.1,287.2L-270.1,287.2  L-270.1,287.2L-270.1,287.2L-270.1,287.2L-270.1,287.2z M-270.2,287.2L-270.2,287.2L-270.2,287.2L-270.2,287.2L-270.2,287.2  L-270.2,287.2L-270.2,287.2L-270.2,287.2L-270.2,287.2z M-270.1,288L-270.1,288L-270.1,288L-270.1,288L-270.1,288L-270.1,288  L-270.1,288L-270.1,288L-270.1,288L-270.1,288z M-270.3,287.4L-270.3,287.4L-270.3,287.4L-270.3,287.4L-270.3,287.4L-270.3,287.4  L-270.3,287.4L-270.3,287.4L-270.3,287.4z M-270.2,288L-270.2,288L-270.2,288L-270.2,288L-270.2,288L-270.2,288L-270.2,288  L-270.2,288L-270.2,288z M-270,287.5L-270,287.5L-270,287.5L-270,287.5L-270,287.5L-270,287.5L-270,287.5L-270,287.5z M-269.9,287.6  L-269.9,287.6L-269.9,287.6L-269.9,287.6L-269.9,287.6L-269.9,287.6L-269.9,287.6L-269.9,287.6z M-270.6,287.7L-270.6,287.7  L-270.6,287.7L-270.6,287.7L-270.6,287.7L-270.6,287.7L-270.6,287.7L-270.6,287.7L-270.6,287.7z M-270.5,287.9L-270.5,287.9  L-270.5,287.9L-270.5,287.9L-270.5,287.9L-270.5,287.9L-270.5,287.9L-270.5,287.9L-270.5,287.9z M-270.7,287.8L-270.7,287.8  L-270.7,287.8L-270.7,287.8L-270.7,287.8L-270.7,287.8L-270.7,287.8L-270.7,287.8L-270.7,287.8L-270.7,287.8z M-270.2,287.1  L-270.2,287.1L-270.2,287.1L-270.2,287.1L-270.2,287.1L-270.2,287.1L-270.2,287.1L-270.2,287.1z M-269.9,287.3L-269.9,287.3  L-269.9,287.3L-269.9,287.3L-269.9,287.3L-269.9,287.3L-269.9,287.3L-269.9,287.3L-269.9,287.3L-269.9,287.3z M-270.6,287.6  L-270.6,287.6L-270.6,287.6L-270.6,287.6L-270.6,287.6L-270.6,287.6L-270.6,287.6L-270.6,287.6L-270.6,287.6z M-270,287.6  L-270,287.6L-270,287.6L-270,287.6L-270,287.6L-270,287.6L-270,287.6L-270,287.6L-270,287.6z M-270,287.6L-270,287.6L-270,287.6  L-270,287.6L-270,287.6L-270,287.6L-270,287.6L-270,287.6L-270,287.6z M-270.5,287.5L-270.5,287.5L-270.5,287.5L-270.5,287.5  L-270.5,287.5L-270.5,287.5L-270.5,287.5L-270.5,287.5z M-270.1,287.7L-270.1,287.7L-270.1,287.7L-270.1,287.7L-270.1,287.7  L-270.1,287.7L-270.1,287.7z M-270.2,288L-270.2,288L-270.2,288L-270.2,288L-270.2,288L-270.2,288L-270.2,288L-270.2,288L-270.2,288  z M-270.1,287.3L-270.1,287.3L-270.1,287.3L-270.1,287.3L-270.1,287.3L-270.1,287.3L-270.1,287.3L-270.1,287.3L-270.1,287.3z   M-270.2,287.2L-270.2,287.2L-270.2,287.2L-270.2,287.2L-270.2,287.2L-270.2,287.2L-270.2,287.2L-270.2,287.2z M-269.9,287.6  L-269.9,287.6L-269.9,287.6L-269.9,287.6L-269.9,287.6L-269.9,287.6L-269.9,287.6L-269.9,287.6L-269.9,287.6z M-269.9,287.2  L-269.9,287.2L-269.9,287.2L-269.9,287.2L-269.9,287.2L-269.9,287.2L-269.9,287.2L-269.9,287.2L-269.9,287.2z M-270,287.5  L-270,287.5L-270,287.5L-270,287.5L-270,287.5L-270,287.5L-270,287.5L-270,287.5z M-270.5,288L-270.5,288L-270.5,288L-270.5,288  L-270.5,288L-270.5,288L-270.5,288L-270.5,288L-270.5,288L-270.5,288L-270.5,288L-270.5,288L-270.5,288z M-270.5,288L-270.5,288  L-270.5,288L-270.5,288L-270.5,288L-270.5,288L-270.5,288L-270.5,288L-270.5,288L-270.5,288z M-269.9,287.7L-269.9,287.7  L-269.9,287.7L-269.9,287.7L-269.9,287.7L-269.9,287.7L-269.9,287.7L-269.9,287.7L-269.9,287.7z M-270.7,287.3L-270.7,287.3  L-270.7,287.3L-270.7,287.3L-270.7,287.3L-270.7,287.3L-270.7,287.3L-270.7,287.3z M-270.1,287.9L-270.1,287.9L-270.1,287.9  L-270.1,287.9L-270.1,287.9L-270.1,287.9L-270.1,287.9L-270.1,287.9L-270.1,287.9z M-270,287.2L-270,287.2L-270,287.2L-270,287.2  L-270,287.2L-270,287.2L-270,287.2L-270,287.2L-270,287.2z M-270.2,287.3L-270.2,287.3L-270.2,287.3L-270.2,287.3L-270.2,287.3  L-270.2,287.3L-270.2,287.3L-270.2,287.3L-270.2,287.3L-270.2,287.3L-270.2,287.3L-270.2,287.3L-270.2,287.3z M-269.8,287.5  L-269.8,287.5L-269.8,287.5L-269.8,287.5L-269.8,287.5L-269.8,287.5L-269.8,287.5z M-270.7,287.4L-270.7,287.4L-270.7,287.4  L-270.7,287.4L-270.7,287.4L-270.7,287.4L-270.7,287.4z M-270.1,287.3L-270.1,287.3L-270.1,287.3L-270.1,287.3L-270.1,287.3  L-270.1,287.3L-270.1,287.3L-270.1,287.3z M-270.3,287.4L-270.3,287.4L-270.3,287.4L-270.3,287.4L-270.3,287.4L-270.3,287.4  L-270.3,287.4L-270.3,287.4z M-270.7,287.5L-270.7,287.5L-270.7,287.5L-270.7,287.5L-270.7,287.5L-270.7,287.5L-270.7,287.5  L-270.7,287.5z M-270.5,287.7L-270.5,287.7L-270.5,287.7L-270.5,287.7L-270.5,287.7L-270.5,287.7L-270.5,287.7L-270.5,287.7  L-270.5,287.7L-270.5,287.7z M-270.6,287.9L-270.6,287.9L-270.6,287.9L-270.6,287.9L-270.6,287.9L-270.6,287.9L-270.6,287.9  L-270.6,287.9L-270.6,287.9L-270.6,287.9z M-269.8,287.3L-269.8,287.3L-269.8,287.3L-269.8,287.3L-269.8,287.3L-269.8,287.3  L-269.8,287.3L-269.8,287.3z M-270.7,287.4L-270.7,287.4L-270.7,287.4L-270.7,287.4L-270.7,287.4L-270.7,287.4L-270.7,287.4  L-270.7,287.4z M-270.1,287.7L-270.1,287.7L-270.1,287.7L-270.1,287.7L-270.1,287.7L-270.1,287.7L-270.1,287.7L-270.1,287.7z   M-270.2,287.3L-270.2,287.3L-270.2,287.3L-270.2,287.3L-270.2,287.3L-270.2,287.3L-270.2,287.3L-270.2,287.3z M-270.1,287.7  L-270.1,287.7L-270.1,287.7L-270.1,287.7L-270.1,287.7L-270.1,287.7L-270.1,287.7L-270.1,287.7z M-270,288L-270,288L-270,288  L-270,288L-270,288L-270,288L-270,288L-270,288z M-270.7,287.9L-270.7,287.9L-270.7,287.9L-270.7,287.9L-270.7,287.9L-270.7,287.9  L-270.7,287.9L-270.7,287.9z M-270.7,287.3L-270.7,287.3L-270.7,287.3L-270.7,287.3L-270.7,287.3L-270.7,287.3L-270.7,287.3  L-270.7,287.3z M-270,287.7L-270,287.7L-270,287.7L-270,287.7L-270,287.7L-270,287.7z M-270.3,287.5L-270.3,287.5L-270.3,287.5  L-270.3,287.5L-270.3,287.5L-270.3,287.5L-270.3,287.5z M-270.1,287.4L-270.1,287.4L-270.1,287.4L-270.1,287.4L-270.1,287.4  L-270.1,287.4L-270.1,287.4L-270.1,287.4z M-270.7,287.7L-270.7,287.7L-270.7,287.7L-270.7,287.7L-270.7,287.7L-270.7,287.7  L-270.7,287.7L-270.7,287.7z M-270.4,287.3L-270.4,287.3L-270.4,287.3L-270.4,287.3L-270.4,287.3L-270.4,287.3L-270.4,287.3z   M-270.1,287.3L-270.1,287.3L-270.1,287.3L-270.1,287.3L-270.1,287.3L-270.1,287.3L-270.1,287.3z M-269.8,287.3L-269.8,287.3  L-269.8,287.3L-269.8,287.3L-269.8,287.3L-269.8,287.3L-269.8,287.3z M-269.9,287.2L-269.9,287.2L-269.9,287.2L-269.9,287.2  L-269.9,287.2L-269.9,287.2z M-270.6,287.8L-270.6,287.8L-270.6,287.8L-270.6,287.8L-270.6,287.8L-270.6,287.8L-270.6,287.8  L-270.6,287.8L-270.6,287.8z M-269.9,287.5L-269.9,287.5L-269.9,287.5L-269.9,287.5L-269.9,287.5L-269.9,287.5L-269.9,287.5  L-269.9,287.5z M-270,287.4L-270,287.4L-270,287.4L-270,287.4L-270,287.4L-270,287.4L-270,287.4L-270,287.4L-270,287.4z   M-270.1,287.5L-270.1,287.5L-270.1,287.5L-270.1,287.5L-270.1,287.5L-270.1,287.5L-270.1,287.5L-270.1,287.5z M-270.6,287.5  L-270.6,287.5L-270.6,287.5L-270.6,287.5L-270.6,287.5L-270.6,287.5L-270.6,287.5L-270.6,287.5L-270.6,287.5z M-270,287.5  L-270,287.5L-270,287.5L-270,287.5L-270,287.5L-270,287.5L-270,287.5L-270,287.5L-270,287.5L-270,287.5z M-270.6,287.7L-270.6,287.7  L-270.6,287.7L-270.6,287.7L-270.6,287.7L-270.6,287.7L-270.6,287.7L-270.6,287.7L-270.6,287.7L-270.6,287.7z M-269.9,287.3  L-269.9,287.3L-269.9,287.3L-269.9,287.3L-269.9,287.3L-269.9,287.3L-269.9,287.3L-269.9,287.3z M-270.7,287.6L-270.7,287.6  L-270.7,287.6L-270.7,287.6L-270.7,287.6L-270.7,287.6L-270.7,287.6L-270.7,287.6z M-270.5,287.8L-270.5,287.8L-270.5,287.8  L-270.5,287.8L-270.5,287.8L-270.5,287.8L-270.5,287.8z M-270.5,287.8L-270.5,287.8L-270.5,287.8L-270.5,287.8L-270.5,287.8  L-270.5,287.8L-270.5,287.8L-270.5,287.8L-270.5,287.8L-270.5,287.8z M-270.3,287.5L-270.3,287.5L-270.3,287.5L-270.3,287.5  L-270.3,287.5L-270.3,287.5L-270.3,287.5z M-270.2,287.9L-270.2,287.9L-270.2,287.9L-270.2,287.9L-270.2,287.9L-270.2,287.9  L-270.2,287.9L-270.2,287.9z M-270.7,287.5L-270.7,287.5L-270.7,287.5L-270.7,287.5L-270.7,287.5L-270.7,287.5L-270.7,287.5  L-270.7,287.5L-270.7,287.5z M-270.2,287.5L-270.2,287.5L-270.2,287.5L-270.2,287.5L-270.2,287.5L-270.2,287.5L-270.2,287.5  L-270.2,287.5z M-269.8,287.6L-269.8,287.6L-269.8,287.6L-269.8,287.6L-269.8,287.6L-269.8,287.6L-269.8,287.6z M-270.7,287.9  L-270.7,287.9L-270.7,287.9L-270.7,287.9L-270.7,287.9L-270.7,287.9L-270.7,287.9L-270.7,287.9z M-270.4,288L-270.4,288L-270.4,288  L-270.4,288L-270.4,288L-270.4,288z M-270,287.3L-270,287.3L-270,287.3L-270,287.3L-270,287.3L-270,287.3L-270,287.3z M-270.1,287.4  L-270.1,287.4L-270.1,287.4L-270.1,287.4L-270.1,287.4L-270.1,287.4L-270.1,287.4L-270.1,287.4L-270.1,287.4z M-270.1,288.1  L-270.1,288.1L-270.1,288.1L-270.1,288.1L-270.1,288.1L-270.1,288.1L-270.1,288.1L-270.1,288.1z M-269.8,287.4L-269.8,287.4  L-269.8,287.4L-269.8,287.4L-269.8,287.4L-269.8,287.4L-269.8,287.4L-269.8,287.4z M-270,288.1L-270,288.1L-270,288.1L-270,288.1  L-270,288.1L-270,288.1L-270,288.1z M-270.1,287.5L-270.1,287.5L-270.1,287.5L-270.1,287.5L-270.1,287.5L-270.1,287.5L-270.1,287.5  L-270.1,287.5L-270.1,287.5z M-270,287.5L-270,287.5L-270,287.5L-270,287.5L-270,287.5L-270,287.5L-270,287.5L-270,287.5z   M-270,287.2L-270,287.2L-270,287.2L-270,287.2L-270,287.2L-270,287.2L-270,287.2z M-270.1,288.1L-270.1,288.1L-270.1,288.1  L-270.1,288.1L-270.1,288.1L-270.1,288.1L-270.1,288.1L-270.1,288.1L-270.1,288.1z M-270.7,287.4L-270.7,287.4L-270.7,287.4  L-270.7,287.4L-270.7,287.4L-270.7,287.4L-270.7,287.4L-270.7,287.4z M-270.1,288.1L-270.1,288.1L-270.1,288.1L-270.1,288.1  L-270.1,288.1L-270.1,288.1L-270.1,288.1L-270.1,288.1z M-269.9,287.6L-269.9,287.6L-269.9,287.6L-269.9,287.6L-269.9,287.6  L-269.9,287.6L-269.9,287.6L-269.9,287.6z M-270.6,287.5L-270.6,287.5L-270.6,287.5L-270.6,287.5L-270.6,287.5L-270.6,287.5  L-270.6,287.5L-270.6,287.5z M-270.1,287.5L-270.1,287.5L-270.1,287.5L-270.1,287.5L-270.1,287.5L-270.1,287.5L-270.1,287.5z   M-270.7,287.5L-270.7,287.5L-270.7,287.5L-270.7,287.5L-270.7,287.5L-270.7,287.5L-270.7,287.5z M-270.5,287.7L-270.5,287.7  L-270.5,287.7L-270.5,287.7L-270.5,287.7L-270.5,287.7L-270.5,287.7L-270.5,287.7z M-270.6,287.8L-270.6,287.8L-270.6,287.8  L-270.6,287.8L-270.6,287.8L-270.6,287.8L-270.6,287.8z M-270.2,287.4L-270.2,287.4L-270.2,287.4L-270.2,287.4L-270.2,287.4  L-270.2,287.4L-270.2,287.4z M-270.6,287.6L-270.6,287.6L-270.6,287.6L-270.6,287.6L-270.6,287.6L-270.6,287.6L-270.6,287.6  L-270.6,287.6z M-270.6,287.4L-270.6,287.4L-270.6,287.4L-270.6,287.4L-270.6,287.4L-270.6,287.4L-270.6,287.4L-270.6,287.4  L-270.6,287.4z M-270.1,287.5L-270.1,287.5L-270.1,287.5L-270.1,287.5L-270.1,287.5L-270.1,287.5L-270.1,287.5z M-270,287.1  L-270,287.1L-270,287.1L-270,287.1L-270,287.1L-270,287.1L-270,287.1L-270,287.1L-270,287.1z M-270.3,287.2L-270.3,287.2  L-270.3,287.2L-270.3,287.2L-270.3,287.2L-270.3,287.2L-270.3,287.2z M-270,287.6L-270,287.6L-270,287.6L-270,287.6L-270,287.6  L-270,287.6L-270,287.6L-270,287.6z M-269.8,287.1L-269.8,287.1L-269.8,287.1L-269.8,287.1L-269.8,287.1L-269.8,287.1L-269.8,287.1  L-269.8,287.1z M-270.6,287.4L-270.6,287.4L-270.6,287.4L-270.6,287.4L-270.6,287.4L-270.6,287.4L-270.6,287.4L-270.6,287.4z   M-269.9,287.3L-269.9,287.3L-269.9,287.3L-269.9,287.3L-269.9,287.3L-269.9,287.3L-269.9,287.3z M-270.1,288L-270.1,288L-270.1,288  L-270.1,288L-270.1,288L-270.1,288L-270.1,288z M-269.9,287.1L-269.9,287.1L-269.9,287.1L-269.9,287.1L-269.9,287.1L-269.9,287.1  L-269.9,287.1z M-270.5,287.8L-270.5,287.8L-270.5,287.8L-270.5,287.8L-270.5,287.8L-270.5,287.8L-270.5,287.8L-270.5,287.8  L-270.5,287.8z M-270.4,287.9L-270.4,287.9L-270.4,287.9L-270.4,287.9L-270.4,287.9L-270.4,287.9L-270.4,287.9L-270.4,287.9z   M-270,287.4L-270,287.4L-270,287.4L-270,287.4L-270,287.4L-270,287.4L-270,287.4z M-270.2,287.5L-270.2,287.5L-270.2,287.5  L-270.2,287.5L-270.2,287.5L-270.2,287.5L-270.2,287.5z M-269.9,287.1L-269.9,287.1L-269.9,287.1L-269.9,287.1L-269.9,287.1  L-269.9,287.1z M-270.7,287.4L-270.7,287.4L-270.7,287.4L-270.7,287.4L-270.7,287.4L-270.7,287.4L-270.7,287.4z M-270.6,287.5  L-270.6,287.5L-270.6,287.5L-270.6,287.5L-270.6,287.5L-270.6,287.5L-270.6,287.5L-270.6,287.5L-270.6,287.5z M-270,288.1  L-270,288.1L-270,288.1L-270,288.1L-270,288.1L-270,288.1L-270,288.1z M-270.1,287.4L-270.1,287.4L-270.1,287.4L-270.1,287.4  L-270.1,287.4L-270.1,287.4L-270.1,287.4z M-270.3,287.3L-270.3,287.3L-270.3,287.3L-270.3,287.3L-270.3,287.3L-270.3,287.3z   M-270.2,287.5L-270.2,287.5L-270.2,287.5L-270.2,287.5L-270.2,287.5L-270.2,287.5L-270.2,287.5z M-269.8,287.4L-269.8,287.4  L-269.8,287.4L-269.8,287.4L-269.8,287.4L-269.8,287.4L-269.8,287.4z M-270.3,287.8L-270.3,287.8L-270.3,287.8L-270.3,287.8  L-270.3,287.8L-270.3,287.8L-270.3,287.8z M-270.6,287.9L-270.6,287.9L-270.6,287.9L-270.6,287.9L-270.6,287.9L-270.6,287.9  L-270.6,287.9z M-270.4,287.1L-270.4,287.1L-270.4,287.1L-270.4,287.1L-270.4,287.1L-270.4,287.1L-270.4,287.1L-270.4,287.1  L-270.4,287.1L-270.4,287.1L-270.4,287.1z M-270.3,287.1L-270.3,287.1L-270.3,287.1L-270.3,287.1L-270.3,287.1L-270.3,287.1  L-270.3,287.1L-270.3,287.1L-270.3,287.1z M-270.2,287.1L-270.2,287.1L-270.2,287.1L-270.2,287.1L-270.2,287.1L-270.2,287.1l0.1,0.1  h0l0,0l0,0v0l0,0l0,0l0,0v0l0,0h0L-270.2,287.1L-270.2,287.1l0.1,0L-270.2,287.1L-270.2,287.1L-270.2,287.1L-270.2,287.1  L-270.2,287.1L-270.2,287.1L-270.2,287.1z M-269.9,287.1L-269.9,287.1L-269.9,287.1L-269.9,287.1L-269.9,287.1L-269.9,287.1  L-269.9,287.1L-269.9,287.1L-269.9,287.1L-269.9,287.1z M-269.8,287.1L-269.8,287.1L-269.8,287.1L-269.8,287.1L-269.8,287.1  L-269.8,287.1L-269.8,287.1L-269.8,287.1z M-269.5,287.1L-269.5,287.1L-269.5,287.1L-269.5,287.1h-0.1l0,0l0,0l0,0L-269.5,287.1  L-269.5,287.1l0,0.1h0L-269.5,287.1L-269.5,287.1L-269.5,287.1L-269.5,287.1L-269.5,287.1L-269.5,287.1z M-269.6,287.1L-269.6,287.1  L-269.6,287.1L-269.6,287.1L-269.6,287.1L-269.6,287.1z M-269.6,286.8L-269.6,286.8L-269.6,286.8L-269.6,286.8L-269.6,286.8  L-269.6,286.8L-269.6,286.8L-269.6,286.8L-269.6,286.8l0.1,0.1l0,0l0,0.1l0,0l0,0.3l0,0.1l0,0h0v0l0,0l0,0l0,0l0,0l0-0.1l0-0.1  l0-0.1l0,0l0,0l0,0l0-0.1l0,0l0,0L-269.6,286.8L-269.6,286.8L-269.6,286.8z M-269.4,287.1L-269.4,287.1l0,0.1l0,0l0,0L-269.4,287.1  L-269.4,287.1z M-270.6,286.9L-270.6,286.9l0.5-0.3l0.4,0.1l-0.3-0.1h0l0.1,0l0.1,0l0.1,0l0.1,0l0.1,0l0,0l-0.1,0l0.1,0l0,0l0,0l0,0  l0,0v0l0,0l0,0l-0.1,0l-0.1,0l-0.1,0l-0.1,0l-0.1,0l-0.1,0h-0.1l0,0l-0.1,0l-0.1,0l-0.1,0l0,0l0,0l-0.1,0L-270.6,286.9L-270.6,286.9  L-270.6,286.9L-270.6,286.9L-270.6,286.9L-270.6,286.9L-270.6,286.9L-270.6,286.9z M-270.2,286.6L-270.2,286.6L-270.2,286.6  L-270.2,286.6z M-270.5,286.8L-270.5,286.8L-270.5,286.8L-270.5,286.8z M-269.9,286.8L-269.9,286.8L-269.9,286.8L-269.9,286.8  l-0.1,0l0,0l0,0l0,0l0,0l0,0L-269.9,286.8L-269.9,286.8L-269.9,286.8L-269.9,286.8L-269.9,286.8L-269.9,286.8L-269.9,286.8z   M-270,286.8L-270,286.8L-270,286.8L-270,286.8L-270,286.8L-270,286.8L-270,286.8z M-270.1,286.7L-270.1,286.7L-270.1,286.7  L-270.1,286.7l-0.1,0.1l0,0l0,0l0,0h0L-270.1,286.7L-270.1,286.7L-270.1,286.7L-270.1,286.7L-270.1,286.7z M-270.1,286.8  L-270.1,286.8L-270.1,286.8L-270.1,286.8L-270.1,286.8z M-269.6,286.9L-269.6,286.9L-269.6,286.9L-269.6,286.9L-269.6,286.9  L-269.6,286.9L-269.6,286.9L-269.6,286.9L-269.6,286.9L-269.6,286.9L-269.6,286.9L-269.6,286.9L-269.6,286.9L-269.6,286.9  L-269.6,286.9L-269.6,286.9L-269.6,286.9L-269.6,286.9L-269.6,286.9L-269.6,286.9z M-270.2,286.9L-270.2,286.9L-270.2,286.9  L-270.2,286.9L-270.2,286.9L-270.2,286.9L-270.2,286.9L-270.2,286.9L-270.2,286.9L-270.2,286.9L-270.2,286.9L-270.2,286.9  L-270.2,286.9L-270.2,286.9L-270.2,286.9L-270.2,286.9L-270.2,286.9L-270.2,286.9L-270.2,286.9z M-270.3,287L-270.3,287L-270.3,287  L-270.3,287L-270.3,287L-270.3,287L-270.3,287L-270.3,287L-270.3,287L-270.3,287z M-270.1,287L-270.1,287L-270.1,287L-270.1,287  L-270.1,287L-270.1,287L-270.1,287L-270.1,287L-270.1,287L-270.1,287L-270.1,287L-270.1,287L-270.1,287L-270.1,287L-270.1,287z   M-270,287L-270,287L-270,287L-270,287L-270,287L-270,287L-270,287L-270,287L-270,287l0.1,0v0L-270,287L-270,287L-270,287L-270,287  L-270,287L-270,287L-270,287z M-269.8,287L-269.8,287L-269.8,287L-269.8,287L-269.8,287L-269.8,287L-269.8,287L-269.8,287  L-269.8,287L-269.8,287L-269.8,287L-269.8,287L-269.8,287z M-270.1,287L-270.1,287L-270.1,287L-270.1,287L-270.1,287L-270.1,287  L-270.1,287L-270.1,287L-270.1,287L-270.1,287L-270.1,287z M-270.3,286.9L-270.3,286.9L-270.3,286.9L-270.3,286.9L-270.3,286.9  L-270.3,286.9L-270.3,286.9L-270.3,286.9L-270.3,286.9z M-270,286.9L-270,286.9L-270,286.9L-270,286.9L-270,286.9L-270,286.9  L-270,286.9L-270,286.9L-270,286.9z M-270.1,287L-270.1,287L-270.1,287L-270.1,287L-270.1,287L-270.1,287L-270.1,287L-270.1,287  L-270.1,287z M-270,286.9L-270,286.9L-270,286.9L-270,286.9L-270,286.9L-270,286.9L-270,286.9L-270,286.9z M-270.1,286.9  L-270.1,286.9L-270.1,286.9L-270.1,286.9L-270.1,286.9L-270.1,286.9L-270.1,286.9L-270.1,286.9L-270.1,286.9z M-269.9,286.9  L-269.9,286.9L-269.9,286.9L-269.9,286.9L-269.9,286.9L-269.9,286.9L-269.9,286.9L-269.9,286.9L-269.9,286.9z M-270,287.1  L-270,287.1L-270,287.1L-270,287.1L-270,287.1L-270,287.1L-270,287.1L-270,287.1z M-270,287L-270,287L-270,287L-270,287L-270,287  L-270,287L-270,287L-270,287z M-270,287L-270,287L-270,287L-270,287L-270,287L-270,287L-270,287L-270,287L-270,287z M-269.9,287.1  L-269.9,287.1L-269.9,287.1L-269.9,287.1L-269.9,287.1L-269.9,287.1L-269.9,287.1L-269.9,287.1z M-269.9,286.9L-269.9,286.9  L-269.9,286.9L-269.9,286.9L-269.9,286.9L-269.9,286.9L-269.9,286.9L-269.9,286.9L-269.9,286.9L-269.9,286.9z M-270.1,287  L-270.1,287L-270.1,287L-270.1,287L-270.1,287L-270.1,287L-270.1,287L-270.1,287z M-270.1,287L-270.1,287L-270.1,287L-270.1,287  L-270.1,287L-270.1,287L-270.1,287L-270.1,287z M-270.3,287L-270.3,287L-270.3,287L-270.3,287L-270.3,287L-270.3,287L-270.3,287  L-270.3,287z M-270,286.9L-270,286.9L-270,286.9L-270,286.9L-270,286.9L-270,286.9L-270,286.9L-270,286.9z M-270,287L-270,287  L-270,287L-270,287L-270,287L-270,287L-270,287L-270,287z M-270.1,286.9L-270.1,286.9L-270.1,286.9L-270.1,286.9L-270.1,286.9  L-270.1,286.9L-270.1,286.9z M-269.9,286.9L-269.9,286.9L-269.9,286.9L-269.9,286.9L-269.9,286.9L-269.9,286.9L-269.9,286.9  L-269.9,286.9z M-270,286.9L-270,286.9L-270,286.9L-270,286.9L-270,286.9L-270,286.9L-270,286.9L-270,286.9L-270,286.9z   M-272.4,291.5L-272.4,291.5l-0.3,0.3l-0.1-0.1l0.2-0.1l-0.2,0.1l0.1,0.1l0.4-0.3L-272.4,291.5l-0.2,0.1L-272.4,291.5z M-270.9,288  L-270.9,288L-270.9,288L-270.9,288L-270.9,288L-270.9,288L-270.9,288L-270.9,288L-270.9,288L-270.9,288l0.1,0.1l0,0l0,0v0h0l0,0l0,0  l0,0h0L-270.9,288L-270.9,288l0.1,0l0,0l0,0l0,0l0.1-0.1l0,0h0l0,0l0,0l0-0.1l0-0.1l-0.1-0.1l0,0l0,0l0,0l0,0l0,0l0,0l0,0h0v0l0,0  l0,0l0,0l0,0l0,0l0,0l0,0v0l0,0l0,0l0,0.1l0,0v0l0,0v0l0,0h0l0.1,0l0,0L-270.9,288l0-0.1h0L-270.9,288L-270.9,288L-270.9,288  L-270.9,288L-270.9,288L-270.9,288L-270.9,288L-270.9,288L-270.9,288L-270.9,288L-270.9,288z M-270.8,287L-270.8,287l0.1-0.2  L-270.8,287z M-270.4,289.6L-270.4,289.6l-0.1-0.1l0,0h0l0,0l0,0L-270.4,289.6L-270.4,289.6L-270.4,289.6l0,0.2v0l0,0.1l0,0l0,0l0,0  l0,0h0l0,0l0,0l0,0l0,0h0l0,0l0,0v0l0,0l0-0.1l0-0.1L-270.4,289.6L-270.4,289.6L-270.4,289.6z M-269.9,288.1L-269.9,288.1  L-269.9,288.1L-269.9,288.1L-269.9,288.1L-269.9,288.1L-269.9,288.1L-269.9,288.1L-269.9,288.1L-269.9,288.1L-269.9,288.1l-0.1,0.1  l0,0l0,0l0,0L-269.9,288.1L-269.9,288.1L-269.9,288.1L-269.9,288.1l-0.1,0.1L-269.9,288.1L-269.9,288.1L-269.9,288.1L-269.9,288.1  L-269.9,288.1L-269.9,288.1L-269.9,288.1L-269.9,288.1L-269.9,288.1z M-269.7,288L-269.7,288L-269.7,288l0.1-0.1l0.1-0.1l0.1-0.2h0  l0,0l0,0l0-0.1l0,0l0,0v0h0v0l0,0.1l0,0l0,0l0,0.1l0,0l0,0v0l0,0l-0.1,0.1L-269.7,288L-269.7,288L-269.7,288L-269.7,288L-269.7,288  L-269.7,288L-269.7,288z M-269.5,287.8L-269.5,287.8L-269.5,287.8l0-0.1l0-0.1L-269.5,287.8L-269.5,287.8L-269.5,287.8z M-270,287.4  L-270,287.4L-270,287.4L-270,287.4L-270,287.4L-270,287.4L-270,287.4L-270,287.4L-270,287.4L-270,287.4L-270,287.4L-270,287.4  L-270,287.4L-270,287.4L-270,287.4L-270,287.4L-270,287.4L-270,287.4L-270,287.4L-270,287.4z M-270,287.4L-270,287.4L-270,287.4  L-270,287.4z M-289.8,287.6l0.3,0.1l-0.2-0.8l-0.4-0.1l-0.3,0.4l0.3,0.4H-289.8z M-313.8,295.6l0,0.1l0.1,0.1l0.1-0.5l-0.1-0.4  l-0.4-0.1l-0.1,0.2l0.1,0.3L-313.8,295.6z M-341.9,301.8L-341.9,301.8L-341.9,301.8l0-0.1l0,0l0,0l0,0L-341.9,301.8L-341.9,301.8  l0.2,0l-0.1,0.1l0,0.3l0.1,0.1l0.1-0.2l0.1-0.2l0-0.1l0-0.1l-0.1-0.2l-0.2-0.2l-0.1,0l-0.2,0.1l0,0.2L-341.9,301.8z M-336,310.3  L-336,310.3l0.3-0.2l0.1-0.3l0-0.1l0-0.1l0-0.1l-0.2-0.3l-0.2,0.1l-0.1,0.4v0.2l-0.1,0.2l0.1,0.1L-336,310.3z M-288.1,308l0.3-0.2  l0.2-0.7l0-0.3l-0.2-0.2l-0.4-0.3l-0.3,0l0.1,0.2l0.3,0.2l0.1,0.1l0,0.1l-0.1,0l-0.2-0.1l-0.2-0.1l-0.1,0l0.1,0.2L-288.1,308z   M-291.7,309.3l0.5,0.1l0.4,0.2l0.2,0.4l0.2-0.6l-0.2-0.5l-0.8-0.9l-0.3-0.2l-0.5,0.2l-0.3,0.5l0.2,0.6L-291.7,309.3z M-290.5,308.1  l0.3,0.2l0.4,0.4l0.1,0.1h0.2l0.2,0l0.2-0.1l0.2-0.2l0.1-0.2l-0.5-0.5l-0.2-0.3l-0.2-0.4l-0.3,0l-0.3,0.1l-0.2,0.2l-0.1,0.2  l-0.1,0.4l0.1,0.1L-290.5,308.1z M-285.6,305.5l0.5,0.1l0.3-0.1l0-0.3l-0.4-0.4l-0.8-0.4l-0.4-0.3l-0.1-0.4l0.1-0.5h-0.1l-0.3,0.4  l-0.8,0.8v0.4l1,0.3L-285.6,305.5z M-273.4,272.6l0,0.1L-273.4,272.6l0.3,0.3l0.1-0.1l0.2,0l0.2-0.1l-0.1-0.3l0-0.2l-0.1-0.2  l-0.4,0.1l-0.3,0.2l0.1,0.2L-273.4,272.6z M-330,304l0.1,0.1l0.1,0.1l0.1,0.2l0.2-0.1l0.2-0.5l0-0.5l-0.3-0.3l-0.2-0.1l-0.2,0.1  l-0.3,0.4l-0.1,0.3l0.1,0.2L-330,304z M-302,311.5l0.4,0l0.6,0l0.2,0.1l0.4,0.2l0.6,0.3l0.7,0.1l0.7-0.1l0.6-0.4l-0.2-0.1l0.2-0.4  l0.2,0.1l0.2,0.3l0,0.2l0.6,0.3l0.7,0l0.6-0.2l0.3-0.5l-0.2-0.6l-0.6-0.2l-0.7-0.1l-0.6-0.4l-0.1-0.1l-0.2-0.4l0.1-0.1l0-0.1  l-0.1-0.3l-0.2,0.2l-0.2,0.1l-0.6,0.2l-0.5,0.4l-0.1,0.1l-0.2,0l-0.3-0.1l-0.2,0l-0.3,0.1l-0.3,0.2l-0.4,0.3l-0.2,0.1l-0.5,0.2  l-0.3,0.2l-0.3,0.3l0,0.2L-302,311.5z M-323.6,308.7l0.2,0.4l0.4-0.4l0.4-0.6l0.2-0.7l-0.2-0.6l-0.3-0.3l-0.5,0.1l-0.5,0.3l-0.3,0.4  l0,0.6l0.2,0.4L-323.6,308.7z M-311.4,308.9L-311.4,308.9l0.2,0l0.4,0.2l1.2,0.4l0.3-0.5l0.3,0.1l0.4,0.3l0.3,0.1l0.2-0.2l0-0.2  l0-0.2l0.1-0.2l0.2-0.1l0.2,0l0.2,0.1l0.2,0l0.6-0.4l0.5-0.9l0.1-0.9l-0.5-0.3l0-0.1l-0.1-0.2l0-0.1l-0.4,0.3l-0.8,1.1l0.1,0.2  l0,0.2l-0.1,0.2l-0.1,0.2h-0.1l0-0.6l-0.3,0l-0.6,0.5l-0.7,0l-0.1,0.1l-0.1,0.1l-0.5,0.2l-0.2,0.1l-0.8-0.2l-0.1,0.1l-0.1,0.1  l-0.1,0.2l0,0.1L-311.4,308.9L-311.4,308.9z M-245.4,287.7l0.2-1l0.1-0.7l0.1-0.5l0-0.3l0-0.3l-0.1-0.2l-0.1-0.1l-0.1-0.2l-0.2-0.4  l0-0.2l0.2-0.3l0-0.2l-0.1-0.8l0.1-2.1l-0.5-1.5l-0.2-0.3l-0.3-0.1l-0.5-0.2l-0.4-0.3l-0.9,0.2l-0.3,0.1l-0.3-0.1l-0.1-0.2l-0.2-0.5  l-0.2-0.2l-0.5-0.1l-0.1-0.1l-0.1-0.3l-0.1-1l0-0.4l0.2-0.2l0.3-0.2l0.1-0.3l-0.1-0.3l-0.5-0.7l-0.1-0.4l0.1-0.3l0.4-0.6l0.1-0.3  l0.1-2.1l0.1-0.7l0.1-0.4l-0.1-0.5l-0.3-0.9l-0.2,0l-1.1,0.3l-0.5,0l-0.1,0.2l-0.4,1.5l-0.4,1l-0.5,0.9l0.2-0.1l0.2-0.1l0.1-0.2  l0.1-0.2h0.1l-0.1,0.4l-0.1,0.3l-0.2,0.3l-0.2,0.2l-0.9,0.8l-0.1,0.2l0,0.4l-0.2,0.6l0,0.3l-0.1,0.1l-0.1,0l-0.1-0.1l0.2-0.4  l0.1-0.5l0.1-0.2l-0.6,0.5l-1.1,1.4l-0.7,0.6l-0.6,0.2l-0.1,0.1l-0.1,0.2l-0.2,0.1l-0.3,0.1l-0.2,0l-0.2,0.2l-0.5,0.8l-0.7,0.3  l-0.3,0.3l-0.5,0.6l-0.2,0.3l-0.3,0.9l-0.1,0.2l-0.4,0.1l-0.5,0.1l-0.4,0.1l-0.3-0.1l-0.1-0.3l0.1-0.3l0.2-0.3l0.2-0.4l-0.4,0.1  l-0.3,0.4l-0.2,0.5l-0.1,0.4l-0.1,0.4l-0.3,0.4l-0.1,0.3l0.3,0.1l-0.2,0.2l-0.2,0.4l-0.3,0.9l-0.1-0.2l-0.1,0.3l-0.1,0.2l-0.1,0  l-0.1-0.3h-0.1l-0.7,0.9l-0.4,0.4l-0.2-0.2l-0.2,0.1l-0.1,0.2l0,0.3l0.1,0.3l-0.3,0l-0.2,0.1l-0.6,0.7l-0.1,0.2l0.1,0.2l0.4,0.8  l0.2,0.5l-0.1,0.4l-0.6,0.2l0.3-0.4l0.1-0.3l-0.1-0.3l-0.3-0.5l-0.3-0.1l-0.4,0.4l-2.2,3.3v0l0,0l0,0l0,0l0,0l0.1-0.1l0,0l0,0h0v0  l-0.1,0l0,0l0,0l0,0l0,0v0l-0.1,0l0,0h0l0,0l0.1-0.1h0.1l0,0v0l0,0h-0.1l0,0h0l0.1-0.1l0,0h0l0,0v0l0,0v0h0l0,0l-0.1,0l-0.1,0  l0.1-0.1l0,0l0,0v0l0,0h0l0,0l-0.1,0l-0.1,0l-0.1,0l-0.1,0.1l0,0l0,0l0.2-0.2l0,0l0,0l0,0l0,0v0h0l0,0l0,0l-0.1,0l-0.1,0.1l0.1-0.2  l0,0v0l0,0l0,0v0l0,0l0,0l0,0l-0.1,0.1l0,0.1l0,0l0,0l0-0.2l0,0l0,0l0,0l0,0h0l0,0l0,0.1l0,0.1l0,0.1l0,0l0-0.2v0l0,0l0,0l0,0l0,0.1  v0.1l0-0.1l0,0v0h0l0,0v0l0,0h0l0,0v0l0,0l0,0v0l0,0h0l0.1,0h0l-0.1,0l-0.1,0l0,0v0l0,0l0,0l0.2,0l0,0l-0.1,0l-0.1,0l-0.1,0.1l0,0v0  l0,0l0,0l0,0l0.2-0.1l-0.1,0l-0.1,0.1l-0.1,0.1l0,0.1l0,0v0l0,0l0,0l0,0l0,0l0.1-0.1l0,0l0,0.1l0,0.1l0,0v0.1l0,0l0,0l0,0l0,0  l0.1-0.2l0,0l0,0l0,0.1v0.1l0,0l0,0l0,0h0l0,0v0l0.1-0.2l0,0.1l0,0.1v0.1l0,0h0l0,0v0l0,0l0.1-0.2l0,0l0,0l0,0v0l0,0.1l0,0.1l0,0h0  l0,0v0l0,0l0-0.2l0,0l0,0.1h0v0l0,0h0l0.2,0.1l0,0l0,0l0,0h0l0,0l0,0l-0.1,0.2l-2.2,1.9l-0.5,0.6l0,0l0,0l0,0l0,0v-0.1l0,0l0-0.1h0  l0,0h0l0-0.1l0-0.1h0l0,0v0l0,0.1h0l0,0v0h0v0l0.1-0.1l0-0.1l0-0.1v-0.1l0-0.1v0l0,0v0h0l0,0v0l0,0l0,0.1v0.1l0,0.1l0,0.1l0,0l0,0  l0,0l0-0.1v-0.1l0-0.1l0,0l0,0l0,0h0l0.1,0.1l0,0l0,0l0,0v0l0,0l0,0l-0.1-0.1h0l-0.1,0l0-0.1l0,0l0,0l0-0.1l-0.1-0.1l-0.1,0l-0.1,0  l-0.1,0l-0.1,0l-0.1,0l0,0.1l0,0l0,0h0.2l0.1,0l0.1,0l0,0l0.1,0l0.1,0.1l0.1,0.1v0l0,0l0,0.1l0,0v0l0,0l0,0.1l0,0.1l0,0.1l0,0.1  l0,0.1l0,0.1l0,0l0,0l0,0l-0.1,0.1l0,0l0,0l0,0v0.1l0,0.1l0,0l0,0l0,0v0l-0.2,0.1l0,0l0,0l0,0l0,0l0,0v0l0,0l0,0l-0.2-0.3l0-0.1h0  l0,0h0l0,0l0,0l0,0h0.1l0.1,0l0,0l0.1,0l0.1,0.1l0,0l0,0l0,0l0,0l0,0l-0.1,0l-0.1,0l-0.1,0h-0.1l0,0v0l0,0l0.1,0h0.1l0.1,0l0.1,0  l0.1,0h0l0,0v0l0,0l-0.1,0l-0.1,0l-0.1,0l-0.1,0l-0.1,0l0,0l0,0l0,0l0,0l0.1,0l0.1,0h0l0.1,0l0.1,0l0.1,0l0,0l0,0l0,0l0,0l0,0  l-0.1,0h-0.1l-0.1,0l-0.1,0l-0.1,0l0,0l0,0l0,0l0.1,0l0.1,0l0.1,0h0.1l0.1,0l0,0l0,0h0l0,0l0,0l0,0l-0.1,0h-0.1l-0.1,0l0,0l-0.1,0  l-0.1,0.1h0l0,0l0,0l0.1-0.1l0.1-0.1l0.1,0l0.1,0h0.1l0,0v0l0,0h-0.1l-0.1,0l-0.1,0l-0.1,0.1l-0.1,0.1h0l0,0l0,0l0.1-0.1l0,0l0.1,0  l0.1,0l0.1,0l0,0v0l0,0l-0.1,0l-0.1,0l-0.1,0.1l-0.1,0.1l-0.1,0.1h0l0,0l0,0l0,0l0-0.1l0-0.1l0,0l0,0l0,0l0,0l0,0l0,0l-0.1,0  l-0.1,0.1l0,0l-0.1,0.1l0,0v0l0-0.1l0,0l0,0v0l0,0l0,0l0,0.1l0,0.1l0,0.1l0,0l0,0l0,0v0l0-0.1l0,0l0,0l0,0.1h0l0,0l-0.1,0l0,0l0,0  l0,0l0.1,0l0,0v0l0,0h0l0,0l-0.1,0l-0.1,0h0l0,0l0,0l0,0l0.1,0l0.1,0l0,0l0,0v0h0l0,0h-0.1l-0.1,0l-0.1,0l0,0l0,0h0l0,0l0.1,0l0.1,0  h0.1l0.1,0l0,0l0,0v0h-0.1l-0.1,0l-0.1,0l-0.1,0l-0.1,0l0,0v0l0,0h0l0,0l0.1-0.1l0,0l0.1,0l0.1,0l0.1,0h0l0,0l0,0v0h0l0,0l-0.1,0  l-0.1,0l-0.1,0.1l-0.1,0.1l0,0l0,0v0l0,0l0,0l0,0l0-0.1l0.1,0l0,0l0.1,0l0.1,0l0.1,0h0l0,0v0l0,0l-0.1,0l0,0l0,0l-0.1,0.1l-0.1,0.1  l0,0.1l0,0l0,0h0l0,0l0-0.1l0-0.1l0.1-0.1l0,0l0.1,0l0.1,0l0,0l0,0l0,0l0,0l0,0l-0.1,0.1l-0.1,0.1l0,0.1l0,0.1l0,0h0l0,0l0,0l0-0.1  l0-0.1l0.1-0.1l0.1-0.1l0,0l0,0l0,0l0,0l0,0l-0.1,0l0,0.1l0,0.1l0,0.1l0,0h0l0,0l0-0.1l0-0.1l0-0.1l0.1-0.1l0-0.1h0l0,0v0l0,0l0,0.1  l0,0.1l0,0.1l0,0.1l0,0h0l0,0l0-0.1v-0.1l0,0l0-0.1l0-0.1l0,0l0,0l0,0v0l0.2,0.3l0,0.1v0h0l0,0l0,0v0l0,0l-0.1,0.1h0l0,0l0,0l0,0h0  l0,0l0,0h0l0,0l0,0l0,0l0,0l0,0l0,0h0l0,0l0,0h0l0,0V293l0,0v0h-0.1l-0.1,0l-0.1,0l0,0l-0.1-0.1l0,0l0,0l0,0l0,0v0h0l0,0l0,0l0,0v0  l0,0l0,0l0,0l0,0l0,0l0,0l0-0.1l0-0.1l0,0l0-0.1l0-0.1l0-0.1l0.1-0.1l0,0l0,0l0,0v0l0,0l0.1,0l0,0l0,0l0.1,0l0,0l0,0l0.1,0l0.1,0  l0,0l0,0l0,0l0,0l0,0l0,0l0-0.1h0l0,0l-0.1,0l-0.1,0l-0.1,0l-0.1,0l-0.1,0.1l0,0l0,0.1l0,0l-0.1,0.1l-0.1,0.1l0,0.1l0,0.1l0,0.1  l0,0.1v0.1l0,0.1l0,0.1l0,0.1l0,0l0,0h0l0,0v0l0,0l-0.1,0l0,0l0,0.2l0,0h0v-0.2l0,0l0,0l0,0l0,0l0,0l0,0v0h0l0,0l0.1,0.1l0.1,0  l0.1,0l0.1,0l0,0l0,0l0,0l0,0v0h0l-0.1,0l-0.1,0l-0.1-0.1l0,0l0,0v0l0,0v0h0l0,0l0.1,0.1l0.1,0l0.1,0l0,0l0.1,0h0.1v0l0,0v0l0,0v0h0  l0,0l0,0l-0.1,0l0,0v0l0,0l0,0l0,0l0,0h0.1l0,0l0,0l0,0l0,0l0,0l0,0l-0.7,0.2l-0.4,0.1l-0.4,0.2l-1.1,1.1l-2.3,1.6l0.3,0.4l-0.1,0.3  l-0.3,0.2l-0.3,0.1l0,0l-0.6-0.3l-0.1,0.1l-0.1,0.2l-0.1,0.2l-0.8,0.5l-0.2,0.2l-0.1,0.4l0.2,0.2l0.1,0.1l-0.1,0.2l0.1,0.3l0.1,0.3  l0.1,0.2l0.2,0.1v0.1l-0.4,0.2l-0.1,0.3l-0.1,0.3l-0.2,0.1l-0.4,0.1l-0.1,0.2l0.2,0.2l0.3,0.1l-0.8,1.6l-0.1,0.1l-0.2,0.3l-0.1,0.1  l-0.2,0l-0.4-0.1l-0.2,0l0.3,0.3l0.1,0.1l-0.5,0.1l-0.5-0.4l-0.4-0.6l-0.2-0.6h-0.1l-0.3,0.4l-0.1,0.2l0.1,0.2l-0.2-0.2l-0.1-0.2  l0-0.1l-0.2,0.2l-0.3,0.2l-0.2,0.1v0.1l0.5,0.1l1.2,0.8l0.6,0.1l0.6,0l0.4,0.2l0.1,0.6h-0.1l-0.2-0.2l-0.3-0.1l-0.3-0.1l-0.3-0.1  l0.1,0.3l0.3,0.4l0.1,0.3l-0.3-0.1l-0.5-0.2l-0.3,0v0.2l0.1,0l0.2,0.1l-0.3,0.2l-0.1,0.3l0.1,0.6l-0.8,1.6l-0.4,0.5l-0.8,0.6  l-0.2,0.3l-0.8-0.3l-0.4,0l-0.2,0.3l-0.2,0l-1.1,0.8l-1.4,0.4l-0.2,0.2l-0.1,0.3l-0.3,0.4l-0.4,0.3l-0.3,0.2l-0.2,0.1l-0.6,0.1  l-0.5,0.3l-0.4,0.1l-0.4,0.2l-1.3,0.2l-1.3,0.7l-0.2,0.2l-0.5,0.1l-2.5,0l-0.2-0.1l-0.2-0.1l-0.2,0l-0.2,0.1l-0.1,0.1l-0.6,0.3  l-0.2,0l-0.2-0.1l-0.2-0.1l-0.4,0.2l-0.2,0h-0.2l-0.2,0l-0.1-0.1l-0.3-0.4l-0.1-0.1l-0.2-0.1l-0.2-0.1l-0.4-0.3l-0.2,0.1l-0.3,0  l-0.3-0.1l-0.2-0.2l-0.3-0.3l-0.2-0.1h-0.2l-2.7,0.5l-1.1-0.1l-0.2-0.1l-0.3-0.5l-0.3-0.4l-0.5-0.4l-0.5-0.2l-0.5,0.1l0.1,0.3l0,0.3  l0.1,0.2l0.3,0.2l-0.4,0.1l-0.4-0.2l-0.4-0.2l-0.8,0.4l-0.4-0.2l-0.6-0.5l0-0.1l-0.1-0.1l-0.1-0.1l-0.1-0.1h-0.1l0,0.1l0,0.1  l-0.1,0.1l-0.7,0.3l-0.2,0l-1.8-0.2l-0.2,0l-0.1-0.1l-0.2-0.1l-0.2,0l-0.2,0.1l-0.4,0.2l-0.3,0l-0.5-0.1l-0.8-0.2l-0.5,0l-0.2,0.1  l-0.1,0.1l-0.1,0.1l-0.2-0.1l-0.7-1l-0.3-0.3l-0.4-0.1l-0.4,0.2l-0.1,0.3l0,0.4l-0.1,0.4l-0.2,0.2l-0.3,0.1l-0.4,0.2l-0.4,0.3  l-0.3,0.3l-0.3,0.2l-0.6,0.3l-0.1,0.3l-0.1,0.2l-0.3,0.2l-0.4,0.2l-0.3,0.1l-0.3,0.1l-0.3,0.2l-0.3,0.3l-0.2,0.2l-0.3,0.1h-0.7  l-0.4,0.1l-0.8,0.5l-0.3,0.1l-0.4,0l-0.4,0l-0.4,0l-0.3,0.2l-0.2-0.1l-0.2,0.1l-0.4-0.1l-0.9,0.2l-0.2,0l-0.6-0.3l-0.3-0.2l-0.1,0  l-0.1,0l-1.2-0.1l-0.4,0.1l0,0.2l0.1,0.2l-0.1,0.1h-0.2l-0.2-0.1l-0.4-0.4l-0.2-0.1l-0.2-0.1l-1,0l-0.5-0.1l-0.2-0.4l0-0.2l-0.2-0.5  l0-0.2l0-0.8l0-0.2l-0.2-1.1l0-0.5l0.2-1.4l-0.1-0.5l-0.4-0.7l-0.4,0.3l-0.4,1l0.1,0.1l0,0.1l-0.1,0.1l-0.2,0.1l-0.2,0l-0.1-0.1  l-0.1-0.2l-0.2-0.7l-0.1-0.3l-0.2,1l-0.3,0.3l-0.3-0.2l-0.1-0.8v-1.3l-0.1-0.4l-0.4-0.6l-0.2-0.4l-0.4,0.5l0.4,0.8l0,1l-0.4,0.6l0,0  l0.1,0.9l0,0.6l0,1.5l0.1,0.6l0.3,0.5l1.2,1.5l1.1,1.4l1.1,1.4l1.1,1.4l1.1,1.4l1.1,1.4l1.1,1.4l1.1,1.4l1.1,1.4l1.1,1.4l1.1,1.4  l1.1,1.4l1.1,1.4l1.1,1.4l1.1,1.4l1.1,1.4l1.1,1.4l1.1,1.4l0.4,0.4l0.5,0.2l3.3,0.4l2.9,0.4l2.9,0.4l2.9,0.4l2.9,0.4l2.9,0.4  l2.9,0.4l2.9,0.4l2.9,0.4l2.9,0.4l2.9,0.4l2.9,0.4l2.9,0.4l2.9,0.4l2.9,0.4l2.9,0.4l2.9,0.4l2.8,0.4l0.3-0.1l1.4-1.8l0.2-3.3  l-0.1-3.3v0l0.1-0.7l0.7-2.2l2-3.5l0.5-1.4l0.4-2.2l0.2-0.8l0.4-0.6l0,0l0.8-0.8l0.3-0.4l0.7-2.8l0.2-0.4l1-1.4l0.1-0.3l-0.1-1.7  l-0.1-0.7l-0.3-0.5l-0.8-0.5l-0.3-0.3l-0.2-0.4l0.1-0.3l0.9-0.2l0.9-0.3l0.4-0.2l0.6-0.3l0.6-0.2l0.6-0.1l0.7,0l0.7,0.1l0.3,0  l0.3-0.1l0.4-0.1l0.5,0.4l0.4,0l2.4-1l1.3-0.3l0.2-0.4l-0.8-1.4l-0.2-1l-0.3-0.8l-0.6-0.3l-1.2,0.5l-0.3,0l-1.3-0.3l-0.2-0.1l0-0.3  l0.2-0.4l0.8-1.4l0.1-0.3l0.1-1.1l0-0.2l-0.2-0.2l-0.4-0.3l-0.1-0.2l-0.1-0.3l0-1.2l-0.3-1l0-0.5l0.2-0.3l0.3-0.3l0.1-0.8l0.6-0.5  l-0.1-0.4l-0.4-0.9l0-0.4l0.1-0.8v-0.4l-0.2-1.8l0.2-0.7l0.6-0.8l0.7-0.6l0.7-0.5l0.8-0.2l0.9,0.1l0.6,0.4l0.2,0.7l0.3,1.5l-0.5-0.4  l-0.3-0.1l-0.3-0.1l-0.4,0.1l-0.1,0.3l0.1,0.3l0.8,0.7l0.6,1.6l0.6,0.5l0.3,0l0.4,0l0.4-0.1l0.2-0.2l0.1-0.4l0.4-0.5l0.3-0.8  l0.3-0.1l0.8-0.1l0.4-0.2l0.8-0.8l0.6-0.4l0.1-0.2l0.1-1.3l0.2-0.2l1.1-0.1l-0.4-1.8L-245.4,287.7z M-270.7,289.9L-270.7,289.9  L-270.7,289.9L-270.7,289.9z M-271.2,289.9L-271.2,289.9l0.1-0.1h0L-271.2,289.9z M-270.8,289.7L-270.8,289.7l0.1-0.1l0,0  L-270.8,289.7L-270.8,289.7L-270.8,289.7z M-270.9,289.7L-270.9,289.7l0.1-0.1l0,0l0,0L-270.9,289.7L-270.9,289.7z M-270.9,289.7  L-270.9,289.7L-270.9,289.7L-270.9,289.7L-270.9,289.7z M-271.2,290.1L-271.2,290.1L-271.2,290.1l0.1-0.1l0.1-0.1l0,0L-271.2,290.1z   M-271.1,290.2L-271.1,290.2L-271.1,290.2l0-0.1l0-0.1l0.1,0L-271.1,290.2z M-271,290.2L-271,290.2l0-0.1l0-0.1l0-0.1l0,0  L-271,290.2z M-270.9,289.9L-270.9,289.9L-270.9,289.9L-270.9,289.9L-270.9,289.9L-270.9,289.9L-270.9,289.9z M-270.9,290l0,0.2  v-0.1L-270.9,290L-270.9,290L-270.9,290L-270.9,290L-270.9,290z M-270.8,289.9L-270.8,289.9L-270.8,289.9L-270.8,289.9z   M-270.8,289.8L-270.8,289.8l0.1-0.1l0.1,0h0L-270.8,289.8z M-247.1,287l-0.6,0.4l-0.3,0.1l-0.3-0.1l-0.1-0.3l0.1-0.4l0.4-0.7  l-0.1-0.1l-0.2-0.1l-0.1-0.1l0.2-0.2l0.4-0.2l0.2,0l0.2,0l0.1,0.3l0.1,0.5l0,0.5L-247.1,287z"/></svg>