<svg xmlns="http://www.w3.org/2000/svg" xmlns:xlink="http://www.w3.org/1999/xlink" version="1.1" x="0px" y="0px" viewBox="-461 335 100 100" fill="#999999" style="enable-background:new -461 335 100 100;" xml:space="preserve"><g transform="matrix(11.8081,0,0,11.8081,23.6162,23.6162)"><path vector-effect="none" d="M-33.3,32.7L-33.3,32.7L-33.3,32.7l-0.1,0.1l0,0.1l0,0.1l0,0.1l0,0.1l0,0.1l0,0l-0.1,0l0,0l-0.1,0.1   l-0.1,0.1l0,0l-0.1,0.1l0,0l0,0l0,0.1l0,0.1l0,0l-0.1,0l-0.1,0.1l-0.1,0.1l-0.2,0.2l0,0l0,0l0,0l0,0l-0.1,0l0,0l0,0l0,0l0,0l0,0   l0,0l0,0l0,0l0,0l0,0l0,0l0,0l0,0l0,0l0,0l0,0l0.1,0l0,0l0,0l0,0l0,0l0,0v0l0,0l0,0l0,0l0,0l0,0l0,0l0,0l0,0l-0.3,0.2l-0.1,0l0,0   l0,0l-0.1,0l-0.3,0.1l0,0l0,0l0,0l0,0l0,0l0,0v0l0,0l0,0l0,0l-0.1,0l0,0l0,0l0,0l0,0l0,0l0,0l-0.1,0l-0.1,0l-0.1,0l0,0l-0.1-0.1   l-0.1,0l0,0l-0.1,0l0,0l-0.1,0l-0.1,0l-0.1,0l-0.2,0.1l0,0l-0.1,0l0,0l0,0l-0.2,0.1l0,0l0,0l0,0l0,0l0,0l0,0l0,0l0,0l0,0h0l0,0l0,0   l0,0l0,0l0,0l0,0l-0.1-0.1l0,0l0,0l0,0l0.1,0l0,0l-0.1,0l-0.1,0l0,0h-0.1l0,0l0,0l-0.1,0l0,0l0,0l-0.1,0l-0.1,0l-0.1-0.1l0,0l0,0   l0,0l0,0l0,0l0,0l0,0l0,0l0,0l0,0l0,0l0,0l0,0l0,0l0,0l0,0l0,0l-0.1,0l-0.1,0l-0.1,0l-0.2,0l0,0l0,0l0,0l0,0l0,0l0,0l0,0l-0.1,0   l-0.1,0l-0.1,0l0,0l0,0l-0.1-0.1l-0.1-0.1l0,0l-0.1-0.1l0,0l0,0l0-0.1l0,0l0,0l0,0l0,0l0,0l0,0l0-0.1l0,0l-0.1-0.2l0,0l-0.1,0l0,0   l0,0l0,0l0-0.2l0-0.2l0-0.2l0,0l0,0l0,0l0,0l0,0l0.1-0.1l0,0l0,0l0,0l0,0l0,0l0,0l0.1-0.1l0,0l0,0l0-0.2l0-0.1l0-0.1l0.1,0l0.1,0   l0.1,0l0.1,0l0.1-0.1l0,0l0,0l0,0l0,0l0-0.1l0-0.1l0-0.1l0,0l-0.1-0.1l0,0l0,0l0,0l0-0.1l0,0l0,0l0,0l0,0l0-0.1l0,0l0,0l0-0.1l0,0   l0,0l0-0.1l0.1-0.1l0-0.1l0-0.1l-0.1-0.1l0,0l0,0l0-0.1l0-0.1l0-0.1l0-0.1l0-0.1l0-0.1l0,0l0,0l0,0l0,0l0,0l0.1,0l0,0l0,0l0.1-0.3   l0-0.1l0-0.1l0,0l-0.1,0l0,0l0-0.1l0,0l0.1,0l0,0l0,0l0-0.1l0,0l0,0l0,0l0,0l0-0.1l0,0v0l0-0.1l0-0.1l0-0.1l0-0.1l0-0.1l-0.1-0.1   l0,0l0,0l0,0l0.1,0l0,0l0,0l0,0l0,0l0,0l0-0.1l0-0.1l0-0.1l0,0l0-0.1l0,0l0-0.1l0-0.1l0-0.1l0-0.1l0.3-0.3l0-0.1l0-0.1l0-0.1l0,0   l0,0l0,0l0,0l0,0.1l0,0l0,0l0.1,0l0,0l0,0l0,0l0,0l0,0l0,0l0,0l0,0l0,0l0,0l0,0l0,0l0,0l0,0l0,0l0,0l0,0l0,0l0,0l0,0l0-0.1l0,0   l0-0.1l0,0l0,0l0,0l0,0h0l0,0l0,0l0.1,0l0,0l0.1,0l0.1,0l0.1,0l0.1,0l0,0l0,0l0.1,0.1l0,0l0,0l0,0l0,0l0,0l0,0l0,0l0,0l0,0h0l0,0   l0,0l0,0l0,0l0.1,0.1l0,0l0,0l0.1,0l0,0l0,0.1l0,0l0,0l0.1,0l0.1,0.1l0,0l0,0l0,0.1l0,0l0,0l0,0l0,0l0,0l0,0l0,0l0,0.1l0,0l0.1,0.1   l0,0l0,0.1l0,0.1l0,0l0,0l0,0.1l0,0.1v0l0,0l0,0l0.1,0l0,0h0l0,0l0,0l0,0l0,0l0,0l0.1-0.1l0,0l0,0l0-0.1l0,0l0,0l0,0l0,0l0,0l0,0   l0-0.1l0,0l0,0l0,0l0,0l0,0l0.1,0l0,0l0,0l0.1,0.1l0.1,0.1l0,0l0,0l0,0.1l0,0l0,0l0,0l0,0l0,0.1l0,0l0,0l0,0l0.1,0l0,0l0.1,0.1l0,0   l0,0l0,0l0,0l0-0.1l0,0l0,0l0,0l0,0.1l0,0l0.1,0l0,0l0,0l0,0l0,0l0,0l0.2,0l0.1,0l0,0l0,0l0,0.1l0,0l0.1,0.1l0,0l0,0l0,0l0,0.1   l0,0.1l0,0l0,0l0,0l0,0.1l0.1,0.1l0.1,0.1l0.1,0.1l0,0l0,0l0,0l0,0l0,0l0,0l0,0l0,0l0,0l0,0l0,0l0,0l0,0l0,0l0,0l0,0l0,0l0,0l0,0   l0,0l0,0l0,0l0,0l0.1,0l0,0l0,0l0,0.1l0,0.1l0.1,0.1l0,0l0,0.1l0,0.1l0,0l0,0l0,0l0,0l0,0l0,0l0,0l0.1,0.1l0.1,0.1l0.1,0l0.1,0l0,0   h0l0,0l0,0l0,0l0.1,0.1l0,0l0,0l0,0l-0.1,0L-33,31l-0.1,0.1l0,0l0,0l0,0.1l0,0l0,0l-0.2,0.1l-0.1,0l0,0.1l0,0l0,0l0,0.1l0,0.1   l0,0.3l0,0.3l0,0.2l0,0.1h0l0,0l0,0L-33.3,32.7L-33.3,32.7L-33.3,32.7L-33.3,32.7L-33.3,32.7"/></g></svg>