<svg xmlns="http://www.w3.org/2000/svg" xmlns:xlink="http://www.w3.org/1999/xlink" version="1.1" x="0px" y="0px" viewBox="-461 335 100 100" fill="#999999" style="enable-background:new -461 335 100 100;" xml:space="preserve"><style type="text/css">
	.st0{fill-rule:evenodd;clip-rule:evenodd;}
</style><polygon class="st0" points="-362.6,394.6 -366.1,391.4 -366.6,363.7 -382.2,358.4 -384.1,346.4 -397.7,351.9 -403.4,354.1   -407.1,354 -411.7,355.7 -417,355.9 -424.3,355.9 -425.2,362.5 -433.5,370.9 -436.4,371.7 -436.1,375.6 -439,387.3 -442.2,387.4   -446.2,392.1 -454.4,401.9 -461,405.7 -455.5,407.8 -445.2,417.4 -438.1,416.7 -421.3,419 -415.5,422.5 -405.1,422.4 -391.5,423.6   -377.2,420.8 -378.1,409.2 -374.3,412.9 -368.7,414.2 -363.6,411.5 -361.4,407.3 -361,400.9 "/></svg>