<svg xmlns="http://www.w3.org/2000/svg" xmlns:xlink="http://www.w3.org/1999/xlink" version="1.1" x="0px" y="0px" viewBox="-461 335 100 100" fill="#e0e0e0" style="enable-background:new -461 335 100 100;" xml:space="preserve"><path d="M-387.5,363.9L-387.5,363.9L-387.5,363.9L-387.5,363.9z M-388,364.1L-388,364.1L-388,364.1L-388,364.1L-388,364.1  L-388,364.1z M-387.8,364.1L-387.8,364.1L-387.8,364.1L-387.8,364.1z M-387.8,364.2L-387.8,364.2L-387.8,364.2L-387.8,364.2  L-387.8,364.2z M-387.6,364.2L-387.6,364.2L-387.6,364.2L-387.6,364.2z M-388,364.2L-388,364.2L-388,364.2L-388,364.2L-388,364.2  L-388,364.2z M-388.1,364.2L-388.1,364.2L-388.1,364.2L-388.1,364.2z M-388.1,364.3L-388.1,364.3L-388.1,364.3L-388.1,364.3z   M-388.1,364.4L-388.1,364.4L-388.1,364.4L-388.1,364.4L-388.1,364.4L-388.1,364.4z M-388.1,364.1L-388.1,364.1L-388.1,364.1  L-388.1,364.1L-388.1,364.1L-388.1,364.1L-388.1,364.1L-388.1,364.1z M-387.8,364.1L-387.8,364.1L-387.8,364.1L-387.8,364.1  L-387.8,364.1L-387.8,364.1L-387.8,364.1z M-392,365.4L-392,365.4L-392,365.4L-392,365.4L-392,365.4L-392,365.4z M-397.5,371.6  L-397.5,371.6L-397.5,371.6L-397.5,371.6L-397.5,371.6L-397.5,371.6L-397.5,371.6L-397.5,371.6L-397.5,371.6L-397.5,371.6z   M-399.9,372.4L-399.9,372.4l0.1,0L-399.9,372.4L-399.9,372.4L-399.9,372.4L-399.9,372.4L-399.9,372.4z M-416.7,360.2L-416.7,360.2  L-416.7,360.2L-416.7,360.2L-416.7,360.2L-416.7,360.2L-416.7,360.2z M-416.6,360.2L-416.6,360.2L-416.6,360.2L-416.6,360.2z   M-411.4,360.3L-411.4,360.3L-411.4,360.3l-0.1-0.1l0,0L-411.4,360.3L-411.4,360.3z M-416.5,360.3L-416.5,360.3L-416.5,360.3  L-416.5,360.3L-416.5,360.3z M-416.4,360.3L-416.4,360.3L-416.4,360.3L-416.4,360.3L-416.4,360.3L-416.4,360.3z M-416.5,360.4  L-416.5,360.4L-416.5,360.4L-416.5,360.4z M-412.7,360.7L-412.7,360.7L-412.7,360.7L-412.7,360.7z M-411.3,360.7L-411.3,360.7  L-411.3,360.7L-411.3,360.7l0.1,0.1l0,0l0,0L-411.3,360.7L-411.3,360.7L-411.3,360.7L-411.3,360.7L-411.3,360.7z M-412.2,360.8  L-412.2,360.8L-412.2,360.8L-412.2,360.8L-412.2,360.8h0.1H-412.2L-412.2,360.8L-412.2,360.8L-412.2,360.8L-412.2,360.8z   M-411.6,360.8L-411.6,360.8L-411.6,360.8L-411.6,360.8L-411.6,360.8L-411.6,360.8L-411.6,360.8L-411.6,360.8z M-407.6,361.1  L-407.6,361.1l0-0.1l-0.1,0l0,0.1L-407.6,361.1L-407.6,361.1L-407.6,361.1L-407.6,361.1l-0.1,0.1l0,0L-407.6,361.1L-407.6,361.1z   M-411.8,361L-411.8,361L-411.8,361L-411.8,361z M-411.8,361L-411.8,361L-411.8,361L-411.8,361L-411.8,361z M-411,361L-411,361  L-411,361L-411,361L-411,361z M-413.1,361.2L-413.1,361.2L-413.1,361.2l-0.1,0l0,0L-413.1,361.2L-413.1,361.2z M-410.9,361.2  L-410.9,361.2L-410.9,361.2L-410.9,361.2L-410.9,361.2L-410.9,361.2z M-391.4,335.1L-391.4,335.1L-391.4,335.1L-391.4,335.1  L-391.4,335.1L-391.4,335.1L-391.4,335.1z M-388.1,364.1l0.2,0.2l0,0l0,0v0l0,0l0,0l0-0.1l0,0l0,0L-388.1,364.1L-388.1,364.1  L-388.1,364.1L-388.1,364.1z M-396.7,371L-396.7,371l0.1,0l0,0l0-0.1l0,0l0,0l0,0L-396.7,371L-396.7,371L-396.7,371z M-398.7,371.5  L-398.7,371.5l0.1-0.1v0l-0.1,0l-0.1,0l0,0.1l-0.1,0v0L-398.7,371.5L-398.7,371.5z M-405.6,371.8L-405.6,371.8L-405.6,371.8l0.1,0.1  l0,0l0,0l0-0.1l-0.1-0.1L-405.6,371.8l-0.2-0.2l-0.1,0l0,0v0l0.1,0.1L-405.6,371.8L-405.6,371.8z M-373.1,379.2l0.1-0.1l0-0.1l0-0.1  l-0.1-0.1l-0.1,0l-0.2,0.1l-0.2,0.1l0,0.2l0,0.2l-0.1,0.2l0.1-0.1l0.3-0.1L-373.1,379.2l-0.1,0.1L-373.1,379.2z M-374,380l-0.1,0  l-0.2,0l-0.1,0.1l-0.1,0.1l0,0.1l-0.1,0.2l0,0.1l0.1,0.1l0.1,0l0.2-0.1l0-0.1l0-0.1l0-0.1l0.6-0.5l0.1-0.1l0.1,0h0.1l0.1,0l0.1-0.1  l0.1-0.1v0.1l0-0.1l0-0.1l0-0.1v-0.1l-0.4,0.1l-0.2,0l-0.1,0.1l-0.2,0.3L-374,380z M-372.8,378.6l-0.1,0.1l-0.1,0.3l-0.1,0.2l0.1,0  l0.1-0.1l0-0.1l0.1-0.1l0.2-0.1l0.1,0l0.1,0l0.1,0l0,0l0-0.1l0,0l-0.1-0.1l-0.1,0L-372.8,378.6L-372.8,378.6z M-374.2,383l0.1-0.1  l0.1-0.2l0-0.2l0,0l0,0l0,0l0,0l0,0l-0.4,0l-0.1,0l-0.2,0.2l0,0l0,0l0,0l0,0.1l0,0l0.1,0.1l-0.1-0.1l-0.2-0.2l-0.1,0l-0.2,0  l-0.1,0.1l-0.1,0.1l-0.1,0.1l0.2,0l0.7,0.1l0.6-0.1l0-0.1l-0.1-0.1l0-0.1L-374.2,383z M-393.4,368.5l0.2,0l0.1-0.1l-0.1-0.2  l-0.2-0.1l-0.2-0.1l-0.1-0.1l-0.1,0l-0.1,0.1l0,0.1l0,0.1l0.1,0l0.1,0l0.2,0l0,0.1L-393.4,368.5z M-411.3,361.6l0.2,0l0.1-0.1l0,0  l-0.1,0l0-0.1v-0.1l0-0.1l-0.1,0l-0.1,0.2l-0.1,0.1l-0.2,0l-0.2,0l0.2,0.1L-411.3,361.6z M-418.2,359.6L-418.2,359.6L-418.2,359.6  L-418.2,359.6z M-418.1,359.6L-418.1,359.6L-418.1,359.6L-418.1,359.6z M-418.1,359.7L-418.1,359.7L-418.1,359.7L-418.1,359.7  L-418.1,359.7z M-418.1,359.8L-418.1,359.8L-418.1,359.8L-418.1,359.8L-418.1,359.8z M-418.1,359.8L-418.1,359.8L-418.1,359.8  L-418.1,359.8z M-418.1,360.1L-418.1,360.1l0.2,0l0.1,0l-0.1,0l-0.1,0L-418.1,360.1L-418.1,360.1L-418.1,360.1L-418.1,360.1  L-418.1,360.1z M-412.2,360.9L-412.2,360.9l0.2,0l0.1,0l0,0l0.2,0l0,0l-0.1,0l-0.5,0l0,0L-412.2,360.9L-412.2,360.9z M-412.4,361.7  L-412.4,361.7L-412.4,361.7L-412.4,361.7z M-412.6,361.7l0.2,0l0.1,0l-0.1,0H-412.6L-412.6,361.7z M-412.1,361.6l0.3-0.1v0l-0.1,0  l-0.1,0l-0.4,0.2L-412.1,361.6L-412.1,361.6z M-395,367.9l-0.1,0l-0.1,0l-0.1,0l0,0.1l0.1,0.1l0.2,0l0.1-0.1L-395,367.9L-395,367.9  L-395,367.9z M-385,371.3l0.1-0.1l0-0.1l-0.1-0.1l0,0l-0.4-0.4l-0.2-0.2l-0.2-0.2l0,0l0,0.1l0,0.1l0,0l0,0.1l0,0.1l0.1,0.1l0.2,0.1  l0.2,0.2l0.1,0.1l0,0.1l0.1,0.1L-385,371.3L-385,371.3L-385,371.3z M-382.3,373l-0.1,0l-0.1,0.1l-0.1,0.2l0,0.1l0.1,0l0.1,0l0.1,0  l0.1-0.1l0.1-0.1l0-0.1L-382.3,373L-382.3,373L-382.3,373z M-383.3,373.3l-0.1-0.2l-0.1-0.1l-0.1,0l0,0.1l0.1,0.2l0,0.1l0.1,0.1  l0.1,0L-383.3,373.3L-383.3,373.3L-383.3,373.3z M-382.8,373.9L-382.8,373.9L-382.8,373.9l-0.1,0.2l0,0.2l0.1,0.2l0.1,0l0-0.1l0-0.2  L-382.8,373.9L-382.8,373.9L-382.8,373.9z M-396.1,367L-396.1,367h0.2l0,0l0,0l0,0l0.5,0.1l0.1,0l0.2-0.2l0.1,0.1l0.2,0.1l0.1,0.1  l0.1,0.3h0.1l0.1,0l0,0.2l0.1-0.1l0.4-0.1l0.1,0l0.4,0.1l0.2-0.3l0.1-0.1l0,0l0,0l0.1,0l0.1,0.1l0,0l0-0.1l0,0l0.2,0l0-0.2l-0.2-0.4  l0-0.1l-0.1-0.2l0-0.1l0-0.1l-0.1,0l-0.1-0.1l0-0.1l-0.1,0.1l-0.2,0.2l-0.1,0.1l-0.1,0l-0.2,0l-0.1,0l-0.1,0.1l0,0l0,0.1l0,0.1l0,0  l-0.1,0.1l0,0.1l0,0.2l0,0.1l-0.1,0.1l-0.1,0l-0.3,0l-0.1,0l-0.2-0.2l-0.2-0.1l0-0.1l0-0.1l0-0.1l-0.1-0.1l-0.1,0l-0.2,0l-0.2,0.1  l-0.1,0l-0.1,0l-0.1,0.1l-0.1,0l-0.1,0l-0.1,0l-0.1,0l-0.1,0.1l0,0.1l0,0.1l-0.2,0.3l0.1,0L-396.1,367z M-402.9,367.3l0.1,0l0.1,0.1  l0.1,0l0.3,0l0.1,0l0.1,0l0,0l0,0.1l0.2-0.1l0.1-0.1l0-0.1l-0.1-0.1l0.1-0.1l0,0l-0.1,0l-0.1,0l-0.1,0l-0.1,0l-0.3-0.1l-0.2,0  l-0.2,0.1l-0.1,0l-0.2,0.1l-0.1,0.2l0.2,0.1L-402.9,367.3z M-408,361.5l0.2,0l0.1-0.1l0-0.1l0,0l-0.2,0l-0.2,0l-0.1,0l-0.1,0  l0.1,0.1L-408,361.5z M-398.1,361.2l0.1,0.1l0.2,0l0.3,0l0.1,0l0-0.1l0-0.1l0-0.1l-0.2-0.2l-0.1,0l-0.1,0.1l-0.1,0.2l-0.1,0.1V361.2  L-398.1,361.2L-398.1,361.2L-398.1,361.2z M-373,380l-0.1-0.1l-0.1-0.1l-0.1,0l-0.1,0l-0.1,0.1l0,0.1l0,0.1l0,0.1l-0.1,0.1l-0.1,0.1  l-0.1,0.1l-0.1,0.2l-0.2,0.3l-0.1,0.1l-0.4,0.3l0.2,0l0.9-0.4l0.3-0.2l0.2-0.2l0.1-0.2l-0.1-0.2l0,0L-373,380z M-366.5,384.3  l-0.7-0.8l-0.4-0.6l-0.3,0l-0.1-0.1l-0.2-0.2l-0.3-0.1l-0.3-0.1l-1.1-0.1l-0.2,0.1l-0.2,0.3l-0.1,0.1l-0.1,0.2l0,0l-0.1,0l-0.4-0.1  l-0.4,0l-0.1,0l-0.1,0l-0.1-0.1l-0.1-0.1l0-0.1l-0.1-0.1l-0.8,0.1l-0.7,0.1l-0.1,0l-0.1,0l-0.1,0l-0.1,0l0,0v0l0,0.1l0,0.2l0,0.1  l-0.1,0.1l0,0.1l0,0.1l0,0.1l0,0l-0.1,0l-0.1,0l-0.1,0l-0.1,0l0,0l0,0.1l0,0.2l0,0.1l-0.1,0l0-0.1l0-0.1l0-0.1l0-0.1l0.3,0l0.1-0.1  l0-0.1l-0.1,0l-0.3,0.1l-0.4,0l-0.1,0l-0.1,0l-0.1,0.1l-0.1,0.1l0,0.1l0,0.1l-0.1,0.1l-0.2,0.1l-0.1-0.1l-0.2-0.1l-0.1-0.1l0-0.1  l0-0.1l0-0.1l-0.1,0l-0.1,0l-0.3,0.1l-0.1,0l0,0l-0.1-0.1l0,0l-0.1,0l0,0l-0.1-0.1l-0.1-0.1l0,0l-0.1,0l-0.1,0l-0.1,0l0,0l0,0l0,0  l-0.1,0l-0.2-0.1l-0.4-0.2l-0.1-0.1l0-0.1l0.1-0.1l0.1,0l0.1,0l0.3,0.2l0.3,0.1l1.2-0.1l0.1,0l0.4,0.1l0.3,0l0.2-0.1l0.1-0.2l0-0.3  l0.1-0.3l0.4-0.5l0.1-0.3l0-0.1l0-0.1l0-0.1l0.1-0.3l0-0.1l0.1-0.2l0-0.1l0,0l0.2-0.2l0.1,0l0.1,0l0.1,0l0-0.1l0-0.1l0-0.1l0-0.1  l0,0l0-0.1l0-0.1l0-0.1l0.1-0.1l0-0.1l0-0.1l-0.2,0.1l-0.5,0.5l0,0.1l0,0.1l-0.1,0.1l-0.1,0.1l-0.1,0l0.2-0.4l0.1-0.2l0.1-0.1  l0.2-0.1l0.4-0.4l0.2,0l0,0l0,0l0,0l0-0.1l0.1,0l0.1,0l0.1,0l0.1,0l0.1,0l0.2-0.1l0.1,0l0.1,0l0-0.1l0-0.1l0-0.1l0.1,0.1l0,0l0,0.1  l0.1-0.1l0-0.2l0-0.2l-0.1-0.1l0,0l-0.1,0l0,0l0,0l0,0l0,0l-0.1-0.1l-0.1-0.1l-0.1-0.1l-0.1-0.1l-0.1-0.1l-0.1-0.1l-0.1,0l-0.1,0  l0,0l0,0l0,0l0-0.1l0-0.2l0,0.1l0,0l0,0l0-0.1l-0.1-0.1l-0.3-0.1l-0.2-0.1l-0.1,0l-0.2,0l0,0l-0.1,0.1l-0.4-0.2l-0.2,0l0.1,0.1  l-0.1,0l-0.2,0l-0.1,0l-0.1,0l-0.5-0.3l-0.1-0.1l0-0.1l0-0.1l-0.1-0.1l-0.1-0.1l-0.2-0.1l-0.1-0.1l-0.2-0.4l-0.1-0.1l-0.2-0.2  l-0.2-0.2l-0.3-0.2l-0.4-0.2l-0.1,0l0,0l0,0l0,0.1l0,0l0,0l0,0l0,0.1l0,0.1l0,0l0,0l0.1,0.1l0.1,0.1l0,0.1l-0.1,0.1l-0.5-0.1l-0.1,0  l-0.7-0.2l-0.1,0l-0.1,0l-0.1,0l0,0l0,0.1l0,0l0.1,0.2l0,0l0.1,0l0.1,0l0,0l0,0.1l0,0.1l0,0.1l0,0l0,0l0,0.1l0,0.1l0,0.3l0,0.2  l-0.1,0.1l0-0.6l0-0.1l-0.1-0.1l-0.1-0.2l-0.1-0.1l-0.1,0l-0.1,0.4l-0.2,0.4h0l0-0.1l0.1-0.2l0.1-0.2l0-0.1l0-0.1l-0.1-0.1l0,0  l0-0.1l-0.1-0.1l-0.5-0.5l-0.8-0.6l-0.2-0.1l-0.4-0.1l-0.4-0.1l-0.2,0l-0.1,0.1l0,0.1l-0.1,0.1l0.1,0.1l0.1,0l0.4,0l0.1,0l0.1,0.1  l0.2,0.2l0,0l0.1,0l0.2,0.1l0.1,0l0.1,0.1l0,0h-0.1l-0.1,0l-0.2-0.1l-0.1,0l-0.1-0.1l0-0.1l0-0.1l-0.1,0l-0.4,0l0,0.1l0.1,0.3l0,0.2  l0,0.8l-0.1,0.3l-0.1,0.2l-0.2,0.1l0.2-0.2l0.1-0.3l0-0.9l0-0.1l-0.2-0.5l-0.1-0.1l-0.1-0.1l0,0.2l0.1,0.4l0,0.2l-0.2,0.5l-0.1,0.2  l-0.2,0.2l-0.1-0.1l0-0.1l0-0.1l0-0.1l0-0.1l-0.4-0.7l-0.1-0.2l-0.1-0.1l-0.1-0.1h-0.1l0.1-0.1l0-0.1l0-0.1l-0.1-0.1v-0.1l-0.1-0.1  l-0.1-0.1l-0.1-0.1l-0.2-0.5l-0.1-0.2l-0.3-0.2l-0.1-0.1l-0.1,0l-0.1,0l0,0.2l0,0.1l0.1,0.3l0,0.2l-0.1,0.1l-0.1,0.1l-0.2,0.1  l-0.4,0.1l-0.1,0l-0.1,0l-0.1-0.1l0,0l-0.1,0l0,0.1l0.1,0.2l-0.1,0.1l-0.1,0l-0.1-0.1l0.1-0.2l-0.1,0l-0.1-0.1l-0.1-0.1l-0.1,0  l-0.1,0l-0.1,0l-0.1,0l-0.1-0.1l0-0.1l0-0.1l0,0l0,0l0,0.1l0,0.1v0l0,0.1l0,0.1l0,0.1l0.1,0.1l-0.1,0l-0.1-0.1l0-0.3l0-0.1h-0.1  l-0.1,0l0,0.1l0,0l-0.1-0.1l-0.1-0.1l0-0.1l0.2,0l0.1,0l0.1-0.1l0.1,0l0.1,0l0,0l0,0.1l0-0.1l0.1,0l0.1,0h0.1l0,0l0,0.1l0,0.1l0,0  l0.1,0l0.2-0.1l0.1,0.1l0,0l0,0.1l0,0l0.1,0l0.1,0l0-0.1l0-0.1l0-0.1l0.1,0h0.1l0.1,0l0,0l0,0l0,0l0.1,0l0.1,0l0.1,0l0.1,0l0.1,0  l0.1-0.1l0.1-0.1l0-0.1l0,0l-0.1-0.1l0-0.1l0,0l0,0l0,0l0-0.1l-0.1-0.2v-0.1l0-0.2l0-0.1l0-0.1l-0.1-0.1l-0.1-0.1l-0.2-0.1l0-0.1  l0-0.1l0-0.1l0-0.1l-0.1-0.1l-0.1-0.1l-0.1,0l-0.1,0l0,0l-0.2,0.1l-0.1,0l-0.1,0l-0.1,0l-0.1,0l-0.2-0.2l-0.1-0.1l-0.1,0l-0.1,0.1  l0,0.1l0,0.1l0.1,0l0,0.1l0.1,0.3l0,0.1l-0.1,0.1l-0.4,0l0.1-0.1l0.1-0.1l0-0.1l-0.1-0.1l0.1,0l0.1-0.1l0.1,0l-0.1,0l0-0.1l0-0.2  l-0.1,0.1l0,0l0.1-0.2l0.2,0l0.4,0l0.1,0l0.1,0.1l0.1,0l0,0l0.1,0l0.1,0l0-0.1l0-0.1l0-0.2l0-0.2l0-0.2l-0.1-0.1l-0.2,0l-0.2,0.1  l-0.4,0.3l-0.2,0.1v0l0.1,0l0.2-0.1l0.2-0.1l0.1-0.1l0.1-0.1l0.2,0l1.5-0.2l0.4,0l0.4,0.1l0.1,0l0.1,0l0.1,0l0.1,0l0.1,0l0.1,0.1  l0.1,0l0.2,0l0.1,0l0.1,0l0.2,0.1l0.1,0l0.1-0.1l0.3-0.5l0.1-0.1l0.1,0l0.4,0l0.6,0.1l0.1,0l0.4,0l0.1-0.1l0.1,0l0.1,0h0.1l0.1,0  l0.1-0.1l0,0l0.1,0l0.1-0.1l0.1,0l0.1,0.1l0,0l0-0.1l0.1-0.1l0.1-0.1l0.1,0l-0.1,0l-0.2,0l-0.2,0.1l-0.1,0.1l-0.1-0.1l-0.2,0.1  l-0.1-0.1l-0.2,0.1l-0.2,0h-0.4l-0.1,0l-0.2,0.1l-0.1,0l-0.1,0l-0.2-0.1l-0.5,0l-0.3,0l-0.5-0.1l-0.9-0.2l-0.6,0l-0.1,0l-0.1,0  l-0.1,0l-0.2-0.1l-0.1,0l-0.7,0.2l-0.2,0l-0.3,0.1l-0.2,0l-0.2,0l-0.3-0.1l-0.1,0l-0.4,0l-0.1,0l-0.1,0.1l-0.1,0l-0.1,0h-0.1l-0.1,0  l0-0.1l0-0.1l0,0l-0.1,0l-0.5,0.3l-0.1,0l-0.1,0l-0.1,0l-0.1,0l0,0l0,0l-0.1,0l-0.1,0l-0.1,0l-0.1,0.1l-0.1,0l0,0l0,0l0,0l0,0l0,0  l0,0l0,0.1l0,0.1l0,0l-0.1,0l-0.1,0l-0.1,0l0,0.1h0l-0.1-0.1l-0.2,0.1l-0.3,0.2l-0.1,0l-0.7-0.1l-0.7-0.2l-0.2-0.1l-0.1-0.1  l-0.1-0.2h-0.1l0,0.1l0,0.1l-0.1,0.1l-0.1,0.1l-0.1,0l-0.3,0.1l-0.1,0l-0.1-0.1l-0.6,0l0,0l0,0l0,0l0,0l-0.1,0l-0.1,0l-0.4,0.2  l-0.1,0l-0.1,0l-0.2-0.1l-0.1,0l-0.3-0.1l-0.1-0.1l-0.1-0.1h0v0.1l0,0.1l0,0l-0.1,0l0,0.1l0.1,0.1l0.1,0.1l0.1,0.1v0.1l0,0.1l0,0.1  l0.1,0l0.1,0l0.1-0.2l0.1,0l0,0l0.2-0.1l0.1,0l0.5,0l0.1,0l0.1,0l0.1-0.1l0.1,0l0.1,0l-0.1,0.1l0,0l0.3-0.1l0.2,0l0.1,0.1l0.2,0.1  l0.2,0l0.3,0l0.2,0l0.3,0.2l0.1,0.1l0.2,0.1l0.2,0l0.2,0l0.2,0l-0.2,0.1l-0.9,0.2l-0.3,0l-0.1,0l-0.3-0.1l-0.1,0l-0.4,0.1l-0.2,0  l-0.2,0l-0.1,0l-0.3-0.1l-0.1,0l-0.1,0l-0.1,0l-0.2,0l-0.1,0.1l0,0.1l-0.1,0.1l-0.2,0.1l-0.3,0.1l-0.3,0.1l0,0.2l-0.1,0.1l-0.1,0.1  l0,0l0-0.1v-0.1l0-0.1l-0.1,0l-0.1,0.1v0h0.1l0,0.1l0,0l0,0.1l-0.1,0l-0.1,0.1l-0.1,0l-0.1,0l-0.1,0l-0.1,0l0,0.1l0.1,0.1l0.1,0  l0.2,0l0.2-0.1l0,0v0.1l-0.1,0l0,0l-0.1,0.1l-0.2,0.1l-0.2,0.2l-0.1,0.1l-0.1,0l-0.1-0.1l-0.1,0l-0.1,0l0,0l0,0l0-0.1l0,0l-0.1,0  l0,0l0,0l0,0l0,0l-0.1,0l-0.2,0.1l-0.1,0l-0.2,0.2l-0.1,0.1l0.1,0.1l-0.1,0.1l-0.1,0l-0.1-0.1l0.1,0l0,0l0-0.1l-0.1,0l-0.1,0l-0.1,0  l-0.1-0.1l0,0.1l0,0.2v0.1l-0.1,0.2l-0.1,0.1l-0.1,0.1l-0.2,0.1l-0.2,0l-0.5,0l-0.4-0.1l-0.1,0l-0.1,0.1l-0.2,0.1l-0.2,0l-0.1,0.1  l-0.1,0l-0.1,0l-0.3,0l-0.1,0l-0.1-0.1l-0.1-0.1l0.1,0l0.5,0.2v0l-0.1,0l-0.2-0.1l-0.3-0.1l-0.9-0.2l-1-0.2l-0.8-0.2l-1.9-0.8  l0.1,0.2l0.7,0.3l0.2,0.1l-0.4,0l-0.2,0l-0.2-0.1l-0.3-0.3l-0.2-0.1l-0.2,0l-0.1-0.2l0-0.1l0.1,0l0.1,0l0.1,0l0.1,0h0.1l-0.5-0.3  l-0.1-0.2l-0.2-0.1l0-0.1l-0.5-0.4l-0.2-0.2l0-0.1l0-0.2l0-0.1l0.1,0l0.2-0.1l0.1-0.1l0-0.1l-0.1,0l-0.3,0l-0.1-0.1l-0.4-0.1  l-0.4-0.2l-0.2,0l-0.1,0l-0.1,0.1l-0.1,0.1l-0.1,0.1h-0.1l-0.4-0.1l-0.1,0l-0.1,0l-0.7,0l-1.6,0.1l-0.7,0.1l-0.8,0l-0.1,0l-0.3,0.1  l-0.3,0.1l-0.4,0.2l-0.5,0.1l-0.5,0l-1,0.1l-0.5,0l-0.6,0.1l-0.9,0.1l-0.3,0.1l-0.2,0.1l0,0l0,0.1l0,0l0,0l0-0.1l0,0l0,0l-0.1,0  l-0.1,0l-0.1,0l-0.1,0l-0.2-0.1l-0.2-0.1l-0.1,0l-0.8,0l-0.3-0.1l-0.3-0.2l-0.2-0.3l-0.3-0.5l-0.2-0.6l-0.1-0.4l0-0.2l0-0.1l0.1-0.1  h0.3l0.1-0.1l0.1-0.1l-0.2-0.1l-0.5,0l-0.2-0.1l0,0l0.1,0l0.1,0l0.1,0l0.1,0l0.1,0.1l0.1,0.1l0,0l0.1-0.1l-0.1-0.2l-0.4-0.8  l-0.3-0.4l-0.1-0.2l0.1-0.1v0l-0.1-0.1l0,0h0l0,0l0,0l0,0.1l-0.4-0.2l-0.1-0.1l0-0.1l-0.1-0.1l-0.1-0.1l-0.5-0.3l-0.2-0.1l-0.1-0.1  l0,0l-0.2-0.1l0,0l0,0l-0.1,0l-0.1,0l-0.2-0.1l-0.1-0.1l-0.1-0.1l-0.2-0.2l-0.1-0.1l-0.1,0l-1,0l-0.3,0l-0.1,0l-0.1-0.1l-0.1-0.1  l0-0.1l-0.1,0l-0.4-0.2l-0.1,0l-0.2,0l-0.1,0l-0.1-0.1l-0.1,0l-0.1,0l-0.1,0l-0.2,0.1l-0.3,0.1l-0.3,0l-0.6-0.1l-0.2,0.1l-0.2,0.1  l-0.2,0.1l-0.2,0l-0.3-0.2l-0.2-0.3l-0.3-0.6l-0.4-1.1l0-0.3l0-0.6l0-0.3l-0.1-0.3l-0.6-1l-0.1-0.1l-0.3-0.1l-0.1-0.1l-0.1,0l-0.2,0  l-0.2,0.1l-0.4,0.4l-0.1,0.1l-0.1,0l-0.3,0l0,0.1l0,0.2l0,0.1l-0.1,0.1l-0.2,0.2l0,0.1l0,0.1l-0.1,0.2l0,0.1l0,0.1l-0.1,0.2l0,0.1  l0.1,0l0,0l0,0l0,0.1l0,0l0,0l0,0l0.1,0.3l0,0.1l0.1-0.1l0-0.1l0,0l0.1,0l0,0.1l0,0.1l0,0.2l0,0l-0.1,0l0,0l0,0l0.1,0.1l0,0v0.2l0,0  l0,0l0,0l0,0l0,0l-0.1,0.1l0,0l0,0.2l0.1,0.1l0.2,0l0.3-0.2l0.4,0l0.1-0.1l0.1,0l0.1,0l0.2,0l0.1,0l0.3-0.1l0,0.1l0.1,0l0.3-0.1l0,0  l0,0l0.1,0l0.1,0l0,0l0.1,0.1l0.1,0l0-0.1h0l0.2,0.3l0,0.2l0.1,0.3l0.1,0.1l0,0.1l0.1,0.2l0,0.1l-0.1,0.1l-0.2,0.1l0,0.1l-0.1,0.1  l-0.3,0l-0.3-0.1l-0.1-0.1l0-0.1l-0.2-0.1l-0.1,0l0,0l0-0.1l0,0l-0.1,0l0,0l0,0l0,0l-0.2,0l-0.1,0l0,0l-0.1-0.1l-0.2-0.1l-0.2-0.2  l-0.1,0l0.1,0.1l0.1,0.1l0.1,0.1l0.1,0v0h-0.1l-0.1,0l0,0l0,0l0.2,0l0.4,0.1l0.1,0.1l0.1,0.1l-0.1,0l0,0l0,0l0,0l0,0l0,0l0.1,0l0,0  l0,0l0,0.1l0,0.1h0l-0.1,0l-0.1,0l-0.1,0l-0.1,0l0,0.1l0,0.1l-0.1,0l-0.1-0.1l0-0.1l0-0.1l-0.1,0l-0.1,0l-0.1,0.1l0.1,0l0,0l0,0  l0,0.1l0,0.1l-0.1,0.2l-0.1,0.2l-0.1,0.1l-0.4,0l-0.2,0l-0.2,0.2l-0.6,0.2l-0.1,0l-0.4,0l-0.2,0.1l0,0.2l0-0.1l0-0.1l0.1,0l0.1,0  l-0.1,0.2l-0.1,0.1l-0.8,0.1h-0.2l-0.1-0.1l-0.2,0.1l-1,0.3l-1.3,0.7l-0.4,0.1l-0.1,0.1l-0.3,0.2l-0.8,0.3l-0.3,0l-0.5,0l-0.3,0  l-0.3,0.1l0.1,0l0.1,0.1l0.1,0.1l0.1,0l0.1,0l0.2,0l-0.1,0.1l-0.2,0.1l0,0.1l0,0.1l0.1,0.1l0,0.1l-0.1,0.2l-0.2-0.1l-0.2,0l-0.5,0v0  l0.1,0l0,0l0.1,0.1l0.1,0.1l0,0.1l0,0.1v0.1l0,0.2l0,0.1l0,0.1l0.2,0.3l0,0l0,0l-0.2,0.2l0,0.1l0,0.2l0.1,0.1l0.3,0.2l0.1,0.1l0,0.1  l0,0.3l0,0.1l0,0.1l0,0.1l0,0l0.1,0.1l0.1,0.2l0.1,0.1l0.1,0.2l0.1,0.2l0.1,0.1l0.1,0.3l0.1,0.1l0.2,0.1l0.1,0.1l0.3,0.3l0.1,0.2  l0.1,0.3l0.1,0.6l0.2,0l0.1,0.1l0.4,0.4l0.1,0.2l0.1,0.1l0,0.1l0,0.1l0,0l-0.1,0l0,0.2l0.1,0.1l0.1,0.1l0.1,0.1l0,0.1l0,0l0,0.1l0,0  l0,0v0.3l-0.1,0.5v0.1l-0.1,0.2l0,0.1l0,0.1l0,0.1l0,0.1l0,0.1l0,0.6l0.1,0.4v0.1l0,0.1l-0.1,0.1l-0.1,0l-0.1,0l0,0l0,0l0,0l-0.2,0  l-0.1,0l-0.1,0.1l-0.2,0.2l-0.1,0.1l-0.1,0.3l-0.1,0.2l-0.2,0.1l-0.6,0.3l-0.9,0.3l-0.3,0.1l-0.3,0l-0.3,0l-0.3-0.1l-0.1-0.1  l-0.1-0.1l0,0l0,0l-0.1,0l-0.1,0l0,0l0,0l0,0l0,0l0-0.1l0-0.1l0.2-0.2l-0.1-0.2l0-0.1l0.1,0l-0.1-0.1l0-0.1l0-0.1l-0.1-0.1l0,0.1  l0,0l0,0l-0.1,0l-0.1-0.1l-0.1,0l-0.1,0.1l-0.1-0.1l0.3-0.2l0.1-0.1l0.1,0.1l0.1-0.1l0-0.1l0-0.1l-0.1-0.1v0l0.1,0l0,0l0,0l-0.1-0.1  l0,0l0-0.1l-0.2,0.1l-0.2-0.1l-0.2-0.2l-0.2-0.1h-0.4l0,0l-0.1,0.2l-0.1-0.2l0.1-0.1l0.2-0.1l0.2,0l-0.1-0.1l-0.1,0l-0.1,0l-0.1,0  l-0.2-0.2l-0.1,0v0.1h-0.1l-0.1-0.1l-0.1,0.1l-0.1,0.1l-0.1,0.1l-0.1-0.2l-0.1-0.1l0-0.1l0.1,0.1l0.1,0.1l0.1,0l0-0.1l0-0.1  l-0.1-0.1l-0.1-0.1l-0.1,0l0,0l0,0l0,0l0.1,0l0,0l0,0l0,0l0.1,0l0.1,0.1l0,0.1l0.1,0.1l0.1,0.1l-0.3-0.8l-0.2-0.2l-0.4-0.5l-0.1-0.1  l-0.1-0.3l0-0.1l0.1-0.2l0.4-0.5l0.1-0.4l0.2-0.3l0.1-0.3l0.1-0.1l0.1-0.1l0.1-0.1l0.3-0.1l0.1-0.1l0-0.2l0.4-0.5l0.4-0.7l0.2-0.2  l0.2-0.1l0.1-0.1l0.1,0l0,0l0.1-0.2l0.2-0.1l0,0l0.1-0.1l0,0l0,0l0-0.4l0-0.1l0.1-0.1l0.1-0.1l0-0.1l0-0.1l0-0.1l0-0.1l0-0.1  l0.1-0.1l0.1-0.3l0.1-0.1l-0.3-0.1l-0.2-0.2l-0.2-0.2l-0.1-0.2l-0.1-0.3l-0.1-0.3l0-0.1l0-0.1l0-0.1l-0.1-0.1l-0.2-0.2l-0.1-0.1  l0.1,0l0,0l0,0l0,0l0.1,0l0.1,0l0.2,0l0.1,0.1l0,0.1l0,0.1l0.3-0.1l0.1,0l0-0.1l-0.1-0.1l-0.1-0.1l-0.8-0.4l-0.2-0.2l-0.4-0.6  l-0.5-1.1l-0.2-0.9l0-0.3l0.1-0.2l0.1-0.1l0.1-0.1l0.2-0.1l0.3,0l1.2-0.4l1.1-0.2l0.3-0.1l0.4-0.2l0.1,0l0.1,0l0-0.1l0-0.1l0-0.1  l0.1,0l0.2,0l-0.1-0.1l0-0.1l0.1-0.2l-0.2,0l-0.1,0.1l-0.2,0.2l-0.3,0.1l-0.2,0l-0.4,0.1l-0.4,0.1l-0.4,0.1l-0.4,0.1l-0.4,0.1  l-0.4,0.1l-0.4,0.1l-0.4,0.1l-0.2,0l-0.1,0.1l-0.1,0.2l-0.1,0.1l-0.2,0.4l-0.2,0.4l-0.2,0.4l-0.2,0.4l-0.2,0.4l-0.2,0.4l-0.2,0.4  l-0.2,0.4l-0.1,0.1l-0.1,0l-0.2-0.1l-0.1,0l-0.1,0l-0.4,0.1l-0.3,0l-0.1,0l-0.1,0.1l0,0.1l0,0.1l0,0.1l-0.1,0.1l-0.1,0.1l-0.1,0.1  l-0.2,0.6l-0.1,0.2l-0.1,0.1l-0.3,0.2l-0.2,0.2l-0.2,0.3l-0.3,0.9l-0.2,0.3l-0.4,0.5l-0.1,0.3l-0.1,0.1l-0.1,0.1l-0.1,0.1l0,0.1  l0,0.1l0,0.1l-0.1,1.5l-0.3,1.2v0.3l-0.1,0.3l0,0.1l0,0.2l0.1,0.1l0,0.1l-0.1,0.2l-0.2,0.4l-0.4,0.6l-0.2,0.5l-0.1,0.1l-0.1,0.1  l-0.3,0.2l-0.1,0.1l-0.1,0.3l-0.5,0.8l-0.2,0.6l-0.1,0.1l-0.1,0.1l-0.2,0.2l-0.1,0.1v0.1l0.1,0.1l0.8,0l0.3,0l0.2-0.1l0.2-0.2  l0.1-0.1l0.2,0l0.1-0.1l0.3-0.3l0.2,0l0,0l0.1,0.2v0l0,0.1v0l0,0l0.1,0.1l0,0l0,0.2l0,0.3l0,0.1l0.1,0.2l0.1,0l0.1-0.1l0.2-0.1  l0.1,0l0.1,0l0.1,0l0.1,0h0l0-0.1l0.1,0.1l0.1,0.1l0,0.1l-0.1,0.2l0.1,0.1l0,0.1l0.1,0.3l0.1,0.3l0.1,0.3l0.1,0.3l0.1,0.3l0.1,0.3  l0.1,0.3l0.1,0.3l0.1,0.3l0.1,0.2l0.1,0.1l0.1,0.1l0.1,0.1l0.1,0.1l0.1,0.1l0.1,0.1l0.1,0.1l0.1,0.1l0.1,0.1l0.2,0.2l0.1,0.1l0.1,0  l0.1,0l0.1,0l0.1,0.1l0.1,0.1l0,0.1l0,0.1l0,0.1l-0.1,0.2l0,0.1l0,0.1l0.2,0.4l0.1,0.4l0,0.3l-0.1,0.2h-0.1l-0.1,0l-0.1,0l-0.1,0.1  l0,0.1l-0.1,0.1l-0.1,0.1l-0.1,0.1l-0.1,0l-0.1,0l-0.1,0l0,0.1l0,0.1l0.1,0.2l0,0.1l0,0.1l0,0.3l0,0.1l-0.1,0.4l-0.1,0.7l0,0.1  l0.1,0.3l0,0.1l0,0.1l-0.1,0.1l0,0.1l0,0.2l0.2,0.3l0.2,0.2l0.3,0.1l0.3,0.1l0.5,0l0.2,0.1l0.2,0.3l0,0l0,0l-0.1,0.3l0,0.1l0,0.2  l0,0.2l0.1,0.2l0.4,0.7l0.1,0.1l0.1,0l0.2,0.1l0.1,0.1l0.2,0.1l0.1,0l0.7,0.2l0.2,0l0.1,0l0.1,0l0.1-0.1l0.1-0.1l0.1,0l0.1,0l0,0  l0-0.1h0.2l0.2,0l0.2,0l0.2,0l0-0.1l0,0l0.1,0l0.2,0l0.1,0l0,0.1l0.1,0.1l0,0l0,0l0.1-0.1l0.1,0l0,0l0,0l0,0l0,0l0.1,0l0,0l0,0  l0.1,0l0.1,0l0.1,0.1l0.1,0l0.2-0.1l0.1,0l0.1,0l0.2,0.1l0.1,0l0.3-0.1l0.1,0l0.1,0l0,0.1l0,0.1l0,0.1l0.1,0l0.3,0l0.1,0l0.1,0  l0.1,0l0.1,0l0.1-0.1l0.1-0.1l0.1,0l0.5,0l0.4,0l0.3-0.1l0.3-0.2l0.1-0.1l0-0.1l0.1,0l0.1,0l0.3-0.1l0.3,0l0.4-0.1l0.2,0l0,0  l0.1,0.1l0.1,0l0.2,0.1l0.1,0l0.2-0.1l0.1,0l0,0l0.3,0.4l0.1,0l0.1,0h0.1l0.2,0l0.1,0l0,0l0,0.1l0,0l0.1,0l0.7,0.3l0.2,0l0.4-0.2  l0.2-0.1l0.2,0l0.2,0l0.2,0.2l0.1,0.1l0.5,0.6l0.5,0.6l0.5,0.6l0.5,0.6l0.5,0.6l0.5,0.6l0.5,0.6l0.5,0.6l0.2,0.2h0.1l0.2,0l0.3-0.1  l0.2,0l0.1,0.1l0.3,0.3l0.1,0.1l0.4-0.2l0.4-0.4l0.1-0.1l0.2-0.2l0.1-0.1l0.2,0l0.1,0l0.2,0.1l0.1,0l0.1,0l0.2,0.1l0.1,0l0.4,0  l0.1,0l0.4,0.1l0.1,0l0.1,0l0.3,0.1l0.2,0l0.1,0l0.2-0.2l0.1,0l0.4,0l0.5-0.1l0.1,0l0.1,0l0.4,0.1h0.2l0.8-0.3l0.3,0l0.8,0.1l0.3,0  l0.2-0.1l0.1,0l0.1,0l0.1,0l0-0.1l0-0.1l0-0.1l0.1,0l0.1,0l0.1,0l0.1-0.1l0.1-0.1l0.1,0l0.1,0l0.1,0l0.5,0l1,0.2l0.2,0.1l0.2,0.2  l0.2,0.1l0.3,0l-0.2,0.1l-0.1,0.1l0,0.1l0,0.3l0.2,0.4l0.2,0.1l0,0.1l0,0.2l0,0.1l-0.1,0.1l-0.2,0.1l-0.1,0.1l-0.3,0.3l-0.1,0.1  l-0.4,0.4l-0.2,0.2l-0.1,0.3l-0.1,0.3v0.3l0.1,0.4l0,0.1l0,0l0.1,0.1l0,0l0,0.1l0,0.1l0,0l0,0l-0.1,0.2l0,0l-0.1,0l-0.1,0.1  l-0.1,0.1l-0.1,0l-0.2,0.1l0,0l-0.1,0.1l0,0l0,0l-0.1,0l0,0l-0.2,0.2l-0.2,0.3l-0.1,0.3l0.1,0.3l0.1,0.1l0,0.1l0,0.1l0,0.2l0,0.1  l-0.1,0.2l0,0.1l0,0.1l0,0.1l0,0.1l0,0.1l0,0.1l0.1,0.1l0,0l0,0.1l0,0l0,0l0,0l0,0.3l0,0.1l-0.1,0.3l0,0.3l0,0.2l0,0l0.1,0.1l0,0  v0.1l0,0l0,0l0,0.1l0,0.1l0,0.3l-0.1,0.1l-0.1,0.1l0,0.1l0,0.4l0,0.2l0,0.2l0,0.1l0,0.1l0,0l0,0l0,0.1l0,0.1l0,0.1l0.1,0.1l0.1,0v0  l0.1,0.1l0,0.1l0.1,0.2l0,0l0.1,0l0,0v0.1l0,0.1l0,0.1l0,0.1l0.1,0.1l0,0.1l0,0.1l-0.1,0.2l0,0.2l0,0.2l0.1,0.2l0,0.2l0.1,0.1  l0.1,0.1l0.1,0.1l0.1,0.2l0.1,0.1l0,0.1l0,0.1l0,0l0.1,0.2l0,0.4l0,0.1l0.3,0.5l0.1,0.2l0,0.3l0,0.2l0.1,0.1l0.1,0.1h0.1l0.1,0  l0.1,0l0.2,0.1l0.2,0.2l0.4,1.2l0.1,0.1l0.1,0.1l0.2,0.1l0.2,0.2l0,0.3l-0.2,0.3l-0.4,0.5l-0.1,0.1l-0.1,0l-0.1,0l-0.1,0l-0.1,0.1  l-0.3,0.3l-0.3,0.3l-0.3,0.3l-0.3,0.3l-0.3,0.3l-0.3,0.3l-0.3,0.3l-0.3,0.3l-0.2,0.2l-0.1,0.2l0,0.4l0.1-0.1l0.1-0.1l0.1-0.1l0.1,0  l0.1,0l0.1,0l0.1-0.1l0.1,0l0.1,0.1l0.3,0.1l0.2,0l0.1,0l0.1,0l0.1,0.1l0.1,0.1l0,0.1l0,0.3l0,0.1l0.1,0.1l0.3,0l0.1,0l0.1,0.1  l0,0.1l0,0.1l0,0l0.1,0l0.1,0.1l0,0l0,0.1l0.1,0.1l0,0l0.1,0l0,0.1l0,0.1l0,0.1l0.1,0l0.1,0.1l0.1,0.1l0,0.1l0,0.1l0,0.1l0.1,0  l0.1,0l0.1,0.1l0.1,0.1l0.1,0l0.2,0.1l0.2,0.1l0.1,0l0,0.1l0,0.1l0,0.1l0,0.1l-0.1,0.1l-0.1,0.1l-0.1,0.1l0,0.1l0.1,0.2l0,0.2  l0.1,0.3l0.1,0.1l0.1,0.1l0.1,0l0.1,0.1l0,0.1l0,0.4l0,0.1l0,0l-0.1,0.1l0,0.1l0,0.1l0,0.1l0.1,0.1l0.1,0.1l0,0.1l0,0.1l0.1,0.2  l0.6,1.5l0,0.1v0.3l0,0.1l0.1,0.1l0.1,0.2l0.1,0.1l0,0.1l0,0.3l0,0.1l0.1,0.1l0.1,0.1l0.1,0.1l0.1,0.1l0,0.2l0,0.2l-0.1,0.2l0,0.2  l0.1,0.3l3.1,2.8l0.4,0.3l0.4,0.1l0.4-0.1l0.1,0l0.1,0.1l0.1,0.1l0.1,0.1l0.1,0l0.2-0.1l0.2-0.2l0.1-0.1l0.3,0l0.1,0l0.1-0.1  l0.1-0.1l0.3-0.3l0.1-0.1l0.1-0.1l0.6-0.3l0.3-0.2l0.2-0.1l0.1,0l0.5,0l0.1,0l0.1,0l0.1,0l0.1,0.1l0.1,0.1l0.2,0.2l0.1,0.1l0,0.1  l0,0.2l-0.1,0.3l-0.2,0.3l-0.2,0.3l0,0.3l0.1,0.1l0.1,0.1l0.1,0l0.2,0l0.1-0.1l0.2-0.1l0.1-0.1l0.1-0.2l0.1-0.1l0-0.1l0-0.2l0-0.1  l0.1-0.2l0.1-0.1l0.4-0.5l0.1-0.1l0.2,0l0.3,0l0.1,0l0.1-0.1l0.2-0.2l0.1-0.3l0.1-0.6l0.2-0.3l0.2-0.1l0.3,0l0.2,0l0,0l0-0.1l0,0  l0,0l0.1,0l0,0l0.2-0.2l0.1,0l0.2,0l0.1,0l0.1,0l0.1-0.1l0.1-0.2l0.1-0.1h0.1l0.3,0.2l0.1,0l0.1,0l0.8-0.5l0.1-0.1l0.1-0.3l0.1-0.2  l0.2-0.1l0.3-0.2l0.3-0.2l0.2-0.1l0.1,0l0.1,0.1l0,0.1l-0.1,0.3l0,0.1l0,0.2l0,0.1l0.1,0.1l0.1,0l0.1-0.1l0.1-0.3l0.1-0.1l0.5-0.3  l0.4-0.4l0.3-0.2l0.1-0.1l0.1-0.2l0.1-0.2l0-0.1l0-0.1l0-0.4l0.1-0.4l0-0.6l0.1-0.2l0.3-0.2l0.2-0.1l0.2,0l0.8,0l0.1,0l0.1-0.1  l1-0.8l0.4-0.2l0.1,0l0.2,0h0.1l0.4-0.1l0.2-0.1l0.1-0.1l0-0.1l0-0.1l0.2-0.4l0-0.1l0-0.4l0-0.1l0.1-0.2l0-0.1l-0.1,0l-0.8,0  l-0.4-0.1l-0.9,0l-0.4,0.1l-0.4,0l-0.8-0.2l-0.4,0l-0.1,0l-0.1-0.1l-0.1-0.1l0-0.1l0-0.2l0.3-0.5l0-0.1l0-0.4l0-0.2v-0.1l0-0.1  l-0.1-0.1l-0.1-0.4l-0.5-1l-0.2-0.3l-0.2-0.4l-0.2-0.2l-0.1-0.2l0-0.3l0.1-0.6l0-0.3l-0.2-0.8l0-0.2l0.1-0.1l0.2-0.2l0-0.1l0-0.1  v-0.2l0-0.2l-0.1-0.1l-0.3-0.2l-0.4-0.5l-0.2-0.1l-0.3-0.1l-0.3-0.1l-0.6-0.5l-0.3-0.4l-0.1-0.1l-0.3-0.2l-0.1-0.2l-0.3-0.6  l-0.1-0.3l-0.1-0.1l-0.1-0.1l-0.1-0.1l-0.1-0.1l-0.1-0.1l-0.1-0.1l0-0.1l0-0.1l0.1-0.1l0.1-0.1l0.3,0l0.3,0.2l0.3,0.2l0.2,0.2  l0.1,0.3l0.1,0.1l0.1,0.1l1.5-0.2l0.8,0.1l0.4,0.1l0.2,0.1l0.1,0.1l0.1,0.2l0.1,0.2l0.1,0.5l0.1,0.3l0.2,0.2l0.3,0l0.3-0.1l0.3-0.2  l0.3-0.1l0.3,0l0.3,0.1l0.1,0l0.2,0l0.4-0.1l0.1,0l0.3,0.1l0.5,0.4l0.3,0.1l0.3-0.1l0.1-0.2l0-0.3l0.2-0.2l0.2,0l0.3,0.1l0.4,0.2  l0.2,0.2l0.4,0.5l0.4,0.3l0.7,0.8l0.1,0.1l0.1,0.1l0.1,0.1l0.2,0.1l0.1,0l0.2,0l0.1,0l0.1,0l0.1-0.1l0.1-0.1l0.1,0l0.1,0l0.1,0  l0.1,0l0.1-0.1l0.1-0.2l0.1-0.3l0-0.3l-0.1-0.3l-0.1-0.3l0-0.2l0,0l0,0l0-0.1l0-0.2l0-0.1l0.1-0.1l0-0.2l0-0.1l0-0.1l0-0.1l0.1-0.1  l0.1,0l0.4,0l0.5,0.1l0.2,0l0.1-0.3l0-0.1l0-0.1l0.1-0.1l0.1,0l0.2,0l0.1,0l0-0.1l0-0.1l0,0l0.2-0.1l0.3,0.1l1.3,0.5l0.3,0l0.3-0.1  l0.5-0.4l0.3,0l0.1,0l0.1,0.1l0.1,0h0.2l0.1,0l0.1,0l0.1-0.1l0.1-0.1l0.3-0.4l0.1-0.1l0.1,0l0.1,0l0.3,0l0.2,0.1l0.1,0l0.1,0  l0.1-0.1l0.1,0l0.1,0l0.1,0l0.1,0l0.1,0l0.1-0.1l0.1-0.1l0-0.1l0-0.1l0-0.5l0.1-0.2l0.3-0.1l0.1,0l0.4,0l0.1,0l0.2,0l0.2-0.1  l0.1-0.1l0-0.1l-0.2-0.3l0-0.1l0.1,0l0.4,0.1l0.1,0l0.2,0.1l0.1,0l0.1,0l0.4-0.1l0.6-0.1l0.2-0.1l0.2-0.3l0.1-0.1l0.1-0.3l0.2-0.4  l0.1-0.1l0.1,0h0.1l0.1,0l0.6-0.3l0.3-0.2l0.2-0.2l0.4-0.5l0.1-0.3l0-0.3l-0.4-1.1l-0.1-0.1l-0.2-0.1l-0.2,0l-0.5-0.5l-0.5-0.5  l-0.5-0.5l-0.5-0.5l-0.5-0.6l-0.5-0.5l-0.5-0.5l-0.5-0.6l-0.2-0.2l-0.1-0.3l0.1-0.1l0.2-0.1l0.1-0.1l0.3-0.5l0.1-0.2l0.1-0.1l0.1,0  l0.2,0l0.1,0l0.1,0l0.1-0.1l0.1-0.2l0.1-0.1l0.1,0l0.1,0l0.1,0l0-0.1v-0.1l0-0.2l0-0.1l0,0l0,0l0,0l0,0l-0.1-0.1l0-0.1l-0.1-0.2  l0-0.1l0-0.3l0-0.1l0.1-0.1l0-0.1V397l0-0.1l0-0.1l-0.1-0.1l-0.1-0.2l-0.1-0.1l-0.1-0.1l-0.1-0.1l-0.1-0.1l0-0.1l0-0.2l0.1-0.2  l0.1-0.2l0.2-0.2l0.1-0.1l0.1,0l0.1,0l0.1,0l0.1-0.1l0.1,0l0.1,0l0.1-0.1l0.3,0l0.1,0l0,0l0.2-0.2l0,0l0-0.1l0-0.1l-0.1-0.1l0-0.1  l0,0l0.1,0l0.1,0l0,0l0,0l0.1,0l0.1,0l0.1,0l0.2,0l0.1,0l0.1,0l0.2,0.2l0.1,0l0.1,0l0.1-0.1l0.2-0.3l0.1-0.1l0.1-0.1l0.5-0.1  l0.8-0.5l0.2,0l0.1,0.1l0.1-0.3l0.1-0.1l0.1-0.1l0.1-0.1l0.1-0.1l0.1-0.1l0.1-0.1l0-0.1l0-0.1l-0.1-0.1l-0.1-0.1l-0.2-0.1l-0.1-0.1  l-0.1,0l-0.1,0l-0.1,0l-0.1,0l-0.1,0l-0.1,0l-0.1,0h-0.2l-0.1,0.1l-0.1,0.1l-0.1,0.3h-0.1l-0.5-0.4l-0.1-0.1l-0.1-0.2l0-0.2l0.1-0.2  l0.2-0.1l0,0l0-0.1v-0.1l0-0.1l-0.1-0.1l-0.1-0.2l0-0.1l0,0l-0.1,0l-0.1,0l0-0.1v-0.1l0,0l0,0l0,0l-0.1-0.1l-0.1,0l-0.1,0l-0.2-0.3  l0-0.1l0-0.1l0.1-0.2l0.3-0.1l0.1-0.1l0.1-0.2l0.1-0.1l0,0l0.1,0l0.1,0l0-0.1l0-0.1l0.1-0.2v-0.1l0-0.1l0-0.1l0-0.1l0.1-0.2l0.1-0.2  l0.1-0.1l0.1,0l0.6,0l0.3,0l0.2-0.1l0.1-0.2l0.1-0.1l0.3-0.2l0.1-0.1l0.1-0.1l0.1-0.1l0.3-0.1l0.1-0.1l0.1-0.1l0.1-0.1l0.1,0l0.3,0  l0.1,0l0.1-0.1l0.1-0.1l0.1-0.3l0.1-0.1l0-0.1l0-0.1v-0.1l0-0.1l0.2-0.1l0.1-0.1l0.1-0.1l0.3-0.1l0.1,0l0.1,0l0.1-0.1l0.1-0.1l0-0.1  L-366.5,384.3z"/></svg>