<svg xmlns="http://www.w3.org/2000/svg" xmlns:xlink="http://www.w3.org/1999/xlink" version="1.1" x="0px" y="0px" viewBox="0 0 100 100" fill="#999999" enable-background="new 0 0 100 100" xml:space="preserve"><path d="M42.6,90.9L42.6,90.9l-0.1,0l-0.1,0l0,0.1l0,0l0,0l0.1,0l0,0l0.1,0l0.1,0l0-0.1L42.6,90.9L42.6,90.9z M40.8,91.7L40.8,91.7  L40.8,91.7l-0.1,0.2l0.1,0.1v-0.1l0-0.1L40.8,91.7L40.8,91.7z M34.8,94.2L34.8,94.2l0.1,0.2l0.1,0l0-0.1l0.1-0.1l-0.1,0L34.8,94.2z   M43.9,99.8L43.9,99.8l-0.1,0.1l-0.1,0.1l0.1,0.1l0.1,0l0-0.1L43.9,99.8L43.9,99.8z M62.9,14.4L62.9,14.4L62.9,14.4l-0.1,0l-0.1,0  l0,0l0,0h0l0.1-0.1L62.9,14.4L62.9,14.4L62.9,14.4L62.9,14.4z M61.3,14.5L61.3,14.5L61.3,14.5h-0.1l0,0l0,0.1l0,0L61.3,14.5  L61.3,14.5L61.3,14.5L61.3,14.5L61.3,14.5z M61.4,15.5L61.4,15.5L61.4,15.5L61.4,15.5l0,0.1l0,0L61.4,15.5l0.1,0L61.4,15.5  L61.4,15.5L61.4,15.5z M57.4,16.7L57.4,16.7l0.1,0.1l0-0.1L57.4,16.7z M57.7,17L57.7,17L57.7,17L57.7,17L57.7,17l0-0.1h0L57.7,17  L57.7,17L57.7,17L57.7,17z M59.9,17.2L59.9,17.2l0-0.2l0-0.1l0,0l0,0l0,0L59.9,17.2L59.9,17.2L59.9,17.2z M59.8,17.2L59.8,17.2  l0.1,0.1L59.8,17.2l0-0.1l0,0l0,0L59.8,17.2L59.8,17.2z M56.2,17.4L56.2,17.4L56.2,17.4L56.2,17.4l0-0.1l0,0l0,0l-0.1,0l0,0l0,0l0,0  l0,0v0l0,0l0,0l0,0L56.2,17.4L56.2,17.4L56.2,17.4L56.2,17.4L56.2,17.4z M57.1,17.4L57.1,17.4l0-0.1l-0.1-0.1l0,0l0,0l0,0L57.1,17.4  L57.1,17.4L57,17.4L57.1,17.4L57.1,17.4l-0.1,0v0L57.1,17.4L57.1,17.4L57.1,17.4L57.1,17.4L57.1,17.4z M59.6,17.5L59.6,17.5  L59.6,17.5L59.6,17.5L59.6,17.5L59.6,17.5L59.6,17.5l0.1,0l0,0l0,0L59.6,17.5l0.1-0.1l0,0l0,0L59.6,17.5L59.6,17.5L59.6,17.5  L59.6,17.5L59.6,17.5L59.6,17.5L59.6,17.5L59.6,17.5L59.6,17.5z M60.9,18L60.9,18L60.9,18L60.9,18L60.9,18L60.9,18L60.9,18L60.9,18z   M60.8,18.2L60.8,18.2L60.8,18.2L60.8,18.2L60.8,18.2L60.8,18.2l-0.1,0.1L60.8,18.2L60.8,18.2z M62.3,14.4L62.3,14.4l-0.2,0.1  L62,14.6l0,0L62.3,14.4L62.3,14.4z M61.3,14.6L61.3,14.6L61.3,14.6l0.1,0l0,0l0.1,0l0,0l0,0l0,0l-0.1,0L61.3,14.6L61.3,14.6  L61.3,14.6z M61.9,14.7L61.9,14.7L61.9,14.7l-0.2,0.1l0,0l0.1,0h0L61.9,14.7L61.9,14.7z M64,14.7L64,14.7L64,14.7l0,0.1l0.1,0l0,0  L64,14.7L64,14.7L64,14.7L64,14.7z M62.1,15L62,15.4l0,0.1l0,0L62.1,15L62.1,15L62.1,15L62.1,15z M61.4,15.8L61.4,15.8L61.4,15.8  l0.1-0.2l0-0.1l0,0l0,0l-0.1,0l0,0l0,0l0,0l0,0l0,0.1l0,0l0,0l0,0l0,0l0,0l0,0l0.1,0l0,0l0,0l0,0l0,0l0,0L61.1,16l0,0l-0.1,0  L61,16.1l0,0l0,0l0,0l0,0l0.1,0l0,0L61.4,15.8L61.4,15.8L61.4,15.8z M55.9,16.6L55.9,16.6L55.9,16.6l-0.1-0.1l0,0l0,0.1l0,0.1l0.1,0  l0.1,0l0.1,0l0.1,0l0.1,0l0,0l0,0l0,0l0,0l0,0l0,0l0,0l0,0l0,0l-0.1-0.1l-0.1,0l0,0l0,0l0,0l0,0l0,0.1l0,0L55.9,16.6z M58,16.8  L58,16.8l0.2-0.1l0,0l0,0l0-0.1l0,0l0,0l0,0l0,0l-0.1,0.1L58,16.8L58,16.8L58,16.8z M60.5,16.9L60.5,16.9l0.1-0.1l0.1-0.1l0,0  l-0.1,0l0,0.1l0,0l0,0L60.5,16.9L60.5,16.9L60.4,17L60.2,17L60,17l0,0l0.2,0L60.5,16.9L60.5,16.9z M60,16.9L60,16.9l0.1,0l0.1-0.1  l0-0.1v0l0,0l0,0l0,0l0,0l0,0l0,0l-0.1,0.1l-0.1,0l0,0L60,16.9L60,16.9L60,16.8l0,0l-0.1,0l-0.1,0l0,0l0.1,0L60,16.9z M59,17.2  L59,17.2L59,17.2L59,17.2L59,17.2l0.1,0.1l0,0l0,0l0,0L59,17.2L59,17.2L59,17.2z M58.5,17.6L58.5,17.6L58.5,17.6L58.5,17.6l-0.1-0.1  l0,0l0,0l0,0l0,0l0,0l0,0l0,0l0,0l0,0l0,0l0,0l0,0L58.5,17.6L58.5,17.6L58.5,17.6z M56.3,17.6L56.3,17.6l0.1,0.1l0.1,0l0.1,0l0.1,0  l0,0l0,0l0,0l-0.1,0l-0.1-0.2l0,0L56.3,17.6L56.3,17.6z M60.4,17.7L60.4,17.7l0,0.1l0,0.1l0,0l0,0l0,0l0,0l0,0l0,0l0,0L60.4,17.7  L60.4,17.7L60.4,17.7z M58.5,17.9L58.5,17.9l0.1,0.1L58.5,17.9L58.5,17.9L58.5,17.9L58.5,17.9L58.5,17.9L58.5,17.9l0.1,0l0,0l0,0  L58.5,17.9L58.5,17.9l0.1-0.1l0,0l0,0l0,0l0,0l0,0l0,0l0,0L58.5,17.9L58.5,17.9L58.5,17.9L58.5,17.9z M58.7,18L58.7,18L58.7,18  L58.7,18l-0.1,0.1l0,0l0,0l0,0h0l0,0l0,0l0,0L58.7,18L58.7,18z M62.5,22.4L62.5,22.4L62.5,22.4L62.5,22.4L62.5,22.4l0.1,0l0,0  L62.5,22.4L62.5,22.4L62.5,22.4z M50.9,27.5L50.9,27.5L50.9,27.5L50.9,27.5L50.9,27.5l0,0.1l0,0l0,0l0,0L50.9,27.5L50.9,27.5  L50.9,27.5L50.9,27.5z M67.4,50.5L67.4,50.5L67.4,50.5L67.4,50.5L67.4,50.5l0.2,0.2l0,0.1l0,0l0,0v-0.1l0-0.1l-0.2-0.1l0,0  L67.4,50.5L67.4,50.5L67.4,50.5L67.4,50.5z M71.4,54.4L71.4,54.4l0.1,0l0,0l0,0l-0.1,0l-0.1,0l-0.1,0l0,0l0,0L71.4,54.4L71.4,54.4z   M72.9,66.1L72.9,66.1L72.9,66.1L72.9,66.1L72.9,66.1L72.9,66.1L72.9,66.1l0-0.1l0,0L72.9,66.1L72.9,66.1z M52.8,92.3L52.8,92.3  l-0.1-0.2l-0.3-0.3L52,91.4l-0.1,0l0,0l0,0l0,0l0.1,0.2l0.1,0.1l0,0.1l0,0.1l0.1,0.1l0.2,0.2l0.2,0.3l0.1,0.1l0.1,0l0,0l-0.1-0.1  l-0.1-0.1l0,0L52.8,92.3l0.1,0.2l0.1,0.1l0,0.1v0l0.2,0l0.1-0.1l0-0.1l0-0.2l-0.1-0.1L52.8,92.3z M56.1,88L56,88l-0.1,0l-0.7,0  l-0.2,0l-0.2-0.1l-0.1,0l0.3,0.1l0.8,0.2l0.1,0.1l0.1,0.1l0,0l0.1,0l0.1,0l0-0.1L56.1,88L56.1,88z M56.9,85.9L56.9,85.9l-0.1,0.1  l0,0l0.1,0.1l0,0l0.1,0.1l0.1,0.1l0.1,0l0-0.1l0-0.1L57.1,86l0-0.1h0l0.1,0.1l0,0.1l0,0l0,0l0-0.1l0-0.1l0-0.1l0,0l0,0l0,0l0,0l0,0  l0,0l0,0l0-0.1l-0.2-0.1l0,0l-0.1,0l-0.1,0l-0.1,0v0l0.1,0.1l0,0.1L56.9,85.9L56.9,85.9z M57.5,86.9l-0.1-0.1l0,0.1h0l0.1-0.3l0-0.2  l-0.1-0.1l-0.1,0l-0.1,0.1L57,86.5l0.1,0.2v-0.1h0l0,0.1L57,86.8l0,0.1l0,0.1l0,0.1l0,0.1v0.1h0l0.1-0.1l0.1-0.1l0.3-0.1L57.5,86.9  L57.5,86.9z M59,86.9L59,86.9L59,86.9L59,86.9L59,86.9L59,86.9l-0.2-0.2l-0.1,0l0,0.1l0,0.1l0,0.1l0,0l-0.2,0.1l-0.3,0.1l0,0.1  l0.1,0.3l0.1-0.1l0.1-0.2l0.1-0.1l0.1,0l0.1,0l0-0.1l0,0L59,86.9L59,86.9L59,86.9z M55.6,97.8L55.6,97.8L55.6,97.8l-0.2,0.1L55.2,98  L55,98.1l-0.1,0.2l0,0l0.1,0.1l0,0l0.1,0l0,0l0,0l0,0l0-0.1l0-0.1l0-0.1l0.1,0l0.1,0l0.1,0l0.1,0l0.1,0l0-0.1L55.4,98l0-0.1l0.2,0  l0,0l0,0L55.6,97.8L55.6,97.8L55.6,97.8L55.6,97.8L55.6,97.8z M54.5,90.4l-0.3-0.2l-0.1,0l0,0v0l0.3,0.3l0.2,0.1l0.2,0.2l0.1,0.1  l0.1-0.1l-0.1-0.1L54.5,90.4L54.5,90.4z M56.6,17.2l0,0.2l0.1,0.3l0,0.1l0.1,0l0.1,0l0.1,0l0-0.2l-0.2-0.3l0-0.1l0-0.2L56.6,17  l-0.3-0.1L56.3,17l-0.1,0.2l0,0.1l0.1,0l0.1,0l0.1,0.1h0l0-0.1l0-0.1L56.6,17.2L56.6,17.2z M61.3,17l0.1-0.1l0-0.2l0-0.1l0,0l0,0  l0,0.1L61.2,17l-0.1,0.1L61,17.2l-0.1,0l-0.1,0v0l0.1,0.1l0,0.1l-0.1,0.2l0.1,0l0,0l0-0.1l0-0.1L61.3,17z M62.8,16.5L62.8,16.5  L62.8,16.5l-0.2-0.2l-0.1,0l0,0.1l0,0.1l0.1,0l0,0l0,0.1l-0.1,0.2l0.1-0.1l0.1-0.1l0-0.1L62.8,16.5L62.8,16.5L62.8,16.5z M61.6,16.3  l0-0.2l0.2-0.5l0,0l0,0l0,0l-0.2,0.2l0,0l0,0.1l0,0.1l0,0.2l0,0.1l-0.1,0.1l0,0.1l0,0.1l0,0.1l0,0l-0.1,0l0.1,0L61.6,16.3z M63,14  L63,14L63,14L63,14L63,14l-0.1-0.1l-0.1,0l-0.4,0.2l-0.1,0.1l0,0L63,14L63,14z M64.2,13.6l-0.8,0.1l-0.1,0l-0.2,0.1v0l0.2,0l0.1,0  l0,0l0,0l0,0.1l0,0l0-0.1l0,0.1l0,0.1l0.1,0l0.4-0.2l0,0h0l0.1,0.1l0.1,0L64.2,13.6L64.2,13.6z M72.9,75.3L72.9,75.3L72.9,75.3  l-0.3-0.1l-0.1,0l0,0.1l0,0l0,0l-0.1,0l0,0v0l0.1,0.1l0.1,0.1l0.1,0.1l0.1,0l0,0l0,0l0,0l0,0l0.1,0l0,0l0,0l0,0l0,0l0.1,0L72.9,75.3  L72.9,75.3L72.9,75.3z M70.3,86.1L70.3,86.1l-0.1,0.1l0,0.1l0.1,0.1l0.1,0l0-0.1l0-0.1L70.3,86.1z M63.1,16.5l0.1-0.2l0.1-0.1l0-0.1  l-0.1,0l-0.1,0.1L63,16.4L63.1,16.5L63.1,16.5z M60.3,17.3L60.3,17.3L60.3,17.3L60.3,17.3l0-0.1l-0.1,0l-0.1,0l-0.1,0l0,0l0,0l0,0  l0,0l0,0l0,0l0,0l0,0l0.1,0.1l0,0l0,0L60.3,17.3L60.3,17.3L60.3,17.3z M60.1,17.6L60.1,17.6L60,17.5L60.1,17.6l0,0.1l0.1,0l0.1,0  l0,0l0,0l0,0l0-0.1l0,0L60.1,17.6L60.1,17.6z M56.7,86.7L56.7,86.7L56.7,86.7L56.7,86.7L56.7,86.7L56.7,86.7L56.7,86.7l0.2,0l0.1,0  v0l-0.1-0.1l-0.1,0l-0.1,0v0l0.2,0l0-0.1l0-0.1l-0.1,0l0,0l-0.1-0.1l0,0l0-0.1l0,0l0,0v-0.1l0-0.1l-0.1-0.1l-0.2,0l0,0l-0.1-0.1  l-0.1-0.1l-0.1,0l-0.1,0l0.2,0.3l0,0.2l0,0.2l0,0l-0.1,0l0,0l0,0.1l0,0l0,0l0,0.2l0,0.1l0,0.1l0.1,0.2l0.1,0.2l0.2,0.1l0.2,0.1  l0.1-0.1l0-0.1L56.7,86.7L56.7,86.7z M58.3,17.7l0.1,0L58.3,17.7L58.3,17.7L58.3,17.7l0-0.1h0l-0.1,0l-0.1,0L58,17.6l0-0.1v0  L58,17.4l-0.1,0l-0.1,0l0,0.1h0l-0.1-0.1l-0.2,0l-0.1-0.1l0-0.1l-0.1,0l0,0.1l0,0.1l0,0l0,0l-0.2,0.1l0,0.1l0.1,0.1l0.2,0.1l0.1,0.1  l0.1,0.2l0.1,0.1v0l0,0l0-0.1h0l0,0l0,0l0,0h0v-0.1h0l0,0v0l0,0l0,0v0h-0.1v0l0,0l0,0l0-0.1v0.1l0,0l0,0l0,0v0.1l0.1-0.1l0-0.1h0v0  h0l0-0.1L58,18l0-0.1l0.1,0.1l0.1,0l0.1,0l0.1,0v0l0,0l0,0l0-0.1l0-0.1L58.3,17.7l0,0.1l0.1,0L58.3,17.7L58.3,17.7L58.3,17.7  L58.3,17.7L58.3,17.7z M60.9,17l0.1,0l0.1-0.1l0.1-0.1l0-0.1l0.1-0.2l0.1-0.2l0-0.1l0,0l0,0l-0.1,0.1v-0.1l-0.1,0.1l0,0.1l-0.1,0  l0,0l-0.1,0.2l0,0.1l0,0.1l-0.1,0.1l-0.1,0.1L60.5,17l-0.2,0.1v0l0.1,0l0.3-0.1L60.9,17z M60.6,15L60.6,15L60.6,15L60.6,15l-0.1,0  l0,0.2l-0.1,0.2l0,0.1l-0.1,0.1l-0.1,0.2l0,0.2l0.1,0.1l0.2-0.2l0.1,0l0.2-0.1l0.1,0l0.2-0.3l0.1-0.1l0.1,0h0.1l0.1-0.1l0.2-0.1  l0.1-0.1l0-0.1l0,0l-0.1,0.1L61.3,15l0,0h0l0,0l0,0l0,0l0-0.1l0-0.1l0,0l0,0l0,0l-0.2-0.2l-0.1-0.1l0,0l0,0l0,0l0,0l0,0l0,0l0,0.1  l0,0.2L60.6,15L60.6,15L60.6,15L60.6,15z M73.2,72.7L73.2,72.7l-0.1-0.1l-0.1,0l-0.1,0l-0.2,0l-0.1,0.1l0.1,0.1l0.1,0l0,0l0,0.1  l0.2,0.2l0.1,0l0-0.1l0-0.1L73.2,72.7z M38.5,86.8L38.5,86.8L38.5,86.8l-0.1,0l-0.1,0.1l0,0.1l0,0.1l0,0.1l0,0.1l-0.1,0l0,0  l-0.1,0.1l0,0L38,87.3l-0.1,0l-0.4-0.1l0,0l0,0.1l0.1,0.3l0.1,0.1l0.2,0.1L38,88l0.1,0.2l0.2,0.5l0.1,0.5l0.1,0.3l0.1,0.1l0,0  l0.1,0.1l0-0.1l0-0.1l0-0.1l0-0.1l-0.1-0.2l0.1-0.4l0.3-0.6v-0.7l0-0.1L38.5,86.8z M73.7,72.3l-0.1-0.1l-0.1,0l-0.1-0.1l-0.3-0.6  l0-0.1l0-0.1l0-0.1l0-0.1l0.1-0.1l0.1,0l0.1,0l0.1,0l0,0l0-0.1l0,0l0.1-0.1l0.1,0l0,0l0,0l0,0l0,0l0,0l0,0l0,0l0,0l0.1,0l0,0l0-0.1  l0-0.1l0-0.1l0-0.1l0-0.1l-0.3-0.3l-0.1-0.2l-0.2-0.2l-0.1-0.2l-0.1-0.1l-0.1-0.1l0-0.1l0-0.1l-0.1-0.1l-0.1-0.1l0-0.1l0-0.1l0-0.1  l0-0.1l0-0.1l0-0.1l0.1-0.1l0-0.1l0-0.1l0-0.1l0-0.1l0,0l0,0l0,0l0,0.1v0l-0.1,0l0,0.1l0,0.2l-0.1-0.1l-0.1-0.1l-0.1-0.2l0,0l0,0  l0-0.1l0,0l0.1,0l0,0l0-0.1l0,0l0,0l0,0v0l0.1,0l0.1,0l0,0l0-0.1l-0.1-0.1l-0.1,0l-0.1,0.1l-0.1-0.1l-0.1-0.2l-0.1-0.1l0-0.1l0-0.1  l0.1,0l-0.1-0.1l0-0.1l0-0.1l0-0.1l0-0.1l0-0.1l0.1,0l0.1,0l0.2,0.1l0,0l0,0.1l-0.1,0l-0.1,0l0,0l0,0.1l0.1,0l0.1,0.1l0.1,0l0-0.1  l0.1-0.1l0-0.1l0.1-0.1l0-0.1l-0.1,0l-0.1,0l-0.1-0.1l0-0.1l0-0.1l0.1-0.1l0-0.1l-0.1,0l0,0l0,0h0l-0.1-0.2l0-0.1l0,0l0,0l0,0  l-0.1,0l-0.1-0.1l0-0.1l0-0.1l0-0.1l-0.1,0l-0.1,0l0,0l0-0.1h0l0,0.1l0.2,0.2l0.1,0.2l0.1,0.3l0.1,0.1l0-0.1l0,0l0,0v0l0.1,0l0,0  l0,0l0-0.1l0,0l-0.1,0l-0.1-0.1l0,0l-0.1,0L72.3,66l0-0.1l0-0.1v-0.2l0-0.1l-0.1-0.1l0-0.1l0.1-0.1l0.1-0.1l0.1-0.1l-0.1,0l0-0.1  l0-0.2l-0.1,0l0,0l0.1-0.1l0-0.2l0-0.1l0.1-0.1l0.1,0.1l0.1,0.3l0,0.4l0,0.1l0.2,0l0.1,0l0-0.3l0-0.5l0-0.1l-0.2-0.1L72.4,64  l-0.1-0.7l-0.2-0.5l-0.1-0.1l-0.2-0.1l-0.1-0.1l0-0.1l0.1,0l0.1,0.1l0,0.1l0.1,0.1l0.1,0L72,62.3L71.9,62l0.1-0.1l0-0.3l0-0.1  l-0.1-0.1l-0.2-0.2l-0.1-0.2l0-0.1l0-0.1l0-0.4l0-0.1l-0.1-0.2l-0.2-0.6l0,0.1l0,0.1l0-0.1l0,0l0,0l0-0.1l0.1,0l0,0l0,0l0-0.1l0-0.5  l0,0.1l0,0l0.1,0l-0.1-0.3l0-0.1L71,58.4l0,0l-0.1-0.2l0-0.1L70.6,58l0,0l0.1,0L70.3,57l-0.1-0.5l-0.1-0.6l0,0.1l0,0l0,0.1h0l0-0.1  l0-0.1l-0.1,0l-0.1,0h0l0-0.1l0,0l0.1,0l0.1,0l0-0.1l0-0.2l0-0.1l0.1,0l0-0.1l0,0l0,0l-0.1,0v0l0.1,0l0.1,0l0.1-0.1l0.1-0.1l0,0  l-0.1,0l-0.1,0l-0.1,0L69.9,55l0-0.1l0-0.2l0-0.1l-0.2-0.1l0,0l0-0.1l0-0.3l0-0.1l0,0l0,0l0,0l-0.1,0l0,0.1l0,0l0,0v0l-0.1,0.1  l0,0.1l0,0.1l0.2,0v0l-0.1,0l-0.1,0l0,0l0,0.1l0,0h0l0,0l0,0l0,0l0-0.1l0-0.1l0-0.1l0-0.1l0,0L69,54.2l0,0l0,0L68.8,54l0,0l0-0.2  l0-0.1h0l-0.1,0.3L68.4,54l-0.2-0.1l-0.1-0.1l0.1-0.1l0.1,0l0.1,0l0.1,0.1l0,0l0.1-0.2l-0.2,0l-0.2-0.1l-1.1-1.4L67,51.5l-0.1-0.4  l0-0.1l0,0l0,0l0,0l0,0l0,0l0,0l0.1,0l0.1,0l-0.1-0.1l-0.1-0.1l-0.1,0l-0.3-0.3l-0.1-0.1L66,50.3L65.9,50l0-0.3l0-0.2l0.1,0l0.2,0  l0.1,0l0-0.1l0.1,0l0.1,0l0.1-0.1l-0.1-0.1l0,0l0,0l0,0l0,0.1l0,0l-0.1,0l-0.1,0L66,49.2l-0.1-0.1h0l0,0l0,0l0,0l0,0l0,0.1l0,0l0,0  l-0.1,0v0l0.1,0l0,0.1l0,0.1l0,0.1l0,0.1l0.1,0.3l-0.1-0.1l-0.1,0l-0.1,0.1l-0.1,0l0.1-0.1l0.1-0.1l0.1-0.1l0-0.1l0,0l-0.1-0.2l0,0  l-0.1,0l-0.1,0.1l-0.1-0.1l-0.1-0.1l-0.1-0.1l0-0.2l0.1-0.1l0.2-0.2l0.1-0.1l-0.2,0l-0.2,0l-0.2,0l-0.1-0.1h0l-0.1,0l-0.1,0l-0.1,0  l-0.1-0.1l0-0.1l0.1,0l0.2,0.1l-0.2-0.3l-0.1-0.1L64.5,48l0,0l-0.1,0l0,0.1l0,0.1l-0.1,0l-0.1,0l-0.3-0.2l-0.1,0l0,0.1l0,0.2l0,0  l-0.2,0.2l0,0l-0.1,0l0-0.1l0,0l-0.1,0l-0.1,0h0l-0.2-0.1L63,48.1l0-0.1l-0.1-0.4l0-0.1l0.1,0l0,0l0,0l0,0l0,0l0,0l0,0l-0.1-0.1  l-0.1-0.2l-0.1-0.1l-0.1-0.2l-0.1-0.1l-0.2-0.2l0,0l0-0.1l0,0l-0.1,0l0,0l0,0l0,0l-0.1,0l0,0l0-0.1l0-0.1l0,0l0-0.1l0-0.1l0,0l0,0  l-0.2,0l-0.1,0l-0.1,0l0-0.1l0,0l0,0h0l0,0l0.1,0v-0.1l-0.2-0.1l-0.1,0l0-0.1l-0.1,0l-0.1,0l-0.1,0l-0.1-0.1l-0.1,0l-0.2,0l-0.5-0.3  l0.2,0l0.8,0.4l0.3,0.1v0l-0.2-0.1L61,45.6l-0.8-0.6l-0.8-0.7l-0.1-0.1l0,0l0-0.1l0,0l-0.1,0L59,44.3l0,0l0,0l0,0l-0.1,0l-0.1,0  l-0.2,0v0l0.2-0.1l0,0l0-0.1l0,0l0,0l0,0l0,0L59,44l-0.3-0.5l-0.1-0.1l0-0.3l-0.1-0.2l-1.1-0.8l-1.2-0.9l-0.6-0.6l-0.1-0.1l0,0l0,0  l-0.1-0.1l0,0l-0.1-0.1l-0.1-0.2L55,39.5l-0.2-0.2L54.6,39l-0.1-0.1l-0.1-0.1l-0.2-0.1l-0.2,0l-0.1,0.1l0,0l0,0l0,0.1l-0.2-0.1  l0-0.1l0.1-0.1l0.1,0.1h0v0l-0.3-0.1l-0.2,0l-0.2,0l-0.2-0.1l-0.1-0.1l0,0l0.1,0l0.4,0l0.2,0.1l0.1,0l0.1,0l0.1,0.2l0.2,0.1l0.1,0  l0.1-0.1l0,0l-0.1-0.1l0-0.1l-0.1-0.3L54.2,38l-0.1-0.1l0-0.1l0-0.1l0,0l-0.1,0v-0.1l0.1,0l0.1-0.1l0.1-0.1l0.1-0.1l0.1-0.1l0.1-0.1  v0l-0.6-0.7l-0.1-0.1l0-0.1l0.1-0.1l0-0.1l-0.1,0l-0.1,0.1l-0.1,0l-0.1,0l0,0l0,0l-0.1,0l0,0l0,0.1l0,0.1l0,0.1l-0.1-0.1l0-0.1  l0-0.1l-0.1,0l0,0l0,0l-0.1,0l0-0.1l0.1-0.1l0.1,0l0.1,0h0l-0.1-0.1l-0.1-0.1l-0.2-0.2l-0.2-0.2l-0.1,0l-0.1-0.1l0,0l-0.3-0.3  l-0.1,0l-0.2,0l-0.1,0l-0.1,0l-0.1,0l0.1,0l0-0.1L52,34.9l-0.3-0.3l-0.2-0.3l0,0l-0.1-0.1L51.1,34l-0.1-0.1l0-0.1l0-0.1l-0.2,0  l-0.2-0.3l-0.3-0.6L50,32.3l0-0.1l0-0.1l0-0.2l0-0.2l-0.1-0.1l0,0l0,0.4l0,0.2l-0.1,0.1l0-0.1l0-0.1l0-0.1l-0.1-0.1l0,0l0.1-0.3  l0-0.1l-0.1-0.1l-0.1-0.1l0,0l-0.1,0l0,0l0,0L49.2,31l0.1,0l0.1,0l0,0l0,0.1l0.1-0.1v0l-0.1,0l-0.2-0.1l-0.1-0.1L49,30.7l0-0.1  l0-0.2l0-0.1l0-0.1l0-0.1l0-0.1l0.1-0.2l0.1-0.3l0.2-0.2l0.2,0.1l0-0.1l0.1,0l0.2-0.1l0-0.2l0-0.2l0.1-0.4l0,0l0.1,0l0.1,0l0.1-0.2  l0,0l0.1,0l0.1,0l0-0.1l0-0.1l0,0l0,0l0-0.1l0-0.1l0.1,0.1l0-0.1L50,27.6l0-0.2l0-0.1l-0.1-0.1v0l0.1,0l0.1-0.2l0.1,0.1l0-0.3  l0.1-0.5l0-0.3l0,0l0,0l0-0.1l0-0.1l0-0.1l0,0l0,0.1l0,0l0-0.1l0.1-0.1l0.1,0l0,0.2l0-0.1l0-0.2l0-0.1l0-0.1l0.1-0.2l0-0.1l0-0.1  l0.1,0l0.1,0l0,0l0-0.1l0.1-0.2l0-0.1l-0.1,0l-0.2,0l-0.1,0l0-0.1l0.2-0.1l0.1-0.1l0-0.1l0.1,0.1l0,0l0-0.1l0-0.2l0-0.1l0.1-0.2  l0-0.1l0-0.1l0-0.1l0-0.1l0.1-0.1l0.3-0.3l0.1-0.1l0-0.1h0l0,0.1l0.1,0.1l0.1,0.1l0.1,0l0-0.1l0.1-0.3l0-0.1h0l0,0.1l0,0.1l0,0.1  l0,0.1l0.1-0.1l0.2-0.1l0.1-0.1l0.1-0.1l0.1-0.2l0-0.1l0,0.1l0,0l-0.1,0.2l0.1-0.1l0.2-0.2l0.1-0.1l0.2-0.2l0.1-0.1l0.2-0.3l0.1-0.2  l0,0l0.1-0.1l0,0l0,0v-0.1l0.1,0l0,0l0,0v0h0v0.1l0.4-0.1l0.1,0l0.2-0.1l0.1,0l0.1-0.1l0.1-0.1l0-0.1l0,0l0,0l0,0l0-0.1l0,0  l-0.1-0.1l0,0.1l0,0l-0.1,0l0-0.1h0l0.1,0l0.1,0l0.1,0.1l0.1,0.1l0.1-0.1l0-0.1l0-0.1l0-0.1l0-0.1L55,20.8l-0.1-0.1l0,0l0,0l0,0l0,0  l0,0l0,0.1l0.1-0.1l0-0.2l0-0.3l-0.1-0.1l-0.1,0l-0.2,0.1l-0.1,0.1h0l0-0.1l0-0.1l0-0.1l0,0l0,0L55,20l0,0l0-0.1L55,19.8l0-0.1  l0.1-0.1v0l-0.2,0.1l-0.1,0l-0.1-0.1l0.4-0.2l0.1-0.1l0.1,0l0,0l0,0l0,0l0-0.1l0,0l0,0l0,0l-0.1-0.1l0-0.1l0-0.1l0.1,0.1l0.1,0.1  l0.1,0l0.1,0l0.1,0l0.1,0l0.1,0l0.1-0.1l0-0.1l-0.1-0.1l-0.2-0.1v0l0.1,0l0.2,0.1l0.1,0l0.1,0l0,0l0.1,0l0,0l0.1-0.1l0.1,0l0,0l0,0  l0.1,0.1l0.1,0.1l-0.1-0.4l-0.1-0.1l0,0.1l-0.1-0.1L56.1,18L56,17.8l0-0.1l0.1,0.1l0.1-0.1l0-0.1l-0.1-0.2L56,17.3l-0.1-0.1l0-0.1  l0.1-0.1l0.1,0.1h0l0-0.1l0.1-0.1l0-0.1l0-0.1l-0.1,0l-0.1,0l-0.1-0.1l-0.2,0l-0.1,0l0-0.1l0-0.1l0-0.1l-0.1-0.1v0l0.1,0l0,0v0  l-0.2-0.1l-0.1,0l0.1,0l0.1,0l0.2,0.1v-0.1h0v0l0.1-0.1l0.1,0l0.1,0.1l0.2,0l0,0l0-0.1l0,0l0.1,0l0.1,0l0,0l0,0l-0.1,0.1l0,0l0.1,0  l0,0l0,0.1l0,0l-0.1,0l-0.1,0l-0.1,0.1l0.1,0.1l0.1,0.1l0.1,0h0l0,0l0,0l0,0l0.1,0.1l0,0.1l0.1,0L57,17l0,0l0,0l0-0.1l0-0.1h0  l0.1,0.1l0.1,0.1l0.1,0l0.2,0v0l-0.1,0l0-0.1l0-0.1l0,0l0,0l-0.1-0.1L57,16.7l-0.2-0.2l0,0l0,0l0,0l0-0.1l0.1,0l0.2,0.1l0.1,0l0.1,0  l0.1,0l0.1,0l0.1,0l0.1,0l0.1,0l0.1-0.1l0-0.1l-0.2-0.1l0-0.1l0.1,0.1l0.1,0l0.1,0l-0.1-0.1l0.1,0l0,0l0,0l0,0l0,0v0l0.1,0l0,0  l0,0.1l0,0.1l0,0l0-0.1l0-0.1l0-0.1h0l0,0.1l0,0l0.1-0.1l0.1-0.1l0,0l0,0l0,0l0,0l0,0.1l0,0l0,0l0.1,0l0,0l0,0l0,0l0.1,0l0.1,0  l0.1,0l0.1,0v0l-0.3,0.2l-0.2,0.2v0l0.1,0l0.3,0l0.1,0.1v0l0.1,0l0.1,0l0.1,0l0.1,0l0-0.1l0.1-0.2l0.1,0v0l0,0l0,0l0,0l0,0l0.1,0  l0.1,0l0.1,0l0.1,0l0.1,0l0.1,0l0.1,0l0.1,0l0.1,0l0.1-0.1v0l-0.1,0l0-0.1l0-0.1l0-0.1l0.1,0l0,0l0,0l0-0.1l0.1-0.1l0-0.2l0-0.3  l-0.1,0l-0.1,0l-0.1,0l0,0l0-0.1l0-0.2l0-0.1l0,0l0,0l0-0.1v0l0.2,0l0.2,0l0.1-0.1v0l-0.2-0.1l0,0l0-0.1l0.2,0.1l0,0l0,0.1l0.1,0  l0.1,0h0l0.1,0l0.1,0l0.1,0l-0.1,0v-0.1l0-0.1l0-0.1l0-0.1l0,0l0.1,0l0,0.1l0,0.1l0,0.1l0,0.1l0.1,0l0.1,0l0.1,0l0.1,0l0-0.1l0-0.2  l0.1,0l0,0l0,0l0,0l0,0l0,0l0.1,0l0,0l-0.1,0l0,0l0,0l0.1,0v-0.1l0,0l0,0v0l0,0l0.1,0l0.1,0l0-0.1l0-0.1v0l0,0l0,0h0l0,0.1l0.1,0  l0.1,0l0-0.1l0,0l0.1,0l0.1,0l0.1-0.2l0,0l0,0l0,0l0.1,0l0.1,0l0,0l0-0.1l0,0l0.1,0l0-0.1l-0.1-0.1l-0.1,0l-0.1,0v0l0.1,0l0.1,0  l0.1,0l0,0.1l0-0.1l0,0.1h0l0-0.1l0,0l0,0v0l0,0h0l0,0.1l0,0.1l0,0l0.1,0l0.1-0.2l0-0.1l0,0.1h0l0.1-0.1l0,0l0-0.1l0.1,0l0.1,0  l0.1,0.1l0,0.1l0,0l0,0l0,0l0,0.1l0,0l0,0l0,0v0.1l0.1,0.1l0.1-0.1l0.1-0.1l0.1-0.1l-0.3-0.3l-0.1,0l-0.2-0.2l-0.2-0.1l-0.1-0.1  l-0.1-0.1l0-0.1l0-0.1L63,11.9l-0.2-0.1l-0.1,0l-0.1,0l-0.1,0l-0.3,0.2l-0.1,0l-0.4,0.1h-0.1l-0.3,0l-0.1,0l0,0l-0.1,0.1l-0.1,0  l-0.1,0l-0.1,0l-0.1,0l-0.1,0l0-0.2l-0.1-0.1l-0.1,0l-0.1,0l-0.2,0.2L60,12.3l-0.1-0.1l-0.2-0.5l-0.2-0.2l-0.2,0l-0.2,0.1l-0.3-0.1  L58.4,11l-0.2-0.1l-0.3-0.1l-0.1,0l-0.1-0.1l0-0.1l0.1-0.1l0.1-0.1l0.1-0.1l0-0.1L57.8,10l-0.1-0.1l-0.1,0l-0.1,0l-0.1,0.1l-0.1,0  L57.1,10L57,9.9L57,9.8l-0.1-0.1l-0.2,0l-0.3,0l-0.1,0l-0.1-0.1l0,0l-0.1-0.1l0,0l-0.1,0l0,0l-0.2,0.2l-0.1,0.1l-0.1,0l0,0l0-0.1  l0-0.1V9.5l0.1-0.3l0-0.2l0-0.2l0,0l-0.1-0.1l0,0l0-0.1l0-0.1V8.5l0-0.1l0-0.1l0-0.1l0-0.1l0.1-0.1L55.6,8l0-0.1l-0.2-0.5l0-0.1  l-0.1-0.1l-0.3,0l-0.1-0.1l-0.1-0.1l0-0.1l0-0.3l0-0.2V6.5l0-0.1l0.1-0.1l0-0.1L55,5.5L55,5.4l0.1-0.1l0.1,0l0.1,0.1l0.1,0.1  l0.1,0.1l0.1,0l0.1-0.1l0.1-0.4l0-0.1L56,4.8l0.1-0.1l0-0.2l0-0.1l0.1-0.1l0.2-0.1l0-0.1L56.4,4l-0.1,0l-0.2,0L56,4l0,0l-0.1-0.2  l-0.2-0.2l-0.1-0.1l0,0l-0.1,0l-0.1,0l-0.1,0.1l0,0l-0.1,0l-0.1-0.1l0-0.1l-0.1-0.1L55,3.2l-0.3-0.1l-0.1,0l-0.1,0l-0.1,0l0,0.2  l-0.1,0.1l-0.9,0.2l-0.1,0l-0.1,0l-0.1,0l-0.1-0.1l0-0.1l0-0.3l-0.1-0.2l-0.2-0.1l-0.2-0.1l-0.4,0l-0.5,0l-0.1,0L51.1,3L51.1,3  l-0.1,0l-0.2,0l-0.1,0l-0.1,0l-0.1,0l0,0l0,0.1l0,0.1l-0.1,0l-0.1-0.1l-0.4-0.4l-0.1-0.1h0v0l-0.1-0.1l-0.1,0l-0.1,0l-0.1,0  l-0.1-0.1l-0.1,0l-0.2,0L49,2.2l-0.5,0l-0.1,0L48.3,2l0-0.1l0-0.3l0-0.1l-0.1-0.1l-0.3-0.2l-0.1-0.1l-0.1-0.3v0l-0.1-0.2l0,0l-0.1,0  l-0.1,0l0,0l-0.1,0l-0.1,0l-0.1-0.1l-0.1-0.1L47,0.3L47,0.2l0-0.1L46.9,0l-0.1,0l-0.1,0.1l-0.2,0.2l-0.1,0.1l-0.1,0.1l0,0.1l0,0.1  l-0.1,0.1l-0.1,0l0,0l0,0l-0.1,0l0,0l0,0l0,0l0,0l0,0l0,0l0,0l-0.5,0.1l-0.1,0L45,1.1l-0.2,0.1l-0.2,0.2l-0.1,0l-0.1,0l-0.2-0.1  l-0.1,0L44,1.4l0,0.1l0,0.1l0,0.1l-0.2,0.1l-0.2,0L43.6,2l0.2,0.9l0,0.1l0,0.1l-0.3,0.2l-0.1,0.1l-0.2,0.3L43,3.8l-0.1,0.1l-0.1,0  l-0.1,0l-0.2-0.1l-0.1,0l0,0l-0.1,0.1l0,0l-0.1,0l0,0l0,0l0,0l0,0l0,0l0,0l-0.1,0l0,0l-0.1,0.1l-0.4,0.3l-0.1,0.1l-0.6,0.4l-0.1,0  l-0.1,0l-0.1-0.1L40,4.4l-0.1-0.1l0-0.1l0-0.1l0-0.1L40,3.8l-0.2,0L39.2,4l-0.2,0L39,4l-0.1,0.1l0,0.1l-0.1,0.1l-0.1,0.1l-0.1,0.2  l-0.1,0.2l0,0.4l0,0.1l-0.1,0.2l0,0.1v0.1l0,0.1l0,0.1l-0.1,0.1L38.2,6l-0.1-0.1L38,5.9l-0.1,0l-0.1,0l-0.1-0.2l-0.1-0.1l0,0l-0.1,0  l0,0l-0.1-0.2l-0.1,0l0,0l-0.1-0.2l0-0.1l-0.1-0.1l-0.4-0.4L36.2,4l-0.1,0l-0.3,0.2l-0.1,0.1l0,0.1l0,0.1l-0.1,0.1l-0.1,0.2l0,0.1  l0,0.3l0,0.1l-0.2,0.3l-0.1,0l-0.1,0L35,5.4l-0.2-0.2l-0.2-0.4l0-0.1l0-0.1l0-0.1l0-0.1l-0.1-0.1l-0.1-0.1l-0.1-0.1l-0.1-0.1l-0.1,0  L34,4L34,4l-0.3,0.4l-0.1,0.3l0,0.1L33.4,5L33,5.2l-0.2,0.1l-0.1,0.2l0,0.1l0.1,0.1l0,0.1l0,0.1L32.6,6l-0.1,0l-0.1,0l-0.1,0.1  l0,0.1l0,0.1l0,0.1l-0.1,0.1l-0.1,0l-0.1-0.1l-0.2-0.2l-0.2-0.1l-0.1-0.1l-0.1-0.1l-0.2-0.4l0-0.1L31,5.4l-0.1-0.1l-0.1-0.1  l-0.3-0.1l-0.1-0.1L30,4.9l-0.1-0.1l-0.3,0l-0.1,0l0,0l-0.1-0.1l0,0l-0.1,0l0,0l0,0.1l0,0l-0.1,0l0-0.1l0-0.1l-0.1-0.1l-0.1-0.1  l-0.2-0.1l-0.2,0l-0.1,0.1v0l-0.1,0.2l-0.1,0.1l-0.1,0.1l-0.1,0l-0.1,0l-0.1,0l0,0.1l0,0.1l0,0.1l0.1,0l0,0l0,0.1l0,0l0,0.1  l-0.8,0.8l-0.1,0.1l0,0.2l0,0.1l-0.1,0.1l-0.1,0l-0.1-0.1l-0.1,0l-0.1,0l-0.1,0.1l-0.1,0.1l0,0.1l0,0.1l0.1,0.2l0,0l0.1,0l0,0v0  l0,0.1l0,0l0.1,0.1l0.1,0.1l0.1,0.1l0,0.1L27,7.9l0.4,0.2l0.5,0.5L28,8.7l0.1,0.1l0,0.1L28.2,9l0,0.1l0.1,0.1l0.2,0.1l0.1,0.1  l-0.1,0.1l0,0l0,0l0,0l0,0l0.1,0.3l0.2,0.1l0.3,0.1l0.2,0.2l0.2,0.5l0.1,0.3l0,0.4l0,0.2l0,0.2l0,0.1l0,0.1l0,0l0,0l0.3,0l0.1,0  l0.2-0.1l0.1-0.2l0.1-0.2l0-0.6l0.1-0.1l0.1,0.1l0.1,0.3l0,0.3l0,0.1l0.1,0.1l0.1,0l0.5-0.2l0,0l0,0l0.1,0.1l0,0.1l0,0.1l0,0.5  l0,0.2l0.1,0.2l0,0l0,0l0,0l0,0l-0.1,0.1l-0.2,0.3L31.3,13L31,13.5l0.1,0l0.1-0.1l0.1-0.1l0.1,0l0,0.1l-0.2,0.3l0,0.1l0,0.3l0,0.1  l-0.1,0.1l-0.2,0.1l-0.1,0.1l-0.1,0.1l0.1,0l0.1,0l0.1,0l0.1,0l0.1,0.1l0.1,0.1l0,0.1l0,0.1l-0.1,0.1v0.1l0,0.1l0,0l0.1,0l0.1,0  l0.1,0.1l0.1,0.3l0,0.1l0,0.1l0,0l0.1,0l0.1,0L32,16l0.1,0.1l0.1,0.3l0.2,0.4l0.1,0.2l0.2,0.2l0.1,0.1l0,0l0.1,0l0.1,0l0.1,0l0.1,0  l0.1,0.1l0.1,0l0.1,0l0.1,0l0.1,0l0.1,0l0.4,0.2l0.2,0.1l0.1,0l0,0l0.2,0l0.1-0.1l0,0l0,0l0,0l0.1,0l0.1,0.1L35,18l0.1,0.1l0.1,0  l0.1,0l0.1,0l0.1,0v0l0,0v0l0.4,0.1l0.1,0.1l0.2,0.3l0.1,0.1l0,0l0,0l0.1,0l0.1,0l0.1,0l0.1,0l0,0l0-0.1l-0.1-0.1l0-0.1l0-0.1l0,0  l0.1,0l0.1,0l0.1-0.1l0,0l0-0.1l0-0.1l0-0.1l0.1-0.1l0.1-0.1l0.1-0.1l0.1,0l0.1,0l0.1,0l0.1,0l0.1-0.1l0.1,0l0.5-0.2l0.1-0.1l0.1,0  l0.1,0l0.2,0l0.3-0.3l0.2,0l0,0l0.1,0.1l0.1,0l0.1,0l0.1,0l0.1,0l0.2,0.1l0,0l0,0.1l0.1,0.1l0,0l0,0l0.1,0l0.1,0l0.1,0l0.1,0l0.1,0  l0,0l0.1,0.1l0.1,0.2l0.1,0.1l0.1,0l0.1,0l0,0l0,0.1l0.1,0.1l0,0.1l0.1,0l0.1,0l0.1,0l0.1,0.1l0.1,0.2l0.1,0.1l0.3,0.2l0.4,0.1  l0.1,0.1L42.3,19l-0.4,0.6l-0.1,0.1l-0.2,0.1l-0.2,0l-0.2-0.1l-0.1,0.3h0l-0.4,0.3l0,0.1l0.2,0.1l0.3,0.1l0.9,0l0.1,0l0.1,0.2  l0.1,0.1l0.2,0.1l0.1,0.1l0,0.1l0,0.1l0,0.1l0,0.1l0,0.1l0,0l-0.1,0l-0.1,0l0,0.1l0,0.1l0,0.1l0,0.1l0.2,0.1l0.3-0.1l0.3-0.1l0.3,0  l0.6,0.3l0,0.1l0,0.1l0,0.2l0.1,0.1l0.2,0.2l0,0.1l0,0l-0.1,0l0,0l0,0l0,0.1l0,0.1l0,0.1l0,0.1l0,0.1l-0.1,0.1l-0.1,0l-0.2,0l-0.1,0  l0,0l0,0.1l-0.1,0.1l-0.1,0.1l-0.4,0.2L43.3,24l0,0.1l0,0l0.2,0l0.1,0l0,0l0,0.1l0,0.1l-0.1,0.2l-0.1,0.1l-0.2,0.1L43.2,25L43,25  L43,25l-0.1,0l-0.1,0.1l-0.1,0.1l-0.1,0.1l-0.2,0.5l-0.1,0.1l-0.1,0l-0.1-0.1l-0.1,0l-0.1,0L42,25.9l-0.1,0l-0.2,0l-0.1,0l-0.4-0.2  l-0.2-0.1l-0.1,0L41,25.5l-0.1-0.1l-0.1-0.1l-0.1,0l-0.1,0l-0.3,0.2l-0.1-0.2L40,25.3l-0.1-0.1l-0.5,0.1l-0.1,0l0,0l0,0l0,0.1  l-0.1,0l-0.1,0l-0.1,0l-0.3-0.2l-0.1,0l-0.1,0l0,0.1l0,0.1l0.1,0.4l0.1,0.1l0.2,0.1l0.1,0.1l0,0.1l0,0.1l0,0.1l0.1,0.1v0l0,0v0  l0,0.1l-0.1,0l-0.1,0l-0.1,0l0,0.1l0,0.2l0,0.1l-0.1,0.1l0,0l0,0l-0.1,0l-0.2,0.1l-0.1,0.1l-0.1,0L38,27.5l-0.1,0.2l-0.1,0.1  l-0.2,0.1l-0.1,0.1L37.4,28l0.1,0l0.1,0l0.1,0l0.1,0.2l0,0l0,0l0.2,0.1l0.2,0.1h0l0.1-0.1l0.1,0l0.1,0l0.7,0.3l0.3,0.2l0.1,0.1  l0,0.1l0,0.1l0.1,0.1l0.2-0.1l0.1,0l0.1,0.1l0.1,0.1l0.1,0.1l0.1,0.1l0.1,0l0.1,0l0.1,0.1l0.2,0.3l0.1,0.1l0.1,0l0.2,0l0.1,0  l0.1,0.1l0.1,0.1l0.2,0.3l0.1,0.1l0.2,0.1l0.1,0.1l0.2,0.2l0.1,0.1l0.1,0l0.1,0l0.1,0l0,0l0.1,0.1l0.1,0l0.1,0l0.3,0l0.2,0.1l0.1,0  l0.4,0l0.2,0.1l0.1,0.2l0.1,0.1l0.1,0l0.1,0l0.1,0l0.1,0l0.3,0.2l0.2,0.1l0.1,0l0.1,0l0.1,0l0.1,0l0.2,0.3l0.1,0.1l0,0.1v0.1l0,0.1  l-0.1,0l-0.1,0l-0.1,0l-0.1,0.1l-0.1,0.2l-0.1,0.4l0,0.3l0.1,0.2l0.2,0.1l0.2,0.1l0.1,0.1l0,0.1l0,0.1l0,0.1l0.1,0.1l0.3,0.2l0,0  l0.1,0.1l0,0l0.1,0l0.2,0l0,0l0,0l0,0.1l0,0.1l0,0.2l0,0.1l0.1,0.1l0.1,0.1l0.1,0.1l0.1,0l0,0l0,0l0,0l0.1,0l0,0l0-0.1l0-0.1  l0.1-0.1l0.1,0l0.1,0.1l0.1,0.1l0,0.1l0.1,0.2l0,0l0,0l0,0l0,0l0,0l0.1,0l0,0l0.1,0.2l0.1,0l0.1,0.1l0.1,0.1l0,0.1l0,0.2l0,0.1l0,0  l0.2,0.1v0l0.1,0.2l-0.1,0.5l0.1,0.2L49,38l0.2,0.3l0.1,0.2l0.1,0.1l0.1,0.3l0.1,0.1l0.1,0.1l0.3,0.1l0.2,0.1l0.2,0.2l0.4,0.5  l0.1,0.1h0l0.6,0.7l1.1,0.9l0.1,0.1l0.1,0l0.1,0l0.1-0.1l0-0.1l0-0.1l0,0l0.1,0l0.1,0l0,0.1l0,0.1l0,0.1l0,0l0.1,0.1l0,0l0,0.1  l-0.1,0.1l0,0.1l0,0.1l0.2,0.3l0.3,0.3l0.1,0.1l0,0l0,0.1l0,0l0.1,0.3l0,0.1v0l0.1,0l0.1,0.1l0.1,0l0.1,0l0.1,0l0.2-0.2l0.1,0.1  l0,1.9l0,0.2l0.1,0.1l0.1,0.2l0.1,0.1l0.1,0.1l0.1,0l0.1,0l0,0.1l0,0.4l0,0.1l0.1,0.3l0.1,0.2l0.1,0.1l0.2,0v0.1l0,0l0,0l0.1,0  l0.1-0.1l0-0.1l0-0.1l0-0.1l0.2-0.1l0.1-0.1l0-0.1l0.1-0.2l0.2,0l0.1,0.2l0,0.3l0,0.2l0,0l0,0l0,0v0l0,0l0,0l0,0l0,0l0.1,0.2  l0.1,0.1l0.1,0.1l0.2,0.1l0,0l0,0.1l0,0.2l0,0l0.1,0l0.1,0l0.2,0l0.3,0l0.1,0l0.1,0.1l0.1,0.1l0.1,0.1l0.1,0.4l0,0.1l0.1,0.1  l0.1,0.1l0.1,0.1l0.1,0l0.1,0l0.1,0l0.2,0.1l0.2,0.3l0.1,0.1l0.2,0.1l0.2,0l0.4-0.1l0.1,0l0,0l0,0.1l0,0.1l0,0.1l0,0.1l0,0.1  l-0.1,0.1l-0.1,0.1l-0.2,0.3l-0.1,0.1l-0.1,0l-0.2,0l-0.1,0l-0.4,0.3l-0.1,0l-0.1,0l-0.1,0l-0.1,0l-0.1,0l-0.1,0.1l-0.2,0.4l0,0.1  l0.1,0.1l0.4,0.2l0.1,0.1l0,0.1l0,0.3l0,0.1l0.1,0.1l0.1,0.1l0.2,0.1l0.1,0.1l0.3,0.6l0.1,0.1l0,0l0-0.1l0.1,0l0,0l0.1,0l0,0l0,0  l0,0l0,0.1v0l0,0l0,0l0,0l0,0l0.1,0l0,0.1l0,0.2l0,0.1l0.1,0.1l0.3,0l0.1,0l0,0.1l0,0.3l0,0.1l0.1,0.1l0.3,0.2L62,55l0,0.1l0,0.1  l0,0.3l0,0l0,0l0,0l0,0l-0.1,0.1l0,0.1l0,0.2l0,0.1l-0.1,0.1l0,0l-0.1,0.1l0,0l0,0.1l0.1,0.1l0,0.1l-0.1,0.1l-0.1,0l-0.2,0l-0.1,0  l-0.3,0.1l-0.1,0l-0.1,0.1l0,0.1l0,0.1l0,0.1l0,0.1l0.1,0.1l0.1,0.1l0.1,0.1l0.4,0.3l0.1,0.1l0,0.1l-0.1,0.1L61,58.1l-0.1,0.1l0,0.1  l0.1,0.1l0,0.1L61,58.6l0,0.1l0.1,0.1l0,0.1l0,0.1l0.1,0.2l0,0.2L61,59.5l0,0.1l0,0.2l0,0.1l0,0.1l-0.1,0.1l0,0.1l0,0l0,0.1  l-0.1,0.2l-0.1,0.1l-0.1,0.1l-0.1,0l0,0l0,0l0,0l-0.1,0l-0.1,0l0,0.1l0,0.1l0,0.1l-0.1,0.2l0,0.1l0,0.1l0,0.1l0.1,0.1l0,0.1l0,0.1  l0,0.2l-0.2,0.6l0,0.2l0,0.1l0.1,0.1L60,63l0,0.1l0,0.1l0,0.1l0.1,0.1l0.1,0l0.2,0l0.1,0l0,0.1l0,0.1l0,0.1l0,0.1l0.1,0.2l0,0.1  l0,0.1l0,0.1l0,0.1l0.1,0.2l0,0.1l0,0.1l0,0.1l0,0.1l0.1,0.1l0.1,0.1l0,0l0.1,0.2l0.1,0.2l0.5,1l0,0.2l0,0.6l0,0.2l-0.9,2.3l0,0.1  l0.1,0.1l0,0l0,0l0,0l0,0l0,0.1l0,0.1l0,0.1l0.1,0.2l0,0.2l0,0.1l0,0.1l0.2,0.2l0.1,0.2l0,0.2l0,0.2l0,0.2l0.2,0.7l0,0.2l0,0.2  l0,0.1l0,0.1l0,0.1l0,0.1v0.2l-0.2,0.5l0,0.2l-0.1,0.1L61,74.5l-0.2,0.1l-0.2,0.1L60.5,75l-0.1,0l-0.1-0.1L60,74.6l-0.2-0.1l-0.3,0  l-0.4,0.1l-0.4,0.2L58.6,75l0,0.1l-0.1,0.1l-0.2,0.1l-0.2,0.3L57.6,76l-0.2,0.1l-0.2,0.1l-0.2,0l-0.5,0l-0.2,0l-0.1,0.1L56,76.5  L56,76.7l-0.1,0.2l-0.1,0l-0.3-0.1l0.1,0.1l-0.6-0.1l-0.3,0L54.4,77l-0.1,0l0,0l0-0.1l-0.1,0l-0.1,0l-0.1,0l-0.2,0l0.1,0.2l0.2,0.4  l0,0.2l0,0L54,77.7l0,0l0,0.1l0,0.1l0,0.1l-0.1,0.1l0,0.1l0,0.1l0.2,0.3l0.1,0.2l-0.1,0.1l-0.1,0l-0.1,0l-0.1-0.1l-0.1,0l-0.1,0  l-0.1,0l-0.4,0.1l-0.1,0l-0.1,0l-0.1-0.1l0-0.1l-0.1-0.1l-0.4-0.1l-0.3,0l-0.3-0.1l-0.3,0l-0.2,0.2l0,0.1l0,0.1l0,0.1L51,78.8  L51,78.9L50.9,79l-0.2,0l-0.3-0.1l-0.1,0L50.1,79l-0.1,0.1L50,79.2l0,0.1l0.1,0.1l0.1,0l0.2,0l0.1,0.1l0,0.1l0,0.1l0,0.2l0.1,0.3  l0,0.1l0,0.1l-0.1,0.2l-0.1,0.5l0,0.1l0.1,0.1l0.1,0l0.1,0.1l0,0.1v0l0.1,0.2l0.1,0.1l0.3,0.1l0.1,0.1l0.2,0.2l0.1,0.1l0.2,0.2  l0.1,0.1l0.1,0.1l0.1-0.1l0.1-0.1l0.1,0l0.1,0.1l0.1,0.1l0.1,0.4l0.1,0.1l0,0l-0.2,0l-0.1,0l0,0l0,0.1l0,0l0,0.2l0,0l0,0.1l0.2,0.3  l0.2,0.6l-0.1-0.1l-0.2,0l-0.4,0l-0.2-0.1l-0.2-0.1l-0.2-0.1l-0.1-0.1l-0.1-0.1l-0.2-0.2l0,0.1l-0.1,0.1l-0.1,0.1l-0.1,0.1l-0.1,0  l-0.1-0.1l-0.1-0.1l0-0.1l-0.1-0.2l0-0.1l-0.2-0.3l-0.1-0.2l-0.1-0.1l-0.2,0l-0.2,0.1l-0.2,0.1l0,0l-0.1,0.1l-0.1,0.1l-1,0.2l-0.1,0  l-0.1-0.1l-0.2-0.1l0,0l-0.1,0.1l-0.3,0.3L47,84.2l-0.1,0.1l-0.1,0L46.6,84L46.5,84l-0.9-0.2l-0.1,0l-0.1-0.1l0-0.1l0,0l-0.1,0.1  l-0.1,0.1l-0.1,0.1L45,83.9l0,0.1l0,0.2l0.1,0.2l0.2,0.4l0,0.2l-0.2,0.2l-0.6,0.3l-0.1,0.1l-0.1,0.1l-0.3,0.4l-0.2,0.2l-0.2,0.1  l-0.3,0l-1-0.1l-0.3,0l-0.1,0L42,86.3l-0.1,0.1l-0.1,0.1l-0.3,0.4L41.5,87l-0.1,0l-0.1,0l0,0.1l0,0.1l0,0.1l0.1,0l0.1,0l0.1-0.1  l0.1-0.1l0.1-0.1h0l0,0.1l0,0.1l0,0.1l0,0.1l-0.1,0l0,0l0,0l0,0.1l0.1,0.2l0.1,0.1l0,0.2h0.1l0,0l0,0l0,0l0.2,0.1l0.1,0.1l0,0.2v0.2  l0,0.1l0.1,0.1l0,0l0,0.1l0,0l0,0l0,0.1l0,0l0.2,0l0,0l0-0.1l0,0l0.1,0l0,0l0-0.1l0-0.1l0.2-0.1l0.2-0.1l0.2,0l0.2,0.1l0.1,0.2  l0.1,0.2L44,89l0.2,0.1l0.2,0l0.3-0.1l0.1,0l0.1,0.1l0.3,0.2l0.3,0.4l0.1,0.1l0,0.1v0.3l0,0.2v0.1l-0.2-0.4l0-0.1l-0.1,0l-0.1,0.1  l-0.4,0.3l-0.1,0.1l0,0.1l-0.1,0.1l-0.3,0.1l-0.1,0.2l-0.1,0.3l-0.2,1.3l0,0.3l0,0.8L43.7,94l0,1l-0.1,0.4l0,0.8l0,0.2l0.1,0.1v0  l-0.1,0.1l0,0.2l0,0.3l0,0.1l-0.1,0.3l0,0.2l0.1,0.2l0.3-0.1l0.4-0.2l0,0.1l0,0.1l0.1,0.1v0l-0.1,0.1l0,0h-0.2L44,98l-0.1,0l0,0  l0,0.1l0.1,0.1l0.2,0l0.2-0.1l0.2-0.1l0,0.1l-0.1,0.1l-0.1,0.1l-0.1,0l-0.4-0.1l-0.1,0l-0.1,0.1l0,0l0.1,0l0,0.1l0,0.1l0,0l-0.1,0  l-0.1,0l-0.4,0.3l-0.1-0.1l-0.1,0l-0.1,0l0,0.1l0,0l0.2,0.1l0.4,0.1l0,0l0,0l0,0l0.2,0l1.4-0.3l0.2-0.1l0.2-0.1l0.2-0.3l0.4-0.3v0  l0.2,0l0.2-0.1l0.2-0.2l0.1-0.2l0.4-1l0,0l0-0.1l0,0l0,0l0.1,0l0,0l0-0.1l0.1-0.1l0.2-0.1l0.3-0.3l0.2-0.1l1.4-0.5l1.7-0.7l0.9-0.3  l0.2,0l0.1,0l0-0.1l0-0.1l0,0l-0.1,0l-0.1-0.1l0.2-0.3l0-0.1l0-0.3l0-0.1l0-0.1l-0.7-1l-0.1-0.1l0-0.1l0-0.1l-1.5-1.5l-0.1-0.2  l0.1,0l0.2,0.1l0.2,0.1l0.2,0.1l0.2,0.2l0.6,0.8l1.2,1.1l0.6,0.3l0.3,0.2l0.1,0l0.3,0l0.1-0.1l0.1,0l0.1,0l0.1,0l0.1,0l0.1-0.1  l0.2-0.1l0.1-0.2L55,92l0-0.3l0-0.1l0-0.1L55,91.4l-0.2,0l-0.1-0.1L54.7,91l-0.1-0.2l-0.2-0.2l-0.6-0.5L53.7,90l0,0l-0.3-0.3l0-0.1  l-0.1-0.1l0-0.1l-0.1-0.1l-0.4-0.3l-0.1-0.1l-0.1-0.1l-0.1-0.1l0-0.2l-0.1-0.1l-0.2-0.2l0,0l-0.1,0l0,0l0.1,0l0,0l0.1,0l0.1,0  l1.6,1.7l0.5,0.3l0.2,0.1l0.4,0.4l0.2,0.1l0.2,0l0.2-0.1l0.1-0.1l0-0.2h0l0,0l0,0.1l0,0.1l0,0v0l0.1-0.1l0.1-0.1l0-0.1l-0.1-0.1  l-0.1,0l-0.4-0.2l-0.3-0.3l-0.5-0.2l-0.1-0.1l-0.6-0.8l-0.1-0.1l-0.1-0.2l-0.1-0.1l-0.2-0.2l0,0l0,0l0,0l0.3,0.1l0.2,0.2l0.5,0.9  l0.2,0.2l0.2,0.2l0.3,0.1l0.1,0.1l0.1,0.1l0.1,0.1l0.1,0l0.2,0l0,0l0,0l0,0l0-0.1l0,0l0,0l0.1,0l0,0l0-0.1l0-0.1l0,0l0-0.1l0-0.1  l0.1-0.1l0,0l0-0.1h0l0,0.1l0,0.1l0,0.1l0,0.1l0.1,0l0.1-0.1l0.3-0.4l0-0.1l0-0.1l0-0.1l0,0l0,0l-0.1,0l-0.1,0l0,0l0,0l0,0l0,0  L56,88.4l0,0l-1.6-0.5L54,87.7l0.1,0l0.1,0l0.1,0.1l0.1,0l0.2,0l0.5,0.1l0.7,0l0.3,0.1l0.1,0l0.1-0.1l0-0.1l0-0.6l0-0.1L56.3,87  l-0.1-0.1l-0.1-0.1l-0.1-0.1l-0.1,0l-0.1,0l-0.1,0.2l-0.1,0.1l-0.1,0l0-0.1l0-0.1l0-0.1h0l0,0.1l-0.1,0.1l-0.1,0.1l-0.1,0l-0.1,0  l0-0.1l0-0.2l0,0.1l0,0.1l0,0.1l0,0.1l0.1-0.1l0.1,0l0.1,0l0-0.1l0.1,0l0.1,0l0.1,0l0,0l0,0l0-0.1h0l0.1,0.1l0.1,0l0.2-0.1l0.1,0  l0-0.1l0-0.1l0-0.1l0,0l0,0l0,0l0-0.1l-0.1-0.2l0-0.1l0,0l-0.1,0l0,0l0-0.1l0,0l0.1-0.1l0,0l0.1,0l0.1,0.1l0.1,0.1l0,0.1l0.1,0.1  l0.1,0l0.2-0.1l0.4,0.3l0,0.2l0,0.1l0,0.1l0,0.1l0,0l0,0l0,0.1l0,0.1l0,0.1l0,0.1l0,0l0.1,0l0.1-0.3l0.1-0.1l-0.1-0.1L57.7,86l0-0.2  l0-0.2h0l0,0.2l0,0.1l0,0.1v0l0.1,0.1l0,0l0.1,0.1l0.1,0l0,0l0-0.1l0,0l0,0l0,0l0.1-0.2l0-0.1l-0.1,0l-0.1,0v-0.1l0.1-0.2l0-0.1  l-0.1-0.1l-0.1-0.1l0-0.1l0.2,0.2l0.1,0.1l0,0.2l-0.1,0l0,0l0,0.1l0.1,0.1l0,0l0,0.5l0,0.1l0,0.1l-0.1,0l-0.1,0l-0.1,0.1l0,0.1h0  l0,0l0.1,0l0.1,0l0,0.1l0,0.1l0.1,0l0-0.1l0.1-0.1l0,0.1l0,0l0,0.1h0l0.1-0.1l0.1,0l0.1,0.1l0.1,0.1h0v-0.1l0,0l0.1,0h0.1l0,0  l0.1,0.1l0,0l0,0l0,0l0,0.1l0,0.1l0,0l-0.1,0L59,87l0,0.1l0.2,0l0.2,0.1l0.1,0l0.2-0.2l0.2-0.2l0.1-0.1l0.1,0l0.3-0.1l0.3,0l0.1,0  l0.4-0.2l0.1-0.1l0.1-0.1l0-0.1l0.2-0.2l0.1-0.1l0.3-0.1l0.1-0.1l0.1,0l0.4-0.2l0.2-0.1l0.1,0l0.3-0.2l0.4-0.2l0.1,0l0.1,0l0.1,0  l0.3,0.1l0.1,0h0l0.2-0.5l0-0.3l0.1-0.2l0-0.1l0-0.1l0.2-0.2l0-0.1l0.1-0.1l0.2-0.1l0.8-0.2l0.2,0.1l0.1,0.2h0l0.1-0.2l0.1,0l0.1,0  l0-0.1l0.1-0.3l0-0.1l0,0l0.1,0l0.1,0l0.2-0.1l0.1,0l0.2,0l0.1-0.1l0.1-0.3l0.1-0.1l0.1-0.1l0.1-0.1l0.2-0.1l0.1-0.1l0,0h0.2l0.1,0  l0.1-0.1l0.1,0l0.1,0l0.1,0.1l0.1,0h0.1l0.1,0L69,82l0-0.1l0.1-0.3l0.1-0.1l0.1-0.1l0.1-0.1l0.2-0.2l0.1,0l0.1,0l0.1,0l0.1,0  l0.3,0.1l0.1,0l0.1,0l0.1-0.1l0.2-0.1l0.1-0.1l0-0.1l0-0.3l0.1-0.4l0-0.3l-0.1-0.2l0,0l0.1,0l0-0.1l0-0.1l0-0.1l0-0.1l0,0l-0.1-0.1  l0-0.1l0.1,0l0,0l0,0.2l0.1,0.1l0.1,0l0.1,0l0.1,0l0.1,0.1h0l0.1-0.1l0-0.1l0-0.1l0-0.1l0.1-0.1l0,0l0-0.1l0-0.1l0-0.1l0.1-0.1  l0.1-0.1l0,0l0,0l0.1-0.1L72,78.1l0-0.2l-0.1-0.1l0-0.1l0-0.1l0-0.1l0,0l-0.1,0.1l-0.1,0.1l0,0.1l-0.2,0l0-0.2l0.1-0.2l0.1,0  l0.2-0.1L72,77l0.1-0.2l0-0.2l0-0.1l-0.2-0.1l0-0.1l0-0.2l0,0l0,0l-0.1-0.2l0.1-0.1l0.1,0.1l0.1,0.3l0.1,0.4h0l0.1,0.2l0,0.5  l0.1,0.2l0,0l0,0l0,0l0.1,0.1l0.1,0l0.1,0l0.1,0v0l-0.1,0l-0.1-0.1l0-0.1l0-0.1l0.1-0.1l0,0l0-0.1v0l-0.2-0.1l-0.1-0.1l-0.2-0.3  l0-0.1l0-0.3l0-0.1l0.1-0.1l0-0.1l0-0.1l0-0.1l0,0l0,0l0,0l0-0.1l0-0.1l-0.1,0l0,0l0,0l0-0.1l0.1,0l0.2,0l0-0.1L72,75.2l0-0.1l0-0.1  L71.9,75l-0.1,0l0-0.1l0,0l0.1,0.1l0.1-0.2l0,0h0l0.1,0l0,0v-0.1l-0.1-0.1l-0.1-0.1l0-0.1l0-0.1l0-0.1l0-0.2L71.9,74l-0.1,0l0-0.1  l-0.1-0.1l0-0.1h0l0,0l0.1,0l0,0l0-0.1l0,0l0.2,0l0.2,0.1l0.3,0.3l0.1,0.2l0.1,0.1l0.1,0l0.1-0.1l0-0.1l0-0.1l0.1,0.1l0,0l0,0  l0.1-0.1L72.8,74l-0.1-0.1l-0.1,0l0,0l0-0.1l0-0.1l0.1-0.1l0-0.1l-0.3-0.2l-0.1-0.1l0-0.1l0-0.1l0.1-0.1l0-0.1l-0.1,0v0h0v0l-0.1,0  l0,0.1l0,0.1l0,0.1h0l0,0l0,0h0l0,0V73l0-0.1l0-0.1l0,0l0-0.3l0-0.1l0.2-0.3l0.1,0l0.1,0l0.1-0.1l0.2-0.2l0.1-0.1l0.2-0.1l0-0.1  l0-0.1l0,0l0.1,0l0,0v0.2l0,0.1l0.1,0.1l0,0.1l0,0.1l-0.1,0l-0.1,0l0,0l0,0l-0.1,0.2l0.1,0l0.1,0l0,0l0,0.1l0-0.1l0-0.1l0-0.1l0-0.1  l0.1,0l0.1,0l0,0l0-0.1l0.1,0.2v0l-0.1,0.1l0,0l0,0.1l0,0l0,0l0,0l0.1,0.2l0.1,0.1l0.1,0l0-0.1l0-0.3l0-0.1l0,0L73.7,72.3L73.7,72.3  L73.7,72.3L73.7,72.3z"/></svg>