<svg xmlns="http://www.w3.org/2000/svg" xmlns:xlink="http://www.w3.org/1999/xlink" version="1.1" x="0px" y="0px" viewBox="-461 335 100 100" fill="#e0e0e0" style="enable-background:new -461 335 100 100;" xml:space="preserve"><path d="M-457.9,412.4L-457.9,412.4L-457.9,412.4L-457.9,412.4l0-0.1l0,0l0,0L-457.9,412.4L-457.9,412.4L-457.9,412.4z   M-457.8,411.8L-457.8,411.8L-457.8,411.8L-457.8,411.8l0-0.1l0,0L-457.8,411.8L-457.8,411.8L-457.8,411.8L-457.8,411.8z   M-361,340.2l-3.9,0l-13.6,0l-4.1,0l-15.6,0h0l-2.2,0l-13.9,0l0,0l0,0l0,0l-0.1,0.2l0,0l0,0.1l-0.1,0.1l0,0l0,0l-0.1,0.2l0,0.1v0.1  l0,0v0.1l0,0v0l0,0l0,0l0,0l0,0.1l0,0.1l0,0.2l-0.1,0.1l0,0l0,0v0.1l0,0l0,0l0,0.1l0,0.1l0,0.1l0,0.1l0,0l0,0.1l0,0l0,0l0,0l0,0  l-0.1,0.1l0,0l-0.1,0.2l0,0l0,0l-0.1,0.1l0,0.1l0,0.1l0,0.1l0,0l0,0.1l0,0l0,0.1l0,0l0,0l0,0l0,0l0,0.1l0,0l0,0l0,0.1l0,0.2l0,0.1  l0,0l0,0l0,0.1l0,0l0,0l0,0l0,0.1l0,0l0,0.1l0,0.1v0l0,0.1l0,0l0,0.1l0,0l-0.1,0.1l0,0.1l0,0.1l0,0l0,0.1l0,0.1l0,0.1l-0.1,0.1l0,0  l-0.1,0.1l0,0.1l0,0.1l0,0l0,0.1l-0.1,0.1l-0.2,0.2l0,0.1l0,0.1l0,0.1l0,0.1l0,0l0,0l0,0l-0.1,0.1l0,0.1l0,0l0,0l0,0l0,0l0,0l0,0  l0,0l0,0l0,0l0,0.1l0,0l0,0l0,0.1l-0.1,0.1l0,0.1v0.1l0,0l0,0v0.1l0,0l-0.1,0.1l0,0.1l0,0l0,0v0.1l0,0l0,0.1l0,0l0,0.1l0,0l0,0l0,0  v0.1l0,0.1l0,0l0,0.1l-0.1,0.1l0,0l0,0l0,0.1l0,0.1l0,0.1l0,0l0,0l0,0.1l0,0l0,0l0,0l0,0l0,0l0,0l0,0.1l0,0.1l0,0l0,0.1l0,0.1  l-0.1,0.1l0,0.1l0,0l0,0l0,0l-0.1,0.1l0,0l0,0.1l0,0l0,0l-0.1,0.2l0,0l0,0l0,0.1l0,0l0,0.1l0,0l0,0.1l0,0v0.1l0,0l0,0l0,0.1l0,0l0,0  l0,0.1l0,0l0,0.1l0,0.1l0,0.1l0,0l-0.1,0.2l0,0.1l0,0.1l0,0l0,0.1l0,0l0,0.1l0,0v0.1l0,0.1l0,0.1l0,0l0,0.1l0,0l0,0l-0.1,0.2l0,0  l0,0l0,0.1l0,0.1l0,0l-0.1,0.2l0,0l-0.1,0.1l0,0l0,0l0,0l0,0l-0.1,0.1v0l-0.1,0.1l-0.1,0.1l0,0l0,0l0,0l-0.1,0.1l-0.1,0.1l-0.1,0.1  l0,0l-0.1,0.1l0,0.1l0,0.1l0,0.1l0,0.1l0,0.1l-0.1,0.1l0,0l0,0l0,0l-0.1,0.1l0,0l-0.1,0l0,0.1l-0.1,0.1l0,0l0,0l0,0l0,0l0,0l0,0l0,0  l-0.1,0.1l0,0l0,0l0,0l0,0l-0.1,0l0,0l-0.1,0l-0.1,0l-0.1,0.1l0,0l0,0h0l0,0l0,0l0,0l0,0l0,0l-0.1,0l0,0l-0.1,0.1l0,0l0,0l0,0  l-0.1,0l0,0l0,0l0,0l0,0l0,0l0,0h0l-0.1,0l0,0l0,0l0,0l0,0l0,0l0,0l0,0l0,0l-0.1,0l0,0l0,0l-0.2,0.1h0l-0.1,0.1l0,0l0,0l-0.1,0l0,0  l0,0l0,0l0,0h0l-0.1,0.1l0,0l-0.1,0.1l-0.1,0l-0.3,0.3l0,0l0,0l0,0l0,0h0l0,0l0,0h0l0,0l-0.1,0l0,0l0,0l0,0l-0.1,0l0,0h0l0,0h0l0,0  l-0.2,0.1l-0.1,0.1l-0.1,0l0,0l0,0l-0.1,0l0,0l0,0l0,0l0,0l0,0l0,0l0,0l0,0l0,0l0,0l0,0l-0.1,0l0,0h0l0,0l0,0l0,0l0,0l0,0l0,0l0,0  l-0.1,0l0,0h0l0,0l0,0l0,0l0,0l0,0l0,0l0,0l0,0l0,0l0,0l0,0l0,0l0,0l-0.1,0l0,0l0,0l0,0l-0.1,0l0,0l-0.2,0l0,0l-0.1,0l0,0l-0.1,0  l0,0l-0.1,0l0,0l0,0l0,0.1l0,0l0,0l0,0v0l0,0l0,0.1l-0.1,0.1v0l-0.1,0.1l-0.1,0.1l0,0l0,0l-0.1,0.1v0l0,0.1v0l0,0l0,0l0,0l0,0l0,0  l0,0l-0.1,0.1l0,0l0,0l0,0h0l-0.1,0.1l0,0l0,0l0,0l0,0l0,0l0,0l0,0l0,0h0l-0.2,0.2l0,0l-0.1,0.1l-0.1,0l0,0l0,0l0,0h0l0,0h0l0,0l0,0  l0,0h0l0,0l0,0l0,0l0,0l0,0h0l0,0l-0.3,0l-0.1,0l-0.2,0.2h0l-0.1,0.1v0l-0.1,0.1v0l0,0v0l-0.1,0.1v0l-0.1,0.1v0l-0.1,0.1l0,0.1l0,0  v0l-0.1,0.1h0l-0.1,0.1l0,0.1l0,0v0l-0.1,0.1l0,0.1l0,0l0,0.1l0,0l0,0l0,0.1l0,0l0,0.1l0,0.1l-0.1,0.1l-0.1,0.1l0,0.1l0,0.1h0l0,0v0  l0.1,0.1v0l0,0l0,0.1l0,0l0,0l0,0.2l0,0l0,0.1l0,0l0,0l0,0l0,0.1l0,0l0,0l0,0l0,0l0,0.1l0,0l0,0.1l0,0l0,0.1l0,0v0l0,0.1l0,0.1  l0,0.1l0,0l0,0l0,0.1l0,0l0,0.1l0,0.1l0,0l0,0l0,0.1l0,0.1l0,0l0,0l0,0.1l0,0.1l-0.1,0.1l0,0l0,0l0,0.1l0,0.1l0,0l0,0l0,0.1l0,0l0,0  l0,0.1v0l0,0v0l0,0l0,0l0,0.1l0,0l0,0.1l0,0l0,0l-0.1,0.1l0,0.1l0,0l0,0l0,0v0l0,0l0,0l0,0v0l0,0.1v0l-0.1,0.1v0l-0.1,0.2l0,0.1  l-0.1,0.1v0l-0.1,0.2h0l-0.1,0.1h0l0,0l0,0l0,0l0,0.1l0,0v0l0,0l0,0v0l0,0.1v0l0,0.1l0,0l0,0.1l0,0.1v0l0,0.1l0,0.1l-0.1,0.2l0,0v0  l0,0.1l0,0.1l0,0.1l0,0.1l0,0.1v0l0,0v0l0,0.1v0l0,0v0l-0.1,0.1l0,0l0,0l0,0v0l0,0l0,0.1l0,0.1v0l0,0l0,0.1l0,0l0,0.2l0,0l0,0.1l0,0  l0,0.1l0,0l0,0.1l0,0l0,0.1l-0.1,0.2l-0.1,0.2l-0.1,0.2l0,0l0,0.1v0l0,0v0l0,0l0,0l0,0.1l0,0l0,0l-0.1,0.2l0,0.1l-0.1,0.1v0  l-0.1,0.1l0,0l0,0.1v0l-0.1,0.1h0l-0.1,0.1l0,0.1l0,0.1v0l0,0l0,0l0,0.1l0,0l0,0.1l-0.1,0.1l0,0.1l0,0.1l0,0l0,0.2l0,0v0.1l0,0v0.1  l0,0l0,0v0l0,0.1v0l0,0v0l0,0l0,0.1l0,0.1l0,0.1l0,0v0l0,0v0l-0.1,0.2l-0.1,0.2l0,0l0,0.1l0,0v0l0,0l0,0.1l0,0v0l0,0l0,0.1l0,0v0.1  l0,0l0,0.3l0,0l0,0.1l0,0.1l0,0.1l0,0l-0.1,0.1v0l0,0l0,0.3l0,0l0,0.1l0,0v0l0,0v0l0,0l0,0.1l0,0l0,0.2l0,0v0l0,0l0,0l-0.1,0.1  l0,0.1l0,0.1v0.1l0,0l0,0v0l0,0.1l0,0.1l0,0v0l0,0l0,0.1l0,0l0,0.1l0,0l0.1,0.1h0l0.1,0.1l0,0l0,0l0,0l0,0.1l0,0l0,0l0,0l0,0.1l0,0  l0,0.1l0,0v0l0,0l0,0.1l0,0v0.1l0,0v0.1l0,0v0.1l0,0l0,0l0,0.1v0.1l0,0l0,0.1l0,0.1v0l0,0v0l0,0l0,0.1l0,0l0,0.1l0,0v0l0,0l0,0.2  l0,0.1l0,0l0,0.1l0,0l0,0.1l0,0.1l0,0.1l0,0.1l0,0.1l0,0.1v0l0,0.1v0l0,0.1v0l0,0v0.1l0,0l0,0.1l0,0v0l0,0.1v0l0,0v0l0,0.1l0,0l0,0  l0,0.1l0,0.1l0,0.2l0,0l0,0.1l0,0v0.2l0,0v0.1l0,0v0.1l0,0v0l0,0v0l0,0.1v0l0,0v0.1l0,0v0l0,0v0l0,0.1l0,0.1l0,0.1l0,0l0,0l0,0.1  l0,0l0,0.1l0,0v0l0,0l-0.1,0.1l0,0.1v0l0,0h0l-0.1,0.1h0l0,0.1h0l-0.1,0.1v0l-0.1,0.1l-0.1,0l0,0h0l0,0h0l0,0h0l0,0l-0.1,0h0l0,0h0  l0,0h0l0,0l0,0l0,0l0,0v0.1l0,0l0,0l0,0.1l0,0v0l0,0l0,0.1l0,0v0l0,0v0l0,0l0,0.1l-0.1,0.1h0l0,0l0,0v0l0,0l-0.1,0.1l-0.1,0l0,0  l-0.1,0h0l0,0l0,0l0,0l0,0h0l-0.1,0l-0.1,0.1l-0.1,0h0l0,0h0l0,0l0,0l0,0l0,0l0,0l0,0l0,0h0l0,0l0,0l0,0l0,0l0,0l0,0l0,0l-0.1,0l0,0  l-0.1,0l0,0l0,0l-0.1,0.1h0l-0.1,0.1l-0.1,0l-0.1,0.1l0,0l0,0h0l-0.1,0.1l0,0l-0.1,0.1v0l0,0h0l-0.1,0.1l0,0l-0.1,0.1l0,0l0,0h0  l-0.1,0.1h0l0,0l0,0l-0.1,0.1h0l-0.1,0.1l0,0l0,0v0l0,0.1l0,0l0,0.1l0,0.1l0,0.1l0,0l0,0.1l-0.1,0.1l-0.1,0.2l0,0.1l0,0l0,0  l-0.1,0.1l0,0.1l-0.1,0.1l0,0.1l0,0l0,0l-0.1,0.1l0,0v0l-0.1,0.1h0l-0.2,0.2v0l-0.1,0.1h0l0,0l-0.1,0l0,0l-0.1,0.1v0l0,0l0,0  l-0.1,0.1l-0.1,0l0,0l0,0l0,0h0l0,0l0,0l0,0l0,0l0,0h0l0,0l-0.1,0l-0.1,0l0,0l0,0.1l0,0.1l-0.1,0.1l0,0.1l-0.1,0.1l0,0v0l-0.1,0.1h0  l0,0h0l-0.1,0.2h0l-0.1,0.1v0l-0.1,0.1l0,0l0,0h0l-0.2,0.2h0l0,0.1h0l-0.1,0.1l0,0l-0.1,0.1l0,0l-0.1,0.1v0l-0.1,0.1l0,0l0,0.1l0,0  l0,0.1l0,0l0,0l-0.1,0.1v0l-0.1,0.1l-0.1,0l0,0l-0.1,0l0,0l0,0l-0.1,0l-0.1,0.1v0l0,0l0,0l0,0l0,0.1l0,0l0,0.1l0,0l0,0.1l0,0l0,0  l0,0.1l0,0l0,0l0,0v0l0,0.1l0,0.1l0,0l-0.1,0.1l0,0l0,0l-0.1,0.1l0,0h0l-0.1,0.1l-0.1,0l0,0l0,0l0,0l-0.1,0l-0.1,0.1l0,0l-0.1,0.1  l0,0l0,0l0,0.1l0,0l0,0l-0.1,0.1l0,0l0,0l0,0l0,0l0,0l0,0l-0.1,0l0,0h0l0,0l0,0l-0.1,0l-0.1,0.1h0l0,0l0,0l0,0l0,0l-0.1,0.1h0l0,0  l-0.2,0.1l0,0l0,0l0,0l0,0l0,0l-0.1,0.1l-0.1,0.1l-0.1,0.1l-0.1,0.1l0,0.1l0,0l-0.1,0.1l0,0l-0.1,0l-0.2,0.2l0,0l-0.2,0.2l-0.1,0.2  l0,0v0l-0.1,0.1h0l0,0l0,0l-0.1,0.1l0,0l0,0l-0.1,0.1l0,0l-0.1,0.1v0l0,0.1l0,0l0,0.1v0l0,0l0,0.1l0,0.1l0,0.2l0,0l-0.1,0.1v0l0,0  l0,0l0,0l0,0l0,0l0,0l0,0l0,0l-0.1,0l0,0l0,0.1l0,0.2l0,0l0,0l0,0.1l0,0.1l-0.1,0.1l-0.1,0l0,0v0l0,0l0,0l0,0l0,0l0,0h0l0,0.1l0,0  l0,0l0,0.1l0,0l0,0l0,0.1l0,0l0,0l0,0l0,0l0,0l0,0l0,0l0,0l0,0h0l0,0v-0.1l0,0l0,0v0.1l0,0l0-0.1l0,0l0,0l0,0l0,0l0,0l0,0l-0.1,0  l0,0l0,0l0,0l0,0h0l0,0l0,0v0l0,0l0,0.1l0,0l0,0l0,0l0,0l0,0l0.1-0.1l0,0l0,0h0l0,0l0.1-0.1h0l0.1-0.1l0,0l0.1-0.1l0,0l0,0l0.1-0.1  l0-0.1l0.1-0.1l0-0.1l0-0.1l0,0l0,0l0,0l0,0l0-0.2l0,0l0,0l0,0l0-0.1l0,0l0,0l0,0l0-0.1l0,0l0-0.1l0-0.1l0,0l0-0.1l0,0l0,0l0,0l0,0  l0,0l0,0l0-0.1l0-0.1l0-0.1l0,0l0,0l0,0l0-0.1l0,0l0,0l0,0l0.1-0.1l0,0l0,0h0l0,0l0,0l0,0l0-0.1l0,0h0l0,0v0l0.1-0.1l0,0l0,0l0,0  l0,0l0.1-0.1h0l0.1-0.1l0,0l0,0v0l0,0l0,0l0,0l0,0l0,0l0,0l0,0l0-0.1l0,0l0,0l0,0l0,0l0,0h0l0,0h0l0,0l0,0l0,0l0-0.1l0-0.1l0-0.1  l0,0l0,0h0l0,0l0,0l0-0.1l0,0l0,0l0,0v0l0,0l0,0l0,0l0,0l0,0l0-0.1l0,0l0,0l0,0l0,0l0,0l0,0l0,0l0,0.1l0,0l0,0.1l0,0l0,0l0,0l0-0.1  l0,0l0,0h0l0-0.1l0.1,0l0,0l0,0l0,0.1l0,0l0,0l0,0l0,0l0,0l0,0l0,0l0,0l0,0l0,0l0,0l0,0l0,0l0-0.1l0,0l0,0l0,0.1l0,0l0,0v0l0-0.1  l0.1-0.1l0-0.1l0-0.1v-0.1l0,0l0-0.1l0,0l0.1,0l0,0l0.1,0l0,0h0l0,0h0l0.1-0.1l0.1-0.1v0l0,0l0.1,0l0,0l0,0l0,0l0,0l0,0l0,0l0,0  l0,0.1l0,0l0,0.1l0,0.1l0,0v0l0,0.1l0,0.1l0,0.1l0,0.1l0,0l0,0.1l0,0l0,0.1l0,0l0,0.1l0,0l0,0.1l0,0l0,0.1l0,0.1l0,0l0,0l0,0l0,0.1  l0,0.1l-0.1,0.1l0,0.1l0,0l0,0.1l-0.1,0.1l0,0.1l0,0l0,0l0,0l0.1-0.1l0,0h0l0.1,0.1h0l0,0l0,0.1l0,0.1l-0.1,0.1l0,0.1l0,0l0,0v0  l0,0.1l0,0.1l0,0l0,0v0l-0.2,0.2l-0.1,0l0,0l0,0l0,0l0,0l0,0l0,0l0,0l0,0l0,0v0l0,0l0,0l0,0l0,0l-0.1,0.1l0,0l0,0l0,0h0l0,0l0,0  l0,0.1l0,0l0,0v0l0,0l0,0l0,0.1l0,0l0,0l-0.1,0.1l0,0l0,0v0l0,0l0,0.1l0,0l0,0l0,0l0,0l0,0.1l0,0.1l-0.1,0.1l0,0l0,0l0,0.1l0,0  l-0.1,0.1l0,0l0,0.1l0,0l-0.1,0.1h0l0,0l0,0.1l0,0v0l0,0.1l0,0.1l0,0l0,0l0,0l0,0.1v0l0,0l0,0.1l0,0.1l0,0l0,0l0,0l0,0l-0.1,0.1h0  l0,0l0,0l0,0l0,0v0l-0.1,0.2l-0.1,0.2l-0.1,0.1l-0.1,0h0l0,0h0l0,0l0,0l0,0l0,0l0,0l0,0l0,0l0,0h0l0,0v0l0,0l0,0l0,0l0,0h0l0,0l0,0  v0l0,0h0l0,0.1l0,0l0,0.1l0,0l0,0.1l0,0l0,0l0,0l0,0.1l0,0.1v0l0,0l0,0l0,0l0,0v0.1l0,0l0,0l0,0l-0.1,0.1l0,0.1l0,0l0,0l0,0.1  l-0.1,0.1l0,0.1l-0.1,0.1l-0.1,0.1l0,0l0,0l0,0l-0.4,0.4l-0.1,0.1l0,0l0,0l-0.1,0.2h0l0,0l0,0v0.1l0,0.1l0,0v0.1l0,0l0,0l-0.1,0.1  l0,0.1l0,0.1l0,0.1l0,0.1l-0.1,0.2l0,0v0l0,0l0,0l0,0v0l-0.1,0.1l0,0l0,0l0,0l0,0l0,0h0l-0.1,0.1l0,0.1l0,0l0,0l0,0.1l0,0l0,0  l-0.1,0.2l0,0l0,0.1v0l-0.1,0.1l0,0l-0.2,0.2h0l0,0h0l-0.1,0.1v0l-0.1,0.1v0l-0.1,0.1l0,0l-0.1,0.1v0l-0.1,0.1l0,0.1l-0.1,0.1l0,0.1  l0,0l0,0.1l0,0l0,0l-0.1,0.1l0,0.1l0,0l0,0.1l0,0l0,0l0,0l0,0l0,0l0,0l0-0.1l0.1-0.1l0-0.1l0,0h0l0.1-0.1l0,0l0.1-0.1l0,0l0,0.1  l0,0.2l0,0l0,0.1l0,0.1l0,0.1l0,0l0,0.1l0,0l0,0.1l0,0.1l0,0.1l0,0l0,0l0,0l0,0.1l0,0v0.1l0,0l0,0.2l0,0.1l0,0v0.1l0,0l0,0.2l0,0.1  v0l-0.1,0.1l0,0l0,0l0,0.1l0,0.1l-0.1,0.1l0,0l0,0l0,0.1l0,0h0l0,0.1l0,0l-0.1,0.1h0l0,0h0l0,0l-0.1,0l0,0l0,0.1l0,0l0,0h0l0,0l0,0  l0,0l0,0l0,0l-0.1,0l0,0l-0.1,0.1l0,0l-0.1,0.1l0,0l0,0l0-0.1l0,0l0,0l0-0.1h0l0,0l0,0l0,0l0,0l0,0v0.1l0,0l0,0.1l0,0.1l0,0.1l0,0.1  l0,0l0,0.1l0,0l0,0.1l0,0l0,0.1l0,0l0.1,0l0,0v0l0,0l0,0.1l0,0l0,0l0,0.1l0,0l0,0l0,0.1l0,0v0l0,0l0,0l-0.1,0.1l0,0l0,0l0,0l0,0.1  l0,0.1l0,0l-0.1,0l0,0l0,0l0,0l0,0.1l0,0l0,0l0,0l0,0.1l0,0l0,0.1l0,0l0,0l0,0l0,0l0,0.1l0,0.1l0,0l0,0l0,0v0.1l0,0l0,0.1l0,0l0,0.1  l0,0l0,0.1l0,0.1l0,0l0,0v0.1l0,0l0,0l0,0l0,0l0,0l0,0l0,0l0,0.1l0,0l0,0l0,0l0,0l0,0l0,0l0,0l0,0.1l0,0l0,0l0,0v0l0,0.1l0,0.1l0,0  l0,0l0,0l0,0.1l0,0l0,0.1l0,0l0,0.1l0,0l0,0l0,0l0,0l0,0l0,0l0,0l0,0l-0.1,0.1h0l0,0l-0.2,0.1l0,0l-0.1,0.1l0,0l0,0l0,0l0,0.1  l-0.1,0l0,0l0,0l0,0l0,0l0,0l0,0l0,0l0,0.1l0,0l0,0.1l0,0l0,0.1v0.1l0,0l0,0l0,0l0,0.1l0,0l0,0l0,0l0,0l0,0l0,0l0,0l0,0l0,0l0,0l0,0  v0l0,0l0,0.1l0,0l0,0l0,0l0,0l0,0l0,0l0,0.2l-0.1,0.1l0,0.1l0,0.1l0,0v0.1l0,0.1l0,0.1l0,0l0,0.1l0,0l-0.1,0.2l0,0l0,0l0,0.1l0,0  l0,0l0,0.1l0,0l0,0l0,0l0,0l0,0l0,0.1l-0.2,0.2l-0.1,0.1l0,0l0,0h0l0,0l0,0l0,0l0,0l-0.1,0.1h0l-0.1,0.1l-0.1,0l-0.1,0l0,0l-0.1,0  l0,0h0l0,0l0,0l0,0l0,0l0,0l0,0l-0.1,0l0,0l0,0l-0.1,0l0,0l0,0l0,0l-0.2,0l0,0l0-0.1l0,0l0,0l0,0l0-0.1l0,0h0l0,0l0,0l0,0v-0.1l0,0  l0,0l0,0l0,0l0,0l0,0l-0.1,0l0,0l-0.1,0.1h0l0,0l0,0l0,0v0l0,0l-0.1,0.1l0,0l0,0l-0.1,0.1v0.1l0,0l0,0l0,0l-0.1,0.1l0,0l-0.1,0.1  l0,0l-0.1,0.1l0,0l0,0l-0.1,0h0l0,0l0,0l-0.1,0l0,0l0,0l-0.1,0.1l0,0l0,0l0,0l-0.1,0l0,0l0.1,0l0,0l0.1,0l0,0.1l0,0.1l0,0l0,0l0,0  l0,0l0,0l0,0l0,0l0,0l-0.1,0l0,0l0,0l0,0.1l0,0l0,0l0,0l0,0l0,0l0,0l0,0l0,0v0.1l0,0.1l0,0l0,0.1l0,0l0,0l0,0.1v0l0,0l0,0l0,0.1l0,0  l0,0l0,0.1l0,0l0,0l0,0l0,0l0,0l0,0.1l0,0l0,0l0,0l0,0l0,0l0,0l0,0l0,0l0,0l0,0.1l0,0l0,0l0,0l0,0.1l0,0.1v0.1l0,0l0,0l0,0l0,0.1  l0,0.1l0,0l0,0l0,0l0,0l0,0l0,0.1l0,0l0,0.1l0,0l0,0.2l0,0.1l0,0.1l0,0l0,0l0,0l0,0l0,0l0,0.1l0,0l-0.1,0.1l0,0.1l0,0l0,0.1l0,0  l0,0.4l0,0l0,0.1l0,0.1l0,0l0,0l-0.1,0.1h0l0,0l0,0v0l0,0l0,0l-0.2,0.2l0,0l0,0h0l-0.1,0l0,0l0,0l0,0l0,0l0,0l0,0l-0.1,0.1l0,0.1  l0,0l0,0.1l0,0.1l0,0l0,0l0,0l0,0v0l0,0.1l0,0.1l0,0l0,0l0.1,0l0,0l0,0l0,0l0,0l0.1,0l0,0l0,0.1l0,0.1l0,0.1l0,0l0,0.1l0,0l-0.2,0.2  l0,0l0,0.1v0.1l0,0l0,0.2l0,0l0,0.1l0,0l0,0.1l0,0v0l0,0l0,0l0,0l0,0l0,0.1l0,0l0,0.1l0,0.1l0,0l0,0.1l0,0l0,0l0,0.1l0,0.1l0,0v0.1  l0,0.1l0,0l0,0.1l0,0l0,0l0,0l0,0.3l0,0.1l0,0.1l0,0l0,0l0,0l0,0l0,0v0.1l0,0l0,0l0,0.1l-0.1,0.1l0,0.1l0,0.1l0,0l0,0l0,0l0,0.2l0,0  l0,0.1l0,0l0,0l0,0l0,0.1l0,0v0.2l0,0l0,0.1l0,0l0,0l0,0v0.1l0,0l0,0.1l0,0.1l-0.1,0.1l0,0l0,0l0,0.1l0,0.1l0,0.1l0,0l0,0.1l0,0  l0,0.1l0,0v0l0,0l0,0.1l0,0l0,0l0,0.1l0,0.1l0,0l0,0l0,0l0,0.1l0,0l0,0l0,0l0,0l0,0.1l0,0l0,0l0,0l0,0.1l0,0v0.2l0,0l0,0l0,0l0,0  v0.1l0,0v0l0,0v0.1l0,0l0,0l0,0l0,0l0,0l0,0l0,0v0l0,0l0,0.1l0,0.1l0,0.1l0,0v0.1l0,0l0,0l0,0l0,0l0,0l0,0.1l0,0l0,0l0,0.1l0,0.1  l0,0.1l0,0.1l0,0v0.2l0,0l0,0l0,0l0,0l0,0l0,0l0,0.1l0,0v0.1l0,0l0,0.1l0,0l0,0l0,0l0,0l0,0l0,0.1v0.1l0,0l0,0.1l0,0l0,0.1l0,0  l0,0.1l0,0l0,0l0,0l0,0.1l0,0.1l0,0.1l0,0l0,0.1l0,0l0,0.1l0,0l0,0l0,0l0,0.1l0,0l0,0l0,0l0,0l0,0l0,0v0.1l0,0l0,0.1l0,0v0.1l0,0  l0,0l0,0l0,0l0,0l0,0.1l0,0l0,0l0,0l0,0l0,0l0,0l0,0l0,0l0,0l0,0l0,0l0,0l0,0.1l-0.1,0.1l0,0l0,0l0,0l0,0l0,0l0,0l0,0.1l0,0l0,0l0,0  l0,0l0,0l0,0l0,0l0,0l0,0l0,0.1l0,0l0,0l0,0.1l0,0l0,0l0,0l0,0v0l0,0l0,0l0,0l0,0l0,0v0.1l0,0l0,0l0,0.1l0,0.1l0,0.1l0,0.1l-0.1,0.1  l0,0l0,0h0l-0.1,0.1v0l0,0.1l0,0l0,0l0.1,0l0,0l0,0l0,0l0,0l0,0l0,0l0,0h0l0.1,0.1v0.1l0,0.1l0.1,0l0,0.1l0,0l0,0l0,0.1l0,0l0,0  l0,0.1l0,0l0,0l0,0l0,0v0l0,0l0,0l0,0l0,0l0,0l0,0l0,0l0,0l0,0v0l0-0.1l-0.1-0.3l-0.1-0.4l0-0.3l-0.1-0.5l0.1-0.5l0.2-0.6l0.1-0.3  l0-0.6l0.1-0.4l0.4-1.1v-0.2l0.2-0.9l0.2-0.8l0-0.2l0.7,0h46.2l0-0.4l0-0.4l0-1l0-0.9l0-0.8l0-0.8l0-0.7l0-0.9l0-1l0-0.8l0-0.8  l-0.1-0.7l-0.1-0.7l-0.1-0.6l-0.1-0.7l-0.1-0.7l-0.1-0.7l-0.1-0.6l-0.1-0.6l-0.1-0.6l-0.1-0.7l-0.2-0.8l-0.2-0.8l-0.2-0.7l-0.2-0.7  l0.3-0.8l0.2-0.6l0-0.9l0.5-0.5l0.6-0.5l0.6-0.4l0.6-0.4l0.6-0.4l0.5-0.4l0.5-0.4l0.6-0.4l0.6-0.4l0.6-0.4l0.5-0.4l0.6-0.1l0.7-0.1  l0.7-0.1l0.7-0.1l0.7-0.3l0.6-0.3l0.7-0.3l0.7-0.3l0.9-0.2l0.8-0.3v-11.7l0-0.6v-12.4v-0.6v-7.8h6.8l0.6,0h6h0.8h4.8h0.9h11.6l0.7,0  h5.3h0.7h1.2v-21.5L-361,340.2z M-445.3,390.1L-445.3,390.1L-445.3,390.1L-445.3,390.1L-445.3,390.1l-0.1,0.1l0,0l0,0l0,0l0,0l0,0  L-445.3,390.1L-445.3,390.1L-445.3,390.1z M-445.6,390.1L-445.6,390.1L-445.6,390.1L-445.6,390.1L-445.6,390.1L-445.6,390.1  L-445.6,390.1L-445.6,390.1L-445.6,390.1L-445.6,390.1L-445.6,390.1z M-445.6,390.1L-445.6,390.1L-445.6,390.1L-445.6,390.1  L-445.6,390.1L-445.6,390.1L-445.6,390.1L-445.6,390.1z"/></svg>