<svg xmlns="http://www.w3.org/2000/svg" xmlns:xlink="http://www.w3.org/1999/xlink" version="1.1" x="0px" y="0px" viewBox="-461 335 100 100" fill="#e0e0e0" style="enable-background:new -461 335 100 100;" xml:space="preserve"><path d="M-372.7,413.1l-0.2-0.1l-0.1,0l-0.1,0l-0.1,0.1l-0.1,0.1l-0.1,0.1l0.5,0.1l0.3,0l0.1-0.1l-0.1-0.1L-372.7,413.1z   M-371,413.5l-0.2,0l-0.1,0.1l0.1,0.1l0.2,0l0.2,0l0.2,0l-0.1-0.1L-371,413.5z M-378.3,413.1L-378.3,413.1l-0.2-0.1h-0.2l-1-0.1  l-0.2,0l-0.1-0.1l-0.2-0.1l-0.1-0.1h-0.2l-0.3,0l0,0l0,0l0,0l0,0l0.2,0.2l0.1,0.1l0.1,0l0.1,0l0.2,0l0,0l0,0l0.1,0.1l0,0l0.1,0  l0.2,0l0.1,0l0.1,0l0.2,0.1l0.6,0.1l0.2,0l0.1,0l0.2-0.1l0,0l0,0l0,0L-378.3,413.1z M-361,410l-0.1,0l-0.1,0l-0.1,0.1l-0.5-0.2  l-1-0.3l-0.1,0l-0.1-0.1l-0.2-0.1l-0.2,0l-0.1,0l-0.1-0.2l0,0l0,0l-0.1,0l-0.1,0l0,0l-0.1-0.1l-0.1-0.1l-0.1-0.1l-0.1,0l-0.2,0  l-0.2,0.1l-0.2,0.1l-0.2,0.1l-0.2,0.1l-0.7-0.1l-0.2,0.1l-0.1,0.2l-0.2,0.1l-0.2,0l-0.3-0.1l-0.6-0.5l-0.3-0.2l-0.1,0l-0.2,0l0,0  l0,0l-0.8-0.1l-0.2,0l-0.1,0.1l0,0.1l-0.1,0.1l-0.1,0l-0.2,0l-0.1,0l-0.1,0.1l0,0.2l0,0.4l0,0.1l-0.1,0.1l0,0.1l0,0l-0.2,0l-0.2,0.1  l-0.2,0l-0.1,0.1l0,0l0.2,0.2l1,0.5l0.3,0.2l0.1,0.1l0.1,0.2l0.1,0.2l0.2,0.1l0.2,0.2l0.3,0.1l0.6,0.1l0.3,0l1.6-0.3l0.2,0l0.1,0  h0.1l0.1-0.1l0.1-0.1l0.2,0l0.7,0l0.1,0l0.2-0.2l0.2-0.1l0.1,0l0.2-0.2l0.1-0.1l0.3-0.1l1-0.2l0.3-0.3l0-0.2l0-0.1l0.1,0l0.2,0  l0.3-0.1l0.2,0L-361,410z M-460.8,389.2L-460.8,389.2l-0.2,0l-0.1,0.1l0,0.1l0.1,0.2l0-0.1l0.1,0l0-0.1V389.2z M-458.6,383.9l-0.2,0  l0,0l-0.3-0.2l-0.1,0l0,0l0,0.1l0,0.1l0.1,0l0.2,0l0.5,0.1l0.1-0.1l0-0.1L-458.6,383.9L-458.6,383.9z M-450.7,409.1l-0.2,0l-0.1,0  l-0.1,0l0,0.1l0.1,0l0.1,0l0.1,0.1l0.1,0l0.1-0.1l0-0.1l-0.1-0.1L-450.7,409.1z M-456.1,397.5L-456.1,397.5l-0.2,0.1l-0.2,0.1  l-0.2,0.1l-0.1,0.1l0.1,0.2l0.2,0.2l0.2,0.1l0.2,0.1l-0.1,0.2l0.2,0l0.1-0.1l0-0.1l0-0.3l0.1-0.3v-0.1l0-0.1L-456.1,397.5z   M-456.1,400l-0.3,0.2l-0.2,0.4l-0.1,0.2l0,0.1l0.4-0.2l0.1-0.1l0.1-0.2l0.2-0.3l0-0.2l-0.1-0.1L-456.1,400z M-457.3,387.2  L-457.3,387.2L-457.3,387.2L-457.3,387.2v-0.1l0-0.1l0-0.1l0.1-0.3v-0.1l-0.1,0l-0.1,0.1l-0.1,0l-0.1,0l0,0l0.1-0.1l0.1-0.1l0-0.1  l0,0l0,0l0-0.1l0.2-0.1l0-0.1l-0.1,0l-0.2,0.1l0,0.1l0,0.1l-0.1,0.1l-0.1,0.1l-0.1,0.1l0,0.4l-0.1,0.2l0,0.2l0.1,0.1l0.1,0.1l0.1,0  l0.1-0.1L-457.3,387.2L-457.3,387.2z M-372.9,376.2l0.2-0.1l-0.5-1.1l-0.5-1.1l-0.5-1.1l-0.5-1.1l-0.3-0.7l-0.1-0.1l-0.1,0l-0.3,0  l-0.1-0.1l0,0l0,0l0,0l-0.3-0.6l-0.3-0.8l-0.3-0.8l-0.3-0.8l-0.3-0.8l-0.3-0.8l-0.3-0.8l-0.3-0.8l-0.3-0.8l-0.3-0.8l-0.3-0.8  l-0.3-0.8l-0.3-0.8l-0.3-0.8l-0.3-0.8l-0.3-0.8l-0.3-0.8l-0.3-0.7l-1.3,0.2l-1.3,0.2l-1.3,0.2l-1.3,0.2l-1.3,0.2l-1.3,0.2l-1.3,0.2  l-1.3,0.2l-1.3,0.2l-1.3,0.2l-1.3,0.2l-1.3,0.2l-1.3,0.2l-1.3,0.2l-1.3,0.2l-1.3,0.2l-1.3,0.2l-1,0.1l-0.8,0.3l-0.4,0.2l-1.2,0.6  l-1.4,0.7l-1.5,0.8l-1.4,0.7l-1,0.5l-0.2,0.1l-0.6,0.8l-0.7,0.9l-1.3,1.6l-1.2,1.5l-0.8,1l-0.1,0.3l-0.4,1.1l-0.5,1.5l-0.2,0.3  l-0.9,0.5l-1,0.6l-0.2,0.1l-0.3,0l-1.2,0l-0.1-0.1l-0.7-0.9l-0.6-0.8l-0.5-0.7l-0.3-0.2l-1.8,0.2l-1.3,0.2l-2-0.2l-1.5-0.2l-2-0.2  l-1.7-0.2l-0.4-0.1l-1.3-0.8l-0.5-0.1l-1.4,0l-1.2,0l-1.6,0l-0.2,0l-0.5,0.2l-0.2,0l-0.6-0.1l-0.5,0l-0.8,0.1l-0.6,0.1l-0.2,0  l-0.3-0.1l-0.2,0l-0.1,0.1l-0.1,0.2l-0.1,0.2l-0.2,0.1l-0.2,0l-0.3-0.2l-0.1,0l-0.2,0.1l-0.1,0.1l-0.1,0.2l-0.1,0.1l-0.2,0l-0.1,0  l0,0l0,0l0-0.1l0-0.2v-0.1l0,0l-0.2,0.1l-0.1,0l-0.3,0l-0.3,0h-0.1l-0.2-0.1l-0.3-0.3l-0.6-0.6l-0.3-0.2l-0.6-0.3l-0.1,0l-0.3,0  l-0.1,0l-0.2,0l-0.2,0.1l-0.7,0.4l-0.7,0.6l-0.4,0.5l0,0l0.5,0.2l0.2,0.1l0.1,0.2l0,0.2l-0.2,0.1l-0.2,0l-0.2,0.1l-0.2,0.1l0,0.2  l0,0.2l0,0.2l-0.2,0.3l0,0.2l0,0.1l0.1,0.1l0,0.2l0,0.2l0,0.2l-0.1,0.3l-0.1,0.2l0,0.1l0.2,0.3l0.1,0.3l0.1,0.1l0.3,0.1l0.1,0.1  l0.1,0.1l0,0.1l0,0.1l-0.1,0l-0.1,0l-0.1,0.1l-0.1,0.2l0,0.1l0.1,0.1l0.1,0.2l0,0.2l-0.1,0l-0.3-0.1l-0.2,0l-0.1,0l0,0.1l0,0.2  l0,0.2l-0.2,0.5l-0.1,0.1l-0.2,0.1l-0.4,0.2l-0.1,0l-0.3,0.1l-0.1,0l0,0.1l0,0.1l0,0.1l-0.1,0.1l-0.2,0.1l-0.3,0.1l-0.4,0.1l0,0  l0.1,0.1l0,0l0,0v0l0,0l0,0l0,0.2l0,0.1l0,0.6l0.2,1.2l0,0.4l-0.1,1.1l0,0.2l-0.1,0.1l-0.1,0.1l-0.1,0.1l-0.1,0.1l-0.1,0.2l0,0.2  l0,0.1l0,0.1l0,0.1l-0.1,0.1l-0.1,0.1l-0.1,0.1l-0.1,0.1l-0.1,0.1l0.2,0.1l0,0.1l-0.1,0.3l0,0.1l0.1,0.1l0.1,0.1l0.1,0.1l-0.1,0.1  l0,0.1l0.3,0.5l0.1,0.2l0,0.1l0,0.1l0,0.1l0,0.1l0,0.1l0,0.1l0,0.1l0.1,0.2l0.1,0.3l0,0.6l0,0.2l-0.1,0.1l0,0l0,0l0,0l0,0.1l-0.1,0  l0-0.1l0-0.2l0-0.1l0-0.1l-0.3-0.3l-0.1-0.1l-0.2-0.1l0.1-0.1l0.1-0.1l0-0.1l0-0.1l-0.1,0.1l-0.2,0.4l0,0.1l0.1,0.1l0,0.1l0,0.1  l0,0.1l-0.1,0.1l-0.1,0l-0.3-0.1l-0.1,0l0.1,0.1l0,0.2l0.2,0.1l0.2,0.1l0.1,0l0-0.2l0.1-0.1h0.2l0.2,0l0.2,0.1l0.2,0.1l0.2,0.1  l0.3,0.2l0.3,0.1l0.1,0.1l0,0.1l0,0.4l0,0.2l0.1,0.1l0.1,0.1l0.2,0.2l0.1,0.1l0,0.1l0,0.3l0.1,0.3l0,0.2l-0.1,0.3l0,0.1l-0.2-0.1  l-0.1-0.2l-0.1-0.2l-0.1-0.2v-0.1l0-0.1l0-0.1l0-0.1l-0.1,0l0,0.1l0,0.2l0.1,0.3l0.4,0.5l0.1,0.3l0,0.1l0.1,0.3l0,0.1l0,0l0,0l0,0  l0.1,0l0.1,0l0,0.1l0,0l0,0l0,0.1l0,0l-0.1,0.1l0,0.1l0.1,0.3l0.2,0.3l0.1,0.3l-0.1,0.3l0,0.1l0,0.1l0,0.2l-0.1-0.1l-0.1-0.4  l-0.1-0.2l-0.1-0.1l-0.1,0l0,0l0,0.1l0,0l0.1,0.1l0,0l0,0.1l0,0.3l0.1,0.2l0,0.3l0.1,0.2l0.4,0.6l0.1,0.2l0.1,0.4l0.2,0.3l0,0.2  l-0.2,1.1l0.1,0.3l0.1,0.1l0.4,0.3l0.6,0.6l0,0.1l0.1,0.7l0,0.1l0.3,0.5l0,0.3l0,0.6l0.1,0.3l-0.1,0l0,0.1l0,0.1l0,0.1l-0.2,0.3  l0,1.5l-0.1,0.3l-0.1,0.3l0.2,0.6l0.5,0.6l0,0.1l0.1,0.2l0.1,0.2l0,0.1l0,0.1l0.3,0.3l0.1,0.1l0.1,0.1l0,0.2l0,0.2l0,0.1l0.1,0.1  l0.1,0.1l0,0.1l0,0.1l0.2,0.2l0.2,0.3l0.1,0.3l0,0.3l-0.2,0.7l0,0.1l0.2,0l0.2,0l0.1-0.1l0.5-0.5l0.1,0l0.1,0l0.1,0l0.1,0.1l0.1,0  l0.3,0l0.2,0.1l0.3,0.2l0.1,0l0.2,0l0.2,0l0.2,0.1l0.1,0.1l0.2,0.1l0.1,0.1l0.2,0l0.1,0.1l0.1,0.3l0.2,0.1l0.1,0l0.2-0.1l0.2,0.1  l0.1,0l0.2-0.1l0.5-0.3l0.3-0.1l0.2,0l0.1-0.1l0.1,0.1l0,0.1l-0.1,0.1l-0.1,0l-0.2,0l-0.1,0l0.1,0.1l0.2,0.1l0.2,0l0.3-0.2l0.2,0  l0.2,0l0.2,0l0.5-0.3l0.2-0.1l0.2-0.1l0,0l0,0.1l0.1,0l0.1-0.1l0,0l0.5-0.5l0.4-0.4l0.2-0.1l0.3-0.1l0.3,0l0.3,0.1l0.1,0.1l0.1,0.1  l0,0.1l0,0.1l0,0l0,0l0,0l0.3-0.2l0.2-0.1l0.2,0l0.1,0l0,0v0l0,0.1l0.1,0l0.2,0.1l0.1,0l0.1-0.1l0.1-0.1l0.1-0.1l0-0.1l0,0l-0.3,0  l0,0l-0.1,0.1l0-0.2l0-0.1l0.1-0.1l0.1,0.1l0.2,0l0.1-0.1l0.1-0.1l0,0l0.1,0l0.2,0l0,0l0.1,0l0,0l0,0l0.1-0.1l0,0l0,0l0,0l0,0l0.1,0  v0l0,0l0,0l0,0l0.1,0.2l0,0l-0.1,0.1l-0.1,0l-0.2,0l-0.1,0l0,0.1l0.1,0.1l0.2,0.1l0.2,0l0.2,0l0-0.1l0-0.3l0-0.1l0.2-0.5l0,0l0-0.1  l0.1-0.2l0.1-0.2l0.1-0.1l0.3-0.2l0.3-0.2l1.4-0.3l0.3-0.1l0.3-0.2l0.4-0.5l0.1-0.3l0.1-0.1l0.2-0.2l0.8-0.8l0.3-0.1l1.1-0.2  l0.1-0.1l0.1,0l0.3,0l0.1,0l0.3-0.1l0.1,0l1.4-0.1l0.7-0.1l0.2-0.1l0,0l0,0l0.1,0l0.2,0.1l0.4,0.1l1.7,0l0.2,0l0.3-0.2l0.2,0l0.2,0  l0.3,0.1l0.2,0l0.1,0l1-0.4l0.7-0.5l2.1-0.4l1.9-0.6l0.3-0.2l1-0.9l0.7-0.7l0.2-0.1l1.2-0.4l0.4-0.2l0.4-0.5l0.1-0.1l0.1,0l0.4-0.1  l0.1-0.1l0.7,0.2l0.2,0.1l0.1-0.1l0.1,0.1l0.2,0.1l0.1,0.1l0,0.2l0.9-0.3l0.3,0l0-0.1l0,0l0.6,0l0.3,0.1l0.1,0.2l0.1-0.1l0.1,0  l0.1,0l0.1,0l0.4-0.3l0.1,0l0.9,0l0.1,0l0.1,0l0,0l0.1-0.1l0,0l0.2-0.1l0.5-0.6l0.3-0.1l0.1-0.1l0.1-0.2l0.1-0.1l0.1,0l0,0l0-0.2  l0-0.1l0-0.1l0.1-0.1l0.1,0l0.1-0.1l0-0.2l0.1-0.1l0.3-0.1l0.1-0.1l0-0.1l0-0.1l0-0.1l-0.1,0l0.1-0.3l0.1-0.3l0.4-0.6l0.1-0.1  l0.2-0.1l0.2,0l0.2,0.1l0.1,0.1l0.1,0l0.1-0.3l0.3-0.2l0.7-0.3l0.3-0.2l0.2-0.1l0.4-0.1l0.3-0.1l0.9-0.5l1.8-0.5l1.2-0.4l0.5,0  l0.1,0l0.1,0l0,0.1l0,0.2l0.1,0l0.1,0l0.2,0l0.3-0.2l0.2,0l0.2,0.1l0.1,0l0.5-0.4l0.5-0.2l0.3-0.1l0.1-0.1l0.6-0.5l0.2-0.1l0.8-0.3  l0.9-0.1l1.5-0.4l1.8-0.3l1.6-0.4l0.2-0.1l0.2-0.1l0.2-0.1l0.2,0.1l0.1-0.1l0.4-0.2l0.1,0l0-0.1l0.1,0l0.2,0l0.2-0.2l0.1-0.1  l0.1-0.1l0.2-0.1l0.9-0.1l0.2-0.1l0-0.1l-0.1-0.1l0-0.2l0-0.1l0.1-0.1l0.6-0.4l0.4-0.1l0.1,0l0.1-0.1l0.1,0l0.1,0.1l0.1,0l0,0l0,0  l0,0l0-0.1l0,0h0l0,0l0,0l0-0.2l0.3-0.2l0.6-0.2l0.1,0l0.1,0l0.1,0l0,0l0.1-0.1l0.1-0.1l1.2-0.3l0.2,0l0.1,0l0,0l0-0.1l0-0.1l0,0  l0-0.1l0-0.1l0,0l0,0l-0.1-0.1l-0.1-0.4l0-0.4l0.1-0.6l0-0.1l-0.3-0.1l-0.1-0.1l0.1-0.3l-0.1-0.2l-0.1-0.2l-0.1-0.2l0-0.2l0.2-0.2  l0.1-0.3l0.2-0.2l0.1-0.2l0,0l0-0.1l0-0.1v-0.1l0-0.1l0.1-0.1l0.3-0.3l0.1-0.3l0.1-0.2l0.2-0.2l0.8-0.7l0.9-0.6l0.5-0.2l1.1-0.3  l0.1-0.1l0.3-0.2l0.2-0.1l0.3-0.1l0.3-0.2l0.2-0.1l0.1-0.1l0.2-0.2l0.1,0l0.1,0l0.1,0l0.1-0.1l0.3,0.1L-372.9,376.2z"/></svg>