<svg xmlns="http://www.w3.org/2000/svg" xmlns:xlink="http://www.w3.org/1999/xlink" version="1.1" x="0px" y="0px" viewBox="-461 335 100 100" fill="#999999" style="enable-background:new -461 335 100 100;" xml:space="preserve"><polygon points="-361,362.2 -361.1,362.1 -361.1,361.8 -361.3,361.8 -361.4,361.7 -361.6,361.3 -361.7,361.2 -361.9,361 -362,360.9   -362.2,360.4 -362.2,360.1 -362.2,359.7 -362.2,359.4 -362.3,359.3 -362.5,359.1 -362.7,358.9 -362.9,358.8 -363,358.7   -363.2,358.6 -363.4,358.4 -364.1,358.1 -364.2,357.9 -364.2,357.7 -364.1,357.5 -364,357.1 -363.7,356.7 -363.6,356.5   -363.7,356.3 -363.8,355.9 -363.9,355.9 -364.2,355.8 -364.3,355.7 -364.4,355.6 -364.5,355.5 -364.6,355.3 -364.7,355.2   -364.9,355 -365,354.9 -365,354.8 -365,354.7 -364.9,354.6 -364.9,354.6 -364.9,354.4 -365,354.3 -365.1,354.1 -365.3,354   -365.7,353.9 -365.9,353.8 -366,354.1 -366,354.3 -366.1,354.5 -366.3,354.4 -366.3,354.3 -366.3,354.2 -366.4,354.1 -366.5,354.1   -366.6,354.1 -366.7,354.2 -366.8,354.2 -366.9,354.2 -367,354 -366.8,353.3 -366.8,353.1 -366.9,353.1 -367,353 -367.1,352.9   -367.2,352.9 -367.2,353 -367.3,353 -367.4,352.9 -367.4,352.8 -367.4,352.3 -367.6,352.2 -368.2,352 -368.6,351.7 -368.7,351.7   -368.8,351.7 -368.9,351.7 -368.9,351.6 -369,351.5 -369,351.4 -369.1,351.3 -369.2,351.2 -369.8,351.2 -370.6,351 -370.9,351   -371,350.9 -371.1,350.7 -371.3,350.3 -371.4,350.2 -371.7,350 -372,349.9 -373.2,350 -373.3,349.9 -373.5,349.9 -373.7,349.7   -374,349.4 -374.2,349.3 -374.2,349.3 -374.4,349.4 -374.5,349.4 -374.6,349.4 -374.8,349.2 -375,349.2 -375.2,349.2 -375.3,349.3   -375.5,349.4 -375.8,349.3 -376,349 -376,348.6 -375.9,348.2 -377.1,347.9 -377.3,347.9 -377.6,348 -377.8,348.1 -378,348.1   -378.1,348 -378.9,347.4 -379.1,347.1 -379.2,346.8 -379.2,346.5 -379.3,346.2 -379.4,346.1 -379.8,346 -379.9,345.9 -380.1,345.7   -380.2,345.6 -380.3,345.6 -380.5,345.6 -380.6,345.6 -380.7,345.6 -380.7,345.5 -380.7,345.3 -380.8,345.3 -380.8,345.2   -380.9,345.2 -380.9,345.3 -381,345.3 -381.1,345.3 -381.5,345.5 -381.6,345.5 -381.6,345.6 -381.7,345.5 -381.8,345.5 -382,345.2   -382.1,345.2 -382.3,345.2 -382.5,345.3 -382.7,345.4 -382.8,345.5 -383.2,345.5 -383.6,345.3 -383.9,345.1 -384.2,344.9   -384.8,344.3 -385.3,343.5 -385.8,342.7 -386,341.9 -387.4,342.1 -389.6,342.4 -391.4,342.7 -393.6,343 -395.9,343.4 -397.8,343.7   -399.2,343.9 -400.7,344.1 -401.7,344.3 -401.9,344.3 -401.9,344.5 -401.5,345.3 -401.6,346 -401.9,346.8 -403,348.2 -404.4,349.6   -405.2,350.2 -406,350.6 -406.3,350.8 -406.5,351.1 -406.4,351.4 -406,351.6 -405.6,351.7 -405.3,351.8 -405.1,352 -405.1,352.2   -405.1,352.4 -405.1,352.5 -405.1,352.6 -405,352.7 -404.8,352.9 -404.7,353 -404.7,353.1 -404.7,353.2 -404.7,353.3 -404.6,353.4   -404.5,353.5 -404.2,353.5 -404.3,353.5 -404.5,353.6 -404.5,353.6 -404.5,353.7 -404.3,353.9 -404.3,354 -404.3,354.1   -404.2,354.3 -404.2,354.4 -404.2,354.8 -404.1,354.9 -404,355.1 -403.9,355.2 -403.8,355.2 -403.8,355.2 -403.8,355.4   -403.5,355.6 -403.6,355.6 -403.7,355.7 -403.8,355.9 -403.9,356.2 -404.2,356.8 -404.2,357 -404.1,357.6 -404.1,358.3   -404.2,358.6 -404.4,358.9 -404.6,359.1 -404.6,359.3 -404.4,359.5 -404.3,359.6 -404.3,359.7 -404.3,359.7 -404.3,359.7   -404.2,359.8 -404.2,359.8 -404.1,360 -404.2,360.1 -404.2,360.2 -404.2,360.4 -404.2,360.6 -404.1,360.8 -404.1,360.9 -404,361.1   -404,361.2 -404,361.3 -404,361.4 -404.1,361.5 -404.1,361.6 -404.1,361.7 -404.1,361.8 -404.1,361.9 -404,362 -403.8,362.3   -403.8,362.4 -403.8,362.6 -403.8,362.7 -403.8,362.7 -403.6,362.9 -403.5,363 -403.6,363.1 -403.7,363.3 -403.8,363.4   -403.9,363.5 -404,363.5 -404.1,363.5 -404.2,363.5 -404.2,363.6 -404.3,363.8 -404.4,364 -404.4,364.1 -404.6,364.2 -404.7,364.4   -404.8,364.6 -404.8,364.8 -404.8,365.2 -404.8,365.3 -404.9,365.5 -404.9,365.6 -405,365.6 -405.1,365.8 -405.2,365.9 -405.2,366   -405.2,366.2 -405.2,366.2 -405.2,366.3 -405.3,366.5 -405.4,366.7 -405.4,366.8 -405.4,367.3 -405.4,367.4 -405.4,367.4   -405.4,367.6 -405.5,367.6 -405.5,367.7 -405.5,368 -405.6,368.3 -405.7,368.4 -405.8,368.5 -405.8,368.7 -405.8,369.1   -405.8,369.1 -406,369.2 -406,369.3 -406.5,369.9 -406.5,370.1 -406.5,370.5 -406.4,370.7 -406.4,370.7 -406.3,371 -406.2,371.1   -406.1,371.2 -406.1,371.3 -405.9,371.8 -405.9,371.9 -405.9,371.9 -405.9,372 -405.8,372.1 -405.7,372.2 -405.7,372.8   -405.6,372.9 -405.4,373 -405.3,373 -405.3,373.5 -405.2,373.6 -405.1,373.5 -405,373.5 -404.9,373.6 -404.8,373.7 -404.8,373.7   -404.7,373.9 -404.7,374 -404.5,373.8 -404.3,373.9 -404.2,374.3 -404.1,374.3 -403.7,374.6 -403.5,374.6 -403.2,374.6   -403.1,374.6 -403.1,374.9 -403,375 -402.9,375.1 -402.6,375.3 -402.5,375.4 -402.4,375.5 -402.3,375.7 -402.2,375.8 -402.2,375.9   -401.7,376.2 -401.4,376.5 -400.7,377.8 -400.7,377.9 -400.7,378 -400.7,378 -400.6,378 -400.5,378 -400.4,378.1 -400.2,378   -400.1,378 -400,378.1 -399.9,378 -399.7,378 -399.5,377.9 -398.8,377.9 -398.7,377.9 -398.5,378.1 -398.4,378.2 -398.4,378.2   -398.3,378.2 -397.9,378.3 -397.9,378.3 -397.5,378.5 -397.3,378.5 -397.2,378.6 -397.1,378.5 -397,378.5 -397,378.6 -397,378.6   -396.9,378.6 -396.9,378.7 -396.7,378.6 -396.6,378.6 -396.5,378.4 -396.5,378.3 -396.5,378.1 -396.6,378.1 -396.7,378.1   -396.9,378 -397.1,377.7 -397.2,377.6 -397.1,377.5 -397.1,377.5 -397.1,377.3 -397,376.9 -396.9,376.8 -396.8,376.7 -396.4,376.6   -396.2,376.5 -396.1,376.4 -396,376.3 -395.9,376.3 -395.8,376.4 -395.7,376.5 -395.6,376.6 -395.4,376.6 -395,376.4 -394.7,376.1   -394.5,376.1 -394.1,376 -394.1,376.1 -394.1,377 -394.1,378 -394.1,379.5 -394.1,380.8 -394.1,382.3 -394.1,383.6 -394.1,384.8   -394.1,386.1 -394.1,387.1 -394.3,387.4 -394.4,387.4 -395,387.4 -395.3,387.3 -395.5,387.2 -395.6,387.2 -395.7,387.1 -395.7,387   -395.8,386.9 -395.8,386.8 -395.8,386.7 -395.8,386.6 -395.7,386.6 -395.6,386.6 -395.6,386.5 -395.6,386.3 -395.6,386.3   -395.6,386.2 -395.4,386.2 -395.3,386.1 -395.3,386 -395.3,386 -395.2,385.9 -395.3,385.8 -395.3,385.7 -395.4,385.7 -395.5,385.7   -395.6,385.7 -395.8,385.6 -395.9,385.5 -396.1,385.4 -396.3,385.4 -396.5,385.5 -397,385.9 -397.1,386 -398.3,386.5 -398.8,386.8   -399,386.9 -399.1,387 -399.3,387.2 -399.4,387.2 -399.5,387.2 -399.6,387.1 -399.7,387 -399.7,386.9 -399.9,386.8 -400.1,386.8   -400.3,386.8 -400.6,386.8 -400.7,386.9 -400.9,386.9 -401,386.9 -401.1,386.7 -401.4,386.5 -401.5,386.1 -401.8,384.8   -401.9,384.7 -402,384.7 -402.1,384.7 -402.2,384.6 -402.3,384.3 -402.3,384.3 -402.4,384.3 -402.4,384.3 -402.5,384.2   -402.5,384.2 -402.5,384.1 -402.5,384 -402.5,384 -402.4,383.9 -402.4,383.9 -402.4,383.8 -402.6,383.8 -402.6,383.7 -402.7,383.4   -402.7,383.3 -402.9,383.2 -403.5,382.5 -403.8,382.1 -404.2,382 -404.3,382.1 -404.4,382.3 -404.5,382.4 -404.7,382.5   -404.8,382.5 -404.9,382.4 -404.9,382 -405,381.8 -405.2,381.6 -405.4,381.3 -405.5,381.1 -405.4,381 -405.2,380.9 -405.1,380.7   -405.1,380.5 -405.2,380.4 -405.5,380.1 -405.6,379.9 -405.8,379.4 -405.9,379.2 -406.6,378.6 -406.8,378.5 -406.9,378.5   -407.1,378.5 -407.3,378.5 -407.5,378.5 -407.6,378.4 -407.8,378.3 -407.9,378.2 -408.1,378.3 -408.3,378.4 -408.4,378.4   -408.6,378.3 -408.6,378.2 -408.7,378.1 -408.7,378 -408.8,378 -409.4,377.9 -409.5,377.9 -409.7,378 -409.9,377.9 -409.9,377.7   -410,377.5 -410.1,377.3 -410.6,377.1 -410.7,377 -411,377 -411.1,377 -411.2,377.2 -411.3,377.3 -411.6,377.4 -412,377.4   -412.4,377.3 -412.6,377.3 -413,376.9 -413.5,376.4 -413.6,376.3 -414,375.1 -414.1,374.7 -414.5,374 -416.1,373.1 -416.3,372.3   -416.3,372 -416.3,371.6 -416.4,371.2 -416.5,371 -416.6,371 -416.8,371.1 -417.2,371.1 -417.5,371.2 -417.6,371.2 -417.8,371.2   -417.9,371.2 -418,371.3 -418,371.5 -417.9,371.9 -417.9,372.1 -418,372.2 -418.1,372.3 -418.2,372.5 -418.3,372.9 -418.4,373.6   -418.5,373.9 -418.8,374.2 -419.1,374.4 -419.5,374.5 -419.9,374.4 -420.1,374.4 -420.3,374.5 -420.4,374.7 -420.5,374.8   -420.7,374.9 -420.8,374.8 -421,374.7 -421.1,374.6 -421.4,374.5 -422.1,374.5 -422.4,374.4 -422.6,374.2 -422.7,374.1 -422.9,374   -423.1,373.9 -423.4,374 -423.7,374 -423.8,374 -424,374.2 -424.1,374.2 -424.2,374.2 -424.4,374.1 -424.7,374.1 -424.8,374   -425,373.9 -425.2,373.9 -426.7,373.9 -426.8,373.9 -426.9,373.8 -427.1,373.5 -427.2,373.4 -427.4,373.4 -427.8,373 -427.9,372.9   -427.9,372.9 -428,372.9 -428.1,372.9 -428.2,373 -428.3,373 -428.8,373 -429,373 -429.3,372.8 -429.6,372.5 -429.9,372.4   -430.3,372.3 -430.3,372.4 -430.3,372.5 -430.4,372.6 -430.5,372.6 -430.6,372.6 -430.6,372.7 -430.7,372.7 -430.8,372.8   -430.9,372.8 -431.1,372.7 -431.1,372.6 -431,372.4 -431,372.3 -431,372.3 -431.1,372.2 -431.2,372.1 -431.7,371.9 -431.8,371.8   -431.8,371.7 -431.9,371.7 -432,371.6 -432.1,371.6 -432.2,371.6 -432.2,371.6 -432.3,371.5 -432.4,371.4 -432.6,370.7   -432.6,370.5 -432.6,370.4 -432.6,370.4 -432.5,370.2 -432.5,370.1 -432.5,370 -432.7,369.6 -432.8,369.5 -432.8,369.3   -432.7,369.2 -432.6,369.1 -432.6,368.9 -432.6,368.8 -432.7,368.8 -432.7,368.7 -432.6,368.6 -432.5,368.6 -432.4,368.5   -432.4,368.4 -432.4,368.2 -432.4,368 -432.4,367.8 -432.5,367.7 -432.8,367.8 -433.6,368.2 -434.1,368.3 -435.3,368.4   -435.7,368.4 -436,368.5 -436.7,368.8 -437,368.9 -437.6,368.9 -438,369 -438.1,369.1 -438.2,369.3 -438.3,369.4 -438.4,369.4   -438.6,369.5 -438.7,369.5 -438.7,369.6 -438.8,369.6 -438.8,369.7 -438.8,369.8 -438.9,369.9 -439,369.9 -439.1,369.9   -439.2,369.9 -439.5,370 -439.7,370.1 -439.9,370.1 -440.1,370 -440.4,369.7 -440.6,369.6 -440.7,369.6 -441.1,369.6 -441.2,369.5   -441.3,369.3 -441.2,369.2 -440.8,369.1 -440.7,369 -440.4,368.6 -440.4,368.5 -440.3,368.3 -440.3,368.1 -440.3,367.9   -440.4,367.8 -440.4,367.7 -440.6,367.6 -440.6,367.5 -440.6,367.3 -440.6,367.3 -440.5,367.2 -440.5,367.1 -440.6,366.9   -440.8,366.7 -441,366.6 -441.2,366.5 -441.4,366.5 -441.7,366.5 -441.9,366.4 -442.2,366.3 -442.3,366.3 -442.5,366.4   -442.7,366.4 -442.7,366.3 -442.7,366 -442.7,365.9 -442.8,365.7 -442.8,365.6 -442.8,365.6 -442.7,365.4 -442.7,365.3   -442.9,365.2 -443.3,365 -443.7,364.9 -444,364.9 -443.9,365.4 -443.9,365.5 -443.7,365.8 -443.7,365.9 -443.7,366.1 -443.8,366.2   -443.8,366.7 -443.8,367 -443.8,367.1 -443.6,367.2 -443.6,368.4 -443.6,368.6 -443.2,369.5 -443.2,369.6 -443.3,369.7   -443.5,369.9 -443.6,370 -443.7,370.1 -443.7,370.2 -443.6,370.4 -443.6,370.6 -443.7,370.7 -443.9,371 -444.1,371.4 -444.1,371.6   -444.1,371.8 -444,371.9 -444,372.1 -443.9,372.3 -443.8,373 -443.8,373.2 -443.8,373.3 -444,373.7 -444.1,374.8 -444.1,376   -444.1,376.4 -443.9,376.7 -443.7,376.9 -443.6,377.1 -443.5,377.7 -443.5,378.1 -443.5,378.2 -443.6,378.4 -443.8,378.8   -444.2,379.3 -444.3,379.6 -444.5,380.2 -444.6,380.8 -444.8,381.2 -444.9,381.6 -444.8,381.9 -444.6,382.1 -444.2,382.6   -444,382.8 -443.8,383.1 -443.7,383.4 -444,383.4 -445.1,383.4 -446.1,383.4 -447.2,383.4 -448.2,383.4 -449.3,383.4 -450.4,383.4   -451.4,383.4 -452.5,383.4 -453.6,383.4 -454.6,383.4 -455.7,383.4 -456.7,383.4 -457.8,383.4 -458.9,383.4 -459.9,383.4   -461,383.4 -461,384.7 -461,386.1 -461,387.4 -461,388.7 -461,390 -461,391.3 -461,392.6 -461,394 -461,395.3 -461,396.6   -461,397.9 -461,399.3 -461,400.6 -461,401.9 -461,403.2 -461,404.6 -461,404.9 -461,405.1 -461,405.4 -461,405.8 -461,406.7   -461,407.6 -461,408.5 -461,409.4 -461,409.8 -461,409.8 -461,410.3 -461,410.9 -461,411 -461,411.2 -460.7,411.5 -460.4,412   -460.7,412 -460.7,412 -460.6,412.1 -460.6,412.2 -460.6,412.3 -460.6,412.5 -460.5,412.5 -460.4,412.6 -460.4,412.6 -460.4,412.7   -460.4,412.9 -460.3,413 -460.1,413 -459.9,413.1 -459.9,413.2 -460,413.3 -460.1,413.5 -460.1,413.6 -460.1,413.8 -460.1,413.9   -460,414.2 -459.9,414.3 -459.9,414.4 -459.9,414.5 -459.9,414.6 -459.7,414.6 -459.6,414.6 -459.6,414.8 -459.6,414.9 -459.5,415   -458.8,415.6 -458.7,415.7 -458.6,415.7 -458.5,415.6 -458.4,415.6 -458.4,415.6 -458.3,415.6 -458.3,415.6 -458.2,415.7   -458.2,415.7 -458,415.7 -457.9,415.8 -457.8,415.9 -457.7,416.1 -457.6,416.2 -457.6,416.3 -457.5,416.3 -457.4,416.3   -457.3,416.4 -457.3,416.4 -456.6,417.4 -456.6,417.7 -456.5,417.8 -456.4,417.9 -456.1,417.9 -456,418.1 -456,418.1 -456,418.3   -455.9,418.4 -455.9,418.4 -455.8,418.4 -455.3,418.6 -455.1,418.7 -454.8,419.1 -454.6,419.3 -454.5,419.6 -454.4,420   -454.3,420.1 -454.2,420.2 -453.9,420.4 -453.6,420.7 -453.3,420.8 -452.8,421 -452.4,421.2 -452.3,421.2 -451.9,421.6   -451.9,421.7 -451.8,421.9 -451.7,422.2 -451.4,422.5 -451.2,422.6 -450.9,422.8 -450.8,422.9 -450.7,423 -450.8,423.1   -450.8,423.3 -450.7,423.4 -450.5,423.4 -450.4,423.4 -450.2,423.4 -450.1,423.4 -449.8,423.4 -449.7,423.4 -449.5,423.5   -449.4,423.6 -449.2,423.8 -449,424 -449.1,424.1 -449.1,424.2 -449,424.3 -448.7,424.2 -448.4,424.2 -448.2,424.2 -447.9,424.1   -447.6,424.1 -447.2,424 -446.9,423.9 -446.5,423.8 -446.1,423.8 -445.8,423.7 -445.4,423.6 -445,423.5 -444.7,423.5 -444.3,423.4   -443.9,423.3 -443.6,423.2 -443.2,423.2 -442.8,423.1 -442.5,423 -442.1,422.9 -441.8,422.9 -441.7,422.9 -441.5,422.9   -441.1,422.9 -441,423 -440.9,422.9 -440.5,422.8 -440.4,422.8 -440.2,422.8 -439.9,423 -439.6,423 -439.5,423.1 -439.2,423.1   -439.2,423.2 -439.1,423.2 -439.1,423.3 -438.9,423.3 -438.8,423.4 -438.8,423.4 -438.7,423.3 -438.5,423.2 -438.4,423.1   -438.4,423.1 -438.3,423 -438.3,423 -437.9,423 -437.1,423.1 -437.1,423.1 -437.1,423.2 -437,423.2 -436.9,423.2 -436.6,423.2   -436,423.3 -435.8,423.4 -435.7,423.6 -435.5,423.5 -435.4,423.6 -435.3,423.7 -435.2,423.8 -435.1,423.8 -434.9,423.8   -434.9,423.8 -434.8,423.8 -434.9,424 -434.9,424 -434.8,424.1 -434.8,424.1 -434.7,424.1 -434.6,424.1 -434.6,424.2 -434.4,424.3   -434.4,424.3 -434.3,424.6 -434.3,424.6 -434.3,424.7 -434.2,424.7 -434.1,424.8 -434.1,424.8 -434.1,424.7 -434,424.7   -433.9,424.9 -433.8,424.9 -433.8,425 -433.8,425.1 -433.8,425.1 -433.7,425.2 -433.7,425.2 -433.5,425.3 -433.5,425.4   -433.3,425.4 -433.2,425.4 -433.1,425.5 -433,425.6 -433,425.7 -432.9,425.7 -432.7,425.8 -432.5,426 -432.3,426.1 -432.2,426.1   -432,426.1 -431.7,426.2 -431.6,426.2 -430.9,426.2 -430.9,426.2 -430.8,426.3 -430.8,426.3 -430.7,426.3 -430.6,426.2   -430.6,426.2 -430,426.1 -429.6,425.9 -429.3,425.8 -429.2,425.9 -429.1,426 -428.8,426.1 -428.6,426.2 -428.5,426.3 -428.4,426.4   -428.3,426.5 -427.9,426.7 -427.8,426.8 -427.9,426.9 -427.9,427 -427.9,427.2 -427.8,427.3 -427.3,427.5 -426.9,427.5   -426.8,427.5 -426.3,427.3 -426.3,427.3 -426.2,427.2 -426.1,427.2 -425.9,427.2 -425.8,427.1 -425.8,427.1 -425.8,427 -425.8,427   -425.8,426.9 -425.6,426.9 -425.5,426.8 -425.3,426.8 -425.2,426.7 -424.9,426.5 -424.8,426.5 -424.7,426.5 -424.7,426.6   -424.6,426.7 -424.6,426.7 -424.5,426.7 -424.1,426.8 -424,426.8 -424,426.9 -423.9,426.9 -423.8,426.9 -423.5,426.9 -423.1,427   -422.5,427.3 -422.1,427.5 -421.9,427.5 -421.7,427.5 -421.6,427.6 -421.5,427.8 -421.4,427.9 -421.2,428 -420.8,428.1   -420.6,428.1 -420.5,428.1 -420.3,427.9 -420.2,427.8 -420,427.8 -419.8,427.8 -419,427.4 -418.8,427.5 -418.5,427.2 -418.4,427.2   -418,427.2 -417.9,427.1 -417.7,427 -417.4,426.8 -417.1,426.5 -416.8,426.1 -416.8,425.9 -416.8,425.7 -416.8,425.6 -416.7,425.5   -414.5,423.1 -413.6,422.3 -413.1,421.8 -412.9,421.4 -412.7,420.7 -412.6,420.4 -411.4,418.6 -411.1,418.2 -410.6,418   -408.5,417.1 -407.7,416.4 -407.1,416 -404,414.8 -403.6,414.7 -403.4,414.7 -403.3,414.7 -403.2,414.6 -403,414.5 -402.9,414.3   -402.6,414.1 -402.5,413.9 -402.4,413.6 -402.4,413.5 -402.2,413.2 -402.2,413 -402.3,412.6 -402.4,412.5 -402.3,412.3   -402.1,411.8 -402.3,411.5 -402.2,411.2 -402.1,410.8 -402.1,410.5 -402.1,410.5 -402.1,410.4 -402.2,410.4 -402.2,410.3   -402.2,410.2 -402,410 -402,409.9 -401.8,409.7 -401.5,409.4 -401.4,409.3 -401.2,409.3 -400.8,409.3 -400.6,409.3 -400.5,409.2   -400.3,408.8 -400.2,408.7 -400.1,408.6 -399.9,408.5 -399.8,408.5 -399.7,408.4 -399.4,408.1 -397.5,407.2 -397.4,407.2   -396.6,407.1 -396.5,407 -396.2,406.8 -395.9,406.7 -395.8,406.7 -395.6,406.8 -395.4,406.8 -395.2,406.8 -394.7,406.6   -394.4,406.5 -394,406.4 -393.8,406.3 -393.4,406.4 -392.7,406.6 -392.3,406.6 -392,406.6 -391.7,406.5 -391.3,406.4 -391,406.5   -390.7,406.6 -390.6,406.7 -390.5,406.7 -390.4,406.6 -390.3,406.5 -390.2,406.5 -390,406.5 -389.6,406.7 -389.4,406.7 -389,406.5   -388.9,406.5 -388.9,406.5 -389,406.2 -389,406.1 -389.3,405.9 -389.3,405.7 -389.2,405.6 -389.1,405.3 -389.1,405.2 -389.1,405.1   -389.2,404.9 -389.2,404.8 -389.3,404.2 -389.3,404 -389.4,403.9 -389.4,403.7 -389.6,403.6 -389.7,403.6 -390,403.4 -390.2,403   -390.5,401.9 -390.5,401.5 -390.5,401.1 -390.6,400.8 -390.6,400.8 -390.4,400.7 -389.7,400.6 -389.1,400.3 -388.3,399.9   -387.4,399.6 -386.6,399.3 -385.4,398.9 -384.6,398.7 -383.4,398.4 -383.2,398.4 -382.3,398.2 -381.2,397.9 -380.4,397.7   -379.6,397.4 -378.8,397 -378.2,396.7 -377,396.3 -375.9,395.9 -375,395.6 -374.4,395.3 -374.1,395.2 -373.4,395.1 -372.6,394.8   -371.7,394.5 -370.4,394.1 -368.9,393.6 -367.5,393.1 -366.4,392.7 -365.7,392.5 -365,392.3 -365.2,392.1 -365.4,391.6   -365.6,391.5 -365.7,391.5 -365.7,391.8 -365.8,391.8 -366.1,391.9 -366.2,392 -366.3,392.1 -366.6,392.6 -366.8,392.6 -367,392.3   -367,392.2 -367,391.8 -367,391.7 -367,391.7 -367,391.6 -367.1,391.6 -367.2,391.6 -367.3,391.5 -367.4,391.4 -367.4,391.2   -367.4,391.1 -367.8,390.6 -368,390.5 -368.2,390.4 -368.5,390.3 -368.8,390.2 -368.8,390 -368.7,389.9 -368.4,389.7 -368.4,389.6   -368.4,389.5 -368.7,389.1 -369,389 -369.3,389 -369.5,388.9 -369.6,388.6 -369.6,388.4 -369.5,388.4 -369.4,388.4 -369.2,388.4   -369.1,388.4 -368.9,388.2 -368.8,388.1 -368.5,388.1 -368.4,388 -368.3,387.8 -368.3,387.7 -368.3,387.5 -368.2,387.4   -368.1,387.4 -367.8,387.3 -367.7,386.9 -367.5,386 -367.3,385.6 -367.1,385.4 -366.8,385.3 -366.8,385.2 -366.8,385.1   -366.9,384.9 -367,384.7 -367,384.6 -367.1,384.4 -366.9,383.5 -366.7,382.9 -366.7,382.7 -366.7,382.5 -366.9,382.3 -367.2,382.1   -367.2,382 -367.3,381.4 -367.2,381.3 -367.1,381 -366.8,380.6 -366.6,380 -366.5,379.9 -366.3,379.8 -366.3,379.8 -366.2,379.8   -366.2,379.8 -366.1,379.9 -366.1,380 -366,379.9 -365.9,379.9 -365.9,379.8 -365.7,379.8 -365.7,379.8 -365.6,379.8 -365.5,379.9   -365.4,380.1 -365.4,380.1 -365.3,380.1 -365.2,380.1 -365.2,380 -365.2,379.9 -365.1,379.9 -365.1,379.9 -365,379.9 -364.9,379.8   -364.8,379.7 -364.7,379.4 -364.6,379.3 -364.5,379.3 -364.3,379.3 -364.2,379.3 -364.1,379.3 -364,379.4 -364,379.4 -363.8,379.3   -363.6,379.2 -363.4,379 -363.3,378.8 -363.2,378.8 -362.9,378.6 -362.8,378.5 -362.8,378.3 -362.8,378.3 -362.7,378.2   -362.6,378.1 -362.3,377.9 -362.3,377.8 -362.3,377.6 -362.4,377.6 -362.5,377.6 -362.8,377.5 -363.5,377.7 -363.8,377.6   -363.9,377.3 -364.1,376.7 -364.2,376.4 -364.3,376.3 -364.5,376.1 -364.6,375.9 -364.6,375.6 -364.6,375.3 -364.3,374.5   -364.2,374.1 -364.1,374 -364.1,373.8 -364.1,373.7 -364.2,373.5 -364.2,373.4 -364.1,373 -364.1,372.7 -364.2,371.3 -364.2,371.2   -364.3,371 -364.5,371 -364.6,371 -364.8,371 -364.9,371 -364.9,370.9 -364.8,370.7 -364.8,370.5 -364.8,370.4 -364.8,369.6   -364.7,369.5 -364.5,369.7 -364.4,369.6 -364.4,369.5 -364.4,369.4 -364.4,369.2 -364.4,369.2 -364.3,369.1 -364.2,369.1   -364.2,369 -364.2,368.9 -364.2,368.9 -363.6,368 -363.5,367.7 -363.4,367.5 -363.7,367 -363.9,366.8 -364,366.6 -364.2,366.3   -364.3,366.1 -364.3,365.6 -364.4,365.3 -364.5,365.2 -364.6,365.2 -364.7,365.2 -364.8,365.2 -364.8,365 -364.7,364.9   -364.6,364.8 -364.5,364.9 -364.4,364.9 -364.3,364.8 -364.1,364.6 -364,364.5 -363.9,364.4 -363.7,364.4 -363.6,364.3   -363.5,364.3 -363.2,364.4 -363.1,364.4 -362.9,364.3 -362.8,364.2 -362.7,364.1 -362.5,364 -362.4,363.9 -362.2,363.5   -361.8,363.1 -361.7,363 -361.6,363 -361.3,362.7 -361.1,362.6 -361,362.4 "/></svg>