<svg xmlns="http://www.w3.org/2000/svg" xmlns:xlink="http://www.w3.org/1999/xlink" version="1.1" x="0px" y="0px" viewBox="-461 335 100 100" fill="#e0e0e0" style="enable-background:new -461 335 100 100;" xml:space="preserve"><polygon points="-361.4,376.2 -361.1,375.9 -361,375.8 -361.1,375.5 -361.3,375.2 -361.9,374.8 -362.1,374.5 -362.2,374.3   -362.2,374.2 -362.1,374.1 -362,373.9 -361.9,373.6 -361.9,373.5 -361.9,373.1 -362.3,371.7 -362.4,371.4 -362.3,371.1 -362.3,371   -362.5,370.8 -362.5,370.7 -362.4,370.6 -362.3,370.5 -362.2,370.4 -362.2,370.3 -362.2,370 -362.3,369.6 -362.4,369.4   -362.3,369.1 -362.2,368.8 -362.1,368.6 -361.9,368.5 -361.6,368.3 -361.5,367.8 -361.5,367.2 -361.5,366.7 -361.3,366.2   -361.2,366 -361.3,365.7 -361.5,365.5 -361.9,365.2 -362.2,365.1 -362.2,365 -362.4,364.5 -362.4,364.4 -362.3,364.3 -362.2,364.2   -362.1,364.1 -361.6,363.1 -361.3,362.7 -361.3,362.5 -361.3,362.3 -361.4,362.2 -361.6,362 -361.8,362 -361.9,361.7 -361.9,361.4   -362,360.8 -362.1,360 -362.5,359.2 -363,358.2 -363.7,357 -363.7,356.9 -362.8,356 -362.6,355.7 -362.4,355.3 -362,353.9   -361.9,353.5 -362.1,353.5 -362.3,353.6 -362.7,353.9 -362.9,353.9 -363.3,353.9 -364.1,353.7 -364.5,353.7 -364.7,353.7   -364.9,353.8 -365,353.9 -365.1,353.8 -365.4,353.6 -365.5,353 -365.5,352.7 -365.6,352.6 -365.7,352.4 -367.3,351.8 -369.3,351   -370.6,350.5 -371.6,350.3 -374.1,350.4 -375.5,350.2 -375.7,350.1 -375.8,349.9 -375.9,349.3 -376,349.1 -376.1,349 -376.7,348.7   -376.9,348.5 -377.7,347.6 -378,347.4 -378.3,347.2 -380.5,347.1 -381,346.8 -381.2,346.7 -381.4,346.7 -381.7,346.7 -381.9,346.6   -382,346.6 -381.9,346.5 -381.9,346.5 -382,346.4 -382.1,346.4 -382.2,346.5 -382.2,346.4 -382.3,346.4 -382.3,346.2 -382.4,346.1   -382.5,346 -382.8,345.9 -382.9,345.7 -383.2,345.3 -383.3,345 -383.5,344.9 -383.8,344.8 -385.1,344.5 -385.7,344.4 -386,344.6   -386.1,344.8 -386.2,344.8 -386.3,344.7 -386.4,344.7 -386.6,344.8 -386.8,345.1 -387,345.2 -387.2,345.3 -387.5,345.3   -387.6,345.2 -387.8,344.9 -388.4,344.6 -388.9,344.5 -390.3,344.5 -392.4,344.5 -393.3,344.5 -394.7,344.5 -394.8,343.6   -394.8,342 -394.8,340.7 -394.8,339.7 -395.3,339.9 -395.7,339.9 -396.3,339.6 -396.6,339.6 -396.7,339.6 -396.9,339.8 -397,339.9   -397.2,339.9 -397.4,339.8 -397.7,339.6 -398.2,339.5 -398.7,339.6 -399.2,339.7 -399.8,339.8 -400.3,339.7 -401.4,339.4   -402,339.4 -402.3,339.5 -402.8,339.7 -403.3,339.8 -404.1,340 -404.4,340.1 -404.6,340 -404.9,340 -405.2,339.9 -405.5,340   -405.9,340.4 -406.2,340.6 -407.3,340.7 -407.5,340.7 -410.3,342 -410.7,342.5 -410.9,342.6 -411.1,342.6 -411.4,342.8 -411.6,343   -411.7,343.1 -412,343.6 -412.1,343.8 -412.4,343.8 -413,343.8 -413.3,343.9 -413.5,344 -414,344.4 -414.2,344.8 -414.3,344.9   -414.5,345.1 -414.5,345.3 -414.5,345.4 -414.4,345.5 -414.4,345.6 -414.3,345.6 -414.4,346.1 -414.6,346.6 -414.6,347.2   -414.4,347.5 -414.7,348.2 -414.8,348.5 -414.7,348.8 -414.5,349.3 -414.5,349.6 -414.8,350.1 -414.9,350.2 -414.9,350.7   -415.1,350.9 -415.6,351.3 -415.7,351.5 -416,351.8 -416.1,351.9 -416.3,351.9 -416.6,351.9 -417.2,352 -421.9,353.8 -422.7,354.4   -424,355.4 -427.1,356.8 -427.8,357.2 -428.3,357.7 -430,360.4 -430.3,360.8 -430.5,361.9 -430.9,362.6 -431.5,363.2 -432.8,364.4   -436.2,368 -436.4,368.2 -436.4,368.3 -436.4,368.6 -436.3,368.9 -436.8,369.5 -437.2,369.9 -437.6,370.3 -438,370.5 -438.2,370.6   -438.8,370.6 -438.9,370.6 -439.4,370.9 -439.7,370.8 -440.9,371.4 -441.2,371.4 -441.4,371.5 -441.6,371.6 -441.9,371.9   -442.1,372 -442.3,371.9 -443,371.7 -443.2,371.6 -443.4,371.5 -443.6,371.2 -443.7,371.1 -443.9,371 -444.3,370.9 -444.8,370.8   -445.8,370.2 -446.4,370.1 -446.9,370.2 -447,370.2 -447,370.1 -447.1,370 -447.3,370 -447.8,369.9 -448,369.8 -448,369.8   -448.1,369.6 -448.2,369.5 -448.3,369.5 -448.4,369.5 -448.9,369.9 -449,370 -449.3,370 -449.5,370.1 -449.7,370.2 -449.8,370.2   -449.8,370.3 -449.8,370.4 -449.8,370.5 -450,370.5 -450.2,370.6 -450.4,370.6 -450.5,370.8 -450.6,370.7 -451.3,371 -451.4,371.1   -452,371 -452.8,370.7 -452.9,370.5 -453,370.3 -453,370.1 -452.8,370 -452.9,369.8 -453.5,369.6 -453.6,369.3 -453.8,369.2   -454,369 -454.3,368.9 -454.8,368.8 -454.9,368.6 -455.1,368.5 -455.4,368.6 -456.1,368.9 -456.9,369 -457,369.1 -457.1,369.2   -457.2,369.2 -457.3,369.2 -457.4,369.1 -457.5,369.1 -458.4,369.1 -458.6,369.1 -459,368.9 -459.4,368.9 -459.5,368.9   -459.8,368.8 -460.2,368.5 -460.4,368.4 -460.5,368.3 -461,369.4 -461,369.8 -460.9,370.1 -460.5,371.1 -460,372 -459.7,372.3   -459.2,372.6 -458.8,372.9 -458.6,373.4 -458.2,374.4 -457.8,375.1 -457.7,375.4 -457.5,375.9 -457.5,376.1 -457.3,376.4   -456.5,377.3 -456,377.6 -455.9,377.8 -455.2,378.6 -454.9,378.9 -454.4,379.2 -454.1,379.5 -453.9,380 -453.8,380.9 -453.4,381.9   -451.8,383.4 -451.4,384.5 -451.5,384.7 -451.7,385.2 -451.7,385.5 -451.7,385.8 -451.6,386.1 -451.3,386.6 -450.9,387.1   -450.6,387.7 -449.4,391.2 -449,391.7 -448.5,392 -448,392.1 -447.3,392.2 -447.1,392.2 -447,392.3 -446.9,392.4 -446.8,392.6   -446.8,392.7 -446.8,393 -446.9,393.1 -447,393.2 -447,393.2 -446.9,393.3 -446.8,393.4 -446.4,393.4 -446.1,393.6 -445.7,394.1   -445.5,394.4 -445.3,394.5 -444.8,394.6 -444.5,394.7 -444,395 -443.8,395.2 -443.7,395.5 -443.6,395.8 -443.4,396 -443.2,396.1   -442.6,396.2 -442.4,396.4 -442.3,396.5 -442.1,396.7 -441.9,396.9 -441.7,397.1 -441.4,397.1 -441.1,397.1 -440.6,397.2   -439.2,397.9 -438.7,398 -438.3,398 -437.9,398.1 -437.5,398.3 -437.4,398.4 -437.1,398.7 -437,398.9 -436.8,398.9 -436.7,398.9   -436.6,398.9 -436.4,398.9 -436.2,399 -435.9,399 -435.7,399.2 -435.5,399.4 -434.8,401.1 -434.6,402.7 -434.8,404.6 -434.3,404.4   -433.9,404.3 -432.4,404.3 -431.4,404.5 -430.7,404.3 -430.2,404.5 -429.7,404.6 -429.5,404.6 -429.3,404.8 -429.2,405.1   -429.3,405.6 -429.4,406.1 -429.5,406.6 -429.2,407.6 -429.2,408.2 -429.4,409.3 -429.4,409.4 -429.5,409.6 -429.6,409.7   -429.6,409.9 -429.6,410 -429.6,410.3 -429.6,410.5 -429.5,411.2 -429.6,411.5 -429.7,412.2 -429.7,412.5 -429.6,412.7   -429.2,413.3 -429,413.5 -428.1,414.2 -427.7,414.6 -427.4,415.2 -426.9,415.7 -426.8,415.9 -426.8,416 -426.8,416.2 -426.8,416.3   -426.7,416.5 -426.5,416.7 -426.1,417.5 -426.1,417.6 -426.1,417.7 -426.2,417.9 -426.2,418 -426.2,418 -426.1,418.1 -426,418.1   -426.1,418.3 -426.1,418.5 -426,418.5 -425.9,418.5 -425.8,418.5 -425.8,418.6 -425.7,418.9 -425.6,419 -425.4,419.2 -425.2,419.3   -425,419.4 -424.3,419.4 -423.3,419.6 -421.8,419.6 -421.3,419.7 -420.8,419.9 -419.8,420.4 -419.5,420.5 -419.3,420.5   -419.1,420.4 -418.6,420.3 -418.5,420.2 -418.4,420.2 -418,420.3 -417.6,420.3 -417.4,420.4 -416.9,420.8 -416.3,421 -414.5,421.8   -414.1,421.9 -413.3,422 -412.9,422.1 -412.7,422.2 -412.2,422.4 -412,422.5 -411.9,422.8 -412.1,423.1 -412.3,423.5 -412.4,423.8   -412.5,424.3 -412.4,424.9 -412.2,425.4 -411.8,425.8 -411.3,426.1 -410.8,426.2 -409.6,426.1 -409.6,426.2 -409.4,426.3   -409.4,426.5 -409.3,426.7 -409.2,426.9 -408.2,427.7 -408.1,427.8 -408,427.8 -407.8,427.8 -407.6,427.7 -407.1,427.4   -406.8,427.3 -406.2,427.5 -405.9,427.5 -405.7,427.4 -405.6,427.2 -405.4,427.1 -405,427.1 -404.5,426.9 -404.2,426.9 -404,427   -403.8,427 -403,426.9 -402.7,427 -402,427.5 -401.5,427.6 -401.2,427.8 -400.8,427.8 -400.6,427.9 -400.2,428.1 -400.1,428.1   -399.8,428.2 -399.7,428.3 -399.5,428.5 -399.4,428.6 -399.4,428.6 -399,428.7 -398.8,428.8 -398.5,429 -398.2,429.2 -397.9,429.2   -397.4,429.1 -397.1,429.1 -396.8,429.2 -396.6,429.3 -396.5,429.5 -396,429.8 -395.6,429.9 -395.1,429.9 -394.6,429.8   -394.4,429.7 -393.9,429.5 -393.6,429.4 -393.4,429.4 -392.6,429.5 -392.2,429.5 -392.1,429.5 -391.9,429.7 -391.8,429.7   -391.6,429.6 -391.3,429.4 -391,429.3 -389.6,429.2 -389.2,429 -388.8,429.1 -388,429.2 -386.6,429.5 -386.2,429.7 -386,429.8   -385.8,429.7 -385.4,429.5 -385.2,429.5 -385,429.6 -384.8,429.9 -384.7,430 -384.6,430 -384.4,430.1 -384.3,430.2 -384.2,430.1   -384,430.1 -383.8,430.1 -383.7,430.2 -383.4,430.6 -382.4,429.9 -381.6,429.3 -380.9,428.6 -380.2,427.8 -379.6,427.1   -378.9,426.3 -378.2,425.6 -377.6,424.8 -376.9,424.1 -376.2,423.3 -375.5,422.6 -374.9,421.8 -374.2,421.1 -373.5,420.4   -372.9,419.6 -372.2,418.9 -371.5,418.1 -370.8,417.4 -370.2,416.6 -369.6,416 -369.1,415.4 -368.6,415.8 -368.6,415.6   -369.6,414.1 -369.6,414 -369.5,413.9 -369.5,413.8 -369.5,413.7 -369.5,413.7 -369.6,413.7 -369.6,413.7 -369.7,413.6   -369.9,413.4 -370,413.3 -369,412 -368.4,411.2 -368.1,410.6 -368,410.1 -368.1,408.7 -368.3,407.2 -368.3,406.7 -368.2,406.1   -367.8,405.6 -367.2,405.5 -366.6,405.6 -366.1,405.5 -365.7,405.1 -365.3,404.3 -364.9,403.5 -364.1,402.5 -363.5,401.8   -363.4,401.6 -363.4,401.4 -363.3,401 -363.3,400.9 -363.4,400.7 -363.4,400.6 -363.3,400.5 -363.2,400.2 -363.1,400 -363,399.3   -362.9,399.2 -362.7,399.2 -362.5,399.1 -362.4,398.9 -362.3,398.5 -362.1,398.3 -361.5,398.4 -361.5,398.3 -361.6,397.9   -361.5,396.9 -361.3,396.1 -361.3,395.6 -361.2,395.3 -361.1,395 -361.3,394.9 -361.5,394.7 -361.8,394.6 -362,394.4 -362.1,394.1   -362,393.6 -362,393.3 -362.3,393.2 -362.5,393.3 -362.9,393.7 -363.2,393.7 -363.5,393.7 -363.7,393.7 -363.9,393.5 -363.9,393.2   -363.9,393.1 -363.8,393 -363.7,392.8 -363.7,392.7 -363.8,392.5 -363.8,392.4 -363.7,391.4 -363.7,391.2 -363.8,390.9 -364,390.8   -364.2,390.9 -364.4,390.9 -364.6,390.7 -364.6,390.4 -364.5,389.9 -364.5,389.5 -364.5,389.3 -364,388.8 -363.8,388.5   -363.7,388.3 -363.7,388 -363.7,387.7 -363.3,386 -363.4,385.6 -363.5,385.4 -363.6,385.3 -363.7,385.2 -363.8,385.1 -363.8,384.9   -363.8,384.8 -363.9,384.8 -364.1,384.7 -364.3,384.7 -365.1,384.8 -365.2,384.8 -365.4,384.7 -365.5,384.6 -365.5,384.5   -365.5,384.3 -365.5,384.1 -365.6,383.8 -365.6,383.7 -365.5,383.6 -365.3,383.5 -365.2,383.4 -365.3,383.3 -365.4,383.1   -365.5,382.3 -365.5,382.2 -364.3,381.6 -363.9,381.6 -363.3,381.6 -363,381.6 -362.8,381.4 -362.7,381.1 -362.6,380.8   -362.5,380.3 -362.6,380 -363,379.2 -363.2,378.7 -363.2,378.4 -363.2,378.2 -363,378 -362.8,377.9 -362.6,377.9 -362.3,377.8   -362.1,377.6 -361.8,377.5 -361.6,377.3 -361.5,377 -361.6,376.9 -361.7,376.7 -361.7,376.6 -361.7,376.6 "/></svg>