<svg xmlns="http://www.w3.org/2000/svg" xmlns:xlink="http://www.w3.org/1999/xlink" version="1.1" x="0px" y="0px" viewBox="0 2 100 120" enable-background="new 0 2 100 96" xml:space="preserve"><path d="M99.438,86.408h0.035l-0.175-0.252l0.138,0.262L99.438,86.408z M100,89.4l-0.029-0.181l-0.123-0.356l-0.033-0.188  l0.004-0.174l0.018-0.144l0.03-0.129l0.04-0.119l-0.084-0.192l-0.023-0.276l0.016-0.535l-0.027-0.177l-0.064-0.161l-0.195-0.291  l0.102,0.239l0.03,0.062l0.021,0.135l-0.186-0.082l-0.055-0.045l-0.041-0.074l-0.021-0.07l-0.022-0.063L99.3,86.535l0.034-0.076  l0.002-0.047l-0.018-0.053l-0.02-0.082l-0.012-0.002l-0.032-0.012l-0.03-0.021l-0.019-0.023l0.004-0.043l0.019-0.03l0.021-0.023  l0.008-0.023l-0.006-0.268l0.013-0.131l-0.007-0.111l0.22-0.863l0.012-0.276l-0.127-0.845l0.029-0.174l-0.076-0.094l-0.032-0.105  l0.012-0.1l0.058-0.074V82.99l-0.133-0.074l-0.062-0.053l-0.091-0.127l-0.123,0.051l-0.278,0.002l-0.11,0.074l-0.035,0.121  l0.012,0.162l0.044,0.147l0.071,0.074l-0.023,0.077l-0.007,0.039l0.005,0.027l0.025,0.045l-0.16,0.17l-0.045,0.063l-0.027,0.09v0.08  l0.046,0.088v0.078l-0.187,0.26l0.109,0.142l0.094,0.149l0.037,0.162l-0.055,0.179l0.064,0.2l-0.1,0.269l-0.242,0.418h-0.048  l-0.063-0.178l-0.034-0.074l-0.042-0.063l-0.049-0.047l-0.141-0.078l-0.354-0.103l-0.062,0.007l-0.072-0.021l-0.164,0.002  l-0.158,0.024l-0.073,0.06l-0.368,0.407l-0.021,0.179l-0.216,0.11l-0.762,0.164l-0.432,0.226l-0.257,0.016l0.052,0.063l-0.038,0.135  l-0.058,0.123l-0.081,0.09l-0.107,0.033l-0.077-0.03l-0.063-0.066l-0.073-0.03l-0.112,0.063l-0.018-0.08l-0.008-0.018h-0.02  l-0.053-0.029v0.07l0.048,0.09l-0.038,0.201l0.041,0.086l-0.129,0.033l-0.117,0.055l-0.088,0.104l-0.056,0.234l-0.017,0.041  l0.018,0.027l0.085,0.006l0.032,0.035l-0.03,0.071l-0.075,0.117l0.002,0.11l-0.014,0.093l-0.059,0.062l-0.219,0.032l-0.033,0.029  l-0.015,0.041l-0.032,0.043l-0.023,0.063l-0.008,0.077l-0.025,0.039l-0.084-0.049l-0.046,0.063L93.27,88.6l-0.067,0.002l-0.06-0.045  l-0.021,0.088l0.004,0.104l0.024,0.101l0.043,0.077l-0.053,0.068l0.27-0.111l0.146-0.012l0.149,0.123L93.5,89.117l-0.032,0.033  l0.011,0.065l0.025,0.037l0.041,0.004l0.096-0.082l0.03,0.035l0.019,0.062l0.018,0.035l0.253,0.127l0.015,0.016l0.1,0.076  L94.066,89.6l-0.019,0.008l-0.03-0.008l-0.037,0.021l-0.071,0.051l-0.093,0.043l-0.273,0.053l-0.064,0.035l-0.053,0.041l-0.05,0.027  l-0.181-0.01l-0.071,0.02l-0.028,0.086l0.051,0.035l0.09,0.029l0.056,0.055l-0.056,0.104l0.082,0.037l0.027,0.092l-0.029,0.089  l-0.08,0.03V90.5h0.189v0.068l-0.107,0.076l-0.055,0.028l-0.07,0.015l0.065-0.008l0.062,0.006l0.057,0.026l0.05,0.043l-0.018,0.033  l-0.032,0.086l0.139-0.002l0.154,0.032l0.125,0.074l0.051,0.115l0.039,0.037l0.19-0.053l0.067,0.016l0.049,0.082l0.117,0.26  l0.106,0.078l0.041,0.063l-0.013,0.114l-0.035,0.002l-0.184,0.097l-0.033,0.026l-0.148,0.043l-0.136,0.103l-0.058,0.104l0.088,0.062  l-0.095,0.16l-0.134,0.057l-0.334,0.031l0.191,0.229l0.029,0.123l-0.08,0.153L93.564,93l0.105-0.072l0.121-0.027l0.279-0.018  l0.147-0.047l0.232-0.129l0.136-0.014l0.073,0.018l0.042,0.033l0.031,0.055l0.039,0.084l0.076,0.057l0.017,0.004l-0.015,0.06  l-0.06,0.076l-0.019,0.045l-0.013,0.002l-0.082,0.129l0.024-0.008L94.73,93.3l0.021,0.062l0.018,0.02l-0.056,0.051l-0.223,0.074  l0.077,0.012l0.068,0.033l0.051,0.061l0.035,0.087L94.5,93.831l-0.139,0.047h-0.155v0.067l0.075,0.05l0.012,0.086l-0.031,0.094  l-0.056,0.076l-0.088,0.051l-0.192,0.027l-0.088,0.047l0.088,0.021l0.067,0.031l0.073,0.021l0.098-0.008l-0.034,0.086l-0.019,0.033  l0.162-0.013l0.277-0.108l0.172,0.002l-0.063,0.184l0.086,0.09l0.161,0.027l0.163,0.004l0.428,0.123l0.159,0.008l-0.08,0.098  l-0.095,0.055l-0.076,0.063l-0.031,0.125l-0.059,0.058l-0.365,0.166l-0.116-0.058l-0.065,0.123l-0.045,0.188l-0.051,0.119  l0.104,0.037l0.021,0.063L94.77,96.09l0.035,0.037l0.086,0.039l0.098,0.025l0.063-0.008l0.051,0.032l0.086,0.029v0.057l-0.092,0.062  l0.06,0.043l0.054,0.008h0.055l0.063,0.018l0.037,0.035l0.013,0.043l0.018,0.033l0.158,0.033l0.066,0.053l0.056,0.061l0.075,0.054  l0.104-0.025l0.168,0.025l0.172,0.055l0.07,0.063l0.049,0.065l0.037-0.03l0.027-0.015l0.073-0.021l-0.015,0.031l-0.01,0.01  l-0.008,0.006l-0.016,0.02l0.047,0.063l0.201-0.158l0.078-0.026v0.057l-0.09,0.129l0.098,0.08l0.164,0.068l0.109,0.098l-0.062,0.02  l-0.034,0.029l-0.073,0.234l0.175,0.076l0.213,0.032l0.107,0.045l0.167,0.156l0.088,0.028l0.111-0.061l0.048-0.076l0.061-0.135  l0.051-0.154l0.027-0.135l-0.084,0.049l-0.109,0.104l-0.076,0.032V97.43l0.063-0.057l0.022-0.068l-0.022-0.072l-0.063-0.051v-0.068  l0.119-0.016l0.184-0.123l0.107-0.047l-0.043-0.066l0.068-0.061l0.029-0.08l-0.02-0.07l-0.078-0.03l0.027-0.063l0.006-0.063  l-0.006-0.062l-0.027-0.065l0.117-0.021l0.068-0.09l0.053-0.094l0.063-0.043l0.121-0.027l0.098-0.072l0.065-0.108l0.022-0.129  L98.532,95.7l-0.138,0.021l-0.224,0.096l-0.093-0.063l0.041-0.084l0.064-0.09l-0.014-0.082l0.078-0.01l0.1,0.006l0.103,0.023  l0.093,0.045l-0.033-0.14l0.021-0.049l0.056-0.006l0.07,0.008l0.063-0.047l0.034-0.104l0.017-0.162H98.68l0.034-0.086l0.062-0.08  l0.068-0.057l0.051-0.023l0.021-0.045l0.008-0.666l-0.058-0.621l0.058-0.633l0.002-0.324l0.038-0.084l0.103-0.102l0.468-0.68  l0.104-0.223l0.072-0.117l0.186-0.172l0.05-0.082l0.015-0.074l0.012-0.158l0.021-0.076l-0.05-0.217L100,89.4z M77.419,82.66  l-0.046,0.027l-0.012,0.065l-0.084,0.006l-0.021-0.006l-0.021,0.008l-0.024,0.027l-0.058,0.032l-0.19-0.01l-0.069,0.037l0.01,0.049  l0.162,0.09l0.084,0.027l0.097-0.029l0.094-0.047l0.148-0.065l-0.009-0.138L77.419,82.66z M26.539,54.439l-0.095-0.101l-0.093,0.011  l-0.086,0.03l-0.077-0.041l-0.161-0.18l-0.212-0.173l-0.231-0.12l-0.212-0.029l0.15,0.338l0.077,0.229l-0.015,0.1l-0.03,0.088  l0.113,0.188l0.147,0.178l0.144,0.103l0.399,0.453l0.074,0.135l0.056,0.129l0.097,0.34l0.121,0.053l0.1-0.154l0.071-0.256  l0.055-0.412l-0.011-0.08l-0.051-0.088l-0.196-0.117l-0.071-0.069l0.034-0.086v-0.066L26.56,54.77l-0.005-0.097l0.011-0.11  L26.539,54.439z M24.903,52.027l0.044-0.06l-0.003-0.059l-0.033-0.054l-0.05-0.037l-0.123-0.026l-0.393,0.101v0.063l0.075,0.055  l0.276,0.314l0.104,0.043l0.381-0.074l0.659,0.428l0.31,0.06l0.029,0.012l0.034,0.037l0.072-0.037l0.051-0.019l0.063-0.006  l-0.079-0.18l-0.129-0.152l-0.159-0.104l-0.686-0.111l-0.112-0.053v-0.074h0.097v-0.066l-0.166,0.043l-0.195,0.087l-0.18,0.006  l-0.119-0.207l0.07,0.004L24.903,52.027z M19.292,47.277l-0.266-0.113l-0.133-0.021l-0.125,0.021l-0.053,0.089l0.078,0.181  l0.544,0.007l0.153,0.062l-0.073-0.128L19.292,47.277z M20.336,44.923l-0.074-0.074l-0.231-0.122l-0.071-0.082l-0.008-0.143  l0.026-0.131l-0.018-0.113l-0.139-0.088l-0.124-0.021L19.31,44.17l0.115,0.15l0.105,0.382l0.108,0.154l0.185-0.095l0.173,0.119  l0.144,0.226l0.099,0.225l0.113,0.066l0.033-0.132l-0.016-0.202L20.336,44.923z M13.817,41.234l-0.082-0.042l-0.232-0.239  l-0.019-0.028l-0.17-0.133l-0.306-0.161l-0.085-0.02l-0.061-0.058l-0.045,0.001l-0.027,0.063l-0.058,0.057l0.04,0.145l0.074,0.159  l0.053,0.166l-0.023,0.157l0.119,0.084l0.353,0.106l0.531,0.049l0.181-0.053l0.029-0.187l-0.067-0.077L13.817,41.234z M0.589,29.629  l-0.013-0.028l-0.014-0.024l-0.128-0.063l-0.155,0.044L0,29.717v0.07l0.172-0.052l0.066,0.021l0.04,0.101l-0.022,0.004l-0.048-0.008  l-0.022,0.004v0.07l0.119-0.026l0.35-0.184v-0.076l-0.043,0.006L0.589,29.629z M90.001,24.43l-1.08-0.576l-0.122-0.014l-0.388,0.041  l-0.565-0.164l-0.076,0.02l-0.16,0.087l-0.082,0.021l-0.064-0.01l-0.145-0.051l-0.076-0.013l-0.085,0.018l-0.08,0.035l-0.081,0.021  l-0.025-0.007l-0.07-0.015l-0.063-0.054l-0.064-0.134l-0.051-0.063l-0.15-0.079l-0.297-0.052l-0.148-0.094l-0.09-0.113l-0.153-0.25  l-0.096-0.1l0.011-0.034l0.018-0.024l0.051-0.033l-0.044-0.15L85.7,22.598l-0.296-0.019l-0.028-0.116l-0.132-0.011l-0.133,0.04  l-0.026,0.009l-0.112,0.064l-0.033,0.051l-0.049,0.15l-0.033,0.058l-0.053,0.024l-0.14,0.018l-0.06,0.021l-0.045,0.052l-0.07,0.146  l-0.04,0.042l-0.043-0.006l-0.185-0.086l-0.584-0.005l-0.107-0.036l-0.107-0.056l-0.262-0.19l-0.036-0.005l-0.062,0.062l0.006,0.058  l0.021,0.054l-0.012,0.053l-0.21,0.13l-0.151-0.118l-0.079-0.284l0.004-0.367l-0.146-0.007l-0.427-0.241l-0.074-0.011l-0.199,0.019  l-0.283-0.065l-0.068,0.016l-0.039,0.145l0.052,0.167l0.026,0.173l-0.118,0.155l-0.087,0.02l-0.266-0.098l-0.303-0.003l-0.081-0.034  l-0.086-0.146l0.021-0.126l0.033-0.131L80.555,22l-0.027,0.001l-0.092,0.059l-0.031,0.004l-0.018-0.037l-0.014-0.082l-0.008-0.023  l-0.021-0.044l-0.054-0.193l-0.029-0.03l-0.096-0.033l-0.036-0.029l-0.008-0.042l0.015-0.104l-0.011-0.044l-0.453-0.438  l-0.113-0.138l-0.043-0.121l0.037-0.095l0.121-0.006l0.029-0.084l-0.023-0.063l-0.33-0.351l-0.048-0.07l0.015-0.004v-0.059  l-0.021-0.086l-0.042-0.086l-0.117-0.113l-0.623-0.313l-0.076-0.013l-0.057,0.021l-0.129,0.089l-0.072,0.015l-0.058-0.007  l-0.138-0.014l-0.18-0.099l-0.324-0.243l-0.014-0.008l-0.188-0.075l-0.192-0.02l-0.392,0.043l0.047,0.096l-0.194,0.017L76.5,19.199  l-0.036,0.063l0.002,0.067l-0.016,0.056l-0.083,0.032l-0.066,0.101l-0.1,0.036l-0.58,0.036l-0.118,0.04l-0.093-0.3l-0.126-0.128  l-0.433-0.104l-0.172-0.08l-0.119-0.111l-0.213-0.285l-0.08-0.02l-0.148-0.091L74.047,18.5l-0.072,0.039l-0.088,0.116l-0.086,0.037  l-0.146-0.025l-0.146-0.073l-0.154-0.035l-0.17,0.086l-0.08,0.11l-0.017,0.076l-0.021,0.042l-0.103,0.013l-0.058-0.016l-0.213-0.099  l-0.129,0.056l-0.172,0.135l-0.176,0.103l-0.148-0.039l-0.041-0.093l0.008-0.094l0.021-0.098v-0.109l-0.027-0.096l-0.328-0.593  l-0.075-0.067l-0.052-0.047l-0.211-0.077l-0.076-0.047L71.246,17.7l-0.025,0.028l-0.027,0.058l-0.037,0.053l-0.049,0.016  l-0.112-0.022L70.96,17.79l-0.017-0.097l0.021-0.148l0.057-0.036l0.029-0.038l-0.048-0.156l-0.131-0.162l-0.144-0.141l-0.146,0.004  l-0.307,0.086l-0.158-0.046l-0.124-0.092l-0.103-0.099l-0.289-0.42l-0.08-0.078l-0.242-0.07l-0.137-0.077l-0.254-0.25l-0.121-0.068  l-0.021,0.001l-0.125,0.006l-0.295,0.104l-0.151,0.024L68,16.013l-0.063-0.081l0.002-0.393l-0.018-0.063l-0.066-0.11l-0.014-0.053  l0.012-0.064l0.062-0.071l0.022-0.055l0.037-0.129l0.034-0.088l0.017-0.09l-0.01-0.137l-0.107-0.194l-0.322-0.132l-0.091-0.148  l0.028-0.168l0.264-0.652l0.006-0.113l-0.01-0.088l0.008-0.096l0.126-0.281l0.043-0.01l0.072,0.08l0.016-0.185l0.036-0.219  l0.01-0.186l-0.063-0.083l-0.213,0.044l-0.076-0.032l-0.031-0.158l-0.182,0.084l-0.729,0.735l-0.037,0.083l-0.021,0.104l0.016,0.063  l0.026,0.053l0.006,0.073l-0.052,0.338l-0.048,0.168l-0.063,0.12l-0.074,0.049l-0.283,0.045l-0.947,0.471L65.12,14.48l-0.05-0.015  l-1.021-0.28l-0.42,0.061l-0.102,0.014l-0.09-0.026l-0.383-0.205h0.004l0.051,0.004l-0.008-0.155l-0.039-0.161l-0.033-0.013  l0.029-0.125l0.034-0.08l0.05-0.06l0.125-0.116l0.157-0.112l0.163-0.082l0.002-0.07l-0.048-0.083l-0.041-0.1l-0.114-0.457  l-0.066-0.034l-0.073,0.011l-0.136,0.062l-0.098-0.048l0.016-0.192l0.134-0.425L63.2,11.6l0.03-0.087l0.07-0.103l0.161-0.125  l0.067-0.077l0.016-0.111l-0.041-0.069l-0.084-0.074l-0.092-0.058l-0.063-0.022l-0.084,0.036l-0.005,0.068l0.009,0.073L63.135,11.1  l-0.125-0.058l-0.186-0.4l-0.141-0.125l-0.146-0.084l-0.227-0.25l-0.133-0.063l-0.144,0.015l-0.433,0.182l-0.156,0.002l-0.119-0.058  l-0.117-0.082l-0.141-0.072l-0.283-0.034l-0.297,0.023l-0.092,0.033l-0.056,0.063L60.218,10.4l-0.028,0.088l-0.02,0.032  l-0.029,0.021l-0.013-0.009l-0.01,0.005l-0.026,0.069l-0.24-0.225l-0.06-0.435V9.449l-0.058-0.412l-0.111-0.202l-0.135-0.129  L59.34,8.632L59.189,8.6l-0.438-0.003l-0.085-0.063l0.065-0.118l0.012-0.086l-0.046-0.056L58.6,8.244l-0.096,0.008l-0.068,0.046  l-0.068,0.067l-0.094,0.072l-0.297,0.108l-0.164,0.019l-0.119-0.033l-0.297-0.155l-0.092-0.071l-0.106-0.137l-0.034-0.122  l-0.012-0.341l-0.178-0.601l-0.057-0.31l0.096-0.178l-0.078-0.255l-0.055-0.1l-0.092-0.03l-0.096-0.013l-0.053-0.063l-0.084-0.204  l-0.096-0.169l0,0l-0.113-0.204l-0.115-0.109l-0.176-0.054l-0.541,0.17l-0.356,0.111l-0.155,0.099l-0.125,0.133l-0.205,0.355  l-0.09,0.07L54.479,6.33l-0.03-0.014l-0.544-0.25l-0.127-0.105l-0.034-0.066L53.65,5.678l-0.041-0.071l-0.252-0.243l-0.047-0.081  L53.29,5.211L53.256,5.15l-0.089-0.048l-0.065-0.007l-0.125,0.018L52.92,5.111l-0.1-0.021L52.77,5.068l-0.037-0.061L52.676,4.87  l-0.029-0.035l-0.084-0.042L52.54,4.757l0.008-0.05l0.054-0.119l0.008-0.07l-0.135-0.473l0.039-0.098L52.67,3.79l0.041-0.064  l-0.023-0.215L52.582,3.35l-0.243-0.271l-0.067-0.208l-0.068-0.477L52.1,2.146l-0.002,0.002L51.995,2.22l-0.276,0.129l-0.555,0.146  l-0.408-0.05l-0.057,0.009l-0.072,0.04L49.46,2.877l-1.092,0.138l-0.233,0.137l-0.122-0.025l-1.304,0.57L46.5,3.894l-0.197,0.275  l-0.114,0.118l-0.13,0.048l-0.142,0.013l-0.059,0.025l-0.165,0.132l0.001,0.055l0.016,0.15l0.109,0.396l0.044,0.246l-0.038,0.204  l-0.078,0.158l-0.144,0.424l-0.034,0.19l0.003,0.222l0.071,0.457l0.03,0.503l0.037,0.148l0.184,0.284l-0.211,0.16L45.65,8.538  l-0.005,0.501l-0.125,0.36v0.072l0.375,0.297v0.066l-0.104-0.021L45.635,9.78l-0.14,0.283l-0.057,0.415l-0.011,0.342l0.065,0.087  l0.292,0.142l0.065,0.136l0.044,0.119l0.105,0.084l0.137,0.045l0.132,0.003v0.079h-0.14l0.037,0.081l0.036,0.045l0.045,0.018  l0.072-0.005v0.073l-0.058,0.058l-0.067,0.005l-0.673-0.33l-0.234,0.033l-0.232,0.313l-0.152,0.561l-0.06,0.09l-0.08,0.067  l-0.359,0.445l-0.887,0.715l-0.271,0.301l-0.165,0.057l-0.166,0.132l-2.802,0.907l-0.586-0.008l-0.532,0.195l-0.268,0.184  l-0.235,0.072l-0.852,0.511l-0.07,0.098l-0.889,0.412l-0.068,0.067l-0.074,0.002l-0.34,0.274l-0.102,0.121l-0.272,0.924  l-0.349,0.642l-0.021,0.076l-0.008,0.114l0.022,0.089l0.097,0.065l0.021,0.063l0.058,0.101l0.136,0.082l0.156,0.051l0.119,0.01h0.14  l0.486,0.167l0.564,0.076l0.562-0.08l0.483-0.305l-0.113,0.156l-0.131,0.117l-0.313,0.16l-0.847,0.193l-0.848,0.192l-0.452,0.328  l-0.164,0.255l-0.061,0.05l-0.155,0.042l-0.187,0.165L34.7,20.894l-1.091,0.258l-0.173,0.158l-0.637-0.387l-0.343-0.081  l-0.205-0.135l-0.119-0.049h-0.465l-0.293-0.131l-0.166-0.037l-0.248,0.136l-0.167-0.017l-0.292-0.088l-1.166-0.071l-0.805-0.309  l-0.897-0.047l-0.118,0.055l-0.114,0.127l-0.05,0.142l0.07,0.104v0.072l-0.132,0.037l-0.072-0.042l-0.051-0.075l-0.073-0.063  l-0.077,0.013l-0.073,0.047l-0.055,0.009l-0.022-0.106l0.013-0.032l0.031-0.054l0.031-0.082l0.014-0.114l-0.024-0.228l-0.065-0.159  l-0.52-0.655l-0.102-0.289l-0.117-0.184l-0.086-0.206l0.033-0.248l0.044-0.054l0.059-0.022l0.151-0.003l0.027-0.044l0.017-0.099  l0.029-0.098l0.174-0.125l-0.031-0.182l-0.149-0.318l-0.034-0.172l-0.027-0.076l-0.055-0.03l-0.818-0.151L25.342,16.8l-0.315,0.098  l-0.098,0.076l-0.176,0.24l-0.105,0.101l-0.115,0.054l-0.082-0.004l-0.142-0.055l-0.08-0.014l-0.074,0.024l-0.093,0.102  l-0.064,0.024l-0.049-0.023l-0.016-0.051l-0.002-0.052l-0.003-0.024l-0.108,0.009l-0.508-0.175l-0.451-0.069l-0.15-0.052  l-0.033-0.005l-0.074,0.015l-0.032-0.01l-0.03-0.05l-0.025-0.127l-0.032-0.045l-0.068-0.028l-0.189,0.028l-0.081-0.022l-0.135-0.099  l-0.063-0.022l-0.183,0.024l-0.029,0.081l0.013,0.156l-0.054,0.248l0.3,0.126l0.218,0.044l0.061,0.072l0.037,0.102l0.056,0.117  l0.05,0.149l0.002,0.174l-0.031,0.328l-0.043,0.105l-0.192,0.177l-0.042,0.146l0.035,0.063l0.176,0.216l0.067,0.112l0.024,0.082  l0.005,0.054l0.009,0.051l0.1,0.18l0.028,0.067l0.02,0.072l0.005,0.15l-0.026,0.354l0.021,0.136l0.066,0.072l0.08-0.008l0.09-0.041  l0.094-0.023l-0.026,0.04l-0.012,0.03l-0.018,0.073l0.135,0.08l0.153,0.169l0.126,0.081l0.056-0.181h0.051l0.088,0.214V20.8H23.32  l0.051,0.163l0.083,0.115l0.195,0.155l-0.029,0.016l-0.02,0.015l-0.044,0.047l0.101,0.122l0.113,0.383l0.108,0.127l0.053-0.197  l0.147,0.004l0.175,0.084l0.144,0.044v0.064l-0.245-0.073l-0.124,0.009l-0.053,0.099l0.011,0.188l0.03,0.204l0.045,0.195  l0.057,0.165l0.035-0.051l0.017-0.016l0.083,0.066L24.12,22.82l-0.047,0.064l-0.048,0.133l-0.033,0.133l-0.007,0.116l0.036,0.079  l0.096,0.02l-0.03,0.104l-0.015,0.111l-0.006,0.247l0.021,0.087l0.048,0.104l0.049,0.06l0.021-0.042l0.054-0.159l0.127-0.074h0.152  l0.131,0.063v0.063l-0.166-0.079l-0.091,0.05l-0.044,0.153l-0.074,0.599l0.028,0.061l0.082,0.021l0.034,0.059l-0.005,0.091  l-0.038,0.118l-0.059-0.088l-0.045,0.106l-0.055,0.495l-0.046,0.12l-0.072,0.093l-0.094,0.043v0.077l0.164,0.042l0.083,0.161  l0.028,0.245l0.003,0.285l0.058,0.244l0.253,0.226l0.057,0.243l0.036,0.063l0.085,0.056l0.234,0.069l0.036,0.04l0.023,0.059  l0.008,0.065l0.018,0.048l0.038-0.016l0.032-0.04v-0.024l0.261,0.024l0.152,0.079l0.107,0.179l-0.249-0.094l-0.731,0.163  l-0.539-0.069l-0.068,0.014l-0.041,0.01l-0.329,0.179l-0.537,0.083l-0.499-0.007l-0.287-0.081l-0.154-0.175l-0.002-0.24l0.169-0.276  l-0.049-0.072l-0.022-0.055l0.001-0.045l0.02-0.044l-0.693,0.139l0.042,0.077h-0.256l-0.061,0.034l-0.012,0.072v0.073l-0.023,0.032  l-0.105,0.031l-0.079,0.075l-0.05,0.092l-0.021,0.083l0.066,0.125l0.126,0.306l0.064,0.06l0.077,0.004l0.071,0.024l0.062,0.063  l0.05,0.119l-0.083-0.063l-0.029-0.031l-0.028-0.046h-0.046l0.025,0.164l0.1,0.182l-0.036,0.081l0.189,0.133l-0.211,0.136  l-0.067,0.073l0.026-0.225l-0.042-0.137l-0.175-0.267l0.021-0.04l0.029-0.101l-0.084-0.031l-0.06-0.075l-0.034-0.103l-0.011-0.11  l-0.144-0.266l-0.018-0.047l-0.326,0.033l-0.304,0.107l0.056,0.148l0.037,0.07l0.047,0.063l-0.087-0.091l-0.083-0.008l-0.08,0.059  l-0.075,0.116l0.061,0.054l0.028,0.011v0.07l-0.102,0.059l-0.061-0.06l-0.037-0.128l-0.029-0.151l0.003,0.126l-0.023,0.105  l-0.049,0.078l-0.074,0.041l-0.014-0.108L19.827,28.3l-0.045-0.089l-0.077-0.037l-0.023-0.055l-0.038-0.24l-0.032-0.056L19.458,27.9  l-0.139,0.144l-0.127,0.087l-0.121-0.097l0.19-0.211l0.034-0.057l0.025-0.058l0.03-0.054l0.051-0.042v-0.077l-0.091,0.016  l-0.068-0.032l-0.048-0.075l-0.024-0.12l-0.095,0.187l-0.177,0.176l-0.206,0.135l-0.177,0.071l-0.06-0.141l-0.148-0.022  l-0.304,0.092l0.132,0.063l0.058,0.008v0.069l-0.096,0.108l-0.459,0.286l-0.121,0.04l-0.072,0.057l-0.052,0.063l-0.161,0.255  L17.1,28.915l-0.111,0.049l-0.271-0.014l-0.028,0.076l0.004,0.147l-0.019,0.096l-0.094-0.079l-0.058-0.077l-0.057-0.061L16.4,29.015  l-0.08-0.004l0.053-0.051l0.039-0.058l0.027-0.073l0.02-0.092l-0.388-0.19l-0.163-0.124l-0.088-0.044l-0.034-0.031l-0.023-0.065  l0.014-0.052l0.02-0.047l-0.011-0.053l-0.028-0.082l-0.067-0.307l-0.443-0.382l-0.045-0.103l-0.104-0.121l-0.123-0.107l-0.1-0.064  V26.9l0.027-0.015l0.066-0.056l-0.009-0.07v-0.062l0.009-0.085l-0.135-0.051l-0.345-0.016l-0.174-0.067l-0.089-0.077V26.34  l0.115-0.091l0.053-0.03l0.065-0.02l-0.001-0.049l-0.007-0.013l-0.017,0.001l-0.026-0.01l0.051-0.071L14.391,26l-0.071-0.019  L14.248,26l-0.067,0.057l-0.111-0.026l-0.133,0.196l-0.225,0.464h-0.05v-0.077l0.146-0.194l0.044-0.082l0.088-0.269l0.052-0.083  l-0.093-0.077v-0.064l0.048-0.101l-0.004-0.108l-0.048-0.094l-0.083-0.055l-0.086,0.026L13.6,25.666l-0.071-0.032l-0.06,0.077  l-0.167,0.144l-0.204,0.254l-0.055,0.099l-0.025,0.13l-0.034-0.066l-0.008-0.029l-0.008-0.046l0.088-0.104l0.049-0.187l0.004-0.201  l-0.044-0.149l-0.109-0.025l-0.203,0.253l-0.064-0.017h-0.046l-0.079,0.061l-0.574,0.216l-0.046,0.033l-0.068,0.083l-0.061,0.041  l-0.084,0.007l-0.16-0.012l0.023-0.048l0.013-0.033l0.018-0.028l0.039-0.032l-0.094-0.008l-0.235-0.139l-0.216-0.013l-0.064-0.051  h-0.042l-0.038,0.085l-0.147,0.267l-0.196,0.09l-0.069,0.087l0.028,0.168l0.235,0.294l0.099,0.063l-0.355,0.065l-0.028,0.07  l0.028,0.157l0.068,0.238l-0.097,0.053l-0.198,0.001l-0.167-0.053l0.003-0.174L9.93,27.327l-0.087-0.004l-0.077-0.039l-0.156-0.14  l-0.076-0.031L9.218,27.13l-0.127-0.039l-0.089-0.124l0.002,0.064L9,27.087l-0.015,0.049l-0.029,0.048l-0.083-0.065l-0.054,0.115  l-0.02,0.198l0.018,0.179l-0.054-0.056l-0.021-0.03L8.72,27.464H8.677l0.037,0.209l0.024,0.084L8.77,27.82l-0.05,0.071l0.05,0.069  l-0.05,0.071l-0.088-0.117L8.43,27.786l-0.082-0.11v-0.064l0.029-0.014l0.068-0.063l-0.136-0.033l-0.1,0.052l-0.191,0.192  l0.035-0.122l-0.01-0.103l-0.045-0.077L7.929,27.4v-0.077h0.046V27.26l-0.08-0.031l-0.007-0.052l0.024-0.075l0.017-0.098  L7.887,26.97l-0.241,0.072l-0.145,0.09l-0.083,0.032l-0.094,0.019l0.026,0.093l-0.004,0.077l-0.028,0.062l-0.045,0.049H7.232  l-0.028-0.077L7.17,27.34l-0.038-0.003L7.092,27.4L6.97,27.328l-0.155-0.011l-0.158,0.03L6.526,27.4l-0.113,0.083l-0.117,0.121  L6.26,27.708l0.131,0.037v0.076L6.3,27.823l-0.155-0.061l-0.083-0.017l-0.071,0.021l-0.208,0.125l-0.159,0.017l0.05-0.227  L5.55,27.534l-0.176-0.009L5.19,27.599L5,27.71l-0.194,0.035v0.076l0.042,0.014l0.094,0.058l-0.158,0.004l-0.226,0.108l-0.153,0.028  H3.874v0.063l0.06,0.039l0.015,0.033L3.936,28.2l-0.021,0.042l0.186,0.076l-0.127,0.006l-0.312-0.082l-0.089,0.063l0.049,0.141  l0.158,0.217l-0.085,0.025L3.469,28.56l-0.132-0.038l-0.211,0.023l-0.128,0.042L2.89,28.662l0.051,0.077l-0.073-0.03l-0.071-0.046  l-0.122,0.18l-0.168,0.313l-0.068,0.296l0.173,0.126v0.064l-0.128,0.04l-0.08,0.141L2.37,30.014l0.01,0.193l0.116,0.275l0.011,0.13  l-0.126,0.012l0.042,0.213l0.06,0.105l0.091,0.034l0.344,0.004l0.061-0.035l0.011-0.074v-0.074l0.024-0.034l0.132,0.022l0.237,0.097  l0.119,0.027l0.133-0.018l0.203-0.104l0.333-0.082l0.43-0.271l0.21-0.09l0.46-0.076l0.136-0.051l0.213-0.123l0.121-0.037  L5.09,30.445l-0.08,0.064L4.622,30.98v0.063l0.094-0.01l0.091-0.026l0.078-0.041l0.058-0.057l0.051,0.07L4.968,31l-0.007,0.005  l-0.019,0.039l0.152-0.028l0.215-0.149l0.102,0.043l0.025-0.043l0.042-0.053l0.021-0.05h0.05v0.076H5.5v0.07l0.107-0.032  l0.155-0.112l0.114-0.002L5.745,30.91l-0.066,0.049L5.646,31l-0.003,0.043l-0.058,0.024L5.556,31.09L5.5,31.184l0.291-0.021  l0.043-0.012l0.038,0.104l0.084,0.035l0.094-0.026l0.063-0.08l0.028,0.121l0.08,0.039l0.213-0.015v0.076l-0.558,0.119l-0.14-0.056  l0.1-0.002l0.043-0.018l0.043-0.043l-0.457,0.031l-0.32,0.094l-0.082,0.007l-0.088-0.016l-0.052-0.038L4.875,31.44l-0.069-0.036  l-0.605,0.043l-0.188-0.09l0.089-0.377l-0.113-0.054L3.902,31.01l-0.121,0.318l0.012,0.038l0.018,0.072l-0.016,0.069l-0.086,0.03  l-0.074-0.014l-0.057-0.022l-0.057-0.005l-0.075,0.041l0.018,0.103l-0.018,0.106l0.409,0.017l0.083,0.022l0.047,0.104l-0.025,0.04  l-0.053,0.045l-0.034,0.121l0.017,0.074l0.042,0.087l0.077,0.116L3.975,32.44l-0.06,0.216l0.176-0.06l0.12-0.194l0.095-0.232  l0.099-0.18l0.189-0.065l0.362,0.233l0.171-0.063l0.016,0.064l0.03,0.061l0.043,0.05l0.054,0.034l0.288,0.065l0.092,0.093  l0.034,0.227l0.021,0.072l0.096,0.123l0.031,0.115l-0.066,0.288l-0.031,0.072l-0.101,0.042l-0.389-0.118l-2.19,0.492l-0.04-0.015  l-0.054-0.063L2.94,33.698l-0.023,0.036l-0.009,0.039l-0.004,0.036l-0.042,0.074l-0.029,0.064L2.799,34.01l-0.045,0.036l0.511,0.145  l0.23-0.014l0.117,0.021l0.204,0.199l0.089-0.048l0.083-0.102L4.08,34.19l0.068,0.037l0.604,0.477l0.325,0.422l0.102,0.184  l0.067,0.276l0.101,0.259l0.023,0.18l-0.025,0.069l-0.058,0.013H5.223L5.18,36.133l-0.011,0.059l0.015,0.141L5.18,36.41l0.998,0.048  l0.167-0.048l0.104-0.063l0.221-0.213v-0.076H6.484v-0.063l0.023-0.031l0.019-0.038l-0.099-0.071l0.019-0.125l0.096-0.026  l0.128,0.222l0.068-0.067L6.8,35.812l0.067-0.025l0.085-0.007v-0.063L6.87,35.639l-0.092-0.138l-0.04-0.153l0.072-0.12l0.021,0.165  l0.066,0.158l0.087,0.12l0.083,0.047l0.11,0.011l0.091,0.037l0.192,0.159l0.035-0.087l0.051-0.023l0.068-0.003l0.083-0.031  L7.673,35.87l-0.04,0.046L7.58,35.93l-0.068-0.005l0.138,0.038l0.153-0.168l0.049-0.153L7.79,35.435l0.18,0.034l0.182,0.123  l0.128,0.146l0.021,0.11l0.084,0.054l0.043,0.02l0.059,0.002l-0.028,0.118l0.024,0.061l0.049,0.04l0.048,0.053l0.13,0.243  l0.01,0.033l0.123,0.013l0.153-0.032l0.145-0.003l0.099,0.097l0.355-0.201l0.059,0.029l0.057,0.138l0.131,0.046l0.258-0.012  l0.031,0.018l0.077,0.088l0.054,0.031l0.056,0.008l0.176-0.008l0.241,0.06l0.111,0.003l0.075-0.063l0.026,0.075l0.029,0.044  l0.075,0.087l0.098,0.207l0.203,0.261l0.029,0.056l0.097,0.03l0.559-0.139v-0.063l-0.033-0.052l-0.042-0.042l-0.053-0.031  l0.143-0.034l0.207-0.122l0.187-0.177l0.148-0.174v0.075l-0.087,0.07l-0.062,0.119l-0.087,0.225l-0.043,0.013L12.2,37.093  l-0.023,0.041v0.093l-0.008,0.051L12.14,37.3l-0.061,0.006v0.075l0.286,0.029l0.122,0.042l0.107,0.066v0.063l-0.271-0.1L12.2,37.466  l-0.123,0.051l0.182,0.006l0.299,0.082l0.174,0.049l0.208,0.236l0.05,0.04l0.062-0.042l0.021-0.093l0.033-0.094l0.095-0.047  l-0.07-0.106l-0.026-0.03l0.096-0.027l0.054-0.064l0.048-0.038l0.081,0.06l0.009-0.039v-0.016l0.007-0.007l0.034-0.007l-0.029-0.139  l-0.044-0.107l-0.064-0.074l-0.095-0.037L13.309,37l0.092,0.047l0.073,0.019l0.053-0.107h0.043l-0.004,0.069l0.004,0.213  l0.031-0.021l0.08-0.032l0.032-0.022v0.101l0.006,0.072l0.015,0.057l0.026,0.053l-0.511,0.237l-0.082,0.283l-0.016,0.13l0.027,0.062  l0.064,0.039l0.076,0.033l0.065,0.041l0.097,0.111l0.075,0.132l0.047,0.175l0.017,0.234l-0.015,0.136l-0.063,0.169l-0.015,0.11  l0.011,0.091l0.082,0.29h0.042l0.043-0.044l0.143,0.04l0.092,0.005l-0.151-0.177l-0.112-0.233l-0.039-0.288l0.074-0.339l-0.033-0.02  l-0.029-0.034l-0.031-0.014l0.058-0.107l0.076-0.005l0.079,0.051l0.066,0.062l-0.045,0.04l-0.043,0.028l0.095,0.059l0.108-0.011  l0.214-0.116l0.045,0.048l0.04,0.013l0.097,0.007l-0.041-0.133l0.024-0.112l0.043-0.015l0.025,0.155l0.032,0.131l0.063,0.027  l0.039-0.063l-0.041-0.133l0.093,0.082l0.072,0.104l0.062,0.065l0.057-0.039l0.07,0.101l0.018,0.036l0.019-0.039l0.011-0.029  l0.018-0.069L14.9,38.684l-0.076-0.102l-0.061-0.111l-0.024-0.101v-0.241l-0.009-0.07l-0.032-0.125l-0.009-0.079h0.051l0.018,0.125  l0.044,0.093l0.071,0.053l0.099,0.004l-0.058,0.048l-0.021,0.078l0.007,0.102l0.026,0.123h0.047L15,38.436l0.021-0.016l0.088-0.015  v0.075h-0.046v0.063l0.225-0.056l0.133-0.062l0.06-0.12l0.069-0.071l0.352-0.038l0.141-0.067l-0.094-0.063l0.21,0.038l0.081,0.052  l0.08,0.117l-0.136-0.048l-0.142-0.021l0.34,0.219l0.035,0.057l0.079-0.005l0.03-0.022l0.03-0.048l-0.097-0.069l0.085-0.023  l0.041-0.05l-0.009-0.065L16.51,38.13v-0.063l0.154,0.199l-0.032,0.188l-0.265,0.369l0.05,0.069l-0.145,0.095l-0.185,0.018  l-0.173-0.057l-0.106-0.125l-0.039,0.148l-0.008,0.064l-0.062-0.06l-0.047-0.015l-0.039,0.022l-0.038,0.053h-0.047l-0.101-0.201  h-0.186l-0.113,0.083l0.117,0.045l0.004,0.049l-0.01,0.014l0.021,0.01l0.077,0.014l0.065,0.031l0.028,0.054l0.025,0.01l0.105,0.198  l0.014,0.038l0.092,0.088l0.089,0.044l0.102,0.011l0.132-0.012l0.354-0.123l0.114-0.008l0.227,0.083l0.093-0.055l0.011-0.24  l0.073,0.052l0.08,0.021l0.172-0.003l-0.015-0.067l-0.027-0.038l-0.042-0.02l-0.056-0.011l0.116-0.028l0.101,0.009l0.096-0.015  l0.105-0.104l-0.052,0.135l-0.102,0.114l-0.119,0.074l-0.103,0.019l0.07,0.064l0.042-0.007l0.039-0.037l0.063-0.021h0.255  l0.223-0.075l0.089-0.012l0.107,0.018l0.52,0.206l0.125,0.001l0.184-0.032l0.11,0.031l-0.142-0.01L18.455,39.5l-0.424,0.023  l-0.076,0.068l0.096,0.131l-0.056,0.191l0.086,0.055l0.143,0.015l0.111,0.075L18.272,40.2l0.112,0.044l0.167,0.005l0.104,0.021  l-0.021,0.066L18.4,40.467l-0.065,0.077l-0.05-0.063l0.028-0.018l0.008-0.001l0.014-0.055l-0.114-0.022l-0.07-0.031l-0.073-0.005  l-0.542,0.325l0.283,0.183l0.078,0.154l0.011,0.291h0.051l0.036-0.098l-0.003-0.041l-0.033-0.074l0.02-0.021l0.023-0.016  l0.049-0.025l0.104,0.141l0.136,0.134l0.063,0.134l-0.117,0.137l-0.154,0.026l-0.292-0.139l-0.156-0.023v0.068l0.637,0.335  l0.199,0.006l0.007-0.028l0.011-0.062l0.025-0.067l0.054-0.048l0.051-0.01l0.063-0.004l0.114,0.014l0.109,0.064l0.166,0.193  l0.102,0.091l0.122,0.05l0.134,0.002l0.129-0.052l0.159-0.159l0.203-0.06l0.07-0.065l0.037-0.063l0.027-0.065l0.048-0.074  l0.214-0.131l0.939-0.065l0.258,0.076l0.095,0.098l0.061,0.023l0.161,0.017l0.137,0.045l0.234,0.143l0.24,0.199l0.206,0.245  l0.119,0.097l0.279,0.057l0.137,0.091l-0.368-0.012l-0.156-0.069l-0.15-0.163l-0.07-0.047l-0.283-0.056l-0.279-0.205v-0.074h0.139  l-0.061-0.065l-0.066-0.042l-0.073-0.021l-0.079-0.002l0.047,0.068l-0.104,0.003l-0.349-0.092l-0.051-0.047l-0.054-0.068  l-0.05,0.009l-0.046,0.023l-0.047,0.037l-0.626,0.065l-0.163,0.071l-0.061,0.085l-0.043,0.119l-0.027,0.129l-0.008,0.11l0.02,0.151  l0.072,0.156l-0.003,0.136l-0.02,0.148l-0.021,0.082l-0.053,0.035l-0.221,0.032l-0.079,0.057l-0.074,0.069l-0.09,0.062l0.243,0.133  l0.785,0.139l0.409,0.229l0.105,0.104l0.074,0.116l0.076,0.176l0.012,0.168l-0.119,0.09l-0.081,0.176l-0.115,0.359l-0.083,0.149  l-0.26,0.162l-0.1,0.105l0.04,0.141l-0.174,0.127l-0.046,0.102l-0.017,0.216l0.008,0.17l0.027,0.189l0.05,0.155l0.079,0.064  l0.176,0.061l0.211,0.152l0.378,0.397l0.202,0.411l0.058,0.061l0.112,0.013l0.114,0.038l0.09,0.073l0.069,0.253l0.082,0.095  l0.105,0.091l0.102,0.119l0.042,0.115l0.031,0.132l0.054,0.11l0.109,0.046l-0.03,0.172l0.151,0.724l0.064,0.09l0.064,0.035  l0.029-0.044l-0.009-0.085l-0.04-0.161l-0.001-0.123l0.065,0.105l0.076,0.217l0.049,0.082l0.085,0.053l0.193,0.053l0.229,0.201  l0.362,0.064l0.111,0.105L23.87,50.13l0.183,0.06l0.456,0.02l0.187,0.038l0.157,0.108l0.108,0.18L25,50.784l0.074,0.209l0.173,0.009  l0.362-0.115l0.091,0.038l0.154,0.134l0.209,0.127l0.068,0.013l0.108,0.028l0.125,0.189l0.13,0.158l0.183,0.051l-0.008-0.311  l0.253-0.152l0.305,0.021l0.148,0.209l0.018,0.141l0.031,0.082l0.006,0.08l-0.055,0.125l-0.469,0.291l-0.074,0.129l0.037,0.188  l-0.063,0.043l-0.067,0.084l-0.044,0.096l0.008,0.08l0.065,0.07l0.058,0.012l0.062-0.004l0.071,0.021l0.103-0.006l0.036,0.006  l0.008,0.028l-0.009,0.05l-0.001,0.043l0.027,0.02l0.052,0.015l0.159,0.121l-0.081,0.08l-0.001,0.043l0.041,0.03l0.041,0.046  l0.023,0.018l0.088,0.029l0.025,0.016l0.009,0.037l-0.002,0.09l0.05,0.135l0.006,0.098l0.024,0.08l0.13,0.049l0.045,0.037  l0.039,0.043l0.028,0.045v0.06l-0.075,0.166l-0.09,0.082l-0.114-0.009l-0.143-0.1l0.096,0.322l0.075,0.131l0.112,0.074l-0.035,0.027  l-0.068,0.074l-0.037,0.03l0.042,0.054l0.049,0.086l0.041,0.1l0.009,0.102l-0.029,0.113l-0.043,0.021l-0.055-0.011l-0.063,0.009  l-0.105,0.063l-0.077,0.067l-0.032,0.043l-0.035,0.06l-0.047,0.06l-0.076,0.039l0.058,0.102l0.045,0.143l0.03,0.146l0.01,0.112  l0.036,0.088l0.176,0.211l0.612,0.494l0.152,0.175l-0.477-0.224l-0.081-0.076l-0.08-0.055l-0.433-0.512l-0.133-0.006l-0.453,0.139  l0.001,0.123l-0.116,0.68l0.122,0.051l0.239-0.055l0.126,0.096l0.083,0.111l0.096,0.098l0.112,0.07l0.129,0.025l0.205,0.084  l0.365,0.363l0.225,0.082l0.043,0.043l0.027,0.182l0.023,0.041l0.965,0.701l0.315,0.363l0.152,0.242l0.137,0.271l0.227,0.608  l0.089,0.371l0.258,1.846l0.086,0.306l0.125,0.25l0.242,0.188l0.296,0.097l0.271,0.135l0.171,0.302l-0.154-0.13l-0.156-0.077  l-0.176-0.037l-0.21-0.011L31.04,63.9l0.151,0.151l0.078,0.209l-0.064,0.259l0.041,0.119l0.025,0.271l0.027,0.133l-0.091-0.069  l-0.057-0.156l-0.03-0.197l-0.008-0.201l0.02-0.154l-0.01-0.088l-0.056-0.121l-0.061-0.065l-0.218-0.13l-0.261-0.256l-0.231-0.303  l-0.23-0.557l-0.027-0.111l-0.127-0.891l-0.09-0.359l-0.018-0.191L29.72,60.9l-0.191-0.285l-0.824-0.916L28.6,59.666l-0.288-0.162  l-0.456-0.355l-0.06-0.073l-0.071-0.117l-0.021-0.053v-0.052l0.014-0.053l0.02-0.031l0.004-0.108l0.003-0.072l-0.016-0.045  l-0.072-0.033l-0.11,0.039l-0.098,0.15l-0.232,0.473l-0.043,0.144l-0.122,2.037l-0.283,1.522L26.354,67.6l0.044-0.107l0.061-0.227  l0.077-0.425l0.307-0.467l0.044-0.088l0.016-0.019l0.009-0.039l0.013-0.041l0.029-0.026L27,66.157l0.033,0.02l0.029,0.029  l0.031,0.021l0.074,0.03l0.515,0.482l0.066,0.139h-0.093l0.168,0.177l-0.002,0.145l-0.137,0.1l-0.24,0.035L27.03,67.23l-0.171,0.006  l-0.134,0.166l-0.122,0.438l-0.019,0.115l-0.026,0.063l-0.18,0.263l-0.007,0.079l0.058,0.271l0.017,0.142l-0.047,0.59l-0.187,1.332  l-0.439,2.674l-0.239,1.223l-0.162,0.539l-0.279,1.537l-0.164,0.533l-0.046,0.295l-0.201,0.281l-0.052,0.106l-0.268,0.349  l-0.06,0.074l-0.029,0.104l-0.147,0.289l-0.06,0.082l-0.127,0.092l-0.153,0.082l-0.158,0.226l-0.603,0.098L22.9,79.33l-0.051,0.07  l-0.104-0.076l-0.004-0.002l-0.018-0.014l-0.017,0.108l-0.004,0.194l0.001,0.113L22.9,79.82l0.084,0.115l0.023,0.182l0.019,0.039  l0.016,0.035l0.073-0.012l0.08-0.039l0.146-0.021l0.138-0.06l0.062,0.008l0.129,0.062l0.067,0.05l-0.001,0.043l-0.019,0.059  l0.011,0.08l0.05,0.158l0.033,0.045l0.083,0.037l0.074,0.012l0.085-0.012l0.075-0.043l0.038-0.08l0.054-0.16l0.102-0.063  l0.135,0.006l0.211,0.063l0.284,0.15l0.076-0.015l0.075-0.026h0.082l0.196,0.2l0.026,0.343l-0.074,0.371l-0.104,0.293l-0.086,0.116  l-0.28,0.302l-0.056,0.077l0.085,0.203l0.124,0.14l0.15,0.086l0.167,0.045l0.187,0.018l0.116-0.039l0.058-0.127l0.017-0.24  l0.047-0.188l0.117-0.133l0.152-0.06l0.154,0.043l-0.142,0.123l-0.055,0.121l0.03,0.123l0.115,0.133l0.128,0.076l0.395,0.072  l0.234,0.131l0.222,0.18l0.255-0.022l0.059,0.022l0.113,0.072l0.051,0.043l0.236,0.028l0.113,0.031l0.083,0.099l0.237,0.178  l0.26,0.086l0.542,0.043l0.524-0.094l0.182,0.063l0.1,0.256l0.028,0.074l-0.003,0.063l-0.023,0.043l-0.007,0.049l0.038,0.084  l0.07,0.067l0.066,0.011l0.067-0.011l0.068,0.013l0.234,0.144l0.121,0.102l0.264,0.355l0.01,0.039l-0.013,0.038l-0.001,0.035  l0.045,0.021h0.11l0.03,0.011l0.039,0.055l-0.009,0.062l-0.001,0.055l0.065,0.045l0.053-0.01l0.114-0.076l0.06-0.021l0.012-0.221  l0.174,0.006l0.367,0.17l0.208-0.016l0.165-0.098l0.327-0.258l0.06,0.059l0.053-0.02l0.047-0.07l0.037-0.092l0.104,0.1l0.016,0.01  l0.396,0.24l0.081,0.17l0.182,0.023l0.197-0.058l0.123-0.051l-0.015,0.16l0.04,0.159l0.082,0.14l0.112,0.092l0.042,0.05l0.009,0.065  l0.019,0.06l0.072,0.032l0.086,0.025l0.047,0.041l0.032,0.047l0.039,0.039l0.269,0.106l0.235-0.021l0.525-0.193l0.417-0.063  l0.128-0.086l0.11-0.018l0.362,0.094l0.109,0.058l0.146,0.256l0.106,0.127l0.101-0.017l0.191-0.268l0.12-0.123l0.124-0.045  l0.188,0.162l0.015,0.029l-0.002,0.039l0.005,0.037l0.033,0.031l0.136,0.026l0.133-0.008l0.259-0.068l0.113,0.048l0.849-0.023  l0.241,0.031l0.089-0.031l0.046-0.076l0.013-0.021l0.007-0.149l-0.046-0.14l-0.082-0.104l-0.096-0.035l0.042-0.092l0.025-0.039  l0.051-0.041l-0.075-0.104l0.095-0.261l-0.015-0.196l0.032-0.133l0.157-0.062l0.186-0.017l0.12,0.015l0.235,0.092l0.119,0.026  l0.132-0.014l0.117,0.021l0.294,0.174l0.202,0.08l0.059,0.043l0.108,0.107l0.074,0.031l0.064-0.033l0.064-0.051l0.069-0.023  l0.058,0.021l0.113,0.093l0.052,0.032l0.58,0.037l0.142,0.045l0.121,0.109l0.066,0.131l0.051,0.144l0.07,0.129l0.116,0.084  l0.076,0.01l0.227-0.072l0.838,0.002l0.16,0.043l-0.029,0.131l0.034,0.037l0.064,0.004l0.057,0.029l0.12,0.217l0.131,0.182  l0.115,0.316l0.099,0.129l0.151-0.063l0.104-0.361l0.215,0.012l0.2-0.078l0.104-0.008l0.37,0.254l0.074,0.035l0.774,0.076  l-0.059,0.186l0.109,0.072l0.158,0.047l0.058,0.082l0.027,0.041l-0.17,0.016l-0.125,0.121l-0.075,0.191l-0.024,0.23l0.021,0.014  l0.013,0.016l0.005,0.023l-0.003,0.029l0.125,0.053l0.423,0.059l0.143,0.06l0.382,0.262l0.16,0.037l0.127,0.008l0.105,0.045  l0.093,0.156l0.089,0.344l0.064,0.142l0.134,0.117l0.084,0.055l0.092,0.012l0.177-0.018l0.112-0.029l0.079-0.053l0.115-0.119  l0.163-0.125l0.032-0.055l0.052-0.138l0.032-0.047l0.108-0.054l0.321,0.044l0.421-0.134l0.214-0.022l0.19,0.106l0.082,0.068  l0.396,0.186l0.211,0.048l0.109,0.006l0.051,0.146l0.106,0.146l0.13,0.104l0.127,0.034l0.139,0.076l0.074,0.026l0.071-0.002  l0.046-0.047l0.059-0.147l0.051-0.049l0.133-0.002l0.313,0.106L52.873,89l0.182-0.01l-0.002-0.041l-0.084-0.096l-0.063-0.175  l0.056-0.079l0.286-0.228l0.12-0.063l0.141-0.01l0.267,0.041l0.143-0.023l0.107-0.067l0.207-0.199l0.106-0.065l0.111-0.013  l0.114,0.005l0.115-0.019l0.223-0.174l0.222,0.084l0.117-0.076l0.069,0.017l0.201,0.006l0.045,0.014l0.043,0.1l0.053,0.086  l0.068,0.07l0.079,0.053l0.142,0.043l0.174,0.021l0.179-0.009l0.294-0.051l0.004-0.033l-0.039-0.196l-0.107-0.17l-0.065-0.066  l-0.05-0.09l0.02-0.104v-0.105l-0.059-0.092l-0.154-0.053l-0.185-0.039l-0.146-0.066l-0.097-0.117l-0.04-0.303l-0.029-0.381  l-0.027-0.5l0.037-0.381l-0.027-0.236l0.01-0.371l0.049-0.527l0.06-0.555L55.73,83.57l-0.088-0.053l-0.02-0.095l0.048-0.196  l0.069-0.265l0.048-0.146l0.048-0.17l0.107-0.252l0.065-0.173l0.056-0.143l0.067-0.17l0.149-0.14l0.127-0.133l0.076-0.158  l0.089-0.119l0.116-0.104l0.076-0.096l0.096-0.078L56.902,81l0.113-0.143l0.5-0.406l0.461-0.193l0.293-0.014l0.162-0.031  l0.272,0.135l0.144-0.063l0.52-0.689l0.221-0.186l0.803-0.354l1.355-1.121l0.094-0.068l0.258-0.102l0.385-0.052l0.395,0.041  l0.178,0.146l0.01,0.031l-0.106,0.211l0.106,0.217l0.188,0.146l0.144,0.07l0.166,0.037l1.386,0.115l0.704-0.076l0.289,0.117  l0.164,0.125l0.059,0.121l-0.016,0.116l-0.139,0.154l0.006,0.155l0.176,0.104l0.502,0.115l0.854,0.021l0.198-0.01l0.019-0.193  l-0.156-0.176l-0.205-0.147l-0.188-0.193l-0.094-0.313v-0.67l-0.028-0.099l-0.204-0.323V77.5l0.119,0.072l0.096,0.139l0.069,0.16  l0.042,0.143l0.018,0.158l-0.018,0.549l0.104,0.246l0.231,0.217l0.282,0.16l0.119,0.215l0.033,0.16l0.146-0.084l0.161-0.15  l-0.226,0.019l-0.021-0.121l-0.067-0.17l-0.031-0.049l0.056-0.129l0.067-0.058l0.166-0.039l0.07-0.057l0.174-0.08l0.371,0.215  l0.104,0.021l0.198-0.021l0.16-0.115l0.076-0.207l-0.082-0.233l-0.099-0.084l-0.082-0.045l-0.062-0.078l-0.037-0.176l0.012-0.068  l0.033-0.129l0.044-0.127l0.046-0.06l0.042,0.025l0.099,0.135l0.026,0.031l0.161-0.008l0.052,0.008l0.144,0.047l0.033,0.049  l0.004,0.08l0.049,0.146l0.146,0.168l0.175,0.031l0.191-0.068l0.197-0.131l0.024,0.221l-0.088,0.209l-0.14,0.173l-0.131,0.104  l-0.188,0.061h-0.604l-0.211,0.119l-0.142,0.256l0.058,0.223l0.138,0.209l0.211,0.07l0.409,0.021l0.26-0.031l0.511,0.013l0.38-0.259  l0.305,0.197l0.088,0.34l0.029,0.058l0.008,0.108l0.08,0.093l-0.056,0.151l-0.048,0.094l-0.021,0.099l-0.024,0.162l0.159,0.073  l0.169-0.039l0.098,0.011l0.205,0.03l0.138-0.008l0.301,0.027l0.068-0.021l0.073-0.045l0.088,0.049l0.063,0.125l0.08,0.115  l0.095,0.115l0.104,0.012l0.164,0.068l0.071-0.15l0.077-0.098l0.142,0.014l0.13,0.055l0.094,0.104l0.058,0.203l0.306,0.139h0.133  l0.104,0.013l0.032,0.067l0.018,0.08l0.117,0.026l0.074,0.048l0.045,0.069l-0.104,0.097l-0.143,0.09l0.057,0.086l0.194,0.151  l0.258,0.08l0.126-0.223l0.088-0.031l0.198-0.004l0.157,0.017l0.074-0.084l-0.162-0.07l-0.115-0.053l-0.096-0.207l-0.115-0.045  l0.197-0.103l0.108-0.027l0.111,0.002l-0.021,0.048l-0.011,0.09l-0.016,0.053l0.167,0.107l0.225-0.002l0.168,0.03l0.071,0.193h0.121  l0.321-0.043l0.121-0.014l0.133,0.121l0.02,0.172l-0.087,0.07l-0.11,0.041l-0.099,0.053l0.062,0.035l0.389-0.023l0.175-0.021  l0.036-0.088l-0.096,0.029l-0.127-0.053l0.002-0.221l0.066-0.193l0.107-0.096l0.098-0.053l0.182-0.074l0.229-0.039l0.183,0.021  l0.176,0.084l0.133,0.05l0.021,0.038l0.093,0.087l0.225-0.002l-0.036-0.138l-0.026-0.119l0.086-0.164l0.157-0.1l0.138-0.05  l0.199-0.004l0.19-0.032l0.181,0.047l0.143-0.088l0.066-0.111l0.021-0.09l0.164-0.021h0.119l0.082-0.029l0.014,0.072l0.029,0.045  l0.067,0.014l0.134-0.059l0.076-0.019l0.137-0.08l0.133-0.104l-0.055-0.112L80.3,80.84l0.021-0.168l0.115-0.08l0.086-0.162  l-0.029-0.07l-0.145-0.028l-0.412,0.11l-0.143-0.043l0.044-0.141l0.187-0.111l0.187-0.176l0.063-0.07l0.031-0.102l0.059-0.123  l0.133-0.02l0.163-0.021l-0.002-0.151l0.104-0.144l-0.013-0.237l0.104-0.097l0.072-0.043l0.107,0.039l0.068,0.093l0.244-0.07  l0.108,0.002l0.081,0.031l0.09-0.031l-0.027-0.121l0.014-0.068l0.033-0.031l0.024,0.037l0.021,0.033l0.01,0.055l0.158-0.016  l0.027-0.096l0.149-0.104l0.032-0.221l0.197-0.256l-0.002-0.043l-0.031-0.025l0.004-0.004l-0.061-0.043l0.028-0.14l0.114-0.12  l0.093-0.063l0.125-0.02l0.14,0.018l0.109-0.008l0.046,0.109l0.054-0.058l0.09-0.069l0.088-0.104L83.18,77.6l0.109,0.004  l0.059,0.033l0.086,0.158l0.09-0.059l-0.018-0.08l-0.025-0.104l-0.004-0.049l-0.039-0.252l0.047-0.265l0.023-0.067l0.053-0.041  l0.051-0.086l0.089-0.015l0.089-0.036l0.128,0.028l0.05,0.117l0.067-0.039l0.123-0.139l-0.023-0.1l0.091-0.101l0.105-0.065  l0.156-0.017l0.141,0.056l0.123,0.022l0.078-0.012l0.052-0.111l0.029-0.09l0.075-0.074l0.084-0.065l0.012-0.105l0.036-0.111  l0.102-0.112l0.134-0.052l0.129,0.074l0.078,0.113l0.058-0.061l0.058-0.068l0.057-0.047l0.039,0.004l0.055-0.027l0.006-0.033  l-0.01-0.119l0.004-0.034l0.027-0.015l0.029,0.006l0.028-0.002L86,75.5l-0.135-0.451l-0.032-0.238l0.104-0.194l0.295-0.324  l0.14-0.222l0.351-0.295l0.151-0.17l0.054-0.106l0.057-0.211l0.045-0.115l0.074-0.086l0.098-0.076l0.076-0.1l0.015-0.164  l-0.028-0.06l-0.078-0.17l-0.151-0.151l-0.083-0.177l0.094-0.307l-0.211-0.039l-0.279,0.184l-0.195,0.017l-1.185,0.342L84.9,72.378  l-0.064-0.017l-0.063-0.061l-0.037-0.08l-0.049-0.068l-0.09-0.034l-0.177-0.029l-0.129-0.055l-0.724-0.447l-0.271-0.101l-0.4-0.213  l-0.086-0.024l-0.09,0.008l-0.084,0.027l-0.08,0.014l-0.091-0.037l-0.063-0.071l-0.031-0.082L82.35,71.02l-0.043-0.095l-0.063-0.073  l-0.136-0.099l-0.062-0.063l-0.038-0.073l-0.081-0.191l-0.052-0.092l-0.148-0.176l-0.028-0.046l-0.025-0.086v-0.049l0.019-0.057  l0.058-0.295l0.048-0.084l0.229-0.125l-0.178-0.148l-0.207-0.219l-0.152-0.268l-0.021-0.295l0.073-0.129l0.345-0.267l0.234-0.403  l0.096-0.072l-0.077-0.203l0.049-0.191l0.125-0.156l0.156-0.086h0.125l0.245,0.072l0.121-0.002l-0.038-0.123l-0.207-0.393  l-0.027-0.082l-0.035-0.234l-0.077-0.207l0.006-0.014l0.032-0.148l0.014-0.008l-0.002-0.047l0.008-0.025l0.002-0.026l-0.015-0.06  l-0.029-0.047L82.47,65.5l-0.341-0.141l-0.119-0.01l-0.336,0.067l-0.129-0.033l-0.468-0.274l-0.226-0.191l-0.117-0.201l0.013-0.535  l-0.042-0.274l-0.182-0.132l-0.236-0.021l-0.071-0.062l-0.082-0.143l-0.018-0.086l0.008-0.078l-0.013-0.066l-0.11-0.096  l-0.119-0.184l0.081-0.107l0.102-0.086l0.021-0.018l0.234-0.137l0.063-0.012l0.123,0.006l0.055-0.011l0.06-0.034l0.122-0.095  l0.05-0.026l0.239,0.041l0.25,0.137l0.246,0.086l0.221-0.107l0.014-0.059l-0.041-0.045l-0.029-0.053l0.035-0.082l0.055-0.023  l0.156-0.002l0.063-0.014l0.101-0.092l0.116-0.207l0.089-0.084l0.243-0.111l0.239-0.064l0.054,0.023l0.087,0.104l0.034,0.014  l0.046-0.049l0.131-0.235l0.185-0.154v-0.151l-0.072-0.193l-0.035-0.281l0.035-0.055l0.222-0.264l0.142-0.252l0.06-0.148  l0.008-0.119l-0.054-0.039l-0.292-0.129l-0.09-0.07l-0.055-0.107l-0.047-0.118l-0.045-0.07l-0.022-0.037l-0.295-0.223l-0.312-0.175  l-0.053-0.143l-0.038-0.4l-0.026-0.069l-0.072-0.115l-0.014-0.075l0.018-0.082l0.078-0.17l0.016-0.058l-0.04-0.144l-0.085-0.061  l-0.221-0.055l-0.09-0.068l-0.155-0.154l-0.09-0.035l-0.179-0.034l-0.186-0.138L81.2,57.104l-0.077-0.401l-0.02-0.177l0.006-0.172  l0.037-0.162l0.086-0.141l0.104-0.064l0.204-0.028v-0.017l0.019-0.043l0.031-0.045l0.03-0.024l0.026,0.004l0.055,0.035l0.025,0.004  l0.047-0.008l0.168,0.002l0.145-0.043l0.156-0.08l0.136-0.113l0.095-0.155l0.043-0.134l0.055-0.116l0.07-0.091l0.098-0.045  l-0.047-0.08l-0.037-0.098l-0.047-0.179l-0.078-0.202l-0.023-0.104l-0.033-0.023L82,53.883l-0.152-0.068l-0.059,0.023l-0.048,0.051  l-0.052,0.037l-0.065-0.01l-0.06-0.043l-0.004-0.031l0.014-0.041l-0.004-0.076l0.01-0.01l-0.002-0.102l-0.012-0.098l-0.021,0.01  l0.031-0.051l0.056-0.066l0.049-0.074l0.008-0.076l-0.105-0.1l-0.541-0.119l-0.061-0.164l0.063-0.336l0.116-0.352l0.242-0.47  l-0.153-0.266l-0.242-0.257l-0.13-0.225l0.036-0.113l0.181-0.211l0.049-0.164l-0.008-0.097l-0.009-0.09L81.064,50.2l0,0  l-0.102-0.052l-1.015-0.263l-0.455-0.014l-0.435,0.087l-0.58,0.396l-0.224,0.058l-0.222,0.01l-0.21,0.068l-0.222,0.19l-0.194,0.256  l-0.144,0.195l-0.037,0.135l0.028,0.099l0.063,0.168l0.002,0.039l0.066,0.161l0.028,0.041l0.071,0.037L77.6,51.76l0.047,0.021  l0.035,0.227l-0.176,0.186l-0.436,0.289l-0.348,0.406L76.5,53.002l-0.23-0.104l-0.311,0.014l-0.309,0.072l-0.164,0.098l0.091-0.213  l0.052-0.1l0.021-0.082l-0.121-0.152L75.464,52.4l0.024-0.117l0.168-0.104l0.408-0.203l0.012-0.002l0.01-0.002l0.014,0.002  l0.053,0.018l0.041,0.004l0.041-0.004l0.148-0.047l0.029-0.066l-0.006-0.09l0.004-0.105l0.048-0.276l0.022-0.078l0.099-0.224  l0.122-0.269l-0.01-0.108l-0.082-0.148l-0.103-0.107l-0.334-0.205l-0.032-0.021l0.078-0.075l0.012-0.064l-0.014-0.066v-0.075  l-0.006-0.03l-0.016-0.041l-0.016-0.047v-0.05l0.026-0.062l0.079-0.082l0.236-0.407l0.24-0.304L76.6,48.759l-0.021-0.13l0.09-0.12  l0.917-0.837l0.487-0.268l0.067-0.056l0.178-0.203l0.227-0.12l0.071-0.054l0.075-0.096l0.027-0.083l-0.002-0.167l-0.052-0.056  l-0.037-0.049l-0.017-0.056l0.01-0.048l0.105-0.323l0.047-0.085l0.015-0.033l0.024-0.062l0.012-0.137l-0.023-0.109l-0.09-0.174  l-0.029-0.089l0.104-0.349l0.328-0.191l0.734-0.23l0.453-0.345l0.156-0.225l-0.083-0.185l0.092-0.158l0.063-0.063l0.171-0.061  l0.024-0.063l0.026-0.017l0.099-0.051l-0.011-0.171l0.204-0.071l0.432-0.398l0.016-0.014l0.129-0.213l0.197-0.205l0.463-0.338  l-0.027-0.248l0.044-0.205l0.129-0.132l0.062-0.008l0.037-0.014l0.1-0.134l0.07-0.042l0.07-0.019l0.063-0.042l0.054-0.11L82.811,41  l-0.103-0.092l-0.103-0.083l-0.127,0.06l-0.81,0.08l0.034-0.128l0.085-0.156l0.103-0.131l0.174-0.104l0.011-0.189l0.178-0.041  l0.111-0.063l0.102-0.086l0.052-0.084l-0.033-0.12l-0.069-0.138l-0.017-0.112l0.125-0.039l0.061-0.048l0.063-0.016l0.063,0.016  l0.063,0.048l0.176,0.025l0.34-0.059l0.158,0.034l0.089,0.051l0.014,0.002l0.079,0.013l0.184-0.019l-0.121,0.285l0.037,0.163  l0.147,0.089l0.199,0.063l0.028,0.023l0.021,0.036l0.026,0.037l0.052,0.022l0.046-0.009l0.257-0.112l0.181-0.038l0.19,0.008  l0.283,0.013l0.065-0.027l0.123-0.05l0.098-0.127l0.035-0.049l0.023-0.094l-0.012-0.057l-0.032-0.047l-0.022-0.024L85.4,39.664  v-0.062l0.078-0.024l0.105,0.038l0.031,0.019l0.058,0.037l0.089,0.013l0.104-0.094l0.014-0.017l0.008-0.029l0.002-0.026  l-0.002-0.004l-0.006-0.022l-0.048-0.068l-0.017-0.041l0.011-0.032l0.038-0.021l0.07,0.016l0.057-0.019l0.027-0.058l-0.002-0.101  l-0.021,0.001l-0.113-0.087l-0.018-0.006l0.261-0.213l0.037-0.03l0.163-0.09l0.238-0.091l0.004-0.001l0.027-0.103l0.018-0.036  l-0.016-0.096l-0.037-0.052l-0.041-0.039l-0.043-0.051l-0.152-0.307l-0.094-0.129l-0.1-0.053l-0.025-0.046l-0.021-0.108l-0.02-0.217  l0.022-0.062l0.113-0.119l0.04-0.067l0.004-0.165l-0.084-0.353l0.018-0.14l0.098-0.328l0.039-0.048l0.092-0.051l0.014-0.113  l-0.033-0.188v-0.045l-0.005-0.026l-0.004-0.025l0.009-0.042l0.021-0.044l0.044-0.044l0.027-0.05l0.043-0.102l0.013-0.045  l-0.009-0.164l0.037-0.135l0.183-0.193l0.063-0.122l-0.015-0.316l-0.296-0.518l-0.021-0.419l0.045-0.199l0.045-0.154l0.049-0.091  l0.046-0.061l0.034-0.081l0.015-0.147l0.046-0.124l0.43-0.604l0.072-0.147l0.043-0.173l0.014-0.207l0.047-0.214l0.109-0.09  l0.125-0.068l0.094-0.15l0.011-0.143l-0.034-0.136l-0.046-0.13L87.6,30.449l0.008-0.134l0.05-0.271l0.034-0.116l0.048-0.097  l0.045-0.066l0.034-0.1l0.014-0.195l0.034-0.093l0.083-0.083l0.17-0.134v-0.071l-0.08-0.218v-0.356l0.059-0.335l0.286-0.449  l0.079-0.056l0.113-0.037l0.104-0.091l0.188-0.223l0.081-0.053l0.09-0.087l0.072-0.098l0.031-0.082l0.008-0.197l0.037-0.092  l0.076-0.025l0.191-0.004l0.052-0.017l0.038-0.035l0.016-0.057l0.014-0.097l0.033-0.055l0.029-0.031l0.016-0.025l0.061-0.003  l0.249-0.134l0.042-0.035l0.085-0.142l0.31-0.851l0.213-0.402l0.141-0.161l0.002-0.003l-0.079-0.075L90.001,24.43z M48.521,88.041  l-0.068,0.014h-0.019l-0.155-0.021l-0.089-0.07l-0.012-0.116l0.074-0.164l0.078-0.037l0.07,0.1l0.069,0.154l0.075,0.133  L48.521,88.041z"/></svg>
